<?xml version="1.0" encoding="utf-8"?>
<!-- Generator: Adobe Illustrator 28.0.0, SVG Export Plug-In . SVG Version: 6.00 Build 0)  -->
<svg version="1.1" id="Layer_1" xmlns="http://www.w3.org/2000/svg" xmlns:xlink="http://www.w3.org/1999/xlink" x="0px" y="0px"
	 viewBox="0 0 1920 1080" style="enable-background:new 0 0 1920 1080;" xml:space="preserve">
<style type="text/css">
	.st0{fill:none;stroke:#231F20;}
</style>
<g>
	<g>
		<g>
			<path d="M1205.97,818.01c0.39-3.76,3.34-6.05,5.38-8.75c3.08-4.08,7.14-7.46,7.95-12.94c0.18-1.19,0.83-2.25,2.16-2.47
				c1.56-0.27,2.64,0.66,3.13,1.96c2.54,6.74,7.1,12.35,10.34,18.6c1.99,3.85,3.04,9.18,1.63,14.09c-1.02,3.54-2.13,7.02-0.86,10.76
				c0.39,1.15,0.04,2.78-0.93,3.17c-4.81,1.95-2.1,4.51-1.26,7.53c1.93,6.87,2.7,13.8,1.27,21.14c-0.91,4.68,0.5,9.85,1.15,14.77
				c0.49,3.67,0.57,7.33,0.19,10.96c-1.39,13.28,0.01,26.46,0.8,39.69c0.46,7.75,1.3,15.78-3.29,23.04
				c-1.29,2.04,0.09,4.85,0.23,7.22c0.6,10.08,1.07,20.21,9.85,27.73c7.07,6.06,15.01,10.13,23.33,14.04
				c6.38,3,13.25,2.85,19.67,5.05c5.74,1.97,11.92-0.53,17.84,1.28c3.63,1.11,7.46,1.74,11.25,2.09
				c9.59,0.88,11.07,11.85,5.91,18.39c-2.7,3.42-6.72,3.31-9.95,5.2c-6.44,3.76-12.64,8.45-19.61,10.67
				c-10.18,3.25-21.1,4.13-31.42,7.03c-10.23,2.87-20.81,3.62-31.03,6.3c-3.43,0.9-7.09,0.13-10.39,0.97
				c-12.27,3.13-24.79,1.74-37.09,1.77c-11.08,0.03-22.13,1.1-33.15,1.42c-12.18,0.36-24.57,0.2-36.74,2.21
				c-2.77,0.46-5.66,0.59-8.46,0.42c-20.63-1.3-41.19,2.09-61.85,0.74c-9.9-0.65-19.89,0.41-29.84-0.23
				c-1.58-0.1-3.99,0.66-4.09-1.51c-0.1-2.19,2.34-2.55,4.19-2.55c7.49-0.02,14.98,0,22.47,0.14c5.83,0.11,11.65,0.34,17.47,0.68
				c19.97,1.18,39.92-0.51,59.83-1.07c21.86-0.62,43.79-1.98,65.59-4.47c1.5-0.17,2.97-0.23,4.33-1.02
				c2.55-1.48,4.98-1.54,7.36,0.51c2,1.73,4.33,1.68,6.55,0.49c2.48-1.34,3.1-3.54,2.94-6.33c-0.52-9.56-0.45-9.66-9.86-8.86
				c-3.03,0.26-5.98,0.16-8.95-0.25c-16.63-2.29-33.3-0.08-49.88,0.36c-25.07,0.68-50.17,0.69-75.21,2.33
				c-2.01,0.13-3.93-0.02-5.92-0.48c-3.83-0.89-5.63-2.14-3.32-6.47c2.57-4.81-2.09-4.3-4.41-4.54c-3.18-0.33-6.52,0.96-10.58-1.43
				c6.28-0.99,11.63-0.59,16.92,0.04c2.73,0.32,4.27,2.2,3.19,5.01c-1.01,2.62-0.27,3.98,2.35,4.03c8.8,0.14,17.61,1.29,26.41,0
				c7.96-1.17,15.95-0.49,23.94-0.56c15.94-0.13,31.86-1.12,47.81-1.31c13.5-0.16,26.96-0.52,40.43,0.47
				c5.28,0.39,6.83-1.23,6.23-6.54c-0.2-1.81-0.55-3.62-0.61-5.44c-0.04-1.18,0.46-2.46,1.67-2.84c1.73-0.55,1.72,1.16,2.12,2.11
				c1.02,2.43,2.86,3.14,5.26,2.67c2.48-0.49,2.16-2.72,2.39-4.41c0.42-3.15-1.45-4.5-4.15-3.51c-2.96,1.09-3.7,0.15-3.52-2.52
				c0.57-8.43-1.22-16.5-3.62-24.49c-0.24-0.78-0.39-1.64-0.35-2.45c0.7-16.31-5.26-30.79-12.01-45.14
				c-3.95-8.39-9.6-15.93-13.22-24.31c-4.87-11.28-9.3-23.08-7.65-35.98c0.59-4.61,0.26-9.31,1.43-13.88
				c0.35-1.35,0.77-3.21-0.97-4.01c-1.68-0.76-2.04,1.16-3,1.92c-4.47,3.5-8.12,7.76-11.73,12.11c-3.17,3.84-7.71,1.5-10.22-4.1
				c-1.83-4.08-3.91-7.18-7.99-8.89c-2.93-1.23-3.92-4.42-6.36-6.23c-4.56-3.38-9.35-6.53-14.56-8.53
				c-6.65-2.55-9.78-7.71-12.14-13.59c-4.61-11.48-12.28-20.22-22.77-26.53c-4.8-2.89-7.76-8.12-13.66-9.74
				c-9.44-2.61-18.62-6.04-28.68-5.78c-6.97,0.18-14.14,0.3-18.84-6.56c-0.95-1.38-2.85-1.69-3.85-0.19
				c-1.12,1.7,0.9,2.07,1.91,2.75c1.35,0.91,3.36,1.51,3.08,3.5c-0.29,2.05-2.51,1.01-3.69,1.64c-2.98,1.61-6.35,2.59-8.37,5.76
				c-2.16,3.39-5.13,6.04-8.83,7.83c-2.01,0.98-4.06,1.63-6.25,1.22c-10.41-1.96-10.7-2.09-13.84,7.32
				c-2.06,6.18-5.72,11.5-8.12,17.46c-0.39,0.97-0.99,2.04-2.12,1.45c-1.01-0.53-0.86-1.96-0.31-2.7
				c4.16-5.63,4.88-12.94,9.11-18.51c0.96-1.26,1.37-2.65,1.57-4.14c0.21-1.58,1.17-3.48-0.93-4.41c-2.05-0.91-3.92-0.24-5.31,1.53
				c-0.82,1.05-1.66,2.09-2.34,3.23c-3.18,5.32-3.16,5.33-7.65,1.61l0.13,0.13c0.09-2.15,1.13-3.38,2.98-4.69
				c3.22-2.28,2.02-3.99-0.93-6.22c-5.73-4.32-10.52-1.4-15.55,0.7c-2.05,0.86-4.09,1.62-6.25,1.42
				c-6.36-0.57-11.91,1.98-17.66,4.06c-4.4,1.59-9.02,2.4-13.65,0.62c-0.92-0.35-2.04-0.78-2.04-1.93c0-1.32,1.29-1.55,2.2-1.44
				c11.98,1.35,22.59-6.36,34.54-5.17c0.48,0.05,1.13,0.06,1.46-0.21c1.88-1.55,5.57-1.09,5.99-3.6c0.38-2.27-3.02-2.62-4.64-3.94
				c-7.43-6.08-14.9-11.96-20.47-20.08c-4.68-6.82-10.52-12.85-15.77-19.29c-1.11-1.36-4.26-2.45-2.23-4.61
				c1.82-1.94,3.69,0.36,4.91,1.79c6.05,7.06,12.39,13.92,17.82,21.44c4.39,6.08,10.65,10,15.5,15.46c0.58,0.66,1.81,1.14,2.69,1.09
				c10.87-0.71,20.85,3.95,31.4,5.07c2.15,0.23,4.31,0.4,6.44,0.71c0.83,0.12,1.65,0.65,1.52,1.63c-0.13,0.99-1.05,1.32-1.89,1.21
				c-7.66-1.05-15.72,0.55-22.93-3.48c-0.57-0.32-1.22-0.59-1.86-0.69c-1.48-0.22-3.46-0.72-4.22,0.58
				c-1.09,1.86,1.13,3.32,2.19,3.86c3.36,1.7,6.95,3.1,10.59,4.04c4.17,1.07,8.49,1.54,12.75,2.22c10.33,1.63,18.27-3.35,25.46-9.73
				c1.78-1.58,1.31-4.25-1.76-4.78c-2.45-0.42-5.04-0.83-7.46-0.47c-17.65,2.59-32.62-4.84-47.03-13.17
				c-5.87-3.39-10.15-9.32-14.03-15.18c-8.5-12.85-17.47-25.4-25.61-38.47c-2.27-3.64,0.27-8.68-0.24-13.09
				c-0.07-0.61,0.65-1.16,1.42-1.05c0.94,0.14,1.46,0.9,1.58,1.73c0.98,6.59,4.83,12.15,6.57,18.61
				c1.82,6.76,7.08,12.66,11.11,18.75c3.83,5.79,7.56,11.76,12.17,16.9c4.51,5.03,10.13,9.07,16.04,12.49
				c2.15,1.24,4.54,2.06,6.75,3.19c11.65,5.94,24.15,6.51,36.85,5.86c0.6-0.03,1.18-0.36,2.77-0.87c-4.83-3.01-8.76-5.95-13.1-8.02
				c-3.86-1.83-6.75-4.82-10.25-7.03c-1.12-0.71-2.6-1.54-1.49-3.08c0.95-1.32,2.44-0.67,3.64-0.05c3.69,1.92,6.63,4.91,10.29,6.98
				c9.09,5.16,18.17,10.33,27.64,14.77c4.55,2.13,9.53,1.47,14.25,1.79c13.28,0.89,25.73,4.78,38.33,8.54
				c5.51,1.64,10.95,3.61,16.6,4.9c11.16,2.54,18.42-4.43,26.04-10.38c2.71-2.11,4.79-5.04,7.11-7.63c0.69-0.76,1.34-1.71,2.41-0.89
				c0.83,0.63,0.3,1.52-0.17,2.22c-6.1,8.99-14.4,15.47-23.91,20.44c-3.92,2.05-8.03,1.48-12.16,0.18c-4.4-1.39-8.9-2.5-13.56-3.79
				c1.64,5.38,10.8,10.82,16.35,10.76c10.87-0.11,20.57-4.6,30.73-7.45c6.48-1.82,11.9-5.73,18.01-8.23
				c1.26-0.52,2.42-1.09,3.81-0.81c0.84,0.17,1.75,0.45,1.93,1.34c0.2,1.02-0.67,1.35-1.52,1.57c-6.46,1.64-11.98,5.44-18.03,7.92
				c-8.3,3.4-16.37,7.84-25.62,8.6c-1.63,0.14-3.27,0.66-4.83,1.23c-2.21,0.82-2.41,2.57-0.66,3.76c5.71,3.87,11.12,8.5,18.8,7.94
				c2.96-0.22,5.99,0.16,8.96,0.49c2.32,0.25,4.59,0.85,5.09,4.37c-8.69-2.54-17.52-0.05-25.84-3.22c-2.52-0.96-3.54,1.28-2.41,3.21
				c2.67,4.56,5.64,8.75,10.77,11.31c12.07,6.04,23.46,13.17,31.13,24.77c1.7,2.56,3.49,2.69,5.2,0.72
				c10.06-11.57,23.71-19.22,33.63-30.95c1.14-1.34,1.75-2.75,2.4-4.25c0.5-1.14,1.34-2.16,2.68-1.54c1.44,0.67,0.61,2,0.45,3.09
				c-0.28,1.91-2.27,2.35-3.14,3.69c-0.93,1.44-2.49,3.17-0.87,4.93c1.32,1.43,3.19,0.89,4.63,0.01
				c8.99-5.54,19.74-7.85,27.76-15.16c2-1.82,4.81-1.35,7.19-3.31c9-7.4,10.92-16.98,4.38-26.39c-1.99-2.87-3.73-5.91-5.63-8.85
				c-1.12-1.74-2.2-2.29-3.76-0.2c-2.96,3.96-6.39,7.59-9.11,11.7c-1.33,2.01-2.83,2.54-4.86,2.74L1205.97,818.01z M1303.67,1038.35
				c-4.34,1.68-7.58,2.93-10.82,4.18c-3.98,1.54-7.6,3.95-12.15,4.06c-14.71,0.36-28.58,5.8-43.09,7.42
				c-1.26,0.14-2.26,0.96-2.13,2.33c0.16,1.65,1.58,1.52,2.7,1.36c9.15-1.29,18.44-1.58,27.36-4.45c4.66-1.5,9.16-3.3,14.33-3.51
				C1288.67,1049.39,1297.08,1047.18,1303.67,1038.35z M1206.34,1007.83c-1.04,0.13-1.66,0.8-1.75,1.62
				c-0.24,2.3-0.67,4.88,1.35,6.52c1.72,1.4,2.78,2.55,2.03,4.96c-0.58,1.87,1.02,2.58,2.55,2.99c1.38,0.37,2.72,0.29,3.46-1.13
				c0.74-1.43,0.05-2.75-1.06-3.5c-3.05-2.05-4.1-5.03-4.58-8.45C1208.17,1009.62,1207.97,1008.13,1206.34,1007.83z M1196.85,882.6
				c-0.27-2.44-3.86-2.46-2.56-4.79c0.97-1.73,3.07-0.8,4.59-0.58c3.04,0.45,4.22-2.25,6.31-3.36c0.56-0.3,0.82-1.06,0.42-1.74
				c-0.49-0.84-1.32-1.02-2.13-0.68c-5.21,2.14-10.4,4.33-15.59,6.5C1191.28,878.94,1192.94,882.8,1196.85,882.6z M1219.27,900.33
				c0.33-0.13,0.69-0.18,0.94-0.38c3.51-2.69,7.02-5.38,10.49-8.12c0.87-0.69,1.11-1.7,0.44-2.64c-0.63-0.89-1.9-1.39-2.62-0.81
				c-3.56,2.85-7.06,5.79-10.33,8.95C1217.4,898.09,1217.27,899.92,1219.27,900.33z M1177.71,919.05c-2.92,4.1-2.43,7.66,0.76,11.08
				c4.82,5.17,6.13-1.97,9.43-1.92C1179.45,927.83,1177.02,925.73,1177.71,919.05z M1211.26,983.23c-0.35-0.42-0.78-1.15-1.4-1.63
				c-0.92-0.71-2-0.64-2.55,0.43c-0.82,1.59-1.76,2.75-3.76,2.7c-1.41-0.04-2.78,0.36-2.69,2.17c0.09,1.84,1.63,2.38,3.06,2.83
				C1204.79,990,1211.27,984.48,1211.26,983.23z M1230.69,899.83c-0.07-1.97-1.58-2.52-2.98-1.53c-2.54,1.8-4.94,3.9-7.03,6.21
				c-1.27,1.4-0.1,2.41,1.53,2.59C1223.61,907.25,1230.5,901.45,1230.69,899.83z M1231.84,985.83c-0.05-3.26-0.26-5.62-2.38-7.16
				c-1.74-1.26-3.26-1.06-3.54,1.35c-0.36,3.08,4.64,5.06,1.9,8.73c1.28,0.85,2.64,0.94,3.44-0.44
				C1231.81,987.37,1231.79,986.1,1231.84,985.83z M1169.84,884.01c1.25-0.51,2.15-0.88,3.05-1.25c3.63-1.53,1.53-3.9,1.01-6.16
				c-0.55-2.42-1.86-1.53-3.29-1.12c-3.47,0.99-1.7,2.74-0.68,4.37C1170.74,881.15,1169.48,882.33,1169.84,884.01z M1225.84,1059.96
				c1.81-0.43,5.03,0.88,5.12-1.56c0.12-3.19-3.33-1.35-5.12-2.02c-0.78-0.29-1.53-0.68-2.34-0.85c-1.83-0.39-2.35,0.78-2.47,2.27
				c-0.14,1.72,0.34,3.05,2.41,2.86C1224.26,1060.59,1225.05,1060.21,1225.84,1059.96z M1224.22,940.8c-1.33,1.45-4.3-0.77-4.33,2.4
				c-0.01,1.11,0.66,1.86,1.76,2.09c1.96,0.41,3.62-0.04,4.64-1.93c0.57-1.05,2.9-2.38,1.63-2.95c-2.32-1.05-2.25-4.22-4.68-4.52
				c-1.47-0.18-1.89,1.07-1.39,2.42C1222.26,939.42,1224.07,939.11,1224.22,940.8z M1196.02,935.94c-0.09-1.57-1.46-1.5-2.46-1.92
				c-3.52-1.48-4.77,3.29-7.95,2.86c-0.78-0.1-1.74,0.5-1.59,1.49c0.18,1.13,1.35,1.83,2.23,1.49c3.03-1.16,5.93-2.69,9.21-3.13
				C1195.67,936.7,1195.82,936.23,1196.02,935.94z M1205.99,1049.05c0.06-1.43,1.63-3.73-1.12-3.8c-2.17-0.06-1.78,2.31-1.98,3.87
				c-0.04,0.32-0.05,0.66-0.02,0.98c0.17,1.82-0.81,4.75,1.91,4.77c3.62,0.02,1.27-2.72,1.21-4.35
				C1205.97,1050.03,1205.99,1049.54,1205.99,1049.05z M1210.77,939.33c-2.88,0.57-4.79,0.95-6.7,1.33
				c-1.19,0.24-2.41,0.57-2.22,2.13c0.17,1.45,1.41,1.7,2.6,1.84C1207.91,945.06,1208.75,942.26,1210.77,939.33z M1183.49,886.58
				c1.41-0.77,4.53,0.49,4.44-1.51c-0.11-2.53-3.2-2-5.19-2.05c-1.29-0.03-3.5-0.56-3.3,1.65
				C1179.62,886.77,1181.77,886.47,1183.49,886.58z M1182.91,916.13c0.35,1.97,1.96,1.53,3.07,1.42c1.52-0.15,3.93,1.86,4.38-1.03
				c0.26-1.64-1.79-2.16-3.25-2.22C1185.51,914.23,1183.85,914.43,1182.91,916.13z M1227.63,949.85c-0.68-1.92-1.86-1.35-2.93-0.94
				c-1.86,0.7-2.62,3.06-4.87,3.26c-0.72,0.06-1.29,0.62-1.01,1.39c0.37,1,1.26,0.96,2.06,0.58c1.93-0.91,3.86-1.84,5.72-2.88
				C1227.1,950.99,1227.34,950.27,1227.63,949.85z M1238.49,997.56c-0.89-1.36-0.75-3.92-3.05-3.87c-1.65,0.04-1.35,2.01-1.44,3.21
				c-0.15,2,1.37,2.38,2.92,2.5C1238.15,999.5,1238.8,998.97,1238.49,997.56z M1212.77,907.13c1.31-1.62,2.79-3.14,3.84-4.92
				c0.46-0.78-0.7-1.53-1.53-1.22c-2.1,0.79-4.57,1.42-5.31,3.84C1209.43,905.93,1210.9,906.16,1212.77,907.13z M1207.84,997.97
				c0.09-1.01-0.04-2.13-1.04-1.9c-1.77,0.41-3.24,1.63-3.77,3.42c-0.35,1.19,0.39,2.55,1.64,2.59
				C1207.52,1002.19,1206.74,999.24,1207.84,997.97z M1203.05,934.66c1.32-0.04,3.1,0.43,3.28-1.27c0.2-1.92-1.8-1.97-3.14-2.34
				c-1.42-0.39-2.97,0.15-3.16,1.49C1199.71,934.72,1201.88,934.21,1203.05,934.66z M1204.97,979.54c1.63,0.01,2.12-0.94,2.12-2.25
				c0-1.61-0.75-2.55-2.45-2.28c-1.33,0.22-2.88,0.64-2.85,2.24C1201.82,979.18,1203.61,979.28,1204.97,979.54z M1226.15,968.61
				c-1.73-0.95-1.99-3.82-4.53-4.25c-0.82-0.14-1.65,0.95-1.15,1.73c1.14,1.76,2.3,3.67,4.33,4.5
				C1225.64,970.93,1226.17,969.97,1226.15,968.61z M1214.17,922.78c-1.31,0.73-1.68,2.12-1.71,3.62c-0.02,1.05,0.37,2.06,1.66,1.91
				c1.69-0.2,1.91-1.61,1.95-2.95C1216.1,924.21,1215.98,923.01,1214.17,922.78z M1222.07,885.6c-0.06-1.06-0.36-2.05-1.66-1.86
				c-1.75,0.26-2.38,1.57-2.35,3.18c0.03,1.17,0.79,1.76,1.95,1.57C1221.6,888.22,1221.96,886.98,1222.07,885.6z"/>
			<path d="M754.04,1054.66c11.76-2.28,22.88,0.26,33.77,4.92c3.42,1.46,5.17,4.1,6.69,6.99c0.95,1.8,0.75,3.83-1.05,5.44
				c-14.04,12.56-30.01,20.76-48.84,23.88c-8.32,1.38-16.49,0.09-24.71,0.53c-11.02,0.6-21.73,2.24-32.53,4
				c-8.31,1.35-16.58-0.61-24.87-1.01c-2.96-0.14-3.75-2.21-4.62-4.91c-2.6-8.04,3.1-13.54,5.5-20c2.08-5.63,5.24-10.59,10.04-14.57
				c7.11-5.91,11.05-14.29,16.06-21.84c6.14-9.24,12.57-18.29,19.62-26.87c3.56-4.33,6.49-8.98,8.79-14.13
				c2.07-4.65,5.3-8.72,7.92-13.08c6.12-10.18,10.42-21.19,16-31.57c5.55-10.31,10.45-21.1,20.13-28.74
				c4.64-3.66,6.92-9.62,10.84-14.18c5.68-6.61,12.85-11.52,18.9-17.66c5.34-5.43,10.68-10.85,15.95-16.35
				c0.63-0.66,1.38-2.22,1.1-2.57c-4.64-5.73,0.78-9.77,3.2-13.04c7.38-9.98,13.76-20.65,21.44-30.43
				c3.67-4.67,7.34-9.33,11.27-13.78c1.41-1.59,1.1-3.42,1.15-5.21c0.06-2.32,1.26-4.02,3.29-4.5c2.73-0.65,3.74,2.31,5.32,3.67
				c1.65,1.42-0.77,2.49-1.59,3.81c-3.72,5.91-10.19,8.93-14.33,14.47c-4.94,6.62-9.03,13.78-13.81,20.47
				c-3.06,4.28-6.24,8.48-9.43,12.66c-1.1,1.44-1.67,2.95-0.96,4.63c0.73,1.74,2.44,1.5,3.91,1.48c6.64-0.06,13.3-0.51,19.88,0.82
				c0.97,0.2,2.36,0.08,2.84,0.68c4.13,5.09,10.77,7.42,14.54,12.68c7.27,10.15,16.41,18.14,26.7,24.95c8.77,5.8,9.43,5.54,17.03-2
				c8.83-8.76,18.21-16.99,26.66-26.1c8.81-9.49,18.16-18.61,25.01-29.79c0.57-0.93,1.15-3.24,2.64-2.1
				c1.51,1.16-0.18,2.41-1.11,3.63c-3.88,5.07-7.65,10.24-11.29,15.49c-4.73,6.84-10.62,12.76-16.66,18.22
				c-9.71,8.78-17.86,19.02-27.56,27.76c-1.97,1.78-3.08,3.73-0.93,6.86c2.76,4.04,3.47,9.22,6.1,13.5
				c0.93,1.51,1.72,3.07,3.55,3.06c2.21-0.01,4.35-0.95,5.51-2.89c5.18-8.66,9.98-17.54,17.06-24.95
				c5.97-6.25,9.29-14.36,14.28-21.33c5.92-8.26,10.89-17.11,14.98-26.43c0.32-0.74,0.81-1.68,1.78-1.43
				c1.4,0.37,1.14,1.89,0.65,2.42c-2.81,3.12-2.85,7.55-5.44,10.79c-3.18,3.98-4.61,8.97-7.35,13.32
				c-9.25,14.67-18.69,29.12-29.95,42.39c-2.99,3.52-4.78,8.29-6.25,12.77c-0.89,2.73-2.18,3.9-4.49,3.23
				c-6.42-1.86-13.66-1.81-17.6-9.14c-2.2-4.1-6.97-5.98-11.15-8.07c-2.23-1.11-4.44-2.25-6.63-3.42c-0.85-0.46-2-0.94-1.41-2.19
				c0.49-1.04,1.89-1.26,2.62-0.85c6.68,3.72,15.03,4.58,19.78,11.62c1.45,2.16,4,5.56,5.72,4.34c1.9-1.35-0.3-5.13-1.48-7.34
				c-4.61-8.66-13.07-13.73-19.92-20.3c-2.08-2-4.21-2.03-5.36,1.18c-4.26,11.84-12.92,20.16-21.7,28.72
				c-5.72,5.58-9.13,13.36-14.35,19.65c-5.13,6.19-11.49,10.92-17.38,16.18c-6.97,6.24-14.45,11.88-21.03,18.61
				c-2.34,2.39-5.79,4.25-8.84,5.79c-7.72,3.89-13.57,9.94-20.08,15.26c-8.23,6.73-15.06,14.96-23.87,21.13
				c-3.71,2.6-6.18,7.45-5.21,12.73c0.72,3.88,6.67,7.73,11.99,8.02C751.61,1054.72,752.77,1054.66,754.04,1054.66z M801.05,980.06
				c3.82-0.35,3.66-4.97,6.62-6.29c0.04-0.02-0.34-1.55-0.83-2.08c-0.77-0.81-1.93-0.86-2.53,0.17c-1.13,1.92-1.91,1.65-3.19,0.07
				c-0.99-1.22-2.55-1.74-4.24-2c0.05,4.31,6.39,5.45,4.28,10.25c-1.64-0.55-2.75-1.7-3.72-3.09c-0.63-0.89-1.59-1.12-2.61-0.48
				c-0.9,0.56-1.63,1.38-1.35,2.42c0.68,2.5,3.01,3.66,5.02,4.31C800.9,984.13,800.38,981.36,801.05,980.06z M760.89,959.93
				c-2.47-0.3-4.94-0.6-7.4-0.91c-1.84-0.23-3.83-0.4-4.38-2.59c-0.38-1.49,0.01-2.97,1.22-4.11c1.68-1.59,3.17-0.79,4.98-0.01
				c3.68,1.6,7.71,1.98,11.67,2.06c1.19,0.02,4.18-0.12,2.63-2.75c-2.94-4.98-14.19-5.73-19.05-2.36
				c-4.55,3.15-5.76,8.07-8.33,12.28c-2.9,4.75-1.79,7.09,3.88,7.18c5.56,0.09,10.96,3,16.71,0.6c1.75-0.73,3.66,0.57,5.38,1.89
				c2.76,2.13,5.87,3.88,9.63,4.19c-2.62-1.41-3.33-4.92-6.6-5.54c-0.98-0.18-2.06-0.76-1.67-2.01c0.48-1.53,1.84-1.06,2.95-0.86
				c1.34,0.24,2.36,1.05,3.48,1.81c3.51,2.38,7.15,4.6,10.81,6.76c1.24,0.73,2.74,0.65,3.48-0.77c0.86-1.65-0.45-2.24-1.71-2.93
				c-3.77-2.06-7.88-3.77-11.07-6.52c-2.95-2.54-5.4-2.36-8.01-0.48c-2.22,1.6-4.49,2.05-7.05,1.68c-4.12-0.59-8.22-1.14-12.42-1.03
				c-1.88,0.05-4.8-0.11-4.35-2.75c0.46-2.64,3.02-0.86,4.65-0.73c1.82,0.15,3.61,0.71,5.42,0.82c2.27,0.13,4.38-0.3,5.01-3.03
				c1.15,0.1,2.31,0.18,3.46,0.29c0.99,0.1,1.97,0.28,2.96,0.34c1.93,0.11,4.46-0.2,2.67-2.65c-1.65-2.25-4.67-0.53-7,0.07
				C762.09,958.05,761.54,959.21,760.89,959.93z M861.71,908.33c6.68-2.39,7.27-4.6,2.67-9.69c-7.32-8.1-15.33-15.49-23.17-23.07
				c-4.42-4.27-9.51-4.1-14.67-4.75c-5.57-0.7-10.3,0.36-13.85,5.45c-2.33,3.35-5.88,5.73-8.67,8.82
				c-3.98,4.41-8.71,8.14-13.11,12.18c-1.18,1.08-4.21,0.36-3.45,3.27c0.55,2.13,1.71,4.21,3.93,4.85c5.92,1.7,11.43,4.33,16.9,7.06
				c6.09,3.05,13.66,3,18.42,8.86c0.65,0.8,1.83,1.06,2.74,0.47c1.28-0.84,0.5-2.02,0.27-3.14c-0.76-3.74-3.63-5.89-7.14-8.52
				c7.84,1.37,18.51,14.93,18.71,22.74c0.03,1.32-0.5,2.84,1.54,2.97c1.27,0.08,1.87-0.73,2.57-1.86c2.01-3.23,1.45-9.64,8.44-7.26
				c0.57,0.19,1.89-0.81,2.38-1.56c3.36-5.14,9.3-9.47,5.61-16.95L861.71,908.33z M693.38,1089.08c-3.16,0-6.32-0.03-9.47,0.02
				c-1.41,0.02-3.38-0.47-3.4,1.78c-0.01,1.96,1.85,2.26,3.31,2.26c3.65-0.01,7.29,0.18,10.94,0.34c8.79,0.38,18.2,2.2,26.25-0.23
				c9.83-2.97,19.5-0.13,29.35-2.61c9.32-2.35,17.83-5.34,25.58-10.6c1.62-1.1,6-2.49,3.94-5.16c-1.93-2.49-4.85,0.6-6.65,2.22
				c-8.46,7.57-19.42,9.77-29.62,10.43C726.96,1088.58,710.13,1087.86,693.38,1089.08z M686.58,1080.1
				c-0.09,0.02-1.06,0.23-2.04,0.4c-1.04,0.18-2.12,0.19-2.33-1.13c-0.2-1.28,0.29-2.44,1.78-2.43c2.17,0.01,3.89-0.71,3.47-3.05
				c-0.51-2.79-3-1.9-4.91-1.94c-2.98-0.06-6.09,1.23-8.39-2.49c-1.18-1.91-3.09-0.23-3.32,1.67c-0.37,3,1.12,4.68,4.26,4.84
				c0.92,0.05,2.29,0.18,1.94,1.59c-0.31,1.25-1.59,0.92-2.54,0.78c-6.35-0.88-6.33-0.89-6.78,5.41c-0.08,1.15-0.22,2.33-0.56,3.42
				c-0.62,2-0.55,3.69,1.7,4.48c1.81,0.64,3.71,0.89,4.77-1.24c0.99-1.98,2.93-2.44,4.59-3.49c3.9-2.46,8.11-1.23,12.17-1.67
				c1.93-0.21,3.25-1.05,3.31-3.01c0.07-2.17-1.71-2.08-3.21-2.14C689.48,1080.07,688.48,1080.1,686.58,1080.1z M827.06,955.12
				c-2.26,1.3-3.5,1.78-5.79-0.4c-8.44-8.08-16.98-16.15-26.86-22.58c-1.06-0.69-1.92-2.33-3.3-0.88c-1.26,1.31-0.45,2.88,0.36,4.12
				c0.52,0.79,1.43,1.37,2.26,1.9c9.24,5.84,17.73,12.91,25.44,20.38C824.71,963.02,824.91,958.69,827.06,955.12z M713.38,1062.17
				c0-0.18,0-0.36,0.01-0.54c-2.97,0-6-0.36-8.91,0.1c-3.08,0.48-7.93,2.35-7.74,4.27c0.44,4.54,4.31,1.02,6.73,1.15
				c0.33,0.02,0.66,0,0.99,0.03c8.29,0.75,16.35-2.49,24.67-1.39c1.37,0.18,2.9-0.2,2.71-2.03c-0.18-1.79-1.76-1.59-3.1-1.59
				C723.63,1062.18,718.5,1062.17,713.38,1062.17z M819.7,925.22c-3.28,3.16-5.13,2.82-7.45,0.86c-2.45-2.07-5.52-3.47-8.44-4.9
				c-1.13-0.56-2.74-0.49-3.56,0.84c-0.61,0.98,0.44,1.35,1.1,1.8c6.66,4.51,13.3,9.05,19.97,13.55c1.03,0.7,2.24,2.07,3.47,0.8
				c1.44-1.49-0.23-2.54-0.98-3.78C822.3,931.86,818.22,930.94,819.7,925.22z M745.96,1005.21c2.43-1.72,4.67-2.16,7.27-1.13
				c1.04,0.41,2.57,0.23,2.74-1.3c0.17-1.55-1.25-1.76-2.41-1.89c-1.63-0.18-3.04-0.35-4.56-1.46c-5.68-4.12-12.5-5.2-19.22-6.4
				c-0.89-0.16-1.79,0.15-1.78,1.18c0,0.47,0.73,1.35,1.13,1.34c5.38-0.06,8.79,5.37,14.4,4.95
				C746.19,1000.32,747.55,1002.01,745.96,1005.21z M746.38,987.55c1.31,0.21,2.45,0.41,3.6,0.56c1.07,0.14,2.06-0.06,2.28-1.3
				c0.22-1.22-0.66-2.09-1.66-1.94c-5.93,0.88-12.15-4.19-17.9,0.97c-1.09,0.98-3.75,0.88-2.58,3.18c0.85,1.68,3.05,1.6,4.42,0.62
				C738.27,986.99,742.52,988.11,746.38,987.55z M769.49,975.74c-2.16-0.12-3.02,0-3.25,1c-0.29,1.24,0.59,1.76,1.56,2.17
				c6.02,2.55,11.22,6.37,16.22,10.5c1.08,0.89,2.23,1.92,3.45,0.7c1.5-1.5,0.09-2.45-0.93-3.65c-3.14-3.67-8.17-3.7-11.82-6.49
				C772.69,978.43,771.27,975.7,769.49,975.74z M742.66,971.25c0.13,0-1.21-0.08-2.53,0.02c-1.14,0.09-2.56,0.2-2.51,1.77
				c0.04,1.4,1.25,1.86,2.49,1.92c4.81,0.25,9.63,0.46,14.44,0.67c1.2,0.05,2.57-0.06,2.69-1.54c0.14-1.71-1.22-2.16-2.67-2.24
				C751.08,971.67,747.6,971.5,742.66,971.25z M773.16,925.33c-0.67-0.06-2.47-0.23-4.28-0.36c-1.43-0.1-2.78,0.19-2.96,1.87
				c-0.18,1.73,1.13,2.21,2.56,2.33c3.12,0.27,6.24,0.68,9.36,0.67c2-0.01,5.12,0.08,4.99-2.57c-0.11-2.21-3.16-1.69-5.05-1.91
				C776.64,925.22,775.47,925.33,773.16,925.33z M788.05,943.03c-1.14,0.2-2.24,0.04-2.22,1.19c0.02,1.65,1.28,2.88,2.5,3.47
				c4,1.94,8.12,3.54,10.94,7.3c0.62,0.82,2.2,1.26,3.11,0.22c1-1.14,0.1-2.25-0.89-2.88c-3.21-2.03-5.91-4.68-8.82-7.07
				C791.31,944.14,789.43,943.67,788.05,943.03z M794.24,921.1c1.54,0.01,2.98,0.25,3.03-1.41c0.04-1.35-1.2-2.06-2.37-2.17
				c-4.29-0.42-8.6-0.74-12.9-0.98c-1.09-0.06-2.6-0.09-2.69,1.5c-0.08,1.47,1.26,1.85,2.42,2
				C786.01,920.57,790.38,920.02,794.24,921.1z M780.94,991.55c-0.23-1.23-1.17-1.58-2.16-1.79c-3.71-0.79-6.43-3.24-9.15-5.61
				c-1.18-1.03-2.34-1.82-3.89-1.93c-0.81-0.06-1.73-0.18-2.06,0.85c-0.31,0.97,0.34,1.57,1.07,1.99c4.37,2.54,8.73,5.1,13.15,7.55
				C779.11,993.27,780.49,993.45,780.94,991.55z M775.09,938.76c0.88-0.13,2.23-0.21,3.5-0.56c0.51-0.14,1.12-0.81,1.21-1.32
				c0.19-1.03-0.64-1.37-1.54-1.46c-3.47-0.35-6.94-0.76-10.41-1.01c-1.54-0.11-2.59,0.74-2.54,2.38c0.05,1.49,1.13,2.12,2.41,1.74
				C770.09,937.81,772.34,938.74,775.09,938.76z M748.64,990.91c-1.79,0.25-3.23-0.08-3.65,1.33c-0.3,1.01,0.75,1.34,1.54,1.5
				c4.76,0.95,8.67,3.44,12.23,6.61c0.69,0.61,1.49,0.64,2.26,0.08c0.65-0.47,0.77-1.23,0.28-1.72
				C757.54,994.98,752.92,992.7,748.64,990.91z M778.92,943.62c-0.31-0.4-0.58-1.15-1.08-1.35c-3.5-1.39-7.16-1.19-10.6-0.1
				c-1.67,0.53-1.41,2.41-0.24,3.72c0.57,0.64,11.21-0.88,11.61-1.6C778.69,944.15,778.75,943.99,778.92,943.62z M694,1053.57
				c2.07,0.17,3.56,0.96,4.51,2.76c0.38,0.73,1.11,1.42,1.96,0.57c0.73-0.73,0.35-1.54-0.33-2.12c-2.37-2.03-4.77-4.02-7.17-6.02
				c-1.34-1.12-2.04,0-2.84,0.82c-0.97,0.99-1.73,2.11-1.28,3.52c0.45,1.42,1.69,1.36,2.88,1.09
				C692.53,1054.01,693.31,1053.76,694,1053.57z M736.73,979.43c5.13,1.48,9.61,1.67,14.05,2.11c1.17,0.12,2.65,0.25,2.81-1.25
				c0.16-1.46-1.35-1.77-2.48-1.89C746.53,977.89,741.98,977.93,736.73,979.43z M788.62,967.85c0.83-0.44,1.52-0.62,1.91-1.07
				c0.54-0.62,0.11-1.26-0.48-1.65c-3.39-2.26-6.8-4.5-10.2-6.73c-0.62-0.41-1.27-0.4-1.82,0.09c-0.62,0.55-0.37,1.15,0.01,1.76
				C780.52,964.31,785.77,964.26,788.62,967.85z M787.88,951.69c-0.98,0.1-2.14,0.02-2.45,1.21c-0.13,0.5,0.15,1.49,0.54,1.7
				c2.75,1.46,5.55,2.83,8.39,4.12c0.75,0.34,1.71,0.22,2.24-0.54c0.22-0.31,0.16-1.27-0.02-1.34
				C793.41,955.57,791.86,951.56,787.88,951.69z M734.89,1001.06c-3.96-1.09-6.63-1.99-9.36-2.52c-1.35-0.26-2.78,0.47-2.88,2.06
				c-0.09,1.42,1.23,1.96,2.4,1.97C727.97,1002.61,730.93,1002.81,734.89,1001.06z M724.56,1024.53c1.75,0.02,4.09,1.31,4.56-1.31
				c0.31-1.71-1.68-2.44-3.18-2.15c-2.08,0.41-5.61-1.08-5.92,1.77C719.69,1025.86,723.13,1023.63,724.56,1024.53z M806.6,936.05
				c-1.8-2.46-2.7-5.59-5.45-7.31c-0.95-0.59-1.94-1.79-3-0.83c-1.32,1.18,0.32,1.92,0.85,2.81
				C800.71,933.54,804.21,933.93,806.6,936.05z M733.7,1035.21c-0.15,1.51-0.15,3.41,1.44,3.26c2.76-0.26,1.92-3.38,2.94-5.09
				c0.75-1.25-0.32-2.99-1.79-2.8C733.64,1030.91,734.59,1033.74,733.7,1035.21z M730.17,1015.79c2.05,2.49,3.01,4.07,4.36,5.18
				c1.12,0.92,2.96,1.5,3.92-0.11c0.88-1.48-0.67-2.46-1.79-2.99C735.05,1017.14,733.28,1016.76,730.17,1015.79z M744.66,1015.71
				c-1.5,0.16-1.61,1.2-1.36,2.2c0.47,1.9,0.72,4.19,3.15,4.54c1.1,0.16,1.49-1.17,1.42-2.22
				C747.72,1018.06,746.71,1016.47,744.66,1015.71z M757.56,986.32c2.46,1.98,3.91,3.18,4.83,4.94c0.42,0.82,1.75,0.88,2.7,0.51
				c0.63-0.25,1.09-1.12,0.57-1.59C763.67,988.39,762.11,985.68,757.56,986.32z M732.43,1008.25c-0.19-1.72-1.41-2.01-2.82-1.9
				c-1.21,0.09-2.36,0.53-2.4,1.94c-0.05,1.66,1.19,2.22,2.6,2.28C731.32,1010.63,732.24,1009.83,732.43,1008.25z"/>
			<path d="M1080.48,654.62c1.49,5.75,0.94,6.58-4.81,6.51c-6.15-0.08-12.33-0.57-18.46,3.81c3.63,1.75,6.93,3.34,10.22,4.94
				c1.27,0.61,3.37,0.83,2.54,2.9c-0.72,1.78-2.6,1.38-3.93,0.71c-5.03-2.52-10.89-3.16-15.45-6.72c-1.65-1.29-3.39-1.08-5.22-0.59
				c-11.59,3.1-22.91,1.94-34.41-1.17c-12.86-3.47-26.1-5.36-39.35-6.68c-11.92-1.19-23.91-1.67-35.87-2.35
				c-4.26-0.24-7.95-2.32-11.99-3.28c-2.59-0.61-4.16-0.19-5.99,1.97c-6.5,7.65-11.43,16.47-15.86,25.18
				c-3.49,6.85-6.12,14.57-8.57,22.09c-1.34,4.12-3.44,7.86-4.71,12.03c-4.03,13.26-4.46,26.36-2.96,40.24
				c1.18,10.91,5.68,21.14,5.29,32.18c-0.03,0.8-0.2,1.59-0.68,2.42c-5.66-17.13-9.33-34.6-9.6-52.89
				c-6.87,5.36-9.97,13.35-8.68,21.61c0.17,1.11,0.4,2.64-0.18,3.38c-3.68,4.77-4.39,10.87-7.39,15.92
				c-0.57,0.96-1.17,2.17-1.1,3.22c0.39,6.22-5.11,10.13-5.32,16.18c-2.18-1.07-1.92-2.55-1.49-3.39
				c4.48-8.62,4.05-19.01,10.04-27.17c1.77-2.42,1.52-6.1,1.29-9.26c-0.28-3.92,0.39-7.31,2.54-10.86
				c2.8-4.64,3.62-10.59,6.81-14.84c6.48-8.62,7.87-19.2,12.35-28.55c5.98-12.48,9.63-25.92,17.18-37.86
				c4.15-6.57,10.4-12.11,12.01-20.26c0.13-0.65,1.21-1.06,1.73-1.68c2.84-3.4,6.84-5.97,2.93-11.75
				c-2.19-3.24-0.77-8.28,0.51-12.19c4.2-12.88,4.04-26.24,5.01-39.49c0.19-2.66,0.18-5.33,0.26-7.99c0.2-6.4,1.37-12.43,5.29-17.8
				c3.05-4.18,4.01-9.11,3.43-14.27c-0.89-7.95-0.72-15.96-1.18-23.93c-0.34-5.81,2.45-11.54,4.35-17.17
				c0.31-0.93,1.49-1.85,1.34-2.59c-1.37-7.24,1.27-14.65,0.04-21.53c-1.97-10.99-0.04-20.8,4.84-30.31
				c3.15-6.15,6.44-12.32,10.41-17.96c10.32-14.68,22.41-26.98,41.65-29.26c6.7-0.8,13.1-2.95,20.16-1.9
				c2.6,0.39,5.93-2.73,8.6-4.69c1.38-1.01,0.62-2.83-0.56-3.96c-2.62-2.51-4.61-5.57-8.01-7.4c-2.91-1.56-5.48-4.15-5.64-7.76
				c-0.35-8.12-3.15-15.59-5.91-23.03c-1.47-3.96-0.9-6.79,2.47-9.11c3-2.07,3.77-4.88,3.14-8.3c-1.44-7.82,0.06-15.63,0.45-23.41
				c0.15-2.96,1.93-6,3.51-8.69c6.46-11.04,14.26-20.93,26-26.79c3.52-1.76,7.49-3.32,11.34-3.55c14.09-0.85,28.58-2.47,41.55,4.69
				c11.04,6.09,18.13,15.84,22.73,27.81c3.23,8.42,4.93,17.04,6.69,25.74c0.15,0.75,0.61,1.69,1.22,2.04
				c5.2,3.06,5.73,7.78,4.77,13.04c-2.34,12.81-4.94,25.57-6.05,38.57c-0.05,0.63-0.29,1.55-0.73,1.8
				c-5.52,3.09-4.91,9.67-8.07,14.1c-2.32,3.25-1.84,5.78,1.77,8.32c6.64,4.66,14.81,5.85,21.55,10.23
				c2.52,1.64,4.61,4.06,6.94,5.35c7.53,4.17,12.62,12.18,21.66,13.77c3.5,0.62,2.77-2.32,2.53-3.95
				c-0.87-5.89,0.17-11.62,0.87-17.4c0.45-3.7,1.91-6.27,6.11-6.53c1.66-0.1,3.61-0.7,3.5-2.82c-0.12-2.46-0.34-5.55-2.49-6.77
				c-3.31-1.89-2.44,2.51-4.02,3.48c-1.63-3.25,0.2-8.42,3.67-9.41c1.66-0.48,3.47-0.38,5.14-1.24c0.95-0.49,2.46,0.42,2.29,1.27
				c-1.33,6.45,5.58,9.02,6.63,14.91c1.11,6.21,1.45,12.76,3.86,18.89c1.87,4.74,2.8,10.12,5.66,14.18c2.2,3.12,5.28,5.84,7.72,9
				c0.78,1.02,2.35,2.16,3.97,1.17c1.29-0.79,1.21-2.26,1.23-3.61c0.02-1.33,0.08-2.66,0.08-3.99c0-2.51-0.7-4.56-3.35-5.54
				c-3.14-1.16-2.57,2.39-4.49,3.37c-1.29-1.72-1.02-3.39,0.4-4.68c1.89-1.72,4.21-2.96,6.85-1.91c2.6,1.04,4.56,2.92,4.66,5.92
				c0.06,1.64-0.28,3.32-0.67,4.94c-1.26,5.28-0.72,9.78,4.53,12.81c7.42,4.3,11.79,12.07,18.84,16.84c1.53,1.04,2.9,2.47,4.79,2.44
				c7.48-0.14,14.23,3.2,21.44,4.25c3.58,0.52,6.38,2.81,9.71,3.84c11.62,3.57,22.17,9.28,32.36,15.83
				c8.86,5.7,18.17,10.53,28.35,13.56c2.88,0.86,5.37,2.72,7.53,4.78c8.55,8.13,18.31,7.27,28.87,5.01
				c11.31-2.43,22.73-7.29,34.52-2.71c6.27,2.43,11.51,7.05,18.08,9.14c2.16,0.69,2.83,3.01-0.06,4.36
				c-2.39,1.12-4.69,2.5-7.51,2.49c-1.11-0.01-2.58,0.34-2.55,1.81c0.03,1.47,1.53,1.77,2.63,1.77c7.61,0,13.64,4.38,20.22,7.21
				c5.03,2.16,7.03,10.75,3.85,15.25c-7.06,9.99-16.94,12.9-28.43,11.2c-5.09-0.75-9.78,0.39-14.69,0.86
				c-10.46,0.98-20.91,2.93-30.98-4.52c-6.91-5.12-12.89-12.14-21.66-14.61c-5.75-1.62-11.66-2.57-17.46-4.02
				c-9.11-2.28-17.94-5.92-27.57-6.09c-7.65-0.14-15.29-0.94-22.94-1.21c-4.56-0.16-8.9-1.08-13.15-2.62
				c-2.98-1.07-5.95-1.8-9.24-1.6c-5.79,0.35-10.85-2.57-15.12-5.73c-3.7-2.74-7.4-5.65-11.5-7.39c-3.84-1.63-8.01-3.57-12.76-2.05
				c-3.29,1.05-6.93,1.16-10.07-1.05c-4.52-3.19-9.33-4.74-15.01-3.84c-3.78,0.6-6-1.01-8.99-4.43c-4.08-4.66-7.01-9.83-10.47-14.76
				c-2.82-4.01-4.2-8.65-5.63-13.23c-0.41-1.3-0.59-3.55,1.02-3.98c2.2-0.58,1.55,1.88,2.12,3.03c4.47,9.06,8.38,18.4,15.58,25.87
				c3.06,3.17,6.58,4.56,10.7,4.34c5.05-0.28,9.54,0.75,13.57,3.9c1.58,1.23,3.52,2.16,5.54,0.83c1.82-1.19,0.79-2.97,0.78-4.57
				c-0.02-4.37,0.21-8.71,2.07-12.91c0.01,4.33,0.08,8.44,2.31,12.33c1.23,2.14,2.33,3.77,4.87,4.5
				c7.26,2.09,13.08,6.59,18.45,11.72c4.36,4.17,10.55,5.21,16.04,2.63c2.49-1.17,4.54,2.18,7.52,0.31c2.96-1.85,4.12,1.3,5.38,3.48
				c1.19,2.05,3.27,2.64,5.56,2.76c8.97,0.49,18.01,1.96,26.87,1.2c4.78-0.41,9.42,0.64,14.22,0.1c2.84-0.32,6.02,1.42,9.01-0.73
				c0.68-0.49,1.67-0.06,2.13,0.76c2.45,4.39,6.4,5,11.02,6.05c3.36,0.76,6.17,2.97,9.94,1.31c0.88-0.39,1.55,1.02,2.17,1.79
				c5.12,6.39,11.54,10.57,18.69,14.83c8.25,4.92,15.73,4.25,23.76,3.53c5.14-0.46,9.13-4.34,12.85-7.71
				c1.91-1.73,1.08-4.04-1.87-4.71c-3.47-0.8-6.98-0.17-10.47-0.27c0.79-3.86-3.28-13.64-6.32-15.09c-0.39-0.19-1.01-0.25-1.38-0.07
				c-0.88,0.44-1.1,1.48-0.65,2.13c2.89,4.26,3.84,9.81,8.49,12.91c-1.01,2.85-2.61,5.76-5.95,4.61c-3.04-1.05-6.9-2.59-5.36-7.45
				c0.85-2.68-0.56-4.13-2.88-4.92c-3.99-1.34-7.53-3.53-11.1-5.67c-1.05-0.63-2.88-1.22-1.93-2.87c0.76-1.32,2.4-0.86,3.64-0.33
				c1.06,0.45,1.96,1.4,3.04,1.67c2.19,0.56,5.26,2.47,4.96-2.37c-0.09-1.56,1.11-1.86,2.23-2.22c2.98-0.95,5.53-2.36,6.16-5.82
				c0.06-0.32,0.15-0.73,0.37-0.91c2.01-1.65,6.12,3.53,7.32-2.38c0.18-0.89,5.26-0.2,7.75,1.45c3.78,2.51,8.14,2.73,12.45,3.08
				c1.15,0.09,2.52,0.03,2.81-1.42c0.23-1.18-0.89-1.69-1.78-2.1c-6.46-2.98-12.46-7.03-19.67-8.29c-2.38-0.41-4.64-0.24-6.91,0.39
				c-7.04,1.95-14.31,3.34-21.03,6.07c-6.87,2.8-12.7,0.5-18.57-2.01c-2.52-1.08-5.27-2.32-7.38-3.91
				c-7.4-5.57-16.42-7.67-24.29-12.2c-9.88-5.68-19.84-11.36-30.07-16.29c-9.78-4.71-19.95-8.86-30.74-11.31
				c-5.48-1.24-11.04-2.33-16.47-3.8c-5.15-1.4-9.44-1.4-11.96,4.63c-0.73-2.9-0.76-2.92,1.04-5.28c2.15-2.83,2.26-4.96-0.91-7.51
				c-8.54-6.89-16.75-14.17-26.59-19.3c-7.83-4.09-16.88-3.71-24.83-7.33c-5.66-2.57-11.88-3.71-17.46-6.6
				c-1.7-0.88-3.83-2.11-5.59-0.5c-1.6,1.47,0.37,3.01,0.68,4.54c1.54,7.66,4.18,14.86,8.9,21.17c0.67,0.9,1.04,1.9,0.08,2.63
				c-1.16,0.88-1.7-0.26-2.26-1.07c-7.23-10.22-16.16-19.25-21.23-31.01c-1.82-4.23-4.48-8.15-7.07-12
				c-3.51-5.22-9.53-6.46-14.91-8.54c-3.48-1.35-6.74-2.8-9.15-5.77c-1.08-1.32-2.48-2.21-4.28-2.29
				c-10.36-0.44-20.71-0.88-31.07-1.34c-4.57-0.2-8.81,1.69-13.29,2c-1.6,0.11-3.95,0.64-4.23-1.37c-0.28-1.97,2.18-1.31,3.45-1.77
				c2.69-0.97,7.55-0.7,7.13-3.91c-0.44-3.3-5.06-1.71-7.79-1.67c-9.34,0.13-18.62,0.35-27.93-1.06c-4.74-0.72-9.69-0.26-13.97,2.55
				c-1.13,0.74-2.24,1.17-3.68,1.22c-13.73,0.48-26.92,3.05-38.92,10.2c-6.69,3.98-11.38,10.02-15.92,16
				c-4.8,6.31-9.31,13.03-12.72,20.16c-3.6,7.52-7.29,15.39-5.25,24.34c1.35,5.93,0.42,11.95,0.36,17.93
				c-0.02,2.14-0.55,4.33,1.07,6.21c1.44,1.66-0.16,2.63-0.93,3.84c-4.5,7.06-6.74,14.22-5.65,23.14
				c1.25,10.19,3.14,20.82-0.74,31.04c-0.52,1.36-1.44,2.6-2.36,3.76c-2.76,3.5-4.3,7.28-4.37,11.9
				c-0.26,16.49-2.96,32.79-4.26,49.2c-0.09,1.1-0.75,2.18-1.24,3.22c-1.69,3.6-2.95,7.36-0.07,10.79c3,3.56,6.75,0.51,9.11-0.59
				c10.94-5.09,22.26-5.79,33.98-5.04c6.19,0.4,12.39,0.38,18.68,1.71c-1.13,2.55-3.04,1.24-4.47,1.56
				c-1.19,0.27-2.37,0.61-2.3,2.11c0.06,1.18,1.01,1.76,2.07,1.76c8.08,0.06,15.77,2.21,23.52,4.12c0.72,0.18,1.64-0.13,2.39-0.42
				c1.88-0.73,3.77-1.22,4.24,1.47c0.38,2.18-0.71,4.82-2.9,4.3c-6.12-1.45-11.08,1.82-16.56,2.74c-7.59,1.27-15.6-0.01-23.49-0.21
				c0.26-2.34,1.4-2.34,2.33-2.33c6.48,0.04,12.96,0.12,19.44,0.24c1.45,0.03,3.01,0.89,4.26-0.38c0.67-0.68,0.37-1.61-0.29-2.22
				c-1.32-1.25-2.68-2.03-4.71-2.32c-5.86-0.84-11.58,1.17-17.37,0.45c-1.64-0.21-4.35,0.68-4.46-1.74
				c-0.08-1.75,2.6-1.52,4.09-2.08c0.87-0.33,2.03,0.13,2.55-0.83c-12.97-8.22-26.06-5.2-38.86,0.22c-2.26,0.96-4.05,3.22-6.97,3.37
				c-1.17,0.06-2.05,1.37-1.93,2.6c0.22,2.41,2.34,3.49,4,4.79c1.28,1.01,4.7,0.09,3.98,2.5c-0.75,2.54-3.35,0.66-5.18,0.29
				c-1.6-0.33-3.35-0.14-4.44-1.79c-1.21-1.82-2.84-1.22-4.47-0.67c-1.38,0.47-1.7,1.45-1.5,2.74c0.27,1.84,1.34,3.07,3.07,3.58
				c5.75,1.71,11.58,3.05,17.59,3.49c16.44,1.2,32.91,1.95,49.27,4.26c9.26,1.31,18.34,3.14,27.35,5.61
				c7.33,2.01,14.81,2.17,22.28,0.78c10.24-1.9,20.46-3.9,30.69-5.87c2.77-0.53,4.99-2.71,7.94-2.7L1080.48,654.62z M1117.97,321.96
				l0.14,0.14c0.2-1.51,0.52-2.93,1.93-3.88c1.26-0.85,1.82-2.33,1.09-3.51c-3.17-5.14-2.98-11.38-5.83-16.66
				c-3.99-7.37-8.84-13.88-15.58-18.99c-10.14-7.69-21.98-8.77-34.01-9c-9.13-0.18-17.25,2.41-25.21,7.44
				c-6.62,4.18-10.7,10.31-15.51,15.78c-4.13,4.7-7.01,10.72-7.96,17.29c-1.78,12.29,1.59,24.27,2.06,36.43
				c0.04,0.96,0.62,1.88,0.87,2.84c1.87,7.05,4.94,14.05,5.23,21.17c0.3,7.51,7.54,10.7,8.49,17.38c0.1,0.69,2.61,1.04,4,1.55
				c3.24,1.18,6.69-0.36,9.86,0.55c6.72,1.93,13.48,0.19,20.2,0.67c1.06,0.08,1.94-0.49,2.12-1.67c0.15-1.01-0.51-1.46-1.33-1.82
				c-0.86-0.37-2.04-0.22-2.68-2.08c6.05-1.42,6.07-7.62,8.5-11.88c2.46,0.42,1.85,4.44,4.17,3.25c3.35-1.72,4.63-5.75,7.63-8.18
				c1.45-1.17-1.4-1.61-2.03-2.59c-0.44-0.68-0.32-1.51,0.3-1.69c4.81-1.45,5.9-4.54,3.83-9.27c1.65,1.12,2.79,2.18,3.9,3.27
				c4.02,3.95,3.96,5.5-0.31,8.9c-4.79,3.81-4.41,3.41,0.11,7.78c3.83,3.72,4.95-0.76,6.8-1.72c3.01-1.56-0.31-2.09-1.11-3.06
				c-1.14-1.38-0.69-3.02,0.93-2.86c3.74,0.38,3.87-0.66,1.96-3.35c-0.31-0.43-0.34-1.67-0.1-1.8c3.29-1.79,2.49-7.8,7.89-7.53
				c1.04,0.05,2.39-1.22,3.18-2.22c2.76-3.5,5.66-6.79,8.98-9.82c4.48-4.09,3.43-8.68-1.93-10.74
				C1121.83,327.6,1121.62,324.08,1117.97,321.96z M1182.46,417.54c0-0.83,0.01-1.66,0-2.49c-0.05-2.41-0.21-5-3.23-5.33
				c-3.06-0.34-3.01,2.45-3.58,4.44c-1.78,6.19-0.41,12.55-0.87,18.81c-0.09,1.22,0.65,2.46,1.85,2.67
				c2.51,0.44,4.67,1.61,6.93,2.62c0.9,0.4,1.98,0.7,2.78-0.16c0.91-0.96-0.08-1.78-0.38-2.67
				C1184,429.63,1182.45,423.73,1182.46,417.54z M1086.75,396.55c5.78,0.58,7.7-3.93,10.28-7.49c0.8-1.1,0.06-2.29-1-2.05
				c-5.03,1.15-6.9-2.38-8.99-5.69c-0.57-0.91-1.33-1.54-2.47-1.08c-1.11,0.44-1.51,1.37-0.96,2.41c1.94,3.64-0.85,4.3-3.21,4.98
				c-2.91,0.83-3.78,3.16-1.49,5.31C1081.09,395.01,1084.04,395.82,1086.75,396.55z M1429.75,556.06c2.42,0.98,4.88,1.96,7.33,2.97
				c1.98,0.82,3.77,0.16,5.02-1.2c2.39-2.6-1.3-4.36-1.28-6.77c0.01-1.42-1.39-2.2-2.83-2.34c-0.43-0.04-1.21,0.17-1.3,0.44
				c-1.54,4.66-4.69,4.18-8.35,2.89c-1.49-0.53-2.99,0.19-3.68,1.81c-0.46,1.09-0.74,2.35,0.14,3.31c1.34,1.47,2.35-0.08,3.46-0.58
				C1428.72,556.38,1429.2,556.25,1429.75,556.06z M1103.31,378.13c0.99,2.37,4.39,2.15,2.94,4.61c-0.79,1.35-2.96,2.27-1.12,3.86
				c2.19,1.9,2.94-1.08,4.28-1.93c2.3-1.46,3.35-2.87-0.24-4.3c-1.19-0.47-1.79-2.25-2.87-3.2c-1.02-0.9-1.73-3.25-3.36-2.13
				c-1.47,1-3.41,2.18-3.56,4.38c-0.07,0.92,0.67,1.95,0.48,2.8c-0.27,1.19-1.85,2.7-0.2,3.4c1.91,0.8,1.84-1.83,2.87-2.72
				C1103.75,381.82,1102.67,380.41,1103.31,378.13z M1155.65,437.72c0.13-2.65-2.76-3.62-3.33-5.92c-0.21-0.86-1.14-1.32-1.98-0.82
				c-0.8,0.47-0.74,1.41-0.55,2.25c0.44,1.98,2.63,2.99,2.81,5.16c0.08,0.97,0.53,2.09,1.86,1.79
				C1155.69,439.89,1155.57,438.71,1155.65,437.72z M1431.19,566.98c1.44-0.08,3.2-0.11,3.09-1.83c-0.16-2.45-2.43-2.92-4.41-3.23
				c-1.58-0.25-2.69,0.78-2.66,2.28C1427.26,566.8,1429.68,566.37,1431.19,566.98z M1114.17,372.18c-3.31,0.16-5.34,0.26-7.53,0.37
				c0.5,2.04,0.97,4.24,2.86,4.4C1112.09,377.17,1112.12,374.24,1114.17,372.18z M1193.4,434.9c0.39,0.85-0.28,2.82,1.55,2.79
				c1.98-0.03,1.77-2,1.77-3.39c0-1.24,0.05-2.99-1.79-2.81C1193.22,431.65,1193.56,433.38,1193.4,434.9z M1114.37,359.41
				c1.5-0.22,2.4-1.06,2.41-2.59c0.01-1.52-0.78-2.6-2.35-2.54c-1.73,0.06-1.93,1.5-1.97,2.86
				C1112.43,358.43,1112.83,359.41,1114.37,359.41z M1423.25,547.59c1.56-0.01,1.91-1.14,2.16-2.3c0.3-1.4,0.18-2.83-1.44-3.23
				c-1.75-0.44-2.39,0.83-2.44,2.3C1421.49,545.71,1421.71,547.05,1423.25,547.59z"/>
			<path d="M1080.59,654.68c3.48-3.17,8.12-5.2,10.03-10.37c-2.73-0.44-5.25-0.08-7.64,1.05c-8.65,4.08-18.25,4.84-27.24,7.71
				c-3.53,1.13-7.25,0.37-10.91,0.19c-7.15-0.35-14.31-0.42-21.46-0.63c-1.66-0.05-3.36-0.03-4.97-0.35
				c-1.85-0.37-4.93-0.23-4.67-2.65c0.3-2.85,3.15-1.31,4.95-1.24c10.82,0.44,21.68,1.74,32.43,1.14
				c8.24-0.46,16.71-1.45,24.64-4.46c0.62-0.23,1.36-0.41,1.32-1.25c-0.06-1.26-1.09-1.73-2.07-1.7c-8.51,0.2-16.74-2.18-25.31-2.2
				c-9.99-0.03-20.32,0.64-29.91-3.58c-0.74-0.32-1.6-0.59-1.53-1.8c1.86-1.17,4.06-0.41,5.71-0.02c9.86,2.33,19.97,1.55,29.92,2.48
				c11.56,1.08,23.1,2.82,34.74,3.1c5.29,0.13,15.98-7.9,17.47-13.68c0.66-2.55,1.88-4.44,3.27-6.52c2.39-3.59,3.88-7.53,4.8-11.9
				c1.08-5.11,3.56-9.92,5.39-14.87c2.5-6.77,2.49-14.13,4.33-20.92c2.43-8.96,1.29-18.58,5.61-27.06c0.94-1.84,1.13-3.41-1.22-4.5
				c-2.98-1.39-1.43-2.31,0.48-3c2.1-0.75,3.19-2.87,2.61-4.33c-2.53-6.32,2.75-9.7,4.97-14.16c0.75-1.51,1.99-2.61,1.06-4.45
				c-0.95-1.88-2.59-2.24-4.52-2.52c-13.75-2.05-26.58-5.88-34.42-18.76c-1.77-2.91-5.68-4.64-5.22-9.6
				c3.48,3.08,6.11,6.17,9.12,8.84c11.32,10.05,24.48,16.14,39.01,19.66c1.17,0.28,2.32,0.73,3.09-0.59
				c0.64-1.1-0.19-1.86-0.84-2.61c-1.63-1.88-2.94-4.27-4.95-5.55c-11.27-7.21-15.5-19.59-22.06-30.14
				c-3.86-6.21-6.82-13.07-10.45-19.5c-0.39-0.69-1.13-1.28-0.43-2.57c4.46,0.74,5.47,5.17,6.76,8.07
				c5,11.25,13.14,20.67,17.99,31.97c0.9,2.11,3.06,4.02,5.11,5.23c4.34,2.56,7.34,6.27,9.9,10.37c2.25,3.6,5.16,4.97,9.28,3.93
				c6.59-1.65,12.75-0.83,18.62,2.83c1.75,1.09,4.12,1.2,6.22,1.72c1.55,0.39,3.23,1.06,2.88,2.83c-0.42,2.18-2.29,1.24-3.69,0.93
				c-0.48-0.11-0.99-0.25-1.41-0.49c-6.03-3.47-11.44-1.49-16.01,2.55c-4.86,4.28-10.44,7.1-16.32,9.27
				c-3.53,1.3-6.09,3.92-9.44,5.38c-1.41,0.62-2.47,2.25-2.76,3.99c-1.4,8.47-3.22,16.91-4.05,25.44
				c-1.46,14.91-5.71,28.97-10.49,43.11c-4.37,12.94-10.38,24.25-20.79,33.15c-1.64,1.4-2.52,3.64-2.49,5.85
				c0.04,3.23-0.5,6.05-2.29,8.94c-2.16,3.48,0.07,6.45,3.22,7.63c8.51,3.17,13.39,10.38,18.66,16.79
				c7.34,8.94,16.02,16.4,24.42,24.14c10.13,9.34,21.85,16.83,31.86,26.36c0.36,0.34,0.82,0.65,1.03,1.07
				c7.18,14.42,21.37,21.95,32.22,32.75c7.14,7.11,15.42,13.04,21.69,21.05c0.64,0.82,1.37,1.56,0.73,2.6
				c-0.46,0.74-1.15,0.42-1.69-0.06c-5.61-5.01-11.14-10.12-16.85-15.02c-10.59-9.08-21.29-18.02-31.94-27.03
				c-0.88-0.75-1.97-1.42-2.49-2.39c-6.64-12.23-18.24-19.46-28.19-28.39c-8.36-7.5-17.56-14.12-24.85-22.78
				c-2.85-3.39-6.3-4.77-10.76-5.29c-10.69-1.24-21.2-3.6-31.18-7.86c-1.6-0.68-3.35-1.69-2.39-3.66c1.09-2.21,2.48-0.08,3.73,0.28
				c3.54,1,6.42,3.59,10.13,4.16c1.32,0.2,2.87,0.56,3.7-0.72c1.11-1.72-0.85-2.19-1.7-3.01c-2.51-2.42-4.88-5.02-8.23-6.36
				c-0.91-0.36-1.99-1.02-1.55-2.19c0.61-1.62,2.17-0.99,2.95-0.43c3.52,2.49,7.16,4.89,10.23,7.87c3.94,3.82,9.32,5.1,13.5,8.42
				c0.91,0.73,2.31,1.02,3.08-0.27c0.82-1.38,0-3.04-0.98-3.54c-5.15-2.61-7.66-8.33-12.61-10.84c-3.59-1.82-6.6-4.5-10.29-6.05
				c-2.91-1.23-3.26-2.98-1.32-5.4c1.35-1.68,2.53-3.51,3.92-5.15c0.73-0.86,2.19-1.54,1.13-2.8c-1.24-1.48-1.75,0.38-2.65,0.82
				c-2.82,1.36-4.82,4.9-8.75,3.48C1080.48,654.62,1080.59,654.68,1080.59,654.68z M1151.63,515.38c-4.14-0.86-5.97,3.46-9.37,4.41
				c-0.9,0.25-1.07,2.34-0.16,3.59c0.72,1,1.75,1.55,2.97,1.54c1.89-0.01,1.93-1.4,1.98-2.78c0.07-1.85,1.44-2.63,2.6-1.53
				c3.73,3.55,6.37-0.73,9.45-1.22c1.7-0.27,3.11-2.88,2.25-4.84c-1.05-2.42-3.25-1.56-5.14-0.68
				C1154.75,514.54,1153.56,515.97,1151.63,515.38z"/>
			<path d="M798.77,1081.07c2.3-1.41,4.57-1.75,6.13-1.04c5.02,2.28,10.41,1.67,14.99,0.44c5.38-1.45,11.02-1.43,16.17-3.41
				c2.25-0.86,4.39-1.52,6.74-1.38c7.94,0.48,15.35-2.6,23.12-3.38c2.42-0.24,4.84-0.99,7.34-1.14c12.24-0.71,24.43-1.98,36.56-3.75
				c1.48-0.22,3-0.32,4.49-0.23c19.92,1.26,39.3-3.19,58.89-5.49c6.93-0.81,13.89-1.08,20.82-2.05c7.01-0.98,10.95,2.64,11.25,8.7
				c0.05,1,0.47,2.06-0.81,2.51c-1.12,0.4-1.87-0.35-2.55-1.11c-0.11-0.12-0.24-0.25-0.3-0.39c-2.99-7.38-8.17-6.51-14.75-5.19
				c-6.4,1.29-13.11,1.33-19.7,2.33c-13.74,2.09-27.63,4.1-41.49,4.35c-15.69,0.28-31.13,2.44-46.69,3.52
				c-9.16,0.63-18.05,2.05-26.92,4.08c-1.13,0.26-2.32,0.49-3.46,0.43c-9.75-0.51-18.99,2.44-28.43,4.06
				C813.15,1084.14,806.09,1084.55,798.77,1081.07z"/>
			<path d="M958.87,823.78c0.26,3.58-2.99,5.33-4.9,6.84c-3.74,2.95-7.31,6.09-11,9.1c-9.29,7.59-18.41,15.47-28.29,22.21
				c-8.04,5.49-16.72,10.06-24.69,15.73c-1.15,0.82-2.81,0.98-4.27,1.25c-1.04,0.19-2.07-0.22-2.23-1.44
				c-0.12-0.91,0.53-1.66,1.37-1.85c8.96-1.97,14.39-9.89,22.48-13.32c9.86-4.18,16.22-13.02,24.95-18.68
				c9.31-6.04,16.81-14.51,26.72-19.71C959,823.91,958.87,823.78,958.87,823.78z"/>
			<path d="M940.41,1048.49c-0.36,2.05-1.52,3.41-3.63,3.49c-7.76,0.3-15.47,1.92-23.05,2.9c-9.95,1.29-20.16-0.14-29.95,2.94
				c-3.96,1.24-8.44,1.12-13.12-0.16c1.37-2.69,3.55-2.13,5.31-2.13c4.58,0.01,8.88,0.42,13.53-1.74c4.66-2.16,10.5-1,15.75-1.14
				c6.32-0.17,12.75-0.6,18.78-1.6c5.46-0.91,11.03-1.35,16.47-2.49L940.41,1048.49z"/>
			<path d="M942.88,637.1c6.67-2.82,13.7-0.9,20.54-1.47c0.92-0.08,2.15,0.4,1.93,1.72c-0.15,0.88-1.16,1.05-1.99,1.19
				c-2.5,0.44-5.2-0.42-8.36,1.09c3.79,3.03,8.35,1.35,11.65,3.73c-1.72,1.64-3.77,1.51-5.69,1.5c-4.83-0.04-9.47-1.44-14.55,0.05
				c-4.76,1.39-6.4-4.17-9.92-6.62c2.27-1.72,4.57-0.72,6.53-1.32c0.05,0.65-0.02,1.33,0.16,1.94c0.71,2.35,2.48,2.85,4.64,2.45
				c0.95-0.18,2.28-0.48,2.14-1.61c-0.28-2.34-2.56-2.14-4.17-2.61C944.89,636.88,943.86,637.1,942.88,637.1z"/>
			<path d="M968.03,492.49c19.42-6.74,38.9-8.66,59.63-2.52c-3.1,1.84-3.16,2.01-4.97,1.3c-3.54-1.39-7.1-1.43-10.8-0.89
				c-2.12,0.31-4.46,0.6-6.45,0.04c-10.34-2.91-20.19-0.17-30.16,2C972.97,492.92,970.45,492.49,968.03,492.49z"/>
			<path d="M922.39,867.15c0.93-4.57,4.3-6.58,6.83-8.15c7.75-4.82,11.94-13.06,18.97-18.48c2.69-2.07,5.06-4.6,7.34-7.14
				c0.88-0.98,1.61-1.97,2.73-1c1.21,1.05,0.13,2.08-0.7,2.89c-3.55,3.46-7.07,6.94-10.68,10.34
				C939.17,852.87,932.94,861.79,922.39,867.15z"/>
			<path d="M1325.06,524.6c3.8,2.59,7.57,4.07,11.71,4.84c1.9,0.35,4.37,1.16,3.48,3.83c-0.88,2.63-2.88,0.84-4.59,0.62
				c-3.44-0.43-7.81-2.99-9.18,3.1c-0.2,0.9-1.32,1.22-2.04,0.62c-1.76-1.46-3.92-1.69-5.96-2.32c-1.41-0.44-1.58-1.61-1.01-2.83
				c0.53-1.12,1.32-2,2.73-1.47c1.65,0.62,3.04,3.48,5.03,0.93C1326.94,529.75,1327.23,527.2,1325.06,524.6z"/>
			<path d="M1092.39,544.29c-7.26-0.18-13.55,0.86-19-2.99c-1.13-0.8-3.27-1.43-2.48-3.15c0.82-1.79,2.63-0.58,3.93-0.06
				c10.44,4.18,21.15,4.48,32.04,2.28c0.97-0.2,1.91-0.59,2.89-0.72c0.95-0.13,2.2-0.32,2.29,1.08c0.06,0.93-0.93,1.32-1.76,1.41
				C1103.93,542.84,1097.75,545.18,1092.39,544.29z"/>
			<path d="M1205.83,817.89c2.35,6.38,2.18,6.35-4.08,10.19c-3.1,1.9-3.49,6.06-5.83,8.73c-0.67,0.76-1.18,1.83-2.32,1.33
				c-0.84-0.37-0.96-1.65-0.48-2.19c4.91-5.54,6.24-13.64,12.86-17.94C1205.97,818.01,1205.83,817.89,1205.83,817.89z"/>
			<path d="M940.5,1048.56c9.04-2.09,18.06-4.43,27.49-2.61c-9.25,0.15-17.91,6.22-27.56,2.55
				C940.41,1048.49,940.5,1048.56,940.5,1048.56z"/>
			<path d="M1059.56,478.69c-0.45,1.63-1.83,1.64-2.72,0.94c-4.81-3.78-9.5-7.72-14.2-11.65c-0.29-0.24-0.45-1.16-0.29-1.29
				c0.45-0.37,1.36-0.86,1.64-0.67c5.29,3.64,10.51,7.37,15.25,11.73C1059.46,477.93,1059.46,478.35,1059.56,478.69z"/>
			<path d="M1005.29,1038.96c7.06-1.52,14.13-1.45,21.53,0.17C1022.51,1041.87,1012.75,1041.95,1005.29,1038.96z"/>
			<path d="M1282.17,502.36c-1.63,2.33-3.35,2.21-4.62,2.03c-6.04-0.86-12.08-1.06-18.16-0.75c-0.91,0.05-1.73-0.31-1.89-1.22
				c-0.16-0.91,0.4-1.66,1.39-1.63C1266.5,501,1273.95,502.65,1282.17,502.36z"/>
			<path d="M1101.06,555.68c-4.75,4.11-10.87,4.49-15.91,7.28c-1.12,0.62-3.28,1.03-3.62-1.02c-0.3-1.76,1.62-1.54,2.85-1.91
				c4.19-1.25,8.36-2.57,12.48-4.02C1098.23,555.52,1099.46,554.89,1101.06,555.68z"/>
			<path d="M866.52,792.88c-0.56-2.94,1.64-4.67,2.93-6.54c1.2-1.75,2.81-3.11,3.01-5.45c0.1-1.14,0.72-2.55,2.15-2.1
				c1.88,0.58,1.48,2.36,1.17,3.79C875.28,784.88,869.33,791.48,866.52,792.88z"/>
			<path d="M1314.34,533.28c-3.08,3.53-7.16,1.84-10.62,2.57c-0.96,0.2-1.56-1.05-1.61-2.12c-0.06-1.3,0.7-2.75,1.79-2.44
				C1307.25,532.22,1311.1,530.61,1314.34,533.28z"/>
			<path d="M1078.82,564.14c-5.36,0.91-10.42,3.52-16.67,3.09C1067.99,563.22,1072.07,562.39,1078.82,564.14z"/>
			<path d="M1000.86,1041.26c-4.72,2.46-9.4,1.83-14.06,0.21C991.52,1039.11,996.19,1040.13,1000.86,1041.26z"/>
			<path d="M1286.21,522.19c-2.24,2.29-3.66,5.49-6.5,7.49c-0.57,0.4-1.41,0.12-1.66-0.53c-0.28-0.71-0.6-1.89-0.26-2.26
				c2-2.14,4.1-4.19,6.35-6.06C1285.03,520.08,1286,520.58,1286.21,522.19z"/>
			<path d="M1033.53,584.25c-6.75,1.73-11.07,0.86-16.33-3.4C1022.33,582.69,1028.05,581.68,1033.53,584.25z"/>
			<path d="M835.88,1063.71c-3,2.01-6.22,1.6-9.41,1.33c-0.81-0.07-1.7-0.45-1.51-1.51c0.17-0.93,1.02-1.3,1.87-1.27
				C829.85,1062.4,832.96,1062.04,835.88,1063.71z"/>
			<path d="M971.11,1043.89c4.6-2.2,8.11-2.26,12.96-0.33C979.37,1045.7,975.85,1045.48,971.11,1043.89z"/>
			<path d="M1199.62,481.59c0.31,4.35-0.34,8.39,2.65,11.56c0.61,0.64,0.58,1.95-0.59,2.51c-0.77,0.37-1.34-0.23-1.52-0.83
				C1198.92,490.68,1196.49,486.59,1199.62,481.59z"/>
			<path d="M809.23,1066.04c4.46-2.14,8.01-1.76,11.85-0.53C817.77,1068.09,815.22,1068.26,809.23,1066.04z"/>
			<path d="M1116.2,539.63c-0.71-0.31-1.32-0.39-1.53-0.72c-0.19-0.3-0.12-1.15,0.11-1.28c3-1.7,5.94-3.45,8.19-6.16
				c0.16-0.2,1.01-0.1,1.3,0.15c0.26,0.22,0.41,1.08,0.24,1.22C1121.76,535.15,1118.96,537.4,1116.2,539.63z"/>
			<path d="M853.64,1059.03c3.95-0.98,7.89-1.44,11.83,0.17C861.56,1060.91,857.59,1060.03,853.64,1059.03z"/>
			<path d="M1244.18,493.38c-1.37,0-2.02,0.13-2.59-0.02c-2.31-0.63-5.12,0.41-6.91-1.9c-0.47-0.61,0-1.44,0.69-1.5
				C1238.53,489.67,1241.42,490.23,1244.18,493.38z"/>
			<path d="M841.31,1061.51c2.59-1.48,5.19-1.92,7.85-0.75c0.17,0.07,0.19,1.15,0,1.25
				C846.49,1063.47,843.93,1062.23,841.31,1061.51z"/>
			<path d="M1211.14,826.69c1.23,0.29,2.82,0.85,2.38,1.96c-0.53,1.35-1.94,2.97-3.22,3.23c-1.23,0.25-2.65-1.74-2.52-3.01
				C1207.93,827.4,1210.03,827.44,1211.14,826.69z"/>
			<path d="M987.95,565.74c-2.68,1.33-5.25,1.32-8.21-0.34C982.89,563.15,985.43,564.76,987.95,565.74z"/>
			<path d="M1244.91,514.84c-1.25-0.06-2.35-0.31-2.03-1.95c0.2-0.99,0.72-2,1.84-1.92c1.48,0.1,2.33,1.32,2.39,2.64
				C1247.17,514.93,1245.84,514.74,1244.91,514.84z"/>
			<path d="M964.1,479.18c2.2-2.26,4.46-2.1,7.46-0.23C968.68,480.46,966.42,480.1,964.1,479.18z"/>
			<path d="M840.98,916.14c-0.08-1.27-0.92-0.27-1.59-0.17c-2.71,0.42-3.33-2.29-4.97-3.47c-0.53-0.38-0.47-1.2,0.06-1.77
				c1.27-1.39,7.51-0.35,8.46,1.29c1.54,2.67,3.24,5.25,4.82,7.89c0.45,0.75,0.48,1.71-0.21,2.3c-0.93,0.79-1.45-0.06-1.87-0.78
				c-0.43-0.72-0.97-1.8-1.78-1.46C838.76,922.22,839.59,919.62,840.98,916.14z"/>
			<path d="M807.94,888.65c4.14,0.03,8.27-3,12.12,0.2c1.44,1.2,1.75-3.12,3.39-1.1c1.07,1.32,0.71,3.23-0.13,4.74
				c-0.77,1.38-2.27,1.02-3.05,0.31c-3.28-2.99-6.97-4.11-11.32-3.26C808.68,889.6,808.28,888.96,807.94,888.65z"/>
			<path d="M852.4,903.75c-0.01,1.16-0.25,1.82-1.4,1.74c-1.46-0.1-6.72-4.68-6.44-5.76c0.31-1.18,1.39-1.41,2.37-1.31
				C850.25,898.76,851.64,901.09,852.4,903.75z"/>
			<path d="M861.82,908.21c-2.88-2.31-3-6.12-4.99-8.91c2.92,2.32,6.5,4.3,4.89,9.01C861.71,908.33,861.82,908.21,861.82,908.21z"/>
			<path d="M1112.58,344.04c-2.07,0.31-6.15-3.55-4,2.58c0.8,2.28-3.89,0.75-4.7,3.09c-1.57-0.86-3.63-0.7-4.83-2.26
				c-0.19-0.24,0.01-1.19,0.21-1.26c3.23-1.12,4.18-4.62,6.68-6.39C1110.86,336.3,1111.32,340.57,1112.58,344.04z"/>
			<path d="M1097.27,331.03c-0.34,0.38-0.61,0.82-0.99,1.06c-2.63,1.69-5.23,3.36-7.35,5.77c-1.14,1.29-2.83,0.9-3.95-0.35
				c-0.9-0.99-0.75-2.42,0.23-3.14c2.65-1.95,5.36-3.9,8.27-5.38C1094.96,328.23,1096.72,328.87,1097.27,331.03z"/>
			<path d="M1116.75,314.62c0.04,2.57-5.58,9.61-7.15,9.55c-1.52-0.06-2.79-1.26-1.93-2.61c1.65-2.57,3.67-4.95,5.85-7.09
				C1114.42,313.59,1116.22,313.31,1116.75,314.62z"/>
			<path d="M1080.95,355.55c-4.58,0.26-2.36,5.91-6.24,5.92c-1.58,0-3.73-2.09-3.08-3.25c1.22-2.19,3.49-3.85,5.57-5.41
				C1077.48,352.59,1079.14,354.19,1080.95,355.55z"/>
			<path d="M1117.97,321.96c0.68,4.89-4.35,6.65-5.83,10.41c-0.31,0.77-2.27,0.63-2.48-1.07c-0.26-2.08,5.87-8.68,8.44-9.2
				C1118.1,322.1,1117.97,321.96,1117.97,321.96z"/>
			<path d="M1098.62,360.69c-2.09-1.87-4.21-2.68-4.55-5.08c-0.21-1.51,1.07-1.92,2.18-2.23c1.7-0.48,3.78-1.84,5.11-0.3
				c1.46,1.69-1.59,2-1.86,3.38C1099.28,357.56,1099.05,358.66,1098.62,360.69z"/>
		</g>
	</g>
	<g>
		<g>
			<path class="st0" d="M1205.97,818.01c0.39-3.76,3.34-6.05,5.38-8.75c3.08-4.08,7.14-7.46,7.95-12.94
				c0.18-1.19,0.83-2.25,2.16-2.47c1.56-0.27,2.64,0.66,3.13,1.96c2.54,6.74,7.1,12.35,10.34,18.6c1.99,3.85,3.04,9.18,1.63,14.09
				c-1.02,3.54-2.13,7.02-0.86,10.76c0.39,1.15,0.04,2.78-0.93,3.17c-4.81,1.95-2.1,4.51-1.26,7.53c1.93,6.87,2.7,13.8,1.27,21.14
				c-0.91,4.68,0.5,9.85,1.15,14.77c0.49,3.67,0.57,7.33,0.19,10.96c-1.39,13.28,0.01,26.46,0.8,39.69
				c0.46,7.75,1.3,15.78-3.29,23.04c-1.29,2.04,0.09,4.85,0.23,7.22c0.6,10.08,1.07,20.21,9.85,27.73
				c7.07,6.06,15.01,10.13,23.33,14.04c6.38,3,13.25,2.85,19.67,5.05c5.74,1.97,11.92-0.53,17.84,1.28
				c3.63,1.11,7.46,1.74,11.25,2.09c9.59,0.88,11.07,11.85,5.91,18.39c-2.7,3.42-6.72,3.31-9.95,5.2
				c-6.44,3.76-12.64,8.45-19.61,10.67c-10.18,3.25-21.1,4.13-31.42,7.03c-10.23,2.87-20.81,3.62-31.03,6.3
				c-3.43,0.9-7.09,0.13-10.39,0.97c-12.27,3.13-24.79,1.74-37.09,1.77c-11.08,0.03-22.13,1.1-33.15,1.42
				c-12.18,0.36-24.57,0.2-36.74,2.21c-2.77,0.46-5.66,0.59-8.46,0.42c-20.63-1.3-41.19,2.09-61.85,0.74
				c-9.9-0.65-19.89,0.41-29.84-0.23c-1.58-0.1-3.99,0.66-4.09-1.51c-0.1-2.19,2.34-2.55,4.19-2.55c7.49-0.02,14.98,0,22.47,0.14
				c5.83,0.11,11.65,0.34,17.47,0.68c19.97,1.18,39.92-0.51,59.83-1.07c21.86-0.62,43.79-1.98,65.59-4.47
				c1.5-0.17,2.97-0.23,4.33-1.02c2.55-1.48,4.98-1.54,7.36,0.51c2,1.73,4.33,1.68,6.55,0.49c2.48-1.34,3.1-3.54,2.94-6.33
				c-0.52-9.56-0.45-9.66-9.86-8.86c-3.03,0.26-5.98,0.16-8.95-0.25c-16.63-2.29-33.3-0.08-49.88,0.36
				c-25.07,0.68-50.17,0.69-75.21,2.33c-2.01,0.13-3.93-0.02-5.92-0.48c-3.83-0.89-5.63-2.14-3.32-6.47
				c2.57-4.81-2.09-4.3-4.41-4.54c-3.18-0.33-6.52,0.96-10.58-1.43c6.28-0.99,11.63-0.59,16.92,0.04c2.73,0.32,4.27,2.2,3.19,5.01
				c-1.01,2.62-0.27,3.98,2.35,4.03c8.8,0.14,17.61,1.29,26.41,0c7.96-1.17,15.95-0.49,23.94-0.56c15.94-0.13,31.86-1.12,47.81-1.31
				c13.5-0.16,26.96-0.52,40.43,0.47c5.28,0.39,6.83-1.23,6.23-6.54c-0.2-1.81-0.55-3.62-0.61-5.44c-0.04-1.18,0.46-2.46,1.67-2.84
				c1.73-0.55,1.72,1.16,2.12,2.11c1.02,2.43,2.86,3.14,5.26,2.67c2.48-0.49,2.16-2.72,2.39-4.41c0.42-3.15-1.45-4.5-4.15-3.51
				c-2.96,1.09-3.7,0.15-3.52-2.52c0.57-8.43-1.22-16.5-3.62-24.49c-0.24-0.78-0.39-1.64-0.35-2.45
				c0.7-16.31-5.26-30.79-12.01-45.14c-3.95-8.39-9.6-15.93-13.22-24.31c-4.87-11.28-9.3-23.08-7.65-35.98
				c0.59-4.61,0.26-9.31,1.43-13.88c0.35-1.35,0.77-3.21-0.97-4.01c-1.68-0.76-2.04,1.16-3,1.92c-4.47,3.5-8.12,7.76-11.73,12.11
				c-3.17,3.84-7.71,1.5-10.22-4.1c-1.83-4.08-3.91-7.18-7.99-8.89c-2.93-1.23-3.92-4.42-6.36-6.23c-4.56-3.38-9.35-6.53-14.56-8.53
				c-6.65-2.55-9.78-7.71-12.14-13.59c-4.61-11.48-12.28-20.22-22.77-26.53c-4.8-2.89-7.76-8.12-13.66-9.74
				c-9.44-2.61-18.62-6.04-28.68-5.78c-6.97,0.18-14.14,0.3-18.84-6.56c-0.95-1.38-2.85-1.69-3.85-0.19
				c-1.12,1.7,0.9,2.07,1.91,2.75c1.35,0.91,3.36,1.51,3.08,3.5c-0.29,2.05-2.51,1.01-3.69,1.64c-2.98,1.61-6.35,2.59-8.37,5.76
				c-2.16,3.39-5.13,6.04-8.83,7.83c-2.01,0.98-4.06,1.63-6.25,1.22c-10.41-1.96-10.7-2.09-13.84,7.32
				c-2.06,6.18-5.72,11.5-8.12,17.46c-0.39,0.97-0.99,2.04-2.12,1.45c-1.01-0.53-0.86-1.96-0.31-2.7
				c4.16-5.63,4.88-12.94,9.11-18.51c0.96-1.26,1.37-2.65,1.57-4.14c0.21-1.58,1.17-3.48-0.93-4.41c-2.05-0.91-3.92-0.24-5.31,1.53
				c-0.82,1.05-1.66,2.09-2.34,3.23c-3.18,5.32-3.16,5.33-7.65,1.61l0.13,0.13c0.09-2.15,1.13-3.38,2.98-4.69
				c3.22-2.28,2.02-3.99-0.93-6.22c-5.73-4.32-10.52-1.4-15.55,0.7c-2.05,0.86-4.09,1.62-6.25,1.42
				c-6.36-0.57-11.91,1.98-17.66,4.06c-4.4,1.59-9.02,2.4-13.65,0.62c-0.92-0.35-2.04-0.78-2.04-1.93c0-1.32,1.29-1.55,2.2-1.44
				c11.98,1.35,22.59-6.36,34.54-5.17c0.48,0.05,1.13,0.06,1.46-0.21c1.88-1.55,5.57-1.09,5.99-3.6c0.38-2.27-3.02-2.62-4.64-3.94
				c-7.43-6.08-14.9-11.96-20.47-20.08c-4.68-6.82-10.52-12.85-15.77-19.29c-1.11-1.36-4.26-2.45-2.23-4.61
				c1.82-1.94,3.69,0.36,4.91,1.79c6.05,7.06,12.39,13.92,17.82,21.44c4.39,6.08,10.65,10,15.5,15.46c0.58,0.66,1.81,1.14,2.69,1.09
				c10.87-0.71,20.85,3.95,31.4,5.07c2.15,0.23,4.31,0.4,6.44,0.71c0.83,0.12,1.65,0.65,1.52,1.63c-0.13,0.99-1.05,1.32-1.89,1.21
				c-7.66-1.05-15.72,0.55-22.93-3.48c-0.57-0.32-1.22-0.59-1.86-0.69c-1.48-0.22-3.46-0.72-4.22,0.58
				c-1.09,1.86,1.13,3.32,2.19,3.86c3.36,1.7,6.95,3.1,10.59,4.04c4.17,1.07,8.49,1.54,12.75,2.22c10.33,1.63,18.27-3.35,25.46-9.73
				c1.78-1.58,1.31-4.25-1.76-4.78c-2.45-0.42-5.04-0.83-7.46-0.47c-17.65,2.59-32.62-4.84-47.03-13.17
				c-5.87-3.39-10.15-9.32-14.03-15.18c-8.5-12.85-17.47-25.4-25.61-38.47c-2.27-3.64,0.27-8.68-0.24-13.09
				c-0.07-0.61,0.65-1.16,1.42-1.05c0.94,0.14,1.46,0.9,1.58,1.73c0.98,6.59,4.83,12.15,6.57,18.61
				c1.82,6.76,7.08,12.66,11.11,18.75c3.83,5.79,7.56,11.76,12.17,16.9c4.51,5.03,10.13,9.07,16.04,12.49
				c2.15,1.24,4.54,2.06,6.75,3.19c11.65,5.94,24.15,6.51,36.85,5.86c0.6-0.03,1.18-0.36,2.77-0.87c-4.83-3.01-8.76-5.95-13.1-8.02
				c-3.86-1.83-6.75-4.82-10.25-7.03c-1.12-0.71-2.6-1.54-1.49-3.08c0.95-1.32,2.44-0.67,3.64-0.05c3.69,1.92,6.63,4.91,10.29,6.98
				c9.09,5.16,18.17,10.33,27.64,14.77c4.55,2.13,9.53,1.47,14.25,1.79c13.28,0.89,25.73,4.78,38.33,8.54
				c5.51,1.64,10.95,3.61,16.6,4.9c11.16,2.54,18.42-4.43,26.04-10.38c2.71-2.11,4.79-5.04,7.11-7.63c0.69-0.76,1.34-1.71,2.41-0.89
				c0.83,0.63,0.3,1.52-0.17,2.22c-6.1,8.99-14.4,15.47-23.91,20.44c-3.92,2.05-8.03,1.48-12.16,0.18c-4.4-1.39-8.9-2.5-13.56-3.79
				c1.64,5.38,10.8,10.82,16.35,10.76c10.87-0.11,20.57-4.6,30.73-7.45c6.48-1.82,11.9-5.73,18.01-8.23
				c1.26-0.52,2.42-1.09,3.81-0.81c0.84,0.17,1.75,0.45,1.93,1.34c0.2,1.02-0.67,1.35-1.52,1.57c-6.46,1.64-11.98,5.44-18.03,7.92
				c-8.3,3.4-16.37,7.84-25.62,8.6c-1.63,0.14-3.27,0.66-4.83,1.23c-2.21,0.82-2.41,2.57-0.66,3.76c5.71,3.87,11.12,8.5,18.8,7.94
				c2.96-0.22,5.99,0.16,8.96,0.49c2.32,0.25,4.59,0.85,5.09,4.37c-8.69-2.54-17.52-0.05-25.84-3.22c-2.52-0.96-3.54,1.28-2.41,3.21
				c2.67,4.56,5.64,8.75,10.77,11.31c12.07,6.04,23.46,13.17,31.13,24.77c1.7,2.56,3.49,2.69,5.2,0.72
				c10.06-11.57,23.71-19.22,33.63-30.95c1.14-1.34,1.75-2.75,2.4-4.25c0.5-1.14,1.34-2.16,2.68-1.54c1.44,0.67,0.61,2,0.45,3.09
				c-0.28,1.91-2.27,2.35-3.14,3.69c-0.93,1.44-2.49,3.17-0.87,4.93c1.32,1.43,3.19,0.89,4.63,0.01
				c8.99-5.54,19.74-7.85,27.76-15.16c2-1.82,4.81-1.35,7.19-3.31c9-7.4,10.92-16.98,4.38-26.39c-1.99-2.87-3.73-5.91-5.63-8.85
				c-1.12-1.74-2.2-2.29-3.76-0.2c-2.96,3.96-6.39,7.59-9.11,11.7c-1.33,2.01-2.83,2.54-4.86,2.74L1205.97,818.01z M1303.67,1038.35
				c-4.34,1.68-7.58,2.93-10.82,4.18c-3.98,1.54-7.6,3.95-12.15,4.06c-14.71,0.36-28.58,5.8-43.09,7.42
				c-1.26,0.14-2.26,0.96-2.13,2.33c0.16,1.65,1.58,1.52,2.7,1.36c9.15-1.29,18.44-1.58,27.36-4.45c4.66-1.5,9.16-3.3,14.33-3.51
				C1288.67,1049.39,1297.08,1047.18,1303.67,1038.35z M1206.34,1007.83c-1.04,0.13-1.66,0.8-1.75,1.62
				c-0.24,2.3-0.67,4.88,1.35,6.52c1.72,1.4,2.78,2.55,2.03,4.96c-0.58,1.87,1.02,2.58,2.55,2.99c1.38,0.37,2.72,0.29,3.46-1.13
				c0.74-1.43,0.05-2.75-1.06-3.5c-3.05-2.05-4.1-5.03-4.58-8.45C1208.17,1009.62,1207.97,1008.13,1206.34,1007.83z M1196.85,882.6
				c-0.27-2.44-3.86-2.46-2.56-4.79c0.97-1.73,3.07-0.8,4.59-0.58c3.04,0.45,4.22-2.25,6.31-3.36c0.56-0.3,0.82-1.06,0.42-1.74
				c-0.49-0.84-1.32-1.02-2.13-0.68c-5.21,2.14-10.4,4.33-15.59,6.5C1191.28,878.94,1192.94,882.8,1196.85,882.6z M1219.27,900.33
				c0.33-0.13,0.69-0.18,0.94-0.38c3.51-2.69,7.02-5.38,10.49-8.12c0.87-0.69,1.11-1.7,0.44-2.64c-0.63-0.89-1.9-1.39-2.62-0.81
				c-3.56,2.85-7.06,5.79-10.33,8.95C1217.4,898.09,1217.27,899.92,1219.27,900.33z M1177.71,919.05c-2.92,4.1-2.43,7.66,0.76,11.08
				c4.82,5.17,6.13-1.97,9.43-1.92C1179.45,927.83,1177.02,925.73,1177.71,919.05z M1211.26,983.23c-0.35-0.42-0.78-1.15-1.4-1.63
				c-0.92-0.71-2-0.64-2.55,0.43c-0.82,1.59-1.76,2.75-3.76,2.7c-1.41-0.04-2.78,0.36-2.69,2.17c0.09,1.84,1.63,2.38,3.06,2.83
				C1204.79,990,1211.27,984.48,1211.26,983.23z M1230.69,899.83c-0.07-1.97-1.58-2.52-2.98-1.53c-2.54,1.8-4.94,3.9-7.03,6.21
				c-1.27,1.4-0.1,2.41,1.53,2.59C1223.61,907.25,1230.5,901.45,1230.69,899.83z M1231.84,985.83c-0.05-3.26-0.26-5.62-2.38-7.16
				c-1.74-1.26-3.26-1.06-3.54,1.35c-0.36,3.08,4.64,5.06,1.9,8.73c1.28,0.85,2.64,0.94,3.44-0.44
				C1231.81,987.37,1231.79,986.1,1231.84,985.83z M1169.84,884.01c1.25-0.51,2.15-0.88,3.05-1.25c3.63-1.53,1.53-3.9,1.01-6.16
				c-0.55-2.42-1.86-1.53-3.29-1.12c-3.47,0.99-1.7,2.74-0.68,4.37C1170.74,881.15,1169.48,882.33,1169.84,884.01z M1225.84,1059.96
				c1.81-0.43,5.03,0.88,5.12-1.56c0.12-3.19-3.33-1.35-5.12-2.02c-0.78-0.29-1.53-0.68-2.34-0.85c-1.83-0.39-2.35,0.78-2.47,2.27
				c-0.14,1.72,0.34,3.05,2.41,2.86C1224.26,1060.59,1225.05,1060.21,1225.84,1059.96z M1224.22,940.8c-1.33,1.45-4.3-0.77-4.33,2.4
				c-0.01,1.11,0.66,1.86,1.76,2.09c1.96,0.41,3.62-0.04,4.64-1.93c0.57-1.05,2.9-2.38,1.63-2.95c-2.32-1.05-2.25-4.22-4.68-4.52
				c-1.47-0.18-1.89,1.07-1.39,2.42C1222.26,939.42,1224.07,939.11,1224.22,940.8z M1196.02,935.94c-0.09-1.57-1.46-1.5-2.46-1.92
				c-3.52-1.48-4.77,3.29-7.95,2.86c-0.78-0.1-1.74,0.5-1.59,1.49c0.18,1.13,1.35,1.83,2.23,1.49c3.03-1.16,5.93-2.69,9.21-3.13
				C1195.67,936.7,1195.82,936.23,1196.02,935.94z M1205.99,1049.05c0.06-1.43,1.63-3.73-1.12-3.8c-2.17-0.06-1.78,2.31-1.98,3.87
				c-0.04,0.32-0.05,0.66-0.02,0.98c0.17,1.82-0.81,4.75,1.91,4.77c3.62,0.02,1.27-2.72,1.21-4.35
				C1205.97,1050.03,1205.99,1049.54,1205.99,1049.05z M1210.77,939.33c-2.88,0.57-4.79,0.95-6.7,1.33
				c-1.19,0.24-2.41,0.57-2.22,2.13c0.17,1.45,1.41,1.7,2.6,1.84C1207.91,945.06,1208.75,942.26,1210.77,939.33z M1183.49,886.58
				c1.41-0.77,4.53,0.49,4.44-1.51c-0.11-2.53-3.2-2-5.19-2.05c-1.29-0.03-3.5-0.56-3.3,1.65
				C1179.62,886.77,1181.77,886.47,1183.49,886.58z M1182.91,916.13c0.35,1.97,1.96,1.53,3.07,1.42c1.52-0.15,3.93,1.86,4.38-1.03
				c0.26-1.64-1.79-2.16-3.25-2.22C1185.51,914.23,1183.85,914.43,1182.91,916.13z M1227.63,949.85c-0.68-1.92-1.86-1.35-2.93-0.94
				c-1.86,0.7-2.62,3.06-4.87,3.26c-0.72,0.06-1.29,0.62-1.01,1.39c0.37,1,1.26,0.96,2.06,0.58c1.93-0.91,3.86-1.84,5.72-2.88
				C1227.1,950.99,1227.34,950.27,1227.63,949.85z M1238.49,997.56c-0.89-1.36-0.75-3.92-3.05-3.87c-1.65,0.04-1.35,2.01-1.44,3.21
				c-0.15,2,1.37,2.38,2.92,2.5C1238.15,999.5,1238.8,998.97,1238.49,997.56z M1212.77,907.13c1.31-1.62,2.79-3.14,3.84-4.92
				c0.46-0.78-0.7-1.53-1.53-1.22c-2.1,0.79-4.57,1.42-5.31,3.84C1209.43,905.93,1210.9,906.16,1212.77,907.13z M1207.84,997.97
				c0.09-1.01-0.04-2.13-1.04-1.9c-1.77,0.41-3.24,1.63-3.77,3.42c-0.35,1.19,0.39,2.55,1.64,2.59
				C1207.52,1002.19,1206.74,999.24,1207.84,997.97z M1203.05,934.66c1.32-0.04,3.1,0.43,3.28-1.27c0.2-1.92-1.8-1.97-3.14-2.34
				c-1.42-0.39-2.97,0.15-3.16,1.49C1199.71,934.72,1201.88,934.21,1203.05,934.66z M1204.97,979.54c1.63,0.01,2.12-0.94,2.12-2.25
				c0-1.61-0.75-2.55-2.45-2.28c-1.33,0.22-2.88,0.64-2.85,2.24C1201.82,979.18,1203.61,979.28,1204.97,979.54z M1226.15,968.61
				c-1.73-0.95-1.99-3.82-4.53-4.25c-0.82-0.14-1.65,0.95-1.15,1.73c1.14,1.76,2.3,3.67,4.33,4.5
				C1225.64,970.93,1226.17,969.97,1226.15,968.61z M1214.17,922.78c-1.31,0.73-1.68,2.12-1.71,3.62c-0.02,1.05,0.37,2.06,1.66,1.91
				c1.69-0.2,1.91-1.61,1.95-2.95C1216.1,924.21,1215.98,923.01,1214.17,922.78z M1222.07,885.6c-0.06-1.06-0.36-2.05-1.66-1.86
				c-1.75,0.26-2.38,1.57-2.35,3.18c0.03,1.17,0.79,1.76,1.95,1.57C1221.6,888.22,1221.96,886.98,1222.07,885.6z"/>
			<path class="st0" d="M754.04,1054.66c11.76-2.28,22.88,0.26,33.77,4.92c3.42,1.46,5.17,4.1,6.69,6.99
				c0.95,1.8,0.75,3.83-1.05,5.44c-14.04,12.56-30.01,20.76-48.84,23.88c-8.32,1.38-16.49,0.09-24.71,0.53
				c-11.02,0.6-21.73,2.24-32.53,4c-8.31,1.35-16.58-0.61-24.87-1.01c-2.96-0.14-3.75-2.21-4.62-4.91c-2.6-8.04,3.1-13.54,5.5-20
				c2.08-5.63,5.24-10.59,10.04-14.57c7.11-5.91,11.05-14.29,16.06-21.84c6.14-9.24,12.57-18.29,19.62-26.87
				c3.56-4.33,6.49-8.98,8.79-14.13c2.07-4.65,5.3-8.72,7.92-13.08c6.12-10.18,10.42-21.19,16-31.57
				c5.55-10.31,10.45-21.1,20.13-28.74c4.64-3.66,6.92-9.62,10.84-14.18c5.68-6.61,12.85-11.52,18.9-17.66
				c5.34-5.43,10.68-10.85,15.95-16.35c0.63-0.66,1.38-2.22,1.1-2.57c-4.64-5.73,0.78-9.77,3.2-13.04
				c7.38-9.98,13.76-20.65,21.44-30.43c3.67-4.67,7.34-9.33,11.27-13.78c1.41-1.59,1.1-3.42,1.15-5.21c0.06-2.32,1.26-4.02,3.29-4.5
				c2.73-0.65,3.74,2.31,5.32,3.67c1.65,1.42-0.77,2.49-1.59,3.81c-3.72,5.91-10.19,8.93-14.33,14.47
				c-4.94,6.62-9.03,13.78-13.81,20.47c-3.06,4.28-6.24,8.48-9.43,12.66c-1.1,1.44-1.67,2.95-0.96,4.63
				c0.73,1.74,2.44,1.5,3.91,1.48c6.64-0.06,13.3-0.51,19.88,0.82c0.97,0.2,2.36,0.08,2.84,0.68c4.13,5.09,10.77,7.42,14.54,12.68
				c7.27,10.15,16.41,18.14,26.7,24.95c8.77,5.8,9.43,5.54,17.03-2c8.83-8.76,18.21-16.99,26.66-26.1
				c8.81-9.49,18.16-18.61,25.01-29.79c0.57-0.93,1.15-3.24,2.64-2.1c1.51,1.16-0.18,2.41-1.11,3.63
				c-3.88,5.07-7.65,10.24-11.29,15.49c-4.73,6.84-10.62,12.76-16.66,18.22c-9.71,8.78-17.86,19.02-27.56,27.76
				c-1.97,1.78-3.08,3.73-0.93,6.86c2.76,4.04,3.47,9.22,6.1,13.5c0.93,1.51,1.72,3.07,3.55,3.06c2.21-0.01,4.35-0.95,5.51-2.89
				c5.18-8.66,9.98-17.54,17.06-24.95c5.97-6.25,9.29-14.36,14.28-21.33c5.92-8.26,10.89-17.11,14.98-26.43
				c0.32-0.74,0.81-1.68,1.78-1.43c1.4,0.37,1.14,1.89,0.65,2.42c-2.81,3.12-2.85,7.55-5.44,10.79c-3.18,3.98-4.61,8.97-7.35,13.32
				c-9.25,14.67-18.69,29.12-29.95,42.39c-2.99,3.52-4.78,8.29-6.25,12.77c-0.89,2.73-2.18,3.9-4.49,3.23
				c-6.42-1.86-13.66-1.81-17.6-9.14c-2.2-4.1-6.97-5.98-11.15-8.07c-2.23-1.11-4.44-2.25-6.63-3.42c-0.85-0.46-2-0.94-1.41-2.19
				c0.49-1.04,1.89-1.26,2.62-0.85c6.68,3.72,15.03,4.58,19.78,11.62c1.45,2.16,4,5.56,5.72,4.34c1.9-1.35-0.3-5.13-1.48-7.34
				c-4.61-8.66-13.07-13.73-19.92-20.3c-2.08-2-4.21-2.03-5.36,1.18c-4.26,11.84-12.92,20.16-21.7,28.72
				c-5.72,5.58-9.13,13.36-14.35,19.65c-5.13,6.19-11.49,10.92-17.38,16.18c-6.97,6.24-14.45,11.88-21.03,18.61
				c-2.34,2.39-5.79,4.25-8.84,5.79c-7.72,3.89-13.57,9.94-20.08,15.26c-8.23,6.73-15.06,14.96-23.87,21.13
				c-3.71,2.6-6.18,7.45-5.21,12.73c0.72,3.88,6.67,7.73,11.99,8.02C751.61,1054.72,752.77,1054.66,754.04,1054.66z M801.05,980.06
				c3.82-0.35,3.66-4.97,6.62-6.29c0.04-0.02-0.34-1.55-0.83-2.08c-0.77-0.81-1.93-0.86-2.53,0.17c-1.13,1.92-1.91,1.65-3.19,0.07
				c-0.99-1.22-2.55-1.74-4.24-2c0.05,4.31,6.39,5.45,4.28,10.25c-1.64-0.55-2.75-1.7-3.72-3.09c-0.63-0.89-1.59-1.12-2.61-0.48
				c-0.9,0.56-1.63,1.38-1.35,2.42c0.68,2.5,3.01,3.66,5.02,4.31C800.9,984.13,800.38,981.36,801.05,980.06z M760.89,959.93
				c-2.47-0.3-4.94-0.6-7.4-0.91c-1.84-0.23-3.83-0.4-4.38-2.59c-0.38-1.49,0.01-2.97,1.22-4.11c1.68-1.59,3.17-0.79,4.98-0.01
				c3.68,1.6,7.71,1.98,11.67,2.06c1.19,0.02,4.18-0.12,2.63-2.75c-2.94-4.98-14.19-5.73-19.05-2.36
				c-4.55,3.15-5.76,8.07-8.33,12.28c-2.9,4.75-1.79,7.09,3.88,7.18c5.56,0.09,10.96,3,16.71,0.6c1.75-0.73,3.66,0.57,5.38,1.89
				c2.76,2.13,5.87,3.88,9.63,4.19c-2.62-1.41-3.33-4.92-6.6-5.54c-0.98-0.18-2.06-0.76-1.67-2.01c0.48-1.53,1.84-1.06,2.95-0.86
				c1.34,0.24,2.36,1.05,3.48,1.81c3.51,2.38,7.15,4.6,10.81,6.76c1.24,0.73,2.74,0.65,3.48-0.77c0.86-1.65-0.45-2.24-1.71-2.93
				c-3.77-2.06-7.88-3.77-11.07-6.52c-2.95-2.54-5.4-2.36-8.01-0.48c-2.22,1.6-4.49,2.05-7.05,1.68c-4.12-0.59-8.22-1.14-12.42-1.03
				c-1.88,0.05-4.8-0.11-4.35-2.75c0.46-2.64,3.02-0.86,4.65-0.73c1.82,0.15,3.61,0.71,5.42,0.82c2.27,0.13,4.38-0.3,5.01-3.03
				c1.15,0.1,2.31,0.18,3.46,0.29c0.99,0.1,1.97,0.28,2.96,0.34c1.93,0.11,4.46-0.2,2.67-2.65c-1.65-2.25-4.67-0.53-7,0.07
				C762.09,958.05,761.54,959.21,760.89,959.93z M861.71,908.33c6.68-2.39,7.27-4.6,2.67-9.69c-7.32-8.1-15.33-15.49-23.17-23.07
				c-4.42-4.27-9.51-4.1-14.67-4.75c-5.57-0.7-10.3,0.36-13.85,5.45c-2.33,3.35-5.88,5.73-8.67,8.82
				c-3.98,4.41-8.71,8.14-13.11,12.18c-1.18,1.08-4.21,0.36-3.45,3.27c0.55,2.13,1.71,4.21,3.93,4.85c5.92,1.7,11.43,4.33,16.9,7.06
				c6.09,3.05,13.66,3,18.42,8.86c0.65,0.8,1.83,1.06,2.74,0.47c1.28-0.84,0.5-2.02,0.27-3.14c-0.76-3.74-3.63-5.89-7.14-8.52
				c7.84,1.37,18.51,14.93,18.71,22.74c0.03,1.32-0.5,2.84,1.54,2.97c1.27,0.08,1.87-0.73,2.57-1.86c2.01-3.23,1.45-9.64,8.44-7.26
				c0.57,0.19,1.89-0.81,2.38-1.56c3.36-5.14,9.3-9.47,5.61-16.95L861.71,908.33z M693.38,1089.08c-3.16,0-6.32-0.03-9.47,0.02
				c-1.41,0.02-3.38-0.47-3.4,1.78c-0.01,1.96,1.85,2.26,3.31,2.26c3.65-0.01,7.29,0.18,10.94,0.34c8.79,0.38,18.2,2.2,26.25-0.23
				c9.83-2.97,19.5-0.13,29.35-2.61c9.32-2.35,17.83-5.34,25.58-10.6c1.62-1.1,6-2.49,3.94-5.16c-1.93-2.49-4.85,0.6-6.65,2.22
				c-8.46,7.57-19.42,9.77-29.62,10.43C726.96,1088.58,710.13,1087.86,693.38,1089.08z M686.58,1080.1
				c-0.09,0.02-1.06,0.23-2.04,0.4c-1.04,0.18-2.12,0.19-2.33-1.13c-0.2-1.28,0.29-2.44,1.78-2.43c2.17,0.01,3.89-0.71,3.47-3.05
				c-0.51-2.79-3-1.9-4.91-1.94c-2.98-0.06-6.09,1.23-8.39-2.49c-1.18-1.91-3.09-0.23-3.32,1.67c-0.37,3,1.12,4.68,4.26,4.84
				c0.92,0.05,2.29,0.18,1.94,1.59c-0.31,1.25-1.59,0.92-2.54,0.78c-6.35-0.88-6.33-0.89-6.78,5.41c-0.08,1.15-0.22,2.33-0.56,3.42
				c-0.62,2-0.55,3.69,1.7,4.48c1.81,0.64,3.71,0.89,4.77-1.24c0.99-1.98,2.93-2.44,4.59-3.49c3.9-2.46,8.11-1.23,12.17-1.67
				c1.93-0.21,3.25-1.05,3.31-3.01c0.07-2.17-1.71-2.08-3.21-2.14C689.48,1080.07,688.48,1080.1,686.58,1080.1z M827.06,955.12
				c-2.26,1.3-3.5,1.78-5.79-0.4c-8.44-8.08-16.98-16.15-26.86-22.58c-1.06-0.69-1.92-2.33-3.3-0.88c-1.26,1.31-0.45,2.88,0.36,4.12
				c0.52,0.79,1.43,1.37,2.26,1.9c9.24,5.84,17.73,12.91,25.44,20.38C824.71,963.02,824.91,958.69,827.06,955.12z M713.38,1062.17
				c0-0.18,0-0.36,0.01-0.54c-2.97,0-6-0.36-8.91,0.1c-3.08,0.48-7.93,2.35-7.74,4.27c0.44,4.54,4.31,1.02,6.73,1.15
				c0.33,0.02,0.66,0,0.99,0.03c8.29,0.75,16.35-2.49,24.67-1.39c1.37,0.18,2.9-0.2,2.71-2.03c-0.18-1.79-1.76-1.59-3.1-1.59
				C723.63,1062.18,718.5,1062.17,713.38,1062.17z M819.7,925.22c-3.28,3.16-5.13,2.82-7.45,0.86c-2.45-2.07-5.52-3.47-8.44-4.9
				c-1.13-0.56-2.74-0.49-3.56,0.84c-0.61,0.98,0.44,1.35,1.1,1.8c6.66,4.51,13.3,9.05,19.97,13.55c1.03,0.7,2.24,2.07,3.47,0.8
				c1.44-1.49-0.23-2.54-0.98-3.78C822.3,931.86,818.22,930.94,819.7,925.22z M745.96,1005.21c2.43-1.72,4.67-2.16,7.27-1.13
				c1.04,0.41,2.57,0.23,2.74-1.3c0.17-1.55-1.25-1.76-2.41-1.89c-1.63-0.18-3.04-0.35-4.56-1.46c-5.68-4.12-12.5-5.2-19.22-6.4
				c-0.89-0.16-1.79,0.15-1.78,1.18c0,0.47,0.73,1.35,1.13,1.34c5.38-0.06,8.79,5.37,14.4,4.95
				C746.19,1000.32,747.55,1002.01,745.96,1005.21z M746.38,987.55c1.31,0.21,2.45,0.41,3.6,0.56c1.07,0.14,2.06-0.06,2.28-1.3
				c0.22-1.22-0.66-2.09-1.66-1.94c-5.93,0.88-12.15-4.19-17.9,0.97c-1.09,0.98-3.75,0.88-2.58,3.18c0.85,1.68,3.05,1.6,4.42,0.62
				C738.27,986.99,742.52,988.11,746.38,987.55z M769.49,975.74c-2.16-0.12-3.02,0-3.25,1c-0.29,1.24,0.59,1.76,1.56,2.17
				c6.02,2.55,11.22,6.37,16.22,10.5c1.08,0.89,2.23,1.92,3.45,0.7c1.5-1.5,0.09-2.45-0.93-3.65c-3.14-3.67-8.17-3.7-11.82-6.49
				C772.69,978.43,771.27,975.7,769.49,975.74z M742.66,971.25c0.13,0-1.21-0.08-2.53,0.02c-1.14,0.09-2.56,0.2-2.51,1.77
				c0.04,1.4,1.25,1.86,2.49,1.92c4.81,0.25,9.63,0.46,14.44,0.67c1.2,0.05,2.57-0.06,2.69-1.54c0.14-1.71-1.22-2.16-2.67-2.24
				C751.08,971.67,747.6,971.5,742.66,971.25z M773.16,925.33c-0.67-0.06-2.47-0.23-4.28-0.36c-1.43-0.1-2.78,0.19-2.96,1.87
				c-0.18,1.73,1.13,2.21,2.56,2.33c3.12,0.27,6.24,0.68,9.36,0.67c2-0.01,5.12,0.08,4.99-2.57c-0.11-2.21-3.16-1.69-5.05-1.91
				C776.64,925.22,775.47,925.33,773.16,925.33z M788.05,943.03c-1.14,0.2-2.24,0.04-2.22,1.19c0.02,1.65,1.28,2.88,2.5,3.47
				c4,1.94,8.12,3.54,10.94,7.3c0.62,0.82,2.2,1.26,3.11,0.22c1-1.14,0.1-2.25-0.89-2.88c-3.21-2.03-5.91-4.68-8.82-7.07
				C791.31,944.14,789.43,943.67,788.05,943.03z M794.24,921.1c1.54,0.01,2.98,0.25,3.03-1.41c0.04-1.35-1.2-2.06-2.37-2.17
				c-4.29-0.42-8.6-0.74-12.9-0.98c-1.09-0.06-2.6-0.09-2.69,1.5c-0.08,1.47,1.26,1.85,2.42,2
				C786.01,920.57,790.38,920.02,794.24,921.1z M780.94,991.55c-0.23-1.23-1.17-1.58-2.16-1.79c-3.71-0.79-6.43-3.24-9.15-5.61
				c-1.18-1.03-2.34-1.82-3.89-1.93c-0.81-0.06-1.73-0.18-2.06,0.85c-0.31,0.97,0.34,1.57,1.07,1.99c4.37,2.54,8.73,5.1,13.15,7.55
				C779.11,993.27,780.49,993.45,780.94,991.55z M775.09,938.76c0.88-0.13,2.23-0.21,3.5-0.56c0.51-0.14,1.12-0.81,1.21-1.32
				c0.19-1.03-0.64-1.37-1.54-1.46c-3.47-0.35-6.94-0.76-10.41-1.01c-1.54-0.11-2.59,0.74-2.54,2.38c0.05,1.49,1.13,2.12,2.41,1.74
				C770.09,937.81,772.34,938.74,775.09,938.76z M748.64,990.91c-1.79,0.25-3.23-0.08-3.65,1.33c-0.3,1.01,0.75,1.34,1.54,1.5
				c4.76,0.95,8.67,3.44,12.23,6.61c0.69,0.61,1.49,0.64,2.26,0.08c0.65-0.47,0.77-1.23,0.28-1.72
				C757.54,994.98,752.92,992.7,748.64,990.91z M778.92,943.62c-0.31-0.4-0.58-1.15-1.08-1.35c-3.5-1.39-7.16-1.19-10.6-0.1
				c-1.67,0.53-1.41,2.41-0.24,3.72c0.57,0.64,11.21-0.88,11.61-1.6C778.69,944.15,778.75,943.99,778.92,943.62z M694,1053.57
				c2.07,0.17,3.56,0.96,4.51,2.76c0.38,0.73,1.11,1.42,1.96,0.57c0.73-0.73,0.35-1.54-0.33-2.12c-2.37-2.03-4.77-4.02-7.17-6.02
				c-1.34-1.12-2.04,0-2.84,0.82c-0.97,0.99-1.73,2.11-1.28,3.52c0.45,1.42,1.69,1.36,2.88,1.09
				C692.53,1054.01,693.31,1053.76,694,1053.57z M736.73,979.43c5.13,1.48,9.61,1.67,14.05,2.11c1.17,0.12,2.65,0.25,2.81-1.25
				c0.16-1.46-1.35-1.77-2.48-1.89C746.53,977.89,741.98,977.93,736.73,979.43z M788.62,967.85c0.83-0.44,1.52-0.62,1.91-1.07
				c0.54-0.62,0.11-1.26-0.48-1.65c-3.39-2.26-6.8-4.5-10.2-6.73c-0.62-0.41-1.27-0.4-1.82,0.09c-0.62,0.55-0.37,1.15,0.01,1.76
				C780.52,964.31,785.77,964.26,788.62,967.85z M787.88,951.69c-0.98,0.1-2.14,0.02-2.45,1.21c-0.13,0.5,0.15,1.49,0.54,1.7
				c2.75,1.46,5.55,2.83,8.39,4.12c0.75,0.34,1.71,0.22,2.24-0.54c0.22-0.31,0.16-1.27-0.02-1.34
				C793.41,955.57,791.86,951.56,787.88,951.69z M734.89,1001.06c-3.96-1.09-6.63-1.99-9.36-2.52c-1.35-0.26-2.78,0.47-2.88,2.06
				c-0.09,1.42,1.23,1.96,2.4,1.97C727.97,1002.61,730.93,1002.81,734.89,1001.06z M724.56,1024.53c1.75,0.02,4.09,1.31,4.56-1.31
				c0.31-1.71-1.68-2.44-3.18-2.15c-2.08,0.41-5.61-1.08-5.92,1.77C719.69,1025.86,723.13,1023.63,724.56,1024.53z M806.6,936.05
				c-1.8-2.46-2.7-5.59-5.45-7.31c-0.95-0.59-1.94-1.79-3-0.83c-1.32,1.18,0.32,1.92,0.85,2.81
				C800.71,933.54,804.21,933.93,806.6,936.05z M733.7,1035.21c-0.15,1.51-0.15,3.41,1.44,3.26c2.76-0.26,1.92-3.38,2.94-5.09
				c0.75-1.25-0.32-2.99-1.79-2.8C733.64,1030.91,734.59,1033.74,733.7,1035.21z M730.17,1015.79c2.05,2.49,3.01,4.07,4.36,5.18
				c1.12,0.92,2.96,1.5,3.92-0.11c0.88-1.48-0.67-2.46-1.79-2.99C735.05,1017.14,733.28,1016.76,730.17,1015.79z M744.66,1015.71
				c-1.5,0.16-1.61,1.2-1.36,2.2c0.47,1.9,0.72,4.19,3.15,4.54c1.1,0.16,1.49-1.17,1.42-2.22
				C747.72,1018.06,746.71,1016.47,744.66,1015.71z M757.56,986.32c2.46,1.98,3.91,3.18,4.83,4.94c0.42,0.82,1.75,0.88,2.7,0.51
				c0.63-0.25,1.09-1.12,0.57-1.59C763.67,988.39,762.11,985.68,757.56,986.32z M732.43,1008.25c-0.19-1.72-1.41-2.01-2.82-1.9
				c-1.21,0.09-2.36,0.53-2.4,1.94c-0.05,1.66,1.19,2.22,2.6,2.28C731.32,1010.63,732.24,1009.83,732.43,1008.25z"/>
			<path class="st0" d="M1080.48,654.62c1.49,5.75,0.94,6.58-4.81,6.51c-6.15-0.08-12.33-0.57-18.46,3.81
				c3.63,1.75,6.93,3.34,10.22,4.94c1.27,0.61,3.37,0.83,2.54,2.9c-0.72,1.78-2.6,1.38-3.93,0.71c-5.03-2.52-10.89-3.16-15.45-6.72
				c-1.65-1.29-3.39-1.08-5.22-0.59c-11.59,3.1-22.91,1.94-34.41-1.17c-12.86-3.47-26.1-5.36-39.35-6.68
				c-11.92-1.19-23.91-1.67-35.87-2.35c-4.26-0.24-7.95-2.32-11.99-3.28c-2.59-0.61-4.16-0.19-5.99,1.97
				c-6.5,7.65-11.43,16.47-15.86,25.18c-3.49,6.85-6.12,14.57-8.57,22.09c-1.34,4.12-3.44,7.86-4.71,12.03
				c-4.03,13.26-4.46,26.36-2.96,40.24c1.18,10.91,5.68,21.14,5.29,32.18c-0.03,0.8-0.2,1.59-0.68,2.42
				c-5.66-17.13-9.33-34.6-9.6-52.89c-6.87,5.36-9.97,13.35-8.68,21.61c0.17,1.11,0.4,2.64-0.18,3.38
				c-3.68,4.77-4.39,10.87-7.39,15.92c-0.57,0.96-1.17,2.17-1.1,3.22c0.39,6.22-5.11,10.13-5.32,16.18
				c-2.18-1.07-1.92-2.55-1.49-3.39c4.48-8.62,4.05-19.01,10.04-27.17c1.77-2.42,1.52-6.1,1.29-9.26
				c-0.28-3.92,0.39-7.31,2.54-10.86c2.8-4.64,3.62-10.59,6.81-14.84c6.48-8.62,7.87-19.2,12.35-28.55
				c5.98-12.48,9.63-25.92,17.18-37.86c4.15-6.57,10.4-12.11,12.01-20.26c0.13-0.65,1.21-1.06,1.73-1.68
				c2.84-3.4,6.84-5.97,2.93-11.75c-2.19-3.24-0.77-8.28,0.51-12.19c4.2-12.88,4.04-26.24,5.01-39.49c0.19-2.66,0.18-5.33,0.26-7.99
				c0.2-6.4,1.37-12.43,5.29-17.8c3.05-4.18,4.01-9.11,3.43-14.27c-0.89-7.95-0.72-15.96-1.18-23.93
				c-0.34-5.81,2.45-11.54,4.35-17.17c0.31-0.93,1.49-1.85,1.34-2.59c-1.37-7.24,1.27-14.65,0.04-21.53
				c-1.97-10.99-0.04-20.8,4.84-30.31c3.15-6.15,6.44-12.32,10.41-17.96c10.32-14.68,22.41-26.98,41.65-29.26
				c6.7-0.8,13.1-2.95,20.16-1.9c2.6,0.39,5.93-2.73,8.6-4.69c1.38-1.01,0.62-2.83-0.56-3.96c-2.62-2.51-4.61-5.57-8.01-7.4
				c-2.91-1.56-5.48-4.15-5.64-7.76c-0.35-8.12-3.15-15.59-5.91-23.03c-1.47-3.96-0.9-6.79,2.47-9.11c3-2.07,3.77-4.88,3.14-8.3
				c-1.44-7.82,0.06-15.63,0.45-23.41c0.15-2.96,1.93-6,3.51-8.69c6.46-11.04,14.26-20.93,26-26.79c3.52-1.76,7.49-3.32,11.34-3.55
				c14.09-0.85,28.58-2.47,41.55,4.69c11.04,6.09,18.13,15.84,22.73,27.81c3.23,8.42,4.93,17.04,6.69,25.74
				c0.15,0.75,0.61,1.69,1.22,2.04c5.2,3.06,5.73,7.78,4.77,13.04c-2.34,12.81-4.94,25.57-6.05,38.57c-0.05,0.63-0.29,1.55-0.73,1.8
				c-5.52,3.09-4.91,9.67-8.07,14.1c-2.32,3.25-1.84,5.78,1.77,8.32c6.64,4.66,14.81,5.85,21.55,10.23
				c2.52,1.64,4.61,4.06,6.94,5.35c7.53,4.17,12.62,12.18,21.66,13.77c3.5,0.62,2.77-2.32,2.53-3.95
				c-0.87-5.89,0.17-11.62,0.87-17.4c0.45-3.7,1.91-6.27,6.11-6.53c1.66-0.1,3.61-0.7,3.5-2.82c-0.12-2.46-0.34-5.55-2.49-6.77
				c-3.31-1.89-2.44,2.51-4.02,3.48c-1.63-3.25,0.2-8.42,3.67-9.41c1.66-0.48,3.47-0.38,5.14-1.24c0.95-0.49,2.46,0.42,2.29,1.27
				c-1.33,6.45,5.58,9.02,6.63,14.91c1.11,6.21,1.45,12.76,3.86,18.89c1.87,4.74,2.8,10.12,5.66,14.18c2.2,3.12,5.28,5.84,7.72,9
				c0.78,1.02,2.35,2.16,3.97,1.17c1.29-0.79,1.21-2.26,1.23-3.61c0.02-1.33,0.08-2.66,0.08-3.99c0-2.51-0.7-4.56-3.35-5.54
				c-3.14-1.16-2.57,2.39-4.49,3.37c-1.29-1.72-1.02-3.39,0.4-4.68c1.89-1.72,4.21-2.96,6.85-1.91c2.6,1.04,4.56,2.92,4.66,5.92
				c0.06,1.64-0.28,3.32-0.67,4.94c-1.26,5.28-0.72,9.78,4.53,12.81c7.42,4.3,11.79,12.07,18.84,16.84c1.53,1.04,2.9,2.47,4.79,2.44
				c7.48-0.14,14.23,3.2,21.44,4.25c3.58,0.52,6.38,2.81,9.71,3.84c11.62,3.57,22.17,9.28,32.36,15.83
				c8.86,5.7,18.17,10.53,28.35,13.56c2.88,0.86,5.37,2.72,7.53,4.78c8.55,8.13,18.31,7.27,28.87,5.01
				c11.31-2.43,22.73-7.29,34.52-2.71c6.27,2.43,11.51,7.05,18.08,9.14c2.16,0.69,2.83,3.01-0.06,4.36
				c-2.39,1.12-4.69,2.5-7.51,2.49c-1.11-0.01-2.58,0.34-2.55,1.81c0.03,1.47,1.53,1.77,2.63,1.77c7.61,0,13.64,4.38,20.22,7.21
				c5.03,2.16,7.03,10.75,3.85,15.25c-7.06,9.99-16.94,12.9-28.43,11.2c-5.09-0.75-9.78,0.39-14.69,0.86
				c-10.46,0.98-20.91,2.93-30.98-4.52c-6.91-5.12-12.89-12.14-21.66-14.61c-5.75-1.62-11.66-2.57-17.46-4.02
				c-9.11-2.28-17.94-5.92-27.57-6.09c-7.65-0.14-15.29-0.94-22.94-1.21c-4.56-0.16-8.9-1.08-13.15-2.62
				c-2.98-1.07-5.95-1.8-9.24-1.6c-5.79,0.35-10.85-2.57-15.12-5.73c-3.7-2.74-7.4-5.65-11.5-7.39c-3.84-1.63-8.01-3.57-12.76-2.05
				c-3.29,1.05-6.93,1.16-10.07-1.05c-4.52-3.19-9.33-4.74-15.01-3.84c-3.78,0.6-6-1.01-8.99-4.43c-4.08-4.66-7.01-9.83-10.47-14.76
				c-2.82-4.01-4.2-8.65-5.63-13.23c-0.41-1.3-0.59-3.55,1.02-3.98c2.2-0.58,1.55,1.88,2.12,3.03c4.47,9.06,8.38,18.4,15.58,25.87
				c3.06,3.17,6.58,4.56,10.7,4.34c5.05-0.28,9.54,0.75,13.57,3.9c1.58,1.23,3.52,2.16,5.54,0.83c1.82-1.19,0.79-2.97,0.78-4.57
				c-0.02-4.37,0.21-8.71,2.07-12.91c0.01,4.33,0.08,8.44,2.31,12.33c1.23,2.14,2.33,3.77,4.87,4.5
				c7.26,2.09,13.08,6.59,18.45,11.72c4.36,4.17,10.55,5.21,16.04,2.63c2.49-1.17,4.54,2.18,7.52,0.31c2.96-1.85,4.12,1.3,5.38,3.48
				c1.19,2.05,3.27,2.64,5.56,2.76c8.97,0.49,18.01,1.96,26.87,1.2c4.78-0.41,9.42,0.64,14.22,0.1c2.84-0.32,6.02,1.42,9.01-0.73
				c0.68-0.49,1.67-0.06,2.13,0.76c2.45,4.39,6.4,5,11.02,6.05c3.36,0.76,6.17,2.97,9.94,1.31c0.88-0.39,1.55,1.02,2.17,1.79
				c5.12,6.39,11.54,10.57,18.69,14.83c8.25,4.92,15.73,4.25,23.76,3.53c5.14-0.46,9.13-4.34,12.85-7.71
				c1.91-1.73,1.08-4.04-1.87-4.71c-3.47-0.8-6.98-0.17-10.47-0.27c0.79-3.86-3.28-13.64-6.32-15.09c-0.39-0.19-1.01-0.25-1.38-0.07
				c-0.88,0.44-1.1,1.48-0.65,2.13c2.89,4.26,3.84,9.81,8.49,12.91c-1.01,2.85-2.61,5.76-5.95,4.61c-3.04-1.05-6.9-2.59-5.36-7.45
				c0.85-2.68-0.56-4.13-2.88-4.92c-3.99-1.34-7.53-3.53-11.1-5.67c-1.05-0.63-2.88-1.22-1.93-2.87c0.76-1.32,2.4-0.86,3.64-0.33
				c1.06,0.45,1.96,1.4,3.04,1.67c2.19,0.56,5.26,2.47,4.96-2.37c-0.09-1.56,1.11-1.86,2.23-2.22c2.98-0.95,5.53-2.36,6.16-5.82
				c0.06-0.32,0.15-0.73,0.37-0.91c2.01-1.65,6.12,3.53,7.32-2.38c0.18-0.89,5.26-0.2,7.75,1.45c3.78,2.51,8.14,2.73,12.45,3.08
				c1.15,0.09,2.52,0.03,2.81-1.42c0.23-1.18-0.89-1.69-1.78-2.1c-6.46-2.98-12.46-7.03-19.67-8.29c-2.38-0.41-4.64-0.24-6.91,0.39
				c-7.04,1.95-14.31,3.34-21.03,6.07c-6.87,2.8-12.7,0.5-18.57-2.01c-2.52-1.08-5.27-2.32-7.38-3.91
				c-7.4-5.57-16.42-7.67-24.29-12.2c-9.88-5.68-19.84-11.36-30.07-16.29c-9.78-4.71-19.95-8.86-30.74-11.31
				c-5.48-1.24-11.04-2.33-16.47-3.8c-5.15-1.4-9.44-1.4-11.96,4.63c-0.73-2.9-0.76-2.92,1.04-5.28c2.15-2.83,2.26-4.96-0.91-7.51
				c-8.54-6.89-16.75-14.17-26.59-19.3c-7.83-4.09-16.88-3.71-24.83-7.33c-5.66-2.57-11.88-3.71-17.46-6.6
				c-1.7-0.88-3.83-2.11-5.59-0.5c-1.6,1.47,0.37,3.01,0.68,4.54c1.54,7.66,4.18,14.86,8.9,21.17c0.67,0.9,1.04,1.9,0.08,2.63
				c-1.16,0.88-1.7-0.26-2.26-1.07c-7.23-10.22-16.16-19.25-21.23-31.01c-1.82-4.23-4.48-8.15-7.07-12
				c-3.51-5.22-9.53-6.46-14.91-8.54c-3.48-1.35-6.74-2.8-9.15-5.77c-1.08-1.32-2.48-2.21-4.28-2.29
				c-10.36-0.44-20.71-0.88-31.07-1.34c-4.57-0.2-8.81,1.69-13.29,2c-1.6,0.11-3.95,0.64-4.23-1.37c-0.28-1.97,2.18-1.31,3.45-1.77
				c2.69-0.97,7.55-0.7,7.13-3.91c-0.44-3.3-5.06-1.71-7.79-1.67c-9.34,0.13-18.62,0.35-27.93-1.06c-4.74-0.72-9.69-0.26-13.97,2.55
				c-1.13,0.74-2.24,1.17-3.68,1.22c-13.73,0.48-26.92,3.05-38.92,10.2c-6.69,3.98-11.38,10.02-15.92,16
				c-4.8,6.31-9.31,13.03-12.72,20.16c-3.6,7.52-7.29,15.39-5.25,24.34c1.35,5.93,0.42,11.95,0.36,17.93
				c-0.02,2.14-0.55,4.33,1.07,6.21c1.44,1.66-0.16,2.63-0.93,3.84c-4.5,7.06-6.74,14.22-5.65,23.14
				c1.25,10.19,3.14,20.82-0.74,31.04c-0.52,1.36-1.44,2.6-2.36,3.76c-2.76,3.5-4.3,7.28-4.37,11.9
				c-0.26,16.49-2.96,32.79-4.26,49.2c-0.09,1.1-0.75,2.18-1.24,3.22c-1.69,3.6-2.95,7.36-0.07,10.79c3,3.56,6.75,0.51,9.11-0.59
				c10.94-5.09,22.26-5.79,33.98-5.04c6.19,0.4,12.39,0.38,18.68,1.71c-1.13,2.55-3.04,1.24-4.47,1.56
				c-1.19,0.27-2.37,0.61-2.3,2.11c0.06,1.18,1.01,1.76,2.07,1.76c8.08,0.06,15.77,2.21,23.52,4.12c0.72,0.18,1.64-0.13,2.39-0.42
				c1.88-0.73,3.77-1.22,4.24,1.47c0.38,2.18-0.71,4.82-2.9,4.3c-6.12-1.45-11.08,1.82-16.56,2.74c-7.59,1.27-15.6-0.01-23.49-0.21
				c0.26-2.34,1.4-2.34,2.33-2.33c6.48,0.04,12.96,0.12,19.44,0.24c1.45,0.03,3.01,0.89,4.26-0.38c0.67-0.68,0.37-1.61-0.29-2.22
				c-1.32-1.25-2.68-2.03-4.71-2.32c-5.86-0.84-11.58,1.17-17.37,0.45c-1.64-0.21-4.35,0.68-4.46-1.74
				c-0.08-1.75,2.6-1.52,4.09-2.08c0.87-0.33,2.03,0.13,2.55-0.83c-12.97-8.22-26.06-5.2-38.86,0.22c-2.26,0.96-4.05,3.22-6.97,3.37
				c-1.17,0.06-2.05,1.37-1.93,2.6c0.22,2.41,2.34,3.49,4,4.79c1.28,1.01,4.7,0.09,3.98,2.5c-0.75,2.54-3.35,0.66-5.18,0.29
				c-1.6-0.33-3.35-0.14-4.44-1.79c-1.21-1.82-2.84-1.22-4.47-0.67c-1.38,0.47-1.7,1.45-1.5,2.74c0.27,1.84,1.34,3.07,3.07,3.58
				c5.75,1.71,11.58,3.05,17.59,3.49c16.44,1.2,32.91,1.95,49.27,4.26c9.26,1.31,18.34,3.14,27.35,5.61
				c7.33,2.01,14.81,2.17,22.28,0.78c10.24-1.9,20.46-3.9,30.69-5.87c2.77-0.53,4.99-2.71,7.94-2.7L1080.48,654.62z M1117.97,321.96
				l0.14,0.14c0.2-1.51,0.52-2.93,1.93-3.88c1.26-0.85,1.82-2.33,1.09-3.51c-3.17-5.14-2.98-11.38-5.83-16.66
				c-3.99-7.37-8.84-13.88-15.58-18.99c-10.14-7.69-21.98-8.77-34.01-9c-9.13-0.18-17.25,2.41-25.21,7.44
				c-6.62,4.18-10.7,10.31-15.51,15.78c-4.13,4.7-7.01,10.72-7.96,17.29c-1.78,12.29,1.59,24.27,2.06,36.43
				c0.04,0.96,0.62,1.88,0.87,2.84c1.87,7.05,4.94,14.05,5.23,21.17c0.3,7.51,7.54,10.7,8.49,17.38c0.1,0.69,2.61,1.04,4,1.55
				c3.24,1.18,6.69-0.36,9.86,0.55c6.72,1.93,13.48,0.19,20.2,0.67c1.06,0.08,1.94-0.49,2.12-1.67c0.15-1.01-0.51-1.46-1.33-1.82
				c-0.86-0.37-2.04-0.22-2.68-2.08c6.05-1.42,6.07-7.62,8.5-11.88c2.46,0.42,1.85,4.44,4.17,3.25c3.35-1.72,4.63-5.75,7.63-8.18
				c1.45-1.17-1.4-1.61-2.03-2.59c-0.44-0.68-0.32-1.51,0.3-1.69c4.81-1.45,5.9-4.54,3.83-9.27c1.65,1.12,2.79,2.18,3.9,3.27
				c4.02,3.95,3.96,5.5-0.31,8.9c-4.79,3.81-4.41,3.41,0.11,7.78c3.83,3.72,4.95-0.76,6.8-1.72c3.01-1.56-0.31-2.09-1.11-3.06
				c-1.14-1.38-0.69-3.02,0.93-2.86c3.74,0.38,3.87-0.66,1.96-3.35c-0.31-0.43-0.34-1.67-0.1-1.8c3.29-1.79,2.49-7.8,7.89-7.53
				c1.04,0.05,2.39-1.22,3.18-2.22c2.76-3.5,5.66-6.79,8.98-9.82c4.48-4.09,3.43-8.68-1.93-10.74
				C1121.83,327.6,1121.62,324.08,1117.97,321.96z M1182.46,417.54c0-0.83,0.01-1.66,0-2.49c-0.05-2.41-0.21-5-3.23-5.33
				c-3.06-0.34-3.01,2.45-3.58,4.44c-1.78,6.19-0.41,12.55-0.87,18.81c-0.09,1.22,0.65,2.46,1.85,2.67
				c2.51,0.44,4.67,1.61,6.93,2.62c0.9,0.4,1.98,0.7,2.78-0.16c0.91-0.96-0.08-1.78-0.38-2.67
				C1184,429.63,1182.45,423.73,1182.46,417.54z M1086.75,396.55c5.78,0.58,7.7-3.93,10.28-7.49c0.8-1.1,0.06-2.29-1-2.05
				c-5.03,1.15-6.9-2.38-8.99-5.69c-0.57-0.91-1.33-1.54-2.47-1.08c-1.11,0.44-1.51,1.37-0.96,2.41c1.94,3.64-0.85,4.3-3.21,4.98
				c-2.91,0.83-3.78,3.16-1.49,5.31C1081.09,395.01,1084.04,395.82,1086.75,396.55z M1429.75,556.06c2.42,0.98,4.88,1.96,7.33,2.97
				c1.98,0.82,3.77,0.16,5.02-1.2c2.39-2.6-1.3-4.36-1.28-6.77c0.01-1.42-1.39-2.2-2.83-2.34c-0.43-0.04-1.21,0.17-1.3,0.44
				c-1.54,4.66-4.69,4.18-8.35,2.89c-1.49-0.53-2.99,0.19-3.68,1.81c-0.46,1.09-0.74,2.35,0.14,3.31c1.34,1.47,2.35-0.08,3.46-0.58
				C1428.72,556.38,1429.2,556.25,1429.75,556.06z M1103.31,378.13c0.99,2.37,4.39,2.15,2.94,4.61c-0.79,1.35-2.96,2.27-1.12,3.86
				c2.19,1.9,2.94-1.08,4.28-1.93c2.3-1.46,3.35-2.87-0.24-4.3c-1.19-0.47-1.79-2.25-2.87-3.2c-1.02-0.9-1.73-3.25-3.36-2.13
				c-1.47,1-3.41,2.18-3.56,4.38c-0.07,0.92,0.67,1.95,0.48,2.8c-0.27,1.19-1.85,2.7-0.2,3.4c1.91,0.8,1.84-1.83,2.87-2.72
				C1103.75,381.82,1102.67,380.41,1103.31,378.13z M1155.65,437.72c0.13-2.65-2.76-3.62-3.33-5.92c-0.21-0.86-1.14-1.32-1.98-0.82
				c-0.8,0.47-0.74,1.41-0.55,2.25c0.44,1.98,2.63,2.99,2.81,5.16c0.08,0.97,0.53,2.09,1.86,1.79
				C1155.69,439.89,1155.57,438.71,1155.65,437.72z M1431.19,566.98c1.44-0.08,3.2-0.11,3.09-1.83c-0.16-2.45-2.43-2.92-4.41-3.23
				c-1.58-0.25-2.69,0.78-2.66,2.28C1427.26,566.8,1429.68,566.37,1431.19,566.98z M1114.17,372.18c-3.31,0.16-5.34,0.26-7.53,0.37
				c0.5,2.04,0.97,4.24,2.86,4.4C1112.09,377.17,1112.12,374.24,1114.17,372.18z M1193.4,434.9c0.39,0.85-0.28,2.82,1.55,2.79
				c1.98-0.03,1.77-2,1.77-3.39c0-1.24,0.05-2.99-1.79-2.81C1193.22,431.65,1193.56,433.38,1193.4,434.9z M1114.37,359.41
				c1.5-0.22,2.4-1.06,2.41-2.59c0.01-1.52-0.78-2.6-2.35-2.54c-1.73,0.06-1.93,1.5-1.97,2.86
				C1112.43,358.43,1112.83,359.41,1114.37,359.41z M1423.25,547.59c1.56-0.01,1.91-1.14,2.16-2.3c0.3-1.4,0.18-2.83-1.44-3.23
				c-1.75-0.44-2.39,0.83-2.44,2.3C1421.49,545.71,1421.71,547.05,1423.25,547.59z"/>
			<path class="st0" d="M1080.59,654.68c3.48-3.17,8.12-5.2,10.03-10.37c-2.73-0.44-5.25-0.08-7.64,1.05
				c-8.65,4.08-18.25,4.84-27.24,7.71c-3.53,1.13-7.25,0.37-10.91,0.19c-7.15-0.35-14.31-0.42-21.46-0.63
				c-1.66-0.05-3.36-0.03-4.97-0.35c-1.85-0.37-4.93-0.23-4.67-2.65c0.3-2.85,3.15-1.31,4.95-1.24c10.82,0.44,21.68,1.74,32.43,1.14
				c8.24-0.46,16.71-1.45,24.64-4.46c0.62-0.23,1.36-0.41,1.32-1.25c-0.06-1.26-1.09-1.73-2.07-1.7c-8.51,0.2-16.74-2.18-25.31-2.2
				c-9.99-0.03-20.32,0.64-29.91-3.58c-0.74-0.32-1.6-0.59-1.53-1.8c1.86-1.17,4.06-0.41,5.71-0.02c9.86,2.33,19.97,1.55,29.92,2.48
				c11.56,1.08,23.1,2.82,34.74,3.1c5.29,0.13,15.98-7.9,17.47-13.68c0.66-2.55,1.88-4.44,3.27-6.52c2.39-3.59,3.88-7.53,4.8-11.9
				c1.08-5.11,3.56-9.92,5.39-14.87c2.5-6.77,2.49-14.13,4.33-20.92c2.43-8.96,1.29-18.58,5.61-27.06c0.94-1.84,1.13-3.41-1.22-4.5
				c-2.98-1.39-1.43-2.31,0.48-3c2.1-0.75,3.19-2.87,2.61-4.33c-2.53-6.32,2.75-9.7,4.97-14.16c0.75-1.51,1.99-2.61,1.06-4.45
				c-0.95-1.88-2.59-2.24-4.52-2.52c-13.75-2.05-26.58-5.88-34.42-18.76c-1.77-2.91-5.68-4.64-5.22-9.6
				c3.48,3.08,6.11,6.17,9.12,8.84c11.32,10.05,24.48,16.14,39.01,19.66c1.17,0.28,2.32,0.73,3.09-0.59
				c0.64-1.1-0.19-1.86-0.84-2.61c-1.63-1.88-2.94-4.27-4.95-5.55c-11.27-7.21-15.5-19.59-22.06-30.14
				c-3.86-6.21-6.82-13.07-10.45-19.5c-0.39-0.69-1.13-1.28-0.43-2.57c4.46,0.74,5.47,5.17,6.76,8.07
				c5,11.25,13.14,20.67,17.99,31.97c0.9,2.11,3.06,4.02,5.11,5.23c4.34,2.56,7.34,6.27,9.9,10.37c2.25,3.6,5.16,4.97,9.28,3.93
				c6.59-1.65,12.75-0.83,18.62,2.83c1.75,1.09,4.12,1.2,6.22,1.72c1.55,0.39,3.23,1.06,2.88,2.83c-0.42,2.18-2.29,1.24-3.69,0.93
				c-0.48-0.11-0.99-0.25-1.41-0.49c-6.03-3.47-11.44-1.49-16.01,2.55c-4.86,4.28-10.44,7.1-16.32,9.27
				c-3.53,1.3-6.09,3.92-9.44,5.38c-1.41,0.62-2.47,2.25-2.76,3.99c-1.4,8.47-3.22,16.91-4.05,25.44
				c-1.46,14.91-5.71,28.97-10.49,43.11c-4.37,12.94-10.38,24.25-20.79,33.15c-1.64,1.4-2.52,3.64-2.49,5.85
				c0.04,3.23-0.5,6.05-2.29,8.94c-2.16,3.48,0.07,6.45,3.22,7.63c8.51,3.17,13.39,10.38,18.66,16.79
				c7.34,8.94,16.02,16.4,24.42,24.14c10.13,9.34,21.85,16.83,31.86,26.36c0.36,0.34,0.82,0.65,1.03,1.07
				c7.18,14.42,21.37,21.95,32.22,32.75c7.14,7.11,15.42,13.04,21.69,21.05c0.64,0.82,1.37,1.56,0.73,2.6
				c-0.46,0.74-1.15,0.42-1.69-0.06c-5.61-5.01-11.14-10.12-16.85-15.02c-10.59-9.08-21.29-18.02-31.94-27.03
				c-0.88-0.75-1.97-1.42-2.49-2.39c-6.64-12.23-18.24-19.46-28.19-28.39c-8.36-7.5-17.56-14.12-24.85-22.78
				c-2.85-3.39-6.3-4.77-10.76-5.29c-10.69-1.24-21.2-3.6-31.18-7.86c-1.6-0.68-3.35-1.69-2.39-3.66c1.09-2.21,2.48-0.08,3.73,0.28
				c3.54,1,6.42,3.59,10.13,4.16c1.32,0.2,2.87,0.56,3.7-0.72c1.11-1.72-0.85-2.19-1.7-3.01c-2.51-2.42-4.88-5.02-8.23-6.36
				c-0.91-0.36-1.99-1.02-1.55-2.19c0.61-1.62,2.17-0.99,2.95-0.43c3.52,2.49,7.16,4.89,10.23,7.87c3.94,3.82,9.32,5.1,13.5,8.42
				c0.91,0.73,2.31,1.02,3.08-0.27c0.82-1.38,0-3.04-0.98-3.54c-5.15-2.61-7.66-8.33-12.61-10.84c-3.59-1.82-6.6-4.5-10.29-6.05
				c-2.91-1.23-3.26-2.98-1.32-5.4c1.35-1.68,2.53-3.51,3.92-5.15c0.73-0.86,2.19-1.54,1.13-2.8c-1.24-1.48-1.75,0.38-2.65,0.82
				c-2.82,1.36-4.82,4.9-8.75,3.48C1080.48,654.62,1080.59,654.68,1080.59,654.68z M1151.63,515.38c-4.14-0.86-5.97,3.46-9.37,4.41
				c-0.9,0.25-1.07,2.34-0.16,3.59c0.72,1,1.75,1.55,2.97,1.54c1.89-0.01,1.93-1.4,1.98-2.78c0.07-1.85,1.44-2.63,2.6-1.53
				c3.73,3.55,6.37-0.73,9.45-1.22c1.7-0.27,3.11-2.88,2.25-4.84c-1.05-2.42-3.25-1.56-5.14-0.68
				C1154.75,514.54,1153.56,515.97,1151.63,515.38z"/>
			<path class="st0" d="M798.77,1081.07c2.3-1.41,4.57-1.75,6.13-1.04c5.02,2.28,10.41,1.67,14.99,0.44
				c5.38-1.45,11.02-1.43,16.17-3.41c2.25-0.86,4.39-1.52,6.74-1.38c7.94,0.48,15.35-2.6,23.12-3.38c2.42-0.24,4.84-0.99,7.34-1.14
				c12.24-0.71,24.43-1.98,36.56-3.75c1.48-0.22,3-0.32,4.49-0.23c19.92,1.26,39.3-3.19,58.89-5.49c6.93-0.81,13.89-1.08,20.82-2.05
				c7.01-0.98,10.95,2.64,11.25,8.7c0.05,1,0.47,2.06-0.81,2.51c-1.12,0.4-1.87-0.35-2.55-1.11c-0.11-0.12-0.24-0.25-0.3-0.39
				c-2.99-7.38-8.17-6.51-14.75-5.19c-6.4,1.29-13.11,1.33-19.7,2.33c-13.74,2.09-27.63,4.1-41.49,4.35
				c-15.69,0.28-31.13,2.44-46.69,3.52c-9.16,0.63-18.05,2.05-26.92,4.08c-1.13,0.26-2.32,0.49-3.46,0.43
				c-9.75-0.51-18.99,2.44-28.43,4.06C813.15,1084.14,806.09,1084.55,798.77,1081.07z"/>
			<path class="st0" d="M958.87,823.78c0.26,3.58-2.99,5.33-4.9,6.84c-3.74,2.95-7.31,6.09-11,9.1
				c-9.29,7.59-18.41,15.47-28.29,22.21c-8.04,5.49-16.72,10.06-24.69,15.73c-1.15,0.82-2.81,0.98-4.27,1.25
				c-1.04,0.19-2.07-0.22-2.23-1.44c-0.12-0.91,0.53-1.66,1.37-1.85c8.96-1.97,14.39-9.89,22.48-13.32
				c9.86-4.18,16.22-13.02,24.95-18.68c9.31-6.04,16.81-14.51,26.72-19.71C959,823.91,958.87,823.78,958.87,823.78z"/>
			<path class="st0" d="M940.41,1048.49c-0.36,2.05-1.52,3.41-3.63,3.49c-7.76,0.3-15.47,1.92-23.05,2.9
				c-9.95,1.29-20.16-0.14-29.95,2.94c-3.96,1.24-8.44,1.12-13.12-0.16c1.37-2.69,3.55-2.13,5.31-2.13
				c4.58,0.01,8.88,0.42,13.53-1.74c4.66-2.16,10.5-1,15.75-1.14c6.32-0.17,12.75-0.6,18.78-1.6c5.46-0.91,11.03-1.35,16.47-2.49
				L940.41,1048.49z"/>
			<path class="st0" d="M942.88,637.1c6.67-2.82,13.7-0.9,20.54-1.47c0.92-0.08,2.15,0.4,1.93,1.72c-0.15,0.88-1.16,1.05-1.99,1.19
				c-2.5,0.44-5.2-0.42-8.36,1.09c3.79,3.03,8.35,1.35,11.65,3.73c-1.72,1.64-3.77,1.51-5.69,1.5c-4.83-0.04-9.47-1.44-14.55,0.05
				c-4.76,1.39-6.4-4.17-9.92-6.62c2.27-1.72,4.57-0.72,6.53-1.32c0.05,0.65-0.02,1.33,0.16,1.94c0.71,2.35,2.48,2.85,4.64,2.45
				c0.95-0.18,2.28-0.48,2.14-1.61c-0.28-2.34-2.56-2.14-4.17-2.61C944.89,636.88,943.86,637.1,942.88,637.1z"/>
			<path class="st0" d="M968.03,492.49c19.42-6.74,38.9-8.66,59.63-2.52c-3.1,1.84-3.16,2.01-4.97,1.3
				c-3.54-1.39-7.1-1.43-10.8-0.89c-2.12,0.31-4.46,0.6-6.45,0.04c-10.34-2.91-20.19-0.17-30.16,2
				C972.97,492.92,970.45,492.49,968.03,492.49z"/>
			<path class="st0" d="M922.39,867.15c0.93-4.57,4.3-6.58,6.83-8.15c7.75-4.82,11.94-13.06,18.97-18.48
				c2.69-2.07,5.06-4.6,7.34-7.14c0.88-0.98,1.61-1.97,2.73-1c1.21,1.05,0.13,2.08-0.7,2.89c-3.55,3.46-7.07,6.94-10.68,10.34
				C939.17,852.87,932.94,861.79,922.39,867.15z"/>
			<path class="st0" d="M1325.06,524.6c3.8,2.59,7.57,4.07,11.71,4.84c1.9,0.35,4.37,1.16,3.48,3.83c-0.88,2.63-2.88,0.84-4.59,0.62
				c-3.44-0.43-7.81-2.99-9.18,3.1c-0.2,0.9-1.32,1.22-2.04,0.62c-1.76-1.46-3.92-1.69-5.96-2.32c-1.41-0.44-1.58-1.61-1.01-2.83
				c0.53-1.12,1.32-2,2.73-1.47c1.65,0.62,3.04,3.48,5.03,0.93C1326.94,529.75,1327.23,527.2,1325.06,524.6z"/>
			<path class="st0" d="M1092.39,544.29c-7.26-0.18-13.55,0.86-19-2.99c-1.13-0.8-3.27-1.43-2.48-3.15
				c0.82-1.79,2.63-0.58,3.93-0.06c10.44,4.18,21.15,4.48,32.04,2.28c0.97-0.2,1.91-0.59,2.89-0.72c0.95-0.13,2.2-0.32,2.29,1.08
				c0.06,0.93-0.93,1.32-1.76,1.41C1103.93,542.84,1097.75,545.18,1092.39,544.29z"/>
			<path class="st0" d="M1205.83,817.89c2.35,6.38,2.18,6.35-4.08,10.19c-3.1,1.9-3.49,6.06-5.83,8.73
				c-0.67,0.76-1.18,1.83-2.32,1.33c-0.84-0.37-0.96-1.65-0.48-2.19c4.91-5.54,6.24-13.64,12.86-17.94
				C1205.97,818.01,1205.83,817.89,1205.83,817.89z"/>
			<path class="st0" d="M940.5,1048.56c9.04-2.09,18.06-4.43,27.49-2.61c-9.25,0.15-17.91,6.22-27.56,2.55
				C940.41,1048.49,940.5,1048.56,940.5,1048.56z"/>
			<path class="st0" d="M1059.56,478.69c-0.45,1.63-1.83,1.64-2.72,0.94c-4.81-3.78-9.5-7.72-14.2-11.65
				c-0.29-0.24-0.45-1.16-0.29-1.29c0.45-0.37,1.36-0.86,1.64-0.67c5.29,3.64,10.51,7.37,15.25,11.73
				C1059.46,477.93,1059.46,478.35,1059.56,478.69z"/>
			<path class="st0" d="M1005.29,1038.96c7.06-1.52,14.13-1.45,21.53,0.17C1022.51,1041.87,1012.75,1041.95,1005.29,1038.96z"/>
			<path class="st0" d="M1282.17,502.36c-1.63,2.33-3.35,2.21-4.62,2.03c-6.04-0.86-12.08-1.06-18.16-0.75
				c-0.91,0.05-1.73-0.31-1.89-1.22c-0.16-0.91,0.4-1.66,1.39-1.63C1266.5,501,1273.95,502.65,1282.17,502.36z"/>
			<path class="st0" d="M1101.06,555.68c-4.75,4.11-10.87,4.49-15.91,7.28c-1.12,0.62-3.28,1.03-3.62-1.02
				c-0.3-1.76,1.62-1.54,2.85-1.91c4.19-1.25,8.36-2.57,12.48-4.02C1098.23,555.52,1099.46,554.89,1101.06,555.68z"/>
			<path class="st0" d="M866.52,792.88c-0.56-2.94,1.64-4.67,2.93-6.54c1.2-1.75,2.81-3.11,3.01-5.45c0.1-1.14,0.72-2.55,2.15-2.1
				c1.88,0.58,1.48,2.36,1.17,3.79C875.28,784.88,869.33,791.48,866.52,792.88z"/>
			<path class="st0" d="M1314.34,533.28c-3.08,3.53-7.16,1.84-10.62,2.57c-0.96,0.2-1.56-1.05-1.61-2.12
				c-0.06-1.3,0.7-2.75,1.79-2.44C1307.25,532.22,1311.1,530.61,1314.34,533.28z"/>
			<path class="st0" d="M1078.82,564.14c-5.36,0.91-10.42,3.52-16.67,3.09C1067.99,563.22,1072.07,562.39,1078.82,564.14z"/>
			<path class="st0" d="M1000.86,1041.26c-4.72,2.46-9.4,1.83-14.06,0.21C991.52,1039.11,996.19,1040.13,1000.86,1041.26z"/>
			<path class="st0" d="M1286.21,522.19c-2.24,2.29-3.66,5.49-6.5,7.49c-0.57,0.4-1.41,0.12-1.66-0.53
				c-0.28-0.71-0.6-1.89-0.26-2.26c2-2.14,4.1-4.19,6.35-6.06C1285.03,520.08,1286,520.58,1286.21,522.19z"/>
			<path class="st0" d="M1033.53,584.25c-6.75,1.73-11.07,0.86-16.33-3.4C1022.33,582.69,1028.05,581.68,1033.53,584.25z"/>
			<path class="st0" d="M835.88,1063.71c-3,2.01-6.22,1.6-9.41,1.33c-0.81-0.07-1.7-0.45-1.51-1.51c0.17-0.93,1.02-1.3,1.87-1.27
				C829.85,1062.4,832.96,1062.04,835.88,1063.71z"/>
			<path class="st0" d="M971.11,1043.89c4.6-2.2,8.11-2.26,12.96-0.33C979.37,1045.7,975.85,1045.48,971.11,1043.89z"/>
			<path class="st0" d="M1199.62,481.59c0.31,4.35-0.34,8.39,2.65,11.56c0.61,0.64,0.58,1.95-0.59,2.51
				c-0.77,0.37-1.34-0.23-1.52-0.83C1198.92,490.68,1196.49,486.59,1199.62,481.59z"/>
			<path class="st0" d="M809.23,1066.04c4.46-2.14,8.01-1.76,11.85-0.53C817.77,1068.09,815.22,1068.26,809.23,1066.04z"/>
			<path class="st0" d="M1116.2,539.63c-0.71-0.31-1.32-0.39-1.53-0.72c-0.19-0.3-0.12-1.15,0.11-1.28c3-1.7,5.94-3.45,8.19-6.16
				c0.16-0.2,1.01-0.1,1.3,0.15c0.26,0.22,0.41,1.08,0.24,1.22C1121.76,535.15,1118.96,537.4,1116.2,539.63z"/>
			<path class="st0" d="M853.64,1059.03c3.95-0.98,7.89-1.44,11.83,0.17C861.56,1060.91,857.59,1060.03,853.64,1059.03z"/>
			<path class="st0" d="M1244.18,493.38c-1.37,0-2.02,0.13-2.59-0.02c-2.31-0.63-5.12,0.41-6.91-1.9c-0.47-0.61,0-1.44,0.69-1.5
				C1238.53,489.67,1241.42,490.23,1244.18,493.38z"/>
			<path class="st0" d="M841.31,1061.51c2.59-1.48,5.19-1.92,7.85-0.75c0.17,0.07,0.19,1.15,0,1.25
				C846.49,1063.47,843.93,1062.23,841.31,1061.51z"/>
			<path class="st0" d="M1211.14,826.69c1.23,0.29,2.82,0.85,2.38,1.96c-0.53,1.35-1.94,2.97-3.22,3.23
				c-1.23,0.25-2.65-1.74-2.52-3.01C1207.93,827.4,1210.03,827.44,1211.14,826.69z"/>
			<path class="st0" d="M987.95,565.74c-2.68,1.33-5.25,1.32-8.21-0.34C982.89,563.15,985.43,564.76,987.95,565.74z"/>
			<path class="st0" d="M1244.91,514.84c-1.25-0.06-2.35-0.31-2.03-1.95c0.2-0.99,0.72-2,1.84-1.92c1.48,0.1,2.33,1.32,2.39,2.64
				C1247.17,514.93,1245.84,514.74,1244.91,514.84z"/>
			<path class="st0" d="M964.1,479.18c2.2-2.26,4.46-2.1,7.46-0.23C968.68,480.46,966.42,480.1,964.1,479.18z"/>
			<path class="st0" d="M840.98,916.14c-0.08-1.27-0.92-0.27-1.59-0.17c-2.71,0.42-3.33-2.29-4.97-3.47
				c-0.53-0.38-0.47-1.2,0.06-1.77c1.27-1.39,7.51-0.35,8.46,1.29c1.54,2.67,3.24,5.25,4.82,7.89c0.45,0.75,0.48,1.71-0.21,2.3
				c-0.93,0.79-1.45-0.06-1.87-0.78c-0.43-0.72-0.97-1.8-1.78-1.46C838.76,922.22,839.59,919.62,840.98,916.14z"/>
			<path class="st0" d="M807.94,888.65c4.14,0.03,8.27-3,12.12,0.2c1.44,1.2,1.75-3.12,3.39-1.1c1.07,1.32,0.71,3.23-0.13,4.74
				c-0.77,1.38-2.27,1.02-3.05,0.31c-3.28-2.99-6.97-4.11-11.32-3.26C808.68,889.6,808.28,888.96,807.94,888.65z"/>
			<path class="st0" d="M852.4,903.75c-0.01,1.16-0.25,1.82-1.4,1.74c-1.46-0.1-6.72-4.68-6.44-5.76c0.31-1.18,1.39-1.41,2.37-1.31
				C850.25,898.76,851.64,901.09,852.4,903.75z"/>
			<path class="st0" d="M861.82,908.21c-2.88-2.31-3-6.12-4.99-8.91c2.92,2.32,6.5,4.3,4.89,9.01
				C861.71,908.33,861.82,908.21,861.82,908.21z"/>
			<path class="st0" d="M1112.58,344.04c-2.07,0.31-6.15-3.55-4,2.58c0.8,2.28-3.89,0.75-4.7,3.09c-1.57-0.86-3.63-0.7-4.83-2.26
				c-0.19-0.24,0.01-1.19,0.21-1.26c3.23-1.12,4.18-4.62,6.68-6.39C1110.86,336.3,1111.32,340.57,1112.58,344.04z"/>
			<path class="st0" d="M1097.27,331.03c-0.34,0.38-0.61,0.82-0.99,1.06c-2.63,1.69-5.23,3.36-7.35,5.77
				c-1.14,1.29-2.83,0.9-3.95-0.35c-0.9-0.99-0.75-2.42,0.23-3.14c2.65-1.95,5.36-3.9,8.27-5.38
				C1094.96,328.23,1096.72,328.87,1097.27,331.03z"/>
			<path class="st0" d="M1116.75,314.62c0.04,2.57-5.58,9.61-7.15,9.55c-1.52-0.06-2.79-1.26-1.93-2.61
				c1.65-2.57,3.67-4.95,5.85-7.09C1114.42,313.59,1116.22,313.31,1116.75,314.62z"/>
			<path class="st0" d="M1080.95,355.55c-4.58,0.26-2.36,5.91-6.24,5.92c-1.58,0-3.73-2.09-3.08-3.25c1.22-2.19,3.49-3.85,5.57-5.41
				C1077.48,352.59,1079.14,354.19,1080.95,355.55z"/>
			<path class="st0" d="M1117.97,321.96c0.68,4.89-4.35,6.65-5.83,10.41c-0.31,0.77-2.27,0.63-2.48-1.07
				c-0.26-2.08,5.87-8.68,8.44-9.2C1118.1,322.1,1117.97,321.96,1117.97,321.96z"/>
			<path class="st0" d="M1098.62,360.69c-2.09-1.87-4.21-2.68-4.55-5.08c-0.21-1.51,1.07-1.92,2.18-2.23
				c1.7-0.48,3.78-1.84,5.11-0.3c1.46,1.69-1.59,2-1.86,3.38C1099.28,357.56,1099.05,358.66,1098.62,360.69z"/>
		</g>
	</g>
</g>
</svg>
