<?xml version="1.0" encoding="utf-8"?>
<!-- Generator: Adobe Illustrator 28.0.0, SVG Export Plug-In . SVG Version: 6.00 Build 0)  -->
<svg version="1.1" id="Layer_1" xmlns="http://www.w3.org/2000/svg" xmlns:xlink="http://www.w3.org/1999/xlink" x="0px" y="0px"
	 viewBox="0 0 1920 1080" style="enable-background:new 0 0 1920 1080;" xml:space="preserve">
<style type="text/css">
	.st0{fill:none;stroke:#231F20;}
</style>
<g>
	<g>
		<g>
			<path d="M1193.71,719.51c-8.58-3.35-16.55-7.67-25.77-8.21c-3.92-0.23-7.7-2.13-10.55-5.21c-1.29-1.4-2.75-2.39-4.76-2.35
				c-5.2,0.1-7.91-3.72-10.9-7.05c-0.7-0.78-1.07-1.79-0.3-2.72c0.96-1.15,2.14-0.71,3.14-0.04c0.96,0.65,1.77,1.51,2.69,2.23
				c11.35,8.92,24.78,12.73,38.56,15.67c2.16,0.46,3.68-0.41,2.53-2.57c-1.4-2.62-3.62-5.67-6.88-4.81
				c-3.89,1.02-6.24-1.25-9.27-2.37c-14.19-5.28-27-13.42-40.78-19.52c-2.59-1.14-6.65-2.99-5.23-5.39
				c1.74-2.96,4.83,0.66,7.12,1.78c12.54,6.12,24.57,13.28,37.45,18.72c1.69,0.71,4.02,2.23,5.46,0.08
				c1.36-2.04-0.74-3.56-1.97-5.12c-4.11-5.21-8.69-10.28-13.41-14.6c-3.91-3.59-7.38-7.18-10.87-11.19
				c-5.25-6.03-12.62-10.04-18.28-15.97c-1.99-2.08-6.1-2.16-9.26-3.1c-4.02-1.2-7.39-3.39-10.55-6.39
				c2.58-1.72,4.39-0.23,6.33,0.54c1.19,0.47,2.84,1.48,3.68,0.22c1.12-1.69-1.06-1.99-1.94-2.76c-6.67-5.83-14.42-9.99-22.13-14.23
				c-2.11-1.16-4.55-1.92-6.02-4.18c1.83-1.73,3.29-0.62,4.67,0.12c14.5,7.79,28.87,15.82,41.59,26.37c3.02,2.5,5.14,6.08,7.74,9.1
				c0.97,1.13,2.23,2.62,3.74,1.87c1.99-0.99,0.14-2.58-0.04-3.91c-0.57-4.03-4.78-6.35-5.1-10.63c2.04,0.08,3.09,1.36,3.96,2.77
				c2.68,4.34,4.82,8.99,10.56,10.56c2.08,0.57,2.29,4.01,1.9,5.81c-1.7,7.96,3.6,12.38,8.14,17.09
				c4.64,4.81,8.72,10.04,12.92,15.21c5.75,7.06,11.73,13.92,19.62,18.91c6.45,4.08,12.45,8.88,19.33,12.31
				c4.65,2.32,6.76,7.23,10.44,10.61c4.93,4.53,10.14,8.64,15.73,12.27c10.36,6.73,19.18,15.35,28.83,22.92
				c6.61,5.19,10.41,10.6,10.54,18.99c0.07,4.33,4.01,6.83,6.87,9.43c3.73,3.38,5.73,7.71,8.11,11.88c0.96,1.69,0.74,3.46,0.29,5.32
				c-5.12,20.8-8.68,41.81-10.73,63.19c-1.12,11.61-3.82,23.27-7.72,34.45c-3,8.6-3.2,17.58-4.07,26.52
				c-0.8,8.23-2.56,16.39-4.35,24.49c-2.22,10.05-5.74,19.95-4.73,30.38c1.26,13.06,9.96,29.54,27.19,30.07
				c8.76,0.27,17.15-1.48,25.62-2.61c8.12-1.08,19.57,6.56,20.13,14.7c0.14,2.06-0.47,3.29-2.15,4.58
				c-11.73,9.04-24.88,15.37-38.91,19.71c-9.56,2.96-19.66,3.24-29.58,4.26c-7.42,0.77-14.87,1.81-22.34,0.22
				c-0.63-0.13-1.49-0.23-1.96,0.08c-7.94,5.28-17.28,2.09-25.79,4.27c-7.04,1.8-10.56-2.88-7.83-9.56
				c4.86-11.88,7.81-24.16,9.66-36.88c1.68-11.6,3.95-23.19,3.5-34.88c-0.71-18.35-2.91-36.51-8.27-54.31
				c-2.58-8.57-5.44-17.29-6.11-26.41c-0.16-2.23,0.62-3.14,2.85-2.75c4.07,0.7,4.2,5.36,7.16,7.18c0.03,0.02-0.32,0.81-0.59,1.16
				c-2.86,3.64-1.83,8,2.55,9.51c1.96,0.68,3.06,1.65,3.8,3.5c0.89,2.23,2.88,2.66,5,2.29c2.72-0.48,3.42-1.86,1.52-4.12
				c-0.32-0.38-0.75-0.7-0.98-1.13c-1.08-2.03-5.74-1.41-4.52-4.26c1.12-2.62,3.74-4.99,6.69-6.39c0.97-0.46,2.69-0.23,2.53-1.84
				c-0.16-1.53-1.64-1.96-2.98-2.24c-1.29-0.27-2.52-0.37-3.4-1.71c-4.08-6.23-4.79-6.29-10.16-0.73c0.69-3.47,1.18-6.15-1.64-8.64
				c-2.3-2.03-3.27-1.58-4.61,0.47c-0.67,1.02-0.66,2.94-2.54,2.45c-1.48-0.38-1.75-1.95-1.97-3.23
				c-0.98-5.57-2.14-11.16,0.03-16.74c0.24-0.62,0.51-1.3,0.48-1.93c-0.11-1.88,1.78-4.37-0.36-5.51c-2.26-1.2-3.15,1.78-4.62,2.92
				c-0.76,0.59-1.23,1.55-1.82,2.35c-2.84,3.89-5.12,4.06-8.49,0.68c-4.59-4.59-7.57-10.46-12.27-15.03
				c-10.23-9.95-19.6-20.75-30.07-30.48c-6.91-6.42-11.39-15.06-19.13-20.8c-12.86-9.53-27.38-15.52-42.31-20.87
				c-5.15-1.85-8.13-2.54-13.73,1.5c-12.96,9.36-23.52,20.4-32.66,33.25c-5.97,8.39-10.94,17.94-19.07,24.26
				c-17.59,13.69-31.9,30.97-50.12,44.04c-10.59,7.6-20.94,15.8-30.81,24.53c-4.23,3.74-9.33,7.23-14.93,9.54
				c-7.74,3.19-14.33,8.36-21,13.34c-6.65,4.95-13.28,9.71-18.77,16.22c-6.14,7.29-10.13,6.09-13.96-2.82
				c-2.77-6.44-2.76-6.34-7.63-1.27c-6.98,7.28-15.83,12.19-24.25,17.38c-17.14,10.54-34.8,20.23-52.38,30.03
				c-5.17,2.88-11.12,4.46-14.41,10.04c-0.32,0.55-1.47,0.75-2.26,0.85c-9.9,1.26-16.77,8.26-24.95,12.82
				c-5.12,2.85-8.19,7.05-11.37,11.43c-4.39,6.04-2.76,11.11,4.27,13.36c1.91,0.61,3.48,1.29,3.63,3.5c0.16,2.33-0.71,4.21-2.75,5.5
				c-1.83,1.15-3.74,2.22-5.38,3.6c-1.69,1.42-3.82,1.79-5.75,2.85c4.38,1.29,8.58,1.29,12.83-0.25c1.43-0.52,3.68-1.69,4.36,0.42
				c0.74,2.32-1.75,2.18-3.27,2.61c-4.54,1.29-4.98,2.57-1.96,5.85c1.04,1.13,2.22,2.14,1.68,3.86c-0.6,1.9-2.32,2.38-3.97,2.52
				c-4.64,0.4-9.3,0.65-13.95,0.9c-2.33,0.12-4.72-0.19-6.98,0.22c-2.06,0.37-5.67-0.54-5.6,2.45c0.06,2.15,3.07,3.76,5.63,4.19
				c3.2,0.54,6.35-0.26,9.32-1.31c4.8-1.7,9.83-1.71,14.75-2.48c1.58-0.25,3.34-0.34,5.23,1.7c-5.68,1.18-10.4,3.96-15.87,4.57
				c-1.47,0.16-2.94,0.56-4.36,1.01c-0.92,0.3-2.08,0.78-1.92,1.97c0.16,1.18,1.38,1.34,2.37,1.35c3.46,0.05,6.92,0.02,10.39,0.52
				c-14.49,1.11-29.01,0.92-44.06,2.23c0.88-2.9,5.38-4.2,2.08-6.79c-3.06-2.39-8.17-4.72-10.46-1.95
				c-4.16,5.03-9.63,3.6-14.35,4.91c-7.87,2.18-16.19,1.74-24.34,1.34c-7.69-0.37-9.18-3.24-6.79-10.43
				c1.53-4.6,3.96-8.27,7.3-11.68c3.67-3.74,5.56-8.67,7.43-13.48c1.05-2.71,2.48-5.1,4.72-6.93
				c15.18-12.41,28.75-26.53,42.94-40.01c7.05-6.7,12.94-14.25,19.49-21.29c9.53-10.26,16.89-22.11,25.07-33.37
				c9.15-12.6,18.78-24.69,30.13-35.63c11.06-10.65,23.35-19.1,36.2-27.09c3.23-2.01,7.21-2.53,9.94-5.57
				c2.37-2.65,2.74-4.52-0.38-6.94c-4.36-3.38-4.06-5.66,0.78-8.58c2.77-1.67,4.84-4.05,7.1-6.26
				c13.03-12.69,23.8-27.23,34.72-41.69c8.76-11.6,15.05-24.71,23.08-36.73c3.85-5.77,8.8-10.83,11.21-17.5
				c5.16-14.27,14.01-26.33,22.85-38.41c5.6-7.66,8.85-16.37,11.14-25.47c3.89-15.49,7.67-31,11.57-46.48
				c1.65-6.56,7.02-10.79,10.6-16.13c5.78-8.63,13.74-15.77,17.52-25.78c0.22-0.6,0.69-1.18,1.19-1.58
				c4.04-3.26,5.75-6.04-0.76-8.59c-2.37-0.93-1.86-3.62-1.33-5.8c1.08-4.44,3.4-8.38,5.86-12.06c4.35-6.52,4.86-13.42,2.89-20.55
				c-0.92-3.33-0.5-5.61,1.81-8.1c7.91-8.56,11.03-19.22,13.82-30.3c3.05-12.05,5.35-24.33,9.81-36.04
				c4.4-11.54,4.56-24.29,9.15-35.74c5.55-13.85,11.16-27.75,19.53-40.25c2.92-4.36,7.29-7.27,11.54-10.18
				c2.35-1.61,4.72-3.15,6.41-5.49c6.02-8.36,13.99-14.92,22.28-20.47c6.08-4.07,12.65-7.82,18.66-12.01
				c11.48-8.02,24.9-15.14,24.9-32.25c0-1.49,0.35-3.18-0.21-4.44c-3.88-8.72-4.72-18.31-8-27.19c-2.18-5.88-2.28-11.54-0.51-17.95
				c5.09-18.42,16.13-32.51,30.41-44.28c9.23-7.6,20.72-8.53,32.18-7.73c9.43,0.66,17.86,5.31,26.34,8.81
				c5.61,2.32,9.88,8.16,14.4,12.77c6.07,6.19,12.1,12.64,14.16,21.38c2.47,10.5,4,21.18,1.72,31.95c-0.59,2.76-0.8,5.17,0.76,7.64
				c4.3,6.8,5.08,13.93,1.77,21.39c-5.01,11.29-6.66,23.64-11.19,35.11c-2.82,7.15-12.99,13.85-20.52,12.41
				c-2.22-0.42-3.78,0.11-5.5,1.39c-1.99,1.48-4.18,2.73-6.41,3.81c-2.84,1.38-5.49,1.49-7.05-2.03c-0.46-1.03-1.18-2.41-2.56-1.55
				c-1.18,0.73-0.94,2.38-0.03,3.07c4.69,3.58,6.65,10.76,14.12,10.75c0.88,0,1.93,0.7,2.6,1.38c6,5.99,13.57,9.59,21.55,10.83
				c11.04,1.73,21.19,8.09,32.86,6.19c1.96-0.32,4.05-0.26,5.89-0.92c21.38-7.66,43.57-6.86,65.72-6.41
				c14.44,0.3,28.88,1.04,43.27-1.09c8.27-1.23,10.26-3.62,9.58-11.77c-0.14-1.63-0.2-3.43,0.34-4.92c3.7-10.2,3.9-20.84,3.94-31.45
				c0.02-6.23,1.24-11.79,5.11-16.82c4.14-5.39,7.42-11.41,12.15-16.4c1.61-1.7,3.19-3.41,5.12-4.69c2.13-1.42,4.47-1.25,6.61,0.13
				c2.16,1.39,2.35,3.45,1.72,5.74c-1.02,3.65-1.33,7.42-3.35,10.88c-1.93,3.31-1.75,6.82,2.43,8.82c1.44,0.69,2.5,1.66,2.7,3.33
				c1.41,11.4,2.96,22.81-0.56,34.12c-1.09,3.51-0.54,6.97,0.2,10.37c2.84,13.07-0.36,24.91-6.64,36.35
				c-2.94,5.36-7.16,7.2-12.81,6.34c-4.75-0.72-9.2,0.17-13.78,1.32c-7.62,1.91-15.49,2.92-23.06,5
				c-6.71,1.85-13.07,4.96-19.75,6.94c-12.28,3.62-24.48,7.44-36.62,11.47c-2.85,0.95-6.47,1.65-5.48-3.75
				c0.2-1.1-0.47-1.89-1.47-2.35c-1.19-0.54-2.8-0.88-1.66-2.75c0.95-1.55,2.74-2.92,4.12-1.73c4.22,3.63,9.42-2.02,13.42,1.77
				c4.68-6.18,12.27-3.31,18.1-5.86c1.55-0.68,3.02-1.28,4.69-1.53c2.7-0.4,6.54-0.16,2.94-4.65c-0.26-0.32-0.03-1.33,0.3-1.77
				c0.58-0.76,1.64-0.7,2.26-0.18c4.32,3.59,7.4,1.5,11.41-1.22c2.71-1.84,7.01-2.89,10.84-1.08c1.43,0.67,3.17,1.28,3.89-0.55
				c1.3-3.31,3.39-2.52,6.05-2.12c3.79,0.57,7.56,1.21,10.54-3.17c1.68-2.46,5.84-1.93,8.9-1.05c2.67,0.77,5.28,0.57,7.92,0.42
				c0.94-0.05,2.22-0.26,2.73-0.9c6.65-8.2,12.57-16.83,10.3-28.16c-1.64-8.17-1.83-16.09,0.59-24.17
				c1.54-5.14,1.68-10.54-0.19-15.76c-0.49-1.37-0.83-3.3-2.67-3.16c-1.92,0.14-2.64,1.98-2.78,3.68c-0.16,1.97-0.1,3.98,0.12,5.95
				c0.37,3.38,0.19,6.66-1.23,9.78c-0.51,1.13-1.47,1.9-2.79,1.64c-1.42-0.28-1.94-1.49-1.56-2.67c3.05-9.7,1.37-19.73,2.15-29.59
				c0.34-4.22,1.23-8.22,3.8-11.72c0.57-0.77,0.9-1.8,1.09-2.76c0.35-1.73,1.57-4.11-0.39-5.02c-2.51-1.17-2.5,1.92-3.42,3.22
				c-3.04,4.34-5.96,8.64-7.81,13.81c-2.27,6.32-0.83,12.68-1.76,18.95c-1.05,7.04-1.01,13.99-3.19,21.17
				c-2.22,7.34-7.98,13.96-6.39,22.55c0.57,3.05-1.67,5.16-4.92,4.84c-5.5-0.54-10.95,1.08-16.45,0.08
				c-2.34-0.42-4.55,0.54-6.74,1.47c-5.29,2.24-10.29,3.76-15.9-0.24c-3.15-2.25-7.79-0.81-11.75-0.87
				c-16.98-0.25-33.94,0.38-50.86,1.89c-2.51,0.22-4.93,0.63-7.3,1.52c-6.88,2.58-13.93,4.52-21.22,5.6
				c-6.51,0.97-7.61,2.94-5.13,8.83c0.25,0.6,0.77,1.47,0.54,1.84c-5,8.18,3.43,10.22,6.95,13.7c3.66,3.61,8.21,6.78,13.22,8.8
				c1.83,0.74,3.09,1.84,3.39,3.92c0.21,1.53,0.69,3.02,2.58,3.2c1.79,0.17,3.26-0.45,4.23-2.07c2.34-3.91,4.79-6.63,8.84-1.55
				c0.95,1.2,2.84,0.76,4.31,0.43c2.63-0.6,4.43,0.32,4.69,2.98c0.28,2.89-1.89,3.53-4.25,3.71c-2.98,0.22-5.95,0.5-8.93,0.68
				c-1.71,0.1-2.83,0.89-3.35,2.49c-0.52,1.62-0.04,2.93,1.35,3.93c1.48,1.06,2.79,2.56,4.44,3.19
				c15.34,5.84,29.04,14.78,42.83,23.36c14.38,8.94,28.68,18.02,43.2,26.74c2.83,1.7,3.92,4.99,7.29,6.51
				c9.18,4.14,18.74,4.83,28.37,3.84c8.81-0.9,14.53,2.71,17.99,10.19c2.34,5.05,5.6,9.43,8.65,13.97
				c2.35,3.49,2.48,13.87,0.1,17.07c-1.92,2.58-5.5,1.87-7.64-1.86c-1.73-3.02-3.14-6.19-5.31-8.99c-1.48-1.92-3.3-3.58-5.35-2.31
				c-2.36,1.46-0.2,3.44,0.56,5.18c1.33,3.02,2.9,5.89,3.53,9.27c0.81,4.36,4.7,6.7,7.8,9.41c3.63,3.17,7.44,6.14,11.24,9.11
				c4.53,3.55,5.36,8.62,5.75,13.84c0.12,1.53-0.55,2.97-2.14,3.65c-1.83,0.77-3.19-0.09-4.46-1.32c-1.04-1-2.26-2.88-3.64-1.65
				c-1.7,1.51,0.17,2.99,1.25,4.12c3.05,3.17,3.31,6.7,0.55,9.84c-2.95,3.35-5.89,1-8.84-0.78c-6.79-4.11-14.11-6.56-22.17-6.48
				c-8.05,0.09-10.74-2.43-13.27-9.86c-3.23-9.48-7.27-18.69-12.86-27.09c-1.68-2.53-2.51-5.26-3.37-8.18
				c-1.83-6.24-4.76-12.32-11.73-14.19c-9.7-2.6-18.31-8.04-27.9-10.61c-12.67-3.4-25.08-7.9-38.1-9.84
				c-18.92-2.82-36.57-8.17-49.95-22.97c-0.87-0.96-2.04-1.74-3.21-2.33c-3.32-1.7-6.3-3.23-0.21-5.32c1.15-0.4,1.56-1.7,1.73-2.88
				c1.07-7.32,5.28-12.85,10.41-17.71c3.87-3.67,6.61-8.4,10.96-11.59c1.18-0.86,2.48-2.48,3.89-1.36c1.77,1.41-0.31,2.54-0.97,3.72
				c-2.77,5.04-6.9,8.91-11.07,12.71c-3.52,3.22-5.99,7.2-8.01,11.36c-3.13,6.44-2.47,8.61,3,13.42
				c8.27,7.27,17.85,12.97,28.41,14.89c6.37,1.16,12.43,4.21,19.49,3.44c7.29-0.8,14.12,3.33,21.2,5.13
				c1.29,0.33,2.53,0.91,3.83,1.1c1.95,0.28,3.99-0.12,4.36-2.31c0.4-2.36-1.9-2.25-3.42-2.71c-1.86-0.57-4.05-0.05-5.84-1.97
				c2.18-2.42,4.91-2.53,7.53-1.6c6.49,2.3,12.81,5.17,19.95,4.7c0.75-0.05,1.19,0.22,1.43,1c1.87,5.91,6.64,6.14,11.5,5.44
				c3.15-0.45,5.43,1.23,8.04,2.17c0.96,0.34,1.96,0.91,1.56,2.14c-0.38,1.16-1.62,1.31-2.53,1c-8.21-2.8-17.27-2.27-25.15-6.43
				c-2.23-1.18-4.68-1.78-7.25-1.52c-1,0.1-2.14,0.26-2.42,1.38c-0.29,1.19,0.65,1.82,1.64,2.12c8.13,2.49,15.57,6.71,23.5,9.6
				c4.13,1.51,8.83,1.5,13.21-0.37c1.83-0.78,3.76-1.39,5.7-1.8c1.86-0.39,3.82-0.14,4.75,1.83c0.99,2.12-0.82,2.92-2.23,3.79
				c-2.32,1.44-1.99,2.47,0.49,3.09c2.89,0.73,4.91,2.69,3.49,5.36c-1.73,3.25,0.01,4.58,1.98,6.13c2.32,1.83,4.93,2.72,7.84,1.49
				c2.58-1.09,6.62,1.48,6.59,4.29c-0.01,0.95-0.62,1.97-1.44,1.35c-4.65-3.5-9.18,2.63-13.98-0.02c-1.55-0.86-2.4,1.46-2.07,3.02
				c0.57,2.71,2.8,3.33,5.02,2.71c1.89-0.53,3.62-1.76,5.71-1.36c2.69,0.52,5.65,1.07,2.15,4.51c-0.88,0.87-1.29,2.24-0.04,2.1
				c6.14-0.67,5.77,4.31,7.18,7.78c0.34,0,0.71,0.11,0.97-0.02c2.38-1.14,3.04-5.46,5.98-4.67c5.85,1.58,12.12,2.45,16.93,6.75
				c1.61,1.44,3.14,2.99,4.76,4.42c1.04,0.91,2.35,1.6,3.6,0.6c1.4-1.12,0.46-2.51-0.18-3.6c-2.87-4.94-7.8-8-12.33-10.62
				c-5.13-2.96-6.98-7.49-8.76-12.06c-2.45-6.29-3.8-12.99-5.65-19.51c-0.47-1.66,0.29-2.55,1.74-3.03
				c1.65-0.54,3.41-2.07,4.96-0.01c1.69,2.25,4.21,3.84,5.15,6.68c0.31,0.93,0.83,1.82,1.4,2.63c1.72,2.45,3.7,5.87,6.98,3.35
				c2.89-2.22,1.32-5.48-0.91-7.87c-3.78-4.08-6.23-9.02-9.11-13.69c-2.63-4.26-6.26-6.74-11.52-6.52
				c-7.97,0.32-15.91-0.76-23.91-0.37c-4.25,0.2-7.95-2.41-11.12-5.15c-11.39-9.87-24.31-17.26-37.31-24.77
				c-9.72-5.62-18.56-12.86-28.53-18.24c-8.57-4.63-16.38-10.96-26.59-11.99c-2.62-0.26-4.17-1.84-4.78-4.4
				c-0.76-3.2-2.62-5.64-5.06-7.82c-3.7-3.31-7.23-6.68-10.14-10.89c-4.31-6.23-16.56-6.56-23.2-1.27c-3,2.39-5.81,4.98-7.76,8.39
				c-0.8,1.41-1.68,2.91-3.73,3.29c-0.1-0.45-0.42-1.07-0.25-1.26c5.44-6.25,9.26-14.4,18.7-15.99c1.3-0.22,2.79-0.47,3.17-2.02
				c0.37-1.54-0.88-2.45-1.84-3.3c-4.42-3.91-9.98-3.24-15.18-3.22c-4.43,0.02-8.86,1.13-10.4-4.83c-0.15-0.59-1.19-1.21-1.9-1.35
				c-10.42-2.05-19.2-8.04-28.84-11.95c-0.92-0.37-1.81-0.88-2.6-1.48c-1.42-1.07-3.63-2.25-2.18-4.28
				c1.31-1.82,2.86,0.02,4.29,0.77c12.49,6.61,25.12,12.9,38.66,17.13c1.48,0.46,3.51,1.64,4.61-0.07c1.16-1.81-0.82-3.1-2.01-4.05
				c-10.26-8.18-19.16-17.86-29.15-26.33c-6.88-5.83-15.77-7.48-23.72-11.04c-9.78-4.37-20.61-6.03-30.46-10.4
				c-2.51-1.11-5.21-1.01-7.82-1.49c-1.1-0.2-2.57-0.14-2.46-1.8c0.09-1.43,1.4-1.85,2.54-1.97c3.39-0.36,6.64,0.38,9.72,1.76
				c5.32,2.4,10.66,4.74,16.58,5.16c2.54,0.18,4.04,2.2,6.06,3.29c2.04,1.11,4.6,2.7,6.14,0.01c1.39-2.44-0.74-4.14-2.8-5.57
				c-14.97-10.32-32.06-14.36-49.47-18.56c-10.88-2.63-18.56,0.33-26.48,6.02c-12.23,8.8-25.99,15.57-35.59,27.84
				c-2.59,3.32-6.27,6.04-9.95,8.21c-8.47,4.99-11.71,13.77-16.38,21.49c-6.3,10.42-10.99,21.63-13.76,33.46
				c-2.12,9.05-3.43,18.29-6.39,27.15c-4.89,14.65-8.1,29.74-11.64,44.75c-0.79,3.38-1.6,6.79-2.55,10.1
				c-2.73,9.41-0.62,16.52,8.24,21.24c0.72,0.38,1.31,1.02,1.89,1.61c0.19,0.2,0.17,0.6,0.24,0.91c-4.98,0.42-12.1-4.27-14.2-9.39
				c-0.66-1.63-0.48-4.08-2.87-4.15c-2.61-0.08-3.29,2.58-4.29,4.32c-0.68,1.17-0.9,3.07-0.45,4.34
				c3.56,10.11-0.15,18.59-5.71,26.68c-2.46,3.59-1.84,6.46,1.45,9.1c1.81,1.45,3.63,1.26,5.65,0.68
				c5.43-1.57,10.97-2.77,16.12-5.27c2.07-1,4.43-1.44,6.68-2.02c0.91-0.23,2.15-0.51,2.46,0.87c0.29,1.28-0.25,2.44-1.65,2.6
				c-6.93,0.8-12.42,5.57-19.19,6.82c-2.52,0.47-4.6,1.92-6.44,3.65c-1.14,1.07-2.1,2.35-1.11,3.94c0.83,1.34,2.42,1.43,3.59,0.84
				c10.59-5.31,22.28-2.93,33.34-4.9c3.74-0.67,6.94,0.38,9.3,3.49c0.56,0.74,1.79,1.32,1.06,2.48c-0.6,0.95-1.76,0.9-2.73,0.77
				c-10.22-1.35-20.52-0.14-30.7,0.01c-9.37,0.13-19.26,2.14-25.5,11.7c-5.15,7.89-11.75,14.82-17.51,22.34
				c-5.93,7.74-6.2,17.45-8.54,26.4c-3.9,14.95-6.94,30.16-12.89,44.47c-1.84,4.42-2.22,9.09-3.06,13.51
				c-1.93,10.17-8.96,18.14-10.84,28.19c-0.86,4.56-2.27,9.03-3.53,13.5c-0.43,1.52-0.77,3.76-3.03,3.13
				c-2.02-0.56-1.93-2.75-1.35-4.27c3.23-8.39,3.81-17.58,8.01-25.68c1.01-1.95,2.95-5.08,0.8-6.29c-2.64-1.48-3.61,2.28-4.63,4.03
				c-3.25,5.57-6.54,11.13-8.58,17.37c-4.14,12.7-12.6,23.01-19.88,33.9c-5.56,8.31-9.27,17.84-15.83,25.36
				c-8.34,9.55-14.43,20.79-23.22,29.95c-1.04,1.09-2.19,2.43-0.81,3.89c1.19,1.26,2.38,0.05,3.57-0.49
				c11.64-5.3,23.42-10.32,33.54-18.41c0.85-0.68,2.09-1.67,3.09-0.48c1.12,1.32,0.03,2.58-0.92,3.45
				c-3.45,3.15-6.94,6.34-11.17,8.36c-10.64,5.1-20.99,10.9-32.39,14.3c-5.71,1.71-9.68,6.32-14.78,9.09
				c-1.64,0.89-1.17,3.26,0.68,4.07c10.06,4.36,15.27,13.98,22.95,20.89c7.21,6.5,9.96,15.48,12.73,24.27
				c3.11,9.9,7.6,19.08,12.9,27.92c1.07,1.78,2.72,1.5,3.8,0.34c4.77-5.1,10.44-9.28,15.23-14.25c3.1-3.22,3.58-8.64,3.02-13.3
				c-1.44-12.08-2.85-24.14-3.13-36.31c-0.07-2.91-1.89-5.31-2.58-8.05c-0.28-1.13-0.41-2.52,1-2.98c1.47-0.48,1.97,0.78,2.41,1.9
				c2.29,5.75,4.16,11.58,4,17.89c-0.17,6.54,1.61,12.87,2.22,19.32c0.41,4.3,1.36,8.52,0.92,12.91c-0.37,3.75,1.51,5.07,4.3,2.86
				c9.44-7.46,20.92-11.58,30.51-18.62c6.24-4.58,11.91-10,17.96-14.91c7.98-6.48,16.11-12.8,23.98-19.44
				c8.16-6.87,15.34-14.74,23.6-21.47c14.02-11.42,25.17-25.41,35.53-40.1c1.81-2.57,4.05-4.85,5.99-7.33
				c0.59-0.76,1.19-1.87,0.56-2.78c-0.89-1.29-2.12-0.5-3.13-0.01c-4.48,2.2-8.89,4.55-13.4,6.67c-8.76,4.1-18.09,6.53-27.22,9.57
				c-10.38,3.47-20.71,7.24-31.18,10.47c-5.53,1.71-11.3,2.65-16.98,3.85c-1.53,0.32-3.03,0.07-3.94-1.45
				c-0.54-0.91-0.78-1.93,0.06-2.75c1.2-1.17,2.52-0.37,3.74,0.06c1.82,0.64,3.55,0.55,5.35-0.12c11.04-4.13,22.54-6.79,33.74-10.48
				c15.78-5.2,30.94-11.58,45.87-18.74c6.08-2.92,12.43-5.32,18.24-8.79c1.32-0.79,3.42-1.6,2.59-3.65
				c-0.67-1.64-2.63-1.01-4.06-1.05c-7.19-0.2-14.28-1.16-21.2-3.12c-5.72-1.62-11.18-1.17-16.57,1.2c-0.91,0.4-2.05,1.11-2.81,0.85
				c-7.59-2.58-14.94,1.12-22.59,0.75c-10.94-0.53-19.86-4.76-28.81-9.9c-4.82-2.77-8.36-7.11-12.64-10.55
				c-1.17-0.94-2.74-2.06-1.62-3.66c1.31-1.87,2.96-0.71,4.31,0.34c4.59,3.58,8.77,7.64,13.63,10.92
				c11.28,7.61,23.67,10.22,37.04,8.96c1.2-0.11,2.49-0.29,2.84-1.59c0.41-1.56-0.8-2.51-1.94-3.17
				c-5.95-3.41-11.21-7.78-16.37-12.2c-11.06-9.49-22.66-18.62-28.64-32.56c-2.03-4.72-3.62-9.63-5.31-14.49
				c-0.41-1.18-1.17-2.88,0.4-3.56c1.89-0.81,2.38,1.09,3.16,2.34c3.15,5.01,3.97,10.91,6.27,16.25c1.21,2.81,2.58,5.4,4.72,7.56
				c9.08,9.21,17.56,19.13,28.29,26.49c8.57,5.88,17.04,11.56,28.57,11.42c11.91-0.15,23.66,3.7,35.7,3.72c3,0,7.66,1.78,8.49-1.68
				c0.99-4.1-4.07-3.81-6.81-4.73c-15.41-5.16-29.2-13.36-42.56-22.4c-0.55-0.37-1.06-0.81-1.55-1.26
				c-1.18-1.08-3.18-2.11-1.76-3.98c1.24-1.62,2.61-0.01,3.92,0.61c8.74,4.17,15.83,10.93,24.55,15.26
				c9.91,4.92,20.45,7.86,30.76,11.55c2.32,0.83,4.78,1.34,7.05,2.41c1.41,0.66,3.18,1.06,4.12-0.39c1.21-1.86-0.43-3.15-1.8-4.02
				c-5.47-3.49-11.24-6.45-17.24-8.92c-2.52-1.04-4.6-2.64-6.79-4.13c-1.03-0.7-1.45-1.95-0.76-3.1c0.74-1.24,2.06-1.18,3.08-0.51
				c9.25,6.14,22.15,8.4,27.65,18.09c6.46,11.37,18.24,12.39,27.11,18.71c8.2,5.85,17.92,9.25,26.23,15.24
				c8.2,5.91,17.66,9.87,26.83,14.18c2.79,1.32,5.15,2.56,4.47,6.65c-0.51,3.07,3.55,5.34,7.53,3.7
				c11.18-4.61,22.78-8.75,29.7-19.87c1.73-2.78,4.74-4.56,6.4-7.51c0.53-0.94,1.79-1.98,2.93-1.27c1.35,0.84,0.37,2.18-0.21,3.08
				c-10.27,16.13-24.45,26.43-43.71,29.03c-2.39,0.32-4.68-0.05-6.44-1.95c-1.06-1.14-2.88-2-0.05-3.55
				c2.47-1.36,0.6-3.17-0.78-3.73c-9.12-3.66-17.07-9.6-26.16-13.27c-0.93-0.38-2.08-0.65-2.71,0.37c-0.68,1.12,0.39,1.86,1.07,2.5
				c6.33,5.9,12.86,11.6,19.01,17.68c9.88,9.78,20.79,18.61,28.59,30.37c1.4,2.12,3.17,1.73,4.98-0.08
				c11.27-11.24,22.6-22.43,33.99-33.54c1.77-1.72,3.91-3.09,6-4.45c16.13-10.46,27.34-25.06,35.42-42.22
				c2.61-5.54-0.01-12.76-4.87-16.52c-3.01-2.33-5.74-5.06-8.38-7.83c-8.69-9.14-19.42-15.63-29.54-22.9
				c-6.09-4.37-11.9-9.09-16.64-14.98c-3.47-4.31-8.35-6.2-13.5-6.73c-13.4-1.38-26.72-3.86-40.28-3.37
				c-3.21,0.12-6.26-0.88-9.23-1.99c-1.74-0.65-2.9-1.9-1.98-3.87c0.81-1.75,2.41-1.51,3.9-0.98c10.82,3.82,22.09,3.56,33.32,3.65
				C1192.53,719.93,1193.12,719.65,1193.71,719.51z M1177.99,376c-0.99-0.1-1.99-0.13-2.96-0.33c-1.8-0.38-4.15-1.19-4.67,1.13
				c-0.59,2.6-0.91,7.4,0.09,7.82c2.96,1.24,4.82,3.1,6.64,5.46c0.59,0.76,2.54,0.65,2.04-0.56c-1.85-4.5,2.05-9.42-1.27-13.66
				c1.64,0.27,3.73,1.75,4.19-1.35c0.2-1.4-0.26-2.96-1.95-2.82C1177.38,371.93,1178.45,374.43,1177.99,376z M819.35,922.42
				c-1.18-0.19-2.76-0.4-3.04,0.92c-0.94,4.48-3.14,2.83-5.17,1.15c-4.02-3.34-9.2-2.47-13.73-3.93c-1.17-0.38-2.3,0.32-2.66,1.67
				c-0.32,1.19,0.31,2.28,1.4,2.09c7.47-1.35,11.67,3.37,15.97,8.17c1.73,1.93,3.96,1.41,4.96-0.67c1.41-2.93,4.07-5.76,2.15-9.53
				c0.87-1.34,3.9-1.35,2.7-3.89c-1.05-2.23-2.85-3.74-6.17-3.74C817.25,917.49,819.08,919.64,819.35,922.42z M1160.01,321.66
				c2.05-1.15,4.04,2.1,5.28-0.11c2.76-4.9,8.01-7.22,11.28-11.66c4.38-5.96,5.77-6,13.07-3.4c2.01,0.72,3.97,0.62,5.51-1.04
				c0.82-0.88,1.2-2.07,0.67-3.25c-0.54-1.21-1.53-0.91-2.54-0.59c-1.26,0.4-2.75,2.19-3.82,0.12c-0.77-1.5,0.49-2.89,1.55-3.94
				c3.22-3.18,5.94-6.66,7.46-10.99c0.29-0.84,0.88-1.54,1.84-1.22c1.19,0.4,1.37,1.51,0.91,2.46c-0.49,1.02-1.46,1.8-1.99,2.8
				c-0.5,0.95-0.19,1.96,0.58,2.74c0.52,0.52,1.35,0.79,1.76,0.22c1.79-2.51,5.32-3.91,5.49-7.39c0.21-4.52,1.25-8.88,1.79-13.32
				c0.33-2.74,0.15-4.95,4.01-4.32c1.75,0.29,2.61-1.99,1.51-2.54c-2.83-1.4-2.75-4.44-4.48-6.3c-7.72-8.31-18.21-11.67-28.65-13.76
				c-5.36-1.07-11.68-1.63-17.22-0.48c-14,2.91-23.24,13.21-31.95,23.44c-4.68,5.49-7.74,12.38-11.38,18.73
				c-1.33,2.31-2.47,4.86,0.07,7.28c0.73,0.7,1.4,2.11-0.3,1.87c-2.97-0.43-1.98,1.22-1.85,2.62c0.78,8.18,4.35,15.54,6.78,23.24
				c2.77,8.76,6.95,17.48,2.41,26.92c-2.75,5.71-3.46,12.49-9.38,16.54c-2.74,1.87-0.77,3.91,1.33,4.12
				c11.34,1.16,22.16,6.22,33.87,4.62c0.94-0.13,2.4-0.1,2.84,0.47c3.11,3.98,6.52,1.07,9.42,0.16c3.36-1.05,2.48-5.27,3.98-7.89
				c0.96-1.68-1.3-2.59-2.65-3.59c-5.74-4.26-11.84-4.72-18.37-2.22c-1.56,0.6-3.82,1.15-4.18-0.94c-0.32-1.87,2.11-1.99,3.42-1.78
				c5.4,0.86,9.69-4.68,15.35-2.5c1.01,0.39,1.81-1.14,2.49-2.13c4.61-6.83,6.34-7.22,12.83-2.64c2.06,1.46,3.78,1.16,5.3-0.51
				c1.43-1.57,1.58-3.37-0.32-4.74c-3.12-2.26-1.47-7.12-6.1-9.4c-2.21-1.09-5.83-3.74-7.41-3.64c-3.89,0.25-5.09-1.81-6.47-4.21
				C1162.32,327.04,1162,324.01,1160.01,321.66z M1261,859.24c18.38,2.63,26.1-8.02,30.58-23.64c0.5-1.75,0.54-3.75,1.42-5.26
				c6.21-10.61,3.24-19.54-4.68-27.72c-2.57-2.65-4.33-2.84-6.41,0.86c-1.72,3.05-2.14,6.62-3.98,9.39
				c-2.78,4.2-2.57,5.99,2.32,7.28c2.15,0.57,4.5,0.7,4.69,3.51c0.18,2.63-1.57,5.1-3.62,5.45c-6.61,1.13-12.44,4.8-19.02,5.58
				c-3.58,0.43-5.76,1.63-7.22,4.96c-0.8,1.82-1.68,5.3-3.76,4.7c-5.55-1.59-8.63,0.98-11.8,4.77c-1.1,1.31-3.37,1.74-2.97,4.05
				c0.41,2.41,2.57,3.04,4.47,3.4C1247.68,857.87,1254.34,859.32,1261,859.24z M860.38,925.83c2.55,0.04,3.88-0.92,2.85-3.66
				c-0.76-2.02-1.26-4.23-2.44-5.97c-1.88-2.78-5.76-6.11-7.91-4.52c-5.07,3.73-7.42-1.09-10.87-2.05c-1.8-0.5-1.95-2.86-1.25-4.3
				c0.78-1.6,2.36,0.03,3.57-0.07c2.39-0.2,3.45,4.88,5.4,2.26c1.2-1.6-3.01-3.28-4.21-5.4c-0.16-0.28-0.44-0.51-0.71-0.7
				c-2.52-1.7-1.29-6.88-4.99-6.69c-2.9,0.15-5.69,2.46-8.54,3.8c-5.19,2.43-5.33,4.37-1.78,9.13c5.02,6.74,12.18,10.17,19.48,13.38
				C852.74,922.7,855.94,925.77,860.38,925.83z M1227.27,363.48c-0.39-5.28,1.4-9.52,4.77-13.27c0.83-0.92,1.21-2.37,1.48-3.65
				c1.1-5.23-2.1-10.7,0.91-15.9c0.29-0.5-0.47-2.01-1.14-2.62c-2.39-2.15-4.5-4.25-4.32-7.89c0.07-1.52-1.51-1.4-2.72-1.21
				c-1.5,0.23-2.94,0.17-4.38-0.51c-1.14-0.54-8.6,4.55-8.61,5.8c-0.01,0.83,0.09,2.11,0.93,2.1c4.98-0.08,3.93,3.96,4.7,6.7
				c0.59,2.13,1.13,4.11,3.56,5c1.97,0.72,2.63,2.25,0.85,3.8c-2.56,2.21-2.15,4.63-0.91,7.21c0.94,1.96,0.97,3.77-0.33,5.63
				c-1.61,2.3-1.02,4.08,1.61,5.08C1225.41,360.41,1225.91,362.05,1227.27,363.48z M719.7,1071.35c-4.75-2.2-9.61-3.83-14.55-2.95
				c-8.3,1.48-16.43-0.31-24.64-0.48c-4.97-0.1-9.96-0.21-14.93-0.01c-2.07,0.08-3.93,1.18-3.73,3.78c0.2,2.56,1.93,3.27,4.21,3.1
				c7.75-0.58,15.48-0.03,23.22,0.11C699.52,1075.09,709.69,1073.76,719.7,1071.35z M843.51,952.86
				c-7.63-3.97-14.59-7.62-22.13-9.96c-1.49-0.46-4.09-0.3-3.18,2.18c2,5.42-1.85,3.05-3.34,2.48c-5.01-1.95-10.77-2.51-14.29-7.46
				c-0.93-1.31-2.69-1.66-3.8-0.02c-1.07,1.57-0.29,3.15,1.32,3.58c3.68,0.97,6.17,3.65,9.16,5.63c8.22,5.44,18.28,6.52,26.92,11.03
				c1.02,0.53,2.43,0.6,3.08-0.68c0.63-1.23-0.8-1.54-1.34-2.28c-1.92-2.6-5.77-1.97-8.06-4.46
				C833.2,949.64,837.58,956.25,843.51,952.86z M1279.76,1040.91c-1.66,0.82-2.07,1.06-2.51,1.24c-1.67,0.72-4.87,0.08-4.42,2.82
				c0.47,2.85,3.25,1,5.04,1.12c5.65,0.38,9.63-5.04,15.39-4.42c0.69,0.07,1.63-0.49,1.55-1.58c-0.09-1.25-7.24-6.41-8.65-6.42
				c-8.78-0.05-17.58,1.01-26.32-0.16c-3.69-0.5-6.71,0.19-10.94,2.96C1259.23,1040.26,1269.28,1038.4,1279.76,1040.91z
				 M656.05,1089.55c-0.61-0.03-1.25,0.03-1.83-0.11c-1.23-0.29-2.47-1.36-3.66-0.02c-0.6,0.68-0.51,1.57-0.1,2.33
				c0.76,1.42,2.17,1.46,3.49,1.29c2-0.25,3.92-0.32,5.89,0.35c5.67,1.93,11.17,0.2,16.67-0.99c1.15-0.25,2.36-0.74,2.17-2.24
				c-0.22-1.71-1.59-2.02-2.99-1.9c-2.81,0.24-5.6,0.66-8.41,0.91c-1.13,0.1-3.05-0.19-1.89-1.65c1.74-2.21,1.31-6.18,5.24-6.68
				c1.08-0.14,1.87-0.93,1.61-2.1c-0.31-1.39-1.5-1.67-2.74-1.57c-1.79,0.14-3.95,1.66-5.28,0.32c-4.68-4.68-6.8-0.36-9.29,2.38
				C651.08,1084.12,651.45,1086.3,656.05,1089.55z M1199.68,336.2c-2.74-1.08-2.97-5.3-6.24-2.96c-2.64,1.89-1.7,4.35-0.88,6.76
				c0.64,1.89,1.32,3.77,1.8,5.7c1.01,4.05,3.97,4.22,7.03,3.28c3.17-0.97,7.18-1.4,6.48-6.55c-0.75-5.54-1.22-11.12-1.8-16.68
				c-0.18-1.75,0.29-4.2-2.27-4.22c-2.18-0.02-2.71,2.27-2.97,4.06C1200.34,328.96,1200.08,332.38,1199.68,336.2z M1192.71,377.43
				c-1.05,2.48,1.16,4.4,3.46,6.12c6.45,4.82,17.06,0.97,18.54-6.65c0.25-1.29-0.4-3.07-1.35-2.59c-3.21,1.61-7.32-0.34-10.04,2.76
				c-2,2.27-5.13,3.28-7.03,1.35c-2.47-2.51,1.51-3.54,2.59-5.27c0.08-0.14,0.25-0.21,0.36-0.34c3.25-3.68,8.17-5.75,10.18-10.64
				c0.63-1.53,1.86-3.28,0.2-4.51c-1.84-1.37-2.35,0.86-3.28,1.88c-2.21,2.41-4.28,6.52-6.76,6.8
				C1192.42,367.12,1193.67,372.18,1192.71,377.43z M843.64,928.99c-0.97,0.39-2.97-0.61-3.65,1.1c-0.79,1.96,1.27,2.28,2.45,3.06
				c2.06,1.36,1.61,2.58,0.19,4.44c-2.44,3.2-4.49,5.48-8.52,1.98c-1.69-1.47-4.11-2.11-6.23-3.06c-0.9-0.4-1.96-0.82-2.76,0.11
				c-0.87,1.01,0.04,1.77,0.55,2.61c2.26,3.71,15.9,9.37,20.23,8.37c0.99-0.23,2.43-0.57,2.02-1.67c-1.68-4.55,1.53-3.06,3.57-3.08
				c2.23-0.03,4.04-0.65,3.86-3.38C855.14,936.18,847.35,929.03,843.64,928.99z M754.48,1009.94c2.92-1.1,4.43-3.1,3.07-6.11
				c-1.46-3.24-3.9-1.23-6.02-0.86c-0.65,0.11-1.38-0.04-1.97,0.19c-2.65,1.02-4.37,2.6-2.56,5.62c1.51,2.52,2.84,6.22,0.44,7.45
				c-3.15,1.62-4.46-2.11-5.49-4.77c-0.37-0.96-0.96-1.83-2.17-1.64c-1.2,0.19-1.37,1.19-1.55,2.22c-0.96,5.4,6.07,10.29,11.91,8.25
				C757.94,1017.56,759.18,1014.85,754.48,1009.94z M1252.88,968.39c0.95-1.3,2.68-0.86,3.98-1.46c1.16-0.53,1.99-1.23,1.38-2.68
				c-0.92-2.18-11.15-5.44-12.9-3.78c-2.2,2.1-4.97,2.59-7.54,3.58c-6.47,2.49-6.47,2.37-2.41,7.82c0.82,1.1,1.41,2.47,3.05,1.59
				c1.48-0.79,1.07-1.94,0.62-3.39c-1.11-3.58,2.68-3.33,4.29-4.37c1.45-0.95,2.98,0.7,3.39,2.57c1.34,6.22,3.23,6.89,9.02,3.19
				C1255.64,969.67,1252.81,970.52,1252.88,968.39z M790.09,984.61c-1.23-1.67-1.78-3.03-2.8-3.71c-4.53-3.04-9.14-6.06-14.42-7.64
				c-4.42-1.32-9.02-2.06-13.42-3.42c-1.98-0.61-3.93-2.87-5.08,0.59c-0.94,2.83,0.9,4.23,3.4,5.07c1.67,0.56,3.24,0.44,4.87-0.04
				c3.63-1.06,7.45-0.45,9.87,1.98C777.25,982.2,782.96,983.78,790.09,984.61z M1187.69,326.29c0.11,0.96,0.12,2.49,0.5,3.92
				c0.38,1.41,1.82,2.03,2.53,0.66c1.86-3.6,3.19-7.47,5.96-10.57c0.19-0.22-0.12-0.94-0.28-1.4c-0.41-1.18-2.78-2.26-0.4-3.59
				c1.65-0.92,2.77,0.36,3.8,1.52c1.02,1.14,2.62,2.67,3.48,0.56c1.48-3.62-1.76-5.85-3.81-8.02c-1.68-1.79-3.57-0.98-5.59,0.72
				C1188.89,314.29,1188.16,319.9,1187.69,326.29z M782.41,998.88c-3.76-0.15-4.66-4.46-7.17-3.64c-3.63,1.18-6.14-0.64-8.88-1.81
				c-2.79-1.19-5.48-2.36-8.58-2.22c-1.59,0.07-4.22-1.7-4.22,1.39c0.01,2.61,1.46,5.24,4.68,5.42c1.21,0.07,2.6-1.22,3.78-0.24
				c3.77,3.16,8.66,1.06,12.83,2.88C776.48,1001.38,779.42,1001.59,782.41,998.88z M1431.7,631.94c-1.27-3.22-2.59-6-4.88-7.44
				c-5.56-3.47-10.98-6.82-14.06-13.03c-0.71-1.43-3.06-2.4-4.69-0.49c-1.38,1.61-0.88,3.43,0.33,5.01c2.15,2.81,4.67,5.4,8.03,6.45
				c2.56,0.81,4.47,2.16,5.94,4.15C1424.57,629.58,1427.54,631.07,1431.7,631.94z M780.35,950.57c-1.41,2.78-5.65,1.35-5.41,4.36
				c0.19,2.43,3.48,1.06,5.01,2.25c0.91,0.71,1.74,1.57,2.75,2.06c1.06,0.51,2.35,0.48,3.29-0.38c1.14-1.05,0.53-2.08-0.34-3.01
				c-0.75-0.8-2.16-1.6-0.72-2.78c1.26-1.03,2.5-0.34,3.46,0.77c0.94,1.1,2.11,2.14,3.2,0.53c1.09-1.63-0.07-2.67-1.6-3.45
				c-4.96-2.52-10.57-2.61-15.76-4.27c-1.74-0.56-2.74,0.78-3.64,2.01c-0.75,1.02-2.46,1.94-1.57,3.31c0.96,1.46,2.39,0.16,3.56-0.3
				C774.96,950.75,777.26,949.26,780.35,950.57z M1222.44,424.73c-3.3,0.23-3.09,1.64-1.93,3.35c2.64,3.9,6.5,6.55,9.89,9.68
				c1.19,1.1,2.63,1.07,3.14-0.63c0.58-1.96,1.82-3.5,2.65-5.27c0.89-1.88,0.3-3.95-1.84-4.37
				C1230.16,426.66,1225.73,427.02,1222.44,424.73z M764.1,984.06c-0.82-2.8-2.05-4.86-5.18-4.26c-1.39,0.27-2.54,0.27-3.74-0.51
				c-1.51-0.99-2.31-4.03-4.69-2.51c-2.35,1.5,0.05,3.51,0.24,5.31c0.1,0.97-0.15,1.98,0,2.93c0.36,2.39,2.43,3.96,4.14,2.94
				C757.78,986.22,762.54,988.63,764.1,984.06z M785.86,972.35c0.24,1.33,0.22,1.86,0.43,2.28c1.41,2.83,19.98,11.87,23.02,11.23
				c0.98-0.21,2.04-0.42,2.14-1.68c0.08-0.98-0.69-1.55-1.43-1.86C802.17,979.09,794.61,975.14,785.86,972.35z M1262.16,950.39
				c-1.35-1.76-4.1-2.36-2.61-5.28c0.69-1.35-1.27-2.05-2.55-2.4c-1.3-0.36-2.65-0.58-3.75,0.52c-1.07,1.06-2.5,11.7-1.66,12.93
				c0.95,1.39,2.13,2.66,4.02,2.51c1.35-0.11,2.37-1.15,1.98-2.36C1256.32,952.37,1259.26,951.53,1262.16,950.39z M1323.99,1038.62
				c-0.1-1.97-1.14-2.96-3.11-3.13c-4.2-0.37-12.31,6.5-12.43,10.72c-0.06,2.09,1.77,1.92,2.86,1.42c3.75-1.7,7.41-3.58,11.02-5.56
				C1323.55,1041.42,1323.95,1040.03,1323.99,1038.62z M1407.48,621.54c-0.13-0.33-0.23-0.66-0.39-0.95
				c-2.81-5.12-6.69-9.47-10.25-14.05c-0.65-0.84-1.83-1.04-2.69-0.29c-1.2,1.04-0.98,2.52-0.35,3.68c1.82,3.34,3.58,6.78,5.85,9.81
				c1.22,1.62,3.35,2.69,5.26,3.62C1406.34,624.05,1407.54,623.4,1407.48,621.54z M1175.68,365.08c1.85-0.79,4.16-1.62,6.29-2.78
				c0.92-0.5,2.07-1.81,0.86-2.86c-2.35-2.04-5.38-3.22-7.43-5.71c-0.41-0.5-1.55-0.09-1.58,0.56c-0.14,2.82-2,3.38-4.27,3.85
				c-1.39,0.29-1.81,1.71-0.87,2.73C1170.45,362.8,1172.27,364.84,1175.68,365.08z M812.07,955.11c-2.1,0.1-3.79-0.12-4.21,1.41
				c-0.48,1.76,1.28,2.05,2.48,2.49c6.07,2.18,12.54,3.36,17.88,7.34c0.37,0.27,0.94,0.37,1.43,0.37c1.17,0.02,2.6,0.08,3.13-1.08
				c0.76-1.65-1.02-1.88-1.91-2.28c-4.2-1.91-8.47-3.68-12.73-5.46C815.87,956.94,814.05,954.87,812.07,955.11z M1265.78,882.2
				c-2.37,0.61-3.28,3.41-5.57,4.49c-1,0.47-2.17,1.32-2.07,2.61c0.14,1.87,1.9,1.51,3.1,1.8c1.71,0.41,3.15,0.87,3.29,3.07
				c0.15,2.37,2.07,2.44,3.72,2.11c1.95-0.39,0.66-2.11,1-3.04c1.33-3.64-4.53-6.21-1.26-10.02
				C1268.32,882.85,1266.88,882.29,1265.78,882.2z M1264.1,937.47c-0.08-0.69-0.66-0.77-2.22-1.7c-6.23-3.7-10.42,0.99-15.11,3.53
				c-0.97,0.52-1.2,1.61-0.61,2.59c0.59,0.98,1.77,1.24,2.62,0.78c4.18-2.3,8.88-2.39,13.36-3.4
				C1263.11,939.06,1264.13,938.81,1264.1,937.47z M765.72,955.9c-0.54,0.09-2.3-1.34-2.74,0.63c-0.44,1.98,1.41,2.32,2.88,2.6
				c4.28,0.82,7.73,3.87,12.15,4.41c1.34,0.16,2.99,2,3.89,0.33c0.99-1.83-0.66-3.81-2.32-4.23
				C775.12,958.51,771.19,955.54,765.72,955.9z M809.2,968.94c-4.02-2.76-7.76-5.61-11.8-7.95c-1.45-0.84-4.08-1.85-5.07,0.99
				c-0.77,2.2,0.73,3.28,2.72,3.94c2.83,0.95,5.63,2.02,8.4,3.14C805.26,969.8,807,970.94,809.2,968.94z M1245.27,920.06
				c3.81,1.62,7.58,0.71,11.3,0.62c1.93-0.04,4.66-0.03,4.5-2.69c-0.16-2.62-2.84-2.93-5.05-2.9
				C1251.81,915.17,1248.73,917.9,1245.27,920.06z M1238.42,446.88c1.31,0.02,2.49-0.33,2.36-1.48c-0.39-3.72,0.39-7.13,1.91-10.49
				c0.33-0.72-0.13-1.61-0.91-2.11c-0.65-0.42-1.38-0.32-1.77,0.22c-1.83,2.5-4.53,4.61-5.11,7.73
				C1234.39,443.5,1235.71,445.86,1238.42,446.88z M1265.65,879.6c2.18-1.39,5.86,0.45,7.61-2.81c0.4-0.74-4.6-6.2-5.31-5.85
				c-2.7,1.33-5.33,2.94-5.63,6.3C1262.15,879.13,1263.63,879.71,1265.65,879.6z M788,992.9c1.69-0.03,3.09,0.23,3.46-1.23
				c0.37-1.46-0.88-1.9-1.99-2.34c-3.83-1.51-7.64-3.04-11.45-4.6c-0.94-0.38-1.96-0.94-2.64,0.14c-0.63,1-0.02,2.14,0.83,2.56
				C780.25,989.42,784.37,991.23,788,992.9z M1235,1038.06c1.12-1.85,5.72,1.77,5.24-2.41c-0.38-3.33-4.65-3.08-7.52-3.24
				c-2.36-0.13-4.66,1.28-4.12,3.78C1229.31,1039.37,1232.35,1037.86,1235,1038.06z M727.63,1050.14
				c-6.05-1.81-12.19-1.76-18.34-1.43c-0.88,0.05-1.75,0.35-1.68,1.36c0.09,1.26,1.23,1.35,2.21,1.52
				C715.88,1052.61,721.7,1050.96,727.63,1050.14z M1235.35,946.12c-1.84,1.02-4.06,1.65-4.17,4.37c-0.08,1.96-0.62,4.16,1.92,5.09
				c1.48,0.54,3.74,0.57,3.98-0.82c0.46-2.64-0.06-5.45-0.28-8.19C1236.79,946.4,1235.94,946.3,1235.35,946.12z M1269.17,1023.03
				c-2.03-0.05-3.91-0.21-5.12,1.61c-0.51,0.76-0.49,1.65,0.1,2.31c1.31,1.45,3.01,1.07,4.66,0.82c0.16-0.02,0.35-0.02,0.49-0.1
				c1.86-1.07,5.73,0.73,5.64-2.27C1274.86,1023.02,1271.12,1023.66,1269.17,1023.03z M1222.7,1068.63
				c1.56-0.48,4.58,0.17,4.29-2.49c-0.28-2.55-3.15-3-5.53-3.05c-1.83-0.04-3.37,0.65-3.29,2.77
				C1218.29,1068.72,1220.54,1068.53,1222.7,1068.63z M1260.64,1067.15c0.99-0.28,3.2,0.4,2.92-1.39c-0.4-2.58-2.45-4.3-5.17-4.64
				c-1.69-0.21-3.05,0.67-2.91,2.53C1255.7,1066.7,1257.93,1067.23,1260.64,1067.15z M834.88,936.15c-2.46-4.73-6.55-5.33-8.91-8.06
				c-1.07-1.23-2.06,0.91-2.49,2.08c-0.46,1.24-0.78,3.32,0.96,3.1C827.9,932.84,830.63,934.55,834.88,936.15z M1294.05,1057.99
				c-0.8-1.87-1.54-4.07-4.16-4.05c-1.9,0.01-5.04,0.32-4.63,2.36c0.51,2.57,3.97,2.88,6.42,3.56
				C1292.8,1060.19,1293.95,1059.67,1294.05,1057.99z M1234.35,1068.08c1.95-0.41,4.63-0.03,4.78-2.99c0.1-1.86-1.73-2.2-3.24-2.17
				c-2.19,0.05-4.67,0.48-5.09,2.91C1230.39,1068.16,1232.75,1067.86,1234.35,1068.08z M770.01,986.59
				c-1.8,0.14-2.68,1.12-2.53,2.63c0.19,1.94,0.3,4.33,3.11,4.2c1.51-0.07,3.93,0.03,3.85-2.17
				C774.33,988.69,772,987.55,770.01,986.59z M832.06,916.11c-1.59,1.28-2.52,1.95-3.36,2.71c-1.48,1.35-1.67,2.93-0.16,4.29
				c1.17,1.05,2.24,3.17,3.95,2.46c2.11-0.88,0.45-2.87,0.33-4.37C832.7,919.76,832.4,918.33,832.06,916.11z M683.33,1065.24
				c1.59-0.63,4.54,1.12,4.67-1.94c0.08-1.95-2.17-2.8-4.14-2.74c-2.03,0.06-4.61,0.45-4.77,2.7
				C678.9,1066.06,681.61,1065.01,683.33,1065.24z M811.25,935.78c-0.27-2.05-9.12-6.19-10.71-5.27c-0.78,0.45-1.26,1.68-0.24,1.82
				c3.32,0.45,5.76,2.01,7.73,4.63c0.49,0.65,1.55,0.63,2.26,0.09C810.76,936.7,811.03,936.08,811.25,935.78z M801.61,972.31
				c-0.37-0.43-0.65-1.07-0.99-1.1c-2.9-0.24-5.03-1.88-7.28-3.51c-0.96-0.69-2.8-0.47-2.79,1.49c0.01,1.64,8.79,5.26,10.21,4.28
				C801.12,973.24,801.3,972.75,801.61,972.31z M1280.47,1050.77c3.29,1.26,6.04,0.17,8.73,0.38c0.84,0.07,1.72-0.32,1.8-1.31
				c0.07-0.9-0.6-1.55-1.4-1.84C1286.1,1046.73,1283.45,1048.21,1280.47,1050.77z M731.16,1055.78c-3.79-0.56-7.65-1.97-11.64,1.1
				C724.04,1058.82,727.62,1057.23,731.16,1055.78z M1234.83,1006.71c1.39-0.03,2.72-0.33,2.78-2.01c0.06-1.74-0.5-3.35-2.57-3.46
				c-1.68-0.08-2.77,1-2.9,2.66C1232,1005.69,1233.17,1006.49,1234.83,1006.71z M1237.24,1013.92c-0.19-2.03-1.64-2.79-3.26-3.15
				c-1.77-0.39-2.79,0.66-3.09,2.31c-0.33,1.81,0.66,2.81,2.41,2.89C1234.95,1016.03,1236.57,1015.81,1237.24,1013.92z
				 M1259.57,1049.11c1.45-0.31,3.69,0.17,3.6-2.21c-0.07-1.79-1.94-2.02-3.43-2.07c-1.53-0.05-3.23,0.2-3.37,2.07
				C1256.2,1049.01,1258.04,1048.94,1259.57,1049.11z M684.28,1078.84c2.4,1.61,4.03,2.28,5.87,2.26c1.51-0.02,3.35-0.19,3.18-2.18
				c-0.15-1.72-1.88-1.55-3.19-1.34C688.53,1077.83,686.94,1078.26,684.28,1078.84z M697.7,1053.55c-0.31-1.72-1.59-2.19-2.96-2
				c-1.52,0.22-3.66,0.04-3.73,2.34c-0.04,1.4,1.36,1.79,2.58,1.67C695.18,1055.41,696.98,1055.5,697.7,1053.55z M1259.66,896.63
				c-0.05-1.49-0.82-2.41-2.11-2.39c-2.23,0.04-3.61,1.57-4.32,3.48c-0.36,0.96,0.7,1.39,1.57,1.3
				C1256.71,898.81,1258.84,898.9,1259.66,896.63z M1242.75,888.01c1.29-0.15,3.12,0.15,3.13-1.54c0-1.81-1.89-2.02-3.33-2.05
				c-1.46-0.02-3.43,0.25-3.33,2C1239.34,888.29,1241.48,887.68,1242.75,888.01z M1275.9,871.02c0.13,1.07,0.42,2.41,2.03,2.61
				c1.76,0.22,2.83-0.86,3.01-2.49c0.19-1.72-0.81-2.81-2.56-2.88C1276.79,868.2,1276.08,869.24,1275.9,871.02z M1266.43,944.93
				c2.33-0.09,4.07-1.16,3.79-2.36c-0.26-1.13-1.21-1.55-2.26-1.43c-1.65,0.19-3.53,0.64-3.89,2.41
				C1263.72,945.32,1265.51,944.76,1266.43,944.93z M718.88,1044.51c-2.92-1.64-5.47-1.92-6.53-0.74c-0.5,0.56-0.71,1.35,0.02,1.58
				c2.13,0.69,4.35,1.29,6.37-0.4C718.83,1044.87,718.83,1044.66,718.88,1044.51z M700.58,1036.81c0.85-0.68,2.99,0.59,3.31-1.53
				c0.21-1.42-1.18-1.86-2.35-1.8c-1.61,0.08-3.51,0.31-3.58,2.38C697.91,1037.18,699.34,1036.82,700.58,1036.81z M1243.26,986.36
				c0.16,1.15,0.24,2.5,1.65,2.69c1.52,0.21,1.85-1.09,2-2.27c0.17-1.29-0.28-2.36-1.66-2.58
				C1243.7,983.97,1243.32,985.07,1243.26,986.36z M1233,942.05c-0.17-1.38-1.17-1.61-2.16-1.62c-1.49-0.02-3.17,0.04-3.4,1.99
				c-0.11,0.91,0.83,1.41,1.74,1.2C1230.54,943.31,1232.21,943.62,1233,942.05z M1238.59,943.33c1.44,0.01,2.16-0.81,2.23-2.08
				c0.06-1.08-0.55-1.88-1.67-2.03c-1.28-0.17-2.3,0.28-2.44,1.71C1236.58,942.26,1237.4,943,1238.59,943.33z M1195.56,390.74
				c0.07-1.38-0.49-2.32-1.95-2.27c-1.28,0.04-2.26,0.75-2.34,2.11c-0.08,1.35,0.74,2.22,2.07,2.32
				C1194.78,393.01,1195.36,392.02,1195.56,390.74z M1226.06,313.78c0.66-0.44,1.25-0.7,1.65-1.13c1.22-1.29,2.59-2.57,1.99-4.62
				c-0.11-0.36-0.74-0.9-0.98-0.83c-1.89,0.54-1.44,2.7-2.53,3.86C1225.67,311.61,1225.13,312.31,1226.06,313.78z"/>
			<path d="M1159.78,654.57c-3.09-2.94-3.8-6.61-4.73-9.93c-0.93-3.32-2.8-5.73-5.83-6.15c-13.38-1.84-21.91-11.11-31.11-19.49
				c-6.66-6.07-13.87-11.33-23.11-12.82c-1.68-0.27-2.87-1-3.02-2.76c-0.21-2.54-0.33-5.03-3.44-5.91
				c-0.68-0.19-0.88-1.01-0.34-1.62c0.63-0.73,1.56-0.71,2.3-0.32c2.63,1.41,5.24,2.87,7.8,4.42c13.25,8.04,25.15,17.83,36.6,28.22
				c2.52,2.28,5.68,3.42,8.85,4.5c3.64,1.23,7.15,2.62,9.99,5.42c2.46,2.42,4.2,1.49,6.52-0.99c15.1-16.15,17.38-36.3,18.3-56.94
				c0.36-7.97,0.17-15.99,1.86-23.85c0.23-1.07,0.5-1.99-0.85-2.37c-1.48-0.42-2.54,0.16-3.4,1.41c-3.82,5.54-9.13,9.65-13.86,14.32
				c-1.23,1.22-2.4,2.82-4.57,2.58c-0.93-1.75,0.57-2.35,1.43-3.24c4.85-5,9.78-9.87,14.24-15.31c5.24-6.39,5.64-14.41,8.89-21.42
				c1.23-2.65,4.8-5.77,2.78-8.49c-2.32-3.13-5.44,1.75-8.67,1.03c-1.37-0.3-3.09,0.95-4.66,1.47c-1.13,0.37-2.49,0.81-2.84-0.83
				c-0.3-1.42,0.91-2.23,2.11-2.22c4.53,0.02,8.17-2.68,12.32-3.82c3.06-0.84,6.59-1.76,6.4-5.84c-0.19-4.1-1.67-7.85-5.88-9.65
				c-6.73-2.88-13.23-6.04-18.91-10.87c-4.8-4.09-7.52-9.7-11.58-14.3c-0.93-1.05-1.82-3.03-0.48-4.08
				c1.84-1.44,3.07,0.69,3.97,1.83c3.72,4.65,7,9.58,11.62,13.58c5.23,4.52,10.63,8.46,17.15,10.87
				c11.65,4.31,11.06,13.03,6.23,21.58c-5.86,10.36-7.81,21.55-8.37,33.36c-0.87,18.36,0.2,36.94-4.66,54.94
				c-1.64,6.06-4.25,11.83-6.06,17.87c-1.28,4.27-5.51,6.59-8.82,9.24c-3.45,2.77-4.79,5.68-3.57,9.94
				C1160.98,649.93,1161.04,652.09,1159.78,654.57z"/>
			<path d="M790.05,1074.65c5.25-3.05,10.13-3.82,15.08-3.8c17.72,0.08,34.98-4.33,52.6-5.18c6.14-0.3,12.25-1.16,18.36-1.93
				c2.62-0.33,4.18,0.88,5.2,2.96c1.98,4.05,5.13,4.65,9.44,4.64c12.96,0,25.83-1.47,38.67-2.56c23.04-1.95,46.13-2.5,69.18-3.86
				c5.76-0.34,11.45-1.94,17.16-2.99c1.14-0.21,2.24-0.7,3.39-0.81c1.49-0.14,3.53-0.16,3.68,1.62c0.14,1.65-1.91,1.49-3.15,1.59
				c-20.72,1.63-41.32,5.02-62.12,5.13c-16.2,0.09-32,3.86-48.15,4.03c-7.76,0.08-15.51,0.77-23.26,1.13
				c-3.5,0.16-6.5-0.39-8.04-4.34c-1.06-2.72-3.62-4.16-6.55-3.26c-6.47,1.99-13.22,1.42-19.78,2.46
				c-18.18,2.88-36.29,6.3-54.8,6.25c-1.5,0-3-0.03-4.49-0.13C792.01,1075.57,791.58,1075.27,790.05,1074.65z"/>
			<path d="M773.06,1077.06c3.82,0.06,7.34-3.28,6.88-6.55c-0.16-1.16-0.34-2.44-1.62-2.88c-1.37-0.48-2.03,0.61-2.8,1.53
				c-4.1,4.94-3.39,4.15-7.73,0.04c-4.17-3.95-6.51-10.49-13.46-11.21c-1.12-0.11-1.86-1.02-1.18-2.16c0.78-1.3,2.12-1.64,3.48-0.99
				c6.75,3.26,13.86,4.79,21.35,5.01c2.58,0.08,5.28,0.84,7.37,2.71c1.77,1.57,2.74,3.45,1.41,5.74c-0.88,1.52-1.22,3.06-0.97,4.78
				c0.12,0.8,0.48,1.99-0.37,2.3c-7.58,2.75-12.61,10.07-20.84,11.64c-1.23,0.24-2.63,1.48-3.57-0.05
				c-0.75-1.22,0.72-2.04,1.34-2.96C765.22,1079.77,769.49,1077,773.06,1077.06z"/>
			<path d="M1007.25,669.23c-1.56,17.51,2.63,33.54,10.56,49.32c5.42,10.78,11.87,20.59,19.18,30c0.84,1.08,1.84,2.43,0.43,3.46
				c-1.25,0.92-1.98-0.62-2.68-1.47c-7.42-8.94-14.62-18.05-19.92-28.46c-2.23-4.38-6.47-7.15-8.66-11.56
				c-1.05-2.12-2.72-4.42-1.99-6.54c2.93-8.45-1.27-16.38-1.33-24.58c-0.03-3.72,0.17-7.32,1.48-10.8c0.39-1.03,0.85-2.44,2.37-2
				C1007.9,666.95,1007.57,668.19,1007.25,669.23z"/>
			<path d="M1036.78,606.14c3.23-3.75,7.42-3.56,11.25-4.12c1.64-0.24,2.48,1.2,3.23,2.63c1.98,3.77,5.2,4.97,9.14,3.51
				c2.18-0.81,4.12-0.78,6.28-0.03c5.42,1.89,10.97,2.48,16.73,1.87c12.76-1.37,22.65,4.74,31.77,12.64
				c1.12,0.97,2.56,2.38,0.94,3.71c-1.49,1.23-2.1-0.87-3.04-1.63c-9.55-7.75-19.21-15.17-32.81-11.43
				c-1.22,0.34-2.64,0.01-3.97-0.08c-6.75-0.5-13.12-3.58-20.38-0.26c-4.5,2.06-9.41-2.21-13.47-4.64
				C1040.72,607.24,1038.99,607.12,1036.78,606.14z"/>
			<path d="M1101.53,561.96c14.02-4.47,28.23-8.41,41.98-13.57c9.7-3.64,19.51-7.52,27.78-14.19c1.05-0.85,2.31-2.94,3.68-1.57
				c1.67,1.67-0.64,3.05-1.64,3.99c-1.91,1.8-4.1,3.46-6.44,4.64c-10.97,5.56-21.65,11.82-33.98,14.18
				c-8.32,1.59-16.28,4.75-24.71,5.95c-2.22,0.32-4.44,0.66-6.66,0.99C1101.54,562.24,1101.54,562.1,1101.53,561.96z"/>
			<path d="M1040.68,622.86c2.86-2.4,4.72-2.21,6.41-1.96c14.56,2.16,29.44,2.8,43.38,8.13c5.4,2.06,9.79,6.23,15.4,8
				c0.76,0.24,1.54,0.94,1.31,1.87c-0.33,1.31-1.57,1.15-2.47,0.92c-2.57-0.66-5.66-0.81-7.54-2.38
				c-11.58-9.66-25.83-9.44-39.55-11.13C1052.21,625.63,1047.56,622.57,1040.68,622.86z"/>
			<path d="M1182.7,511.49c-10.12-2.55-18.96,5.05-28.98,3.29c0.2-2.03,1.68-1.49,2.63-1.68c2.92-0.59,5.95-0.81,8.78-1.67
				c1.86-0.56,4.7-0.58,4.67-3.61c-0.02-2.95-2.76-2.83-4.61-3.75c-4.45-2.2-9.32-3.66-13.08-7.12c-0.83-0.77-1.99-1.63-1.04-2.9
				c0.75-1,1.9-0.44,2.72,0.05c5.82,3.44,12.13,6.02,17.6,10.13C1174.9,506.85,1179.97,506.88,1182.7,511.49z"/>
			<path d="M874.61,1105.57c-0.1,1.46-0.69,1.83-1.33,1.9c-7.43,0.81-14.86,1.78-22.35,0.91c-3.61-0.42-5.82-1.79-3.61-5.85
				c1.17-2.16-0.32-4.56,0.6-7.08c2.82,1,2.57,3.4,2.54,5.33c-0.07,4.41,1.64,5.68,6.12,5.14
				C862.52,1105.22,868.6,1104.46,874.61,1105.57z"/>
			<path d="M1150.88,470.66c-5.1-2.68-6.87-7.07-9.75-10.27c-3.97-4.41-7.16-9.54-11.53-13.67c-0.81-0.77-1.77-1.83-0.87-3.02
				c0.83-1.09,1.97-0.39,2.55,0.33c6.33,7.8,15.31,13.48,18.81,23.53C1150.31,468.15,1150.42,468.8,1150.88,470.66z"/>
			<path d="M1207.69,508.98c0.77,0.29,2.18,0.4,2.84,1.16c4.57,5.23,10.85,4.98,16.9,5.61c2.15,0.23,5.64-0.34,5.17,2.98
				c-0.51,3.65-3.53,1.28-5.62,1.18c-7.81-0.38-14.04-5.88-21.74-6.55c-1.1-0.1-2.69-0.4-2.07-2.02
				C1203.83,509.63,1205.64,509.3,1207.69,508.98z"/>
			<path d="M1262.19,452.85c1.04,0.33,2.42,0.53,3.55,1.18c3.29,1.89,6.57,1.98,10.06,0.62c3.43-1.34,7.24,1.65,10.68-0.74
				c0.14-0.09,1.15,0.64,1.33,1.14c0.3,0.82-0.06,1.7-0.92,2.07c-1.37,0.58-2.77,1.42-4.19,1.48c-7.19,0.3-14.78,3.13-21.11-2.93
				c-0.61-0.59-1.32-1.07-1.18-2.02C1260.54,452.77,1261.26,452.78,1262.19,452.85z"/>
			<path d="M1083.86,601.83c-0.37,0.61-0.44,0.85-0.53,0.86c-8.61,0.88-17.13,3.5-25.9,1.6c-1.44-0.31-4.03-0.16-3.47-2.46
				c0.49-2,2.75-1.43,4.28-0.83c3.41,1.34,6.7,0.97,10.2,0.21C1073.44,600.12,1078.56,599.62,1083.86,601.83z"/>
			<path d="M1044.15,594.61c-5.89-0.12-7.39,6.51-12.71,7.28c-0.64,0.09-1.24,0.58-1.87,0.62c-2.68,0.17-6.93,1.85-7.48-1.13
				c-0.57-3.12,3.77-2.51,6.2-2.74c3.75-0.35,6.43-3.3,10.06-3.91c1.73-0.29,3.4-0.99,5.09-1.51
				C1043.68,593.69,1043.91,594.15,1044.15,594.61z"/>
			<path d="M1152.98,529.89c-3.31-0.98-6.41,1.85-9.95,3c-1.43,0.46-3.46,2.01-4.16-0.24c-0.52-1.67,1.77-1.99,3.16-2.3
				c6.93-1.55,13.87-3.03,20.81-4.54c0.97-0.21,2.15-0.54,2.47,0.75c0.3,1.23-0.89,1.65-1.79,1.96
				C1160.37,529.61,1157.21,530.59,1152.98,529.89z"/>
			<path d="M1300.48,539.72c-1.99,0.1-3.98,0.27-5.97,0.26c-1.19-0.01-3.05,0.75-3.2-1.19c-0.11-1.43,1.52-2.37,2.77-2.43
				c4.9-0.21,9.79,0.95,14.73,0.19c0.81-0.13,1.54,0.69,1.31,1.7c-0.26,1.11-1.19,1.64-2.21,1.67c-2.48,0.09-4.96,0.03-7.44,0.03
				C1300.48,539.87,1300.48,539.79,1300.48,539.72z"/>
			<path d="M1254.43,478.29c-3.09,5.35-7.36,9.73-10.42,14.97c-0.4,0.68-1,1.52-1.96,1.09c-1.21-0.54-0.79-1.66-0.57-2.59
				c0.63-2.69,2.47-4.7,4.25-6.6C1248.24,482.48,1250.65,479.58,1254.43,478.29z"/>
			<path d="M1121.31,659.28c-7.89-0.91-16.11,2.37-23.84-1.49C1105.47,657.22,1113.5,655.93,1121.31,659.28z"/>
			<path d="M1088.89,1082.35c-7.62,2.75-15.51,1.02-23.22,1.81C1073.26,1081.58,1081.04,1081.26,1088.89,1082.35z"/>
			<path d="M1189.56,1073.6c3.86-1.39,8.01-1.71,11.62-3.93c1.24-0.76,3.3-0.43,3.88,1.17c0.72,1.99-1.17,2.66-2.61,2.75
				C1198.21,1073.83,1193.98,1075.21,1189.56,1073.6z"/>
			<path d="M1164.69,1072.88c1.92,0.24,4.72-0.23,4.57,2.49c-0.16,2.84-3.08,2.36-5.13,2.49c-1.97,0.12-4.01-0.53-3.96-2.71
				C1160.23,1072.17,1162.89,1073.07,1164.69,1072.88z"/>
			<path d="M1270.3,524.34c-0.21,0.91-0.85,1.31-1.48,1.17c-3.39-0.78-6.64-1.92-9.04-4.63c-0.47-0.54-0.43-1.3,0.21-1.72
				c0.36-0.24,1.02-0.41,1.36-0.24c2.8,1.38,5.57,2.81,8.3,4.3C1270,523.41,1270.12,524.02,1270.3,524.34z"/>
			<path d="M1048.91,1059.59c7.1-3.02,13.57-0.95,19.91-1.25C1062.47,1058.45,1056.33,1061.97,1048.91,1059.59z"/>
			<path d="M1144.24,488.81c-0.1,0.86-0.69,1.03-1.41,1.01c-1.69-0.05-7.67-5.19-7.69-6.62c-0.01-0.72,0.17-1.27,1.07-1.31
				c1.17-0.05,7.79,5.24,7.99,6.44C1144.23,488.49,1144.23,488.65,1144.24,488.81z"/>
			<path d="M1294.38,461.13c-1.62,1.78-3.47,3.56-6.26,3.88c-1.08,0.13-2.3-0.47-1.86-1.59c0.95-2.41,3.2-3.63,5.55-4.36
				C1292.92,458.71,1294.07,459.26,1294.38,461.13z"/>
			<path d="M775.18,1096.9c6.1-0.44,12.2-0.89,18.3-1.33c0.02,0.45,0.05,0.91,0.07,1.36
				C787.44,1098.03,781.24,1097.56,775.18,1096.9z"/>
			<path d="M1392.33,578.75c-1.73-0.34-3.17-1.01-2.95-2.84c0.24-2,1.07-3.95,3.43-4.22c1.45-0.16,2.1,1.12,1.83,2.33
				C1394.24,575.74,1394.92,578.17,1392.33,578.75z"/>
			<path d="M1208.47,1050.27c-1.76-0.27-4.84,0.17-4.58-1.74c0.4-2.95,3.78-1.53,5.87-1.95c1.54-0.31,4.01-0.54,3.68,1.76
				C1213.07,1050.88,1210.2,1049.74,1208.47,1050.27z"/>
			<path d="M1131.27,478.05c-0.06,1.33-0.79,2.05-1.53,1.37c-2.16-1.99-4.55-3.85-5.92-6.53c-0.5-0.98,0.29-1.78,1.22-1.33
				C1127.98,472.96,1129.35,475.92,1131.27,478.05z"/>
			<path d="M1289.78,502.96c-3.75-1.86-7.67-0.93-11.7-1.34C1283.1,498.36,1285.72,498.66,1289.78,502.96z"/>
			<path d="M1325.65,452.31c1.74,0.81,4.34,0.37,4.59,2.98c0.18,1.79-1.45,1.92-2.78,1.83c-2.11-0.13-3.17-1.71-3.65-3.43
				C1323.41,452.26,1324.76,452.37,1325.65,452.31z"/>
			<path d="M1190.25,1046.16c1.46,0.23,3.35,0.02,3.06,2.26c-0.19,1.5-1.56,2.07-2.98,2.06c-1.64-0.01-3.18-0.83-3.31-2.41
				C1186.83,1045.79,1188.97,1046.47,1190.25,1046.16z"/>
			<path d="M1210.59,450.65c0.58-0.9,0.64-1.11,0.75-1.15c2.62-0.84,5.19-1.13,7.3,1.13c0.23,0.25,0.22,1.21,0.04,1.31
				C1215.73,453.46,1213.52,451.26,1210.59,450.65z"/>
			<path d="M1203.6,450.28c-1.5-0.65-3.95,0-4.32-2.35c-0.25-1.61,1.4-1.58,2.5-1.42c1.75,0.26,3.96,0.41,4.36,2.49
				C1206.48,450.72,1204.73,450.25,1203.6,450.28z"/>
			<path d="M1401.83,397.65c2.09,4.36,0.33,7.2-0.17,10.08c-0.05,0.29-0.77,0.63-1.19,0.65c-0.83,0.04-1.24-0.72-1.1-1.34
				C1400.01,404.29,1400.79,401.57,1401.83,397.65z"/>
			<path d="M1291.01,436.9c0.1-0.5,0.08-0.72,0.17-0.8c2.3-1.95,4.9-1.32,7.43-0.72c0.77,0.18,0.69,1.3,0.15,1.6
				C1296.15,438.44,1293.55,438.2,1291.01,436.9z"/>
			<path d="M1072.64,559.5c1.72,0.61,3.88,1.26,4.23,3.36c0.24,1.45-1.55,1.36-2.63,1.2c-1.89-0.27-3.52-1.19-3.81-3.21
				C1070.24,559.57,1071.45,559.42,1072.64,559.5z"/>
			<path d="M1095.41,562.23c-4.19,2.31-7.91,2.02-11.7,0.81C1087.33,561.72,1091.03,561.68,1095.41,562.23z"/>
			<path d="M1401.35,418.63c0.08,1.32-0.15,2.51-1.6,2.65c-1.77,0.17-2.13-1.25-2.22-2.59c-0.08-1.28-0.19-3.02,1.46-3.16
				C1400.95,415.38,1400.88,417.39,1401.35,418.63z"/>
			<path d="M1142.68,1047.51c3.88-1.52,6.71-1.51,9.58-0.34C1149.48,1048.22,1146.67,1048.55,1142.68,1047.51z"/>
			<path d="M1128.45,659.69c2.11,0.72,4.24,1.39,6.33,2.18c0.63,0.24,1,0.94,0.62,1.64c-0.36,0.68-1.06,0.8-1.68,0.45
				c-1.86-1.05-3.67-2.16-5.51-3.24C1128.29,660.38,1128.37,660.03,1128.45,659.69z"/>
			<path d="M1178.93,296.91c0.08,1.77-6.52,11.21-8.02,11.69c-2.03,0.65-2.75-0.58-2.86-2.27c-0.22-3.27,4.53-9.95,7.64-10.87
				C1177.34,294.97,1178.65,295.13,1178.93,296.91z"/>
			<path d="M1165.78,339.65c1.9,1.36,4.62,2.96,4.58,5.43c-0.03,2.11-3.06,4.01-5.07,3.59c-3.3-0.69-0.56-4.48-2.21-6.59
				C1162.33,341.12,1163.98,339.9,1165.78,339.65z"/>
			<path d="M1163.46,369.57c-3.92-0.13-7.76-1.27-11.64,0.03c-0.72,0.24-1.79,0.15-1.89-0.96c-0.08-0.92,0.72-1.41,1.47-1.75
				C1155.98,364.82,1159.92,366.15,1163.46,369.57z"/>
			<path d="M1128.4,299.84c-0.53,1.7-0.37,4.15-2.83,4.49c-1.74,0.24-1.82-1.54-1.89-2.82c-0.11-2.18,1.25-3.31,3.17-3.69
				C1128.26,297.54,1128.34,298.7,1128.4,299.84z"/>
			<path d="M1148.15,353.01c-1.08-0.03-2.42-0.05-2.27-1.32c0.22-1.81,1.66-2.83,3.45-2.94c1.32-0.08,2.27,0.89,2.14,2.17
				C1151.27,352.88,1149.5,352.79,1148.15,353.01z"/>
			<path d="M1148.68,331.71c-1.57-0.03-2.56-0.78-2.6-2.36c-0.03-1.33,0.76-2.17,2.11-2.27c1.59-0.11,2.55,0.72,2.56,2.31
				C1150.77,330.68,1150.05,331.54,1148.68,331.71z"/>
			<path d="M1248.91,851.36c-0.12,1.61-0.89,2.51-2.25,2.29c-1.83-0.3-3.68-1.04-4.15-3.04c-0.32-1.37,1.07-1.44,2.05-1.39
				C1246.35,849.32,1248.31,849.22,1248.91,851.36z"/>
			<path d="M1226.44,327.33c2.27,0.54,3.1,2.28,3.33,4.38c0.15,1.4-0.55,2.48-2.02,1.94c-1.74-0.63-4.22-0.73-4.2-3.49
				C1223.56,328.4,1224.59,327.44,1226.44,327.33z"/>
		</g>
	</g>
	<g>
		<g>
			<path class="st0" d="M1193.71,719.51c-8.58-3.35-16.55-7.67-25.77-8.21c-3.92-0.23-7.7-2.13-10.55-5.21
				c-1.29-1.4-2.75-2.39-4.76-2.35c-5.2,0.1-7.91-3.72-10.9-7.05c-0.7-0.78-1.07-1.79-0.3-2.72c0.96-1.15,2.14-0.71,3.14-0.04
				c0.96,0.65,1.77,1.51,2.69,2.23c11.35,8.92,24.78,12.73,38.56,15.67c2.16,0.46,3.68-0.41,2.53-2.57
				c-1.4-2.62-3.62-5.67-6.88-4.81c-3.89,1.02-6.24-1.25-9.27-2.37c-14.19-5.28-27-13.42-40.78-19.52
				c-2.59-1.14-6.65-2.99-5.23-5.39c1.74-2.96,4.83,0.66,7.12,1.78c12.54,6.12,24.57,13.28,37.45,18.72
				c1.69,0.71,4.02,2.23,5.46,0.08c1.36-2.04-0.74-3.56-1.97-5.12c-4.11-5.21-8.69-10.28-13.41-14.6
				c-3.91-3.59-7.38-7.18-10.87-11.19c-5.25-6.03-12.62-10.04-18.28-15.97c-1.99-2.08-6.1-2.16-9.26-3.1
				c-4.02-1.2-7.39-3.39-10.55-6.39c2.58-1.72,4.39-0.23,6.33,0.54c1.19,0.47,2.84,1.48,3.68,0.22c1.12-1.69-1.06-1.99-1.94-2.76
				c-6.67-5.83-14.42-9.99-22.13-14.23c-2.11-1.16-4.55-1.92-6.02-4.18c1.83-1.73,3.29-0.62,4.67,0.12
				c14.5,7.79,28.87,15.82,41.59,26.37c3.02,2.5,5.14,6.08,7.74,9.1c0.97,1.13,2.23,2.62,3.74,1.87c1.99-0.99,0.14-2.58-0.04-3.91
				c-0.57-4.03-4.78-6.35-5.1-10.63c2.04,0.08,3.09,1.36,3.96,2.77c2.68,4.34,4.82,8.99,10.56,10.56c2.08,0.57,2.29,4.01,1.9,5.81
				c-1.7,7.96,3.6,12.38,8.14,17.09c4.64,4.81,8.72,10.04,12.92,15.21c5.75,7.06,11.73,13.92,19.62,18.91
				c6.45,4.08,12.45,8.88,19.33,12.31c4.65,2.32,6.76,7.23,10.44,10.61c4.93,4.53,10.14,8.64,15.73,12.27
				c10.36,6.73,19.18,15.35,28.83,22.92c6.61,5.19,10.41,10.6,10.54,18.99c0.07,4.33,4.01,6.83,6.87,9.43
				c3.73,3.38,5.73,7.71,8.11,11.88c0.96,1.69,0.74,3.46,0.29,5.32c-5.12,20.8-8.68,41.81-10.73,63.19
				c-1.12,11.61-3.82,23.27-7.72,34.45c-3,8.6-3.2,17.58-4.07,26.52c-0.8,8.23-2.56,16.39-4.35,24.49
				c-2.22,10.05-5.74,19.95-4.73,30.38c1.26,13.06,9.96,29.54,27.19,30.07c8.76,0.27,17.15-1.48,25.62-2.61
				c8.12-1.08,19.57,6.56,20.13,14.7c0.14,2.06-0.47,3.29-2.15,4.58c-11.73,9.04-24.88,15.37-38.91,19.71
				c-9.56,2.96-19.66,3.24-29.58,4.26c-7.42,0.77-14.87,1.81-22.34,0.22c-0.63-0.13-1.49-0.23-1.96,0.08
				c-7.94,5.28-17.28,2.09-25.79,4.27c-7.04,1.8-10.56-2.88-7.83-9.56c4.86-11.88,7.81-24.16,9.66-36.88
				c1.68-11.6,3.95-23.19,3.5-34.88c-0.71-18.35-2.91-36.51-8.27-54.31c-2.58-8.57-5.44-17.29-6.11-26.41
				c-0.16-2.23,0.62-3.14,2.85-2.75c4.07,0.7,4.2,5.36,7.16,7.18c0.03,0.02-0.32,0.81-0.59,1.16c-2.86,3.64-1.83,8,2.55,9.51
				c1.96,0.68,3.06,1.65,3.8,3.5c0.89,2.23,2.88,2.66,5,2.29c2.72-0.48,3.42-1.86,1.52-4.12c-0.32-0.38-0.75-0.7-0.98-1.13
				c-1.08-2.03-5.74-1.41-4.52-4.26c1.12-2.62,3.74-4.99,6.69-6.39c0.97-0.46,2.69-0.23,2.53-1.84c-0.16-1.53-1.64-1.96-2.98-2.24
				c-1.29-0.27-2.52-0.37-3.4-1.71c-4.08-6.23-4.79-6.29-10.16-0.73c0.69-3.47,1.18-6.15-1.64-8.64c-2.3-2.03-3.27-1.58-4.61,0.47
				c-0.67,1.02-0.66,2.94-2.54,2.45c-1.48-0.38-1.75-1.95-1.97-3.23c-0.98-5.57-2.14-11.16,0.03-16.74c0.24-0.62,0.51-1.3,0.48-1.93
				c-0.11-1.88,1.78-4.37-0.36-5.51c-2.26-1.2-3.15,1.78-4.62,2.92c-0.76,0.59-1.23,1.55-1.82,2.35c-2.84,3.89-5.12,4.06-8.49,0.68
				c-4.59-4.59-7.57-10.46-12.27-15.03c-10.23-9.95-19.6-20.75-30.07-30.48c-6.91-6.42-11.39-15.06-19.13-20.8
				c-12.86-9.53-27.38-15.52-42.31-20.87c-5.15-1.85-8.13-2.54-13.73,1.5c-12.96,9.36-23.52,20.4-32.66,33.25
				c-5.97,8.39-10.94,17.94-19.07,24.26c-17.59,13.69-31.9,30.97-50.12,44.04c-10.59,7.6-20.94,15.8-30.81,24.53
				c-4.23,3.74-9.33,7.23-14.93,9.54c-7.74,3.19-14.33,8.36-21,13.34c-6.65,4.95-13.28,9.71-18.77,16.22
				c-6.14,7.29-10.13,6.09-13.96-2.82c-2.77-6.44-2.76-6.34-7.63-1.27c-6.98,7.28-15.83,12.19-24.25,17.38
				c-17.14,10.54-34.8,20.23-52.38,30.03c-5.17,2.88-11.12,4.46-14.41,10.04c-0.32,0.55-1.47,0.75-2.26,0.85
				c-9.9,1.26-16.77,8.26-24.95,12.82c-5.12,2.85-8.19,7.05-11.37,11.43c-4.39,6.04-2.76,11.11,4.27,13.36
				c1.91,0.61,3.48,1.29,3.63,3.5c0.16,2.33-0.71,4.21-2.75,5.5c-1.83,1.15-3.74,2.22-5.38,3.6c-1.69,1.42-3.82,1.79-5.75,2.85
				c4.38,1.29,8.58,1.29,12.83-0.25c1.43-0.52,3.68-1.69,4.36,0.42c0.74,2.32-1.75,2.18-3.27,2.61c-4.54,1.29-4.98,2.57-1.96,5.85
				c1.04,1.13,2.22,2.14,1.68,3.86c-0.6,1.9-2.32,2.38-3.97,2.52c-4.64,0.4-9.3,0.65-13.95,0.9c-2.33,0.12-4.72-0.19-6.98,0.22
				c-2.06,0.37-5.67-0.54-5.6,2.45c0.06,2.15,3.07,3.76,5.63,4.19c3.2,0.54,6.35-0.26,9.32-1.31c4.8-1.7,9.83-1.71,14.75-2.48
				c1.58-0.25,3.34-0.34,5.23,1.7c-5.68,1.18-10.4,3.96-15.87,4.57c-1.47,0.16-2.94,0.56-4.36,1.01c-0.92,0.3-2.08,0.78-1.92,1.97
				c0.16,1.18,1.38,1.34,2.37,1.35c3.46,0.05,6.92,0.02,10.39,0.52c-14.49,1.11-29.01,0.92-44.06,2.23c0.88-2.9,5.38-4.2,2.08-6.79
				c-3.06-2.39-8.17-4.72-10.46-1.95c-4.16,5.03-9.63,3.6-14.35,4.91c-7.87,2.18-16.19,1.74-24.34,1.34
				c-7.69-0.37-9.18-3.24-6.79-10.43c1.53-4.6,3.96-8.27,7.3-11.68c3.67-3.74,5.56-8.67,7.43-13.48c1.05-2.71,2.48-5.1,4.72-6.93
				c15.18-12.41,28.75-26.53,42.94-40.01c7.05-6.7,12.94-14.25,19.49-21.29c9.53-10.26,16.89-22.11,25.07-33.37
				c9.15-12.6,18.78-24.69,30.13-35.63c11.06-10.65,23.35-19.1,36.2-27.09c3.23-2.01,7.21-2.53,9.94-5.57
				c2.37-2.65,2.74-4.52-0.38-6.94c-4.36-3.38-4.06-5.66,0.78-8.58c2.77-1.67,4.84-4.05,7.1-6.26
				c13.03-12.69,23.8-27.23,34.72-41.69c8.76-11.6,15.05-24.71,23.08-36.73c3.85-5.77,8.8-10.83,11.21-17.5
				c5.16-14.27,14.01-26.33,22.85-38.41c5.6-7.66,8.85-16.37,11.14-25.47c3.89-15.49,7.67-31,11.57-46.48
				c1.65-6.56,7.02-10.79,10.6-16.13c5.78-8.63,13.74-15.77,17.52-25.78c0.22-0.6,0.69-1.18,1.19-1.58
				c4.04-3.26,5.75-6.04-0.76-8.59c-2.37-0.93-1.86-3.62-1.33-5.8c1.08-4.44,3.4-8.38,5.86-12.06c4.35-6.52,4.86-13.42,2.89-20.55
				c-0.92-3.33-0.5-5.61,1.81-8.1c7.91-8.56,11.03-19.22,13.82-30.3c3.05-12.05,5.35-24.33,9.81-36.04
				c4.4-11.54,4.56-24.29,9.15-35.74c5.55-13.85,11.16-27.75,19.53-40.25c2.92-4.36,7.29-7.27,11.54-10.18
				c2.35-1.61,4.72-3.15,6.41-5.49c6.02-8.36,13.99-14.92,22.28-20.47c6.08-4.07,12.65-7.82,18.66-12.01
				c11.48-8.02,24.9-15.14,24.9-32.25c0-1.49,0.35-3.18-0.21-4.44c-3.88-8.72-4.72-18.31-8-27.19c-2.18-5.88-2.28-11.54-0.51-17.95
				c5.09-18.42,16.13-32.51,30.41-44.28c9.23-7.6,20.72-8.53,32.18-7.73c9.43,0.66,17.86,5.31,26.34,8.81
				c5.61,2.32,9.88,8.16,14.4,12.77c6.07,6.19,12.1,12.64,14.16,21.38c2.47,10.5,4,21.18,1.72,31.95c-0.59,2.76-0.8,5.17,0.76,7.64
				c4.3,6.8,5.08,13.93,1.77,21.39c-5.01,11.29-6.66,23.64-11.19,35.11c-2.82,7.15-12.99,13.85-20.52,12.41
				c-2.22-0.42-3.78,0.11-5.5,1.39c-1.99,1.48-4.18,2.73-6.41,3.81c-2.84,1.38-5.49,1.49-7.05-2.03c-0.46-1.03-1.18-2.41-2.56-1.55
				c-1.18,0.73-0.94,2.38-0.03,3.07c4.69,3.58,6.65,10.76,14.12,10.75c0.88,0,1.93,0.7,2.6,1.38c6,5.99,13.57,9.59,21.55,10.83
				c11.04,1.73,21.19,8.09,32.86,6.19c1.96-0.32,4.05-0.26,5.89-0.92c21.38-7.66,43.57-6.86,65.72-6.41
				c14.44,0.3,28.88,1.04,43.27-1.09c8.27-1.23,10.26-3.62,9.58-11.77c-0.14-1.63-0.2-3.43,0.34-4.92c3.7-10.2,3.9-20.84,3.94-31.45
				c0.02-6.23,1.24-11.79,5.11-16.82c4.14-5.39,7.42-11.41,12.15-16.4c1.61-1.7,3.19-3.41,5.12-4.69c2.13-1.42,4.47-1.25,6.61,0.13
				c2.16,1.39,2.35,3.45,1.72,5.74c-1.02,3.65-1.33,7.42-3.35,10.88c-1.93,3.31-1.75,6.82,2.43,8.82c1.44,0.69,2.5,1.66,2.7,3.33
				c1.41,11.4,2.96,22.81-0.56,34.12c-1.09,3.51-0.54,6.97,0.2,10.37c2.84,13.07-0.36,24.91-6.64,36.35
				c-2.94,5.36-7.16,7.2-12.81,6.34c-4.75-0.72-9.2,0.17-13.78,1.32c-7.62,1.91-15.49,2.92-23.06,5
				c-6.71,1.85-13.07,4.96-19.75,6.94c-12.28,3.62-24.48,7.44-36.62,11.47c-2.85,0.95-6.47,1.65-5.48-3.75
				c0.2-1.1-0.47-1.89-1.47-2.35c-1.19-0.54-2.8-0.88-1.66-2.75c0.95-1.55,2.74-2.92,4.12-1.73c4.22,3.63,9.42-2.02,13.42,1.77
				c4.68-6.18,12.27-3.31,18.1-5.86c1.55-0.68,3.02-1.28,4.69-1.53c2.7-0.4,6.54-0.16,2.94-4.65c-0.26-0.32-0.03-1.33,0.3-1.77
				c0.58-0.76,1.64-0.7,2.26-0.18c4.32,3.59,7.4,1.5,11.41-1.22c2.71-1.84,7.01-2.89,10.84-1.08c1.43,0.67,3.17,1.28,3.89-0.55
				c1.3-3.31,3.39-2.52,6.05-2.12c3.79,0.57,7.56,1.21,10.54-3.17c1.68-2.46,5.84-1.93,8.9-1.05c2.67,0.77,5.28,0.57,7.92,0.42
				c0.94-0.05,2.22-0.26,2.73-0.9c6.65-8.2,12.57-16.83,10.3-28.16c-1.64-8.17-1.83-16.09,0.59-24.17
				c1.54-5.14,1.68-10.54-0.19-15.76c-0.49-1.37-0.83-3.3-2.67-3.16c-1.92,0.14-2.64,1.98-2.78,3.68c-0.16,1.97-0.1,3.98,0.12,5.95
				c0.37,3.38,0.19,6.66-1.23,9.78c-0.51,1.13-1.47,1.9-2.79,1.64c-1.42-0.28-1.94-1.49-1.56-2.67c3.05-9.7,1.37-19.73,2.15-29.59
				c0.34-4.22,1.23-8.22,3.8-11.72c0.57-0.77,0.9-1.8,1.09-2.76c0.35-1.73,1.57-4.11-0.39-5.02c-2.51-1.17-2.5,1.92-3.42,3.22
				c-3.04,4.34-5.96,8.64-7.81,13.81c-2.27,6.32-0.83,12.68-1.76,18.95c-1.05,7.04-1.01,13.99-3.19,21.17
				c-2.22,7.34-7.98,13.96-6.39,22.55c0.57,3.05-1.67,5.16-4.92,4.84c-5.5-0.54-10.95,1.08-16.45,0.08
				c-2.34-0.42-4.55,0.54-6.74,1.47c-5.29,2.24-10.29,3.76-15.9-0.24c-3.15-2.25-7.79-0.81-11.75-0.87
				c-16.98-0.25-33.94,0.38-50.86,1.89c-2.51,0.22-4.93,0.63-7.3,1.52c-6.88,2.58-13.93,4.52-21.22,5.6
				c-6.51,0.97-7.61,2.94-5.13,8.83c0.25,0.6,0.77,1.47,0.54,1.84c-5,8.18,3.43,10.22,6.95,13.7c3.66,3.61,8.21,6.78,13.22,8.8
				c1.83,0.74,3.09,1.84,3.39,3.92c0.21,1.53,0.69,3.02,2.58,3.2c1.79,0.17,3.26-0.45,4.23-2.07c2.34-3.91,4.79-6.63,8.84-1.55
				c0.95,1.2,2.84,0.76,4.31,0.43c2.63-0.6,4.43,0.32,4.69,2.98c0.28,2.89-1.89,3.53-4.25,3.71c-2.98,0.22-5.95,0.5-8.93,0.68
				c-1.71,0.1-2.83,0.89-3.35,2.49c-0.52,1.62-0.04,2.93,1.35,3.93c1.48,1.06,2.79,2.56,4.44,3.19
				c15.34,5.84,29.04,14.78,42.83,23.36c14.38,8.94,28.68,18.02,43.2,26.74c2.83,1.7,3.92,4.99,7.29,6.51
				c9.18,4.14,18.74,4.83,28.37,3.84c8.81-0.9,14.53,2.71,17.99,10.19c2.34,5.05,5.6,9.43,8.65,13.97
				c2.35,3.49,2.48,13.87,0.1,17.07c-1.92,2.58-5.5,1.87-7.64-1.86c-1.73-3.02-3.14-6.19-5.31-8.99c-1.48-1.92-3.3-3.58-5.35-2.31
				c-2.36,1.46-0.2,3.44,0.56,5.18c1.33,3.02,2.9,5.89,3.53,9.27c0.81,4.36,4.7,6.7,7.8,9.41c3.63,3.17,7.44,6.14,11.24,9.11
				c4.53,3.55,5.36,8.62,5.75,13.84c0.12,1.53-0.55,2.97-2.14,3.65c-1.83,0.77-3.19-0.09-4.46-1.32c-1.04-1-2.26-2.88-3.64-1.65
				c-1.7,1.51,0.17,2.99,1.25,4.12c3.05,3.17,3.31,6.7,0.55,9.84c-2.95,3.35-5.89,1-8.84-0.78c-6.79-4.11-14.11-6.56-22.17-6.48
				c-8.05,0.09-10.74-2.43-13.27-9.86c-3.23-9.48-7.27-18.69-12.86-27.09c-1.68-2.53-2.51-5.26-3.37-8.18
				c-1.83-6.24-4.76-12.32-11.73-14.19c-9.7-2.6-18.31-8.04-27.9-10.61c-12.67-3.4-25.08-7.9-38.1-9.84
				c-18.92-2.82-36.57-8.17-49.95-22.97c-0.87-0.96-2.04-1.74-3.21-2.33c-3.32-1.7-6.3-3.23-0.21-5.32c1.15-0.4,1.56-1.7,1.73-2.88
				c1.07-7.32,5.28-12.85,10.41-17.71c3.87-3.67,6.61-8.4,10.96-11.59c1.18-0.86,2.48-2.48,3.89-1.36c1.77,1.41-0.31,2.54-0.97,3.72
				c-2.77,5.04-6.9,8.91-11.07,12.71c-3.52,3.22-5.99,7.2-8.01,11.36c-3.13,6.44-2.47,8.61,3,13.42
				c8.27,7.27,17.85,12.97,28.41,14.89c6.37,1.16,12.43,4.21,19.49,3.44c7.29-0.8,14.12,3.33,21.2,5.13
				c1.29,0.33,2.53,0.91,3.83,1.1c1.95,0.28,3.99-0.12,4.36-2.31c0.4-2.36-1.9-2.25-3.42-2.71c-1.86-0.57-4.05-0.05-5.84-1.97
				c2.18-2.42,4.91-2.53,7.53-1.6c6.49,2.3,12.81,5.17,19.95,4.7c0.75-0.05,1.19,0.22,1.43,1c1.87,5.91,6.64,6.14,11.5,5.44
				c3.15-0.45,5.43,1.23,8.04,2.17c0.96,0.34,1.96,0.91,1.56,2.14c-0.38,1.16-1.62,1.31-2.53,1c-8.21-2.8-17.27-2.27-25.15-6.43
				c-2.23-1.18-4.68-1.78-7.25-1.52c-1,0.1-2.14,0.26-2.42,1.38c-0.29,1.19,0.65,1.82,1.64,2.12c8.13,2.49,15.57,6.71,23.5,9.6
				c4.13,1.51,8.83,1.5,13.21-0.37c1.83-0.78,3.76-1.39,5.7-1.8c1.86-0.39,3.82-0.14,4.75,1.83c0.99,2.12-0.82,2.92-2.23,3.79
				c-2.32,1.44-1.99,2.47,0.49,3.09c2.89,0.73,4.91,2.69,3.49,5.36c-1.73,3.25,0.01,4.58,1.98,6.13c2.32,1.83,4.93,2.72,7.84,1.49
				c2.58-1.09,6.62,1.48,6.59,4.29c-0.01,0.95-0.62,1.97-1.44,1.35c-4.65-3.5-9.18,2.63-13.98-0.02c-1.55-0.86-2.4,1.46-2.07,3.02
				c0.57,2.71,2.8,3.33,5.02,2.71c1.89-0.53,3.62-1.76,5.71-1.36c2.69,0.52,5.65,1.07,2.15,4.51c-0.88,0.87-1.29,2.24-0.04,2.1
				c6.14-0.67,5.77,4.31,7.18,7.78c0.34,0,0.71,0.11,0.97-0.02c2.38-1.14,3.04-5.46,5.98-4.67c5.85,1.58,12.12,2.45,16.93,6.75
				c1.61,1.44,3.14,2.99,4.76,4.42c1.04,0.91,2.35,1.6,3.6,0.6c1.4-1.12,0.46-2.51-0.18-3.6c-2.87-4.94-7.8-8-12.33-10.62
				c-5.13-2.96-6.98-7.49-8.76-12.06c-2.45-6.29-3.8-12.99-5.65-19.51c-0.47-1.66,0.29-2.55,1.74-3.03
				c1.65-0.54,3.41-2.07,4.96-0.01c1.69,2.25,4.21,3.84,5.15,6.68c0.31,0.93,0.83,1.82,1.4,2.63c1.72,2.45,3.7,5.87,6.98,3.35
				c2.89-2.22,1.32-5.48-0.91-7.87c-3.78-4.08-6.23-9.02-9.11-13.69c-2.63-4.26-6.26-6.74-11.52-6.52
				c-7.97,0.32-15.91-0.76-23.91-0.37c-4.25,0.2-7.95-2.41-11.12-5.15c-11.39-9.87-24.31-17.26-37.31-24.77
				c-9.72-5.62-18.56-12.86-28.53-18.24c-8.57-4.63-16.38-10.96-26.59-11.99c-2.62-0.26-4.17-1.84-4.78-4.4
				c-0.76-3.2-2.62-5.64-5.06-7.82c-3.7-3.31-7.23-6.68-10.14-10.89c-4.31-6.23-16.56-6.56-23.2-1.27c-3,2.39-5.81,4.98-7.76,8.39
				c-0.8,1.41-1.68,2.91-3.73,3.29c-0.1-0.45-0.42-1.07-0.25-1.26c5.44-6.25,9.26-14.4,18.7-15.99c1.3-0.22,2.79-0.47,3.17-2.02
				c0.37-1.54-0.88-2.45-1.84-3.3c-4.42-3.91-9.98-3.24-15.18-3.22c-4.43,0.02-8.86,1.13-10.4-4.83c-0.15-0.59-1.19-1.21-1.9-1.35
				c-10.42-2.05-19.2-8.04-28.84-11.95c-0.92-0.37-1.81-0.88-2.6-1.48c-1.42-1.07-3.63-2.25-2.18-4.28
				c1.31-1.82,2.86,0.02,4.29,0.77c12.49,6.61,25.12,12.9,38.66,17.13c1.48,0.46,3.51,1.64,4.61-0.07c1.16-1.81-0.82-3.1-2.01-4.05
				c-10.26-8.18-19.16-17.86-29.15-26.33c-6.88-5.83-15.77-7.48-23.72-11.04c-9.78-4.37-20.61-6.03-30.46-10.4
				c-2.51-1.11-5.21-1.01-7.82-1.49c-1.1-0.2-2.57-0.14-2.46-1.8c0.09-1.43,1.4-1.85,2.54-1.97c3.39-0.36,6.64,0.38,9.72,1.76
				c5.32,2.4,10.66,4.74,16.58,5.16c2.54,0.18,4.04,2.2,6.06,3.29c2.04,1.11,4.6,2.7,6.14,0.01c1.39-2.44-0.74-4.14-2.8-5.57
				c-14.97-10.32-32.06-14.36-49.47-18.56c-10.88-2.63-18.56,0.33-26.48,6.02c-12.23,8.8-25.99,15.57-35.59,27.84
				c-2.59,3.32-6.27,6.04-9.95,8.21c-8.47,4.99-11.71,13.77-16.38,21.49c-6.3,10.42-10.99,21.63-13.76,33.46
				c-2.12,9.05-3.43,18.29-6.39,27.15c-4.89,14.65-8.1,29.74-11.64,44.75c-0.79,3.38-1.6,6.79-2.55,10.1
				c-2.73,9.41-0.62,16.52,8.24,21.24c0.72,0.38,1.31,1.02,1.89,1.61c0.19,0.2,0.17,0.6,0.24,0.91c-4.98,0.42-12.1-4.27-14.2-9.39
				c-0.66-1.63-0.48-4.08-2.87-4.15c-2.61-0.08-3.29,2.58-4.29,4.32c-0.68,1.17-0.9,3.07-0.45,4.34
				c3.56,10.11-0.15,18.59-5.71,26.68c-2.46,3.59-1.84,6.46,1.45,9.1c1.81,1.45,3.63,1.26,5.65,0.68
				c5.43-1.57,10.97-2.77,16.12-5.27c2.07-1,4.43-1.44,6.68-2.02c0.91-0.23,2.15-0.51,2.46,0.87c0.29,1.28-0.25,2.44-1.65,2.6
				c-6.93,0.8-12.42,5.57-19.19,6.82c-2.52,0.47-4.6,1.92-6.44,3.65c-1.14,1.07-2.1,2.35-1.11,3.94c0.83,1.34,2.42,1.43,3.59,0.84
				c10.59-5.31,22.28-2.93,33.34-4.9c3.74-0.67,6.94,0.38,9.3,3.49c0.56,0.74,1.79,1.32,1.06,2.48c-0.6,0.95-1.76,0.9-2.73,0.77
				c-10.22-1.35-20.52-0.14-30.7,0.01c-9.37,0.13-19.26,2.14-25.5,11.7c-5.15,7.89-11.75,14.82-17.51,22.34
				c-5.93,7.74-6.2,17.45-8.54,26.4c-3.9,14.95-6.94,30.16-12.89,44.47c-1.84,4.42-2.22,9.09-3.06,13.51
				c-1.93,10.17-8.96,18.14-10.84,28.19c-0.86,4.56-2.27,9.03-3.53,13.5c-0.43,1.52-0.77,3.76-3.03,3.13
				c-2.02-0.56-1.93-2.75-1.35-4.27c3.23-8.39,3.81-17.58,8.01-25.68c1.01-1.95,2.95-5.08,0.8-6.29c-2.64-1.48-3.61,2.28-4.63,4.03
				c-3.25,5.57-6.54,11.13-8.58,17.37c-4.14,12.7-12.6,23.01-19.88,33.9c-5.56,8.31-9.27,17.84-15.83,25.36
				c-8.34,9.55-14.43,20.79-23.22,29.95c-1.04,1.09-2.19,2.43-0.81,3.89c1.19,1.26,2.38,0.05,3.57-0.49
				c11.64-5.3,23.42-10.32,33.54-18.41c0.85-0.68,2.09-1.67,3.09-0.48c1.12,1.32,0.03,2.58-0.92,3.45
				c-3.45,3.15-6.94,6.34-11.17,8.36c-10.64,5.1-20.99,10.9-32.39,14.3c-5.71,1.71-9.68,6.32-14.78,9.09
				c-1.64,0.89-1.17,3.26,0.68,4.07c10.06,4.36,15.27,13.98,22.95,20.89c7.21,6.5,9.96,15.48,12.73,24.27
				c3.11,9.9,7.6,19.08,12.9,27.92c1.07,1.78,2.72,1.5,3.8,0.34c4.77-5.1,10.44-9.28,15.23-14.25c3.1-3.22,3.58-8.64,3.02-13.3
				c-1.44-12.08-2.85-24.14-3.13-36.31c-0.07-2.91-1.89-5.31-2.58-8.05c-0.28-1.13-0.41-2.52,1-2.98c1.47-0.48,1.97,0.78,2.41,1.9
				c2.29,5.75,4.16,11.58,4,17.89c-0.17,6.54,1.61,12.87,2.22,19.32c0.41,4.3,1.36,8.52,0.92,12.91c-0.37,3.75,1.51,5.07,4.3,2.86
				c9.44-7.46,20.92-11.58,30.51-18.62c6.24-4.58,11.91-10,17.96-14.91c7.98-6.48,16.11-12.8,23.98-19.44
				c8.16-6.87,15.34-14.74,23.6-21.47c14.02-11.42,25.17-25.41,35.53-40.1c1.81-2.57,4.05-4.85,5.99-7.33
				c0.59-0.76,1.19-1.87,0.56-2.78c-0.89-1.29-2.12-0.5-3.13-0.01c-4.48,2.2-8.89,4.55-13.4,6.67c-8.76,4.1-18.09,6.53-27.22,9.57
				c-10.38,3.47-20.71,7.24-31.18,10.47c-5.53,1.71-11.3,2.65-16.98,3.85c-1.53,0.32-3.03,0.07-3.94-1.45
				c-0.54-0.91-0.78-1.93,0.06-2.75c1.2-1.17,2.52-0.37,3.74,0.06c1.82,0.64,3.55,0.55,5.35-0.12c11.04-4.13,22.54-6.79,33.74-10.48
				c15.78-5.2,30.94-11.58,45.87-18.74c6.08-2.92,12.43-5.32,18.24-8.79c1.32-0.79,3.42-1.6,2.59-3.65
				c-0.67-1.64-2.63-1.01-4.06-1.05c-7.19-0.2-14.28-1.16-21.2-3.12c-5.72-1.62-11.18-1.17-16.57,1.2c-0.91,0.4-2.05,1.11-2.81,0.85
				c-7.59-2.58-14.94,1.12-22.59,0.75c-10.94-0.53-19.86-4.76-28.81-9.9c-4.82-2.77-8.36-7.11-12.64-10.55
				c-1.17-0.94-2.74-2.06-1.62-3.66c1.31-1.87,2.96-0.71,4.31,0.34c4.59,3.58,8.77,7.64,13.63,10.92
				c11.28,7.61,23.67,10.22,37.04,8.96c1.2-0.11,2.49-0.29,2.84-1.59c0.41-1.56-0.8-2.51-1.94-3.17
				c-5.95-3.41-11.21-7.78-16.37-12.2c-11.06-9.49-22.66-18.62-28.64-32.56c-2.03-4.72-3.62-9.63-5.31-14.49
				c-0.41-1.18-1.17-2.88,0.4-3.56c1.89-0.81,2.38,1.09,3.16,2.34c3.15,5.01,3.97,10.91,6.27,16.25c1.21,2.81,2.58,5.4,4.72,7.56
				c9.08,9.21,17.56,19.13,28.29,26.49c8.57,5.88,17.04,11.56,28.57,11.42c11.91-0.15,23.66,3.7,35.7,3.72c3,0,7.66,1.78,8.49-1.68
				c0.99-4.1-4.07-3.81-6.81-4.73c-15.41-5.16-29.2-13.36-42.56-22.4c-0.55-0.37-1.06-0.81-1.55-1.26
				c-1.18-1.08-3.18-2.11-1.76-3.98c1.24-1.62,2.61-0.01,3.92,0.61c8.74,4.17,15.83,10.93,24.55,15.26
				c9.91,4.92,20.45,7.86,30.76,11.55c2.32,0.83,4.78,1.34,7.05,2.41c1.41,0.66,3.18,1.06,4.12-0.39c1.21-1.86-0.43-3.15-1.8-4.02
				c-5.47-3.49-11.24-6.45-17.24-8.92c-2.52-1.04-4.6-2.64-6.79-4.13c-1.03-0.7-1.45-1.95-0.76-3.1c0.74-1.24,2.06-1.18,3.08-0.51
				c9.25,6.14,22.15,8.4,27.65,18.09c6.46,11.37,18.24,12.39,27.11,18.71c8.2,5.85,17.92,9.25,26.23,15.24
				c8.2,5.91,17.66,9.87,26.83,14.18c2.79,1.32,5.15,2.56,4.47,6.65c-0.51,3.07,3.55,5.34,7.53,3.7
				c11.18-4.61,22.78-8.75,29.7-19.87c1.73-2.78,4.74-4.56,6.4-7.51c0.53-0.94,1.79-1.98,2.93-1.27c1.35,0.84,0.37,2.18-0.21,3.08
				c-10.27,16.13-24.45,26.43-43.71,29.03c-2.39,0.32-4.68-0.05-6.44-1.95c-1.06-1.14-2.88-2-0.05-3.55
				c2.47-1.36,0.6-3.17-0.78-3.73c-9.12-3.66-17.07-9.6-26.16-13.27c-0.93-0.38-2.08-0.65-2.71,0.37c-0.68,1.12,0.39,1.86,1.07,2.5
				c6.33,5.9,12.86,11.6,19.01,17.68c9.88,9.78,20.79,18.61,28.59,30.37c1.4,2.12,3.17,1.73,4.98-0.08
				c11.27-11.24,22.6-22.43,33.99-33.54c1.77-1.72,3.91-3.09,6-4.45c16.13-10.46,27.34-25.06,35.42-42.22
				c2.61-5.54-0.01-12.76-4.87-16.52c-3.01-2.33-5.74-5.06-8.38-7.83c-8.69-9.14-19.42-15.63-29.54-22.9
				c-6.09-4.37-11.9-9.09-16.64-14.98c-3.47-4.31-8.35-6.2-13.5-6.73c-13.4-1.38-26.72-3.86-40.28-3.37
				c-3.21,0.12-6.26-0.88-9.23-1.99c-1.74-0.65-2.9-1.9-1.98-3.87c0.81-1.75,2.41-1.51,3.9-0.98c10.82,3.82,22.09,3.56,33.32,3.65
				C1192.53,719.93,1193.12,719.65,1193.71,719.51z M1177.99,376c-0.99-0.1-1.99-0.13-2.96-0.33c-1.8-0.38-4.15-1.19-4.67,1.13
				c-0.59,2.6-0.91,7.4,0.09,7.82c2.96,1.24,4.82,3.1,6.64,5.46c0.59,0.76,2.54,0.65,2.04-0.56c-1.85-4.5,2.05-9.42-1.27-13.66
				c1.64,0.27,3.73,1.75,4.19-1.35c0.2-1.4-0.26-2.96-1.95-2.82C1177.38,371.93,1178.45,374.43,1177.99,376z M819.35,922.42
				c-1.18-0.19-2.76-0.4-3.04,0.92c-0.94,4.48-3.14,2.83-5.17,1.15c-4.02-3.34-9.2-2.47-13.73-3.93c-1.17-0.38-2.3,0.32-2.66,1.67
				c-0.32,1.19,0.31,2.28,1.4,2.09c7.47-1.35,11.67,3.37,15.97,8.17c1.73,1.93,3.96,1.41,4.96-0.67c1.41-2.93,4.07-5.76,2.15-9.53
				c0.87-1.34,3.9-1.35,2.7-3.89c-1.05-2.23-2.85-3.74-6.17-3.74C817.25,917.49,819.08,919.64,819.35,922.42z M1160.01,321.66
				c2.05-1.15,4.04,2.1,5.28-0.11c2.76-4.9,8.01-7.22,11.28-11.66c4.38-5.96,5.77-6,13.07-3.4c2.01,0.72,3.97,0.62,5.51-1.04
				c0.82-0.88,1.2-2.07,0.67-3.25c-0.54-1.21-1.53-0.91-2.54-0.59c-1.26,0.4-2.75,2.19-3.82,0.12c-0.77-1.5,0.49-2.89,1.55-3.94
				c3.22-3.18,5.94-6.66,7.46-10.99c0.29-0.84,0.88-1.54,1.84-1.22c1.19,0.4,1.37,1.51,0.91,2.46c-0.49,1.02-1.46,1.8-1.99,2.8
				c-0.5,0.95-0.19,1.96,0.58,2.74c0.52,0.52,1.35,0.79,1.76,0.22c1.79-2.51,5.32-3.91,5.49-7.39c0.21-4.52,1.25-8.88,1.79-13.32
				c0.33-2.74,0.15-4.95,4.01-4.32c1.75,0.29,2.61-1.99,1.51-2.54c-2.83-1.4-2.75-4.44-4.48-6.3c-7.72-8.31-18.21-11.67-28.65-13.76
				c-5.36-1.07-11.68-1.63-17.22-0.48c-14,2.91-23.24,13.21-31.95,23.44c-4.68,5.49-7.74,12.38-11.38,18.73
				c-1.33,2.31-2.47,4.86,0.07,7.28c0.73,0.7,1.4,2.11-0.3,1.87c-2.97-0.43-1.98,1.22-1.85,2.62c0.78,8.18,4.35,15.54,6.78,23.24
				c2.77,8.76,6.95,17.48,2.41,26.92c-2.75,5.71-3.46,12.49-9.38,16.54c-2.74,1.87-0.77,3.91,1.33,4.12
				c11.34,1.16,22.16,6.22,33.87,4.62c0.94-0.13,2.4-0.1,2.84,0.47c3.11,3.98,6.52,1.07,9.42,0.16c3.36-1.05,2.48-5.27,3.98-7.89
				c0.96-1.68-1.3-2.59-2.65-3.59c-5.74-4.26-11.84-4.72-18.37-2.22c-1.56,0.6-3.82,1.15-4.18-0.94c-0.32-1.87,2.11-1.99,3.42-1.78
				c5.4,0.86,9.69-4.68,15.35-2.5c1.01,0.39,1.81-1.14,2.49-2.13c4.61-6.83,6.34-7.22,12.83-2.64c2.06,1.46,3.78,1.16,5.3-0.51
				c1.43-1.57,1.58-3.37-0.32-4.74c-3.12-2.26-1.47-7.12-6.1-9.4c-2.21-1.09-5.83-3.74-7.41-3.64c-3.89,0.25-5.09-1.81-6.47-4.21
				C1162.32,327.04,1162,324.01,1160.01,321.66z M1261,859.24c18.38,2.63,26.1-8.02,30.58-23.64c0.5-1.75,0.54-3.75,1.42-5.26
				c6.21-10.61,3.24-19.54-4.68-27.72c-2.57-2.65-4.33-2.84-6.41,0.86c-1.72,3.05-2.14,6.62-3.98,9.39
				c-2.78,4.2-2.57,5.99,2.32,7.28c2.15,0.57,4.5,0.7,4.69,3.51c0.18,2.63-1.57,5.1-3.62,5.45c-6.61,1.13-12.44,4.8-19.02,5.58
				c-3.58,0.43-5.76,1.63-7.22,4.96c-0.8,1.82-1.68,5.3-3.76,4.7c-5.55-1.59-8.63,0.98-11.8,4.77c-1.1,1.31-3.37,1.74-2.97,4.05
				c0.41,2.41,2.57,3.04,4.47,3.4C1247.68,857.87,1254.34,859.32,1261,859.24z M860.38,925.83c2.55,0.04,3.88-0.92,2.85-3.66
				c-0.76-2.02-1.26-4.23-2.44-5.97c-1.88-2.78-5.76-6.11-7.91-4.52c-5.07,3.73-7.42-1.09-10.87-2.05c-1.8-0.5-1.95-2.86-1.25-4.3
				c0.78-1.6,2.36,0.03,3.57-0.07c2.39-0.2,3.45,4.88,5.4,2.26c1.2-1.6-3.01-3.28-4.21-5.4c-0.16-0.28-0.44-0.51-0.71-0.7
				c-2.52-1.7-1.29-6.88-4.99-6.69c-2.9,0.15-5.69,2.46-8.54,3.8c-5.19,2.43-5.33,4.37-1.78,9.13c5.02,6.74,12.18,10.17,19.48,13.38
				C852.74,922.7,855.94,925.77,860.38,925.83z M1227.27,363.48c-0.39-5.28,1.4-9.52,4.77-13.27c0.83-0.92,1.21-2.37,1.48-3.65
				c1.1-5.23-2.1-10.7,0.91-15.9c0.29-0.5-0.47-2.01-1.14-2.62c-2.39-2.15-4.5-4.25-4.32-7.89c0.07-1.52-1.51-1.4-2.72-1.21
				c-1.5,0.23-2.94,0.17-4.38-0.51c-1.14-0.54-8.6,4.55-8.61,5.8c-0.01,0.83,0.09,2.11,0.93,2.1c4.98-0.08,3.93,3.96,4.7,6.7
				c0.59,2.13,1.13,4.11,3.56,5c1.97,0.72,2.63,2.25,0.85,3.8c-2.56,2.21-2.15,4.63-0.91,7.21c0.94,1.96,0.97,3.77-0.33,5.63
				c-1.61,2.3-1.02,4.08,1.61,5.08C1225.41,360.41,1225.91,362.05,1227.27,363.48z M719.7,1071.35c-4.75-2.2-9.61-3.83-14.55-2.95
				c-8.3,1.48-16.43-0.31-24.64-0.48c-4.97-0.1-9.96-0.21-14.93-0.01c-2.07,0.08-3.93,1.18-3.73,3.78c0.2,2.56,1.93,3.27,4.21,3.1
				c7.75-0.58,15.48-0.03,23.22,0.11C699.52,1075.09,709.69,1073.76,719.7,1071.35z M843.51,952.86
				c-7.63-3.97-14.59-7.62-22.13-9.96c-1.49-0.46-4.09-0.3-3.18,2.18c2,5.42-1.85,3.05-3.34,2.48c-5.01-1.95-10.77-2.51-14.29-7.46
				c-0.93-1.31-2.69-1.66-3.8-0.02c-1.07,1.57-0.29,3.15,1.32,3.58c3.68,0.97,6.17,3.65,9.16,5.63c8.22,5.44,18.28,6.52,26.92,11.03
				c1.02,0.53,2.43,0.6,3.08-0.68c0.63-1.23-0.8-1.54-1.34-2.28c-1.92-2.6-5.77-1.97-8.06-4.46
				C833.2,949.64,837.58,956.25,843.51,952.86z M1279.76,1040.91c-1.66,0.82-2.07,1.06-2.51,1.24c-1.67,0.72-4.87,0.08-4.42,2.82
				c0.47,2.85,3.25,1,5.04,1.12c5.65,0.38,9.63-5.04,15.39-4.42c0.69,0.07,1.63-0.49,1.55-1.58c-0.09-1.25-7.24-6.41-8.65-6.42
				c-8.78-0.05-17.58,1.01-26.32-0.16c-3.69-0.5-6.71,0.19-10.94,2.96C1259.23,1040.26,1269.28,1038.4,1279.76,1040.91z
				 M656.05,1089.55c-0.61-0.03-1.25,0.03-1.83-0.11c-1.23-0.29-2.47-1.36-3.66-0.02c-0.6,0.68-0.51,1.57-0.1,2.33
				c0.76,1.42,2.17,1.46,3.49,1.29c2-0.25,3.92-0.32,5.89,0.35c5.67,1.93,11.17,0.2,16.67-0.99c1.15-0.25,2.36-0.74,2.17-2.24
				c-0.22-1.71-1.59-2.02-2.99-1.9c-2.81,0.24-5.6,0.66-8.41,0.91c-1.13,0.1-3.05-0.19-1.89-1.65c1.74-2.21,1.31-6.18,5.24-6.68
				c1.08-0.14,1.87-0.93,1.61-2.1c-0.31-1.39-1.5-1.67-2.74-1.57c-1.79,0.14-3.95,1.66-5.28,0.32c-4.68-4.68-6.8-0.36-9.29,2.38
				C651.08,1084.12,651.45,1086.3,656.05,1089.55z M1199.68,336.2c-2.74-1.08-2.97-5.3-6.24-2.96c-2.64,1.89-1.7,4.35-0.88,6.76
				c0.64,1.89,1.32,3.77,1.8,5.7c1.01,4.05,3.97,4.22,7.03,3.28c3.17-0.97,7.18-1.4,6.48-6.55c-0.75-5.54-1.22-11.12-1.8-16.68
				c-0.18-1.75,0.29-4.2-2.27-4.22c-2.18-0.02-2.71,2.27-2.97,4.06C1200.34,328.96,1200.08,332.38,1199.68,336.2z M1192.71,377.43
				c-1.05,2.48,1.16,4.4,3.46,6.12c6.45,4.82,17.06,0.97,18.54-6.65c0.25-1.29-0.4-3.07-1.35-2.59c-3.21,1.61-7.32-0.34-10.04,2.76
				c-2,2.27-5.13,3.28-7.03,1.35c-2.47-2.51,1.51-3.54,2.59-5.27c0.08-0.14,0.25-0.21,0.36-0.34c3.25-3.68,8.17-5.75,10.18-10.64
				c0.63-1.53,1.86-3.28,0.2-4.51c-1.84-1.37-2.35,0.86-3.28,1.88c-2.21,2.41-4.28,6.52-6.76,6.8
				C1192.42,367.12,1193.67,372.18,1192.71,377.43z M843.64,928.99c-0.97,0.39-2.97-0.61-3.65,1.1c-0.79,1.96,1.27,2.28,2.45,3.06
				c2.06,1.36,1.61,2.58,0.19,4.44c-2.44,3.2-4.49,5.48-8.52,1.98c-1.69-1.47-4.11-2.11-6.23-3.06c-0.9-0.4-1.96-0.82-2.76,0.11
				c-0.87,1.01,0.04,1.77,0.55,2.61c2.26,3.71,15.9,9.37,20.23,8.37c0.99-0.23,2.43-0.57,2.02-1.67c-1.68-4.55,1.53-3.06,3.57-3.08
				c2.23-0.03,4.04-0.65,3.86-3.38C855.14,936.18,847.35,929.03,843.64,928.99z M754.48,1009.94c2.92-1.1,4.43-3.1,3.07-6.11
				c-1.46-3.24-3.9-1.23-6.02-0.86c-0.65,0.11-1.38-0.04-1.97,0.19c-2.65,1.02-4.37,2.6-2.56,5.62c1.51,2.52,2.84,6.22,0.44,7.45
				c-3.15,1.62-4.46-2.11-5.49-4.77c-0.37-0.96-0.96-1.83-2.17-1.64c-1.2,0.19-1.37,1.19-1.55,2.22c-0.96,5.4,6.07,10.29,11.91,8.25
				C757.94,1017.56,759.18,1014.85,754.48,1009.94z M1252.88,968.39c0.95-1.3,2.68-0.86,3.98-1.46c1.16-0.53,1.99-1.23,1.38-2.68
				c-0.92-2.18-11.15-5.44-12.9-3.78c-2.2,2.1-4.97,2.59-7.54,3.58c-6.47,2.49-6.47,2.37-2.41,7.82c0.82,1.1,1.41,2.47,3.05,1.59
				c1.48-0.79,1.07-1.94,0.62-3.39c-1.11-3.58,2.68-3.33,4.29-4.37c1.45-0.95,2.98,0.7,3.39,2.57c1.34,6.22,3.23,6.89,9.02,3.19
				C1255.64,969.67,1252.81,970.52,1252.88,968.39z M790.09,984.61c-1.23-1.67-1.78-3.03-2.8-3.71c-4.53-3.04-9.14-6.06-14.42-7.64
				c-4.42-1.32-9.02-2.06-13.42-3.42c-1.98-0.61-3.93-2.87-5.08,0.59c-0.94,2.83,0.9,4.23,3.4,5.07c1.67,0.56,3.24,0.44,4.87-0.04
				c3.63-1.06,7.45-0.45,9.87,1.98C777.25,982.2,782.96,983.78,790.09,984.61z M1187.69,326.29c0.11,0.96,0.12,2.49,0.5,3.92
				c0.38,1.41,1.82,2.03,2.53,0.66c1.86-3.6,3.19-7.47,5.96-10.57c0.19-0.22-0.12-0.94-0.28-1.4c-0.41-1.18-2.78-2.26-0.4-3.59
				c1.65-0.92,2.77,0.36,3.8,1.52c1.02,1.14,2.62,2.67,3.48,0.56c1.48-3.62-1.76-5.85-3.81-8.02c-1.68-1.79-3.57-0.98-5.59,0.72
				C1188.89,314.29,1188.16,319.9,1187.69,326.29z M782.41,998.88c-3.76-0.15-4.66-4.46-7.17-3.64c-3.63,1.18-6.14-0.64-8.88-1.81
				c-2.79-1.19-5.48-2.36-8.58-2.22c-1.59,0.07-4.22-1.7-4.22,1.39c0.01,2.61,1.46,5.24,4.68,5.42c1.21,0.07,2.6-1.22,3.78-0.24
				c3.77,3.16,8.66,1.06,12.83,2.88C776.48,1001.38,779.42,1001.59,782.41,998.88z M1431.7,631.94c-1.27-3.22-2.59-6-4.88-7.44
				c-5.56-3.47-10.98-6.82-14.06-13.03c-0.71-1.43-3.06-2.4-4.69-0.49c-1.38,1.61-0.88,3.43,0.33,5.01c2.15,2.81,4.67,5.4,8.03,6.45
				c2.56,0.81,4.47,2.16,5.94,4.15C1424.57,629.58,1427.54,631.07,1431.7,631.94z M780.35,950.57c-1.41,2.78-5.65,1.35-5.41,4.36
				c0.19,2.43,3.48,1.06,5.01,2.25c0.91,0.71,1.74,1.57,2.75,2.06c1.06,0.51,2.35,0.48,3.29-0.38c1.14-1.05,0.53-2.08-0.34-3.01
				c-0.75-0.8-2.16-1.6-0.72-2.78c1.26-1.03,2.5-0.34,3.46,0.77c0.94,1.1,2.11,2.14,3.2,0.53c1.09-1.63-0.07-2.67-1.6-3.45
				c-4.96-2.52-10.57-2.61-15.76-4.27c-1.74-0.56-2.74,0.78-3.64,2.01c-0.75,1.02-2.46,1.94-1.57,3.31c0.96,1.46,2.39,0.16,3.56-0.3
				C774.96,950.75,777.26,949.26,780.35,950.57z M1222.44,424.73c-3.3,0.23-3.09,1.64-1.93,3.35c2.64,3.9,6.5,6.55,9.89,9.68
				c1.19,1.1,2.63,1.07,3.14-0.63c0.58-1.96,1.82-3.5,2.65-5.27c0.89-1.88,0.3-3.95-1.84-4.37
				C1230.16,426.66,1225.73,427.02,1222.44,424.73z M764.1,984.06c-0.82-2.8-2.05-4.86-5.18-4.26c-1.39,0.27-2.54,0.27-3.74-0.51
				c-1.51-0.99-2.31-4.03-4.69-2.51c-2.35,1.5,0.05,3.51,0.24,5.31c0.1,0.97-0.15,1.98,0,2.93c0.36,2.39,2.43,3.96,4.14,2.94
				C757.78,986.22,762.54,988.63,764.1,984.06z M785.86,972.35c0.24,1.33,0.22,1.86,0.43,2.28c1.41,2.83,19.98,11.87,23.02,11.23
				c0.98-0.21,2.04-0.42,2.14-1.68c0.08-0.98-0.69-1.55-1.43-1.86C802.17,979.09,794.61,975.14,785.86,972.35z M1262.16,950.39
				c-1.35-1.76-4.1-2.36-2.61-5.28c0.69-1.35-1.27-2.05-2.55-2.4c-1.3-0.36-2.65-0.58-3.75,0.52c-1.07,1.06-2.5,11.7-1.66,12.93
				c0.95,1.39,2.13,2.66,4.02,2.51c1.35-0.11,2.37-1.15,1.98-2.36C1256.32,952.37,1259.26,951.53,1262.16,950.39z M1323.99,1038.62
				c-0.1-1.97-1.14-2.96-3.11-3.13c-4.2-0.37-12.31,6.5-12.43,10.72c-0.06,2.09,1.77,1.92,2.86,1.42c3.75-1.7,7.41-3.58,11.02-5.56
				C1323.55,1041.42,1323.95,1040.03,1323.99,1038.62z M1407.48,621.54c-0.13-0.33-0.23-0.66-0.39-0.95
				c-2.81-5.12-6.69-9.47-10.25-14.05c-0.65-0.84-1.83-1.04-2.69-0.29c-1.2,1.04-0.98,2.52-0.35,3.68c1.82,3.34,3.58,6.78,5.85,9.81
				c1.22,1.62,3.35,2.69,5.26,3.62C1406.34,624.05,1407.54,623.4,1407.48,621.54z M1175.68,365.08c1.85-0.79,4.16-1.62,6.29-2.78
				c0.92-0.5,2.07-1.81,0.86-2.86c-2.35-2.04-5.38-3.22-7.43-5.71c-0.41-0.5-1.55-0.09-1.58,0.56c-0.14,2.82-2,3.38-4.27,3.85
				c-1.39,0.29-1.81,1.71-0.87,2.73C1170.45,362.8,1172.27,364.84,1175.68,365.08z M812.07,955.11c-2.1,0.1-3.79-0.12-4.21,1.41
				c-0.48,1.76,1.28,2.05,2.48,2.49c6.07,2.18,12.54,3.36,17.88,7.34c0.37,0.27,0.94,0.37,1.43,0.37c1.17,0.02,2.6,0.08,3.13-1.08
				c0.76-1.65-1.02-1.88-1.91-2.28c-4.2-1.91-8.47-3.68-12.73-5.46C815.87,956.94,814.05,954.87,812.07,955.11z M1265.78,882.2
				c-2.37,0.61-3.28,3.41-5.57,4.49c-1,0.47-2.17,1.32-2.07,2.61c0.14,1.87,1.9,1.51,3.1,1.8c1.71,0.41,3.15,0.87,3.29,3.07
				c0.15,2.37,2.07,2.44,3.72,2.11c1.95-0.39,0.66-2.11,1-3.04c1.33-3.64-4.53-6.21-1.26-10.02
				C1268.32,882.85,1266.88,882.29,1265.78,882.2z M1264.1,937.47c-0.08-0.69-0.66-0.77-2.22-1.7c-6.23-3.7-10.42,0.99-15.11,3.53
				c-0.97,0.52-1.2,1.61-0.61,2.59c0.59,0.98,1.77,1.24,2.62,0.78c4.18-2.3,8.88-2.39,13.36-3.4
				C1263.11,939.06,1264.13,938.81,1264.1,937.47z M765.72,955.9c-0.54,0.09-2.3-1.34-2.74,0.63c-0.44,1.98,1.41,2.32,2.88,2.6
				c4.28,0.82,7.73,3.87,12.15,4.41c1.34,0.16,2.99,2,3.89,0.33c0.99-1.83-0.66-3.81-2.32-4.23
				C775.12,958.51,771.19,955.54,765.72,955.9z M809.2,968.94c-4.02-2.76-7.76-5.61-11.8-7.95c-1.45-0.84-4.08-1.85-5.07,0.99
				c-0.77,2.2,0.73,3.28,2.72,3.94c2.83,0.95,5.63,2.02,8.4,3.14C805.26,969.8,807,970.94,809.2,968.94z M1245.27,920.06
				c3.81,1.62,7.58,0.71,11.3,0.62c1.93-0.04,4.66-0.03,4.5-2.69c-0.16-2.62-2.84-2.93-5.05-2.9
				C1251.81,915.17,1248.73,917.9,1245.27,920.06z M1238.42,446.88c1.31,0.02,2.49-0.33,2.36-1.48c-0.39-3.72,0.39-7.13,1.91-10.49
				c0.33-0.72-0.13-1.61-0.91-2.11c-0.65-0.42-1.38-0.32-1.77,0.22c-1.83,2.5-4.53,4.61-5.11,7.73
				C1234.39,443.5,1235.71,445.86,1238.42,446.88z M1265.65,879.6c2.18-1.39,5.86,0.45,7.61-2.81c0.4-0.74-4.6-6.2-5.31-5.85
				c-2.7,1.33-5.33,2.94-5.63,6.3C1262.15,879.13,1263.63,879.71,1265.65,879.6z M788,992.9c1.69-0.03,3.09,0.23,3.46-1.23
				c0.37-1.46-0.88-1.9-1.99-2.34c-3.83-1.51-7.64-3.04-11.45-4.6c-0.94-0.38-1.96-0.94-2.64,0.14c-0.63,1-0.02,2.14,0.83,2.56
				C780.25,989.42,784.37,991.23,788,992.9z M1235,1038.06c1.12-1.85,5.72,1.77,5.24-2.41c-0.38-3.33-4.65-3.08-7.52-3.24
				c-2.36-0.13-4.66,1.28-4.12,3.78C1229.31,1039.37,1232.35,1037.86,1235,1038.06z M727.63,1050.14
				c-6.05-1.81-12.19-1.76-18.34-1.43c-0.88,0.05-1.75,0.35-1.68,1.36c0.09,1.26,1.23,1.35,2.21,1.52
				C715.88,1052.61,721.7,1050.96,727.63,1050.14z M1235.35,946.12c-1.84,1.02-4.06,1.65-4.17,4.37c-0.08,1.96-0.62,4.16,1.92,5.09
				c1.48,0.54,3.74,0.57,3.98-0.82c0.46-2.64-0.06-5.45-0.28-8.19C1236.79,946.4,1235.94,946.3,1235.35,946.12z M1269.17,1023.03
				c-2.03-0.05-3.91-0.21-5.12,1.61c-0.51,0.76-0.49,1.65,0.1,2.31c1.31,1.45,3.01,1.07,4.66,0.82c0.16-0.02,0.35-0.02,0.49-0.1
				c1.86-1.07,5.73,0.73,5.64-2.27C1274.86,1023.02,1271.12,1023.66,1269.17,1023.03z M1222.7,1068.63
				c1.56-0.48,4.58,0.17,4.29-2.49c-0.28-2.55-3.15-3-5.53-3.05c-1.83-0.04-3.37,0.65-3.29,2.77
				C1218.29,1068.72,1220.54,1068.53,1222.7,1068.63z M1260.64,1067.15c0.99-0.28,3.2,0.4,2.92-1.39c-0.4-2.58-2.45-4.3-5.17-4.64
				c-1.69-0.21-3.05,0.67-2.91,2.53C1255.7,1066.7,1257.93,1067.23,1260.64,1067.15z M834.88,936.15c-2.46-4.73-6.55-5.33-8.91-8.06
				c-1.07-1.23-2.06,0.91-2.49,2.08c-0.46,1.24-0.78,3.32,0.96,3.1C827.9,932.84,830.63,934.55,834.88,936.15z M1294.05,1057.99
				c-0.8-1.87-1.54-4.07-4.16-4.05c-1.9,0.01-5.04,0.32-4.63,2.36c0.51,2.57,3.97,2.88,6.42,3.56
				C1292.8,1060.19,1293.95,1059.67,1294.05,1057.99z M1234.35,1068.08c1.95-0.41,4.63-0.03,4.78-2.99c0.1-1.86-1.73-2.2-3.24-2.17
				c-2.19,0.05-4.67,0.48-5.09,2.91C1230.39,1068.16,1232.75,1067.86,1234.35,1068.08z M770.01,986.59
				c-1.8,0.14-2.68,1.12-2.53,2.63c0.19,1.94,0.3,4.33,3.11,4.2c1.51-0.07,3.93,0.03,3.85-2.17
				C774.33,988.69,772,987.55,770.01,986.59z M832.06,916.11c-1.59,1.28-2.52,1.95-3.36,2.71c-1.48,1.35-1.67,2.93-0.16,4.29
				c1.17,1.05,2.24,3.17,3.95,2.46c2.11-0.88,0.45-2.87,0.33-4.37C832.7,919.76,832.4,918.33,832.06,916.11z M683.33,1065.24
				c1.59-0.63,4.54,1.12,4.67-1.94c0.08-1.95-2.17-2.8-4.14-2.74c-2.03,0.06-4.61,0.45-4.77,2.7
				C678.9,1066.06,681.61,1065.01,683.33,1065.24z M811.25,935.78c-0.27-2.05-9.12-6.19-10.71-5.27c-0.78,0.45-1.26,1.68-0.24,1.82
				c3.32,0.45,5.76,2.01,7.73,4.63c0.49,0.65,1.55,0.63,2.26,0.09C810.76,936.7,811.03,936.08,811.25,935.78z M801.61,972.31
				c-0.37-0.43-0.65-1.07-0.99-1.1c-2.9-0.24-5.03-1.88-7.28-3.51c-0.96-0.69-2.8-0.47-2.79,1.49c0.01,1.64,8.79,5.26,10.21,4.28
				C801.12,973.24,801.3,972.75,801.61,972.31z M1280.47,1050.77c3.29,1.26,6.04,0.17,8.73,0.38c0.84,0.07,1.72-0.32,1.8-1.31
				c0.07-0.9-0.6-1.55-1.4-1.84C1286.1,1046.73,1283.45,1048.21,1280.47,1050.77z M731.16,1055.78c-3.79-0.56-7.65-1.97-11.64,1.1
				C724.04,1058.82,727.62,1057.23,731.16,1055.78z M1234.83,1006.71c1.39-0.03,2.72-0.33,2.78-2.01c0.06-1.74-0.5-3.35-2.57-3.46
				c-1.68-0.08-2.77,1-2.9,2.66C1232,1005.69,1233.17,1006.49,1234.83,1006.71z M1237.24,1013.92c-0.19-2.03-1.64-2.79-3.26-3.15
				c-1.77-0.39-2.79,0.66-3.09,2.31c-0.33,1.81,0.66,2.81,2.41,2.89C1234.95,1016.03,1236.57,1015.81,1237.24,1013.92z
				 M1259.57,1049.11c1.45-0.31,3.69,0.17,3.6-2.21c-0.07-1.79-1.94-2.02-3.43-2.07c-1.53-0.05-3.23,0.2-3.37,2.07
				C1256.2,1049.01,1258.04,1048.94,1259.57,1049.11z M684.28,1078.84c2.4,1.61,4.03,2.28,5.87,2.26c1.51-0.02,3.35-0.19,3.18-2.18
				c-0.15-1.72-1.88-1.55-3.19-1.34C688.53,1077.83,686.94,1078.26,684.28,1078.84z M697.7,1053.55c-0.31-1.72-1.59-2.19-2.96-2
				c-1.52,0.22-3.66,0.04-3.73,2.34c-0.04,1.4,1.36,1.79,2.58,1.67C695.18,1055.41,696.98,1055.5,697.7,1053.55z M1259.66,896.63
				c-0.05-1.49-0.82-2.41-2.11-2.39c-2.23,0.04-3.61,1.57-4.32,3.48c-0.36,0.96,0.7,1.39,1.57,1.3
				C1256.71,898.81,1258.84,898.9,1259.66,896.63z M1242.75,888.01c1.29-0.15,3.12,0.15,3.13-1.54c0-1.81-1.89-2.02-3.33-2.05
				c-1.46-0.02-3.43,0.25-3.33,2C1239.34,888.29,1241.48,887.68,1242.75,888.01z M1275.9,871.02c0.13,1.07,0.42,2.41,2.03,2.61
				c1.76,0.22,2.83-0.86,3.01-2.49c0.19-1.72-0.81-2.81-2.56-2.88C1276.79,868.2,1276.08,869.24,1275.9,871.02z M1266.43,944.93
				c2.33-0.09,4.07-1.16,3.79-2.36c-0.26-1.13-1.21-1.55-2.26-1.43c-1.65,0.19-3.53,0.64-3.89,2.41
				C1263.72,945.32,1265.51,944.76,1266.43,944.93z M718.88,1044.51c-2.92-1.64-5.47-1.92-6.53-0.74c-0.5,0.56-0.71,1.35,0.02,1.58
				c2.13,0.69,4.35,1.29,6.37-0.4C718.83,1044.87,718.83,1044.66,718.88,1044.51z M700.58,1036.81c0.85-0.68,2.99,0.59,3.31-1.53
				c0.21-1.42-1.18-1.86-2.35-1.8c-1.61,0.08-3.51,0.31-3.58,2.38C697.91,1037.18,699.34,1036.82,700.58,1036.81z M1243.26,986.36
				c0.16,1.15,0.24,2.5,1.65,2.69c1.52,0.21,1.85-1.09,2-2.27c0.17-1.29-0.28-2.36-1.66-2.58
				C1243.7,983.97,1243.32,985.07,1243.26,986.36z M1233,942.05c-0.17-1.38-1.17-1.61-2.16-1.62c-1.49-0.02-3.17,0.04-3.4,1.99
				c-0.11,0.91,0.83,1.41,1.74,1.2C1230.54,943.31,1232.21,943.62,1233,942.05z M1238.59,943.33c1.44,0.01,2.16-0.81,2.23-2.08
				c0.06-1.08-0.55-1.88-1.67-2.03c-1.28-0.17-2.3,0.28-2.44,1.71C1236.58,942.26,1237.4,943,1238.59,943.33z M1195.56,390.74
				c0.07-1.38-0.49-2.32-1.95-2.27c-1.28,0.04-2.26,0.75-2.34,2.11c-0.08,1.35,0.74,2.22,2.07,2.32
				C1194.78,393.01,1195.36,392.02,1195.56,390.74z M1226.06,313.78c0.66-0.44,1.25-0.7,1.65-1.13c1.22-1.29,2.59-2.57,1.99-4.62
				c-0.11-0.36-0.74-0.9-0.98-0.83c-1.89,0.54-1.44,2.7-2.53,3.86C1225.67,311.61,1225.13,312.31,1226.06,313.78z"/>
			<path class="st0" d="M1159.78,654.57c-3.09-2.94-3.8-6.61-4.73-9.93c-0.93-3.32-2.8-5.73-5.83-6.15
				c-13.38-1.84-21.91-11.11-31.11-19.49c-6.66-6.07-13.87-11.33-23.11-12.82c-1.68-0.27-2.87-1-3.02-2.76
				c-0.21-2.54-0.33-5.03-3.44-5.91c-0.68-0.19-0.88-1.01-0.34-1.62c0.63-0.73,1.56-0.71,2.3-0.32c2.63,1.41,5.24,2.87,7.8,4.42
				c13.25,8.04,25.15,17.83,36.6,28.22c2.52,2.28,5.68,3.42,8.85,4.5c3.64,1.23,7.15,2.62,9.99,5.42c2.46,2.42,4.2,1.49,6.52-0.99
				c15.1-16.15,17.38-36.3,18.3-56.94c0.36-7.97,0.17-15.99,1.86-23.85c0.23-1.07,0.5-1.99-0.85-2.37c-1.48-0.42-2.54,0.16-3.4,1.41
				c-3.82,5.54-9.13,9.65-13.86,14.32c-1.23,1.22-2.4,2.82-4.57,2.58c-0.93-1.75,0.57-2.35,1.43-3.24c4.85-5,9.78-9.87,14.24-15.31
				c5.24-6.39,5.64-14.41,8.89-21.42c1.23-2.65,4.8-5.77,2.78-8.49c-2.32-3.13-5.44,1.75-8.67,1.03c-1.37-0.3-3.09,0.95-4.66,1.47
				c-1.13,0.37-2.49,0.81-2.84-0.83c-0.3-1.42,0.91-2.23,2.11-2.22c4.53,0.02,8.17-2.68,12.32-3.82c3.06-0.84,6.59-1.76,6.4-5.84
				c-0.19-4.1-1.67-7.85-5.88-9.65c-6.73-2.88-13.23-6.04-18.91-10.87c-4.8-4.09-7.52-9.7-11.58-14.3
				c-0.93-1.05-1.82-3.03-0.48-4.08c1.84-1.44,3.07,0.69,3.97,1.83c3.72,4.65,7,9.58,11.62,13.58c5.23,4.52,10.63,8.46,17.15,10.87
				c11.65,4.31,11.06,13.03,6.23,21.58c-5.86,10.36-7.81,21.55-8.37,33.36c-0.87,18.36,0.2,36.94-4.66,54.94
				c-1.64,6.06-4.25,11.83-6.06,17.87c-1.28,4.27-5.51,6.59-8.82,9.24c-3.45,2.77-4.79,5.68-3.57,9.94
				C1160.98,649.93,1161.04,652.09,1159.78,654.57z"/>
			<path class="st0" d="M790.05,1074.65c5.25-3.05,10.13-3.82,15.08-3.8c17.72,0.08,34.98-4.33,52.6-5.18
				c6.14-0.3,12.25-1.16,18.36-1.93c2.62-0.33,4.18,0.88,5.2,2.96c1.98,4.05,5.13,4.65,9.44,4.64c12.96,0,25.83-1.47,38.67-2.56
				c23.04-1.95,46.13-2.5,69.18-3.86c5.76-0.34,11.45-1.94,17.16-2.99c1.14-0.21,2.24-0.7,3.39-0.81c1.49-0.14,3.53-0.16,3.68,1.62
				c0.14,1.65-1.91,1.49-3.15,1.59c-20.72,1.63-41.32,5.02-62.12,5.13c-16.2,0.09-32,3.86-48.15,4.03
				c-7.76,0.08-15.51,0.77-23.26,1.13c-3.5,0.16-6.5-0.39-8.04-4.34c-1.06-2.72-3.62-4.16-6.55-3.26
				c-6.47,1.99-13.22,1.42-19.78,2.46c-18.18,2.88-36.29,6.3-54.8,6.25c-1.5,0-3-0.03-4.49-0.13
				C792.01,1075.57,791.58,1075.27,790.05,1074.65z"/>
			<path class="st0" d="M773.06,1077.06c3.82,0.06,7.34-3.28,6.88-6.55c-0.16-1.16-0.34-2.44-1.62-2.88
				c-1.37-0.48-2.03,0.61-2.8,1.53c-4.1,4.94-3.39,4.15-7.73,0.04c-4.17-3.95-6.51-10.49-13.46-11.21
				c-1.12-0.11-1.86-1.02-1.18-2.16c0.78-1.3,2.12-1.64,3.48-0.99c6.75,3.26,13.86,4.79,21.35,5.01c2.58,0.08,5.28,0.84,7.37,2.71
				c1.77,1.57,2.74,3.45,1.41,5.74c-0.88,1.52-1.22,3.06-0.97,4.78c0.12,0.8,0.48,1.99-0.37,2.3c-7.58,2.75-12.61,10.07-20.84,11.64
				c-1.23,0.24-2.63,1.48-3.57-0.05c-0.75-1.22,0.72-2.04,1.34-2.96C765.22,1079.77,769.49,1077,773.06,1077.06z"/>
			<path class="st0" d="M1007.25,669.23c-1.56,17.51,2.63,33.54,10.56,49.32c5.42,10.78,11.87,20.59,19.18,30
				c0.84,1.08,1.84,2.43,0.43,3.46c-1.25,0.92-1.98-0.62-2.68-1.47c-7.42-8.94-14.62-18.05-19.92-28.46
				c-2.23-4.38-6.47-7.15-8.66-11.56c-1.05-2.12-2.72-4.42-1.99-6.54c2.93-8.45-1.27-16.38-1.33-24.58
				c-0.03-3.72,0.17-7.32,1.48-10.8c0.39-1.03,0.85-2.44,2.37-2C1007.9,666.95,1007.57,668.19,1007.25,669.23z"/>
			<path class="st0" d="M1036.78,606.14c3.23-3.75,7.42-3.56,11.25-4.12c1.64-0.24,2.48,1.2,3.23,2.63c1.98,3.77,5.2,4.97,9.14,3.51
				c2.18-0.81,4.12-0.78,6.28-0.03c5.42,1.89,10.97,2.48,16.73,1.87c12.76-1.37,22.65,4.74,31.77,12.64
				c1.12,0.97,2.56,2.38,0.94,3.71c-1.49,1.23-2.1-0.87-3.04-1.63c-9.55-7.75-19.21-15.17-32.81-11.43
				c-1.22,0.34-2.64,0.01-3.97-0.08c-6.75-0.5-13.12-3.58-20.38-0.26c-4.5,2.06-9.41-2.21-13.47-4.64
				C1040.72,607.24,1038.99,607.12,1036.78,606.14z"/>
			<path class="st0" d="M1101.53,561.96c14.02-4.47,28.23-8.41,41.98-13.57c9.7-3.64,19.51-7.52,27.78-14.19
				c1.05-0.85,2.31-2.94,3.68-1.57c1.67,1.67-0.64,3.05-1.64,3.99c-1.91,1.8-4.1,3.46-6.44,4.64
				c-10.97,5.56-21.65,11.82-33.98,14.18c-8.32,1.59-16.28,4.75-24.71,5.95c-2.22,0.32-4.44,0.66-6.66,0.99
				C1101.54,562.24,1101.54,562.1,1101.53,561.96z"/>
			<path class="st0" d="M1040.68,622.86c2.86-2.4,4.72-2.21,6.41-1.96c14.56,2.16,29.44,2.8,43.38,8.13c5.4,2.06,9.79,6.23,15.4,8
				c0.76,0.24,1.54,0.94,1.31,1.87c-0.33,1.31-1.57,1.15-2.47,0.92c-2.57-0.66-5.66-0.81-7.54-2.38
				c-11.58-9.66-25.83-9.44-39.55-11.13C1052.21,625.63,1047.56,622.57,1040.68,622.86z"/>
			<path class="st0" d="M1182.7,511.49c-10.12-2.55-18.96,5.05-28.98,3.29c0.2-2.03,1.68-1.49,2.63-1.68
				c2.92-0.59,5.95-0.81,8.78-1.67c1.86-0.56,4.7-0.58,4.67-3.61c-0.02-2.95-2.76-2.83-4.61-3.75c-4.45-2.2-9.32-3.66-13.08-7.12
				c-0.83-0.77-1.99-1.63-1.04-2.9c0.75-1,1.9-0.44,2.72,0.05c5.82,3.44,12.13,6.02,17.6,10.13
				C1174.9,506.85,1179.97,506.88,1182.7,511.49z"/>
			<path class="st0" d="M874.61,1105.57c-0.1,1.46-0.69,1.83-1.33,1.9c-7.43,0.81-14.86,1.78-22.35,0.91
				c-3.61-0.42-5.82-1.79-3.61-5.85c1.17-2.16-0.32-4.56,0.6-7.08c2.82,1,2.57,3.4,2.54,5.33c-0.07,4.41,1.64,5.68,6.12,5.14
				C862.52,1105.22,868.6,1104.46,874.61,1105.57z"/>
			<path class="st0" d="M1150.88,470.66c-5.1-2.68-6.87-7.07-9.75-10.27c-3.97-4.41-7.16-9.54-11.53-13.67
				c-0.81-0.77-1.77-1.83-0.87-3.02c0.83-1.09,1.97-0.39,2.55,0.33c6.33,7.8,15.31,13.48,18.81,23.53
				C1150.31,468.15,1150.42,468.8,1150.88,470.66z"/>
			<path class="st0" d="M1207.69,508.98c0.77,0.29,2.18,0.4,2.84,1.16c4.57,5.23,10.85,4.98,16.9,5.61
				c2.15,0.23,5.64-0.34,5.17,2.98c-0.51,3.65-3.53,1.28-5.62,1.18c-7.81-0.38-14.04-5.88-21.74-6.55c-1.1-0.1-2.69-0.4-2.07-2.02
				C1203.83,509.63,1205.64,509.3,1207.69,508.98z"/>
			<path class="st0" d="M1262.19,452.85c1.04,0.33,2.42,0.53,3.55,1.18c3.29,1.89,6.57,1.98,10.06,0.62
				c3.43-1.34,7.24,1.65,10.68-0.74c0.14-0.09,1.15,0.64,1.33,1.14c0.3,0.82-0.06,1.7-0.92,2.07c-1.37,0.58-2.77,1.42-4.19,1.48
				c-7.19,0.3-14.78,3.13-21.11-2.93c-0.61-0.59-1.32-1.07-1.18-2.02C1260.54,452.77,1261.26,452.78,1262.19,452.85z"/>
			<path class="st0" d="M1083.86,601.83c-0.37,0.61-0.44,0.85-0.53,0.86c-8.61,0.88-17.13,3.5-25.9,1.6
				c-1.44-0.31-4.03-0.16-3.47-2.46c0.49-2,2.75-1.43,4.28-0.83c3.41,1.34,6.7,0.97,10.2,0.21
				C1073.44,600.12,1078.56,599.62,1083.86,601.83z"/>
			<path class="st0" d="M1044.15,594.61c-5.89-0.12-7.39,6.51-12.71,7.28c-0.64,0.09-1.24,0.58-1.87,0.62
				c-2.68,0.17-6.93,1.85-7.48-1.13c-0.57-3.12,3.77-2.51,6.2-2.74c3.75-0.35,6.43-3.3,10.06-3.91c1.73-0.29,3.4-0.99,5.09-1.51
				C1043.68,593.69,1043.91,594.15,1044.15,594.61z"/>
			<path class="st0" d="M1152.98,529.89c-3.31-0.98-6.41,1.85-9.95,3c-1.43,0.46-3.46,2.01-4.16-0.24c-0.52-1.67,1.77-1.99,3.16-2.3
				c6.93-1.55,13.87-3.03,20.81-4.54c0.97-0.21,2.15-0.54,2.47,0.75c0.3,1.23-0.89,1.65-1.79,1.96
				C1160.37,529.61,1157.21,530.59,1152.98,529.89z"/>
			<path class="st0" d="M1300.48,539.72c-1.99,0.1-3.98,0.27-5.97,0.26c-1.19-0.01-3.05,0.75-3.2-1.19
				c-0.11-1.43,1.52-2.37,2.77-2.43c4.9-0.21,9.79,0.95,14.73,0.19c0.81-0.13,1.54,0.69,1.31,1.7c-0.26,1.11-1.19,1.64-2.21,1.67
				c-2.48,0.09-4.96,0.03-7.44,0.03C1300.48,539.87,1300.48,539.79,1300.48,539.72z"/>
			<path class="st0" d="M1254.43,478.29c-3.09,5.35-7.36,9.73-10.42,14.97c-0.4,0.68-1,1.52-1.96,1.09
				c-1.21-0.54-0.79-1.66-0.57-2.59c0.63-2.69,2.47-4.7,4.25-6.6C1248.24,482.48,1250.65,479.58,1254.43,478.29z"/>
			<path class="st0" d="M1121.31,659.28c-7.89-0.91-16.11,2.37-23.84-1.49C1105.47,657.22,1113.5,655.93,1121.31,659.28z"/>
			<path class="st0" d="M1088.89,1082.35c-7.62,2.75-15.51,1.02-23.22,1.81C1073.26,1081.58,1081.04,1081.26,1088.89,1082.35z"/>
			<path class="st0" d="M1189.56,1073.6c3.86-1.39,8.01-1.71,11.62-3.93c1.24-0.76,3.3-0.43,3.88,1.17
				c0.72,1.99-1.17,2.66-2.61,2.75C1198.21,1073.83,1193.98,1075.21,1189.56,1073.6z"/>
			<path class="st0" d="M1164.69,1072.88c1.92,0.24,4.72-0.23,4.57,2.49c-0.16,2.84-3.08,2.36-5.13,2.49
				c-1.97,0.12-4.01-0.53-3.96-2.71C1160.23,1072.17,1162.89,1073.07,1164.69,1072.88z"/>
			<path class="st0" d="M1270.3,524.34c-0.21,0.91-0.85,1.31-1.48,1.17c-3.39-0.78-6.64-1.92-9.04-4.63
				c-0.47-0.54-0.43-1.3,0.21-1.72c0.36-0.24,1.02-0.41,1.36-0.24c2.8,1.38,5.57,2.81,8.3,4.3
				C1270,523.41,1270.12,524.02,1270.3,524.34z"/>
			<path class="st0" d="M1048.91,1059.59c7.1-3.02,13.57-0.95,19.91-1.25C1062.47,1058.45,1056.33,1061.97,1048.91,1059.59z"/>
			<path class="st0" d="M1144.24,488.81c-0.1,0.86-0.69,1.03-1.41,1.01c-1.69-0.05-7.67-5.19-7.69-6.62
				c-0.01-0.72,0.17-1.27,1.07-1.31c1.17-0.05,7.79,5.24,7.99,6.44C1144.23,488.49,1144.23,488.65,1144.24,488.81z"/>
			<path class="st0" d="M1294.38,461.13c-1.62,1.78-3.47,3.56-6.26,3.88c-1.08,0.13-2.3-0.47-1.86-1.59
				c0.95-2.41,3.2-3.63,5.55-4.36C1292.92,458.71,1294.07,459.26,1294.38,461.13z"/>
			<path class="st0" d="M775.18,1096.9c6.1-0.44,12.2-0.89,18.3-1.33c0.02,0.45,0.05,0.91,0.07,1.36
				C787.44,1098.03,781.24,1097.56,775.18,1096.9z"/>
			<path class="st0" d="M1392.33,578.75c-1.73-0.34-3.17-1.01-2.95-2.84c0.24-2,1.07-3.95,3.43-4.22c1.45-0.16,2.1,1.12,1.83,2.33
				C1394.24,575.74,1394.92,578.17,1392.33,578.75z"/>
			<path class="st0" d="M1208.47,1050.27c-1.76-0.27-4.84,0.17-4.58-1.74c0.4-2.95,3.78-1.53,5.87-1.95
				c1.54-0.31,4.01-0.54,3.68,1.76C1213.07,1050.88,1210.2,1049.74,1208.47,1050.27z"/>
			<path class="st0" d="M1131.27,478.05c-0.06,1.33-0.79,2.05-1.53,1.37c-2.16-1.99-4.55-3.85-5.92-6.53
				c-0.5-0.98,0.29-1.78,1.22-1.33C1127.98,472.96,1129.35,475.92,1131.27,478.05z"/>
			<path class="st0" d="M1289.78,502.96c-3.75-1.86-7.67-0.93-11.7-1.34C1283.1,498.36,1285.72,498.66,1289.78,502.96z"/>
			<path class="st0" d="M1325.65,452.31c1.74,0.81,4.34,0.37,4.59,2.98c0.18,1.79-1.45,1.92-2.78,1.83
				c-2.11-0.13-3.17-1.71-3.65-3.43C1323.41,452.26,1324.76,452.37,1325.65,452.31z"/>
			<path class="st0" d="M1190.25,1046.16c1.46,0.23,3.35,0.02,3.06,2.26c-0.19,1.5-1.56,2.07-2.98,2.06
				c-1.64-0.01-3.18-0.83-3.31-2.41C1186.83,1045.79,1188.97,1046.47,1190.25,1046.16z"/>
			<path class="st0" d="M1210.59,450.65c0.58-0.9,0.64-1.11,0.75-1.15c2.62-0.84,5.19-1.13,7.3,1.13c0.23,0.25,0.22,1.21,0.04,1.31
				C1215.73,453.46,1213.52,451.26,1210.59,450.65z"/>
			<path class="st0" d="M1203.6,450.28c-1.5-0.65-3.95,0-4.32-2.35c-0.25-1.61,1.4-1.58,2.5-1.42c1.75,0.26,3.96,0.41,4.36,2.49
				C1206.48,450.72,1204.73,450.25,1203.6,450.28z"/>
			<path class="st0" d="M1401.83,397.65c2.09,4.36,0.33,7.2-0.17,10.08c-0.05,0.29-0.77,0.63-1.19,0.65
				c-0.83,0.04-1.24-0.72-1.1-1.34C1400.01,404.29,1400.79,401.57,1401.83,397.65z"/>
			<path class="st0" d="M1291.01,436.9c0.1-0.5,0.08-0.72,0.17-0.8c2.3-1.95,4.9-1.32,7.43-0.72c0.77,0.18,0.69,1.3,0.15,1.6
				C1296.15,438.44,1293.55,438.2,1291.01,436.9z"/>
			<path class="st0" d="M1072.64,559.5c1.72,0.61,3.88,1.26,4.23,3.36c0.24,1.45-1.55,1.36-2.63,1.2c-1.89-0.27-3.52-1.19-3.81-3.21
				C1070.24,559.57,1071.45,559.42,1072.64,559.5z"/>
			<path class="st0" d="M1095.41,562.23c-4.19,2.31-7.91,2.02-11.7,0.81C1087.33,561.72,1091.03,561.68,1095.41,562.23z"/>
			<path class="st0" d="M1401.35,418.63c0.08,1.32-0.15,2.51-1.6,2.65c-1.77,0.17-2.13-1.25-2.22-2.59
				c-0.08-1.28-0.19-3.02,1.46-3.16C1400.95,415.38,1400.88,417.39,1401.35,418.63z"/>
			<path class="st0" d="M1142.68,1047.51c3.88-1.52,6.71-1.51,9.58-0.34C1149.48,1048.22,1146.67,1048.55,1142.68,1047.51z"/>
			<path class="st0" d="M1128.45,659.69c2.11,0.72,4.24,1.39,6.33,2.18c0.63,0.24,1,0.94,0.62,1.64c-0.36,0.68-1.06,0.8-1.68,0.45
				c-1.86-1.05-3.67-2.16-5.51-3.24C1128.29,660.38,1128.37,660.03,1128.45,659.69z"/>
			<path class="st0" d="M1178.93,296.91c0.08,1.77-6.52,11.21-8.02,11.69c-2.03,0.65-2.75-0.58-2.86-2.27
				c-0.22-3.27,4.53-9.95,7.64-10.87C1177.34,294.97,1178.65,295.13,1178.93,296.91z"/>
			<path class="st0" d="M1165.78,339.65c1.9,1.36,4.62,2.96,4.58,5.43c-0.03,2.11-3.06,4.01-5.07,3.59
				c-3.3-0.69-0.56-4.48-2.21-6.59C1162.33,341.12,1163.98,339.9,1165.78,339.65z"/>
			<path class="st0" d="M1163.46,369.57c-3.92-0.13-7.76-1.27-11.64,0.03c-0.72,0.24-1.79,0.15-1.89-0.96
				c-0.08-0.92,0.72-1.41,1.47-1.75C1155.98,364.82,1159.92,366.15,1163.46,369.57z"/>
			<path class="st0" d="M1128.4,299.84c-0.53,1.7-0.37,4.15-2.83,4.49c-1.74,0.24-1.82-1.54-1.89-2.82
				c-0.11-2.18,1.25-3.31,3.17-3.69C1128.26,297.54,1128.34,298.7,1128.4,299.84z"/>
			<path class="st0" d="M1148.15,353.01c-1.08-0.03-2.42-0.05-2.27-1.32c0.22-1.81,1.66-2.83,3.45-2.94
				c1.32-0.08,2.27,0.89,2.14,2.17C1151.27,352.88,1149.5,352.79,1148.15,353.01z"/>
			<path class="st0" d="M1148.68,331.71c-1.57-0.03-2.56-0.78-2.6-2.36c-0.03-1.33,0.76-2.17,2.11-2.27
				c1.59-0.11,2.55,0.72,2.56,2.31C1150.77,330.68,1150.05,331.54,1148.68,331.71z"/>
			<path class="st0" d="M1248.91,851.36c-0.12,1.61-0.89,2.51-2.25,2.29c-1.83-0.3-3.68-1.04-4.15-3.04
				c-0.32-1.37,1.07-1.44,2.05-1.39C1246.35,849.32,1248.31,849.22,1248.91,851.36z"/>
			<path class="st0" d="M1226.44,327.33c2.27,0.54,3.1,2.28,3.33,4.38c0.15,1.4-0.55,2.48-2.02,1.94c-1.74-0.63-4.22-0.73-4.2-3.49
				C1223.56,328.4,1224.59,327.44,1226.44,327.33z"/>
		</g>
	</g>
</g>
</svg>
