<?xml version="1.0" encoding="utf-8"?>
<!-- Generator: Adobe Illustrator 28.0.0, SVG Export Plug-In . SVG Version: 6.00 Build 0)  -->
<svg version="1.1" id="Layer_1" xmlns="http://www.w3.org/2000/svg" xmlns:xlink="http://www.w3.org/1999/xlink" x="0px" y="0px"
	 viewBox="0 0 1920 1080" style="enable-background:new 0 0 1920 1080;" xml:space="preserve">
<style type="text/css">
	.st0{fill:none;stroke:#231F20;}
</style>
<g>
	<g>
		<g>
			<path d="M1053.5,488.31c0.92,14.35,6.07,28.3,3.92,42.94c-0.56,3.79,1.49,7.11,2.74,10.5c4.61,12.49,7.9,25.34,10.86,38.3
				c1.59,6.96,4.14,13.72,3.26,21.07c-0.22,1.81,1.06,3.11,2.26,4.28c3.59,3.49,4.3,7.82,4.85,12.65
				c1.39,12.22,2.84,24.43,4.05,36.67c0.74,7.5,0.84,14.94,0.65,22.43c-0.22,8.75-0.32,17.14,3.95,25.61
				c7.06,14.02,8.54,29.62,10.06,45.16c1.71,17.44,0.9,34.95,2.42,52.37c0.81,9.27,1.44,18.61,4.06,27.6
				c1.07,3.68-0.08,6.58-2.28,9.2c-4.5,5.35-9.98,9.6-15.9,13.26c-2.99,1.85-4.83,3.94-3.49,7.75c0.48,1.36,0.8,3.12,0.36,4.41
				c-2.68,7.79-1.11,15.83-1.32,23.71c-0.2,7.24,0.01,14.51-0.13,21.78c-0.07,3.44,0.45,7.38,1.71,10.91
				c1.39,3.89-0.23,7.56-0.51,11.36c-1.29,17.16-3.15,34.27-3.43,51.55c-0.14,8.65-2.07,17.39-1.42,26.19
				c0.57,7.61,3.62,14.91,3.27,22.61c-0.37,8.39,3.56,14.33,9.65,19.45c3.17,2.67,7.05,3.42,10.65,3.26
				c9.64-0.45,19.23,0.1,28.84,0.42c6.71,0.23,12.03,3.48,16.87,7.44c3.61,2.96,2.75,10.79,0.81,15.98
				c-0.22,0.6-0.88,1.03-1.13,1.63c-1.79,4.24-3.45,8.69-9.21,4.19c0.27-1.29,0.81-2.85-0.71-3.53c-1.56-0.69-2.89,0.59-4,1.49
				c-5.7,4.64-11.79,8.68-18.62,11.39c-10.74,4.26-23.05,3.02-33.25,9.29c-4.6,2.83-9.91,1.97-14.87,2.96
				c-1.07,0.21-2.6,0.3-2.47,1.88c0.09,1.14,1.38,1.29,2.33,1.55c5.32,1.44,10.7,1.5,15.54-1.17c7.79-4.3,16.37-5.88,24.8-8
				c7.23-1.82,14.18-4.04,20.64-8.07c3.84-2.39,6.92-5.63,10.73-7.94c2.43,4.27-0.07,6.44-3.59,7.82c-6.57,2.59-11.71,8.2-19.22,8.8
				c-11.49,0.92-21.26,7.12-31.65,11.17c-8.74,3.41-17.28,6.64-26.68,7.19c-1.33,0.08-2.66,0.19-3.99,0.12
				c-10.16-0.52-10.07-0.54-11.17-10.58c-1.27-11.59,0.64-23.24-0.71-34.83c-0.1-0.84,0.1-1.69,1.06-2.02
				c0.74-0.26,1.64,0.19,1.55,0.73c-1.05,6.2,4.18,5.54,7.48,6.88c3.74,1.51,14.39,0.77,17.49-1.34c-4.62-1.91-9.1-0.86-13.43-0.71
				c-2.81,0.1-4.77-0.55-6.34-2.87c-1.4-2.07-3.11-3.84-5.51-4.89c-2.23-0.97-2.93-2.83-2.93-5.27c0-2.81-0.27-5.66-0.77-8.43
				c-1.37-7.48-1.45-7.73-8.79-7.61c-3.43,0.06-6.07-0.67-9.19-2.21c-5.43-2.69-11.41-4.68-17.38-5.82
				c-16.75-3.2-33.37-7.04-49.86-11.27c-8.06-2.07-15.85-6.12-22.27-11.82c-5.57-4.95-5.96-10.5-1.84-16.92
				c2.52-3.93,1.79-4.65-2.46-6.02c-5.69-1.83-12.28,0.06-17.3-4.44c-1.12-1-2.36,0.38-3.56,0.94c-5.54,2.61-8.96,7.75-13.83,11.24
				c-7.48,5.36-16,6.85-24.56,8.41c-6.12,1.12-11.73,3.42-17.52,5.49c-8.42,3.02-17.4,4.26-26.42,4.52c-1,0.03-2.26-0.12-2.64-1.1
				c-2.62-6.82-6.59-13.46-2.88-21.17c2.46-5.12,0.64-10.76,1.97-16.16c2.58-10.49,1.96-21.46,3.64-32.16
				c1.46-9.35,3.85-18.51,5.2-27.83c1.34-9.31,3.47-18.84,1.84-28.15c-1.2-6.85-1.28-13.83-2.11-20.64
				c-0.55-4.5-0.86-10.14,0.94-15.48c1.72-5.11,0.87-11.2,0.61-16.83c-0.5-10.6,0.97-20.93,6.34-29.99
				c4.71-7.96,10.62-15.28,17.41-21.75c0.6-0.57,1.62-1.16,1.65-1.77c0.31-6.2,4.02-11.22,5.71-16.92c0.78-2.62,0.98-4.86-2.12-6.2
				c-1.55-0.67-1.83-2.19-1.82-3.81c0.02-5.48,0.46-10.69,2.58-16.03c3.52-8.87,5.94-18.19,8.68-27.36c0.41-1.37,0.25-3.01,0-4.46
				c-0.81-4.62,0.23-8.39,3.93-11.6c4.55-3.95,3-9.48,1.07-13.46c-2.38-4.9-3.19-10.09-4.53-15.08c-2.59-9.68-6.61-18.99-7.18-29.26
				c-0.37-6.54-4.08-12.47-7.88-17.42c-6.79-8.86-11.9-18.2-13.9-29.17c-0.51-2.81-2.13-5.16-2.68-8.01
				c-1.81-9.4,2.99-17.18,5.94-25.34c2.41-6.65,4.12-13.59,7.64-19.84c1.35-2.39,0.75-4.32-2.61-3.97
				c-5.72,0.6-12.11,0.12-16.99,1.78c-5.93,2.01-10.5-0.12-15.67-0.38c-3.7-0.18-4.22-1.98-2.99-4.95c0.4-0.97,2.15-1.57,1.07-2.91
				c-0.88-1.09-2.22-0.65-3.22-0.08c-2.27,1.28-2.86,0.3-3.91-1.79c-2.17-4.35-6.22-7.48-7.98-12.29c-1.38-3.76-1.6-7.83-3.77-11.35
				c5.09,3.01,5.96,8.59,7.81,13.15c1.6,3.96,6.05,4.73,7.19,8.75c0.34,1.19,2.81,0.56,3.91-0.6c1.28-1.33-0.02-2.34-0.67-3.48
				c-1.37-2.38-6.66-1.89-5.35-5.44c1.02-2.78,5.02,0.85,7.65-1.08c1.18-0.87,4.51-2.82,2.76,2.36c-1.78,5.27,3.72,9.62,10,8.62
				c0.27,1.64-3,2.85-0.79,4.55c2.16,1.67,2.6-1.11,3.91-1.67c4.95-2.15,9.39-4.85,12.62-9.37c1.21-1.7,2.11-3.27,0.47-4.83
				c-3.47-3.31-3.17-6.93-1.62-10.96c1.11-2.89,0.29-5.03-3.19-3.68c-4.74,1.84-6.96-1.58-9.72-4c-0.58-0.51-0.73-1.48-1.19-2.17
				c-0.91-1.38-3.84-2.57-1.79-4.33c2.33-2,1.78,2.01,3.11,2.33c3.97,0.95,6.77,4.84,11.46,4.17c2.6-0.37,5.17,0.8,7.74,1.52
				c2.99,0.84,6.79,1.13,8.85-1.44c1.9-2.38,1.06-5.71-0.58-8.48c-2.76-4.66-3.47-9.83-2.47-14.97c0.78-3.99,2.48-7.83,4.06-11.62
				c0.79-1.88,1.63-3.72,1.5-5.73c-1.05-15.33,2.34-30.43,2.01-45.77c-0.26-11.95-4.17-23.13-5.48-34.81
				c-0.32-2.82-2.66-2.69-4.55-1.3c-3.72,2.72-8.02,2.83-12.33,3.14c-4.61,0.33-9.52,0.51-13.16,3.53
				c-5.04,4.2-6.29,10.23-5.82,16.56c1.76,23.91,0.52,47.88,1.42,71.81c0.02,0.62,0.08,1.35-1.02,1.8
				c-1.39-1.44-1.67-3.38-1.76-5.28c-0.59-11.8,0.17-23.66-0.4-35.41c-0.54-11.15,0.78-22.53-3-33.57
				c-1.67-4.88-1.25-10.48-1.72-15.76c-0.11-1.2,0.2-2.36,1.29-3.08c3.95-2.6,0.35-5.7,0.43-8.53c0.01-0.46-1.9-1.32-2.95-1.37
				c-1.23-0.06-1.16,1.38-1.4,2.3c-0.17,0.64-0.34,1.3-0.36,1.96c-0.06,2.11-0.38,4.76-2.99,4.03c-3.03-0.85-0.32-3.02,0.08-4.43
				c1.28-4.5,0.17-8.37-1.93-12.4c-3.77-7.22-9.29-11.86-16.73-15.36c-6.36-2.99-10.11,1.54-14.94,2.9c-1.51,0.42-2.8,1.83-4.53,1.9
				c-2.83,0.12-3.51,2.22-4.05,4.34c-1.81,7.13-2.27,14.36-1.88,21.72c0.17,3.17,1.87,7.65-4.04,8.29
				c-1.07,0.12-0.91,1.98-1.05,3.12c-0.35,2.97-0.67,5.94-1.09,9.63c-3.02-6.64-1.37-12.57-0.13-18.45
				c0.77-3.65,1.41-7.1-0.92-10.55c-1.1-1.63-1.21-3.86-0.37-5.81c7.22-16.69,19.47-29.4,32.72-41.32
				c10.03-2.31,13.61-11.13,18.94-18.37c5.62-7.64,13.09-13.56,20.21-19.79c2.55-2.22,5.59-1.99,8.3-2.85
				c7.75-2.49,10.78-9.66,16.05-14.57c5.51-5.13,12.28-8.38,18.87-11.57c12.61-6.11,27.08-6.16,40.1-11.31
				c4.6-1.82,9.91-0.91,14.71-2.56c5.13-1.75,4.9-2.21,2.74-7.17c-2.72-6.23-4.96-12.55-9.31-18c-1.95-2.44-4.25-4.07-6.64-5.82
				c-2.73-1.98-4.76-3.89-2.03-7.76c1.98-2.81,0.22-6.33-0.72-9.34c-0.58-1.86-1.12-3.31,0.1-5.1c2.28-3.35,2.23-4.72,0.14-9.41
				c-2.54,1.72-0.28,4.93-2.71,7.32c-0.67-7.79-1.63-15.04-1.38-22.38c0.06-1.68,1.27-2.69,3-2.78c3.91-0.2,4.96-2.68,4.99-6.08
				c0.05-5.48,2.54-10.08,5.13-14.73c2.48-4.46,4.25-9.31,6.69-13.8c5.73-10.53,13.71-18.13,26.26-19.85
				c3.75-0.51,7.27-2.34,11.19-2.3c16.24,0.15,30.73,4.56,41.75,17.26c2.5,2.88,4.44,6.12,5.16,10c0.95,5.17,3.6,9.79,4.98,14.92
				c1.74,6.5,1.12,12.78,1.79,19.12c0.19,1.84,0.03,3.9,2.29,4.5c4.59,1.21,4.19,4.7,3.62,8c-0.63,3.59-1.46,7.21-2.73,10.62
				c-3.16,8.49-3.1,17.54-5,26.23c-0.75,3.4-3.77,4.26-6.92,4.61c-2.82,0.31-4.97,0.43-3.79,4.84c0.73,2.73-1.57,6.21-2.34,9.4
				c-2.12,8.7-0.9,10.68,7.86,12.87c2.26,0.56,4.54,0.74,6.92,0.45c11.87-1.49,22.9,0.53,33.69,6.26c4.94,2.62,10.47,4.96,16.7,5.44
				c3.85,0.3,8.4,2.59,10.86,6.96c3.05,5.43,7.12,10.16,8.32,16.7c2.84,15.41,0.29,29.81-5.59,44.2
				c-4.01,9.83-10.69,17.25-17.36,25.08c-6.04,7.09-9.39,15.26-6.97,25.52c2.23,9.46,1.61,19.12-0.9,29.02
				c-2.15,8.49-1.11,17.96,0.57,26.76c1.07,5.6,1.05,11.03-0.18,16.28c-1.02,4.33-1.34,8.58-0.94,12.82
				c0.72,7.59-1.94,14.81-1.86,22.32c0.03,2.48-1.43,4.4-4.18,4.9c-1.99-1.16-1.19-2.85-0.79-4.41c2.01-7.86,1.64-15.87,1.59-23.85
				c-0.02-2.59-0.97-4.7-2.87-6.66c-3.71-3.82-7.34-7.75-10.56-11.98c-1.88-2.46-4.82-4.78-3.99-9.82
				c4.43,6.77,10.36,10.67,14.35,16.38c1.16,1.66,2.95,2.6,4.58,0.78c1.07-1.2,3-3.06,0.82-4.67c-6.36-4.72-11.66-10.66-18.4-15
				c-7.89-5.09-12.92-13.3-19.61-19.75c-1.03-0.99-1.14-2.64,0.12-3.55c1.26-0.92,2.02,0.41,2.81,1.25
				c3.64,3.86,7.36,7.65,10.95,11.56c6.22,6.76,14.16,11.49,20.71,17.84c0.92,0.89,1.38,2.55,3.08,1.75c1.5-0.7,1.21-2.23,1.11-3.54
				c-0.95-12.42-2.23-24.77,0.17-37.25c1.54-8-0.42-16.21-0.21-24.34c0.02-0.76-0.16-1.89-0.67-2.23c-1.16-0.79-2.47,0.03-3.07,0.89
				c-2.87,4.16-8.06,4.37-11.74,7.12c-0.78,0.59-2.04,0.96-2.7-0.04c-0.98-1.5,0.42-2.07,1.47-2.47c3.62-1.37,6.61-3.8,9.93-5.67
				c1.66-0.94,2.37-2.4,2.32-4.12c-0.04-1.69-1.61-1.89-2.9-2.2c-1.14-0.27-2.52-0.47-2.51-1.94c0.01-1.67,1.44-2.06,2.81-2.28
				c1.48-0.24,2.96-0.54,4.44-0.6c2.05-0.09,4.35-0.04,5.06-2.33c1.52-4.89,5.51-7.86,8.62-11.42
				c16.87-19.37,23.01-41.41,16.42-66.36c-1.86-7.05-4.74-14.52-13.09-16.7c-8.97-2.34-17.89-4.6-26.27-8.76
				c-8.13-4.03-16.75-5.27-25.72-3.17c-2.87,0.67-5.41,0.17-8.07-1.42c-5.81-3.48-12.66-4.84-18.35-8.7
				c-0.88-0.59-2.25-0.65-3.39-0.63c-10.47,0.2-20.82-1.6-31.26-1.79c-2.47-0.05-5.08-0.1-7.41,0.58
				c-8.47,2.49-16.67,5.93-25.64,6.5c-3.26,0.2-6.4,0.98-9.13,3.47c1.5,1.35,2.89,1.24,4.11,1.61c2.34,0.72,6.91-0.68,6.55,2.2
				c-0.32,2.56-4.83,0.88-7.51,0.99c-12.65,0.52-25.27-2.14-37.96,2.55c-11.61,4.29-22.32,8.91-29.74,19.36
				c-2.23,3.14-5.11,5.43-9.46,6.38c-5.04,1.1-10.13,3.64-13.57,7.69c-6.68,7.84-15.31,14.14-19.4,24.1
				c-0.34,0.82-1.65,1.3-1.13,2.47c0.59,1.36,1.89,1.01,3.03,1.08c1.54,0.09,4.15-0.82,4.19,1.22c0.05,2.16-2.73,1.84-4.45,2.07
				c-2.9,0.4-5.81-0.7-8.77,0.89c-9.02,4.85-16.56,11.42-23.29,19.01c-0.62,0.7-1.92,1.25-1.32,2.39c0.74,1.41,2.01,0.69,3.06,0.25
				c4.41-1.83,8.81-2.85,13.49-0.75c14.46,6.48,23.9,17.69,30.22,31.87c0.93,2.09,2.62,4.81,4.54,2.75c2.88-3.12,4.34-1.51,6.4,0.32
				c0.81,0.72,1.93,0.93,2.7,0.06c2.19-2.46,5.22-1.67,7.9-2.28c8.85-2.01,17.28-4.85,22.05-13.53c1.74-3.16,3.39-6.37,5.09-9.56
				c0.4-0.76,0.91-1.51,1.89-0.97c0.7,0.38,0.61,1.23,0.29,1.79c-3.05,5.33-4.66,11.55-9.66,15.69c-1.49,1.23-1.86,2.92-1.78,4.75
				c6.08-0.42,1.09,2.93,0.9,3.66c-0.97,3.69-0.17,6.16,3.55,7.44l-0.09-0.13c-2.8,3.27-4.82,6.99-0.79,10.35
				c4.03,3.35,3.64,7.18,2.47,11.26c-0.54,1.91-1.6,3.7-1.51,5.74c0.59,13.6-2.35,27.1-1.26,40.68c0.59,7.36-1.52,13.78-4.96,19.95
				c-1.59,2.85-1.81,5.92-1.02,8.71c2.76,9.84,11.33,16.01,21.85,16.36c2.1,0.07,4.49-0.43,6.93,2.37
				c-6.57,0.15-12.1,1.18-17.68-0.24c-1.74-0.44-3.82-1.15-4.76,1.19c-0.97,2.44-0.76,5.1,0.73,7.18c1.39,1.93,3.28,0.67,4.89-0.25
				c3.02-1.72,6.55-2.13,9.61-3.89c1.65-0.94,4.06-1.45,5.87,0.42c-0.74,1.79-2.21,1.57-3.47,1.83c-4.61,0.94-8.68,3.06-12.44,5.8
				c-1.53,1.11-3.23,2.63-2.42,4.48c0.89,2.02,3.15,1.38,4.91,0.81c9.43-3.05,19.03-5.69,28.23-9.33c12.92-5.12,26.61-6.44,40-9.3
				c1.43-0.3,3.53-0.41,3.6,1.5c0.07,1.86-2.1,1.85-3.51,1.84c-7.41-0.04-14.27,2.86-21.49,4c-17.89,2.83-34.08,11.95-51.99,15.19
				c-4.43,0.8-2.71,5.55-2.31,8.51c0.44,3.28,2.87,1.97,5.04,1.29c11.41-3.58,23.54-3.93,34.92-7.82c6.5-2.23,13.18,0.45,19.82,0.18
				c16.3-0.65,32.71-1.72,48.81,1.58c9.4,1.93,18.8,1.54,28.21,2.2c2.56,0.18,5.15,0.25,8.57-2.14c-6.37-0.99-11.25-3.07-16.29-4.34
				c-11.79-2.98-24.06-2.24-36.07-3.81c-6.38-0.83-12.97-0.06-19.47-0.04c-1.14,0-2.66,0.09-2.65-1.49c0-1.59,1.57-1.38,2.68-1.48
				c0.83-0.07,1.67,0.03,2.5-0.05c14.84-1.47,29.56,0.5,44.31,1.55c3.47,0.25,6.94,0.22,10.34,1.43c5.78,2.06,11.86,3.26,17.67,5.12
				c6.82,2.18,14.31,1.1,20.74,4.94c1.97,1.18,4.56-0.16,6.86-0.49c0.64-0.09,1.35-0.37,1.39-1.19c0.05-1.05-0.9-1.26-1.59-1.65
				c-1.97-1.13-4.18,0.14-6.31-0.89c-5.48-2.66-10.97-5.47-16.75-7.28c-9.97-3.12-19.7-7.08-30-9.17c-1.71-0.35-4.35-1.12-3.83-3.12
				c0.62-2.39,3.33-1.29,5.21-1.19c0.64,0.04,1.24,0.46,1.88,0.65c4.91,1.43,9.81,2.88,14.74,4.26c7.64,2.14,15.12,4.67,22.43,7.81
				c5.64,2.42,11.56,4.19,17.4,6.11c1.62,0.53,4.57-0.31,2.99-1.81c-2.76-2.62-1.01-4.46-0.92-6.93
				c0.25-6.76-8.14-13.55-14.99-12.38c-11.49,1.96-21.85-0.82-32.16-5.92c-8.06-3.99-16.54-7.89-26.19-5.01
				c-2.83,0.84-5.93,1.37-8.86,0.15c-2.69-1.12-5.11-0.56-7.72,0.37c-6.61,2.34-13.96,5.6-20.35,3.09
				c-6.48-2.55-9.61,1.95-14.44,2.37c0.61,2.42,3.35,1.87,3.43,4.64c-7.17-0.4-14.09,0.34-21.03,0.66
				c-0.49,0.02-1.04-0.04-1.46-0.26c-10.11-5.12-21.18-6.55-32.13-8.44c-0.98-0.17-2.09-0.2-2.23-1.51c-0.11-1.12,0.63-1.86,1.5-2.4
				c1.5-0.94,3.12-1.02,4.81-0.58c5.15,1.34,10.3,2.65,15.45,3.99c11.29,2.94,22.59,3.87,33.74-0.45c3.85-1.49,7.33-4.03,11.24-5.24
				c7.52-2.33,14.41-6.05,21.66-8.97c4.74-1.91,9.53-3.66,13.78-6.62c0.8-0.56,2-0.5,2.69,0.47c0.42,0.59,0.28,1.5-0.41,1.68
				c-4.98,1.3-8.51,5.4-13.64,6.62c-6.13,1.46-11.54,4.83-17.39,7.94c4.16,2.28,7.66,1.79,13.25-0.35
				c10.37-3.96,21.05-7.17,31.27-11.47c4.66-1.96,10.31-0.97,14.18-5.03c0.71-0.75,1.94-0.86,2.53,0.3c0.66,1.3-0.06,2.39-1.23,2.83
				c-2.48,0.93-5.1,1.52-7.58,2.47c-6,2.3-12.85,2.63-18.13,7.66c0.92,0.45,1.5,1,2.04,0.96c10.68-0.89,19.76,4.04,28.74,8.5
				c10.49,5.21,21.33,4.4,32.29,3.63c1.95-0.14,4.1-0.85,5.21-2.63C1049.55,490.68,1051.76,489.82,1053.5,488.31z M1049.88,1056.1
				c-0.1-3.15,3.62-2.91,4.98-5.48c-2.66-1.07-4.88-1.38-6.95,0.62c-0.92,0.89-2.25,1.79-1.71,3.29c0.64,1.78,2.34,1.48,3.82,1.45
				c0.39,1.57-2.07,5.33,0.81,4.43c5.55-1.73,11.38-2.54,16.74-4.89c0.82-0.36,1.45-0.93,1.29-1.87c-0.15-0.92-0.96-1.32-1.81-1.4
				c-1.83-0.18-3.82-0.32-5.33,0.69C1058.08,1055.36,1053.93,1055.47,1049.88,1056.1z M844.25,872.18
				c9.09,0.22,18.17,0.77,27.26,0.14c1.22-0.08,3.22,0.47,3.33-1.19c0.13-2.05-1.99-1.62-3.36-1.79c-7.96-0.96-15.87,0.36-23.8,0.48
				c-1.65,0.02-2.85,0.76-3.33,2.44c-1.64-0.03-3.29-0.2-4.9-0.04c-1.43,0.15-2.61,1-1.94,2.66c0.65,1.6,2.01,1.33,3.34,0.77
				C842.48,874.96,843.09,873.3,844.25,872.18z M844.24,881.17c0.66,0.11,1.31,0.28,1.97,0.32c10.44,0.64,20.9-0.21,31.36,0.41
				c4.01,0.24,6.64-2.56,7.22-6.87c0.26-1.93-0.55-2.85-2.22-3.22c-1.59-0.36-3.53-1.2-4.64,0.43c-1.29,1.89,1.31,1.7,1.89,2.64
				c0.32,0.51,0.76,1.27,0.59,1.69c-0.45,1.12-1.58,0.98-2.58,0.9c-9.33-0.72-18.59,0.77-27.89,0.89c-2.23,0.03-4.87-0.25-5.59,2.9
				c-1.63-0.09-3.26-0.29-4.88-0.25c-1.25,0.03-2.34,0.71-2.14,2.11c0.2,1.38,1.45,1.55,2.65,1.6
				C842.48,884.82,843,882.57,844.24,881.17z M967.79,211.79l0.14,0.12c0.29-3.23-2.95-2.98-4.62-4.31
				c4.01-3.08,9.51-3.88,14.9-2.31c5.28,1.54,10.73-0.84,13.53-5.49c1.96-3.26-1.15-4.61-2.32-6.36c-1.35-2.02-2.33,0.29-3.25,1.31
				c-0.31,0.35-0.89,0.83-1.2,0.74c-5.05-1.45-6.68,1.81-8.37,5.58c-0.76,1.71-3.04,1.84-4.88,1.9c-0.72,0.03-1.32-0.51-1.31-1.23
				c0.04-1.74,1.61-2.42,2.65-3.43c1.3-1.26,2.69-2.45,4.11-3.59c1.33-1.08,2.06-2.3,0.91-3.84c-1.66-2.2-0.63-3.99,1.14-5.07
				c2.33-1.42,3.11,0.5,3.78,2.38c0.43,1.23,1.59,1.63,2.83,1.66c1.02,0.02,1.54-0.56,1.5-1.54c-0.07-1.6-0.88-3.65,1.45-4.13
				c2.37-0.5,3.28,1.82,4.85,3.47c-0.02-3.13,4.85-2.76,3.91-6.35c-0.51-1.93,0.43-2.91,1.95-4.06c2.45-1.86,2.9-9.29,1.77-12.21
				c-1.3-3.34-2.87-7.4-1.12-10.51c2.09-3.72,2.56-7.93,4.41-11.44c4.64-8.79-1.45-16.4-1.76-24.57c-0.02-0.6-1.45-1.2-2.28-1.71
				c-15.07-9.26-31.07-12.23-48.13-6.62c-6.61,2.17-12.21,6.37-15.9,12.13c-2.99,4.67-5.54,9.75-8.36,14.54
				c-5.41,9.17-8.2,19-8.88,29.32c-0.39,5.86,1.38,11.82,1.77,17.77c0.33,5.13-0.65,10.43,0.26,15.41c1.62,8.87,5,17.28,10.72,24.41
				c2.49,3.1,3.92,6.64,4.88,10.24c1.05,3.92,2.83,5.33,6.67,4.29c7.99-2.16,16-4.22,24.42-3.23c0.72,0.08,1.52-0.79,2.29-0.8
				c2.87-0.03,6.45-0.93,8.44,0.43c3.07,2.1,5.49,1.56,8.37,0.64c1.13-0.36,2.36-0.58,2.5-2.03c0.15-1.47-1.03-1.98-2.1-2.44
				c-1.93-0.83-3.95-1.68-2.48-4.31c1.79-3.22,3.46-6.64,7.43-8.26c0.72,2.78,1.3,5.25-0.75,7.3c-1.4,1.4-2.08,3.08-0.48,4.26
				c1.91,1.41,3.28-0.88,3.86-2.01c2.84-5.56,9.06-8.14,11.81-13.65c1.53-3.06,3.24-3.61,6.06-0.61c-1.27-4.26,0.36-7.09,2.91-9.44
				c0.83-0.77,2.28-0.99,1.57-2.53c-0.71-1.54-2.23-1.99-3.75-2.05c-2.27-0.09-1.49,1.3-1.34,2.69c0.22,2.07-2.07,3.34-3.13,3.23
				c-3.6-0.35-3.97,1.69-4.37,4.32c-0.18,1.19-0.2,2.7-1.57,3.45c-1.87-0.04-1.51-4.56-3.72-2.43c-1.81,1.74-5.67,3.92-1.82,7.88
				c-1.84-0.74-3.73-1.17-4.21-2.23c-1.72-3.84-3.17-2.26-4.91-0.17c-1.41,1.69-2.66,3.25-5.19,1.02c-1.38-1.22-3.47-0.8-4.74,1.11
				c-0.74,1.1-1.57,2.15-2.44,3.15c-1.01,1.16-2.29,2.46-3.71,0.9c-1.2-1.32,0.09-2.41,1.16-3.25c1.31-1.03,2.71-1.93,3.94-3.05
				c1.22-1.11,1.46-2.6,0.8-4.12c-0.42-0.97-1.27-1.89-2.32-1.22C973.39,212.52,970.42,210.57,967.79,211.79z M1078.13,741.92
				c-1.37-2.05-0.8-3.94-1.06-5.71c-1.95-13.42,7.77-25.83,3.44-39.47c-0.11-0.35,0.28-0.98,0.59-1.33c1.87-2.06,1.8-4.64,1.74-7.1
				c-0.16-6.32-0.79-12.64-0.73-18.96c0.18-18.2-2.89-36.09-4.86-54.09c-0.23-2.08-1.29-3.76-2.5-5.36
				c-2.19-2.89-4.42-2.12-4.81,0.88c-0.51,3.9-3.15,6.53-4.46,9.88c-0.54,1.4-1.39,3.22-3.15,2.39c-2.28-1.08-0.66-2.76,0.02-4.19
				c5.1-10.66,7.94-21.43,5.35-33.58c-3.43-16.11-8.04-31.87-12.26-47.75c-0.29-1.08-0.21-2.65-1.73-2.64
				c-1.64,0.01-2.13,1.52-2.24,2.85c-0.96,12.1-5.85,23.09-9.68,34.38c-0.37,1.08-0.5,2.69-1.99,2.34c-1.88-0.45-1.4-2.4-0.75-3.29
				c2.76-3.8,2.68-8.5,4.19-12.69c2.24-6.2,3.91-12.71,4.12-19.45c0.06-1.85-0.14-3.5-2.29-3.74c-3.95-0.44-7.51-2.67-10.94-3.42
				c-6.64-1.46-13.56-2.97-20.7-2.4c-9.6,0.77-19.32,1.2-28.9-0.29c-14.35-2.24-28.83-2.11-43.26-2.89
				c-7.62-0.41-15.24,2.28-22.88,0.36c-4.58-1.15-8.94-0.65-13.22,1.01c-3.6,1.39-7.32,2.16-11.09,2.89
				c-8.76,1.71-18.03,1.27-26.13,5.91c-1,0.57-1.86,0.34-2.72-0.38c-2.96-2.46-4.21-0.14-5.12,2.08
				c-4.57,11.08-9.03,22.2-13.52,33.3c-2.73,6.73-3.65,13.43,0.24,20.09c0.41,0.71,1.02,1.59,0.89,2.28
				c-1.43,7.95,3.37,13.81,7.25,19.56c3.29,4.87,5.89,11.7,14.03,10.81c1.31-0.14,1.59,0.93,1.16,2.09c-0.7,1.87,0.7,2.64,1.81,3.67
				c6.56,6.12,13.06,12.31,19.63,18.43c1.89,1.76,3.49,3.6,4.03,6.97c-1.76-1.13-2.96-1.73-3.95-2.57
				c-7.16-6.08-14.28-12.22-21.41-18.34c-0.75-0.65-1.54-1.57-2.56-0.79c-0.91,0.7-0.67,1.85-0.23,2.77c0.99,2.1,2.03,4.18,3.16,6.2
				c6.76,12.19,13.43,24.52,26.43,31.38c3.09,1.63,5.94,3.55,8.94,5.27c6.96,4.01,13.07,9.48,21.38,11.21
				c4.91,1.02,10.15,2.62,14.14,5.49c9.7,6.97,20.95,11.5,29.84,19.71c4.38,4.04,10.36,5.98,14.79,10.09
				c1.03,0.96,2.48,1.51,3.69,0.71c2.94-1.95,4.48-0.4,6.11,1.88c1.35,1.89,3.1,3.48,4.55,5.31c0.82,1.03,2.91,1.97,1.18,3.63
				c-1.32,1.27-2.85,0.37-4.04-0.61c-2.16-1.78-3.99-3.81-6.61-5.19c-9.35-4.92-18.5-10.18-27.25-16.18
				c-2.41-1.65-4.38-4.98-8.26-4.52c0.14,1.95,1.19,3.01,2.13,4.17c4.16,5.12,8.83,9.78,13.29,14.61
				c5.54,5.99,11.16,11.86,17.14,17.37c14.53,13.38,29,26.77,38.03,44.99c-14.97-22.6-36.67-38.33-56.25-56.27
				c15.79,25.7,33.03,50.22,55.1,70.95c-0.98,0.99-1.94,1-2.56,0.5c-20.02-16.01-34.8-36.5-48.7-58.07
				c-3.25,4.26,0.62,6.62,1.43,9.52c2.44,8.72,3.77,17.68,7.09,26.24c3.11,8.01,5.41,16.15,13.92,20.3
				c1.05,0.51,1.94,1.32,1.75,2.85c-1.99,0.39-3.37-0.79-4.88-1.76c-4.8-3.08-5.82-2.69-6.84,2.74c-0.4,2.11-0.93,4.43-0.47,6.44
				c1.66,7.11,0.83,14.14,0.01,21.21c-0.04,0.33,0,0.67,0.01,1c0.24,8.91,0.24,8.88,9.27,8.64c1.65-0.04,3.38,0,4.95,0.45
				c6.5,1.89,13.18,1.85,19.83,2.01c5.38,0.12,10.72,0.52,15.74,2.42c7.76,2.93,15.67,2.47,23.62,1.62
				c3.62-0.39,7.78-1.51,10.75-1.21c3.52,0.36,6.23,0.12,9.59-0.72c5.21-1.31,9.59-3.94,13.66-6.97c3.63-2.7,8.58-4.29,8.3-11.08
				c-0.09-2.23,0.73-5.12,0.29-8c-0.66-4.33-3.88-8.12-3.04-12.59c0.47-2.51,0.65-4.85,0.37-7.37c-0.68-6.28-1.67-12.59-1.62-18.88
				c0.16-19.69-2.69-39.22-2.94-58.88c-0.02-1.45,0.33-3.41-2.27-4.26c-1.12,3.69-3.23,7.33-3.08,10.88
				c0.21,5.13-2.26,9.31-3.41,13.89c-0.43,1.74-1.86,6.03-4.04,5.06c-2.42-1.07,1.88-2.74,1.66-4.73c-0.02-0.16,0.03-0.33,0.07-0.49
				c1.5-6.59,2.91-13.21,4.54-19.77c1.2-4.81,0.52-9.61,0.29-14.41c-0.08-1.62-0.57-3.59-2.75-3.54c-2.28,0.06-2.21,2.07-2.38,3.73
				c-0.79,8.1-3.52,15.94-3.21,24.2C1079.91,739.05,1079.68,740.64,1078.13,741.92z M903.63,718.48c-3.91-2.23-7.3-2.25-10.57-3.46
				c-5.56-2.05-10.5-4.83-15.21-8.26c-1.26-0.92-2.96-1.13-2.79,0.89c0.38,4.5-1.64,8.37-2.45,12.54
				c-1.54,7.93-3.27,15.79-5.88,23.42c-1.07,3.12-2.79,5.91-3.02,9.41c-0.28,4.38,0.84,6.04,5.56,5.53
				c6.43-0.7,12.94-0.72,19.42-0.91c1.84-0.05,4.18,0.21,4.11,2.58c-0.07,2.54-2.47,2.2-4.27,2.12c-3.99-0.18-8.01-0.23-11.96-0.73
				c-4.22-0.53-6.63,1.1-7.8,5.09c-1.72,5.86-2.65,11.94-5.68,17.44c-3.5,6.36-3.1,6.82,4.27,8.3c0.81,0.16,1.65,0.23,2.48,0.27
				c7.44,0.36,14.65,1.54,21.26,5.33c1.01,0.58,2.64,0.48,3.89,0.21c7.03-1.51,13.06,0.82,16.59,6.78c0.68,1.15,1.25,2.02,2.63,1.54
				c4.53-1.57,2.73,1.6,2.55,3.43c-1.13,11.84-5.6,22.66-10.87,33.08c-1.85,3.66-1.46,7.97-3.97,11.16
				c-9.09,11.57-13.32,25.41-17.22,39.09c-3.71,13.03-7.38,26.19-9.23,39.72c-0.88,6.45-2.45,12.26,0.45,19.25
				c2.75,6.63,7.68,8.66,12.67,9.57c5.82,1.05,11.78,1.54,17.63,2.91c8.5,1.98,11.86,8.78,7.94,16.79
				c-1.94,3.96-0.66,6.36,3.88,6.54c3.85,0.15,7.74,0.06,11.26,1.75c3.04,1.46,7.68-0.72,9.29,3.42c1.47,3.76-1.52,7.07-2.85,10.29
				c-1.68,4.05-0.75,6.68,2.16,9.21c1.5,1.3,3.02,2.63,4.7,3.67c8.8,5.48,18.49,8.97,28.43,11.46c4.13,1.04,8,2.8,12.38,3.41
				c11.82,1.65,23.77,2.8,35.18,6.99c5.12,1.88,9.64,5.33,15.26,5.87c6.02,0.58,7.09-0.47,5.53-6.24
				c-2.21-8.16-4.55-16.3-7.22-24.32c-1.4-4.2-2.55-8.48-4.72-12.5c-2.83-5.23-5.82-10.8-6.76-16.54
				c-1.47-9.02-7.13-16.83-6.93-26.2c0.01-0.45-0.46-0.89-0.59-1.36c-2.53-9.45-5.53-18.8-7.42-28.38
				c-2.5-12.65,0.56-24.8,5.4-36.47c0.91-2.19,1.45-8.1,6.02-2.33c0.39,0.49,1.88,0.24,2.84,0.13c9.54-1.04,18.99-2.63,28.71-2.07
				c7.79,0.45,15.6,0.31,23.27,2.1c4.66,1.09,8.88-3.09,7.62-7.76c-0.88-3.25-3.4-6.12-1.12-9.86c0.61-1-1.19-1.6-2.17-2.23
				c-5.18-3.36-10.83-2.57-16.45-2.03c-1.74,0.17-4.09,1.42-4.5-1.21c-0.41-2.57,2.39-2.61,3.97-2.64
				c5.19-0.1,10.46-0.33,15.38,1.92c2.17,0.99,4.33,1.25,7.1-0.15c-3.27-0.17-4.93-1.24-4.52-4.51c0.22-1.8-1.75-1.32-2.96-1.7
				c-4.38-1.37-8.43,1.64-12.79,0.67c-7.07-1.57-14.11-3.76-21.53-1.96c-0.68,0.16-1.92-0.18-2.26-0.7
				c-2.43-3.75-6.48-2.85-9.92-3.64c-2.81-0.65-4.06,0.45-3.77,3.45c0.27,2.74,0.53,5.55-0.91,8.2c-2.26-0.91-2.15-2.84-2.55-4.31
				c-1.27-4.62-4.32-7.68-8.69-8.84c-7.05-1.86-14.27-3.24-21.62-2.78c-5.48,0.35-7.26-0.87-7.4-6.5
				c-0.36-14.28-0.63-28.56-0.79-42.84c-0.03-2.39-0.56-4.53-1.18-6.79c-1.73-6.27-5.23-12.17-6.09-18.39
				c-0.99-7.19-2.29-14.13-4.89-20.86c-1.81-4.69-1.88-4.66-5.64-0.99c-1.3-2.43,0.07-5.3-1.82-7.61
				c-13.63-16.68-25.86-34.48-41.05-49.95c-5-5.09-10.38-9.11-16.49-12.46c-9.01-4.94-18.46-9.27-24.64-18.12
				c-2.59-3.7-4.85-7.72-9.46-11.75c0.74,6.66,2.3,12.07,4.11,16.67c2.73,6.9,4.72,14.02,7.33,20.94c0.54,1.43,1,2.9,2.21,3.83
				c5.14,3.95,11.32,6.06,16.87,9.3c1.1,0.64,3.68-0.18,3,2.02c-0.57,1.85-2.85,1.4-4.38,0.72c-5.43-2.41-11.4-3.64-16.27-7.32
				c-1.01-0.76-2.14-1.13-3.12-0.03c-1.17,1.32-0.57,2.48,0.63,3.38c3.18,2.4,6.18,5.01,9.61,7.13
				C894.83,712.77,900.23,712.87,903.63,718.48z M926.28,693.53c0.37,0.07-0.31,0.25-0.46,1.02c-0.29,1.51,0.64,2.42,1.71,3.33
				c6.09,5.18,11.41,11.02,16.13,17.54c6.31,8.71,12.84,17.25,18.88,26.16c0.63,0.93,1.04,2.98,2.82,2.01
				c1.59-0.86,1.12-2.6,0.75-4.05c-0.36-1.42-1.73-3.13-0.6-4.24c3.57-3.5,0.93-5.26-1.47-7.55c-2.87-2.75-5.85-5.58-7.95-8.91
				c-2.06-3.25-6.82-5.86-3.62-11.18c0.81-1.34-0.78-3.13-2.61-3.62c-1.66-0.44-2.93-1.5-4.37-2.29
				C939.69,698.57,933.81,695.54,926.28,693.53z M1060.46,1100.48c-2.24-1.35-3.41,0.32-4.88,0.87c-2.26,0.83-3.88-0.29-5.02-2.12
				c-0.67-1.07-0.86-2.47,0.72-2.82c6.68-1.49,1.9-4.14,0.39-5.78c-2.11-2.29-2.92-3.92,0.14-5.94c2.84-1.88,0.95-3.08-0.91-3.67
				c-3.17-1.01-4.18,0.95-4.31,3.7c-0.28,5.87,1.33,11.69,0.36,17.6c-0.37,2.26-0.06,4.64,0.01,6.97c0.07,2.15,0.71,4.07,3.22,4.33
				c3.63,0.37,7.28,0.61,10.93,0.8c1.35,0.07,2.99-0.25,3.13-1.82c0.18-2-1.57-2.33-3.12-2.32c-3.65,0.03-6.91-0.94-9.93-3.47
				C1055.86,1106.94,1058.18,1103.99,1060.46,1100.48z M865.02,829.46c2.4-1.87,4.82-0.79,7.06-1.09c1.17-0.16,2.57-0.23,2.47-1.8
				c-0.1-1.55-1.54-1.55-2.7-1.49c-2.65,0.14-5.3,0.45-7.95,0.56c-2.32,0.1-5.65-1.13-3.5,3.54c0.68,1.47-1.03,1.9-2.11,2.12
				c-2.33,0.47-4.57,0-6.87-0.62c-3.64-0.99-7.26-2.29-11.15-2.06c-1.44,0.09-3.44-0.45-3.27,1.84c0.15,2.12,2.15,1.57,3.57,1.62
				c2.31,0.09,4.79-1.42,6.87-0.17c5.24,3.14,11.03,1.81,16.56,2.54c2.16,0.28,6.09-1.46,6.1,0.96c0.01,3.02-3.96,1.29-6.17,1.71
				c-3.98,0.76-8.25-0.11-12.07,1.9c6.4,0.61,12.76,0.85,19.09,0.47c2.04-0.12,2.96-2.55,2.93-4.69c-0.03-2.36-1.84-2.83-3.74-3.24
				C868.44,831.19,866.41,831.56,865.02,829.46z M851.74,969.92c0.82,2.22,3.6,1.84,2.88,3.95c-0.58,1.71-2.46,1.44-3.85,1.73
				c-0.75,0.16-1.63-0.12-2.41-0.34c-1.84-0.53-3.08,0-3.04,1.98c0.03,1.68,1.04,2.98,2.91,2.49c2.42-0.63,4.61,0.1,6.84,0.67
				c3.06,0.78,5.64,0.32,8.44-1.49c4.01-2.59,8.48-4.48,12.78-6.62c1.6-0.8,5.02-0.17,4.09-2.94c-0.77-2.31-3.78-0.96-5.78-0.6
				c-0.92,0.17-1.67,1.21-2.59,1.39c-3.8,0.73-7.63,3.79-11.37,1.62C857.72,970.08,855,970.67,851.74,969.92z M878.33,1000.77
				c3.74-3.67,9.9-1.9,15.26-5.31c7.1-4.53,12.81-10.25,18.88-15.73c1.49-1.35,1.88-3.49,0.16-4.85c-2.05-1.62-2.51,0.92-3.71,1.84
				c-3,2.32-2.44,6.41-5.62,9.03c-7.88,6.52-17.63,8.03-26.61,11.62c-1.14,0.46-3.17,0.26-2.82,2.05
				C874.17,1000.9,876.02,1000.6,878.33,1000.77z M837.58,953.22c0.53,2.09,4.34,0.85,3.83,3.06c-0.59,2.52-3.28,1.39-5.15,1.35
				c-0.94-0.02-1.73,0.12-1.68,1.22c0.07,1.25,1.12,1.67,2.13,1.65c3-0.05,5.99-0.25,8.6,1.7c0.57,0.43,1.27,0.41,1.81-0.12
				c0.86-0.83,0.85-1.99,0.24-2.74c-2.94-3.54-0.35-3.85,2.34-5.06c3.86-1.74,9.24-0.91,11.22-6.2c0.33-0.89,1.39-1.56,0.35-2.52
				c-0.79-0.73-1.46-0.05-2.18,0.36c-5.47,3.08-11.33,5.01-17.57,5.74C840.07,951.83,838.46,951.6,837.58,953.22z M869.84,909.84
				c1.87-0.85,4.98,1.85,6.08-1.18c1.02-2.81,0.07-6.03-1.35-8.6c-1.13-2.06-3.6-1.97-5.85-1.37c-6.42,1.71-12.88,3.16-19.57,3.3
				c-1.09,0.02-2.68,0.09-2.41,1.72c0.24,1.47,1.82,1.27,2.91,1.18c6.59-0.54,13.28-0.25,19.67-2.39c1.11-0.37,2.41-1.09,3.12,0.19
				c0.78,1.39-0.45,2.47-1.35,3.42c-0.85,0.9-1.98,1.13-3.19,1.11c-1.61-0.03-4.24-0.5-4.16,1.4c0.1,2.51,2.85,1.13,4.46,1.38
				C868.67,910.07,869.18,909.91,869.84,909.84z M1073.45,935c0,0.02,0,0.05-0.01,0.07c1.32,0.11,2.65,0.29,3.97,0.31
				c1.28,0.02,2.97,0.27,2.91-1.71c-0.04-1.49-1.57-1.78-2.64-1.65c-6.43,0.74-12.38-0.97-18.33-3.07c-2.8-0.99-5.97,0.6-8.8-1.01
				c-1.43-0.81-2.98-1.7-4.61-0.41c-0.76,0.6-0.61,1.46-0.32,2.27c0.69,1.91,1.96,2.85,4.07,3.03
				C1057.63,933.49,1065.54,934.27,1073.45,935z M1033.28,950.55c-4.49-1.01-6.68,3.39-10.48,3.31c-1.41-0.03-4.27-0.36-4.02,1.68
				c0.27,2.23,3,1.04,4.68,1.28c4.98,0.7,9.1-2.76,13.92-2.8c1.9-0.01,4.2-0.43,2.37,2.72c-1.55,2.68,0.98,3.27,2.31,3.69
				c1.8,0.56,2.04-1.25,1.98-2.58c-0.07-1.65-0.3-3.19,0.73-4.76c1.56-2.39,0.49-3.38-2.1-3.04
				C1039.39,950.5,1036.05,949.64,1033.28,950.55z M847.46,862.61c9.44,2,19.22,1.36,28.73,3.19c1.87,0.36,4.71,0.94,5.08-1.53
				c0.4-2.67-2.77-2.11-4.45-2.78c-0.74-0.29-1.64-0.21-2.47-0.24C865.4,860.96,856.49,861.61,847.46,862.61z M1037.82,944.3
				c0.08-1.2-1.16-1.29-1.92-1.73c-1.24-0.72-2.77-2.06-3.86-0.19c-1.5,2.57-3.87,2.27-6.11,2.37c-3.02,0.14-5.93,0.59-8.72,1.77
				c-1.52,0.64-2.67,1.65-2.23,3.38c0.55,2.19,2.28,1.41,3.67,1.06c3.96-1.02,7.7-2.55,11.99-2.71
				C1032.85,948.16,1036.35,947.53,1037.82,944.3z M1019.8,942.11c6.2,0.19,11.95-2.54,18.08-2.81c1.59-0.07,3.88,0.21,3.83-2.01
				c-0.05-2.05-1.97-2.59-4.04-2.69c-3.36-0.17-6.16,0.24-8.93,2.68c-3.34,2.95-8.03,1.12-12.01,2.13
				c-0.91,0.23-2.16,0.28-1.93,1.67c0.17,1,1.21,0.97,2.01,1.02C1017.81,942.15,1018.81,942.11,1019.8,942.11z M1058.57,1021.85
				c8.26,2.17,12.3,1.3,14.92-2.48c4.06-5.85,4.3-7.94,1.57-12.25C1072.52,1015.05,1067.4,1020.33,1058.57,1021.85z M858.78,807.8
				c-2.59,0-4.91-0.11-7.21,0.04c-1.4,0.09-3.68-0.07-3.59,1.74c0.1,2.14,2.49,1.79,4.02,1.71c6.78-0.36,13.56-1.04,20.36-0.29
				c1.1,0.12,2.37-0.83,1.67-1.7c-1.31-1.64-3.53-3.95-5.37-2.89C865.27,808.36,861.84,807.23,858.78,807.8z M1002.88,188.31
				c0.66-0.51,1.58-0.98,2.17-1.72c3.33-4.16,2.81-9.58,4.5-14.3c0.3-0.84-0.67-1.87-1.86-1.85c-1.1,0.02-1.74,0.77-2.18,1.73
				c-1.96,4.3-2.26,9.18-4.77,13.32C999.94,186.83,1001.1,187.95,1002.88,188.31z M1023.71,915.71c4.88,0.18,9.17-2.84,14.09-2.59
				c1.01,0.05,1.89-0.68,1.88-1.88c-0.01-0.74-0.62-1.4-1.26-1.25c-4.29,0.98-9.42-4.15-13.08,1.77c-0.35,0.56-1.46,0.67-2.23,0.95
				c-1.27,0.46-3.62-0.04-3.23,2.06C1020.22,916.73,1022.33,915.65,1023.71,915.71z M846.35,940.08c2.8-0.21,5.11-0.38,7.41-0.56
				c2.41-0.19,3.2-2.26,3.01-3.87c-0.3-2.51-2.49-1.57-3.92-1c-1.92,0.77-3.94,1.14-5.84,0.81c-2.72-0.47-6.12-1.35-6.16,2.29
				C840.81,940.93,844.75,939.39,846.35,940.08z M1057.67,918.33c1.89-0.11,4.21-0.25,6.53-0.38c1.01-0.06,2.26-0.13,2.37-1.31
				c0.13-1.4-1.13-1.95-2.32-2.11c-4.43-0.58-8.86-1.16-13.31-1.59c-1.6-0.16-2.47,0.94-2.45,2.48c0.03,1.74,1.04,2.8,2.79,2.89
				C1053.26,918.4,1055.25,918.33,1057.67,918.33z M1009.09,150.04c0.45-1.64,0.79-3.86-1.16-4.2c-2.3-0.41-2.33,1.82-2.32,3.44
				c0,1.47-0.83,2.41-1.61,3.5c-1.42,1.98-1.04,4.13-0.01,6.1c0.67,1.28,1.61,2.8,3.38,2.34c1.51-0.39,1.65-1.98,1.69-3.28
				C1009.15,155.31,1009.09,152.67,1009.09,150.04z M839.84,990.22c4.75,1.95,8.01-3.75,12.91-4c1.23-0.06,0.97-1.57-0.15-2.12
				c-1.33-0.65-3.03-1.7-4.23-0.64c-3.46,3.06-7.71,2.67-11.75,3.27c-1.32,0.2-2.94,0.21-2.76,2.07c0.14,1.52,1.58,1.42,2.76,1.42
				C837.45,990.22,838.28,990.22,839.84,990.22z M843,929.09c4.02,1.96,17.56,0.14,19.23-1.84c0.88-1.03,0.83-2.15,0.11-3.19
				c-0.77-1.11-1.88-1.27-3.06-0.65C854.43,925.92,849.74,928.82,843,929.09z M886.7,823.83c6.82,0.93,12.44,2.48,17.59,5.4
				c0.97,0.55,2.01,0.36,2.45-0.78c0.51-1.33-0.33-2.61-1.36-2.8c-3.61-0.66-6.55-2.93-9.9-3.95
				C893.08,820.97,889.97,820.43,886.7,823.83z M1003.02,198.61c-0.06-1.72-0.84-3.8-3.27-4.36c-3.19-0.73-1.84,2-2.46,3.41
				c-0.94,2.13-1.48,3.6,0.48,5.61c1.24,1.27-0.09,2.35-1.76,2.38c-0.9,0.02-1.83,0.25-1.53,1.32c0.37,1.29,1.57,1.06,2.47,0.66
				C1000.59,206.02,1002.66,203.23,1003.02,198.61z M859.17,821.54c4.11,0.7,8.17,1.04,12.17,0.09c1.73-0.41,2.94-1.75,3.08-3.54
				c0.14-1.74-1.33-2.61-2.67-3.28c-4.24-2.13-8.28-0.74-12.47,0.77c3.16,0.66,6.12,0.89,9.12,0.38c1.16-0.2,2.61-0.21,2.88,1.23
				c0.36,1.87-1.29,2.01-2.58,2.25C865.53,820.04,862.13,819.43,859.17,821.54z M843.25,533.94c2.98-3.65,8.8-1.91,11.33-6.53
				c0.49-0.9,2.09-1.47,1.14-2.68c-1.32-1.68-2.2-0.42-2.86,0.87c-0.32,0.64-0.95,1.25-1.53,0.85c-5.47-3.77-6.26,3.34-9.74,4.21
				c-0.76,0.19-0.72,1.47-0.17,2.17C841.79,533.29,842.48,533.49,843.25,533.94z M848.05,1007.77c3.41-0.19,6.03-0.3,8.64-0.48
				c1.34-0.09,2.96-0.34,2.96-1.95c0-1.8-1.75-1.71-3.02-1.64c-2.29,0.12-4.58,0.57-6.75-0.63c-1.54-0.85-3.1-1.18-4.5,0.29
				c-0.71,0.75-1.24,1.65-0.78,2.67C845.43,1007.86,847.26,1007.65,848.05,1007.77z M1067.39,1042.99c0.11-0.48,0.22-0.96,0.34-1.43
				c-0.48-0.16-0.94-0.38-1.44-0.47c-6.81-1.17-12.6,3.84-19.35,3.25c-0.72-0.06-1.11,1.15-0.88,2.04c0.3,1.18,1.13,1.37,2.28,1.32
				C1055.06,1047.38,1060.35,1042.21,1067.39,1042.99z M1074.63,949.45c-0.96,0-0.62,0.03-0.29-0.01c1.3-0.15,3.55,1.21,3.59-1.05
				c0.04-2.11-2.27-1.46-3.59-1.22c-4.05,0.72-7.93-0.54-11.89-0.76c-1.55-0.09-3.7-1.41-3.97,1.18c-0.26,2.52,2.06,2.67,3.92,2.6
				C1066.04,950.05,1069.69,949.76,1074.63,949.45z M899.38,832.31c-0.36-0.43-0.67-1.17-1.18-1.34c-4.13-1.4-8-3.96-12.67-3.16
				c-1.36,0.23-3.55-0.14-3.4,1.85c0.13,1.79,2.23,1.55,3.67,1.63c3.36,0.18,6.75-0.38,9.52,2.64
				C896.39,835.11,898.44,834.44,899.38,832.31z M847.52,844.16c7.99,2.78,14.9,2.92,21.79,0.22
				C862.39,842.74,855.48,843.5,847.52,844.16z M855.96,508.66c0.55-3.47-0.23-5.71-3.35-6.07c-2.1-0.24-3.57,1.21-3.43,3.29
				c0.2,3.07,2.26,5.43,5.05,5.92C856.48,512.2,855.76,509.48,855.96,508.66z M856.85,893.64c-0.03,0.41-0.06,0.81-0.09,1.22
				c6.18-0.5,12.24,1.55,18.45,0.35c0.97-0.19,2.15-0.36,2.06-1.65c-0.1-1.42-1.34-1.18-2.3-1.12
				C868.94,892.83,862.9,893.24,856.85,893.64z M827.08,992.72c-0.39,0.16-0.9,0.26-1.26,0.54c-1.56,1.24-1.27,8.92,0.51,9.91
				c1.17,0.65,2.49,2.46,3.92,1.1c1.42-1.35,0.05-2.73-0.92-3.87c-1.16-1.38-1.83-2.72-0.56-4.46
				C830.19,993.99,828.64,993.37,827.08,992.72z M854.92,919.84c2.34-0.3,4.85-0.42,6.97-1.91c0.94-0.66,2.02-1.53,1.54-2.81
				c-0.58-1.56-1.85-0.77-2.94-0.5c-2.07,0.51-4.17,0.91-6.23,1.44c-1.4,0.35-3.49,0.52-3.22,2.35
				C851.31,920.25,853.4,919.64,854.92,919.84z M870.78,927.24c2.03-0.34,2.59-1.85,2.45-3.63c-0.16-2-0.31-3.92,0.8-5.77
				c0.56-0.94,1.31-2.13,0.23-3.17c-0.37-0.35-1.25-0.41-1.81-0.26c-1.46,0.39-2.48,1.69-2.04,2.97c0.88,2.54,0.06,4.34-1.33,6.36
				C867.95,925.39,868.26,926.95,870.78,927.24z M994.24,235.74c4.36,0.1,7.28-1.42,8.39-5.51c0.33-1.2,0.05-2.33-1.11-3
				c-1.08-0.62-1.92-0.05-2.51,0.82C997.4,230.47,994.68,232.18,994.24,235.74z M1026.06,920.29c4.37,1.33,8.69,1.64,12.89-0.27
				c1-0.45,1.98-1.37,1.79-2.71c-0.14-1.02-1.15-1.45-1.85-0.98C1034.99,918.93,1030.06,917.74,1026.06,920.29z M851.05,857.22
				c4.68,0,9.36,0.04,14.04-0.02c1.48-0.02,2.98-0.22,4.44-0.47c0.63-0.11,1.3-0.59,0.91-1.4c-0.17-0.36-0.77-0.84-1.09-0.78
				C863.31,855.63,856.92,853.93,851.05,857.22z M904.11,803.49c-1.4,0.38-2.04,1.43-1.51,1.93c2.63,2.45,4.56,5.78,7.92,7.26
				c1.22,0.54,3.23-0.17,2.33-2.47C911.23,806.07,905.43,807.65,904.11,803.49z M1075.88,978.02c-3.41-2.65-6.55-0.14-9.79,0.26
				c-1.42,0.18-3.49-0.03-2.78,2.31c0.59,1.97,2.72,1.61,3.8,0.89C1069.79,979.66,1072.76,978.93,1075.88,978.02z M897.13,853.01
				c-0.07-0.26-0.11-0.59-0.26-0.87c-0.49-0.92-9.32-4.04-10.25-3.66c-0.9,0.37-1.5,1.52-0.77,1.79c3.31,1.25,5.79,4.38,9.67,4.25
				C896.45,854.5,897.05,854.06,897.13,853.01z M875.51,840.6c-0.02,0.38-0.05,0.76-0.07,1.13c2.6,0.36,5.21,0.96,7.81,1
				c1.63,0.03,4.55,0.57,4.55-1.66c0-2.39-2.84-1.68-4.49-1.59C880.7,839.64,878.11,840.21,875.51,840.6z M1054.44,1024.71
				c-4.46-2.8-8.8-0.51-12.9-1c-0.21-0.02-0.8,0.84-0.7,1.06c0.25,0.54,0.78,1.33,1.22,1.36
				C1046.07,1026.32,1050.22,1027.47,1054.44,1024.71z M866.19,888.05c3.87,1.96,7.97-1.1,11.81,0.8c0.19,0.09,0.86-0.77,1.3-1.19
				c-0.44-0.44-0.82-1.02-1.34-1.3C873.59,883.96,870.09,887.19,866.19,888.05z M891.35,843.68c1.81,2.34,4.36,1.53,6.11,2.7
				c1.24,0.83,2.51,1.33,2.89-0.74c0.31-1.63-0.29-3.05-2.16-3.19C895.97,842.3,893.68,842.19,891.35,843.68z M869.21,961.07
				c1.72-0.33,3.97-0.23,4.22-2.5c0.24-2.18-1.82-2.02-3.18-1.85c-1.83,0.23-4.68-0.39-5.05,1.83
				C864.85,960.66,867.36,960.93,869.21,961.07z M1041.67,528.57c-1.89-0.09-4.27-0.97-4.74,1.46c-0.43,2.2,1.87,2.01,3.19,1.81
				c2.1-0.33,5.55,1.02,5.9-1.83C1046.29,527.73,1043.1,529.08,1041.67,528.57z M1049.37,896.39c4.28,1.06,8.52,1.37,12.6-0.47
				C1057.71,894.87,1053.48,894.07,1049.37,896.39z M889.93,971.78c2.79-0.22,4.13-1.73,4.44-4.1c0.13-0.95-0.69-1.52-1.62-1.32
				c-2.13,0.45-4.29,1.1-4.78,3.59C887.65,971.54,888.94,971.78,889.93,971.78z M846.52,944.74c3.26,1.52,6.23,1.14,9.18-0.01
				c0.22-0.09,0.37-1.21,0.23-1.29c-2.71-1.51-5.45-0.33-8.18,0.04C847.4,943.53,847.12,944.11,846.52,944.74z M1059.33,939.86
				c-3.26-0.7-6.34-3.76-10.25-0.99C1052.6,941.56,1055.92,941.46,1059.33,939.86z M866.04,1004.04c1.28-0.1,2.99,0.02,2.98-1.71
				c-0.01-1.83-1.81-1.64-3.03-1.49c-1.44,0.18-3.91-0.53-3.74,1.83C862.37,1004.38,864.68,1003.66,866.04,1004.04z M836.05,1001.62
				c-1.65,0.07-2.2,1.16-2.26,2.6c-0.07,1.73,0.71,2.89,2.55,2.82c1.49-0.06,2.39-1.03,2.43-2.55
				C838.83,1002.69,837.72,1001.89,836.05,1001.62z M1046.89,1032.28c1.56-0.21,4.12,0.83,4.22-1.29c0.12-2.41-2.4-1.52-3.87-1.34
				c-1.58,0.19-4.39-1.23-4.38,1.48C1042.88,1033.49,1045.49,1032,1046.89,1032.28z M1033.1,975.22c-2.65-0.32-4.66,0.08-6.43-0.96
				c-0.86-0.51-2.04-0.45-2.66,0.53c-0.29,0.45-0.3,1.33-0.05,1.82c0.6,1.19,1.79,1.52,2.98,1.11
				C1028.76,977.1,1030.52,976.28,1033.1,975.22z M908.33,969.85c-0.22-1.54-1.35-1.79-2.56-1.76c-1.59,0.04-2.47,0.94-2.41,2.53
				c0.05,1.25,0.54,2.44,2.06,2.19C906.99,972.54,908.07,971.52,908.33,969.85z M866.45,953.6c1.15-1.47,3.94-1.31,4.6-3.68
				c0.31-1.09-0.71-2.02-1.8-1.74c-2.19,0.57-3.54,2.29-4.4,4.27C864.59,953.05,865.36,953.57,866.45,953.6z M1088.22,1055.37
				c1.46-0.17,3.65,0.27,3.75-1.55c0.14-2.36-2.34-1.74-3.79-1.97c-1.28-0.21-3.06-0.16-3.18,1.52
				C1084.82,1055.56,1086.85,1055.15,1088.22,1055.37z M1124.87,1060.37c1.39-0.36,3.74,0.41,3.71-2.01
				c-0.02-1.62-1.96-1.55-3.22-1.51c-1.54,0.05-3.8-0.37-3.78,2C1121.6,1060.53,1123.54,1060.17,1124.87,1060.37z M1054.23,945.65
				c-0.82-1.31-2.11-1.59-3.47-1.49c-1.21,0.1-2.56,0.55-2.17,2.06c0.38,1.47,1.76,1.93,3.22,1.56
				C1052.93,947.49,1054.09,947.11,1054.23,945.65z"/>
			<path d="M949.93,1063.72c-0.68,5.78,2.86,8.51,6.94,10.72c6.58,3.56,13.84,5.57,20.77,8.25c12.65,4.89,25.78,8.57,38.78,12.54
				c3.95,1.21,8.15,1.6,12.18,2.57c1.92,0.46,4.47,1.41,3.59,3.79c-0.88,2.38-3.03,0.63-4.71,0.15c-8.14-2.33-16.36-4.39-24.44-6.91
				c-12.48-3.89-25.23-6.95-37.13-12.65c-5.91-2.83-12.61-3.6-18.12-7.81c-3.82-2.92-5.08-6.02-3.79-10.23
				c0.94-3.05-0.09-4.3-2.94-4.96c-2.73-0.63-5.44-1.47-8.08-2.42c-0.86-0.31-1.67-1.23-1.21-2.41c0.36-0.94,1.35-1.19,2.09-0.86
				c3.83,1.69,8.18,1.18,11.98,3.07C949.04,1058.15,950.89,1060.27,949.93,1063.72z"/>
			<path d="M849.37,1025.06c6.54-0.86,13.1-0.56,19.64,0.32c6.44,0.87,12.85,2.02,19.37,1.44c4.52-0.4,7.86,3.43,12.43,2.97
				c9.28-0.92,16.54,4.5,24.14,8.45c4.71,2.45,4.56,5.03,0.16,8.13c-2.11,1.49-3.9,3.71-6.99,3.29c-0.89-0.12-2.22-0.09-2.36,1.22
				c-0.16,1.54,1.21,1.77,2.33,2.07c0.48,0.13,0.99,0.13,1.48,0.17c1.43,0.13,3.62-0.23,3.38,1.82c-0.24,2.07-2.33,1.1-3.7,0.98
				c-2.15-0.18-4.31-0.35-6.45-0.67c-1.62-0.24-2.78-1.24-3.05-2.89c-0.28-1.7,1.08-2.2,2.34-2.75c2.58-1.11,5.16-2.23,7.69-3.44
				c3.88-1.85,4.3-4.99,0.68-7.03c-6.23-3.51-13.12-5.31-20.11-6.67c-16.32-3.17-32.89-4.08-49.41-5.38
				c-0.58-0.05-1.12-0.5-1.68-0.76C849.3,1025.91,849.34,1025.49,849.37,1025.06z"/>
			<path d="M796.3,471.99c-2.66,0.12-4.21-2.05-5.82,0.29c-1.1,1.6-1.76-0.06-2.33-1.07c-3.51-6.16-5.54-13.01-9.12-19.17
				c-2.72-4.69-6.33-8.88-7.9-14.26c-1.61-5.5-3.75-10.81-5.17-16.4c-1.29-5.07-3.75-9.85-3.56-15.27c0.05-1.4-0.93-3.61,0.84-3.95
				c2.27-0.43,2.46,2.25,2.36,3.56c-0.76,10.72,5.56,19.59,7.74,29.56c1.29,5.86,4.98,11.63,8.87,16.39
				C787.34,457.97,789.34,466.11,796.3,471.99z"/>
			<path d="M807.81,371.68c-1.21-4.77-7.69-6.02-7.52-11.63c0.02-0.52-1.24-1.62-1.73-1.53c-3.03,0.57-3.85-1.65-5.27-3.51
				c-3.03-3.96-6.96-3.12-10.68,2.12c-0.79,1.11-0.62,3.11-2.79,2.91c0.28-6.34,7.45-11.93,12.98-10.09
				c4.43,1.47,9.42,2.74,11.2,7.48C805.71,361.95,809.74,366.05,807.81,371.68z"/>
			<path d="M782.82,433.17c-0.15-0.81-0.37-1.72,0.51-2.21c0.9-0.5,1.7,0.05,2.07,0.8c2.12,4.35,5.59,8.14,5.68,13.37
				c0.02,1.15,0.48,2.52-0.88,3.05c-1.93,0.75-1.88-1.11-2.54-2.16C785.18,442.06,783.45,437.83,782.82,433.17z"/>
			<path d="M799.37,435.75c-0.27,0.56-0.39,1.25-0.69,1.34c-0.55,0.16-1.7,0.08-1.74-0.1c-0.99-4.49-6.56-4.09-8.3-7.85
				c-0.45-0.96-1.91-1.55-0.86-2.84c0.82-1,1.8-2.41,2.86-2.56c1.78-0.26,1.34,1.33,1.08,2.46c4.79,0.28,2.28,6.52,6.21,7.61
				C798.53,433.99,798.88,435.06,799.37,435.75z"/>
			<path d="M799.02,486.84c-1.17,0.87-2.34,1.73-3.51,2.61c-2.72-3.17-4.58-6.72-5.17-10.89c-0.16-1.13-0.76-2.38,0.83-2.87
				c1.16-0.36,1.73,0.53,2.23,1.45c1.81,3.29,3.65,6.57,5.49,9.85L799.02,486.84z"/>
			<path d="M779.15,391.6c-2.07-5.22-2.33-10.51-0.93-15.87C780.25,380.92,779.95,386.25,779.15,391.6z"/>
			<path d="M790.09,454.49c0.69-1.71,1.21-3.28,1.95-4.73c0.59-1.16,1.76-1.63,2.94-0.99c1.05,0.57,0.81,1.69,0.5,2.65
				c-0.39,1.24-1.67,2.07-1.58,3.55c0.07,1.16,0.1,2.8-1.3,2.77C790.77,457.72,791.16,455.44,790.09,454.49z"/>
			<path d="M798.88,486.99c3.17,0.73,9.3,7.01,9.64,9.94c0.05,0.41-0.15,1.08-0.44,1.24c-0.32,0.18-1.15,0.06-1.31-0.2
				c-2.38-3.85-6.72-6.34-7.75-11.13C799.02,486.84,798.88,486.99,798.88,486.99z"/>
			<path d="M804.39,472.64c-2.07-1.98-3.96-3.52-5.49-5.36c-0.86-1.03-0.88-2.67,0.45-3.54c1.8-1.18,2.31,0.49,2.75,1.67
				C802.91,467.61,805.77,469.04,804.39,472.64z"/>
			<path d="M785.16,418.78c-1.74,0.96-3.36,0.96-3.7-1.32c-0.34-2.27,1.14-4.09,2.79-5.33c0.77-0.58,1.71,0.64,1.82,1.73
				c0.17,1.67-0.23,3.25-0.97,4.75C785.12,418.66,785.14,418.72,785.16,418.78z"/>
			<path d="M827.05,477.22c1.95,3.06,3.02,6.25,1.57,9.75c-0.09,0.21-1.14,0.33-1.23,0.19
				C825.46,483.99,826.05,480.64,827.05,477.22z"/>
			<path d="M802.53,500.09c0.18,1.47-0.56,2.1-1.38,1.81c-2.16-0.76-4.46-1.57-4.91-4.31c-0.17-1.02,0.04-2.41,1.27-2.21
				C800.28,495.83,800.74,498.89,802.53,500.09z"/>
			<path d="M785.16,418.78c-0.02-0.06-0.05-0.12-0.07-0.17c1.13-0.71,2.47-1.61,3.39-0.01c1.11,1.94-0.32,3.41-1.53,4.77
				c-0.58,0.65-1.43,1.14-2.1,0.34C783.44,422.03,783.98,420.35,785.16,418.78z"/>
			<path d="M842.04,1021.35c1.79,0.44,3.97,0.64,4.44,2.98c0.26,1.27-1.09,1.62-2.03,1.34c-1.87-0.55-4.64,0.11-5.1-2.66
				C839.15,1021.75,840.76,1021.48,842.04,1021.35z"/>
			<path d="M781.13,394.67c2.75,2.72,2.65,5.15,1.27,7.63c-0.19,0.34-1.53,0.52-1.66,0.32C779.06,400.1,780.31,397.72,781.13,394.67
				z"/>
			<path d="M795.06,463.43c-0.83-2.49,1.82-3.93,0.69-5.94c-0.37-0.66-0.08-1.75,0.93-1.89c1.37-0.19,1.54,0.99,1.57,1.93
				C798.31,459.91,797.06,461.59,795.06,463.43z"/>
			<path d="M916.71,454.05c-1.79,1.4-3.07,0.66-4.49,0.14c-18.01-6.65-30.52-18.98-38.04-36.55c-1.17-2.72-3.14-5.13-3.04-8.31
				c0.03-0.96-0.2-2.22,1.16-2.33c0.86-0.07,1.24,0.91,1.58,1.69c5.56,13.03,12.35,25.08,23.98,33.97
				C903.68,447.12,910.61,449.45,916.71,454.05z"/>
			<path d="M868.61,370.86c1.45-4.28,5.13-6.88,7.65-10.36c8.85-12.18,17.22-24.57,20.01-39.8c0.33-1.8,0.36-4.71,3.31-3.74
				c2.24,0.74,1.25,3.01,0.76,4.78c-4.06,14.58-11.65,27.25-21.12,38.9C876.12,364.45,872.76,368,868.61,370.86z"/>
			<path d="M832.87,371.89c-0.25-4.44-0.46-8.29-0.68-12.15c-0.56-9.82-4.96-18.19-10.16-26.18c-1.23-1.89-3.17-3.38-5.37-4.32
				c-1.21-0.52-2.84-1.07-2.04-2.77c0.9-1.91,2.61-0.98,3.9-0.38c4.73,2.19,7.89,6.11,10.13,10.57c4.89,9.74,7.82,19.99,6.37,31.08
				C834.86,369.02,835.01,370.44,832.87,371.89z"/>
			<path d="M823.08,353.79c-0.19,0.39-0.32,1.09-0.63,1.18c-1.22,0.36-1.61-0.67-2.22-1.46c-3.96-5.09-7.47-10.54-12.12-15.07
				c-0.36-0.35-0.77-0.7-0.96-1.13c-0.76-1.69-4.78-2.15-3.04-4.13c2.16-2.45,4.01,1,5.63,2.24c5.78,4.43,7.74,11.86,12.84,16.89
				C822.89,352.61,822.9,353.22,823.08,353.79z"/>
			<path d="M886.13,320.32c1.37,5.2-2.22,8.78-2.9,12.96c-0.73,4.51-2.9,8.79-4.39,13.18c-0.37,1.09-0.46,2.6-2.04,2.17
				c-1.48-0.4-1.32-2.01-0.82-2.92C880.3,337.85,880.89,328.54,886.13,320.32z"/>
			<path d="M970.84,499.02c-4.49,2.93-8.98,2.22-13.47,1.32c-0.88-0.18-1.61-0.72-1.48-1.67c0.13-0.93,0.99-1.38,1.86-1.28
				C962.12,497.89,966.48,498.47,970.84,499.02z"/>
			<path d="M893.72,293.58c2.75,5.51-1.26,9.91-1.37,14.87c-0.02,1.02-1.46,1.34-2.12,0.08c-0.44-0.84-1.04-2.41-0.69-2.74
				C892.99,302.42,892.43,297.68,893.72,293.58z"/>
			<path d="M868.34,384.46c1.1-5.39,5.3-8.86,8.21-13.13c0.46-0.67,1.48-0.96,2.1-0.05c0.5,0.74,0.33,1.63-0.34,2.26
				c-3.57,3.39-5.67,8.17-10.07,10.78C868.25,384.33,868.34,384.46,868.34,384.46z"/>
			<path d="M887.76,359.27c-1.45,3.96-3.89,6.16-5.6,8.79c-0.47,0.73-1.37,1.03-2.16,0.43c-0.84-0.64-0.62-1.7-0.05-2.21
				C882.28,364.17,883.87,361.18,887.76,359.27z"/>
			<path d="M893.03,501.63c2.55-2.1,5.23-1.95,8.86-1.07C898.59,503.68,895.8,502.64,893.03,501.63z"/>
			<path d="M1072.98,821.07c-1.87,7.4-11.71,14.78-20.69,15.38c-8.61,0.57-16.8-1.97-25.08-3.66c-12.22-2.49-22.78-8.95-33.65-14.63
				c-2.24-1.17-4.24-2.69-5.4-5.01c-0.45-0.91-0.44-2.02,0.36-2.8c1.07-1.03,1.64,0.04,2.43,0.63c8.53,6.35,17.74,11.44,27.89,14.75
				c3.63,1.18,7.23,2.47,10.79,3.84c1.91,0.74,3.91,1.42,5.83,1.04c3.78-0.74,7.19,0.32,10.75,1.21c9.02,2.25,16.24-1.06,22.17-7.79
				c1.29-1.47,2.14-3.55,4.72-2.83L1072.98,821.07z"/>
			<path d="M964.04,690.52c-19.8-11.48-34.07-29-49.6-45.22c2.67-0.93,4.01,0.65,5.3,1.95c10.54,10.57,21.07,21.15,31.5,31.84
				C955.26,683.2,960.94,685.31,964.04,690.52z"/>
			<path d="M1087.88,825.97c-2.4,8.9-9.45,12.57-17.29,15.31c-1.56,0.54-3.19,0.88-4.76,1.38c-1.24,0.4-2.69,1.38-3.27-0.58
				c-0.45-1.54,0.77-2.39,2.13-2.86c2.51-0.86,4.97-2.08,7.55-2.48c7.01-1.08,10.35-7.37,15.77-10.64L1087.88,825.97z"/>
			<path d="M990.22,721.63c-0.19,0.38-0.31,1.02-0.61,1.13c-1.01,0.35-1.96,0.1-2.61-0.85c-4.61-6.73-11.25-11.55-16.65-17.53
				c-1.43-1.58-3.15-2.9-4.6-4.46c-0.31-0.33-0.29-1.34-0.02-1.78c0.43-0.68,1.19-0.36,1.69,0.14c7.3,7.33,14.59,14.68,21.87,22.03
				C989.63,720.66,989.86,721.11,990.22,721.63z"/>
			<path d="M1088.01,826.1c1.62-4.21,5.23-6.88,8.1-10.11c-1.42,4.38-3,8.63-8.23,9.98C1087.88,825.97,1088.01,826.1,1088.01,826.1z
				"/>
			<path d="M1073.09,821.2c0.71-4.3,3.89-6.4,7.37-8.23c-1.38,3.73-3.71,6.58-7.49,8.1C1072.98,821.07,1073.09,821.2,1073.09,821.2z
				"/>
			<path d="M910.57,796.68c8.68-1.91,9.52-9.5,12.57-15.29c0.66-1.25,0.48-2.84-1.02-3.42c-2.27-0.89-3.57-1.83-1.59-4.23
				c0.44-0.54,0.44-1.39-0.17-1.77c-0.47-0.29-1.4-0.42-1.8-0.15c-2.32,1.57-5.45,6.48-4.38-1.74c0.21-1.6-3.81-3.75-6.8-4.01
				c-3.16-0.28-6.27-0.75-9.19-2.09c-1.17-0.53-2.96-0.65-2.44-2.48c0.54-1.88,2.26-1.64,3.77-1.3c3.55,0.8,6.71,2.8,10.46,3.06
				c5.72,0.39,10.11,4.65,15.68,5.65c2.73,0.49,1.55,3.81,3.43,5.1c4.28,2.95,9.29,5.09,11.47,10.44c0.45,1.12,1.88,1.33,3.07,0.66
				c1.37-0.77,0.78-1.94,0.63-3.08c-0.25-1.89-1.99-2.57-2.86-3.89c-4.19-6.3-9.01-12.19-12.44-18.98c-0.47-0.92-1.04-1.6-1.81-2.28
				c-10.29-9.16-20.53-18.37-30.79-27.56c-1.35-1.21-3.62-2.58-2.34-4.34c1.55-2.13,3.79-0.24,5.13,0.94
				c12.19,10.75,25.17,20.65,34.11,34.71c3.43,5.4,6.93,10.79,10.3,16.24c1.08,1.75,2.32,2.88,4.28,2.84
				c1.91-0.04,2.03-1.94,2.69-3.21c2.42-4.63,4.39-9.51,7.47-13.78c0.56-0.78,1.28-1.79,2.38-0.9c0.77,0.63,0.41,1.63-0.14,2.24
				c-4.94,5.45-5.87,13.06-10.2,18.89c-1.69,2.27-2.96,4.75-5.5,6.25c-0.98,0.58-2.31,1.23-2.64,2.15
				c-2.2,6.18-6.46,7.02-12.36,5.89c-3.9-0.75-8.9-2.14-9.63,4.87c-0.24,2.34-1.85,0.79-2.71-0.22
				C915.42,799.8,914.07,797.22,910.57,796.68z M930.64,794.24c3.61-0.35,6.79-1.56,7.39-5.83c0.31-2.22-4-7.06-6.08-7.18
				c-1.58-0.09-6.33,6.84-6.32,9.36C925.64,793.89,928.06,794.09,930.64,794.24z"/>
			<path d="M954.49,748.27c-0.36,0.54-0.53,1.13-0.89,1.3c-1.22,0.54-1.72-0.49-2.35-1.25c-4.81-5.69-9.89-11.18-14.41-17.09
				c-7.81-10.22-17.36-18.74-26.37-27.78c-2.22-2.23-4.38-4.52-6.51-6.83c-0.85-0.92-2.32-1.95-0.95-3.33
				c1.36-1.37,2.63-0.55,3.83,0.65c3.51,3.53,7.2,6.87,10.65,10.46c10.19,10.61,21.19,20.52,28.78,33.42
				c1.73,2.95,4.49,5.29,6.71,7.95C953.59,746.51,953.99,747.42,954.49,748.27z"/>
			<path d="M1020.21,869.47c0.82,4.43,2.73,8.86-0.96,12.78c-0.74,0.79-0.99,2.49-2.47,1.75c-1.2-0.6-1.1-2.31-0.55-3.14
				C1018.53,877.38,1018.8,873.27,1020.21,869.47z"/>
			<path d="M893.46,774.81c-1.48-0.16-3.64,0.17-3.44-1.31c0.34-2.5,3.03-2.7,5.04-2.8c1.52-0.08,4.23,0.63,3.96,2
				C898.42,775.73,895.17,773.96,893.46,774.81z"/>
			<path d="M1065.61,879.23c1.12,0.58,3.41-0.11,3.22,1.96c-0.13,1.36-2.01,1.39-3.31,1.34c-1.26-0.06-2.97-0.04-2.94-1.78
				C1062.6,878.91,1064.26,879.19,1065.61,879.23z"/>
			<path d="M952.77,186.35c1.55,0.72,1.5,1.8,1.7,2.73c0.55,2.51,0.86,4.27,3.81,1.33c2.93-2.92,6.71-1.62,9.37,0.72
				c1.8,1.58,2.65,3.45,4.92,0.8c0.82-0.96,2.48-0.02,1.91,0.59c-1.75,1.87-2.49,5.45-6.07,4.84c-5.63-0.97-11.59-0.26-16.84-3.42
				c-1.28-0.77-1.8-1.17-1.14-2.53C951.21,189.81,951.93,188.19,952.77,186.35z"/>
			<path d="M960.16,207.99c-3.98-1.86-8.15-1.78-12.23-2.21c-3.07-0.32-4.85-4.91-6.43-8.07c-0.58-1.16,0.93-1.48,1.88-0.75
				c1.03,0.79,1.95,1.75,2.84,2.7c1.89,2,3.38,5.75,6.37,0.85c0.95-1.56,2.45-0.25,3.31,0.66c1.66,1.75,3.15,3.66,4.72,5.51
				C960.46,207.12,960.31,207.55,960.16,207.99z"/>
			<path d="M992.71,161.02c4.5,3.63,6.8,7.89,5.07,13.53c-0.25,0.82-0.35,1.77-1.32,1.78c-0.45,0-1.17-0.71-1.31-1.23
				C993.9,170.48,994.33,165.62,992.71,161.02z"/>
			<path d="M986.38,149c0.19-1.37-0.26-3.25,1.36-2.94c2.88,0.55,3.48,3.23,3.96,5.72c0.19,1,0.22,2.49-1.01,2.3
				C987.84,153.63,986.85,151.3,986.38,149z"/>
			<path d="M988.11,165.23c-1.39-2.98-4.79-4.78-4.68-8.45c0.02-0.83,0.05-1.76,1-2.07c0.34-0.11,1.2,0.23,1.22,0.42
				C985.97,158.64,990.11,161.08,988.11,165.23z"/>
			<path d="M967.79,211.79c0.05,0.16,0.11,0.31,0.16,0.47c0.81,2.47,1.56,4.94-1.66,6.32c-0.77,0.33-2.11,0.44-2.04-0.46
				c0.22-2.56,0.17-5.51,3.68-6.21C967.93,211.91,967.79,211.79,967.79,211.79z"/>
			<path d="M1002.94,137.85c0.03,2.2-1.4,2.97-3.04,3.42c-1.27,0.35-1.81-0.41-1.83-1.58c-0.03-1.84,0.75-3.22,2.64-3.6
				C1002.09,135.82,1002.85,136.59,1002.94,137.85z"/>
			<path d="M933.37,201.7c-1.16,2.29-1.16,4.44,0.9,6.99C928.58,205.88,928.58,205.88,933.37,201.7z"/>
			<path d="M956.66,222.65c-1.26,3.33-2.98,3.82-5.16,3.08c-1.01-0.35-1.61-1.22-1.5-2.33c0.1-1.06,0.85-1.45,1.76-1
				C953.14,223.08,954.55,223.33,956.66,222.65z"/>
		</g>
	</g>
	<g>
		<g>
			<path class="st0" d="M1053.5,488.31c0.92,14.35,6.07,28.3,3.92,42.94c-0.56,3.79,1.49,7.11,2.74,10.5
				c4.61,12.49,7.9,25.34,10.86,38.3c1.59,6.96,4.14,13.72,3.26,21.07c-0.22,1.81,1.06,3.11,2.26,4.28
				c3.59,3.49,4.3,7.82,4.85,12.65c1.39,12.22,2.84,24.43,4.05,36.67c0.74,7.5,0.84,14.94,0.65,22.43
				c-0.22,8.75-0.32,17.14,3.95,25.61c7.06,14.02,8.54,29.62,10.06,45.16c1.71,17.44,0.9,34.95,2.42,52.37
				c0.81,9.27,1.44,18.61,4.06,27.6c1.07,3.68-0.08,6.58-2.28,9.2c-4.5,5.35-9.98,9.6-15.9,13.26c-2.99,1.85-4.83,3.94-3.49,7.75
				c0.48,1.36,0.8,3.12,0.36,4.41c-2.68,7.79-1.11,15.83-1.32,23.71c-0.2,7.24,0.01,14.51-0.13,21.78
				c-0.07,3.44,0.45,7.38,1.71,10.91c1.39,3.89-0.23,7.56-0.51,11.36c-1.29,17.16-3.15,34.27-3.43,51.55
				c-0.14,8.65-2.07,17.39-1.42,26.19c0.57,7.61,3.62,14.91,3.27,22.61c-0.37,8.39,3.56,14.33,9.65,19.45
				c3.17,2.67,7.05,3.42,10.65,3.26c9.64-0.45,19.23,0.1,28.84,0.42c6.71,0.23,12.03,3.48,16.87,7.44
				c3.61,2.96,2.75,10.79,0.81,15.98c-0.22,0.6-0.88,1.03-1.13,1.63c-1.79,4.24-3.45,8.69-9.21,4.19c0.27-1.29,0.81-2.85-0.71-3.53
				c-1.56-0.69-2.89,0.59-4,1.49c-5.7,4.64-11.79,8.68-18.62,11.39c-10.74,4.26-23.05,3.02-33.25,9.29
				c-4.6,2.83-9.91,1.97-14.87,2.96c-1.07,0.21-2.6,0.3-2.47,1.88c0.09,1.14,1.38,1.29,2.33,1.55c5.32,1.44,10.7,1.5,15.54-1.17
				c7.79-4.3,16.37-5.88,24.8-8c7.23-1.82,14.18-4.04,20.64-8.07c3.84-2.39,6.92-5.63,10.73-7.94c2.43,4.27-0.07,6.44-3.59,7.82
				c-6.57,2.59-11.71,8.2-19.22,8.8c-11.49,0.92-21.26,7.12-31.65,11.17c-8.74,3.41-17.28,6.64-26.68,7.19
				c-1.33,0.08-2.66,0.19-3.99,0.12c-10.16-0.52-10.07-0.54-11.17-10.58c-1.27-11.59,0.64-23.24-0.71-34.83
				c-0.1-0.84,0.1-1.69,1.06-2.02c0.74-0.26,1.64,0.19,1.55,0.73c-1.05,6.2,4.18,5.54,7.48,6.88c3.74,1.51,14.39,0.77,17.49-1.34
				c-4.62-1.91-9.1-0.86-13.43-0.71c-2.81,0.1-4.77-0.55-6.34-2.87c-1.4-2.07-3.11-3.84-5.51-4.89c-2.23-0.97-2.93-2.83-2.93-5.27
				c0-2.81-0.27-5.66-0.77-8.43c-1.37-7.48-1.45-7.73-8.79-7.61c-3.43,0.06-6.07-0.67-9.19-2.21c-5.43-2.69-11.41-4.68-17.38-5.82
				c-16.75-3.2-33.37-7.04-49.86-11.27c-8.06-2.07-15.85-6.12-22.27-11.82c-5.57-4.95-5.96-10.5-1.84-16.92
				c2.52-3.93,1.79-4.65-2.46-6.02c-5.69-1.83-12.28,0.06-17.3-4.44c-1.12-1-2.36,0.38-3.56,0.94c-5.54,2.61-8.96,7.75-13.83,11.24
				c-7.48,5.36-16,6.85-24.56,8.41c-6.12,1.12-11.73,3.42-17.52,5.49c-8.42,3.02-17.4,4.26-26.42,4.52c-1,0.03-2.26-0.12-2.64-1.1
				c-2.62-6.82-6.59-13.46-2.88-21.17c2.46-5.12,0.64-10.76,1.97-16.16c2.58-10.49,1.96-21.46,3.64-32.16
				c1.46-9.35,3.85-18.51,5.2-27.83c1.34-9.31,3.47-18.84,1.84-28.15c-1.2-6.85-1.28-13.83-2.11-20.64
				c-0.55-4.5-0.86-10.14,0.94-15.48c1.72-5.11,0.87-11.2,0.61-16.83c-0.5-10.6,0.97-20.93,6.34-29.99
				c4.71-7.96,10.62-15.28,17.41-21.75c0.6-0.57,1.62-1.16,1.65-1.77c0.31-6.2,4.02-11.22,5.71-16.92c0.78-2.62,0.98-4.86-2.12-6.2
				c-1.55-0.67-1.83-2.19-1.82-3.81c0.02-5.48,0.46-10.69,2.58-16.03c3.52-8.87,5.94-18.19,8.68-27.36c0.41-1.37,0.25-3.01,0-4.46
				c-0.81-4.62,0.23-8.39,3.93-11.6c4.55-3.95,3-9.48,1.07-13.46c-2.38-4.9-3.19-10.09-4.53-15.08c-2.59-9.68-6.61-18.99-7.18-29.26
				c-0.37-6.54-4.08-12.47-7.88-17.42c-6.79-8.86-11.9-18.2-13.9-29.17c-0.51-2.81-2.13-5.16-2.68-8.01
				c-1.81-9.4,2.99-17.18,5.94-25.34c2.41-6.65,4.12-13.59,7.64-19.84c1.35-2.39,0.75-4.32-2.61-3.97
				c-5.72,0.6-12.11,0.12-16.99,1.78c-5.93,2.01-10.5-0.12-15.67-0.38c-3.7-0.18-4.22-1.98-2.99-4.95c0.4-0.97,2.15-1.57,1.07-2.91
				c-0.88-1.09-2.22-0.65-3.22-0.08c-2.27,1.28-2.86,0.3-3.91-1.79c-2.17-4.35-6.22-7.48-7.98-12.29c-1.38-3.76-1.6-7.83-3.77-11.35
				c5.09,3.01,5.96,8.59,7.81,13.15c1.6,3.96,6.05,4.73,7.19,8.75c0.34,1.19,2.81,0.56,3.91-0.6c1.28-1.33-0.02-2.34-0.67-3.48
				c-1.37-2.38-6.66-1.89-5.35-5.44c1.02-2.78,5.02,0.85,7.65-1.08c1.18-0.87,4.51-2.82,2.76,2.36c-1.78,5.27,3.72,9.62,10,8.62
				c0.27,1.64-3,2.85-0.79,4.55c2.16,1.67,2.6-1.11,3.91-1.67c4.95-2.15,9.39-4.85,12.62-9.37c1.21-1.7,2.11-3.27,0.47-4.83
				c-3.47-3.31-3.17-6.93-1.62-10.96c1.11-2.89,0.29-5.03-3.19-3.68c-4.74,1.84-6.96-1.58-9.72-4c-0.58-0.51-0.73-1.48-1.19-2.17
				c-0.91-1.38-3.84-2.57-1.79-4.33c2.33-2,1.78,2.01,3.11,2.33c3.97,0.95,6.77,4.84,11.46,4.17c2.6-0.37,5.17,0.8,7.74,1.52
				c2.99,0.84,6.79,1.13,8.85-1.44c1.9-2.38,1.06-5.71-0.58-8.48c-2.76-4.66-3.47-9.83-2.47-14.97c0.78-3.99,2.48-7.83,4.06-11.62
				c0.79-1.88,1.63-3.72,1.5-5.73c-1.05-15.33,2.34-30.43,2.01-45.77c-0.26-11.95-4.17-23.13-5.48-34.81
				c-0.32-2.82-2.66-2.69-4.55-1.3c-3.72,2.72-8.02,2.83-12.33,3.14c-4.61,0.33-9.52,0.51-13.16,3.53
				c-5.04,4.2-6.29,10.23-5.82,16.56c1.76,23.91,0.52,47.88,1.42,71.81c0.02,0.62,0.08,1.35-1.02,1.8
				c-1.39-1.44-1.67-3.38-1.76-5.28c-0.59-11.8,0.17-23.66-0.4-35.41c-0.54-11.15,0.78-22.53-3-33.57
				c-1.67-4.88-1.25-10.48-1.72-15.76c-0.11-1.2,0.2-2.36,1.29-3.08c3.95-2.6,0.35-5.7,0.43-8.53c0.01-0.46-1.9-1.32-2.95-1.37
				c-1.23-0.06-1.16,1.38-1.4,2.3c-0.17,0.64-0.34,1.3-0.36,1.96c-0.06,2.11-0.38,4.76-2.99,4.03c-3.03-0.85-0.32-3.02,0.08-4.43
				c1.28-4.5,0.17-8.37-1.93-12.4c-3.77-7.22-9.29-11.86-16.73-15.36c-6.36-2.99-10.11,1.54-14.94,2.9c-1.51,0.42-2.8,1.83-4.53,1.9
				c-2.83,0.12-3.51,2.22-4.05,4.34c-1.81,7.13-2.27,14.36-1.88,21.72c0.17,3.17,1.87,7.65-4.04,8.29
				c-1.07,0.12-0.91,1.98-1.05,3.12c-0.35,2.97-0.67,5.94-1.09,9.63c-3.02-6.64-1.37-12.57-0.13-18.45
				c0.77-3.65,1.41-7.1-0.92-10.55c-1.1-1.63-1.21-3.86-0.37-5.81c7.22-16.69,19.47-29.4,32.72-41.32
				c10.03-2.31,13.61-11.13,18.94-18.37c5.62-7.64,13.09-13.56,20.21-19.79c2.55-2.22,5.59-1.99,8.3-2.85
				c7.75-2.49,10.78-9.66,16.05-14.57c5.51-5.13,12.28-8.38,18.87-11.57c12.61-6.11,27.08-6.16,40.1-11.31
				c4.6-1.82,9.91-0.91,14.71-2.56c5.13-1.75,4.9-2.21,2.74-7.17c-2.72-6.23-4.96-12.55-9.31-18c-1.95-2.44-4.25-4.07-6.64-5.82
				c-2.73-1.98-4.76-3.89-2.03-7.76c1.98-2.81,0.22-6.33-0.72-9.34c-0.58-1.86-1.12-3.31,0.1-5.1c2.28-3.35,2.23-4.72,0.14-9.41
				c-2.54,1.72-0.28,4.93-2.71,7.32c-0.67-7.79-1.63-15.04-1.38-22.38c0.06-1.68,1.27-2.69,3-2.78c3.91-0.2,4.96-2.68,4.99-6.08
				c0.05-5.48,2.54-10.08,5.13-14.73c2.48-4.46,4.25-9.31,6.69-13.8c5.73-10.53,13.71-18.13,26.26-19.85
				c3.75-0.51,7.27-2.34,11.19-2.3c16.24,0.15,30.73,4.56,41.75,17.26c2.5,2.88,4.44,6.12,5.16,10c0.95,5.17,3.6,9.79,4.98,14.92
				c1.74,6.5,1.12,12.78,1.79,19.12c0.19,1.84,0.03,3.9,2.29,4.5c4.59,1.21,4.19,4.7,3.62,8c-0.63,3.59-1.46,7.21-2.73,10.62
				c-3.16,8.49-3.1,17.54-5,26.23c-0.75,3.4-3.77,4.26-6.92,4.61c-2.82,0.31-4.97,0.43-3.79,4.84c0.73,2.73-1.57,6.21-2.34,9.4
				c-2.12,8.7-0.9,10.68,7.86,12.87c2.26,0.56,4.54,0.74,6.92,0.45c11.87-1.49,22.9,0.53,33.69,6.26c4.94,2.62,10.47,4.96,16.7,5.44
				c3.85,0.3,8.4,2.59,10.86,6.96c3.05,5.43,7.12,10.16,8.32,16.7c2.84,15.41,0.29,29.81-5.59,44.2
				c-4.01,9.83-10.69,17.25-17.36,25.08c-6.04,7.09-9.39,15.26-6.97,25.52c2.23,9.46,1.61,19.12-0.9,29.02
				c-2.15,8.49-1.11,17.96,0.57,26.76c1.07,5.6,1.05,11.03-0.18,16.28c-1.02,4.33-1.34,8.58-0.94,12.82
				c0.72,7.59-1.94,14.81-1.86,22.32c0.03,2.48-1.43,4.4-4.18,4.9c-1.99-1.16-1.19-2.85-0.79-4.41c2.01-7.86,1.64-15.87,1.59-23.85
				c-0.02-2.59-0.97-4.7-2.87-6.66c-3.71-3.82-7.34-7.75-10.56-11.98c-1.88-2.46-4.82-4.78-3.99-9.82
				c4.43,6.77,10.36,10.67,14.35,16.38c1.16,1.66,2.95,2.6,4.58,0.78c1.07-1.2,3-3.06,0.82-4.67c-6.36-4.72-11.66-10.66-18.4-15
				c-7.89-5.09-12.92-13.3-19.61-19.75c-1.03-0.99-1.14-2.64,0.12-3.55c1.26-0.92,2.02,0.41,2.81,1.25
				c3.64,3.86,7.36,7.65,10.95,11.56c6.22,6.76,14.16,11.49,20.71,17.84c0.92,0.89,1.38,2.55,3.08,1.75c1.5-0.7,1.21-2.23,1.11-3.54
				c-0.95-12.42-2.23-24.77,0.17-37.25c1.54-8-0.42-16.21-0.21-24.34c0.02-0.76-0.16-1.89-0.67-2.23c-1.16-0.79-2.47,0.03-3.07,0.89
				c-2.87,4.16-8.06,4.37-11.74,7.12c-0.78,0.59-2.04,0.96-2.7-0.04c-0.98-1.5,0.42-2.07,1.47-2.47c3.62-1.37,6.61-3.8,9.93-5.67
				c1.66-0.94,2.37-2.4,2.32-4.12c-0.04-1.69-1.61-1.89-2.9-2.2c-1.14-0.27-2.52-0.47-2.51-1.94c0.01-1.67,1.44-2.06,2.81-2.28
				c1.48-0.24,2.96-0.54,4.44-0.6c2.05-0.09,4.35-0.04,5.06-2.33c1.52-4.89,5.51-7.86,8.62-11.42
				c16.87-19.37,23.01-41.41,16.42-66.36c-1.86-7.05-4.74-14.52-13.09-16.7c-8.97-2.34-17.89-4.6-26.27-8.76
				c-8.13-4.03-16.75-5.27-25.72-3.17c-2.87,0.67-5.41,0.17-8.07-1.42c-5.81-3.48-12.66-4.84-18.35-8.7
				c-0.88-0.59-2.25-0.65-3.39-0.63c-10.47,0.2-20.82-1.6-31.26-1.79c-2.47-0.05-5.08-0.1-7.41,0.58
				c-8.47,2.49-16.67,5.93-25.64,6.5c-3.26,0.2-6.4,0.98-9.13,3.47c1.5,1.35,2.89,1.24,4.11,1.61c2.34,0.72,6.91-0.68,6.55,2.2
				c-0.32,2.56-4.83,0.88-7.51,0.99c-12.65,0.52-25.27-2.14-37.96,2.55c-11.61,4.29-22.32,8.91-29.74,19.36
				c-2.23,3.14-5.11,5.43-9.46,6.38c-5.04,1.1-10.13,3.64-13.57,7.69c-6.68,7.84-15.31,14.14-19.4,24.1
				c-0.34,0.82-1.65,1.3-1.13,2.47c0.59,1.36,1.89,1.01,3.03,1.08c1.54,0.09,4.15-0.82,4.19,1.22c0.05,2.16-2.73,1.84-4.45,2.07
				c-2.9,0.4-5.81-0.7-8.77,0.89c-9.02,4.85-16.56,11.42-23.29,19.01c-0.62,0.7-1.92,1.25-1.32,2.39c0.74,1.41,2.01,0.69,3.06,0.25
				c4.41-1.83,8.81-2.85,13.49-0.75c14.46,6.48,23.9,17.69,30.22,31.87c0.93,2.09,2.62,4.81,4.54,2.75c2.88-3.12,4.34-1.51,6.4,0.32
				c0.81,0.72,1.93,0.93,2.7,0.06c2.19-2.46,5.22-1.67,7.9-2.28c8.85-2.01,17.28-4.85,22.05-13.53c1.74-3.16,3.39-6.37,5.09-9.56
				c0.4-0.76,0.91-1.51,1.89-0.97c0.7,0.38,0.61,1.23,0.29,1.79c-3.05,5.33-4.66,11.55-9.66,15.69c-1.49,1.23-1.86,2.92-1.78,4.75
				c6.08-0.42,1.09,2.93,0.9,3.66c-0.97,3.69-0.17,6.16,3.55,7.44l-0.09-0.13c-2.8,3.27-4.82,6.99-0.79,10.35
				c4.03,3.35,3.64,7.18,2.47,11.26c-0.54,1.91-1.6,3.7-1.51,5.74c0.59,13.6-2.35,27.1-1.26,40.68c0.59,7.36-1.52,13.78-4.96,19.95
				c-1.59,2.85-1.81,5.92-1.02,8.71c2.76,9.84,11.33,16.01,21.85,16.36c2.1,0.07,4.49-0.43,6.93,2.37
				c-6.57,0.15-12.1,1.18-17.68-0.24c-1.74-0.44-3.82-1.15-4.76,1.19c-0.97,2.44-0.76,5.1,0.73,7.18c1.39,1.93,3.28,0.67,4.89-0.25
				c3.02-1.72,6.55-2.13,9.61-3.89c1.65-0.94,4.06-1.45,5.87,0.42c-0.74,1.79-2.21,1.57-3.47,1.83c-4.61,0.94-8.68,3.06-12.44,5.8
				c-1.53,1.11-3.23,2.63-2.42,4.48c0.89,2.02,3.15,1.38,4.91,0.81c9.43-3.05,19.03-5.69,28.23-9.33c12.92-5.12,26.61-6.44,40-9.3
				c1.43-0.3,3.53-0.41,3.6,1.5c0.07,1.86-2.1,1.85-3.51,1.84c-7.41-0.04-14.27,2.86-21.49,4c-17.89,2.83-34.08,11.95-51.99,15.19
				c-4.43,0.8-2.71,5.55-2.31,8.51c0.44,3.28,2.87,1.97,5.04,1.29c11.41-3.58,23.54-3.93,34.92-7.82c6.5-2.23,13.18,0.45,19.82,0.18
				c16.3-0.65,32.71-1.72,48.81,1.58c9.4,1.93,18.8,1.54,28.21,2.2c2.56,0.18,5.15,0.25,8.57-2.14c-6.37-0.99-11.25-3.07-16.29-4.34
				c-11.79-2.98-24.06-2.24-36.07-3.81c-6.38-0.83-12.97-0.06-19.47-0.04c-1.14,0-2.66,0.09-2.65-1.49c0-1.59,1.57-1.38,2.68-1.48
				c0.83-0.07,1.67,0.03,2.5-0.05c14.84-1.47,29.56,0.5,44.31,1.55c3.47,0.25,6.94,0.22,10.34,1.43c5.78,2.06,11.86,3.26,17.67,5.12
				c6.82,2.18,14.31,1.1,20.74,4.94c1.97,1.18,4.56-0.16,6.86-0.49c0.64-0.09,1.35-0.37,1.39-1.19c0.05-1.05-0.9-1.26-1.59-1.65
				c-1.97-1.13-4.18,0.14-6.31-0.89c-5.48-2.66-10.97-5.47-16.75-7.28c-9.97-3.12-19.7-7.08-30-9.17c-1.71-0.35-4.35-1.12-3.83-3.12
				c0.62-2.39,3.33-1.29,5.21-1.19c0.64,0.04,1.24,0.46,1.88,0.65c4.91,1.43,9.81,2.88,14.74,4.26c7.64,2.14,15.12,4.67,22.43,7.81
				c5.64,2.42,11.56,4.19,17.4,6.11c1.62,0.53,4.57-0.31,2.99-1.81c-2.76-2.62-1.01-4.46-0.92-6.93
				c0.25-6.76-8.14-13.55-14.99-12.38c-11.49,1.96-21.85-0.82-32.16-5.92c-8.06-3.99-16.54-7.89-26.19-5.01
				c-2.83,0.84-5.93,1.37-8.86,0.15c-2.69-1.12-5.11-0.56-7.72,0.37c-6.61,2.34-13.96,5.6-20.35,3.09
				c-6.48-2.55-9.61,1.95-14.44,2.37c0.61,2.42,3.35,1.87,3.43,4.64c-7.17-0.4-14.09,0.34-21.03,0.66
				c-0.49,0.02-1.04-0.04-1.46-0.26c-10.11-5.12-21.18-6.55-32.13-8.44c-0.98-0.17-2.09-0.2-2.23-1.51c-0.11-1.12,0.63-1.86,1.5-2.4
				c1.5-0.94,3.12-1.02,4.81-0.58c5.15,1.34,10.3,2.65,15.45,3.99c11.29,2.94,22.59,3.87,33.74-0.45c3.85-1.49,7.33-4.03,11.24-5.24
				c7.52-2.33,14.41-6.05,21.66-8.97c4.74-1.91,9.53-3.66,13.78-6.62c0.8-0.56,2-0.5,2.69,0.47c0.42,0.59,0.28,1.5-0.41,1.68
				c-4.98,1.3-8.51,5.4-13.64,6.62c-6.13,1.46-11.54,4.83-17.39,7.94c4.16,2.28,7.66,1.79,13.25-0.35
				c10.37-3.96,21.05-7.17,31.27-11.47c4.66-1.96,10.31-0.97,14.18-5.03c0.71-0.75,1.94-0.86,2.53,0.3c0.66,1.3-0.06,2.39-1.23,2.83
				c-2.48,0.93-5.1,1.52-7.58,2.47c-6,2.3-12.85,2.63-18.13,7.66c0.92,0.45,1.5,1,2.04,0.96c10.68-0.89,19.76,4.04,28.74,8.5
				c10.49,5.21,21.33,4.4,32.29,3.63c1.95-0.14,4.1-0.85,5.21-2.63C1049.55,490.68,1051.76,489.82,1053.5,488.31z M1049.88,1056.1
				c-0.1-3.15,3.62-2.91,4.98-5.48c-2.66-1.07-4.88-1.38-6.95,0.62c-0.92,0.89-2.25,1.79-1.71,3.29c0.64,1.78,2.34,1.48,3.82,1.45
				c0.39,1.57-2.07,5.33,0.81,4.43c5.55-1.73,11.38-2.54,16.74-4.89c0.82-0.36,1.45-0.93,1.29-1.87c-0.15-0.92-0.96-1.32-1.81-1.4
				c-1.83-0.18-3.82-0.32-5.33,0.69C1058.08,1055.36,1053.93,1055.47,1049.88,1056.1z M844.25,872.18
				c9.09,0.22,18.17,0.77,27.26,0.14c1.22-0.08,3.22,0.47,3.33-1.19c0.13-2.05-1.99-1.62-3.36-1.79c-7.96-0.96-15.87,0.36-23.8,0.48
				c-1.65,0.02-2.85,0.76-3.33,2.44c-1.64-0.03-3.29-0.2-4.9-0.04c-1.43,0.15-2.61,1-1.94,2.66c0.65,1.6,2.01,1.33,3.34,0.77
				C842.48,874.96,843.09,873.3,844.25,872.18z M844.24,881.17c0.66,0.11,1.31,0.28,1.97,0.32c10.44,0.64,20.9-0.21,31.36,0.41
				c4.01,0.24,6.64-2.56,7.22-6.87c0.26-1.93-0.55-2.85-2.22-3.22c-1.59-0.36-3.53-1.2-4.64,0.43c-1.29,1.89,1.31,1.7,1.89,2.64
				c0.32,0.51,0.76,1.27,0.59,1.69c-0.45,1.12-1.58,0.98-2.58,0.9c-9.33-0.72-18.59,0.77-27.89,0.89c-2.23,0.03-4.87-0.25-5.59,2.9
				c-1.63-0.09-3.26-0.29-4.88-0.25c-1.25,0.03-2.34,0.71-2.14,2.11c0.2,1.38,1.45,1.55,2.65,1.6
				C842.48,884.82,843,882.57,844.24,881.17z M967.79,211.79l0.14,0.12c0.29-3.23-2.95-2.98-4.62-4.31
				c4.01-3.08,9.51-3.88,14.9-2.31c5.28,1.54,10.73-0.84,13.53-5.49c1.96-3.26-1.15-4.61-2.32-6.36c-1.35-2.02-2.33,0.29-3.25,1.31
				c-0.31,0.35-0.89,0.83-1.2,0.74c-5.05-1.45-6.68,1.81-8.37,5.58c-0.76,1.71-3.04,1.84-4.88,1.9c-0.72,0.03-1.32-0.51-1.31-1.23
				c0.04-1.74,1.61-2.42,2.65-3.43c1.3-1.26,2.69-2.45,4.11-3.59c1.33-1.08,2.06-2.3,0.91-3.84c-1.66-2.2-0.63-3.99,1.14-5.07
				c2.33-1.42,3.11,0.5,3.78,2.38c0.43,1.23,1.59,1.63,2.83,1.66c1.02,0.02,1.54-0.56,1.5-1.54c-0.07-1.6-0.88-3.65,1.45-4.13
				c2.37-0.5,3.28,1.82,4.85,3.47c-0.02-3.13,4.85-2.76,3.91-6.35c-0.51-1.93,0.43-2.91,1.95-4.06c2.45-1.86,2.9-9.29,1.77-12.21
				c-1.3-3.34-2.87-7.4-1.12-10.51c2.09-3.72,2.56-7.93,4.41-11.44c4.64-8.79-1.45-16.4-1.76-24.57c-0.02-0.6-1.45-1.2-2.28-1.71
				c-15.07-9.26-31.07-12.23-48.13-6.62c-6.61,2.17-12.21,6.37-15.9,12.13c-2.99,4.67-5.54,9.75-8.36,14.54
				c-5.41,9.17-8.2,19-8.88,29.32c-0.39,5.86,1.38,11.82,1.77,17.77c0.33,5.13-0.65,10.43,0.26,15.41c1.62,8.87,5,17.28,10.72,24.41
				c2.49,3.1,3.92,6.64,4.88,10.24c1.05,3.92,2.83,5.33,6.67,4.29c7.99-2.16,16-4.22,24.42-3.23c0.72,0.08,1.52-0.79,2.29-0.8
				c2.87-0.03,6.45-0.93,8.44,0.43c3.07,2.1,5.49,1.56,8.37,0.64c1.13-0.36,2.36-0.58,2.5-2.03c0.15-1.47-1.03-1.98-2.1-2.44
				c-1.93-0.83-3.95-1.68-2.48-4.31c1.79-3.22,3.46-6.64,7.43-8.26c0.72,2.78,1.3,5.25-0.75,7.3c-1.4,1.4-2.08,3.08-0.48,4.26
				c1.91,1.41,3.28-0.88,3.86-2.01c2.84-5.56,9.06-8.14,11.81-13.65c1.53-3.06,3.24-3.61,6.06-0.61c-1.27-4.26,0.36-7.09,2.91-9.44
				c0.83-0.77,2.28-0.99,1.57-2.53c-0.71-1.54-2.23-1.99-3.75-2.05c-2.27-0.09-1.49,1.3-1.34,2.69c0.22,2.07-2.07,3.34-3.13,3.23
				c-3.6-0.35-3.97,1.69-4.37,4.32c-0.18,1.19-0.2,2.7-1.57,3.45c-1.87-0.04-1.51-4.56-3.72-2.43c-1.81,1.74-5.67,3.92-1.82,7.88
				c-1.84-0.74-3.73-1.17-4.21-2.23c-1.72-3.84-3.17-2.26-4.91-0.17c-1.41,1.69-2.66,3.25-5.19,1.02c-1.38-1.22-3.47-0.8-4.74,1.11
				c-0.74,1.1-1.57,2.15-2.44,3.15c-1.01,1.16-2.29,2.46-3.71,0.9c-1.2-1.32,0.09-2.41,1.16-3.25c1.31-1.03,2.71-1.93,3.94-3.05
				c1.22-1.11,1.46-2.6,0.8-4.12c-0.42-0.97-1.27-1.89-2.32-1.22C973.39,212.52,970.42,210.57,967.79,211.79z M1078.13,741.92
				c-1.37-2.05-0.8-3.94-1.06-5.71c-1.95-13.42,7.77-25.83,3.44-39.47c-0.11-0.35,0.28-0.98,0.59-1.33c1.87-2.06,1.8-4.64,1.74-7.1
				c-0.16-6.32-0.79-12.64-0.73-18.96c0.18-18.2-2.89-36.09-4.86-54.09c-0.23-2.08-1.29-3.76-2.5-5.36
				c-2.19-2.89-4.42-2.12-4.81,0.88c-0.51,3.9-3.15,6.53-4.46,9.88c-0.54,1.4-1.39,3.22-3.15,2.39c-2.28-1.08-0.66-2.76,0.02-4.19
				c5.1-10.66,7.94-21.43,5.35-33.58c-3.43-16.11-8.04-31.87-12.26-47.75c-0.29-1.08-0.21-2.65-1.73-2.64
				c-1.64,0.01-2.13,1.52-2.24,2.85c-0.96,12.1-5.85,23.09-9.68,34.38c-0.37,1.08-0.5,2.69-1.99,2.34c-1.88-0.45-1.4-2.4-0.75-3.29
				c2.76-3.8,2.68-8.5,4.19-12.69c2.24-6.2,3.91-12.71,4.12-19.45c0.06-1.85-0.14-3.5-2.29-3.74c-3.95-0.44-7.51-2.67-10.94-3.42
				c-6.64-1.46-13.56-2.97-20.7-2.4c-9.6,0.77-19.32,1.2-28.9-0.29c-14.35-2.24-28.83-2.11-43.26-2.89
				c-7.62-0.41-15.24,2.28-22.88,0.36c-4.58-1.15-8.94-0.65-13.22,1.01c-3.6,1.39-7.32,2.16-11.09,2.89
				c-8.76,1.71-18.03,1.27-26.13,5.91c-1,0.57-1.86,0.34-2.72-0.38c-2.96-2.46-4.21-0.14-5.12,2.08
				c-4.57,11.08-9.03,22.2-13.52,33.3c-2.73,6.73-3.65,13.43,0.24,20.09c0.41,0.71,1.02,1.59,0.89,2.28
				c-1.43,7.95,3.37,13.81,7.25,19.56c3.29,4.87,5.89,11.7,14.03,10.81c1.31-0.14,1.59,0.93,1.16,2.09c-0.7,1.87,0.7,2.64,1.81,3.67
				c6.56,6.12,13.06,12.31,19.63,18.43c1.89,1.76,3.49,3.6,4.03,6.97c-1.76-1.13-2.96-1.73-3.95-2.57
				c-7.16-6.08-14.28-12.22-21.41-18.34c-0.75-0.65-1.54-1.57-2.56-0.79c-0.91,0.7-0.67,1.85-0.23,2.77c0.99,2.1,2.03,4.18,3.16,6.2
				c6.76,12.19,13.43,24.52,26.43,31.38c3.09,1.63,5.94,3.55,8.94,5.27c6.96,4.01,13.07,9.48,21.38,11.21
				c4.91,1.02,10.15,2.62,14.14,5.49c9.7,6.97,20.95,11.5,29.84,19.71c4.38,4.04,10.36,5.98,14.79,10.09
				c1.03,0.96,2.48,1.51,3.69,0.71c2.94-1.95,4.48-0.4,6.11,1.88c1.35,1.89,3.1,3.48,4.55,5.31c0.82,1.03,2.91,1.97,1.18,3.63
				c-1.32,1.27-2.85,0.37-4.04-0.61c-2.16-1.78-3.99-3.81-6.61-5.19c-9.35-4.92-18.5-10.18-27.25-16.18
				c-2.41-1.65-4.38-4.98-8.26-4.52c0.14,1.95,1.19,3.01,2.13,4.17c4.16,5.12,8.83,9.78,13.29,14.61
				c5.54,5.99,11.16,11.86,17.14,17.37c14.53,13.38,29,26.77,38.03,44.99c-14.97-22.6-36.67-38.33-56.25-56.27
				c15.79,25.7,33.03,50.22,55.1,70.95c-0.98,0.99-1.94,1-2.56,0.5c-20.02-16.01-34.8-36.5-48.7-58.07
				c-3.25,4.26,0.62,6.62,1.43,9.52c2.44,8.72,3.77,17.68,7.09,26.24c3.11,8.01,5.41,16.15,13.92,20.3
				c1.05,0.51,1.94,1.32,1.75,2.85c-1.99,0.39-3.37-0.79-4.88-1.76c-4.8-3.08-5.82-2.69-6.84,2.74c-0.4,2.11-0.93,4.43-0.47,6.44
				c1.66,7.11,0.83,14.14,0.01,21.21c-0.04,0.33,0,0.67,0.01,1c0.24,8.91,0.24,8.88,9.27,8.64c1.65-0.04,3.38,0,4.95,0.45
				c6.5,1.89,13.18,1.85,19.83,2.01c5.38,0.12,10.72,0.52,15.74,2.42c7.76,2.93,15.67,2.47,23.62,1.62
				c3.62-0.39,7.78-1.51,10.75-1.21c3.52,0.36,6.23,0.12,9.59-0.72c5.21-1.31,9.59-3.94,13.66-6.97c3.63-2.7,8.58-4.29,8.3-11.08
				c-0.09-2.23,0.73-5.12,0.29-8c-0.66-4.33-3.88-8.12-3.04-12.59c0.47-2.51,0.65-4.85,0.37-7.37c-0.68-6.28-1.67-12.59-1.62-18.88
				c0.16-19.69-2.69-39.22-2.94-58.88c-0.02-1.45,0.33-3.41-2.27-4.26c-1.12,3.69-3.23,7.33-3.08,10.88
				c0.21,5.13-2.26,9.31-3.41,13.89c-0.43,1.74-1.86,6.03-4.04,5.06c-2.42-1.07,1.88-2.74,1.66-4.73c-0.02-0.16,0.03-0.33,0.07-0.49
				c1.5-6.59,2.91-13.21,4.54-19.77c1.2-4.81,0.52-9.61,0.29-14.41c-0.08-1.62-0.57-3.59-2.75-3.54c-2.28,0.06-2.21,2.07-2.38,3.73
				c-0.79,8.1-3.52,15.94-3.21,24.2C1079.91,739.05,1079.68,740.64,1078.13,741.92z M903.63,718.48c-3.91-2.23-7.3-2.25-10.57-3.46
				c-5.56-2.05-10.5-4.83-15.21-8.26c-1.26-0.92-2.96-1.13-2.79,0.89c0.38,4.5-1.64,8.37-2.45,12.54
				c-1.54,7.93-3.27,15.79-5.88,23.42c-1.07,3.12-2.79,5.91-3.02,9.41c-0.28,4.38,0.84,6.04,5.56,5.53
				c6.43-0.7,12.94-0.72,19.42-0.91c1.84-0.05,4.18,0.21,4.11,2.58c-0.07,2.54-2.47,2.2-4.27,2.12c-3.99-0.18-8.01-0.23-11.96-0.73
				c-4.22-0.53-6.63,1.1-7.8,5.09c-1.72,5.86-2.65,11.94-5.68,17.44c-3.5,6.36-3.1,6.82,4.27,8.3c0.81,0.16,1.65,0.23,2.48,0.27
				c7.44,0.36,14.65,1.54,21.26,5.33c1.01,0.58,2.64,0.48,3.89,0.21c7.03-1.51,13.06,0.82,16.59,6.78c0.68,1.15,1.25,2.02,2.63,1.54
				c4.53-1.57,2.73,1.6,2.55,3.43c-1.13,11.84-5.6,22.66-10.87,33.08c-1.85,3.66-1.46,7.97-3.97,11.16
				c-9.09,11.57-13.32,25.41-17.22,39.09c-3.71,13.03-7.38,26.19-9.23,39.72c-0.88,6.45-2.45,12.26,0.45,19.25
				c2.75,6.63,7.68,8.66,12.67,9.57c5.82,1.05,11.78,1.54,17.63,2.91c8.5,1.98,11.86,8.78,7.94,16.79
				c-1.94,3.96-0.66,6.36,3.88,6.54c3.85,0.15,7.74,0.06,11.26,1.75c3.04,1.46,7.68-0.72,9.29,3.42c1.47,3.76-1.52,7.07-2.85,10.29
				c-1.68,4.05-0.75,6.68,2.16,9.21c1.5,1.3,3.02,2.63,4.7,3.67c8.8,5.48,18.49,8.97,28.43,11.46c4.13,1.04,8,2.8,12.38,3.41
				c11.82,1.65,23.77,2.8,35.18,6.99c5.12,1.88,9.64,5.33,15.26,5.87c6.02,0.58,7.09-0.47,5.53-6.24
				c-2.21-8.16-4.55-16.3-7.22-24.32c-1.4-4.2-2.55-8.48-4.72-12.5c-2.83-5.23-5.82-10.8-6.76-16.54
				c-1.47-9.02-7.13-16.83-6.93-26.2c0.01-0.45-0.46-0.89-0.59-1.36c-2.53-9.45-5.53-18.8-7.42-28.38
				c-2.5-12.65,0.56-24.8,5.4-36.47c0.91-2.19,1.45-8.1,6.02-2.33c0.39,0.49,1.88,0.24,2.84,0.13c9.54-1.04,18.99-2.63,28.71-2.07
				c7.79,0.45,15.6,0.31,23.27,2.1c4.66,1.09,8.88-3.09,7.62-7.76c-0.88-3.25-3.4-6.12-1.12-9.86c0.61-1-1.19-1.6-2.17-2.23
				c-5.18-3.36-10.83-2.57-16.45-2.03c-1.74,0.17-4.09,1.42-4.5-1.21c-0.41-2.57,2.39-2.61,3.97-2.64
				c5.19-0.1,10.46-0.33,15.38,1.92c2.17,0.99,4.33,1.25,7.1-0.15c-3.27-0.17-4.93-1.24-4.52-4.51c0.22-1.8-1.75-1.32-2.96-1.7
				c-4.38-1.37-8.43,1.64-12.79,0.67c-7.07-1.57-14.11-3.76-21.53-1.96c-0.68,0.16-1.92-0.18-2.26-0.7
				c-2.43-3.75-6.48-2.85-9.92-3.64c-2.81-0.65-4.06,0.45-3.77,3.45c0.27,2.74,0.53,5.55-0.91,8.2c-2.26-0.91-2.15-2.84-2.55-4.31
				c-1.27-4.62-4.32-7.68-8.69-8.84c-7.05-1.86-14.27-3.24-21.62-2.78c-5.48,0.35-7.26-0.87-7.4-6.5
				c-0.36-14.28-0.63-28.56-0.79-42.84c-0.03-2.39-0.56-4.53-1.18-6.79c-1.73-6.27-5.23-12.17-6.09-18.39
				c-0.99-7.19-2.29-14.13-4.89-20.86c-1.81-4.69-1.88-4.66-5.64-0.99c-1.3-2.43,0.07-5.3-1.82-7.61
				c-13.63-16.68-25.86-34.48-41.05-49.95c-5-5.09-10.38-9.11-16.49-12.46c-9.01-4.94-18.46-9.27-24.64-18.12
				c-2.59-3.7-4.85-7.72-9.46-11.75c0.74,6.66,2.3,12.07,4.11,16.67c2.73,6.9,4.72,14.02,7.33,20.94c0.54,1.43,1,2.9,2.21,3.83
				c5.14,3.95,11.32,6.06,16.87,9.3c1.1,0.64,3.68-0.18,3,2.02c-0.57,1.85-2.85,1.4-4.38,0.72c-5.43-2.41-11.4-3.64-16.27-7.32
				c-1.01-0.76-2.14-1.13-3.12-0.03c-1.17,1.32-0.57,2.48,0.63,3.38c3.18,2.4,6.18,5.01,9.61,7.13
				C894.83,712.77,900.23,712.87,903.63,718.48z M926.28,693.53c0.37,0.07-0.31,0.25-0.46,1.02c-0.29,1.51,0.64,2.42,1.71,3.33
				c6.09,5.18,11.41,11.02,16.13,17.54c6.31,8.71,12.84,17.25,18.88,26.16c0.63,0.93,1.04,2.98,2.82,2.01
				c1.59-0.86,1.12-2.6,0.75-4.05c-0.36-1.42-1.73-3.13-0.6-4.24c3.57-3.5,0.93-5.26-1.47-7.55c-2.87-2.75-5.85-5.58-7.95-8.91
				c-2.06-3.25-6.82-5.86-3.62-11.18c0.81-1.34-0.78-3.13-2.61-3.62c-1.66-0.44-2.93-1.5-4.37-2.29
				C939.69,698.57,933.81,695.54,926.28,693.53z M1060.46,1100.48c-2.24-1.35-3.41,0.32-4.88,0.87c-2.26,0.83-3.88-0.29-5.02-2.12
				c-0.67-1.07-0.86-2.47,0.72-2.82c6.68-1.49,1.9-4.14,0.39-5.78c-2.11-2.29-2.92-3.92,0.14-5.94c2.84-1.88,0.95-3.08-0.91-3.67
				c-3.17-1.01-4.18,0.95-4.31,3.7c-0.28,5.87,1.33,11.69,0.36,17.6c-0.37,2.26-0.06,4.64,0.01,6.97c0.07,2.15,0.71,4.07,3.22,4.33
				c3.63,0.37,7.28,0.61,10.93,0.8c1.35,0.07,2.99-0.25,3.13-1.82c0.18-2-1.57-2.33-3.12-2.32c-3.65,0.03-6.91-0.94-9.93-3.47
				C1055.86,1106.94,1058.18,1103.99,1060.46,1100.48z M865.02,829.46c2.4-1.87,4.82-0.79,7.06-1.09c1.17-0.16,2.57-0.23,2.47-1.8
				c-0.1-1.55-1.54-1.55-2.7-1.49c-2.65,0.14-5.3,0.45-7.95,0.56c-2.32,0.1-5.65-1.13-3.5,3.54c0.68,1.47-1.03,1.9-2.11,2.12
				c-2.33,0.47-4.57,0-6.87-0.62c-3.64-0.99-7.26-2.29-11.15-2.06c-1.44,0.09-3.44-0.45-3.27,1.84c0.15,2.12,2.15,1.57,3.57,1.62
				c2.31,0.09,4.79-1.42,6.87-0.17c5.24,3.14,11.03,1.81,16.56,2.54c2.16,0.28,6.09-1.46,6.1,0.96c0.01,3.02-3.96,1.29-6.17,1.71
				c-3.98,0.76-8.25-0.11-12.07,1.9c6.4,0.61,12.76,0.85,19.09,0.47c2.04-0.12,2.96-2.55,2.93-4.69c-0.03-2.36-1.84-2.83-3.74-3.24
				C868.44,831.19,866.41,831.56,865.02,829.46z M851.74,969.92c0.82,2.22,3.6,1.84,2.88,3.95c-0.58,1.71-2.46,1.44-3.85,1.73
				c-0.75,0.16-1.63-0.12-2.41-0.34c-1.84-0.53-3.08,0-3.04,1.98c0.03,1.68,1.04,2.98,2.91,2.49c2.42-0.63,4.61,0.1,6.84,0.67
				c3.06,0.78,5.64,0.32,8.44-1.49c4.01-2.59,8.48-4.48,12.78-6.62c1.6-0.8,5.02-0.17,4.09-2.94c-0.77-2.31-3.78-0.96-5.78-0.6
				c-0.92,0.17-1.67,1.21-2.59,1.39c-3.8,0.73-7.63,3.79-11.37,1.62C857.72,970.08,855,970.67,851.74,969.92z M878.33,1000.77
				c3.74-3.67,9.9-1.9,15.26-5.31c7.1-4.53,12.81-10.25,18.88-15.73c1.49-1.35,1.88-3.49,0.16-4.85c-2.05-1.62-2.51,0.92-3.71,1.84
				c-3,2.32-2.44,6.41-5.62,9.03c-7.88,6.52-17.63,8.03-26.61,11.62c-1.14,0.46-3.17,0.26-2.82,2.05
				C874.17,1000.9,876.02,1000.6,878.33,1000.77z M837.58,953.22c0.53,2.09,4.34,0.85,3.83,3.06c-0.59,2.52-3.28,1.39-5.15,1.35
				c-0.94-0.02-1.73,0.12-1.68,1.22c0.07,1.25,1.12,1.67,2.13,1.65c3-0.05,5.99-0.25,8.6,1.7c0.57,0.43,1.27,0.41,1.81-0.12
				c0.86-0.83,0.85-1.99,0.24-2.74c-2.94-3.54-0.35-3.85,2.34-5.06c3.86-1.74,9.24-0.91,11.22-6.2c0.33-0.89,1.39-1.56,0.35-2.52
				c-0.79-0.73-1.46-0.05-2.18,0.36c-5.47,3.08-11.33,5.01-17.57,5.74C840.07,951.83,838.46,951.6,837.58,953.22z M869.84,909.84
				c1.87-0.85,4.98,1.85,6.08-1.18c1.02-2.81,0.07-6.03-1.35-8.6c-1.13-2.06-3.6-1.97-5.85-1.37c-6.42,1.71-12.88,3.16-19.57,3.3
				c-1.09,0.02-2.68,0.09-2.41,1.72c0.24,1.47,1.82,1.27,2.91,1.18c6.59-0.54,13.28-0.25,19.67-2.39c1.11-0.37,2.41-1.09,3.12,0.19
				c0.78,1.39-0.45,2.47-1.35,3.42c-0.85,0.9-1.98,1.13-3.19,1.11c-1.61-0.03-4.24-0.5-4.16,1.4c0.1,2.51,2.85,1.13,4.46,1.38
				C868.67,910.07,869.18,909.91,869.84,909.84z M1073.45,935c0,0.02,0,0.05-0.01,0.07c1.32,0.11,2.65,0.29,3.97,0.31
				c1.28,0.02,2.97,0.27,2.91-1.71c-0.04-1.49-1.57-1.78-2.64-1.65c-6.43,0.74-12.38-0.97-18.33-3.07c-2.8-0.99-5.97,0.6-8.8-1.01
				c-1.43-0.81-2.98-1.7-4.61-0.41c-0.76,0.6-0.61,1.46-0.32,2.27c0.69,1.91,1.96,2.85,4.07,3.03
				C1057.63,933.49,1065.54,934.27,1073.45,935z M1033.28,950.55c-4.49-1.01-6.68,3.39-10.48,3.31c-1.41-0.03-4.27-0.36-4.02,1.68
				c0.27,2.23,3,1.04,4.68,1.28c4.98,0.7,9.1-2.76,13.92-2.8c1.9-0.01,4.2-0.43,2.37,2.72c-1.55,2.68,0.98,3.27,2.31,3.69
				c1.8,0.56,2.04-1.25,1.98-2.58c-0.07-1.65-0.3-3.19,0.73-4.76c1.56-2.39,0.49-3.38-2.1-3.04
				C1039.39,950.5,1036.05,949.64,1033.28,950.55z M847.46,862.61c9.44,2,19.22,1.36,28.73,3.19c1.87,0.36,4.71,0.94,5.08-1.53
				c0.4-2.67-2.77-2.11-4.45-2.78c-0.74-0.29-1.64-0.21-2.47-0.24C865.4,860.96,856.49,861.61,847.46,862.61z M1037.82,944.3
				c0.08-1.2-1.16-1.29-1.92-1.73c-1.24-0.72-2.77-2.06-3.86-0.19c-1.5,2.57-3.87,2.27-6.11,2.37c-3.02,0.14-5.93,0.59-8.72,1.77
				c-1.52,0.64-2.67,1.65-2.23,3.38c0.55,2.19,2.28,1.41,3.67,1.06c3.96-1.02,7.7-2.55,11.99-2.71
				C1032.85,948.16,1036.35,947.53,1037.82,944.3z M1019.8,942.11c6.2,0.19,11.95-2.54,18.08-2.81c1.59-0.07,3.88,0.21,3.83-2.01
				c-0.05-2.05-1.97-2.59-4.04-2.69c-3.36-0.17-6.16,0.24-8.93,2.68c-3.34,2.95-8.03,1.12-12.01,2.13
				c-0.91,0.23-2.16,0.28-1.93,1.67c0.17,1,1.21,0.97,2.01,1.02C1017.81,942.15,1018.81,942.11,1019.8,942.11z M1058.57,1021.85
				c8.26,2.17,12.3,1.3,14.92-2.48c4.06-5.85,4.3-7.94,1.57-12.25C1072.52,1015.05,1067.4,1020.33,1058.57,1021.85z M858.78,807.8
				c-2.59,0-4.91-0.11-7.21,0.04c-1.4,0.09-3.68-0.07-3.59,1.74c0.1,2.14,2.49,1.79,4.02,1.71c6.78-0.36,13.56-1.04,20.36-0.29
				c1.1,0.12,2.37-0.83,1.67-1.7c-1.31-1.64-3.53-3.95-5.37-2.89C865.27,808.36,861.84,807.23,858.78,807.8z M1002.88,188.31
				c0.66-0.51,1.58-0.98,2.17-1.72c3.33-4.16,2.81-9.58,4.5-14.3c0.3-0.84-0.67-1.87-1.86-1.85c-1.1,0.02-1.74,0.77-2.18,1.73
				c-1.96,4.3-2.26,9.18-4.77,13.32C999.94,186.83,1001.1,187.95,1002.88,188.31z M1023.71,915.71c4.88,0.18,9.17-2.84,14.09-2.59
				c1.01,0.05,1.89-0.68,1.88-1.88c-0.01-0.74-0.62-1.4-1.26-1.25c-4.29,0.98-9.42-4.15-13.08,1.77c-0.35,0.56-1.46,0.67-2.23,0.95
				c-1.27,0.46-3.62-0.04-3.23,2.06C1020.22,916.73,1022.33,915.65,1023.71,915.71z M846.35,940.08c2.8-0.21,5.11-0.38,7.41-0.56
				c2.41-0.19,3.2-2.26,3.01-3.87c-0.3-2.51-2.49-1.57-3.92-1c-1.92,0.77-3.94,1.14-5.84,0.81c-2.72-0.47-6.12-1.35-6.16,2.29
				C840.81,940.93,844.75,939.39,846.35,940.08z M1057.67,918.33c1.89-0.11,4.21-0.25,6.53-0.38c1.01-0.06,2.26-0.13,2.37-1.31
				c0.13-1.4-1.13-1.95-2.32-2.11c-4.43-0.58-8.86-1.16-13.31-1.59c-1.6-0.16-2.47,0.94-2.45,2.48c0.03,1.74,1.04,2.8,2.79,2.89
				C1053.26,918.4,1055.25,918.33,1057.67,918.33z M1009.09,150.04c0.45-1.64,0.79-3.86-1.16-4.2c-2.3-0.41-2.33,1.82-2.32,3.44
				c0,1.47-0.83,2.41-1.61,3.5c-1.42,1.98-1.04,4.13-0.01,6.1c0.67,1.28,1.61,2.8,3.38,2.34c1.51-0.39,1.65-1.98,1.69-3.28
				C1009.15,155.31,1009.09,152.67,1009.09,150.04z M839.84,990.22c4.75,1.95,8.01-3.75,12.91-4c1.23-0.06,0.97-1.57-0.15-2.12
				c-1.33-0.65-3.03-1.7-4.23-0.64c-3.46,3.06-7.71,2.67-11.75,3.27c-1.32,0.2-2.94,0.21-2.76,2.07c0.14,1.52,1.58,1.42,2.76,1.42
				C837.45,990.22,838.28,990.22,839.84,990.22z M843,929.09c4.02,1.96,17.56,0.14,19.23-1.84c0.88-1.03,0.83-2.15,0.11-3.19
				c-0.77-1.11-1.88-1.27-3.06-0.65C854.43,925.92,849.74,928.82,843,929.09z M886.7,823.83c6.82,0.93,12.44,2.48,17.59,5.4
				c0.97,0.55,2.01,0.36,2.45-0.78c0.51-1.33-0.33-2.61-1.36-2.8c-3.61-0.66-6.55-2.93-9.9-3.95
				C893.08,820.97,889.97,820.43,886.7,823.83z M1003.02,198.61c-0.06-1.72-0.84-3.8-3.27-4.36c-3.19-0.73-1.84,2-2.46,3.41
				c-0.94,2.13-1.48,3.6,0.48,5.61c1.24,1.27-0.09,2.35-1.76,2.38c-0.9,0.02-1.83,0.25-1.53,1.32c0.37,1.29,1.57,1.06,2.47,0.66
				C1000.59,206.02,1002.66,203.23,1003.02,198.61z M859.17,821.54c4.11,0.7,8.17,1.04,12.17,0.09c1.73-0.41,2.94-1.75,3.08-3.54
				c0.14-1.74-1.33-2.61-2.67-3.28c-4.24-2.13-8.28-0.74-12.47,0.77c3.16,0.66,6.12,0.89,9.12,0.38c1.16-0.2,2.61-0.21,2.88,1.23
				c0.36,1.87-1.29,2.01-2.58,2.25C865.53,820.04,862.13,819.43,859.17,821.54z M843.25,533.94c2.98-3.65,8.8-1.91,11.33-6.53
				c0.49-0.9,2.09-1.47,1.14-2.68c-1.32-1.68-2.2-0.42-2.86,0.87c-0.32,0.64-0.95,1.25-1.53,0.85c-5.47-3.77-6.26,3.34-9.74,4.21
				c-0.76,0.19-0.72,1.47-0.17,2.17C841.79,533.29,842.48,533.49,843.25,533.94z M848.05,1007.77c3.41-0.19,6.03-0.3,8.64-0.48
				c1.34-0.09,2.96-0.34,2.96-1.95c0-1.8-1.75-1.71-3.02-1.64c-2.29,0.12-4.58,0.57-6.75-0.63c-1.54-0.85-3.1-1.18-4.5,0.29
				c-0.71,0.75-1.24,1.65-0.78,2.67C845.43,1007.86,847.26,1007.65,848.05,1007.77z M1067.39,1042.99c0.11-0.48,0.22-0.96,0.34-1.43
				c-0.48-0.16-0.94-0.38-1.44-0.47c-6.81-1.17-12.6,3.84-19.35,3.25c-0.72-0.06-1.11,1.15-0.88,2.04c0.3,1.18,1.13,1.37,2.28,1.32
				C1055.06,1047.38,1060.35,1042.21,1067.39,1042.99z M1074.63,949.45c-0.96,0-0.62,0.03-0.29-0.01c1.3-0.15,3.55,1.21,3.59-1.05
				c0.04-2.11-2.27-1.46-3.59-1.22c-4.05,0.72-7.93-0.54-11.89-0.76c-1.55-0.09-3.7-1.41-3.97,1.18c-0.26,2.52,2.06,2.67,3.92,2.6
				C1066.04,950.05,1069.69,949.76,1074.63,949.45z M899.38,832.31c-0.36-0.43-0.67-1.17-1.18-1.34c-4.13-1.4-8-3.96-12.67-3.16
				c-1.36,0.23-3.55-0.14-3.4,1.85c0.13,1.79,2.23,1.55,3.67,1.63c3.36,0.18,6.75-0.38,9.52,2.64
				C896.39,835.11,898.44,834.44,899.38,832.31z M847.52,844.16c7.99,2.78,14.9,2.92,21.79,0.22
				C862.39,842.74,855.48,843.5,847.52,844.16z M855.96,508.66c0.55-3.47-0.23-5.71-3.35-6.07c-2.1-0.24-3.57,1.21-3.43,3.29
				c0.2,3.07,2.26,5.43,5.05,5.92C856.48,512.2,855.76,509.48,855.96,508.66z M856.85,893.64c-0.03,0.41-0.06,0.81-0.09,1.22
				c6.18-0.5,12.24,1.55,18.45,0.35c0.97-0.19,2.15-0.36,2.06-1.65c-0.1-1.42-1.34-1.18-2.3-1.12
				C868.94,892.83,862.9,893.24,856.85,893.64z M827.08,992.72c-0.39,0.16-0.9,0.26-1.26,0.54c-1.56,1.24-1.27,8.92,0.51,9.91
				c1.17,0.65,2.49,2.46,3.92,1.1c1.42-1.35,0.05-2.73-0.92-3.87c-1.16-1.38-1.83-2.72-0.56-4.46
				C830.19,993.99,828.64,993.37,827.08,992.72z M854.92,919.84c2.34-0.3,4.85-0.42,6.97-1.91c0.94-0.66,2.02-1.53,1.54-2.81
				c-0.58-1.56-1.85-0.77-2.94-0.5c-2.07,0.51-4.17,0.91-6.23,1.44c-1.4,0.35-3.49,0.52-3.22,2.35
				C851.31,920.25,853.4,919.64,854.92,919.84z M870.78,927.24c2.03-0.34,2.59-1.85,2.45-3.63c-0.16-2-0.31-3.92,0.8-5.77
				c0.56-0.94,1.31-2.13,0.23-3.17c-0.37-0.35-1.25-0.41-1.81-0.26c-1.46,0.39-2.48,1.69-2.04,2.97c0.88,2.54,0.06,4.34-1.33,6.36
				C867.95,925.39,868.26,926.95,870.78,927.24z M994.24,235.74c4.36,0.1,7.28-1.42,8.39-5.51c0.33-1.2,0.05-2.33-1.11-3
				c-1.08-0.62-1.92-0.05-2.51,0.82C997.4,230.47,994.68,232.18,994.24,235.74z M1026.06,920.29c4.37,1.33,8.69,1.64,12.89-0.27
				c1-0.45,1.98-1.37,1.79-2.71c-0.14-1.02-1.15-1.45-1.85-0.98C1034.99,918.93,1030.06,917.74,1026.06,920.29z M851.05,857.22
				c4.68,0,9.36,0.04,14.04-0.02c1.48-0.02,2.98-0.22,4.44-0.47c0.63-0.11,1.3-0.59,0.91-1.4c-0.17-0.36-0.77-0.84-1.09-0.78
				C863.31,855.63,856.92,853.93,851.05,857.22z M904.11,803.49c-1.4,0.38-2.04,1.43-1.51,1.93c2.63,2.45,4.56,5.78,7.92,7.26
				c1.22,0.54,3.23-0.17,2.33-2.47C911.23,806.07,905.43,807.65,904.11,803.49z M1075.88,978.02c-3.41-2.65-6.55-0.14-9.79,0.26
				c-1.42,0.18-3.49-0.03-2.78,2.31c0.59,1.97,2.72,1.61,3.8,0.89C1069.79,979.66,1072.76,978.93,1075.88,978.02z M897.13,853.01
				c-0.07-0.26-0.11-0.59-0.26-0.87c-0.49-0.92-9.32-4.04-10.25-3.66c-0.9,0.37-1.5,1.52-0.77,1.79c3.31,1.25,5.79,4.38,9.67,4.25
				C896.45,854.5,897.05,854.06,897.13,853.01z M875.51,840.6c-0.02,0.38-0.05,0.76-0.07,1.13c2.6,0.36,5.21,0.96,7.81,1
				c1.63,0.03,4.55,0.57,4.55-1.66c0-2.39-2.84-1.68-4.49-1.59C880.7,839.64,878.11,840.21,875.51,840.6z M1054.44,1024.71
				c-4.46-2.8-8.8-0.51-12.9-1c-0.21-0.02-0.8,0.84-0.7,1.06c0.25,0.54,0.78,1.33,1.22,1.36
				C1046.07,1026.32,1050.22,1027.47,1054.44,1024.71z M866.19,888.05c3.87,1.96,7.97-1.1,11.81,0.8c0.19,0.09,0.86-0.77,1.3-1.19
				c-0.44-0.44-0.82-1.02-1.34-1.3C873.59,883.96,870.09,887.19,866.19,888.05z M891.35,843.68c1.81,2.34,4.36,1.53,6.11,2.7
				c1.24,0.83,2.51,1.33,2.89-0.74c0.31-1.63-0.29-3.05-2.16-3.19C895.97,842.3,893.68,842.19,891.35,843.68z M869.21,961.07
				c1.72-0.33,3.97-0.23,4.22-2.5c0.24-2.18-1.82-2.02-3.18-1.85c-1.83,0.23-4.68-0.39-5.05,1.83
				C864.85,960.66,867.36,960.93,869.21,961.07z M1041.67,528.57c-1.89-0.09-4.27-0.97-4.74,1.46c-0.43,2.2,1.87,2.01,3.19,1.81
				c2.1-0.33,5.55,1.02,5.9-1.83C1046.29,527.73,1043.1,529.08,1041.67,528.57z M1049.37,896.39c4.28,1.06,8.52,1.37,12.6-0.47
				C1057.71,894.87,1053.48,894.07,1049.37,896.39z M889.93,971.78c2.79-0.22,4.13-1.73,4.44-4.1c0.13-0.95-0.69-1.52-1.62-1.32
				c-2.13,0.45-4.29,1.1-4.78,3.59C887.65,971.54,888.94,971.78,889.93,971.78z M846.52,944.74c3.26,1.52,6.23,1.14,9.18-0.01
				c0.22-0.09,0.37-1.21,0.23-1.29c-2.71-1.51-5.45-0.33-8.18,0.04C847.4,943.53,847.12,944.11,846.52,944.74z M1059.33,939.86
				c-3.26-0.7-6.34-3.76-10.25-0.99C1052.6,941.56,1055.92,941.46,1059.33,939.86z M866.04,1004.04c1.28-0.1,2.99,0.02,2.98-1.71
				c-0.01-1.83-1.81-1.64-3.03-1.49c-1.44,0.18-3.91-0.53-3.74,1.83C862.37,1004.38,864.68,1003.66,866.04,1004.04z M836.05,1001.62
				c-1.65,0.07-2.2,1.16-2.26,2.6c-0.07,1.73,0.71,2.89,2.55,2.82c1.49-0.06,2.39-1.03,2.43-2.55
				C838.83,1002.69,837.72,1001.89,836.05,1001.62z M1046.89,1032.28c1.56-0.21,4.12,0.83,4.22-1.29c0.12-2.41-2.4-1.52-3.87-1.34
				c-1.58,0.19-4.39-1.23-4.38,1.48C1042.88,1033.49,1045.49,1032,1046.89,1032.28z M1033.1,975.22c-2.65-0.32-4.66,0.08-6.43-0.96
				c-0.86-0.51-2.04-0.45-2.66,0.53c-0.29,0.45-0.3,1.33-0.05,1.82c0.6,1.19,1.79,1.52,2.98,1.11
				C1028.76,977.1,1030.52,976.28,1033.1,975.22z M908.33,969.85c-0.22-1.54-1.35-1.79-2.56-1.76c-1.59,0.04-2.47,0.94-2.41,2.53
				c0.05,1.25,0.54,2.44,2.06,2.19C906.99,972.54,908.07,971.52,908.33,969.85z M866.45,953.6c1.15-1.47,3.94-1.31,4.6-3.68
				c0.31-1.09-0.71-2.02-1.8-1.74c-2.19,0.57-3.54,2.29-4.4,4.27C864.59,953.05,865.36,953.57,866.45,953.6z M1088.22,1055.37
				c1.46-0.17,3.65,0.27,3.75-1.55c0.14-2.36-2.34-1.74-3.79-1.97c-1.28-0.21-3.06-0.16-3.18,1.52
				C1084.82,1055.56,1086.85,1055.15,1088.22,1055.37z M1124.87,1060.37c1.39-0.36,3.74,0.41,3.71-2.01
				c-0.02-1.62-1.96-1.55-3.22-1.51c-1.54,0.05-3.8-0.37-3.78,2C1121.6,1060.53,1123.54,1060.17,1124.87,1060.37z M1054.23,945.65
				c-0.82-1.31-2.11-1.59-3.47-1.49c-1.21,0.1-2.56,0.55-2.17,2.06c0.38,1.47,1.76,1.93,3.22,1.56
				C1052.93,947.49,1054.09,947.11,1054.23,945.65z"/>
			<path class="st0" d="M949.93,1063.72c-0.68,5.78,2.86,8.51,6.94,10.72c6.58,3.56,13.84,5.57,20.77,8.25
				c12.65,4.89,25.78,8.57,38.78,12.54c3.95,1.21,8.15,1.6,12.18,2.57c1.92,0.46,4.47,1.41,3.59,3.79
				c-0.88,2.38-3.03,0.63-4.71,0.15c-8.14-2.33-16.36-4.39-24.44-6.91c-12.48-3.89-25.23-6.95-37.13-12.65
				c-5.91-2.83-12.61-3.6-18.12-7.81c-3.82-2.92-5.08-6.02-3.79-10.23c0.94-3.05-0.09-4.3-2.94-4.96c-2.73-0.63-5.44-1.47-8.08-2.42
				c-0.86-0.31-1.67-1.23-1.21-2.41c0.36-0.94,1.35-1.19,2.09-0.86c3.83,1.69,8.18,1.18,11.98,3.07
				C949.04,1058.15,950.89,1060.27,949.93,1063.72z"/>
			<path class="st0" d="M849.37,1025.06c6.54-0.86,13.1-0.56,19.64,0.32c6.44,0.87,12.85,2.02,19.37,1.44
				c4.52-0.4,7.86,3.43,12.43,2.97c9.28-0.92,16.54,4.5,24.14,8.45c4.71,2.45,4.56,5.03,0.16,8.13c-2.11,1.49-3.9,3.71-6.99,3.29
				c-0.89-0.12-2.22-0.09-2.36,1.22c-0.16,1.54,1.21,1.77,2.33,2.07c0.48,0.13,0.99,0.13,1.48,0.17c1.43,0.13,3.62-0.23,3.38,1.82
				c-0.24,2.07-2.33,1.1-3.7,0.98c-2.15-0.18-4.31-0.35-6.45-0.67c-1.62-0.24-2.78-1.24-3.05-2.89c-0.28-1.7,1.08-2.2,2.34-2.75
				c2.58-1.11,5.16-2.23,7.69-3.44c3.88-1.85,4.3-4.99,0.68-7.03c-6.23-3.51-13.12-5.31-20.11-6.67
				c-16.32-3.17-32.89-4.08-49.41-5.38c-0.58-0.05-1.12-0.5-1.68-0.76C849.3,1025.91,849.34,1025.49,849.37,1025.06z"/>
			<path class="st0" d="M796.3,471.99c-2.66,0.12-4.21-2.05-5.82,0.29c-1.1,1.6-1.76-0.06-2.33-1.07
				c-3.51-6.16-5.54-13.01-9.12-19.17c-2.72-4.69-6.33-8.88-7.9-14.26c-1.61-5.5-3.75-10.81-5.17-16.4
				c-1.29-5.07-3.75-9.85-3.56-15.27c0.05-1.4-0.93-3.61,0.84-3.95c2.27-0.43,2.46,2.25,2.36,3.56
				c-0.76,10.72,5.56,19.59,7.74,29.56c1.29,5.86,4.98,11.63,8.87,16.39C787.34,457.97,789.34,466.11,796.3,471.99z"/>
			<path class="st0" d="M807.81,371.68c-1.21-4.77-7.69-6.02-7.52-11.63c0.02-0.52-1.24-1.62-1.73-1.53
				c-3.03,0.57-3.85-1.65-5.27-3.51c-3.03-3.96-6.96-3.12-10.68,2.12c-0.79,1.11-0.62,3.11-2.79,2.91
				c0.28-6.34,7.45-11.93,12.98-10.09c4.43,1.47,9.42,2.74,11.2,7.48C805.71,361.95,809.74,366.05,807.81,371.68z"/>
			<path class="st0" d="M782.82,433.17c-0.15-0.81-0.37-1.72,0.51-2.21c0.9-0.5,1.7,0.05,2.07,0.8c2.12,4.35,5.59,8.14,5.68,13.37
				c0.02,1.15,0.48,2.52-0.88,3.05c-1.93,0.75-1.88-1.11-2.54-2.16C785.18,442.06,783.45,437.83,782.82,433.17z"/>
			<path class="st0" d="M799.37,435.75c-0.27,0.56-0.39,1.25-0.69,1.34c-0.55,0.16-1.7,0.08-1.74-0.1c-0.99-4.49-6.56-4.09-8.3-7.85
				c-0.45-0.96-1.91-1.55-0.86-2.84c0.82-1,1.8-2.41,2.86-2.56c1.78-0.26,1.34,1.33,1.08,2.46c4.79,0.28,2.28,6.52,6.21,7.61
				C798.53,433.99,798.88,435.06,799.37,435.75z"/>
			<path class="st0" d="M799.02,486.84c-1.17,0.87-2.34,1.73-3.51,2.61c-2.72-3.17-4.58-6.72-5.17-10.89
				c-0.16-1.13-0.76-2.38,0.83-2.87c1.16-0.36,1.73,0.53,2.23,1.45c1.81,3.29,3.65,6.57,5.49,9.85L799.02,486.84z"/>
			<path class="st0" d="M779.15,391.6c-2.07-5.22-2.33-10.51-0.93-15.87C780.25,380.92,779.95,386.25,779.15,391.6z"/>
			<path class="st0" d="M790.09,454.49c0.69-1.71,1.21-3.28,1.95-4.73c0.59-1.16,1.76-1.63,2.94-0.99c1.05,0.57,0.81,1.69,0.5,2.65
				c-0.39,1.24-1.67,2.07-1.58,3.55c0.07,1.16,0.1,2.8-1.3,2.77C790.77,457.72,791.16,455.44,790.09,454.49z"/>
			<path class="st0" d="M798.88,486.99c3.17,0.73,9.3,7.01,9.64,9.94c0.05,0.41-0.15,1.08-0.44,1.24c-0.32,0.18-1.15,0.06-1.31-0.2
				c-2.38-3.85-6.72-6.34-7.75-11.13C799.02,486.84,798.88,486.99,798.88,486.99z"/>
			<path class="st0" d="M804.39,472.64c-2.07-1.98-3.96-3.52-5.49-5.36c-0.86-1.03-0.88-2.67,0.45-3.54
				c1.8-1.18,2.31,0.49,2.75,1.67C802.91,467.61,805.77,469.04,804.39,472.64z"/>
			<path class="st0" d="M785.16,418.78c-1.74,0.96-3.36,0.96-3.7-1.32c-0.34-2.27,1.14-4.09,2.79-5.33
				c0.77-0.58,1.71,0.64,1.82,1.73c0.17,1.67-0.23,3.25-0.97,4.75C785.12,418.66,785.14,418.72,785.16,418.78z"/>
			<path class="st0" d="M827.05,477.22c1.95,3.06,3.02,6.25,1.57,9.75c-0.09,0.21-1.14,0.33-1.23,0.19
				C825.46,483.99,826.05,480.64,827.05,477.22z"/>
			<path class="st0" d="M802.53,500.09c0.18,1.47-0.56,2.1-1.38,1.81c-2.16-0.76-4.46-1.57-4.91-4.31
				c-0.17-1.02,0.04-2.41,1.27-2.21C800.28,495.83,800.74,498.89,802.53,500.09z"/>
			<path class="st0" d="M785.16,418.78c-0.02-0.06-0.05-0.12-0.07-0.17c1.13-0.71,2.47-1.61,3.39-0.01
				c1.11,1.94-0.32,3.41-1.53,4.77c-0.58,0.65-1.43,1.14-2.1,0.34C783.44,422.03,783.98,420.35,785.16,418.78z"/>
			<path class="st0" d="M842.04,1021.35c1.79,0.44,3.97,0.64,4.44,2.98c0.26,1.27-1.09,1.62-2.03,1.34
				c-1.87-0.55-4.64,0.11-5.1-2.66C839.15,1021.75,840.76,1021.48,842.04,1021.35z"/>
			<path class="st0" d="M781.13,394.67c2.75,2.72,2.65,5.15,1.27,7.63c-0.19,0.34-1.53,0.52-1.66,0.32
				C779.06,400.1,780.31,397.72,781.13,394.67z"/>
			<path class="st0" d="M795.06,463.43c-0.83-2.49,1.82-3.93,0.69-5.94c-0.37-0.66-0.08-1.75,0.93-1.89
				c1.37-0.19,1.54,0.99,1.57,1.93C798.31,459.91,797.06,461.59,795.06,463.43z"/>
			<path class="st0" d="M916.71,454.05c-1.79,1.4-3.07,0.66-4.49,0.14c-18.01-6.65-30.52-18.98-38.04-36.55
				c-1.17-2.72-3.14-5.13-3.04-8.31c0.03-0.96-0.2-2.22,1.16-2.33c0.86-0.07,1.24,0.91,1.58,1.69
				c5.56,13.03,12.35,25.08,23.98,33.97C903.68,447.12,910.61,449.45,916.71,454.05z"/>
			<path class="st0" d="M868.61,370.86c1.45-4.28,5.13-6.88,7.65-10.36c8.85-12.18,17.22-24.57,20.01-39.8
				c0.33-1.8,0.36-4.71,3.31-3.74c2.24,0.74,1.25,3.01,0.76,4.78c-4.06,14.58-11.65,27.25-21.12,38.9
				C876.12,364.45,872.76,368,868.61,370.86z"/>
			<path class="st0" d="M832.87,371.89c-0.25-4.44-0.46-8.29-0.68-12.15c-0.56-9.82-4.96-18.19-10.16-26.18
				c-1.23-1.89-3.17-3.38-5.37-4.32c-1.21-0.52-2.84-1.07-2.04-2.77c0.9-1.91,2.61-0.98,3.9-0.38c4.73,2.19,7.89,6.11,10.13,10.57
				c4.89,9.74,7.82,19.99,6.37,31.08C834.86,369.02,835.01,370.44,832.87,371.89z"/>
			<path class="st0" d="M823.08,353.79c-0.19,0.39-0.32,1.09-0.63,1.18c-1.22,0.36-1.61-0.67-2.22-1.46
				c-3.96-5.09-7.47-10.54-12.12-15.07c-0.36-0.35-0.77-0.7-0.96-1.13c-0.76-1.69-4.78-2.15-3.04-4.13c2.16-2.45,4.01,1,5.63,2.24
				c5.78,4.43,7.74,11.86,12.84,16.89C822.89,352.61,822.9,353.22,823.08,353.79z"/>
			<path class="st0" d="M886.13,320.32c1.37,5.2-2.22,8.78-2.9,12.96c-0.73,4.51-2.9,8.79-4.39,13.18c-0.37,1.09-0.46,2.6-2.04,2.17
				c-1.48-0.4-1.32-2.01-0.82-2.92C880.3,337.85,880.89,328.54,886.13,320.32z"/>
			<path class="st0" d="M970.84,499.02c-4.49,2.93-8.98,2.22-13.47,1.32c-0.88-0.18-1.61-0.72-1.48-1.67
				c0.13-0.93,0.99-1.38,1.86-1.28C962.12,497.89,966.48,498.47,970.84,499.02z"/>
			<path class="st0" d="M893.72,293.58c2.75,5.51-1.26,9.91-1.37,14.87c-0.02,1.02-1.46,1.34-2.12,0.08
				c-0.44-0.84-1.04-2.41-0.69-2.74C892.99,302.42,892.43,297.68,893.72,293.58z"/>
			<path class="st0" d="M868.34,384.46c1.1-5.39,5.3-8.86,8.21-13.13c0.46-0.67,1.48-0.96,2.1-0.05c0.5,0.74,0.33,1.63-0.34,2.26
				c-3.57,3.39-5.67,8.17-10.07,10.78C868.25,384.33,868.34,384.46,868.34,384.46z"/>
			<path class="st0" d="M887.76,359.27c-1.45,3.96-3.89,6.16-5.6,8.79c-0.47,0.73-1.37,1.03-2.16,0.43
				c-0.84-0.64-0.62-1.7-0.05-2.21C882.28,364.17,883.87,361.18,887.76,359.27z"/>
			<path class="st0" d="M893.03,501.63c2.55-2.1,5.23-1.95,8.86-1.07C898.59,503.68,895.8,502.64,893.03,501.63z"/>
			<path class="st0" d="M1072.98,821.07c-1.87,7.4-11.71,14.78-20.69,15.38c-8.61,0.57-16.8-1.97-25.08-3.66
				c-12.22-2.49-22.78-8.95-33.65-14.63c-2.24-1.17-4.24-2.69-5.4-5.01c-0.45-0.91-0.44-2.02,0.36-2.8
				c1.07-1.03,1.64,0.04,2.43,0.63c8.53,6.35,17.74,11.44,27.89,14.75c3.63,1.18,7.23,2.47,10.79,3.84
				c1.91,0.74,3.91,1.42,5.83,1.04c3.78-0.74,7.19,0.32,10.75,1.21c9.02,2.25,16.24-1.06,22.17-7.79c1.29-1.47,2.14-3.55,4.72-2.83
				L1072.98,821.07z"/>
			<path class="st0" d="M964.04,690.52c-19.8-11.48-34.07-29-49.6-45.22c2.67-0.93,4.01,0.65,5.3,1.95
				c10.54,10.57,21.07,21.15,31.5,31.84C955.26,683.2,960.94,685.31,964.04,690.52z"/>
			<path class="st0" d="M1087.88,825.97c-2.4,8.9-9.45,12.57-17.29,15.31c-1.56,0.54-3.19,0.88-4.76,1.38
				c-1.24,0.4-2.69,1.38-3.27-0.58c-0.45-1.54,0.77-2.39,2.13-2.86c2.51-0.86,4.97-2.08,7.55-2.48c7.01-1.08,10.35-7.37,15.77-10.64
				L1087.88,825.97z"/>
			<path class="st0" d="M990.22,721.63c-0.19,0.38-0.31,1.02-0.61,1.13c-1.01,0.35-1.96,0.1-2.61-0.85
				c-4.61-6.73-11.25-11.55-16.65-17.53c-1.43-1.58-3.15-2.9-4.6-4.46c-0.31-0.33-0.29-1.34-0.02-1.78
				c0.43-0.68,1.19-0.36,1.69,0.14c7.3,7.33,14.59,14.68,21.87,22.03C989.63,720.66,989.86,721.11,990.22,721.63z"/>
			<path class="st0" d="M1088.01,826.1c1.62-4.21,5.23-6.88,8.1-10.11c-1.42,4.38-3,8.63-8.23,9.98
				C1087.88,825.97,1088.01,826.1,1088.01,826.1z"/>
			<path class="st0" d="M1073.09,821.2c0.71-4.3,3.89-6.4,7.37-8.23c-1.38,3.73-3.71,6.58-7.49,8.1
				C1072.98,821.07,1073.09,821.2,1073.09,821.2z"/>
			<path class="st0" d="M910.57,796.68c8.68-1.91,9.52-9.5,12.57-15.29c0.66-1.25,0.48-2.84-1.02-3.42
				c-2.27-0.89-3.57-1.83-1.59-4.23c0.44-0.54,0.44-1.39-0.17-1.77c-0.47-0.29-1.4-0.42-1.8-0.15c-2.32,1.57-5.45,6.48-4.38-1.74
				c0.21-1.6-3.81-3.75-6.8-4.01c-3.16-0.28-6.27-0.75-9.19-2.09c-1.17-0.53-2.96-0.65-2.44-2.48c0.54-1.88,2.26-1.64,3.77-1.3
				c3.55,0.8,6.71,2.8,10.46,3.06c5.72,0.39,10.11,4.65,15.68,5.65c2.73,0.49,1.55,3.81,3.43,5.1c4.28,2.95,9.29,5.09,11.47,10.44
				c0.45,1.12,1.88,1.33,3.07,0.66c1.37-0.77,0.78-1.94,0.63-3.08c-0.25-1.89-1.99-2.57-2.86-3.89c-4.19-6.3-9.01-12.19-12.44-18.98
				c-0.47-0.92-1.04-1.6-1.81-2.28c-10.29-9.16-20.53-18.37-30.79-27.56c-1.35-1.21-3.62-2.58-2.34-4.34
				c1.55-2.13,3.79-0.24,5.13,0.94c12.19,10.75,25.17,20.65,34.11,34.71c3.43,5.4,6.93,10.79,10.3,16.24
				c1.08,1.75,2.32,2.88,4.28,2.84c1.91-0.04,2.03-1.94,2.69-3.21c2.42-4.63,4.39-9.51,7.47-13.78c0.56-0.78,1.28-1.79,2.38-0.9
				c0.77,0.63,0.41,1.63-0.14,2.24c-4.94,5.45-5.87,13.06-10.2,18.89c-1.69,2.27-2.96,4.75-5.5,6.25c-0.98,0.58-2.31,1.23-2.64,2.15
				c-2.2,6.18-6.46,7.02-12.36,5.89c-3.9-0.75-8.9-2.14-9.63,4.87c-0.24,2.34-1.85,0.79-2.71-0.22
				C915.42,799.8,914.07,797.22,910.57,796.68z M930.64,794.24c3.61-0.35,6.79-1.56,7.39-5.83c0.31-2.22-4-7.06-6.08-7.18
				c-1.58-0.09-6.33,6.84-6.32,9.36C925.64,793.89,928.06,794.09,930.64,794.24z"/>
			<path class="st0" d="M954.49,748.27c-0.36,0.54-0.53,1.13-0.89,1.3c-1.22,0.54-1.72-0.49-2.35-1.25
				c-4.81-5.69-9.89-11.18-14.41-17.09c-7.81-10.22-17.36-18.74-26.37-27.78c-2.22-2.23-4.38-4.52-6.51-6.83
				c-0.85-0.92-2.32-1.95-0.95-3.33c1.36-1.37,2.63-0.55,3.83,0.65c3.51,3.53,7.2,6.87,10.65,10.46
				c10.19,10.61,21.19,20.52,28.78,33.42c1.73,2.95,4.49,5.29,6.71,7.95C953.59,746.51,953.99,747.42,954.49,748.27z"/>
			<path class="st0" d="M1020.21,869.47c0.82,4.43,2.73,8.86-0.96,12.78c-0.74,0.79-0.99,2.49-2.47,1.75
				c-1.2-0.6-1.1-2.31-0.55-3.14C1018.53,877.38,1018.8,873.27,1020.21,869.47z"/>
			<path class="st0" d="M893.46,774.81c-1.48-0.16-3.64,0.17-3.44-1.31c0.34-2.5,3.03-2.7,5.04-2.8c1.52-0.08,4.23,0.63,3.96,2
				C898.42,775.73,895.17,773.96,893.46,774.81z"/>
			<path class="st0" d="M1065.61,879.23c1.12,0.58,3.41-0.11,3.22,1.96c-0.13,1.36-2.01,1.39-3.31,1.34
				c-1.26-0.06-2.97-0.04-2.94-1.78C1062.6,878.91,1064.26,879.19,1065.61,879.23z"/>
			<path class="st0" d="M952.77,186.35c1.55,0.72,1.5,1.8,1.7,2.73c0.55,2.51,0.86,4.27,3.81,1.33c2.93-2.92,6.71-1.62,9.37,0.72
				c1.8,1.58,2.65,3.45,4.92,0.8c0.82-0.96,2.48-0.02,1.91,0.59c-1.75,1.87-2.49,5.45-6.07,4.84c-5.63-0.97-11.59-0.26-16.84-3.42
				c-1.28-0.77-1.8-1.17-1.14-2.53C951.21,189.81,951.93,188.19,952.77,186.35z"/>
			<path class="st0" d="M960.16,207.99c-3.98-1.86-8.15-1.78-12.23-2.21c-3.07-0.32-4.85-4.91-6.43-8.07
				c-0.58-1.16,0.93-1.48,1.88-0.75c1.03,0.79,1.95,1.75,2.84,2.7c1.89,2,3.38,5.75,6.37,0.85c0.95-1.56,2.45-0.25,3.31,0.66
				c1.66,1.75,3.15,3.66,4.72,5.51C960.46,207.12,960.31,207.55,960.16,207.99z"/>
			<path class="st0" d="M992.71,161.02c4.5,3.63,6.8,7.89,5.07,13.53c-0.25,0.82-0.35,1.77-1.32,1.78c-0.45,0-1.17-0.71-1.31-1.23
				C993.9,170.48,994.33,165.62,992.71,161.02z"/>
			<path class="st0" d="M986.38,149c0.19-1.37-0.26-3.25,1.36-2.94c2.88,0.55,3.48,3.23,3.96,5.72c0.19,1,0.22,2.49-1.01,2.3
				C987.84,153.63,986.85,151.3,986.38,149z"/>
			<path class="st0" d="M988.11,165.23c-1.39-2.98-4.79-4.78-4.68-8.45c0.02-0.83,0.05-1.76,1-2.07c0.34-0.11,1.2,0.23,1.22,0.42
				C985.97,158.64,990.11,161.08,988.11,165.23z"/>
			<path class="st0" d="M967.79,211.79c0.05,0.16,0.11,0.31,0.16,0.47c0.81,2.47,1.56,4.94-1.66,6.32
				c-0.77,0.33-2.11,0.44-2.04-0.46c0.22-2.56,0.17-5.51,3.68-6.21C967.93,211.91,967.79,211.79,967.79,211.79z"/>
			<path class="st0" d="M1002.94,137.85c0.03,2.2-1.4,2.97-3.04,3.42c-1.27,0.35-1.81-0.41-1.83-1.58c-0.03-1.84,0.75-3.22,2.64-3.6
				C1002.09,135.82,1002.85,136.59,1002.94,137.85z"/>
			<path class="st0" d="M933.37,201.7c-1.16,2.29-1.16,4.44,0.9,6.99C928.58,205.88,928.58,205.88,933.37,201.7z"/>
			<path class="st0" d="M956.66,222.65c-1.26,3.33-2.98,3.82-5.16,3.08c-1.01-0.35-1.61-1.22-1.5-2.33c0.1-1.06,0.85-1.45,1.76-1
				C953.14,223.08,954.55,223.33,956.66,222.65z"/>
		</g>
	</g>
</g>
</svg>
