<?xml version="1.0" encoding="utf-8"?>
<!-- Generator: Adobe Illustrator 28.0.0, SVG Export Plug-In . SVG Version: 6.00 Build 0)  -->
<svg version="1.1" id="Layer_1" xmlns="http://www.w3.org/2000/svg" xmlns:xlink="http://www.w3.org/1999/xlink" x="0px" y="0px"
	 viewBox="0 0 1920 1080" style="enable-background:new 0 0 1920 1080;" xml:space="preserve">
<style type="text/css">
	.st0{fill:none;stroke:#231F20;}
</style>
<g>
	<g>
		<g>
			<path d="M1188.06,429.93c-2.28,7.16-8.26,10.35-14.58,12.41c-11.85,3.85-23.94,6.79-36.65,5.46c-12.69-1.33-25.43,0.7-38.17-0.41
				c-7.21-0.63-10.42,3.14-10.01,10.24c0.18,3,0.72,6.14-0.34,8.94c-3.43,9.09-4.04,18.34-2.82,27.92
				c1.77,13.88-3.36,27.47-2.16,41.3c0.93,10.67-1.35,20.46-6.21,29.81c-1.41,2.7-1.55,5.25-0.09,8.07c0.98,1.89,1.77,4.12,1.78,6.2
				c0.04,8.06,5.13,13.07,10.55,17.72c7.3,6.27,12.58,14.17,18.46,21.61c5.35,6.78,10.4,13.82,16.06,20.33
				c6.67,7.68,11.42,16.29,14.63,25.87c1.97,5.88,6.71,10.24,8.86,16.12c1.25,3.42,3.08,6.75,3.67,10.31
				c1.13,6.76,4.18,12.31,9.34,16.61c7.13,5.94,11.52,14.18,17.91,20.76c3.9,4.01,5.41,9.58,6.96,14.82
				c1.59,5.41,4.42,9.85,8.92,12.87c5.9,3.95,8.71,9.89,11.53,15.89c1.01,2.14,2.03,4.24,3.64,5.92
				c10.69,11.19,15.29,25.73,18.29,39.91c1.86,8.81,3.1,17.95,4.89,26.97c1.4,7.05,2.95,13.73,5.64,20.42
				c5.5,13.68,4.84,28.24,2.96,42.38c-2.38,17.9-6.43,35.58-9.56,53.39c-0.89,5.06-1.59,10.26-1.5,15.37
				c0.19,10.24-3.25,19.96-3.75,30.08c-0.41,8.24-2.64,16.43-2.67,24.53c-0.03,8.1,1.47,16.53,4.83,24.27
				c0.94,2.17,2.75,3.31,5.05,3.6c3.96,0.51,7.93,0.98,11.9,1.39c5.96,0.62,8.97,4.1,8.5,9.95c-0.05,0.66-0.22,1.35-0.11,1.99
				c2.16,12.39-3.41,20.73-13.7,26.85c-3.11,1.85-5.77,4.46-8.61,6.76c-4.53,3.67-9.64,4.56-15.41,5.51
				c-5.95,0.97-12.08,2.83-18.15,4.26c-5.3,1.25-10.61,0.68-15.92,0.41c-0.93-0.05-2.24-0.46-2.68-1.14
				c-2.44-3.8-6.22-5.12-10.34-5.6c0.15-1.97,1.39-1.68,2.26-1.68c4.01,0,5.46-2.26,4.82-5.83c-0.58-3.24-0.09-6.06,1.05-9.17
				c3.68-10.08-1.12-15.52-11.79-13.91c-3.15,0.47-6.12,0.95-8.84,2.95c-3.8,2.79-7.91,0.05-10.73-1.49
				c-6.39-3.49-13.01-3.36-19.77-3.91c-32.36-2.65-64.96-0.15-97.23-4.62c-6.7-0.93-13.26-2.26-16.5-9.41
				c-0.87-1.91-2.78-2.18-4.64-2.42c-4.46-0.57-8.91-1.19-13.37-1.8c-0.82-0.11-1.8-0.02-2.44-0.43
				c-9.59-6.29-20.63-5.49-31.23-5.96c-25.64-1.13-51.24-0.39-76.75,3.06c-12.51,1.69-25.33,0.55-37.81,3.01
				c-11.75,2.31-23.52,4.54-35.16,7.33c-6.03,1.45-12.3,0.74-18.24,2.74c-1.89,0.64-3.82,0.97-5.42,2.27
				c-1.37,1.1-2.93,1.63-4.65,0.91c-0.69-0.29-0.92-1.01-0.52-1.66c0.9-1.45,2.18-3.02,3.84-2.89c4.35,0.33,8.01-1.93,12.04-2.66
				c9.65-1.74,19.21-3.86,28.77-5.94c6.13-1.33,12.81-2.02,18.89-3.48c9.2-2.2,18.42-2.56,27.63-3.31
				c33.33-2.72,66.69-5.5,100.15-2.83c7.17,0.57,14.51,1.1,21.19,4.88c4.84,2.74,10.68,2.25,16.08,3.17
				c3.84,0.66,6.77,1.81,8.16,6.11c1.11,3.45,4.69,4.47,8.08,4.97c21.79,3.21,43.77,4.08,65.72,5.43
				c20.75,1.28,41.58,1.01,62.3,3.26c7.69,0.83,15.57-0.57,23.37,0.21c2.12,0.21,2.1-1.3,2.34-2.94
				c2.56-16.78,3.09-33.73,4.21-50.62c0.62-9.39-1.76-18.58-3.38-27.69c-2.03-11.42-3.65-22.96-6.82-34.2
				c-2.65-9.41-4.65-19-6.72-28.56c-1.87-8.63-3.42-17.32-1.99-26.21c0.21-1.3,0.6-2.76-0.95-3.53c-1.61-0.81-2.86-0.07-3.9,1.22
				c-1.46,1.82-3.02,3.56-4.4,5.42c-2.87,3.87-6.24,4.22-9.87,1.32c-3.11-2.48-6.41-4.71-9.12-7.73
				c-9.22-10.28-18.66-20.35-27.83-30.68c-2.86-3.22-5.29-6.86-7.57-10.53c-1.83-2.93-4.07-5.31-7.09-6.82
				c-5.16-2.6-7.42-7.38-6.77-12.34c0.58-4.46-1.44-5.96-4.32-7.69c-0.86-0.51-1.79-0.92-2.6-1.49c-0.95-0.67-2.2-1.56-1.47-2.8
				c0.95-1.61,2.63-0.74,3.43,0.1c3.68,3.87,7.92,6.96,12.7,9.26c11.61,5.58,20.41,14.93,30.62,22.89
				c-4.43,2.09-8.69-0.22-12.96-0.54c-1.55-0.12-3.38-1.61-4.52,0.3c-1.05,1.77,0.54,3.13,1.63,4.33
				c5.96,6.5,11.94,12.98,17.98,19.39c2.73,2.91,5.71,5.58,7.79,9.06c0.94,1.56,2.03,3.07,3.25,4.43c8.33,9.3,11.24,9.4,20.44,1.34
				c7.79-6.82,17.11-11.48,25.43-17.59c7.47-5.49,13.56-12.2,19.24-19.39c1.74-2.21,2.86-4.68,6.47-1.17
				c2.94,2.86,6.52-0.26,9.06-2.46c2.07-1.8,3.04-4.78,6.11-5.61c0.47-0.13,1.14-1.12,1.03-1.54c-1.3-5.33,2.01-11.43-2.77-16.18
				c-3.09-3.08-3.4-6.61-1.57-10.55c1.84-3.97,0.54-7.96-0.76-11.68c-2.74-7.84-5.83-15.57-8.86-23.31
				c-0.66-1.69-1.36-4.37-2.55-4.69c-8.83-2.34-10.21-11.29-13-17.22c-2.86-6.08-6.72-10.21-11.11-14.47
				c-4.89-4.75-5.85-11.49-8.71-17.23c-3.96-7.94-10.58-13.59-15.59-20.59c-1.49-2.08-3.4-4.04-5.07-6.09
				c-1.15-1.42-2.1-3.2-4.38-2.53c-2.57,0.76-2.26,2.96-2.28,4.94c-0.02,2.43-0.01,4.85-0.54,7.29c-2.23-2.91-1.72-6.39-1.33-9.33
				c1.48-11.08-1.56-21.02-6.38-30.71c-4.37-8.77-8.24-17.81-12.91-26.41c-6.15-11.34-15.36-20.46-23.31-30.49
				c-5.27-6.64-9.61-14.04-16.05-19.74c-1.07-0.95-1.91-2.72-3.68-1.54c-1.66,1.11-0.7,2.68-0.22,4.06
				c6.24,17.71,3.52,35.34-0.35,53.12c-1.4-2.78-1.33-2.77-0.83-5.75c2.29-13.62,2.32-27.12-1.79-40.49
				c-1.16-3.79-1.49-7.83-2.23-11.75c-0.28-1.46-0.42-3.18-2.41-3.27c-1.72-0.07-3.02,0.98-3.13,2.64
				c-0.58,8.66-7.4,13.01-12.92,17.83c-7.25,6.31-15.27,11.78-25.04,13.9c-1.9,0.41-4.26,1.08-5.35,2.46
				c-3.51,4.49-8.3,4.4-12.78,3.51c-8.32-1.66-15.76,1.35-23.47,3.18c-0.32,0.08-0.64,0.41-0.92,0.36
				c-7.98-1.46-15.98,1.37-23.93-0.08c-10.44-1.91-20.58-5.36-31.28-5.92c-3.01-0.16-6.16-0.68-8.56-2.45
				c-4.76-3.51-10.92-4-15.59-7.61c-0.87-0.67-2.21-1.08-3.25-0.14c-1.27,1.14-0.77,2.58,0.01,3.62c2,2.66,4.15,5.21,6.32,7.74
				c9.77,11.39,18.32,23.6,25.17,36.98c1.04,2.03,2.12,4.06,1.93,6.54c-2.12-0.12-2.72-1.61-3.45-2.86
				c-8.17-14.11-17.7-27.27-27.78-40.06c-4-5.08-7.43-10.61-9.52-16.83c-0.46-1.37-1.36-2.38-2.57-2.91
				c-4.84-2.13-8.51-5.75-12.23-9.34c-2.14-2.06-4.94-3.56-7.7-2.52c-2.92,1.1-2.05,4.37-1.67,6.67c1.72,10.42,3.33,20.86,6.4,31.03
				c1.69,5.62,1.31,11.77,4.17,17.16c0.43,0.81,0.52,1.96-0.62,2.72c-1.93-0.22-2.04-1.93-2.38-3.28
				c-3.49-13.67-8.25-27.04-10.15-41.1c-0.29-2.13-0.2-4.3-0.31-6.46c-0.06-1.17-0.12-2.45-1.38-2.99
				c-1.46-0.62-1.98,0.74-2.78,1.52c-10.73,10.56-17.06,24.16-21.52,37.79c-3.57,10.9-7.67,21.95-9.63,33.45
				c-0.24,1.38-0.28,3.59-2.25,3.19c-1.87-0.38-1.35-2.51-0.89-3.83c2.63-7.65,4.38-15.62,7.96-22.92c1.24-2.53,1.22-5.15,1.72-7.74
				c0.24-1.21-0.04-2.4-1.46-2.78c-1.09-0.29-2.07,0.14-2.49,1.16c-2.96,7.14-8.42,12.69-12.28,19.32
				c-9.98,17.11-17.22,35.62-27.73,52.42c-6.94,11.09-12.89,22.85-20.48,33.45c-6.26,8.74-14.39,16.19-20.18,25.32
				c-8.34,13.17-18.42,25.3-24.27,39.99c-2.25,5.65-3.06,10.68,1.23,16.27c5.67,7.39,8.14,16.6,12.04,25
				c8.59,18.51,17.25,37.32,35.91,48.52c5.06,3.04,10.86,4.04,16.36,5.84c1.54,0.51,2.78-0.3,4.09-1.23
				c8.71-6.2,15.65-14.01,22.24-22.4c7.83-9.96,18.38-17.23,28.47-24.69c12.12-8.96,21.37-20.11,29.85-32.4
				c5.52-7.99,10.41-16.69,17.77-23.28c5.66-5.07,10.75-11.39,19.74-10.59c3.35,0.3,4.88-3.65,8.21-4.06
				c-3.44,3.64-6.15,8.96-11.63,9.03c-5.24,0.07-8.2,3.23-11.64,5.8c-3.17,2.37-5.46,5.91-8.64,8.26c-4.81,3.55-6.11,9.29-8.98,13.9
				c-10.07,16.2-22.33,29.81-38.12,40.75c-9.45,6.55-19.35,13.21-25.99,23.08c-3.93,5.83-8.12,11.34-13.21,16.19
				c-3.97,3.78-8.13,6.88-14.04,6.41c-3.08-0.25-4.64,1.46-4.87,4.42c-0.14,1.82-0.58,3.77-0.14,5.47
				c1.87,7.28-1.07,13.88-2.91,20.51c-3.46,12.43-8.51,24.35-12.5,36.63c-4.44,13.64-7.1,27.52-8.69,41.61
				c-1.6,14.16-2.21,28.42-3.18,42.65c-0.09,1.29,0.15,2.69,0.61,3.91c3.76,10.06,2.94,19.83-1.39,29.52
				c-1.69,3.79-4.18,6.09-8.39,6.96c-7.65,1.58-15.2,1.16-22.85,0.19c-5.66-0.72-10.01-4.04-13.93-7.38
				c-6.38-5.43-13.42-9.08-21.27-11.62c-4.62-1.49-8.81-3.88-12.54-7.08c-6.64-5.71-10.23-18.42-6.65-27.55
				c0.24,3.83,0.31,6.31,0.57,8.78c0.14,1.33,0.59,2.74,2.2,2.97c1.62,0.23,2.55-0.96,2.9-2.24c0.99-3.61,2.59-7.35-2.15-9.89
				c-3.28-1.75-0.86-3.7,0.67-4.39c6.46-2.92,12.51-6.83,19.99-7.33c6.42-0.42,12.81-1.61,19.15-2.8c4.71-0.89,6.98-4.08,7.06-8.94
				c0.27-15.12,0.71-30.23,0.91-45.34c0.19-13.92-2.48-27.54-4.67-41.2c-0.89-5.55-0.88-11.17-2.89-16.64
				c-1.27-3.46,0.34-7.51,0.2-11.36c-0.47-12.96-3.5-25.86-1.42-38.86c1.69-10.52,1.45-21.16,2.4-31.72c0.27-2.98,1.56-5.4,2.58-8
				c1.94-4.96,0.67-10.29,1.83-15.27c2.28-9.8,6.8-18.6,12.38-26.99c9.39-14.12,18.66-28.29,29.6-41.32
				c12.33-14.69,22.09-31.08,30.42-48.34c7.39-15.29,15.82-30.03,24.32-44.69c4.56-7.86,11.09-14.57,15.91-22.31
				c3.14-5.03,7.57-9.24,9.59-14.98c2.73-7.77,10.09-12.09,14.2-18.88c1.6-2.64,3.58-5.21,6.11-7.21c0.69-0.54,1.32-1.77,1.22-2.59
				c-1.01-8.1,2.53-14.99,5.46-22.11c1.32-3.19,2.16-6.26-3.11-7.45c-5.71-1.29-7.31-6.09-4.08-10.95c2.15-3.23,1.63-6.34,0.38-9.52
				c-2.19-5.58-4.4-11.16-6.85-16.63c-1.87-4.17-2.67-8.17-0.4-12.44c1.51-2.85,0.98-5.26-1.47-7.6c-2.26-2.17-4.02-4.86-6-7.32
				c-1.37-1.7-1.71-3.58-0.99-5.63c3.82-10.93,2.74-21.99,0.77-33.03c-0.97-5.4-2.29-10.74-3.45-16.11
				c-0.07-0.33-0.13-0.65-0.2-0.98c-2.48-11.62-6.53-14.04-16.83-9.06c-5.35,2.59-10.41,2.87-15.92,1.4
				c-4.98-1.33-9.82,0.81-14.78,0.96c-11.18,0.36-22.79,1.23-33.35-0.92c-12.76-2.6-27-3.49-37.16-14.14
				c-4.43-4.65-7.48-8.89-4.63-15.82c3.61-8.78,4.15-18.44,6.49-27.61c0.79-3.1,1.39-6.2,3.35-8.76c4.44-5.79,6.52-12.7,9.01-19.36
				c1.81-4.84-0.18-9.41-2.36-13.77c-3.47-6.94-6.67-13.97-8.16-21.66c-0.6-3.09-0.87-6.25-2.74-9c-0.93-1.38-1.3-3.07,0.25-5.65
				c2.7,4.81,5.9,9.04,6.42,13.96c0.6,5.73,3.45,10.43,5.69,15.28c1.7,3.7,3.32,7.6,5.54,11.1c2.7,4.24,0.69,7.97-1.02,11.78
				c-0.61,1.35-2.12,3.3-1.68,3.98c3.62,5.59-1,8.92-3.39,12.59c-2.66,4.1-3.81,9.02-7.66,12.55c-1.86,1.7-0.21,4.88,0.57,7.13
				c0.83,2.39,2.73,0.74,4.2,0.26c0.8-0.26,1.69-0.51,2.3,0.28c0.71,0.93,0.37,1.97-0.21,2.78c-2.19,3.11-1.53,5.79,0.72,8.61
				c3.35,4.19,2.01,9.32,1.94,14.01c-0.06,3.95,3.21,5.95,4.03,9.26c0.17,0.68,1.47,0.61,2.14-0.11c1.09-1.16,1.04-2.71,0.21-3.7
				c-4.45-5.31-1.7-11.52-2.37-17.29c-0.05-0.39,0.36-0.84,1.64-1.26c0,3.32-0.05,6.63,0.02,9.95c0.03,1.42-0.36,3.34,1.75,3.54
				c1.58,0.15,2.4-1.38,2.53-2.65c0.98-9.5,4.59-18.39,6.29-27.67c0.69-3.75,2.1-6.47,4.46-9.1c0.82-0.91,2.4-2,1.19-3.34
				c-1.07-1.19-2.44,0.1-3.64,0.54c-1.65,0.6-3,4.25-4.52,1.99c-1.29-1.91,2.49-2.33,3.81-3.63c1.53-1.5,4.49-2.59,0.15-4.19
				c-1.23-0.45-2.07-1.24-1.52-2.64c0.46-1.18,1.58-1.11,2.56-0.88c4.28,0.98,6.67,0.95,4.2-4.7c-1.31-3.01,2.25-5.1,4.38-6.51
				c2.5-1.65,4.13-2.88,4.54-6.27c0.55-4.49,5-6.52,8.69-4.79c0.15-0.29,0.48-0.75,0.4-0.85c-4.57-5.38-1.06-7.31,3.57-9.54
				c4.91-2.36,4.7-8.03,6.57-12.34c0.75-1.73,0.08-3.98,2.09-5.65c2.44,11.15-0.75,20.47-7.5,28.93c-3.43,4.3-6.43,8.87-8.06,14.22
				c-0.58,1.92-1.62,3.96,0.57,5.41c2.03,1.35,3.12-0.68,4.67-1.53c4.45-2.42,9.17-4.33,13.73-6.57c5.53-2.72,11.07-5.41,16.45-8.41
				c6.26-3.49,13.6-3.35,19.97-6.1c11.96-5.16,24.42-7.1,37.27-8.01c6.5-0.46,11.89-4.98,18.29-6.46
				c7.97-1.84,15.88-3.75,24.08-4.23c2.68-0.16,5.54-0.48,7.26-2.78c4.4-5.9,5.62-7.19,0.44-12.67c-5.48-5.8-9.36-12.81-10.54-20.96
				c-0.34-2.32-1.52-3.9-3.57-5.08c-4.02-2.32-6.19-6.01-6.77-10.53c-1-7.74-1.9-15.5-2.67-23.26c-0.25-2.53-0.9-5.26,1.21-7.88
				c2.79,2.92,3.43,6.52,3.27,9.78c-0.39,7.61,1.53,14.85,2.82,22.18c0.54,3.04,1.87,6.28,6.01,3.01c1.01-0.8,2.16-1.06,3.21-0.22
				c1.05,0.85,0.65,2.06,0.59,3.24c-0.46,9.62,1.38,18.42,9.25,24.97c2.04,1.7,3.9,3.65,6.07,5.17c4.98,3.48,10.32,1.2,14.62-0.78
				c5.95-2.74,12.79-3.95,18.24-3.81c7.75,0.21,16.26,0.54,23.88,3.82c6.72,2.9,11.06-0.63,11.36-8.01c0.15-3.82-2.9-8.4,1.76-11.76
				c0.91-0.66,0.33-2.25-0.84-2.95c-1.78-1.08-3.44-0.3-4.42,1.07c-1.77,2.48-3.88,4.5-6.35,6.22c-1.36,0.95-2.64,1.57-3.96,0.11
				c-1.42-1.58-0.4-2.77,0.79-3.8c5.06-4.39,9.4-9.71,16.84-10.62c4.72-0.57,8-8.59,5.37-12.4c-1.42-2.06-1.06-3.66,0.91-4.47
				c6.27-2.6,7.28-8.38,8.79-13.89c0.15-0.55-0.02-1.28-0.28-1.82c-0.1-0.2-1.18-0.26-1.28-0.09c-1.36,2.41-5.06,2.96-5.09,6.4
				c-0.03,3.34-2.76,5.18-4.38,7.61c-0.8,1.21-2.27,1.49-3.55,0.6c-1.14-0.79-0.98-2.01-0.52-3.17c2.1-5.26,4.61-10.33,8.72-14.3
				c1.88-1.82,2.4-3.58,2.36-6.13c-0.22-15.04-1.82-29.95-7.82-43.8c-4.84-11.17-13.61-19.01-25.04-23.79
				c-9.39-3.93-19.23-4.1-28.97-3.18c-10.25,0.97-19.25,6.25-26.04,13.48c-4.58,4.87-10.7,8.4-13.79,14.89
				c-1.52,3.2-3.29,6.2-3.36,9.73c-0.19,8.62-2.16,17.68,0.49,25.75c3.59,10.96,2.63,22.32,5.24,33.24
				c0.36,1.51,1.07,3.67-1.39,4.03c-1.96,0.29-2.29-1.74-2.57-3.11c-1.71-8.25-5.12-16.24-3.84-24.97c0.35-2.38-0.23-4.54-3-4.86
				c-2.45-0.28-2.44-1.35-1.32-2.89c2.36-3.25,2.31-7.03,1.94-10.6c-1.83-17.21,4.92-30.73,17.26-42.1
				c11.09-10.21,23.47-17.72,39.04-17.45c18.32,0.32,33.58,7.79,45.21,21.95c3.13,3.81,4.71,8.8,5.55,13.79
				c1,5.91,1.82,11.85,2.67,17.79c0.65,4.53,2.24,8.27,5.55,11.87c5.06,5.51,4.57,12.77,3.96,19.88
				c-0.73,8.51-3.86,16.58-3.64,25.34c0.1,4.25-1.64,8.83-7.55,10.32c-4.87,1.23-5.01,6.99-6.99,10.83c-1.41,2.74-1.99,6-1.83,9.24
				c0.17,3.45-1.09,6.49-2.55,9.53c-1.87,3.9-0.55,6.88,3.52,8.17c1.73,0.55,3.66,1.19,5.37,0.93c11.66-1.84,22.34,2.43,33.28,5.09
				c4.33,1.05,8.08,3.14,11.04,6.46c2.67,2.99,5.99,4.72,9.81,5.61c8.43,1.98,16.86,3.99,25.31,5.89c3.76,0.85,5.46-0.84,4.47-4.67
				c-0.84-3.23-1.65-6.39-1.74-9.78c-0.18-7.04-0.09-7.51,6.03-12.54c1.55,1.37,0.02,2.35-0.48,3.36
				c-3.61,7.33-2.14,14.12,4.21,19.27c0.64,0.52,1.87,1.14,1.8,1.56c-0.96,6.32,5.57,9.05,6.76,14.33c0.69,3.06,2.48,3.9,5,1.53
				c0.87-0.82,1.1-2.8,2.95-1.67c1.33,0.82,2.44,2.16,2.01,3.74c-1.46,5.28,1.94,7,5.8,8.82c11.75,5.55,19.08,14.86,23.93,26.85
				c3.37,8.33,2.94,16.97,4.21,25.46c0.31,2.09-0.25,4.98,3.02,4.51c2.98-0.43,1.64-2.87,1.44-4.82c-0.7-7.03-2.95-14.06-0.11-21.13
				c0.84-2.1-0.35-3.43-1.94-4.62c-0.97-0.73-2.82-1.37-1.74-2.98c0.93-1.39,2.68-0.96,4.16-0.61c1.23,0.29,1.91,2,3.82,1.28
				c0.03-2.3-1.37-4.47-3.02-5.15c-4.73-1.96-6.51-6.99-10.82-9.39c-2.35-1.31-2.58-4.63-5.34-6.54c-2.91-2.02-5.8-3.51-9.02-4.62
				c-3.24-1.12-4.35-2.73-2.13-5.89c1.46-2.07,2.35-4.12-1.72-4.63c-1.72-0.22-1.89-2.34-1.09-3.74c1.11-1.93,2.12-0.33,3.17,0.37
				c2.59,1.72,5.12,3.16,6.07,6.69c0.83,3.08,3.36,3.19,5.1,0.48c1.32-2.05,3.15-4.38,2.48-6.89c-1.34-5.05,0.38-9.52,1.85-14.09
				c0.62-1.93,1.56-4.14,0.38-5.79c-2.27-3.19-4.67-6.56-7.79-8.77c-1.86-1.32-5.07,0.59-7.19,1.74c-1.79,0.97-0.6,3.29,0.21,4.97
				c0.85,1.76,0.89,3.6-0.01,5.31c-1.28,2.43-1.95,4.92-1.65,7.68c0.14,1.31,0.16,3.13-1.47,3.23c-1.55,0.1-1.68-1.8-2.13-3.01
				c-0.6-1.63-0.14-3.28-0.04-4.94c0.29-4.82,0.47-9.65,0.63-14.47c0.09-2.58,1.02-4.01,3.69-2.6c2.82,1.49,4.42,0.2,5.64-2.13
				c0.8-1.53,1.75-2.83,3.47-3.37c1.85-0.58,2.77-1.7,2.38-3.74c-0.29-1.53,0.67-2.5,1.74-3.35c1.72-1.38,3.15-3.03,0.87-4.86
				c-2.2-1.76-4.48-1.12-6.03,1.15c-1.41,2.06-2.52,4.31-3.84,6.44c-0.81,1.31-1.92,2.7-3.61,1.74c-1.86-1.06-0.9-2.64,0.04-3.82
				c2.42-3.03,2.12-6.95,3.49-10.33c0.66-1.63,0.2-3.47-1.68-4.18c-1.89-0.71-3.21,0.52-4.1,2.02c-1.01,1.72-2.06,3.48-2.66,5.36
				c-1.51,4.79-5.6,6.83-9.36,9.24c-1.38,0.89-3.3,0.44-2.78-1.17c1.91-5.91-3.29-8.85-5.5-12.55c-2.98-5-4.8-10.2-4.19-15.38
				c0.74-6.29-4.07-10.27-4.64-15.86c-0.23-2.21-4.23-1.86-5.53,0.55c-1.1,2.04-0.9,4.12,0.07,6.24
				c5.32,11.62,7.69,23.92,8.26,36.63c0.06,1.44,0.11,2.83-1.7,2.99c-2.02,0.18-2.46-1.44-2.71-2.94c-0.82-4.91-0.5-9.89-1.22-14.87
				c-1.11-7.65-3.57-14.87-5.41-22.27c-1.2-4.82,1.1-10.58,5.26-11.97c3.36-1.12,9.38,2.94,10.46,7.43
				c1.08,4.51,2.82,8.92,2.42,13.72c-0.09,1.11,0.01,2.51,0.61,3.37c3.04,4.33,4.35,9.31,5.78,14.27c0.46,1.59,1.11,3.31,3.06,3.59
				c2.17,0.31,2.63-1.56,3.46-2.99c1.25-2.16,2.45-4.37,3.95-6.36c4.67-6.23,8.2-6.32,12.82,0.04c1.73,2.38,4.09,3.48,6.08,5.17
				c4.79,4.04,9.21,8.92,12.42,14.28c2.08,3.48,0.4,8.22-2.01,11.8c-4.86,7.21-7.75,14.91-7.63,23.76
				c0.08,5.69-2.53,11.23-0.81,17.15c0.55,1.9,0.68,3.9,2.02,5.45c4.78,5.54,9.15,11.4,14.2,16.74
				c6.48,6.84,10.75,15.33,13.76,24.09c1.85,5.4-0.86,10.75-5.81,14.32c0.58-1.37,1.14-2.76,1.74-4.12c0.6-1.37,1.52-2.83,0.3-4.18
				c-1.37-1.51-2.32,0.29-3.42,0.73c-0.79,0.31-1.64,0.67-2.29-0.08c-0.72-0.83-0.05-1.55,0.48-2.17c1.34-1.55,2.33-3.27,2.48-5.34
				c0.17-2.3-6.18-11.82-8.31-12.52c-1.03-0.34-2.04-0.2-2.68,0.71c-0.61,0.86,0,1.63,0.6,2.18c5.49,5.03,4.46,10.98,2.25,16.97
				c-0.97,2.64-2.49,5.08-3.69,7.64c-0.43,0.91-0.64,1.99,0.02,2.86c0.78,1.02,1.86,0.61,2.69,0.07
				C1181.13,430.87,1184.83,431.22,1188.06,429.93z M1205.24,900.14c4.01,1.84,17.98-2.14,20.29-5.86c1.26-2.03-0.18-3-1.83-2.77
				c-7,0.97-13.11,3.96-18.36,8.71c-7.38,0.02-12.03,4.98-17.18,9.03C1194.56,907.49,1200.4,904.7,1205.24,900.14z M1012.84,556.66
				c0.66,1.77-0.48,2.52-1.25,3.24c-5.19,4.87-10.13,10.09-15.78,14.37c-4.75,3.59-8.22,8.8-14.11,10.96
				c-2.83,1.04-6.55,1.54-6.65,5.54c-0.04,1.64,7.91,1.88,10.8,0.2c1.27-0.74,2.27-2.16,3.96-1.68c5.47,1.55,11.05,0.5,16.37-0.21
				c5.99-0.8,11.92,0.99,17.78-0.48c1.74-0.43,4.07-0.66,3.96-3.02c-0.1-2.37-2.32-2.41-4.19-2.55c-3.34-0.25-6.62-0.77-9.69-2.22
				c-1.45-0.68-3.7-1.16-2.73-3.33c0.9-2.02,2.66-0.52,3.85,0.07c3.79,1.88,7.86,2.69,11.96,3.4c2.29,0.4,4.63,0.52,6.9,0.99
				c1.48,0.31,2.9,1.05,3.08,2.84c0.17,1.66-1.09,2.35-2.33,2.87c-4.58,1.94-9.05,4.01-13.95,5.31c-9.25,2.47-18.76,2.8-28.12,3.8
				c-8.86,0.95-18.23,2.04-26.19-4.64c-2.86-2.4-7.78-0.59-9.63,2.88c-0.75,1.4-1.61,2.25-3.01,2.04
				c-6.92-1.07-13.99,0.76-20.86-1.06c-11.53-3.05-23.64-4.05-34.34-10.01c-1.45-0.81-3.72-1.95-4.81,0.36
				c-0.94,1.99,0.77,3.4,2.4,4.37c7.6,4.52,15.62,8.09,23.88,11.26c10.57,4.07,21.55,6.81,32.22,10.53c1.33,0.46,3.51,0.28,3.53,2.7
				c-1.87,1.02-3.65,0.22-5.42,0.02c-11.5-1.32-22.28-5.29-32.98-9.33c-10.91-4.12-21.48-9.01-29.4-18.11
				c-0.91-1.05-1.77-2.95-3.55-1.98c-2.01,1.08-0.78,2.97-0.41,4.48c2.04,8.36,7.67,13.99,14.06,19.34
				c10.31,8.61,23.41,12.46,33.95,20.6c0.74,0.57,1.85,0.7,2.81,0.97c10.12,2.85,20.61,3.75,30.88,5.82
				c5.17,1.04,10.12,2.97,15.68,2.57c9.07-0.65,18.17-0.56,26.88-3.77c1.49-0.55,3.32-0.48,4.95-0.32
				c8.57,0.85,16.62-0.19,23.64-5.73c0.88-0.7,2.05-1.14,3.16-1.43c12.8-3.39,22.66-11.01,29.82-21.86
				c2.45-3.72,6.9-6.68,6.42-12.02c-0.29-3.31-0.94-6.58-0.55-9.94c0.15-1.31-0.08-2.85-1.68-3.24c-1.7-0.42-2.67,0.6-3.5,2.08
				c-4.64,8.34-11.81,13.79-20.4,17.54c-0.92,0.4-1.94,1.34-3.16-0.13c0.8-0.54,1.48-0.97,2.12-1.44
				c6.99-5.05,14.59-9.44,18.92-17.4c0.78-1.43,2.24-2.94,0.19-4.29c-1.59-1.05-2.7,0.15-3.76,1.37c-2.65,3.07-6,5.31-9.6,7.04
				c-6.77,3.26-13.27,6.96-19.03,11.78c-4.36,3.65-9.37,5.79-14.72,7.08c-7.59,1.83-15.42,2.78-22.92,4.89
				c-9.52,2.68-19.19,1.28-28.77,1.9c-4.77,0.31-9.54-1.35-13.82-3.79c-1-0.57-2.05-1.48-1.57-2.81c0.55-1.53,1.91-1.04,2.98-0.66
				c11.28,4.05,22.93,3.03,34.49,2.37c10.52-0.6,20.51-4.25,30.78-6.32c7.3-1.47,14.52-5.34,19.48-10.67
				c3.98-4.27,8.52-6.26,13.23-8.75c14.78-7.79,24.35-19.39,23.83-36.79c-0.5-16.87,3.25-33.47,2.26-50.33
				c-0.16-2.73,0.22-5.3-2.57-7c-1.48-0.9-2.09-2.43-0.79-3.8c6.99-7.38,6.32-16.75,7-25.83c0.52-6.95,0.13-14.27,2.25-20.73
				c4.52-13.74,3.26-26.81-1.43-39.99c-0.72-2.03-1.57-4.02-2.23-6.08c-0.3-0.93-0.42-2.1,0.72-2.62c1.18-0.54,1.85,0.45,2.39,1.25
				c0.55,0.82,0.97,1.74,1.36,2.65c3.41,7.85,5.5,15.97,4.96,24.61c-0.52,8.38,2.83,16.84-0.59,25.19
				c-0.46,1.12,0.74,2.15,1.73,1.45c2.54-1.79,5.89-1.63,8.16-4.44c4.22-5.21,9.12-9.88,13.74-14.78c0.31,0.26,0.63,0.52,0.94,0.79
				c-3.05,5.2-6.95,9.79-11.05,14.23c-1,1.08-2.37,2.18-1.51,3.88c0.99,1.96,2.78,1.39,4.41,1c6.32-1.51,12.29-3.83,17.73-7.48
				c2.4-1.61,4.82-3.37,8.46-3.62c-1.55,4.12-5.43,4.32-7.84,6.35c-1.08,0.91-3.03,1.59-2.38,3.39c0.63,1.73,2.47,1.4,3.95,1.13
				c5.95-1.1,11.95-0.76,17.92-0.45c9.2,0.49,16.46-7.7,14.84-16.78c-0.22-1.25,0.24-2.61,0.28-3.92
				c0.17-4.96,1.31-10.13-1.03-14.75c-3.52-6.96-7.51-13.7-11.41-20.46c-2.18-3.78-4.94-7.11-8.66-9.52
				c-0.96-0.62-2.01-1.59-3.14-0.64c-1.23,1.03-1.02,2.58-0.13,3.62c5.82,6.8,4.29,15.46,6.02,23.28c0.35,1.6,0.21,3.25-2.58,4.2
				c1.08-9.94-1.75-18.53-6.28-26.61c-1.24-2.2-1.7-6.51-6.11-3.25c-0.85,0.63-1.45-0.43-1.84-1.15c-0.48-0.88-0.83-1.83-1.35-2.67
				c-4.91-7.89-9.78-15.81-17.72-21.15c-1.16-0.78-2.33-2.6-3.82-1.19c-1.35,1.28,0.44,2.31,1.09,3.34c1.23,1.98,2.55,3.9,3.74,5.91
				c0.69,1.16,2.5,2.57,0.49,3.72c-1.43,0.81-2.08-1-2.87-2.06c-5.57-7.5-12.47-14.53-21.38-16.24c-8.55-1.65-15.6-4.62-22.35-9.75
				c-5.51-4.18-12.44-4.91-19.03-6.68c-11.24-3.01-22.09-3.97-33.16-0.05c-1.3,0.46-2.66,0.48-3.8-0.41
				c-0.31-0.24-0.59-0.98-0.44-1.26c0.79-1.51,2.24-1.09,3.54-0.99c1.21,0.09,2.41,0.12,3-1.19c0.62-1.4,0.19-2.72-0.93-3.6
				c-4.42-3.47-8.44-7.52-14.24-8.92c-13.2-3.2-26.29-2.95-39.31,0.81c-5.47,1.58-10.39,4.49-15.42,7.06
				c-1.61,0.82-3.13,2.29-2.9,4.33c0.25,2.21,2.42,1.93,3.95,2.28c4.21,0.98,8.45,1.87,12.68,2.79c1.42,0.31,3.43,0.24,3.09,2.34
				c-0.27,1.68-2.04,1.36-3.35,1.18c-4.43-0.62-8.9-1.08-13.28-1.98c-18.13-3.7-34.94,1.23-51.54,7.67
				c-1.54,0.6-3.09,1.76-4.62,1.72c-7.58-0.21-14.8,2.24-22.25,2.76c-3.95,0.28-7.45,1.38-10.7,3.65
				c-3.81,2.66-7.61,5.39-12.81,3.95c-1.1-0.3-2.59,0.46-3.79,0.97c-4.28,1.81-8.9,3.17-12.69,5.74
				c-5.32,3.61-13.2,4.99-13.55,13.72c-0.04,0.91-1.26,1.96-2.17,2.61c-2.03,1.45-2.72,3.5-3.67,5.69
				c-2.64,6.07-4.34,12.18-3.53,18.86c0.13,1.07,0.08,2.69-1.43,2.74c-1.51,0.05-1.41-1.57-1.65-2.66
				c-1.19-5.45,0.16-10.57,2.08-15.6c0.76-1.98,2.51-3.98,1.03-6.05c-1.52-2.14-2.83,2.19-4.65,0.62c-0.18-1.02,0.68-1.45,1.06-2.14
				c0.73-1.34,3.16-2.38,1.78-4.11c-1.37-1.71-3.74-0.69-5.03,0.34c-5.03,4-10.79,7.18-15,12.13c-4.82,5.68-5.97,12.73-7.13,19.85
				c-1.71,10.45,0.55,19.69,7.19,27.85c0.81,1,1.49,2.71,3.44,2.19c-4.36-13.05-4.36-13.05-3.08-16.15
				c1.28,0.87,1.27,2.24,1.63,3.46c2.38,8.02,12.3,15.24,20.65,15.65c11.27,0.55,22.05-1.02,32.95-4.2
				c8.4-2.45,15.76-5.79,22.17-11.65c5.4-4.95,10.74-9.93,15.48-15.53c0.73-0.86,1.65-2.26,2.81-1.38c1.46,1.1,0.18,2.39-0.58,3.42
				c-0.6,0.79-1.38,1.45-2.08,2.16c-5.93,6.04-11.87,12.08-17.77,18.14c-0.86,0.88-2.71,1.64-1.7,3.13c0.94,1.4,2.45,0.36,3.57-0.28
				c3.44-1.99,7.02-3.65,9.98-6.52c5.74-5.55,11.96-10.61,17.28-16.62c0.87-0.99,2.1-2.48,3.28-1.41c1.68,1.52-0.31,2.55-1.28,3.54
				c-3.01,3.11-5.87,6.39-9.12,9.23c-5.7,4.99-9.92,11.75-17.45,14.6c-2.43,0.92-2.87,3.15-1,4.77c4.18,3.62,3.92,8.55,4.61,13.26
				c0.51,3.45,0.77,7,1.77,10.31c2.14,7.09,4.38,14.69,2.55,21.57c-3.13,11.76-0.28,20.91,7.69,29.32c1.9,2,2.01,4.71-0.04,6.81
				c-3.56,3.65-2.13,7.32-0.4,11.04c1.19,2.57,2.98,4.95,3.67,7.63c1.45,5.65,5.88,11.1,2.96,17.2c-3.25,6.81,0.12,9.01,5.53,11.24
				c4,1.65,8.19,2.83,12.22,4.39c1.33,0.51,3.27,1.47,2.65,3.09c-0.77,2.01-2.54,0.47-3.84,0.07c-0.95-0.29-1.8-0.93-2.75-1.16
				c-1.89-0.46-4.38-1.46-5.34,0.81c-0.86,2.02,1.45,3.06,3.02,3.93c14.02,7.84,29.54,11.01,45,14.31c1.28,0.27,2.91,0.44,3.26-1.33
				c0.29-1.49-1.13-1.78-2.25-2.15c-3.95-1.3-8.13-2.14-11.77-4.03c-6.01-3.12-11.7-6.87-17.44-10.49c-1.06-0.67-2.18-2.02-1.4-3.4
				c0.93-1.63,2.3-0.59,3.46,0.02c9.79,5.21,19.11,10.95,30.04,14.26c14.34,4.35,27.33,2.4,39.6-4.62
				c7.42-4.25,13.99-10.07,20.47-15.86C1005.53,562.77,1008.18,558.5,1012.84,556.66z M732.46,858.5c0.48,5.54,1.62,9.89,6.66,12.12
				c3.5,1.54,6.87,3.37,10.31,5.04c1.22,0.59,2.6,1.09,3.76,0.1c1.45-1.23,0.66-2.76,0.13-4.14c-1.08-2.8-2.44-5.5-3.28-8.37
				c-2-6.77-5.86-12.69-8.41-19.21c-0.56-1.43-1.61-2.65-3.27-2.79c-1.98-0.16-2.21,1.68-2.95,2.92
				C732.65,848.83,734.57,854.41,732.46,858.5z M1191.74,955.18c2.29,1.94,4.44,0.93,5.88,2.44c3.94,4.15,9.77,3.05,11.31-2.32
				c0.98-3.42,2.94-5.77,5.7-7.71c3.82-2.69,7.23-5.85,10.36-9.3c0.76-0.84,1.53-1.96,0.5-3.1c-0.76-0.84-1.88-0.64-2.81-0.27
				c-0.91,0.36-1.67,1.12-2.58,1.46c-4.19,1.59-7.15,5.82-11.23,6.64c-3.42,0.69-5.52,1.53-6.6,4.67c-0.66,1.92-2.12,2.8-3.83,3.63
				C1196.24,952.39,1194.2,953.75,1191.74,955.18z M1207,979.01c-0.28-2.37-4.52-0.95-3.13-3.73c0.86-1.72,3.02-1.24,4.91-0.44
				c4.35,1.84,7.22-0.93,9.89-3.74c0.63-0.66,1.21-2.29,0.04-2.55c-7.63-1.73-0.96-4.69-0.42-6.69c0.74-2.75,6.34-4.05,4.92-6.54
				c-1.98-3.46-5.81,1.35-8.99,0.43c-0.15-0.04-0.33,0.01-0.49,0.03c-2.7,0.45-4.22,2.43-5.83,4.36c-1.84,2.21,0.9,2.67,1.36,4
				c0.89,2.53-0.72,4.09-2.6,5.29c-1.53,0.98-3.38,1.5-4.79,2.6c-2.37,1.85-2.34,4.23-0.74,6.64
				C1202.88,981.31,1204.84,980.99,1207,979.01z M754.92,1111.02c4.3-0.05,7.98-0.99,11.47-2.66c1.62-0.77,2.72-2,2.26-3.95
				c-0.48-2.07-2.01-2.44-3.85-2.1c-2.87,0.52-5.77,0.22-8.5,2.19c-3.58,2.58-13.57,0.89-16.47-2.39c-2.08-2.36-4.61-3.12-7.57-2.93
				c-1.32,0.09-2.93,0.14-3.41,1.55c-0.55,1.62,1.15,2.17,2.12,2.97C738.08,1109.53,746.83,1109.85,754.92,1111.02z M708.47,1054.44
				c-1.16-0.3-1.64-0.45-2.13-0.54c-1.48-0.26-2.8,0.12-3.12,1.68c-0.18,0.87,0.07,2.1,0.62,2.79c1.21,1.52,2.3,0.49,3.25-0.55
				c1.76-1.91,2.7-0.41,4.02,0.76c6.65,5.91,12.85,12.47,21.44,15.76c1.78,0.68,3.64,1.37,4.8-0.79c1.05-1.95,0.94-3.98-1.16-5.24
				c-1.75-1.06-3.86-1.67-5.71-0.6c-2.31,1.33-3.63,0.35-5.14-1.23c-1.84-1.91-3.94-3.57-5.78-5.48c-1.51-1.57-2.58-3.33,0.31-4.71
				c0.89-0.42,2.06-0.77,1.66-2.05c-0.43-1.41-1.72-1.34-2.92-1.18C715.02,1053.54,711.42,1054.04,708.47,1054.44z M1205.53,908.14
				c9.06,0.17,10.68,1.93,8.61,8.35c-0.34,1.04-2.79,1.79-0.78,3.12c1.34,0.88,3.2,1.25,4.74,0.18c1.23-0.86,2.38-1.74,3.85-2.21
				c1.52-0.49,2.85-1.67,2.39-3.3c-0.55-1.97-2.18-0.45-3.36-0.53c-1.7-0.12-4.1,2.19-3.43-2.97c0.65-5.02,3.68-5.35,6.36-7.04
				c1.38-0.87,3.54-1.11,2.8-3.31c-0.65-1.91-2.65-1.4-3.89-0.78C1217.31,902.4,1210.81,903.12,1205.53,908.14z M1116.74,859.42
				c-0.33-1.44-1.17-2.44-2.21-3.32c-5.43-4.65-12.41-7.18-17.21-12.7c-0.85-0.98-2.15-0.75-3.22-0.06
				c-1.09,0.7-1.47,1.75-1.33,3.01c0.37,3.35,2.54,5.43,5.26,6.84c5,2.58,10.12,4.94,15.21,7.34
				C1114.69,861.21,1116.14,861.48,1116.74,859.42z M1215,930.39c2.88-2.14,5.79-4.31,8.7-6.47c0.79-0.59,1.88-1.15,1.39-2.32
				c-0.56-1.35-1.92-1.23-3.04-0.97c-4.81,1.13-8.87,3.83-12.66,6.78c-2.11,1.64-5.06,4.32,0.6,5.6c1.74,0.39,0.95,1.8,1,2.87
				c0.1,2.03,1.47,2.53,3.12,2.24c2.54-0.43,4.39-2.54,4.99-4.46C1219.98,930.84,1216.19,932.64,1215,930.39z M771.8,1092.36
				c-0.69-3.88-1.39-7.95-2.14-12c-0.32-1.71-0.91-3.53-3.11-2.88c-1.99,0.59-1.95,2.3-1.34,4.1c1.37,4.03,1.4,7.81-2.5,10.63
				c-0.59,0.42-1.15,1.27-0.54,1.57c2.48,1.23,5.02,2.85,7.65,3.07C772.34,1097.07,771.43,1094.2,771.8,1092.36z M1239.47,1094.97
				c-0.12-1.48-1.28-1.7-2.37-0.96c-5.16,3.5-11.04,6.02-15.23,10.83c-1.21,1.39-1.44,3.29,1.16,3.62
				c3.06,0.4,15.34-9.05,16.17-12.25C1239.28,1095.89,1239.34,1095.56,1239.47,1094.97z M1187.9,901.67
				c6.39-4.05,13.77-5.51,20.65-8.27c0.96-0.39,1.19-1.61,0.89-2.63c-0.41-1.35-1.65-1.83-2.78-1.49
				c-7.03,2.09-13.58,5.21-19.53,9.54c-0.69,0.51-1.02,1.38-0.55,2.2C1186.77,901.34,1187.38,901.43,1187.9,901.67z M763.2,986.02
				c2.47-0.2,5.5,0.77,5.73-1.56c0.28-2.79-3.02-2.77-4.92-2.61c-5.59,0.47-10.48-0.43-14.4-4.85c-0.65-0.73-2.13-0.79-3.26-1
				c-0.99-0.18-2.06-0.11-2.49,1.07c-0.47,1.31,0.08,2.54,1.26,2.85C751.46,981.59,756.99,985.74,763.2,986.02z M1196.08,1071.47
				c5.81-0.84,10.19-4.46,14.78-7.65c0.4-0.28,0.62-1.22,0.51-1.76c-0.16-0.74-0.99-0.88-1.62-0.6c-5.06,2.25-10.84,3.07-14.79,7.48
				c-0.4,0.45-0.97,1.1-0.89,1.57C1194.23,1071.55,1195.26,1071.42,1196.08,1071.47z M1193.23,921.28c5.33-0.5,10.49-1.3,14.91-4.38
				c1.11-0.77,1.87-1.99,1.43-3.44c-0.34-1.12-1.61-1.63-2.41-1.18C1202.38,914.98,1196.96,916.7,1193.23,921.28z M1205.4,982.99
				c-2.5-0.64-3.93,1.97-6.18,2.41c-1.09,0.21-2.44,0.82-2.16,2.26c0.27,1.43,1.71,1.34,2.85,1.39c1.52,0.07,3.02-0.2,4.23-1.17
				c2.31-1.85,4.53-3.26,7.59-1.32c1.26,0.8,2.69,0.13,3.28-1.28c0.68-1.62-0.32-2.87-1.45-3.91c-1.1-1.01-2.19-0.78-2.88,0.46
				C1209.38,984.23,1207.52,983.79,1205.4,982.99z M752.39,413c0.03-1.13,0.47-2.47-0.83-3.13c-1.15-0.58-2.09,0.31-2.29,1.24
				c-0.85,3.87-1.68,7.76-2.15,11.68c-0.2,1.69,0.89,3.48,2.86,3.46c2.49-0.03,1.98-2.25,1.99-3.8
				C751.97,419.3,751.64,416.13,752.39,413z M734.34,1092.57c7.54,1.7,15.06,2.28,22.64,0.98
				C749.55,1090.01,741.91,1091.53,734.34,1092.57z M1202.75,924.38c-5.56-0.02-9.59,2.49-13.42,5.46c-0.87,0.68-2.43,1.24-1.9,2.55
				c0.6,1.5,2.29,1.01,3.53,0.82C1196.27,932.38,1199.83,929.1,1202.75,924.38z M1186.27,1099.38c2.14,0.75,4.16,1.49,6.2,2.16
				c2.19,0.73,3.75-0.15,4.02-2.33c0.27-2.24-1.51-2.73-3.32-2.66c-3.79,0.15-7.57,0.87-11.39,0.02c-1.35-0.3-2.92,0.11-2.78,1.92
				c0.13,1.69,1.47,2.72,3.14,2.45C1183.56,1100.72,1184.88,1099.93,1186.27,1099.38z M1188.71,1110.17
				c-0.66-0.06-1.33-0.23-1.98-0.17c-1.66,0.17-3.82,0.41-3.74,2.42c0.08,1.96,2.28,1.53,3.65,1.47c2.85-0.12,5.62,0.18,8.41,0.7
				c1.26,0.24,2.95,0.62,3.49-0.95c0.62-1.78-1.15-2.47-2.26-3.42C1193.74,1108.03,1191.23,1110.6,1188.71,1110.17z M756.19,953.91
				c-0.11-0.32-0.17-0.65-0.31-0.93c-0.95-1.9-10.7-6.36-12.88-5.92c-0.88,0.18-1.63,0.57-1.84,1.45c-0.26,1.1,0.27,2.01,1.3,2.39
				c3.74,1.36,7.49,2.69,11.28,3.92C754.61,955.11,755.77,955.27,756.19,953.91z M748.89,943.83c3.61,1.85,6.59,4.8,10.78,5.19
				c1.61,0.15,3.66,0.5,4.07-1.66c0.36-1.9-1.32-3.1-2.9-3.5C756.94,942.88,752.95,942.6,748.89,943.83z M770.9,971.06
				c5.09,0.72,9.27,2.57,13.21-0.64c0.96-0.78,2.69-1.42,2.06-3.02c-0.67-1.72-2.46-1.48-3.93-1.21
				C778.49,966.88,774.8,967.82,770.9,971.06z M760.34,934.74c2.31-0.17,3.78,0.14,4.6-1.23c0.39-0.65-0.01-1.39-0.71-1.55
				c-5.14-1.17-9.95-3.66-15.33-3.78c-0.55-0.01-1.32,0.35-1.62,0.79c-0.46,0.66,0.22,1.57,0.7,1.55
				C752.96,930.29,756.6,934.31,760.34,934.74z M1212.55,889.01c4.32-2.38,8.9-4.02,12.55-7.19c0.98-0.85-0.18-2.19-1.19-1.81
				c-4.13,1.59-8.79,1.99-12.22,5.17c-0.73,0.68-1.3,1.66-0.74,2.69C1211.21,888.36,1211.92,888.59,1212.55,889.01z M761.4,1005.92
				c0.71-0.13,2.63,0.83,3.58-1.12c0.45-0.93-0.53-1.68-1.28-1.7c-3.73-0.11-6.9-1.57-10.11-3.35c-1.16-0.64-3.22,0.07-4.77,0.52
				c-1.15,0.34-1.31,2.13-0.27,2.1C753.03,1002.22,756.11,1006.38,761.4,1005.92z M740.73,418.68c0.49,1.74,0.01,4.77,2.3,4.82
				c2.88,0.07,1.59-2.98,1.88-4.71c0.42-2.56-0.21-5.33,2.01-7.45c0.97-0.93,0.88-2.3-0.09-3.12c-1.49-1.25-1.89,0.44-2.51,1.26
				C742.28,412.18,741,415.18,740.73,418.68z M1189.4,1085.58c0.69,0.07,1.04,0.19,1.35,0.13c2.18-0.45,6.04,1.66,6.17-1.57
				c0.11-2.75-3.83-2.07-6.21-2.22c-0.16-0.01-0.35-0.03-0.49,0.03c-2.25,0.9-6.54-1.63-6.62,1.96
				C1183.52,1087.23,1187.74,1084.53,1189.4,1085.58z M694.84,1080.79c1.53,4.29,4.38,7.38,8.02,9.73c1,0.64,2.29,0.62,3.24-0.33
				c0.72-0.73,0.56-1.65-0.21-2.14C702.19,1085.72,699.53,1081.88,694.84,1080.79z M1166.94,316.91c-1.54,0.79-3.08,1.76-4.99,1.85
				c-1.65,0.08-2.94,0.7-2.83,2.67c0.11,1.92,1.23,2.99,3.05,3.4c2.33,0.53,7.25-4.05,6.9-6.4
				C1168.89,317.23,1168.26,316.68,1166.94,316.91z M1202.24,1019.97c3.73-1.6,6.51-2.48,8.93-3.95c1.13-0.69,3.67-1.38,2.67-3.41
				c-0.76-1.55-2.7-0.08-4.08-0.24C1204.76,1011.82,1204.24,1015.62,1202.24,1019.97z M1206.68,1034.23
				c1.11-0.32,2.95-0.6,4.55-1.38c1.87-0.92,3.39-3.12,2.76-4.77c-0.89-2.35-3.1-0.33-4.69-0.04c-2,0.37-3.63,1.49-4.79,3.23
				c-0.46,0.69-1.12,1.36-0.67,2.21C1204.28,1034.28,1205.19,1034.28,1206.68,1034.23z M766.79,426.63c0.86,2.7-0.11,6.6,3.89,7.63
				c1.87,0.48,2.54-1.34,2.28-2.95c-0.5-3.16-1.78-6.29-4.68-7.64C766.64,422.9,766.98,425.3,766.79,426.63z M1202.81,1052.39
				c0.49-0.04,0.98-0.1,1.47-0.13c2.31-0.16,3.29-2.69,5.49-3.08c1.15-0.2,2.51-0.61,1.67-2.19c-0.62-1.16-2.04-1.36-3.02-0.66
				c-1.9,1.34-3.94,1.29-6.08,1.36c-1.56,0.05-3.75,0.16-3.46,2.45C1199.12,1052.1,1201.18,1052.15,1202.81,1052.39z
				 M1207.67,1105.84c-3.71,0.02-6.18,1.13-6.05,2.64c0.2,2.34,1.71,3.54,3.99,3.38c2.32-0.16,4.84-0.59,5.05-3.56
				C1210.81,1106.08,1208.93,1105.88,1207.67,1105.84z M1214.45,1036.69c-0.01-0.73-0.31-1.39-1.03-1.5
				c-3.02-0.46-3.69,2.93-6.03,3.79c-1.35,0.49-1.45,2.11-0.78,3.47c0.39,0.79,1.08,1.27,1.99,1.24
				C1210.1,1043.66,1214.57,1038.27,1214.45,1036.69z M1220.55,868.65c-3.18-0.67-5.5,0.03-7.52,1.92c-0.85,0.8-1.86,1.72-1.17,2.96
				c0.76,1.36,2.07,0.71,3.06,0.22C1217.11,872.67,1219.15,871.37,1220.55,868.65z M1201.19,1028.9c2.11-0.68,4.33-1.86,5.37-4.27
				c0.33-0.77-0.97-1.4-1.77-1.1c-2.4,0.9-5.46,1.11-6.22,4.16C1198.29,1028.8,1199.79,1028.99,1201.19,1028.9z M748.2,960.34
				c1.27-0.05,3.16,0.54,3.53-0.86c0.55-2.07-1.79-1.79-2.96-2.42c-0.57-0.31-1.23-0.48-1.86-0.64c-1.53-0.39-3.68-1.5-4.24,0.6
				c-0.65,2.41,1.89,2.56,3.58,3.02C746.88,960.21,747.54,960.24,748.2,960.34z M762.65,1020.06c1.39,0,3.06-0.08,2.83-1.48
				c-0.43-2.64-3.17-2.48-5.1-3.16c-0.93-0.33-2.48-0.03-2.33,1.09C758.41,1019.07,760.8,1019.46,762.65,1020.06z M763.34,1033.64
				c-1.53,0.52-4.1,0.09-4.29,2.31c-0.16,1.85,2.08,1.75,3.48,1.78c1.67,0.04,3.6-0.14,3.76-2.3
				C766.43,1033.6,764.83,1033.57,763.34,1033.64z M775.79,930.86c3.67,2.92,6.27-0.42,8.95,0.67c0.85,0.34,2.71,0.35,2.47-1.36
				c-0.2-1.41-1.84-1.25-2.92-1.08C781.76,929.5,779.27,930.12,775.79,930.86z M1232.73,1064.71c-1.85,0.17-3.64,0.85-3.88,2.94
				c-0.17,1.54,1.41,1.5,2.55,1.5c1.95,0,3.79-0.48,3.95-2.76C1235.44,1064.92,1233.99,1064.8,1232.73,1064.71z M1189.52,1048.42
				c1.57-0.53,3.03-1.4,2.95-3.33c-0.06-1.39-1.37-1.8-2.58-1.65c-1.7,0.2-2.64,1.47-2.77,3.01
				C1187.01,1047.81,1188.11,1048.39,1189.52,1048.42z M752.7,1032.95c-0.49-1.74-2.03-2.01-3.46-2.25
				c-1.28-0.22-2.49,0.27-2.43,1.73c0.07,2,1.8,2.11,3.28,2.2C751.26,1034.7,752.43,1034.51,752.7,1032.95z M1197.28,1013.2
				c2.09-2.1,5.23-0.9,6.93-3.53c0.11-0.18-0.38-1.09-0.67-1.14c-2.93-0.48-4.73,1.42-6.54,3.26
				C1196.94,1011.85,1197.06,1012.08,1197.28,1013.2z M1215.73,1004.52c-2.64-0.33-4.8,0.47-6.27,2.62
				c-0.42,0.62,0.34,1.2,0.99,1.37C1213.84,1009.38,1213.96,1005.92,1215.73,1004.52z M756.22,1089c1.2-0.04,2.81,0.41,3.19-1.29
				c0.34-1.52-1.04-1.88-2.19-1.86c-1.39,0.02-3.34-0.28-3.61,1.57C753.4,1088.83,755.08,1088.79,756.22,1089z M1214.75,1021.12
				c0.18-1.2-0.34-1.97-1.49-2.04c-1.62-0.09-2.85,0.82-3.41,2.24c-0.49,1.23,0.64,1.69,1.6,1.87
				C1213.13,1023.52,1214.22,1022.71,1214.75,1021.12z M745.99,983.58c-1.02,0.18-1.72,0.67-1.56,1.64
				c0.33,1.95,1.75,2.71,3.56,2.71c0.92,0,1.66-0.6,1.11-1.61C748.39,985.05,747.64,983.7,745.99,983.58z M779.38,961.33
				c-0.46-1.57-1.69-1.87-3.06-1.76c-1.2,0.1-2.45,0.59-2.37,1.96c0.1,1.84,1.72,1.64,2.99,1.56
				C778.04,963.02,779.3,962.94,779.38,961.33z M1181.21,935.29c-2.67,0.18-4.8,0.41-5.97,2.46c-0.49,0.85,0.42,1.56,1.29,1.62
				C1179.04,939.55,1180.39,938.14,1181.21,935.29z"/>
			<path d="M1029.68,767.82c0.02,3.44-3.25,3.9-5.14,5.54c-3.72,3.22-3.73,5.25,0.67,7.33c5.58,2.64,11.29,5.09,19.15,1.53
				c-3.94,4.55-2.22,5.97,1.22,7.37c6.02,2.43,12.43,2.15,18.63,3.25c8.17,1.45,16.44,2.32,24.67,3.44
				c0.33,0.04,0.67,0.08,0.98,0.18c1.72,0.53,3.73,0.68,4.38,2.8c0.26,0.86-0.11,1.72-0.96,2.07c-2.24,0.92-3.37-0.7-4.48-2.17
				c-0.99-1.3-2.23-1.92-3.87-1.83c-7.67,0.4-15.25-0.86-22.88-1.27c-1.81-0.1-4.33-1.67-4.97,1.33c-0.5,2.34,1.93,2.71,3.53,3.49
				c13.35,6.51,27.21,11.48,41.89,14.06c1.09,0.19,2.38,0.21,3.12,1.78c-3.75,1.78-7.72,1.19-11.14,0.04
				c-10.49-3.52-21.89-4.5-31.37-10.97c-1.25-0.85-3.2-2.25-4.44-0.5c-1.13,1.59,0.38,3.17,1.73,4.18
				c5.75,4.31,9.14,10.99,15.19,15.03c1.16,0.77,2.75,2.2,1.46,3.67c-1.35,1.53-2.73-0.18-3.8-1.06
				c-7.48-6.11-14.71-12.48-20.73-20.09c-0.61-0.78-1.42-1.61-1.58-2.51c-1.54-8.35-8.4-11.53-14.71-15.17
				c-2.33-1.35-5.11-2.43-7.59-0.89c-2.68,1.67-2.22,4.81-1.6,7.31c1.13,4.5,1.52,9.15,3.29,13.55c2.34,5.81,1.16,8.51-5.08,8.92
				c-7.53,0.49-12.51,4.71-17.7,9.12c-7.53,6.39-14.5,6.42-25.26,0.23c-3.71-2.14-6.65-4.97-8.56-8.81
				c-2.65-5.36-6.76-7.37-12.71-6.1c-4.58,0.98-9.28,0.7-13.94,0.19c-4.8-0.52-8.01-5.31-6.63-9.96c0.28-0.93,0.44-2.07,1.69-2.2
				c0.95-0.09,1.35,0.74,1.87,1.4c5.49,7.07,12.31,9.05,20.98,6.16c5.22-1.74,9.04,1.02,11.5,4.84c3.58,5.54,8.41,9.29,13.88,12.57
				c4.66,2.8,8.98,2.73,13.38-0.43c3.25-2.33,6.46-4.72,9.79-6.91c2.53-1.67,5.27-2.59,8.49-2.27c4.14,0.41,5.73-1.74,4.49-5.84
				c-1.88-6.23-3.22-12.52-3.41-19.07c-0.22-7.46-5.46-10.99-12.89-8.99c0.6-1.93,15.33-12.64,19.57-14.22L1029.68,767.82z"/>
			<path d="M781.98,1099.89c3.85-1.97,8.08-3.17,12.07-3.84c17.92-3.02,35.33-8.44,53.86-8.87c15.73-0.37,31.37-4.11,47.09-6.07
				c11.39-1.41,22.86-2.12,34.36-1.38c4.31,0.28,7.12,1.41,5.38,6.8c-1.25,3.86,1.91,4.41,4.7,4.54c18.95,0.93,37.9,1.96,56.87,2.64
				c14.31,0.51,28.64,0.51,42.95,0.83c3.29,0.08,6.68-0.05,10.11,1.88c-1.97,1.07-3.77,1.41-5.7,1.37
				c-35.11-0.77-70.22-1.52-105.32-2.28c-7.08-0.15-9.04-2.16-8.86-9.18c0.08-3.03-2.16-3.19-4.04-3.19
				c-14.67-0.04-29.22,1.56-43.7,3.79c-8.36,1.29-16.65,3.15-25.18,3.02c-4.47-0.07-8.59,1.76-13.19,1.87
				c-14.44,0.36-28.71,2.47-42.89,5.6C794.51,1098.74,788.48,1101.16,781.98,1099.89z"/>
			<path d="M793.85,783.04c-0.13-0.99-0.32-1.98-0.36-2.97c-0.05-1.32,0.57-2.37,1.93-2.47c1.39-0.11,2.04,0.89,2.2,2.2
				c2.47,19.81,12.49,36.03,24.67,51.12c4.55,5.63,8.05,12.29,14.85,15.91c5.73,3.04,11.58,5.57,18.08,6.43
				c1.79,0.23,4.73-0.44,4.25,2.59c-0.36,2.29-2.87,2.57-4.95,2.03c-13.05-3.37-25.06-8.07-33.37-19.92
				c-7.8-11.12-16.79-21.4-21.52-34.42C797.2,796.84,794.74,790.16,793.85,783.04z"/>
			<path d="M790.13,279.22c0.81,6.64-4.4,12.07-3.67,18.83c0.21,1.97-2.27,2.08-3.79,0.72c-1.61-1.44-3.16-3.02-3.86-5.14
				c-1.14-3.44-4.28-5.11-6.83-6.96c-2.61-1.9-4.72-0.01-5.28,2.98c-0.85,4.53,1.52,8.02,4.03,11.39c0.92,1.23,1.99,2.34,1.19,4
				c-0.6,1.25-1.52,2.23-3,2.34c-1.41,0.1-2.01-0.82-2.41-2.04c-1.2-3.62-3.56-6.67-4.87-10.29c-0.96-2.65-2.81-6.44-6.37-4.34
				c-2.82,1.66-6.08,4.64-3.47,9.07c0.92,1.57,0.44,3.63,1.94,5.04c0.96,0.9,3.1,1.84,1.41,3.45c-1.22,1.17-3.21,0.73-4.67-0.21
				c-1.56-1.01-2.63-2.41-3.14-4.32c-0.44-1.66-1.38-3.13-3.57-2.47c-0.96,0.29-2.04,0.79-2.5-0.54c-0.51-1.48,0.29-2.83,1.56-3.29
				c3.24-1.18,4.81-3.66,6.48-6.47c2.66-4.45,7.25-5.97,11.8-4.16c2.69,1.07,3.65-0.76,4.84-2.23c4.71-5.85,10.41-5.81,15.11,0.21
				c1.19,1.52,1.87,3.96,4.38,3.37c2.43-0.57,1.55-2.99,1.83-4.65c0.33-1.92,0.88-3.56,2.96-4.18L790.13,279.22z"/>
			<path d="M953.41,785.86c-2,0.67-3.8-0.74-6.09-2.54c-3.46-2.72-7.8-4.32-11.69-6.53c-1.65-0.94-4.15-1.97-2.62-4.43
				c1.4-2.24,3.77-1.57,5.8-0.48c6.65,3.59,12.67,7.95,20.53,9.65c12.27,2.65,24.15,3.47,36.26-0.18c5.59-1.68,5.73-1.4,4.93,4.47
				c-0.35,2.61,0.34,4.95,2,6.98c1.88,2.29,4.18,4.28,4.36,7.61c0.07,1.33,1.3,1.78,2.57,1.89c1.19,0.1,2.45,0.29,2.44,1.87
				c-0.01,1.55-1,2.39-2.45,2.71c-1.12,0.25-2.64,0.07-3.33,0.74c-4.91,4.83-4.73,0.26-5.4-2.81c-1.05-4.87-2.11-9.75-3.12-14.63
				c-1.09-5.26-2.04-5.89-7.06-4.23c-9.05,2.99-18.27,3.24-27.57,1.65C960.06,787.12,957.49,785.05,953.41,785.86z"/>
			<path d="M892.3,820.51c-5.55,0.47-11.31,1.21-17.17,1.21c-12.84,0-24.29-4.88-36.08-9.08c-10.94-3.89-18.17-11.75-25.06-20.28
				c-0.96-1.19-2.61-2.89-1.05-4.38c1.81-1.73,3.37,0.08,4.62,1.35c2.79,2.84,4.79,6.41,8.06,8.83
				c19.19,14.27,40.63,20.75,64.54,18.68c0.66-0.06,1.33-0.28,1.98-0.25c1.97,0.1,4.58-0.09,4.39,2.72
				C896.35,821.95,894.07,820.64,892.3,820.51z"/>
			<path d="M796.87,255.81c-0.22-5.53,2.74-9.36,6.64-9.54c3.51-0.17,6.11,2.84,5.58,7.86c-0.69,6.6-1.36,13.4-4.08,19.48
				c-3.56,7.95-2.41,16.36-3.48,24.54c-0.44,3.38,2.46,4.75,4.93,6.23c3.56,2.14,5.75,5.06,4.65,9.51c-0.24,0.98-0.57,2.14-1.7,2.23
				c-1.26,0.1-1.38-1.2-1.75-2.09c-1.22-2.88-1.6-6.5-6.3-2.69c-2.36,1.91-5.06-0.63-4.97-3.5c0.3-9.09-0.29-18.54,2.04-27.15
				c2.02-7.43,2.91-15.29,6.28-22.38c0.42-0.89,0.71-1.89,0.83-2.86c0.19-1.55-0.05-3.07-1.62-3.88c-1.49-0.77-2.5,0.29-3.51,1.17
				C799.44,253.58,798.46,254.43,796.87,255.81z"/>
			<path d="M925.08,761.92c-5.82,0.24-10.09-3.23-14.37-6.26c-7.25-5.14-15.26-9.19-21.28-16.14c-8.89-10.25-14.41-22.15-18.69-34.8
				c-0.58-1.72-1.28-3.41-1.9-5.12c-0.5-1.38-1.48-3.15,0.45-3.85c1.62-0.59,3,1.1,3.22,2.43c0.61,3.7,2.73,6.76,3.8,10.2
				c3.36,10.82,8.52,21.05,16.28,28.82c9.12,9.13,19.32,17.76,32.62,20.9c1.45,0.34,3.35,0.35,3.08,2.42
				C928.08,762.19,926.38,762.02,925.08,761.92z"/>
			<path d="M1056.36,1097.17c8.28,0.4,15.43,0.18,22.41,1.19c14.5,2.09,29.07,2.57,43.66,3.05c10.29,0.34,20.46,2.45,30.85,1.69
				c2.71-0.2,5.61,1.73,8.37,2.83c1.55,0.62,1.54,1.61,0.14,2.51c-1.12,0.72-2.24,1.51-3.7,1c-12.92-4.48-26.53-3.62-39.83-5.11
				c-18.65-2.1-37.35-3.72-56.1-4.56C1060.51,1099.68,1058.83,1099.47,1056.36,1097.17z"/>
			<path d="M919,786.05c-2.97-0.45-5.84-1.11-8.55-2.53c-7.93-4.15-15.86-8.28-23.89-12.24c-7.3-3.6-13.15-8.93-18.52-14.88
				c-1.06-1.17-2.61-2.74-1.03-4.31c1.41-1.4,2.84,0.06,3.81,1.09c13.24,14.08,31.31,20.13,47.77,28.85
				c1.26,0.67,3.24,0.84,3.17,2.71C921.7,786.3,920.15,786.06,919,786.05z"/>
			<path d="M751.48,828.79c1.32,0.18,1.58,1.04,1.8,1.81c3.71,12.89,11.47,23.35,19.85,33.5c3.27,3.96,6.32,8.07,10.04,11.65
				c0.84,0.8,2.39,2.08,0.99,3.3c-1.24,1.09-2.55-0.35-3.38-1.22c-5.7-6-11.31-12.08-16.93-18.17c-5.98-6.48-9.38-14.43-12.34-22.54
				C750.58,834.58,749.48,831.52,751.48,828.79z"/>
			<path d="M996.8,238.52c0.89-4.2,4.56-5.52,6.79-8.05c0.58-0.65,1.51-0.59,2.33-0.24c1.38,0.6,2.82,2.87,4.23,0.9
				c1.57-2.19,4.53-3.68,4.29-6.95c-0.07-1-0.32-1.97,0.27-2.87c0.8-1.24,1.52-2.87,3.24-2.71c2.2,0.21,1.55,2.06,1.61,3.49
				c0.16,3.75-0.01,7.07-4.09,9.2c-2.85,1.49-3.65,5.39-6.79,6.99c-1.02,0.52-0.31,1.8,0.46,2.52c1.62,1.52,2.09,3.51,0.13,4.58
				c-2.35,1.28-4.61,3.55-7.54,2.99c-1.71-0.32-1.18-1.94-0.61-3.28C1003.77,238.7,1003.75,238.69,996.8,238.52z"/>
			<path d="M840.03,875.39c-16.33,0.67-29.07-7.02-40.6-17.5c-0.73-0.67-1.37-1.46-1.94-2.27c-0.58-0.84-1.03-1.89-0.27-2.76
				c1.14-1.31,2.09-0.16,2.96,0.51c2.23,1.74,4.46,3.48,6.63,5.3c10.32,8.67,22.42,12.64,35.66,13.75c1.62,0.13,4.43-0.81,4.33,1.78
				c-0.07,1.83-2.74,1-4.28,1.18C841.7,875.46,840.86,875.39,840.03,875.39z"/>
			<path d="M1055.68,670.77c9.29-17.06,13.76-35.68,16.94-54.74c0.81,0.27,1.62,0.54,2.43,0.81
				C1073.76,636.53,1066.98,654.43,1055.68,670.77z"/>
			<path d="M1187.05,870.24c-9.13,14.18-26.78,14.65-38.72,24.31C1158.72,882.4,1175.35,880.27,1187.05,870.24z"/>
			<path d="M805.33,899.33c-5.66-1.34-11.53-2.59-16.53-6.19c-1.2-0.87-2.74-1.83-1.72-3.6c1.08-1.88,2.89-1.35,4.43-0.62
				c2.69,1.29,5.36,2.63,7.94,4.13c3.73,2.16,7.5,3.47,11.89,2.2c1.36-0.39,3.51-0.42,3.72,1.4c0.19,1.65-1.86,1.48-3.1,1.69
				C809.83,898.71,807.69,898.98,805.33,899.33z"/>
			<path d="M991.18,233.89c-2.53-0.17-3.57-1.53-2.6-3.95c1.45-3.64,3.89-6.45,7.44-8.29c3.45-1.79,4.94,1.36,6.4,3.03
				c1.56,1.77-0.58,3.17-2.17,4.08C997.26,230.47,994.69,232.92,991.18,233.89z"/>
			<path d="M1078.01,716.43c-3.55,15.24-10.12,28.9-21.05,40.29C1064.99,743.82,1073.52,731.18,1078.01,716.43z"/>
			<path d="M962.64,251.03c-5.75,0.37-9.28,3.28-11.97,7.68c-0.65,1.07-1.97,1.75-3.04,2.52c-0.67,0.48-1.47,0.9-2.24,0.17
				c-0.7-0.66-0.72-1.65-0.26-2.3c3.37-4.73,6.93-9.52,11.84-12.55C960.28,244.51,960.14,249.92,962.64,251.03z"/>
			<path d="M960.2,258.11c0.82,1.72,0.16,2.61-0.53,3.6c-3.01,4.32-7.71,7.24-9.95,12.27c-0.51,1.14-2.42,2.65-3.67,1.91
				c-1.79-1.08-0.2-2.73,0.62-3.78c1.84-2.37,3.15-4.82,4.09-7.77C952.06,260.24,956.64,259.97,960.2,258.11z"/>
			<path d="M1149.51,753.72c-1.11,5.39-3.17,10.46-5.43,15.44c-0.51,1.11-1.48,1.86-2.83,1.34c-1.1-0.42-1.52-1.5-1.22-2.45
				c1.82-5.68,4.01-11.21,7.07-16.36c0.34-0.58,0.95-1.04,1.66-0.65C1149.85,751.65,1149.53,752.75,1149.51,753.72z"/>
			<path d="M973.6,286.98c-0.34-2.54-0.2-3.89,0.68-4.96c1.44-1.75,2.89-4.63,5.25-3.8c2.42,0.85,1.31,3.79,0.76,5.77
				c-0.68,2.49,0.31,5.46-2,7.47c-0.94,0.82-1.57,2.42-3.2,1.8c-1.31-0.5-1.17-1.88-1.29-3.01
				C973.66,288.77,973.62,287.28,973.6,286.98z"/>
			<path d="M1017.12,209.41c-0.17,0.33-0.36,1.01-0.79,1.45c-0.74,0.74-1.5,0.4-2.12-0.3c-2.6-2.93-4.95-0.81-6.74,0.82
				c-0.92,0.84-0.92,2.34-2.72,1.32c-1.31-0.74-1.96-1.76-1.92-3.22c0.06-2.03,5.32-6.51,7.53-6.45
				C1012.4,203.09,1017,207.23,1017.12,209.41z"/>
			<path d="M995.43,248.28c0.87,0.05,1.62,0.31,2.02,1.16c0.4,0.86,0.17,1.64-0.46,2.25c-2.01,1.95-4.05,3.87-6.1,5.78
				c-0.9,0.83-1.99,1.41-3.14,0.69c-1.15-0.73-0.92-2.03-0.75-3.17C987.38,252.41,992.62,248.25,995.43,248.28z"/>
			<path d="M997.95,282.97c-3.07-1.82-4.01-4.73-2.54-7.66c1.58-3.14,4.9-4.82,7.98-6.41c0.86-0.45,1.4,0.65,1.17,1.57
				c-0.48,1.94-0.93,4.07-2.8,5.09c-3.09,1.69-3.64,4.5-3.94,7.54L997.95,282.97z"/>
			<path d="M760.52,385.24c-0.68,2.48-1.8,5.11-4.49,5.32c-2.35,0.19-4.91-2.32-4.78-4.16c0.21-2.97,3.7-4.17,6.18-4.95
				C759.48,380.8,760,383.42,760.52,385.24z"/>
			<path d="M1054.05,673.94c-3.86,9.68-9.69,18.07-16.87,25.55C1042.57,690.82,1049.29,683.03,1054.05,673.94z"/>
			<path d="M940.64,239.79c-1.88-0.33-1.66-1.51-0.64-2.74c2.53-3.06,5.22-5.97,8.92-7.7c1.2-0.56,2.36-1,2.38,0.97
				C951.32,231.99,942.57,239.82,940.64,239.79z"/>
			<path d="M1017.24,247.48c-1.31,2.96-2.68,5.84-5.15,7.94c-1.08,0.92-2.49,2.41-3.84,0.85c-1.1-1.27-1.17-3.66,0-4.62
				c2.29-1.87,4.78-3.46,6.92-5.59C1016.33,244.92,1017.22,246.04,1017.24,247.48z"/>
			<path d="M790.23,279.35c-0.82-7.28,4.12-13.21,4.78-20.14c-0.89,6.84,0.17,14.16-4.89,20.01
				C790.13,279.22,790.23,279.35,790.23,279.35z"/>
			<path d="M970.69,263.68c-1.63-0.09-2.61-0.56-2.74-1.98c-0.15-1.67,4.47-6.41,6.24-6.46c1.51-0.04,2.39,0.97,1.96,2.14
				C975.12,260.2,972.43,261.7,970.69,263.68z"/>
			<path d="M983.09,267.05c2.01,0.41,1.67,2.04,2.15,3.15c1.17,2.68-0.94,3.41-2.63,4.4c-1.04,0.61-2.21,1.15-3.15,0.1
				c-1.69-1.9,0.44-2.88,1.23-4.14C981.46,269.33,982.32,268.16,983.09,267.05z"/>
			<path d="M1053.43,760.29c-2.62,5.08-7.17,8.45-11.15,12.4c-0.4-0.4-0.8-0.8-1.2-1.2C1045.2,767.76,1049.32,764.02,1053.43,760.29
				z"/>
			<path d="M979.96,295.77c1.75,0.21,2.64,1.07,2.25,2.68c-0.55,2.3-2.09,3.75-4.46,4.03c-1.08,0.13-2.06-0.5-1.72-1.77
				C976.63,298.49,977.21,296.13,979.96,295.77z"/>
			<path d="M1211.36,856.84c2.17-3.99,4.34-7.97,6.5-11.96c0.41,0.22,0.82,0.44,1.23,0.66c-1.02,4.6-3.5,8.42-6.47,11.98
				C1212.21,857.29,1211.79,857.07,1211.36,856.84z"/>
			<path d="M944.98,790.7c0.5,2.07-0.3,3.6-0.78,5.12c-0.48,1.52-1.49,2.84-3.32,1.85c-1.92-1.03-1.12-2.54-0.15-3.76
				C941.74,792.63,942.89,791.43,944.98,790.7z"/>
			<path d="M761.08,335.14c-0.5-1.92-0.98-3.3-1.19-4.72c-0.23-1.56-0.68-3.76,1.64-3.78c2.21-0.02,2.08,2.27,1.88,3.79
				C763.2,332.01,763.74,334.12,761.08,335.14z"/>
			<path d="M1005.6,193.99c-3.17-1.54-6.21-0.51-6.97-3.81c-0.24-1.02,0.41-2.06,1.53-2.17
				C1003.59,187.65,1003.8,190.62,1005.6,193.99z"/>
			<path d="M1029.81,767.92c2.79-2.7,5.58-5.4,8.37-8.11c0.33,0.38,0.67,0.76,1,1.14c-2.82,2.69-5.13,5.98-9.48,6.87
				C1029.68,767.82,1029.81,767.92,1029.81,767.92z"/>
			<path d="M868.05,686.6c1.46,0.18,1.73,1.31,1.77,2.51c0.03,1.12,0.17,2.73-1.35,2.7c-1.56-0.03-1.88-1.65-1.97-3.01
				C866.43,687.75,866.74,686.83,868.05,686.6z"/>
			<path d="M997.82,283.1c0.65-0.02,1.31-0.11,1.96-0.04c1.4,0.13,2.43-2.6,3.78-0.83c0.88,1.15-0.35,2.54-1.48,3.23
				c-2.29,1.4-3.23-0.17-3.94-2.04c-0.06-0.15-0.12-0.3-0.19-0.45C997.95,282.97,997.82,283.1,997.82,283.1z"/>
			<path d="M1069.29,595.84c-2.74,4.49-5.57,9.13-10.2,11.55c-9.6,5-18.39,11.7-30.19,12.02c-6.98,0.19-13.5,4.26-20.49,5.84
				c-6.14,1.39-12.15,1.53-18.3,0.9c-1.73-0.18-3.17-0.97-4.53-1.95c-0.94-0.69-2.08-1.51-1.27-2.83c0.68-1.11,1.7-0.31,2.64-0.01
				c9.36,2.97,18.79,2.52,27.87-0.71c7.41-2.64,14.94-4.23,22.6-5.83c8.26-1.73,15.51-6.5,22.37-11.49
				C1063.04,600.97,1066.29,598.6,1069.29,595.84z"/>
			<path d="M967.49,495.63c-3.87,8.34-10.73,14.15-17.3,20.07c-6.16,5.54-13.04,10.28-19.58,15.39c-4.39,3.43-9.49,5.47-14.58,7.52
				c-1.55,0.62-3.62,1.08-4.28-1c-0.8-2.53,1.59-2.28,3.09-2.71c10.88-3.07,19.33-10.14,27.71-17.19
				C951.05,510.57,959.2,503.01,967.49,495.63z"/>
			<path d="M899.8,528.72c-3-1.17-6.41-2.44-9.74-3.85c-0.95-0.4-1.49-1.39-0.93-2.49c0.68-1.33,1.9-1.14,3.06-0.87
				c2.89,0.67,5.46,2.21,8.61,2.31c9.06,0.28,15.04-5.45,21.51-10.36c4.24-3.21,8.47-6.43,12.76-9.56c1.2-0.88,2.96-1.9,3.95-0.25
				c1.17,1.95-0.93,2.28-2.23,2.93c-7.36,3.69-12.83,9.86-19.15,14.9C912.43,525.65,906.42,527.09,899.8,528.72z"/>
			<path d="M915.02,408.58c-3.55,5.76-7.82,10.07-12.17,14.33c-6.4,6.27-12.73,12.61-19.29,18.71c-2.52,2.35-5.56,4.15-8.41,6.11
				c-0.69,0.48-1.72,0.52-2.19-0.36c-0.46-0.87,0.17-1.53,0.9-2.04c14.21-9.78,25.9-22.25,37.34-34.98
				C911.94,409.52,912.59,408.43,915.02,408.58z"/>
			<path d="M779.55,414.51c1.01-10.39,4.12-19.99,10.09-28.58c1.08,3.93-1.62,6.76-2.75,9.96c-1.13,3.19-2.11,6.26-2,9.61
				C785.02,409.47,783.41,412.5,779.55,414.51z"/>
			<path d="M1079.31,397.77c-2.76-6.32-5.53-12.63-8.25-18.97c-0.39-0.92-0.54-2.09,0.76-2.46c1.17-0.33,2.1,0.62,2.22,1.52
				c0.99,6.89,5.33,12.7,6.52,19.51C1080.15,397.5,1079.73,397.64,1079.31,397.77z"/>
			<path d="M1081.74,404.53c1.57,2.24,2.19,4.55,1.21,7.89C1081.18,409.44,1080.81,407.07,1081.74,404.53z"/>
		</g>
	</g>
	<g>
		<g>
			<path class="st0" d="M1188.06,429.93c-2.28,7.16-8.26,10.35-14.58,12.41c-11.85,3.85-23.94,6.79-36.65,5.46
				c-12.69-1.33-25.43,0.7-38.17-0.41c-7.21-0.63-10.42,3.14-10.01,10.24c0.18,3,0.72,6.14-0.34,8.94
				c-3.43,9.09-4.04,18.34-2.82,27.92c1.77,13.88-3.36,27.47-2.16,41.3c0.93,10.67-1.35,20.46-6.21,29.81
				c-1.41,2.7-1.55,5.25-0.09,8.07c0.98,1.89,1.77,4.12,1.78,6.2c0.04,8.06,5.13,13.07,10.55,17.72
				c7.3,6.27,12.58,14.17,18.46,21.61c5.35,6.78,10.4,13.82,16.06,20.33c6.67,7.68,11.42,16.29,14.63,25.87
				c1.97,5.88,6.71,10.24,8.86,16.12c1.25,3.42,3.08,6.75,3.67,10.31c1.13,6.76,4.18,12.31,9.34,16.61
				c7.13,5.94,11.52,14.18,17.91,20.76c3.9,4.01,5.41,9.58,6.96,14.82c1.59,5.41,4.42,9.85,8.92,12.87
				c5.9,3.95,8.71,9.89,11.53,15.89c1.01,2.14,2.03,4.24,3.64,5.92c10.69,11.19,15.29,25.73,18.29,39.91
				c1.86,8.81,3.1,17.95,4.89,26.97c1.4,7.05,2.95,13.73,5.64,20.42c5.5,13.68,4.84,28.24,2.96,42.38
				c-2.38,17.9-6.43,35.58-9.56,53.39c-0.89,5.06-1.59,10.26-1.5,15.37c0.19,10.24-3.25,19.96-3.75,30.08
				c-0.41,8.24-2.64,16.43-2.67,24.53c-0.03,8.1,1.47,16.53,4.83,24.27c0.94,2.17,2.75,3.31,5.05,3.6c3.96,0.51,7.93,0.98,11.9,1.39
				c5.96,0.62,8.97,4.1,8.5,9.95c-0.05,0.66-0.22,1.35-0.11,1.99c2.16,12.39-3.41,20.73-13.7,26.85c-3.11,1.85-5.77,4.46-8.61,6.76
				c-4.53,3.67-9.64,4.56-15.41,5.51c-5.95,0.97-12.08,2.83-18.15,4.26c-5.3,1.25-10.61,0.68-15.92,0.41
				c-0.93-0.05-2.24-0.46-2.68-1.14c-2.44-3.8-6.22-5.12-10.34-5.6c0.15-1.97,1.39-1.68,2.26-1.68c4.01,0,5.46-2.26,4.82-5.83
				c-0.58-3.24-0.09-6.06,1.05-9.17c3.68-10.08-1.12-15.52-11.79-13.91c-3.15,0.47-6.12,0.95-8.84,2.95
				c-3.8,2.79-7.91,0.05-10.73-1.49c-6.39-3.49-13.01-3.36-19.77-3.91c-32.36-2.65-64.96-0.15-97.23-4.62
				c-6.7-0.93-13.26-2.26-16.5-9.41c-0.87-1.91-2.78-2.18-4.64-2.42c-4.46-0.57-8.91-1.19-13.37-1.8c-0.82-0.11-1.8-0.02-2.44-0.43
				c-9.59-6.29-20.63-5.49-31.23-5.96c-25.64-1.13-51.24-0.39-76.75,3.06c-12.51,1.69-25.33,0.55-37.81,3.01
				c-11.75,2.31-23.52,4.54-35.16,7.33c-6.03,1.45-12.3,0.74-18.24,2.74c-1.89,0.64-3.82,0.97-5.42,2.27
				c-1.37,1.1-2.93,1.63-4.65,0.91c-0.69-0.29-0.92-1.01-0.52-1.66c0.9-1.45,2.18-3.02,3.84-2.89c4.35,0.33,8.01-1.93,12.04-2.66
				c9.65-1.74,19.21-3.86,28.77-5.94c6.13-1.33,12.81-2.02,18.89-3.48c9.2-2.2,18.42-2.56,27.63-3.31
				c33.33-2.72,66.69-5.5,100.15-2.83c7.17,0.57,14.51,1.1,21.19,4.88c4.84,2.74,10.68,2.25,16.08,3.17
				c3.84,0.66,6.77,1.81,8.16,6.11c1.11,3.45,4.69,4.47,8.08,4.97c21.79,3.21,43.77,4.08,65.72,5.43
				c20.75,1.28,41.58,1.01,62.3,3.26c7.69,0.83,15.57-0.57,23.37,0.21c2.12,0.21,2.1-1.3,2.34-2.94
				c2.56-16.78,3.09-33.73,4.21-50.62c0.62-9.39-1.76-18.58-3.38-27.69c-2.03-11.42-3.65-22.96-6.82-34.2
				c-2.65-9.41-4.65-19-6.72-28.56c-1.87-8.63-3.42-17.32-1.99-26.21c0.21-1.3,0.6-2.76-0.95-3.53c-1.61-0.81-2.86-0.07-3.9,1.22
				c-1.46,1.82-3.02,3.56-4.4,5.42c-2.87,3.87-6.24,4.22-9.87,1.32c-3.11-2.48-6.41-4.71-9.12-7.73
				c-9.22-10.28-18.66-20.35-27.83-30.68c-2.86-3.22-5.29-6.86-7.57-10.53c-1.83-2.93-4.07-5.31-7.09-6.82
				c-5.16-2.6-7.42-7.38-6.77-12.34c0.58-4.46-1.44-5.96-4.32-7.69c-0.86-0.51-1.79-0.92-2.6-1.49c-0.95-0.67-2.2-1.56-1.47-2.8
				c0.95-1.61,2.63-0.74,3.43,0.1c3.68,3.87,7.92,6.96,12.7,9.26c11.61,5.58,20.41,14.93,30.62,22.89
				c-4.43,2.09-8.69-0.22-12.96-0.54c-1.55-0.12-3.38-1.61-4.52,0.3c-1.05,1.77,0.54,3.13,1.63,4.33
				c5.96,6.5,11.94,12.98,17.98,19.39c2.73,2.91,5.71,5.58,7.79,9.06c0.94,1.56,2.03,3.07,3.25,4.43c8.33,9.3,11.24,9.4,20.44,1.34
				c7.79-6.82,17.11-11.48,25.43-17.59c7.47-5.49,13.56-12.2,19.24-19.39c1.74-2.21,2.86-4.68,6.47-1.17
				c2.94,2.86,6.52-0.26,9.06-2.46c2.07-1.8,3.04-4.78,6.11-5.61c0.47-0.13,1.14-1.12,1.03-1.54c-1.3-5.33,2.01-11.43-2.77-16.18
				c-3.09-3.08-3.4-6.61-1.57-10.55c1.84-3.97,0.54-7.96-0.76-11.68c-2.74-7.84-5.83-15.57-8.86-23.31
				c-0.66-1.69-1.36-4.37-2.55-4.69c-8.83-2.34-10.21-11.29-13-17.22c-2.86-6.08-6.72-10.21-11.11-14.47
				c-4.89-4.75-5.85-11.49-8.71-17.23c-3.96-7.94-10.58-13.59-15.59-20.59c-1.49-2.08-3.4-4.04-5.07-6.09
				c-1.15-1.42-2.1-3.2-4.38-2.53c-2.57,0.76-2.26,2.96-2.28,4.94c-0.02,2.43-0.01,4.85-0.54,7.29c-2.23-2.91-1.72-6.39-1.33-9.33
				c1.48-11.08-1.56-21.02-6.38-30.71c-4.37-8.77-8.24-17.81-12.91-26.41c-6.15-11.34-15.36-20.46-23.31-30.49
				c-5.27-6.64-9.61-14.04-16.05-19.74c-1.07-0.95-1.91-2.72-3.68-1.54c-1.66,1.11-0.7,2.68-0.22,4.06
				c6.24,17.71,3.52,35.34-0.35,53.12c-1.4-2.78-1.33-2.77-0.83-5.75c2.29-13.62,2.32-27.12-1.79-40.49
				c-1.16-3.79-1.49-7.83-2.23-11.75c-0.28-1.46-0.42-3.18-2.41-3.27c-1.72-0.07-3.02,0.98-3.13,2.64
				c-0.58,8.66-7.4,13.01-12.92,17.83c-7.25,6.31-15.27,11.78-25.04,13.9c-1.9,0.41-4.26,1.08-5.35,2.46
				c-3.51,4.49-8.3,4.4-12.78,3.51c-8.32-1.66-15.76,1.35-23.47,3.18c-0.32,0.08-0.64,0.41-0.92,0.36
				c-7.98-1.46-15.98,1.37-23.93-0.08c-10.44-1.91-20.58-5.36-31.28-5.92c-3.01-0.16-6.16-0.68-8.56-2.45
				c-4.76-3.51-10.92-4-15.59-7.61c-0.87-0.67-2.21-1.08-3.25-0.14c-1.27,1.14-0.77,2.58,0.01,3.62c2,2.66,4.15,5.21,6.32,7.74
				c9.77,11.39,18.32,23.6,25.17,36.98c1.04,2.03,2.12,4.06,1.93,6.54c-2.12-0.12-2.72-1.61-3.45-2.86
				c-8.17-14.11-17.7-27.27-27.78-40.06c-4-5.08-7.43-10.61-9.52-16.83c-0.46-1.37-1.36-2.38-2.57-2.91
				c-4.84-2.13-8.51-5.75-12.23-9.34c-2.14-2.06-4.94-3.56-7.7-2.52c-2.92,1.1-2.05,4.37-1.67,6.67c1.72,10.42,3.33,20.86,6.4,31.03
				c1.69,5.62,1.31,11.77,4.17,17.16c0.43,0.81,0.52,1.96-0.62,2.72c-1.93-0.22-2.04-1.93-2.38-3.28
				c-3.49-13.67-8.25-27.04-10.15-41.1c-0.29-2.13-0.2-4.3-0.31-6.46c-0.06-1.17-0.12-2.45-1.38-2.99
				c-1.46-0.62-1.98,0.74-2.78,1.52c-10.73,10.56-17.06,24.16-21.52,37.79c-3.57,10.9-7.67,21.95-9.63,33.45
				c-0.24,1.38-0.28,3.59-2.25,3.19c-1.87-0.38-1.35-2.51-0.89-3.83c2.63-7.65,4.38-15.62,7.96-22.92c1.24-2.53,1.22-5.15,1.72-7.74
				c0.24-1.21-0.04-2.4-1.46-2.78c-1.09-0.29-2.07,0.14-2.49,1.16c-2.96,7.14-8.42,12.69-12.28,19.32
				c-9.98,17.11-17.22,35.62-27.73,52.42c-6.94,11.09-12.89,22.85-20.48,33.45c-6.26,8.74-14.39,16.19-20.18,25.32
				c-8.34,13.17-18.42,25.3-24.27,39.99c-2.25,5.65-3.06,10.68,1.23,16.27c5.67,7.39,8.14,16.6,12.04,25
				c8.59,18.51,17.25,37.32,35.91,48.52c5.06,3.04,10.86,4.04,16.36,5.84c1.54,0.51,2.78-0.3,4.09-1.23
				c8.71-6.2,15.65-14.01,22.24-22.4c7.83-9.96,18.38-17.23,28.47-24.69c12.12-8.96,21.37-20.11,29.85-32.4
				c5.52-7.99,10.41-16.69,17.77-23.28c5.66-5.07,10.75-11.39,19.74-10.59c3.35,0.3,4.88-3.65,8.21-4.06
				c-3.44,3.64-6.15,8.96-11.63,9.03c-5.24,0.07-8.2,3.23-11.64,5.8c-3.17,2.37-5.46,5.91-8.64,8.26c-4.81,3.55-6.11,9.29-8.98,13.9
				c-10.07,16.2-22.33,29.81-38.12,40.75c-9.45,6.55-19.35,13.21-25.99,23.08c-3.93,5.83-8.12,11.34-13.21,16.19
				c-3.97,3.78-8.13,6.88-14.04,6.41c-3.08-0.25-4.64,1.46-4.87,4.42c-0.14,1.82-0.58,3.77-0.14,5.47
				c1.87,7.28-1.07,13.88-2.91,20.51c-3.46,12.43-8.51,24.35-12.5,36.63c-4.44,13.64-7.1,27.52-8.69,41.61
				c-1.6,14.16-2.21,28.42-3.18,42.65c-0.09,1.29,0.15,2.69,0.61,3.91c3.76,10.06,2.94,19.83-1.39,29.52
				c-1.69,3.79-4.18,6.09-8.39,6.96c-7.65,1.58-15.2,1.16-22.85,0.19c-5.66-0.72-10.01-4.04-13.93-7.38
				c-6.38-5.43-13.42-9.08-21.27-11.62c-4.62-1.49-8.81-3.88-12.54-7.08c-6.64-5.71-10.23-18.42-6.65-27.55
				c0.24,3.83,0.31,6.31,0.57,8.78c0.14,1.33,0.59,2.74,2.2,2.97c1.62,0.23,2.55-0.96,2.9-2.24c0.99-3.61,2.59-7.35-2.15-9.89
				c-3.28-1.75-0.86-3.7,0.67-4.39c6.46-2.92,12.51-6.83,19.99-7.33c6.42-0.42,12.81-1.61,19.15-2.8c4.71-0.89,6.98-4.08,7.06-8.94
				c0.27-15.12,0.71-30.23,0.91-45.34c0.19-13.92-2.48-27.54-4.67-41.2c-0.89-5.55-0.88-11.17-2.89-16.64
				c-1.27-3.46,0.34-7.51,0.2-11.36c-0.47-12.96-3.5-25.86-1.42-38.86c1.69-10.52,1.45-21.16,2.4-31.72c0.27-2.98,1.56-5.4,2.58-8
				c1.94-4.96,0.67-10.29,1.83-15.27c2.28-9.8,6.8-18.6,12.38-26.99c9.39-14.12,18.66-28.29,29.6-41.32
				c12.33-14.69,22.09-31.08,30.42-48.34c7.39-15.29,15.82-30.03,24.32-44.69c4.56-7.86,11.09-14.57,15.91-22.31
				c3.14-5.03,7.57-9.24,9.59-14.98c2.73-7.77,10.09-12.09,14.2-18.88c1.6-2.64,3.58-5.21,6.11-7.21c0.69-0.54,1.32-1.77,1.22-2.59
				c-1.01-8.1,2.53-14.99,5.46-22.11c1.32-3.19,2.16-6.26-3.11-7.45c-5.71-1.29-7.31-6.09-4.08-10.95c2.15-3.23,1.63-6.34,0.38-9.52
				c-2.19-5.58-4.4-11.16-6.85-16.63c-1.87-4.17-2.67-8.17-0.4-12.44c1.51-2.85,0.98-5.26-1.47-7.6c-2.26-2.17-4.02-4.86-6-7.32
				c-1.37-1.7-1.71-3.58-0.99-5.63c3.82-10.93,2.74-21.99,0.77-33.03c-0.97-5.4-2.29-10.74-3.45-16.11
				c-0.07-0.33-0.13-0.65-0.2-0.98c-2.48-11.62-6.53-14.04-16.83-9.06c-5.35,2.59-10.41,2.87-15.92,1.4
				c-4.98-1.33-9.82,0.81-14.78,0.96c-11.18,0.36-22.79,1.23-33.35-0.92c-12.76-2.6-27-3.49-37.16-14.14
				c-4.43-4.65-7.48-8.89-4.63-15.82c3.61-8.78,4.15-18.44,6.49-27.61c0.79-3.1,1.39-6.2,3.35-8.76c4.44-5.79,6.52-12.7,9.01-19.36
				c1.81-4.84-0.18-9.41-2.36-13.77c-3.47-6.94-6.67-13.97-8.16-21.66c-0.6-3.09-0.87-6.25-2.74-9c-0.93-1.38-1.3-3.07,0.25-5.65
				c2.7,4.81,5.9,9.04,6.42,13.96c0.6,5.73,3.45,10.43,5.69,15.28c1.7,3.7,3.32,7.6,5.54,11.1c2.7,4.24,0.69,7.97-1.02,11.78
				c-0.61,1.35-2.12,3.3-1.68,3.98c3.62,5.59-1,8.92-3.39,12.59c-2.66,4.1-3.81,9.02-7.66,12.55c-1.86,1.7-0.21,4.88,0.57,7.13
				c0.83,2.39,2.73,0.74,4.2,0.26c0.8-0.26,1.69-0.51,2.3,0.28c0.71,0.93,0.37,1.97-0.21,2.78c-2.19,3.11-1.53,5.79,0.72,8.61
				c3.35,4.19,2.01,9.32,1.94,14.01c-0.06,3.95,3.21,5.95,4.03,9.26c0.17,0.68,1.47,0.61,2.14-0.11c1.09-1.16,1.04-2.71,0.21-3.7
				c-4.45-5.31-1.7-11.52-2.37-17.29c-0.05-0.39,0.36-0.84,1.64-1.26c0,3.32-0.05,6.63,0.02,9.95c0.03,1.42-0.36,3.34,1.75,3.54
				c1.58,0.15,2.4-1.38,2.53-2.65c0.98-9.5,4.59-18.39,6.29-27.67c0.69-3.75,2.1-6.47,4.46-9.1c0.82-0.91,2.4-2,1.19-3.34
				c-1.07-1.19-2.44,0.1-3.64,0.54c-1.65,0.6-3,4.25-4.52,1.99c-1.29-1.91,2.49-2.33,3.81-3.63c1.53-1.5,4.49-2.59,0.15-4.19
				c-1.23-0.45-2.07-1.24-1.52-2.64c0.46-1.18,1.58-1.11,2.56-0.88c4.28,0.98,6.67,0.95,4.2-4.7c-1.31-3.01,2.25-5.1,4.38-6.51
				c2.5-1.65,4.13-2.88,4.54-6.27c0.55-4.49,5-6.52,8.69-4.79c0.15-0.29,0.48-0.75,0.4-0.85c-4.57-5.38-1.06-7.31,3.57-9.54
				c4.91-2.36,4.7-8.03,6.57-12.34c0.75-1.73,0.08-3.98,2.09-5.65c2.44,11.15-0.75,20.47-7.5,28.93c-3.43,4.3-6.43,8.87-8.06,14.22
				c-0.58,1.92-1.62,3.96,0.57,5.41c2.03,1.35,3.12-0.68,4.67-1.53c4.45-2.42,9.17-4.33,13.73-6.57c5.53-2.72,11.07-5.41,16.45-8.41
				c6.26-3.49,13.6-3.35,19.97-6.1c11.96-5.16,24.42-7.1,37.27-8.01c6.5-0.46,11.89-4.98,18.29-6.46
				c7.97-1.84,15.88-3.75,24.08-4.23c2.68-0.16,5.54-0.48,7.26-2.78c4.4-5.9,5.62-7.19,0.44-12.67c-5.48-5.8-9.36-12.81-10.54-20.96
				c-0.34-2.32-1.52-3.9-3.57-5.08c-4.02-2.32-6.19-6.01-6.77-10.53c-1-7.74-1.9-15.5-2.67-23.26c-0.25-2.53-0.9-5.26,1.21-7.88
				c2.79,2.92,3.43,6.52,3.27,9.78c-0.39,7.61,1.53,14.85,2.82,22.18c0.54,3.04,1.87,6.28,6.01,3.01c1.01-0.8,2.16-1.06,3.21-0.22
				c1.05,0.85,0.65,2.06,0.59,3.24c-0.46,9.62,1.38,18.42,9.25,24.97c2.04,1.7,3.9,3.65,6.07,5.17c4.98,3.48,10.32,1.2,14.62-0.78
				c5.95-2.74,12.79-3.95,18.24-3.81c7.75,0.21,16.26,0.54,23.88,3.82c6.72,2.9,11.06-0.63,11.36-8.01c0.15-3.82-2.9-8.4,1.76-11.76
				c0.91-0.66,0.33-2.25-0.84-2.95c-1.78-1.08-3.44-0.3-4.42,1.07c-1.77,2.48-3.88,4.5-6.35,6.22c-1.36,0.95-2.64,1.57-3.96,0.11
				c-1.42-1.58-0.4-2.77,0.79-3.8c5.06-4.39,9.4-9.71,16.84-10.62c4.72-0.57,8-8.59,5.37-12.4c-1.42-2.06-1.06-3.66,0.91-4.47
				c6.27-2.6,7.28-8.38,8.79-13.89c0.15-0.55-0.02-1.28-0.28-1.82c-0.1-0.2-1.18-0.26-1.28-0.09c-1.36,2.41-5.06,2.96-5.09,6.4
				c-0.03,3.34-2.76,5.18-4.38,7.61c-0.8,1.21-2.27,1.49-3.55,0.6c-1.14-0.79-0.98-2.01-0.52-3.17c2.1-5.26,4.61-10.33,8.72-14.3
				c1.88-1.82,2.4-3.58,2.36-6.13c-0.22-15.04-1.82-29.95-7.82-43.8c-4.84-11.17-13.61-19.01-25.04-23.79
				c-9.39-3.93-19.23-4.1-28.97-3.18c-10.25,0.97-19.25,6.25-26.04,13.48c-4.58,4.87-10.7,8.4-13.79,14.89
				c-1.52,3.2-3.29,6.2-3.36,9.73c-0.19,8.62-2.16,17.68,0.49,25.75c3.59,10.96,2.63,22.32,5.24,33.24
				c0.36,1.51,1.07,3.67-1.39,4.03c-1.96,0.29-2.29-1.74-2.57-3.11c-1.71-8.25-5.12-16.24-3.84-24.97c0.35-2.38-0.23-4.54-3-4.86
				c-2.45-0.28-2.44-1.35-1.32-2.89c2.36-3.25,2.31-7.03,1.94-10.6c-1.83-17.21,4.92-30.73,17.26-42.1
				c11.09-10.21,23.47-17.72,39.04-17.45c18.32,0.32,33.58,7.79,45.21,21.95c3.13,3.81,4.71,8.8,5.55,13.79
				c1,5.91,1.82,11.85,2.67,17.79c0.65,4.53,2.24,8.27,5.55,11.87c5.06,5.51,4.57,12.77,3.96,19.88
				c-0.73,8.51-3.86,16.58-3.64,25.34c0.1,4.25-1.64,8.83-7.55,10.32c-4.87,1.23-5.01,6.99-6.99,10.83c-1.41,2.74-1.99,6-1.83,9.24
				c0.17,3.45-1.09,6.49-2.55,9.53c-1.87,3.9-0.55,6.88,3.52,8.17c1.73,0.55,3.66,1.19,5.37,0.93c11.66-1.84,22.34,2.43,33.28,5.09
				c4.33,1.05,8.08,3.14,11.04,6.46c2.67,2.99,5.99,4.72,9.81,5.61c8.43,1.98,16.86,3.99,25.31,5.89c3.76,0.85,5.46-0.84,4.47-4.67
				c-0.84-3.23-1.65-6.39-1.74-9.78c-0.18-7.04-0.09-7.51,6.03-12.54c1.55,1.37,0.02,2.35-0.48,3.36
				c-3.61,7.33-2.14,14.12,4.21,19.27c0.64,0.52,1.87,1.14,1.8,1.56c-0.96,6.32,5.57,9.05,6.76,14.33c0.69,3.06,2.48,3.9,5,1.53
				c0.87-0.82,1.1-2.8,2.95-1.67c1.33,0.82,2.44,2.16,2.01,3.74c-1.46,5.28,1.94,7,5.8,8.82c11.75,5.55,19.08,14.86,23.93,26.85
				c3.37,8.33,2.94,16.97,4.21,25.46c0.31,2.09-0.25,4.98,3.02,4.51c2.98-0.43,1.64-2.87,1.44-4.82c-0.7-7.03-2.95-14.06-0.11-21.13
				c0.84-2.1-0.35-3.43-1.94-4.62c-0.97-0.73-2.82-1.37-1.74-2.98c0.93-1.39,2.68-0.96,4.16-0.61c1.23,0.29,1.91,2,3.82,1.28
				c0.03-2.3-1.37-4.47-3.02-5.15c-4.73-1.96-6.51-6.99-10.82-9.39c-2.35-1.31-2.58-4.63-5.34-6.54c-2.91-2.02-5.8-3.51-9.02-4.62
				c-3.24-1.12-4.35-2.73-2.13-5.89c1.46-2.07,2.35-4.12-1.72-4.63c-1.72-0.22-1.89-2.34-1.09-3.74c1.11-1.93,2.12-0.33,3.17,0.37
				c2.59,1.72,5.12,3.16,6.07,6.69c0.83,3.08,3.36,3.19,5.1,0.48c1.32-2.05,3.15-4.38,2.48-6.89c-1.34-5.05,0.38-9.52,1.85-14.09
				c0.62-1.93,1.56-4.14,0.38-5.79c-2.27-3.19-4.67-6.56-7.79-8.77c-1.86-1.32-5.07,0.59-7.19,1.74c-1.79,0.97-0.6,3.29,0.21,4.97
				c0.85,1.76,0.89,3.6-0.01,5.31c-1.28,2.43-1.95,4.92-1.65,7.68c0.14,1.31,0.16,3.13-1.47,3.23c-1.55,0.1-1.68-1.8-2.13-3.01
				c-0.6-1.63-0.14-3.28-0.04-4.94c0.29-4.82,0.47-9.65,0.63-14.47c0.09-2.58,1.02-4.01,3.69-2.6c2.82,1.49,4.42,0.2,5.64-2.13
				c0.8-1.53,1.75-2.83,3.47-3.37c1.85-0.58,2.77-1.7,2.38-3.74c-0.29-1.53,0.67-2.5,1.74-3.35c1.72-1.38,3.15-3.03,0.87-4.86
				c-2.2-1.76-4.48-1.12-6.03,1.15c-1.41,2.06-2.52,4.31-3.84,6.44c-0.81,1.31-1.92,2.7-3.61,1.74c-1.86-1.06-0.9-2.64,0.04-3.82
				c2.42-3.03,2.12-6.95,3.49-10.33c0.66-1.63,0.2-3.47-1.68-4.18c-1.89-0.71-3.21,0.52-4.1,2.02c-1.01,1.72-2.06,3.48-2.66,5.36
				c-1.51,4.79-5.6,6.83-9.36,9.24c-1.38,0.89-3.3,0.44-2.78-1.17c1.91-5.91-3.29-8.85-5.5-12.55c-2.98-5-4.8-10.2-4.19-15.38
				c0.74-6.29-4.07-10.27-4.64-15.86c-0.23-2.21-4.23-1.86-5.53,0.55c-1.1,2.04-0.9,4.12,0.07,6.24
				c5.32,11.62,7.69,23.92,8.26,36.63c0.06,1.44,0.11,2.83-1.7,2.99c-2.02,0.18-2.46-1.44-2.71-2.94c-0.82-4.91-0.5-9.89-1.22-14.87
				c-1.11-7.65-3.57-14.87-5.41-22.27c-1.2-4.82,1.1-10.58,5.26-11.97c3.36-1.12,9.38,2.94,10.46,7.43
				c1.08,4.51,2.82,8.92,2.42,13.72c-0.09,1.11,0.01,2.51,0.61,3.37c3.04,4.33,4.35,9.31,5.78,14.27c0.46,1.59,1.11,3.31,3.06,3.59
				c2.17,0.31,2.63-1.56,3.46-2.99c1.25-2.16,2.45-4.37,3.95-6.36c4.67-6.23,8.2-6.32,12.82,0.04c1.73,2.38,4.09,3.48,6.08,5.17
				c4.79,4.04,9.21,8.92,12.42,14.28c2.08,3.48,0.4,8.22-2.01,11.8c-4.86,7.21-7.75,14.91-7.63,23.76
				c0.08,5.69-2.53,11.23-0.81,17.15c0.55,1.9,0.68,3.9,2.02,5.45c4.78,5.54,9.15,11.4,14.2,16.74
				c6.48,6.84,10.75,15.33,13.76,24.09c1.85,5.4-0.86,10.75-5.81,14.32c0.58-1.37,1.14-2.76,1.74-4.12c0.6-1.37,1.52-2.83,0.3-4.18
				c-1.37-1.51-2.32,0.29-3.42,0.73c-0.79,0.31-1.64,0.67-2.29-0.08c-0.72-0.83-0.05-1.55,0.48-2.17c1.34-1.55,2.33-3.27,2.48-5.34
				c0.17-2.3-6.18-11.82-8.31-12.52c-1.03-0.34-2.04-0.2-2.68,0.71c-0.61,0.86,0,1.63,0.6,2.18c5.49,5.03,4.46,10.98,2.25,16.97
				c-0.97,2.64-2.49,5.08-3.69,7.64c-0.43,0.91-0.64,1.99,0.02,2.86c0.78,1.02,1.86,0.61,2.69,0.07
				C1181.13,430.87,1184.83,431.22,1188.06,429.93z M1205.24,900.14c4.01,1.84,17.98-2.14,20.29-5.86c1.26-2.03-0.18-3-1.83-2.77
				c-7,0.97-13.11,3.96-18.36,8.71c-7.38,0.02-12.03,4.98-17.18,9.03C1194.56,907.49,1200.4,904.7,1205.24,900.14z M1012.84,556.66
				c0.66,1.77-0.48,2.52-1.25,3.24c-5.19,4.87-10.13,10.09-15.78,14.37c-4.75,3.59-8.22,8.8-14.11,10.96
				c-2.83,1.04-6.55,1.54-6.65,5.54c-0.04,1.64,7.91,1.88,10.8,0.2c1.27-0.74,2.27-2.16,3.96-1.68c5.47,1.55,11.05,0.5,16.37-0.21
				c5.99-0.8,11.92,0.99,17.78-0.48c1.74-0.43,4.07-0.66,3.96-3.02c-0.1-2.37-2.32-2.41-4.19-2.55c-3.34-0.25-6.62-0.77-9.69-2.22
				c-1.45-0.68-3.7-1.16-2.73-3.33c0.9-2.02,2.66-0.52,3.85,0.07c3.79,1.88,7.86,2.69,11.96,3.4c2.29,0.4,4.63,0.52,6.9,0.99
				c1.48,0.31,2.9,1.05,3.08,2.84c0.17,1.66-1.09,2.35-2.33,2.87c-4.58,1.94-9.05,4.01-13.95,5.31c-9.25,2.47-18.76,2.8-28.12,3.8
				c-8.86,0.95-18.23,2.04-26.19-4.64c-2.86-2.4-7.78-0.59-9.63,2.88c-0.75,1.4-1.61,2.25-3.01,2.04
				c-6.92-1.07-13.99,0.76-20.86-1.06c-11.53-3.05-23.64-4.05-34.34-10.01c-1.45-0.81-3.72-1.95-4.81,0.36
				c-0.94,1.99,0.77,3.4,2.4,4.37c7.6,4.52,15.62,8.09,23.88,11.26c10.57,4.07,21.55,6.81,32.22,10.53c1.33,0.46,3.51,0.28,3.53,2.7
				c-1.87,1.02-3.65,0.22-5.42,0.02c-11.5-1.32-22.28-5.29-32.98-9.33c-10.91-4.12-21.48-9.01-29.4-18.11
				c-0.91-1.05-1.77-2.95-3.55-1.98c-2.01,1.08-0.78,2.97-0.41,4.48c2.04,8.36,7.67,13.99,14.06,19.34
				c10.31,8.61,23.41,12.46,33.95,20.6c0.74,0.57,1.85,0.7,2.81,0.97c10.12,2.85,20.61,3.75,30.88,5.82
				c5.17,1.04,10.12,2.97,15.68,2.57c9.07-0.65,18.17-0.56,26.88-3.77c1.49-0.55,3.32-0.48,4.95-0.32
				c8.57,0.85,16.62-0.19,23.64-5.73c0.88-0.7,2.05-1.14,3.16-1.43c12.8-3.39,22.66-11.01,29.82-21.86
				c2.45-3.72,6.9-6.68,6.42-12.02c-0.29-3.31-0.94-6.58-0.55-9.94c0.15-1.31-0.08-2.85-1.68-3.24c-1.7-0.42-2.67,0.6-3.5,2.08
				c-4.64,8.34-11.81,13.79-20.4,17.54c-0.92,0.4-1.94,1.34-3.16-0.13c0.8-0.54,1.48-0.97,2.12-1.44
				c6.99-5.05,14.59-9.44,18.92-17.4c0.78-1.43,2.24-2.94,0.19-4.29c-1.59-1.05-2.7,0.15-3.76,1.37c-2.65,3.07-6,5.31-9.6,7.04
				c-6.77,3.26-13.27,6.96-19.03,11.78c-4.36,3.65-9.37,5.79-14.72,7.08c-7.59,1.83-15.42,2.78-22.92,4.89
				c-9.52,2.68-19.19,1.28-28.77,1.9c-4.77,0.31-9.54-1.35-13.82-3.79c-1-0.57-2.05-1.48-1.57-2.81c0.55-1.53,1.91-1.04,2.98-0.66
				c11.28,4.05,22.93,3.03,34.49,2.37c10.52-0.6,20.51-4.25,30.78-6.32c7.3-1.47,14.52-5.34,19.48-10.67
				c3.98-4.27,8.52-6.26,13.23-8.75c14.78-7.79,24.35-19.39,23.83-36.79c-0.5-16.87,3.25-33.47,2.26-50.33
				c-0.16-2.73,0.22-5.3-2.57-7c-1.48-0.9-2.09-2.43-0.79-3.8c6.99-7.38,6.32-16.75,7-25.83c0.52-6.95,0.13-14.27,2.25-20.73
				c4.52-13.74,3.26-26.81-1.43-39.99c-0.72-2.03-1.57-4.02-2.23-6.08c-0.3-0.93-0.42-2.1,0.72-2.62c1.18-0.54,1.85,0.45,2.39,1.25
				c0.55,0.82,0.97,1.74,1.36,2.65c3.41,7.85,5.5,15.97,4.96,24.61c-0.52,8.38,2.83,16.84-0.59,25.19
				c-0.46,1.12,0.74,2.15,1.73,1.45c2.54-1.79,5.89-1.63,8.16-4.44c4.22-5.21,9.12-9.88,13.74-14.78c0.31,0.26,0.63,0.52,0.94,0.79
				c-3.05,5.2-6.95,9.79-11.05,14.23c-1,1.08-2.37,2.18-1.51,3.88c0.99,1.96,2.78,1.39,4.41,1c6.32-1.51,12.29-3.83,17.73-7.48
				c2.4-1.61,4.82-3.37,8.46-3.62c-1.55,4.12-5.43,4.32-7.84,6.35c-1.08,0.91-3.03,1.59-2.38,3.39c0.63,1.73,2.47,1.4,3.95,1.13
				c5.95-1.1,11.95-0.76,17.92-0.45c9.2,0.49,16.46-7.7,14.84-16.78c-0.22-1.25,0.24-2.61,0.28-3.92
				c0.17-4.96,1.31-10.13-1.03-14.75c-3.52-6.96-7.51-13.7-11.41-20.46c-2.18-3.78-4.94-7.11-8.66-9.52
				c-0.96-0.62-2.01-1.59-3.14-0.64c-1.23,1.03-1.02,2.58-0.13,3.62c5.82,6.8,4.29,15.46,6.02,23.28c0.35,1.6,0.21,3.25-2.58,4.2
				c1.08-9.94-1.75-18.53-6.28-26.61c-1.24-2.2-1.7-6.51-6.11-3.25c-0.85,0.63-1.45-0.43-1.84-1.15c-0.48-0.88-0.83-1.83-1.35-2.67
				c-4.91-7.89-9.78-15.81-17.72-21.15c-1.16-0.78-2.33-2.6-3.82-1.19c-1.35,1.28,0.44,2.31,1.09,3.34c1.23,1.98,2.55,3.9,3.74,5.91
				c0.69,1.16,2.5,2.57,0.49,3.72c-1.43,0.81-2.08-1-2.87-2.06c-5.57-7.5-12.47-14.53-21.38-16.24c-8.55-1.65-15.6-4.62-22.35-9.75
				c-5.51-4.18-12.44-4.91-19.03-6.68c-11.24-3.01-22.09-3.97-33.16-0.05c-1.3,0.46-2.66,0.48-3.8-0.41
				c-0.31-0.24-0.59-0.98-0.44-1.26c0.79-1.51,2.24-1.09,3.54-0.99c1.21,0.09,2.41,0.12,3-1.19c0.62-1.4,0.19-2.72-0.93-3.6
				c-4.42-3.47-8.44-7.52-14.24-8.92c-13.2-3.2-26.29-2.95-39.31,0.81c-5.47,1.58-10.39,4.49-15.42,7.06
				c-1.61,0.82-3.13,2.29-2.9,4.33c0.25,2.21,2.42,1.93,3.95,2.28c4.21,0.98,8.45,1.87,12.68,2.79c1.42,0.31,3.43,0.24,3.09,2.34
				c-0.27,1.68-2.04,1.36-3.35,1.18c-4.43-0.62-8.9-1.08-13.28-1.98c-18.13-3.7-34.94,1.23-51.54,7.67
				c-1.54,0.6-3.09,1.76-4.62,1.72c-7.58-0.21-14.8,2.24-22.25,2.76c-3.95,0.28-7.45,1.38-10.7,3.65
				c-3.81,2.66-7.61,5.39-12.81,3.95c-1.1-0.3-2.59,0.46-3.79,0.97c-4.28,1.81-8.9,3.17-12.69,5.74
				c-5.32,3.61-13.2,4.99-13.55,13.72c-0.04,0.91-1.26,1.96-2.17,2.61c-2.03,1.45-2.72,3.5-3.67,5.69
				c-2.64,6.07-4.34,12.18-3.53,18.86c0.13,1.07,0.08,2.69-1.43,2.74c-1.51,0.05-1.41-1.57-1.65-2.66
				c-1.19-5.45,0.16-10.57,2.08-15.6c0.76-1.98,2.51-3.98,1.03-6.05c-1.52-2.14-2.83,2.19-4.65,0.62c-0.18-1.02,0.68-1.45,1.06-2.14
				c0.73-1.34,3.16-2.38,1.78-4.11c-1.37-1.71-3.74-0.69-5.03,0.34c-5.03,4-10.79,7.18-15,12.13c-4.82,5.68-5.97,12.73-7.13,19.85
				c-1.71,10.45,0.55,19.69,7.19,27.85c0.81,1,1.49,2.71,3.44,2.19c-4.36-13.05-4.36-13.05-3.08-16.15
				c1.28,0.87,1.27,2.24,1.63,3.46c2.38,8.02,12.3,15.24,20.65,15.65c11.27,0.55,22.05-1.02,32.95-4.2
				c8.4-2.45,15.76-5.79,22.17-11.65c5.4-4.95,10.74-9.93,15.48-15.53c0.73-0.86,1.65-2.26,2.81-1.38c1.46,1.1,0.18,2.39-0.58,3.42
				c-0.6,0.79-1.38,1.45-2.08,2.16c-5.93,6.04-11.87,12.08-17.77,18.14c-0.86,0.88-2.71,1.64-1.7,3.13c0.94,1.4,2.45,0.36,3.57-0.28
				c3.44-1.99,7.02-3.65,9.98-6.52c5.74-5.55,11.96-10.61,17.28-16.62c0.87-0.99,2.1-2.48,3.28-1.41c1.68,1.52-0.31,2.55-1.28,3.54
				c-3.01,3.11-5.87,6.39-9.12,9.23c-5.7,4.99-9.92,11.75-17.45,14.6c-2.43,0.92-2.87,3.15-1,4.77c4.18,3.62,3.92,8.55,4.61,13.26
				c0.51,3.45,0.77,7,1.77,10.31c2.14,7.09,4.38,14.69,2.55,21.57c-3.13,11.76-0.28,20.91,7.69,29.32c1.9,2,2.01,4.71-0.04,6.81
				c-3.56,3.65-2.13,7.32-0.4,11.04c1.19,2.57,2.98,4.95,3.67,7.63c1.45,5.65,5.88,11.1,2.96,17.2c-3.25,6.81,0.12,9.01,5.53,11.24
				c4,1.65,8.19,2.83,12.22,4.39c1.33,0.51,3.27,1.47,2.65,3.09c-0.77,2.01-2.54,0.47-3.84,0.07c-0.95-0.29-1.8-0.93-2.75-1.16
				c-1.89-0.46-4.38-1.46-5.34,0.81c-0.86,2.02,1.45,3.06,3.02,3.93c14.02,7.84,29.54,11.01,45,14.31c1.28,0.27,2.91,0.44,3.26-1.33
				c0.29-1.49-1.13-1.78-2.25-2.15c-3.95-1.3-8.13-2.14-11.77-4.03c-6.01-3.12-11.7-6.87-17.44-10.49c-1.06-0.67-2.18-2.02-1.4-3.4
				c0.93-1.63,2.3-0.59,3.46,0.02c9.79,5.21,19.11,10.95,30.04,14.26c14.34,4.35,27.33,2.4,39.6-4.62
				c7.42-4.25,13.99-10.07,20.47-15.86C1005.53,562.77,1008.18,558.5,1012.84,556.66z M732.46,858.5c0.48,5.54,1.62,9.89,6.66,12.12
				c3.5,1.54,6.87,3.37,10.31,5.04c1.22,0.59,2.6,1.09,3.76,0.1c1.45-1.23,0.66-2.76,0.13-4.14c-1.08-2.8-2.44-5.5-3.28-8.37
				c-2-6.77-5.86-12.69-8.41-19.21c-0.56-1.43-1.61-2.65-3.27-2.79c-1.98-0.16-2.21,1.68-2.95,2.92
				C732.65,848.83,734.57,854.41,732.46,858.5z M1191.74,955.18c2.29,1.94,4.44,0.93,5.88,2.44c3.94,4.15,9.77,3.05,11.31-2.32
				c0.98-3.42,2.94-5.77,5.7-7.71c3.82-2.69,7.23-5.85,10.36-9.3c0.76-0.84,1.53-1.96,0.5-3.1c-0.76-0.84-1.88-0.64-2.81-0.27
				c-0.91,0.36-1.67,1.12-2.58,1.46c-4.19,1.59-7.15,5.82-11.23,6.64c-3.42,0.69-5.52,1.53-6.6,4.67c-0.66,1.92-2.12,2.8-3.83,3.63
				C1196.24,952.39,1194.2,953.75,1191.74,955.18z M1207,979.01c-0.28-2.37-4.52-0.95-3.13-3.73c0.86-1.72,3.02-1.24,4.91-0.44
				c4.35,1.84,7.22-0.93,9.89-3.74c0.63-0.66,1.21-2.29,0.04-2.55c-7.63-1.73-0.96-4.69-0.42-6.69c0.74-2.75,6.34-4.05,4.92-6.54
				c-1.98-3.46-5.81,1.35-8.99,0.43c-0.15-0.04-0.33,0.01-0.49,0.03c-2.7,0.45-4.22,2.43-5.83,4.36c-1.84,2.21,0.9,2.67,1.36,4
				c0.89,2.53-0.72,4.09-2.6,5.29c-1.53,0.98-3.38,1.5-4.79,2.6c-2.37,1.85-2.34,4.23-0.74,6.64
				C1202.88,981.31,1204.84,980.99,1207,979.01z M754.92,1111.02c4.3-0.05,7.98-0.99,11.47-2.66c1.62-0.77,2.72-2,2.26-3.95
				c-0.48-2.07-2.01-2.44-3.85-2.1c-2.87,0.52-5.77,0.22-8.5,2.19c-3.58,2.58-13.57,0.89-16.47-2.39c-2.08-2.36-4.61-3.12-7.57-2.93
				c-1.32,0.09-2.93,0.14-3.41,1.55c-0.55,1.62,1.15,2.17,2.12,2.97C738.08,1109.53,746.83,1109.85,754.92,1111.02z M708.47,1054.44
				c-1.16-0.3-1.64-0.45-2.13-0.54c-1.48-0.26-2.8,0.12-3.12,1.68c-0.18,0.87,0.07,2.1,0.62,2.79c1.21,1.52,2.3,0.49,3.25-0.55
				c1.76-1.91,2.7-0.41,4.02,0.76c6.65,5.91,12.85,12.47,21.44,15.76c1.78,0.68,3.64,1.37,4.8-0.79c1.05-1.95,0.94-3.98-1.16-5.24
				c-1.75-1.06-3.86-1.67-5.71-0.6c-2.31,1.33-3.63,0.35-5.14-1.23c-1.84-1.91-3.94-3.57-5.78-5.48c-1.51-1.57-2.58-3.33,0.31-4.71
				c0.89-0.42,2.06-0.77,1.66-2.05c-0.43-1.41-1.72-1.34-2.92-1.18C715.02,1053.54,711.42,1054.04,708.47,1054.44z M1205.53,908.14
				c9.06,0.17,10.68,1.93,8.61,8.35c-0.34,1.04-2.79,1.79-0.78,3.12c1.34,0.88,3.2,1.25,4.74,0.18c1.23-0.86,2.38-1.74,3.85-2.21
				c1.52-0.49,2.85-1.67,2.39-3.3c-0.55-1.97-2.18-0.45-3.36-0.53c-1.7-0.12-4.1,2.19-3.43-2.97c0.65-5.02,3.68-5.35,6.36-7.04
				c1.38-0.87,3.54-1.11,2.8-3.31c-0.65-1.91-2.65-1.4-3.89-0.78C1217.31,902.4,1210.81,903.12,1205.53,908.14z M1116.74,859.42
				c-0.33-1.44-1.17-2.44-2.21-3.32c-5.43-4.65-12.41-7.18-17.21-12.7c-0.85-0.98-2.15-0.75-3.22-0.06
				c-1.09,0.7-1.47,1.75-1.33,3.01c0.37,3.35,2.54,5.43,5.26,6.84c5,2.58,10.12,4.94,15.21,7.34
				C1114.69,861.21,1116.14,861.48,1116.74,859.42z M1215,930.39c2.88-2.14,5.79-4.31,8.7-6.47c0.79-0.59,1.88-1.15,1.39-2.32
				c-0.56-1.35-1.92-1.23-3.04-0.97c-4.81,1.13-8.87,3.83-12.66,6.78c-2.11,1.64-5.06,4.32,0.6,5.6c1.74,0.39,0.95,1.8,1,2.87
				c0.1,2.03,1.47,2.53,3.12,2.24c2.54-0.43,4.39-2.54,4.99-4.46C1219.98,930.84,1216.19,932.64,1215,930.39z M771.8,1092.36
				c-0.69-3.88-1.39-7.95-2.14-12c-0.32-1.71-0.91-3.53-3.11-2.88c-1.99,0.59-1.95,2.3-1.34,4.1c1.37,4.03,1.4,7.81-2.5,10.63
				c-0.59,0.42-1.15,1.27-0.54,1.57c2.48,1.23,5.02,2.85,7.65,3.07C772.34,1097.07,771.43,1094.2,771.8,1092.36z M1239.47,1094.97
				c-0.12-1.48-1.28-1.7-2.37-0.96c-5.16,3.5-11.04,6.02-15.23,10.83c-1.21,1.39-1.44,3.29,1.16,3.62
				c3.06,0.4,15.34-9.05,16.17-12.25C1239.28,1095.89,1239.34,1095.56,1239.47,1094.97z M1187.9,901.67
				c6.39-4.05,13.77-5.51,20.65-8.27c0.96-0.39,1.19-1.61,0.89-2.63c-0.41-1.35-1.65-1.83-2.78-1.49
				c-7.03,2.09-13.58,5.21-19.53,9.54c-0.69,0.51-1.02,1.38-0.55,2.2C1186.77,901.34,1187.38,901.43,1187.9,901.67z M763.2,986.02
				c2.47-0.2,5.5,0.77,5.73-1.56c0.28-2.79-3.02-2.77-4.92-2.61c-5.59,0.47-10.48-0.43-14.4-4.85c-0.65-0.73-2.13-0.79-3.26-1
				c-0.99-0.18-2.06-0.11-2.49,1.07c-0.47,1.31,0.08,2.54,1.26,2.85C751.46,981.59,756.99,985.74,763.2,986.02z M1196.08,1071.47
				c5.81-0.84,10.19-4.46,14.78-7.65c0.4-0.28,0.62-1.22,0.51-1.76c-0.16-0.74-0.99-0.88-1.62-0.6c-5.06,2.25-10.84,3.07-14.79,7.48
				c-0.4,0.45-0.97,1.1-0.89,1.57C1194.23,1071.55,1195.26,1071.42,1196.08,1071.47z M1193.23,921.28c5.33-0.5,10.49-1.3,14.91-4.38
				c1.11-0.77,1.87-1.99,1.43-3.44c-0.34-1.12-1.61-1.63-2.41-1.18C1202.38,914.98,1196.96,916.7,1193.23,921.28z M1205.4,982.99
				c-2.5-0.64-3.93,1.97-6.18,2.41c-1.09,0.21-2.44,0.82-2.16,2.26c0.27,1.43,1.71,1.34,2.85,1.39c1.52,0.07,3.02-0.2,4.23-1.17
				c2.31-1.85,4.53-3.26,7.59-1.32c1.26,0.8,2.69,0.13,3.28-1.28c0.68-1.62-0.32-2.87-1.45-3.91c-1.1-1.01-2.19-0.78-2.88,0.46
				C1209.38,984.23,1207.52,983.79,1205.4,982.99z M752.39,413c0.03-1.13,0.47-2.47-0.83-3.13c-1.15-0.58-2.09,0.31-2.29,1.24
				c-0.85,3.87-1.68,7.76-2.15,11.68c-0.2,1.69,0.89,3.48,2.86,3.46c2.49-0.03,1.98-2.25,1.99-3.8
				C751.97,419.3,751.64,416.13,752.39,413z M734.34,1092.57c7.54,1.7,15.06,2.28,22.64,0.98
				C749.55,1090.01,741.91,1091.53,734.34,1092.57z M1202.75,924.38c-5.56-0.02-9.59,2.49-13.42,5.46c-0.87,0.68-2.43,1.24-1.9,2.55
				c0.6,1.5,2.29,1.01,3.53,0.82C1196.27,932.38,1199.83,929.1,1202.75,924.38z M1186.27,1099.38c2.14,0.75,4.16,1.49,6.2,2.16
				c2.19,0.73,3.75-0.15,4.02-2.33c0.27-2.24-1.51-2.73-3.32-2.66c-3.79,0.15-7.57,0.87-11.39,0.02c-1.35-0.3-2.92,0.11-2.78,1.92
				c0.13,1.69,1.47,2.72,3.14,2.45C1183.56,1100.72,1184.88,1099.93,1186.27,1099.38z M1188.71,1110.17
				c-0.66-0.06-1.33-0.23-1.98-0.17c-1.66,0.17-3.82,0.41-3.74,2.42c0.08,1.96,2.28,1.53,3.65,1.47c2.85-0.12,5.62,0.18,8.41,0.7
				c1.26,0.24,2.95,0.62,3.49-0.95c0.62-1.78-1.15-2.47-2.26-3.42C1193.74,1108.03,1191.23,1110.6,1188.71,1110.17z M756.19,953.91
				c-0.11-0.32-0.17-0.65-0.31-0.93c-0.95-1.9-10.7-6.36-12.88-5.92c-0.88,0.18-1.63,0.57-1.84,1.45c-0.26,1.1,0.27,2.01,1.3,2.39
				c3.74,1.36,7.49,2.69,11.28,3.92C754.61,955.11,755.77,955.27,756.19,953.91z M748.89,943.83c3.61,1.85,6.59,4.8,10.78,5.19
				c1.61,0.15,3.66,0.5,4.07-1.66c0.36-1.9-1.32-3.1-2.9-3.5C756.94,942.88,752.95,942.6,748.89,943.83z M770.9,971.06
				c5.09,0.72,9.27,2.57,13.21-0.64c0.96-0.78,2.69-1.42,2.06-3.02c-0.67-1.72-2.46-1.48-3.93-1.21
				C778.49,966.88,774.8,967.82,770.9,971.06z M760.34,934.74c2.31-0.17,3.78,0.14,4.6-1.23c0.39-0.65-0.01-1.39-0.71-1.55
				c-5.14-1.17-9.95-3.66-15.33-3.78c-0.55-0.01-1.32,0.35-1.62,0.79c-0.46,0.66,0.22,1.57,0.7,1.55
				C752.96,930.29,756.6,934.31,760.34,934.74z M1212.55,889.01c4.32-2.38,8.9-4.02,12.55-7.19c0.98-0.85-0.18-2.19-1.19-1.81
				c-4.13,1.59-8.79,1.99-12.22,5.17c-0.73,0.68-1.3,1.66-0.74,2.69C1211.21,888.36,1211.92,888.59,1212.55,889.01z M761.4,1005.92
				c0.71-0.13,2.63,0.83,3.58-1.12c0.45-0.93-0.53-1.68-1.28-1.7c-3.73-0.11-6.9-1.57-10.11-3.35c-1.16-0.64-3.22,0.07-4.77,0.52
				c-1.15,0.34-1.31,2.13-0.27,2.1C753.03,1002.22,756.11,1006.38,761.4,1005.92z M740.73,418.68c0.49,1.74,0.01,4.77,2.3,4.82
				c2.88,0.07,1.59-2.98,1.88-4.71c0.42-2.56-0.21-5.33,2.01-7.45c0.97-0.93,0.88-2.3-0.09-3.12c-1.49-1.25-1.89,0.44-2.51,1.26
				C742.28,412.18,741,415.18,740.73,418.68z M1189.4,1085.58c0.69,0.07,1.04,0.19,1.35,0.13c2.18-0.45,6.04,1.66,6.17-1.57
				c0.11-2.75-3.83-2.07-6.21-2.22c-0.16-0.01-0.35-0.03-0.49,0.03c-2.25,0.9-6.54-1.63-6.62,1.96
				C1183.52,1087.23,1187.74,1084.53,1189.4,1085.58z M694.84,1080.79c1.53,4.29,4.38,7.38,8.02,9.73c1,0.64,2.29,0.62,3.24-0.33
				c0.72-0.73,0.56-1.65-0.21-2.14C702.19,1085.72,699.53,1081.88,694.84,1080.79z M1166.94,316.91c-1.54,0.79-3.08,1.76-4.99,1.85
				c-1.65,0.08-2.94,0.7-2.83,2.67c0.11,1.92,1.23,2.99,3.05,3.4c2.33,0.53,7.25-4.05,6.9-6.4
				C1168.89,317.23,1168.26,316.68,1166.94,316.91z M1202.24,1019.97c3.73-1.6,6.51-2.48,8.93-3.95c1.13-0.69,3.67-1.38,2.67-3.41
				c-0.76-1.55-2.7-0.08-4.08-0.24C1204.76,1011.82,1204.24,1015.62,1202.24,1019.97z M1206.68,1034.23
				c1.11-0.32,2.95-0.6,4.55-1.38c1.87-0.92,3.39-3.12,2.76-4.77c-0.89-2.35-3.1-0.33-4.69-0.04c-2,0.37-3.63,1.49-4.79,3.23
				c-0.46,0.69-1.12,1.36-0.67,2.21C1204.28,1034.28,1205.19,1034.28,1206.68,1034.23z M766.79,426.63c0.86,2.7-0.11,6.6,3.89,7.63
				c1.87,0.48,2.54-1.34,2.28-2.95c-0.5-3.16-1.78-6.29-4.68-7.64C766.64,422.9,766.98,425.3,766.79,426.63z M1202.81,1052.39
				c0.49-0.04,0.98-0.1,1.47-0.13c2.31-0.16,3.29-2.69,5.49-3.08c1.15-0.2,2.51-0.61,1.67-2.19c-0.62-1.16-2.04-1.36-3.02-0.66
				c-1.9,1.34-3.94,1.29-6.08,1.36c-1.56,0.05-3.75,0.16-3.46,2.45C1199.12,1052.1,1201.18,1052.15,1202.81,1052.39z
				 M1207.67,1105.84c-3.71,0.02-6.18,1.13-6.05,2.64c0.2,2.34,1.71,3.54,3.99,3.38c2.32-0.16,4.84-0.59,5.05-3.56
				C1210.81,1106.08,1208.93,1105.88,1207.67,1105.84z M1214.45,1036.69c-0.01-0.73-0.31-1.39-1.03-1.5
				c-3.02-0.46-3.69,2.93-6.03,3.79c-1.35,0.49-1.45,2.11-0.78,3.47c0.39,0.79,1.08,1.27,1.99,1.24
				C1210.1,1043.66,1214.57,1038.27,1214.45,1036.69z M1220.55,868.65c-3.18-0.67-5.5,0.03-7.52,1.92c-0.85,0.8-1.86,1.72-1.17,2.96
				c0.76,1.36,2.07,0.71,3.06,0.22C1217.11,872.67,1219.15,871.37,1220.55,868.65z M1201.19,1028.9c2.11-0.68,4.33-1.86,5.37-4.27
				c0.33-0.77-0.97-1.4-1.77-1.1c-2.4,0.9-5.46,1.11-6.22,4.16C1198.29,1028.8,1199.79,1028.99,1201.19,1028.9z M748.2,960.34
				c1.27-0.05,3.16,0.54,3.53-0.86c0.55-2.07-1.79-1.79-2.96-2.42c-0.57-0.31-1.23-0.48-1.86-0.64c-1.53-0.39-3.68-1.5-4.24,0.6
				c-0.65,2.41,1.89,2.56,3.58,3.02C746.88,960.21,747.54,960.24,748.2,960.34z M762.65,1020.06c1.39,0,3.06-0.08,2.83-1.48
				c-0.43-2.64-3.17-2.48-5.1-3.16c-0.93-0.33-2.48-0.03-2.33,1.09C758.41,1019.07,760.8,1019.46,762.65,1020.06z M763.34,1033.64
				c-1.53,0.52-4.1,0.09-4.29,2.31c-0.16,1.85,2.08,1.75,3.48,1.78c1.67,0.04,3.6-0.14,3.76-2.3
				C766.43,1033.6,764.83,1033.57,763.34,1033.64z M775.79,930.86c3.67,2.92,6.27-0.42,8.95,0.67c0.85,0.34,2.71,0.35,2.47-1.36
				c-0.2-1.41-1.84-1.25-2.92-1.08C781.76,929.5,779.27,930.12,775.79,930.86z M1232.73,1064.71c-1.85,0.17-3.64,0.85-3.88,2.94
				c-0.17,1.54,1.41,1.5,2.55,1.5c1.95,0,3.79-0.48,3.95-2.76C1235.44,1064.92,1233.99,1064.8,1232.73,1064.71z M1189.52,1048.42
				c1.57-0.53,3.03-1.4,2.95-3.33c-0.06-1.39-1.37-1.8-2.58-1.65c-1.7,0.2-2.64,1.47-2.77,3.01
				C1187.01,1047.81,1188.11,1048.39,1189.52,1048.42z M752.7,1032.95c-0.49-1.74-2.03-2.01-3.46-2.25
				c-1.28-0.22-2.49,0.27-2.43,1.73c0.07,2,1.8,2.11,3.28,2.2C751.26,1034.7,752.43,1034.51,752.7,1032.95z M1197.28,1013.2
				c2.09-2.1,5.23-0.9,6.93-3.53c0.11-0.18-0.38-1.09-0.67-1.14c-2.93-0.48-4.73,1.42-6.54,3.26
				C1196.94,1011.85,1197.06,1012.08,1197.28,1013.2z M1215.73,1004.52c-2.64-0.33-4.8,0.47-6.27,2.62
				c-0.42,0.62,0.34,1.2,0.99,1.37C1213.84,1009.38,1213.96,1005.92,1215.73,1004.52z M756.22,1089c1.2-0.04,2.81,0.41,3.19-1.29
				c0.34-1.52-1.04-1.88-2.19-1.86c-1.39,0.02-3.34-0.28-3.61,1.57C753.4,1088.83,755.08,1088.79,756.22,1089z M1214.75,1021.12
				c0.18-1.2-0.34-1.97-1.49-2.04c-1.62-0.09-2.85,0.82-3.41,2.24c-0.49,1.23,0.64,1.69,1.6,1.87
				C1213.13,1023.52,1214.22,1022.71,1214.75,1021.12z M745.99,983.58c-1.02,0.18-1.72,0.67-1.56,1.64
				c0.33,1.95,1.75,2.71,3.56,2.71c0.92,0,1.66-0.6,1.11-1.61C748.39,985.05,747.64,983.7,745.99,983.58z M779.38,961.33
				c-0.46-1.57-1.69-1.87-3.06-1.76c-1.2,0.1-2.45,0.59-2.37,1.96c0.1,1.84,1.72,1.64,2.99,1.56
				C778.04,963.02,779.3,962.94,779.38,961.33z M1181.21,935.29c-2.67,0.18-4.8,0.41-5.97,2.46c-0.49,0.85,0.42,1.56,1.29,1.62
				C1179.04,939.55,1180.39,938.14,1181.21,935.29z"/>
			<path class="st0" d="M1029.68,767.82c0.02,3.44-3.25,3.9-5.14,5.54c-3.72,3.22-3.73,5.25,0.67,7.33
				c5.58,2.64,11.29,5.09,19.15,1.53c-3.94,4.55-2.22,5.97,1.22,7.37c6.02,2.43,12.43,2.15,18.63,3.25
				c8.17,1.45,16.44,2.32,24.67,3.44c0.33,0.04,0.67,0.08,0.98,0.18c1.72,0.53,3.73,0.68,4.38,2.8c0.26,0.86-0.11,1.72-0.96,2.07
				c-2.24,0.92-3.37-0.7-4.48-2.17c-0.99-1.3-2.23-1.92-3.87-1.83c-7.67,0.4-15.25-0.86-22.88-1.27c-1.81-0.1-4.33-1.67-4.97,1.33
				c-0.5,2.34,1.93,2.71,3.53,3.49c13.35,6.51,27.21,11.48,41.89,14.06c1.09,0.19,2.38,0.21,3.12,1.78
				c-3.75,1.78-7.72,1.19-11.14,0.04c-10.49-3.52-21.89-4.5-31.37-10.97c-1.25-0.85-3.2-2.25-4.44-0.5
				c-1.13,1.59,0.38,3.17,1.73,4.18c5.75,4.31,9.14,10.99,15.19,15.03c1.16,0.77,2.75,2.2,1.46,3.67c-1.35,1.53-2.73-0.18-3.8-1.06
				c-7.48-6.11-14.71-12.48-20.73-20.09c-0.61-0.78-1.42-1.61-1.58-2.51c-1.54-8.35-8.4-11.53-14.71-15.17
				c-2.33-1.35-5.11-2.43-7.59-0.89c-2.68,1.67-2.22,4.81-1.6,7.31c1.13,4.5,1.52,9.15,3.29,13.55c2.34,5.81,1.16,8.51-5.08,8.92
				c-7.53,0.49-12.51,4.71-17.7,9.12c-7.53,6.39-14.5,6.42-25.26,0.23c-3.71-2.14-6.65-4.97-8.56-8.81
				c-2.65-5.36-6.76-7.37-12.71-6.1c-4.58,0.98-9.28,0.7-13.94,0.19c-4.8-0.52-8.01-5.31-6.63-9.96c0.28-0.93,0.44-2.07,1.69-2.2
				c0.95-0.09,1.35,0.74,1.87,1.4c5.49,7.07,12.31,9.05,20.98,6.16c5.22-1.74,9.04,1.02,11.5,4.84c3.58,5.54,8.41,9.29,13.88,12.57
				c4.66,2.8,8.98,2.73,13.38-0.43c3.25-2.33,6.46-4.72,9.79-6.91c2.53-1.67,5.27-2.59,8.49-2.27c4.14,0.41,5.73-1.74,4.49-5.84
				c-1.88-6.23-3.22-12.52-3.41-19.07c-0.22-7.46-5.46-10.99-12.89-8.99c0.6-1.93,15.33-12.64,19.57-14.22L1029.68,767.82z"/>
			<path class="st0" d="M781.98,1099.89c3.85-1.97,8.08-3.17,12.07-3.84c17.92-3.02,35.33-8.44,53.86-8.87
				c15.73-0.37,31.37-4.11,47.09-6.07c11.39-1.41,22.86-2.12,34.36-1.38c4.31,0.28,7.12,1.41,5.38,6.8
				c-1.25,3.86,1.91,4.41,4.7,4.54c18.95,0.93,37.9,1.96,56.87,2.64c14.31,0.51,28.64,0.51,42.95,0.83
				c3.29,0.08,6.68-0.05,10.11,1.88c-1.97,1.07-3.77,1.41-5.7,1.37c-35.11-0.77-70.22-1.52-105.32-2.28
				c-7.08-0.15-9.04-2.16-8.86-9.18c0.08-3.03-2.16-3.19-4.04-3.19c-14.67-0.04-29.22,1.56-43.7,3.79
				c-8.36,1.29-16.65,3.15-25.18,3.02c-4.47-0.07-8.59,1.76-13.19,1.87c-14.44,0.36-28.71,2.47-42.89,5.6
				C794.51,1098.74,788.48,1101.16,781.98,1099.89z"/>
			<path class="st0" d="M793.85,783.04c-0.13-0.99-0.32-1.98-0.36-2.97c-0.05-1.32,0.57-2.37,1.93-2.47c1.39-0.11,2.04,0.89,2.2,2.2
				c2.47,19.81,12.49,36.03,24.67,51.12c4.55,5.63,8.05,12.29,14.85,15.91c5.73,3.04,11.58,5.57,18.08,6.43
				c1.79,0.23,4.73-0.44,4.25,2.59c-0.36,2.29-2.87,2.57-4.95,2.03c-13.05-3.37-25.06-8.07-33.37-19.92
				c-7.8-11.12-16.79-21.4-21.52-34.42C797.2,796.84,794.74,790.16,793.85,783.04z"/>
			<path class="st0" d="M790.13,279.22c0.81,6.64-4.4,12.07-3.67,18.83c0.21,1.97-2.27,2.08-3.79,0.72
				c-1.61-1.44-3.16-3.02-3.86-5.14c-1.14-3.44-4.28-5.11-6.83-6.96c-2.61-1.9-4.72-0.01-5.28,2.98c-0.85,4.53,1.52,8.02,4.03,11.39
				c0.92,1.23,1.99,2.34,1.19,4c-0.6,1.25-1.52,2.23-3,2.34c-1.41,0.1-2.01-0.82-2.41-2.04c-1.2-3.62-3.56-6.67-4.87-10.29
				c-0.96-2.65-2.81-6.44-6.37-4.34c-2.82,1.66-6.08,4.64-3.47,9.07c0.92,1.57,0.44,3.63,1.94,5.04c0.96,0.9,3.1,1.84,1.41,3.45
				c-1.22,1.17-3.21,0.73-4.67-0.21c-1.56-1.01-2.63-2.41-3.14-4.32c-0.44-1.66-1.38-3.13-3.57-2.47c-0.96,0.29-2.04,0.79-2.5-0.54
				c-0.51-1.48,0.29-2.83,1.56-3.29c3.24-1.18,4.81-3.66,6.48-6.47c2.66-4.45,7.25-5.97,11.8-4.16c2.69,1.07,3.65-0.76,4.84-2.23
				c4.71-5.85,10.41-5.81,15.11,0.21c1.19,1.52,1.87,3.96,4.38,3.37c2.43-0.57,1.55-2.99,1.83-4.65c0.33-1.92,0.88-3.56,2.96-4.18
				L790.13,279.22z"/>
			<path class="st0" d="M953.41,785.86c-2,0.67-3.8-0.74-6.09-2.54c-3.46-2.72-7.8-4.32-11.69-6.53c-1.65-0.94-4.15-1.97-2.62-4.43
				c1.4-2.24,3.77-1.57,5.8-0.48c6.65,3.59,12.67,7.95,20.53,9.65c12.27,2.65,24.15,3.47,36.26-0.18c5.59-1.68,5.73-1.4,4.93,4.47
				c-0.35,2.61,0.34,4.95,2,6.98c1.88,2.29,4.18,4.28,4.36,7.61c0.07,1.33,1.3,1.78,2.57,1.89c1.19,0.1,2.45,0.29,2.44,1.87
				c-0.01,1.55-1,2.39-2.45,2.71c-1.12,0.25-2.64,0.07-3.33,0.74c-4.91,4.83-4.73,0.26-5.4-2.81c-1.05-4.87-2.11-9.75-3.12-14.63
				c-1.09-5.26-2.04-5.89-7.06-4.23c-9.05,2.99-18.27,3.24-27.57,1.65C960.06,787.12,957.49,785.05,953.41,785.86z"/>
			<path class="st0" d="M892.3,820.51c-5.55,0.47-11.31,1.21-17.17,1.21c-12.84,0-24.29-4.88-36.08-9.08
				c-10.94-3.89-18.17-11.75-25.06-20.28c-0.96-1.19-2.61-2.89-1.05-4.38c1.81-1.73,3.37,0.08,4.62,1.35
				c2.79,2.84,4.79,6.41,8.06,8.83c19.19,14.27,40.63,20.75,64.54,18.68c0.66-0.06,1.33-0.28,1.98-0.25
				c1.97,0.1,4.58-0.09,4.39,2.72C896.35,821.95,894.07,820.64,892.3,820.51z"/>
			<path class="st0" d="M796.87,255.81c-0.22-5.53,2.74-9.36,6.64-9.54c3.51-0.17,6.11,2.84,5.58,7.86
				c-0.69,6.6-1.36,13.4-4.08,19.48c-3.56,7.95-2.41,16.36-3.48,24.54c-0.44,3.38,2.46,4.75,4.93,6.23
				c3.56,2.14,5.75,5.06,4.65,9.51c-0.24,0.98-0.57,2.14-1.7,2.23c-1.26,0.1-1.38-1.2-1.75-2.09c-1.22-2.88-1.6-6.5-6.3-2.69
				c-2.36,1.91-5.06-0.63-4.97-3.5c0.3-9.09-0.29-18.54,2.04-27.15c2.02-7.43,2.91-15.29,6.28-22.38c0.42-0.89,0.71-1.89,0.83-2.86
				c0.19-1.55-0.05-3.07-1.62-3.88c-1.49-0.77-2.5,0.29-3.51,1.17C799.44,253.58,798.46,254.43,796.87,255.81z"/>
			<path class="st0" d="M925.08,761.92c-5.82,0.24-10.09-3.23-14.37-6.26c-7.25-5.14-15.26-9.19-21.28-16.14
				c-8.89-10.25-14.41-22.15-18.69-34.8c-0.58-1.72-1.28-3.41-1.9-5.12c-0.5-1.38-1.48-3.15,0.45-3.85c1.62-0.59,3,1.1,3.22,2.43
				c0.61,3.7,2.73,6.76,3.8,10.2c3.36,10.82,8.52,21.05,16.28,28.82c9.12,9.13,19.32,17.76,32.62,20.9
				c1.45,0.34,3.35,0.35,3.08,2.42C928.08,762.19,926.38,762.02,925.08,761.92z"/>
			<path class="st0" d="M1056.36,1097.17c8.28,0.4,15.43,0.18,22.41,1.19c14.5,2.09,29.07,2.57,43.66,3.05
				c10.29,0.34,20.46,2.45,30.85,1.69c2.71-0.2,5.61,1.73,8.37,2.83c1.55,0.62,1.54,1.61,0.14,2.51c-1.12,0.72-2.24,1.51-3.7,1
				c-12.92-4.48-26.53-3.62-39.83-5.11c-18.65-2.1-37.35-3.72-56.1-4.56C1060.51,1099.68,1058.83,1099.47,1056.36,1097.17z"/>
			<path class="st0" d="M919,786.05c-2.97-0.45-5.84-1.11-8.55-2.53c-7.93-4.15-15.86-8.28-23.89-12.24
				c-7.3-3.6-13.15-8.93-18.52-14.88c-1.06-1.17-2.61-2.74-1.03-4.31c1.41-1.4,2.84,0.06,3.81,1.09
				c13.24,14.08,31.31,20.13,47.77,28.85c1.26,0.67,3.24,0.84,3.17,2.71C921.7,786.3,920.15,786.06,919,786.05z"/>
			<path class="st0" d="M751.48,828.79c1.32,0.18,1.58,1.04,1.8,1.81c3.71,12.89,11.47,23.35,19.85,33.5
				c3.27,3.96,6.32,8.07,10.04,11.65c0.84,0.8,2.39,2.08,0.99,3.3c-1.24,1.09-2.55-0.35-3.38-1.22c-5.7-6-11.31-12.08-16.93-18.17
				c-5.98-6.48-9.38-14.43-12.34-22.54C750.58,834.58,749.48,831.52,751.48,828.79z"/>
			<path class="st0" d="M996.8,238.52c0.89-4.2,4.56-5.52,6.79-8.05c0.58-0.65,1.51-0.59,2.33-0.24c1.38,0.6,2.82,2.87,4.23,0.9
				c1.57-2.19,4.53-3.68,4.29-6.95c-0.07-1-0.32-1.97,0.27-2.87c0.8-1.24,1.52-2.87,3.24-2.71c2.2,0.21,1.55,2.06,1.61,3.49
				c0.16,3.75-0.01,7.07-4.09,9.2c-2.85,1.49-3.65,5.39-6.79,6.99c-1.02,0.52-0.31,1.8,0.46,2.52c1.62,1.52,2.09,3.51,0.13,4.58
				c-2.35,1.28-4.61,3.55-7.54,2.99c-1.71-0.32-1.18-1.94-0.61-3.28C1003.77,238.7,1003.75,238.69,996.8,238.52z"/>
			<path class="st0" d="M840.03,875.39c-16.33,0.67-29.07-7.02-40.6-17.5c-0.73-0.67-1.37-1.46-1.94-2.27
				c-0.58-0.84-1.03-1.89-0.27-2.76c1.14-1.31,2.09-0.16,2.96,0.51c2.23,1.74,4.46,3.48,6.63,5.3
				c10.32,8.67,22.42,12.64,35.66,13.75c1.62,0.13,4.43-0.81,4.33,1.78c-0.07,1.83-2.74,1-4.28,1.18
				C841.7,875.46,840.86,875.39,840.03,875.39z"/>
			<path class="st0" d="M1055.68,670.77c9.29-17.06,13.76-35.68,16.94-54.74c0.81,0.27,1.62,0.54,2.43,0.81
				C1073.76,636.53,1066.98,654.43,1055.68,670.77z"/>
			<path class="st0" d="M1187.05,870.24c-9.13,14.18-26.78,14.65-38.72,24.31C1158.72,882.4,1175.35,880.27,1187.05,870.24z"/>
			<path class="st0" d="M805.33,899.33c-5.66-1.34-11.53-2.59-16.53-6.19c-1.2-0.87-2.74-1.83-1.72-3.6
				c1.08-1.88,2.89-1.35,4.43-0.62c2.69,1.29,5.36,2.63,7.94,4.13c3.73,2.16,7.5,3.47,11.89,2.2c1.36-0.39,3.51-0.42,3.72,1.4
				c0.19,1.65-1.86,1.48-3.1,1.69C809.83,898.71,807.69,898.98,805.33,899.33z"/>
			<path class="st0" d="M991.18,233.89c-2.53-0.17-3.57-1.53-2.6-3.95c1.45-3.64,3.89-6.45,7.44-8.29c3.45-1.79,4.94,1.36,6.4,3.03
				c1.56,1.77-0.58,3.17-2.17,4.08C997.26,230.47,994.69,232.92,991.18,233.89z"/>
			<path class="st0" d="M1078.01,716.43c-3.55,15.24-10.12,28.9-21.05,40.29C1064.99,743.82,1073.52,731.18,1078.01,716.43z"/>
			<path class="st0" d="M962.64,251.03c-5.75,0.37-9.28,3.28-11.97,7.68c-0.65,1.07-1.97,1.75-3.04,2.52
				c-0.67,0.48-1.47,0.9-2.24,0.17c-0.7-0.66-0.72-1.65-0.26-2.3c3.37-4.73,6.93-9.52,11.84-12.55
				C960.28,244.51,960.14,249.92,962.64,251.03z"/>
			<path class="st0" d="M960.2,258.11c0.82,1.72,0.16,2.61-0.53,3.6c-3.01,4.32-7.71,7.24-9.95,12.27
				c-0.51,1.14-2.42,2.65-3.67,1.91c-1.79-1.08-0.2-2.73,0.62-3.78c1.84-2.37,3.15-4.82,4.09-7.77
				C952.06,260.24,956.64,259.97,960.2,258.11z"/>
			<path class="st0" d="M1149.51,753.72c-1.11,5.39-3.17,10.46-5.43,15.44c-0.51,1.11-1.48,1.86-2.83,1.34
				c-1.1-0.42-1.52-1.5-1.22-2.45c1.82-5.68,4.01-11.21,7.07-16.36c0.34-0.58,0.95-1.04,1.66-0.65
				C1149.85,751.65,1149.53,752.75,1149.51,753.72z"/>
			<path class="st0" d="M973.6,286.98c-0.34-2.54-0.2-3.89,0.68-4.96c1.44-1.75,2.89-4.63,5.25-3.8c2.42,0.85,1.31,3.79,0.76,5.77
				c-0.68,2.49,0.31,5.46-2,7.47c-0.94,0.82-1.57,2.42-3.2,1.8c-1.31-0.5-1.17-1.88-1.29-3.01
				C973.66,288.77,973.62,287.28,973.6,286.98z"/>
			<path class="st0" d="M1017.12,209.41c-0.17,0.33-0.36,1.01-0.79,1.45c-0.74,0.74-1.5,0.4-2.12-0.3c-2.6-2.93-4.95-0.81-6.74,0.82
				c-0.92,0.84-0.92,2.34-2.72,1.32c-1.31-0.74-1.96-1.76-1.92-3.22c0.06-2.03,5.32-6.51,7.53-6.45
				C1012.4,203.09,1017,207.23,1017.12,209.41z"/>
			<path class="st0" d="M995.43,248.28c0.87,0.05,1.62,0.31,2.02,1.16c0.4,0.86,0.17,1.64-0.46,2.25c-2.01,1.95-4.05,3.87-6.1,5.78
				c-0.9,0.83-1.99,1.41-3.14,0.69c-1.15-0.73-0.92-2.03-0.75-3.17C987.38,252.41,992.62,248.25,995.43,248.28z"/>
			<path class="st0" d="M997.95,282.97c-3.07-1.82-4.01-4.73-2.54-7.66c1.58-3.14,4.9-4.82,7.98-6.41c0.86-0.45,1.4,0.65,1.17,1.57
				c-0.48,1.94-0.93,4.07-2.8,5.09c-3.09,1.69-3.64,4.5-3.94,7.54L997.95,282.97z"/>
			<path class="st0" d="M760.52,385.24c-0.68,2.48-1.8,5.11-4.49,5.32c-2.35,0.19-4.91-2.32-4.78-4.16c0.21-2.97,3.7-4.17,6.18-4.95
				C759.48,380.8,760,383.42,760.52,385.24z"/>
			<path class="st0" d="M1054.05,673.94c-3.86,9.68-9.69,18.07-16.87,25.55C1042.57,690.82,1049.29,683.03,1054.05,673.94z"/>
			<path class="st0" d="M940.64,239.79c-1.88-0.33-1.66-1.51-0.64-2.74c2.53-3.06,5.22-5.97,8.92-7.7c1.2-0.56,2.36-1,2.38,0.97
				C951.32,231.99,942.57,239.82,940.64,239.79z"/>
			<path class="st0" d="M1017.24,247.48c-1.31,2.96-2.68,5.84-5.15,7.94c-1.08,0.92-2.49,2.41-3.84,0.85c-1.1-1.27-1.17-3.66,0-4.62
				c2.29-1.87,4.78-3.46,6.92-5.59C1016.33,244.92,1017.22,246.04,1017.24,247.48z"/>
			<path class="st0" d="M790.23,279.35c-0.82-7.28,4.12-13.21,4.78-20.14c-0.89,6.84,0.17,14.16-4.89,20.01
				C790.13,279.22,790.23,279.35,790.23,279.35z"/>
			<path class="st0" d="M970.69,263.68c-1.63-0.09-2.61-0.56-2.74-1.98c-0.15-1.67,4.47-6.41,6.24-6.46
				c1.51-0.04,2.39,0.97,1.96,2.14C975.12,260.2,972.43,261.7,970.69,263.68z"/>
			<path class="st0" d="M983.09,267.05c2.01,0.41,1.67,2.04,2.15,3.15c1.17,2.68-0.94,3.41-2.63,4.4c-1.04,0.61-2.21,1.15-3.15,0.1
				c-1.69-1.9,0.44-2.88,1.23-4.14C981.46,269.33,982.32,268.16,983.09,267.05z"/>
			<path class="st0" d="M1053.43,760.29c-2.62,5.08-7.17,8.45-11.15,12.4c-0.4-0.4-0.8-0.8-1.2-1.2
				C1045.2,767.76,1049.32,764.02,1053.43,760.29z"/>
			<path class="st0" d="M979.96,295.77c1.75,0.21,2.64,1.07,2.25,2.68c-0.55,2.3-2.09,3.75-4.46,4.03c-1.08,0.13-2.06-0.5-1.72-1.77
				C976.63,298.49,977.21,296.13,979.96,295.77z"/>
			<path class="st0" d="M1211.36,856.84c2.17-3.99,4.34-7.97,6.5-11.96c0.41,0.22,0.82,0.44,1.23,0.66
				c-1.02,4.6-3.5,8.42-6.47,11.98C1212.21,857.29,1211.79,857.07,1211.36,856.84z"/>
			<path class="st0" d="M944.98,790.7c0.5,2.07-0.3,3.6-0.78,5.12c-0.48,1.52-1.49,2.84-3.32,1.85c-1.92-1.03-1.12-2.54-0.15-3.76
				C941.74,792.63,942.89,791.43,944.98,790.7z"/>
			<path class="st0" d="M761.08,335.14c-0.5-1.92-0.98-3.3-1.19-4.72c-0.23-1.56-0.68-3.76,1.64-3.78c2.21-0.02,2.08,2.27,1.88,3.79
				C763.2,332.01,763.74,334.12,761.08,335.14z"/>
			<path class="st0" d="M1005.6,193.99c-3.17-1.54-6.21-0.51-6.97-3.81c-0.24-1.02,0.41-2.06,1.53-2.17
				C1003.59,187.65,1003.8,190.62,1005.6,193.99z"/>
			<path class="st0" d="M1029.81,767.92c2.79-2.7,5.58-5.4,8.37-8.11c0.33,0.38,0.67,0.76,1,1.14c-2.82,2.69-5.13,5.98-9.48,6.87
				C1029.68,767.82,1029.81,767.92,1029.81,767.92z"/>
			<path class="st0" d="M868.05,686.6c1.46,0.18,1.73,1.31,1.77,2.51c0.03,1.12,0.17,2.73-1.35,2.7c-1.56-0.03-1.88-1.65-1.97-3.01
				C866.43,687.75,866.74,686.83,868.05,686.6z"/>
			<path class="st0" d="M997.82,283.1c0.65-0.02,1.31-0.11,1.96-0.04c1.4,0.13,2.43-2.6,3.78-0.83c0.88,1.15-0.35,2.54-1.48,3.23
				c-2.29,1.4-3.23-0.17-3.94-2.04c-0.06-0.15-0.12-0.3-0.19-0.45C997.95,282.97,997.82,283.1,997.82,283.1z"/>
			<path class="st0" d="M1069.29,595.84c-2.74,4.49-5.57,9.13-10.2,11.55c-9.6,5-18.39,11.7-30.19,12.02
				c-6.98,0.19-13.5,4.26-20.49,5.84c-6.14,1.39-12.15,1.53-18.3,0.9c-1.73-0.18-3.17-0.97-4.53-1.95
				c-0.94-0.69-2.08-1.51-1.27-2.83c0.68-1.11,1.7-0.31,2.64-0.01c9.36,2.97,18.79,2.52,27.87-0.71c7.41-2.64,14.94-4.23,22.6-5.83
				c8.26-1.73,15.51-6.5,22.37-11.49C1063.04,600.97,1066.29,598.6,1069.29,595.84z"/>
			<path class="st0" d="M967.49,495.63c-3.87,8.34-10.73,14.15-17.3,20.07c-6.16,5.54-13.04,10.28-19.58,15.39
				c-4.39,3.43-9.49,5.47-14.58,7.52c-1.55,0.62-3.62,1.08-4.28-1c-0.8-2.53,1.59-2.28,3.09-2.71
				c10.88-3.07,19.33-10.14,27.71-17.19C951.05,510.57,959.2,503.01,967.49,495.63z"/>
			<path class="st0" d="M899.8,528.72c-3-1.17-6.41-2.44-9.74-3.85c-0.95-0.4-1.49-1.39-0.93-2.49c0.68-1.33,1.9-1.14,3.06-0.87
				c2.89,0.67,5.46,2.21,8.61,2.31c9.06,0.28,15.04-5.45,21.51-10.36c4.24-3.21,8.47-6.43,12.76-9.56c1.2-0.88,2.96-1.9,3.95-0.25
				c1.17,1.95-0.93,2.28-2.23,2.93c-7.36,3.69-12.83,9.86-19.15,14.9C912.43,525.65,906.42,527.09,899.8,528.72z"/>
			<path class="st0" d="M915.02,408.58c-3.55,5.76-7.82,10.07-12.17,14.33c-6.4,6.27-12.73,12.61-19.29,18.71
				c-2.52,2.35-5.56,4.15-8.41,6.11c-0.69,0.48-1.72,0.52-2.19-0.36c-0.46-0.87,0.17-1.53,0.9-2.04
				c14.21-9.78,25.9-22.25,37.34-34.98C911.94,409.52,912.59,408.43,915.02,408.58z"/>
			<path class="st0" d="M779.55,414.51c1.01-10.39,4.12-19.99,10.09-28.58c1.08,3.93-1.62,6.76-2.75,9.96
				c-1.13,3.19-2.11,6.26-2,9.61C785.02,409.47,783.41,412.5,779.55,414.51z"/>
			<path class="st0" d="M1079.31,397.77c-2.76-6.32-5.53-12.63-8.25-18.97c-0.39-0.92-0.54-2.09,0.76-2.46
				c1.17-0.33,2.1,0.62,2.22,1.52c0.99,6.89,5.33,12.7,6.52,19.51C1080.15,397.5,1079.73,397.64,1079.31,397.77z"/>
			<path class="st0" d="M1081.74,404.53c1.57,2.24,2.19,4.55,1.21,7.89C1081.18,409.44,1080.81,407.07,1081.74,404.53z"/>
		</g>
	</g>
</g>
</svg>
