<?xml version="1.0" encoding="utf-8"?>
<!-- Generator: Adobe Illustrator 28.0.0, SVG Export Plug-In . SVG Version: 6.00 Build 0)  -->
<svg version="1.1" id="Layer_1" xmlns="http://www.w3.org/2000/svg" xmlns:xlink="http://www.w3.org/1999/xlink" x="0px" y="0px"
	 viewBox="0 0 1920 1080" style="enable-background:new 0 0 1920 1080;" xml:space="preserve">
<style type="text/css">
	.st0{fill:none;stroke:#231F20;}
</style>
<g>
	<g>
		<g>
			<path d="M827.51,340.97c5.33-1.47,9.88-0.19,14.68,2.35c10.63,5.62,22.33,8.05,34.21,9.52c2.01,0.25,3.39-1.06,3.12-2.99
				c-0.47-3.43-0.19-6.96-1.75-10.27c-5.6-11.89-8.62-24.5-9.6-37.56c-0.89-11.94,3.31-23.39,10.69-31.47
				c9.28-10.18,20.5-18.94,35.48-21.6c11.59-2.06,22.94-2.1,33.98,0.56c15.65,3.78,27.69,13.23,35.59,27.56
				c2.68,4.86,4.49,9.89,5.16,15.49c0.63,5.25,5.28,8.78,6.99,13.63c3.2,9.07,6.17,18.24,4.06,28.06c-0.47,2.17-0.3,3.88,1.13,5.55
				c2.32,2.69,3.94,5.77,4.74,9.25c2.27,9.9,10.19,13.82,18.65,15.7c9.8,2.18,17.52,6.92,23.67,14.45
				c3.58,4.38,7.87,8.25,8.82,14.56c0.38,2.51,3.82,4.46,5.56,6.88c8.18,11.34,17.09,22.13,24.63,33.94
				c2.07,3.24,3.22,6.89,5.2,10.21c3.27,5.47,6.37,10.66,12.38,13.8c3.59,1.88,4.65,6.51,6.39,9.85c3.71,7.14,9.66,13.57,8.13,22.99
				c-0.67,4.14,4.11,7.01,6.65,10.09c7.32,8.87,15.26,17.21,26.8,20.83c1.87,0.59,3.62,1.64,4.99,3.21
				c18.92,21.65,36.94,43.89,52.82,68.01c7.6,11.54,16.08,22.8,24.88,33.64c3.45,4.25,8.42,6.92,11.74,11.45
				c1.76,2.4,5.53,2.21,8.44,2.41c9.26,0.61,14.14,6.95,16.67,14.35c3.47,10.17,5.33,20.89,7.8,31.39c0.44,1.88,0.76,3.41,3.17,3.79
				c10.93,1.71,14.73,11.65,9.05,20.92c-5.04,8.23-12.33,14.59-17.2,22.86c-2.68,4.55-8.17,4.76-12.2,7.26
				c-0.22,0.14-0.76,0.09-0.94-0.09c-6.19-6.13-15.17-3.15-22.27-6.96c-6.53-3.5-13.23-8.79-11.54-18.47
				c2.31-13.24,0.25-26.5-2.99-39.49c-0.27-1.08-0.98-2.12-1.69-3.02c-5.68-7.17-11.41-14.31-17.15-21.43
				c-0.62-0.76-1.4-1.44-2.22-1.99c-0.8-0.53-1.76-1.18-2.7-0.28c-0.7,0.67-0.38,1.53-0.13,2.33c3.47,11,5.21,22.25,5.03,33.81
				c-0.04,2.47,0.19,5.08,0.97,7.39c4.17,12.24,0.91,23.56-5.09,33.98c-3.7,6.42-5.14,13.73-9.16,19.86
				c-3.25,4.95-3.46,11.03-6.66,16.03c-7.89,12.33-19.88,19.46-31.7,27.36c-10.07,6.73-21.99,5.77-32.16,10.88
				c-1.48,0.74-3.13,1.14-4.66,1.8c-5.03,2.17-5.88,4.53-3.38,9.41c1.9,3.71,3.9,7.36,5.8,11.07c1.53,3,2.79,6.3,2.65,9.56
				c-0.48,11.07,1.56,21.73,3.85,32.48c1.05,4.92,0.09,10.26,0.03,15.41c-0.01,0.83-0.38,1.87-0.01,2.47
				c4.39,7.16,3.28,15.73,6.43,23.43c5.71,13.93,10.92,28.18,13.92,43.11c1.17,5.81,3.75,11.35,5.77,16.98
				c0.57,1.58,1.75,3.41,0.8,4.75c-2.91,4.12-1.15,7.33,1.18,10.82c2.49,3.72,1.12,6.54-1.56,10.14c-3.93,5.29-8.41,5.51-14.38,6.04
				c-19.85,1.78-38.56-4.03-57.63-7.26c-11.12-1.88-21.29-7.39-31.87-11.29c-4.8-1.77-9.77-11.54-7.82-15.94
				c2.22-5.01,7.08-7.87,12.33-9.16c4.84-1.18,9.68-2.4,14.51-3.53c5.51-1.29,9.69-4.44,13.76-7.73c5.28-4.27,7.31-17.29,4.69-24.16
				c-6.75-17.68-15.91-34.19-24.94-50.72c-2.8-5.13-5.97-10.24-9.14-15.26c-2.25-3.55-7.29-3.97-8.57-8.41
				c-0.19-0.65-1.55-0.35-2.28,0.09c-4.38,2.61-9.15,4.33-13,8.14c-6.6,6.52-14.11,12.13-18.48,20.65
				c-0.74,1.43-2.33,2.44-3.76,1.94c-7.09-2.47-9.1,2.63-11.17,7.38c-3.53,8.09-3.43,8.12-11.19,5.26c-1.2-0.44-2.54-1.37-3.72-0.21
				c-1.21,1.19-0.31,2.53,0.28,3.67c5.55,10.67,7.45,22.43,9.16,34.04c2.28,15.46,3.5,31.08,4.82,46.66
				c0.41,4.9,2.4,9.29,3.15,14.08c1.75,11.11,1.79,22.57,6.07,33.21c1.32,3.28,3.94,5.89,4.14,9.83c0.09,1.89,2.69,1.77,4.22,1.05
				c3.56-1.67,7.29-2.17,11.14-2.47c3.5-0.27,5.15-2.59,5.72-5.93c1.54-9.03,7.33-13.42,16.55-12.68c3.48,0.28,6.97,0.49,10.46,0.73
				c1.48,0.1,3.15,0.5,4.05-1.11c1.03-1.83-0.29-3.22-1.39-4.41c-2.82-3.05-5.77-5.97-8.66-8.95c-1.81-1.86-3.03-4.01-2.9-6.67
				c0.07-1.42,0.71-2.68,2.38-2.68c1.49,0,2.08,1.15,1.87,2.41c-0.63,3.83,2,5.79,4.36,7.86c2.65,2.32,4.95,4.9,7,7.77
				c1.54,2.15,2.79,4.32,1.23,6.87c-1.58,2.58-4,3.94-7.12,3.82c-3-0.11-6-0.39-8.99-0.34c-9.58,0.16-14.29,0.76-15.85,11.39
				c-0.81,5.52-3.9,7.29-8.87,7.21c-0.17,0-0.33,0.01-0.5,0.02c-11.25,0.86-12.26,2.82-6,12.3c4.27,6.47,4.7,14.07,6.34,21.24
				c1.79,7.83,5.72,15.41,3.54,23.94c-0.57,2.22,1.49,2.97,3.54,3.18c14.57,1.45,29.06-1.09,43.62-0.9
				c6.66,0.08,7.72-2.01,9.25-8.63c0.89-3.86,2.43-7.61,3.99-11.27c3.74-8.79,11.51-9.28,19.36-8.61c9.49,0.8,18.96,0.79,28.46,0.72
				c3.89-0.03,7.41-0.74,9.06-4.77c1.71-4.16-0.5-6.9-3.55-9.43c-1.82-1.52-3.8-2.67-5.86-3.75c-10.76-5.61-21.28-11.62-31.42-18.29
				c-2.15-1.41-4.4-2.87-3.68-5.87c0.71-2.95,2.76-4.28,5.95-4.11c3.15,0.17,4.41-1.99,4.64-4.77c0.46-5.48,3.61-7.3,8.78-7.21
				c6.59,0.11,13.35,1.47,19.58-2.13c1.01-0.58,2.4-0.39,3.04,0.89c0.77,1.54-0.22,2.58-1.4,3.29c-2.57,1.56-5.2,3.04-8.38,2.82
				c-3.65-0.26-7.3-0.48-10.95-0.77c-4.69-0.38-7.34,1.42-7.3,6.45c0.03,3.29-1.21,5.51-5.04,5.19c-1.31-0.11-2.84-0.22-3.42,1.35
				c-0.58,1.58,0.65,2.48,1.74,3.22c9.61,6.53,18.94,13.53,29.84,17.92c8.52,3.44,12.02,10.81,9.26,19.09
				c-0.64,1.91-1.62,3.1-3.76,3.44c-9.75,1.54-19.53,1.49-29.33,0.77c-1.99-0.15-3.98-0.43-5.98-0.51
				c-11.46-0.4-18.42,5.44-20.09,16.83c-1.38,9.41-7.46,14.35-17.27,13.37c-6.47-0.65-12.88-1.38-19.41-1.25
				c-3.53,0.07-6.76,0.48-10.2,1.48c-5.61,1.63-11.12-0.69-16.39-2.59c-1.72-0.62-3.16-1.7-5.13-1.18
				c-9.81,2.57-19.58,2.69-29.65,0.97c-5.29-0.9-10.92,0.7-15.99,3.04c-6.08,2.81-12.56,4.34-18.96,6.12
				c-1.43,0.4-2.96,0.58-4.44,0.62c-1.24,0.04-3.15,0.52-3.4-1.11c-0.29-1.83,1.74-1.59,2.92-1.86c5.69-1.3,11.25-2.98,16.68-5.12
				c1-0.4,2.63-0.62,2.21-2.15c-0.39-1.44-2-1.11-3.03-0.92c-4.42,0.79-8.85,1.6-13.19,2.71c-3.88,0.99-7.72,2-11.71,2.5
				c-2.02,0.25-4.84-0.12-5.61,2.38c-0.81,2.64,3.06,2.06,3.7,4.44c-3.45,1.66-7.23,2.04-10.95,1.92c-4.55-0.15-9.1,0.06-13.39,1.26
				c-10.09,2.84-19.41-0.12-28.8-3.02c-8.19-2.53-11.14-9.37-13.43-16.68c-0.45-1.42,0.18-2.79,1.29-3.56
				c5.88-4.13,10.66-10.52,18.9-10.02c9.32,0.57,17.45-3.31,25.81-6.4c5.52-2.04,11.54-1.71,16.88-5.35
				c7.97-5.45,13.12-12.48,16.21-21.37c1.53-4.39,3.32-8.71,4.64-13.16c2-6.78-0.44-13.19-2.3-19.54
				c-5.29-18.07-13.09-35.1-22.4-51.4c-2.85-4.99-5.93-9.89-9.45-14.55c-6.16-8.17-11.28-17.12-17.19-25.49
				c-8.42-11.93-12.92-25.75-19.26-38.68c-1.1-2.24-2.06-4.58-3.44-6.63c-6.53-9.75-11.5-20.21-14.91-31.44
				c-0.42-1.37-1.53-2.55-2.42-3.74c-4.32-5.73-5.95-12.18-5.26-19.28c0.16-1.65,0.74-3.52,0.21-4.94
				c-2.22-5.96,0.77-9.94,4.15-14.39c19.6-25.79,44.3-45.76,71.53-62.76c8.06-5.03,16.42-9.66,25.38-13.12
				c8.64-3.34,15.73-9.35,22.79-15.15c5.42-4.46,10.92-8.7,17.11-12.02c3.13-1.68,4.12-3.4,0.56-5.7c-1.4-0.9-2.05-2.3-1.52-3.89
				c2.52-7.58,2.62-15.72,5.46-23.21c1.12-2.94,0.15-5.31-1.91-7.23c-15.19-14.18-24.23-32.39-32.94-50.73
				c-7.22-15.21-10.09-31.59-10.74-48.25c-0.42-10.79-1.46-21.55-1.69-32.37c-0.16-7.37-4.37-14.89-7.71-21.91
				c-4.29-9.02-5.16-18.82-5.24-28.16c-0.12-14.1-6.16-23.63-17.28-30.81c-8.76-5.65-17.78-10.87-26.59-16.44
				c-2.8-1.77-5.58-2.7-8.93-2.43c-6.36,0.52-11.34-1.77-14.6-7.54c-1.9-3.36-4.57-6.14-7.7-8.44c-2.82-2.07-5.73-2.49-9.35-2.13
				c-10.38,1.03-20.01-0.03-30.27-4.49c-15.29-6.65-28.71-16.59-44.18-22.71c-7.55-2.99-14.69-6.99-22.02-10.53
				c-2.26-1.09-4.56-2.23-7.15-1.9c-5.13,0.64-9.95,0.14-14.29-3.02c-2.04-1.49-3.66-0.45-5.24,1.12
				c-6.5,6.46-14.33,10.57-23.5,10.46c-6.66-0.08-13.16,1.07-19.75,1.18c-4.34,0.07-9.57-6.1-10.24-12.58
				c-0.42-4.03-1.58-7.33-4.64-10.1c-2.71-2.46-2.73-5.9-1.15-8.78c2.64-4.85,3.76-9.92,3.76-15.33c0-4.33,1.93-7.43,5.98-8.87
				c4.41-1.58,6.28-6.06,10.44-8.21c8.28-4.29,17.15-3.66,25.8-4.22c4.29-0.28,7.3,4.28,10.95,6.55c3.52,2.19,6.5,5.32,10.14,7.24
				c12.35,6.53,25.57,10.4,39.58,10.32c8.86-0.05,17.6,1.02,26.41,1.41c1.89,0.08,4.03,0.04,5.25,2.08
				c-0.25,0.31-0.43,0.75-0.63,0.76c-18.27,0.7-36.63,2.37-54.53-3.02c-3.54-1.07-6.82-2.52-10.61-1.8c-1,0.19-2-0.18-2.68-1.03
				c-6-7.53-15.44-10.58-22.22-17.09c-0.45-0.43-1.21-0.85-1.79-0.81c-7.06,0.61-14.67-0.78-21.01,2.54
				c-4.78,2.5-9.81,4.84-14.27,8.06c-1.23,0.88-2.82,1.56-2.84,3.23c-0.09,6.12-2.59,11.62-4.2,17.36
				c-0.94,3.39-0.59,6.55,2.53,8.99c2.35,1.83,3.37,4.54,3.78,7.4c0.55,3.85,1.71,7.52,6.09,7.92c4.87,0.44,6-3.77,7.39-7.33
				c0.17-0.44,0.45-0.84,0.89-1.66c2.16,3.1,4.1,6.02,6.2,8.82c0.76,1.01,1.97,2.34,3.25,0.93c0.91-1-0.12-2.21-0.89-3.06
				c-1.45-1.62-4.94-3.54-2.8-5.26c2.3-1.85,3.24,2.1,4.59,3.77c0.62,0.77,1.41,1.41,2.09,2.14c1.26,1.33,2.82,2.39,4.17,0.54
				c1.39-1.9-0.76-2.41-1.88-3.25c-1.79-1.33-3.58-2.41-0.95-4.95c1.53-1.48-0.45-3.36-1.06-5.01c-0.47-1.27-1.03-2.9,0.45-3.54
				c1.76-0.76,2.2,1.08,2.53,2.28c1.37,5.05,5.29,7.92,9.09,10.92c0.77,0.61,1.81,1.36,2.67,0.5c1.04-1.04-0.18-1.75-0.83-2.41
				c-0.97-0.97-1.97-2.02-1.68-3.44c0.36-1.75,0.65-4.08,3.44-2.04c0.79,0.58,1.96,1.57,2.56,1.34c9.89-3.77,16.72,6.54,26.33,5.43
				c6.75-0.78,12.54,4.07,18.4,7.12c17.1,8.89,34.96,16.37,50.94,27.39c5.59,3.85,12.53,2.93,18.85,4.17
				c6.25,1.23,12.49,0.77,18.66-1.17c1.89-0.59,3.39-1.25,2.77-3.23c-2.98-9.57-0.17-18.41,3.19-27.18
				c1.64-4.27,1.73-8.16-0.93-12.2c-1.38-2.08-2.42-3.46-4.41-1.22c-1.76,1.99-3.05,1.26-5.15,0.47
				c-7.31-2.77-13.16-8.23-20.17-11.09C836.03,346.38,832.55,342.44,827.51,340.97z M1068.6,520.84c1.45,9.25,8.62,13.54,14.41,18.8
				c6.62,6.01,15.19,10.44,19.01,18.76c4.53,9.85,12.15,16.85,19.97,23.27c11.55,9.48,23.94,18.09,36.65,25.96
				c15.87,9.82,27.81,24.28,43.01,34.79c8.03,5.55,13.48,13.72,20.69,20.12c3.19,2.83,6.42,5.88,7.99,10.1
				c1.08,2.9-0.41,5.92,0.59,8.89c3.43,10.21,2.57,20.73,1.35,31.12c-0.4,3.43,0.2,6.16,1.45,9.07c2.18,5.04,6.75,7.48,11.01,10.3
				c2.39,1.59,3.58-0.76,5.32-1.34c1.51-0.51,1.97,0.78,2.56,1.78c0.64,1.1,1.51,2.03,2.74,0.89c1.08-1.01,0.47-2.03-0.37-3.03
				c-2.77-3.29-8.62-3.3-9.3-8.92c-0.11-0.89-2.02-0.83-3.2-0.86c-3.92-0.12-4.44-2.84-4.41-5.9c0.01-0.98,0.11-2.15,1.14-2.61
				c1.26-0.56,1.76,0.61,2.2,1.43c1.07,2.01,2.75,2.76,4.93,2.76c1.39,0,2.97,0.35,3.46,1.63c2.7,7.03,10.9,8.49,14.56,14.6
				c1.14,1.91,3.55,2.41,5.85,1.61c1.05-0.36,1.61-1.25,1.45-2.34c-0.32-2.25-1.95-3.45-3.91-4.13c-5.39-1.85-8.85-5.46-10.59-10.87
				c-1.06-3.31-1.98-6.78-6.44-7.31c-1.43-0.17-1.95-1.71-1.79-3.18c0.14-1.22,0.95-1.83,2.09-1.45c3.23,1.09,6.86,0.92,9.44,3.96
				c3.43,4.05,8.06,6.99,11.08,11.47c1.58,2.34,4.2,2.49,6.56,3.19c1.9,0.56,3.3-0.05,4.08-1.85c0.72-1.67,0.58-3.27-0.81-4.59
				c-1.07-1.01-2.8-1.38-3.21-3.01c-1.51-5.99-6.19-8.59-11.33-10.72c-1.21-0.5-2.87-0.89-2.25-2.64c0.57-1.63,2.19-1.24,3.47-0.89
				c4.92,1.38,9.13,4,12.73,7.59c1.71,1.7,3.35,3.5,6.01,2.25c1.5-0.7,3.76-2.7,3.13-3.4c-2.44-2.74-0.83-6.31-2.51-9
				c-0.36-0.57-1.14-0.11-1.79,0.16c-3.55,1.47-10.59-2.57-10.3-6.35c0.97-12.71-4.07-23.81-9.14-34.78
				c-2.17-4.7-5.84-8.89-10.94-11.15c-1.9-0.84-4.16-1.43-5.04,1.2c-1.21,3.62-2.39,2.44-3.71,0.25
				c-3.28-5.45-7.3-10.22-12.19-14.33c-2.13-1.79-3.97-4.06-5.53-6.38c-2.33-3.49-4.43-7.09-8.49-8.86
				c-1.2-0.53-1.89-1.36-1.69-2.72c0.54-3.7-1.81-4.14-4.6-4.1c-2.48,0.04-5.03,0.21-6.07-2.81c1.17-1.38,3.22,1.62,3.75-0.95
				c0.42-2.04-1.23-3.46-2.37-4.75c-2.42-2.75-4.3,0.57-6.89,1.16c1.41-3.64,3.28-6.99,1.3-10.67c-0.83-1.55-1.93-2.96-3.82-2.64
				c-2.26,0.37-1.69,2.53-2,4.06c-0.38,1.82,1.25,3.03,1.56,4.64c0.2,1.05-0.01,2.1-1.13,2.46c-0.49,0.15-1.65-0.22-1.69-0.48
				c-0.56-3.74-6.01-6.73-1.76-11.21c0.87-0.92,1.39-2.33,0.17-3.05c-4.11-2.43-3.26-6.58-3.83-10.22
				c-0.26-1.64,0.06-3.56-1.17-4.77c-4.77-4.69-8.28-10.34-12.18-15.67c-3.95-5.39-9.45-9.34-13.21-14.9
				c-7.15-10.57-16.64-17.67-29.48-20.07c-4.88-0.91-10.31-2.49-10.24-8.88c0.07-6.54-4.47-10.09-7.88-14.46
				c-1.04-1.34-2.48-2.02-3.63-0.13c-1.99,3.28-2.83,1.49-3.84-0.68c-0.87-1.88-1.65-4.83-4.48-2.96c-3.7,2.44-9.27,2.11-11.05,7.56
				c-0.45,1.38-2.44,0.97-3.62,0.42c-4.82-2.22-7.57,0.72-10.88,3.56c-3.73,3.2-4.67,8.29-8.61,11.19
				c2.15-8.53,5.71-16.09,14.41-19.81c8.25-3.53,16.59-6.85,24.92-10.2c1.91-0.77,3.97-1.23,3.19-4.05
				c-1.89-6.91-9.61-13.5-16.46-14.12c-2.21-0.2-5.8,0.33-5.58-2.55c0.19-2.54,3.62-0.87,5.59-1.17c1.29-0.19,2.98,0.18,3.44-1.37
				c0.51-1.72-0.95-2.68-2.23-3.51c-1.29-0.85-2.76-1.11-4.28-1.18c-5.15-0.24-10.32-0.39-15.46-0.8
				c-5.92-0.47-12.02,0.74-17.72-1.9c-1.44-0.66-2.95-1.33-2.49-3.17c0.42-1.7,2-1.7,3.28-1.13c8.57,3.83,17.81,1.16,26.61,2.82
				c4.14,0.78,4.7-1.03,2.89-4.46c-5.63-10.64-12.18-20.65-20.29-29.57c-5.13-5.65-11.5-10.1-18.51-12.35
				c-12.85-4.13-25.74-9.67-39.86-5.91c-0.35,0.09-0.83-0.31-1.31-0.51c2.83-2.49,13.2-5.44,16.61-4.31
				c9.59,3.18,20.03,3.5,29.06,8.57c0.83,0.47,2.04,0.92,2.61-0.22c0.26-0.53-0.15-1.66-0.61-2.23
				c-4.11-5.03-8.13-10.21-14.45-12.71c-6.78-2.69-13.56-5.4-20.7-7.05c-2.31-0.53-4.46-1.42-6.24-2.99
				c-0.88-0.78-1.83-1.85-1.06-3.01c0.84-1.26,2.22-0.65,3.11,0.05c7.12,5.62,16.41,5.21,24.25,8.8c0.87,0.4,1.99,1.02,2.78,0.11
				c1-1.14,0.04-2.22-0.64-3.1c-7.83-10.08-18.53-14.67-30.93-15.3c-3.34-0.17-6.86,2.44-10.16,2.15
				c-10.32-0.91-17.19,5.07-24.3,10.88c-1.5,1.22-2.94,2.63-5.31,2.17c0.41-2.55,2.37-3.37,3.92-4.5c3.23-2.35,6.89-4.24,9.71-7
				c3.44-3.37,7.12-4.48,11.74-3.96c2.47,0.28,4.99-0.28,7.26-1.49c0.89-0.48,1.75-1.17,1.71-2.27c-0.04-1.16-1.07-1.93-2.02-1.88
				c-5.48,0.24-11.15-1.54-16.24,2.56c-3.96,3.19-8.4,5.93-12.96,8.18c-7.55,3.73-13.06,9.76-17.86,16.17
				c-4.74,6.33-8.82,13.41-11.86,20.71c-2.81,6.77-6.77,13.73-5.39,21.48c2.94,16.5,4.53,33.11,5.87,49.8
				c0.65,8.05,1.21,16.36,5.23,24.09c3.09,5.93,6.09,12.43,6.4,19.32c0.56,12.49,1.42,24.92,3,37.33
				c1.28,10.05,1.02,20.48,5.42,29.81c4.93,10.47,7.72,21.78,14.56,31.59c6.59,9.45,10.68,20.64,20.57,27.66
				c0.91,0.65,1.63,1.67,2.23,2.65c3.39,5.56,9.81,7.01,15.16,3.13c2.27-1.65,4.4-3.63,6.15-5.81c8.89-11.07,18.83-21.1,29.31-30.63
				c1.97-1.79,3.87-3.64,5.9-5.36c0.79-0.67,1.92-0.85,2.65,0.15c0.57,0.79,0.09,1.64-0.5,2.24c-0.82,0.82-1.68,1.62-2.63,2.29
				c-6.3,4.47-10.84,10.77-16.52,15.89c-0.92,0.83-2.24,2.16-1.35,3.43c0.98,1.41,2.42,0.16,3.58-0.33
				c8.73-3.7,17.34-7.7,26.18-11.1c12.29-4.72,19.51-13.87,23.73-25.84c1.87-5.31,5.78-8.3,11.24-11.39
				c-0.78,4.04-2.76,5.92-4.12,8.15c-1.22,2.01-4.37,4.09-2.14,6.39c2.52,2.59,5.13-0.28,7.47-1.69c0.55-0.33,1.06-0.86,1.4-1.41
				c1.86-3.05,4.11-4.37,7.91-3.16c3.11,0.99,4.85-1.63,6.15-4.01c1.43-2.62-0.63-4.09-2.38-5.29c-4.14-2.84-7.84-6.16-11.31-9.76
				c-1.74-1.81-3.56-2.11-5.79-0.69c-11.67,7.45-24.6,12.32-37.11,18.05c-1.73,0.79-4.27,2.05-5.15-0.57
				c-0.81-2.41,1.94-2.53,3.59-3.1c12.31-4.32,23.43-11.14,35.06-16.88c2.88-1.42,2.63-3.55,1.13-5.8
				c-1.42-2.13-2.86-5.79-5.93-3.39c-6.09,4.77-13.03,7.44-20.05,10.26c-9.24,3.71-17.51,9.76-27.38,11.95
				c-3.92,0.87-7.72,1.81-11.39,3.52c-7.22,3.36-14.77,3.84-22.43,1.55c-1.36-0.41-3.37-0.94-2.76-2.84c0.6-1.88,2.5-1.15,3.89-0.74
				c6.59,1.94,13,1.91,19.5-0.7c6.48-2.61,13.13-4.81,19.75-7.05c3.64-1.23,6.94-3.07,10.34-4.82c6.48-3.34,12.67-7.44,19.75-9.42
				c3.4-0.95,6.02-2.6,8.35-5.09c2.38-2.54,2.89-4.55-0.55-6.8c-2.32-1.52-4.17-3.79-6.15-5.81c-1.95-2-4.14-2.57-6.06-0.4
				c-3.09,3.48-7.04,4.69-11.39,5.47c-4.24,0.77-8.61,1.45-12.57,3.04c-7.89,3.15-16.03,5.34-24.16,7.67
				c-3.64,1.04-6.68,0.11-9.67-1.98c3.28-0.01,6.72,0.68,9.63-0.83c6.61-3.45,14.18-3.34,20.98-6.1c7.36-2.97,15.47-4.08,22.15-8.77
				c1.41-0.99,3.59-1.8,2.96-4.11c-0.59-2.18-2.74-2.75-4.63-3.41c-1.95-0.67-3.5,0.41-5.16,1.22c-4.15,2.02-8.08,5.41-12.99,4.46
				c-7.47-1.45-15.21-1.97-22.31-4.88c-3.78-1.55-7.59-2.52-11.56-2.89c-5.02-0.47-9.87-1.71-14.63-3.15
				c-6.38-1.94-12.61-4.37-17.28-9.53c-0.91-1.01-2.13-2.03-0.79-3.35c1.27-1.25,2.5-0.25,3.46,0.69c2.38,2.34,4.65,4.79,8.02,5.76
				c18.16,5.2,36.08,11.37,55.18,12.62c4.22,0.28,7.89,0.26,11.04-2.87c1.07-1.07,2.52-1.99,1.67-3.72
				c-0.79-1.62-2.41-1.54-3.95-1.29c-8.44,1.34-14.12-2.11-18.56-9.36c-2.97-4.86-6.86-9.44-14.1-8.09
				c-3.36,0.63-5.99-1.64-7.54-4.72c-1.05-2.08-1.98-4.22-2.96-6.34c-1.62-3.48-4.11-4.91-8.07-4.04c-4.06,0.9-8.2,1.45-12.33,1.95
				c-4.95,0.6-9.95,1.27-14.81-0.58c-1.08-0.41-2.57-0.87-2.24-2.25c0.45-1.91,2.01-1.1,3.28-0.77c7.51,1.98,14.87-0.2,22.28-0.88
				c1.09-0.1,2.55-0.22,2.6-1.77c0.05-1.41-1.26-1.89-2.31-2.31c-1.38-0.55-2.83-1.03-4.3-1.26c-5.56-0.89-11.23-1.31-16.7-2.59
				c-7.01-1.64-13.52-4.61-18.63-9.98c-1.02-1.07-2.48-2.45-1.19-3.85c1.61-1.74,3.01-0.08,4.13,1.13
				c6.21,6.71,14.26,9.57,22.99,11.01c1.57,0.26,3.6,1.23,4.34-0.94c0.66-1.93-1.09-2.92-2.61-3.71
				c-9.31-4.79-17.34-11.05-23.43-19.71c-5.36-7.62-11.1-14.97-15.35-23.32c-0.68-1.34-1.43-3.24,0.16-4.04
				c1.93-0.97,2.32,1.2,2.93,2.47c2.8,5.84,5.69,11.68,9.76,16.73c5.52,6.85,10.47,14.24,17.47,19.79c1.09,0.86,2.28,2.78,3.74,1.35
				c1.68-1.64-0.35-2.96-1.28-4.2c-3.38-4.5-7.1-8.67-10.24-13.44c-4.99-7.57-5.99-16.09-8.01-24.41c-0.82-3.4-1.28-6.89-0.69-10.41
				c0.19-1.12,0.21-2.63,1.66-2.72c1.87-0.11,1.75,1.64,2,2.89c0.13,0.65,0.11,1.33,0.18,1.99c1.61,15.97,5.4,31.19,16.66,43.36
				c6.91,7.47,11.54,17.23,21.63,21.59c3.66,1.58,7.4,3.27,10.54,5.66c4.61,3.51,9.36,3.9,14.61,2.4c4-1.14,8-2.29,12.02-3.36
				c0.94-0.25,2.14-0.33,2.4,1.02c0.19,0.98-0.59,1.52-1.45,1.7c-6.98,1.45-13.11,5.97-20.59,5.66c-1.84-0.08-4.58-0.75-4.35,2.43
				c0.19,2.61,2.09,4.14,4.85,4c3.54-0.18,6.87-1.1,9.96-2.94c4.91-2.91,10.65-3.81,15.6-6.79c-0.65,2.75-2.81,3.46-4.62,4.35
				c-2.84,1.39-5.86,2.41-8.37,4.41c-2.3,1.84-2.82,3.69,0.12,5.45c2.37,1.42,3.91,3.59,5.2,5.95c1.68,3.06,4.37,5.03,7.3,6.63
				c3.79,2.07,5.54,1.12,6.12-3.06C1066.96,524.58,1066.56,522.82,1068.6,520.84z M1041.26,825.96c6.72,0.5,13.01-0.02,19.32-3.3
				c7.63-3.96,14.97-8.77,23.6-10.64c1.64-0.36,4.33-0.6,3.73-3.02c-0.51-2.08-3.16-1.77-4.8-1.41c-4.36,0.96-8.55,3.4-12.76,3.93
				c-11.49,1.45-23.22,0.73-34.6,3.64c-0.92,0.24-2.15-0.15-2.32-1.37c-0.21-1.47,0.92-2,2.14-2.24c8.28-1.67,16.4-4.1,25.04-3.79
				c12.83,0.46,24.83-4.91,37.63-5.68c7.45-0.45,14.67-4.18,22.43-4.35c1.48-0.03,3.35-0.09,3.48-2.03c0.13-1.9-1.68-2.43-3.13-2.57
				c-9.41-0.87-18.21-5.45-27.99-4.38c-2.5,0.27-5.21-0.9-7.74-1.68c-1.46-0.45-2.82-1.57-2.07-3.37c0.68-1.62,2.2-1.23,3.46-0.68
				c1.72,0.74,3.45,1.02,5.34,0.97c5.87-0.15,11.61,0.49,17.14,2.74c6.84,2.79,14.27,3.21,21.41,4.58
				c7.72,1.47,14.76-1.38,21.59-5.62c11.76-7.29,23.31-14.55,29.81-27.41c7.19-14.22,13.65-28.79,19.39-43.65
				c1.76-4.54,3.22-9.64,1.87-14.7c-3.59-13.47-1.87-27.57-5.05-41.04c-1.45-6.13-0.63-13.36-6.42-17.72
				c-7.18-5.4-13.03-12.21-19.95-17.92c-6.14-5.07-10.98-8.87-20.41-7.36c-11.72,1.88-22.26,5.1-31.78,11.8
				c-10.87,7.66-21.21,16.1-32.36,23.32c-10.83,7.02-22.59,12.56-34.62,17.28c-5.41,2.12-9.79,5.56-14.27,8.96
				c-1.22,0.93-2.66,2.48-1.49,4.29c1.01,1.56,2.75,0.94,4.13,0.48c9.09-3.01,18.39-5.69,24.68-13.77c0.59-0.75,1.51-1.63,2.36-1.73
				c4.48-0.53,8.06-2.93,11.74-5.21c1.28-0.8,2.85-1.16,4.25-0.19c0.45,0.31,0.92,1.18,0.79,1.63c-0.5,1.77-2.18,1.91-3.63,2.08
				c-5.88,0.65-10.34,3.4-13.26,8.59c-1.02,1.82-2.71,2.77-4.51,3.76c-13.8,7.56-28.65,12.55-43.58,17.09
				c-11.01,3.34-21.35,7.8-29.84,15.33c-11.33,10.05-23.61,18.28-37.55,24.15c-3.36,1.42-6.87,2.39-10.12,4.2
				c-16.85,9.37-31.78,21.3-45.72,34.46c-8.65,8.16-18.8,14.9-24.69,25.83c-1.72,3.2-2.39,5.61,1.7,6.26
				c15.53,2.47,26.68,12.4,38.22,21.77c7.89,6.4,15.16,13.56,23.16,19.75c6.29,4.87,11.76,10.62,18.22,15.31
				c3.66,2.66,7.77,5.1,10.67,8.85c4.18,5.41,10.74,7.58,16.13,11.34c2.23,1.56,5.21,2.15,7.93,2.87c2.11,0.56,4.08-0.1,4.87-2.38
				c0.71-2.05-0.29-3.48-2.12-4.5c-4.07-2.29-7.66-5.2-11.22-8.25c-16.56-14.16-34.47-26.63-51.07-40.77
				c-7.93-6.75-14.42-15.28-24.06-19.98c-0.78-0.38-1.15-1.22-0.64-2.12c0.57-0.99,1.55-1.26,2.58-1.16
				c2.84,0.28,4.85,2.2,6.82,3.93c6.26,5.49,12.27,11.25,18.56,16.7c16.84,14.59,35.62,26.75,52.3,41.56
				c2.71,2.41,6.03,4.13,9.04,6.21c1.38,0.95,2.94,1.27,4.17,0.18c2.15-1.89,4.54-2.42,7.32-2.51c2.28-0.07,4.22-1.42,4.56-3.89
				c0.32-2.27-1.61-3.07-3.28-3.87c-6.2-2.94-11.85-6.79-17.27-10.93c-14.85-11.35-27.86-24.75-41.32-37.63
				c-4.93-4.71-9.88-9.41-14.73-14.2c-1.2-1.19-2.23-2.91-0.57-4.36c1.44-1.26,2.75-0.03,3.87,1.04
				c10.94,10.46,22.21,20.54,32.74,31.44c11.95,12.37,24.94,23.55,40.4,31.5c1.74,0.89,3.48,1.83,5,0.17
				c3.73-4.07,8.97-6.26,12.47-10.68c2.47-3.12,5.78-5.67,9.66-6.89c4.88-1.54,8.83-4.55,12.96-7.31c1.1-0.74,2.52-1.4,2.14-3.01
				c-0.39-1.68-1.97-1.48-3.28-1.54c-12.73-0.67-25.47,0.67-38.23-1.7c-8.3-1.54-16.97-1.01-24.2-6.46
				c-1.4-1.06-3.03-1.95-2.02-3.91c1.11-2.16,3.02-1.67,4.75-0.72c12.07,6.63,25.68,5.68,38.66,7.57
				C1031.48,826.58,1036.45,825.42,1041.26,825.96z M984.31,362.97c-1.64-1.78-3.95,1-4.71-1.1c-0.72-2.02,0.85-3.8,2.13-5.32
				c3.11-3.73,7.68-3.94,11.81-0.47c2.24,1.88,4.45,2.95,7.21,1.25c1.83-1.13,3.34-2.86,2.54-4.94c-2.18-5.75-4.77-11.56-9.65-15.38
				c-2.43-1.91-2.87-3.17-1.88-5.61c2.05-5.09,1.17-9.97-0.47-15.07c-2.39-7.41-4.49-14.95-6.05-22.57
				c-1.5-7.34-4.19-14.15-8.77-19.83c-9.89-12.28-21.85-20.25-38.69-21.35c-15.9-1.04-30.25,0.59-43.37,10.17
				c-10.87,7.94-19.71,17.26-21.13,31.23c-1.29,12.73,1,25.34,5.4,37.19c3.05,8.21,4.54,16.82,7.79,25.03
				c2.27,5.72,3.72,11.54,8.15,16.01c2.38,2.41,3.97,5.28,5.77,8.08c7.33,11.37,15.81,21.4,30.07,24.22
				c1.4,0.28,2.83,0.52,3.45-1.01c0.83-2.03-0.95-2.02-2.2-2.33c-3.64-0.91-2.25-3.52-1.11-4.98c2.05-2.64,5.29-1.56,7.93-1.03
				c2.7,0.54,0.81,2.52,0.66,4c-0.27,2.73,0.65,5.31,3.62,5.58c2.81,0.26,3.24-2.19,3.32-4.54c0.2-5.81,1.72-11.19,5.91-15.45
				c1.44-1.46,1.37-2.75,0.7-4.48c-1.62-4.17-5.06-7.18-6.93-11.19c-0.43-0.93-1.05-1.88-0.4-2.79c0.9-1.27,2.19-0.57,3.15-0.06
				c1.14,0.61,1.97,1.98,3.15,2.32c3.25,0.95,5.66,7.66,10.05,1.62c0.38-0.53,1.34-0.6,1.71,0.1c0.26,0.48,0.27,1.39-0.02,1.82
				c-1.22,1.77-2.62,3.42-3.92,5.14c-0.76,1-2.21,2.09-0.6,3.33c1.28,0.98,2.8,0.2,3.5-0.91
				C967.57,371.39,976.89,368.67,984.31,362.97z M915.77,848.81c0-1.43,0.77-2.27,1.52-3.11c1.27-1.43,2.44-3.07,1.27-4.9
				c-1.12-1.75-2.76,0.19-3.91-0.01c-1.62-0.28-6.07,0.89-3.37-3.7c0.52-0.88,0.33-1.77-0.57-2.06c-4.34-1.38-5.59-6-9.02-8.47
				c-3.07-2.21-7.12-1.54-9.96-4.9c-1.51-1.79-4.19-2.73-4.72-5.6c-0.23-1.22-0.99-2.35-2.21-2.45c-5.11-0.41-9.35-3.36-14.15-4.63
				c-1.61-0.42-3.22-0.29-3.82,1.38c-2.46,6.85-4.84,13.54-1.42,21.05c2.49,5.47,7.13,9.87,8.26,15.86
				c1.81,9.62,6.65,17.68,12.26,25.35c5.44,7.44,6.8,7.7,15.5,4.73c1.73-0.59,3.59-0.86,5.23-1.63c5.79-2.72,12.03-4.56,16.4-9.85
				c2.82-3.42,4.78-7.69,8.99-9.87c1.55-0.8,4.04-1.4,2.68-3.79c-1.12-1.97-3.2-1.01-4.91-0.25c-0.57,0.25-1.17,0.45-2.22,0.86
				c0.65-10.36-3.71-1.33-5.69-1.63c-1.14-2.52,3.94-3.64,1.43-5.55C919.92,843.06,918.8,848.43,915.77,848.81z M899.62,419.09
				c-1.03-4.05-2.02-8.11-3.12-12.14c-0.56-2.06-3.11-4.8-0.3-5.92c1.82-0.73,1.81,2.92,2.4,4.67
				c4.77,14.17,10.67,27.43,25.94,33.44c1.16,0.46,2.29,1.97,3.57,0.7c1.32-1.31-0.14-2.41-0.79-3.47
				c-3.21-5.28-5.82-10.84-7.88-16.65c-0.5-1.39-1.32-3.36,0.31-4.03c2.19-0.89,2.56,1.48,3.14,2.92c4.11,10.18,9.13,19.87,15.24,29
				c0.69,1.03,0.9,2.88,2.7,2.25c1.48-0.52,1.49-2.12,1.39-3.45c-0.1-1.32-0.62-2.61-0.69-3.92c-0.41-7.99-5.25-16.17,0.96-23.92
				c0.37-0.47,0.4-1.27,0.46-1.92c0.61-6.02-4.7-10.28-10.01-7.98c-2.2,0.95-4.2,0.44-6.3-0.26c-9.18-3.06-16.41-8.75-22.04-16.5
				c-7.37-10.15-17.18-18.61-21.37-30.95c-0.42-1.25-0.97-2.81-2.6-2.58c-1.85,0.26-2.82,1.91-3.12,3.55
				c-1.82,10.06-6.49,19.51-5.94,30.13c0.26,4.91,1.14,9.79,2.82,14.07c2.56,6.51,5.73,13.26,13.14,16.1
				c1.54,0.59,3.33,1.32,4.64-0.24c1.25-1.49-0.04-2.84-0.83-4.05c-4.83-7.38-6.6-15.91-8.66-24.21c-1.21-4.9-1.41-10.22-0.62-15.38
				c0.16-1.07-0.17-2.67,1.5-2.65c1.46,0.01,1.58,1.52,1.81,2.63c0.2,0.97,0.14,1.99,0.29,2.98c1.2,8.23,1.99,16.6,5,24.39
				C892.59,410.61,894.15,415.96,899.62,419.09z M1019.58,670.56c0.07,3.15-0.62,5.85,0.38,8.43c0.65,1.69,1.82,2.86,3.8,2.52
				c1.54-0.26,2.64-1.64,2.16-2.86c-2.09-5.34,1.43-5.34,4.95-5.73c1.28-0.14,2.53-0.82,3.75-1.34
				c14.23-6.12,25.93-16.11,38.2-25.17c9.61-7.1,18.44-15.3,29.51-20.25c1.54-0.69,3.54-2.91,4.76-0.89
				c1.17,1.94-1.83,2.64-2.98,3.88c-0.44,0.47-1.07,0.79-1.67,1.09c-9,4.46-17.16,10.16-24.5,16.99c-1.28,1.19-4.44,2.18-2.83,4.3
				c1.33,1.77,3.57-0.37,5.29-1.26c0.29-0.15,0.56-0.37,0.84-0.55c12.09-7.89,24.02-15.99,35.1-25.26
				c9.3-7.78,19.51-13.31,32.01-13.4c1.05-0.01,2.1-0.36,2.29-1.51c0.22-1.32-0.69-2.54-1.79-2.67c-6.8-0.79-13.38-5.25-20.53-0.26
				c-3.36,2.34-7.15,4.63-11.89,4.41c-2.53-0.11-5.16,1.18-7.33,2.87c-9.19,7.17-18.8,13.75-28.26,20.54
				c-12.58,9.03-25,18.22-39.41,24.26c-4.31,1.81-8.5,4-13.33,1.58c-1.6-0.8-3.21-0.22-4.78,0.54
				C1018.71,663.04,1018.75,666.9,1019.58,670.56z M1016.51,677.46c0.08,0,0.17-0.01,0.25-0.01c0-2.16,0.22-4.35-0.05-6.47
				c-0.36-2.86-2.15-5.09-4.89-5.71c-3.07-0.7-3.67,2.08-4.51,4.26c-1.12,2.94-2.6,5.74-3.01,8.95c-0.58,4.57-2.75,8.97,3.11,12.53
				c2.63,1.6,4.38,1.74,6.63,0.85c2.31-0.92,3.73-2.64,3.34-5.46C1016.98,683.43,1016.79,680.43,1016.51,677.46z M932.38,949.82
				c2.41,1.55,4.25,0.33,6.02-0.24c9.95-3.18,19.26-8.06,29.49-10.63c4.66-1.17,9.6-3.01,12.83-7.23c1.12-1.47,3.78-2.96,2.17-4.81
				c-1.18-1.35-3.3,0.61-4.71,1.67c-2.53,1.91-5.01,4.34-8.09,4.76c-7.53,1.03-14.4,3.96-21.33,6.69
				C942.9,942.34,936.76,944.47,932.38,949.82z M1035.05,656.53c0.49-0.14,1.33-0.27,2.08-0.61c11.59-5.28,22.64-11.58,33.8-17.69
				c1.26-0.69,2.86-2.15,1.92-3.59c-1.15-1.74-3.08-0.61-4.4,0.32c-4.56,3.22-9.88,4.51-15,6.42c-7.04,2.64-14.72,4.12-20.31,9.84
				c-1.07,1.1-2.39,2.04-1.75,3.75C1031.93,656.47,1033.34,656.6,1035.05,656.53z M963.49,925.5c-12.45,3.72-24.71,7.27-35.36,14.73
				c-1.31,0.92-2.12,2.42-0.84,3.84c1.32,1.47,2.85,0.35,4.03-0.45c11.66-7.88,25.02-11.09,38.46-14.1
				c2.99-0.67,5.47-2.36,7.66-4.44c0.81-0.77,1.84-1.81,0.85-2.99c-0.98-1.16-2.14-0.47-3.05,0.32
				C971.78,925.41,968.43,928.68,963.49,925.5z M936.1,899.29c-0.42,0.08-0.92,0.14-1.4,0.27c-9.16,2.53-17.19,7.65-25.8,11.42
				c-1.59,0.69-2.62,2.24-1.95,4.11c0.72,1.99,1.27,4.23,3.41,5.28c1.37,0.67,2.24-0.01,2.48-1.43c0.61-3.5,3.42-5.24,5.96-6.97
				c5.51-3.75,11.4-6.75,18.12-7.83c1.37-0.22,3.27-0.64,2.81-2.72C939.35,899.73,937.75,899.37,936.1,899.29z M947.25,888.68
				c-3.32-1.64-5.25-0.02-7.11,0.65c-11.22,4.01-23.47,5.22-33.54,12.33c-1.49,1.05-3.66,2.21-2.49,4.21
				c1.1,1.88,2.96,0.21,4.4-0.43c7.29-3.28,14.4-7.33,22.23-8.79C936.95,895.49,941.36,891.79,947.25,888.68z M1120.7,877.72
				c-0.63-2.78-2.72-2.97-4.34-1.31c-3.35,3.43-7.82,3.27-11.85,4.64c-6.64,2.25-13.84,2.04-20.3,4.94
				c-1.96,0.88-4.73,1.48-3.62,4.31c1.02,2.6,3.47,1.08,5.25,0.54c7.77-2.35,15.27-5.54,23.51-6.36c3.04-0.3,5.94-2.04,8.89-3.18
				C1119.77,880.7,1120.65,879.57,1120.7,877.72z M942.99,1073.55c-2.06-0.12-2.89-0.25-3.71-0.2c-1.45,0.1-3.4-0.05-3.42,1.96
				c-0.02,1.67,1.84,1.62,3.08,1.86c2.31,0.45,4.74,0.54,6.89-0.37c6.44-2.71,13.13-4.11,20.03-5.05c4.72-0.65,9.33-2.27,13.92-3.69
				c1.63-0.51,4.21-1.4,3.51-3.45c-0.78-2.29-3.58-1.78-5.24-0.91c-3.74,1.96-7.88,2.6-11.8,3.79
				C958.22,1069.93,950.17,1072.52,942.99,1073.55z M943.17,963.88c8.45-2.39,17.47-4.92,26.47-7.53c0.74-0.21,1.35-0.95,1.95-1.51
				c1.24-1.17,2.65-2.63,1.6-4.28c-1.09-1.71-3.04-1.02-4.48-0.16c-2.02,1.21-4.18,1.92-6.41,2.63c-6.94,2.2-13.84,4.55-20.73,6.88
				c-1.18,0.4-3.02,0.47-2.7,2.29C939.23,964.18,941.1,963.76,943.17,963.88z M1075.27,866.82c0.06,0.52,0.13,1.04,0.19,1.57
				c7.39-0.71,14.77-1.86,22.17-1.98c6.14-0.1,11.35-2.03,16.32-5.24c1.07-0.69,3.04-1.14,2.46-2.63c-0.74-1.92-2.62-0.82-3.84-0.25
				c-4.43,2.08-8.98,3.55-13.93,3.37C1090.37,861.36,1082.79,863.96,1075.27,866.82z M1056.06,971.51c0.09,3.1,7.91,8.75,10.4,7.79
				c1.6-0.62,1.4-1.75,0.24-2.63c-1.05-0.8-2.29-1.34-3.42-2.04c-3.19-2-4.69-4.36-1.39-7.54c0.95-0.92,1.36-1.87,0.69-3.09
				c-1.69-3.1-0.36-3.88,2.63-3.51c1.02,0.13,2.13-0.07,2.19-1.36c0.02-0.44-0.69-1.07-1.21-1.36c-1.76-0.96-10.55,1.33-11.66,2.95
				c-0.64,0.93-0.72,1.97-0.08,2.79C1056.43,966.05,1057.31,968.75,1056.06,971.51z M976.24,967.58c-3.09-2.39-5.6-0.82-8.06-0.44
				c-6.07,0.94-11.51,4.32-17.8,4.52c-1.29,0.04-2.63,0.83-2.84,2.38c-0.15,1.11,0.76,1.33,1.65,1.24
				C958.35,974.28,967.59,973.59,976.24,967.58z M1110.18,931.92c-1.43,1.63-4.86-1.2-4.79,2.16c0.05,2.52,2.62,3.18,4.8,3.46
				c1.84,0.24,3.23-0.38,3.45-2.58c0.44-4.44,0.83-8.8-5.64-8.89c0.68-1.88,2.71-2.97,1.17-4.83c-0.82-0.98-1.87-1.39-3.1-0.98
				c-1.76,0.59-2.64,1.94-2.87,3.71c-0.45,3.51-0.07,6.43,4.57,6.34C1108.71,930.3,1109.81,930.36,1110.18,931.92z M1099.24,967.14
				c2.35-0.19,5.98-0.41,9.59-0.8c1.23-0.13,2.99-0.22,2.92-1.97c-0.06-1.4-1.68-1.41-2.75-1.64c-7.72-1.64-15.41,0.82-23.14,0.26
				c-0.84-0.06-1.75,0.48-1.79,1.39c-0.05,1.24,1.08,1.5,2.05,1.75C1090.01,967.15,1094.01,966.88,1099.24,967.14z M1096.6,878.95
				c3.03-0.03,5.18,0.95,6.58-1.23c0.58-0.9,0.58-1.96-0.08-2.82c-1.62-2.09-4-1.89-5.96-1.14c-5.54,2.13-11.91,1.39-17.01,5.01
				c-1.12,0.79-2.61,1.4-1.86,2.98c0.8,1.68,2.43,0.93,3.47,0.27C1086.69,878.89,1092.43,880.1,1096.6,878.95z M943.49,916.87
				c3.01-0.48,5.69-2.24,8.83-2.9c5.49-1.16,10.82-3.11,16.2-4.79c1.34-0.42,2.51-1.29,2.14-2.9c-0.39-1.71-1.74-1.28-2.77-0.72
				c-7.88,4.31-17.02,4.31-25.23,7.47c-1.14,0.44-3.16,0.09-2.92,1.93C939.96,916.78,941.92,916.61,943.49,916.87z M1109.63,896.64
				c-5.87-0.21-11.21,2.44-16.87,3.6c-1.13,0.23-2.42,0.71-2.29,2.17c0.11,1.21,1.29,1.62,2.28,1.35
				c7.57-2.13,15.34-2.63,23.12-3.09c1.01-0.06,2-0.49,2.04-1.75c0.04-1.18-0.78-1.77-1.79-2.06
				C1114.01,896.25,1111.87,896.29,1109.63,896.64z M959.35,1001.19c3.27,0,5.29-0.29,7.2,0.05c6.3,1.12,11.42-2.73,17.18-3.85
				c1.41-0.28,2.87-1.4,2.3-3.24c-0.49-1.61-2.03-1.51-3.35-1.23C974.93,994.54,967.26,996.41,959.35,1001.19z M980.86,938.77
				c-0.76-2.31-2.35-1.27-3.5-0.61c-6.5,3.68-13.62,5.89-20.43,8.83c-1.08,0.47-2.52,0.76-2.18,2.19c0.38,1.59,2.13,1.88,3.26,1.31
				c6.47-3.27,13.93-4.13,19.99-8.32C979.23,941.33,980.38,940.38,980.86,938.77z M1085.93,857.94c9.59,0.7,18.79,0.52,27.26-4.41
				c1.26-0.73,3.15-1.14,2.15-3.12c-0.75-1.48-2.35-1.04-3.54-0.47c-6.59,3.1-13.34,5.34-20.77,5.22
				C1089.2,855.14,1087.1,855.63,1085.93,857.94z M971.46,1077.06c7.12-0.83,13.71-3.31,19.67-7.47c0.81-0.56,1.84-1.14,1.14-2.33
				c-0.73-1.25-1.95-1.06-3.09-0.61c-6.15,2.42-12.3,4.85-18.44,7.3c-0.99,0.39-2.58,0.49-2,2.17
				C969.13,1077.24,970.39,1076.97,971.46,1077.06z M884.29,1093.68c4.21-0.64,7.89-0.66,10.76-3.5c1.17-1.17,3.01-1.87,2.16-3.91
				c-0.93-2.24-2.97-2.6-5.03-2c-3.37,0.97-6.33,2.84-9.23,4.74c-0.97,0.64-1.73,1.66-1.26,2.98
				C882.23,1093.5,883.53,1093.74,884.29,1093.68z M962.27,977.75c0.15,0.55,0.31,1.1,0.46,1.65c7.84-1.39,15.86-1.95,23.19-5.68
				c1.02-0.52,2.03-1.15,2.88-1.91c0.79-0.7,1.06-1.75,0.35-2.67c-0.76-0.97-1.7-0.71-2.64-0.14c-4.12,2.5-8.82,3.51-13.27,5.14
				C969.62,975.45,965.93,976.55,962.27,977.75z M1107.88,989.25c5.68,1.32,11.01,1.34,16.37,0.88c0.99-0.08,1.95-0.61,2.15-1.73
				c0.17-0.93-0.48-1.47-1.25-1.9C1120.22,983.81,1112.51,984.84,1107.88,989.25z M1079.15,833.15c2.94-0.91,6.47-0.41,9.23-2.57
				c1.11-0.87,2.87-1.71,2.16-3.46c-0.71-1.73-2.59-1.39-3.92-0.92c-2.94,1.05-5.79,2.37-8.66,3.63c-0.89,0.39-2.06,0.91-1.87,2.02
				C1076.35,833.38,1077.86,832.94,1079.15,833.15z M976.61,1038.76c5.65,2.09,10.9,1.51,16.04,1.73c0.94,0.04,2.13-0.36,2.27-1.52
				c0.19-1.54-1.16-1.95-2.27-2.05C987.46,1036.48,982.22,1035.91,976.61,1038.76z M1005.31,1060.87c2.22-0.48,4.98-1,7.69-1.69
				c1.18-0.3,2.12-1.18,1.78-2.55c-0.26-1.05-1.26-1.69-2.28-1.55c-2.92,0.39-5.85,0.83-8.71,1.54c-1.23,0.31-2.59,1.37-2.32,2.85
				C1001.78,1061.19,1003.48,1060.76,1005.31,1060.87z M1103.65,814.55c-5.69-2.05-9.23,2.54-13.51,4.46
				c-1.55,0.7-0.21,1.89,1.11,2.13C1094.56,821.75,1101.79,817.96,1103.65,814.55z M1020.88,1082.4c-0.25-2.31-0.95-4.41-3.82-4.09
				c-1.95,0.22-4.33,0.77-3.43,3.61c0.64,2.03-0.61,5.58,3.49,5.37C1020.19,1087.14,1020.77,1084.94,1020.88,1082.4z
				 M986.44,1029.67c2.03-0.38,6.34,1.25,6.38-1.71c0.06-3.53-4.07-1.49-6.42-1.73c-0.32-0.03-0.67-0.03-0.98,0.05
				c-2.21,0.53-6.16-2.13-6.36,1c-0.21,3.19,4.11,1.82,6.48,2.35C985.71,1029.65,985.88,1029.64,986.44,1029.67z M1013.44,1062.75
				c-2.11,0.38-3.12,1.63-2.87,3.52c0.41,3.11,2.46,5.14,5.39,5.7c1.93,0.37,2.46-1.44,2.12-3.04
				C1017.5,1066.15,1016.7,1063.42,1013.44,1062.75z M1108.78,979.97c1.62-0.52,4.28,0.6,4.47-1.89c0.18-2.4-2.48-2.35-4.14-2.38
				c-2.53-0.05-6.76-2.4-7.14,1.25C1101.61,980.39,1106.37,978.88,1108.78,979.97z M1132.46,994.88c2.06-0.61,4.61-1.32,7.11-2.16
				c0.52-0.18,1.21-0.84,1.23-1.31c0.04-0.97-0.86-1.4-1.71-1.38c-2.64,0.06-5.3,0.09-7.92,0.4c-1.37,0.17-2.53,1.21-2.36,2.75
				C1129.02,995.01,1130.63,994.75,1132.46,994.88z M1106.7,830.51c2.45,0.01,7.1-3.47,7.02-5.1c-0.07-1.37-0.87-2.1-2.22-2.22
				c-1.75-0.15-7.6,3.83-7.4,5.09C1104.34,829.83,1105.47,830.45,1106.7,830.51z M946.77,901.77c3.44-0.78,6.82-1.93,8.31-5.37
				c0.46-1.07-1.59-1.56-2.65-1.21c-3.06,1.01-6.7,1.47-8,5.01C943.89,901.68,945.55,901.83,946.77,901.77z M914.85,892.82
				c2.3-3.24,6.63-2.1,9.63-4.3c0.83-0.61,1.65-1.37,1.09-2.46c-0.61-1.16-1.66-0.54-2.62-0.37c-3.56,0.63-6.12,3.19-9.22,4.71
				c-0.59,0.29-1.04,0.94-0.58,1.62C913.36,892.36,913.96,892.43,914.85,892.82z M996.1,1072.96c4.2,1.42,6.68-1.11,9.6-1.17
				c1.16-0.02,3.22-0.03,2.83-1.81c-0.41-1.89-2.53-2.16-4.06-1.5C1001.85,1069.6,999.41,1071.15,996.1,1072.96z M958.4,905.97
				c2.87-0.12,4.95-2.26,7.44-3.46c0.6-0.29,0.86-1.11,0.44-1.72c-0.53-0.77-1.42-0.81-2.23-0.49c-2.15,0.84-4.28,1.74-6.41,2.63
				c-0.89,0.37-2.1,0.64-1.84,1.9C956.06,906.08,957.32,905.83,958.4,905.97z M1121.46,974.13c1.52-0.85,5.29,1.73,5.17-1.68
				c-0.09-2.62-3.74-1.46-5.93-1.45c-0.33,0-0.66,0.02-0.98,0.07c-1.38,0.21-3.58-0.27-3.59,1.63c-0.01,2.11,2.17,1.29,3.52,1.42
				C1120.14,974.17,1120.64,974.13,1121.46,974.13z M906.37,893.18c-2.23,1.22-4.74,2.49-7.13,3.95c-0.86,0.53-1.27,1.66-0.52,2.6
				c0.79,0.99,1.79,0.52,2.65-0.06c2.05-1.39,4.09-2.78,6.11-4.2c0.53-0.37,1.17-0.81,0.82-1.6
				C907.99,893.17,907.33,893.06,906.37,893.18z M1023.58,687.21c2.68,0.43,4.87-0.09,6.84-1.23c1.15-0.66,1.99-1.96,1.32-3.4
				c-0.78-1.66-2.2-1.23-3.38-0.52C1026.42,683.24,1024.41,684.41,1023.58,687.21z M971.97,913.78c2.33-0.62,4.44-1.85,5.26-4.45
				c0.39-1.24-0.52-1.95-1.68-1.62c-2.5,0.71-5.35,1.2-5.79,4.5C969.59,913.46,970.7,913.76,971.97,913.78z M1076.02,824.72
				c1.41,1.25,2.84,0.23,4.2,0.02c1.41-0.22,3.07-0.2,3.86-1.75c0.45-0.89-0.12-1.61-0.86-2.04c-1.63-0.95-3.23-0.47-4.64,0.48
				C1077.42,822.21,1075.92,822.86,1076.02,824.72z M956.76,887.22c4.26,1.06,6.25-1.97,8.69-3.9c0.51-0.4,0.52-1.26-0.13-1.72
				c-0.35-0.24-1.1-0.44-1.32-0.25C961.77,883.32,958.31,883.85,956.76,887.22z M1102.74,840.51c-1.77,0-3.11-0.2-4.37,0.05
				c-1.92,0.37-3.97,0.72-5.16,2.56c-0.15,0.23,0.16,1.06,0.44,1.19c1.97,0.88,3.46-0.55,5.08-1.25
				C1100.03,842.51,1101.75,842.68,1102.74,840.51z M1119.03,867.66c0.02-1.69-0.82-2.57-2.41-2.49c-1.78,0.09-3.3,0.84-3.56,2.79
				c-0.24,1.84,0.9,2.81,2.67,2.73C1117.6,870.6,1118.73,869.5,1119.03,867.66z M1096.13,980.89c-2.63-1.24-5.1-2.51-7.48-3.98
				c-0.86-0.53-1.96-0.64-2.63,0.41c-0.18,0.28,0.01,1.19,0.23,1.27C1089.44,979.76,1092.13,982.95,1096.13,980.89z M960.34,985.94
				c-0.89-1.69-2.27-1.8-3.57-1.5c-1.95,0.44-4.08,1.08-4.09,3.56c-0.01,1.24,1.45,1.34,2.36,0.94
				C956.9,988.13,959.25,988,960.34,985.94z M959.53,964.76c2.37-0.45,4.75-0.84,7.11-1.36c0.83-0.19,1.5-0.83,1.22-1.81
				c-0.34-1.18-1.4-1.63-2.3-0.97C963.6,962.03,961.42,963,959.53,964.76z M986.13,941.26c-3.48,2.15-6.69,3.32-8.03,7.17
				C982.06,947.57,984.44,945.55,986.13,941.26z M983.55,960.54c1.01-0.98,3.53-0.68,4.08-3.09c0.18-0.79-0.76-1.2-1.36-0.95
				c-1.76,0.73-4.19,0.5-4.92,2.79C981.06,960.23,982.04,960.64,983.55,960.54z M1112.04,891.66c3.31,0.21,5.38-0.27,6.71-2.49
				c0.45-0.76,0.06-1.85-0.92-1.9C1115.1,887.13,1114.08,889.3,1112.04,891.66z M1061.47,848.65c-0.16-1.29-0.97-1.99-2.28-2
				c-1.34-0.01-2.18,0.79-2.25,2.1c-0.07,1.39,0.77,2.13,2.15,2.04C1060.35,850.71,1061.24,850.07,1061.47,848.65z"/>
			<path d="M848.17,394.84c-3.25-2.68-7.34-3.92-10.1-7.11c-1.41-1.63-2.9-3.2-4.19-4.92c-0.68-0.9-1.33-2.25-0.03-3.07
				c0.98-0.62,1.83,0.37,2.48,1.14c4.07,4.84,8.22,9.32,14.66,11.4c3.44,1.11,0.99,4.78,0.64,7.05c-0.37,2.36-2.54,1.05-4.09,0.57
				c-4.43-1.38-8.37-3.4-13.64-2.93c-3.95,0.35-8.21-3.79-11.63-6.95c-3.8-3.5-8.24-5.39-13.29-6.17c-4.21-0.65-6.71-4.5-10.83-5.76
				c-7.79-2.38-13.66-8.13-19.9-13.08c-2.7-2.15-6.07-2.5-8.88-4.2c-0.95-0.58-2.59-0.64-2.16-2.18c0.52-1.85,2.44-1.31,3.37-0.82
				c3.77,1.97,7.44,3.83,11.75,1.63c2.36,6.64,6.39,1.42,9.73,1.52c2.05,0.06,2.85,2.36,3.03,4.13c0.58,5.74,5.75,8.35,8.32,12.71
				c0.64,1.08,1.86,1.28,3.11,0.97c4.79-1.17,8.62,0.7,12.11,3.79C827.05,389.99,836.75,394.46,848.17,394.84z M791.41,363.81
				c-1.97,0.43-2.22,1.66-2.14,2.74c0.17,2.24,1.87,3.36,3.77,3.95c1.18,0.37,2.05-0.71,1.58-1.69
				C793.75,366.98,792.44,365.35,791.41,363.81z"/>
			<path d="M695.48,345.73c-3.16,4.19-0.48,9.94-2,15.15c-0.42,1.43-0.82,3.19-2.75,2.98c-1.94-0.22-1.99-2.05-1.98-3.51
				c0.03-2.87-0.23-5.59-1.6-8.22c-0.48-0.92-0.66-2.57-0.15-3.33c1.97-2.96,3.96-5.64,1.04-9.22c-0.65-0.8,0.43-2.08,1.61-1.41
				C692.35,339.7,695.49,340.99,695.48,345.73z"/>
			<path d="M825.54,371.21c-0.4,1.29-1.37,1.35-2.34,0.83c-4.45-2.37-7.58-6.36-11.44-9.47c-0.99-0.79-0.51-1.84,0.93-1.87
				c1.64-0.04,12.48,8.51,12.75,9.99C825.48,370.86,825.51,371.02,825.54,371.21z"/>
			<path d="M818.32,348.3c-0.33,1.93-1.6,2.28-2.94,2.12c-1.56-0.18-3.64-0.16-3.8-2.24c-0.11-1.4,1.54-1.42,2.66-1.43
				C815.82,346.72,817.49,346.65,818.32,348.3z"/>
			<path d="M752.13,355.52c-0.01,1.15-0.23,2.29-1.5,2.18c-1.79-0.17-2.4-1.61-2.42-3.22c-0.01-1.15,0.11-2.66,1.72-2.38
				C751.68,352.39,751.81,354.15,752.13,355.52z"/>
			<path d="M1159.66,574.6c2.45,0.03,4.58-0.07,6.88-0.5c3.63-0.68,6.46,1.64,8.27,4.52c4.03,6.41,7.25,13.28,13.02,18.58
				c2.47,2.26,5.04,4.24,7.71,6.2c6.78,4.97,12.29,11.64,20.23,15.05c0.15,0.06,0.33,0.16,0.4,0.29c1.23,2.15,5.37,3.87,3.57,6.13
				c-1.67,2.09-3.66-1.69-5.41-2.84c-12.91-8.55-25.03-18.1-35.21-29.88c-1.96-2.26-3.77-4.65-5.72-6.93
				C1169.64,580.81,1165.69,576.59,1159.66,574.6z"/>
			<path d="M1234.56,647.41c-0.11,1.38,0.09,3.28-1.77,3.56c-2.27,0.33-2.06-1.74-2.05-3.13c0.03-4.32-2.34-7.49-4.76-10.69
				c-0.81-1.07-1.75-2.39-0.49-3.53c1.54-1.39,2.82-0.06,3.75,1.06C1232.27,638.33,1234.18,642.51,1234.56,647.41z"/>
			<path d="M1213.89,643.45c0.04,1.2-0.99,1.58-1.95,1.1c-3.26-1.6-6.48-3.3-9.58-5.19c-0.98-0.6-1.4-1.99,0.05-2.84
				C1204.38,635.36,1213.71,640.83,1213.89,643.45z"/>
			<path d="M1174.04,563.11c2.91,4.74,4.98,9.71,5.34,15.26C1177.16,573.41,1173.89,568.85,1174.04,563.11z"/>
			<path d="M1189.17,626.42c1.35-0.07,1.9-0.27,2.25-0.08c2.08,1.1,5.05,0.84,5.95,3.72c0.21,0.67-0.48,1.27-1.17,1.25
				C1193.16,631.2,1191.11,629.59,1189.17,626.42z"/>
			<path d="M915.61,363.57c1.12-13.88-8.07-22.66-16.19-31.91c-1.19-1.36-3.2-2.12-4.98-0.7c-2.03,1.62-0.46,3.24,0.21,4.89
				c1.97,4.82,6.87,7.14,9.54,11.39c1.22,1.94,2.4,3.37-0.36,4.75c-2.2,1.1-4.51,2.92-6.01-0.94c-1.7-4.35-3.94-8.37-6.82-12.11
				c-2.17-2.82-1.17-9.96,1.46-11.98c3.76-2.9,7.52-0.85,9.83,1.77c5.32,6.03,11.53,11.64,13.61,19.9c0.54,2.13,1.63,3,3.74,3.28
				c3.92,0.51,4.12,2.79,2.3,5.68c-1.33,2.11-2.89,4.06-3.39,6.62c-0.24,1.22-0.3,3.18-2.02,2.89
				C914.92,366.82,915.33,364.99,915.61,363.57z"/>
			<path d="M953.29,347.78c-0.04-3.95,5.45-10.34,8.8-10.73c1.48-0.17,2.64,0.34,3.38,1.6c0.74,1.25,0.17,2.46-0.85,3.03
				c-4.88,2.74-1.12,5.89-0.43,8.79c0.42,1.75,2.18,1.82,3.15,0.72c3.03-3.41,7.95-3.98,10.81-7.75c2.24-2.96,7.28-2,9.32-5.79
				c0.3-0.56,1.53-0.71,2.19,0.11c0.7,0.88,0.7,2.17,0.16,2.82c-2.96,3.5-5.58,7.63-10.22,8.96c-1.8,0.52-2.96,0.98-3.72,2.62
				c-0.66,1.42-1.87,2.76-3.4,2.54c-2.51-0.36-3.48,0.87-4.61,2.74c-1.38,2.3-3.13,3.3-5.51,0.66c-1.64-1.82-3.68-3.43-5.82-4.63
				C953.97,352.04,953.09,350.06,953.29,347.78z"/>
			<path d="M933.49,348.28c-1.77-0.41-2.08-1.39-1.95-2.98c0.28-3.42,1.59-6.43,3.6-9.04c1.4-1.82,4.3,0.07,6.05-1.78
				c0.37-0.39,1.65,0.15,2.18-0.69c0.55-0.86,1.03-1.86,2.24-0.99c1.12,0.8,1.15,2.05,0.65,3.15c-1.18,2.57-2.48,5.39-4.99,6.64
				c-2.65,1.31-5.7,1.71-6.62,5.17C934.56,348.03,933.82,348.14,933.49,348.28z"/>
			<path d="M965.02,333.24c-1.29-0.14-3.04,0.09-3.45-1.85c-0.34-1.63,1.08-2.1,2.16-2.91c3.29-2.48,6.43-5.15,9.64-7.73
				c0.77-0.62,1.58-1.38,2.65-0.78c0.82,0.46,0.8,1.36,0.77,2.2C976.62,327.6,970.67,333.27,965.02,333.24z"/>
			<path d="M925.04,382.85c-0.32,1.3-0.67,2.75-1.02,4.2c-0.24,1-0.56,1.99-1.77,2.11c-1.22,0.12-1.66-0.81-2.11-1.74
				c-0.57-1.19-1.16-2.37-1.87-3.48c-1.27-2.01-1.52-4.07-0.23-6.08c0.8-1.23,2.1-1.53,3.53-0.9
				C923.16,377.66,925.05,380.75,925.04,382.85z"/>
			<path d="M942.58,356.15c-1.41-0.14-2.01-1.31-1.67-2.44c0.86-2.91,3.48-4.66,5.19-7.03c0.36-0.51,1.26-0.18,1.66,0.46
				C948.39,348.16,943.89,356.11,942.58,356.15z"/>
			<path d="M957.99,332.25c-1.48,1.73-2.37,4.26-5.14,4.56c-1.13,0.12-1.77-1.06-1.54-2.07c0.57-2.56,2.43-4.27,4.75-5.05
				C957.33,329.27,957.7,330.87,957.99,332.25z"/>
			<path d="M934.05,358.04c0.09,1.9-0.74,2.85-2.29,2.67c-1.6-0.18-3.38-0.62-3.45-2.73c-0.05-1.49,0.98-2.46,2.43-2.55
				C932.67,355.3,933.62,356.58,934.05,358.04z"/>
			<path d="M927.1,387.72c1.74,0.32,2.11,1.59,1.97,2.98c-0.17,1.59-0.12,3.72-2.37,3.74c-2.14,0.02-1.85-1.97-1.85-3.39
				C924.84,389.47,925.29,388.08,927.1,387.72z"/>
			<path d="M926.78,334.82c-2.54-0.49-4.2-1.46-3.56-4.03c0.26-1.03,1.26-2.17,2.04-1.82C928.01,330.19,925.58,332.97,926.78,334.82
				z"/>
			<path d="M912.76,843.79c-2.98,5.39-7.84,8.11-10.64,12.53c-0.13,0.2-1.01,0.18-1.32-0.05c-0.32-0.23-0.63-1.08-0.48-1.25
				c2.05-2.27,4.05-4.53,3.9-7.88c3.99,0.63,2.39-2,1.65-5C908.17,844.39,910.12,844.21,912.76,843.79z"/>
		</g>
	</g>
	<g>
		<g>
			<path class="st0" d="M827.51,340.97c5.33-1.47,9.88-0.19,14.68,2.35c10.63,5.62,22.33,8.05,34.21,9.52
				c2.01,0.25,3.39-1.06,3.12-2.99c-0.47-3.43-0.19-6.96-1.75-10.27c-5.6-11.89-8.62-24.5-9.6-37.56
				c-0.89-11.94,3.31-23.39,10.69-31.47c9.28-10.18,20.5-18.94,35.48-21.6c11.59-2.06,22.94-2.1,33.98,0.56
				c15.65,3.78,27.69,13.23,35.59,27.56c2.68,4.86,4.49,9.89,5.16,15.49c0.63,5.25,5.28,8.78,6.99,13.63
				c3.2,9.07,6.17,18.24,4.06,28.06c-0.47,2.17-0.3,3.88,1.13,5.55c2.32,2.69,3.94,5.77,4.74,9.25c2.27,9.9,10.19,13.82,18.65,15.7
				c9.8,2.18,17.52,6.92,23.67,14.45c3.58,4.38,7.87,8.25,8.82,14.56c0.38,2.51,3.82,4.46,5.56,6.88
				c8.18,11.34,17.09,22.13,24.63,33.94c2.07,3.24,3.22,6.89,5.2,10.21c3.27,5.47,6.37,10.66,12.38,13.8
				c3.59,1.88,4.65,6.51,6.39,9.85c3.71,7.14,9.66,13.57,8.13,22.99c-0.67,4.14,4.11,7.01,6.65,10.09
				c7.32,8.87,15.26,17.21,26.8,20.83c1.87,0.59,3.62,1.64,4.99,3.21c18.92,21.65,36.94,43.89,52.82,68.01
				c7.6,11.54,16.08,22.8,24.88,33.64c3.45,4.25,8.42,6.92,11.74,11.45c1.76,2.4,5.53,2.21,8.44,2.41
				c9.26,0.61,14.14,6.95,16.67,14.35c3.47,10.17,5.33,20.89,7.8,31.39c0.44,1.88,0.76,3.41,3.17,3.79
				c10.93,1.71,14.73,11.65,9.05,20.92c-5.04,8.23-12.33,14.59-17.2,22.86c-2.68,4.55-8.17,4.76-12.2,7.26
				c-0.22,0.14-0.76,0.09-0.94-0.09c-6.19-6.13-15.17-3.15-22.27-6.96c-6.53-3.5-13.23-8.79-11.54-18.47
				c2.31-13.24,0.25-26.5-2.99-39.49c-0.27-1.08-0.98-2.12-1.69-3.02c-5.68-7.17-11.41-14.31-17.15-21.43
				c-0.62-0.76-1.4-1.44-2.22-1.99c-0.8-0.53-1.76-1.18-2.7-0.28c-0.7,0.67-0.38,1.53-0.13,2.33c3.47,11,5.21,22.25,5.03,33.81
				c-0.04,2.47,0.19,5.08,0.97,7.39c4.17,12.24,0.91,23.56-5.09,33.98c-3.7,6.42-5.14,13.73-9.16,19.86
				c-3.25,4.95-3.46,11.03-6.66,16.03c-7.89,12.33-19.88,19.46-31.7,27.36c-10.07,6.73-21.99,5.77-32.16,10.88
				c-1.48,0.74-3.13,1.14-4.66,1.8c-5.03,2.17-5.88,4.53-3.38,9.41c1.9,3.71,3.9,7.36,5.8,11.07c1.53,3,2.79,6.3,2.65,9.56
				c-0.48,11.07,1.56,21.73,3.85,32.48c1.05,4.92,0.09,10.26,0.03,15.41c-0.01,0.83-0.38,1.87-0.01,2.47
				c4.39,7.16,3.28,15.73,6.43,23.43c5.71,13.93,10.92,28.18,13.92,43.11c1.17,5.81,3.75,11.35,5.77,16.98
				c0.57,1.58,1.75,3.41,0.8,4.75c-2.91,4.12-1.15,7.33,1.18,10.82c2.49,3.72,1.12,6.54-1.56,10.14c-3.93,5.29-8.41,5.51-14.38,6.04
				c-19.85,1.78-38.56-4.03-57.63-7.26c-11.12-1.88-21.29-7.39-31.87-11.29c-4.8-1.77-9.77-11.54-7.82-15.94
				c2.22-5.01,7.08-7.87,12.33-9.16c4.84-1.18,9.68-2.4,14.51-3.53c5.51-1.29,9.69-4.44,13.76-7.73c5.28-4.27,7.31-17.29,4.69-24.16
				c-6.75-17.68-15.91-34.19-24.94-50.72c-2.8-5.13-5.97-10.24-9.14-15.26c-2.25-3.55-7.29-3.97-8.57-8.41
				c-0.19-0.65-1.55-0.35-2.28,0.09c-4.38,2.61-9.15,4.33-13,8.14c-6.6,6.52-14.11,12.13-18.48,20.65
				c-0.74,1.43-2.33,2.44-3.76,1.94c-7.09-2.47-9.1,2.63-11.17,7.38c-3.53,8.09-3.43,8.12-11.19,5.26c-1.2-0.44-2.54-1.37-3.72-0.21
				c-1.21,1.19-0.31,2.53,0.28,3.67c5.55,10.67,7.45,22.43,9.16,34.04c2.28,15.46,3.5,31.08,4.82,46.66
				c0.41,4.9,2.4,9.29,3.15,14.08c1.75,11.11,1.79,22.57,6.07,33.21c1.32,3.28,3.94,5.89,4.14,9.83c0.09,1.89,2.69,1.77,4.22,1.05
				c3.56-1.67,7.29-2.17,11.14-2.47c3.5-0.27,5.15-2.59,5.72-5.93c1.54-9.03,7.33-13.42,16.55-12.68c3.48,0.28,6.97,0.49,10.46,0.73
				c1.48,0.1,3.15,0.5,4.05-1.11c1.03-1.83-0.29-3.22-1.39-4.41c-2.82-3.05-5.77-5.97-8.66-8.95c-1.81-1.86-3.03-4.01-2.9-6.67
				c0.07-1.42,0.71-2.68,2.38-2.68c1.49,0,2.08,1.15,1.87,2.41c-0.63,3.83,2,5.79,4.36,7.86c2.65,2.32,4.95,4.9,7,7.77
				c1.54,2.15,2.79,4.32,1.23,6.87c-1.58,2.58-4,3.94-7.12,3.82c-3-0.11-6-0.39-8.99-0.34c-9.58,0.16-14.29,0.76-15.85,11.39
				c-0.81,5.52-3.9,7.29-8.87,7.21c-0.17,0-0.33,0.01-0.5,0.02c-11.25,0.86-12.26,2.82-6,12.3c4.27,6.47,4.7,14.07,6.34,21.24
				c1.79,7.83,5.72,15.41,3.54,23.94c-0.57,2.22,1.49,2.97,3.54,3.18c14.57,1.45,29.06-1.09,43.62-0.9
				c6.66,0.08,7.72-2.01,9.25-8.63c0.89-3.86,2.43-7.61,3.99-11.27c3.74-8.79,11.51-9.28,19.36-8.61c9.49,0.8,18.96,0.79,28.46,0.72
				c3.89-0.03,7.41-0.74,9.06-4.77c1.71-4.16-0.5-6.9-3.55-9.43c-1.82-1.52-3.8-2.67-5.86-3.75c-10.76-5.61-21.28-11.62-31.42-18.29
				c-2.15-1.41-4.4-2.87-3.68-5.87c0.71-2.95,2.76-4.28,5.95-4.11c3.15,0.17,4.41-1.99,4.64-4.77c0.46-5.48,3.61-7.3,8.78-7.21
				c6.59,0.11,13.35,1.47,19.58-2.13c1.01-0.58,2.4-0.39,3.04,0.89c0.77,1.54-0.22,2.58-1.4,3.29c-2.57,1.56-5.2,3.04-8.38,2.82
				c-3.65-0.26-7.3-0.48-10.95-0.77c-4.69-0.38-7.34,1.42-7.3,6.45c0.03,3.29-1.21,5.51-5.04,5.19c-1.31-0.11-2.84-0.22-3.42,1.35
				c-0.58,1.58,0.65,2.48,1.74,3.22c9.61,6.53,18.94,13.53,29.84,17.92c8.52,3.44,12.02,10.81,9.26,19.09
				c-0.64,1.91-1.62,3.1-3.76,3.44c-9.75,1.54-19.53,1.49-29.33,0.77c-1.99-0.15-3.98-0.43-5.98-0.51
				c-11.46-0.4-18.42,5.44-20.09,16.83c-1.38,9.41-7.46,14.35-17.27,13.37c-6.47-0.65-12.88-1.38-19.41-1.25
				c-3.53,0.07-6.76,0.48-10.2,1.48c-5.61,1.63-11.12-0.69-16.39-2.59c-1.72-0.62-3.16-1.7-5.13-1.18
				c-9.81,2.57-19.58,2.69-29.65,0.97c-5.29-0.9-10.92,0.7-15.99,3.04c-6.08,2.81-12.56,4.34-18.96,6.12
				c-1.43,0.4-2.96,0.58-4.44,0.62c-1.24,0.04-3.15,0.52-3.4-1.11c-0.29-1.83,1.74-1.59,2.92-1.86c5.69-1.3,11.25-2.98,16.68-5.12
				c1-0.4,2.63-0.62,2.21-2.15c-0.39-1.44-2-1.11-3.03-0.92c-4.42,0.79-8.85,1.6-13.19,2.71c-3.88,0.99-7.72,2-11.71,2.5
				c-2.02,0.25-4.84-0.12-5.61,2.38c-0.81,2.64,3.06,2.06,3.7,4.44c-3.45,1.66-7.23,2.04-10.95,1.92c-4.55-0.15-9.1,0.06-13.39,1.26
				c-10.09,2.84-19.41-0.12-28.8-3.02c-8.19-2.53-11.14-9.37-13.43-16.68c-0.45-1.42,0.18-2.79,1.29-3.56
				c5.88-4.13,10.66-10.52,18.9-10.02c9.32,0.57,17.45-3.31,25.81-6.4c5.52-2.04,11.54-1.71,16.88-5.35
				c7.97-5.45,13.12-12.48,16.21-21.37c1.53-4.39,3.32-8.71,4.64-13.16c2-6.78-0.44-13.19-2.3-19.54
				c-5.29-18.07-13.09-35.1-22.4-51.4c-2.85-4.99-5.93-9.89-9.45-14.55c-6.16-8.17-11.28-17.12-17.19-25.49
				c-8.42-11.93-12.92-25.75-19.26-38.68c-1.1-2.24-2.06-4.58-3.44-6.63c-6.53-9.75-11.5-20.21-14.91-31.44
				c-0.42-1.37-1.53-2.55-2.42-3.74c-4.32-5.73-5.95-12.18-5.26-19.28c0.16-1.65,0.74-3.52,0.21-4.94
				c-2.22-5.96,0.77-9.94,4.15-14.39c19.6-25.79,44.3-45.76,71.53-62.76c8.06-5.03,16.42-9.66,25.38-13.12
				c8.64-3.34,15.73-9.35,22.79-15.15c5.42-4.46,10.92-8.7,17.11-12.02c3.13-1.68,4.12-3.4,0.56-5.7c-1.4-0.9-2.05-2.3-1.52-3.89
				c2.52-7.58,2.62-15.72,5.46-23.21c1.12-2.94,0.15-5.31-1.91-7.23c-15.19-14.18-24.23-32.39-32.94-50.73
				c-7.22-15.21-10.09-31.59-10.74-48.25c-0.42-10.79-1.46-21.55-1.69-32.37c-0.16-7.37-4.37-14.89-7.71-21.91
				c-4.29-9.02-5.16-18.82-5.24-28.16c-0.12-14.1-6.16-23.63-17.28-30.81c-8.76-5.65-17.78-10.87-26.59-16.44
				c-2.8-1.77-5.58-2.7-8.93-2.43c-6.36,0.52-11.34-1.77-14.6-7.54c-1.9-3.36-4.57-6.14-7.7-8.44c-2.82-2.07-5.73-2.49-9.35-2.13
				c-10.38,1.03-20.01-0.03-30.27-4.49c-15.29-6.65-28.71-16.59-44.18-22.71c-7.55-2.99-14.69-6.99-22.02-10.53
				c-2.26-1.09-4.56-2.23-7.15-1.9c-5.13,0.64-9.95,0.14-14.29-3.02c-2.04-1.49-3.66-0.45-5.24,1.12
				c-6.5,6.46-14.33,10.57-23.5,10.46c-6.66-0.08-13.16,1.07-19.75,1.18c-4.34,0.07-9.57-6.1-10.24-12.58
				c-0.42-4.03-1.58-7.33-4.64-10.1c-2.71-2.46-2.73-5.9-1.15-8.78c2.64-4.85,3.76-9.92,3.76-15.33c0-4.33,1.93-7.43,5.98-8.87
				c4.41-1.58,6.28-6.06,10.44-8.21c8.28-4.29,17.15-3.66,25.8-4.22c4.29-0.28,7.3,4.28,10.95,6.55c3.52,2.19,6.5,5.32,10.14,7.24
				c12.35,6.53,25.57,10.4,39.58,10.32c8.86-0.05,17.6,1.02,26.41,1.41c1.89,0.08,4.03,0.04,5.25,2.08
				c-0.25,0.31-0.43,0.75-0.63,0.76c-18.27,0.7-36.63,2.37-54.53-3.02c-3.54-1.07-6.82-2.52-10.61-1.8c-1,0.19-2-0.18-2.68-1.03
				c-6-7.53-15.44-10.58-22.22-17.09c-0.45-0.43-1.21-0.85-1.79-0.81c-7.06,0.61-14.67-0.78-21.01,2.54
				c-4.78,2.5-9.81,4.84-14.27,8.06c-1.23,0.88-2.82,1.56-2.84,3.23c-0.09,6.12-2.59,11.62-4.2,17.36
				c-0.94,3.39-0.59,6.55,2.53,8.99c2.35,1.83,3.37,4.54,3.78,7.4c0.55,3.85,1.71,7.52,6.09,7.92c4.87,0.44,6-3.77,7.39-7.33
				c0.17-0.44,0.45-0.84,0.89-1.66c2.16,3.1,4.1,6.02,6.2,8.82c0.76,1.01,1.97,2.34,3.25,0.93c0.91-1-0.12-2.21-0.89-3.06
				c-1.45-1.62-4.94-3.54-2.8-5.26c2.3-1.85,3.24,2.1,4.59,3.77c0.62,0.77,1.41,1.41,2.09,2.14c1.26,1.33,2.82,2.39,4.17,0.54
				c1.39-1.9-0.76-2.41-1.88-3.25c-1.79-1.33-3.58-2.41-0.95-4.95c1.53-1.48-0.45-3.36-1.06-5.01c-0.47-1.27-1.03-2.9,0.45-3.54
				c1.76-0.76,2.2,1.08,2.53,2.28c1.37,5.05,5.29,7.92,9.09,10.92c0.77,0.61,1.81,1.36,2.67,0.5c1.04-1.04-0.18-1.75-0.83-2.41
				c-0.97-0.97-1.97-2.02-1.68-3.44c0.36-1.75,0.65-4.08,3.44-2.04c0.79,0.58,1.96,1.57,2.56,1.34c9.89-3.77,16.72,6.54,26.33,5.43
				c6.75-0.78,12.54,4.07,18.4,7.12c17.1,8.89,34.96,16.37,50.94,27.39c5.59,3.85,12.53,2.93,18.85,4.17
				c6.25,1.23,12.49,0.77,18.66-1.17c1.89-0.59,3.39-1.25,2.77-3.23c-2.98-9.57-0.17-18.41,3.19-27.18
				c1.64-4.27,1.73-8.16-0.93-12.2c-1.38-2.08-2.42-3.46-4.41-1.22c-1.76,1.99-3.05,1.26-5.15,0.47
				c-7.31-2.77-13.16-8.23-20.17-11.09C836.03,346.38,832.55,342.44,827.51,340.97z M1068.6,520.84c1.45,9.25,8.62,13.54,14.41,18.8
				c6.62,6.01,15.19,10.44,19.01,18.76c4.53,9.85,12.15,16.85,19.97,23.27c11.55,9.48,23.94,18.09,36.65,25.96
				c15.87,9.82,27.81,24.28,43.01,34.79c8.03,5.55,13.48,13.72,20.69,20.12c3.19,2.83,6.42,5.88,7.99,10.1
				c1.08,2.9-0.41,5.92,0.59,8.89c3.43,10.21,2.57,20.73,1.35,31.12c-0.4,3.43,0.2,6.16,1.45,9.07c2.18,5.04,6.75,7.48,11.01,10.3
				c2.39,1.59,3.58-0.76,5.32-1.34c1.51-0.51,1.97,0.78,2.56,1.78c0.64,1.1,1.51,2.03,2.74,0.89c1.08-1.01,0.47-2.03-0.37-3.03
				c-2.77-3.29-8.62-3.3-9.3-8.92c-0.11-0.89-2.02-0.83-3.2-0.86c-3.92-0.12-4.44-2.84-4.41-5.9c0.01-0.98,0.11-2.15,1.14-2.61
				c1.26-0.56,1.76,0.61,2.2,1.43c1.07,2.01,2.75,2.76,4.93,2.76c1.39,0,2.97,0.35,3.46,1.63c2.7,7.03,10.9,8.49,14.56,14.6
				c1.14,1.91,3.55,2.41,5.85,1.61c1.05-0.36,1.61-1.25,1.45-2.34c-0.32-2.25-1.95-3.45-3.91-4.13c-5.39-1.85-8.85-5.46-10.59-10.87
				c-1.06-3.31-1.98-6.78-6.44-7.31c-1.43-0.17-1.95-1.71-1.79-3.18c0.14-1.22,0.95-1.83,2.09-1.45c3.23,1.09,6.86,0.92,9.44,3.96
				c3.43,4.05,8.06,6.99,11.08,11.47c1.58,2.34,4.2,2.49,6.56,3.19c1.9,0.56,3.3-0.05,4.08-1.85c0.72-1.67,0.58-3.27-0.81-4.59
				c-1.07-1.01-2.8-1.38-3.21-3.01c-1.51-5.99-6.19-8.59-11.33-10.72c-1.21-0.5-2.87-0.89-2.25-2.64c0.57-1.63,2.19-1.24,3.47-0.89
				c4.92,1.38,9.13,4,12.73,7.59c1.71,1.7,3.35,3.5,6.01,2.25c1.5-0.7,3.76-2.7,3.13-3.4c-2.44-2.74-0.83-6.31-2.51-9
				c-0.36-0.57-1.14-0.11-1.79,0.16c-3.55,1.47-10.59-2.57-10.3-6.35c0.97-12.71-4.07-23.81-9.14-34.78
				c-2.17-4.7-5.84-8.89-10.94-11.15c-1.9-0.84-4.16-1.43-5.04,1.2c-1.21,3.62-2.39,2.44-3.71,0.25
				c-3.28-5.45-7.3-10.22-12.19-14.33c-2.13-1.79-3.97-4.06-5.53-6.38c-2.33-3.49-4.43-7.09-8.49-8.86
				c-1.2-0.53-1.89-1.36-1.69-2.72c0.54-3.7-1.81-4.14-4.6-4.1c-2.48,0.04-5.03,0.21-6.07-2.81c1.17-1.38,3.22,1.62,3.75-0.95
				c0.42-2.04-1.23-3.46-2.37-4.75c-2.42-2.75-4.3,0.57-6.89,1.16c1.41-3.64,3.28-6.99,1.3-10.67c-0.83-1.55-1.93-2.96-3.82-2.64
				c-2.26,0.37-1.69,2.53-2,4.06c-0.38,1.82,1.25,3.03,1.56,4.64c0.2,1.05-0.01,2.1-1.13,2.46c-0.49,0.15-1.65-0.22-1.69-0.48
				c-0.56-3.74-6.01-6.73-1.76-11.21c0.87-0.92,1.39-2.33,0.17-3.05c-4.11-2.43-3.26-6.58-3.83-10.22
				c-0.26-1.64,0.06-3.56-1.17-4.77c-4.77-4.69-8.28-10.34-12.18-15.67c-3.95-5.39-9.45-9.34-13.21-14.9
				c-7.15-10.57-16.64-17.67-29.48-20.07c-4.88-0.91-10.31-2.49-10.24-8.88c0.07-6.54-4.47-10.09-7.88-14.46
				c-1.04-1.34-2.48-2.02-3.63-0.13c-1.99,3.28-2.83,1.49-3.84-0.68c-0.87-1.88-1.65-4.83-4.48-2.96c-3.7,2.44-9.27,2.11-11.05,7.56
				c-0.45,1.38-2.44,0.97-3.62,0.42c-4.82-2.22-7.57,0.72-10.88,3.56c-3.73,3.2-4.67,8.29-8.61,11.19
				c2.15-8.53,5.71-16.09,14.41-19.81c8.25-3.53,16.59-6.85,24.92-10.2c1.91-0.77,3.97-1.23,3.19-4.05
				c-1.89-6.91-9.61-13.5-16.46-14.12c-2.21-0.2-5.8,0.33-5.58-2.55c0.19-2.54,3.62-0.87,5.59-1.17c1.29-0.19,2.98,0.18,3.44-1.37
				c0.51-1.72-0.95-2.68-2.23-3.51c-1.29-0.85-2.76-1.11-4.28-1.18c-5.15-0.24-10.32-0.39-15.46-0.8
				c-5.92-0.47-12.02,0.74-17.72-1.9c-1.44-0.66-2.95-1.33-2.49-3.17c0.42-1.7,2-1.7,3.28-1.13c8.57,3.83,17.81,1.16,26.61,2.82
				c4.14,0.78,4.7-1.03,2.89-4.46c-5.63-10.64-12.18-20.65-20.29-29.57c-5.13-5.65-11.5-10.1-18.51-12.35
				c-12.85-4.13-25.74-9.67-39.86-5.91c-0.35,0.09-0.83-0.31-1.31-0.51c2.83-2.49,13.2-5.44,16.61-4.31
				c9.59,3.18,20.03,3.5,29.06,8.57c0.83,0.47,2.04,0.92,2.61-0.22c0.26-0.53-0.15-1.66-0.61-2.23
				c-4.11-5.03-8.13-10.21-14.45-12.71c-6.78-2.69-13.56-5.4-20.7-7.05c-2.31-0.53-4.46-1.42-6.24-2.99
				c-0.88-0.78-1.83-1.85-1.06-3.01c0.84-1.26,2.22-0.65,3.11,0.05c7.12,5.62,16.41,5.21,24.25,8.8c0.87,0.4,1.99,1.02,2.78,0.11
				c1-1.14,0.04-2.22-0.64-3.1c-7.83-10.08-18.53-14.67-30.93-15.3c-3.34-0.17-6.86,2.44-10.16,2.15
				c-10.32-0.91-17.19,5.07-24.3,10.88c-1.5,1.22-2.94,2.63-5.31,2.17c0.41-2.55,2.37-3.37,3.92-4.5c3.23-2.35,6.89-4.24,9.71-7
				c3.44-3.37,7.12-4.48,11.74-3.96c2.47,0.28,4.99-0.28,7.26-1.49c0.89-0.48,1.75-1.17,1.71-2.27c-0.04-1.16-1.07-1.93-2.02-1.88
				c-5.48,0.24-11.15-1.54-16.24,2.56c-3.96,3.19-8.4,5.93-12.96,8.18c-7.55,3.73-13.06,9.76-17.86,16.17
				c-4.74,6.33-8.82,13.41-11.86,20.71c-2.81,6.77-6.77,13.73-5.39,21.48c2.94,16.5,4.53,33.11,5.87,49.8
				c0.65,8.05,1.21,16.36,5.23,24.09c3.09,5.93,6.09,12.43,6.4,19.32c0.56,12.49,1.42,24.92,3,37.33
				c1.28,10.05,1.02,20.48,5.42,29.81c4.93,10.47,7.72,21.78,14.56,31.59c6.59,9.45,10.68,20.64,20.57,27.66
				c0.91,0.65,1.63,1.67,2.23,2.65c3.39,5.56,9.81,7.01,15.16,3.13c2.27-1.65,4.4-3.63,6.15-5.81c8.89-11.07,18.83-21.1,29.31-30.63
				c1.97-1.79,3.87-3.64,5.9-5.36c0.79-0.67,1.92-0.85,2.65,0.15c0.57,0.79,0.09,1.64-0.5,2.24c-0.82,0.82-1.68,1.62-2.63,2.29
				c-6.3,4.47-10.84,10.77-16.52,15.89c-0.92,0.83-2.24,2.16-1.35,3.43c0.98,1.41,2.42,0.16,3.58-0.33
				c8.73-3.7,17.34-7.7,26.18-11.1c12.29-4.72,19.51-13.87,23.73-25.84c1.87-5.31,5.78-8.3,11.24-11.39
				c-0.78,4.04-2.76,5.92-4.12,8.15c-1.22,2.01-4.37,4.09-2.14,6.39c2.52,2.59,5.13-0.28,7.47-1.69c0.55-0.33,1.06-0.86,1.4-1.41
				c1.86-3.05,4.11-4.37,7.91-3.16c3.11,0.99,4.85-1.63,6.15-4.01c1.43-2.62-0.63-4.09-2.38-5.29c-4.14-2.84-7.84-6.16-11.31-9.76
				c-1.74-1.81-3.56-2.11-5.79-0.69c-11.67,7.45-24.6,12.32-37.11,18.05c-1.73,0.79-4.27,2.05-5.15-0.57
				c-0.81-2.41,1.94-2.53,3.59-3.1c12.31-4.32,23.43-11.14,35.06-16.88c2.88-1.42,2.63-3.55,1.13-5.8
				c-1.42-2.13-2.86-5.79-5.93-3.39c-6.09,4.77-13.03,7.44-20.05,10.26c-9.24,3.71-17.51,9.76-27.38,11.95
				c-3.92,0.87-7.72,1.81-11.39,3.52c-7.22,3.36-14.77,3.84-22.43,1.55c-1.36-0.41-3.37-0.94-2.76-2.84c0.6-1.88,2.5-1.15,3.89-0.74
				c6.59,1.94,13,1.91,19.5-0.7c6.48-2.61,13.13-4.81,19.75-7.05c3.64-1.23,6.94-3.07,10.34-4.82c6.48-3.34,12.67-7.44,19.75-9.42
				c3.4-0.95,6.02-2.6,8.35-5.09c2.38-2.54,2.89-4.55-0.55-6.8c-2.32-1.52-4.17-3.79-6.15-5.81c-1.95-2-4.14-2.57-6.06-0.4
				c-3.09,3.48-7.04,4.69-11.39,5.47c-4.24,0.77-8.61,1.45-12.57,3.04c-7.89,3.15-16.03,5.34-24.16,7.67
				c-3.64,1.04-6.68,0.11-9.67-1.98c3.28-0.01,6.72,0.68,9.63-0.83c6.61-3.45,14.18-3.34,20.98-6.1c7.36-2.97,15.47-4.08,22.15-8.77
				c1.41-0.99,3.59-1.8,2.96-4.11c-0.59-2.18-2.74-2.75-4.63-3.41c-1.95-0.67-3.5,0.41-5.16,1.22c-4.15,2.02-8.08,5.41-12.99,4.46
				c-7.47-1.45-15.21-1.97-22.31-4.88c-3.78-1.55-7.59-2.52-11.56-2.89c-5.02-0.47-9.87-1.71-14.63-3.15
				c-6.38-1.94-12.61-4.37-17.28-9.53c-0.91-1.01-2.13-2.03-0.79-3.35c1.27-1.25,2.5-0.25,3.46,0.69c2.38,2.34,4.65,4.79,8.02,5.76
				c18.16,5.2,36.08,11.37,55.18,12.62c4.22,0.28,7.89,0.26,11.04-2.87c1.07-1.07,2.52-1.99,1.67-3.72
				c-0.79-1.62-2.41-1.54-3.95-1.29c-8.44,1.34-14.12-2.11-18.56-9.36c-2.97-4.86-6.86-9.44-14.1-8.09
				c-3.36,0.63-5.99-1.64-7.54-4.72c-1.05-2.08-1.98-4.22-2.96-6.34c-1.62-3.48-4.11-4.91-8.07-4.04c-4.06,0.9-8.2,1.45-12.33,1.95
				c-4.95,0.6-9.95,1.27-14.81-0.58c-1.08-0.41-2.57-0.87-2.24-2.25c0.45-1.91,2.01-1.1,3.28-0.77c7.51,1.98,14.87-0.2,22.28-0.88
				c1.09-0.1,2.55-0.22,2.6-1.77c0.05-1.41-1.26-1.89-2.31-2.31c-1.38-0.55-2.83-1.03-4.3-1.26c-5.56-0.89-11.23-1.31-16.7-2.59
				c-7.01-1.64-13.52-4.61-18.63-9.98c-1.02-1.07-2.48-2.45-1.19-3.85c1.61-1.74,3.01-0.08,4.13,1.13
				c6.21,6.71,14.26,9.57,22.99,11.01c1.57,0.26,3.6,1.23,4.34-0.94c0.66-1.93-1.09-2.92-2.61-3.71
				c-9.31-4.79-17.34-11.05-23.43-19.71c-5.36-7.62-11.1-14.97-15.35-23.32c-0.68-1.34-1.43-3.24,0.16-4.04
				c1.93-0.97,2.32,1.2,2.93,2.47c2.8,5.84,5.69,11.68,9.76,16.73c5.52,6.85,10.47,14.24,17.47,19.79c1.09,0.86,2.28,2.78,3.74,1.35
				c1.68-1.64-0.35-2.96-1.28-4.2c-3.38-4.5-7.1-8.67-10.24-13.44c-4.99-7.57-5.99-16.09-8.01-24.41c-0.82-3.4-1.28-6.89-0.69-10.41
				c0.19-1.12,0.21-2.63,1.66-2.72c1.87-0.11,1.75,1.64,2,2.89c0.13,0.65,0.11,1.33,0.18,1.99c1.61,15.97,5.4,31.19,16.66,43.36
				c6.91,7.47,11.54,17.23,21.63,21.59c3.66,1.58,7.4,3.27,10.54,5.66c4.61,3.51,9.36,3.9,14.61,2.4c4-1.14,8-2.29,12.02-3.36
				c0.94-0.25,2.14-0.33,2.4,1.02c0.19,0.98-0.59,1.52-1.45,1.7c-6.98,1.45-13.11,5.97-20.59,5.66c-1.84-0.08-4.58-0.75-4.35,2.43
				c0.19,2.61,2.09,4.14,4.85,4c3.54-0.18,6.87-1.1,9.96-2.94c4.91-2.91,10.65-3.81,15.6-6.79c-0.65,2.75-2.81,3.46-4.62,4.35
				c-2.84,1.39-5.86,2.41-8.37,4.41c-2.3,1.84-2.82,3.69,0.12,5.45c2.37,1.42,3.91,3.59,5.2,5.95c1.68,3.06,4.37,5.03,7.3,6.63
				c3.79,2.07,5.54,1.12,6.12-3.06C1066.96,524.58,1066.56,522.82,1068.6,520.84z M1041.26,825.96c6.72,0.5,13.01-0.02,19.32-3.3
				c7.63-3.96,14.97-8.77,23.6-10.64c1.64-0.36,4.33-0.6,3.73-3.02c-0.51-2.08-3.16-1.77-4.8-1.41c-4.36,0.96-8.55,3.4-12.76,3.93
				c-11.49,1.45-23.22,0.73-34.6,3.64c-0.92,0.24-2.15-0.15-2.32-1.37c-0.21-1.47,0.92-2,2.14-2.24c8.28-1.67,16.4-4.1,25.04-3.79
				c12.83,0.46,24.83-4.91,37.63-5.68c7.45-0.45,14.67-4.18,22.43-4.35c1.48-0.03,3.35-0.09,3.48-2.03c0.13-1.9-1.68-2.43-3.13-2.57
				c-9.41-0.87-18.21-5.45-27.99-4.38c-2.5,0.27-5.21-0.9-7.74-1.68c-1.46-0.45-2.82-1.57-2.07-3.37c0.68-1.62,2.2-1.23,3.46-0.68
				c1.72,0.74,3.45,1.02,5.34,0.97c5.87-0.15,11.61,0.49,17.14,2.74c6.84,2.79,14.27,3.21,21.41,4.58
				c7.72,1.47,14.76-1.38,21.59-5.62c11.76-7.29,23.31-14.55,29.81-27.41c7.19-14.22,13.65-28.79,19.39-43.65
				c1.76-4.54,3.22-9.64,1.87-14.7c-3.59-13.47-1.87-27.57-5.05-41.04c-1.45-6.13-0.63-13.36-6.42-17.72
				c-7.18-5.4-13.03-12.21-19.95-17.92c-6.14-5.07-10.98-8.87-20.41-7.36c-11.72,1.88-22.26,5.1-31.78,11.8
				c-10.87,7.66-21.21,16.1-32.36,23.32c-10.83,7.02-22.59,12.56-34.62,17.28c-5.41,2.12-9.79,5.56-14.27,8.96
				c-1.22,0.93-2.66,2.48-1.49,4.29c1.01,1.56,2.75,0.94,4.13,0.48c9.09-3.01,18.39-5.69,24.68-13.77c0.59-0.75,1.51-1.63,2.36-1.73
				c4.48-0.53,8.06-2.93,11.74-5.21c1.28-0.8,2.85-1.16,4.25-0.19c0.45,0.31,0.92,1.18,0.79,1.63c-0.5,1.77-2.18,1.91-3.63,2.08
				c-5.88,0.65-10.34,3.4-13.26,8.59c-1.02,1.82-2.71,2.77-4.51,3.76c-13.8,7.56-28.65,12.55-43.58,17.09
				c-11.01,3.34-21.35,7.8-29.84,15.33c-11.33,10.05-23.61,18.28-37.55,24.15c-3.36,1.42-6.87,2.39-10.12,4.2
				c-16.85,9.37-31.78,21.3-45.72,34.46c-8.65,8.16-18.8,14.9-24.69,25.83c-1.72,3.2-2.39,5.61,1.7,6.26
				c15.53,2.47,26.68,12.4,38.22,21.77c7.89,6.4,15.16,13.56,23.16,19.75c6.29,4.87,11.76,10.62,18.22,15.31
				c3.66,2.66,7.77,5.1,10.67,8.85c4.18,5.41,10.74,7.58,16.13,11.34c2.23,1.56,5.21,2.15,7.93,2.87c2.11,0.56,4.08-0.1,4.87-2.38
				c0.71-2.05-0.29-3.48-2.12-4.5c-4.07-2.29-7.66-5.2-11.22-8.25c-16.56-14.16-34.47-26.63-51.07-40.77
				c-7.93-6.75-14.42-15.28-24.06-19.98c-0.78-0.38-1.15-1.22-0.64-2.12c0.57-0.99,1.55-1.26,2.58-1.16
				c2.84,0.28,4.85,2.2,6.82,3.93c6.26,5.49,12.27,11.25,18.56,16.7c16.84,14.59,35.62,26.75,52.3,41.56
				c2.71,2.41,6.03,4.13,9.04,6.21c1.38,0.95,2.94,1.27,4.17,0.18c2.15-1.89,4.54-2.42,7.32-2.51c2.28-0.07,4.22-1.42,4.56-3.89
				c0.32-2.27-1.61-3.07-3.28-3.87c-6.2-2.94-11.85-6.79-17.27-10.93c-14.85-11.35-27.86-24.75-41.32-37.63
				c-4.93-4.71-9.88-9.41-14.73-14.2c-1.2-1.19-2.23-2.91-0.57-4.36c1.44-1.26,2.75-0.03,3.87,1.04
				c10.94,10.46,22.21,20.54,32.74,31.44c11.95,12.37,24.94,23.55,40.4,31.5c1.74,0.89,3.48,1.83,5,0.17
				c3.73-4.07,8.97-6.26,12.47-10.68c2.47-3.12,5.78-5.67,9.66-6.89c4.88-1.54,8.83-4.55,12.96-7.31c1.1-0.74,2.52-1.4,2.14-3.01
				c-0.39-1.68-1.97-1.48-3.28-1.54c-12.73-0.67-25.47,0.67-38.23-1.7c-8.3-1.54-16.97-1.01-24.2-6.46
				c-1.4-1.06-3.03-1.95-2.02-3.91c1.11-2.16,3.02-1.67,4.75-0.72c12.07,6.63,25.68,5.68,38.66,7.57
				C1031.48,826.58,1036.45,825.42,1041.26,825.96z M984.31,362.97c-1.64-1.78-3.95,1-4.71-1.1c-0.72-2.02,0.85-3.8,2.13-5.32
				c3.11-3.73,7.68-3.94,11.81-0.47c2.24,1.88,4.45,2.95,7.21,1.25c1.83-1.13,3.34-2.86,2.54-4.94c-2.18-5.75-4.77-11.56-9.65-15.38
				c-2.43-1.91-2.87-3.17-1.88-5.61c2.05-5.09,1.17-9.97-0.47-15.07c-2.39-7.41-4.49-14.95-6.05-22.57
				c-1.5-7.34-4.19-14.15-8.77-19.83c-9.89-12.28-21.85-20.25-38.69-21.35c-15.9-1.04-30.25,0.59-43.37,10.17
				c-10.87,7.94-19.71,17.26-21.13,31.23c-1.29,12.73,1,25.34,5.4,37.19c3.05,8.21,4.54,16.82,7.79,25.03
				c2.27,5.72,3.72,11.54,8.15,16.01c2.38,2.41,3.97,5.28,5.77,8.08c7.33,11.37,15.81,21.4,30.07,24.22
				c1.4,0.28,2.83,0.52,3.45-1.01c0.83-2.03-0.95-2.02-2.2-2.33c-3.64-0.91-2.25-3.52-1.11-4.98c2.05-2.64,5.29-1.56,7.93-1.03
				c2.7,0.54,0.81,2.52,0.66,4c-0.27,2.73,0.65,5.31,3.62,5.58c2.81,0.26,3.24-2.19,3.32-4.54c0.2-5.81,1.72-11.19,5.91-15.45
				c1.44-1.46,1.37-2.75,0.7-4.48c-1.62-4.17-5.06-7.18-6.93-11.19c-0.43-0.93-1.05-1.88-0.4-2.79c0.9-1.27,2.19-0.57,3.15-0.06
				c1.14,0.61,1.97,1.98,3.15,2.32c3.25,0.95,5.66,7.66,10.05,1.62c0.38-0.53,1.34-0.6,1.71,0.1c0.26,0.48,0.27,1.39-0.02,1.82
				c-1.22,1.77-2.62,3.42-3.92,5.14c-0.76,1-2.21,2.09-0.6,3.33c1.28,0.98,2.8,0.2,3.5-0.91
				C967.57,371.39,976.89,368.67,984.31,362.97z M915.77,848.81c0-1.43,0.77-2.27,1.52-3.11c1.27-1.43,2.44-3.07,1.27-4.9
				c-1.12-1.75-2.76,0.19-3.91-0.01c-1.62-0.28-6.07,0.89-3.37-3.7c0.52-0.88,0.33-1.77-0.57-2.06c-4.34-1.38-5.59-6-9.02-8.47
				c-3.07-2.21-7.12-1.54-9.96-4.9c-1.51-1.79-4.19-2.73-4.72-5.6c-0.23-1.22-0.99-2.35-2.21-2.45c-5.11-0.41-9.35-3.36-14.15-4.63
				c-1.61-0.42-3.22-0.29-3.82,1.38c-2.46,6.85-4.84,13.54-1.42,21.05c2.49,5.47,7.13,9.87,8.26,15.86
				c1.81,9.62,6.65,17.68,12.26,25.35c5.44,7.44,6.8,7.7,15.5,4.73c1.73-0.59,3.59-0.86,5.23-1.63c5.79-2.72,12.03-4.56,16.4-9.85
				c2.82-3.42,4.78-7.69,8.99-9.87c1.55-0.8,4.04-1.4,2.68-3.79c-1.12-1.97-3.2-1.01-4.91-0.25c-0.57,0.25-1.17,0.45-2.22,0.86
				c0.65-10.36-3.71-1.33-5.69-1.63c-1.14-2.52,3.94-3.64,1.43-5.55C919.92,843.06,918.8,848.43,915.77,848.81z M899.62,419.09
				c-1.03-4.05-2.02-8.11-3.12-12.14c-0.56-2.06-3.11-4.8-0.3-5.92c1.82-0.73,1.81,2.92,2.4,4.67
				c4.77,14.17,10.67,27.43,25.94,33.44c1.16,0.46,2.29,1.97,3.57,0.7c1.32-1.31-0.14-2.41-0.79-3.47
				c-3.21-5.28-5.82-10.84-7.88-16.65c-0.5-1.39-1.32-3.36,0.31-4.03c2.19-0.89,2.56,1.48,3.14,2.92c4.11,10.18,9.13,19.87,15.24,29
				c0.69,1.03,0.9,2.88,2.7,2.25c1.48-0.52,1.49-2.12,1.39-3.45c-0.1-1.32-0.62-2.61-0.69-3.92c-0.41-7.99-5.25-16.17,0.96-23.92
				c0.37-0.47,0.4-1.27,0.46-1.92c0.61-6.02-4.7-10.28-10.01-7.98c-2.2,0.95-4.2,0.44-6.3-0.26c-9.18-3.06-16.41-8.75-22.04-16.5
				c-7.37-10.15-17.18-18.61-21.37-30.95c-0.42-1.25-0.97-2.81-2.6-2.58c-1.85,0.26-2.82,1.91-3.12,3.55
				c-1.82,10.06-6.49,19.51-5.94,30.13c0.26,4.91,1.14,9.79,2.82,14.07c2.56,6.51,5.73,13.26,13.14,16.1
				c1.54,0.59,3.33,1.32,4.64-0.24c1.25-1.49-0.04-2.84-0.83-4.05c-4.83-7.38-6.6-15.91-8.66-24.21c-1.21-4.9-1.41-10.22-0.62-15.38
				c0.16-1.07-0.17-2.67,1.5-2.65c1.46,0.01,1.58,1.52,1.81,2.63c0.2,0.97,0.14,1.99,0.29,2.98c1.2,8.23,1.99,16.6,5,24.39
				C892.59,410.61,894.15,415.96,899.62,419.09z M1019.58,670.56c0.07,3.15-0.62,5.85,0.38,8.43c0.65,1.69,1.82,2.86,3.8,2.52
				c1.54-0.26,2.64-1.64,2.16-2.86c-2.09-5.34,1.43-5.34,4.95-5.73c1.28-0.14,2.53-0.82,3.75-1.34
				c14.23-6.12,25.93-16.11,38.2-25.17c9.61-7.1,18.44-15.3,29.51-20.25c1.54-0.69,3.54-2.91,4.76-0.89
				c1.17,1.94-1.83,2.64-2.98,3.88c-0.44,0.47-1.07,0.79-1.67,1.09c-9,4.46-17.16,10.16-24.5,16.99c-1.28,1.19-4.44,2.18-2.83,4.3
				c1.33,1.77,3.57-0.37,5.29-1.26c0.29-0.15,0.56-0.37,0.84-0.55c12.09-7.89,24.02-15.99,35.1-25.26
				c9.3-7.78,19.51-13.31,32.01-13.4c1.05-0.01,2.1-0.36,2.29-1.51c0.22-1.32-0.69-2.54-1.79-2.67c-6.8-0.79-13.38-5.25-20.53-0.26
				c-3.36,2.34-7.15,4.63-11.89,4.41c-2.53-0.11-5.16,1.18-7.33,2.87c-9.19,7.17-18.8,13.75-28.26,20.54
				c-12.58,9.03-25,18.22-39.41,24.26c-4.31,1.81-8.5,4-13.33,1.58c-1.6-0.8-3.21-0.22-4.78,0.54
				C1018.71,663.04,1018.75,666.9,1019.58,670.56z M1016.51,677.46c0.08,0,0.17-0.01,0.25-0.01c0-2.16,0.22-4.35-0.05-6.47
				c-0.36-2.86-2.15-5.09-4.89-5.71c-3.07-0.7-3.67,2.08-4.51,4.26c-1.12,2.94-2.6,5.74-3.01,8.95c-0.58,4.57-2.75,8.97,3.11,12.53
				c2.63,1.6,4.38,1.74,6.63,0.85c2.31-0.92,3.73-2.64,3.34-5.46C1016.98,683.43,1016.79,680.43,1016.51,677.46z M932.38,949.82
				c2.41,1.55,4.25,0.33,6.02-0.24c9.95-3.18,19.26-8.06,29.49-10.63c4.66-1.17,9.6-3.01,12.83-7.23c1.12-1.47,3.78-2.96,2.17-4.81
				c-1.18-1.35-3.3,0.61-4.71,1.67c-2.53,1.91-5.01,4.34-8.09,4.76c-7.53,1.03-14.4,3.96-21.33,6.69
				C942.9,942.34,936.76,944.47,932.38,949.82z M1035.05,656.53c0.49-0.14,1.33-0.27,2.08-0.61c11.59-5.28,22.64-11.58,33.8-17.69
				c1.26-0.69,2.86-2.15,1.92-3.59c-1.15-1.74-3.08-0.61-4.4,0.32c-4.56,3.22-9.88,4.51-15,6.42c-7.04,2.64-14.72,4.12-20.31,9.84
				c-1.07,1.1-2.39,2.04-1.75,3.75C1031.93,656.47,1033.34,656.6,1035.05,656.53z M963.49,925.5c-12.45,3.72-24.71,7.27-35.36,14.73
				c-1.31,0.92-2.12,2.42-0.84,3.84c1.32,1.47,2.85,0.35,4.03-0.45c11.66-7.88,25.02-11.09,38.46-14.1
				c2.99-0.67,5.47-2.36,7.66-4.44c0.81-0.77,1.84-1.81,0.85-2.99c-0.98-1.16-2.14-0.47-3.05,0.32
				C971.78,925.41,968.43,928.68,963.49,925.5z M936.1,899.29c-0.42,0.08-0.92,0.14-1.4,0.27c-9.16,2.53-17.19,7.65-25.8,11.42
				c-1.59,0.69-2.62,2.24-1.95,4.11c0.72,1.99,1.27,4.23,3.41,5.28c1.37,0.67,2.24-0.01,2.48-1.43c0.61-3.5,3.42-5.24,5.96-6.97
				c5.51-3.75,11.4-6.75,18.12-7.83c1.37-0.22,3.27-0.64,2.81-2.72C939.35,899.73,937.75,899.37,936.1,899.29z M947.25,888.68
				c-3.32-1.64-5.25-0.02-7.11,0.65c-11.22,4.01-23.47,5.22-33.54,12.33c-1.49,1.05-3.66,2.21-2.49,4.21
				c1.1,1.88,2.96,0.21,4.4-0.43c7.29-3.28,14.4-7.33,22.23-8.79C936.95,895.49,941.36,891.79,947.25,888.68z M1120.7,877.72
				c-0.63-2.78-2.72-2.97-4.34-1.31c-3.35,3.43-7.82,3.27-11.85,4.64c-6.64,2.25-13.84,2.04-20.3,4.94
				c-1.96,0.88-4.73,1.48-3.62,4.31c1.02,2.6,3.47,1.08,5.25,0.54c7.77-2.35,15.27-5.54,23.51-6.36c3.04-0.3,5.94-2.04,8.89-3.18
				C1119.77,880.7,1120.65,879.57,1120.7,877.72z M942.99,1073.55c-2.06-0.12-2.89-0.25-3.71-0.2c-1.45,0.1-3.4-0.05-3.42,1.96
				c-0.02,1.67,1.84,1.62,3.08,1.86c2.31,0.45,4.74,0.54,6.89-0.37c6.44-2.71,13.13-4.11,20.03-5.05c4.72-0.65,9.33-2.27,13.92-3.69
				c1.63-0.51,4.21-1.4,3.51-3.45c-0.78-2.29-3.58-1.78-5.24-0.91c-3.74,1.96-7.88,2.6-11.8,3.79
				C958.22,1069.93,950.17,1072.52,942.99,1073.55z M943.17,963.88c8.45-2.39,17.47-4.92,26.47-7.53c0.74-0.21,1.35-0.95,1.95-1.51
				c1.24-1.17,2.65-2.63,1.6-4.28c-1.09-1.71-3.04-1.02-4.48-0.16c-2.02,1.21-4.18,1.92-6.41,2.63c-6.94,2.2-13.84,4.55-20.73,6.88
				c-1.18,0.4-3.02,0.47-2.7,2.29C939.23,964.18,941.1,963.76,943.17,963.88z M1075.27,866.82c0.06,0.52,0.13,1.04,0.19,1.57
				c7.39-0.71,14.77-1.86,22.17-1.98c6.14-0.1,11.35-2.03,16.32-5.24c1.07-0.69,3.04-1.14,2.46-2.63c-0.74-1.92-2.62-0.82-3.84-0.25
				c-4.43,2.08-8.98,3.55-13.93,3.37C1090.37,861.36,1082.79,863.96,1075.27,866.82z M1056.06,971.51c0.09,3.1,7.91,8.75,10.4,7.79
				c1.6-0.62,1.4-1.75,0.24-2.63c-1.05-0.8-2.29-1.34-3.42-2.04c-3.19-2-4.69-4.36-1.39-7.54c0.95-0.92,1.36-1.87,0.69-3.09
				c-1.69-3.1-0.36-3.88,2.63-3.51c1.02,0.13,2.13-0.07,2.19-1.36c0.02-0.44-0.69-1.07-1.21-1.36c-1.76-0.96-10.55,1.33-11.66,2.95
				c-0.64,0.93-0.72,1.97-0.08,2.79C1056.43,966.05,1057.31,968.75,1056.06,971.51z M976.24,967.58c-3.09-2.39-5.6-0.82-8.06-0.44
				c-6.07,0.94-11.51,4.32-17.8,4.52c-1.29,0.04-2.63,0.83-2.84,2.38c-0.15,1.11,0.76,1.33,1.65,1.24
				C958.35,974.28,967.59,973.59,976.24,967.58z M1110.18,931.92c-1.43,1.63-4.86-1.2-4.79,2.16c0.05,2.52,2.62,3.18,4.8,3.46
				c1.84,0.24,3.23-0.38,3.45-2.58c0.44-4.44,0.83-8.8-5.64-8.89c0.68-1.88,2.71-2.97,1.17-4.83c-0.82-0.98-1.87-1.39-3.1-0.98
				c-1.76,0.59-2.64,1.94-2.87,3.71c-0.45,3.51-0.07,6.43,4.57,6.34C1108.71,930.3,1109.81,930.36,1110.18,931.92z M1099.24,967.14
				c2.35-0.19,5.98-0.41,9.59-0.8c1.23-0.13,2.99-0.22,2.92-1.97c-0.06-1.4-1.68-1.41-2.75-1.64c-7.72-1.64-15.41,0.82-23.14,0.26
				c-0.84-0.06-1.75,0.48-1.79,1.39c-0.05,1.24,1.08,1.5,2.05,1.75C1090.01,967.15,1094.01,966.88,1099.24,967.14z M1096.6,878.95
				c3.03-0.03,5.18,0.95,6.58-1.23c0.58-0.9,0.58-1.96-0.08-2.82c-1.62-2.09-4-1.89-5.96-1.14c-5.54,2.13-11.91,1.39-17.01,5.01
				c-1.12,0.79-2.61,1.4-1.86,2.98c0.8,1.68,2.43,0.93,3.47,0.27C1086.69,878.89,1092.43,880.1,1096.6,878.95z M943.49,916.87
				c3.01-0.48,5.69-2.24,8.83-2.9c5.49-1.16,10.82-3.11,16.2-4.79c1.34-0.42,2.51-1.29,2.14-2.9c-0.39-1.71-1.74-1.28-2.77-0.72
				c-7.88,4.31-17.02,4.31-25.23,7.47c-1.14,0.44-3.16,0.09-2.92,1.93C939.96,916.78,941.92,916.61,943.49,916.87z M1109.63,896.64
				c-5.87-0.21-11.21,2.44-16.87,3.6c-1.13,0.23-2.42,0.71-2.29,2.17c0.11,1.21,1.29,1.62,2.28,1.35
				c7.57-2.13,15.34-2.63,23.12-3.09c1.01-0.06,2-0.49,2.04-1.75c0.04-1.18-0.78-1.77-1.79-2.06
				C1114.01,896.25,1111.87,896.29,1109.63,896.64z M959.35,1001.19c3.27,0,5.29-0.29,7.2,0.05c6.3,1.12,11.42-2.73,17.18-3.85
				c1.41-0.28,2.87-1.4,2.3-3.24c-0.49-1.61-2.03-1.51-3.35-1.23C974.93,994.54,967.26,996.41,959.35,1001.19z M980.86,938.77
				c-0.76-2.31-2.35-1.27-3.5-0.61c-6.5,3.68-13.62,5.89-20.43,8.83c-1.08,0.47-2.52,0.76-2.18,2.19c0.38,1.59,2.13,1.88,3.26,1.31
				c6.47-3.27,13.93-4.13,19.99-8.32C979.23,941.33,980.38,940.38,980.86,938.77z M1085.93,857.94c9.59,0.7,18.79,0.52,27.26-4.41
				c1.26-0.73,3.15-1.14,2.15-3.12c-0.75-1.48-2.35-1.04-3.54-0.47c-6.59,3.1-13.34,5.34-20.77,5.22
				C1089.2,855.14,1087.1,855.63,1085.93,857.94z M971.46,1077.06c7.12-0.83,13.71-3.31,19.67-7.47c0.81-0.56,1.84-1.14,1.14-2.33
				c-0.73-1.25-1.95-1.06-3.09-0.61c-6.15,2.42-12.3,4.85-18.44,7.3c-0.99,0.39-2.58,0.49-2,2.17
				C969.13,1077.24,970.39,1076.97,971.46,1077.06z M884.29,1093.68c4.21-0.64,7.89-0.66,10.76-3.5c1.17-1.17,3.01-1.87,2.16-3.91
				c-0.93-2.24-2.97-2.6-5.03-2c-3.37,0.97-6.33,2.84-9.23,4.74c-0.97,0.64-1.73,1.66-1.26,2.98
				C882.23,1093.5,883.53,1093.74,884.29,1093.68z M962.27,977.75c0.15,0.55,0.31,1.1,0.46,1.65c7.84-1.39,15.86-1.95,23.19-5.68
				c1.02-0.52,2.03-1.15,2.88-1.91c0.79-0.7,1.06-1.75,0.35-2.67c-0.76-0.97-1.7-0.71-2.64-0.14c-4.12,2.5-8.82,3.51-13.27,5.14
				C969.62,975.45,965.93,976.55,962.27,977.75z M1107.88,989.25c5.68,1.32,11.01,1.34,16.37,0.88c0.99-0.08,1.95-0.61,2.15-1.73
				c0.17-0.93-0.48-1.47-1.25-1.9C1120.22,983.81,1112.51,984.84,1107.88,989.25z M1079.15,833.15c2.94-0.91,6.47-0.41,9.23-2.57
				c1.11-0.87,2.87-1.71,2.16-3.46c-0.71-1.73-2.59-1.39-3.92-0.92c-2.94,1.05-5.79,2.37-8.66,3.63c-0.89,0.39-2.06,0.91-1.87,2.02
				C1076.35,833.38,1077.86,832.94,1079.15,833.15z M976.61,1038.76c5.65,2.09,10.9,1.51,16.04,1.73c0.94,0.04,2.13-0.36,2.27-1.52
				c0.19-1.54-1.16-1.95-2.27-2.05C987.46,1036.48,982.22,1035.91,976.61,1038.76z M1005.31,1060.87c2.22-0.48,4.98-1,7.69-1.69
				c1.18-0.3,2.12-1.18,1.78-2.55c-0.26-1.05-1.26-1.69-2.28-1.55c-2.92,0.39-5.85,0.83-8.71,1.54c-1.23,0.31-2.59,1.37-2.32,2.85
				C1001.78,1061.19,1003.48,1060.76,1005.31,1060.87z M1103.65,814.55c-5.69-2.05-9.23,2.54-13.51,4.46
				c-1.55,0.7-0.21,1.89,1.11,2.13C1094.56,821.75,1101.79,817.96,1103.65,814.55z M1020.88,1082.4c-0.25-2.31-0.95-4.41-3.82-4.09
				c-1.95,0.22-4.33,0.77-3.43,3.61c0.64,2.03-0.61,5.58,3.49,5.37C1020.19,1087.14,1020.77,1084.94,1020.88,1082.4z
				 M986.44,1029.67c2.03-0.38,6.34,1.25,6.38-1.71c0.06-3.53-4.07-1.49-6.42-1.73c-0.32-0.03-0.67-0.03-0.98,0.05
				c-2.21,0.53-6.16-2.13-6.36,1c-0.21,3.19,4.11,1.82,6.48,2.35C985.71,1029.65,985.88,1029.64,986.44,1029.67z M1013.44,1062.75
				c-2.11,0.38-3.12,1.63-2.87,3.52c0.41,3.11,2.46,5.14,5.39,5.7c1.93,0.37,2.46-1.44,2.12-3.04
				C1017.5,1066.15,1016.7,1063.42,1013.44,1062.75z M1108.78,979.97c1.62-0.52,4.28,0.6,4.47-1.89c0.18-2.4-2.48-2.35-4.14-2.38
				c-2.53-0.05-6.76-2.4-7.14,1.25C1101.61,980.39,1106.37,978.88,1108.78,979.97z M1132.46,994.88c2.06-0.61,4.61-1.32,7.11-2.16
				c0.52-0.18,1.21-0.84,1.23-1.31c0.04-0.97-0.86-1.4-1.71-1.38c-2.64,0.06-5.3,0.09-7.92,0.4c-1.37,0.17-2.53,1.21-2.36,2.75
				C1129.02,995.01,1130.63,994.75,1132.46,994.88z M1106.7,830.51c2.45,0.01,7.1-3.47,7.02-5.1c-0.07-1.37-0.87-2.1-2.22-2.22
				c-1.75-0.15-7.6,3.83-7.4,5.09C1104.34,829.83,1105.47,830.45,1106.7,830.51z M946.77,901.77c3.44-0.78,6.82-1.93,8.31-5.37
				c0.46-1.07-1.59-1.56-2.65-1.21c-3.06,1.01-6.7,1.47-8,5.01C943.89,901.68,945.55,901.83,946.77,901.77z M914.85,892.82
				c2.3-3.24,6.63-2.1,9.63-4.3c0.83-0.61,1.65-1.37,1.09-2.46c-0.61-1.16-1.66-0.54-2.62-0.37c-3.56,0.63-6.12,3.19-9.22,4.71
				c-0.59,0.29-1.04,0.94-0.58,1.62C913.36,892.36,913.96,892.43,914.85,892.82z M996.1,1072.96c4.2,1.42,6.68-1.11,9.6-1.17
				c1.16-0.02,3.22-0.03,2.83-1.81c-0.41-1.89-2.53-2.16-4.06-1.5C1001.85,1069.6,999.41,1071.15,996.1,1072.96z M958.4,905.97
				c2.87-0.12,4.95-2.26,7.44-3.46c0.6-0.29,0.86-1.11,0.44-1.72c-0.53-0.77-1.42-0.81-2.23-0.49c-2.15,0.84-4.28,1.74-6.41,2.63
				c-0.89,0.37-2.1,0.64-1.84,1.9C956.06,906.08,957.32,905.83,958.4,905.97z M1121.46,974.13c1.52-0.85,5.29,1.73,5.17-1.68
				c-0.09-2.62-3.74-1.46-5.93-1.45c-0.33,0-0.66,0.02-0.98,0.07c-1.38,0.21-3.58-0.27-3.59,1.63c-0.01,2.11,2.17,1.29,3.52,1.42
				C1120.14,974.17,1120.64,974.13,1121.46,974.13z M906.37,893.18c-2.23,1.22-4.74,2.49-7.13,3.95c-0.86,0.53-1.27,1.66-0.52,2.6
				c0.79,0.99,1.79,0.52,2.65-0.06c2.05-1.39,4.09-2.78,6.11-4.2c0.53-0.37,1.17-0.81,0.82-1.6
				C907.99,893.17,907.33,893.06,906.37,893.18z M1023.58,687.21c2.68,0.43,4.87-0.09,6.84-1.23c1.15-0.66,1.99-1.96,1.32-3.4
				c-0.78-1.66-2.2-1.23-3.38-0.52C1026.42,683.24,1024.41,684.41,1023.58,687.21z M971.97,913.78c2.33-0.62,4.44-1.85,5.26-4.45
				c0.39-1.24-0.52-1.95-1.68-1.62c-2.5,0.71-5.35,1.2-5.79,4.5C969.59,913.46,970.7,913.76,971.97,913.78z M1076.02,824.72
				c1.41,1.25,2.84,0.23,4.2,0.02c1.41-0.22,3.07-0.2,3.86-1.75c0.45-0.89-0.12-1.61-0.86-2.04c-1.63-0.95-3.23-0.47-4.64,0.48
				C1077.42,822.21,1075.92,822.86,1076.02,824.72z M956.76,887.22c4.26,1.06,6.25-1.97,8.69-3.9c0.51-0.4,0.52-1.26-0.13-1.72
				c-0.35-0.24-1.1-0.44-1.32-0.25C961.77,883.32,958.31,883.85,956.76,887.22z M1102.74,840.51c-1.77,0-3.11-0.2-4.37,0.05
				c-1.92,0.37-3.97,0.72-5.16,2.56c-0.15,0.23,0.16,1.06,0.44,1.19c1.97,0.88,3.46-0.55,5.08-1.25
				C1100.03,842.51,1101.75,842.68,1102.74,840.51z M1119.03,867.66c0.02-1.69-0.82-2.57-2.41-2.49c-1.78,0.09-3.3,0.84-3.56,2.79
				c-0.24,1.84,0.9,2.81,2.67,2.73C1117.6,870.6,1118.73,869.5,1119.03,867.66z M1096.13,980.89c-2.63-1.24-5.1-2.51-7.48-3.98
				c-0.86-0.53-1.96-0.64-2.63,0.41c-0.18,0.28,0.01,1.19,0.23,1.27C1089.44,979.76,1092.13,982.95,1096.13,980.89z M960.34,985.94
				c-0.89-1.69-2.27-1.8-3.57-1.5c-1.95,0.44-4.08,1.08-4.09,3.56c-0.01,1.24,1.45,1.34,2.36,0.94
				C956.9,988.13,959.25,988,960.34,985.94z M959.53,964.76c2.37-0.45,4.75-0.84,7.11-1.36c0.83-0.19,1.5-0.83,1.22-1.81
				c-0.34-1.18-1.4-1.63-2.3-0.97C963.6,962.03,961.42,963,959.53,964.76z M986.13,941.26c-3.48,2.15-6.69,3.32-8.03,7.17
				C982.06,947.57,984.44,945.55,986.13,941.26z M983.55,960.54c1.01-0.98,3.53-0.68,4.08-3.09c0.18-0.79-0.76-1.2-1.36-0.95
				c-1.76,0.73-4.19,0.5-4.92,2.79C981.06,960.23,982.04,960.64,983.55,960.54z M1112.04,891.66c3.31,0.21,5.38-0.27,6.71-2.49
				c0.45-0.76,0.06-1.85-0.92-1.9C1115.1,887.13,1114.08,889.3,1112.04,891.66z M1061.47,848.65c-0.16-1.29-0.97-1.99-2.28-2
				c-1.34-0.01-2.18,0.79-2.25,2.1c-0.07,1.39,0.77,2.13,2.15,2.04C1060.35,850.71,1061.24,850.07,1061.47,848.65z"/>
			<path class="st0" d="M848.17,394.84c-3.25-2.68-7.34-3.92-10.1-7.11c-1.41-1.63-2.9-3.2-4.19-4.92c-0.68-0.9-1.33-2.25-0.03-3.07
				c0.98-0.62,1.83,0.37,2.48,1.14c4.07,4.84,8.22,9.32,14.66,11.4c3.44,1.11,0.99,4.78,0.64,7.05c-0.37,2.36-2.54,1.05-4.09,0.57
				c-4.43-1.38-8.37-3.4-13.64-2.93c-3.95,0.35-8.21-3.79-11.63-6.95c-3.8-3.5-8.24-5.39-13.29-6.17c-4.21-0.65-6.71-4.5-10.83-5.76
				c-7.79-2.38-13.66-8.13-19.9-13.08c-2.7-2.15-6.07-2.5-8.88-4.2c-0.95-0.58-2.59-0.64-2.16-2.18c0.52-1.85,2.44-1.31,3.37-0.82
				c3.77,1.97,7.44,3.83,11.75,1.63c2.36,6.64,6.39,1.42,9.73,1.52c2.05,0.06,2.85,2.36,3.03,4.13c0.58,5.74,5.75,8.35,8.32,12.71
				c0.64,1.08,1.86,1.28,3.11,0.97c4.79-1.17,8.62,0.7,12.11,3.79C827.05,389.99,836.75,394.46,848.17,394.84z M791.41,363.81
				c-1.97,0.43-2.22,1.66-2.14,2.74c0.17,2.24,1.87,3.36,3.77,3.95c1.18,0.37,2.05-0.71,1.58-1.69
				C793.75,366.98,792.44,365.35,791.41,363.81z"/>
			<path class="st0" d="M695.48,345.73c-3.16,4.19-0.48,9.94-2,15.15c-0.42,1.43-0.82,3.19-2.75,2.98
				c-1.94-0.22-1.99-2.05-1.98-3.51c0.03-2.87-0.23-5.59-1.6-8.22c-0.48-0.92-0.66-2.57-0.15-3.33c1.97-2.96,3.96-5.64,1.04-9.22
				c-0.65-0.8,0.43-2.08,1.61-1.41C692.35,339.7,695.49,340.99,695.48,345.73z"/>
			<path class="st0" d="M825.54,371.21c-0.4,1.29-1.37,1.35-2.34,0.83c-4.45-2.37-7.58-6.36-11.44-9.47
				c-0.99-0.79-0.51-1.84,0.93-1.87c1.64-0.04,12.48,8.51,12.75,9.99C825.48,370.86,825.51,371.02,825.54,371.21z"/>
			<path class="st0" d="M818.32,348.3c-0.33,1.93-1.6,2.28-2.94,2.12c-1.56-0.18-3.64-0.16-3.8-2.24c-0.11-1.4,1.54-1.42,2.66-1.43
				C815.82,346.72,817.49,346.65,818.32,348.3z"/>
			<path class="st0" d="M752.13,355.52c-0.01,1.15-0.23,2.29-1.5,2.18c-1.79-0.17-2.4-1.61-2.42-3.22
				c-0.01-1.15,0.11-2.66,1.72-2.38C751.68,352.39,751.81,354.15,752.13,355.52z"/>
			<path class="st0" d="M1159.66,574.6c2.45,0.03,4.58-0.07,6.88-0.5c3.63-0.68,6.46,1.64,8.27,4.52
				c4.03,6.41,7.25,13.28,13.02,18.58c2.47,2.26,5.04,4.24,7.71,6.2c6.78,4.97,12.29,11.64,20.23,15.05
				c0.15,0.06,0.33,0.16,0.4,0.29c1.23,2.15,5.37,3.87,3.57,6.13c-1.67,2.09-3.66-1.69-5.41-2.84
				c-12.91-8.55-25.03-18.1-35.21-29.88c-1.96-2.26-3.77-4.65-5.72-6.93C1169.64,580.81,1165.69,576.59,1159.66,574.6z"/>
			<path class="st0" d="M1234.56,647.41c-0.11,1.38,0.09,3.28-1.77,3.56c-2.27,0.33-2.06-1.74-2.05-3.13
				c0.03-4.32-2.34-7.49-4.76-10.69c-0.81-1.07-1.75-2.39-0.49-3.53c1.54-1.39,2.82-0.06,3.75,1.06
				C1232.27,638.33,1234.18,642.51,1234.56,647.41z"/>
			<path class="st0" d="M1213.89,643.45c0.04,1.2-0.99,1.58-1.95,1.1c-3.26-1.6-6.48-3.3-9.58-5.19c-0.98-0.6-1.4-1.99,0.05-2.84
				C1204.38,635.36,1213.71,640.83,1213.89,643.45z"/>
			<path class="st0" d="M1174.04,563.11c2.91,4.74,4.98,9.71,5.34,15.26C1177.16,573.41,1173.89,568.85,1174.04,563.11z"/>
			<path class="st0" d="M1189.17,626.42c1.35-0.07,1.9-0.27,2.25-0.08c2.08,1.1,5.05,0.84,5.95,3.72c0.21,0.67-0.48,1.27-1.17,1.25
				C1193.16,631.2,1191.11,629.59,1189.17,626.42z"/>
			<path class="st0" d="M915.61,363.57c1.12-13.88-8.07-22.66-16.19-31.91c-1.19-1.36-3.2-2.12-4.98-0.7
				c-2.03,1.62-0.46,3.24,0.21,4.89c1.97,4.82,6.87,7.14,9.54,11.39c1.22,1.94,2.4,3.37-0.36,4.75c-2.2,1.1-4.51,2.92-6.01-0.94
				c-1.7-4.35-3.94-8.37-6.82-12.11c-2.17-2.82-1.17-9.96,1.46-11.98c3.76-2.9,7.52-0.85,9.83,1.77
				c5.32,6.03,11.53,11.64,13.61,19.9c0.54,2.13,1.63,3,3.74,3.28c3.92,0.51,4.12,2.79,2.3,5.68c-1.33,2.11-2.89,4.06-3.39,6.62
				c-0.24,1.22-0.3,3.18-2.02,2.89C914.92,366.82,915.33,364.99,915.61,363.57z"/>
			<path class="st0" d="M953.29,347.78c-0.04-3.95,5.45-10.34,8.8-10.73c1.48-0.17,2.64,0.34,3.38,1.6
				c0.74,1.25,0.17,2.46-0.85,3.03c-4.88,2.74-1.12,5.89-0.43,8.79c0.42,1.75,2.18,1.82,3.15,0.72c3.03-3.41,7.95-3.98,10.81-7.75
				c2.24-2.96,7.28-2,9.32-5.79c0.3-0.56,1.53-0.71,2.19,0.11c0.7,0.88,0.7,2.17,0.16,2.82c-2.96,3.5-5.58,7.63-10.22,8.96
				c-1.8,0.52-2.96,0.98-3.72,2.62c-0.66,1.42-1.87,2.76-3.4,2.54c-2.51-0.36-3.48,0.87-4.61,2.74c-1.38,2.3-3.13,3.3-5.51,0.66
				c-1.64-1.82-3.68-3.43-5.82-4.63C953.97,352.04,953.09,350.06,953.29,347.78z"/>
			<path class="st0" d="M933.49,348.28c-1.77-0.41-2.08-1.39-1.95-2.98c0.28-3.42,1.59-6.43,3.6-9.04c1.4-1.82,4.3,0.07,6.05-1.78
				c0.37-0.39,1.65,0.15,2.18-0.69c0.55-0.86,1.03-1.86,2.24-0.99c1.12,0.8,1.15,2.05,0.65,3.15c-1.18,2.57-2.48,5.39-4.99,6.64
				c-2.65,1.31-5.7,1.71-6.62,5.17C934.56,348.03,933.82,348.14,933.49,348.28z"/>
			<path class="st0" d="M965.02,333.24c-1.29-0.14-3.04,0.09-3.45-1.85c-0.34-1.63,1.08-2.1,2.16-2.91
				c3.29-2.48,6.43-5.15,9.64-7.73c0.77-0.62,1.58-1.38,2.65-0.78c0.82,0.46,0.8,1.36,0.77,2.2
				C976.62,327.6,970.67,333.27,965.02,333.24z"/>
			<path class="st0" d="M925.04,382.85c-0.32,1.3-0.67,2.75-1.02,4.2c-0.24,1-0.56,1.99-1.77,2.11c-1.22,0.12-1.66-0.81-2.11-1.74
				c-0.57-1.19-1.16-2.37-1.87-3.48c-1.27-2.01-1.52-4.07-0.23-6.08c0.8-1.23,2.1-1.53,3.53-0.9
				C923.16,377.66,925.05,380.75,925.04,382.85z"/>
			<path class="st0" d="M942.58,356.15c-1.41-0.14-2.01-1.31-1.67-2.44c0.86-2.91,3.48-4.66,5.19-7.03
				c0.36-0.51,1.26-0.18,1.66,0.46C948.39,348.16,943.89,356.11,942.58,356.15z"/>
			<path class="st0" d="M957.99,332.25c-1.48,1.73-2.37,4.26-5.14,4.56c-1.13,0.12-1.77-1.06-1.54-2.07
				c0.57-2.56,2.43-4.27,4.75-5.05C957.33,329.27,957.7,330.87,957.99,332.25z"/>
			<path class="st0" d="M934.05,358.04c0.09,1.9-0.74,2.85-2.29,2.67c-1.6-0.18-3.38-0.62-3.45-2.73c-0.05-1.49,0.98-2.46,2.43-2.55
				C932.67,355.3,933.62,356.58,934.05,358.04z"/>
			<path class="st0" d="M927.1,387.72c1.74,0.32,2.11,1.59,1.97,2.98c-0.17,1.59-0.12,3.72-2.37,3.74
				c-2.14,0.02-1.85-1.97-1.85-3.39C924.84,389.47,925.29,388.08,927.1,387.72z"/>
			<path class="st0" d="M926.78,334.82c-2.54-0.49-4.2-1.46-3.56-4.03c0.26-1.03,1.26-2.17,2.04-1.82
				C928.01,330.19,925.58,332.97,926.78,334.82z"/>
			<path class="st0" d="M912.76,843.79c-2.98,5.39-7.84,8.11-10.64,12.53c-0.13,0.2-1.01,0.18-1.32-0.05
				c-0.32-0.23-0.63-1.08-0.48-1.25c2.05-2.27,4.05-4.53,3.9-7.88c3.99,0.63,2.39-2,1.65-5
				C908.17,844.39,910.12,844.21,912.76,843.79z"/>
		</g>
	</g>
</g>
</svg>
