<?xml version="1.0" encoding="utf-8"?>
<!-- Generator: Adobe Illustrator 28.0.0, SVG Export Plug-In . SVG Version: 6.00 Build 0)  -->
<svg version="1.1" id="Layer_1" xmlns="http://www.w3.org/2000/svg" xmlns:xlink="http://www.w3.org/1999/xlink" x="0px" y="0px"
	 viewBox="0 0 1920 1080" style="enable-background:new 0 0 1920 1080;" xml:space="preserve">
<style type="text/css">
	.st0{fill:none;stroke:#231F20;}
</style>
<g>
	<g>
		<g>
			<path d="M956.23,787.35c-4.39,4.24-3.16,10.6-5.97,15.65c-2.68,4.81-4.75,9.61-10.41,11.65c1.45-2.91,2.82-6.1,4.59-9.06
				c2.71-4.53,3.83-9.57,5.03-14.58c0.86-3.59-1.79-6.17-2.95-9.11c-1.84,0.27-1.42,1.43-1.38,2.34c0.09,2.01,0.47,4.4-1.79,5.25
				c-2.97,1.12-2.26-2.69-3.99-3.53c-2.31,0.26-0.74,2.57-1.81,3.5c-0.27,0-0.64,0.12-0.85-0.02c-0.9-0.58-0.76-2.6-2.32-2.08
				c-1.25,0.42-1.47,2.05-1.1,3.05c1.42,3.79-1.82,5.28-3.45,7.56c-0.58,0.81-1.25,1.71-2.43,1.12c-1.06-0.53-1.16-1.67-0.95-2.63
				c0.28-1.28,0.67-2.6,1.33-3.71c2.06-3.47,2.59-7.16,1.86-11.05c-0.33-1.74-0.53-2.94,1.51-4.07c5.6-3.09,5.52-3.24,7.31,4.45
				c4.82-3.87,4.53-10.98-0.64-14.47c-13.4-9.02-27.61-8.05-42.16-3.46c-10,3.15-14.82,11.81-20.74,19.27
				c-1.95,2.46-0.65,5.81-1.8,8.69c-3.75,9.36-7.05,18.91-10.75,28.29c-1.09,2.75-2.77,5.32-4.51,7.73
				c-6.04,8.36-5.05,16.3,2.09,23.56c11.02,11.21,24.59,11.79,38.86,10.53c4.64-0.41,3.65-3.64,3.16-7.22
				c6.83,3.5,10.4-1.31,14.38-4.61c2.02-1.67,3.52-3.98,5.24-6.01c0.74-0.87,1.48-2.32,2.73-1.53c1.44,0.91,0.59,2.35-0.05,3.54
				c-0.08,0.15-0.16,0.31-0.28,0.41c-8.77,7.11-6.6,16.24-5.66,25.73c0.68,6.91,0.27,14.33-2.68,21.04
				c-1.72,3.92-1.56,8.15-2.6,12.18c-3.36,13.09-10.35,24.86-13.63,37.99c-0.84,3.35-1.55,6.79-3.5,9.84
				c-1.67,2.61-1.9,7.05-6.85,4.08c-0.39-0.23-1.57,0.08-1.81,0.48c-3.05,5.07-7.73,3.48-12.04,2.94
				c-7.24-0.9-14.61-1.14-21.57-3.72c-1.08-0.4-2.46-0.85-2.8,0.84c-0.25,1.24,0.99,1.41,1.89,1.86c8.39,4.21,17.87,3,26.66,5.36
				c3.15,0.85,7,0.48,9.7-2.59c1.42-1.62,2.61-1.33,2.9,0.96c0.23,1.81,0.7,3.75-0.5,5.34c-6.15,8.1-6.76,17.58-7.84,27.24
				c-0.5,4.49-0.36,8.55,0.26,12.86c0.42,2.91,1.74,3.66,4.42,2.92c8.54-2.37,12.87-9.05,16.55-16.27c1.07-2.1-0.56-3.91-2.12-5.16
				c-4.52-3.61-4.04-7.55-3.43-13.13c1.28-11.64,8.71-17.29,17.45-21.86c7.21-3.78,15.51-5.09,23.55-6.11
				c14.01-1.77,28.08-4.12,42.23-3.06c14.38,1.08,24.15-6.81,33.8-15.47c2.96-2.66,5.6-5.74,9.43-7.28c1.1-0.44,2.36-1.03,3.12,0.27
				c0.74,1.25-0.08,2.42-1.24,2.8c-8.83,2.89-13.08,11.45-20.37,16.38c-6.44,4.35-12.94,7.57-20.61,7.88
				c-7.65,0.31-15.32,0.07-22.99,0.05c-4.69-0.01-9.3,0.37-13.82,1.8c-1.88,0.59-3.92,0.96-5.88,0.95
				c-11.99-0.07-22.93,3.44-33.1,9.57c-6.48,3.91-8.4,10.57-9.65,17.33c-0.58,3.14,1.72,5.66,4,7.69c2.56,2.29,3.11,4.97,2.21,8.14
				c-2.3,8.05-6.61,14.28-14.63,17.77c-6.47,2.81-7.33,4.95-6.42,12.1c0.69,5.43,2.28,10.67,3.43,15.96
				c1.65,7.57,4.55,14.16,8.97,20.32c2.25,3.13,4.77,5.97,7.64,8.55c5.25,4.71,8.63,10.54,10.04,17.44c0.67,3.29,1.74,6.42,3,9.51
				c4.14,10.2-1.96,18.49-12.78,20.59c-9.04,1.76-17.53,1.19-26.21-2.84c-6.04-2.81-13.03-3.87-19.84-4.47
				c-6.75-0.59-12.52-3.09-17.12-8.21c-1.67-1.86-2.59-3.78-2.35-6.3c0.31-3.21-0.24-6.24-1.58-9.23c-1.58-3.54-3.51-5.74-7.85-6.49
				c-7.62-1.31-11.85-8.27-10.74-15.96c1.62-11.17,2.09-22.52,5.24-33.45c0.41-1.41,0.46-3.44,2.22-3.57
				c6.98-0.49,7.42-6.52,9.23-11.01c7.96-19.83,10.29-40.54,8.42-61.72c-0.8-9.11-2.8-18.14-3.26-27.25
				c-0.67-13.39-4.86-26.6-2.47-40.12c2.05-11.64,4.5-23.2,6.73-34.81c0.91-4.73,1.96-9.46,2.49-14.24
				c0.56-5.06,3.57-8.91,5.87-13.09c1.98-3.6,3.14-6.82,0.45-10.64c-1.67-2.37-1.4-5.42-1.45-8.26c-0.09-5.32-0.08-10.63-0.27-15.95
				c-0.22-6.13-3.49-10.58-8.13-14.26c-1.95-1.54-3.72-3.31-5.56-4.99c-1.18-1.08-1.84-2.36-1.37-4.01
				c2.61-9.18,1.3-17.14-5.01-24.97c-4.6-5.71-8.93-12.71-9.18-20.22c-0.32-9.75-6.24-17.19-8.6-26.02
				c-1.86-6.96-1.81-14.17-3.76-21.05c-0.32-1.11-0.16-2.61,1.19-2.95c1.56-0.4,1.66,1.17,2.14,2.2c2.01,4.3,2.88,8.74,2.86,13.54
				c-0.03,5.5,3.12,7.34,7.74,5.01c2.06-1.04,4.65-3.23,6.31-1.62c1.65,1.59,2.07,4.82,1.69,7.44c-0.33,2.27-0.88,4.75-2.11,6.62
				c-6.28,9.52-2.98,18.51,1.55,27.19c5.53,10.61,12.22,20.52,19.48,30.06c1.77,2.32,5.24,5.73,2.84,7.81
				c-1.61,1.39-4.06-3.35-5.96-5.53c-0.33-0.37-0.53-0.85-0.85-1.23c-1.44-1.7-1.96-4.45-4.9-4.45c-0.94,0-1.63,0.74-1.66,1.58
				c-0.1,2.94-0.94,6.11,1.6,8.49c1.69,1.59,3.47,3.17,5.46,4.33c6.82,3.97,7.96,10.55,8.15,17.48c0.16,5.63-0.11,11.28-0.13,16.92
				c-0.01,1.65-0.08,3.71,2.18,3.83c1.85,0.09,2.28-1.82,2.54-3.23c1.24-6.54,2.46-13.1,5.13-19.23c2.05-4.7,4.17-9.43,6.86-13.77
				c7.74-12.51,20.24-17.18,33.88-19.22c10.4-1.55,20.58-0.55,29.72,5.47c1.13,0.74,2.53,1.14,3.77,0.27
				c1.38-0.96,0.75-2.34,0.51-3.65c-2.48-13.39-7.06-25.69-17.95-34.73c-0.76-0.63-1.5-1.34-2.09-2.14
				c-0.79-1.06-1.77-2.36-0.29-3.47c1.13-0.85,2.15,0.15,3.09,0.87c1.55,1.2,2.67,4.69,4.97,2.65c2.54-2.25-0.41-4.5-1.75-6.4
				c-6.81-9.67-16.41-15.29-27.47-18.83c-5.68-1.82-11.08-4.63-17.31-4.42c-1.32,0.05-3.46-0.19-3.04-2.31
				c0.33-1.64,2.13-1.17,3.43-1.09c8.98,0.56,17.09,4.1,25.28,7.35c0.92,0.37,1.75,1,2.68,1.34c1.35,0.49,2.97,1.69,4.09,0.11
				c1.03-1.45-0.22-2.88-1.19-3.99c-3.9-4.46-8.89-7.37-14.1-10.1c-6.98-3.65-12.49-9.53-20.44-11.93
				c-12.91-3.9-24.8-3.25-36.19,4.31c-3.76,2.49-7.84,4.49-11.78,6.71c-0.24-0.38-0.47-0.76-0.71-1.13c2.3-1.76,4.42-3.86,6.94-5.22
				c7.13-3.86,14.22-7.8,22.33-9.52c11.21-2.38,20.98,1.52,30.52,6.5c2.27,1.18,4.41,2.26,7.03,2.13c1.72-0.09,3.26,0.5,4.68,1.47
				c15.17,10.4,32.11,16.59,49.94,20.36c4.14,0.87,8.62,0.1,12.95,0.12c1.61,0.01,3.29-0.81,6.13,1.22
				c-6.63,1.8-12.56,1.22-19.24,2.17c6.93,4.15,13.63,4.92,20.52,4.85c6.94-0.06,14,1.88,20.8-0.66
				c6.51-2.43,12.04-6.81,18.82-10.57c-0.53,3.11-2.41,4.24-3.89,5.06c-5.19,2.91-8.14,8.28-13.04,11.47
				c-1.19,0.78-2.79,2.1-1.57,3.61c1.08,1.33,2.44-0.3,3.47-0.9c8.47-4.91,16.72-10.11,22.31-18.5c0.59-0.88,1.27-1.64,2.42-1.24
				c1.18,0.41,1.88,1.42,2.17,2.57c0.3,1.23-0.61,1.89-1.63,2.1c-4.06,0.85-3.48,3.77-3.06,6.64l0.08-0.07
				c-3.97-0.35-6.73,1.51-9.62,4.16c-5.26,4.81-11.24,8.72-18.19,10.89c-5.42,1.69-5.87,3.51-1.89,7.46
				c5.79,5.73,9.42,13.37,16.16,18.27c0.71,0.52,1.04,1.4,0.18,2.12c-1.09,0.91-2.29,0.55-3.2-0.21c-3.57-2.99-7.11-5.99-9.62-10.05
				c-1.52-2.45-3.27-6.62-6.12-5.39c-2.74,1.18-1.46,5.8-0.24,8.14c6.93,13.3,8.53,28.34,14.12,42.02
				c5.91,14.47,16.45,25.15,29.36,33.63c4.24,2.79,9.06,4.92,11.43,9.91c-0.47,0.32-0.85,0.71-0.95,0.64
				c-11.04-6.97-23.22-12.33-31.63-23c-2.48-3.14-3.05-7.49-6.62-9.85c-0.85-0.56-1.75-1.36-2.64-0.54
				c-0.48,0.44-0.71,1.6-0.51,2.27c2.14,7.16,1.26,14.56,1.9,21.84c0.54,6.15,2.27,11.51,8.35,14.94c4.29,2.42,7.92,6.05,11.78,9.21
				c4.65,3.8,9.4,4.8,14.52,0.88c1-0.76,2.1-1.62,3.64-1.28c-4.98,8.48-12.6,10.46-19.76,4.98c-4.88-3.74-9.6-7.73-14.13-11.9
				c-2.24-2.06-4.27-2.86-7.15-1.66c-3.47,1.44-7.24-0.28-10.86,0.95c-3.7,1.25-5.07,3.16-2.89,6.64
				c6.74,10.78,15.13,19.89,27.01,25.05c10.1,4.39,20.87,0.9,31.3,2.03c3.89,0.42,6.89-3.81,9.71-6.55
				c8.12-7.92,15.99-16.02,17.02-28.37c0.41-4.93-0.14-9.67-1.11-14.38c-3.42-16.55-1.66-33.19-0.91-49.78
				c0.45-9.89-1.68-18.8-6.77-27.14c-2.81-4.61-3.38-9.49-2.8-14.87c0.83-7.65-0.07-15.06-6.73-20.38
				c-1.73-1.38-2.14-3.06-2.13-5.26c0.02-5.84,1.61-11.27,4.36-16.25c6.51-11.8,1.09-21.87-4.26-31.97c-1.1-2.08-2.7-1.4-4.65-0.51
				c-7.07,3.2-11.75,9.54-18.27,13.42c-10.42,6.19-20.6,12.76-30.45,19.83c-1.39,1-3.43,1.42-3.31,4.21
				c9.21-2.76,17.2-7.62,25.62-11.62c-6.59,6.05-13.97,10.79-22.58,13.36c-1.54,0.46-3.27,1.09-4.71,1.14
				c-5,0.17-10.51-2.65-14.27,3.13c-17.59-5.58-37.03-4.85-52.99-16.19c-5.78-4.11-12.54-6.86-19.66-8.37
				c-7.7-1.63-14.83-4.92-22.03-7.98c-1.43-0.61-2.51-1.62-3.43-2.83c-1.93-2.51-4.54-4.2-7.59-4.39
				c-5.62-0.35-10.42-3.36-15.81-4.39c-0.94-0.18-2.11-0.61-2.61-1.32c-5.35-7.56-13.57-11.54-20.72-16.87
				c-1.75-1.31-2.84-3.18-3.45-5.74c3-0.24,4.54,1.86,6.31,3.31c1.24,1.01,2.07,3.07,4.04,1.9c2.05-1.21,0.81-2.92,0.06-4.36
				c-3.92-7.58-1.23-14.8,1.13-22.04c0.32-1,1-1.97,2.18-1.31c1.74,0.98,2.3,3.13,1.09,4.27c-7.13,6.67-2.91,13.52-0.4,20.15
				c2.58,6.82,6.72,12.33,13.55,15.94c5.45,2.88,10.41,5.79,16.93,6.42c11.31,1.08,20.72-3.7,30.48-7.75
				c3.06-1.27,5.89-3.11,8.87-4.58c1.53-0.75,3.46-2.57,4.74-0.21c1.26,2.33-0.88,3.7-2.68,4.55c-4.36,2.06-8.76,4.08-13.27,5.8
				c-4.19,1.6-8.53,2.79-12.8,4.18c-1.24,0.4-2.92,0.54-2.99,2.18c-0.09,2,1.81,2.45,3.18,2.42c6.4-0.14,10.84,3.64,15.43,7.25
				c1.03,0.81,2.23,1.56,3.47,1.93c12.28,3.57,22.7,11.13,34.36,15.94c13.57,5.6,26.84,7.15,40-2.86
				c6.49-4.93,14.67-7.78,20.56-13.81c2.85-2.91,5.33-6.18,8.72-10.15c-0.19,4.07-2.55,5.72-4.03,7.62
				c-5.87,7.54-12.75,13.95-21.7,17.78c-0.76,0.32-1.48,0.79-2.11,1.32c-0.87,0.72-2.15,1.52-1.41,2.82
				c0.82,1.45,2.36,1.12,3.55,0.48c2.78-1.49,5.61-2.94,8.17-4.77c7.07-5.04,14.95-9.11,20.3-16.3c0.68-0.91,1.6-2.37,2.75-1.63
				c3.76,2.44,6.19-0.33,8.26-2.33c4.34-4.2,10.23-6.13,14.36-10.67c8.21-9.02,12.01-18.92,9.93-31.42
				c-2.43-14.57-3.01-29.45-5.54-44c-1.97-11.37,1.34-21.79,3.42-32.45c2.75-14.15,1.62-27.66-3.85-41.05
				c-2.36-5.79-3.24-12.18-4.8-18.3c-0.37-1.44-0.63-2.92-1.2-4.28c-0.48-1.13-1.53-1.81-2.86-1.42c-1.3,0.39-1.8,1.43-1.69,2.72
				c0.07,0.82,0.38,1.62,0.5,2.44c0.19,1.37,1.2,3.39-0.88,3.68c-1.85,0.25-2.21-1.87-2.05-3.32c0.6-5.53-1.76-6.96-6.78-5.35
				c-1.18,0.38-2.94,0.76-3.42-0.95c-0.42-1.53,1.09-2.3,2.25-2.91c0.86-0.45,1.9-0.86,2.84-0.83c10.15,0.31,17.99-11.82,19.6-20.98
				c1.92-10.93,2.19-21.73,0.16-32.6c-1.52-8.13-5.57-14.83-11.69-20.29c-0.91-0.82-2.2-2.08-3.49-0.85
				c-1.34,1.28,0.03,2.42,0.78,3.45c3.65,4.97,6.81,10.13,6.76,16.74c-2.39-5.21-5.53-9.9-9.09-14.34
				c-4.24-5.29-9.32-8.95-16.32-9.4c-7.14-0.46-14.28-0.97-21.42-1.44c-1.7-0.11-3.34,0.1-4.76,1.14c-1.24,0.91-2.46,1.95-1.79,3.71
				c0.64,1.69,2.1,1.45,3.38,0.94c3.12-1.23,5.19,1.04,7.23,2.43c7.33,5.01,12.52,11.98,16.74,19.77
				c-4.54-4.31-9.05-8.64-13.62-12.91c-0.89-0.83-1.91-2.44-3.29-1.05c-1.02,1.03,0.31,2.11,0.82,3.08
				c2.48,4.7,5.08,9.33,7.44,14.09c0.67,1.35,1.85,3.48-0.27,4.35c-2.05,0.84-2.78-1.4-3.36-2.85c-3.36-8.32-7.77-15.77-15.36-21.07
				c-5.39-3.76-11.04-6.4-17.66-7.36c-11.34-1.65-22.6-3.91-33.92-5.74c-9.77-1.58-19.48-4.82-29.52-1.49
				c-0.52,0.17-1.21-0.19-1.95-0.33c0.81-2.48,2.86-2.32,4.54-2.63c7.77-1.45,15.54-1.53,23.3,0.24c1.6,0.36,3.55,1.11,4.59-0.6
				c1.2-1.96-0.54-3.47-1.75-4.73c-2.75-2.85-5.62-5.43-7.78-8.94c-2.1-3.41-5.91-2.51-9.02-0.9c-2.76,1.43-2.56,3.52-0.65,5.73
				c1.11,1.29,0.56,2.13-1.02,2.34c-1.32,0.17-2.67,0.45-3.98,0.34c-13.6-1.12-20.16,7.81-25.81,18.03
				c-1.21,2.18-2.42,4.38-3.38,6.67c-0.82,1.97-1.76,4.13,1.03,5.59c2.04,1.06,0.75,2.48,0.29,3.84c-1.79,5.37-6.75,8.53-9.17,13.59
				c-5.99,12.55-10.68,25.62-13.2,39.16c-1.95,10.49-3.14,21.42,0.49,32.12c1.36,4-1.04,7.82-2.32,11.51
				c-0.8,2.31-3.42,1.79-5.28,1.03c-2.32-0.95-2.06-3.54-1.03-4.67c5.3-5.8,2.74-11.72,0.87-17.75c-0.43-1.39-0.73-3.04-0.42-4.41
				c3.84-17.17,5.62-34.93,13.44-51c5.45-11.18,8.42-23.28,13.52-34.58c4.92-10.89,12.83-18.3,24.16-22.2
				c7.12-2.46,11.54-8.85,17.75-12.71c1.7-1.06-0.68-7.83-3.19-9.49c-1.42-0.93-3.37-1.69-2.2-3.7c1.11-1.93,3.27-2.9,5.53-2.82
				c2.1,0.07,2.82,1.78,2.59,3.57c-0.59,4.72,1.46,8.36,4.28,11.82c1.9,2.34,2.96,4.98,3.47,8.1c1.24,7.7,12.88,16.38,20.67,16.31
				c3.25-0.03,5.11-2.63,8.01-3.92c-0.88,6.72-0.67,6.61,5.83,6.59c5.25-0.02,10.44-2.31,15.77-0.32
				c1.19,0.45,16.31-9.19,16.47-10.44c0.38-2.93,1.74-5.77,1.07-8.81c-0.22-0.99-0.69-2.07-0.02-2.88c1.39-1.67,2.01-4.93,4.91-4.12
				c3.6,1,2.28,4.02,1.41,6.68c3.8-2.24,5.18-5.18,2.71-8.66c-1.77-2.5-2.89-4.41,0.01-6.69c0.66-0.52,1.18-1.52,0.51-2.19
				c-1.26-1.26-3.04-0.84-4.19-0.1c-3.52,2.25-6.47,1.21-9.72-0.65c-2.26-1.3-3.18-3.24-4.16-5.37c-2.57-5.6-5.45-6.33-9.72-2.15
				c-3.46,3.39-8.84,3.03-12.14,6.66c-0.87,0.96-1.88,0-2.3-0.98c-1.01-2.36-3.32-3.22-5.19-4.53c-7.29-5.09-8.56-4.85-13.98,1.87
				c-1.56,1.94-3.34,3.72-5.06,5.52c-1.06,1.11-2.36,2.3-3.92,1.54c-3.38-1.65-4.47-1.35-3.67,2.81c0.4,2.09-2.08,2.21-3.17,1.15
				c-3.08-3-6.85-5.34-6.71-10.82c0.21-7.91,0.51-15.96-2.69-23.56c-0.63-1.49,0.01-3.09,1.52-3.82c1.57-0.76,2.41,0.6,3.22,1.63
				c2.57,3.27,3.42,7.19,3.97,11.17c0.94,6.76,7.62,10.86,14.1,8.51c0.62-0.22,1.18-0.61,1.75-0.95c5.08-3.08,6.99-3.07,11.61-0.77
				c2.32,1.16,4.84,2.44,7.62,1.04c1.98-1,3.91-0.55,5.76,0.36c3.76,1.87,6.85,1.08,9.04-2.44c1.6-2.58,3.53-2.51,5.3-0.66
				c2.83,2.97,6.54,5.17,7.89,9.46c1.08,3.43,2.96,4.29,6.39,2.04c3.19-2.09,6.96-4.47,10.23,0.32c0.65,0.96,1.67,1.05,2.64,0.44
				c1.3-0.81,2-2.32,1.2-3.42c-2.27-3.14-0.53-4.71,1.53-7.04c1.95-2.21,4-5.36,0.79-8.4c-1.72-1.63-0.76-2.38,0.64-3.42
				c3.35-2.48,4.37-5.85,4.24-10.03c-0.21-6.81,0.16-13.64,0.3-20.46c0.02-0.98-0.05-2.05,1.17-2.5c0.29,0.13,0.83,0.27,0.82,0.39
				c-0.2,6.9,2.98,12.75,5.35,18.95c2.5,6.54-0.97,12.37-4.59,17.58c-2.21,3.18-3.68,5.91-1,9.41c1.43,1.88,0.59,3.5-0.94,4.79
				c-2.77,2.33-4.35,5.28-5.55,8.69c-3.37,9.53-7.89,18.57-12.49,27.56c-0.62,1.21-1.36,2.44-0.38,3.71
				c0.95,1.24,2.09,0.45,3.15,0.01c4.69-1.94,8.29,1.37,11.8,3.15c4.61,2.35,9,3.01,13.94,2.27c7.04-1.05,14.11-1.45,21.15-3.1
				c6.11-1.43,11.64,2.79,15.35,7.64c3.66,4.77,7.37,8.54,13.43,10.39c12.76,3.88,19.54,25.19,9.21,35.21
				c-5.53,5.37-9.06,12.54-14.92,17.93c-7.25,6.67-15.12,11.32-24.96,12.07c-3.26,0.25-6.01,1.89-9.12,2.36
				c1.35-1.5,2.89-2.53,4.83-3.34c8.35-3.53,17.28-5.95,24.29-12.18c3.8-3.37,7.76-6.36,8.29-12.25c0.32-3.59,0.76-8.36,7.02-7.07
				c2.47,0.51,3.6-1.98,4.55-3.96c4-8.33-0.67-21.24-8.89-25.98c-5.63-3.24-11.84-5.36-16.23-10.95
				c-5.14-6.55-12.36-7.98-20.19-4.37c-1.43,0.66-2.89,0.61-4.4,0.34c-1.34-0.24-2.76-0.37-3.48,1.14c-0.7,1.46,0.29,2.43,1.15,3.5
				c9.95,12.33,11.71,26.71,10.16,41.81c-0.32,3.15-1.17,6.19,0.14,9.3c0.67,1.6,0.26,3.27-0.11,4.91
				c-1.22,5.26-4.82,8.91-8.47,12.52c-4.26,4.19-4.12,4.84,1.5,6.47c-0.32,7.61,0.4,14.98,3.05,22.3c2.59,7.12,5.2,14.23,6.01,22.02
				c1.59,15.38-2.34,29.86-5.69,44.5c-0.39,1.69-0.19,3.27,0.03,4.93c2.61,19.27,6.71,38.31,8.76,57.66
				c0.46,4.36-1.71,8.08-3.38,11.82c-1.14,2.57-1.19,4.68,0.16,7.07c3.58,6.34,6.88,12.81,9.02,19.82
				c1.66,5.43,0.06,10.53-1.47,15.6c-0.76,2.52-1.79,5.1-3.29,7.24c-4.4,6.3-2.3,12,1.23,17.59c4.02,6.37,6.5,12.98,5.02,20.75
				c-1.11,5.8,1.73,10.74,4.63,15.43c5.28,8.56,5.99,18.06,4.32,27.4c-0.99,5.55-0.4,10.88-0.79,16.29
				c-0.97,13.41,0.35,26.51,4.14,39.39c0.72,2.45,0.73,4.99-0.13,7.39c-0.91,2.56-1.4,5.06-0.92,7.81c0.4,2.28-0.8,4.17-2.26,5.86
				c-1.96,2.26-3.91,4.54-5.84,6.82c-2.2,2.59-3.3,5.39-1.63,8.71c1.83,3.64,0.63,8.04,2.79,11.57
				c4.67,7.66,11.22,13.57,18.43,18.66c4.77,3.37,9.57,6.64,13.46,11.02c2.89,3.26,5.97,6.14,9.94,8.18c6.01,3.09,7.39,9.75,10,15.1
				c5.37,10.98,4.85,11.05-5.59,17.82c-4.52,2.93-9.84,2.96-14.38,2.85c-7.95-0.18-15.96-0.97-23.65-4.93
				c-12.01-6.18-22.1-15.36-34.45-20.86c-1.97-0.88-3.96-1.78-5.77-2.94c-3.4-2.17-4.81-4.33-3.75-9.3
				c2.32-10.84,5.03-22.11-1.71-32.78c-2.2-3.48-4.41-5.63-8.76-4.9c-7.29,1.23-12.84-3.12-18.33-6.63
				c-6.85-4.39-13.15-9.62-16.52-17.54c-1.15-2.7-3.52-3.46-5.31-0.68c-1.76,2.72-4.23,3.59-7.06,4.12
				c-4.73,0.89-9.33,2.4-14.23,2.54c-4.77,0.13-6.64,3.64-8.31,7.5c-2.42,5.59-6.85,6.71-10.99,3.06c-2.27-2-2.4-4.48-2.11-7.3
				c0.72-6.94,1.79-13.84,1.63-20.88c-0.1-4.32-1.5-7.03-5.93-7.71c-1.95-0.3-3.26-1.06-2.33-3.29c0.78-1.86,1.95-3.39,4.14-1.76
				c2.3,1.72,4.66,1.12,7.17,0.8c9.27-1.19,18.52-1.55,27.42,2.12c3.73,1.54,5.21-0.87,6.38-3.63c2.43-5.77,3.89-11.81,2.23-17.99
				c-2.19-8.15-1.28-16.53-2.37-24.79c-1.98-14.92-5.62-29.4-8.95-43.99c-0.42-1.84-1.95-4.35,0.35-5.4
				c2.67-1.22,5.14,0.79,7.07,2.59c1.96,1.82,1.64,3.82-0.48,5.52c-2.22,1.77-1.92,4.03-1.13,6.37c6.25,18.63,7.26,38.07,8.93,57.41
				c0.2,2.32,0.29,4.69,0.83,6.94c2.15,9.02-1.69,15.94-7.68,22.01c-4.26,4.31-6.86,3.78-9.18-1.46c-0.43-0.98-1.16-1.87-2.16-1.87
				c-6.24-0.01-12.5-2.65-18.71,0.23c-2.06,0.95-4.48,2-3.11,4.66c3.87,7.51,0.47,15.07,0.5,22.58c0.01,2.35-0.93,5,1.96,5.95
				c2.7,0.89,3.61-1.7,4.71-3.51c2.72-4.51,6.72-7.14,11.95-6.78c6.24,0.43,10.96-3.38,16.4-5.11c1.89-0.6,2.65-2.25,2.82-4.31
				c0.56-6.71,3.8-9.88,10.54-10.55c8.97-0.89,9.52-1.64,7.08-10.14c-0.7-2.45-0.72-4.89-0.61-7.41
				c0.62-14.82,0.48-29.48-4.12-43.94c-2.72-8.55-5.42-17.05-8.79-25.36c-1.76-4.36-2.47-8.97-3.12-13.6
				c-0.45-3.19-1.75-6.1-5.61-5.73c-14.1,1.32-26.92-2.46-39.23-9.52c2.43,5.02,2.26,9.94,1.46,15.06c-0.5,3.19-0.82,6.89,3.72,8.06
				c1.1,0.28,1.76,1.11,1.64,2.21c-1.52,14.04,4.32,26.59,7.91,39.6c0.81,2.91,0.93,6.02,4.51,7.06L956.23,787.35z M855.91,1077.58
				c-1.7,2.4-0.42,3.74,0.32,5.16c0.37,0.72,1.33,1.85,0.69,2.17c-2.49,1.24-3.4,4.09-5.67,5.35c-2.31,1.28-3.49-1.18-5.07-2.2
				c-0.71-0.45-1.42-1.06-2.25-0.55c-0.81,0.5-0.7,1.36-0.56,2.22c1.15,7.12,4.47,10.87,11.66,11.29
				c6.32,0.37,11.97,3.16,17.73,4.83c6.21,1.8,12.4,4.32,18.83,5.58c7.26,1.42,14.01-1.68,20.85-3.44c1.61-0.41,2.71-1.99,2.56-3.89
				c-0.15-1.92-1.84-2.05-3.22-2.58c-6.9-2.66-13.93-5.09-18.56-11.48c-0.55-0.75-1.55-1.25-2.44-1.66
				c-1.26-0.59-2.74-0.81-3.7,0.38c-2.8,3.53-6.85,2.43-10.19,2.23c-3.2-0.19-8.2,0.92-8.55-4.97c-0.02-0.29-0.76-0.78-1.17-0.78
				C861.88,1085.23,858.52,1082.02,855.91,1077.58z M1102.18,913.21c-2.76,1.03-5.88,1.81-8.62,3.28
				c-4.79,2.59-6.26,10.68-3.04,14.4c0.93,1.07,3.9,1.68,2.21,3.58c-1.48,1.66-3.74,0.18-5.4-0.92c-1.88-1.24-2.35-3.26-2.08-5.3
				c0.48-3.7-1.23-6.81-2.4-10.05c-1.03-2.86-3.66-4.11-5.99-2.69c-4.36,2.66-7.4,1.22-10.53-1.82c-1.78-1.73-3.88-1.91-5.82-0.21
				c-1.85,1.62-1.63,3.33-0.13,5.22c1.67,2.1,2.13,3.89-1.72,3.09c-1.95-0.41-3.48,0.13-3.55,2.28c-0.09,2.42,1.46,3.25,3.65,2.59
				c1.79-0.54,2.85,0.06,3.63,1.62c1.86,3.73,5.56,4.88,8.92,6.72c6.38,3.5,14.04,2.32,20.32,6.16c2.23,1.37,4.1-0.03,4.53-2.82
				c0.22-1.41,1.67-3.86,2.37-2.32c2.1,4.59,7.61,3.03,9.97,6.56c0.48,0.72,1.38,0.95,2.24,0.62c0.73-0.28,0.98-0.96,0.6-1.61
				c-2.11-3.62,1.2-3.21,2.92-3.94c2.17-0.92,5.09-1.84,3.29-4.8c-2.2-3.62-2.83-7.8-4.96-11.38
				C1110.2,917.5,1107.23,914.3,1102.18,913.21z M959.9,712.12c1.48,0,2.15,0.05,2.81-0.01c1.44-0.12,3.51,0.3,3.79-1.53
				c0.3-2.02-1.81-1.96-3.22-2.24c-2.6-0.52-5.29-0.76-7.81-1.54c-5.7-1.77-12.88-2.28-16.58-6.09c-4.97-5.13-11.51-5.6-16.74-9.17
				c-1.06-0.72-2.63-1.18-3.66,0.09c-0.87,1.07-0.12,2.3,0.63,3.16c3.83,4.36,6.84,9.47,11.75,12.85c1.4,0.96,2.95,2.33,4.52,1.59
				c4.92-2.32,9.46,0.04,14.13,0.71C953.28,710.48,956.73,712.65,959.9,712.12z M944.64,712.67c1.53,4.17,5.26,4.36,8.15,5.55
				c13.67,5.62,26.32,3.12,38.11-5.24c1.08-0.77,2.41-1.45,1.87-3.12c-0.48-1.49-1.94-2.39-3.12-1.8
				c-4.73,2.36-10.18,1.11-14.97,3.46c-5.37,2.64-10.87,4.22-17.28,2.68C953.49,713.26,949.23,711.75,944.64,712.67z M886.3,1082.01
				c-0.11-0.44-0.15-0.91-0.34-1.31c-0.66-1.36-3.16-2.08-1.79-4.1c1.2-1.77,3.22-1.41,5.04-0.99c1.94,0.44,4.09,0.61,5.44,2.24
				c3.48,4.18,6.99,8.29,11.71,11.19c1.05,0.65,1.33,3.39,3.12,1.59c1.12-1.12,0.19-2.72-1.27-3.71c-2.92-2-4.86-4.96-7.09-7.62
				c-0.72-0.86-1.69-2.19-0.48-3.05c1.55-1.11,2.21,0.48,2.97,1.58c1.22,1.77,2.52,3.48,3.86,5.16c0.61,0.76,1.45,1.67,2.48,0.88
				c1.03-0.79,0.46-1.91-0.17-2.65c-2.58-3.02-5.32-5.9-7.85-8.96c-2.85-3.45-5.71-5.48-10-1.91c-1.14,0.95-3.14,1.3-4.72,1.24
				c-5.09-0.19-9.65,2.16-14.55,2.75c-1.97,0.24-2.5,1.47-2.13,3.18c0.32,1.52,1.54,2.57,2.92,1.91
				C878.42,1077.02,882.38,1078.23,886.3,1082.01z M900.33,888.92c-0.36-0.02,0.64,0.11,1.63,0.07c1.13-0.05,2.64,0.04,2.61-1.58
				c-0.03-1.77-1.85-2.37-2.9-1.85c-4.48,2.22-8.58,0.08-12.53-1.14c-9.65-2.98-20.08-2.75-29.35-7.17c-3-1.43-5.95-2.97-8.92-4.46
				c-1.11-0.55-2.34-0.91-3.14,0.28c-0.86,1.28,0.15,2.17,1.15,2.85c0.68,0.47,1.4,0.94,2.18,1.21
				C866.67,882.51,881.75,890.09,900.33,888.92z M889,934.23c-2.68-2.75-6.09-1.3-8.73-2.47c-9.96-4.42-21.14-5-30.92-9.96
				c-1.02-0.52-2.36-0.97-3.21,0.16c-1.07,1.42,0.05,2.59,1.07,3.37c4.39,3.36,9.29,5.63,14.74,6.81
				c7.11,1.54,14.53,0.66,21.56,2.98C885.06,935.62,887.08,935.89,889,934.23z M879.42,950.34c2.37-0.16,5.98,0.38,6.05-2.66
				c0.09-3.35-3.59-1.91-5.58-2.05c-9.51-0.66-18.73-2.31-27.4-6.46c-1.75-0.84-3.96-2.36-5.23,0.07c-1.47,2.79,1.29,3.94,3.18,4.52
				C859.92,946.68,869.22,950.47,879.42,950.34z M827.43,1042.25c0,1.76-0.13,3.1,0.03,4.41c0.28,2.32,5.74,7.5,6.76,6.5
				c2.21-2.16,3.62-1.45,5.32,0.42c0.87,0.96,2.12,2.08,3.38,0.8c1.13-1.14,0.37-2.64-0.48-3.6c-2.78-3.13-4.39-7.01-6.87-10.3
				c-1.57-2.09-2.33-6.13-5.78-5.18C826.37,1036.25,827.84,1040.06,827.43,1042.25z M891.04,906.11c0.36-0.04,2.23-0.11,2.43-2.3
				c0.16-1.79-1.27-2.85-2.79-2.99c-6.13-0.59-12.05-2.6-18.26-2.51c-1.18,0.02-2.47,0.09-2.68,1.61c-0.19,1.39,0.76,2.34,1.92,2.54
				C877.71,903.55,883.48,906,891.04,906.11z M876.01,980.22c0.03-0.12,0.05-0.24,0.08-0.35c0.49,0.06,0.99,0.14,1.48,0.16
				c2.02,0.11,4.55,0.34,4.51-2.43c-0.04-2.75-2.66-1.56-4.3-1.84c-7.24-1.26-14.98-0.18-21.53-4.7c-0.76-0.53-1.88-0.69-2.85-0.75
				c-1.36-0.09-2.8,0.17-3.22,1.73c-0.49,1.83,1.04,2.26,2.3,2.57C860.32,976.52,868.17,978.36,876.01,980.22z M890.86,881.32
				c2.46-0.22,4.52,0.06,4.71-1.76c0.24-2.28-1.98-2.34-3.59-2.41c-3.21-0.14-6.19-1.08-9.22-2.03c-3.95-1.25-7.95-2.35-11.99-3.28
				c-1.56-0.36-3.86-0.43-4.19,1.56c-0.33,2.02,1.96,1.68,3.3,2.1c1.41,0.44,2.79,1.01,4.2,1.44
				C879.93,878.71,886.13,878.97,890.86,881.32z M855.87,1061.12c3.64-0.83,7.03-2.28,10.41-2.23c5.81,0.1,10.26-2.77,14.92-5.37
				c0.89-0.49,2.68-0.76,1.62-2.33c-0.7-1.04-1.71,0.09-2.6,0.45c-7.8,3.18-15.78,5.68-24.21,6.55c-1.2,0.12-3.06-0.31-2.79,1.72
				C853.41,1061.31,854.99,1061.08,855.87,1061.12z M891.52,897.83c1.95-0.2,3.62,0.29,3.91-1.53c0.24-1.55-0.91-2.54-2.32-2.73
				c-6.04-0.82-12.09-1.53-18.14-2.22c-0.78-0.09-1.82-0.09-2.06,0.92c-0.24,1.03,0.65,1.47,1.46,1.59
				C880.42,894.69,886.27,896.46,891.52,897.83z M880.8,923.1c-0.01,0.09-0.03,0.18-0.04,0.27c-0.83,0-1.66-0.05-2.48,0.01
				c-1.08,0.08-2.55-0.32-2.68,1.38c-0.09,1.11,0.81,1.93,1.76,2.16c4.61,1.13,9.1,3.23,14.05,1.72c1.15-0.35,2.42-0.57,2.32-2.06
				c-0.08-1.13-1.16-1.61-2.14-1.78C887.99,924.19,884.39,923.67,880.8,923.1z M887.06,913.65c1.61-0.58,4.17,0.66,4.38-1.48
				c0.27-2.76-2.52-1.85-4.12-2.05c-6.8-0.85-13.69-1.24-19.9-4.63c-0.42-0.23-0.96-0.34-1.43-0.33c-1.41,0.04-3.46-0.59-3.75,1.31
				c-0.22,1.46,1.72,1.9,2.97,2.05c2.96,0.36,5.84,1.46,8.71,1.68C878.59,910.58,882.63,912.98,887.06,913.65z M869,889.96
				c-7.07-2.31-13.63-3.73-19.14-7.65c-1.21-0.86-3.22-2.07-4.12,0.3c-0.71,1.86,0.82,3,2.47,3.67c2.59,1.04,5.12,2.47,7.81,3
				C859.94,890.05,863.71,893.45,869,889.96z M827.16,707.86c1.43-0.15,1.71-1.09,2.02-2.06c0.65-2.04,1.36-4.06,2.03-6.09
				c0.36-1.07,1.01-2.19-0.01-3.22c-0.98-0.98-2.17-0.61-3.24-0.2c-1.38,0.53-2.76,1.11-4.01,1.88c-1.88,1.17-2.13,2.93-0.97,4.7
				C824.21,704.7,824.72,707.23,827.16,707.86z M864.07,914.94c-5.23-2.84-10.04-6.12-14.86-9.42c-1.21-0.83-2.96-2.45-4.14-0.11
				c-0.94,1.86,0.69,3.1,2.06,4.01C852.21,912.8,857.88,914.58,864.07,914.94z M863.09,899.87c1.67-0.01,3.25,0.33,3.59-0.96
				c0.51-1.93-1.47-1.91-2.58-2.12c-5.58-1.05-10.94-2.51-15.43-6.25c-0.86-0.72-2.14-1.57-3.1-0.46c-1.23,1.43,0.18,2.5,1.16,3.24
				C851.72,897.11,858.1,897.37,863.09,899.87z M1050.46,913.7c-0.29-2.38-0.45-4.53-0.84-6.65c-0.19-1.02-1.03-1.8-2.18-1.6
				c-1.35,0.23-1.32,1.36-1.05,2.34c0.61,2.2,0.95,4.24-1.44,5.7c-0.92,0.56-2.44,0.94-1.99,2.45c0.39,1.29,1.9,1.19,2.94,1.52
				C1049.53,918.61,1050.16,916.2,1050.46,913.7z M859.53,954.7c1.3-0.07,3.07,0.27,3.47-1.22c0.47-1.72-1.33-2.14-2.56-2.29
				c-2.69-0.31-5.12-1.04-7.3-2.76c-0.9-0.71-2.34-0.84-3.1,0.36c-0.8,1.28,0.08,2.3,1.2,2.77
				C853.96,952.7,856.76,953.66,859.53,954.7z M844.36,1071.54c-0.64,6.87,1.91,11.16,6.67,12.02
				C849.7,1079.23,846.98,1075.73,844.36,1071.54z M878.63,916.06c-1.21,0.23-3.84-0.69-4.01,1.06c-0.23,2.42,2.58,1.65,4.16,2.09
				c0.47,0.13,0.97,0.19,1.46,0.22c1.64,0.07,4.2,1.51,4.48-1.01c0.2-1.85-2.43-2.24-4.28-2.36
				C879.94,916.03,879.45,916.06,878.63,916.06z M873.74,953.95c-1.38,0.57-4.31-0.83-4.05,1.92c0.23,2.45,3.09,1.83,4.95,1.92
				c1.54,0.08,3.91,0.4,3.67-1.94C878.06,953.44,875.53,954.25,873.74,953.95z M846.47,898.94c2.19,3.83,5.77,3.92,7.96,5.99
				c0.74,0.7,2.82,0.91,3.32-0.72c0.45-1.48-0.98-2.7-2.23-2.69C852.63,901.53,850.32,899.75,846.47,898.94z M912.44,870.93
				c-0.26-1.8-1.59-1.96-2.92-1.87c-1.59,0.11-3.66,0.02-3.79,2.15c-0.1,1.73,1.51,2.42,3.11,2.31
				C910.5,873.41,912.07,872.92,912.44,870.93z M1039.94,900.66c-0.16-1.37-0.53-2.85-2.42-2.98c-1.3-0.09-2.29,0.76-2.35,2.04
				c-0.08,1.84,0.85,3.25,2.77,3.45C1039.45,903.33,1039.74,902.05,1039.94,900.66z M849.76,1066.65c-0.05-2.57-0.11-5.01-2.41-6.6
				c-0.81-0.56-1.75,0.08-1.74,1.03C845.64,1063.7,846.57,1065.85,849.76,1066.65z M852.34,1005c2.82,1.43,5.65,2.4,9.01,0.24
				C858.09,1003.05,855.2,1003.95,852.34,1005z M859.42,1108.02c1.08-0.15,2.86,0.15,2.61-1.43c-0.28-1.76-2.29-1.63-3.73-1.75
				c-1.14-0.1-2.78-0.09-2.56,1.48C856.01,1108.27,858,1107.81,859.42,1108.02z"/>
			<path d="M922.19,305.39c0.15,0.91,0.23,1.55,0.37,2.18c0.33,1.59,1.29,3.53-0.91,4.28c-1.94,0.66-3.21-0.86-3.61-2.57
				c-0.83-3.58-3.4-3.5-6.03-2.95c-0.54-1.49,0.06-2.58,0.85-2.93c5.27-2.38,6.13-6.83,6.15-11.93c0.02-4.98,1.76-9.76,2.5-14.66
				c0.64-4.21,4.18-8.15,6.93-11.85c8.66-11.68,20.92-18.85,33.51-25.27c4.56-2.33,10.04-2.26,15.56-2.08
				c13.82,0.45,23.51,8.03,31.73,17.41c7.33,8.36,12.36,18.5,13.95,29.81c0.37,2.62,2.96,5.37,0.26,8.64
				c-0.57-0.87-1.03-1.35-1.23-1.92c-0.62-1.76-0.14-4.78-2.86-4.41c-2.11,0.28-2.87,2.96-3.55,5.03c-0.47,1.43,0.58,4.07-1.81,3.98
				c-3.38-0.12-4.82-3.14-6.3-5.77c-0.93-1.65-0.92-2.94,0.7-4.35c3.34-2.91,3.3-5.61-0.6-8.13c-3.43-2.21-3.57-4.65-2.24-8.2
				c2.38,1.99,4.46,3.79,6.6,5.51c0.75,0.6,1.66,1.4,2.69,0.74c1.18-0.77,1.14-2.12,0.56-3.14c-6.2-10.9-12.74-21.7-24.31-27.69
				c-8.77-4.54-18.57-5-27.72-1.88c-10.5,3.58-20.16,9.13-26.76,18.68c-0.85,1.23-1.76,2.43-2.68,3.61
				c-4.04,5.19-9.69,9.96-2.78,18.7c-3.75-1.45-5.91-2.76-7.72-0.59c-1.76,2.1-0.38,3.68,0.86,5.29c0.2,0.26,0.5,0.73,0.4,0.87
				c-3.34,5.02-0.1,8.76,2.3,12.75c0.63,1.04,1.09,2.66-0.24,3.67C925.18,307.43,924.25,304.88,922.19,305.39z"/>
			<path d="M1067.32,957.12c1.43,3.92-0.77,6.02-2.6,7.01c-7.46,4.04-5.86,10.82-3.97,16.19c2.03,5.76-0.82,8.44-4.23,10.76
				c-7.21,4.91-15.28,7.97-24.01,9.26c-5.75,0.85-11.44,2.15-17.16,3.22c-4.93,0.92-8.67,3.53-10.71,8.11
				c-3.01,6.75-8.23,10.4-15.12,12.7c-8.83,2.95-17.47,6.5-26.07,10.08c-5.7,2.38-9.99,7.17-13.25,11.86
				c-7.01,10.09-16.13,16.5-27.49,20.31c-1.41,0.47-2.67,1.47-4.1,1.82c-1.99,0.49-4.43,3.93-5.86,0.76
				c-1.06-2.35,2.65-3.36,4.52-4.42c3.17-1.8,6.51-3.45,9.97-4.6c9.85-3.27,16.41-10.66,22.61-18.23
				c6.83-8.34,15.3-13.44,25.51-16.45c6.85-2.01,13.42-4.97,19.58-8.64c2.9-1.73,5.5-4.05,6.57-7.32
				c2.59-7.92,9.28-10.04,16.19-11.45c8.96-1.83,18.02-3.06,26.81-5.74c4.1-1.25,7.69-3.08,10.86-5.86
				c2.69-2.37,3.78-5.11,1.48-8.33c-1.05-1.46-0.73-3.17-1.17-4.62c-1.75-5.8,1.27-8.48,5.89-10.49
				C1064.01,961.99,1065.55,959.83,1067.32,957.12z"/>
			<path d="M981.61,479.72c-0.28,1.96-1.32,3.51-3.03,4.34c-3.11,1.49-6.24,2.19-3.2,7.11c0.86,1.39-4.86,3.63-6.55,2.68
				c-6.75-3.79-9.61,1.85-13.48,4.81c-2.49,1.9-4.28,5.05-7.69,1.26c-0.96-1.07-2.46-0.09-3.72,0.38
				c-6.37,2.4-12.95,4.31-19.11,7.15c-8.92,4.11-18.77,2.16-27.87,4.98c-3.21,1-5.98,3.7-9.74,3.19c-0.33-2.53,3.57-2.1,2.69-4.36
				c-0.74-1.91-3.05-1.74-4.64-2.54c-4.55-2.28-9.89-1.51-14.42-3.81c-1.44-0.73-2.74-1.72-1.86-3.47c0.95-1.88,2.76-1.33,3.81-0.3
				c6.89,6.76,15.8,4.13,23.78,4.8c14.33,1.2,27.78-3.82,41.41-7.52c10.99-2.98,20.78-8.85,31.62-12.05
				c4.5-1.33,7.05-6.28,12.12-6.56L981.61,479.72z"/>
			<path d="M975.14,366.97c-7.48,1.72-15.52-0.18-23.45,0.95c-1.5,0.21-2.93,0.18-4.05,1.46c-1.35,1.54-3.04,2.09-4.87,0.83
				c-1.24-0.85-1.6-2.18-0.99-3.54c0.9-2.01,2.3-4.5,4.53-3.99c4.4,1.01,7.8-0.3,11.13-2.8c0.37-0.28,1.01-0.48,1.42-0.36
				c7.58,2.11,16.1-1.03,23.12,4.18c1.81,1.34,3.72,2.04,6.04,0.97c1.72-0.79,2.91,0.12,3.37,1.84c0.52,1.95-0.9,2.05-2.28,2.39
				c-5.98,1.44-6.78,7.36-9.1,11.58c-1.94,3.54-3.22,4.31-6.16,1.77c-2.28-1.97-3.99-1.07-6.14,0.48c-3.29,2.37-8.47,0.49-8.99-3.4
				c-0.3-2.24-0.62-2.92-2.81-2.64c-2.11,0.27-3.87-0.54-3.51-2.95c0.35-2.36,2.44-2.47,4.34-2.16c0.94,0.15,1.91,0.59,2.71,1.13
				c6.28,4.22,12.41,4.27,18.17-0.2c1.4-1.09,4.47-1.58,3.39-4.12C980.14,366.35,977.53,367.02,975.14,366.97z"/>
			<path d="M902.77,840.12c2.83-0.84,7.03-0.16,6.56-3.53c-0.39-2.76-3.52,0.67-5.52-0.06c-0.14-2.13,0.98-3.79,1.95-5.49
				c0.41-0.72,1.15-1.37,1.25-2.12c1.16-8.41,1.35-8.73,9.63-12.56c1.5-0.69,3.11-1.13,4.78-1.73c0.76,1.47-1.39,3.39,0.75,4.45
				c1.61,0.8,2.28-0.97,3.39-1.29c2.58-0.74,4.75-4.49,7.95-1.35c0.69,0.68,1.68,1.36,1.34,2.47c-0.36,1.2-1.62,1.23-2.52,1
				c-3.97-0.99-5.64,1.28-7.13,4.43c-1.72,3.63-4.21,6.71-7.59,9.09c-1.43,1.01-3.87,2.66-0.02,4.08c1.64,0.6,1.98,2.11,0.76,3.15
				c-3.75,3.19-7.15,7.11-12.51,7.65c-1.55,0.16-3.91-0.38-1.92-2.23C907.04,843.23,903.62,842.26,902.77,840.12z"/>
			<path d="M989.58,311.15c4.89-0.81,8.28,0.92,10.88,4.38c0.81,1.07,1.6,2.02,2.84,2.69c3.33,1.8,3.91,6.03,0.63,8.11
				c-3.13,1.98-7,2.81-10.59,4.02c-0.38,0.13-1.32-0.47-1.5-0.93c-0.18-0.45,0.11-1.31,0.49-1.71c1.39-1.47,3.2-2.27,5.05-3.1
				c2.27-1.01,4.16-2.93,2.85-5.48c-1.13-2.19-3.55-1.45-5.31-0.4c-2.58,1.53-4.19,1.79-4.7-1.92c-0.5-3.6-3.18-3.06-5.78-2.59
				c-6.71,1.21-6.99,0.97-5.19-5.49c0.9-3.24-1.45-4.86-2.78-7.05c-0.56-0.92-1.86-1.85-0.66-3c0.89-0.85,1.83,0.13,2.72,0.48
				c5.39,2.08,11.19,0.38,16.72,2.01c7.09,2.09,12.36,6.63,17.44,11.53c1.63,1.57,2.67,4,0.14,5.52c-2.63,1.57-4.17-0.19-5.21-2.73
				c-1.44-3.51-3.07-6.77-6.63-8.99c-5.07-3.16-11.37-3.1-15.62,0.91c-0.73,0.69-1.5,1.48-1.25,2.56c0.3,1.26,1.5,1.11,2.45,1.16
				C987.72,311.2,988.89,311.15,989.58,311.15z"/>
			<path d="M933.63,653.09c-1.44-0.14-3.51,0.27-3.66-1.64c-0.15-1.8,1.85-1.38,3.09-1.58c8.06-1.28,14.48-6.07,20.1-11.21
				c6.81-6.23,12.4-13.81,18.5-20.82c6.6-7.58,10.45-16.89,15.81-25.25c0.68-1.06,1.05-3.19,2.5-2.54c1.92,0.87,0.35,2.53-0.2,3.77
				c-3.5,7.85-5.72,16.23-11.22,23.21c-9.29,11.79-19.58,22.55-31.29,31.92C943.35,652.08,938.51,652.77,933.63,653.09z"/>
			<path d="M950.18,321.34c3.24,1.17,5.01-0.87,6.66-2.66c1.22-1.32,1.15-3.12,0.08-4.63c-0.95-1.34-2.31-1.04-3.62-0.56
				c-0.47,0.17-0.94,0.36-1.38,0.57c-2.32,1.13-4.18,0.26-5.88-1.34c-0.75-0.7-1.62-1.47-0.65-2.48c1.51-1.58,3.61-1.72,5.59-1.56
				c1.8,0.14,3.57,0.74,5.35,1.13c1.65,0.36,3.03,0,3.7-1.68c0.63-1.59,0.04-2.92-1.18-4.02c-3.4-3.08-14.68-3.36-17.97-0.41
				c-1.82,1.64-3.22,3.45-1.64,6.06c0.55,0.91,2.99,1.62,0.84,2.94c-1.66,1.02-3.75,0.64-4.67-1.39c-0.83-1.84-0.92-3.97-0.1-5.85
				c2.61-5.98,10.95-9.79,17.47-7.96c1.79,0.5,3.44,1.06,5.33,0.43c4.4-1.46,6.28,3.49,10.02,4.14c1.15,0.2,0.23,2.68-0.56,3.98
				c-3.34,5.54-6.68,11.07-10.05,16.58c-1.36,2.22-3.61,3.41-5.72,4.73c-2.14,1.33-4.15,0.88-5.99-0.63
				c-0.95-0.78-1.64-1.88-0.94-3.06C946.12,321.55,948.08,320.9,950.18,321.34z"/>
			<path d="M1007.82,596.72c0.5-7.81,2.89-13.73,5.67-19.18c5.78-11.32,9.76-23.34,13.67-35.27c2.61-7.96,6.5-16.15,4.47-25.16
				c-0.37-1.63,0.34-3.3,1.17-4.77c1.72-3.05,2.23-6.17,1.22-9.6c-0.36-1.21-0.14-2.62,0.01-3.92c0.09-0.8,0.57-1.7,1.57-1.58
				c1.03,0.12,1.3,1.18,1.15,1.93c-2.17,10.35,1.05,21.24-3.7,31.41c-3.65,7.79-4.97,16.4-6.78,24.79
				c-1.65,7.69-4.02,15.02-8.4,21.68c-2.64,4.02-4.61,8.47-5.91,13.16C1011.39,592.23,1010.9,594.34,1007.82,596.72z"/>
			<path d="M850.28,514.23c1.36,5.47,1.31,9.63,0.56,13.62c-1.5,8.01-0.42,15.85,0.93,23.69c0.52,3.01,0.14,5.1-3.22,6.14
				c-3.44,1.06-4.38,4.26-5.33,7.33c-0.52,1.68-0.17,3.66-1.96,5.62c-1.81-3.59-1.89-7.36-0.52-10.05
				c5.16-10.16,3.71-21.36,5.72-31.98C847.3,524.19,848.03,519.83,850.28,514.23z"/>
			<path d="M1015.19,713.25c1.06,0.4,2.72,0.78,4.15,1.58c14.22,8.05,27.78,16.92,37.22,30.75c0.87,1.27,2.97,2.81,1.48,4.24
				c-1.94,1.86-3.29-0.65-4.3-1.86c-8.86-10.53-20.05-18.31-30.91-26.5c-2.7-2.04-5.7-3.36-8.72-4.73
				c-1.05-0.48-2.17-1.16-1.58-2.64C1012.88,713.17,1013.8,713.17,1015.19,713.25z"/>
			<path d="M1026.71,610.4c-0.88,3.87-0.99,8.15-2.78,11.54c-6.16,11.7-11.83,23.86-21.76,33.04c-6.33,5.86-13.08,11.26-19.7,16.8
				c-1.12,0.94-2.67,2.1-3.77,0.17c-0.87-1.52,0.57-2.37,1.73-3.07c11.58-6.93,20.67-16.73,29.45-26.66
				c5.6-6.33,8.39-14.58,11.38-22.49C1022.53,616.39,1023.71,613.02,1026.71,610.4z"/>
			<path d="M943.78,528.13c0.15-1.77,1.35-2.25,2.27-2.84c13.45-8.57,25.38-19.06,37.41-29.44c0.89-0.77,2.29-1.57,2.04-2.65
				c-1.24-5.45,3.51-5.34,6.3-6.89c1.3-0.72,3.41-2.03,4.41-0.15c0.95,1.78-0.64,3.61-2.2,4.52c-3.04,1.77-5.67,3.92-8.23,6.35
				c-11.53,10.98-23.61,21.29-37.27,29.59C947.17,527.44,945.93,528.78,943.78,528.13z"/>
			<path d="M956.3,787.48c0.66-6,4.13-11.14,4.93-17.18c1.53-11.52-2.44-21.98-5.44-32.66c-0.45-1.59-1.07-3.15-1.37-4.76
				c-0.2-1.03,0.37-2.02,1.43-2.36c1.17-0.37,1.96,0.4,2.27,1.41c4.52,15.02,10.82,29.86,4.35,45.96c-1.46,3.62-3.4,6.81-6.24,9.47
				C956.23,787.35,956.3,787.48,956.3,787.48z"/>
			<path d="M928.31,515.84c-2.08,4.81-7.67,4.81-10.92,7.96c-1.23,1.19-3.74,1.4-1.61,3.9c0.66,0.78,0.31,1.62-0.59,2.01
				c-0.96,0.42-2.16,0.44-2.83-0.3c-3.73-4.09-6.8-2.07-10.34,0.51c-3.3,2.41-6.44,5.27-10.79,5.97c-2.5,0.4-4.45-0.08-5.27-2.48
				c-1.05-3.09,1.84-2.75,3.46-3.59c11.19-5.81,24.54-5.91,35.12-13.34C925.53,515.78,926.67,514.72,928.31,515.84z"/>
			<path d="M1020.39,705.56c9.83-2.13,18.28,0.69,25.63,7.24c1.57,1.4,2.51,3.29,5.31,2.88c2.78-0.4,3,2.14,3.04,4.14
				c0.05,2.37,1.32,5.26-1.46,6.82c-1.96,1.1-3.14-0.7-3.77-2.21c-4.14-9.89-12.14-14.59-22.15-16.53
				c-2.34-0.45-4.36-1.51-6.49-2.44C1020.47,705.49,1020.39,705.56,1020.39,705.56z"/>
			<path d="M970.88,537.96c-3.24,7.8-10.86,10.97-17.02,15.44c-7.35,5.34-16.28,8.19-23.84,13.35c-0.27,0.19-0.57,0.37-0.88,0.46
				c-2.4,0.67-5.69,3.21-7,0.23c-1.07-2.44,2.98-2.84,4.91-3.68c14.78-6.39,29.48-12.87,41.42-24.14c0.7-0.66,1.69-1.03,2.54-1.53
				L970.88,537.96z"/>
			<path d="M1022.24,758.32c0.59,0.46,1.61,1.05,2.37,1.87c4.22,4.6,9.54,7.77,14.86,10.72c5.7,3.16,9.62,8.01,13.97,12.5
				c0.91,0.94,1.88,2.32,0.96,3.54c-1.01,1.35-2.26,0.14-2.87-0.66c-7.09-9.37-18.27-13.62-26.62-21.39c-1.46-1.35-3-2.61-4.38-4.04
				c-0.36-0.37-0.45-1.24-0.32-1.8C1020.39,758.4,1021.07,758.13,1022.24,758.32z"/>
			<path d="M1030.57,582.83c-1.34-2.9,0.14-5.61,1.04-8.06c4.07-11.13,6.13-22.71,8.37-34.27c0.23-1.2,0-3.19,1.96-2.65
				c1.4,0.38,0.5,1.95,0.32,3.05c-1.79,10.98-3.63,21.93-6.48,32.73C1034.8,577.34,1035.79,581.45,1030.57,582.83z"/>
			<path d="M848.04,651.08c-5.06-0.85-9.21,0.69-13.28,3.15c-2.14,1.29-4.78,1.29-7.28,0.78c-1.3-0.26-2.97-0.58-2.79-2.23
				c0.18-1.73,1.9-1.63,3.19-1.39c2.14,0.4,4.23,0.81,6.37,0.06c3.14-1.1,4.19-2.8,1.31-5.29c-2.42-2.09-4.38-4.5-5.83-7.33
				c-0.39-0.76-0.48-1.71,0.27-2.28c0.83-0.63,1.56-0.03,2.09,0.63C836.53,642.65,842.39,646.42,848.04,651.08z"/>
			<path d="M999.53,483.49c9.53-4.76,18.02-10.51,23.34-20.55c2.03,3.4,0.65,5.02-0.56,6.53c-2.14,2.67-5.9,4.03-5.01,8.89
				c0.4,2.18-3.52,1.69-5.27,2.89C1008.37,483.74,1004.12,483.67,999.53,483.49z"/>
			<path d="M981.73,479.82c7.89-7.09,16.39-13.28,26.07-17.72c1.03-0.47,2.47-1.41,3.07-0.08c0.9,2-1.22,1.72-2.29,2.22
				c-6.16,2.9-11.52,7.03-16.79,11.25c-3.04,2.44-5.95,4.82-10.19,4.23C981.61,479.72,981.73,479.82,981.73,479.82z"/>
			<path d="M843.56,661.62c-5.46,7.61-13.14,9.84-21.92,9.42c-0.86-0.04-1.77-0.39-1.72-1.37c0.03-0.48,0.73-1.04,1.25-1.35
				c0.55-0.33,1.25-0.55,1.89-0.58C830.39,667.44,837.24,665.46,843.56,661.62z"/>
			<path d="M919.62,318.83c0.05,2.91-4.42,7.35-7.04,6.91c-2.9-0.48-2.5-2.8-1.78-4.65c0.57-1.48,1.87-2.68,2.73-4.07
				c0.73-1.18-0.16-4.08,2.57-3.05C918.11,314.72,919.32,316.74,919.62,318.83z"/>
			<path d="M1035.47,691.7c-1.45-0.07-2.38-0.08-2.71-1c-0.48-1.32,0.61-1.83,1.52-2.05c6.04-1.42,10.7-5,14.96-9.28
				c0.6-0.6,1.4-1.01,2.2-0.42c0.82,0.6,0.71,1.5,0.19,2.2C1047.46,686.9,1041.07,689.16,1035.47,691.7z"/>
			<path d="M1006.24,550.37c-2.21,6.87-2.84,14.33-7.6,20.23C998.46,562.82,1003.15,556.9,1006.24,550.37z"/>
			<path d="M882.79,516.56c-5.46,3.49-10.2,3.3-14.97,2.89c-1-0.09-2.07-0.55-2.09-1.76c-0.02-1.51,1.29-2.16,2.39-1.86
				C872.52,517.02,877.02,515.68,882.79,516.56z"/>
			<path d="M881.65,798.56c-0.1-2.17-0.6-4.91,2.24-4.69c3.24,0.25,2.83,3.61,3.11,5.91c0.25,2.09-0.46,4.42-3.02,4.15
				C880.47,803.56,882.03,800.4,881.65,798.56z"/>
			<path d="M897.02,807.23c-1.59-1.33-2.73-3.75-1.47-4.97c1.94-1.88,4.48-3.84,7.67-3.28c0.67,0.12,1.42,0.86,1.76,1.51
				c0.47,0.9-0.29,1.66-1.06,1.88c-2.55,0.71-5.02,1.42-5.81,4.43C898.07,806.97,897.56,807.03,897.02,807.23z"/>
			<path d="M835.3,596.03c0.58-1.78,0.31-4.95,2.8-5c2.82-0.06,3.01,3.12,3.22,5.33c0.25,2.75-2.17,2.4-3.86,2.68
				C835.08,599.43,835.21,597.78,835.3,596.03z"/>
			<path d="M927.07,811.26c-1.63,0.25-2.21-0.55-2.1-1.94c0.23-3,2.4-4.05,4.89-4.71c1.29-0.34,2.44-0.06,2.32,1.54
				C931.93,809.29,929.53,810.4,927.07,811.26z"/>
			<path d="M934.36,512.41c2.8-3.5,6.68-5.25,10.83-6.58C943.17,510.53,938.38,510.84,934.36,512.41z"/>
			<path d="M1029.32,682.23c-0.72,5.42-5.03,6.53-8.13,8.77C1022.85,687.41,1024.69,683.99,1029.32,682.23z"/>
			<path d="M993.59,285.59c1.94,2.17,3.94,4.4,5.9,6.67c0.05,0.05-0.3,0.66-0.52,0.71c-2.58,0.56-3.79-1.48-5.23-2.93
				c-0.99-1-2.17-2.15-1.31-3.84C992.54,285.97,992.97,285.9,993.59,285.59z"/>
			<path d="M1063.14,942.47c0.27,0.31,0.83,0.65,0.83,1c0.01,2.69,1.55,4.63,2.98,6.67c0.55,0.79,1.02,2.05-0.02,2.68
				c-1.19,0.72-1.7-0.55-2.12-1.38c-1.06-2.07-2.1-4.15-3.01-6.28C1061.3,944,1061.42,942.87,1063.14,942.47z"/>
			<path d="M971,538.08c2.43-4.95,6.93-8.12,10.53-12.07c-2.91,4.54-5.09,9.74-10.65,11.94C970.88,537.96,971,538.08,971,538.08z"/>
			<path d="M834.15,602.39c1,3.47,0.7,6.69-2.28,10.41C831.34,608.32,831.64,605.16,834.15,602.39z"/>
			<path d="M986.13,520.16c2.26-3.83,3.29-8.45,7.31-11.08C991.29,512.98,988.78,516.65,986.13,520.16z"/>
			<path d="M911.86,344.85c0.74-1.29-0.58-3.71,1.73-4.04c1.47-0.21,2.29,1.34,2.07,2.77c-0.25,1.62-0.9,3.54-2.62,3.82
				C911.21,347.7,911.9,345.93,911.86,344.85z"/>
			<path d="M1056.06,459.03c1.28-4.87,2.3-8.76,3.32-12.65C1061.06,451.04,1062.13,455.54,1056.06,459.03z"/>
			<path d="M893.89,1098.47c2.66,1.1,3.32,3.96,5.13,5.71c0.86,0.83,0.44,1.82-0.94,2.01c-4.78,0.65-9.09-2-11.55-7.23
				c3.28-0.35,4.6,2.69,6.71,3.99C894.92,1101.53,892.59,1099.98,893.89,1098.47z"/>
			<path d="M1078.98,930.68c0.19,2.38-0.95,2.71-2.78,2.52c-4.6-0.47-7.11-3.99-10.07-6.81c-0.93-0.89-0.68-2.17,0.24-3.15
				c0.94-1,2.08-1.16,3.11-0.29c2.02,1.71,3.7,2.56,4.53-1.01c0.2-0.88,0.89-1.6,1.81-0.99c0.78,0.52,1.69,1.34,1.87,2.17
				C1078.25,925.7,1077.81,928.45,1078.98,930.68z"/>
			<path d="M1096.89,932.2c-2.39-1.09-2.31-3.38-3.14-5.07c-0.97-1.98-1.67-4.27,0.77-5.73c2.28-1.36,4.1,0.03,5.73,1.6
				c1.05,1.01,2.84,1.96,1.98,3.6c-1.07,2.03-2.43,0.39-3.72-0.23c-1.99-0.96-2.42,0.07-1.79,1.78
				C1097.18,929.38,1098.1,930.48,1096.89,932.2z"/>
		</g>
	</g>
	<g>
		<g>
			<path class="st0" d="M956.23,787.35c-4.39,4.24-3.16,10.6-5.97,15.65c-2.68,4.81-4.75,9.61-10.41,11.65
				c1.45-2.91,2.82-6.1,4.59-9.06c2.71-4.53,3.83-9.57,5.03-14.58c0.86-3.59-1.79-6.17-2.95-9.11c-1.84,0.27-1.42,1.43-1.38,2.34
				c0.09,2.01,0.47,4.4-1.79,5.25c-2.97,1.12-2.26-2.69-3.99-3.53c-2.31,0.26-0.74,2.57-1.81,3.5c-0.27,0-0.64,0.12-0.85-0.02
				c-0.9-0.58-0.76-2.6-2.32-2.08c-1.25,0.42-1.47,2.05-1.1,3.05c1.42,3.79-1.82,5.28-3.45,7.56c-0.58,0.81-1.25,1.71-2.43,1.12
				c-1.06-0.53-1.16-1.67-0.95-2.63c0.28-1.28,0.67-2.6,1.33-3.71c2.06-3.47,2.59-7.16,1.86-11.05c-0.33-1.74-0.53-2.94,1.51-4.07
				c5.6-3.09,5.52-3.24,7.31,4.45c4.82-3.87,4.53-10.98-0.64-14.47c-13.4-9.02-27.61-8.05-42.16-3.46
				c-10,3.15-14.82,11.81-20.74,19.27c-1.95,2.46-0.65,5.81-1.8,8.69c-3.75,9.36-7.05,18.91-10.75,28.29
				c-1.09,2.75-2.77,5.32-4.51,7.73c-6.04,8.36-5.05,16.3,2.09,23.56c11.02,11.21,24.59,11.79,38.86,10.53
				c4.64-0.41,3.65-3.64,3.16-7.22c6.83,3.5,10.4-1.31,14.38-4.61c2.02-1.67,3.52-3.98,5.24-6.01c0.74-0.87,1.48-2.32,2.73-1.53
				c1.44,0.91,0.59,2.35-0.05,3.54c-0.08,0.15-0.16,0.31-0.28,0.41c-8.77,7.11-6.6,16.24-5.66,25.73
				c0.68,6.91,0.27,14.33-2.68,21.04c-1.72,3.92-1.56,8.15-2.6,12.18c-3.36,13.09-10.35,24.86-13.63,37.99
				c-0.84,3.35-1.55,6.79-3.5,9.84c-1.67,2.61-1.9,7.05-6.85,4.08c-0.39-0.23-1.57,0.08-1.81,0.48c-3.05,5.07-7.73,3.48-12.04,2.94
				c-7.24-0.9-14.61-1.14-21.57-3.72c-1.08-0.4-2.46-0.85-2.8,0.84c-0.25,1.24,0.99,1.41,1.89,1.86c8.39,4.21,17.87,3,26.66,5.36
				c3.15,0.85,7,0.48,9.7-2.59c1.42-1.62,2.61-1.33,2.9,0.96c0.23,1.81,0.7,3.75-0.5,5.34c-6.15,8.1-6.76,17.58-7.84,27.24
				c-0.5,4.49-0.36,8.55,0.26,12.86c0.42,2.91,1.74,3.66,4.42,2.92c8.54-2.37,12.87-9.05,16.55-16.27c1.07-2.1-0.56-3.91-2.12-5.16
				c-4.52-3.61-4.04-7.55-3.43-13.13c1.28-11.64,8.71-17.29,17.45-21.86c7.21-3.78,15.51-5.09,23.55-6.11
				c14.01-1.77,28.08-4.12,42.23-3.06c14.38,1.08,24.15-6.81,33.8-15.47c2.96-2.66,5.6-5.74,9.43-7.28c1.1-0.44,2.36-1.03,3.12,0.27
				c0.74,1.25-0.08,2.42-1.24,2.8c-8.83,2.89-13.08,11.45-20.37,16.38c-6.44,4.35-12.94,7.57-20.61,7.88
				c-7.65,0.31-15.32,0.07-22.99,0.05c-4.69-0.01-9.3,0.37-13.82,1.8c-1.88,0.59-3.92,0.96-5.88,0.95
				c-11.99-0.07-22.93,3.44-33.1,9.57c-6.48,3.91-8.4,10.57-9.65,17.33c-0.58,3.14,1.72,5.66,4,7.69c2.56,2.29,3.11,4.97,2.21,8.14
				c-2.3,8.05-6.61,14.28-14.63,17.77c-6.47,2.81-7.33,4.95-6.42,12.1c0.69,5.43,2.28,10.67,3.43,15.96
				c1.65,7.57,4.55,14.16,8.97,20.32c2.25,3.13,4.77,5.97,7.64,8.55c5.25,4.71,8.63,10.54,10.04,17.44c0.67,3.29,1.74,6.42,3,9.51
				c4.14,10.2-1.96,18.49-12.78,20.59c-9.04,1.76-17.53,1.19-26.21-2.84c-6.04-2.81-13.03-3.87-19.84-4.47
				c-6.75-0.59-12.52-3.09-17.12-8.21c-1.67-1.86-2.59-3.78-2.35-6.3c0.31-3.21-0.24-6.24-1.58-9.23c-1.58-3.54-3.51-5.74-7.85-6.49
				c-7.62-1.31-11.85-8.27-10.74-15.96c1.62-11.17,2.09-22.52,5.24-33.45c0.41-1.41,0.46-3.44,2.22-3.57
				c6.98-0.49,7.42-6.52,9.23-11.01c7.96-19.83,10.29-40.54,8.42-61.72c-0.8-9.11-2.8-18.14-3.26-27.25
				c-0.67-13.39-4.86-26.6-2.47-40.12c2.05-11.64,4.5-23.2,6.73-34.81c0.91-4.73,1.96-9.46,2.49-14.24
				c0.56-5.06,3.57-8.91,5.87-13.09c1.98-3.6,3.14-6.82,0.45-10.64c-1.67-2.37-1.4-5.42-1.45-8.26c-0.09-5.32-0.08-10.63-0.27-15.95
				c-0.22-6.13-3.49-10.58-8.13-14.26c-1.95-1.54-3.72-3.31-5.56-4.99c-1.18-1.08-1.84-2.36-1.37-4.01
				c2.61-9.18,1.3-17.14-5.01-24.97c-4.6-5.71-8.93-12.71-9.18-20.22c-0.32-9.75-6.24-17.19-8.6-26.02
				c-1.86-6.96-1.81-14.17-3.76-21.05c-0.32-1.11-0.16-2.61,1.19-2.95c1.56-0.4,1.66,1.17,2.14,2.2c2.01,4.3,2.88,8.74,2.86,13.54
				c-0.03,5.5,3.12,7.34,7.74,5.01c2.06-1.04,4.65-3.23,6.31-1.62c1.65,1.59,2.07,4.82,1.69,7.44c-0.33,2.27-0.88,4.75-2.11,6.62
				c-6.28,9.52-2.98,18.51,1.55,27.19c5.53,10.61,12.22,20.52,19.48,30.06c1.77,2.32,5.24,5.73,2.84,7.81
				c-1.61,1.39-4.06-3.35-5.96-5.53c-0.33-0.37-0.53-0.85-0.85-1.23c-1.44-1.7-1.96-4.45-4.9-4.45c-0.94,0-1.63,0.74-1.66,1.58
				c-0.1,2.94-0.94,6.11,1.6,8.49c1.69,1.59,3.47,3.17,5.46,4.33c6.82,3.97,7.96,10.55,8.15,17.48c0.16,5.63-0.11,11.28-0.13,16.92
				c-0.01,1.65-0.08,3.71,2.18,3.83c1.85,0.09,2.28-1.82,2.54-3.23c1.24-6.54,2.46-13.1,5.13-19.23c2.05-4.7,4.17-9.43,6.86-13.77
				c7.74-12.51,20.24-17.18,33.88-19.22c10.4-1.55,20.58-0.55,29.72,5.47c1.13,0.74,2.53,1.14,3.77,0.27
				c1.38-0.96,0.75-2.34,0.51-3.65c-2.48-13.39-7.06-25.69-17.95-34.73c-0.76-0.63-1.5-1.34-2.09-2.14
				c-0.79-1.06-1.77-2.36-0.29-3.47c1.13-0.85,2.15,0.15,3.09,0.87c1.55,1.2,2.67,4.69,4.97,2.65c2.54-2.25-0.41-4.5-1.75-6.4
				c-6.81-9.67-16.41-15.29-27.47-18.83c-5.68-1.82-11.08-4.63-17.31-4.42c-1.32,0.05-3.46-0.19-3.04-2.31
				c0.33-1.64,2.13-1.17,3.43-1.09c8.98,0.56,17.09,4.1,25.28,7.35c0.92,0.37,1.75,1,2.68,1.34c1.35,0.49,2.97,1.69,4.09,0.11
				c1.03-1.45-0.22-2.88-1.19-3.99c-3.9-4.46-8.89-7.37-14.1-10.1c-6.98-3.65-12.49-9.53-20.44-11.93
				c-12.91-3.9-24.8-3.25-36.19,4.31c-3.76,2.49-7.84,4.49-11.78,6.71c-0.24-0.38-0.47-0.76-0.71-1.13c2.3-1.76,4.42-3.86,6.94-5.22
				c7.13-3.86,14.22-7.8,22.33-9.52c11.21-2.38,20.98,1.52,30.52,6.5c2.27,1.18,4.41,2.26,7.03,2.13c1.72-0.09,3.26,0.5,4.68,1.47
				c15.17,10.4,32.11,16.59,49.94,20.36c4.14,0.87,8.62,0.1,12.95,0.12c1.61,0.01,3.29-0.81,6.13,1.22
				c-6.63,1.8-12.56,1.22-19.24,2.17c6.93,4.15,13.63,4.92,20.52,4.85c6.94-0.06,14,1.88,20.8-0.66
				c6.51-2.43,12.04-6.81,18.82-10.57c-0.53,3.11-2.41,4.24-3.89,5.06c-5.19,2.91-8.14,8.28-13.04,11.47
				c-1.19,0.78-2.79,2.1-1.57,3.61c1.08,1.33,2.44-0.3,3.47-0.9c8.47-4.91,16.72-10.11,22.31-18.5c0.59-0.88,1.27-1.64,2.42-1.24
				c1.18,0.41,1.88,1.42,2.17,2.57c0.3,1.23-0.61,1.89-1.63,2.1c-4.06,0.85-3.48,3.77-3.06,6.64l0.08-0.07
				c-3.97-0.35-6.73,1.51-9.62,4.16c-5.26,4.81-11.24,8.72-18.19,10.89c-5.42,1.69-5.87,3.51-1.89,7.46
				c5.79,5.73,9.42,13.37,16.16,18.27c0.71,0.52,1.04,1.4,0.18,2.12c-1.09,0.91-2.29,0.55-3.2-0.21c-3.57-2.99-7.11-5.99-9.62-10.05
				c-1.52-2.45-3.27-6.62-6.12-5.39c-2.74,1.18-1.46,5.8-0.24,8.14c6.93,13.3,8.53,28.34,14.12,42.02
				c5.91,14.47,16.45,25.15,29.36,33.63c4.24,2.79,9.06,4.92,11.43,9.91c-0.47,0.32-0.85,0.71-0.95,0.64
				c-11.04-6.97-23.22-12.33-31.63-23c-2.48-3.14-3.05-7.49-6.62-9.85c-0.85-0.56-1.75-1.36-2.64-0.54
				c-0.48,0.44-0.71,1.6-0.51,2.27c2.14,7.16,1.26,14.56,1.9,21.84c0.54,6.15,2.27,11.51,8.35,14.94c4.29,2.42,7.92,6.05,11.78,9.21
				c4.65,3.8,9.4,4.8,14.52,0.88c1-0.76,2.1-1.62,3.64-1.28c-4.98,8.48-12.6,10.46-19.76,4.98c-4.88-3.74-9.6-7.73-14.13-11.9
				c-2.24-2.06-4.27-2.86-7.15-1.66c-3.47,1.44-7.24-0.28-10.86,0.95c-3.7,1.25-5.07,3.16-2.89,6.64
				c6.74,10.78,15.13,19.89,27.01,25.05c10.1,4.39,20.87,0.9,31.3,2.03c3.89,0.42,6.89-3.81,9.71-6.55
				c8.12-7.92,15.99-16.02,17.02-28.37c0.41-4.93-0.14-9.67-1.11-14.38c-3.42-16.55-1.66-33.19-0.91-49.78
				c0.45-9.89-1.68-18.8-6.77-27.14c-2.81-4.61-3.38-9.49-2.8-14.87c0.83-7.65-0.07-15.06-6.73-20.38
				c-1.73-1.38-2.14-3.06-2.13-5.26c0.02-5.84,1.61-11.27,4.36-16.25c6.51-11.8,1.09-21.87-4.26-31.97c-1.1-2.08-2.7-1.4-4.65-0.51
				c-7.07,3.2-11.75,9.54-18.27,13.42c-10.42,6.19-20.6,12.76-30.45,19.83c-1.39,1-3.43,1.42-3.31,4.21
				c9.21-2.76,17.2-7.62,25.62-11.62c-6.59,6.05-13.97,10.79-22.58,13.36c-1.54,0.46-3.27,1.09-4.71,1.14
				c-5,0.17-10.51-2.65-14.27,3.13c-17.59-5.58-37.03-4.85-52.99-16.19c-5.78-4.11-12.54-6.86-19.66-8.37
				c-7.7-1.63-14.83-4.92-22.03-7.98c-1.43-0.61-2.51-1.62-3.43-2.83c-1.93-2.51-4.54-4.2-7.59-4.39
				c-5.62-0.35-10.42-3.36-15.81-4.39c-0.94-0.18-2.11-0.61-2.61-1.32c-5.35-7.56-13.57-11.54-20.72-16.87
				c-1.75-1.31-2.84-3.18-3.45-5.74c3-0.24,4.54,1.86,6.31,3.31c1.24,1.01,2.07,3.07,4.04,1.9c2.05-1.21,0.81-2.92,0.06-4.36
				c-3.92-7.58-1.23-14.8,1.13-22.04c0.32-1,1-1.97,2.18-1.31c1.74,0.98,2.3,3.13,1.09,4.27c-7.13,6.67-2.91,13.52-0.4,20.15
				c2.58,6.82,6.72,12.33,13.55,15.94c5.45,2.88,10.41,5.79,16.93,6.42c11.31,1.08,20.72-3.7,30.48-7.75
				c3.06-1.27,5.89-3.11,8.87-4.58c1.53-0.75,3.46-2.57,4.74-0.21c1.26,2.33-0.88,3.7-2.68,4.55c-4.36,2.06-8.76,4.08-13.27,5.8
				c-4.19,1.6-8.53,2.79-12.8,4.18c-1.24,0.4-2.92,0.54-2.99,2.18c-0.09,2,1.81,2.45,3.18,2.42c6.4-0.14,10.84,3.64,15.43,7.25
				c1.03,0.81,2.23,1.56,3.47,1.93c12.28,3.57,22.7,11.13,34.36,15.94c13.57,5.6,26.84,7.15,40-2.86
				c6.49-4.93,14.67-7.78,20.56-13.81c2.85-2.91,5.33-6.18,8.72-10.15c-0.19,4.07-2.55,5.72-4.03,7.62
				c-5.87,7.54-12.75,13.95-21.7,17.78c-0.76,0.32-1.48,0.79-2.11,1.32c-0.87,0.72-2.15,1.52-1.41,2.82
				c0.82,1.45,2.36,1.12,3.55,0.48c2.78-1.49,5.61-2.94,8.17-4.77c7.07-5.04,14.95-9.11,20.3-16.3c0.68-0.91,1.6-2.37,2.75-1.63
				c3.76,2.44,6.19-0.33,8.26-2.33c4.34-4.2,10.23-6.13,14.36-10.67c8.21-9.02,12.01-18.92,9.93-31.42
				c-2.43-14.57-3.01-29.45-5.54-44c-1.97-11.37,1.34-21.79,3.42-32.45c2.75-14.15,1.62-27.66-3.85-41.05
				c-2.36-5.79-3.24-12.18-4.8-18.3c-0.37-1.44-0.63-2.92-1.2-4.28c-0.48-1.13-1.53-1.81-2.86-1.42c-1.3,0.39-1.8,1.43-1.69,2.72
				c0.07,0.82,0.38,1.62,0.5,2.44c0.19,1.37,1.2,3.39-0.88,3.68c-1.85,0.25-2.21-1.87-2.05-3.32c0.6-5.53-1.76-6.96-6.78-5.35
				c-1.18,0.38-2.94,0.76-3.42-0.95c-0.42-1.53,1.09-2.3,2.25-2.91c0.86-0.45,1.9-0.86,2.84-0.83c10.15,0.31,17.99-11.82,19.6-20.98
				c1.92-10.93,2.19-21.73,0.16-32.6c-1.52-8.13-5.57-14.83-11.69-20.29c-0.91-0.82-2.2-2.08-3.49-0.85
				c-1.34,1.28,0.03,2.42,0.78,3.45c3.65,4.97,6.81,10.13,6.76,16.74c-2.39-5.21-5.53-9.9-9.09-14.34
				c-4.24-5.29-9.32-8.95-16.32-9.4c-7.14-0.46-14.28-0.97-21.42-1.44c-1.7-0.11-3.34,0.1-4.76,1.14c-1.24,0.91-2.46,1.95-1.79,3.71
				c0.64,1.69,2.1,1.45,3.38,0.94c3.12-1.23,5.19,1.04,7.23,2.43c7.33,5.01,12.52,11.98,16.74,19.77
				c-4.54-4.31-9.05-8.64-13.62-12.91c-0.89-0.83-1.91-2.44-3.29-1.05c-1.02,1.03,0.31,2.11,0.82,3.08
				c2.48,4.7,5.08,9.33,7.44,14.09c0.67,1.35,1.85,3.48-0.27,4.35c-2.05,0.84-2.78-1.4-3.36-2.85c-3.36-8.32-7.77-15.77-15.36-21.07
				c-5.39-3.76-11.04-6.4-17.66-7.36c-11.34-1.65-22.6-3.91-33.92-5.74c-9.77-1.58-19.48-4.82-29.52-1.49
				c-0.52,0.17-1.21-0.19-1.95-0.33c0.81-2.48,2.86-2.32,4.54-2.63c7.77-1.45,15.54-1.53,23.3,0.24c1.6,0.36,3.55,1.11,4.59-0.6
				c1.2-1.96-0.54-3.47-1.75-4.73c-2.75-2.85-5.62-5.43-7.78-8.94c-2.1-3.41-5.91-2.51-9.02-0.9c-2.76,1.43-2.56,3.52-0.65,5.73
				c1.11,1.29,0.56,2.13-1.02,2.34c-1.32,0.17-2.67,0.45-3.98,0.34c-13.6-1.12-20.16,7.81-25.81,18.03
				c-1.21,2.18-2.42,4.38-3.38,6.67c-0.82,1.97-1.76,4.13,1.03,5.59c2.04,1.06,0.75,2.48,0.29,3.84c-1.79,5.37-6.75,8.53-9.17,13.59
				c-5.99,12.55-10.68,25.62-13.2,39.16c-1.95,10.49-3.14,21.42,0.49,32.12c1.36,4-1.04,7.82-2.32,11.51
				c-0.8,2.31-3.42,1.79-5.28,1.03c-2.32-0.95-2.06-3.54-1.03-4.67c5.3-5.8,2.74-11.72,0.87-17.75c-0.43-1.39-0.73-3.04-0.42-4.41
				c3.84-17.17,5.62-34.93,13.44-51c5.45-11.18,8.42-23.28,13.52-34.58c4.92-10.89,12.83-18.3,24.16-22.2
				c7.12-2.46,11.54-8.85,17.75-12.71c1.7-1.06-0.68-7.83-3.19-9.49c-1.42-0.93-3.37-1.69-2.2-3.7c1.11-1.93,3.27-2.9,5.53-2.82
				c2.1,0.07,2.82,1.78,2.59,3.57c-0.59,4.72,1.46,8.36,4.28,11.82c1.9,2.34,2.96,4.98,3.47,8.1c1.24,7.7,12.88,16.38,20.67,16.31
				c3.25-0.03,5.11-2.63,8.01-3.92c-0.88,6.72-0.67,6.61,5.83,6.59c5.25-0.02,10.44-2.31,15.77-0.32
				c1.19,0.45,16.31-9.19,16.47-10.44c0.38-2.93,1.74-5.77,1.07-8.81c-0.22-0.99-0.69-2.07-0.02-2.88c1.39-1.67,2.01-4.93,4.91-4.12
				c3.6,1,2.28,4.02,1.41,6.68c3.8-2.24,5.18-5.18,2.71-8.66c-1.77-2.5-2.89-4.41,0.01-6.69c0.66-0.52,1.18-1.52,0.51-2.19
				c-1.26-1.26-3.04-0.84-4.19-0.1c-3.52,2.25-6.47,1.21-9.72-0.65c-2.26-1.3-3.18-3.24-4.16-5.37c-2.57-5.6-5.45-6.33-9.72-2.15
				c-3.46,3.39-8.84,3.03-12.14,6.66c-0.87,0.96-1.88,0-2.3-0.98c-1.01-2.36-3.32-3.22-5.19-4.53c-7.29-5.09-8.56-4.85-13.98,1.87
				c-1.56,1.94-3.34,3.72-5.06,5.52c-1.06,1.11-2.36,2.3-3.92,1.54c-3.38-1.65-4.47-1.35-3.67,2.81c0.4,2.09-2.08,2.21-3.17,1.15
				c-3.08-3-6.85-5.34-6.71-10.82c0.21-7.91,0.51-15.96-2.69-23.56c-0.63-1.49,0.01-3.09,1.52-3.82c1.57-0.76,2.41,0.6,3.22,1.63
				c2.57,3.27,3.42,7.19,3.97,11.17c0.94,6.76,7.62,10.86,14.1,8.51c0.62-0.22,1.18-0.61,1.75-0.95c5.08-3.08,6.99-3.07,11.61-0.77
				c2.32,1.16,4.84,2.44,7.62,1.04c1.98-1,3.91-0.55,5.76,0.36c3.76,1.87,6.85,1.08,9.04-2.44c1.6-2.58,3.53-2.51,5.3-0.66
				c2.83,2.97,6.54,5.17,7.89,9.46c1.08,3.43,2.96,4.29,6.39,2.04c3.19-2.09,6.96-4.47,10.23,0.32c0.65,0.96,1.67,1.05,2.64,0.44
				c1.3-0.81,2-2.32,1.2-3.42c-2.27-3.14-0.53-4.71,1.53-7.04c1.95-2.21,4-5.36,0.79-8.4c-1.72-1.63-0.76-2.38,0.64-3.42
				c3.35-2.48,4.37-5.85,4.24-10.03c-0.21-6.81,0.16-13.64,0.3-20.46c0.02-0.98-0.05-2.05,1.17-2.5c0.29,0.13,0.83,0.27,0.82,0.39
				c-0.2,6.9,2.98,12.75,5.35,18.95c2.5,6.54-0.97,12.37-4.59,17.58c-2.21,3.18-3.68,5.91-1,9.41c1.43,1.88,0.59,3.5-0.94,4.79
				c-2.77,2.33-4.35,5.28-5.55,8.69c-3.37,9.53-7.89,18.57-12.49,27.56c-0.62,1.21-1.36,2.44-0.38,3.71
				c0.95,1.24,2.09,0.45,3.15,0.01c4.69-1.94,8.29,1.37,11.8,3.15c4.61,2.35,9,3.01,13.94,2.27c7.04-1.05,14.11-1.45,21.15-3.1
				c6.11-1.43,11.64,2.79,15.35,7.64c3.66,4.77,7.37,8.54,13.43,10.39c12.76,3.88,19.54,25.19,9.21,35.21
				c-5.53,5.37-9.06,12.54-14.92,17.93c-7.25,6.67-15.12,11.32-24.96,12.07c-3.26,0.25-6.01,1.89-9.12,2.36
				c1.35-1.5,2.89-2.53,4.83-3.34c8.35-3.53,17.28-5.95,24.29-12.18c3.8-3.37,7.76-6.36,8.29-12.25c0.32-3.59,0.76-8.36,7.02-7.07
				c2.47,0.51,3.6-1.98,4.55-3.96c4-8.33-0.67-21.24-8.89-25.98c-5.63-3.24-11.84-5.36-16.23-10.95
				c-5.14-6.55-12.36-7.98-20.19-4.37c-1.43,0.66-2.89,0.61-4.4,0.34c-1.34-0.24-2.76-0.37-3.48,1.14c-0.7,1.46,0.29,2.43,1.15,3.5
				c9.95,12.33,11.71,26.71,10.16,41.81c-0.32,3.15-1.17,6.19,0.14,9.3c0.67,1.6,0.26,3.27-0.11,4.91
				c-1.22,5.26-4.82,8.91-8.47,12.52c-4.26,4.19-4.12,4.84,1.5,6.47c-0.32,7.61,0.4,14.98,3.05,22.3c2.59,7.12,5.2,14.23,6.01,22.02
				c1.59,15.38-2.34,29.86-5.69,44.5c-0.39,1.69-0.19,3.27,0.03,4.93c2.61,19.27,6.71,38.31,8.76,57.66
				c0.46,4.36-1.71,8.08-3.38,11.82c-1.14,2.57-1.19,4.68,0.16,7.07c3.58,6.34,6.88,12.81,9.02,19.82
				c1.66,5.43,0.06,10.53-1.47,15.6c-0.76,2.52-1.79,5.1-3.29,7.24c-4.4,6.3-2.3,12,1.23,17.59c4.02,6.37,6.5,12.98,5.02,20.75
				c-1.11,5.8,1.73,10.74,4.63,15.43c5.28,8.56,5.99,18.06,4.32,27.4c-0.99,5.55-0.4,10.88-0.79,16.29
				c-0.97,13.41,0.35,26.51,4.14,39.39c0.72,2.45,0.73,4.99-0.13,7.39c-0.91,2.56-1.4,5.06-0.92,7.81c0.4,2.28-0.8,4.17-2.26,5.86
				c-1.96,2.26-3.91,4.54-5.84,6.82c-2.2,2.59-3.3,5.39-1.63,8.71c1.83,3.64,0.63,8.04,2.79,11.57
				c4.67,7.66,11.22,13.57,18.43,18.66c4.77,3.37,9.57,6.64,13.46,11.02c2.89,3.26,5.97,6.14,9.94,8.18c6.01,3.09,7.39,9.75,10,15.1
				c5.37,10.98,4.85,11.05-5.59,17.82c-4.52,2.93-9.84,2.96-14.38,2.85c-7.95-0.18-15.96-0.97-23.65-4.93
				c-12.01-6.18-22.1-15.36-34.45-20.86c-1.97-0.88-3.96-1.78-5.77-2.94c-3.4-2.17-4.81-4.33-3.75-9.3
				c2.32-10.84,5.03-22.11-1.71-32.78c-2.2-3.48-4.41-5.63-8.76-4.9c-7.29,1.23-12.84-3.12-18.33-6.63
				c-6.85-4.39-13.15-9.62-16.52-17.54c-1.15-2.7-3.52-3.46-5.31-0.68c-1.76,2.72-4.23,3.59-7.06,4.12
				c-4.73,0.89-9.33,2.4-14.23,2.54c-4.77,0.13-6.64,3.64-8.31,7.5c-2.42,5.59-6.85,6.71-10.99,3.06c-2.27-2-2.4-4.48-2.11-7.3
				c0.72-6.94,1.79-13.84,1.63-20.88c-0.1-4.32-1.5-7.03-5.93-7.71c-1.95-0.3-3.26-1.06-2.33-3.29c0.78-1.86,1.95-3.39,4.14-1.76
				c2.3,1.72,4.66,1.12,7.17,0.8c9.27-1.19,18.52-1.55,27.42,2.12c3.73,1.54,5.21-0.87,6.38-3.63c2.43-5.77,3.89-11.81,2.23-17.99
				c-2.19-8.15-1.28-16.53-2.37-24.79c-1.98-14.92-5.62-29.4-8.95-43.99c-0.42-1.84-1.95-4.35,0.35-5.4
				c2.67-1.22,5.14,0.79,7.07,2.59c1.96,1.82,1.64,3.82-0.48,5.52c-2.22,1.77-1.92,4.03-1.13,6.37c6.25,18.63,7.26,38.07,8.93,57.41
				c0.2,2.32,0.29,4.69,0.83,6.94c2.15,9.02-1.69,15.94-7.68,22.01c-4.26,4.31-6.86,3.78-9.18-1.46c-0.43-0.98-1.16-1.87-2.16-1.87
				c-6.24-0.01-12.5-2.65-18.71,0.23c-2.06,0.95-4.48,2-3.11,4.66c3.87,7.51,0.47,15.07,0.5,22.58c0.01,2.35-0.93,5,1.96,5.95
				c2.7,0.89,3.61-1.7,4.71-3.51c2.72-4.51,6.72-7.14,11.95-6.78c6.24,0.43,10.96-3.38,16.4-5.11c1.89-0.6,2.65-2.25,2.82-4.31
				c0.56-6.71,3.8-9.88,10.54-10.55c8.97-0.89,9.52-1.64,7.08-10.14c-0.7-2.45-0.72-4.89-0.61-7.41
				c0.62-14.82,0.48-29.48-4.12-43.94c-2.72-8.55-5.42-17.05-8.79-25.36c-1.76-4.36-2.47-8.97-3.12-13.6
				c-0.45-3.19-1.75-6.1-5.61-5.73c-14.1,1.32-26.92-2.46-39.23-9.52c2.43,5.02,2.26,9.94,1.46,15.06c-0.5,3.19-0.82,6.89,3.72,8.06
				c1.1,0.28,1.76,1.11,1.64,2.21c-1.52,14.04,4.32,26.59,7.91,39.6c0.81,2.91,0.93,6.02,4.51,7.06L956.23,787.35z M855.91,1077.58
				c-1.7,2.4-0.42,3.74,0.32,5.16c0.37,0.72,1.33,1.85,0.69,2.17c-2.49,1.24-3.4,4.09-5.67,5.35c-2.31,1.28-3.49-1.18-5.07-2.2
				c-0.71-0.45-1.42-1.06-2.25-0.55c-0.81,0.5-0.7,1.36-0.56,2.22c1.15,7.12,4.47,10.87,11.66,11.29
				c6.32,0.37,11.97,3.16,17.73,4.83c6.21,1.8,12.4,4.32,18.83,5.58c7.26,1.42,14.01-1.68,20.85-3.44c1.61-0.41,2.71-1.99,2.56-3.89
				c-0.15-1.92-1.84-2.05-3.22-2.58c-6.9-2.66-13.93-5.09-18.56-11.48c-0.55-0.75-1.55-1.25-2.44-1.66
				c-1.26-0.59-2.74-0.81-3.7,0.38c-2.8,3.53-6.85,2.43-10.19,2.23c-3.2-0.19-8.2,0.92-8.55-4.97c-0.02-0.29-0.76-0.78-1.17-0.78
				C861.88,1085.23,858.52,1082.02,855.91,1077.58z M1102.18,913.21c-2.76,1.03-5.88,1.81-8.62,3.28
				c-4.79,2.59-6.26,10.68-3.04,14.4c0.93,1.07,3.9,1.68,2.21,3.58c-1.48,1.66-3.74,0.18-5.4-0.92c-1.88-1.24-2.35-3.26-2.08-5.3
				c0.48-3.7-1.23-6.81-2.4-10.05c-1.03-2.86-3.66-4.11-5.99-2.69c-4.36,2.66-7.4,1.22-10.53-1.82c-1.78-1.73-3.88-1.91-5.82-0.21
				c-1.85,1.62-1.63,3.33-0.13,5.22c1.67,2.1,2.13,3.89-1.72,3.09c-1.95-0.41-3.48,0.13-3.55,2.28c-0.09,2.42,1.46,3.25,3.65,2.59
				c1.79-0.54,2.85,0.06,3.63,1.62c1.86,3.73,5.56,4.88,8.92,6.72c6.38,3.5,14.04,2.32,20.32,6.16c2.23,1.37,4.1-0.03,4.53-2.82
				c0.22-1.41,1.67-3.86,2.37-2.32c2.1,4.59,7.61,3.03,9.97,6.56c0.48,0.72,1.38,0.95,2.24,0.62c0.73-0.28,0.98-0.96,0.6-1.61
				c-2.11-3.62,1.2-3.21,2.92-3.94c2.17-0.92,5.09-1.84,3.29-4.8c-2.2-3.62-2.83-7.8-4.96-11.38
				C1110.2,917.5,1107.23,914.3,1102.18,913.21z M959.9,712.12c1.48,0,2.15,0.05,2.81-0.01c1.44-0.12,3.51,0.3,3.79-1.53
				c0.3-2.02-1.81-1.96-3.22-2.24c-2.6-0.52-5.29-0.76-7.81-1.54c-5.7-1.77-12.88-2.28-16.58-6.09c-4.97-5.13-11.51-5.6-16.74-9.17
				c-1.06-0.72-2.63-1.18-3.66,0.09c-0.87,1.07-0.12,2.3,0.63,3.16c3.83,4.36,6.84,9.47,11.75,12.85c1.4,0.96,2.95,2.33,4.52,1.59
				c4.92-2.32,9.46,0.04,14.13,0.71C953.28,710.48,956.73,712.65,959.9,712.12z M944.64,712.67c1.53,4.17,5.26,4.36,8.15,5.55
				c13.67,5.62,26.32,3.12,38.11-5.24c1.08-0.77,2.41-1.45,1.87-3.12c-0.48-1.49-1.94-2.39-3.12-1.8
				c-4.73,2.36-10.18,1.11-14.97,3.46c-5.37,2.64-10.87,4.22-17.28,2.68C953.49,713.26,949.23,711.75,944.64,712.67z M886.3,1082.01
				c-0.11-0.44-0.15-0.91-0.34-1.31c-0.66-1.36-3.16-2.08-1.79-4.1c1.2-1.77,3.22-1.41,5.04-0.99c1.94,0.44,4.09,0.61,5.44,2.24
				c3.48,4.18,6.99,8.29,11.71,11.19c1.05,0.65,1.33,3.39,3.12,1.59c1.12-1.12,0.19-2.72-1.27-3.71c-2.92-2-4.86-4.96-7.09-7.62
				c-0.72-0.86-1.69-2.19-0.48-3.05c1.55-1.11,2.21,0.48,2.97,1.58c1.22,1.77,2.52,3.48,3.86,5.16c0.61,0.76,1.45,1.67,2.48,0.88
				c1.03-0.79,0.46-1.91-0.17-2.65c-2.58-3.02-5.32-5.9-7.85-8.96c-2.85-3.45-5.71-5.48-10-1.91c-1.14,0.95-3.14,1.3-4.72,1.24
				c-5.09-0.19-9.65,2.16-14.55,2.75c-1.97,0.24-2.5,1.47-2.13,3.18c0.32,1.52,1.54,2.57,2.92,1.91
				C878.42,1077.02,882.38,1078.23,886.3,1082.01z M900.33,888.92c-0.36-0.02,0.64,0.11,1.63,0.07c1.13-0.05,2.64,0.04,2.61-1.58
				c-0.03-1.77-1.85-2.37-2.9-1.85c-4.48,2.22-8.58,0.08-12.53-1.14c-9.65-2.98-20.08-2.75-29.35-7.17c-3-1.43-5.95-2.97-8.92-4.46
				c-1.11-0.55-2.34-0.91-3.14,0.28c-0.86,1.28,0.15,2.17,1.15,2.85c0.68,0.47,1.4,0.94,2.18,1.21
				C866.67,882.51,881.75,890.09,900.33,888.92z M889,934.23c-2.68-2.75-6.09-1.3-8.73-2.47c-9.96-4.42-21.14-5-30.92-9.96
				c-1.02-0.52-2.36-0.97-3.21,0.16c-1.07,1.42,0.05,2.59,1.07,3.37c4.39,3.36,9.29,5.63,14.74,6.81
				c7.11,1.54,14.53,0.66,21.56,2.98C885.06,935.62,887.08,935.89,889,934.23z M879.42,950.34c2.37-0.16,5.98,0.38,6.05-2.66
				c0.09-3.35-3.59-1.91-5.58-2.05c-9.51-0.66-18.73-2.31-27.4-6.46c-1.75-0.84-3.96-2.36-5.23,0.07c-1.47,2.79,1.29,3.94,3.18,4.52
				C859.92,946.68,869.22,950.47,879.42,950.34z M827.43,1042.25c0,1.76-0.13,3.1,0.03,4.41c0.28,2.32,5.74,7.5,6.76,6.5
				c2.21-2.16,3.62-1.45,5.32,0.42c0.87,0.96,2.12,2.08,3.38,0.8c1.13-1.14,0.37-2.64-0.48-3.6c-2.78-3.13-4.39-7.01-6.87-10.3
				c-1.57-2.09-2.33-6.13-5.78-5.18C826.37,1036.25,827.84,1040.06,827.43,1042.25z M891.04,906.11c0.36-0.04,2.23-0.11,2.43-2.3
				c0.16-1.79-1.27-2.85-2.79-2.99c-6.13-0.59-12.05-2.6-18.26-2.51c-1.18,0.02-2.47,0.09-2.68,1.61c-0.19,1.39,0.76,2.34,1.92,2.54
				C877.71,903.55,883.48,906,891.04,906.11z M876.01,980.22c0.03-0.12,0.05-0.24,0.08-0.35c0.49,0.06,0.99,0.14,1.48,0.16
				c2.02,0.11,4.55,0.34,4.51-2.43c-0.04-2.75-2.66-1.56-4.3-1.84c-7.24-1.26-14.98-0.18-21.53-4.7c-0.76-0.53-1.88-0.69-2.85-0.75
				c-1.36-0.09-2.8,0.17-3.22,1.73c-0.49,1.83,1.04,2.26,2.3,2.57C860.32,976.52,868.17,978.36,876.01,980.22z M890.86,881.32
				c2.46-0.22,4.52,0.06,4.71-1.76c0.24-2.28-1.98-2.34-3.59-2.41c-3.21-0.14-6.19-1.08-9.22-2.03c-3.95-1.25-7.95-2.35-11.99-3.28
				c-1.56-0.36-3.86-0.43-4.19,1.56c-0.33,2.02,1.96,1.68,3.3,2.1c1.41,0.44,2.79,1.01,4.2,1.44
				C879.93,878.71,886.13,878.97,890.86,881.32z M855.87,1061.12c3.64-0.83,7.03-2.28,10.41-2.23c5.81,0.1,10.26-2.77,14.92-5.37
				c0.89-0.49,2.68-0.76,1.62-2.33c-0.7-1.04-1.71,0.09-2.6,0.45c-7.8,3.18-15.78,5.68-24.21,6.55c-1.2,0.12-3.06-0.31-2.79,1.72
				C853.41,1061.31,854.99,1061.08,855.87,1061.12z M891.52,897.83c1.95-0.2,3.62,0.29,3.91-1.53c0.24-1.55-0.91-2.54-2.32-2.73
				c-6.04-0.82-12.09-1.53-18.14-2.22c-0.78-0.09-1.82-0.09-2.06,0.92c-0.24,1.03,0.65,1.47,1.46,1.59
				C880.42,894.69,886.27,896.46,891.52,897.83z M880.8,923.1c-0.01,0.09-0.03,0.18-0.04,0.27c-0.83,0-1.66-0.05-2.48,0.01
				c-1.08,0.08-2.55-0.32-2.68,1.38c-0.09,1.11,0.81,1.93,1.76,2.16c4.61,1.13,9.1,3.23,14.05,1.72c1.15-0.35,2.42-0.57,2.32-2.06
				c-0.08-1.13-1.16-1.61-2.14-1.78C887.99,924.19,884.39,923.67,880.8,923.1z M887.06,913.65c1.61-0.58,4.17,0.66,4.38-1.48
				c0.27-2.76-2.52-1.85-4.12-2.05c-6.8-0.85-13.69-1.24-19.9-4.63c-0.42-0.23-0.96-0.34-1.43-0.33c-1.41,0.04-3.46-0.59-3.75,1.31
				c-0.22,1.46,1.72,1.9,2.97,2.05c2.96,0.36,5.84,1.46,8.71,1.68C878.59,910.58,882.63,912.98,887.06,913.65z M869,889.96
				c-7.07-2.31-13.63-3.73-19.14-7.65c-1.21-0.86-3.22-2.07-4.12,0.3c-0.71,1.86,0.82,3,2.47,3.67c2.59,1.04,5.12,2.47,7.81,3
				C859.94,890.05,863.71,893.45,869,889.96z M827.16,707.86c1.43-0.15,1.71-1.09,2.02-2.06c0.65-2.04,1.36-4.06,2.03-6.09
				c0.36-1.07,1.01-2.19-0.01-3.22c-0.98-0.98-2.17-0.61-3.24-0.2c-1.38,0.53-2.76,1.11-4.01,1.88c-1.88,1.17-2.13,2.93-0.97,4.7
				C824.21,704.7,824.72,707.23,827.16,707.86z M864.07,914.94c-5.23-2.84-10.04-6.12-14.86-9.42c-1.21-0.83-2.96-2.45-4.14-0.11
				c-0.94,1.86,0.69,3.1,2.06,4.01C852.21,912.8,857.88,914.58,864.07,914.94z M863.09,899.87c1.67-0.01,3.25,0.33,3.59-0.96
				c0.51-1.93-1.47-1.91-2.58-2.12c-5.58-1.05-10.94-2.51-15.43-6.25c-0.86-0.72-2.14-1.57-3.1-0.46c-1.23,1.43,0.18,2.5,1.16,3.24
				C851.72,897.11,858.1,897.37,863.09,899.87z M1050.46,913.7c-0.29-2.38-0.45-4.53-0.84-6.65c-0.19-1.02-1.03-1.8-2.18-1.6
				c-1.35,0.23-1.32,1.36-1.05,2.34c0.61,2.2,0.95,4.24-1.44,5.7c-0.92,0.56-2.44,0.94-1.99,2.45c0.39,1.29,1.9,1.19,2.94,1.52
				C1049.53,918.61,1050.16,916.2,1050.46,913.7z M859.53,954.7c1.3-0.07,3.07,0.27,3.47-1.22c0.47-1.72-1.33-2.14-2.56-2.29
				c-2.69-0.31-5.12-1.04-7.3-2.76c-0.9-0.71-2.34-0.84-3.1,0.36c-0.8,1.28,0.08,2.3,1.2,2.77
				C853.96,952.7,856.76,953.66,859.53,954.7z M844.36,1071.54c-0.64,6.87,1.91,11.16,6.67,12.02
				C849.7,1079.23,846.98,1075.73,844.36,1071.54z M878.63,916.06c-1.21,0.23-3.84-0.69-4.01,1.06c-0.23,2.42,2.58,1.65,4.16,2.09
				c0.47,0.13,0.97,0.19,1.46,0.22c1.64,0.07,4.2,1.51,4.48-1.01c0.2-1.85-2.43-2.24-4.28-2.36
				C879.94,916.03,879.45,916.06,878.63,916.06z M873.74,953.95c-1.38,0.57-4.31-0.83-4.05,1.92c0.23,2.45,3.09,1.83,4.95,1.92
				c1.54,0.08,3.91,0.4,3.67-1.94C878.06,953.44,875.53,954.25,873.74,953.95z M846.47,898.94c2.19,3.83,5.77,3.92,7.96,5.99
				c0.74,0.7,2.82,0.91,3.32-0.72c0.45-1.48-0.98-2.7-2.23-2.69C852.63,901.53,850.32,899.75,846.47,898.94z M912.44,870.93
				c-0.26-1.8-1.59-1.96-2.92-1.87c-1.59,0.11-3.66,0.02-3.79,2.15c-0.1,1.73,1.51,2.42,3.11,2.31
				C910.5,873.41,912.07,872.92,912.44,870.93z M1039.94,900.66c-0.16-1.37-0.53-2.85-2.42-2.98c-1.3-0.09-2.29,0.76-2.35,2.04
				c-0.08,1.84,0.85,3.25,2.77,3.45C1039.45,903.33,1039.74,902.05,1039.94,900.66z M849.76,1066.65c-0.05-2.57-0.11-5.01-2.41-6.6
				c-0.81-0.56-1.75,0.08-1.74,1.03C845.64,1063.7,846.57,1065.85,849.76,1066.65z M852.34,1005c2.82,1.43,5.65,2.4,9.01,0.24
				C858.09,1003.05,855.2,1003.95,852.34,1005z M859.42,1108.02c1.08-0.15,2.86,0.15,2.61-1.43c-0.28-1.76-2.29-1.63-3.73-1.75
				c-1.14-0.1-2.78-0.09-2.56,1.48C856.01,1108.27,858,1107.81,859.42,1108.02z"/>
			<path class="st0" d="M922.19,305.39c0.15,0.91,0.23,1.55,0.37,2.18c0.33,1.59,1.29,3.53-0.91,4.28
				c-1.94,0.66-3.21-0.86-3.61-2.57c-0.83-3.58-3.4-3.5-6.03-2.95c-0.54-1.49,0.06-2.58,0.85-2.93c5.27-2.38,6.13-6.83,6.15-11.93
				c0.02-4.98,1.76-9.76,2.5-14.66c0.64-4.21,4.18-8.15,6.93-11.85c8.66-11.68,20.92-18.85,33.51-25.27
				c4.56-2.33,10.04-2.26,15.56-2.08c13.82,0.45,23.51,8.03,31.73,17.41c7.33,8.36,12.36,18.5,13.95,29.81
				c0.37,2.62,2.96,5.37,0.26,8.64c-0.57-0.87-1.03-1.35-1.23-1.92c-0.62-1.76-0.14-4.78-2.86-4.41c-2.11,0.28-2.87,2.96-3.55,5.03
				c-0.47,1.43,0.58,4.07-1.81,3.98c-3.38-0.12-4.82-3.14-6.3-5.77c-0.93-1.65-0.92-2.94,0.7-4.35c3.34-2.91,3.3-5.61-0.6-8.13
				c-3.43-2.21-3.57-4.65-2.24-8.2c2.38,1.99,4.46,3.79,6.6,5.51c0.75,0.6,1.66,1.4,2.69,0.74c1.18-0.77,1.14-2.12,0.56-3.14
				c-6.2-10.9-12.74-21.7-24.31-27.69c-8.77-4.54-18.57-5-27.72-1.88c-10.5,3.58-20.16,9.13-26.76,18.68
				c-0.85,1.23-1.76,2.43-2.68,3.61c-4.04,5.19-9.69,9.96-2.78,18.7c-3.75-1.45-5.91-2.76-7.72-0.59c-1.76,2.1-0.38,3.68,0.86,5.29
				c0.2,0.26,0.5,0.73,0.4,0.87c-3.34,5.02-0.1,8.76,2.3,12.75c0.63,1.04,1.09,2.66-0.24,3.67
				C925.18,307.43,924.25,304.88,922.19,305.39z"/>
			<path class="st0" d="M1067.32,957.12c1.43,3.92-0.77,6.02-2.6,7.01c-7.46,4.04-5.86,10.82-3.97,16.19
				c2.03,5.76-0.82,8.44-4.23,10.76c-7.21,4.91-15.28,7.97-24.01,9.26c-5.75,0.85-11.44,2.15-17.16,3.22
				c-4.93,0.92-8.67,3.53-10.71,8.11c-3.01,6.75-8.23,10.4-15.12,12.7c-8.83,2.95-17.47,6.5-26.07,10.08
				c-5.7,2.38-9.99,7.17-13.25,11.86c-7.01,10.09-16.13,16.5-27.49,20.31c-1.41,0.47-2.67,1.47-4.1,1.82
				c-1.99,0.49-4.43,3.93-5.86,0.76c-1.06-2.35,2.65-3.36,4.52-4.42c3.17-1.8,6.51-3.45,9.97-4.6c9.85-3.27,16.41-10.66,22.61-18.23
				c6.83-8.34,15.3-13.44,25.51-16.45c6.85-2.01,13.42-4.97,19.58-8.64c2.9-1.73,5.5-4.05,6.57-7.32
				c2.59-7.92,9.28-10.04,16.19-11.45c8.96-1.83,18.02-3.06,26.81-5.74c4.1-1.25,7.69-3.08,10.86-5.86
				c2.69-2.37,3.78-5.11,1.48-8.33c-1.05-1.46-0.73-3.17-1.17-4.62c-1.75-5.8,1.27-8.48,5.89-10.49
				C1064.01,961.99,1065.55,959.83,1067.32,957.12z"/>
			<path class="st0" d="M981.61,479.72c-0.28,1.96-1.32,3.51-3.03,4.34c-3.11,1.49-6.24,2.19-3.2,7.11
				c0.86,1.39-4.86,3.63-6.55,2.68c-6.75-3.79-9.61,1.85-13.48,4.81c-2.49,1.9-4.28,5.05-7.69,1.26c-0.96-1.07-2.46-0.09-3.72,0.38
				c-6.37,2.4-12.95,4.31-19.11,7.15c-8.92,4.11-18.77,2.16-27.87,4.98c-3.21,1-5.98,3.7-9.74,3.19c-0.33-2.53,3.57-2.1,2.69-4.36
				c-0.74-1.91-3.05-1.74-4.64-2.54c-4.55-2.28-9.89-1.51-14.42-3.81c-1.44-0.73-2.74-1.72-1.86-3.47c0.95-1.88,2.76-1.33,3.81-0.3
				c6.89,6.76,15.8,4.13,23.78,4.8c14.33,1.2,27.78-3.82,41.41-7.52c10.99-2.98,20.78-8.85,31.62-12.05
				c4.5-1.33,7.05-6.28,12.12-6.56L981.61,479.72z"/>
			<path class="st0" d="M975.14,366.97c-7.48,1.72-15.52-0.18-23.45,0.95c-1.5,0.21-2.93,0.18-4.05,1.46
				c-1.35,1.54-3.04,2.09-4.87,0.83c-1.24-0.85-1.6-2.18-0.99-3.54c0.9-2.01,2.3-4.5,4.53-3.99c4.4,1.01,7.8-0.3,11.13-2.8
				c0.37-0.28,1.01-0.48,1.42-0.36c7.58,2.11,16.1-1.03,23.12,4.18c1.81,1.34,3.72,2.04,6.04,0.97c1.72-0.79,2.91,0.12,3.37,1.84
				c0.52,1.95-0.9,2.05-2.28,2.39c-5.98,1.44-6.78,7.36-9.1,11.58c-1.94,3.54-3.22,4.31-6.16,1.77c-2.28-1.97-3.99-1.07-6.14,0.48
				c-3.29,2.37-8.47,0.49-8.99-3.4c-0.3-2.24-0.62-2.92-2.81-2.64c-2.11,0.27-3.87-0.54-3.51-2.95c0.35-2.36,2.44-2.47,4.34-2.16
				c0.94,0.15,1.91,0.59,2.71,1.13c6.28,4.22,12.41,4.27,18.17-0.2c1.4-1.09,4.47-1.58,3.39-4.12
				C980.14,366.35,977.53,367.02,975.14,366.97z"/>
			<path class="st0" d="M902.77,840.12c2.83-0.84,7.03-0.16,6.56-3.53c-0.39-2.76-3.52,0.67-5.52-0.06
				c-0.14-2.13,0.98-3.79,1.95-5.49c0.41-0.72,1.15-1.37,1.25-2.12c1.16-8.41,1.35-8.73,9.63-12.56c1.5-0.69,3.11-1.13,4.78-1.73
				c0.76,1.47-1.39,3.39,0.75,4.45c1.61,0.8,2.28-0.97,3.39-1.29c2.58-0.74,4.75-4.49,7.95-1.35c0.69,0.68,1.68,1.36,1.34,2.47
				c-0.36,1.2-1.62,1.23-2.52,1c-3.97-0.99-5.64,1.28-7.13,4.43c-1.72,3.63-4.21,6.71-7.59,9.09c-1.43,1.01-3.87,2.66-0.02,4.08
				c1.64,0.6,1.98,2.11,0.76,3.15c-3.75,3.19-7.15,7.11-12.51,7.65c-1.55,0.16-3.91-0.38-1.92-2.23
				C907.04,843.23,903.62,842.26,902.77,840.12z"/>
			<path class="st0" d="M989.58,311.15c4.89-0.81,8.28,0.92,10.88,4.38c0.81,1.07,1.6,2.02,2.84,2.69c3.33,1.8,3.91,6.03,0.63,8.11
				c-3.13,1.98-7,2.81-10.59,4.02c-0.38,0.13-1.32-0.47-1.5-0.93c-0.18-0.45,0.11-1.31,0.49-1.71c1.39-1.47,3.2-2.27,5.05-3.1
				c2.27-1.01,4.16-2.93,2.85-5.48c-1.13-2.19-3.55-1.45-5.31-0.4c-2.58,1.53-4.19,1.79-4.7-1.92c-0.5-3.6-3.18-3.06-5.78-2.59
				c-6.71,1.21-6.99,0.97-5.19-5.49c0.9-3.24-1.45-4.86-2.78-7.05c-0.56-0.92-1.86-1.85-0.66-3c0.89-0.85,1.83,0.13,2.72,0.48
				c5.39,2.08,11.19,0.38,16.72,2.01c7.09,2.09,12.36,6.63,17.44,11.53c1.63,1.57,2.67,4,0.14,5.52c-2.63,1.57-4.17-0.19-5.21-2.73
				c-1.44-3.51-3.07-6.77-6.63-8.99c-5.07-3.16-11.37-3.1-15.62,0.91c-0.73,0.69-1.5,1.48-1.25,2.56c0.3,1.26,1.5,1.11,2.45,1.16
				C987.72,311.2,988.89,311.15,989.58,311.15z"/>
			<path class="st0" d="M933.63,653.09c-1.44-0.14-3.51,0.27-3.66-1.64c-0.15-1.8,1.85-1.38,3.09-1.58
				c8.06-1.28,14.48-6.07,20.1-11.21c6.81-6.23,12.4-13.81,18.5-20.82c6.6-7.58,10.45-16.89,15.81-25.25
				c0.68-1.06,1.05-3.19,2.5-2.54c1.92,0.87,0.35,2.53-0.2,3.77c-3.5,7.85-5.72,16.23-11.22,23.21
				c-9.29,11.79-19.58,22.55-31.29,31.92C943.35,652.08,938.51,652.77,933.63,653.09z"/>
			<path class="st0" d="M950.18,321.34c3.24,1.17,5.01-0.87,6.66-2.66c1.22-1.32,1.15-3.12,0.08-4.63
				c-0.95-1.34-2.31-1.04-3.62-0.56c-0.47,0.17-0.94,0.36-1.38,0.57c-2.32,1.13-4.18,0.26-5.88-1.34c-0.75-0.7-1.62-1.47-0.65-2.48
				c1.51-1.58,3.61-1.72,5.59-1.56c1.8,0.14,3.57,0.74,5.35,1.13c1.65,0.36,3.03,0,3.7-1.68c0.63-1.59,0.04-2.92-1.18-4.02
				c-3.4-3.08-14.68-3.36-17.97-0.41c-1.82,1.64-3.22,3.45-1.64,6.06c0.55,0.91,2.99,1.62,0.84,2.94c-1.66,1.02-3.75,0.64-4.67-1.39
				c-0.83-1.84-0.92-3.97-0.1-5.85c2.61-5.98,10.95-9.79,17.47-7.96c1.79,0.5,3.44,1.06,5.33,0.43c4.4-1.46,6.28,3.49,10.02,4.14
				c1.15,0.2,0.23,2.68-0.56,3.98c-3.34,5.54-6.68,11.07-10.05,16.58c-1.36,2.22-3.61,3.41-5.72,4.73
				c-2.14,1.33-4.15,0.88-5.99-0.63c-0.95-0.78-1.64-1.88-0.94-3.06C946.12,321.55,948.08,320.9,950.18,321.34z"/>
			<path class="st0" d="M1007.82,596.72c0.5-7.81,2.89-13.73,5.67-19.18c5.78-11.32,9.76-23.34,13.67-35.27
				c2.61-7.96,6.5-16.15,4.47-25.16c-0.37-1.63,0.34-3.3,1.17-4.77c1.72-3.05,2.23-6.17,1.22-9.6c-0.36-1.21-0.14-2.62,0.01-3.92
				c0.09-0.8,0.57-1.7,1.57-1.58c1.03,0.12,1.3,1.18,1.15,1.93c-2.17,10.35,1.05,21.24-3.7,31.41c-3.65,7.79-4.97,16.4-6.78,24.79
				c-1.65,7.69-4.02,15.02-8.4,21.68c-2.64,4.02-4.61,8.47-5.91,13.16C1011.39,592.23,1010.9,594.34,1007.82,596.72z"/>
			<path class="st0" d="M850.28,514.23c1.36,5.47,1.31,9.63,0.56,13.62c-1.5,8.01-0.42,15.85,0.93,23.69
				c0.52,3.01,0.14,5.1-3.22,6.14c-3.44,1.06-4.38,4.26-5.33,7.33c-0.52,1.68-0.17,3.66-1.96,5.62c-1.81-3.59-1.89-7.36-0.52-10.05
				c5.16-10.16,3.71-21.36,5.72-31.98C847.3,524.19,848.03,519.83,850.28,514.23z"/>
			<path class="st0" d="M1015.19,713.25c1.06,0.4,2.72,0.78,4.15,1.58c14.22,8.05,27.78,16.92,37.22,30.75
				c0.87,1.27,2.97,2.81,1.48,4.24c-1.94,1.86-3.29-0.65-4.3-1.86c-8.86-10.53-20.05-18.31-30.91-26.5c-2.7-2.04-5.7-3.36-8.72-4.73
				c-1.05-0.48-2.17-1.16-1.58-2.64C1012.88,713.17,1013.8,713.17,1015.19,713.25z"/>
			<path class="st0" d="M1026.71,610.4c-0.88,3.87-0.99,8.15-2.78,11.54c-6.16,11.7-11.83,23.86-21.76,33.04
				c-6.33,5.86-13.08,11.26-19.7,16.8c-1.12,0.94-2.67,2.1-3.77,0.17c-0.87-1.52,0.57-2.37,1.73-3.07
				c11.58-6.93,20.67-16.73,29.45-26.66c5.6-6.33,8.39-14.58,11.38-22.49C1022.53,616.39,1023.71,613.02,1026.71,610.4z"/>
			<path class="st0" d="M943.78,528.13c0.15-1.77,1.35-2.25,2.27-2.84c13.45-8.57,25.38-19.06,37.41-29.44
				c0.89-0.77,2.29-1.57,2.04-2.65c-1.24-5.45,3.51-5.34,6.3-6.89c1.3-0.72,3.41-2.03,4.41-0.15c0.95,1.78-0.64,3.61-2.2,4.52
				c-3.04,1.77-5.67,3.92-8.23,6.35c-11.53,10.98-23.61,21.29-37.27,29.59C947.17,527.44,945.93,528.78,943.78,528.13z"/>
			<path class="st0" d="M956.3,787.48c0.66-6,4.13-11.14,4.93-17.18c1.53-11.52-2.44-21.98-5.44-32.66
				c-0.45-1.59-1.07-3.15-1.37-4.76c-0.2-1.03,0.37-2.02,1.43-2.36c1.17-0.37,1.96,0.4,2.27,1.41c4.52,15.02,10.82,29.86,4.35,45.96
				c-1.46,3.62-3.4,6.81-6.24,9.47C956.23,787.35,956.3,787.48,956.3,787.48z"/>
			<path class="st0" d="M928.31,515.84c-2.08,4.81-7.67,4.81-10.92,7.96c-1.23,1.19-3.74,1.4-1.61,3.9
				c0.66,0.78,0.31,1.62-0.59,2.01c-0.96,0.42-2.16,0.44-2.83-0.3c-3.73-4.09-6.8-2.07-10.34,0.51c-3.3,2.41-6.44,5.27-10.79,5.97
				c-2.5,0.4-4.45-0.08-5.27-2.48c-1.05-3.09,1.84-2.75,3.46-3.59c11.19-5.81,24.54-5.91,35.12-13.34
				C925.53,515.78,926.67,514.72,928.31,515.84z"/>
			<path class="st0" d="M1020.39,705.56c9.83-2.13,18.28,0.69,25.63,7.24c1.57,1.4,2.51,3.29,5.31,2.88c2.78-0.4,3,2.14,3.04,4.14
				c0.05,2.37,1.32,5.26-1.46,6.82c-1.96,1.1-3.14-0.7-3.77-2.21c-4.14-9.89-12.14-14.59-22.15-16.53
				c-2.34-0.45-4.36-1.51-6.49-2.44C1020.47,705.49,1020.39,705.56,1020.39,705.56z"/>
			<path class="st0" d="M970.88,537.96c-3.24,7.8-10.86,10.97-17.02,15.44c-7.35,5.34-16.28,8.19-23.84,13.35
				c-0.27,0.19-0.57,0.37-0.88,0.46c-2.4,0.67-5.69,3.21-7,0.23c-1.07-2.44,2.98-2.84,4.91-3.68c14.78-6.39,29.48-12.87,41.42-24.14
				c0.7-0.66,1.69-1.03,2.54-1.53L970.88,537.96z"/>
			<path class="st0" d="M1022.24,758.32c0.59,0.46,1.61,1.05,2.37,1.87c4.22,4.6,9.54,7.77,14.86,10.72
				c5.7,3.16,9.62,8.01,13.97,12.5c0.91,0.94,1.88,2.32,0.96,3.54c-1.01,1.35-2.26,0.14-2.87-0.66
				c-7.09-9.37-18.27-13.62-26.62-21.39c-1.46-1.35-3-2.61-4.38-4.04c-0.36-0.37-0.45-1.24-0.32-1.8
				C1020.39,758.4,1021.07,758.13,1022.24,758.32z"/>
			<path class="st0" d="M1030.57,582.83c-1.34-2.9,0.14-5.61,1.04-8.06c4.07-11.13,6.13-22.71,8.37-34.27c0.23-1.2,0-3.19,1.96-2.65
				c1.4,0.38,0.5,1.95,0.32,3.05c-1.79,10.98-3.63,21.93-6.48,32.73C1034.8,577.34,1035.79,581.45,1030.57,582.83z"/>
			<path class="st0" d="M848.04,651.08c-5.06-0.85-9.21,0.69-13.28,3.15c-2.14,1.29-4.78,1.29-7.28,0.78
				c-1.3-0.26-2.97-0.58-2.79-2.23c0.18-1.73,1.9-1.63,3.19-1.39c2.14,0.4,4.23,0.81,6.37,0.06c3.14-1.1,4.19-2.8,1.31-5.29
				c-2.42-2.09-4.38-4.5-5.83-7.33c-0.39-0.76-0.48-1.71,0.27-2.28c0.83-0.63,1.56-0.03,2.09,0.63
				C836.53,642.65,842.39,646.42,848.04,651.08z"/>
			<path class="st0" d="M999.53,483.49c9.53-4.76,18.02-10.51,23.34-20.55c2.03,3.4,0.65,5.02-0.56,6.53
				c-2.14,2.67-5.9,4.03-5.01,8.89c0.4,2.18-3.52,1.69-5.27,2.89C1008.37,483.74,1004.12,483.67,999.53,483.49z"/>
			<path class="st0" d="M981.73,479.82c7.89-7.09,16.39-13.28,26.07-17.72c1.03-0.47,2.47-1.41,3.07-0.08c0.9,2-1.22,1.72-2.29,2.22
				c-6.16,2.9-11.52,7.03-16.79,11.25c-3.04,2.44-5.95,4.82-10.19,4.23C981.61,479.72,981.73,479.82,981.73,479.82z"/>
			<path class="st0" d="M843.56,661.62c-5.46,7.61-13.14,9.84-21.92,9.42c-0.86-0.04-1.77-0.39-1.72-1.37
				c0.03-0.48,0.73-1.04,1.25-1.35c0.55-0.33,1.25-0.55,1.89-0.58C830.39,667.44,837.24,665.46,843.56,661.62z"/>
			<path class="st0" d="M919.62,318.83c0.05,2.91-4.42,7.35-7.04,6.91c-2.9-0.48-2.5-2.8-1.78-4.65c0.57-1.48,1.87-2.68,2.73-4.07
				c0.73-1.18-0.16-4.08,2.57-3.05C918.11,314.72,919.32,316.74,919.62,318.83z"/>
			<path class="st0" d="M1035.47,691.7c-1.45-0.07-2.38-0.08-2.71-1c-0.48-1.32,0.61-1.83,1.52-2.05c6.04-1.42,10.7-5,14.96-9.28
				c0.6-0.6,1.4-1.01,2.2-0.42c0.82,0.6,0.71,1.5,0.19,2.2C1047.46,686.9,1041.07,689.16,1035.47,691.7z"/>
			<path class="st0" d="M1006.24,550.37c-2.21,6.87-2.84,14.33-7.6,20.23C998.46,562.82,1003.15,556.9,1006.24,550.37z"/>
			<path class="st0" d="M882.79,516.56c-5.46,3.49-10.2,3.3-14.97,2.89c-1-0.09-2.07-0.55-2.09-1.76c-0.02-1.51,1.29-2.16,2.39-1.86
				C872.52,517.02,877.02,515.68,882.79,516.56z"/>
			<path class="st0" d="M881.65,798.56c-0.1-2.17-0.6-4.91,2.24-4.69c3.24,0.25,2.83,3.61,3.11,5.91c0.25,2.09-0.46,4.42-3.02,4.15
				C880.47,803.56,882.03,800.4,881.65,798.56z"/>
			<path class="st0" d="M897.02,807.23c-1.59-1.33-2.73-3.75-1.47-4.97c1.94-1.88,4.48-3.84,7.67-3.28
				c0.67,0.12,1.42,0.86,1.76,1.51c0.47,0.9-0.29,1.66-1.06,1.88c-2.55,0.71-5.02,1.42-5.81,4.43
				C898.07,806.97,897.56,807.03,897.02,807.23z"/>
			<path class="st0" d="M835.3,596.03c0.58-1.78,0.31-4.95,2.8-5c2.82-0.06,3.01,3.12,3.22,5.33c0.25,2.75-2.17,2.4-3.86,2.68
				C835.08,599.43,835.21,597.78,835.3,596.03z"/>
			<path class="st0" d="M927.07,811.26c-1.63,0.25-2.21-0.55-2.1-1.94c0.23-3,2.4-4.05,4.89-4.71c1.29-0.34,2.44-0.06,2.32,1.54
				C931.93,809.29,929.53,810.4,927.07,811.26z"/>
			<path class="st0" d="M934.36,512.41c2.8-3.5,6.68-5.25,10.83-6.58C943.17,510.53,938.38,510.84,934.36,512.41z"/>
			<path class="st0" d="M1029.32,682.23c-0.72,5.42-5.03,6.53-8.13,8.77C1022.85,687.41,1024.69,683.99,1029.32,682.23z"/>
			<path class="st0" d="M993.59,285.59c1.94,2.17,3.94,4.4,5.9,6.67c0.05,0.05-0.3,0.66-0.52,0.71c-2.58,0.56-3.79-1.48-5.23-2.93
				c-0.99-1-2.17-2.15-1.31-3.84C992.54,285.97,992.97,285.9,993.59,285.59z"/>
			<path class="st0" d="M1063.14,942.47c0.27,0.31,0.83,0.65,0.83,1c0.01,2.69,1.55,4.63,2.98,6.67c0.55,0.79,1.02,2.05-0.02,2.68
				c-1.19,0.72-1.7-0.55-2.12-1.38c-1.06-2.07-2.1-4.15-3.01-6.28C1061.3,944,1061.42,942.87,1063.14,942.47z"/>
			<path class="st0" d="M971,538.08c2.43-4.95,6.93-8.12,10.53-12.07c-2.91,4.54-5.09,9.74-10.65,11.94
				C970.88,537.96,971,538.08,971,538.08z"/>
			<path class="st0" d="M834.15,602.39c1,3.47,0.7,6.69-2.28,10.41C831.34,608.32,831.64,605.16,834.15,602.39z"/>
			<path class="st0" d="M986.13,520.16c2.26-3.83,3.29-8.45,7.31-11.08C991.29,512.98,988.78,516.65,986.13,520.16z"/>
			<path class="st0" d="M911.86,344.85c0.74-1.29-0.58-3.71,1.73-4.04c1.47-0.21,2.29,1.34,2.07,2.77c-0.25,1.62-0.9,3.54-2.62,3.82
				C911.21,347.7,911.9,345.93,911.86,344.85z"/>
			<path class="st0" d="M1056.06,459.03c1.28-4.87,2.3-8.76,3.32-12.65C1061.06,451.04,1062.13,455.54,1056.06,459.03z"/>
			<path class="st0" d="M893.89,1098.47c2.66,1.1,3.32,3.96,5.13,5.71c0.86,0.83,0.44,1.82-0.94,2.01c-4.78,0.65-9.09-2-11.55-7.23
				c3.28-0.35,4.6,2.69,6.71,3.99C894.92,1101.53,892.59,1099.98,893.89,1098.47z"/>
			<path class="st0" d="M1078.98,930.68c0.19,2.38-0.95,2.71-2.78,2.52c-4.6-0.47-7.11-3.99-10.07-6.81
				c-0.93-0.89-0.68-2.17,0.24-3.15c0.94-1,2.08-1.16,3.11-0.29c2.02,1.71,3.7,2.56,4.53-1.01c0.2-0.88,0.89-1.6,1.81-0.99
				c0.78,0.52,1.69,1.34,1.87,2.17C1078.25,925.7,1077.81,928.45,1078.98,930.68z"/>
			<path class="st0" d="M1096.89,932.2c-2.39-1.09-2.31-3.38-3.14-5.07c-0.97-1.98-1.67-4.27,0.77-5.73c2.28-1.36,4.1,0.03,5.73,1.6
				c1.05,1.01,2.84,1.96,1.98,3.6c-1.07,2.03-2.43,0.39-3.72-0.23c-1.99-0.96-2.42,0.07-1.79,1.78
				C1097.18,929.38,1098.1,930.48,1096.89,932.2z"/>
		</g>
	</g>
</g>
</svg>
