<?xml version="1.0" encoding="utf-8"?>
<!-- Generator: Adobe Illustrator 28.0.0, SVG Export Plug-In . SVG Version: 6.00 Build 0)  -->
<svg version="1.1" id="Layer_1" xmlns="http://www.w3.org/2000/svg" xmlns:xlink="http://www.w3.org/1999/xlink" x="0px" y="0px"
	 viewBox="0 0 1920 1080" style="enable-background:new 0 0 1920 1080;" xml:space="preserve">
<style type="text/css">
	.st0{fill:none;stroke:#231F20;stroke-width:2;}
</style>
<g>
	<g>
		<g>
			<path d="M895.21,204.72c2.73,1.11,1.94,3.26,2.87,4.55c0.97,1.34,2.13,2.15,3.81,1.58c1.41-0.48,2.7-1.98,2.03-2.99
				c-3.11-4.65,0.27-9.4-0.51-13.84c-3.26-18.62,3.08-33.28,16.29-46.28c7.95-7.83,16.54-14.24,27.16-16.79
				c9.34-2.24,18.74-2.09,27.96,3.05c11.28,6.29,20.25,14.44,26.33,25.72c5.73,10.62,10.47,21.59,9.92,34.06
				c-0.12,2.71,0.66,5.13,3.2,6.29c4.97,2.28,5.53,6.83,3.85,10.55c-3.85,8.48-3.37,17.18-2.91,25.94
				c0.27,5.26-1.41,9.61-3.91,14.12c-6.08,10.97-4.14,15.39,8.9,16.63c21.36,2.02,38.02,12.57,53.57,26.13
				c5.89,5.14,10.67,10.9,13.93,17.97c5.92,12.86,7.65,25.98,2.64,39.58c-0.51,1.38-1.25,2.97-1.01,4.3
				c1.84,9.99-0.14,19.86-0.61,29.79c-0.34,7.07,2.27,13.44,5.51,19.48c3.18,5.91,5.97,11.58,1.86,18.24
				c-0.78,1.27-0.99,3.45-0.49,4.86c2.53,7.1,3.13,14.62,4.55,21.91c2.29,11.81,4.57,24.22-3.93,34.76
				c-3.6,4.47-8.37,8.12-13.01,11.61c-3.97,2.99-8.88,3.39-13.84,3.24c-13.98-0.42-13.93-0.32-19.78,12.34
				c-2.09,4.53-5.14,8.7-6.65,13.4c-3.24,10.07-6.61,19.78-1.55,30.99c3.48,7.71,6.05,16.6,4.91,25.7c-0.12,0.96,0,2.05,0.35,2.95
				c3.51,9.02,2.85,18.04-0.31,26.9c-2.5,7.03,1.49,13.02,2.56,19.45c1.61,9.65,3.8,19.24,6.08,28.73
				c3.91,16.29,6.35,32.87,10.59,49.11c3.74,14.33,7.62,28.6,11.9,42.77c1.63,5.4,3.13,10.85,4.89,16.21
				c1.51,4.59,0.98,7.81-3.32,11.17c-9.42,7.35-18.26,15.44-29.47,20.13c-5.44,2.28-10.45,5.78-16.84,5.29
				c-2.8-0.22-4.34,1.92-5.79,4.12c-7.68,11.66-15.4,23.29-23.24,34.85c-1.86,2.74-4.01,5.35-6.39,7.63
				c-5.48,5.27-6.75,12.23-8.09,19.15c-0.62,3.2,0.86,5.7,3.37,7.84c6.76,5.77,14.69,9.75,21.94,14.77
				c9.14,6.34,19.32,11.06,27.87,18.34c7.61,6.48,8.69,16.62,2,24.24c-2.26,2.58-3.01,5.2-0.82,8.09c1.93,2.54,1.11,4.54-0.8,6.63
				c-3.1,3.38-6.74,6.07-10.95,7.71c-15.44,5.99-31.37,9.96-47.97,10.86c-6.24,0.34-7.58,1.48-8.36,7.53
				c-0.36,2.8-0.57,5.66-0.45,8.47c0.22,5.44-2.49,9.01-7.19,10.84c-4.55,1.77-7.95,4.71-10.99,8.32c-0.83,0.98-1.26,3.37-3.25,1.87
				c-1.64-1.24-1.67-3.29-0.66-5.01c1.48-2.53,3.93-4.5,6.44-5.36c10.23-3.5,11.39-11.99,12.12-20.8
				c0.57-6.92,3.24-10.45,10.12-10.32c15.5,0.3,29.65-4.8,43.93-9.64c3.67-1.24,6.83-3.46,10.07-5.49c1.04-0.65,1.99-1.6,1.73-2.82
				c-0.61-2.96-0.11-5.55,1.64-8.03c0.7-0.99,0.65-2.29-0.35-3.21c-1.05-0.96-2.18-0.56-3.2,0.13c-4.82,3.25-10.15,3.83-15.78,3.29
				c-1.61-0.15-3.31,0.27-4.92,0.64c-10.68,2.42-19.61-1.41-28.69-6.74c-9.68-5.68-18.41-13.17-29.52-16.35
				c-3.97-1.14-7.73-3-11.61-4.49c-4.23-1.63-7.52-1.18-11.16,2.41c-9.4,9.27-7.43,5.95-0.09,17.49
				c3.83,6.02,10.34,10.02,12.69,17.12c0.41,1.25,1.43,2.95,0.96,3.72c-2.78,4.65-1.53,8.68,1.03,12.87
				c0.78,1.27,0.2,3.09-0.97,4.15c-4.14,3.73-7.5,8.2-13.21,10.26c-5.35,1.93-9.46,4.99-11.92,11.46
				c-2.58,6.78-8.11,13.12-16.73,14.1c-3.55,0.4-6.76,1.65-10.02,2.95c-2.56,1.02-4.15,2.68-4.51,5.46
				c-0.09,0.66-0.11,1.44-0.48,1.92c-7.03,9.17-0.82,16.81,4.07,23.18c11.12,14.5,26.79,23.87,41.99,33.55
				c1.68,1.07,2.78,2.28,3.37,4.09c0.99,3.08,2.87,5.61,4.96,8.01c6.66,7.68,3.91,17.68-5.87,20.22c-6.86,1.78-13.93,2.78-20.9,4.12
				c-0.98,0.19-2.15,0.06-2.92,0.56c-6.77,4.37-13.43,2.6-20.01-0.34c-7.28-3.26-15.49-3.69-22.51-7.88
				c-6.87-4.1-13.42-8.5-19.63-13.59c-5.75-4.71-11.94-9-16.6-14.75c-3.33-4.1-10.06-6.69-7.63-14.22c0.54-1.69-0.33-4.34-2.49-4.96
				c-2.37-0.68-3.39,1.5-4.38,3.27c-3.13,5.62-2.23,8.32,3.42,11.08c2.22,1.09,4.22,2.63,6.28,4.01c0.71,0.47,1.38,1.16,0.81,2.06
				c-0.54,0.84-1.48,0.67-2.24,0.29c-4.76-2.38-9.55-4.71-14.22-7.26c-1.83-1-2.25-2.7-1.12-4.71c4.76-8.45,7.58-17.61,10.72-26.75
				c3.69-10.71,6.82-21.47,9.11-32.51c1.59-7.68,1.59-15.45,1.77-23.3c0.48-20.8-4.32-40.95-6.25-61.44
				c-1.85-19.63-4.37-39.23-4.3-58.98c0.03-9.78,1.14-19.57,5.53-28.64c0.93-1.92,1.19-4.15,1.85-6.21
				c1.89-5.94,3.78-11.7,7.24-17.2c6.86-10.92,8.85-22.87,5.28-35.89c-2.02-7.36-0.22-15.28,2.55-22.47
				c2.67-6.9,2.08-13.69,0.69-20.58c-1.24-6.11-4.72-11.73-3.49-18.39c0.51-2.75-2.03-4.82-2.84-7.35
				c-2.84-8.88-5.8-17.7-9.61-26.25c-2.71-6.08-4.67-12.47-4.12-19.38c0.14-1.74-0.34-3.73-1.14-5.31
				c-4.57-9.02-6.06-18.96-8.67-28.56c-2.4-8.82-5.69-17.59-6.6-26.58c-1.46-14.46-3.83-29.15,1.2-43.55
				c2.25-6.44,4-13.03,7.34-19.08c2.12-3.84,4.31-7.65,7.76-10.29c4.23-3.23,6.27-7.64,6.52-12.45c0.38-7.23,2.07-14.1,3.88-21.01
				c0.59-2.27,1.14-4.57,2.64-6.42c2.07-2.57,3.22-5.64,3.48-8.72c1-12.11,5.62-23.55,6.29-35.71c0.34-6.28-0.91-12.29-2.37-18.25
				c-1.42-5.76-2.5-11.7-6.29-16.67c-1.04-1.36-1.73-3.45-1.63-5.15c0.39-6.71-1.42-12.85-4.2-18.79c-1.92-4.1-2.17-8.03-0.65-12.46
				c1.7-4.92,1.67-9.95-0.53-15.08c-1.48-3.43-1.98-7.43-2.21-11.22c-0.91-14.72,7.28-28.07,20.73-34.35c1.05-0.49,2.41-0.87,3-1.73
				c8.5-12.41,23.4-16.6,33.87-26.49c3.96-3.75,9.65-4.33,14.69-5.94c2.09-0.67,3.67-1.39,4.17-3.68c0.78-3.57,2.57-2.63,3.79-0.5
				c3.02,5.27,8.47,8.49,11.3,13.93c0.87,1.66,2.53,3.6,4.82,2.44c2.01-1.02,1.48-3.22,0.93-4.95c-1.08-3.36,0.19-6.62,0.24-9.92
				c0.06-4.64,1.33-9.21,0.71-13.93c-0.24-1.87,0.69-4.1,2.86-3.87c1.92,0.21,1.04,2.42,1.03,3.8c-0.02,11.43,0.1,22.87-0.21,34.3
				c-0.12,4.44-1.86,8.72-1.99,13.28c-0.45,16.57-8.88,30.46-15.44,44.97c-1.05,2.33-2.85,4.15-4.77,5.72
				c-8.02,6.55-12.76,15.67-18.89,23.72c-2.69,3.53-5.82,6.79-9.11,9.77c-3.23,2.91-5.85,6.43-8.98,9.27
				c-4.11,3.74-6.86,7.35-6.25,13.16c0.14,1.36-1,3.13-3.09,4.15c0.86-6.23-2.94-13.47,3.41-17.7c5.72-3.81,8.91-9.7,13.98-13.89
				c1.01-0.84,2.09-1.7,2.78-2.79c1.08-1.71,1.93-3.72,0.42-5.58c-1.74-2.13-3.55-0.87-5.29,0.23c-5.36,3.39-10.91,6.41-16.84,8.68
				c-1.31,0.5-2.82,2.21-4.01,0.72c-1.35-1.69,0.53-3.21,1.6-4.21c7.97-7.45,16.96-13.06,28.32-12.75
				c5.23,0.15,8.81-1.08,10.12-6.51c0.19-0.77,0.54-1.76,1.14-2.14c12.51-7.94,19.64-19.56,23.3-33.62
				c0.33-1.27,1.04-2.45,1.65-3.63c2.61-5.04,2.04-8.39-2.76-11.55c-4.05-2.66-6.53-6.62-9.57-10.12c-1.95-2.24-2.04-4.63,1.51-5.72
				c1.14-0.35,2.35-0.59,2.48-2.06c0.15-1.81-1.36-2.05-2.56-2.55c-3.62-1.49-4.78-3.13-0.61-5.6c1.96-1.17,1.88-3.01,0.41-4.68
				c-3.77-4.27-9.55-5.14-14.43-2.21c-9.79,5.87-19.52,11.84-29.4,17.55c-5.03,2.91-8.48,6.95-10.28,12.36
				c-1.14,3.44-3.42,5.17-6.65,6.8c-9.11,4.6-16.66,10.87-19.2,21.53c-0.65,2.75,1.02,4.78,1.47,7.17
				c1.57,8.3,4.1,16.11,10.06,22.43c0.42,0.44,0.52,1.18,0.88,2.07c-2.17,0.79-3.66-1.48-5.71-0.75c-3.71,1.32-6.15,5.58-4.47,9.27
				c3.16,6.97,7.09,13.65,4.86,21.84c-0.4,1.48,0.68,2.89,2.26,3.51c1.68,0.67,2.9-0.02,3.8-1.45c0.7-1.12,1.19-2.42,2.56-2.95
				c0.14-0.05,0.32-0.01-0.07-0.01c2.56,21.82,6.18,43.19,16.27,63.03c2.04,4.01,3.06,8.18,7.84,10.18c4.25,1.78,7.93,2.22,11.58-1
				c1.98-1.74,3.73-2.48,6.56-0.6c3.27,2.17,6.58-0.21,8.89-2.54c5.66-5.71,11.71-10.87,18.5-15.17c2.63-1.66,4.1-4.28,5.58-6.92
				c6.42-11.51,9.43-24.54,16.11-35.97c1.71-2.92,2.03-6.67,2.08-10.2c0.04-3.15-0.28-6.35,1.73-9.15c0.36-0.5,0.63-1.38,0.44-1.89
				c-2.94-7.75,2.31-13.39,5.08-19.61c1.39-3.12,1.35-6.58,1.71-9.68c0.77-6.58,6.16-11.95,4.41-19.09
				c-0.53-2.16,2.42-3.46,2.97-5.6c0.25-0.96,0.69-2.02-0.21-2.8c-0.77-0.67-1.54-0.02-2.25,0.36c-1.38,0.73-2.79,1.44-3.9-0.35
				c-0.63-1.02-1.08-2.3-0.26-3.29c1.14-1.37,2.77-1.01,4.15-0.36c1.68,0.79,2.69,0.23,3.89-1.01c3.93-4.07,8.02-7.98,12.01-11.99
				c9.62-9.69,16.56-21.19,21.77-33.67c1.87-4.47,2.03-9.57,5.78-13.37c1.47-1.49,1.42-4.02,0.87-6.23
				c-1.21-4.83-5.41-6.16-9.06-2.79c-1.06,0.98-1.93,2.17-3.24,3.67c-1.38-3.17-0.12-5.25,1.56-7.04c3.22-3.42,2.24-6.13-1.03-8.77
				c-3.31-2.67-6.03-2.1-8.56,1.09c-0.7,0.88-1.65,1.54-3.13,2.25c2.06-5.25,4.78-10.47-1.8-14.98c3.72-0.39,5.84,0.99,7.64,2.64
				c3.97,3.65,8.89,5.86,13.23,8.95c3.01,2.14,6.17,0.44,5.88-3.32c-0.22-2.91,0.36-4.98,2.38-7.17c2.6-2.83-0.53-5.4-2.11-6.37
				c-4.01-2.47-3.28-4.83-1.09-7.74c0.95-1.26,1.83-2.6,0.83-4.08c-1.05-1.55-1.92,0.08-2.92,0.39c-2.84,0.89-3.06-1.96-4.25-3.28
				c-1.68-1.87-0.36-3.35,1.1-4.65c5.85-5.21,5.7-5.21,0.98-10.92c-2.57-3.11-1.67-6.78,0.59-9.69c2.41-3.1,1.77-5.25-0.21-8.41
				c-2.81-4.47-5.15-9.18-9.13-12.82c-0.96-0.88-0.84-2.27,0.1-3.16c4.1-3.87,1.3-5.27-2.25-6.31c-1.42-0.42-2.27-1.1-1.22-2.4
				c2.89-3.59,0.11-5.01-2.17-7.17c-5.29-5.01-12.01-7.76-17.86-11.85c-2.5-1.74-5.54-0.67-8.32-0.93
				c-9.83-0.92-18.43,1.61-26.57,7.64c-6.16,4.56-12.71,8.53-17.48,14.63c-7.21,9.21-10.71,19.2-9.03,31.38
				c0.64,4.65-0.87,9.56,0.86,14.66c0.77,2.27-3.01,5.41-2.72,9.12c0.24,3,0.96,5.24,3.71,6.43c2.58,1.11,3.55,3.37,4.6,5.64
				c0.43,0.92,0.93,1.98-0.16,2.66c-0.97,0.61-2.04,0.12-2.67-0.69c-1.86-2.38-4.04-3.27-7-2.19c-0.97,0.35-2.21-0.08-2.65-0.99
				C898.11,217.2,894.56,211.86,895.21,204.72z M847.5,945.49c-2.35-0.64-3.67-2.62-5.4-4.08c-1.02-0.86-2.16-1.83-3.42-0.57
				c-1.17,1.17-0.44,2.43,0.32,3.55c2.48,3.67,5.52,2.62,8.61,0.98c-0.2,3.98,3.27,3.81,5.56,5.23c4.2,2.62,8.92,3.52,13.52,4.78
				c2.22,0.61,3.96-0.71,4.17-3.14c0.18-2.07-1.08-3.16-3.11-2.85C860.53,950.47,854.09,947.74,847.5,945.49z M951.75,881.88
				c9.18,0.55,16.35,5.65,24.05,9.95c6.69,3.74,13.39,9.99,22.32,4.76c1.5-0.88,3.75-0.18,3.75,1.92c0,2.88,1.45,3.73,3.8,4.21
				c1.35,0.27,2.05,1.12,1.34,2.55c-1.12,2.25-0.01,3.2,2.07,3.18c2.28-0.02,3.34-1.38,2.81-3.64c-0.35-1.49-0.63-2.86,0.16-4.33
				c1.21-2.25,0.01-3.88-1.78-5.05c-2.66-1.75-5.41-3.26-8.85-2.43c-10.48,2.54-19.63-2.86-27.22-7.81
				c-5.99-3.91-12.1-6.21-18.44-8.58c-2.2-0.82-5.36-2.08-6.9,0.37c-1.46,2.32,2.52,2.99,3.04,5.05c-1.63,0-3.28-0.11-4.9,0.03
				c-1.61,0.14-2.86,0.97-2.86,2.77c0,1.7,1.06,2.76,2.63,3.12c2.2,0.5,4.48,0.04,6.03-1.39
				C954.62,884.86,952.58,883.35,951.75,881.88z M862.86,521.22c0.58,1.22,0.69,1.53,0.87,1.8c4.07,6.15,11.01,9.03,16.07,14.12
				c6.7,6.75,14.82,11.36,24.49,12.1c6.12,0.47,11.68,2.43,17.22,4.72c1.24,0.51,2.86,1.17,1.98,2.78c-0.7,1.28-2.25,0.52-3.05-0.24
				c-2.96-2.78-6.58-2.67-10.28-2.92c-11.7-0.78-22.28-4.32-31.32-12.29c-7.48-6.6-15.43-12.6-22.05-20.2
				c-3.78-4.34-9.01-7.39-11.34-13.05c-0.44-1.07-1.32-2.05-2.69-1.87c-1.69,0.22-1.97,1.65-2.05,2.99
				c-0.11,2.05-0.56,3.92-1.72,5.65c-1.87,2.79-1.63,5.82-0.24,8.59c1.93,3.85,3.8,7.79,6.9,10.93
				c11.63,11.82,24.77,21.66,39.11,29.93c1.29,0.75,2.66,1.42,3.81,2.35c1.24,1,3.12,2.16,1.75,4.03c-1.12,1.53-2.72,0.48-4.04-0.28
				c-0.58-0.33-1.14-0.69-1.69-1.07c-10.23-7.12-21-13.49-30.5-21.65c-1.19-1.02-2.84-2.88-4.27-1.71
				c-1.89,1.55,0.14,3.34,1.01,4.77c4.92,8.04,12.12,14.11,18.69,20.63c14.53,14.41,33.7,19.3,52.68,24.38
				c1.67,0.45,4.37,0.19,3.92,2.72c-0.4,2.25-2.91,1.75-4.68,1.52c-3.98-0.52-7.51-2.59-11.54-3.15
				c-12.59-1.75-23.76-6.89-33.95-14.46c-12.5-9.28-21.79-21.41-30.81-33.81c-4.21-5.79-7.99-11.86-9.66-18.98
				c-0.32-1.35-1.01-2.54-2.58-2.68c-1.54-0.14-2.39,0.97-3.17,2.07c-3.34,4.67-5.51,9.98-7.11,15.36
				c-2.27,7.63-6.77,14.58-7.02,22.81c-0.52,17.46,2.91,34.32,7.24,51.13c2.11,8.19,5.09,16.21,5.9,24.71
				c0.11,1.18,0.24,2.5,1.59,2.83c1.5,0.37,2.39-0.78,3.33-1.77c1.77-1.86,0.83-4.7,2.66-7.8c1.15,7.42-0.72,13.24-2.57,19
				c-0.89,2.79-1.81,5.6-0.25,8.21c6.59,11.04,9.01,23.56,12.87,35.57c0.52,1.61,0.88,3.55,2.81,3.76c4.48,0.47,4.11,3.31,2.96,6.09
				c-2.14,5.15-0.26,10.21-0.09,15.3c0.04,1.17,0.51,2.37,1.88,2.64c1.66,0.32,2.32-0.85,2.89-2.15c1.26-2.85,2.58-5.67,3.87-8.5
				c-0.86,6.54-3.47,12.59-4.26,18.87c-1.16,9.29-4.82,17.99-5.55,27.36c-0.27,3.43-2.45,6.78,2.16,8.93
				c0.98,0.46,0.82,1.75,0.64,2.74c-2.01,11.08-2.86,22.4-8.31,32.68c-2,3.77-3.52,8.57,0.5,12.05c6.3,5.45,13.23,10.08,21.34,12.59
				c3.48,1.08,5.84-1.37,7.87-3.29c1.74-1.64-0.48-3.18-1.73-4.46c-0.81-0.82-1.96-1.71-0.67-2.88c1.1-1,2.11-0.21,3.07,0.57
				c1.63,1.33,2.82,3.61,6.02,3.02c-0.55-0.93-0.86-1.46-1.17-2c-0.9-1.53-3.92-2.46-1.93-4.81c1.51-1.79,3.76-1.89,5.95-0.69
				c4.22,2.3,8.47,4.53,12.71,6.8c1.29,0.69,1.2,1.64,0.9,2.95c-0.63,2.8,2,3.32,3.61,3.84c2.2,0.72,1.14-1.72,1.77-2.56
				c3.94-5.27,0.05-6.43-3.76-8.47c-3.31-1.78-7.85-2.2-10.26-6.89c3.97,0.57,6.6,1.71,9.04,3.64c2.75,2.17,5.53,2.93,6.57-1.78
				c0.26-1.18,0.87-1.68,2.03-1.72c5.34-0.16,6.83-3.31,6.04-8.03c-0.19-1.11,0.16-1.64,1.06-1.78c7.43-1.21,9.17-7.68,11.72-13.1
				c4.29-9.09,5.83-18.3-1.14-27.03c-0.88-1.1-0.87-2.47-0.91-3.82c-0.12-4.08-2.66-5.5-6.29-5.43c-2.33,0.05-4.8,0.73-6.93-0.25
				c-6.53-3-13.01-4.05-20.12-1.83c-10.75,3.37-22.2,5.08-29.84,14.76c-1.14,1.44-2.58,3.04-5.33,2.92
				c0.57-3.23,1.87-5.78,4.37-7.63c4.15-3.06,8.14-6.4,12.59-8.95c15.4-8.85,31.37-11.41,48.14-3.61c3.38,1.57,6.28,3.73,9.29,5.81
				c1.08,0.74,2.25,1.7,3.65,0.9c1.63-0.93,1.41-2.55,1.02-4.01c-1.32-4.98-2.25-10.15-4.22-14.87
				c-5.43-13.06-11.32-25.92-16.99-38.88c-0.76-1.73-2.59-4.04-0.21-5.25c2.34-1.2,3.33,1.67,4.23,3.24
				c4.14,7.23,8.09,14.58,10.79,22.48c2.32,6.77,4.31,13.64,6.48,20.46c0.55,1.74,1.03,3.84,3.48,3.47
				c2.18-0.33,1.93-2.31,2.14-3.96c0.31-2.47,0.71-4.94,1.23-7.38c1.2-5.7,3.01-11.31,3.66-17.07c2.27-20.03-6.89-36.04-18.74-50.95
				c-5.87-7.38-10.31-15.9-17.82-21.98c-1.37-1.11-2.48-3.34-0.76-4.85c2.08-1.82,3.15,0.53,4.24,1.87
				c4.2,5.16,8.33,10.37,12.54,15.52c0.95,1.16,1.78,3.64,3.68,2c1.62-1.4-0.29-2.92-1.19-4.25c-0.92-1.37-1.73-2.82-2.59-4.23
				c-6.38-10.53-13.08-20.86-21.03-30.28c-8.26-9.78-19.55-15.97-29.47-23.73c-10.69-8.36-20.81-17.09-28.84-28.07
				c-0.91-1.24-2.85-2.87-1.09-4.27c2.06-1.64,3.2,0.67,4.17,2.12c6.97,10.42,16.45,18.33,26.46,25.5
				c9.61,6.88,19.08,13.98,28.04,21.63c8.82,7.53,14.92,17.4,19.47,28.1c0.73,1.72,1.25,3.66,3.45,3.8c2.2,0.14,2.54-1.94,3.05-3.42
				c1.4-4.07,2.66-8.18,3.86-12.31c0.44-1.5,0.23-3.09-1.01-4.17c-4.75-4.11-8.64-9.27-14.68-11.83c-1.51-0.64-2.83-1.73-4.17-2.72
				c-0.81-0.6-1.59-1.46-1.07-2.53c0.55-1.13,1.74-0.98,2.61-0.5c4.63,2.57,9.94,4,13.59,8.2c1.08,1.24,2.16,2.86,4.13,2.02
				c1.89-0.8,1.85-2.74,1.6-4.34c-0.89-5.64-0.22-11.31-0.38-16.96c-0.1-3.54-1.6-5.65-5-6.45c-4.54-1.06-9.08-2.09-13.62-3.15
				c-4.71-1.1-9.38-2.33-13.55-4.91c-0.81-0.5-1.78-1.37-1.19-2.45c0.63-1.16,1.78-0.57,2.63-0.15c4.06,2.03,8.54,2.76,12.75,4.24
				c4.71,1.65,9.96,0.55,14.39,3.63c1.91,1.32,3.53-0.65,3.43-2.79c-0.22-4.51,1.3-9.41-2.77-13.18c-0.77-0.71-1.31-1.98-0.37-3.19
				c1.7-0.27,2.43,0.9,2.92,2.14c1.41,3.59,3.3,3.16,5.56,0.82c0.77-0.8,1.48-2.45,2.69-1.69c1.7,1.08,0.44,2.73-0.18,3.96
				c-1.38,2.77-2.42,5.55-1.22,8.62c5.44,13.87,10.28,27.99,17.25,41.21c2.01,3.81,3.68,4.1,6.43,0.93
				c0.98-1.12,1.85-1.96,3.35-1.29c1.63,0.72,1.98,2.15,1.75,3.76c-0.22,1.55-1.03,2.74-2.24,3.77c-4.95,4.19-11.02,1.97-14.45-5.5
				c-2.43-5.3-4.45-10.79-6.97-16.04c-2.43-5.05-2.49-10.69-4.38-15.84c-0.61-1.65-1.53-3.25-3.51-2.91
				c-2.19,0.38-1.91,2.4-1.91,4.04c0,0.65,0.31,1.3,0.35,1.96c0.85,13.26,4.4,26.3,3.37,39.72c-0.27,3.57,1.33,6.01,4.45,7.68
				c6.6,3.54,13.47,6.58,19.54,11.07c2.14,1.58,4.5,1.26,6.49-0.35c4.24-3.44,8.93-6.46,11.35-11.71c0.59-1.28,1.27-3.29,3.13-2.29
				c1.7,0.91,0.78,2.72,0.03,3.98c-3.08,5.17-6.41,10.25-11.24,13.93c-3.29,2.5-7.11,5.01-11.48,2.5
				c-7.77-4.47-15.41-9.18-23.03-13.91c-1.55-0.96-2.85-2.77-4.72-0.96c-1.87,1.81-3.9,3.48-2.72,6.83
				c4.53,12.83,10.71,24.96,15.35,37.79c4.07,11.25,5.74,21.81,2.22,33.28c-2.33,7.59,2.53,12.96,9.85,10.01
				c7.48-3.01,13.62-1.16,20,1.72c5.58,2.52,10.25,1.74,14.6-2.47c1.04-1,2.29-3.27,4-1.46c1.17,1.24-0.41,2.8-1.35,3.88
				c-6.26,7.17-10.44,8.21-21.29,3.33c-3.59-1.62-6.75-1.86-10.5-0.34c-3.84,1.56-8.13,1.9-12.27,0.99
				c-4.81-1.05-7.46,0.2-8.22,4.76c-0.75,4.49,2.48,5.74,5.98,6.35c3.3,0.57,6.65,0.47,9.95-0.2c4.08-0.82,8.15-1.72,12.24-2.5
				c1.21-0.23,2.91-1.07,3.45,0.69c0.53,1.7-1.19,2.17-2.41,2.57c-3.79,1.26-7.6,2.45-11.42,3.59c-1.42,0.42-3.18,0.39-3.62,2.16
				c-0.49,1.98,1.12,2.89,2.42,3.96c3.66,3.02,7.93,3.24,12.46,3.9c9.27,1.34,17.43-0.75,25.39-5.02c1.76-0.95,3.53-2.36,7.33-0.77
				c-9.83,4.7-17.66,10.49-28.06,10.39c-11.62-0.1-11.43,0.17-15.61,11.07c-1.42,3.69-0.02,5.11,2.55,7.38
				c7.42,6.56,17.3,7.32,25.87,10.83c7.58,3.1,16.31,4.71,25.18,5.16c23.04,1.16,41.77-7.49,58.38-22.29
				c3.72-3.32,4.98-7.24,3.37-12.56c-4.97-16.36-9.79-32.8-13.81-49.41c-1.83-7.55-2.99-15.3-4.9-22.87
				c-3.79-15-7.78-29.93-10.15-45.28c-1.36-8.79-3.3-17.51-6.55-26.05c-2.18-5.74-4.7-13.35,1.73-19.25
				c0.73-0.67,0.92-2.15,0.98-3.27c0.7-13.93-1.91-27.51-4.37-41.1c-0.27-1.49-0.78-3.08-2.62-3.22c-2.11-0.16-2.93,1.46-3.21,3.16
				c-0.78,4.59-3.55,8.17-5.65,12.13c-2.67,5.04-7.69,9.64-4.26,16.41c0.43,0.85-0.14,2.28-0.4,3.41
				c-3.51,14.84-11.84,27.39-20.03,39.78c-4.19,6.33-7.54,12.77-7.69,19.97c-0.13,6.35,2.13,12.76,3.39,19.14
				c0.26,1.35,0.86,2.66,2.42,2.83c1.81,0.19,2.72-1.11,3.2-2.6c0.66-2.05,0.86-4.28,1.71-6.23c5.9-13.63,10.23-27.73,13.63-42.19
				c1.21-5.16,1.74-10.91,5.59-15.98c1.78,5.25,0.47,9.43-0.7,13.59c-2.16,7.69-4.93,15.24-6.51,23.04
				c-1.99,9.79-5.68,18.86-10.72,27.25c-7.03,11.69-6.88,23.89-4.12,36.46c1.05,4.8,1.16,9.56,0.92,14.37
				c-0.06,1.16-0.5,2.49-1.87,2.62c-1.76,0.16-2.16-1.34-2.32-2.67c-0.16-1.31-0.08-2.66-0.04-3.98c0.12-3.98,1.4-8.35,0.2-11.87
				c-2.93-8.58-2.53-17.36-3.2-26.1c-0.13-1.65-0.37-3.32-0.76-4.92c-0.33-1.33-1.1-2.56-2.75-2.36c-1.37,0.16-1.83,1.34-2.08,2.51
				c-0.54,2.61-0.91,5.26-1.55,7.84c-0.51,2.06,0.04,5.94-2.88,5.24c-2.51-0.6-0.65-4.06-0.2-6.16c4-18.42,6.62-36.97,5.31-55.86
				c-0.23-3.37-0.33-6.9-3.03-9.79c-3.16-3.38,0.45-6.12,1.57-9.01c1.16-3,3.09-1.4,4.88-0.59c1.69,0.76,2.76-0.15,3.77-1.47
				c5.65-7.41,11.45-14.7,17-22.19c6.5-8.77,8.5-19.87,14.66-28.85c0.56-0.82,0.93-1.9,0.07-2.76c-1.08-1.09-2.19-0.46-3.11,0.3
				c-1.02,0.84-1.99,1.78-2.86,2.79c-6.7,7.76-14.36,14.28-23.84,18.45c-2.74,1.21-4.57,3.28-5.74,5.98
				c-0.62,1.44-0.87,2.97,0.33,4.21c1.38,1.43,2.79,0.41,4.08-0.27c3.67-1.94,7.29-3.99,10.97-5.9c1.22-0.63,2.67-0.91,3.51,0.6
				c0.73,1.3-0.2,2.22-1.18,2.91c-4.63,3.26-9.58,6.02-15.05,7.42c-3.62,0.93-6.02,1.94-4.52,6.32c0.65,1.89,1.15,4.76-1.2,5.16
				c-3.11,0.53-2.45-2.81-2.9-4.71c-0.69-2.89,0.83-6.49-1.3-8.73c-4.45-4.67-4.03-11.51-8-16.32c-1.06-1.28-1-2.63,1.34-3.16
				c10.84-2.42,19.71-8.97,29.18-14.25c1.4-0.78,2.98-2.23,2.09-4.07c-1.04-2.13-3.42-1.78-4.82-0.76
				c-6.89,5.03-15.75,5.69-22.69,10.54c-2.75,1.93-6.25,2.38-9.13,3.81c-6.66,3.32-14.07,1.58-20.88,4.06
				c-3.47,1.26-9.2,1.63-11.5-0.37c-3.93-3.42-8.55-5.58-12.47-8.83c-0.67-0.56-1.34-1.3-0.69-2.08c0.86-1.03,1.87-0.28,2.63,0.31
				c12.65,9.83,26.38,4.62,39.8,2.75c3.58-0.5,7.07-1.89,10.51-3.1c1.57-0.55,3.14-1.7,2.66-3.71c-0.49-2.08-2.42-1.97-4.09-1.97
				c-8.42,0.03-16.64,1.1-24.13,5.29c-3.58,2-7.33,2.23-11.14,1.31c-12.83-3.1-25.93-5.49-37.13-13.22
				c-1.58-1.09-4.62-1.8-3.61-3.91c0.99-2.07,3.51-0.06,5.33,0.39c0.79,0.2,1.49,0.86,2.28,0.99c4.52,0.7,7.85,4.53,12.05,5.18
				c3.95,0.61,7.28,1.96,10.64,3.78c7.08,3.83,14.26,3.88,21.59,0.62c7.16-3.18,14.36-5.8,22.48-6.02
				c7.65-0.2,15.43,1.43,22.89-0.08c20.29-4.12,36.71-13.44,43.39-34.87c2.48-7.96,2.83-7.85-5.42-9.63
				c-0.4-0.09-0.72-0.56-1.48-1.19c4.01-1.63,5.35-4.86,7.11-8.32c1.96-3.84,5.35-7.89,10.69-7.82c3.12,0.04,5.37-0.27,6.68-3.67
				c0.89-2.29,6.59-1.75,6.29,0.23c-0.7,4.57,3.73,8.9,0.35,13.39c-0.64,0.85-0.95,1.9,0.03,2.66c1.14,0.9,2.25,0.31,3.1-0.57
				c3.03-3.09,3.87-6.92,3.33-11.05c-0.36-2.8-1.04-5.56-1.61-8.33c-0.35-1.73-0.58-3.58,1.64-4.02c2.07-0.41,2.49,1.35,2.52,2.89
				c0.1,5.15,5.27,5.99,7.75,9.12c0.96,1.2,2.15-0.19,2.66-1.23c1.18-2.35,0.24-4.12-1.74-5.59c-1.66-1.23-2.23-2.86,0-3.84
				c3.46-1.52,2.84-3.82,2.03-6.6c-0.65-2.24-0.61-4.86,2.85-4.05c4.18,0.97,3.28-1.37,2.6-3.54c-0.49-1.57-1.05-3.27-2.07-4.5
				c-2.66-3.19-5.52-6.06-1.37-10.23c1.08-1.09,0.27-2.86-0.29-4.28c-0.68-1.7-1.68-3.38-1.88-5.14
				c-1.23-10.49-8.29-16.09-16.79-20.59c-1.05-0.55-3.29-0.2-2.76-2.07c0.55-1.95,2.64-1.84,4.27-1.33
				c5.01,1.56,9.55,3.86,12.68,8.37c0.97,1.39,2.06,3.73,4.22,2.32c1.73-1.13,1.28-3.51,0.45-5.07c-1.78-3.37-3.96-6.53-6-9.75
				c-0.97-1.53-2.73-3.1-1.81-4.92c1.94-3.84,0.65-7.48,0.02-11.21c-0.82-4.89-0.45-9.63,1.84-14.11c1.11-2.16,1.37-4.44,0.85-6.8
				c-0.3-1.38-1.02-2.9-2.55-2.56c-7.15,1.6-3.51-2.18-2.54-4.81c0.92-2.49,1.42-5.16,2.5-7.58c5.93-13.35,3.24-26.3-3.12-38.28
				c-5.15-9.69-12.56-18.05-22.64-23.35c-5.34-2.81-10.32-6.13-14.83-10.1c-3.93-3.46-8.49-5.55-13.53-5.79
				c-7.07-0.34-13.79-2.14-20.53-3.91c-2.85-0.75-4.28,0.19-5.24,2.94c-6.1,17.51-15.04,33.25-28.67,46.12
				c-3.78,3.57-6.12,8.07-7.99,13.05c-2.81,7.45-3.43,15.55-6.98,22.67c-1.99,3.99-1.12,8.67-3.62,12.35
				c-2.9,4.27-4.46,9.09-4.85,14.03c-0.73,9.43-4.71,17.97-6.61,27.06c-0.54,2.59-0.7,5.82-2.32,7.54
				c-5.7,6.04-6.47,14.06-8.97,21.25c-3.33,9.58-8.75,17.19-17.08,22.59c-3.24,2.1-6.24,4.31-9.05,6.95
				c-3.61,3.39-6.76,7.84-11.9,8.79c-15.45,2.86-30.34-1.1-35.49-20.29c-0.78-2.89-1.48-5.81-2.37-8.67
				c-0.32-1.04-0.74-2.44-2.2-2.35c-1.25,0.08-1.35,1.41-1.46,2.32c-1.09,9.02-4.52,17.63-4.64,26.81
				c-0.15,10.91,6.14,20.06,16.71,22.76c7.61,1.95,14.58,5.56,22.15,7.51c1.19,0.31,2.94,0.69,2.31,2.53
				c-0.38,1.09-1.77,0.96-2.64,0.49c-8.57-4.66-18.27-4.82-27.44-7.08c-5.79-1.43-11.05-3.73-12.15-10.87
				c-0.41-2.7-2.55-3.59-4.64-1.07c-3.62,4.36-3.22,11.53,1.26,15.18c7.34,5.98,14.47,12.25,22.6,17.23
				c6.58,4.03,13.48,5.48,21,3.53c4.7-1.22,9.47-1.75,14.34-1.87c9.78-0.24,18.51-3.28,26.19-9.58c3.3-2.7,7.25-4.63,10.96-6.81
				c0.83-0.49,2.05-0.6,2.62,0.51c0.5,0.97-0.4,1.57-1.1,1.93c-9.82,5.06-16.76,15.66-29.4,15.33c-0.62-0.02-1.29,0.34-1.88,0.63
				c-4.73,2.25-9.59,3.76-14.95,3.03c-1.64-0.22-3.81-0.08-4.03,1.99c-0.42,3.92-2.83,2.81-5.06,2.43
				C879.22,528.68,871.22,525.95,862.86,521.22z M881.98,984.77c-0.13,9.24,1.07,16.13,1.86,23.06c0.2,1.73,1.15,4.2,2.9,1.95
				c5.04-6.5,12.55-6.92,19.42-9.2c4.97-1.65,9.39-4.83,10.67-10.17c0.88-3.66,2.51-6.34,5.08-8.85c4.52-4.42,10.44-6.44,15.72-9.55
				c5.6-3.3,6.06-5.78,1.76-10.43c-1.98-2.14-2.75-4.33-0.95-6.67c2.99-3.88,1.16-6.51-1.54-9.55
				c-6.06-6.83-11.68-14.03-16.48-21.83c-1.42-2.3-0.63-3.55,1.38-5.36c3.68-3.31,8.24-6.12,9.32-11.62
				c2.15-10.93,7.72-20.69,10.63-31.44c2.55-9.43,7.69-18.38,8.68-28.04c1.34-13.01,4.33-25.93,3.5-39.16
				c-0.25-3.98,0.13-7.97,1.77-11.76c0.44-1.01,0.7-2.41,0.35-3.38c-2.75-7.85-0.54-14.91,2.8-22.03c1.71-3.63,1.51-7.45-2.3-10.25
				c-3.89-2.85-7.62-5.93-11.49-8.8c-1.98-1.47-4.39-1.23-4.78,1.19c-0.74,4.6-2.4,9.03-0.39,14.12c1.77,4.47,5.86,9.12,4.18,13.91
				c-2.83,8.07-6.23,16.37-16.03,18.88c-2.14,0.55-4.32,1.58-5.23,3.59c-4.93,10.89-12.23,20.75-10.78,34.04
				c3.01,27.62-6.35,53.02-15.34,78.47c-2.9,8.23-7.25,15.99-7.95,25.08c-0.49,6.4-1.49,13.08-3.38,19.03
				C882.51,968.98,883.4,978.06,881.98,984.77z M931.74,1095.22c-3.63,1.47-7.48,2.57-10.85,4.5c-7.34,4.18-14.44,3.99-21.64-0.1
				c-2.49-1.42-5.2-2.13-8.02-2.65c-7.01-1.29-13.29-4.48-18.96-8.57c-7.21-5.21-13.8-11.31-22.33-14.48
				c-1.12-0.42-2.35-2.16-3.38-0.49c-0.87,1.42,0.89,2.26,1.79,3.15c15.52,15.42,34.26,24.89,55.4,29.88
				c1.57,0.37,3.3,0.17,4.95,0.1c10.24-0.4,19.86-3.92,29.75-6.08c5.51-1.2,7.39-6.74,4.65-11.62
				c-7.44-13.23-20.1-20.46-32.27-28.25c-1.27-0.82-2.78-0.95-4.25-0.03c-6.95,4.36-14.12,8.1-22.56,8.62
				c-1.94,0.12-3.24,1.24-2.15,3.38c1.59,3.11,7.64,3.78,10.11,1.21c3.03-3.14,9.16-4.89,12.34-2.74
				c7.17,4.84,14.17,10.07,19.54,16.89C926.09,1090.77,927.95,1093.46,931.74,1095.22z M994.42,614.32
				c0.45,4.46,0.88,8.93,1.37,13.39c0.15,1.36,0.56,2.71,2.17,2.96c1.58,0.25,2.4-0.89,3.1-2.06c1.29-2.13,2.62-4.24,3.81-6.43
				c5.01-9.19,10.16-18.33,13.68-28.21c1.03-2.9,3.37-7.91,0.82-9.02c-3.83-1.67-5.72,3.42-7.75,6.25
				c-3.97,5.53-7.53,11.31-12.98,15.65C996.38,608.69,994.12,610.93,994.42,614.32z M1033.83,923.63c-2.66,3.65-6.21,4.48-9.07,6.34
				c-1.31,0.86-3.17,1.98-2.02,3.93c1,1.69,2.89,1.29,4.52,0.76c0.62-0.2,1.2-0.57,1.77-0.9c4.12-2.43,7.97-5.51,13.2-5.22
				c1.2,0.07,2.27-0.65,2.62-1.93c0.37-1.33-0.45-2.19-1.44-2.91c-1.45-1.06-3.51-1.68-3.62-3.83
				c-0.53-10.13-9.88-12.02-15.86-17.04c-0.99-0.83-2.7-0.88-3.56,0.5c-1.11,1.79,0.34,2.67,1.63,3.52
				c2.36,1.55,4.73,3.09,7.03,4.73c1.17,0.83,2.13,2.81,0.57,3.13c-5.03,1.02-8.73,5.67-14.41,4.82c-3.59-0.54-7.28-0.54-10.92-0.69
				c-1.28-0.05-3.06-0.33-3.35,1.33c-0.35,2,1.59,2.41,2.99,2.56c5.6,0.59,11.18,1.85,16.86,0.69
				C1024.87,922.6,1028.94,922.77,1033.83,923.63z M842.75,922.48c7.62,3.62,14.72,7.25,23.18,5.95c2.4-0.37,4.29-2.48,6.98-2.44
				c1.36,0.02,3.47,0.14,3.16-2.08c-0.23-1.69-2.1-1.37-3.34-1.3c-4.15,0.22-8.3-0.11-12.45,0.05c-1.74,0.07-8.23,2.38-4.76-4.5
				c0.67-1.33-1.29-2.05-2.33-2.83c-4.55-3.43-10.72-3.67-15-7.65c-0.72-0.67-1.95-0.7-2.7,0.23c-0.89,1.11-0.35,2.17,0.37,3.17
				c2.07,2.88,5.58,3.48,8.28,5.35c1.88,1.3,5.84,1.13,5.6,3.36C849.41,922.91,845.36,920.09,842.75,922.48z M870.26,900.96
				c3.16,0.14,5.52-0.19,5.92-2.83c0.39-2.53-2.18-2.56-3.8-3.03c-2.54-0.74-5.16-1.66-7.75-1.67c-10.26-0.06-19.1-3.76-27.12-9.86
				c-1.69-1.29-3.76-3.23-5.45-0.5c-1.61,2.61,0.35,4.27,2.66,5.4c4.9,2.39,9.72,4.92,14.83,6.93
				C856.55,898.15,863.72,899.96,870.26,900.96z M1021.61,546.41c-2.69,0.95-5.09,3.03-7.38,5.17c-2.81,2.62-5.56,5.82-9.26,6.49
				c-5.75,1.05-10.02,5-15.36,6.66c-1.97,0.61-3.24,1.9-2.7,4.07c0.61,2.46,2.51,3.54,4.9,3.18c1.41-0.22,2.8-0.98,4.06-1.73
				c2.85-1.69,5.63-3.48,8.4-5.29c6.68-4.36,12.62-9.63,18.39-15.1c0.73-0.69,1.23-1.62,0.92-2.69
				C1023.36,546.42,1022.71,546.26,1021.61,546.41z M835.98,852.95c1.63,2.63,3.96,4.28,6.39,6c12.22,8.62,26.79,6.29,40.27,8.94
				c1.54,0.3,3.72-0.28,4.04-2.17c0.39-2.29-1.94-2.24-3.42-2.74c-2.13-0.72-4.22-0.52-6.34,0.24c-2.55,0.91-5.9,1.93-7.73,0.39
				c-4.31-3.65-9.5-3.25-14.33-4.37C848.39,857.75,842.22,855.51,835.98,852.95z M832.39,1035.7c-1.58-0.16-2.44,0.32-2.84,1.34
				c-0.75,1.91,0.39,3.13,1.73,4.24c7.03,5.81,13.99,11.71,21.13,17.37c1.71,1.36,3.96,4.71,6.12,1.91
				c1.68-2.18-1.17-4.38-3.07-6.01c-0.25-0.22-0.5-0.44-0.78-0.62c-5-3.31-9.42-7.26-13.62-11.54
				C838.44,1039.73,835.1,1037.76,832.39,1035.7z M872.2,890.31c2.48,0,4.97,0.05,7.45-0.01c2.39-0.06,3.83-1.41,3.67-3.75
				c-0.17-2.45-2.29-2.71-4.13-2.44c-9.62,1.41-19.07,0.65-28.43-1.83c-0.96-0.25-2.26-0.55-2.72,0.43
				c-0.72,1.55,0.96,1.79,1.84,2.36C856.69,889.5,864.23,890.78,872.2,890.31z M863.55,914.42c4.77,1.1,7.49-3.28,11.52-4.14
				c1.4-0.3,3.15-1.29,2.75-3.02c-0.4-1.74-2.39-1.7-3.81-1.55c-5.78,0.63-11.54,1.4-17.3,2.17c-1.02,0.14-1.95,0.67-2.23,1.73
				c-0.35,1.38,0.71,2.05,1.61,2.81C858.31,914.29,860.95,914.42,863.55,914.42z M864.39,937.78c2.33,0.13,4.03-0.97,5.74-1.98
				c1.1-0.64,2.73-1.19,1.93-2.91c-0.61-1.32-2.14-1.85-3.44-1.47c-7.44,2.17-14.43,0.21-21.42-2.03c-1.08-0.34-2.47-0.8-3.12,0.5
				c-0.68,1.36,0.71,2.03,1.56,2.74C851.17,937.26,858.18,936.43,864.39,937.78z M933.28,775.57c-0.12,3.29,0.34,6.3-0.99,9.14
				c-1.05,2.24-2.05,4.52-2.91,6.84c-0.32,0.87-0.46,2.04,0.7,2.6c0.88,0.42,1.56-0.24,2.24-0.69c4.84-3.18,7.98-13.39,5.41-18.65
				c-0.92-1.88-0.9-5.74-3.63-5.07C931.19,770.48,933.78,773.8,933.28,775.57z M861.39,881.26c2.19-0.12,4.48-0.43,5.14-2.98
				c0.45-1.72-1.01-2.33-2.42-2.45c-7.48-0.63-14.92-1.4-21.96-4.26c-0.88-0.36-2.11-0.54-2.51,0.76c-0.28,0.92,0.55,1.49,1.24,1.93
				C847.15,878.19,853.8,881.07,861.39,881.26z M905.85,1088.81c-0.78-1.24-1.63-2.44-2.32-3.73c-0.64-1.2-0.65-2.36,1.15-2.4
				c4.87-0.09,2.52-1.97,0.83-3.49c-1.47-1.32-3.09-2.48-4.72-3.61c-2.66-1.83-4.22,0.59-6.11,1.69c-1.51,0.88-1.44,2.13-0.58,3.37
				C896.95,1084.74,900.5,1087.95,905.85,1088.81z M879.54,1078.83c-1.58-0.28-2.47-0.2-2.8,0.72c-0.59,1.68,0.66,2.7,1.87,3.02
				c5.37,1.39,9.95,4.2,14.4,7.34c1.63,1.15,3.33,2.21,5.1,3.11c1.2,0.61,2.66,0.93,3.5-0.62c0.68-1.26-0.18-2.26-1.04-3.05
				C894.4,1083.64,885.69,1083.07,879.54,1078.83z M860.94,903.49c-1.58-0.36-3.53-0.25-4.67-1.16c-5.11-4.09-11.94-4.03-17.3-7.44
				c-1.2-0.76-2.98-1.55-3.95,0.22c-0.93,1.69,0.57,2.78,1.81,3.59C844.19,903.5,852.04,906.24,860.94,903.49z M877.78,984.59
				c-0.44-1.82-1.13-3.67-0.37-5.74c0.58-1.56,0.9-3.78-1.04-4.33c-2.57-0.72-3.47,2.08-4.88,3.55c-0.83,0.86-3.18,1.91-0.93,3.44
				c3.22,2.19,0.68,2.68-0.83,3.53c-1.16,0.65-2.93,1.37-1.31,2.79c1.72,1.52,4.07,2.48,6.48,1.65
				C877.02,988.74,877.73,986.85,877.78,984.59z M880.28,1065.44c2.2-0.91,5.7,0.47,5.95-2.5c0.18-2.15-3.09-1.83-4.92-2.21
				c-5.41-1.12-10.47-3.04-15.27-5.77c-1.52-0.86-3.2-3.97-4.85-1.58c-1.29,1.86,2.15,2.23,3.27,3.46
				C868.73,1061.56,874.5,1063.59,880.28,1065.44z M957.28,864.22c-0.98,0.01-2.11-0.18-2.6,0.94c-0.6,1.39,0.44,2.19,1.43,2.77
				c2.31,1.35,4.83,2.54,7.52,1.85c4.35-1.12,8.46-0.76,12.63,0.75c1.35,0.49,3.68,1.56,3.96-0.98c0.21-1.86-1.82-2.56-3.61-2.54
				c-4.1,0.06-8.25,0.93-12.24-0.69C962.08,865.38,959.8,864.41,957.28,864.22z M977.89,820.15c1.63-0.77,3.98-0.54,4.13-2.97
				c0.12-1.88-1.43-3.32-3.06-3.44c-3.45-0.26-6.93,0-10.4,0.17c-0.51,0.03-1.18,0.66-1.42,1.17c-0.32,0.66,0.17,1.31,0.84,1.55
				C971.24,817.82,974.52,818.96,977.89,820.15z M853.65,1021.11c3.31,4.23,7.19,5.68,10.92,7.37c1.44,0.65,3.24,1.01,4.1-0.41
				c1.12-1.85-0.74-3.41-1.98-3.95C862.83,1022.44,858.87,1020.73,853.65,1021.11z M995.26,826.7c1.33-0.32,2.95-0.62,4.49-1.14
				c0.53-0.18,1.15-0.83,1.26-1.37c0.19-0.96-0.63-1.46-1.45-1.67c-4.07-1.07-8.17-0.99-12.25-0.05c-0.52,0.12-1.2,0.77-1.29,1.27
				c-0.19,1.1,0.87,1.25,1.63,1.42C990.07,825.69,992.5,826.15,995.26,826.7z M919.62,1095.59c-0.18-0.39-0.23-0.84-0.45-0.95
				c-2.82-1.43-5.86-0.69-8.78-0.63c-1.9,0.04-3.48,1.39-4.15,3.17c-0.79,2.12,0.72,3.71,2.46,2.99c3.3-1.36,6.21-3.68,10.06-3.55
				C919.05,1096.63,919.35,1095.93,919.62,1095.59z M867.79,966.77c0.02-0.91-0.35-1.72-1.16-2.02c-3.22-1.19-6.52-0.49-9.78-0.14
				c-0.77,0.08-1.08,1.14-0.53,1.5c2.62,1.73,5.47,3.01,8.61,3.52c0.3,0.05,0.67-0.06,0.96-0.19
				C867.04,968.94,867.69,968.05,867.79,966.77z M860.92,843.33c1.09-0.18,3.48,0.22,3.75-1.63c0.3-2.07-2.19-2.26-3.67-2.43
				c-2.83-0.33-5.49-1.2-8.2-1.93c-0.53-0.14-1.41,0.09-1.78,0.48c-0.52,0.54-0.13,1.45,0.47,1.65
				C854.58,840.5,856.71,843.75,860.92,843.33z M876.85,877.73c1.63-0.01,3.4,0.15,3.28-1.7c-0.17-2.57-2.15-3.74-4.54-3.58
				c-2.1,0.14-5.63,0.51-5.42,2.44C870.58,878.78,874.99,876.11,876.85,877.73z M860.58,847.97c-1.46,0.41-4.26-0.94-4.15,1.18
				c0.15,2.95,3.21,3.36,5.8,3.46c1.82,0.07,4.46,0.37,4.15-2.13C865.98,847.36,862.72,848.48,860.58,847.97z M1005.61,816.11
				c2.14-0.18,4.32-0.43,4.41-3.06c0.08-2.44-1.87-2.92-3.81-2.79c-1.98,0.14-4.47,0.46-4.72,2.74
				C1001.2,815.63,1003.74,815.78,1005.61,816.11z M865.47,1040.65c-1.68-3.68-5.65-3.34-8.72-4.58c-0.71-0.29-2.07-0.06-1.8,0.95
				c0.64,2.44,3.09,3.19,5,4.33c1.09,0.65,2.47,0.9,3.75,1.1C864.8,1042.62,865.62,1042.13,865.47,1040.65z M1063.22,490.81
				c1.68,0.06,3.44,0.11,3.33-2.03c-0.12-2.3-1.42-4.56-3.71-4.62c-2.41-0.06-2.67,2.74-2.95,4.53
				C1059.44,491.47,1062,490.39,1063.22,490.81z M875.32,1017.06c-1.45,0.59-4.51,0-4.15,2.15c0.4,2.38,3.58,2.42,5.78,2.72
				c1.63,0.23,3.12-0.7,2.81-2.54C879.37,1017.08,877.27,1017.17,875.32,1017.06z M990.98,848.09c0.16-0.99-0.39-1.4-1.04-1.53
				c-2.51-0.52-4.95-0.38-6.97,1.4c-0.94,0.83-1.36,1.98-0.17,2.95c1.24,1.01,2.54,0.33,3.67-0.32
				C987.99,849.72,990.04,849.73,990.98,848.09z M997.02,837.6c1.36-0.8,4.48,0.61,4.64-2.56c0.1-2.03-2.07-1.66-3.47-1.61
				c-1.88,0.07-4.42-0.49-4.79,2.17C993.11,837.65,995.16,837.48,997.02,837.6z M857.42,1007.68c-1.11,0.31-3.22-0.11-2.89,1.72
				c0.51,2.89,3.46,2.64,5.63,3.1c1.29,0.27,3.19,0.15,2.93-1.65C862.64,1007.76,859.62,1008.41,857.42,1007.68z M963.98,809.23
				c1.17-1,4.32,0.82,4.32-2.17c0-2.01-2.33-1.87-3.92-1.95c-1.55-0.08-3.07,0.22-3.2,2.17C961.07,809,962.13,809.54,963.98,809.23z
				 M968.3,850.35c-0.73-2.63-3.03-3.22-5.31-3.73c-1.03-0.23-2.38-0.01-2.03,1.32c0.59,2.26,2.46,3.49,4.7,3.95
				C966.8,852.12,968.06,852.13,968.3,850.35z M982.56,922.16c-0.76-2.41-3.02-3.07-5.19-3.74c-1.02-0.31-2.17,0.04-1.79,1.44
				c0.67,2.47,2.59,3.73,4.99,4.14C981.64,924.18,982.46,923.59,982.56,922.16z M866.37,960.03c-3.06-2-5.7-3.03-8.74-1.74
				c-0.72,0.31-0.59,1.24-0.08,1.69C860.11,962.29,862.87,962.08,866.37,960.03z M1006.27,192.46c-0.14-1.32,0.08-3.3-1.48-3.28
				c-2.49,0.03-2.04,2.55-2.33,4.18c-0.21,1.23-0.26,3.07,1.62,2.92C1006.26,196.11,1006,193.99,1006.27,192.46z M840.23,847.83
				c0.18-0.3,0.37-0.61,0.55-0.91c-1.41-1.55-2.77-3.15-4.24-4.64c-0.91-0.92-2.2-2.05-3.3-0.68c-0.89,1.12,0.44,2.07,1.35,2.69
				C836.43,845.53,838.35,846.66,840.23,847.83z M875.33,971.78c1.6-0.22,2.22-1.3,2.23-2.74c0.01-1.43-0.63-2.74-2.17-2.76
				c-1.56-0.03-2.19,1.27-2.23,2.7C873.12,970.45,873.79,971.48,875.33,971.78z M861.6,984.21c-0.35-1.77-1.69-2.3-3.27-2.38
				c-1.18-0.06-2.64,0.11-2.52,1.63c0.14,1.73,1.74,2.31,3.25,2.53C860.31,986.16,861.33,985.69,861.6,984.21z M894.61,908.38
				c1.52-0.26,2.74-1.02,2.69-2.78c-0.04-1.54-1.07-2.41-2.59-2.18c-1.64,0.25-2.55,1.42-2.5,3.07
				C892.25,907.86,893.2,908.43,894.61,908.38z M874.66,946.49c1.35-0.33,3.12-0.41,3.38-2.2c0.18-1.24-1.09-1.47-2.1-1.41
				c-1.53,0.1-3.11,0.46-3.39,2.23C872.33,946.51,873.58,946.5,874.66,946.49z M844.28,866.43c-2.18-2.65-4.39-3.62-7.87-3.91
				C838.59,865.45,840.48,867.08,844.28,866.43z"/>
			<path d="M954.62,1010.19c0.31,0.64,0.54,1.26,0.89,1.81c4.87,7.55,4.83,8.64-2.54,14.25c-3.27,2.49-6.99,4.52-10.74,6.23
				c-7.4,3.35-9.54,9.14-5.36,16.43c3.15,5.5,4.54,11.34,4.52,17.59c0,1.02-0.04,2.01-1.6,2.61c-3.05-9.71-6.46-19.31-9.03-29.12
				c-1.9-7.23-0.42-9.34,6.78-12c5.11-1.88,9.12-5.42,13.57-8.29c2.18-1.4,2.97-3.91,2.79-6.6
				C953.84,1012.13,952.71,1010.86,954.62,1010.19z"/>
			<path d="M910.51,340.48c-2.67-2.18-4.93-4.03-7.21-5.86c-5.91-4.75-12.68-7.87-19.75-10.45c-1.22-0.45-3.05-0.85-2.67-2.44
				c0.49-2.01,2.41-1.3,3.8-0.95c5.1,1.26,9.55,3.78,13.62,7.08c1.49,1.21,3.34,3.09,5.21,1.18c1.78-1.82,0.23-4.01-1.12-5.29
				c-5.89-5.59-10.61-12.41-17.59-16.87c-1.07-0.68-2.81-1.37-2.11-2.92c0.77-1.7,2.41-0.71,3.43-0.07
				c12.88,8.01,22.98,18.09,24.74,34.16C910.93,338.62,910.7,339.24,910.51,340.48z"/>
			<path d="M951.77,233.25c0.36-4.14,3.68-5.71,4.92-8.61c1.52-3.55-1.29-5.76-2.34-8.3c0.81-0.91,1.72-0.84,2-0.35
				c3.88,6.61,11.84,8.11,16.75,13.44c1.51,1.65,2.25,2.96,0.1,4.44c-4.55,3.12-6.34,8.38-9.43,12.57
				c-2.44,3.32-6.53,5.81-6.56,11.72c-4.17-5.17-1.04-8.52,1.19-11.21c2.24-2.7,4.84-4.9,5.12-8.71c0.05-0.73,0.7-1.54,1.29-2.07
				c2.42-2.18,5.38-4.23,1.41-7.52c-4.55-3.78-7.54-3.45-10.89,1.12C954.46,230.95,953.78,232.3,951.77,233.25z"/>
			<path d="M936.19,213.21c2.57-1.55,6.31,1.68,7.04-1.55c0.67-2.97-3.67-3.04-5.53-4.73c-0.71-0.65-1.78-0.9-2.6-1.45
				c-0.69-0.46-1.36-1.09-1.2-2.03c0.16-0.96,1.01-1.32,1.85-1.36c4.14-0.21,8.29-0.5,12.44-0.45c2.47,0.03,3.08,1.81,2.21,3.88
				c-1.16,2.76-2.08,5.6-3.12,8.38c-1.83,4.88-7.2,4.13-11.01,5.71c-2.95,1.22-5.26-1.73-7.3-3.43c-1.65-1.38,0.1-2.72,1.68-2.92
				C932.59,213.02,934.6,213.21,936.19,213.21z"/>
			<path d="M980.17,200.74c3.89,0.25,7.37,0.61,10.63,1.93c1.55,0.63,3.27,1.82,2.62,3.68c-0.77,2.19-2.96,1.43-4.25,0.64
				c-7.93-4.86-15.1-3.46-21.97,2.15c-1.15,0.94-2.65,1.71-4.02,0.32c-0.85-0.86-0.94-2.13-0.76-3.3c0.35-2.26,2.16-1.55,3.54-1.62
				c2.67-0.14,5.21-0.49,7.49-2.2C975.51,200.82,978.01,200.47,980.17,200.74z"/>
			<path d="M978.82,274.09c4.51,2.24,5.73-1.24,7.2-4.25c0.74-1.52,1.64-2.9,3.07-3.82c1.18-0.76,2.68-2.63,3.8-1.2
				c1.52,1.94-1.3,1.99-2.16,2.88c-1.95,2.06-2.51,3.84,0.36,5.59c3.15,1.93,1.55,2.71-0.63,4.4c-4.61,3.56-8.49,3.14-12.43-0.71
				c-0.62-0.61-1.04-1.31-0.81-2.2C977.43,273.96,978.06,273.88,978.82,274.09z"/>
			<path d="M948.54,235.99c1.53,0.2,1.39,1.08,1.26,1.9c-0.69,4.46-6.11,10.3-10.27,11.26c-2.07,0.48-3.62,0.28-4.18-2.1
				c-0.5-2.09,0-2.94,2.36-3.82c3.16-1.18,5.85-3.66,8.72-5.61C947.23,237.08,947.95,236.44,948.54,235.99z"/>
			<path d="M890.1,442.9c-1.04,0.11-1.84,0.1-1.98-0.64c-0.11-0.56,0.11-1.4,0.5-1.81c4.36-4.53,8.73-9.05,13.22-13.44
				c0.94-0.92,2.53-1.18,3.64-0.09c1.01,0.99,0.69,2.48-0.38,3.01c-5.55,2.74-8.37,8.41-13.15,11.95
				C891.3,442.37,890.52,442.67,890.1,442.9z"/>
			<path d="M978.54,210.94c3.06,0.19,8.07,0.43,8.3,3.8c0.2,2.95-5.02,1.01-7.64,2.06c-0.44,0.18-1.04,0.2-1.48,0.05
				c-2.18-0.72-6.08,0.24-6.03-2.75C971.73,210.84,975.44,211.13,978.54,210.94z"/>
			<path d="M907.2,421.94c2.24-5.21,4.32-10.07,6.43-14.92c0.33-0.76,0.73-1.5,1.22-2.16c1.03-1.38,0.45-5.05,3.11-3.82
				c1.96,0.9-0.27,3.48-0.78,5.3c-1.54,5.49-5.11,10.02-7.18,15.26c-0.36,0.9-0.7,2.06-2.01,1.61
				C907.56,423.05,907.36,422.21,907.2,421.94z"/>
			<path d="M929.81,404.75c-1.45,5.86-4.47,10.79-8.18,15.32c-0.5,0.62-1.43,0.96-2.2,0.25c-0.71-0.65-0.73-1.66-0.22-2.27
				C922.83,413.71,926.07,409.08,929.81,404.75z"/>
			<path d="M900.56,251.31c2.24,1.44,4.52,2.27,6.98,2.72c0.99,0.18,1.95,0.79,1.64,2.03c-0.31,1.24-1.46,1.19-2.43,1.06
				C903.36,256.68,901.25,254.76,900.56,251.31z"/>
			<path d="M976.9,187.65c1.45-3.3,2.38-5.51,3.39-7.69c0.43-0.91,1.11-1.79,2.27-1.22c1.06,0.53,1.13,1.68,0.6,2.54
				C981.81,183.5,980.34,185.64,976.9,187.65z"/>
			<path d="M899.89,350.77c-1.52-1.92-3.07-3.82-4.55-5.77c-0.49-0.65-1.06-1.54-0.27-2.22c1.02-0.89,1.88-0.01,2.52,0.72
				C899.27,345.4,900.1,347.72,899.89,350.77z"/>
			<path d="M987.42,285.17c-0.52,1.92-1.35,3.31-3.25,3.53c-1.16,0.13-1.95-0.63-1.85-1.77c0.16-1.91,1.67-2.8,3.26-3.27
				C986.78,283.3,987.24,284.3,987.42,285.17z"/>
			<path d="M942.34,397.11c-0.64,1.5-1.04,3.55-3.06,3.97c-1.21,0.25-1.41-1.12-1.32-2.13c0.17-1.86,1.28-3.03,3.04-3.44
				C942.02,395.27,942.51,395.9,942.34,397.11z"/>
			<path d="M984.75,262.25c-0.07,1.19,0.02,2.96-1.41,2.71c-2.17-0.37-1.16-2.72-1.64-4.17c-0.32-0.97-0.06-2.32,1.23-2.11
				C984.87,259,984.43,260.94,984.75,262.25z"/>
			<path d="M1063.78,381.61c-0.35,1.58-0.53,3.8-1.33,5.78c-3.33,8.24-3.48,16.3,0.06,24.6c1.57,3.69,0.56,7.91,0.36,11.89
				c-0.18,3.57,0.4,6.53,4.05,8.33c2.08,1.03,5.22,10.46,4.56,12.53c-0.54,1.7-1.83,2.25-3.46,2.28c-6.28,0.15-8.82,5.37-12.21,9.27
				c-1.38,1.58,0.23,3.39,1.25,4.94c0.88,1.33,2.39,3.04,0.23,4.22c-1.9,1.04-2.87-0.81-3.8-2.24c-2.73-4.19-5.12-8.31-5.22-13.7
				c-0.06-3.53-1.82-7.05-3.77-10.21c-2.62-4.25-5.21-8.51-7.85-12.75c-2.39-3.83-13.57-8.51-17.94-7.55
				c-3.51,0.77-3.94,2.68-1.58,5.58c2.64,3.23,6.18,4.27,10.03,4.95c3.46,0.61,5.65,2.17,3.88,6.19c-0.65,1.48-0.5,3.03,0.57,4.24
				c2.46,2.78,1.39,5.99,1.29,9.08c-0.04,1.2-0.37,2.38-1.71,2.75c-1.57,0.44-2.58-0.53-3.21-1.76c-1.05-2.07-2.17-4.14-2.85-6.34
				c-1.36-4.36-3.49-8.44-6.25-11.85c-2.7-3.34-6.96-1.1-10.53-0.73c-1.24,0.13-2.7,1.48-3.38-0.27c-0.74-1.93,1.04-2.4,2.51-2.9
				c5.94-2.04,6.13-2.75,2.16-7.81c-1.11-1.41-1.77-2.87-0.75-4.57c0.91-1.52,2.57-1.95,3.94-1.33c6.9,3.15,14.62,2.85,21.65,5.41
				c3.91,1.43,5.51,4.97,6.94,8.14c2.35,5.22,7.18,8.8,8.9,14.36c0.37,1.2,1.49,1.76,2.84,1.39c2.03-0.56,7.13-8.77,6.18-10.52
				c-2.55-4.7-1.8-9.72-1.99-14.67c-0.31-7.95,0.17-16.02-3.2-23.57c-0.78-1.76-0.63-3.37,1.73-3.72c3.62-0.53,3.95-2.95,3.6-5.9
				c-0.18-1.48-0.35-2.99-0.21-4.46c0.15-1.59,0.99-3.04,2.84-2.79C1063.82,378.11,1063.75,379.7,1063.78,381.61z"/>
			<path d="M848.9,519.26c0.83,0.89,1.54,1.8,2.39,2.55c5.65,4.97,9.2,11.7,14.63,16.93c8.05,7.75,17.36,13.34,27.38,17.86
				c7,3.17,13.07,7.93,20,11.18c1.36,0.64,2.88,1.64,1.92,3.42c-0.78,1.45-2.38,0.94-3.59,0.42c-2.44-1.04-4.93-2.05-7.21-3.4
				c-15.38-9.08-32.36-15.74-44.68-29.46c-4.67-5.2-7.14-11.95-12.03-17c-0.34-0.35-0.29-1.25-0.16-1.84
				C847.62,519.66,848.32,519.53,848.9,519.26z"/>
			<path d="M1056.42,364.1c-1.05-10.6-7.95-19.38-3-29.83c0.69-1.45,0.98-3.01-0.07-4.26c-7.96-9.46-10.49-21.8-17.09-31.99
				c-1.99-3.08-3.93-6.17-6.31-8.97c-0.86-1.01-1.81-2.47-0.51-3.52c1.73-1.4,2.61,0.4,3.44,1.57c5.23,7.33,9.59,15.02,12.48,23.7
				c1.72,5.17,4.02,10.7,9.67,13.4c2.02,0.97,2.18,2.88,2.14,4.7c-0.14,6.64,0.61,13.31-0.55,19.92c-0.69,3.96,1.63,7.42,1.99,11.2
				C1058.68,361,1058.86,362.03,1056.42,364.1z"/>
			<path d="M979.92,776.96c-1.57,0.05-2.92-0.31-3.36-1.77c-0.58-1.9,0.81-2.61,2.32-3.17c5.43-2.01,11.09-3.34,16.59-5.14
				c11.94-3.91,21.39-11.01,29.56-20.21c0.44-0.5,0.79-1.08,1.26-1.54c0.89-0.89,1.77-2.47,3.2-1.05c1.14,1.13,0.49,2.57-0.43,3.59
				c-3.98,4.41-7.39,9.27-12.18,13.01c-10.61,8.27-23.36,11.55-35.62,16.02C980.79,776.86,980.28,776.89,979.92,776.96z"/>
			<path d="M912.99,797.75c-0.19,1.88-1.21,2.95-2.45,3.84c-1.07,0.77-2.6,1.28-2.85,2.64c-0.99,5.3-3.79,3.74-6.77,1.97
				c-3.41-2.03-7.08-3.7-9.83-6.69c-0.65-0.71-1.48-1.56-0.5-2.54c0.72-0.73,1.55-0.2,2.28,0.17c0.44,0.22,0.83,0.55,1.26,0.8
				c1.56,0.9,3.71,2.43,4.72,0.33c0.96-2-0.72-4.06-2.76-5.2c-0.55-0.31-1.28-0.28-1.94-0.38c-1.35-0.21-2.94-0.39-2.28-2.32
				c0.54-1.59,2.41-1.9,3.26-0.92c3.28,3.79,7.55,3.22,11.83,3.57C909.65,793.24,912.48,794.53,912.99,797.75z"/>
			<path d="M1035.3,465.05c-0.54,1.64-1.78,2.79-3.06,3.82c-1.44,1.16-2.2-0.27-3.33-0.93c-3.2-1.87-5.89-5.64-10.49-3.26
				c-0.89,0.46-2.14,0.34-2.64-0.72c-3.64-7.67-10.53-13.26-13.48-21.37c-0.62-1.71-1.19-3.34,0.67-4.36
				c1.91-1.06,2.96,0.46,4.04,1.83c3.65,4.63,4.32,10.76,7.95,15.42c2.46,3.16,4.97,5.82,9.45,5.07c1.06-0.18,2.08,0.24,2.66,1.08
				c1.55,2.24,3.01,3.9,5.97,1.76C1034.16,462.58,1035.23,463.49,1035.3,465.05z"/>
			<path d="M1058.38,372.87c0.04,1.16,0.01,2.04-0.82,2.5c-1.1,0.61-1.94-0.04-2.55-0.85c-0.7-0.92-1.38-1.9-1.84-2.95
				c-4.65-10.59-13.07-17.68-22.38-23.82c-4.82-3.18-8.01-7.88-12.15-11.67c-0.83-0.76-1.53-2.07-0.52-3.1
				c1.3-1.33,2.63-0.29,3.38,0.73c6.96,9.47,17.65,14.99,25.18,23.89c2.55,3.01,4.14,6.89,8.94,8.05
				C1058.26,366.27,1057.5,370.57,1058.38,372.87z"/>
			<path d="M997.19,493.65c-2.26-0.52-3.39-1.97-4.61-3.34c-7.44-8.34-12.42-18.44-19.38-27.12c-1.83-2.28-1.16-4.38,0.96-6.06
				c1.03-0.81,2.64-1.07,2.31,0.81c-0.62,3.55,1.87,5.5,3.37,7.98c2.41,3.97,4.81,7.96,7.38,11.83c2.05,3.08,4.3,5.8,8.7,5.66
				c2.49-0.08,4.18,1.89,3.49,4.35C998.87,489.73,999.67,492.54,997.19,493.65z"/>
			<path d="M872.8,648.9c0.94,5.37-0.54,10.51-3,14.66c-6.22,10.5-11.07,21.51-14.91,33.04c-0.15,0.45-0.42,0.85-0.98,1.03
				C854.32,679.04,865.4,664.72,872.8,648.9z"/>
			<path d="M1001.05,464.73c-3.22-4.25-6.16-8.42-9.43-12.32c-1.4-1.67-2-3.33-2.08-5.39c-0.06-1.37-0.49-2.73-2.13-2.93
				c-1.41-0.17-1.88,1.07-2.57,2.01c-1,1.37-1.18,3.73-3.64,3.44c-0.43-0.05-1.03-0.91-1.1-1.45c-0.27-2.16,0.6-3.89,2.45-5.07
				c0.56-0.36,1.37-0.48,1.73-0.96c2.98-3.91,4.97-3.58,7.79,0.64c4.03,6.02,8.86,11.49,9.64,19.1
				C1001.82,462.78,1002.03,463.77,1001.05,464.73z"/>
			<path d="M963.65,584.66c-2.45,0.04-4.14-0.82-5.49-2.46c-2.51-3.07-5.05-6.12-7.58-9.18c-0.76-0.91-1.61-1.97-0.78-3.09
				c1.04-1.41,2.46-0.65,3.55,0.04c1.81,1.14,3.71,2.27,5.2,3.77c2.76,2.77,4.95,6.53,9.76,3.45c0.71-0.45,1.68-0.06,2.18,0.69
				c0.74,1.1,0.49,2.27-0.29,3.22C968.44,583.24,966.05,584.27,963.65,584.66z"/>
			<path d="M992.42,373.62c-6.98-9.53-12.99-19.51-14.08-31.69C982.65,352.68,989.31,362.34,992.42,373.62z"/>
			<path d="M1018.2,498.72c-3.83-0.69-7.43-1.25-10.97-2.02c-1.43-0.31-4.07-0.19-3.16-2.6c0.73-1.93,2.52-4.93,5.15-3.1
				c5.78,4.04,11.64,5.16,18.2,2.58c0.78-0.31,1.74-0.31,2.13,0.62c0.58,1.39-0.4,2.17-1.43,2.77
				C1024.95,498.8,1021.23,497.39,1018.2,498.72z"/>
			<path d="M1035.19,487.5c0.38-2.28,0.94-4.1-0.69-5.88c-2.93-3.19-0.7-5.68,1.87-7.37c3.17-2.08,4.82-0.05,5.78,2.95
				c0.29,0.9,0.77,1.98,1.5,2.47c3.07,2.04,1.02,3.39-0.66,4.38C1040.72,485.38,1038.51,486.95,1035.19,487.5z"/>
			<path d="M914.65,763.83c-0.5-0.54-1.17-1.23-1.8-1.96c-0.87-1.01-2.03-2.13-0.64-3.39c1.16-1.05,2.67-0.58,3.63,0.36
				c1.98,1.96,3.61,4.24,6.13,5.66c0.84,0.48,0.94,2.41,0.01,2.5c-3.22,0.32-5.72,3.11-8.52,3.08c-2.44-0.02-4.89-2.36-7.28-3.77
				c-0.73-0.43-1.21-1.28-0.64-2.12c0.52-0.77,1.43-0.8,2.25-0.51c1.56,0.56,3.06,1.29,4.65,1.76
				C913.42,765.75,914.44,765.57,914.65,763.83z"/>
			<path d="M1040.78,325.17c-5.22-6.78-11.43-12.54-17.73-18.22c-0.62-0.56-0.97-1.5-0.08-2.14c1.03-0.73,1.87,0.03,2.6,0.69
				c3.82,3.42,7.46,7.02,10.58,11.09c1.94,2.54,3.74,5.19,5.6,7.78C1041.43,324.65,1041.11,324.91,1040.78,325.17z"/>
			<path d="M984.62,617.55c-2.39,4.85-5.9,8.79-10.45,11.85c-0.66,0.45-1.54,0.88-2.25,0.13c-0.77-0.81-0.1-1.55,0.43-2.13
				c3.5-3.85,7.04-7.67,10.56-11.5C983.49,616.45,984.06,617,984.62,617.55z"/>
			<path d="M1063.39,371.1c0.46-2.59,1.19-5.14,4.46-4.76c2.06,0.24,3.07,2.15,2.64,4.08c-0.66,2.93-3.43,3.49-5.81,3.66
				C1062.65,374.23,1063.43,372.28,1063.39,371.1z"/>
			<path d="M1071.93,423.3c1.39-1.4-0.19-5.27,2.86-5.19c2.33,0.07,3.38,2.92,3.08,5.46c-0.25,2.16-1.39,3.95-3.77,3.79
				C1071.93,427.22,1071.87,425.3,1071.93,423.3z"/>
			<path d="M1054.34,317.53c-2.91-4.53-4.68-9.39-5.38-14.65C1052.11,307.28,1054.74,311.86,1054.34,317.53z"/>
			<path d="M918.65,791.23c-0.2,1.24-0.87,1.68-1.48,1.5c-2.68-0.81-5.52-1.37-7.53-3.54c-0.58-0.63-0.5-1.61,0.28-2.22
				c1.24-0.97,2.64-0.75,3.7,0.11C915.37,788.49,917.7,789.31,918.65,791.23z"/>
			<path d="M901.88,812c-5.03,0.65-7.63-2.29-10.55-4.39c-0.32-0.23-0.39-1.34-0.12-1.7c0.3-0.39,1.32-0.69,1.69-0.47
				C895.86,807.23,899.19,808.58,901.88,812z"/>
			<path d="M906.54,779.57c4.28-2.53,7.62-2.09,10.68,0.82c0.41,0.39,0.71,1.2,0.61,1.72c-0.14,0.73-1.07,0.93-1.59,0.55
				C913.56,780.7,910.02,781.22,906.54,779.57z"/>
			<path d="M1019.07,480.95c1.39,0.16,3.32,0.12,2.8,1.89c-0.74,2.55-3.6,2.44-5.67,3.09c-1.32,0.41-2.98-0.26-2.59-1.94
				C1014.28,481.19,1017.05,481.51,1019.07,480.95z"/>
			<path d="M861.56,790.9c-0.58,1.56-1.75,1.88-3.17,1.5c-1.24-0.33-2.07-1.18-1.74-2.52c0.4-1.63,1.76-1.78,3.13-1.47
				C861.05,788.71,861.7,789.56,861.56,790.9z"/>
			<path d="M859.67,800.31c0.08,1.32-0.8,1.71-1.8,1.88c-1.4,0.23-2.74-0.06-3.18-1.54c-0.42-1.44,0.58-2.12,1.9-2.13
				C857.92,798.51,859.18,798.82,859.67,800.31z"/>
			<path d="M932.1,1085.42c0.13,1.48-0.44,2.21-1.33,1.98c-2.44-0.64-4.48-1.97-5.29-4.52c-0.3-0.96,0.47-1.61,1.38-1.5
				C929.57,1081.71,930.95,1083.72,932.1,1085.42z"/>
		</g>
	</g>
	<g>
		<g>
			<path class="st0" d="M895.21,204.72c2.73,1.11,1.94,3.26,2.87,4.55c0.97,1.34,2.13,2.15,3.81,1.58c1.41-0.48,2.7-1.98,2.03-2.99
				c-3.11-4.65,0.27-9.4-0.51-13.84c-3.26-18.62,3.08-33.28,16.29-46.28c7.95-7.83,16.54-14.24,27.16-16.79
				c9.34-2.24,18.74-2.09,27.96,3.05c11.28,6.29,20.25,14.44,26.33,25.72c5.73,10.62,10.47,21.59,9.92,34.06
				c-0.12,2.71,0.66,5.13,3.2,6.29c4.97,2.28,5.53,6.83,3.85,10.55c-3.85,8.48-3.37,17.18-2.91,25.94
				c0.27,5.26-1.41,9.61-3.91,14.12c-6.08,10.97-4.14,15.39,8.9,16.63c21.36,2.02,38.02,12.57,53.57,26.13
				c5.89,5.14,10.67,10.9,13.93,17.97c5.92,12.86,7.65,25.98,2.64,39.58c-0.51,1.38-1.25,2.97-1.01,4.3
				c1.84,9.99-0.14,19.86-0.61,29.79c-0.34,7.07,2.27,13.44,5.51,19.48c3.18,5.91,5.97,11.58,1.86,18.24
				c-0.78,1.27-0.99,3.45-0.49,4.86c2.53,7.1,3.13,14.62,4.55,21.91c2.29,11.81,4.57,24.22-3.93,34.76
				c-3.6,4.47-8.37,8.12-13.01,11.61c-3.97,2.99-8.88,3.39-13.84,3.24c-13.98-0.42-13.93-0.32-19.78,12.34
				c-2.09,4.53-5.14,8.7-6.65,13.4c-3.24,10.07-6.61,19.78-1.55,30.99c3.48,7.71,6.05,16.6,4.91,25.7c-0.12,0.96,0,2.05,0.35,2.95
				c3.51,9.02,2.85,18.04-0.31,26.9c-2.5,7.03,1.49,13.02,2.56,19.45c1.61,9.65,3.8,19.24,6.08,28.73
				c3.91,16.29,6.35,32.87,10.59,49.11c3.74,14.33,7.62,28.6,11.9,42.77c1.63,5.4,3.13,10.85,4.89,16.21
				c1.51,4.59,0.98,7.81-3.32,11.17c-9.42,7.35-18.26,15.44-29.47,20.13c-5.44,2.28-10.45,5.78-16.84,5.29
				c-2.8-0.22-4.34,1.92-5.79,4.12c-7.68,11.66-15.4,23.29-23.24,34.85c-1.86,2.74-4.01,5.35-6.39,7.63
				c-5.48,5.27-6.75,12.23-8.09,19.15c-0.62,3.2,0.86,5.7,3.37,7.84c6.76,5.77,14.69,9.75,21.94,14.77
				c9.14,6.34,19.32,11.06,27.87,18.34c7.61,6.48,8.69,16.62,2,24.24c-2.26,2.58-3.01,5.2-0.82,8.09c1.93,2.54,1.11,4.54-0.8,6.63
				c-3.1,3.38-6.74,6.07-10.95,7.71c-15.44,5.99-31.37,9.96-47.97,10.86c-6.24,0.34-7.58,1.48-8.36,7.53
				c-0.36,2.8-0.57,5.66-0.45,8.47c0.22,5.44-2.49,9.01-7.19,10.84c-4.55,1.77-7.95,4.71-10.99,8.32c-0.83,0.98-1.26,3.37-3.25,1.87
				c-1.64-1.24-1.67-3.29-0.66-5.01c1.48-2.53,3.93-4.5,6.44-5.36c10.23-3.5,11.39-11.99,12.12-20.8
				c0.57-6.92,3.24-10.45,10.12-10.32c15.5,0.3,29.65-4.8,43.93-9.64c3.67-1.24,6.83-3.46,10.07-5.49c1.04-0.65,1.99-1.6,1.73-2.82
				c-0.61-2.96-0.11-5.55,1.64-8.03c0.7-0.99,0.65-2.29-0.35-3.21c-1.05-0.96-2.18-0.56-3.2,0.13c-4.82,3.25-10.15,3.83-15.78,3.29
				c-1.61-0.15-3.31,0.27-4.92,0.64c-10.68,2.42-19.61-1.41-28.69-6.74c-9.68-5.68-18.41-13.17-29.52-16.35
				c-3.97-1.14-7.73-3-11.61-4.49c-4.23-1.63-7.52-1.18-11.16,2.41c-9.4,9.27-7.43,5.95-0.09,17.49
				c3.83,6.02,10.34,10.02,12.69,17.12c0.41,1.25,1.43,2.95,0.96,3.72c-2.78,4.65-1.53,8.68,1.03,12.87
				c0.78,1.27,0.2,3.09-0.97,4.15c-4.14,3.73-7.5,8.2-13.21,10.26c-5.35,1.93-9.46,4.99-11.92,11.46
				c-2.58,6.78-8.11,13.12-16.73,14.1c-3.55,0.4-6.76,1.65-10.02,2.95c-2.56,1.02-4.15,2.68-4.51,5.46
				c-0.09,0.66-0.11,1.44-0.48,1.92c-7.03,9.17-0.82,16.81,4.07,23.18c11.12,14.5,26.79,23.87,41.99,33.55
				c1.68,1.07,2.78,2.28,3.37,4.09c0.99,3.08,2.87,5.61,4.96,8.01c6.66,7.68,3.91,17.68-5.87,20.22c-6.86,1.78-13.93,2.78-20.9,4.12
				c-0.98,0.19-2.15,0.06-2.92,0.56c-6.77,4.37-13.43,2.6-20.01-0.34c-7.28-3.26-15.49-3.69-22.51-7.88
				c-6.87-4.1-13.42-8.5-19.63-13.59c-5.75-4.71-11.94-9-16.6-14.75c-3.33-4.1-10.06-6.69-7.63-14.22c0.54-1.69-0.33-4.34-2.49-4.96
				c-2.37-0.68-3.39,1.5-4.38,3.27c-3.13,5.62-2.23,8.32,3.42,11.08c2.22,1.09,4.22,2.63,6.28,4.01c0.71,0.47,1.38,1.16,0.81,2.06
				c-0.54,0.84-1.48,0.67-2.24,0.29c-4.76-2.38-9.55-4.71-14.22-7.26c-1.83-1-2.25-2.7-1.12-4.71c4.76-8.45,7.58-17.61,10.72-26.75
				c3.69-10.71,6.82-21.47,9.11-32.51c1.59-7.68,1.59-15.45,1.77-23.3c0.48-20.8-4.32-40.95-6.25-61.44
				c-1.85-19.63-4.37-39.23-4.3-58.98c0.03-9.78,1.14-19.57,5.53-28.64c0.93-1.92,1.19-4.15,1.85-6.21
				c1.89-5.94,3.78-11.7,7.24-17.2c6.86-10.92,8.85-22.87,5.28-35.89c-2.02-7.36-0.22-15.28,2.55-22.47
				c2.67-6.9,2.08-13.69,0.69-20.58c-1.24-6.11-4.72-11.73-3.49-18.39c0.51-2.75-2.03-4.82-2.84-7.35
				c-2.84-8.88-5.8-17.7-9.61-26.25c-2.71-6.08-4.67-12.47-4.12-19.38c0.14-1.74-0.34-3.73-1.14-5.31
				c-4.57-9.02-6.06-18.96-8.67-28.56c-2.4-8.82-5.69-17.59-6.6-26.58c-1.46-14.46-3.83-29.15,1.2-43.55
				c2.25-6.44,4-13.03,7.34-19.08c2.12-3.84,4.31-7.65,7.76-10.29c4.23-3.23,6.27-7.64,6.52-12.45c0.38-7.23,2.07-14.1,3.88-21.01
				c0.59-2.27,1.14-4.57,2.64-6.42c2.07-2.57,3.22-5.64,3.48-8.72c1-12.11,5.62-23.55,6.29-35.71c0.34-6.28-0.91-12.29-2.37-18.25
				c-1.42-5.76-2.5-11.7-6.29-16.67c-1.04-1.36-1.73-3.45-1.63-5.15c0.39-6.71-1.42-12.85-4.2-18.79c-1.92-4.1-2.17-8.03-0.65-12.46
				c1.7-4.92,1.67-9.95-0.53-15.08c-1.48-3.43-1.98-7.43-2.21-11.22c-0.91-14.72,7.28-28.07,20.73-34.35c1.05-0.49,2.41-0.87,3-1.73
				c8.5-12.41,23.4-16.6,33.87-26.49c3.96-3.75,9.65-4.33,14.69-5.94c2.09-0.67,3.67-1.39,4.17-3.68c0.78-3.57,2.57-2.63,3.79-0.5
				c3.02,5.27,8.47,8.49,11.3,13.93c0.87,1.66,2.53,3.6,4.82,2.44c2.01-1.02,1.48-3.22,0.93-4.95c-1.08-3.36,0.19-6.62,0.24-9.92
				c0.06-4.64,1.33-9.21,0.71-13.93c-0.24-1.87,0.69-4.1,2.86-3.87c1.92,0.21,1.04,2.42,1.03,3.8c-0.02,11.43,0.1,22.87-0.21,34.3
				c-0.12,4.44-1.86,8.72-1.99,13.28c-0.45,16.57-8.88,30.46-15.44,44.97c-1.05,2.33-2.85,4.15-4.77,5.72
				c-8.02,6.55-12.76,15.67-18.89,23.72c-2.69,3.53-5.82,6.79-9.11,9.77c-3.23,2.91-5.85,6.43-8.98,9.27
				c-4.11,3.74-6.86,7.35-6.25,13.16c0.14,1.36-1,3.13-3.09,4.15c0.86-6.23-2.94-13.47,3.41-17.7c5.72-3.81,8.91-9.7,13.98-13.89
				c1.01-0.84,2.09-1.7,2.78-2.79c1.08-1.71,1.93-3.72,0.42-5.58c-1.74-2.13-3.55-0.87-5.29,0.23c-5.36,3.39-10.91,6.41-16.84,8.68
				c-1.31,0.5-2.82,2.21-4.01,0.72c-1.35-1.69,0.53-3.21,1.6-4.21c7.97-7.45,16.96-13.06,28.32-12.75
				c5.23,0.15,8.81-1.08,10.12-6.51c0.19-0.77,0.54-1.76,1.14-2.14c12.51-7.94,19.64-19.56,23.3-33.62
				c0.33-1.27,1.04-2.45,1.65-3.63c2.61-5.04,2.04-8.39-2.76-11.55c-4.05-2.66-6.53-6.62-9.57-10.12c-1.95-2.24-2.04-4.63,1.51-5.72
				c1.14-0.35,2.35-0.59,2.48-2.06c0.15-1.81-1.36-2.05-2.56-2.55c-3.62-1.49-4.78-3.13-0.61-5.6c1.96-1.17,1.88-3.01,0.41-4.68
				c-3.77-4.27-9.55-5.14-14.43-2.21c-9.79,5.87-19.52,11.84-29.4,17.55c-5.03,2.91-8.48,6.95-10.28,12.36
				c-1.14,3.44-3.42,5.17-6.65,6.8c-9.11,4.6-16.66,10.87-19.2,21.53c-0.65,2.75,1.02,4.78,1.47,7.17
				c1.57,8.3,4.1,16.11,10.06,22.43c0.42,0.44,0.52,1.18,0.88,2.07c-2.17,0.79-3.66-1.48-5.71-0.75c-3.71,1.32-6.15,5.58-4.47,9.27
				c3.16,6.97,7.09,13.65,4.86,21.84c-0.4,1.48,0.68,2.89,2.26,3.51c1.68,0.67,2.9-0.02,3.8-1.45c0.7-1.12,1.19-2.42,2.56-2.95
				c0.14-0.05,0.32-0.01-0.07-0.01c2.56,21.82,6.18,43.19,16.27,63.03c2.04,4.01,3.06,8.18,7.84,10.18c4.25,1.78,7.93,2.22,11.58-1
				c1.98-1.74,3.73-2.48,6.56-0.6c3.27,2.17,6.58-0.21,8.89-2.54c5.66-5.71,11.71-10.87,18.5-15.17c2.63-1.66,4.1-4.28,5.58-6.92
				c6.42-11.51,9.43-24.54,16.11-35.97c1.71-2.92,2.03-6.67,2.08-10.2c0.04-3.15-0.28-6.35,1.73-9.15c0.36-0.5,0.63-1.38,0.44-1.89
				c-2.94-7.75,2.31-13.39,5.08-19.61c1.39-3.12,1.35-6.58,1.71-9.68c0.77-6.58,6.16-11.95,4.41-19.09
				c-0.53-2.16,2.42-3.46,2.97-5.6c0.25-0.96,0.69-2.02-0.21-2.8c-0.77-0.67-1.54-0.02-2.25,0.36c-1.38,0.73-2.79,1.44-3.9-0.35
				c-0.63-1.02-1.08-2.3-0.26-3.29c1.14-1.37,2.77-1.01,4.15-0.36c1.68,0.79,2.69,0.23,3.89-1.01c3.93-4.07,8.02-7.98,12.01-11.99
				c9.62-9.69,16.56-21.19,21.77-33.67c1.87-4.47,2.03-9.57,5.78-13.37c1.47-1.49,1.42-4.02,0.87-6.23
				c-1.21-4.83-5.41-6.16-9.06-2.79c-1.06,0.98-1.93,2.17-3.24,3.67c-1.38-3.17-0.12-5.25,1.56-7.04c3.22-3.42,2.24-6.13-1.03-8.77
				c-3.31-2.67-6.03-2.1-8.56,1.09c-0.7,0.88-1.65,1.54-3.13,2.25c2.06-5.25,4.78-10.47-1.8-14.98c3.72-0.39,5.84,0.99,7.64,2.64
				c3.97,3.65,8.89,5.86,13.23,8.95c3.01,2.14,6.17,0.44,5.88-3.32c-0.22-2.91,0.36-4.98,2.38-7.17c2.6-2.83-0.53-5.4-2.11-6.37
				c-4.01-2.47-3.28-4.83-1.09-7.74c0.95-1.26,1.83-2.6,0.83-4.08c-1.05-1.55-1.92,0.08-2.92,0.39c-2.84,0.89-3.06-1.96-4.25-3.28
				c-1.68-1.87-0.36-3.35,1.1-4.65c5.85-5.21,5.7-5.21,0.98-10.92c-2.57-3.11-1.67-6.78,0.59-9.69c2.41-3.1,1.77-5.25-0.21-8.41
				c-2.81-4.47-5.15-9.18-9.13-12.82c-0.96-0.88-0.84-2.27,0.1-3.16c4.1-3.87,1.3-5.27-2.25-6.31c-1.42-0.42-2.27-1.1-1.22-2.4
				c2.89-3.59,0.11-5.01-2.17-7.17c-5.29-5.01-12.01-7.76-17.86-11.85c-2.5-1.74-5.54-0.67-8.32-0.93
				c-9.83-0.92-18.43,1.61-26.57,7.64c-6.16,4.56-12.71,8.53-17.48,14.63c-7.21,9.21-10.71,19.2-9.03,31.38
				c0.64,4.65-0.87,9.56,0.86,14.66c0.77,2.27-3.01,5.41-2.72,9.12c0.24,3,0.96,5.24,3.71,6.43c2.58,1.11,3.55,3.37,4.6,5.64
				c0.43,0.92,0.93,1.98-0.16,2.66c-0.97,0.61-2.04,0.12-2.67-0.69c-1.86-2.38-4.04-3.27-7-2.19c-0.97,0.35-2.21-0.08-2.65-0.99
				C898.11,217.2,894.56,211.86,895.21,204.72z M847.5,945.49c-2.35-0.64-3.67-2.62-5.4-4.08c-1.02-0.86-2.16-1.83-3.42-0.57
				c-1.17,1.17-0.44,2.43,0.32,3.55c2.48,3.67,5.52,2.62,8.61,0.98c-0.2,3.98,3.27,3.81,5.56,5.23c4.2,2.62,8.92,3.52,13.52,4.78
				c2.22,0.61,3.96-0.71,4.17-3.14c0.18-2.07-1.08-3.16-3.11-2.85C860.53,950.47,854.09,947.74,847.5,945.49z M951.75,881.88
				c9.18,0.55,16.35,5.65,24.05,9.95c6.69,3.74,13.39,9.99,22.32,4.76c1.5-0.88,3.75-0.18,3.75,1.92c0,2.88,1.45,3.73,3.8,4.21
				c1.35,0.27,2.05,1.12,1.34,2.55c-1.12,2.25-0.01,3.2,2.07,3.18c2.28-0.02,3.34-1.38,2.81-3.64c-0.35-1.49-0.63-2.86,0.16-4.33
				c1.21-2.25,0.01-3.88-1.78-5.05c-2.66-1.75-5.41-3.26-8.85-2.43c-10.48,2.54-19.63-2.86-27.22-7.81
				c-5.99-3.91-12.1-6.21-18.44-8.58c-2.2-0.82-5.36-2.08-6.9,0.37c-1.46,2.32,2.52,2.99,3.04,5.05c-1.63,0-3.28-0.11-4.9,0.03
				c-1.61,0.14-2.86,0.97-2.86,2.77c0,1.7,1.06,2.76,2.63,3.12c2.2,0.5,4.48,0.04,6.03-1.39
				C954.62,884.86,952.58,883.35,951.75,881.88z M862.86,521.22c0.58,1.22,0.69,1.53,0.87,1.8c4.07,6.15,11.01,9.03,16.07,14.12
				c6.7,6.75,14.82,11.36,24.49,12.1c6.12,0.47,11.68,2.43,17.22,4.72c1.24,0.51,2.86,1.17,1.98,2.78c-0.7,1.28-2.25,0.52-3.05-0.24
				c-2.96-2.78-6.58-2.67-10.28-2.92c-11.7-0.78-22.28-4.32-31.32-12.29c-7.48-6.6-15.43-12.6-22.05-20.2
				c-3.78-4.34-9.01-7.39-11.34-13.05c-0.44-1.07-1.32-2.05-2.69-1.87c-1.69,0.22-1.97,1.65-2.05,2.99
				c-0.11,2.05-0.56,3.92-1.72,5.65c-1.87,2.79-1.63,5.82-0.24,8.59c1.93,3.85,3.8,7.79,6.9,10.93
				c11.63,11.82,24.77,21.66,39.11,29.93c1.29,0.75,2.66,1.42,3.81,2.35c1.24,1,3.12,2.16,1.75,4.03c-1.12,1.53-2.72,0.48-4.04-0.28
				c-0.58-0.33-1.14-0.69-1.69-1.07c-10.23-7.12-21-13.49-30.5-21.65c-1.19-1.02-2.84-2.88-4.27-1.71
				c-1.89,1.55,0.14,3.34,1.01,4.77c4.92,8.04,12.12,14.11,18.69,20.63c14.53,14.41,33.7,19.3,52.68,24.38
				c1.67,0.45,4.37,0.19,3.92,2.72c-0.4,2.25-2.91,1.75-4.68,1.52c-3.98-0.52-7.51-2.59-11.54-3.15
				c-12.59-1.75-23.76-6.89-33.95-14.46c-12.5-9.28-21.79-21.41-30.81-33.81c-4.21-5.79-7.99-11.86-9.66-18.98
				c-0.32-1.35-1.01-2.54-2.58-2.68c-1.54-0.14-2.39,0.97-3.17,2.07c-3.34,4.67-5.51,9.98-7.11,15.36
				c-2.27,7.63-6.77,14.58-7.02,22.81c-0.52,17.46,2.91,34.32,7.24,51.13c2.11,8.19,5.09,16.21,5.9,24.71
				c0.11,1.18,0.24,2.5,1.59,2.83c1.5,0.37,2.39-0.78,3.33-1.77c1.77-1.86,0.83-4.7,2.66-7.8c1.15,7.42-0.72,13.24-2.57,19
				c-0.89,2.79-1.81,5.6-0.25,8.21c6.59,11.04,9.01,23.56,12.87,35.57c0.52,1.61,0.88,3.55,2.81,3.76c4.48,0.47,4.11,3.31,2.96,6.09
				c-2.14,5.15-0.26,10.21-0.09,15.3c0.04,1.17,0.51,2.37,1.88,2.64c1.66,0.32,2.32-0.85,2.89-2.15c1.26-2.85,2.58-5.67,3.87-8.5
				c-0.86,6.54-3.47,12.59-4.26,18.87c-1.16,9.29-4.82,17.99-5.55,27.36c-0.27,3.43-2.45,6.78,2.16,8.93
				c0.98,0.46,0.82,1.75,0.64,2.74c-2.01,11.08-2.86,22.4-8.31,32.68c-2,3.77-3.52,8.57,0.5,12.05c6.3,5.45,13.23,10.08,21.34,12.59
				c3.48,1.08,5.84-1.37,7.87-3.29c1.74-1.64-0.48-3.18-1.73-4.46c-0.81-0.82-1.96-1.71-0.67-2.88c1.1-1,2.11-0.21,3.07,0.57
				c1.63,1.33,2.82,3.61,6.02,3.02c-0.55-0.93-0.86-1.46-1.17-2c-0.9-1.53-3.92-2.46-1.93-4.81c1.51-1.79,3.76-1.89,5.95-0.69
				c4.22,2.3,8.47,4.53,12.71,6.8c1.29,0.69,1.2,1.64,0.9,2.95c-0.63,2.8,2,3.32,3.61,3.84c2.2,0.72,1.14-1.72,1.77-2.56
				c3.94-5.27,0.05-6.43-3.76-8.47c-3.31-1.78-7.85-2.2-10.26-6.89c3.97,0.57,6.6,1.71,9.04,3.64c2.75,2.17,5.53,2.93,6.57-1.78
				c0.26-1.18,0.87-1.68,2.03-1.72c5.34-0.16,6.83-3.31,6.04-8.03c-0.19-1.11,0.16-1.64,1.06-1.78c7.43-1.21,9.17-7.68,11.72-13.1
				c4.29-9.09,5.83-18.3-1.14-27.03c-0.88-1.1-0.87-2.47-0.91-3.82c-0.12-4.08-2.66-5.5-6.29-5.43c-2.33,0.05-4.8,0.73-6.93-0.25
				c-6.53-3-13.01-4.05-20.12-1.83c-10.75,3.37-22.2,5.08-29.84,14.76c-1.14,1.44-2.58,3.04-5.33,2.92
				c0.57-3.23,1.87-5.78,4.37-7.63c4.15-3.06,8.14-6.4,12.59-8.95c15.4-8.85,31.37-11.41,48.14-3.61c3.38,1.57,6.28,3.73,9.29,5.81
				c1.08,0.74,2.25,1.7,3.65,0.9c1.63-0.93,1.41-2.55,1.02-4.01c-1.32-4.98-2.25-10.15-4.22-14.87
				c-5.43-13.06-11.32-25.92-16.99-38.88c-0.76-1.73-2.59-4.04-0.21-5.25c2.34-1.2,3.33,1.67,4.23,3.24
				c4.14,7.23,8.09,14.58,10.79,22.48c2.32,6.77,4.31,13.64,6.48,20.46c0.55,1.74,1.03,3.84,3.48,3.47
				c2.18-0.33,1.93-2.31,2.14-3.96c0.31-2.47,0.71-4.94,1.23-7.38c1.2-5.7,3.01-11.31,3.66-17.07c2.27-20.03-6.89-36.04-18.74-50.95
				c-5.87-7.38-10.31-15.9-17.82-21.98c-1.37-1.11-2.48-3.34-0.76-4.85c2.08-1.82,3.15,0.53,4.24,1.87
				c4.2,5.16,8.33,10.37,12.54,15.52c0.95,1.16,1.78,3.64,3.68,2c1.62-1.4-0.29-2.92-1.19-4.25c-0.92-1.37-1.73-2.82-2.59-4.23
				c-6.38-10.53-13.08-20.86-21.03-30.28c-8.26-9.78-19.55-15.97-29.47-23.73c-10.69-8.36-20.81-17.09-28.84-28.07
				c-0.91-1.24-2.85-2.87-1.09-4.27c2.06-1.64,3.2,0.67,4.17,2.12c6.97,10.42,16.45,18.33,26.46,25.5
				c9.61,6.88,19.08,13.98,28.04,21.63c8.82,7.53,14.92,17.4,19.47,28.1c0.73,1.72,1.25,3.66,3.45,3.8c2.2,0.14,2.54-1.94,3.05-3.42
				c1.4-4.07,2.66-8.18,3.86-12.31c0.44-1.5,0.23-3.09-1.01-4.17c-4.75-4.11-8.64-9.27-14.68-11.83c-1.51-0.64-2.83-1.73-4.17-2.72
				c-0.81-0.6-1.59-1.46-1.07-2.53c0.55-1.13,1.74-0.98,2.61-0.5c4.63,2.57,9.94,4,13.59,8.2c1.08,1.24,2.16,2.86,4.13,2.02
				c1.89-0.8,1.85-2.74,1.6-4.34c-0.89-5.64-0.22-11.31-0.38-16.96c-0.1-3.54-1.6-5.65-5-6.45c-4.54-1.06-9.08-2.09-13.62-3.15
				c-4.71-1.1-9.38-2.33-13.55-4.91c-0.81-0.5-1.78-1.37-1.19-2.45c0.63-1.16,1.78-0.57,2.63-0.15c4.06,2.03,8.54,2.76,12.75,4.24
				c4.71,1.65,9.96,0.55,14.39,3.63c1.91,1.32,3.53-0.65,3.43-2.79c-0.22-4.51,1.3-9.41-2.77-13.18c-0.77-0.71-1.31-1.98-0.37-3.19
				c1.7-0.27,2.43,0.9,2.92,2.14c1.41,3.59,3.3,3.16,5.56,0.82c0.77-0.8,1.48-2.45,2.69-1.69c1.7,1.08,0.44,2.73-0.18,3.96
				c-1.38,2.77-2.42,5.55-1.22,8.62c5.44,13.87,10.28,27.99,17.25,41.21c2.01,3.81,3.68,4.1,6.43,0.93
				c0.98-1.12,1.85-1.96,3.35-1.29c1.63,0.72,1.98,2.15,1.75,3.76c-0.22,1.55-1.03,2.74-2.24,3.77c-4.95,4.19-11.02,1.97-14.45-5.5
				c-2.43-5.3-4.45-10.79-6.97-16.04c-2.43-5.05-2.49-10.69-4.38-15.84c-0.61-1.65-1.53-3.25-3.51-2.91
				c-2.19,0.38-1.91,2.4-1.91,4.04c0,0.65,0.31,1.3,0.35,1.96c0.85,13.26,4.4,26.3,3.37,39.72c-0.27,3.57,1.33,6.01,4.45,7.68
				c6.6,3.54,13.47,6.58,19.54,11.07c2.14,1.58,4.5,1.26,6.49-0.35c4.24-3.44,8.93-6.46,11.35-11.71c0.59-1.28,1.27-3.29,3.13-2.29
				c1.7,0.91,0.78,2.72,0.03,3.98c-3.08,5.17-6.41,10.25-11.24,13.93c-3.29,2.5-7.11,5.01-11.48,2.5
				c-7.77-4.47-15.41-9.18-23.03-13.91c-1.55-0.96-2.85-2.77-4.72-0.96c-1.87,1.81-3.9,3.48-2.72,6.83
				c4.53,12.83,10.71,24.96,15.35,37.79c4.07,11.25,5.74,21.81,2.22,33.28c-2.33,7.59,2.53,12.96,9.85,10.01
				c7.48-3.01,13.62-1.16,20,1.72c5.58,2.52,10.25,1.74,14.6-2.47c1.04-1,2.29-3.27,4-1.46c1.17,1.24-0.41,2.8-1.35,3.88
				c-6.26,7.17-10.44,8.21-21.29,3.33c-3.59-1.62-6.75-1.86-10.5-0.34c-3.84,1.56-8.13,1.9-12.27,0.99
				c-4.81-1.05-7.46,0.2-8.22,4.76c-0.75,4.49,2.48,5.74,5.98,6.35c3.3,0.57,6.65,0.47,9.95-0.2c4.08-0.82,8.15-1.72,12.24-2.5
				c1.21-0.23,2.91-1.07,3.45,0.69c0.53,1.7-1.19,2.17-2.41,2.57c-3.79,1.26-7.6,2.45-11.42,3.59c-1.42,0.42-3.18,0.39-3.62,2.16
				c-0.49,1.98,1.12,2.89,2.42,3.96c3.66,3.02,7.93,3.24,12.46,3.9c9.27,1.34,17.43-0.75,25.39-5.02c1.76-0.95,3.53-2.36,7.33-0.77
				c-9.83,4.7-17.66,10.49-28.06,10.39c-11.62-0.1-11.43,0.17-15.61,11.07c-1.42,3.69-0.02,5.11,2.55,7.38
				c7.42,6.56,17.3,7.32,25.87,10.83c7.58,3.1,16.31,4.71,25.18,5.16c23.04,1.16,41.77-7.49,58.38-22.29
				c3.72-3.32,4.98-7.24,3.37-12.56c-4.97-16.36-9.79-32.8-13.81-49.41c-1.83-7.55-2.99-15.3-4.9-22.87
				c-3.79-15-7.78-29.93-10.15-45.28c-1.36-8.79-3.3-17.51-6.55-26.05c-2.18-5.74-4.7-13.35,1.73-19.25
				c0.73-0.67,0.92-2.15,0.98-3.27c0.7-13.93-1.91-27.51-4.37-41.1c-0.27-1.49-0.78-3.08-2.62-3.22c-2.11-0.16-2.93,1.46-3.21,3.16
				c-0.78,4.59-3.55,8.17-5.65,12.13c-2.67,5.04-7.69,9.64-4.26,16.41c0.43,0.85-0.14,2.28-0.4,3.41
				c-3.51,14.84-11.84,27.39-20.03,39.78c-4.19,6.33-7.54,12.77-7.69,19.97c-0.13,6.35,2.13,12.76,3.39,19.14
				c0.26,1.35,0.86,2.66,2.42,2.83c1.81,0.19,2.72-1.11,3.2-2.6c0.66-2.05,0.86-4.28,1.71-6.23c5.9-13.63,10.23-27.73,13.63-42.19
				c1.21-5.16,1.74-10.91,5.59-15.98c1.78,5.25,0.47,9.43-0.7,13.59c-2.16,7.69-4.93,15.24-6.51,23.04
				c-1.99,9.79-5.68,18.86-10.72,27.25c-7.03,11.69-6.88,23.89-4.12,36.46c1.05,4.8,1.16,9.56,0.92,14.37
				c-0.06,1.16-0.5,2.49-1.87,2.62c-1.76,0.16-2.16-1.34-2.32-2.67c-0.16-1.31-0.08-2.66-0.04-3.98c0.12-3.98,1.4-8.35,0.2-11.87
				c-2.93-8.58-2.53-17.36-3.2-26.1c-0.13-1.65-0.37-3.32-0.76-4.92c-0.33-1.33-1.1-2.56-2.75-2.36c-1.37,0.16-1.83,1.34-2.08,2.51
				c-0.54,2.61-0.91,5.26-1.55,7.84c-0.51,2.06,0.04,5.94-2.88,5.24c-2.51-0.6-0.65-4.06-0.2-6.16c4-18.42,6.62-36.97,5.31-55.86
				c-0.23-3.37-0.33-6.9-3.03-9.79c-3.16-3.38,0.45-6.12,1.57-9.01c1.16-3,3.09-1.4,4.88-0.59c1.69,0.76,2.76-0.15,3.77-1.47
				c5.65-7.41,11.45-14.7,17-22.19c6.5-8.77,8.5-19.87,14.66-28.85c0.56-0.82,0.93-1.9,0.07-2.76c-1.08-1.09-2.19-0.46-3.11,0.3
				c-1.02,0.84-1.99,1.78-2.86,2.79c-6.7,7.76-14.36,14.28-23.84,18.45c-2.74,1.21-4.57,3.28-5.74,5.98
				c-0.62,1.44-0.87,2.97,0.33,4.21c1.38,1.43,2.79,0.41,4.08-0.27c3.67-1.94,7.29-3.99,10.97-5.9c1.22-0.63,2.67-0.91,3.51,0.6
				c0.73,1.3-0.2,2.22-1.18,2.91c-4.63,3.26-9.58,6.02-15.05,7.42c-3.62,0.93-6.02,1.94-4.52,6.32c0.65,1.89,1.15,4.76-1.2,5.16
				c-3.11,0.53-2.45-2.81-2.9-4.71c-0.69-2.89,0.83-6.49-1.3-8.73c-4.45-4.67-4.03-11.51-8-16.32c-1.06-1.28-1-2.63,1.34-3.16
				c10.84-2.42,19.71-8.97,29.18-14.25c1.4-0.78,2.98-2.23,2.09-4.07c-1.04-2.13-3.42-1.78-4.82-0.76
				c-6.89,5.03-15.75,5.69-22.69,10.54c-2.75,1.93-6.25,2.38-9.13,3.81c-6.66,3.32-14.07,1.58-20.88,4.06
				c-3.47,1.26-9.2,1.63-11.5-0.37c-3.93-3.42-8.55-5.58-12.47-8.83c-0.67-0.56-1.34-1.3-0.69-2.08c0.86-1.03,1.87-0.28,2.63,0.31
				c12.65,9.83,26.38,4.62,39.8,2.75c3.58-0.5,7.07-1.89,10.51-3.1c1.57-0.55,3.14-1.7,2.66-3.71c-0.49-2.08-2.42-1.97-4.09-1.97
				c-8.42,0.03-16.64,1.1-24.13,5.29c-3.58,2-7.33,2.23-11.14,1.31c-12.83-3.1-25.93-5.49-37.13-13.22
				c-1.58-1.09-4.62-1.8-3.61-3.91c0.99-2.07,3.51-0.06,5.33,0.39c0.79,0.2,1.49,0.86,2.28,0.99c4.52,0.7,7.85,4.53,12.05,5.18
				c3.95,0.61,7.28,1.96,10.64,3.78c7.08,3.83,14.26,3.88,21.59,0.62c7.16-3.18,14.36-5.8,22.48-6.02
				c7.65-0.2,15.43,1.43,22.89-0.08c20.29-4.12,36.71-13.44,43.39-34.87c2.48-7.96,2.83-7.85-5.42-9.63
				c-0.4-0.09-0.72-0.56-1.48-1.19c4.01-1.63,5.35-4.86,7.11-8.32c1.96-3.84,5.35-7.89,10.69-7.82c3.12,0.04,5.37-0.27,6.68-3.67
				c0.89-2.29,6.59-1.75,6.29,0.23c-0.7,4.57,3.73,8.9,0.35,13.39c-0.64,0.85-0.95,1.9,0.03,2.66c1.14,0.9,2.25,0.31,3.1-0.57
				c3.03-3.09,3.87-6.92,3.33-11.05c-0.36-2.8-1.04-5.56-1.61-8.33c-0.35-1.73-0.58-3.58,1.64-4.02c2.07-0.41,2.49,1.35,2.52,2.89
				c0.1,5.15,5.27,5.99,7.75,9.12c0.96,1.2,2.15-0.19,2.66-1.23c1.18-2.35,0.24-4.12-1.74-5.59c-1.66-1.23-2.23-2.86,0-3.84
				c3.46-1.52,2.84-3.82,2.03-6.6c-0.65-2.24-0.61-4.86,2.85-4.05c4.18,0.97,3.28-1.37,2.6-3.54c-0.49-1.57-1.05-3.27-2.07-4.5
				c-2.66-3.19-5.52-6.06-1.37-10.23c1.08-1.09,0.27-2.86-0.29-4.28c-0.68-1.7-1.68-3.38-1.88-5.14
				c-1.23-10.49-8.29-16.09-16.79-20.59c-1.05-0.55-3.29-0.2-2.76-2.07c0.55-1.95,2.64-1.84,4.27-1.33
				c5.01,1.56,9.55,3.86,12.68,8.37c0.97,1.39,2.06,3.73,4.22,2.32c1.73-1.13,1.28-3.51,0.45-5.07c-1.78-3.37-3.96-6.53-6-9.75
				c-0.97-1.53-2.73-3.1-1.81-4.92c1.94-3.84,0.65-7.48,0.02-11.21c-0.82-4.89-0.45-9.63,1.84-14.11c1.11-2.16,1.37-4.44,0.85-6.8
				c-0.3-1.38-1.02-2.9-2.55-2.56c-7.15,1.6-3.51-2.18-2.54-4.81c0.92-2.49,1.42-5.16,2.5-7.58c5.93-13.35,3.24-26.3-3.12-38.28
				c-5.15-9.69-12.56-18.05-22.64-23.35c-5.34-2.81-10.32-6.13-14.83-10.1c-3.93-3.46-8.49-5.55-13.53-5.79
				c-7.07-0.34-13.79-2.14-20.53-3.91c-2.85-0.75-4.28,0.19-5.24,2.94c-6.1,17.51-15.04,33.25-28.67,46.12
				c-3.78,3.57-6.12,8.07-7.99,13.05c-2.81,7.45-3.43,15.55-6.98,22.67c-1.99,3.99-1.12,8.67-3.62,12.35
				c-2.9,4.27-4.46,9.09-4.85,14.03c-0.73,9.43-4.71,17.97-6.61,27.06c-0.54,2.59-0.7,5.82-2.32,7.54
				c-5.7,6.04-6.47,14.06-8.97,21.25c-3.33,9.58-8.75,17.19-17.08,22.59c-3.24,2.1-6.24,4.31-9.05,6.95
				c-3.61,3.39-6.76,7.84-11.9,8.79c-15.45,2.86-30.34-1.1-35.49-20.29c-0.78-2.89-1.48-5.81-2.37-8.67
				c-0.32-1.04-0.74-2.44-2.2-2.35c-1.25,0.08-1.35,1.41-1.46,2.32c-1.09,9.02-4.52,17.63-4.64,26.81
				c-0.15,10.91,6.14,20.06,16.71,22.76c7.61,1.95,14.58,5.56,22.15,7.51c1.19,0.31,2.94,0.69,2.31,2.53
				c-0.38,1.09-1.77,0.96-2.64,0.49c-8.57-4.66-18.27-4.82-27.44-7.08c-5.79-1.43-11.05-3.73-12.15-10.87
				c-0.41-2.7-2.55-3.59-4.64-1.07c-3.62,4.36-3.22,11.53,1.26,15.18c7.34,5.98,14.47,12.25,22.6,17.23
				c6.58,4.03,13.48,5.48,21,3.53c4.7-1.22,9.47-1.75,14.34-1.87c9.78-0.24,18.51-3.28,26.19-9.58c3.3-2.7,7.25-4.63,10.96-6.81
				c0.83-0.49,2.05-0.6,2.62,0.51c0.5,0.97-0.4,1.57-1.1,1.93c-9.82,5.06-16.76,15.66-29.4,15.33c-0.62-0.02-1.29,0.34-1.88,0.63
				c-4.73,2.25-9.59,3.76-14.95,3.03c-1.64-0.22-3.81-0.08-4.03,1.99c-0.42,3.92-2.83,2.81-5.06,2.43
				C879.22,528.68,871.22,525.95,862.86,521.22z M881.98,984.77c-0.13,9.24,1.07,16.13,1.86,23.06c0.2,1.73,1.15,4.2,2.9,1.95
				c5.04-6.5,12.55-6.92,19.42-9.2c4.97-1.65,9.39-4.83,10.67-10.17c0.88-3.66,2.51-6.34,5.08-8.85c4.52-4.42,10.44-6.44,15.72-9.55
				c5.6-3.3,6.06-5.78,1.76-10.43c-1.98-2.14-2.75-4.33-0.95-6.67c2.99-3.88,1.16-6.51-1.54-9.55
				c-6.06-6.83-11.68-14.03-16.48-21.83c-1.42-2.3-0.63-3.55,1.38-5.36c3.68-3.31,8.24-6.12,9.32-11.62
				c2.15-10.93,7.72-20.69,10.63-31.44c2.55-9.43,7.69-18.38,8.68-28.04c1.34-13.01,4.33-25.93,3.5-39.16
				c-0.25-3.98,0.13-7.97,1.77-11.76c0.44-1.01,0.7-2.41,0.35-3.38c-2.75-7.85-0.54-14.91,2.8-22.03c1.71-3.63,1.51-7.45-2.3-10.25
				c-3.89-2.85-7.62-5.93-11.49-8.8c-1.98-1.47-4.39-1.23-4.78,1.19c-0.74,4.6-2.4,9.03-0.39,14.12c1.77,4.47,5.86,9.12,4.18,13.91
				c-2.83,8.07-6.23,16.37-16.03,18.88c-2.14,0.55-4.32,1.58-5.23,3.59c-4.93,10.89-12.23,20.75-10.78,34.04
				c3.01,27.62-6.35,53.02-15.34,78.47c-2.9,8.23-7.25,15.99-7.95,25.08c-0.49,6.4-1.49,13.08-3.38,19.03
				C882.51,968.98,883.4,978.06,881.98,984.77z M931.74,1095.22c-3.63,1.47-7.48,2.57-10.85,4.5c-7.34,4.18-14.44,3.99-21.64-0.1
				c-2.49-1.42-5.2-2.13-8.02-2.65c-7.01-1.29-13.29-4.48-18.96-8.57c-7.21-5.21-13.8-11.31-22.33-14.48
				c-1.12-0.42-2.35-2.16-3.38-0.49c-0.87,1.42,0.89,2.26,1.79,3.15c15.52,15.42,34.26,24.89,55.4,29.88
				c1.57,0.37,3.3,0.17,4.95,0.1c10.24-0.4,19.86-3.92,29.75-6.08c5.51-1.2,7.39-6.74,4.65-11.62
				c-7.44-13.23-20.1-20.46-32.27-28.25c-1.27-0.82-2.78-0.95-4.25-0.03c-6.95,4.36-14.12,8.1-22.56,8.62
				c-1.94,0.12-3.24,1.24-2.15,3.38c1.59,3.11,7.64,3.78,10.11,1.21c3.03-3.14,9.16-4.89,12.34-2.74
				c7.17,4.84,14.17,10.07,19.54,16.89C926.09,1090.77,927.95,1093.46,931.74,1095.22z M994.42,614.32
				c0.45,4.46,0.88,8.93,1.37,13.39c0.15,1.36,0.56,2.71,2.17,2.96c1.58,0.25,2.4-0.89,3.1-2.06c1.29-2.13,2.62-4.24,3.81-6.43
				c5.01-9.19,10.16-18.33,13.68-28.21c1.03-2.9,3.37-7.91,0.82-9.02c-3.83-1.67-5.72,3.42-7.75,6.25
				c-3.97,5.53-7.53,11.31-12.98,15.65C996.38,608.69,994.12,610.93,994.42,614.32z M1033.83,923.63c-2.66,3.65-6.21,4.48-9.07,6.34
				c-1.31,0.86-3.17,1.98-2.02,3.93c1,1.69,2.89,1.29,4.52,0.76c0.62-0.2,1.2-0.57,1.77-0.9c4.12-2.43,7.97-5.51,13.2-5.22
				c1.2,0.07,2.27-0.65,2.62-1.93c0.37-1.33-0.45-2.19-1.44-2.91c-1.45-1.06-3.51-1.68-3.62-3.83
				c-0.53-10.13-9.88-12.02-15.86-17.04c-0.99-0.83-2.7-0.88-3.56,0.5c-1.11,1.79,0.34,2.67,1.63,3.52
				c2.36,1.55,4.73,3.09,7.03,4.73c1.17,0.83,2.13,2.81,0.57,3.13c-5.03,1.02-8.73,5.67-14.41,4.82c-3.59-0.54-7.28-0.54-10.92-0.69
				c-1.28-0.05-3.06-0.33-3.35,1.33c-0.35,2,1.59,2.41,2.99,2.56c5.6,0.59,11.18,1.85,16.86,0.69
				C1024.87,922.6,1028.94,922.77,1033.83,923.63z M842.75,922.48c7.62,3.62,14.72,7.25,23.18,5.95c2.4-0.37,4.29-2.48,6.98-2.44
				c1.36,0.02,3.47,0.14,3.16-2.08c-0.23-1.69-2.1-1.37-3.34-1.3c-4.15,0.22-8.3-0.11-12.45,0.05c-1.74,0.07-8.23,2.38-4.76-4.5
				c0.67-1.33-1.29-2.05-2.33-2.83c-4.55-3.43-10.72-3.67-15-7.65c-0.72-0.67-1.95-0.7-2.7,0.23c-0.89,1.11-0.35,2.17,0.37,3.17
				c2.07,2.88,5.58,3.48,8.28,5.35c1.88,1.3,5.84,1.13,5.6,3.36C849.41,922.91,845.36,920.09,842.75,922.48z M870.26,900.96
				c3.16,0.14,5.52-0.19,5.92-2.83c0.39-2.53-2.18-2.56-3.8-3.03c-2.54-0.74-5.16-1.66-7.75-1.67c-10.26-0.06-19.1-3.76-27.12-9.86
				c-1.69-1.29-3.76-3.23-5.45-0.5c-1.61,2.61,0.35,4.27,2.66,5.4c4.9,2.39,9.72,4.92,14.83,6.93
				C856.55,898.15,863.72,899.96,870.26,900.96z M1021.61,546.41c-2.69,0.95-5.09,3.03-7.38,5.17c-2.81,2.62-5.56,5.82-9.26,6.49
				c-5.75,1.05-10.02,5-15.36,6.66c-1.97,0.61-3.24,1.9-2.7,4.07c0.61,2.46,2.51,3.54,4.9,3.18c1.41-0.22,2.8-0.98,4.06-1.73
				c2.85-1.69,5.63-3.48,8.4-5.29c6.68-4.36,12.62-9.63,18.39-15.1c0.73-0.69,1.23-1.62,0.92-2.69
				C1023.36,546.42,1022.71,546.26,1021.61,546.41z M835.98,852.95c1.63,2.63,3.96,4.28,6.39,6c12.22,8.62,26.79,6.29,40.27,8.94
				c1.54,0.3,3.72-0.28,4.04-2.17c0.39-2.29-1.94-2.24-3.42-2.74c-2.13-0.72-4.22-0.52-6.34,0.24c-2.55,0.91-5.9,1.93-7.73,0.39
				c-4.31-3.65-9.5-3.25-14.33-4.37C848.39,857.75,842.22,855.51,835.98,852.95z M832.39,1035.7c-1.58-0.16-2.44,0.32-2.84,1.34
				c-0.75,1.91,0.39,3.13,1.73,4.24c7.03,5.81,13.99,11.71,21.13,17.37c1.71,1.36,3.96,4.71,6.12,1.91
				c1.68-2.18-1.17-4.38-3.07-6.01c-0.25-0.22-0.5-0.44-0.78-0.62c-5-3.31-9.42-7.26-13.62-11.54
				C838.44,1039.73,835.1,1037.76,832.39,1035.7z M872.2,890.31c2.48,0,4.97,0.05,7.45-0.01c2.39-0.06,3.83-1.41,3.67-3.75
				c-0.17-2.45-2.29-2.71-4.13-2.44c-9.62,1.41-19.07,0.65-28.43-1.83c-0.96-0.25-2.26-0.55-2.72,0.43
				c-0.72,1.55,0.96,1.79,1.84,2.36C856.69,889.5,864.23,890.78,872.2,890.31z M863.55,914.42c4.77,1.1,7.49-3.28,11.52-4.14
				c1.4-0.3,3.15-1.29,2.75-3.02c-0.4-1.74-2.39-1.7-3.81-1.55c-5.78,0.63-11.54,1.4-17.3,2.17c-1.02,0.14-1.95,0.67-2.23,1.73
				c-0.35,1.38,0.71,2.05,1.61,2.81C858.31,914.29,860.95,914.42,863.55,914.42z M864.39,937.78c2.33,0.13,4.03-0.97,5.74-1.98
				c1.1-0.64,2.73-1.19,1.93-2.91c-0.61-1.32-2.14-1.85-3.44-1.47c-7.44,2.17-14.43,0.21-21.42-2.03c-1.08-0.34-2.47-0.8-3.12,0.5
				c-0.68,1.36,0.71,2.03,1.56,2.74C851.17,937.26,858.18,936.43,864.39,937.78z M933.28,775.57c-0.12,3.29,0.34,6.3-0.99,9.14
				c-1.05,2.24-2.05,4.52-2.91,6.84c-0.32,0.87-0.46,2.04,0.7,2.6c0.88,0.42,1.56-0.24,2.24-0.69c4.84-3.18,7.98-13.39,5.41-18.65
				c-0.92-1.88-0.9-5.74-3.63-5.07C931.19,770.48,933.78,773.8,933.28,775.57z M861.39,881.26c2.19-0.12,4.48-0.43,5.14-2.98
				c0.45-1.72-1.01-2.33-2.42-2.45c-7.48-0.63-14.92-1.4-21.96-4.26c-0.88-0.36-2.11-0.54-2.51,0.76c-0.28,0.92,0.55,1.49,1.24,1.93
				C847.15,878.19,853.8,881.07,861.39,881.26z M905.85,1088.81c-0.78-1.24-1.63-2.44-2.32-3.73c-0.64-1.2-0.65-2.36,1.15-2.4
				c4.87-0.09,2.52-1.97,0.83-3.49c-1.47-1.32-3.09-2.48-4.72-3.61c-2.66-1.83-4.22,0.59-6.11,1.69c-1.51,0.88-1.44,2.13-0.58,3.37
				C896.95,1084.74,900.5,1087.95,905.85,1088.81z M879.54,1078.83c-1.58-0.28-2.47-0.2-2.8,0.72c-0.59,1.68,0.66,2.7,1.87,3.02
				c5.37,1.39,9.95,4.2,14.4,7.34c1.63,1.15,3.33,2.21,5.1,3.11c1.2,0.61,2.66,0.93,3.5-0.62c0.68-1.26-0.18-2.26-1.04-3.05
				C894.4,1083.64,885.69,1083.07,879.54,1078.83z M860.94,903.49c-1.58-0.36-3.53-0.25-4.67-1.16c-5.11-4.09-11.94-4.03-17.3-7.44
				c-1.2-0.76-2.98-1.55-3.95,0.22c-0.93,1.69,0.57,2.78,1.81,3.59C844.19,903.5,852.04,906.24,860.94,903.49z M877.78,984.59
				c-0.44-1.82-1.13-3.67-0.37-5.74c0.58-1.56,0.9-3.78-1.04-4.33c-2.57-0.72-3.47,2.08-4.88,3.55c-0.83,0.86-3.18,1.91-0.93,3.44
				c3.22,2.19,0.68,2.68-0.83,3.53c-1.16,0.65-2.93,1.37-1.31,2.79c1.72,1.52,4.07,2.48,6.48,1.65
				C877.02,988.74,877.73,986.85,877.78,984.59z M880.28,1065.44c2.2-0.91,5.7,0.47,5.95-2.5c0.18-2.15-3.09-1.83-4.92-2.21
				c-5.41-1.12-10.47-3.04-15.27-5.77c-1.52-0.86-3.2-3.97-4.85-1.58c-1.29,1.86,2.15,2.23,3.27,3.46
				C868.73,1061.56,874.5,1063.59,880.28,1065.44z M957.28,864.22c-0.98,0.01-2.11-0.18-2.6,0.94c-0.6,1.39,0.44,2.19,1.43,2.77
				c2.31,1.35,4.83,2.54,7.52,1.85c4.35-1.12,8.46-0.76,12.63,0.75c1.35,0.49,3.68,1.56,3.96-0.98c0.21-1.86-1.82-2.56-3.61-2.54
				c-4.1,0.06-8.25,0.93-12.24-0.69C962.08,865.38,959.8,864.41,957.28,864.22z M977.89,820.15c1.63-0.77,3.98-0.54,4.13-2.97
				c0.12-1.88-1.43-3.32-3.06-3.44c-3.45-0.26-6.93,0-10.4,0.17c-0.51,0.03-1.18,0.66-1.42,1.17c-0.32,0.66,0.17,1.31,0.84,1.55
				C971.24,817.82,974.52,818.96,977.89,820.15z M853.65,1021.11c3.31,4.23,7.19,5.68,10.92,7.37c1.44,0.65,3.24,1.01,4.1-0.41
				c1.12-1.85-0.74-3.41-1.98-3.95C862.83,1022.44,858.87,1020.73,853.65,1021.11z M995.26,826.7c1.33-0.32,2.95-0.62,4.49-1.14
				c0.53-0.18,1.15-0.83,1.26-1.37c0.19-0.96-0.63-1.46-1.45-1.67c-4.07-1.07-8.17-0.99-12.25-0.05c-0.52,0.12-1.2,0.77-1.29,1.27
				c-0.19,1.1,0.87,1.25,1.63,1.42C990.07,825.69,992.5,826.15,995.26,826.7z M919.62,1095.59c-0.18-0.39-0.23-0.84-0.45-0.95
				c-2.82-1.43-5.86-0.69-8.78-0.63c-1.9,0.04-3.48,1.39-4.15,3.17c-0.79,2.12,0.72,3.71,2.46,2.99c3.3-1.36,6.21-3.68,10.06-3.55
				C919.05,1096.63,919.35,1095.93,919.62,1095.59z M867.79,966.77c0.02-0.91-0.35-1.72-1.16-2.02c-3.22-1.19-6.52-0.49-9.78-0.14
				c-0.77,0.08-1.08,1.14-0.53,1.5c2.62,1.73,5.47,3.01,8.61,3.52c0.3,0.05,0.67-0.06,0.96-0.19
				C867.04,968.94,867.69,968.05,867.79,966.77z M860.92,843.33c1.09-0.18,3.48,0.22,3.75-1.63c0.3-2.07-2.19-2.26-3.67-2.43
				c-2.83-0.33-5.49-1.2-8.2-1.93c-0.53-0.14-1.41,0.09-1.78,0.48c-0.52,0.54-0.13,1.45,0.47,1.65
				C854.58,840.5,856.71,843.75,860.92,843.33z M876.85,877.73c1.63-0.01,3.4,0.15,3.28-1.7c-0.17-2.57-2.15-3.74-4.54-3.58
				c-2.1,0.14-5.63,0.51-5.42,2.44C870.58,878.78,874.99,876.11,876.85,877.73z M860.58,847.97c-1.46,0.41-4.26-0.94-4.15,1.18
				c0.15,2.95,3.21,3.36,5.8,3.46c1.82,0.07,4.46,0.37,4.15-2.13C865.98,847.36,862.72,848.48,860.58,847.97z M1005.61,816.11
				c2.14-0.18,4.32-0.43,4.41-3.06c0.08-2.44-1.87-2.92-3.81-2.79c-1.98,0.14-4.47,0.46-4.72,2.74
				C1001.2,815.63,1003.74,815.78,1005.61,816.11z M865.47,1040.65c-1.68-3.68-5.65-3.34-8.72-4.58c-0.71-0.29-2.07-0.06-1.8,0.95
				c0.64,2.44,3.09,3.19,5,4.33c1.09,0.65,2.47,0.9,3.75,1.1C864.8,1042.62,865.62,1042.13,865.47,1040.65z M1063.22,490.81
				c1.68,0.06,3.44,0.11,3.33-2.03c-0.12-2.3-1.42-4.56-3.71-4.62c-2.41-0.06-2.67,2.74-2.95,4.53
				C1059.44,491.47,1062,490.39,1063.22,490.81z M875.32,1017.06c-1.45,0.59-4.51,0-4.15,2.15c0.4,2.38,3.58,2.42,5.78,2.72
				c1.63,0.23,3.12-0.7,2.81-2.54C879.37,1017.08,877.27,1017.17,875.32,1017.06z M990.98,848.09c0.16-0.99-0.39-1.4-1.04-1.53
				c-2.51-0.52-4.95-0.38-6.97,1.4c-0.94,0.83-1.36,1.98-0.17,2.95c1.24,1.01,2.54,0.33,3.67-0.32
				C987.99,849.72,990.04,849.73,990.98,848.09z M997.02,837.6c1.36-0.8,4.48,0.61,4.64-2.56c0.1-2.03-2.07-1.66-3.47-1.61
				c-1.88,0.07-4.42-0.49-4.79,2.17C993.11,837.65,995.16,837.48,997.02,837.6z M857.42,1007.68c-1.11,0.31-3.22-0.11-2.89,1.72
				c0.51,2.89,3.46,2.64,5.63,3.1c1.29,0.27,3.19,0.15,2.93-1.65C862.64,1007.76,859.62,1008.41,857.42,1007.68z M963.98,809.23
				c1.17-1,4.32,0.82,4.32-2.17c0-2.01-2.33-1.87-3.92-1.95c-1.55-0.08-3.07,0.22-3.2,2.17C961.07,809,962.13,809.54,963.98,809.23z
				 M968.3,850.35c-0.73-2.63-3.03-3.22-5.31-3.73c-1.03-0.23-2.38-0.01-2.03,1.32c0.59,2.26,2.46,3.49,4.7,3.95
				C966.8,852.12,968.06,852.13,968.3,850.35z M982.56,922.16c-0.76-2.41-3.02-3.07-5.19-3.74c-1.02-0.31-2.17,0.04-1.79,1.44
				c0.67,2.47,2.59,3.73,4.99,4.14C981.64,924.18,982.46,923.59,982.56,922.16z M866.37,960.03c-3.06-2-5.7-3.03-8.74-1.74
				c-0.72,0.31-0.59,1.24-0.08,1.69C860.11,962.29,862.87,962.08,866.37,960.03z M1006.27,192.46c-0.14-1.32,0.08-3.3-1.48-3.28
				c-2.49,0.03-2.04,2.55-2.33,4.18c-0.21,1.23-0.26,3.07,1.62,2.92C1006.26,196.11,1006,193.99,1006.27,192.46z M840.23,847.83
				c0.18-0.3,0.37-0.61,0.55-0.91c-1.41-1.55-2.77-3.15-4.24-4.64c-0.91-0.92-2.2-2.05-3.3-0.68c-0.89,1.12,0.44,2.07,1.35,2.69
				C836.43,845.53,838.35,846.66,840.23,847.83z M875.33,971.78c1.6-0.22,2.22-1.3,2.23-2.74c0.01-1.43-0.63-2.74-2.17-2.76
				c-1.56-0.03-2.19,1.27-2.23,2.7C873.12,970.45,873.79,971.48,875.33,971.78z M861.6,984.21c-0.35-1.77-1.69-2.3-3.27-2.38
				c-1.18-0.06-2.64,0.11-2.52,1.63c0.14,1.73,1.74,2.31,3.25,2.53C860.31,986.16,861.33,985.69,861.6,984.21z M894.61,908.38
				c1.52-0.26,2.74-1.02,2.69-2.78c-0.04-1.54-1.07-2.41-2.59-2.18c-1.64,0.25-2.55,1.42-2.5,3.07
				C892.25,907.86,893.2,908.43,894.61,908.38z M874.66,946.49c1.35-0.33,3.12-0.41,3.38-2.2c0.18-1.24-1.09-1.47-2.1-1.41
				c-1.53,0.1-3.11,0.46-3.39,2.23C872.33,946.51,873.58,946.5,874.66,946.49z M844.28,866.43c-2.18-2.65-4.39-3.62-7.87-3.91
				C838.59,865.45,840.48,867.08,844.28,866.43z"/>
			<path class="st0" d="M954.62,1010.19c0.31,0.64,0.54,1.26,0.89,1.81c4.87,7.55,4.83,8.64-2.54,14.25
				c-3.27,2.49-6.99,4.52-10.74,6.23c-7.4,3.35-9.54,9.14-5.36,16.43c3.15,5.5,4.54,11.34,4.52,17.59c0,1.02-0.04,2.01-1.6,2.61
				c-3.05-9.71-6.46-19.31-9.03-29.12c-1.9-7.23-0.42-9.34,6.78-12c5.11-1.88,9.12-5.42,13.57-8.29c2.18-1.4,2.97-3.91,2.79-6.6
				C953.84,1012.13,952.71,1010.86,954.62,1010.19z"/>
			<path class="st0" d="M910.51,340.48c-2.67-2.18-4.93-4.03-7.21-5.86c-5.91-4.75-12.68-7.87-19.75-10.45
				c-1.22-0.45-3.05-0.85-2.67-2.44c0.49-2.01,2.41-1.3,3.8-0.95c5.1,1.26,9.55,3.78,13.62,7.08c1.49,1.21,3.34,3.09,5.21,1.18
				c1.78-1.82,0.23-4.01-1.12-5.29c-5.89-5.59-10.61-12.41-17.59-16.87c-1.07-0.68-2.81-1.37-2.11-2.92
				c0.77-1.7,2.41-0.71,3.43-0.07c12.88,8.01,22.98,18.09,24.74,34.16C910.93,338.62,910.7,339.24,910.51,340.48z"/>
			<path class="st0" d="M951.77,233.25c0.36-4.14,3.68-5.71,4.92-8.61c1.52-3.55-1.29-5.76-2.34-8.3c0.81-0.91,1.72-0.84,2-0.35
				c3.88,6.61,11.84,8.11,16.75,13.44c1.51,1.65,2.25,2.96,0.1,4.44c-4.55,3.12-6.34,8.38-9.43,12.57
				c-2.44,3.32-6.53,5.81-6.56,11.72c-4.17-5.17-1.04-8.52,1.19-11.21c2.24-2.7,4.84-4.9,5.12-8.71c0.05-0.73,0.7-1.54,1.29-2.07
				c2.42-2.18,5.38-4.23,1.41-7.52c-4.55-3.78-7.54-3.45-10.89,1.12C954.46,230.95,953.78,232.3,951.77,233.25z"/>
			<path class="st0" d="M936.19,213.21c2.57-1.55,6.31,1.68,7.04-1.55c0.67-2.97-3.67-3.04-5.53-4.73c-0.71-0.65-1.78-0.9-2.6-1.45
				c-0.69-0.46-1.36-1.09-1.2-2.03c0.16-0.96,1.01-1.32,1.85-1.36c4.14-0.21,8.29-0.5,12.44-0.45c2.47,0.03,3.08,1.81,2.21,3.88
				c-1.16,2.76-2.08,5.6-3.12,8.38c-1.83,4.88-7.2,4.13-11.01,5.71c-2.95,1.22-5.26-1.73-7.3-3.43c-1.65-1.38,0.1-2.72,1.68-2.92
				C932.59,213.02,934.6,213.21,936.19,213.21z"/>
			<path class="st0" d="M980.17,200.74c3.89,0.25,7.37,0.61,10.63,1.93c1.55,0.63,3.27,1.82,2.62,3.68
				c-0.77,2.19-2.96,1.43-4.25,0.64c-7.93-4.86-15.1-3.46-21.97,2.15c-1.15,0.94-2.65,1.71-4.02,0.32c-0.85-0.86-0.94-2.13-0.76-3.3
				c0.35-2.26,2.16-1.55,3.54-1.62c2.67-0.14,5.21-0.49,7.49-2.2C975.51,200.82,978.01,200.47,980.17,200.74z"/>
			<path class="st0" d="M978.82,274.09c4.51,2.24,5.73-1.24,7.2-4.25c0.74-1.52,1.64-2.9,3.07-3.82c1.18-0.76,2.68-2.63,3.8-1.2
				c1.52,1.94-1.3,1.99-2.16,2.88c-1.95,2.06-2.51,3.84,0.36,5.59c3.15,1.93,1.55,2.71-0.63,4.4c-4.61,3.56-8.49,3.14-12.43-0.71
				c-0.62-0.61-1.04-1.31-0.81-2.2C977.43,273.96,978.06,273.88,978.82,274.09z"/>
			<path class="st0" d="M948.54,235.99c1.53,0.2,1.39,1.08,1.26,1.9c-0.69,4.46-6.11,10.3-10.27,11.26
				c-2.07,0.48-3.62,0.28-4.18-2.1c-0.5-2.09,0-2.94,2.36-3.82c3.16-1.18,5.85-3.66,8.72-5.61
				C947.23,237.08,947.95,236.44,948.54,235.99z"/>
			<path class="st0" d="M890.1,442.9c-1.04,0.11-1.84,0.1-1.98-0.64c-0.11-0.56,0.11-1.4,0.5-1.81c4.36-4.53,8.73-9.05,13.22-13.44
				c0.94-0.92,2.53-1.18,3.64-0.09c1.01,0.99,0.69,2.48-0.38,3.01c-5.55,2.74-8.37,8.41-13.15,11.95
				C891.3,442.37,890.52,442.67,890.1,442.9z"/>
			<path class="st0" d="M978.54,210.94c3.06,0.19,8.07,0.43,8.3,3.8c0.2,2.95-5.02,1.01-7.64,2.06c-0.44,0.18-1.04,0.2-1.48,0.05
				c-2.18-0.72-6.08,0.24-6.03-2.75C971.73,210.84,975.44,211.13,978.54,210.94z"/>
			<path class="st0" d="M907.2,421.94c2.24-5.21,4.32-10.07,6.43-14.92c0.33-0.76,0.73-1.5,1.22-2.16c1.03-1.38,0.45-5.05,3.11-3.82
				c1.96,0.9-0.27,3.48-0.78,5.3c-1.54,5.49-5.11,10.02-7.18,15.26c-0.36,0.9-0.7,2.06-2.01,1.61
				C907.56,423.05,907.36,422.21,907.2,421.94z"/>
			<path class="st0" d="M929.81,404.75c-1.45,5.86-4.47,10.79-8.18,15.32c-0.5,0.62-1.43,0.96-2.2,0.25
				c-0.71-0.65-0.73-1.66-0.22-2.27C922.83,413.71,926.07,409.08,929.81,404.75z"/>
			<path class="st0" d="M900.56,251.31c2.24,1.44,4.52,2.27,6.98,2.72c0.99,0.18,1.95,0.79,1.64,2.03
				c-0.31,1.24-1.46,1.19-2.43,1.06C903.36,256.68,901.25,254.76,900.56,251.31z"/>
			<path class="st0" d="M976.9,187.65c1.45-3.3,2.38-5.51,3.39-7.69c0.43-0.91,1.11-1.79,2.27-1.22c1.06,0.53,1.13,1.68,0.6,2.54
				C981.81,183.5,980.34,185.64,976.9,187.65z"/>
			<path class="st0" d="M899.89,350.77c-1.52-1.92-3.07-3.82-4.55-5.77c-0.49-0.65-1.06-1.54-0.27-2.22
				c1.02-0.89,1.88-0.01,2.52,0.72C899.27,345.4,900.1,347.72,899.89,350.77z"/>
			<path class="st0" d="M987.42,285.17c-0.52,1.92-1.35,3.31-3.25,3.53c-1.16,0.13-1.95-0.63-1.85-1.77
				c0.16-1.91,1.67-2.8,3.26-3.27C986.78,283.3,987.24,284.3,987.42,285.17z"/>
			<path class="st0" d="M942.34,397.11c-0.64,1.5-1.04,3.55-3.06,3.97c-1.21,0.25-1.41-1.12-1.32-2.13
				c0.17-1.86,1.28-3.03,3.04-3.44C942.02,395.27,942.51,395.9,942.34,397.11z"/>
			<path class="st0" d="M984.75,262.25c-0.07,1.19,0.02,2.96-1.41,2.71c-2.17-0.37-1.16-2.72-1.64-4.17
				c-0.32-0.97-0.06-2.32,1.23-2.11C984.87,259,984.43,260.94,984.75,262.25z"/>
			<path class="st0" d="M1063.78,381.61c-0.35,1.58-0.53,3.8-1.33,5.78c-3.33,8.24-3.48,16.3,0.06,24.6
				c1.57,3.69,0.56,7.91,0.36,11.89c-0.18,3.57,0.4,6.53,4.05,8.33c2.08,1.03,5.22,10.46,4.56,12.53c-0.54,1.7-1.83,2.25-3.46,2.28
				c-6.28,0.15-8.82,5.37-12.21,9.27c-1.38,1.58,0.23,3.39,1.25,4.94c0.88,1.33,2.39,3.04,0.23,4.22c-1.9,1.04-2.87-0.81-3.8-2.24
				c-2.73-4.19-5.12-8.31-5.22-13.7c-0.06-3.53-1.82-7.05-3.77-10.21c-2.62-4.25-5.21-8.51-7.85-12.75
				c-2.39-3.83-13.57-8.51-17.94-7.55c-3.51,0.77-3.94,2.68-1.58,5.58c2.64,3.23,6.18,4.27,10.03,4.95
				c3.46,0.61,5.65,2.17,3.88,6.19c-0.65,1.48-0.5,3.03,0.57,4.24c2.46,2.78,1.39,5.99,1.29,9.08c-0.04,1.2-0.37,2.38-1.71,2.75
				c-1.57,0.44-2.58-0.53-3.21-1.76c-1.05-2.07-2.17-4.14-2.85-6.34c-1.36-4.36-3.49-8.44-6.25-11.85c-2.7-3.34-6.96-1.1-10.53-0.73
				c-1.24,0.13-2.7,1.48-3.38-0.27c-0.74-1.93,1.04-2.4,2.51-2.9c5.94-2.04,6.13-2.75,2.16-7.81c-1.11-1.41-1.77-2.87-0.75-4.57
				c0.91-1.52,2.57-1.95,3.94-1.33c6.9,3.15,14.62,2.85,21.65,5.41c3.91,1.43,5.51,4.97,6.94,8.14c2.35,5.22,7.18,8.8,8.9,14.36
				c0.37,1.2,1.49,1.76,2.84,1.39c2.03-0.56,7.13-8.77,6.18-10.52c-2.55-4.7-1.8-9.72-1.99-14.67c-0.31-7.95,0.17-16.02-3.2-23.57
				c-0.78-1.76-0.63-3.37,1.73-3.72c3.62-0.53,3.95-2.95,3.6-5.9c-0.18-1.48-0.35-2.99-0.21-4.46c0.15-1.59,0.99-3.04,2.84-2.79
				C1063.82,378.11,1063.75,379.7,1063.78,381.61z"/>
			<path class="st0" d="M848.9,519.26c0.83,0.89,1.54,1.8,2.39,2.55c5.65,4.97,9.2,11.7,14.63,16.93
				c8.05,7.75,17.36,13.34,27.38,17.86c7,3.17,13.07,7.93,20,11.18c1.36,0.64,2.88,1.64,1.92,3.42c-0.78,1.45-2.38,0.94-3.59,0.42
				c-2.44-1.04-4.93-2.05-7.21-3.4c-15.38-9.08-32.36-15.74-44.68-29.46c-4.67-5.2-7.14-11.95-12.03-17
				c-0.34-0.35-0.29-1.25-0.16-1.84C847.62,519.66,848.32,519.53,848.9,519.26z"/>
			<path class="st0" d="M1056.42,364.1c-1.05-10.6-7.95-19.38-3-29.83c0.69-1.45,0.98-3.01-0.07-4.26
				c-7.96-9.46-10.49-21.8-17.09-31.99c-1.99-3.08-3.93-6.17-6.31-8.97c-0.86-1.01-1.81-2.47-0.51-3.52c1.73-1.4,2.61,0.4,3.44,1.57
				c5.23,7.33,9.59,15.02,12.48,23.7c1.72,5.17,4.02,10.7,9.67,13.4c2.02,0.97,2.18,2.88,2.14,4.7c-0.14,6.64,0.61,13.31-0.55,19.92
				c-0.69,3.96,1.63,7.42,1.99,11.2C1058.68,361,1058.86,362.03,1056.42,364.1z"/>
			<path class="st0" d="M979.92,776.96c-1.57,0.05-2.92-0.31-3.36-1.77c-0.58-1.9,0.81-2.61,2.32-3.17
				c5.43-2.01,11.09-3.34,16.59-5.14c11.94-3.91,21.39-11.01,29.56-20.21c0.44-0.5,0.79-1.08,1.26-1.54
				c0.89-0.89,1.77-2.47,3.2-1.05c1.14,1.13,0.49,2.57-0.43,3.59c-3.98,4.41-7.39,9.27-12.18,13.01
				c-10.61,8.27-23.36,11.55-35.62,16.02C980.79,776.86,980.28,776.89,979.92,776.96z"/>
			<path class="st0" d="M912.99,797.75c-0.19,1.88-1.21,2.95-2.45,3.84c-1.07,0.77-2.6,1.28-2.85,2.64
				c-0.99,5.3-3.79,3.74-6.77,1.97c-3.41-2.03-7.08-3.7-9.83-6.69c-0.65-0.71-1.48-1.56-0.5-2.54c0.72-0.73,1.55-0.2,2.28,0.17
				c0.44,0.22,0.83,0.55,1.26,0.8c1.56,0.9,3.71,2.43,4.72,0.33c0.96-2-0.72-4.06-2.76-5.2c-0.55-0.31-1.28-0.28-1.94-0.38
				c-1.35-0.21-2.94-0.39-2.28-2.32c0.54-1.59,2.41-1.9,3.26-0.92c3.28,3.79,7.55,3.22,11.83,3.57
				C909.65,793.24,912.48,794.53,912.99,797.75z"/>
			<path class="st0" d="M1035.3,465.05c-0.54,1.64-1.78,2.79-3.06,3.82c-1.44,1.16-2.2-0.27-3.33-0.93
				c-3.2-1.87-5.89-5.64-10.49-3.26c-0.89,0.46-2.14,0.34-2.64-0.72c-3.64-7.67-10.53-13.26-13.48-21.37
				c-0.62-1.71-1.19-3.34,0.67-4.36c1.91-1.06,2.96,0.46,4.04,1.83c3.65,4.63,4.32,10.76,7.95,15.42c2.46,3.16,4.97,5.82,9.45,5.07
				c1.06-0.18,2.08,0.24,2.66,1.08c1.55,2.24,3.01,3.9,5.97,1.76C1034.16,462.58,1035.23,463.49,1035.3,465.05z"/>
			<path class="st0" d="M1058.38,372.87c0.04,1.16,0.01,2.04-0.82,2.5c-1.1,0.61-1.94-0.04-2.55-0.85c-0.7-0.92-1.38-1.9-1.84-2.95
				c-4.65-10.59-13.07-17.68-22.38-23.82c-4.82-3.18-8.01-7.88-12.15-11.67c-0.83-0.76-1.53-2.07-0.52-3.1
				c1.3-1.33,2.63-0.29,3.38,0.73c6.96,9.47,17.65,14.99,25.18,23.89c2.55,3.01,4.14,6.89,8.94,8.05
				C1058.26,366.27,1057.5,370.57,1058.38,372.87z"/>
			<path class="st0" d="M997.19,493.65c-2.26-0.52-3.39-1.97-4.61-3.34c-7.44-8.34-12.42-18.44-19.38-27.12
				c-1.83-2.28-1.16-4.38,0.96-6.06c1.03-0.81,2.64-1.07,2.31,0.81c-0.62,3.55,1.87,5.5,3.37,7.98c2.41,3.97,4.81,7.96,7.38,11.83
				c2.05,3.08,4.3,5.8,8.7,5.66c2.49-0.08,4.18,1.89,3.49,4.35C998.87,489.73,999.67,492.54,997.19,493.65z"/>
			<path class="st0" d="M872.8,648.9c0.94,5.37-0.54,10.51-3,14.66c-6.22,10.5-11.07,21.51-14.91,33.04
				c-0.15,0.45-0.42,0.85-0.98,1.03C854.32,679.04,865.4,664.72,872.8,648.9z"/>
			<path class="st0" d="M1001.05,464.73c-3.22-4.25-6.16-8.42-9.43-12.32c-1.4-1.67-2-3.33-2.08-5.39
				c-0.06-1.37-0.49-2.73-2.13-2.93c-1.41-0.17-1.88,1.07-2.57,2.01c-1,1.37-1.18,3.73-3.64,3.44c-0.43-0.05-1.03-0.91-1.1-1.45
				c-0.27-2.16,0.6-3.89,2.45-5.07c0.56-0.36,1.37-0.48,1.73-0.96c2.98-3.91,4.97-3.58,7.79,0.64c4.03,6.02,8.86,11.49,9.64,19.1
				C1001.82,462.78,1002.03,463.77,1001.05,464.73z"/>
			<path class="st0" d="M963.65,584.66c-2.45,0.04-4.14-0.82-5.49-2.46c-2.51-3.07-5.05-6.12-7.58-9.18
				c-0.76-0.91-1.61-1.97-0.78-3.09c1.04-1.41,2.46-0.65,3.55,0.04c1.81,1.14,3.71,2.27,5.2,3.77c2.76,2.77,4.95,6.53,9.76,3.45
				c0.71-0.45,1.68-0.06,2.18,0.69c0.74,1.1,0.49,2.27-0.29,3.22C968.44,583.24,966.05,584.27,963.65,584.66z"/>
			<path class="st0" d="M992.42,373.62c-6.98-9.53-12.99-19.51-14.08-31.69C982.65,352.68,989.31,362.34,992.42,373.62z"/>
			<path class="st0" d="M1018.2,498.72c-3.83-0.69-7.43-1.25-10.97-2.02c-1.43-0.31-4.07-0.19-3.16-2.6
				c0.73-1.93,2.52-4.93,5.15-3.1c5.78,4.04,11.64,5.16,18.2,2.58c0.78-0.31,1.74-0.31,2.13,0.62c0.58,1.39-0.4,2.17-1.43,2.77
				C1024.95,498.8,1021.23,497.39,1018.2,498.72z"/>
			<path class="st0" d="M1035.19,487.5c0.38-2.28,0.94-4.1-0.69-5.88c-2.93-3.19-0.7-5.68,1.87-7.37c3.17-2.08,4.82-0.05,5.78,2.95
				c0.29,0.9,0.77,1.98,1.5,2.47c3.07,2.04,1.02,3.39-0.66,4.38C1040.72,485.38,1038.51,486.95,1035.19,487.5z"/>
			<path class="st0" d="M914.65,763.83c-0.5-0.54-1.17-1.23-1.8-1.96c-0.87-1.01-2.03-2.13-0.64-3.39c1.16-1.05,2.67-0.58,3.63,0.36
				c1.98,1.96,3.61,4.24,6.13,5.66c0.84,0.48,0.94,2.41,0.01,2.5c-3.22,0.32-5.72,3.11-8.52,3.08c-2.44-0.02-4.89-2.36-7.28-3.77
				c-0.73-0.43-1.21-1.28-0.64-2.12c0.52-0.77,1.43-0.8,2.25-0.51c1.56,0.56,3.06,1.29,4.65,1.76
				C913.42,765.75,914.44,765.57,914.65,763.83z"/>
			<path class="st0" d="M1040.78,325.17c-5.22-6.78-11.43-12.54-17.73-18.22c-0.62-0.56-0.97-1.5-0.08-2.14
				c1.03-0.73,1.87,0.03,2.6,0.69c3.82,3.42,7.46,7.02,10.58,11.09c1.94,2.54,3.74,5.19,5.6,7.78
				C1041.43,324.65,1041.11,324.91,1040.78,325.17z"/>
			<path class="st0" d="M984.62,617.55c-2.39,4.85-5.9,8.79-10.45,11.85c-0.66,0.45-1.54,0.88-2.25,0.13
				c-0.77-0.81-0.1-1.55,0.43-2.13c3.5-3.85,7.04-7.67,10.56-11.5C983.49,616.45,984.06,617,984.62,617.55z"/>
			<path class="st0" d="M1063.39,371.1c0.46-2.59,1.19-5.14,4.46-4.76c2.06,0.24,3.07,2.15,2.64,4.08
				c-0.66,2.93-3.43,3.49-5.81,3.66C1062.65,374.23,1063.43,372.28,1063.39,371.1z"/>
			<path class="st0" d="M1071.93,423.3c1.39-1.4-0.19-5.27,2.86-5.19c2.33,0.07,3.38,2.92,3.08,5.46c-0.25,2.16-1.39,3.95-3.77,3.79
				C1071.93,427.22,1071.87,425.3,1071.93,423.3z"/>
			<path class="st0" d="M1054.34,317.53c-2.91-4.53-4.68-9.39-5.38-14.65C1052.11,307.28,1054.74,311.86,1054.34,317.53z"/>
			<path class="st0" d="M918.65,791.23c-0.2,1.24-0.87,1.68-1.48,1.5c-2.68-0.81-5.52-1.37-7.53-3.54c-0.58-0.63-0.5-1.61,0.28-2.22
				c1.24-0.97,2.64-0.75,3.7,0.11C915.37,788.49,917.7,789.31,918.65,791.23z"/>
			<path class="st0" d="M901.88,812c-5.03,0.65-7.63-2.29-10.55-4.39c-0.32-0.23-0.39-1.34-0.12-1.7c0.3-0.39,1.32-0.69,1.69-0.47
				C895.86,807.23,899.19,808.58,901.88,812z"/>
			<path class="st0" d="M906.54,779.57c4.28-2.53,7.62-2.09,10.68,0.82c0.41,0.39,0.71,1.2,0.61,1.72
				c-0.14,0.73-1.07,0.93-1.59,0.55C913.56,780.7,910.02,781.22,906.54,779.57z"/>
			<path class="st0" d="M1019.07,480.95c1.39,0.16,3.32,0.12,2.8,1.89c-0.74,2.55-3.6,2.44-5.67,3.09
				c-1.32,0.41-2.98-0.26-2.59-1.94C1014.28,481.19,1017.05,481.51,1019.07,480.95z"/>
			<path class="st0" d="M861.56,790.9c-0.58,1.56-1.75,1.88-3.17,1.5c-1.24-0.33-2.07-1.18-1.74-2.52c0.4-1.63,1.76-1.78,3.13-1.47
				C861.05,788.71,861.7,789.56,861.56,790.9z"/>
			<path class="st0" d="M859.67,800.31c0.08,1.32-0.8,1.71-1.8,1.88c-1.4,0.23-2.74-0.06-3.18-1.54c-0.42-1.44,0.58-2.12,1.9-2.13
				C857.92,798.51,859.18,798.82,859.67,800.31z"/>
			<path class="st0" d="M932.1,1085.42c0.13,1.48-0.44,2.21-1.33,1.98c-2.44-0.64-4.48-1.97-5.29-4.52c-0.3-0.96,0.47-1.61,1.38-1.5
				C929.57,1081.71,930.95,1083.72,932.1,1085.42z"/>
		</g>
	</g>
</g>
</svg>
