<?xml version="1.0" encoding="utf-8"?>
<!-- Generator: Adobe Illustrator 28.0.0, SVG Export Plug-In . SVG Version: 6.00 Build 0)  -->
<svg version="1.1" id="Layer_1" xmlns="http://www.w3.org/2000/svg" xmlns:xlink="http://www.w3.org/1999/xlink" x="0px" y="0px"
	 viewBox="0 0 1920 1080" style="enable-background:new 0 0 1920 1080;" xml:space="preserve">
<style type="text/css">
	.st0{fill:none;stroke:#231F20;}
</style>
<g>
	<g>
		<g>
			<path d="M902.98,760.02c0.25,1.42,0,3.05,1.88,4.27c3.05-4.88,6.68-9.32,7.21-15.33c0.08-0.94,0.05-2.37,1.39-2.13
				c1.52,0.28,1.41,1.89,0.96,2.88c-2.57,5.64-3.1,11.88-7.06,17.28c-3.63,4.95-6.24,10.94-8.87,16.66
				c-1.75,3.81,1.93,7.3,2.29,11.15c0.09,1,1.58,1.13,2.48,0.38c0.62-0.52,1.12-1.22,1.53-1.92c1.3-2.24,0.89-6.47,3.35-6.74
				c4.72-0.52,9.38-2.11,14.33-1.19c13.76,2.56,23.95,10.57,32.82,20.76c0.76,0.88,1.51,1.78,2.3,2.64
				c0.55,0.61,1.14,1.34,2.09,0.87c0.87-0.43,0.92-1.33,0.87-2.17c-0.04-0.66-0.18-1.32-0.36-1.96
				c-2.38-8.42-15.39-19.48-23.95-20.39c-0.5-0.05-1.03,0.04-1.49-0.1c-3.34-1-5.94-3.71-9.5-4.21c-3.2-0.46-6.41-0.88-10.14-1.39
				c1.59-2.52,3.54-2.18,5.19-2.15c6.69,0.12,13.01,1.93,19.36,3.95c9.56,3.04,17.25,8.64,24,15.8c1.24,1.31,4.44,2.36,2.16,4.43
				c-1.96,1.79-2.08-2.28-4.6-2.93c1.07,3.91,1.97,7.36,3.02,10.77c0.13,0.42,1.05,0.89,1.57,0.85c1.18-0.09,1.58-1.13,1.69-2.15
				c0.23-2.07-0.85-5.22,3.43-3.46c0.97,0.4,1.62-1.04,1.8-2.01c1.45-7.48,3.86-15.02-1.65-22c-1.06-1.35-1.94-3.58-0.43-4.52
				c4.48-2.79,1.94-6.32,1.11-9.28c-1.96-7-5.44-13.59-5.56-21.1c-0.01-0.78-0.26-1.81-0.79-2.3c-4.02-3.67-2.02-7.43,0.06-11.37
				c0.29,4.66,3.13,8.47,3.83,12.93c0.59,3.8,1.18,7.57,2.68,11.14c4.01,9.52,4.63,19.68,5.6,29.77c0.09,0.97-0.3,2.15,1.04,2.43
				c1.1,0.23,1.45-0.78,1.49-1.57c0.42-7.89,3.01-15.98,0.16-23.62c-2.81-7.57-5.14-15.43-9.51-22.39
				c-0.59-0.94-0.85-2.14-1.02-3.26c-0.12-0.77,0.03-1.75,1.16-1.84c0.8-0.06,1.08,0.62,1.31,1.24c2.48,6.68,7.02,12.47,8.5,19.59
				c0.2,0.98,0.43,2.17,1.65,2.17c1.39,0,1.87-1.25,2.18-2.38c0.76-2.85,0.36-5.65-0.77-8.31c-4.61-10.89-11.8-19.93-19.82-28.51
				c-8.64-9.24-17.41-18.31-26.81-26.77c-0.61-0.55-1.13-1.23-1.58-1.92c-0.55-0.84-1.11-1.9-0.15-2.69c1-0.83,1.87,0.07,2.56,0.74
				c7.54,7.26,15.37,14.26,22.49,21.91c7.35,7.89,14.92,15.68,20.4,25.12c0.58,1.01,1.35,2.31,2.68,1.4
				c1.54-1.06,1.03-2.74,0.25-4.05c-2.97-5-6.12-9.9-9.07-14.92c-1.72-2.93-4.85-5.03-5.49-9.14c3-0.01,4.28,2.09,5.67,3.75
				c3.33,3.97,5.98,8.39,8.09,13.14c0.54,1.22,0.88,3.39,2.87,2.76c1.71-0.54,1.21-2.5,1.29-3.96c0.13-2.4-0.38-4.59-1.85-6.59
				c-3.4-4.63-6.34-9.68-11.59-12.57c-2-1.1-3.94-2.42-6.36-0.3c-1.24,1.08-3.03-0.05-2.57-1.58c1.25-4.19-1.76-5.4-4.35-6.65
				c-26.89-13.11-45.97-33.98-59.91-60c-0.52-0.96-1.76-2.1-0.4-3.05c1.47-1.03,2.6,0.31,3.21,1.41c2.52,4.51,5.97,8.45,8.44,12.91
				c6.22,11.21,16.42,18.68,24.8,27.86c10.83,11.88,26.35,16.58,38.51,26.34c1.76,1.41,3.91,1.26,6.14,1.34
				c9.67,0.34,18.07-3.87,26.76-7.01c2.95-1.07,5.34-3.18,7.37-5.78c5.28-6.77,10.78-13.37,16.55-20.48
				c-0.85,4.6-3.07,8.92-9.23,16.31c-4.02,4.82-7.8,9.99-13.36,13.28c-2.1,1.24-1.88,3.37-2.2,5.29c-0.38,2.28-1.01,3.18-3.9,2.9
				c-4.63-0.45-8.06,3.57-12.42,4.79c-1.4,0.39-1.01,2.93-0.85,4.62c1.54,15.94-0.3,31.6-4.7,46.9c-1.91,6.64-0.23,13.22-0.95,19.85
				c-0.85,7.94-3.84,14.7-8.25,21c-4.42,6.31-9.27,12.24-16.67,15.41c-2.04,0.87-1.86,2.99-1.77,4.82
				c0.78,16.11-3.51,30.9-10.03,45.57c-3.69,8.3-7.12,17.07-8.03,26.53c-0.4,4.11-2.54,8.23-4.57,11.98
				c-3.18,5.84-3.01,12.5-5.19,18.58c-1.27,3.56-2.37,7.25-3.51,10.89c-2.33,7.41,1.86,13.67,9.71,13.88
				c5.39,0.14,10.57,1.12,15.82,2.01c6.03,1.02,8.2,5.89,10.29,10.57c1.73,3.86-1.33,6.51-3.42,9.25c-0.6,0.79-1.43,1.41-2.01,2.22
				c-5.23,7.25-3.73,8.75,3.96,10.98c7.43,2.16,14.77,4.74,22.25,6.86c3.94,1.12,8.33,0.42,12.51,3.28
				c-2.96,1.37-5.62,0.95-7.94,0.31c-11.9-3.28-24.14-5.5-35.45-10.73c-0.3-0.14-0.71-0.39-0.94-0.29
				c-7.48,3.29-15.73-0.33-23.22,2.64c-0.57,0.23-1.28,0.72-1.43,1.23c-0.27,0.95,0.49,1.42,1.35,1.72c0.88,0.3,1.73,0.72,2.66,1.8
				c-5.46,0-9.85,3.14-14.93,3.99c-4.25,0.71-8.3,2.44-12.74,2.23c-1.24-0.06-2.98,0.17-2.84,2.01c0.11,1.39,1.6,1.56,2.73,1.66
				c14.22,1.36,27.12,7.59,40.8,10.86c6.09,1.46,11.4,4.37,17.1,6.5c0.8,0.3,1.75,0.62,1.63,1.57c-0.17,1.28-1.39,1.28-2.36,1.24
				c-0.81-0.04-1.67-0.21-2.4-0.55c-15.15-7.02-31.31-11.07-47.28-15.5c-6.95-1.93-14.56-1.49-20.61-6.38
				c-0.34-0.28-0.96-0.3-1.45-0.29c-2.38,0.02-5.44,1.77-6.83-1.1c-1.54-3.18-2.98-6.46-2.51-10.44
				c1.31-11.05,3.69-21.81,6.59-32.55c2.12-7.86,1.52-16.16,1.39-24.3c-0.19-11.78-1.93-23.47-1.31-35.33
				c0.42-7.88-0.66-15.86-1.32-23.77c-1.09-12.97-0.18-25.76,1.84-38.63c1.64-10.47,5.07-19.87,11.64-28.17
				c0.95-1.19,1.29-2.27,3.38-1.92c2.69,0.44,1.35-0.7,0.95-2.45c-1.04-4.56-4.04-7.4-6.63-10.85c-1.66-2.21-1.15-6.34,0.64-9.07
				c3.61-5.51,4.91-11.49,4.95-17.93c0.01-2.09-0.32-4.48,2.25-5.61L902.98,760.02z M897.02,850.69c2,2.15,4.29,2.52,6.53,2.44
				c3.07-0.1,5.96,0.54,8.81,1.47c1.55,0.51,4.6,0.11,3.91,2.58c-0.6,2.15-3.14,0.49-4.83,0.35c-0.32-0.03-0.65-0.16-0.96-0.28
				c-7.27-2.88-14.36,0.49-21.54,0.65c-1.16,0.03-1.73,1.02-1.59,2.14c0.18,1.35,1.26,1.28,2.29,1.19c0.99-0.08,2.04,0.08,2.98-0.18
				c12.54-3.46,23.81,2.02,35.41,5.04c4.01,1.04,7.93,2.43,11.9,3.61c3.73,1.11,5.03-2.24,5.59-4.28c0.68-2.5-1.72-3.76-4.43-3.9
				c0.01,1.82,2.79,2.13,1.69,3.95c-0.99,1.65-2.86,1.2-4.08,0.73c-5.53-2.12-10.96-4.52-16.42-6.82c1.86-0.92,3.49-0.99,5.11-1.16
				c1.09-0.11,2.59,0.22,2.81-1.36c0.19-1.37-0.99-2.34-2.08-2.41c-6.66-0.39-6.54-4.11-5.23-9.21c0.5-1.97,0.58-4.03,1.36-6.08
				c1.97-5.15-0.2-9.91-5.39-11.53c-4.06-1.27-8.13-3.05-12.63-2.34c-1.79,0.28-3.65,0.17-5.42,0.54c-1.09,0.23-2.34,0.97-2.02,2.4
				c0.3,1.36,1.53,0.75,2.48,0.79c3.78,0.16,7.59,0.21,11.33,0.73c1.99,0.28,5.2,0.85,4.68,3.35c-0.48,2.3-3.04,0.34-4.68,0.15
				c-1.33-0.15-2.92-0.48-3.15,1.38c-0.17,1.4,0.63,2.52,2.21,2.86c1.52,0.33,3.43-0.16,4.26,1.8c-1.19,1.83-5.45,0.05-4.75,3.16
				c0.95,4.2,5.32,0.47,8.31,2.65C911.48,846.49,904.76,850.14,897.02,850.69z M916.47,871.5c-3.17-0.31-6.37,0.94-9.47-0.62
				c-1.55-0.78-3.38-1.66-4.22,0.48c-0.91,2.33,1.18,3.27,2.93,3.73c2.72,0.72,5.32,1.78,7.96,2.59c2.21,0.68,6.61,1.7,6.87-1.33
				c0.46-5.46,3.08-4.89,6.62-4.04c1.05,0.25,2.45,1.13,2.99-0.45c0.51-1.49-1.09-1.79-2.03-2.35c-6.94-4.09-14.76-4.63-22.49-5.22
				c-2.38-0.18-5.07-0.99-8.88,0.91C904.58,866.33,910.72,868.15,916.47,871.5z M905.17,816.94c-1.49,0-2.99-0.07-4.47,0.02
				c-1.83,0.11-4.25,0.23-4.18,2.5c0.07,2.41,2.55,1.46,4.01,1.48c5.22,0.06,10.29-0.5,15.32,2.35c3.3,1.87,6.49,3.86,9.71,5.85
				c1.48,0.91,3.32,1.47,4.5-0.17c1.47-2.04-0.7-2.81-1.88-3.82c-4.25-3.64-11.06-3.42-13.9-9.24c-0.3-0.61-1.28-0.62-1.72-0.02
				C910.48,818.71,907.65,816.84,905.17,816.94z M929.58,818.63c6.09-0.25,7.54-1.58,7.75-7.33c-2.76,3.19-5.22,2.84-8.32,0.78
				c-2.03-1.34-4.28-2.11-4.84,2.79c-0.49,4.3,1.15,5.09,3.84,6.63c2.21,1.26,4.19,5.66,6.48,3.08
				C936.21,822.64,931.56,821.07,929.58,818.63z M914.45,987.92c2.53-0.05,4.42-1.97,7.08-2.05c7.35-0.23,8.74-2.58,5.94-9.07
				c-0.26-0.61-0.28-1.31-1.05-1.45c-0.96-0.17-1.89,0.42-1.96,1.16c-0.63,6.35-6.12,6.45-10.34,8.14
				c-1.04,0.42-2.62,0.34-2.45,1.88C911.83,987.97,913.26,987.95,914.45,987.92z M930.49,842.82c-1.5,0.18-2.62,0.09-3.03,1.23
				c-0.55,1.55,0.62,1.99,1.78,2.37c3.33,1.09,6.18,3.06,9.18,4.79c2.56,1.48,5.28,2.72,8.01,3.88c1.05,0.44,2.48,0.39,2.99-0.94
				c0.63-1.63-0.92-1.71-1.89-2.25c-2.44-1.37-4.77-2.94-7.24-4.25C936.95,845.89,933.52,844.3,930.49,842.82z M914.13,913.75
				c-6.3-4.19-11.48,1.11-17.13,1.61c-0.66,0.06-1.11,0.74-0.87,1.5c0.28,0.91,1.11,1.28,1.93,1.29
				C903.73,918.2,909.92,920.29,914.13,913.75z M894,933.48c4.09,3.49,9.04,3.36,13.55,4.74c1.86,0.57,3.93,0.65,4.3-1.8
				c0.39-2.57-1.23-4.22-3.77-4.12C903.39,932.51,898.7,933.07,894,933.48z M894.09,996.6c1.49-0.33,4.01,0.6,4.2-2.05
				c0.15-2.11-2.01-2.36-3.6-2.68c-2.5-0.5-4.68-1.17-5.94-3.81c-0.79-1.66-2.54-2.11-4.24-1.02c-0.86,0.56-1.33,1.47-0.95,2.58
				C884.12,991.29,892.08,996.63,894.09,996.6z M936.61,887.8c-1.53-1.56-3.88-1.29-5.56-2.7c-3.13-2.62-6.78-2.37-10.08,0.17
				c-0.96,0.74-2.85,1.21-2,2.91c0.83,1.65,2.62,1.49,3.92,0.66c3.16-2.03,6.3-1.54,9.57-0.45
				C933.75,888.81,935.24,889.81,936.61,887.8z M893.05,928.77c4.36,1.19,8.66,1.09,12.83,2.22c1.62,0.44,3.39,0.01,4.19-1.81
				c0.47-1.09-0.2-2.18-1.22-2.29C903.44,926.32,898.1,926.64,893.05,928.77z M924.11,904.93c-0.63,1.92,3.99,2.19,1.5,4.23
				c-1.7,1.39-4.12,1.38-5.81-0.66c-0.81-0.98-1.65-1.6-2.97-1.37c-0.86,0.16-1.76,0.47-1.81,1.39c-0.03,0.51,0.53,1.21,1.01,1.58
				c3.38,2.54,9.95,2.43,13.44,0.04c1.91-1.31,2.36-2.61,0.04-3.53C927.8,905.94,926.4,903.87,924.11,904.93z M904.57,900.99
				c-1.93,0.46-5.68-1.31-6.23,1.37c-0.47,2.3,3.76,1.38,5.48,2.83c0.57,0.48,1.54,0.64,2.34,0.67c2.24,0.09,5.26,0.72,5.36-2.58
				c0.09-2.84-2.78-2.05-4.61-2.28C906.26,900.92,905.59,900.99,904.57,900.99z M921.35,967.99c0.32,0.09,0.98,0.19,1.57,0.46
				c1.02,0.45,2.26,1.67,3.04,0.33c1.07-1.83-1.28-1.81-2.01-2.7c-2.44-2.98-4.81-4.06-7.35-0.05c-0.66,1.04-2.06,0.93-3.2,1.1
				c-0.99,0.15-2.32,0.31-2.25,1.47c0.09,1.53,1.63,1.29,2.75,1.42C916.55,970.32,918.47,968.09,921.35,967.99z M898.77,987.45
				c2.96,0.21,5.47-1.06,7.92-2.45c0.81-0.46,2.09-0.73,1.59-2.03c-0.44-1.15-1.65-1-2.58-0.75c-3.03,0.81-6.04,1.61-9.23,1.57
				c-1.17-0.02-3.07-1.04-3.3,0.88c-0.21,1.74,1.72,2.16,3.14,2.54C897.1,987.41,897.95,987.37,898.77,987.45z M891.88,891.46
				c5.54,1.73,11,1.32,16.37-0.82C902.72,888.63,897.3,889.53,891.88,891.46z M906.03,951.99c3.53,1.52,6.47,2.91,9.49,4.04
				c1.26,0.47,2.64,0.15,3.28-1.35c0.36-0.85,0.17-2-0.63-2.07C914.36,952.31,910.94,947.94,906.03,951.99z M935.91,808.63
				c-1.47-5.56-5.35-7.16-9.5-8.32c-1.28-0.36-2.28,0.28-2.4,1.77c-0.07,0.83,0.15,2.3,0.7,2.11
				C929.44,802.49,931.33,807.59,935.91,808.63z M924.77,927.48c-4.17,1.38-4.6,4.62-4.86,7.98c-0.06,0.82-0.38,1.71,0.63,2.13
				c1.07,0.44,1.99-0.07,2.62-0.88C925.18,934.05,925.83,931.09,924.77,927.48z M908.38,974.71c-0.25-1.33-1.27-1.45-2.19-1.77
				c-4.41-1.55-6.78,2.43-10.08,3.83c-1.05,0.45,0.03,2.04,1.05,1.81c3.49-0.79,6.91-1.86,10.33-2.9
				C907.87,975.55,908.12,975,908.38,974.71z M909.64,944.11c-1.85,0.65-4.98-1.81-5.36,1.09c-0.24,1.83,3.22,1.56,5.07,1.52
				c2.37-0.06,6.4,2.21,6.69-1.08C916.25,943.11,911.86,944.94,909.64,944.11z M924.33,961.98c1.62-1.17,4.03-2.31,4.96-4.91
				c0.37-1.03-0.83-2.22-1.71-1.63c-2.19,1.47-4.28,3.23-6,5.21C921.09,961.21,922.59,962.04,924.33,961.98z M909.77,895.18
				c-1.39,0.17-3.55,0.13-3.33,1.47c0.47,2.81,3.38,1.85,5.3,2.3c1.15,0.27,2.72-0.15,2.39-1.6
				C913.62,895.12,911.39,895.46,909.77,895.18z M902.39,845.17c-3.11-2.87-5.74-1.27-8.21-1.29c-0.63,0-1.24,0.45-1.12,1.28
				c0.13,0.83,0.83,0.98,1.46,0.92C896.89,845.84,899.25,845.54,902.39,845.17z M889.12,869.64c1.36-0.25,3.21-0.19,3.28-2.09
				c0.06-1.54-1.56-1.33-2.63-1.39c-1.32-0.07-2.81-0.02-3.01,1.68C886.59,869.39,887.88,869.56,889.12,869.64z M906.61,962.38
				c2.52,0.09,4.67-0.22,5.19-2.85c0.16-0.81-0.36-1.82-1.23-1.87C907.28,957.46,908.21,961.01,906.61,962.38z M889.77,885
				c4.88,2.05,8.46,0.06,11.96,0.33C898.23,884.98,894.79,883.31,889.77,885z M948.48,819.39c-0.4-1.29-1.55-1.73-2.49-2.34
				c-1.17-0.77-1.98-2.51-3.8-1.64c-0.31,0.15-0.62,0.9-0.51,1.24c0.51,1.58,2.02,2.16,3.33,2.79
				C946.04,819.93,947.31,821.03,948.48,819.39z M945.45,810.86c-0.94-1.99-1.49-4.3-4.15-4.54c-0.35-0.03-1.21,1-1.11,1.3
				C941,810.13,943.42,810.16,945.45,810.86z M933.34,876.54c-0.17-1.31-1.05-2.03-2.22-2.33c-1.35-0.35-2.31,0.43-2.62,1.62
				c-0.41,1.56,0.79,1.98,2.01,2.06C931.66,877.96,932.86,877.95,933.34,876.54z"/>
			<path d="M1128.29,1020.88c2.44,1.4,4.07-0.87,5.19,0.94c1.12,1.8,0.53,3.58-0.63,5.11c-1.35,1.79-1.55,3.06,0.68,4.43
				c1.93,1.18,2.21,3.64,3.16,5.54c3.77,7.56,5.79,8.39,14.13,8.23c8.46-0.17,16.97-0.98,25.4,0.58
				c13.32,2.47,17.64,10.47,15.38,23.92c-2.03,12.09-11.11,15.61-19.92,20.19c-14.88,7.73-31.82,7.99-47.42,13.14
				c-3.16,1.04-6.55,1.19-9.9,0.94c-6.46-0.48-8.95-2.81-9.17-9.31c-0.26-7.63-0.21-15.27-0.24-22.91
				c-0.01-4.86-0.67-9.56-2.24-14.2c-1.65-4.86-2.67-9.81-3.29-15c-0.84-6.98-3.8-13.68-5.52-20.58
				c-4.73-19-14.92-35.88-20.91-54.42c-3.1-9.59-8.32-18.56-8.82-28.89c-0.54-11.22-3.52-22.33-2.11-33.59
				c0.67-5.36,1.54-10.87,3.78-15.91c1.78-4,2.37-8.16,0.98-12.16c-1.41-4.04-1.88-8.07-1.77-12.22c0.2-7.1-3.96-12.33-8.03-17.24
				c-3.05-3.68-8.39-2.78-12.7-3.23c-4.07-0.42-6.39-1.45-7.28-5.7c-2.38-11.38-5.12-22.81-4.29-34.45
				c1.15-16.13-1.08-31.77-4.5-47.38c-0.53-2.43-1.24-5.01-0.92-7.4c1.21-9.02-4.01-14.63-9.95-19.96
				c-3.96-3.55-8.34-6.64-11.45-11.07c-0.77-1.1-1.66-2.09-1.82-3.48c-0.15-1.22-0.03-2.45,1.09-3.11c1.49-0.88,2.13,0.52,2.66,1.44
				c4.39,7.56,12.64,11.47,17.54,18.61c1.63,2.37,4.02,1.47,4.48-1.54c2.08-13.61,6.95-26.18,13.42-38.27
				c1.45-2.71,2.49-5.73,3.98-8.48c0.47-0.87,0.89-2.19,2.03-1.64c1.31,0.63,0.8,2.01,0.28,3.07c-1.59,3.25-3.29,6.44-4.82,9.71
				c-4.36,9.29-7.43,19.12-11.03,28.69c-2.98,7.9-4.19,16.75-3.07,25.51c0.7,5.47,0.05,10.97,4.18,15.94
				c2.56,3.08,0.72,8.09,0.64,12.22c-0.08,3.88-0.1,7.62,2.19,11.04c1.42,2.12,0.83,4.52,0.14,6.77c-2.23,7.2-2.32,14.49-0.44,21.7
				c1.5,5.74,1.11,11.59,1.57,17.37c0.36,4.49,2.69,5.73,6.59,5.39c1.99-0.17,3.99-0.38,5.93-0.82c7.56-1.73,14.19,1.09,21.23,3.36
				c15.12,4.86,30.43,9.78,46.75,6.37c1-0.21,2.17-0.47,2.68,0.57c0.73,1.5-0.69,1.84-1.63,2.52c-5.47,3.91-11.79,2.71-17.38,1.68
				c-13.99-2.58-28.28-4.52-41.08-11.49c-1.1-0.6-2.27-0.98-3.18,0.09c-1.12,1.32,0.22,1.98,0.95,2.84
				c2.42,2.89,4.17,6.75,9.43,5.98c-2.56,1.43-3.44,2.85-1.68,5.39c1.37,1.98,2.43,4.39,2.86,6.75c0.39,2.13,0.72,3.59,3.2,3.3
				c1.79-0.21,4.25,0.82,4.46-2.45c0.08-1.3,1.01-2.12,2.34-2.13c0.89-0.01,1.51,0.62,1.86,1.44c0.51,1.16,0.61,2.35-0.51,3.16
				c-2.67,1.95-4.39,5.98-8.98,3.78c-1.49-0.71-3.34-0.28-4.08,1.77c-0.67,1.87,0.78,2.83,1.48,4.26c2.62,5.37,5.25,6.09,10.59,2.81
				c2.51-1.54,7.09,0.1,10.7,0.54c6.61,0.82,13.26,0.13,19.91,0.71c4.66,0.4,9.52-1.12,14.26-1.98c2.16-0.39,2.04-2.18,1.86-3.97
				c-0.48-5.05-2.58-9.72-2.68-14.99c-0.07-3.64,0.54-7.57-0.83-11.28c-0.55-1.47,0.41-3.16,2.29-3.13c2.34,0.04,2.07,1.92,1.5,3.29
				c-1.17,2.81,0.54,5.19,0.81,7.78c2.53,24.37,6.74,48.61,5.25,73.27c-0.34,5.67,1.35,11.17,1.48,16.86
				c0.19,7.81-0.15,15.51-0.88,23.29c-1.12,11.91-1.16,23.9-0.44,35.87C1134.37,1010.6,1134.19,1016.55,1128.29,1020.88z
				 M1116.86,1070.18c-2.77,0.68-7.66-1.32-8.52,4.08c-0.99,6.18-1.57,12.5-0.26,18.79c1.39,6.67,5.59,8.9,11.7,5.79
				c2.47-1.26,4.86-1.77,7.6-1.84c12.12-0.3,24.19-1.16,35.33-6.66c2.84-1.41,5.78-2.4,8.73-3.5c5.31-1.98,9.65-5.77,14.05-9.3
				c1.42-1.14,2.06-3.31,0.91-4.45c-1.73-1.74-2.98,0.55-3.78,1.68c-2.33,3.31-5.49,5.43-9.2,6.5c-5.95,1.72-11.34,4.75-17.11,6.82
				c-9.46,3.41-19.06,6.22-29.42,3.87c-2.65-0.6-6.05-0.72-7.69,2.89c-0.66,1.46-2.11,1.59-3.4,0.74c-1.18-0.77-1.15-1.97-0.5-3.09
				c0.76-1.3,1.72-2.6,1.27-4.17c-1.25-4.41,0.49-7.66,3.74-10.44c1.82-1.56,3.54-3.36,2.53-5.98
				C1121.85,1069.29,1119.32,1070.96,1116.86,1070.18z M1101.84,973.12c1.64,0.31,4.05,0.19,6.43-0.9
				c4.68-2.15,9.62-3.51,14.65-4.56c1.56-0.33,3.97,0.04,3.92-2.05c-0.05-2.19-2.4-1.59-3.99-1.72c-3.25-0.27-6.85,1.25-9.69-0.75
				c-2.56-1.81-5.16-2.1-7.99-2c-8.29,0.29-16.17,2.54-23.95,5.22c-1.67,0.57-3.54,1.24-2.33,3.36c1.03,1.8,2.92,1.26,4.38,0.23
				c4.72-3.32,10.55-2.64,15.69-4.43c0.95-0.33,2.15-0.06,2.34,1.17c0.14,0.9-0.73,1.52-1.53,1.72c-2.74,0.66-5.52,1.13-8.25,1.82
				c-1.21,0.31-2.93,0.61-2.42,2.45c0.38,1.37,1.85,1.25,2.99,1.07C1095.03,973.26,1097.94,972.46,1101.84,973.12z M1130.54,1062.23
				c-6.34-1.08-12.81,1.1-19.41,2.27c-1.36,0.24-2.81,0.58-2.65,2.31c0.14,1.45,1.52,1.4,2.68,1.64c2.93,0.6,5.47-1.14,8.29-1.21
				c10.74-0.24,21.48-0.37,32.17-1.65c1.19-0.14,2.59-0.04,2.8-1.43c0.27-1.74-1.35-2.03-2.6-2.42c-3.24-1-6.54-0.88-9.86-0.55
				C1138.33,1061.54,1134.69,1061.85,1130.54,1062.23z M1066,923.1c4.24,0.17,5.92-3.52,8.84-4.15c7.92-1.72,15.87-4.07,24.08-3.15
				c4.5,0.5,8.11-0.33,11.18-3.67c0.65-0.71,1.9-1.09,1.21-2.26c-0.58-0.98-1.86-1.06-2.66-0.43c-4.26,3.36-9.22,2.18-13.94,2.19
				c-6.35,0-12.85-0.12-18.35,3.29C1072.82,917.11,1067.06,916.88,1066,923.1z M1106.73,904.48c-0.57-1.51-1.41-3.63-3.74-3.54
				c-11.23,0.44-22.76-3.45-33.67,2.39c-1.67,0.9-3.85,1.05-2.81,3.52c0.89,2.11,2.78,1.98,4.64,0.99
				C1082.55,901.79,1094.64,905.26,1106.73,904.48z M1105.22,974.94c-3.24,0.34-6.85,0.89-10.47,1.07
				c-3.64,0.18-6.84,2.43-10.64,1.94c-1.34-0.17-2.57,0.83-2.44,2.5c0.11,1.37,1.17,2.07,2.37,2.12c1.46,0.06,3.14,0.18,4.38-0.42
				c4.8-2.34,9.95-2.21,15.04-2.56c1.81-0.12,3.62-0.27,5.41-0.57c1.01-0.17,1.84-0.85,1.72-2.06c-0.11-1.17-0.96-1.69-2.01-1.83
				C1107.59,974.99,1106.6,975.01,1105.22,974.94z M1113.15,1045.46c0.28,1.72,1.43,1.52,2.34,1.55c1.52,0.05,3.57,0,3.65,1.72
				c0.12,2.4-2.29,1.81-3.78,1.99c-2.97,0.36-5.97,0.58-8.49,2.44c-0.86,0.64-1.3,1.54-0.8,2.6c0.44,0.94,1.36,1.07,2.06,0.51
				c3.13-2.51,6.76-2.36,10.43-2.18c1.37,0.07,3.19-0.31,3.06-1.79c-0.22-2.44,1.08-4.89-0.12-7.23c-0.15-0.3-1.05-0.59-1.27-0.43
				C1118.07,1046.21,1115.43,1044.66,1113.15,1045.46z M1120.49,1012.4c-4.45-2.63-4.47-2.66-1.09-5.02
				c1.42-0.99,2.96-2.05,2.17-3.93c-0.96-2.28-2.85-0.8-4.31-0.49c-0.92,0.19-2.18,0.6-2.53,1.29c-1.17,2.33-2.65,3.61-5.43,3.17
				c-1.12-0.18-1.81,0.68-1.72,1.88c0.07,0.9,0.77,1.97,1.42,1.72C1112.72,1009.59,1115.78,1012.91,1120.49,1012.4z
				 M1155.09,1050.54c-4.31,0-5.46,0.37-5.62,1.68c-0.19,1.59,5.63,7.47,7.2,7.17c2.57-0.5,4.22-1.85,4.01-4.75
				C1160.4,1050.73,1157.77,1050.29,1155.09,1050.54z M1080.5,938.06c-2.82-0.98-4.85,3.24-8.35,3.05c-1.57-0.08-3.26,0.75-2.87,2.6
				c0.52,2.49,2.7,1.55,4.05,1c3.05-1.23,5.91-2.84,9.4-2.75c1.44,0.03,3.96,0.95,4.07-1.39c0.1-1.98-2.41-1.77-3.92-2.21
				C1082.4,938.22,1081.89,938.23,1080.5,938.06z M1101.33,997.01c-0.04,0.53-0.08,1.06-0.11,1.58c4.67,0.31,9.35,0.69,14.02,0.85
				c0.87,0.03,1.84-0.68,2.64-1.24c0.7-0.49,1.09-1.39,0.56-2.18c-0.31-0.47-1.16-1.05-1.55-0.92
				C1111.85,996.84,1106.37,995.41,1101.33,997.01z M1097.72,918.23c0-0.02,0-0.05-0.01-0.07c-1.98,0.18-3.97,0.31-5.94,0.55
				c-0.94,0.12-2.19,0.22-2.07,1.57c0.08,0.9,1.09,1.12,1.89,1.34c2.96,0.82,5.94,0.33,8.91,0.13c1.26-0.08,3.09-0.04,3.09-1.74
				c0-2.03-1.94-1.86-3.39-1.94C1099.38,918.02,1098.55,918.17,1097.72,918.23z M1163.25,1063.88c1.14,0.04,1.89-0.49,2.13-1.26
				c0.79-2.52,0.55-5.34,3.69-6.9c1.14-0.57-0.52-1.91-1.68-2.09c-2.03-0.32-7.25,5.27-6.84,7.27
				C1160.87,1062.46,1161.77,1063.57,1163.25,1063.88z M1093.65,893.16c-1.36,0.09-2.73-0.18-3.1,1.3c-0.09,0.37,0.61,1.29,1.08,1.4
				c3.39,0.79,6.8,1.53,10.24,2.09c1.19,0.2,2.39-0.35,2.34-1.91c-0.05-1.43-1.14-2.13-2.37-2.04
				C1098.97,894.23,1096.22,893.5,1093.65,893.16z M1099.89,929.71c-1.69,0.77-6.39-2.3-6.5,1.78c-0.08,2.74,4.96,1.87,7.77,1.85
				c2.28-0.01,6.1,0.54,6.02-2.47c-0.07-2.8-3.56-0.65-5.46-1.15C1101.42,929.64,1101.07,929.71,1099.89,929.71z M1121.57,923.98
				c1.83-0.11,3.66-0.18,5.49-0.34c1.16-0.1,2.61-0.2,2.45-1.79c-0.16-1.48-1.63-1.53-2.77-1.45c-2.48,0.19-4.96,0.5-7.43,0.86
				c-1.34,0.19-3.67-0.54-3.52,1.55c0.13,1.88,2.39,1.15,3.79,1.25C1120.23,924.12,1120.9,924.02,1121.57,923.98z M1109.93,888.07
				c4.83,1.7,8.85-1.71,13.39-1.88c0.74-0.03,1.42-0.95,1.01-1.91c-0.4-0.94-1.33-0.7-2.14-0.73
				C1117.53,883.37,1114.04,886.5,1109.93,888.07z M1110.7,1042.29c0.78,0.13,1.43,0.25,2.07,0.35c1.66,0.26,2.9-0.37,3.63-1.86
				c0.48-0.98,0.32-1.96-0.51-2.67c-1.21-1.04-2.44-0.42-3.67,0.07c-1.05,0.42-2.14,0.78-3.22,1.11c-1.27,0.38-3.57-0.38-3.34,1.76
				c0.2,1.88,2.35,1.1,3.71,1.24C1109.85,1042.33,1110.35,1042.29,1110.7,1042.29z M1097.52,1015.21c2.88-0.97,4.97-2.86,5.27-6.18
				c0.09-1.02-0.68-1.84-1.85-1.9c-1.85-0.1-6.22,4.57-6.07,6.37C1095.01,1015.11,1096.12,1015.18,1097.52,1015.21z M1081.5,948.01
				c-0.19-0.35-0.37-1.04-0.82-1.42c-1.79-1.49-8.43,1.41-8.69,3.8c-0.06,0.56,0.21,1.56,0.57,1.7c2.23,0.85,4.07-0.78,6.1-1.24
				C1079.97,950.57,1081.11,949.81,1081.5,948.01z M1113.1,1031.72c-4.12-0.52-6.55,2.15-9.62,1.88c-1.2-0.1-2.9,0.51-2.56,2.25
				c0.36,1.88,2.15,1.86,3.6,1.6C1107.88,1036.83,1109.96,1034.34,1113.1,1031.72z M1114.13,987.57c-0.08-0.01,0.25,0.06,0.58,0.11
				c1.78,0.28,3.7,1.02,4.87-1.14c0.52-0.95,0.43-2.03-0.37-2.77c-1.83-1.69-3.39-0.38-4.88,0.67c-1.13,0.8-2.13,1.6-3.58,0.6
				c-0.76-0.53-1.9-1.37-2.19,0.37c-0.17,1.04,0.58,1.97,1.68,2.13C1111.39,987.7,1112.56,987.57,1114.13,987.57z M1097.3,939.42
				c2.77,2.94,6.06,2.03,9.08,2c1.32-0.01,2.08-1.01,1.82-2.43c-0.2-1.15-1.14-1.97-2.11-1.62
				C1103.34,938.36,1100.15,937.58,1097.3,939.42z M1124.97,945.74c-2.73,1.64-5.37,1.06-8.07,0.47c-1.61-0.35-3.08,0.38-3.28,2.14
				c-0.25,2.26,1.66,2,3.07,2.11C1120.3,950.74,1123.35,949.9,1124.97,945.74z M1094.4,951.37c0.1,0.56,0.21,1.12,0.31,1.68
				c2.96,0,5.92,0.04,8.88-0.02c0.83-0.02,1.77-0.37,1.82-1.34c0.02-0.48-0.59-1.38-1-1.43
				C1100.97,949.83,1097.41,948.99,1094.4,951.37z M1129.61,934.45c-4.08-1.85-7.14-1.41-10.17-1.07c-0.52,0.06-1.32,0.67-1.38,1.12
				c-0.14,1.02,0.74,1.4,1.6,1.3C1122.57,935.45,1125.46,935.02,1129.61,934.45z M1127.27,1055.77c2.92,0.9,5.02,3.21,7.57,0.59
				c0.74-0.76,0.82-2.03-0.17-2.61C1131.91,1052.13,1129.85,1053.62,1127.27,1055.77z M1118.89,942.59c3.18,0.46,5.6-0.8,8.12-1.18
				c0.48-0.07,1.18-0.82,1.2-1.28c0.05-1.07-0.96-1.21-1.76-1.2C1123.68,938.97,1120.79,938.82,1118.89,942.59z M1105.91,1019.51
				c-0.03-0.77-0.5-1.36-1.19-1.27c-2.26,0.3-4.53,0.66-6.74,1.22c-0.81,0.21-1.27,1.31-0.48,1.97c1.87,1.57,3.74-0.2,5.63-0.27
				C1104.28,1021.12,1105.44,1020.82,1105.91,1019.51z M1124.26,926.94c-0.97,0.53-3.17-0.19-3.1,1.88c0.06,1.54,1.93,1.5,3.18,1.43
				c1.37-0.08,3.42,0.05,3.38-1.83C1127.7,926.84,1125.75,927.23,1124.26,926.94z M1134.27,1036.46c-0.01-1.31-0.31-2.56-1.71-2.57
				c-1.93-0.01-2.21,1.61-2.29,3.11c-0.06,1.19,0.22,2.46,1.68,2.48C1133.92,1039.48,1134.06,1037.83,1134.27,1036.46z"/>
			<path d="M1040.67,242.32c3.3-0.43,4.2-3.56,6.04-5.56c0.94-1.03,0.58-3.17-1.03-3.12c-7.57,0.25-5.56-5.59-6.42-9.63
				c-0.07-0.31,0.17-0.83,0.01-0.97c-5.54-4.77-0.16-7.04,2.29-9.92c0.93-1.09,1.58-2.22,1.17-3.62c-0.64-2.2-0.32-4.13,0.63-6.25
				c1.41-3.11-0.22-5.76-2.09-8.24c-0.96-1.28,0.17-10.19,1.44-10.9c1.68-0.94,1.95,0.55,2.23,1.63c0.71,2.76-1.16,5.16-1.19,7.82
				c-0.02,1.47-0.32,3.3,1.68,3.63c1.69,0.28,2.03-1.36,2.54-2.58c0.65-1.53,1.32-3.05,2.01-4.56c1.53-3.34,1.07-5.95-2.23-8.14
				c-4.75-3.15-9.77-13.63-9.92-19.97c2.18,0.04,2.54,1.84,3.14,3.3c1.7,4.08,1.67,4.1,6.36,2.87c-4.33,3.71-1.55,6.47,0.2,9.32
				c0.46,0.75,1.12,1.27,2.07,0.85c0.91-0.4,0.96-1.24,0.95-2.1c-0.07-5.76-1.73-11.02-4.92-15.8c-4.05-6.07-7.94-12.41-13.25-17.35
				c-4.99-4.64-11.86-6.45-18.24-8.78c-2.13-0.78-4.53-0.89-6.81-3.13c5.2,0.04,9.93-0.12,13.91,2.42
				c6.25,3.99,12.37,3.27,18.36,0.03c3.09-1.67,5.9-1.66,10.31-0.57c-4.61,2.11-8.6,2.67-12.11,4.55c-3.69,1.98-3.18,3.91-1.14,6.16
				c1.69,1.86,3.41,3.51,4.12,6.06c0.64,2.29,2.11,2.94,4.05,1.12c0.87-0.82,1.72-1.93,2.74-0.3c0.6,0.97,1.2,2.16-0.19,3.06
				c-1.15,0.74-1.91,1.95-1.01,2.9c3.93,4.16,4.18,10.44,8.43,14.33c2.04,1.86,2.37,3.29,0.49,5.74c-4.96,6.44-4.25,19.18,1,25.15
				c3.27,3.72,1.99,7.49-0.31,10.97c-0.96,1.45-1.98,2.49-1.37,4.41c2.41,7.61,1.13,15.12-0.64,22.65
				c-0.72,3.06-2.54,5.55-5.02,6.44c-3.68,1.32-4.11,3.97-4.54,6.95c-0.56,3.93,0.7,8-1.04,11.86c-0.44,0.98,0.34,1.97,1.16,2.57
				c7.68,5.53,13.97,12.68,24.18,14.91c8.07,1.77,15.49,6.47,23.71,8.73c7.18,1.98,14.3,4.2,21.19,7.25
				c5.76,2.55,10.49,5.59,14.31,10.85c5.75,7.91,13.05,14.65,18.45,22.89c2.85,4.35,4.64,9.02,4.9,14.39
				c0.45,9.28-0.02,18.25-4.95,26.51c-1.23,2.07-0.48,4.59-0.57,6.9c-0.42,10.84-2.17,21.49-6.18,31.54
				c-2.46,6.16-7.39,10.94-11.61,16.04c-0.76,0.93-1.96,1.6-2.98,0.36c-1.24-1.5-0.57-2.93,0.84-3.81c3.2-1.99,5.26-5.04,7.7-7.77
				c6.68-7.48,6.46-17.16,8.54-26.11c0.22-0.94-0.04-2.37-1.22-2.36c-1.83,0.03-2.99,1.61-3.59,3.09c-1.97,4.92-5.25,8.83-9.02,12.4
				c-0.34,0.32-0.78,0.54-1.69,0.53c2.71-3.23,3.59-7.43,5.9-10.72c6.23-8.86,12.13-18.1,14.57-28.54c2.66-11.38,2.85-23-5.02-33.36
				c-5.6-7.38-11.76-14.31-17.3-21.76c-3.78-5.09-10.8-8.28-17.32-10.37c-12.31-3.95-25.08-6.51-36.71-12.51
				c-3-1.55-7.11-1.26-9.64-0.73c-6.33,1.34-9.2-5.47-14.86-4.78c-1.21,0.15-1.29-1.73,0.05-2.53c1.11-0.67,2.71,0.07,3.92-1.46
				c-1.32-2.67-3.59-4.57-6.26-5.89c-2.81-1.39-5.89-2.16-8.8-3.37c-3.66-1.52-5.93,2.07-9.02,3.96c-0.36-1.75,2.34-3.42,0.03-4.77
				c-1.41-0.83-2.65-1.75-4.58-1.48c-14.27,2.01-28.79,2.1-42.87,5.58c-0.81,0.2-1.61,0.43-2.39,0.74c-1.8,0.71-4.3,0.98-3.99,3.66
				c0.31,2.64,2.45,3.26,4.83,3.32c1.58,0.04,3.34-0.6,4.75,1.09c-0.91,1.67-2.47,1.25-3.86,1.18c-3.13-0.17-6.36-0.96-8.74,2.1
				c-0.33,0.42-1.42,0.8-1.76,0.59c-4.37-2.79-9.45-1.43-14.09-2.52c-1.94-0.46-3.52-1.72-4.39-3.57c0.52-1.13,1.46-1.05,2.18-0.78
				c7.97,2.92,12.21-3.38,17.45-7.08c1.28-0.9,1.35-2.76,0.26-3.54c-3-2.14-3.72-5.88-6.17-8.26c-3.23-3.13-6.28-6.09-4.32-11.19
				c0.5-1.29-0.26-2.64-1.57-2.55c-4.16,0.29-5.31-2.86-6.75-5.58c-1.15-2.17-2.07-2.8-4.6-1.46c-7.48,3.96-15.11,7.67-22.81,11.19
				c-4.11,1.88-5.41,4.4-4.95,9.02c0.83,8.37,4.15,14.84,11.27,19.41c2.36,1.51,4.68,2.33,7.5,2.1c1.86-0.15,3.98-0.74,5.61,1.24
				c-3.96,2.87-8.55,3.55-13.06,4.2c-2.14,0.31-5.02,0.89-4.8-3.04c0.09-1.52-1.15-1.85-2.31-2.14c-2.26-0.56-4.64-0.83-6.76-1.71
				c-3.1-1.29-7.02-1.68-6.41-7.02c0.37-3.16-3.07-4.43-5.61-5.65c-1.34-0.64-2.88-0.86-4.25-1.45c-0.48-0.21-0.98-0.94-1.02-1.47
				c-0.06-0.78,0.76-1.02,1.42-1.07c0.66-0.04,1.32,0.12,1.99,0.13c1.27,0.02,3.22,0.58,3.28-1.17c0.07-2.05-1.89-1.12-3.1-1.14
				c-4.14-0.09-8.28-0.15-12.41-0.31c-1.61-0.06-3.32,0.05-5.24-1.83c5.23-0.38,9.89-0.75,14.56-1.05c0.98-0.06,2.29,0.61,2.9,0.17
				c3.92-2.81,5.92-0.32,7.87,2.58c0.67,1,1.42,1.97,2.82,1.33c1.07-0.49,1.17-1.56,1.16-2.56c-0.04-4.08-0.7-7.67-5.72-8.53
				c-2.11-0.36-4.13-1.26-6.19-1.92c-0.98-0.31-2.12-0.72-1.63-2c2.17-5.72-2.34-5.73-5.68-6.73c-1.32-0.39-3.69,0.39-3.6-1.59
				c0.08-1.89,2.37-1.52,3.74-1.29c5.03,0.84,6.7-3.67,8.36-6.37c1.44-2.36-2.23-4.59-4.88-6.09c3.2-3.1,5.65-2.85,7.9,0.57
				c0.72,1.09,1.64,2.14,2.68,2.93c2.59,1.96,4.58,3.81,0.86,6.59c-0.68,0.51-0.77,1.52,0.11,2.15c0.78,0.56,1.73,0.47,2.19-0.33
				c1.23-2.14,4.38-3.58,2.6-6.88c-0.55-1.03-1.23-2.33,0.2-3.01c1.28-0.61,1.4,1.01,2.04,1.65c0.7,0.7,1.6,1.98,2.2,1.87
				c7.63-1.45,3.01,4.45,4,6.84c0.41,0.97-0.74,2.5-0.86,3.81c-0.2,2.18,0.32,4.24,3.05,4.11c2.53-0.12,2.96-2.26,2.3-4.05
				c-1.02-2.78-0.43-4.99,0.82-7.53c1.17-2.37,0.36-5.19-1.12-7.13c-2.6-3.43-1.61-5.95,1.51-9.03c-0.34,3.35,0.36,5.85,1.71,8.4
				c1.35,2.53,0.89,5.44-0.47,8.17c-1.06,2.15-1.38,4.65,0.53,6.53c2.34,2.3,3.78-0.34,5.51-1.35c0.85-0.5,1.87-0.73,2.69-1.27
				c5.43-3.56,5.08-3.75,0.27-7.99c-6.01-5.3-7.14-7-1.67-12.88c1.98,1.24,0.21,3.05,0.67,4.5c0.56,1.75,0.31,4.78,3.53,2.43
				c1.88-1.38,1.78,0.22,2.22,1.19c0.57,1.27,0.39,3.63,2.36,3.17c1.76-0.41,1.61-2.66,1.74-4.3c0.09-1.13-0.45-2.33,1.44-4.73
				c-0.89,6.83,2.89,11.29,3.26,16.7c0.08,1.16,0.02,2.35,0.27,3.47c0.41,1.81,1.5,3.19,3.54,2.49c1.98-0.68,1.29-2.31,0.89-3.79
				c-1.61-5.87-4.47-11.39-4.41-17.73c0.02-2.03,0.65-3.96,0.49-5.92c-0.23-2.73-1.75-5-4.58-5.03c-3.02-0.03-2.34,2.55-2.16,4.52
				c0.15,1.61,0.01,3.29-2.02,3.29c-2.58,0-4.38-1.57-5.18-3.96c-0.58-1.72,0.09-2.82,2.17-2.95c4.69-0.28,3.02-4.27,3.56-6.88
				c1.92-0.01,2.68,2.73,4.58,1.56c2.01-1.25,1.04-3.32,0.97-5.04c-0.15-3.99-0.54-7.98-0.69-11.97c-0.12-3.05-1.42-4.74-4.36-3.1
				c-14.26,7.99-30.97,9.99-44.99,18.54c-3.5,2.13-6.26,4.49-6.68,9.19c-0.45,4.96-3.47,6.32-7.64,3.78
				c-2.76-1.68-4.87-1.3-7.3,0.44c-3.56,2.56-6.05,5.91-8.16,9.68c-3,5.36-5.77,10.82-7.35,17.94c-2.64-4.08,0.19-6.53-0.06-9.17
				c-1.09-11.51,5.56-18.04,15.08-21.99c8.26-3.42,15.11-8.96,22.71-13.32c10.83-6.22,22.96-9.5,34.62-13.82
				c2.49-0.92,4.85-2.18,7.35-3.07c4.39-1.56,6.99-3.73,7.28-9.19c0.34-6.51,3.6-12.32,8.57-16.87c8.18-7.48,15.1-16.36,24.88-22.06
				c2.67-1.56,5.21-1.76,8.96,0.21c-6.13,2.04-11.46,3.8-15.44,7.89c-7.94,8.17-17.77,14.62-22.95,25.32
				c-1.05,2.16-1.72,4.26-1.75,6.66c-0.12,9.9,0.74,19.81-0.49,29.68c-0.15,1.17-0.64,2.47,0.25,3.35
				c4.06,3.99,3.58,9.08,3.58,14.06c0,5.69,2.87,10.73,4.03,16.17c0.9,4.21,0.1,8.42,1.56,12.65c2.32,6.72,7.49,11.31,11.25,16.85
				c1.96,2.88,8.18,2.23,11.77,1.33c8.2-2.04,16.94-1.19,24.79-5.05c2.07-1.02,4.03-2.28,6.16-3.17c1.92-0.8,4.11-3.91,5.15,1.19
				c0.44,2.15,8.96,1.36,9.58-1.05c1.3-5.1,5.36-7.74,8.68-11.08c1.55-1.56,3.18-3.05,2.43-5.6L1040.67,242.32z M918.47,241.76
				c-2.59-0.79,1.02-5.82-3.48-5.83c-1.79-0.01-4.1,1.47-3.76,3.82c0.4,2.77,2.66,4.53,5.26,5.21
				C918.11,245.39,918.67,243.92,918.47,241.76z M1053.05,219.7c0.06-0.91,0.05-2.54-1.73-2.5c-2.63,0.07-1.85,3.17-3.36,4.44
				c-1.11,0.93-1.3,2.33-0.1,3.5c0.83,0.81,1.79,1.62,3.05,1.35c1.23-0.27,1.15-1.45,1.32-2.41
				C1052.47,222.78,1052.72,221.47,1053.05,219.7z"/>
			<path d="M921.87,537.88c-2.3,4.22-6.91,5.53-10.69,6.15c-8.48,1.38-9.42,7.91-10.34,13.82c-2.41,15.43-4.71,30.82-10.77,45.37
				c-0.57,1.37-1.25,2.88-1.2,4.3c0.72,18.76,0.46,37.79,11.75,54.22c2.05,2.98,4.6,5.74,7.34,8.11
				c7.26,6.28,11.85,14.74,18.33,21.67c7,7.49,15.68,12.85,23.37,19.44c1.62,1.38,3.18,2.83,4.53,4.57
				c-3.48-0.53-5.84-3.04-8.61-4.76c-7.78-4.82-15.31-9.97-21.97-16.36c-5-4.79-7.98-11.07-12.59-16.11
				c-0.96-1.05-1.75-2.9-3.48-2.38c-1.96,0.59-1.75,2.59-1.7,4.24c0.3,10.02,3.08,18.53,9.75,26.85
				c9.17,11.44,17.41,23.85,24.49,36.85c0.47,0.87,0.94,1.82-0.7,3.04c-3.56-5.07-7.06-10.17-10.69-15.17
				c-5.56-7.65-10.17-16.42-17.09-22.56c-9.21-8.18-8.23-18.22-8.14-28.14c0.06-6.36-1.39-11.06-5.21-16.27
				c-7.44-10.16-11.7-21.89-11.81-34.78c-0.03-3.66,0.51-7.44-0.22-10.96c-2.14-10.36,1.72-19.51,4.53-29.07
				c2.86-9.71,4.38-19.8,6.8-29.65c2.91-11.83,3.41-24.42,9.37-35.29c4.25-7.76,2.85-14.28-1.13-21.4
				c-3.1-5.54-3.16-11.8-1.71-17.99c1.53-6.51,1.75-13.18,2.22-19.8c0.25-3.47-0.74-6.85-2.24-10.13
				c-2.94-6.44-3.79-13.46-4.47-20.4c-0.56-5.68-1.77-11.13-3.31-16.59c-1.43-5.07-0.61-10.31,0.24-15.36
				c0.66-3.93-0.2-7.1-3.15-9.36c-5.17-3.97-7.49-9.75-9.88-15.3c-5.26-12.2-10.53-24.54-17.6-35.64
				c-7.46-11.71-9.38-24.93-13.68-37.49c-1.46-4.26-0.84-9.21-0.05-13.87c2-11.76,6.8-22.98,6.26-35.26
				c-0.14-3.16,1.63-6.37,1.85-9.72c0.08-1.19,0.46-3.04,2.2-2.7c1.53,0.3,0.8,1.88,0.74,2.98c-0.1,1.82-0.31,3.65-0.23,5.46
				c0.09,2.08-0.76,5.54,3.48,3.02c0.58-0.34,1.46-0.32,1.68,0.43c0.16,0.53,0,1.48-0.39,1.8c-2.28,1.89-2.56,4.04-1.46,6.69
				c0.95,2.31-1.04,3.74-2.15,5.25c-4.56,6.21-7,13.18-7.93,20.74c-0.18,1.43-0.73,3.36,1.09,3.93c1.87,0.59,2.4-1.24,2.95-2.64
				c0.84-2.16,1.74-4.29,2.53-6.47c0.42-1.16,0.24-3.18,2.24-2.21c1.36,0.65,0.29,1.94-0.16,3.02c-4.16,10.12-6.82,20.45-4.86,31.56
				c0.74,4.17,2.27,8,4.01,11.78c0.58,1.26,1.16,3.27,2.93,2.91c1.78-0.37,1.61-2.43,1.46-3.81c-0.65-5.69,0.53-11.31,0.39-16.97
				c-0.03-1.26-0.46-3.16,1.27-3.31c2.18-0.19,1.93,1.94,1.91,3.31c-0.12,8.49-0.31,16.98-0.57,25.47
				c-0.12,3.87,0.71,7.14,2.56,10.8c4.2,8.34,10.25,15.79,11.67,25.65c0.67,4.66,4.14,8.93,6.45,13.32c0.53,1,1.47,2.01,2.84,1.39
				c1.14-0.51,0.81-1.68,0.77-2.65c-0.08-1.77-1.19-3.5-0.26-5.33c1.85-0.41,1.81,1.02,2.1,2.06c0.23,0.79,0.05,1.95,0.54,2.38
				c8.06,7.14,3.67,15.21,1.8,23.08c-0.66,2.79-0.9,5.56-0.35,8.41c2.32,12.1,4.01,24.36,7.07,36.27c1.95,7.61,4.36,15.34,8.9,22.06
				c0.65,0.96,2.24,2.27,0.42,3.3c-1.29,0.73-1.85-0.96-2.56-1.8c-0.9-1.07-1.06-3.35-2.95-2.84c-1.88,0.51-1.92,2.64-1.81,4.26
				c0.21,3.39-0.75,6.57-1.21,9.85c-1,7.1-0.38,14,5.3,19.3c1.53,1.42,1.11,2.49,0.22,3.87c-0.79,1.22-0.92,2.58,0.16,3.68
				c1.38,1.4,2.6,0.21,4.03-0.24c6.26-1.97,12.4-4.16,18.14-7.41c0.44-0.25,1.22,0.08,1.82,0.14c0.2,2.1-1.27,2.41-2.47,2.81
				c-5.49,1.85-10.2,5.34-15.9,6.92c-5.05,1.4-13.76,16.45-13.61,21.93c0.06,2.16,1.21,2.98,3.23,2.74
				c0.47-0.06,0.99-0.27,1.36-0.57c3.71-3,7.59-4.94,12.35-2.31L921.87,537.88z"/>
			<path d="M1113.52,437.57c0.29,1.33-0.42,1.95-1.17,2.17c-7.5,2.18-7.25,8.13-6.88,14.08c0.63,10.13,3.88,19.95,3.39,30.24
				c-0.42,8.65-0.39,17.34-5.75,24.81c-0.86,1.2-1.66,2.54-2.79,3.45c-4.95,4.01-6.48,7.83-4.53,13.9
				c3.11,9.69,2.29,19.65,3.29,30.51c-3.89-3.07-3.35-7.01-4.93-9.94c-1.59-2.94-2.19-6.66-7-4.75c-1.13,0.45-1.6-0.79-2.26-1.54
				c-3.6-4.1-8.18-6.63-13.37-8.2c-1.88-0.57-3.85-0.65-5.6-1.92c-14.13-10.25-30.74-11.59-47.32-12.9
				c-2.07-0.16-5.59,0.67-5.47-1.69c0.16-3.02,3.67-1.39,5.76-1.55c9.04-0.69,17.78,1.68,26.47,3.38
				c6.41,1.26,12.79,3.89,18.53,7.08c8.12,4.51,17.11,7.27,24.73,12.81c3.84,2.8,5.13,1.5,5.5-3.45c0.51-6.76-3.17-12.36-4.54-18.59
				c-0.64-2.9-3.57-3.46-6.11-3.24c-9.15,0.81-16.85-2.84-24.38-7.35c-3.43-2.05-7.1-3.5-11.18-4.05
				c-3.41-0.46-6.84-0.97-10.13-2.43c-3.06-1.36-6.56-1.43-9.53,0.72c-1.58,1.15-3.23,1.64-5.1,1.69
				c-8.68,0.24-17.03,2.67-25.56,3.86c-6.25,0.87-12.48-0.42-18.73-0.62c-0.81-0.03-1.6-0.48-2.42-0.58
				c-1.35-0.17-2.99-0.26-3.45,1.24c-0.59,1.91,1.46,1.76,2.48,2.41c0.36,0.23,0.59,0.65,1.09,1.24c-2.29,1.1-3.88,0.38-5.63-0.79
				c-4.14-2.79-8.08-2.78-12.38,0.32c-5.28,3.81-11.68,5.53-17.89,7.01c-3.1,0.74-5.97,2.7-10.8,2.65c4.14-2.4,6.89-4.99,10.26-5.02
				c6.58-0.04,11.13-5.09,17.18-6.18c0.89-0.16,1.55-0.85,1.13-1.81c-0.44-1.01-1.56-1.44-2.52-1.29
				c-3.77,0.57-7.52,1.27-11.26,2.03c-1.54,0.31-3.04,1.42-4.89-0.29c5.69-4.11,12.1-5.78,18.64-5.64
				c10.76,0.23,21.52,1.07,32.24,2.16c6.64,0.67,13-0.45,19.26-1.97c3.76-0.92,7.42-1.63,11.27-1.71c3.32-0.06,6.56-0.29,9.65-2
				c3.06-1.69,6.53-0.97,9.81-0.4c10.1,1.76,19.5,5.65,28.52,10.3c8.59,4.43,17.88,3.43,26.89,4.28c4.08,0.38,8.52-5.9,9.07-12.37
				c0.84-9.97,1.46-20.3-0.74-29.88c-3.45-15.01-2.17-29.72-0.95-44.61c0.15-1.82,0.17-3.67,0.53-5.46
				c0.31-1.56,1.23-2.92,3.13-2.31c1.43,0.46,2.36,1.87,1.56,3.16c-2.26,3.64-0.76,7.83-2.11,11.63c-1.96,5.55-0.75,6.94,5.29,7.1
				C1112.42,437.3,1113.02,437.48,1113.52,437.57z"/>
			<path d="M1134.62,728.38c0.03-4.78-2.81-8.85-3.17-13.29c-0.9-10.95-5.65-20.44-10.18-30.04c-2.14-4.54-2.4-8.69,0.09-13.24
				c2-3.64,2.58-7.64,2.36-12c-0.31-6.25,1.65-12.43,1.59-18.78c-0.13-14.98,0.31-29.99-5.36-44.32
				c-3.22-8.14-8.78-14.81-13.21-22.19c-1.54-2.56-2.87-5.25-4.15-7.94c-0.39-0.81-0.82-2.04,0.47-2.55
				c0.91-0.36,1.54,0.45,1.98,1.15c4.65,7.26,9.15,14.61,13.92,21.78c14,21.03,10.34,44.48,8.65,67.37
				c-1.26,17-0.46,33.3,5.15,49.58c2.62,7.58,2.62,16.07,3.8,24.15C1135.92,728.16,1135.27,728.27,1134.62,728.38z"/>
			<path d="M922.03,538.02c-0.3-0.75-0.51-1.56-0.93-2.23c-0.47-0.74-2.05-1.09-1.05-2.28c0.77-0.92,1.83-0.42,2.62,0.31
				c1.42,1.32,2.99,1.33,4.61,0.49c9.52-4.96,20.24-6.37,30.11-10.27c8.35-3.3,17.35-4.09,25.77-6.63
				c6.27-1.89,12.31-2.02,18.52-2.45c1.2-0.08,2.65-0.46,3.89,1.06c-2.17,2-4.84,1.98-7.4,2.02c-14.2,0.23-27.69,4.06-40.95,8.54
				c-9.02,3.05-17.75,6.91-27.15,8.83c-2.78,0.56-4.8,3.82-8.2,2.46C921.87,537.88,922.03,538.02,922.03,538.02z"/>
			<path d="M1028.22,1058.67c-1.86,1.63-3.73,0.94-5.41,0.54c-12.45-2.94-25.05-4.99-37.68-6.98c-7.59-1.2-14.48-4.74-19.52-11.08
				c-1.52-1.91-1.81-3.26,0.16-5.05c1.56-1.41,3.31-2.81,3.86-5.07c0.23-0.96,0.47-2.15,1.88-1.56c1.07,0.45,1.31,1.53,0.96,2.53
				c-0.32,0.92-0.73,2.02-1.46,2.55c-4.9,3.55-2.05,6.08,1.13,8.32c5.54,3.91,12,6.03,18.5,7.02c11.98,1.81,23.61,5.14,35.53,7.12
				C1027.01,1057.16,1027.78,1057.44,1028.22,1058.67z"/>
			<path d="M994.21,1011.89c7.78,9.85,19.42,11.78,30.18,15.35c6.27,2.08,12.68,3.77,18.98,5.79c4.59,1.47,9.3,0.32,13.9,0.9
				c2.14,0.27,5.95-0.38,5.63,2.33c-0.31,2.64-3.62,0.76-5.56,0.43c-6.53-1.11-13.36-0.54-19.59-3.17
				c-5.33-2.25-11.27-2.32-16.49-4.91c-0.87-0.43-1.98-0.91-2.85-0.73c-9.22,1.91-14.5-5.16-21.09-9.19
				C995.03,1017.28,995.3,1014.32,994.21,1011.89z"/>
			<path d="M1029.38,508.04c14.49-3.47,26.97,2.76,39.72,7.76c5.12,2,10.08,4.23,14.21,7.97c0.9,0.82,1.97,1.88,1.1,2.91
				c-1.15,1.38-1.86-0.12-2.65-0.94c-3.46-3.57-8.23-4.78-12.61-6.53c-8.61-3.44-17.34-6.63-26.12-9.62
				C1038.65,508.1,1033.9,508.66,1029.38,508.04z"/>
			<path d="M965.09,776.54c-21.04-5.26-45.35-22.47-46.09-36.16C930.18,758.12,947.53,767.44,965.09,776.54z"/>
			<path d="M1050.13,658.19c-2.87,8.38-8.44,15.26-13.25,22.44c-5.7,8.51-9.38,17.65-12.72,27.16c-1.34,3.81-2.64,7.61-3.22,11.81
				c-2.66-1.12-2.4-3.1-1.91-4.43c4.67-12.57,7.84-25.76,16.48-36.63c4.51-5.67,8.18-12.03,12.2-18.09
				c0.65-0.98,1.16-2.05,2.53-2.14L1050.13,658.19z"/>
			<path d="M903.11,760.15c0.88-8.2-1.55-16.14-1.86-24.19c-0.3-7.89,1.24-15.85,2.05-23.78c0.13-1.23,0.12-2.71,2.34-3.52
				c1.57,5.63,1.21,11.38-0.14,16.53c-2.32,8.87,0.06,17.32,0.6,25.94c0.22,3.47,1.22,7.08-3.13,8.89
				C902.98,760.02,903.11,760.15,903.11,760.15z"/>
			<path d="M1036.36,758.82c-0.72-6.7,1.7-13.06,3.36-19.29c2.25-8.44,4.63-16.87,7.07-25.27c0.43-1.47,0.23-4.06,2.32-3.64
				c1.96,0.4,1.06,2.76,0.79,4.3c-1.77,10.33-6.69,19.74-8.83,29.96c-1,4.78-2.22,9.51-3.34,14.26
				C1037.28,759.03,1036.82,758.92,1036.36,758.82z"/>
			<path d="M1034.51,232.26c1.12,0.14,2.44-0.09,3.1,1.12c0.69,1.26-0.35,2.08-0.91,3.08c-2.08,3.71-4.84,7.07-5.81,11.35
				c-0.22,0.97-0.54,2.01-1.83,1.94c-1.26-0.07-1.5-1.12-1.68-2.1c-0.22-1.18-0.52-2.34-1.74-2.81c-5.96-2.28-2.18-3.94,0.41-5.45
				c2.04-1.19,3.99-2.22,4.54-4.85C1031,232.54,1032.77,232.3,1034.51,232.26z"/>
			<path d="M1022.98,441.71c10.11-2.98,33.77,10.4,38.15,21.44C1049.12,454,1038.27,445.05,1022.98,441.71z"/>
			<path d="M1146.67,839.56c0.28-14.24-4.57-27.93-4.49-42.9C1146.7,802.03,1149.89,831.35,1146.67,839.56z"/>
			<path d="M1086.61,1093.8c-7.8-2.06-16.52-0.72-23.17-7.02c-0.56-0.53-1.41-0.82-2.17-1.08c-5.63-1.92-6.24-3.25-3.89-10.76
				c0.29,10.21,8.33,9.7,13.92,12.09c5.07,2.16,10.46,3.57,15.71,5.31C1086.87,1092.83,1086.74,1093.31,1086.61,1093.8z"/>
			<path d="M1060.27,147.72c-0.03-1.68,1.22-2.48,2.33-2.91c2.3-0.89,4.32-2.22,2.74-4.67c-1.36-2.11-3.97-2.98-6.62-1.63
				c-1.8,0.92-3.75,3.24-5.29,0.11c-0.63-1.28-1.34-3.43-0.22-4.71c1.1-1.26,2.34,0.49,3.51,0.9c1.84,0.64,3.63,0.01,5.44,0
				c4.57-0.04,8.03,3.1,7.86,7.07c-0.09,2.12-0.15,4.14-3.31,3.33C1064.09,144.53,1063.35,149.13,1060.27,147.72z"/>
			<path d="M1123.78,385.21c-1.9-3.11-1.05-6.26-0.35-9.11c1.49-6.06,1.9-12.13,1.58-18.3c-0.02-0.33-0.06-0.67-0.01-1
				c0.25-1.52-0.34-3.91,1.9-3.89c1.86,0.02,1.57,2.26,1.55,3.67c-0.09,4.16-0.04,8.35-0.58,12.46
				C1127.17,374.56,1124.65,379.63,1123.78,385.21z"/>
			<path d="M1138.67,733.43c0,13.32,0,26.64,0,39.96c-0.43,0.01-0.87,0.02-1.3,0.03c0.1-13.33-1.97-26.62-0.22-39.97
				C1137.66,733.45,1138.16,733.44,1138.67,733.43z"/>
			<path d="M1048.76,751.66c1.18,3.87,1.73,7.77,2.25,11.64c0.49,3.66-3.34,6.12-4.65,9.53c-1.38,3.59-4.28,6.59-4.94,10.63
				c-0.12,0.75-0.42,1.77-1.53,1.55c-1.04-0.2-0.97-1.2-1.01-2c-0.12-2.7,1.75-4.65,2.91-6.74c4.06-7.29,7.82-14.56,6.43-23.32
				C1048.17,752.56,1048.58,752.09,1048.76,751.66z"/>
			<path d="M1070.86,148.5c2.18,9.06-1.56,15.73-7.56,21.5c-0.98,0.94-2.22,3.04-3.53,1.76c-1.48-1.45,0.73-2.48,1.73-3.32
				c2.05-1.72,4.1-3.56,5.11-5.97c0.94-2.23,3.61-4.83-0.19-7.25c-1.48-0.94-0.63-2.38,0.42-3.34
				C1068.13,150.69,1069.52,149.61,1070.86,148.5z"/>
			<path d="M969,772.82c-2.42,0.95-3-0.72-3.85-1.45c-5.54-4.81-11.91-8.25-18.39-11.54c-0.87-0.44-2.15-0.6-1.96-1.82
				c0.21-1.38,1.64-1.18,2.4-0.81C955.18,761.07,963.53,764.45,969,772.82z"/>
			<path d="M1014.41,435.79c-1.09,1.54-2.22,1.52-3.07,1.15c-7.3-3.12-15.01-2.48-22.64-2.67c-1.22-0.03-3.18,0.46-3.24-1.34
				c-0.06-1.85,1.89-1.36,3.12-1.46C997.44,430.76,1005.99,431.91,1014.41,435.79z"/>
			<path d="M1081.29,807.24c-0.32,1.35-1.17,1.43-1.98,1.46c-8.76,0.27-17.53,0.53-26.29,0.77c-1.38,0.04-3.52,0.72-3.38-1.51
				c0.1-1.67,2.09-1.18,3.33-1.01c8.46,1.18,16.87-0.32,25.31-0.31C1079.27,806.63,1080.27,806.28,1081.29,807.24z"/>
			<path d="M1111.98,346.79c-1.65-6.04-2.52-12.22-3.03-18.47c-0.07-0.82-0.03-1.73,0.98-2.01c1.03-0.28,1.6,0.4,1.7,1.29
				c0.67,6.34,1.27,12.69,1.9,19.04C1113,346.69,1112.49,346.74,1111.98,346.79z"/>
			<path d="M1049.1,827.64c6.23-1.94,12.62-1.24,19.37-1.3C1064.56,829.25,1054.93,830.02,1049.1,827.64z"/>
			<path d="M1099.51,862.78c5.02-2.02,9.66-2.43,14.43-1.84c1,0.12,2.11,0.59,2.12,1.73c0.01,1.37-1.26,1.36-2.22,1.32
				C1109.25,863.81,1104.46,866.25,1099.51,862.78z"/>
			<path d="M945.38,519.48c5.6-2.71,11.14-4.02,15.91-7.03c0.38-0.24,1.38-0.01,1.75,0.36c0.53,0.51,0.26,1.48-0.38,1.65
				c-5.41,1.45-9.71,5.8-15.6,5.95C946.78,520.41,946.49,520.11,945.38,519.48z"/>
			<path d="M1046.72,1062.73c9.37,0.24,15.42,4.77,13.26,10.09C1058.19,1066.16,1051.86,1065.84,1046.72,1062.73z"/>
			<path d="M892.64,356.24c2.86,4.28,1.72,8.46,1.91,12.41c0.03,0.65-0.52,1.28-1.28,1.12c-0.38-0.08-0.94-0.64-0.93-0.98
				C892.38,364.85,890.23,360.83,892.64,356.24z"/>
			<path d="M1012.88,213.01c-0.09,1.78-1.1,3.48-0.39,5.34c1.01,2.65-0.98,2.65-2.62,2.79c-2.14,0.18-3.09-0.97-2.71-3.02
				c0.59-3.2,1.88-5.69,5.85-4.98L1012.88,213.01z"/>
			<path d="M1111.73,391.52c-0.67-5.14-1.11-10.26,0.92-15.18C1113.22,381.47,1113.45,386.57,1111.73,391.52z"/>
			<path d="M1140.63,778.67c2.65,4.21,1.83,8.78,1.85,13.27C1139.86,787.8,1139.17,783.37,1140.63,778.67z"/>
			<path d="M1050.24,658.31c-0.85-4.86,2.73-8.17,4.06-12.53c2.23,3.6,0.49,8.37-4.18,12.4
				C1050.13,658.19,1050.24,658.31,1050.24,658.31z"/>
			<path d="M1002.89,364.28c0.5-0.82,0.62-1.27,0.83-1.32c3.22-0.81,6.45-1.34,9.53,0.48c0.15,0.09,0.01,1.17-0.15,1.22
				C1009.7,365.6,1006.42,365.13,1002.89,364.28z"/>
			<path d="M1060.54,539.69c-1.59-3.58-3.18-7.16-4.77-10.74C1059.12,531.68,1062.3,534.48,1060.54,539.69z"/>
			<path d="M972.1,365.57c1.76-1.35,2.32-1.98,3.03-2.29c2.12-0.95,4.32-1.69,6.59-0.51c0.29,0.15,0.59,0.99,0.45,1.18
				c-1.53,2.01-3.91,1.13-5.9,1.59C975.35,365.74,974.36,365.57,972.1,365.57z"/>
			<path d="M1114.63,361.4c1.29,3.44,2.35,6.87-0.52,10.94C1113.13,368.16,1114.3,364.76,1114.63,361.4z"/>
			<path d="M1004.87,292.03c2.11-1.67,3.97-3.75,6.86-3.96c0.82-0.06,1.75,0.01,2.06,0.9c0.39,1.11-0.64,1.58-1.34,1.55
				C1009.79,290.4,1007.7,292.44,1004.87,292.03z"/>
			<path d="M1120.99,389.73c1.66,3.24,1.65,5.72-0.02,8.06c-0.14,0.2-1.18,0.11-1.22-0.04
				C1118.87,395.13,1119.23,392.66,1120.99,389.73z"/>
			<path d="M1120.92,426.27c-0.29,0.54-0.37,0.96-0.6,1.07c-1.9,0.89-3.81,1.99-5.95,0.75c-0.22-0.12-0.28-1.1-0.11-1.22
				C1116.34,425.48,1118.5,424.74,1120.92,426.27z"/>
			<path d="M980.37,249.1c0.43-1.11,1.19-1,1.77-0.9c1.65,0.29,3.69-1.23,4.89,0.92c0.17,0.3-0.37,1.25-0.81,1.59
				c-1.87,1.45-3.38,0.07-4.92-0.82C981.03,249.75,980.81,249.49,980.37,249.1z"/>
			<path d="M1013.01,213.14c0.83-2.57,2.07-4.87,4.78-5.85c0.91-0.33,2.09-0.16,2.5,0.96c0.39,1.07-0.63,1.25-1.35,1.61
				c-2.03,1.02-4.03,2.1-6.05,3.16C1012.88,213.01,1013.01,213.14,1013.01,213.14z"/>
			<path d="M1031.2,225.17c1.27,1.88,0.27,3.29-0.42,4.68c-0.61,1.24-1.61,2.07-3.08,1.92c-0.4-0.04-1-0.41-1.08-0.73
				c-0.38-1.52,1.21-1.67,1.88-2.48C1029.39,227.48,1030.24,226.37,1031.2,225.17z"/>
			<path d="M957.38,733.66c-2.32-1.81-4.65-3.6-6.95-5.43c-0.66-0.53-1.3-1.26-0.6-2.07c0.72-0.84,1.5-0.25,2.15,0.3
				c2.26,1.9,4.5,3.82,6.76,5.73C958.28,732.68,957.83,733.17,957.38,733.66z"/>
			<path d="M936.72,524.56c-2.71,1.47-4.95,3.97-8.36,3.81C930.87,526.48,933.16,524.15,936.72,524.56z"/>
			<path d="M1062.01,158.42c-2.08,2.19-3.35,3.62-4.73,4.94c-0.67,0.65-1.64,1.5-2.53,0.63c-0.98-0.96-0.03-1.94,0.75-2.35
				C1057.31,160.7,1058.67,158.9,1062.01,158.42z"/>
			<path d="M1040.8,242.2c-0.69-0.65-1.74-1.03-1.74-2.22c0-2.12,1.54-3.14,3.07-4.1c0.3-0.19,1.13-0.11,1.28,0.13
				c1.24,1.9-1.08,2.36-1.56,3.59c-0.35,0.92-0.78,1.8-1.19,2.71C1040.67,242.32,1040.8,242.2,1040.8,242.2z"/>
		</g>
	</g>
	<g>
		<g>
			<path class="st0" d="M902.98,760.02c0.25,1.42,0,3.05,1.88,4.27c3.05-4.88,6.68-9.32,7.21-15.33c0.08-0.94,0.05-2.37,1.39-2.13
				c1.52,0.28,1.41,1.89,0.96,2.88c-2.57,5.64-3.1,11.88-7.06,17.28c-3.63,4.95-6.24,10.94-8.87,16.66
				c-1.75,3.81,1.93,7.3,2.29,11.15c0.09,1,1.58,1.13,2.48,0.38c0.62-0.52,1.12-1.22,1.53-1.92c1.3-2.24,0.89-6.47,3.35-6.74
				c4.72-0.52,9.38-2.11,14.33-1.19c13.76,2.56,23.95,10.57,32.82,20.76c0.76,0.88,1.51,1.78,2.3,2.64
				c0.55,0.61,1.14,1.34,2.09,0.87c0.87-0.43,0.92-1.33,0.87-2.17c-0.04-0.66-0.18-1.32-0.36-1.96
				c-2.38-8.42-15.39-19.48-23.95-20.39c-0.5-0.05-1.03,0.04-1.49-0.1c-3.34-1-5.94-3.71-9.5-4.21c-3.2-0.46-6.41-0.88-10.14-1.39
				c1.59-2.52,3.54-2.18,5.19-2.15c6.69,0.12,13.01,1.93,19.36,3.95c9.56,3.04,17.25,8.64,24,15.8c1.24,1.31,4.44,2.36,2.16,4.43
				c-1.96,1.79-2.08-2.28-4.6-2.93c1.07,3.91,1.97,7.36,3.02,10.77c0.13,0.42,1.05,0.89,1.57,0.85c1.18-0.09,1.58-1.13,1.69-2.15
				c0.23-2.07-0.85-5.22,3.43-3.46c0.97,0.4,1.62-1.04,1.8-2.01c1.45-7.48,3.86-15.02-1.65-22c-1.06-1.35-1.94-3.58-0.43-4.52
				c4.48-2.79,1.94-6.32,1.11-9.28c-1.96-7-5.44-13.59-5.56-21.1c-0.01-0.78-0.26-1.81-0.79-2.3c-4.02-3.67-2.02-7.43,0.06-11.37
				c0.29,4.66,3.13,8.47,3.83,12.93c0.59,3.8,1.18,7.57,2.68,11.14c4.01,9.52,4.63,19.68,5.6,29.77c0.09,0.97-0.3,2.15,1.04,2.43
				c1.1,0.23,1.45-0.78,1.49-1.57c0.42-7.89,3.01-15.98,0.16-23.62c-2.81-7.57-5.14-15.43-9.51-22.39
				c-0.59-0.94-0.85-2.14-1.02-3.26c-0.12-0.77,0.03-1.75,1.16-1.84c0.8-0.06,1.08,0.62,1.31,1.24c2.48,6.68,7.02,12.47,8.5,19.59
				c0.2,0.98,0.43,2.17,1.65,2.17c1.39,0,1.87-1.25,2.18-2.38c0.76-2.85,0.36-5.65-0.77-8.31c-4.61-10.89-11.8-19.93-19.82-28.51
				c-8.64-9.24-17.41-18.31-26.81-26.77c-0.61-0.55-1.13-1.23-1.58-1.92c-0.55-0.84-1.11-1.9-0.15-2.69c1-0.83,1.87,0.07,2.56,0.74
				c7.54,7.26,15.37,14.26,22.49,21.91c7.35,7.89,14.92,15.68,20.4,25.12c0.58,1.01,1.35,2.31,2.68,1.4
				c1.54-1.06,1.03-2.74,0.25-4.05c-2.97-5-6.12-9.9-9.07-14.92c-1.72-2.93-4.85-5.03-5.49-9.14c3-0.01,4.28,2.09,5.67,3.75
				c3.33,3.97,5.98,8.39,8.09,13.14c0.54,1.22,0.88,3.39,2.87,2.76c1.71-0.54,1.21-2.5,1.29-3.96c0.13-2.4-0.38-4.59-1.85-6.59
				c-3.4-4.63-6.34-9.68-11.59-12.57c-2-1.1-3.94-2.42-6.36-0.3c-1.24,1.08-3.03-0.05-2.57-1.58c1.25-4.19-1.76-5.4-4.35-6.65
				c-26.89-13.11-45.97-33.98-59.91-60c-0.52-0.96-1.76-2.1-0.4-3.05c1.47-1.03,2.6,0.31,3.21,1.41c2.52,4.51,5.97,8.45,8.44,12.91
				c6.22,11.21,16.42,18.68,24.8,27.86c10.83,11.88,26.35,16.58,38.51,26.34c1.76,1.41,3.91,1.26,6.14,1.34
				c9.67,0.34,18.07-3.87,26.76-7.01c2.95-1.07,5.34-3.18,7.37-5.78c5.28-6.77,10.78-13.37,16.55-20.48
				c-0.85,4.6-3.07,8.92-9.23,16.31c-4.02,4.82-7.8,9.99-13.36,13.28c-2.1,1.24-1.88,3.37-2.2,5.29c-0.38,2.28-1.01,3.18-3.9,2.9
				c-4.63-0.45-8.06,3.57-12.42,4.79c-1.4,0.39-1.01,2.93-0.85,4.62c1.54,15.94-0.3,31.6-4.7,46.9c-1.91,6.64-0.23,13.22-0.95,19.85
				c-0.85,7.94-3.84,14.7-8.25,21c-4.42,6.31-9.27,12.24-16.67,15.41c-2.04,0.87-1.86,2.99-1.77,4.82
				c0.78,16.11-3.51,30.9-10.03,45.57c-3.69,8.3-7.12,17.07-8.03,26.53c-0.4,4.11-2.54,8.23-4.57,11.98
				c-3.18,5.84-3.01,12.5-5.19,18.58c-1.27,3.56-2.37,7.25-3.51,10.89c-2.33,7.41,1.86,13.67,9.71,13.88
				c5.39,0.14,10.57,1.12,15.82,2.01c6.03,1.02,8.2,5.89,10.29,10.57c1.73,3.86-1.33,6.51-3.42,9.25c-0.6,0.79-1.43,1.41-2.01,2.22
				c-5.23,7.25-3.73,8.75,3.96,10.98c7.43,2.16,14.77,4.74,22.25,6.86c3.94,1.12,8.33,0.42,12.51,3.28
				c-2.96,1.37-5.62,0.95-7.94,0.31c-11.9-3.28-24.14-5.5-35.45-10.73c-0.3-0.14-0.71-0.39-0.94-0.29
				c-7.48,3.29-15.73-0.33-23.22,2.64c-0.57,0.23-1.28,0.72-1.43,1.23c-0.27,0.95,0.49,1.42,1.35,1.72c0.88,0.3,1.73,0.72,2.66,1.8
				c-5.46,0-9.85,3.14-14.93,3.99c-4.25,0.71-8.3,2.44-12.74,2.23c-1.24-0.06-2.98,0.17-2.84,2.01c0.11,1.39,1.6,1.56,2.73,1.66
				c14.22,1.36,27.12,7.59,40.8,10.86c6.09,1.46,11.4,4.37,17.1,6.5c0.8,0.3,1.75,0.62,1.63,1.57c-0.17,1.28-1.39,1.28-2.36,1.24
				c-0.81-0.04-1.67-0.21-2.4-0.55c-15.15-7.02-31.31-11.07-47.28-15.5c-6.95-1.93-14.56-1.49-20.61-6.38
				c-0.34-0.28-0.96-0.3-1.45-0.29c-2.38,0.02-5.44,1.77-6.83-1.1c-1.54-3.18-2.98-6.46-2.51-10.44
				c1.31-11.05,3.69-21.81,6.59-32.55c2.12-7.86,1.52-16.16,1.39-24.3c-0.19-11.78-1.93-23.47-1.31-35.33
				c0.42-7.88-0.66-15.86-1.32-23.77c-1.09-12.97-0.18-25.76,1.84-38.63c1.64-10.47,5.07-19.87,11.64-28.17
				c0.95-1.19,1.29-2.27,3.38-1.92c2.69,0.44,1.35-0.7,0.95-2.45c-1.04-4.56-4.04-7.4-6.63-10.85c-1.66-2.21-1.15-6.34,0.64-9.07
				c3.61-5.51,4.91-11.49,4.95-17.93c0.01-2.09-0.32-4.48,2.25-5.61L902.98,760.02z M897.02,850.69c2,2.15,4.29,2.52,6.53,2.44
				c3.07-0.1,5.96,0.54,8.81,1.47c1.55,0.51,4.6,0.11,3.91,2.58c-0.6,2.15-3.14,0.49-4.83,0.35c-0.32-0.03-0.65-0.16-0.96-0.28
				c-7.27-2.88-14.36,0.49-21.54,0.65c-1.16,0.03-1.73,1.02-1.59,2.14c0.18,1.35,1.26,1.28,2.29,1.19c0.99-0.08,2.04,0.08,2.98-0.18
				c12.54-3.46,23.81,2.02,35.41,5.04c4.01,1.04,7.93,2.43,11.9,3.61c3.73,1.11,5.03-2.24,5.59-4.28c0.68-2.5-1.72-3.76-4.43-3.9
				c0.01,1.82,2.79,2.13,1.69,3.95c-0.99,1.65-2.86,1.2-4.08,0.73c-5.53-2.12-10.96-4.52-16.42-6.82c1.86-0.92,3.49-0.99,5.11-1.16
				c1.09-0.11,2.59,0.22,2.81-1.36c0.19-1.37-0.99-2.34-2.08-2.41c-6.66-0.39-6.54-4.11-5.23-9.21c0.5-1.97,0.58-4.03,1.36-6.08
				c1.97-5.15-0.2-9.91-5.39-11.53c-4.06-1.27-8.13-3.05-12.63-2.34c-1.79,0.28-3.65,0.17-5.42,0.54c-1.09,0.23-2.34,0.97-2.02,2.4
				c0.3,1.36,1.53,0.75,2.48,0.79c3.78,0.16,7.59,0.21,11.33,0.73c1.99,0.28,5.2,0.85,4.68,3.35c-0.48,2.3-3.04,0.34-4.68,0.15
				c-1.33-0.15-2.92-0.48-3.15,1.38c-0.17,1.4,0.63,2.52,2.21,2.86c1.52,0.33,3.43-0.16,4.26,1.8c-1.19,1.83-5.45,0.05-4.75,3.16
				c0.95,4.2,5.32,0.47,8.31,2.65C911.48,846.49,904.76,850.14,897.02,850.69z M916.47,871.5c-3.17-0.31-6.37,0.94-9.47-0.62
				c-1.55-0.78-3.38-1.66-4.22,0.48c-0.91,2.33,1.18,3.27,2.93,3.73c2.72,0.72,5.32,1.78,7.96,2.59c2.21,0.68,6.61,1.7,6.87-1.33
				c0.46-5.46,3.08-4.89,6.62-4.04c1.05,0.25,2.45,1.13,2.99-0.45c0.51-1.49-1.09-1.79-2.03-2.35c-6.94-4.09-14.76-4.63-22.49-5.22
				c-2.38-0.18-5.07-0.99-8.88,0.91C904.58,866.33,910.72,868.15,916.47,871.5z M905.17,816.94c-1.49,0-2.99-0.07-4.47,0.02
				c-1.83,0.11-4.25,0.23-4.18,2.5c0.07,2.41,2.55,1.46,4.01,1.48c5.22,0.06,10.29-0.5,15.32,2.35c3.3,1.87,6.49,3.86,9.71,5.85
				c1.48,0.91,3.32,1.47,4.5-0.17c1.47-2.04-0.7-2.81-1.88-3.82c-4.25-3.64-11.06-3.42-13.9-9.24c-0.3-0.61-1.28-0.62-1.72-0.02
				C910.48,818.71,907.65,816.84,905.17,816.94z M929.58,818.63c6.09-0.25,7.54-1.58,7.75-7.33c-2.76,3.19-5.22,2.84-8.32,0.78
				c-2.03-1.34-4.28-2.11-4.84,2.79c-0.49,4.3,1.15,5.09,3.84,6.63c2.21,1.26,4.19,5.66,6.48,3.08
				C936.21,822.64,931.56,821.07,929.58,818.63z M914.45,987.92c2.53-0.05,4.42-1.97,7.08-2.05c7.35-0.23,8.74-2.58,5.94-9.07
				c-0.26-0.61-0.28-1.31-1.05-1.45c-0.96-0.17-1.89,0.42-1.96,1.16c-0.63,6.35-6.12,6.45-10.34,8.14
				c-1.04,0.42-2.62,0.34-2.45,1.88C911.83,987.97,913.26,987.95,914.45,987.92z M930.49,842.82c-1.5,0.18-2.62,0.09-3.03,1.23
				c-0.55,1.55,0.62,1.99,1.78,2.37c3.33,1.09,6.18,3.06,9.18,4.79c2.56,1.48,5.28,2.72,8.01,3.88c1.05,0.44,2.48,0.39,2.99-0.94
				c0.63-1.63-0.92-1.71-1.89-2.25c-2.44-1.37-4.77-2.94-7.24-4.25C936.95,845.89,933.52,844.3,930.49,842.82z M914.13,913.75
				c-6.3-4.19-11.48,1.11-17.13,1.61c-0.66,0.06-1.11,0.74-0.87,1.5c0.28,0.91,1.11,1.28,1.93,1.29
				C903.73,918.2,909.92,920.29,914.13,913.75z M894,933.48c4.09,3.49,9.04,3.36,13.55,4.74c1.86,0.57,3.93,0.65,4.3-1.8
				c0.39-2.57-1.23-4.22-3.77-4.12C903.39,932.51,898.7,933.07,894,933.48z M894.09,996.6c1.49-0.33,4.01,0.6,4.2-2.05
				c0.15-2.11-2.01-2.36-3.6-2.68c-2.5-0.5-4.68-1.17-5.94-3.81c-0.79-1.66-2.54-2.11-4.24-1.02c-0.86,0.56-1.33,1.47-0.95,2.58
				C884.12,991.29,892.08,996.63,894.09,996.6z M936.61,887.8c-1.53-1.56-3.88-1.29-5.56-2.7c-3.13-2.62-6.78-2.37-10.08,0.17
				c-0.96,0.74-2.85,1.21-2,2.91c0.83,1.65,2.62,1.49,3.92,0.66c3.16-2.03,6.3-1.54,9.57-0.45
				C933.75,888.81,935.24,889.81,936.61,887.8z M893.05,928.77c4.36,1.19,8.66,1.09,12.83,2.22c1.62,0.44,3.39,0.01,4.19-1.81
				c0.47-1.09-0.2-2.18-1.22-2.29C903.44,926.32,898.1,926.64,893.05,928.77z M924.11,904.93c-0.63,1.92,3.99,2.19,1.5,4.23
				c-1.7,1.39-4.12,1.38-5.81-0.66c-0.81-0.98-1.65-1.6-2.97-1.37c-0.86,0.16-1.76,0.47-1.81,1.39c-0.03,0.51,0.53,1.21,1.01,1.58
				c3.38,2.54,9.95,2.43,13.44,0.04c1.91-1.31,2.36-2.61,0.04-3.53C927.8,905.94,926.4,903.87,924.11,904.93z M904.57,900.99
				c-1.93,0.46-5.68-1.31-6.23,1.37c-0.47,2.3,3.76,1.38,5.48,2.83c0.57,0.48,1.54,0.64,2.34,0.67c2.24,0.09,5.26,0.72,5.36-2.58
				c0.09-2.84-2.78-2.05-4.61-2.28C906.26,900.92,905.59,900.99,904.57,900.99z M921.35,967.99c0.32,0.09,0.98,0.19,1.57,0.46
				c1.02,0.45,2.26,1.67,3.04,0.33c1.07-1.83-1.28-1.81-2.01-2.7c-2.44-2.98-4.81-4.06-7.35-0.05c-0.66,1.04-2.06,0.93-3.2,1.1
				c-0.99,0.15-2.32,0.31-2.25,1.47c0.09,1.53,1.63,1.29,2.75,1.42C916.55,970.32,918.47,968.09,921.35,967.99z M898.77,987.45
				c2.96,0.21,5.47-1.06,7.92-2.45c0.81-0.46,2.09-0.73,1.59-2.03c-0.44-1.15-1.65-1-2.58-0.75c-3.03,0.81-6.04,1.61-9.23,1.57
				c-1.17-0.02-3.07-1.04-3.3,0.88c-0.21,1.74,1.72,2.16,3.14,2.54C897.1,987.41,897.95,987.37,898.77,987.45z M891.88,891.46
				c5.54,1.73,11,1.32,16.37-0.82C902.72,888.63,897.3,889.53,891.88,891.46z M906.03,951.99c3.53,1.52,6.47,2.91,9.49,4.04
				c1.26,0.47,2.64,0.15,3.28-1.35c0.36-0.85,0.17-2-0.63-2.07C914.36,952.31,910.94,947.94,906.03,951.99z M935.91,808.63
				c-1.47-5.56-5.35-7.16-9.5-8.32c-1.28-0.36-2.28,0.28-2.4,1.77c-0.07,0.83,0.15,2.3,0.7,2.11
				C929.44,802.49,931.33,807.59,935.91,808.63z M924.77,927.48c-4.17,1.38-4.6,4.62-4.86,7.98c-0.06,0.82-0.38,1.71,0.63,2.13
				c1.07,0.44,1.99-0.07,2.62-0.88C925.18,934.05,925.83,931.09,924.77,927.48z M908.38,974.71c-0.25-1.33-1.27-1.45-2.19-1.77
				c-4.41-1.55-6.78,2.43-10.08,3.83c-1.05,0.45,0.03,2.04,1.05,1.81c3.49-0.79,6.91-1.86,10.33-2.9
				C907.87,975.55,908.12,975,908.38,974.71z M909.64,944.11c-1.85,0.65-4.98-1.81-5.36,1.09c-0.24,1.83,3.22,1.56,5.07,1.52
				c2.37-0.06,6.4,2.21,6.69-1.08C916.25,943.11,911.86,944.94,909.64,944.11z M924.33,961.98c1.62-1.17,4.03-2.31,4.96-4.91
				c0.37-1.03-0.83-2.22-1.71-1.63c-2.19,1.47-4.28,3.23-6,5.21C921.09,961.21,922.59,962.04,924.33,961.98z M909.77,895.18
				c-1.39,0.17-3.55,0.13-3.33,1.47c0.47,2.81,3.38,1.85,5.3,2.3c1.15,0.27,2.72-0.15,2.39-1.6
				C913.62,895.12,911.39,895.46,909.77,895.18z M902.39,845.17c-3.11-2.87-5.74-1.27-8.21-1.29c-0.63,0-1.24,0.45-1.12,1.28
				c0.13,0.83,0.83,0.98,1.46,0.92C896.89,845.84,899.25,845.54,902.39,845.17z M889.12,869.64c1.36-0.25,3.21-0.19,3.28-2.09
				c0.06-1.54-1.56-1.33-2.63-1.39c-1.32-0.07-2.81-0.02-3.01,1.68C886.59,869.39,887.88,869.56,889.12,869.64z M906.61,962.38
				c2.52,0.09,4.67-0.22,5.19-2.85c0.16-0.81-0.36-1.82-1.23-1.87C907.28,957.46,908.21,961.01,906.61,962.38z M889.77,885
				c4.88,2.05,8.46,0.06,11.96,0.33C898.23,884.98,894.79,883.31,889.77,885z M948.48,819.39c-0.4-1.29-1.55-1.73-2.49-2.34
				c-1.17-0.77-1.98-2.51-3.8-1.64c-0.31,0.15-0.62,0.9-0.51,1.24c0.51,1.58,2.02,2.16,3.33,2.79
				C946.04,819.93,947.31,821.03,948.48,819.39z M945.45,810.86c-0.94-1.99-1.49-4.3-4.15-4.54c-0.35-0.03-1.21,1-1.11,1.3
				C941,810.13,943.42,810.16,945.45,810.86z M933.34,876.54c-0.17-1.31-1.05-2.03-2.22-2.33c-1.35-0.35-2.31,0.43-2.62,1.62
				c-0.41,1.56,0.79,1.98,2.01,2.06C931.66,877.96,932.86,877.95,933.34,876.54z"/>
			<path class="st0" d="M1128.29,1020.88c2.44,1.4,4.07-0.87,5.19,0.94c1.12,1.8,0.53,3.58-0.63,5.11
				c-1.35,1.79-1.55,3.06,0.68,4.43c1.93,1.18,2.21,3.64,3.16,5.54c3.77,7.56,5.79,8.39,14.13,8.23c8.46-0.17,16.97-0.98,25.4,0.58
				c13.32,2.47,17.64,10.47,15.38,23.92c-2.03,12.09-11.11,15.61-19.92,20.19c-14.88,7.73-31.82,7.99-47.42,13.14
				c-3.16,1.04-6.55,1.19-9.9,0.94c-6.46-0.48-8.95-2.81-9.17-9.31c-0.26-7.63-0.21-15.27-0.24-22.91
				c-0.01-4.86-0.67-9.56-2.24-14.2c-1.65-4.86-2.67-9.81-3.29-15c-0.84-6.98-3.8-13.68-5.52-20.58
				c-4.73-19-14.92-35.88-20.91-54.42c-3.1-9.59-8.32-18.56-8.82-28.89c-0.54-11.22-3.52-22.33-2.11-33.59
				c0.67-5.36,1.54-10.87,3.78-15.91c1.78-4,2.37-8.16,0.98-12.16c-1.41-4.04-1.88-8.07-1.77-12.22c0.2-7.1-3.96-12.33-8.03-17.24
				c-3.05-3.68-8.39-2.78-12.7-3.23c-4.07-0.42-6.39-1.45-7.28-5.7c-2.38-11.38-5.12-22.81-4.29-34.45
				c1.15-16.13-1.08-31.77-4.5-47.38c-0.53-2.43-1.24-5.01-0.92-7.4c1.21-9.02-4.01-14.63-9.95-19.96
				c-3.96-3.55-8.34-6.64-11.45-11.07c-0.77-1.1-1.66-2.09-1.82-3.48c-0.15-1.22-0.03-2.45,1.09-3.11c1.49-0.88,2.13,0.52,2.66,1.44
				c4.39,7.56,12.64,11.47,17.54,18.61c1.63,2.37,4.02,1.47,4.48-1.54c2.08-13.61,6.95-26.18,13.42-38.27
				c1.45-2.71,2.49-5.73,3.98-8.48c0.47-0.87,0.89-2.19,2.03-1.64c1.31,0.63,0.8,2.01,0.28,3.07c-1.59,3.25-3.29,6.44-4.82,9.71
				c-4.36,9.29-7.43,19.12-11.03,28.69c-2.98,7.9-4.19,16.75-3.07,25.51c0.7,5.47,0.05,10.97,4.18,15.94
				c2.56,3.08,0.72,8.09,0.64,12.22c-0.08,3.88-0.1,7.62,2.19,11.04c1.42,2.12,0.83,4.52,0.14,6.77c-2.23,7.2-2.32,14.49-0.44,21.7
				c1.5,5.74,1.11,11.59,1.57,17.37c0.36,4.49,2.69,5.73,6.59,5.39c1.99-0.17,3.99-0.38,5.93-0.82c7.56-1.73,14.19,1.09,21.23,3.36
				c15.12,4.86,30.43,9.78,46.75,6.37c1-0.21,2.17-0.47,2.68,0.57c0.73,1.5-0.69,1.84-1.63,2.52c-5.47,3.91-11.79,2.71-17.38,1.68
				c-13.99-2.58-28.28-4.52-41.08-11.49c-1.1-0.6-2.27-0.98-3.18,0.09c-1.12,1.32,0.22,1.98,0.95,2.84
				c2.42,2.89,4.17,6.75,9.43,5.98c-2.56,1.43-3.44,2.85-1.68,5.39c1.37,1.98,2.43,4.39,2.86,6.75c0.39,2.13,0.72,3.59,3.2,3.3
				c1.79-0.21,4.25,0.82,4.46-2.45c0.08-1.3,1.01-2.12,2.34-2.13c0.89-0.01,1.51,0.62,1.86,1.44c0.51,1.16,0.61,2.35-0.51,3.16
				c-2.67,1.95-4.39,5.98-8.98,3.78c-1.49-0.71-3.34-0.28-4.08,1.77c-0.67,1.87,0.78,2.83,1.48,4.26c2.62,5.37,5.25,6.09,10.59,2.81
				c2.51-1.54,7.09,0.1,10.7,0.54c6.61,0.82,13.26,0.13,19.91,0.71c4.66,0.4,9.52-1.12,14.26-1.98c2.16-0.39,2.04-2.18,1.86-3.97
				c-0.48-5.05-2.58-9.72-2.68-14.99c-0.07-3.64,0.54-7.57-0.83-11.28c-0.55-1.47,0.41-3.16,2.29-3.13c2.34,0.04,2.07,1.92,1.5,3.29
				c-1.17,2.81,0.54,5.19,0.81,7.78c2.53,24.37,6.74,48.61,5.25,73.27c-0.34,5.67,1.35,11.17,1.48,16.86
				c0.19,7.81-0.15,15.51-0.88,23.29c-1.12,11.91-1.16,23.9-0.44,35.87C1134.37,1010.6,1134.19,1016.55,1128.29,1020.88z
				 M1116.86,1070.18c-2.77,0.68-7.66-1.32-8.52,4.08c-0.99,6.18-1.57,12.5-0.26,18.79c1.39,6.67,5.59,8.9,11.7,5.79
				c2.47-1.26,4.86-1.77,7.6-1.84c12.12-0.3,24.19-1.16,35.33-6.66c2.84-1.41,5.78-2.4,8.73-3.5c5.31-1.98,9.65-5.77,14.05-9.3
				c1.42-1.14,2.06-3.31,0.91-4.45c-1.73-1.74-2.98,0.55-3.78,1.68c-2.33,3.31-5.49,5.43-9.2,6.5c-5.95,1.72-11.34,4.75-17.11,6.82
				c-9.46,3.41-19.06,6.22-29.42,3.87c-2.65-0.6-6.05-0.72-7.69,2.89c-0.66,1.46-2.11,1.59-3.4,0.74c-1.18-0.77-1.15-1.97-0.5-3.09
				c0.76-1.3,1.72-2.6,1.27-4.17c-1.25-4.41,0.49-7.66,3.74-10.44c1.82-1.56,3.54-3.36,2.53-5.98
				C1121.85,1069.29,1119.32,1070.96,1116.86,1070.18z M1101.84,973.12c1.64,0.31,4.05,0.19,6.43-0.9
				c4.68-2.15,9.62-3.51,14.65-4.56c1.56-0.33,3.97,0.04,3.92-2.05c-0.05-2.19-2.4-1.59-3.99-1.72c-3.25-0.27-6.85,1.25-9.69-0.75
				c-2.56-1.81-5.16-2.1-7.99-2c-8.29,0.29-16.17,2.54-23.95,5.22c-1.67,0.57-3.54,1.24-2.33,3.36c1.03,1.8,2.92,1.26,4.38,0.23
				c4.72-3.32,10.55-2.64,15.69-4.43c0.95-0.33,2.15-0.06,2.34,1.17c0.14,0.9-0.73,1.52-1.53,1.72c-2.74,0.66-5.52,1.13-8.25,1.82
				c-1.21,0.31-2.93,0.61-2.42,2.45c0.38,1.37,1.85,1.25,2.99,1.07C1095.03,973.26,1097.94,972.46,1101.84,973.12z M1130.54,1062.23
				c-6.34-1.08-12.81,1.1-19.41,2.27c-1.36,0.24-2.81,0.58-2.65,2.31c0.14,1.45,1.52,1.4,2.68,1.64c2.93,0.6,5.47-1.14,8.29-1.21
				c10.74-0.24,21.48-0.37,32.17-1.65c1.19-0.14,2.59-0.04,2.8-1.43c0.27-1.74-1.35-2.03-2.6-2.42c-3.24-1-6.54-0.88-9.86-0.55
				C1138.33,1061.54,1134.69,1061.85,1130.54,1062.23z M1066,923.1c4.24,0.17,5.92-3.52,8.84-4.15c7.92-1.72,15.87-4.07,24.08-3.15
				c4.5,0.5,8.11-0.33,11.18-3.67c0.65-0.71,1.9-1.09,1.21-2.26c-0.58-0.98-1.86-1.06-2.66-0.43c-4.26,3.36-9.22,2.18-13.94,2.19
				c-6.35,0-12.85-0.12-18.35,3.29C1072.82,917.11,1067.06,916.88,1066,923.1z M1106.73,904.48c-0.57-1.51-1.41-3.63-3.74-3.54
				c-11.23,0.44-22.76-3.45-33.67,2.39c-1.67,0.9-3.85,1.05-2.81,3.52c0.89,2.11,2.78,1.98,4.64,0.99
				C1082.55,901.79,1094.64,905.26,1106.73,904.48z M1105.22,974.94c-3.24,0.34-6.85,0.89-10.47,1.07
				c-3.64,0.18-6.84,2.43-10.64,1.94c-1.34-0.17-2.57,0.83-2.44,2.5c0.11,1.37,1.17,2.07,2.37,2.12c1.46,0.06,3.14,0.18,4.38-0.42
				c4.8-2.34,9.95-2.21,15.04-2.56c1.81-0.12,3.62-0.27,5.41-0.57c1.01-0.17,1.84-0.85,1.72-2.06c-0.11-1.17-0.96-1.69-2.01-1.83
				C1107.59,974.99,1106.6,975.01,1105.22,974.94z M1113.15,1045.46c0.28,1.72,1.43,1.52,2.34,1.55c1.52,0.05,3.57,0,3.65,1.72
				c0.12,2.4-2.29,1.81-3.78,1.99c-2.97,0.36-5.97,0.58-8.49,2.44c-0.86,0.64-1.3,1.54-0.8,2.6c0.44,0.94,1.36,1.07,2.06,0.51
				c3.13-2.51,6.76-2.36,10.43-2.18c1.37,0.07,3.19-0.31,3.06-1.79c-0.22-2.44,1.08-4.89-0.12-7.23c-0.15-0.3-1.05-0.59-1.27-0.43
				C1118.07,1046.21,1115.43,1044.66,1113.15,1045.46z M1120.49,1012.4c-4.45-2.63-4.47-2.66-1.09-5.02
				c1.42-0.99,2.96-2.05,2.17-3.93c-0.96-2.28-2.85-0.8-4.31-0.49c-0.92,0.19-2.18,0.6-2.53,1.29c-1.17,2.33-2.65,3.61-5.43,3.17
				c-1.12-0.18-1.81,0.68-1.72,1.88c0.07,0.9,0.77,1.97,1.42,1.72C1112.72,1009.59,1115.78,1012.91,1120.49,1012.4z
				 M1155.09,1050.54c-4.31,0-5.46,0.37-5.62,1.68c-0.19,1.59,5.63,7.47,7.2,7.17c2.57-0.5,4.22-1.85,4.01-4.75
				C1160.4,1050.73,1157.77,1050.29,1155.09,1050.54z M1080.5,938.06c-2.82-0.98-4.85,3.24-8.35,3.05c-1.57-0.08-3.26,0.75-2.87,2.6
				c0.52,2.49,2.7,1.55,4.05,1c3.05-1.23,5.91-2.84,9.4-2.75c1.44,0.03,3.96,0.95,4.07-1.39c0.1-1.98-2.41-1.77-3.92-2.21
				C1082.4,938.22,1081.89,938.23,1080.5,938.06z M1101.33,997.01c-0.04,0.53-0.08,1.06-0.11,1.58c4.67,0.31,9.35,0.69,14.02,0.85
				c0.87,0.03,1.84-0.68,2.64-1.24c0.7-0.49,1.09-1.39,0.56-2.18c-0.31-0.47-1.16-1.05-1.55-0.92
				C1111.85,996.84,1106.37,995.41,1101.33,997.01z M1097.72,918.23c0-0.02,0-0.05-0.01-0.07c-1.98,0.18-3.97,0.31-5.94,0.55
				c-0.94,0.12-2.19,0.22-2.07,1.57c0.08,0.9,1.09,1.12,1.89,1.34c2.96,0.82,5.94,0.33,8.91,0.13c1.26-0.08,3.09-0.04,3.09-1.74
				c0-2.03-1.94-1.86-3.39-1.94C1099.38,918.02,1098.55,918.17,1097.72,918.23z M1163.25,1063.88c1.14,0.04,1.89-0.49,2.13-1.26
				c0.79-2.52,0.55-5.34,3.69-6.9c1.14-0.57-0.52-1.91-1.68-2.09c-2.03-0.32-7.25,5.27-6.84,7.27
				C1160.87,1062.46,1161.77,1063.57,1163.25,1063.88z M1093.65,893.16c-1.36,0.09-2.73-0.18-3.1,1.3c-0.09,0.37,0.61,1.29,1.08,1.4
				c3.39,0.79,6.8,1.53,10.24,2.09c1.19,0.2,2.39-0.35,2.34-1.91c-0.05-1.43-1.14-2.13-2.37-2.04
				C1098.97,894.23,1096.22,893.5,1093.65,893.16z M1099.89,929.71c-1.69,0.77-6.39-2.3-6.5,1.78c-0.08,2.74,4.96,1.87,7.77,1.85
				c2.28-0.01,6.1,0.54,6.02-2.47c-0.07-2.8-3.56-0.65-5.46-1.15C1101.42,929.64,1101.07,929.71,1099.89,929.71z M1121.57,923.98
				c1.83-0.11,3.66-0.18,5.49-0.34c1.16-0.1,2.61-0.2,2.45-1.79c-0.16-1.48-1.63-1.53-2.77-1.45c-2.48,0.19-4.96,0.5-7.43,0.86
				c-1.34,0.19-3.67-0.54-3.52,1.55c0.13,1.88,2.39,1.15,3.79,1.25C1120.23,924.12,1120.9,924.02,1121.57,923.98z M1109.93,888.07
				c4.83,1.7,8.85-1.71,13.39-1.88c0.74-0.03,1.42-0.95,1.01-1.91c-0.4-0.94-1.33-0.7-2.14-0.73
				C1117.53,883.37,1114.04,886.5,1109.93,888.07z M1110.7,1042.29c0.78,0.13,1.43,0.25,2.07,0.35c1.66,0.26,2.9-0.37,3.63-1.86
				c0.48-0.98,0.32-1.96-0.51-2.67c-1.21-1.04-2.44-0.42-3.67,0.07c-1.05,0.42-2.14,0.78-3.22,1.11c-1.27,0.38-3.57-0.38-3.34,1.76
				c0.2,1.88,2.35,1.1,3.71,1.24C1109.85,1042.33,1110.35,1042.29,1110.7,1042.29z M1097.52,1015.21c2.88-0.97,4.97-2.86,5.27-6.18
				c0.09-1.02-0.68-1.84-1.85-1.9c-1.85-0.1-6.22,4.57-6.07,6.37C1095.01,1015.11,1096.12,1015.18,1097.52,1015.21z M1081.5,948.01
				c-0.19-0.35-0.37-1.04-0.82-1.42c-1.79-1.49-8.43,1.41-8.69,3.8c-0.06,0.56,0.21,1.56,0.57,1.7c2.23,0.85,4.07-0.78,6.1-1.24
				C1079.97,950.57,1081.11,949.81,1081.5,948.01z M1113.1,1031.72c-4.12-0.52-6.55,2.15-9.62,1.88c-1.2-0.1-2.9,0.51-2.56,2.25
				c0.36,1.88,2.15,1.86,3.6,1.6C1107.88,1036.83,1109.96,1034.34,1113.1,1031.72z M1114.13,987.57c-0.08-0.01,0.25,0.06,0.58,0.11
				c1.78,0.28,3.7,1.02,4.87-1.14c0.52-0.95,0.43-2.03-0.37-2.77c-1.83-1.69-3.39-0.38-4.88,0.67c-1.13,0.8-2.13,1.6-3.58,0.6
				c-0.76-0.53-1.9-1.37-2.19,0.37c-0.17,1.04,0.58,1.97,1.68,2.13C1111.39,987.7,1112.56,987.57,1114.13,987.57z M1097.3,939.42
				c2.77,2.94,6.06,2.03,9.08,2c1.32-0.01,2.08-1.01,1.82-2.43c-0.2-1.15-1.14-1.97-2.11-1.62
				C1103.34,938.36,1100.15,937.58,1097.3,939.42z M1124.97,945.74c-2.73,1.64-5.37,1.06-8.07,0.47c-1.61-0.35-3.08,0.38-3.28,2.14
				c-0.25,2.26,1.66,2,3.07,2.11C1120.3,950.74,1123.35,949.9,1124.97,945.74z M1094.4,951.37c0.1,0.56,0.21,1.12,0.31,1.68
				c2.96,0,5.92,0.04,8.88-0.02c0.83-0.02,1.77-0.37,1.82-1.34c0.02-0.48-0.59-1.38-1-1.43
				C1100.97,949.83,1097.41,948.99,1094.4,951.37z M1129.61,934.45c-4.08-1.85-7.14-1.41-10.17-1.07c-0.52,0.06-1.32,0.67-1.38,1.12
				c-0.14,1.02,0.74,1.4,1.6,1.3C1122.57,935.45,1125.46,935.02,1129.61,934.45z M1127.27,1055.77c2.92,0.9,5.02,3.21,7.57,0.59
				c0.74-0.76,0.82-2.03-0.17-2.61C1131.91,1052.13,1129.85,1053.62,1127.27,1055.77z M1118.89,942.59c3.18,0.46,5.6-0.8,8.12-1.18
				c0.48-0.07,1.18-0.82,1.2-1.28c0.05-1.07-0.96-1.21-1.76-1.2C1123.68,938.97,1120.79,938.82,1118.89,942.59z M1105.91,1019.51
				c-0.03-0.77-0.5-1.36-1.19-1.27c-2.26,0.3-4.53,0.66-6.74,1.22c-0.81,0.21-1.27,1.31-0.48,1.97c1.87,1.57,3.74-0.2,5.63-0.27
				C1104.28,1021.12,1105.44,1020.82,1105.91,1019.51z M1124.26,926.94c-0.97,0.53-3.17-0.19-3.1,1.88c0.06,1.54,1.93,1.5,3.18,1.43
				c1.37-0.08,3.42,0.05,3.38-1.83C1127.7,926.84,1125.75,927.23,1124.26,926.94z M1134.27,1036.46c-0.01-1.31-0.31-2.56-1.71-2.57
				c-1.93-0.01-2.21,1.61-2.29,3.11c-0.06,1.19,0.22,2.46,1.68,2.48C1133.92,1039.48,1134.06,1037.83,1134.27,1036.46z"/>
			<path class="st0" d="M1040.67,242.32c3.3-0.43,4.2-3.56,6.04-5.56c0.94-1.03,0.58-3.17-1.03-3.12c-7.57,0.25-5.56-5.59-6.42-9.63
				c-0.07-0.31,0.17-0.83,0.01-0.97c-5.54-4.77-0.16-7.04,2.29-9.92c0.93-1.09,1.58-2.22,1.17-3.62c-0.64-2.2-0.32-4.13,0.63-6.25
				c1.41-3.11-0.22-5.76-2.09-8.24c-0.96-1.28,0.17-10.19,1.44-10.9c1.68-0.94,1.95,0.55,2.23,1.63c0.71,2.76-1.16,5.16-1.19,7.82
				c-0.02,1.47-0.32,3.3,1.68,3.63c1.69,0.28,2.03-1.36,2.54-2.58c0.65-1.53,1.32-3.05,2.01-4.56c1.53-3.34,1.07-5.95-2.23-8.14
				c-4.75-3.15-9.77-13.63-9.92-19.97c2.18,0.04,2.54,1.84,3.14,3.3c1.7,4.08,1.67,4.1,6.36,2.87c-4.33,3.71-1.55,6.47,0.2,9.32
				c0.46,0.75,1.12,1.27,2.07,0.85c0.91-0.4,0.96-1.24,0.95-2.1c-0.07-5.76-1.73-11.02-4.92-15.8c-4.05-6.07-7.94-12.41-13.25-17.35
				c-4.99-4.64-11.86-6.45-18.24-8.78c-2.13-0.78-4.53-0.89-6.81-3.13c5.2,0.04,9.93-0.12,13.91,2.42
				c6.25,3.99,12.37,3.27,18.36,0.03c3.09-1.67,5.9-1.66,10.31-0.57c-4.61,2.11-8.6,2.67-12.11,4.55c-3.69,1.98-3.18,3.91-1.14,6.16
				c1.69,1.86,3.41,3.51,4.12,6.06c0.64,2.29,2.11,2.94,4.05,1.12c0.87-0.82,1.72-1.93,2.74-0.3c0.6,0.97,1.2,2.16-0.19,3.06
				c-1.15,0.74-1.91,1.95-1.01,2.9c3.93,4.16,4.18,10.44,8.43,14.33c2.04,1.86,2.37,3.29,0.49,5.74c-4.96,6.44-4.25,19.18,1,25.15
				c3.27,3.72,1.99,7.49-0.31,10.97c-0.96,1.45-1.98,2.49-1.37,4.41c2.41,7.61,1.13,15.12-0.64,22.65
				c-0.72,3.06-2.54,5.55-5.02,6.44c-3.68,1.32-4.11,3.97-4.54,6.95c-0.56,3.93,0.7,8-1.04,11.86c-0.44,0.98,0.34,1.97,1.16,2.57
				c7.68,5.53,13.97,12.68,24.18,14.91c8.07,1.77,15.49,6.47,23.71,8.73c7.18,1.98,14.3,4.2,21.19,7.25
				c5.76,2.55,10.49,5.59,14.31,10.85c5.75,7.91,13.05,14.65,18.45,22.89c2.85,4.35,4.64,9.02,4.9,14.39
				c0.45,9.28-0.02,18.25-4.95,26.51c-1.23,2.07-0.48,4.59-0.57,6.9c-0.42,10.84-2.17,21.49-6.18,31.54
				c-2.46,6.16-7.39,10.94-11.61,16.04c-0.76,0.93-1.96,1.6-2.98,0.36c-1.24-1.5-0.57-2.93,0.84-3.81c3.2-1.99,5.26-5.04,7.7-7.77
				c6.68-7.48,6.46-17.16,8.54-26.11c0.22-0.94-0.04-2.37-1.22-2.36c-1.83,0.03-2.99,1.61-3.59,3.09c-1.97,4.92-5.25,8.83-9.02,12.4
				c-0.34,0.32-0.78,0.54-1.69,0.53c2.71-3.23,3.59-7.43,5.9-10.72c6.23-8.86,12.13-18.1,14.57-28.54c2.66-11.38,2.85-23-5.02-33.36
				c-5.6-7.38-11.76-14.31-17.3-21.76c-3.78-5.09-10.8-8.28-17.32-10.37c-12.31-3.95-25.08-6.51-36.71-12.51
				c-3-1.55-7.11-1.26-9.64-0.73c-6.33,1.34-9.2-5.47-14.86-4.78c-1.21,0.15-1.29-1.73,0.05-2.53c1.11-0.67,2.71,0.07,3.92-1.46
				c-1.32-2.67-3.59-4.57-6.26-5.89c-2.81-1.39-5.89-2.16-8.8-3.37c-3.66-1.52-5.93,2.07-9.02,3.96c-0.36-1.75,2.34-3.42,0.03-4.77
				c-1.41-0.83-2.65-1.75-4.58-1.48c-14.27,2.01-28.79,2.1-42.87,5.58c-0.81,0.2-1.61,0.43-2.39,0.74c-1.8,0.71-4.3,0.98-3.99,3.66
				c0.31,2.64,2.45,3.26,4.83,3.32c1.58,0.04,3.34-0.6,4.75,1.09c-0.91,1.67-2.47,1.25-3.86,1.18c-3.13-0.17-6.36-0.96-8.74,2.1
				c-0.33,0.42-1.42,0.8-1.76,0.59c-4.37-2.79-9.45-1.43-14.09-2.52c-1.94-0.46-3.52-1.72-4.39-3.57c0.52-1.13,1.46-1.05,2.18-0.78
				c7.97,2.92,12.21-3.38,17.45-7.08c1.28-0.9,1.35-2.76,0.26-3.54c-3-2.14-3.72-5.88-6.17-8.26c-3.23-3.13-6.28-6.09-4.32-11.19
				c0.5-1.29-0.26-2.64-1.57-2.55c-4.16,0.29-5.31-2.86-6.75-5.58c-1.15-2.17-2.07-2.8-4.6-1.46c-7.48,3.96-15.11,7.67-22.81,11.19
				c-4.11,1.88-5.41,4.4-4.95,9.02c0.83,8.37,4.15,14.84,11.27,19.41c2.36,1.51,4.68,2.33,7.5,2.1c1.86-0.15,3.98-0.74,5.61,1.24
				c-3.96,2.87-8.55,3.55-13.06,4.2c-2.14,0.31-5.02,0.89-4.8-3.04c0.09-1.52-1.15-1.85-2.31-2.14c-2.26-0.56-4.64-0.83-6.76-1.71
				c-3.1-1.29-7.02-1.68-6.41-7.02c0.37-3.16-3.07-4.43-5.61-5.65c-1.34-0.64-2.88-0.86-4.25-1.45c-0.48-0.21-0.98-0.94-1.02-1.47
				c-0.06-0.78,0.76-1.02,1.42-1.07c0.66-0.04,1.32,0.12,1.99,0.13c1.27,0.02,3.22,0.58,3.28-1.17c0.07-2.05-1.89-1.12-3.1-1.14
				c-4.14-0.09-8.28-0.15-12.41-0.31c-1.61-0.06-3.32,0.05-5.24-1.83c5.23-0.38,9.89-0.75,14.56-1.05c0.98-0.06,2.29,0.61,2.9,0.17
				c3.92-2.81,5.92-0.32,7.87,2.58c0.67,1,1.42,1.97,2.82,1.33c1.07-0.49,1.17-1.56,1.16-2.56c-0.04-4.08-0.7-7.67-5.72-8.53
				c-2.11-0.36-4.13-1.26-6.19-1.92c-0.98-0.31-2.12-0.72-1.63-2c2.17-5.72-2.34-5.73-5.68-6.73c-1.32-0.39-3.69,0.39-3.6-1.59
				c0.08-1.89,2.37-1.52,3.74-1.29c5.03,0.84,6.7-3.67,8.36-6.37c1.44-2.36-2.23-4.59-4.88-6.09c3.2-3.1,5.65-2.85,7.9,0.57
				c0.72,1.09,1.64,2.14,2.68,2.93c2.59,1.96,4.58,3.81,0.86,6.59c-0.68,0.51-0.77,1.52,0.11,2.15c0.78,0.56,1.73,0.47,2.19-0.33
				c1.23-2.14,4.38-3.58,2.6-6.88c-0.55-1.03-1.23-2.33,0.2-3.01c1.28-0.61,1.4,1.01,2.04,1.65c0.7,0.7,1.6,1.98,2.2,1.87
				c7.63-1.45,3.01,4.45,4,6.84c0.41,0.97-0.74,2.5-0.86,3.81c-0.2,2.18,0.32,4.24,3.05,4.11c2.53-0.12,2.96-2.26,2.3-4.05
				c-1.02-2.78-0.43-4.99,0.82-7.53c1.17-2.37,0.36-5.19-1.12-7.13c-2.6-3.43-1.61-5.95,1.51-9.03c-0.34,3.35,0.36,5.85,1.71,8.4
				c1.35,2.53,0.89,5.44-0.47,8.17c-1.06,2.15-1.38,4.65,0.53,6.53c2.34,2.3,3.78-0.34,5.51-1.35c0.85-0.5,1.87-0.73,2.69-1.27
				c5.43-3.56,5.08-3.75,0.27-7.99c-6.01-5.3-7.14-7-1.67-12.88c1.98,1.24,0.21,3.05,0.67,4.5c0.56,1.75,0.31,4.78,3.53,2.43
				c1.88-1.38,1.78,0.22,2.22,1.19c0.57,1.27,0.39,3.63,2.36,3.17c1.76-0.41,1.61-2.66,1.74-4.3c0.09-1.13-0.45-2.33,1.44-4.73
				c-0.89,6.83,2.89,11.29,3.26,16.7c0.08,1.16,0.02,2.35,0.27,3.47c0.41,1.81,1.5,3.19,3.54,2.49c1.98-0.68,1.29-2.31,0.89-3.79
				c-1.61-5.87-4.47-11.39-4.41-17.73c0.02-2.03,0.65-3.96,0.49-5.92c-0.23-2.73-1.75-5-4.58-5.03c-3.02-0.03-2.34,2.55-2.16,4.52
				c0.15,1.61,0.01,3.29-2.02,3.29c-2.58,0-4.38-1.57-5.18-3.96c-0.58-1.72,0.09-2.82,2.17-2.95c4.69-0.28,3.02-4.27,3.56-6.88
				c1.92-0.01,2.68,2.73,4.58,1.56c2.01-1.25,1.04-3.32,0.97-5.04c-0.15-3.99-0.54-7.98-0.69-11.97c-0.12-3.05-1.42-4.74-4.36-3.1
				c-14.26,7.99-30.97,9.99-44.99,18.54c-3.5,2.13-6.26,4.49-6.68,9.19c-0.45,4.96-3.47,6.32-7.64,3.78
				c-2.76-1.68-4.87-1.3-7.3,0.44c-3.56,2.56-6.05,5.91-8.16,9.68c-3,5.36-5.77,10.82-7.35,17.94c-2.64-4.08,0.19-6.53-0.06-9.17
				c-1.09-11.51,5.56-18.04,15.08-21.99c8.26-3.42,15.11-8.96,22.71-13.32c10.83-6.22,22.96-9.5,34.62-13.82
				c2.49-0.92,4.85-2.18,7.35-3.07c4.39-1.56,6.99-3.73,7.28-9.19c0.34-6.51,3.6-12.32,8.57-16.87c8.18-7.48,15.1-16.36,24.88-22.06
				c2.67-1.56,5.21-1.76,8.96,0.21c-6.13,2.04-11.46,3.8-15.44,7.89c-7.94,8.17-17.77,14.62-22.95,25.32
				c-1.05,2.16-1.72,4.26-1.75,6.66c-0.12,9.9,0.74,19.81-0.49,29.68c-0.15,1.17-0.64,2.47,0.25,3.35
				c4.06,3.99,3.58,9.08,3.58,14.06c0,5.69,2.87,10.73,4.03,16.17c0.9,4.21,0.1,8.42,1.56,12.65c2.32,6.72,7.49,11.31,11.25,16.85
				c1.96,2.88,8.18,2.23,11.77,1.33c8.2-2.04,16.94-1.19,24.79-5.05c2.07-1.02,4.03-2.28,6.16-3.17c1.92-0.8,4.11-3.91,5.15,1.19
				c0.44,2.15,8.96,1.36,9.58-1.05c1.3-5.1,5.36-7.74,8.68-11.08c1.55-1.56,3.18-3.05,2.43-5.6L1040.67,242.32z M918.47,241.76
				c-2.59-0.79,1.02-5.82-3.48-5.83c-1.79-0.01-4.1,1.47-3.76,3.82c0.4,2.77,2.66,4.53,5.26,5.21
				C918.11,245.39,918.67,243.92,918.47,241.76z M1053.05,219.7c0.06-0.91,0.05-2.54-1.73-2.5c-2.63,0.07-1.85,3.17-3.36,4.44
				c-1.11,0.93-1.3,2.33-0.1,3.5c0.83,0.81,1.79,1.62,3.05,1.35c1.23-0.27,1.15-1.45,1.32-2.41
				C1052.47,222.78,1052.72,221.47,1053.05,219.7z"/>
			<path class="st0" d="M921.87,537.88c-2.3,4.22-6.91,5.53-10.69,6.15c-8.48,1.38-9.42,7.91-10.34,13.82
				c-2.41,15.43-4.71,30.82-10.77,45.37c-0.57,1.37-1.25,2.88-1.2,4.3c0.72,18.76,0.46,37.79,11.75,54.22
				c2.05,2.98,4.6,5.74,7.34,8.11c7.26,6.28,11.85,14.74,18.33,21.67c7,7.49,15.68,12.85,23.37,19.44c1.62,1.38,3.18,2.83,4.53,4.57
				c-3.48-0.53-5.84-3.04-8.61-4.76c-7.78-4.82-15.31-9.97-21.97-16.36c-5-4.79-7.98-11.07-12.59-16.11
				c-0.96-1.05-1.75-2.9-3.48-2.38c-1.96,0.59-1.75,2.59-1.7,4.24c0.3,10.02,3.08,18.53,9.75,26.85
				c9.17,11.44,17.41,23.85,24.49,36.85c0.47,0.87,0.94,1.82-0.7,3.04c-3.56-5.07-7.06-10.17-10.69-15.17
				c-5.56-7.65-10.17-16.42-17.09-22.56c-9.21-8.18-8.23-18.22-8.14-28.14c0.06-6.36-1.39-11.06-5.21-16.27
				c-7.44-10.16-11.7-21.89-11.81-34.78c-0.03-3.66,0.51-7.44-0.22-10.96c-2.14-10.36,1.72-19.51,4.53-29.07
				c2.86-9.71,4.38-19.8,6.8-29.65c2.91-11.83,3.41-24.42,9.37-35.29c4.25-7.76,2.85-14.28-1.13-21.4
				c-3.1-5.54-3.16-11.8-1.71-17.99c1.53-6.51,1.75-13.18,2.22-19.8c0.25-3.47-0.74-6.85-2.24-10.13
				c-2.94-6.44-3.79-13.46-4.47-20.4c-0.56-5.68-1.77-11.13-3.31-16.59c-1.43-5.07-0.61-10.31,0.24-15.36
				c0.66-3.93-0.2-7.1-3.15-9.36c-5.17-3.97-7.49-9.75-9.88-15.3c-5.26-12.2-10.53-24.54-17.6-35.64
				c-7.46-11.71-9.38-24.93-13.68-37.49c-1.46-4.26-0.84-9.21-0.05-13.87c2-11.76,6.8-22.98,6.26-35.26
				c-0.14-3.16,1.63-6.37,1.85-9.72c0.08-1.19,0.46-3.04,2.2-2.7c1.53,0.3,0.8,1.88,0.74,2.98c-0.1,1.82-0.31,3.65-0.23,5.46
				c0.09,2.08-0.76,5.54,3.48,3.02c0.58-0.34,1.46-0.32,1.68,0.43c0.16,0.53,0,1.48-0.39,1.8c-2.28,1.89-2.56,4.04-1.46,6.69
				c0.95,2.31-1.04,3.74-2.15,5.25c-4.56,6.21-7,13.18-7.93,20.74c-0.18,1.43-0.73,3.36,1.09,3.93c1.87,0.59,2.4-1.24,2.95-2.64
				c0.84-2.16,1.74-4.29,2.53-6.47c0.42-1.16,0.24-3.18,2.24-2.21c1.36,0.65,0.29,1.94-0.16,3.02c-4.16,10.12-6.82,20.45-4.86,31.56
				c0.74,4.17,2.27,8,4.01,11.78c0.58,1.26,1.16,3.27,2.93,2.91c1.78-0.37,1.61-2.43,1.46-3.81c-0.65-5.69,0.53-11.31,0.39-16.97
				c-0.03-1.26-0.46-3.16,1.27-3.31c2.18-0.19,1.93,1.94,1.91,3.31c-0.12,8.49-0.31,16.98-0.57,25.47
				c-0.12,3.87,0.71,7.14,2.56,10.8c4.2,8.34,10.25,15.79,11.67,25.65c0.67,4.66,4.14,8.93,6.45,13.32c0.53,1,1.47,2.01,2.84,1.39
				c1.14-0.51,0.81-1.68,0.77-2.65c-0.08-1.77-1.19-3.5-0.26-5.33c1.85-0.41,1.81,1.02,2.1,2.06c0.23,0.79,0.05,1.95,0.54,2.38
				c8.06,7.14,3.67,15.21,1.8,23.08c-0.66,2.79-0.9,5.56-0.35,8.41c2.32,12.1,4.01,24.36,7.07,36.27c1.95,7.61,4.36,15.34,8.9,22.06
				c0.65,0.96,2.24,2.27,0.42,3.3c-1.29,0.73-1.85-0.96-2.56-1.8c-0.9-1.07-1.06-3.35-2.95-2.84c-1.88,0.51-1.92,2.64-1.81,4.26
				c0.21,3.39-0.75,6.57-1.21,9.85c-1,7.1-0.38,14,5.3,19.3c1.53,1.42,1.11,2.49,0.22,3.87c-0.79,1.22-0.92,2.58,0.16,3.68
				c1.38,1.4,2.6,0.21,4.03-0.24c6.26-1.97,12.4-4.16,18.14-7.41c0.44-0.25,1.22,0.08,1.82,0.14c0.2,2.1-1.27,2.41-2.47,2.81
				c-5.49,1.85-10.2,5.34-15.9,6.92c-5.05,1.4-13.76,16.45-13.61,21.93c0.06,2.16,1.21,2.98,3.23,2.74
				c0.47-0.06,0.99-0.27,1.36-0.57c3.71-3,7.59-4.94,12.35-2.31L921.87,537.88z"/>
			<path class="st0" d="M1113.52,437.57c0.29,1.33-0.42,1.95-1.17,2.17c-7.5,2.18-7.25,8.13-6.88,14.08
				c0.63,10.13,3.88,19.95,3.39,30.24c-0.42,8.65-0.39,17.34-5.75,24.81c-0.86,1.2-1.66,2.54-2.79,3.45
				c-4.95,4.01-6.48,7.83-4.53,13.9c3.11,9.69,2.29,19.65,3.29,30.51c-3.89-3.07-3.35-7.01-4.93-9.94c-1.59-2.94-2.19-6.66-7-4.75
				c-1.13,0.45-1.6-0.79-2.26-1.54c-3.6-4.1-8.18-6.63-13.37-8.2c-1.88-0.57-3.85-0.65-5.6-1.92
				c-14.13-10.25-30.74-11.59-47.32-12.9c-2.07-0.16-5.59,0.67-5.47-1.69c0.16-3.02,3.67-1.39,5.76-1.55
				c9.04-0.69,17.78,1.68,26.47,3.38c6.41,1.26,12.79,3.89,18.53,7.08c8.12,4.51,17.11,7.27,24.73,12.81c3.84,2.8,5.13,1.5,5.5-3.45
				c0.51-6.76-3.17-12.36-4.54-18.59c-0.64-2.9-3.57-3.46-6.11-3.24c-9.15,0.81-16.85-2.84-24.38-7.35
				c-3.43-2.05-7.1-3.5-11.18-4.05c-3.41-0.46-6.84-0.97-10.13-2.43c-3.06-1.36-6.56-1.43-9.53,0.72c-1.58,1.15-3.23,1.64-5.1,1.69
				c-8.68,0.24-17.03,2.67-25.56,3.86c-6.25,0.87-12.48-0.42-18.73-0.62c-0.81-0.03-1.6-0.48-2.42-0.58
				c-1.35-0.17-2.99-0.26-3.45,1.24c-0.59,1.91,1.46,1.76,2.48,2.41c0.36,0.23,0.59,0.65,1.09,1.24c-2.29,1.1-3.88,0.38-5.63-0.79
				c-4.14-2.79-8.08-2.78-12.38,0.32c-5.28,3.81-11.68,5.53-17.89,7.01c-3.1,0.74-5.97,2.7-10.8,2.65c4.14-2.4,6.89-4.99,10.26-5.02
				c6.58-0.04,11.13-5.09,17.18-6.18c0.89-0.16,1.55-0.85,1.13-1.81c-0.44-1.01-1.56-1.44-2.52-1.29
				c-3.77,0.57-7.52,1.27-11.26,2.03c-1.54,0.31-3.04,1.42-4.89-0.29c5.69-4.11,12.1-5.78,18.64-5.64
				c10.76,0.23,21.52,1.07,32.24,2.16c6.64,0.67,13-0.45,19.26-1.97c3.76-0.92,7.42-1.63,11.27-1.71c3.32-0.06,6.56-0.29,9.65-2
				c3.06-1.69,6.53-0.97,9.81-0.4c10.1,1.76,19.5,5.65,28.52,10.3c8.59,4.43,17.88,3.43,26.89,4.28c4.08,0.38,8.52-5.9,9.07-12.37
				c0.84-9.97,1.46-20.3-0.74-29.88c-3.45-15.01-2.17-29.72-0.95-44.61c0.15-1.82,0.17-3.67,0.53-5.46
				c0.31-1.56,1.23-2.92,3.13-2.31c1.43,0.46,2.36,1.87,1.56,3.16c-2.26,3.64-0.76,7.83-2.11,11.63c-1.96,5.55-0.75,6.94,5.29,7.1
				C1112.42,437.3,1113.02,437.48,1113.52,437.57z"/>
			<path class="st0" d="M1134.62,728.38c0.03-4.78-2.81-8.85-3.17-13.29c-0.9-10.95-5.65-20.44-10.18-30.04
				c-2.14-4.54-2.4-8.69,0.09-13.24c2-3.64,2.58-7.64,2.36-12c-0.31-6.25,1.65-12.43,1.59-18.78c-0.13-14.98,0.31-29.99-5.36-44.32
				c-3.22-8.14-8.78-14.81-13.21-22.19c-1.54-2.56-2.87-5.25-4.15-7.94c-0.39-0.81-0.82-2.04,0.47-2.55
				c0.91-0.36,1.54,0.45,1.98,1.15c4.65,7.26,9.15,14.61,13.92,21.78c14,21.03,10.34,44.48,8.65,67.37
				c-1.26,17-0.46,33.3,5.15,49.58c2.62,7.58,2.62,16.07,3.8,24.15C1135.92,728.16,1135.27,728.27,1134.62,728.38z"/>
			<path class="st0" d="M922.03,538.02c-0.3-0.75-0.51-1.56-0.93-2.23c-0.47-0.74-2.05-1.09-1.05-2.28
				c0.77-0.92,1.83-0.42,2.62,0.31c1.42,1.32,2.99,1.33,4.61,0.49c9.52-4.96,20.24-6.37,30.11-10.27c8.35-3.3,17.35-4.09,25.77-6.63
				c6.27-1.89,12.31-2.02,18.52-2.45c1.2-0.08,2.65-0.46,3.89,1.06c-2.17,2-4.84,1.98-7.4,2.02c-14.2,0.23-27.69,4.06-40.95,8.54
				c-9.02,3.05-17.75,6.91-27.15,8.83c-2.78,0.56-4.8,3.82-8.2,2.46C921.87,537.88,922.03,538.02,922.03,538.02z"/>
			<path class="st0" d="M1028.22,1058.67c-1.86,1.63-3.73,0.94-5.41,0.54c-12.45-2.94-25.05-4.99-37.68-6.98
				c-7.59-1.2-14.48-4.74-19.52-11.08c-1.52-1.91-1.81-3.26,0.16-5.05c1.56-1.41,3.31-2.81,3.86-5.07c0.23-0.96,0.47-2.15,1.88-1.56
				c1.07,0.45,1.31,1.53,0.96,2.53c-0.32,0.92-0.73,2.02-1.46,2.55c-4.9,3.55-2.05,6.08,1.13,8.32c5.54,3.91,12,6.03,18.5,7.02
				c11.98,1.81,23.61,5.14,35.53,7.12C1027.01,1057.16,1027.78,1057.44,1028.22,1058.67z"/>
			<path class="st0" d="M994.21,1011.89c7.78,9.85,19.42,11.78,30.18,15.35c6.27,2.08,12.68,3.77,18.98,5.79
				c4.59,1.47,9.3,0.32,13.9,0.9c2.14,0.27,5.95-0.38,5.63,2.33c-0.31,2.64-3.62,0.76-5.56,0.43c-6.53-1.11-13.36-0.54-19.59-3.17
				c-5.33-2.25-11.27-2.32-16.49-4.91c-0.87-0.43-1.98-0.91-2.85-0.73c-9.22,1.91-14.5-5.16-21.09-9.19
				C995.03,1017.28,995.3,1014.32,994.21,1011.89z"/>
			<path class="st0" d="M1029.38,508.04c14.49-3.47,26.97,2.76,39.72,7.76c5.12,2,10.08,4.23,14.21,7.97
				c0.9,0.82,1.97,1.88,1.1,2.91c-1.15,1.38-1.86-0.12-2.65-0.94c-3.46-3.57-8.23-4.78-12.61-6.53c-8.61-3.44-17.34-6.63-26.12-9.62
				C1038.65,508.1,1033.9,508.66,1029.38,508.04z"/>
			<path class="st0" d="M965.09,776.54c-21.04-5.26-45.35-22.47-46.09-36.16C930.18,758.12,947.53,767.44,965.09,776.54z"/>
			<path class="st0" d="M1050.13,658.19c-2.87,8.38-8.44,15.26-13.25,22.44c-5.7,8.51-9.38,17.65-12.72,27.16
				c-1.34,3.81-2.64,7.61-3.22,11.81c-2.66-1.12-2.4-3.1-1.91-4.43c4.67-12.57,7.84-25.76,16.48-36.63
				c4.51-5.67,8.18-12.03,12.2-18.09c0.65-0.98,1.16-2.05,2.53-2.14L1050.13,658.19z"/>
			<path class="st0" d="M903.11,760.15c0.88-8.2-1.55-16.14-1.86-24.19c-0.3-7.89,1.24-15.85,2.05-23.78
				c0.13-1.23,0.12-2.71,2.34-3.52c1.57,5.63,1.21,11.38-0.14,16.53c-2.32,8.87,0.06,17.32,0.6,25.94c0.22,3.47,1.22,7.08-3.13,8.89
				C902.98,760.02,903.11,760.15,903.11,760.15z"/>
			<path class="st0" d="M1036.36,758.82c-0.72-6.7,1.7-13.06,3.36-19.29c2.25-8.44,4.63-16.87,7.07-25.27
				c0.43-1.47,0.23-4.06,2.32-3.64c1.96,0.4,1.06,2.76,0.79,4.3c-1.77,10.33-6.69,19.74-8.83,29.96c-1,4.78-2.22,9.51-3.34,14.26
				C1037.28,759.03,1036.82,758.92,1036.36,758.82z"/>
			<path class="st0" d="M1034.51,232.26c1.12,0.14,2.44-0.09,3.1,1.12c0.69,1.26-0.35,2.08-0.91,3.08
				c-2.08,3.71-4.84,7.07-5.81,11.35c-0.22,0.97-0.54,2.01-1.83,1.94c-1.26-0.07-1.5-1.12-1.68-2.1c-0.22-1.18-0.52-2.34-1.74-2.81
				c-5.96-2.28-2.18-3.94,0.41-5.45c2.04-1.19,3.99-2.22,4.54-4.85C1031,232.54,1032.77,232.3,1034.51,232.26z"/>
			<path class="st0" d="M1022.98,441.71c10.11-2.98,33.77,10.4,38.15,21.44C1049.12,454,1038.27,445.05,1022.98,441.71z"/>
			<path class="st0" d="M1146.67,839.56c0.28-14.24-4.57-27.93-4.49-42.9C1146.7,802.03,1149.89,831.35,1146.67,839.56z"/>
			<path class="st0" d="M1086.61,1093.8c-7.8-2.06-16.52-0.72-23.17-7.02c-0.56-0.53-1.41-0.82-2.17-1.08
				c-5.63-1.92-6.24-3.25-3.89-10.76c0.29,10.21,8.33,9.7,13.92,12.09c5.07,2.16,10.46,3.57,15.71,5.31
				C1086.87,1092.83,1086.74,1093.31,1086.61,1093.8z"/>
			<path class="st0" d="M1060.27,147.72c-0.03-1.68,1.22-2.48,2.33-2.91c2.3-0.89,4.32-2.22,2.74-4.67
				c-1.36-2.11-3.97-2.98-6.62-1.63c-1.8,0.92-3.75,3.24-5.29,0.11c-0.63-1.28-1.34-3.43-0.22-4.71c1.1-1.26,2.34,0.49,3.51,0.9
				c1.84,0.64,3.63,0.01,5.44,0c4.57-0.04,8.03,3.1,7.86,7.07c-0.09,2.12-0.15,4.14-3.31,3.33
				C1064.09,144.53,1063.35,149.13,1060.27,147.72z"/>
			<path class="st0" d="M1123.78,385.21c-1.9-3.11-1.05-6.26-0.35-9.11c1.49-6.06,1.9-12.13,1.58-18.3c-0.02-0.33-0.06-0.67-0.01-1
				c0.25-1.52-0.34-3.91,1.9-3.89c1.86,0.02,1.57,2.26,1.55,3.67c-0.09,4.16-0.04,8.35-0.58,12.46
				C1127.17,374.56,1124.65,379.63,1123.78,385.21z"/>
			<path class="st0" d="M1138.67,733.43c0,13.32,0,26.64,0,39.96c-0.43,0.01-0.87,0.02-1.3,0.03c0.1-13.33-1.97-26.62-0.22-39.97
				C1137.66,733.45,1138.16,733.44,1138.67,733.43z"/>
			<path class="st0" d="M1048.76,751.66c1.18,3.87,1.73,7.77,2.25,11.64c0.49,3.66-3.34,6.12-4.65,9.53
				c-1.38,3.59-4.28,6.59-4.94,10.63c-0.12,0.75-0.42,1.77-1.53,1.55c-1.04-0.2-0.97-1.2-1.01-2c-0.12-2.7,1.75-4.65,2.91-6.74
				c4.06-7.29,7.82-14.56,6.43-23.32C1048.17,752.56,1048.58,752.09,1048.76,751.66z"/>
			<path class="st0" d="M1070.86,148.5c2.18,9.06-1.56,15.73-7.56,21.5c-0.98,0.94-2.22,3.04-3.53,1.76
				c-1.48-1.45,0.73-2.48,1.73-3.32c2.05-1.72,4.1-3.56,5.11-5.97c0.94-2.23,3.61-4.83-0.19-7.25c-1.48-0.94-0.63-2.38,0.42-3.34
				C1068.13,150.69,1069.52,149.61,1070.86,148.5z"/>
			<path class="st0" d="M969,772.82c-2.42,0.95-3-0.72-3.85-1.45c-5.54-4.81-11.91-8.25-18.39-11.54c-0.87-0.44-2.15-0.6-1.96-1.82
				c0.21-1.38,1.64-1.18,2.4-0.81C955.18,761.07,963.53,764.45,969,772.82z"/>
			<path class="st0" d="M1014.41,435.79c-1.09,1.54-2.22,1.52-3.07,1.15c-7.3-3.12-15.01-2.48-22.64-2.67
				c-1.22-0.03-3.18,0.46-3.24-1.34c-0.06-1.85,1.89-1.36,3.12-1.46C997.44,430.76,1005.99,431.91,1014.41,435.79z"/>
			<path class="st0" d="M1081.29,807.24c-0.32,1.35-1.17,1.43-1.98,1.46c-8.76,0.27-17.53,0.53-26.29,0.77
				c-1.38,0.04-3.52,0.72-3.38-1.51c0.1-1.67,2.09-1.18,3.33-1.01c8.46,1.18,16.87-0.32,25.31-0.31
				C1079.27,806.63,1080.27,806.28,1081.29,807.24z"/>
			<path class="st0" d="M1111.98,346.79c-1.65-6.04-2.52-12.22-3.03-18.47c-0.07-0.82-0.03-1.73,0.98-2.01
				c1.03-0.28,1.6,0.4,1.7,1.29c0.67,6.34,1.27,12.69,1.9,19.04C1113,346.69,1112.49,346.74,1111.98,346.79z"/>
			<path class="st0" d="M1049.1,827.64c6.23-1.94,12.62-1.24,19.37-1.3C1064.56,829.25,1054.93,830.02,1049.1,827.64z"/>
			<path class="st0" d="M1099.51,862.78c5.02-2.02,9.66-2.43,14.43-1.84c1,0.12,2.11,0.59,2.12,1.73c0.01,1.37-1.26,1.36-2.22,1.32
				C1109.25,863.81,1104.46,866.25,1099.51,862.78z"/>
			<path class="st0" d="M945.38,519.48c5.6-2.71,11.14-4.02,15.91-7.03c0.38-0.24,1.38-0.01,1.75,0.36
				c0.53,0.51,0.26,1.48-0.38,1.65c-5.41,1.45-9.71,5.8-15.6,5.95C946.78,520.41,946.49,520.11,945.38,519.48z"/>
			<path class="st0" d="M1046.72,1062.73c9.37,0.24,15.42,4.77,13.26,10.09C1058.19,1066.16,1051.86,1065.84,1046.72,1062.73z"/>
			<path class="st0" d="M892.64,356.24c2.86,4.28,1.72,8.46,1.91,12.41c0.03,0.65-0.52,1.28-1.28,1.12
				c-0.38-0.08-0.94-0.64-0.93-0.98C892.38,364.85,890.23,360.83,892.64,356.24z"/>
			<path class="st0" d="M1012.88,213.01c-0.09,1.78-1.1,3.48-0.39,5.34c1.01,2.65-0.98,2.65-2.62,2.79
				c-2.14,0.18-3.09-0.97-2.71-3.02c0.59-3.2,1.88-5.69,5.85-4.98L1012.88,213.01z"/>
			<path class="st0" d="M1111.73,391.52c-0.67-5.14-1.11-10.26,0.92-15.18C1113.22,381.47,1113.45,386.57,1111.73,391.52z"/>
			<path class="st0" d="M1140.63,778.67c2.65,4.21,1.83,8.78,1.85,13.27C1139.86,787.8,1139.17,783.37,1140.63,778.67z"/>
			<path class="st0" d="M1050.24,658.31c-0.85-4.86,2.73-8.17,4.06-12.53c2.23,3.6,0.49,8.37-4.18,12.4
				C1050.13,658.19,1050.24,658.31,1050.24,658.31z"/>
			<path class="st0" d="M1002.89,364.28c0.5-0.82,0.62-1.27,0.83-1.32c3.22-0.81,6.45-1.34,9.53,0.48c0.15,0.09,0.01,1.17-0.15,1.22
				C1009.7,365.6,1006.42,365.13,1002.89,364.28z"/>
			<path class="st0" d="M1060.54,539.69c-1.59-3.58-3.18-7.16-4.77-10.74C1059.12,531.68,1062.3,534.48,1060.54,539.69z"/>
			<path class="st0" d="M972.1,365.57c1.76-1.35,2.32-1.98,3.03-2.29c2.12-0.95,4.32-1.69,6.59-0.51c0.29,0.15,0.59,0.99,0.45,1.18
				c-1.53,2.01-3.91,1.13-5.9,1.59C975.35,365.74,974.36,365.57,972.1,365.57z"/>
			<path class="st0" d="M1114.63,361.4c1.29,3.44,2.35,6.87-0.52,10.94C1113.13,368.16,1114.3,364.76,1114.63,361.4z"/>
			<path class="st0" d="M1004.87,292.03c2.11-1.67,3.97-3.75,6.86-3.96c0.82-0.06,1.75,0.01,2.06,0.9c0.39,1.11-0.64,1.58-1.34,1.55
				C1009.79,290.4,1007.7,292.44,1004.87,292.03z"/>
			<path class="st0" d="M1120.99,389.73c1.66,3.24,1.65,5.72-0.02,8.06c-0.14,0.2-1.18,0.11-1.22-0.04
				C1118.87,395.13,1119.23,392.66,1120.99,389.73z"/>
			<path class="st0" d="M1120.92,426.27c-0.29,0.54-0.37,0.96-0.6,1.07c-1.9,0.89-3.81,1.99-5.95,0.75
				c-0.22-0.12-0.28-1.1-0.11-1.22C1116.34,425.48,1118.5,424.74,1120.92,426.27z"/>
			<path class="st0" d="M980.37,249.1c0.43-1.11,1.19-1,1.77-0.9c1.65,0.29,3.69-1.23,4.89,0.92c0.17,0.3-0.37,1.25-0.81,1.59
				c-1.87,1.45-3.38,0.07-4.92-0.82C981.03,249.75,980.81,249.49,980.37,249.1z"/>
			<path class="st0" d="M1013.01,213.14c0.83-2.57,2.07-4.87,4.78-5.85c0.91-0.33,2.09-0.16,2.5,0.96c0.39,1.07-0.63,1.25-1.35,1.61
				c-2.03,1.02-4.03,2.1-6.05,3.16C1012.88,213.01,1013.01,213.14,1013.01,213.14z"/>
			<path class="st0" d="M1031.2,225.17c1.27,1.88,0.27,3.29-0.42,4.68c-0.61,1.24-1.61,2.07-3.08,1.92c-0.4-0.04-1-0.41-1.08-0.73
				c-0.38-1.52,1.21-1.67,1.88-2.48C1029.39,227.48,1030.24,226.37,1031.2,225.17z"/>
			<path class="st0" d="M957.38,733.66c-2.32-1.81-4.65-3.6-6.95-5.43c-0.66-0.53-1.3-1.26-0.6-2.07c0.72-0.84,1.5-0.25,2.15,0.3
				c2.26,1.9,4.5,3.82,6.76,5.73C958.28,732.68,957.83,733.17,957.38,733.66z"/>
			<path class="st0" d="M936.72,524.56c-2.71,1.47-4.95,3.97-8.36,3.81C930.87,526.48,933.16,524.15,936.72,524.56z"/>
			<path class="st0" d="M1062.01,158.42c-2.08,2.19-3.35,3.62-4.73,4.94c-0.67,0.65-1.64,1.5-2.53,0.63
				c-0.98-0.96-0.03-1.94,0.75-2.35C1057.31,160.7,1058.67,158.9,1062.01,158.42z"/>
			<path class="st0" d="M1040.8,242.2c-0.69-0.65-1.74-1.03-1.74-2.22c0-2.12,1.54-3.14,3.07-4.1c0.3-0.19,1.13-0.11,1.28,0.13
				c1.24,1.9-1.08,2.36-1.56,3.59c-0.35,0.92-0.78,1.8-1.19,2.71C1040.67,242.32,1040.8,242.2,1040.8,242.2z"/>
		</g>
	</g>
</g>
</svg>
