<?xml version="1.0" encoding="utf-8"?>
<!-- Generator: Adobe Illustrator 28.0.0, SVG Export Plug-In . SVG Version: 6.00 Build 0)  -->
<svg version="1.1" id="Layer_1" xmlns="http://www.w3.org/2000/svg" xmlns:xlink="http://www.w3.org/1999/xlink" x="0px" y="0px"
	 viewBox="0 0 1920 1080" style="enable-background:new 0 0 1920 1080;" xml:space="preserve">
<style type="text/css">
	.st0{fill:none;stroke:#231F20;}
</style>
<g>
	<g>
		<g>
			<path d="M978.27,768.03c-1.82-1.88-1.4-3.97-1.36-5.89c0.3-14.35-0.31-28.63-2.7-42.8c-0.08-0.49-0.05-1.02-0.19-1.48
				c-0.46-1.49-0.08-4.12-2.03-3.98c-2.13,0.15-1.14,2.7-1.29,4.19c-0.21,2.14-0.19,4.32-0.01,6.46c0.41,4.89-0.96,9.03-5.27,11.58
				c-3.17,1.87-3.55,4.33-3.13,7.61c1.52,12.06,3.29,24.06,6.55,35.81c0.47,1.7,1.26,4.16-1.18,4.64c-2.57,0.5-2.17-2.13-2.67-3.83
				c-3.42-11.63-3.78-23.91-7.57-35.45c-0.58-1.76,1.18-4.7-1.51-5.17c-2.51-0.44-3.09,2.72-4.17,4.36
				c-2.5,3.8-5.05,6.65-10.19,6.79c-3.69,0.11-6.01,4.72-4.81,8.82c1.11,3.79,1.21,7.53,0.73,11.36c-0.12,1-0.43,2.07-1.65,2.18
				c-0.92,0.08-1.43-0.72-1.85-1.45c-1-1.72-2.43-3.25-2.64-5.33c-1.7-16.28-11.63-27.51-23.1-37.82c-1.47-1.33-2.76-2.88-4.03-4.41
				c-0.68-0.82-2.09-1.82-0.8-2.9c1.07-0.9,2.29,0.2,3.01,1.02c8.14,9.29,19.94,15.34,24.63,27.71c0.46,1.22,1.19,2.62,2.87,2.14
				c1.18-0.34,0.93-1.61,0.96-2.58c0.05-1.95-10.14-22.03-11.63-23.1c-9.28-6.72-18.5-13.43-28.51-19.16
				c-5.85-3.35-10.33-9.1-15.41-13.79c-0.9-0.83-1.45-2-1.28-3.15c0.89-6.23-3.47-8.43-7.98-10.35c-4.13-1.76-8.42-3.16-12.62-4.77
				c-5.64-2.16-7.24-0.63-7.5,5.37c-0.6,13.61,2.54,26.67,5.1,39.83c0.16,0.82,0.38,1.62,0.51,2.45c0.15,0.99,0.33,2.17-0.86,2.56
				c-1.54,0.51-2.06-0.8-2.38-1.89c-1.25-4.3-3.02-8.44-3.54-12.97c-0.21-1.86-0.62-4.53-3.15-4.46c-2.89,0.07-2.35,2.82-2.3,4.67
				c0.44,16.42-2.8,32.66-2.34,49.07c0.08,2.93-1.1,6.62,3.77,7.32c1.51,0.22,1.04,1.79,0.87,2.94c-0.22,1.47-0.56,2.94-0.55,4.41
				c0.01,1.13,0.3,2.41,1.76,2.68c1.14,0.21,1.89-0.53,2.48-1.35c3.58-4.98,8.59-8.87,11.19-14.6c0.41-0.91,0.83-2.11,2.01-1.79
				c1.42,0.39,1.26,1.78,1.12,2.95c-0.24,2.06-0.98,4.1-2.65,5.22c-4.26,2.87-6.38,7.61-10.02,11c-0.99,0.92-2.25,2.34-0.97,3.34
				c1.56,1.23,1.94-1.02,2.82-1.81c5.71-5.14,11.88-9.91,18.86-12.83c8.82-3.68,17.02,0.2,24.33,5.11
				c14.88,10,20.59,24.82,21.49,42.12c0.17,3.32,1.25,6.47-1.03,9.53c-0.97,1.31-0.68,3.06,0.85,3.93c1.74,0.99,2.65-0.62,3.71-1.64
				c7.92-7.59,8.46-17.35,6.24-26.85c-1.73-7.42-1.19-15.15-4.5-22.39c-5.3-11.58-12.41-22.03-18.84-32.9
				c-3.37-5.7-7.26-11.09-10.07-17.12c-0.49-1.05-1.48-2.14-0.04-2.97c1.05-0.6,1.85,0.4,2.41,1.23c3.54,5.23,7.36,10.3,10.48,15.76
				c4.29,7.52,9.84,14.19,13.84,21.92c4.45,8.61,9.04,17.04,9.3,27.05c0.05,1.91-0.49,4.78,2.01,4.98c2.99,0.23,1.87-2.81,2.23-4.57
				c0.13-0.63,0.08-1.34,1.9-1.73c-1.83,8.62,3.48,17.79-4.02,25.41c-0.34,0.34-0.73,0.83-0.75,1.27
				c-0.33,8.02-6.89,11.36-11.39,16.58c-4.5,5.21-9.78,10.25-12.65,16.86c-0.13,0.3-0.28,0.63-0.51,0.85
				c-6.57,5.95-8.13,13.28-6.65,21.82c2.05,11.84-1.03,22.96-5.25,33.98c-4.19,10.96-7.86,22.12-11.39,33.33
				c-2.37,7.53-2.84,15.56-6.62,22.72c-7.39,14-9.9,29.45-10.96,44.89c-0.88,12.8,2.3,25.53,4.9,38.06
				c1.51,7.28,1.44,14.8,4.32,21.93c3.52,8.72,6.89,17.46,11.29,25.78c0.38,0.72,1,1.78,0.74,2.29c-2.95,5.67-0.72,13.17-5.17,17.85
				c-3.59,3.78-8.43,6.89-13.95,7.88c-2.98,0.53-5.72,1.39-8.47,2.74c-9.27,4.56-24.17,0.93-31.59-6.45
				c-3.58-3.56-6.89-7.44-10.75-10.72c-2.89-2.46-2.46-5.88-2.06-8.8c1.73-12.87,0.62-26.01,3.7-38.74
				c0.15-0.63,0.23-1.41-0.01-1.97c-4.44-10.65,1.2-19.53,5.53-28.31c2.37-4.79,2.53-9.38,1.38-13.94
				c-1.79-7.12-2.01-14.09-0.5-21.2c0.96-4.52-0.78-8.88-0.85-13.35c-0.13-8.14,0.45-16.48-1.18-24.33
				c-1.29-6.21-2.7-12.43-2.29-18.58c0.87-12.9-4.27-25.45-2.19-38.21c1.67-10.24,0.22-20.88,4.41-30.82
				c1.45-3.44,1.43-7.48,2.23-11.22c0.72-3.37,0.92-7.05,4.92-8.66c0.98-0.39,1.07-1.62,1.11-2.63c0.27-7.67,1.38-15.24,2.36-22.84
				c0.48-3.73-1.16-7.55-0.47-11.68c1.22-7.27,3.28-14.15,6.57-20.68c1.02-2.02,1.7-3.94,0.97-6.19c-5.22-15.98-3.3-32.2-1.48-48.38
				c0.8-7.12,1.63-14.22,0.78-21.36c-0.41-3.46-0.21-6.5,1.81-9.51c2.9-4.31,3.04-9.42,3.44-14.4c0.43-5.29,0.54-10.63,3.19-15.49
				c1.91-3.5-1.31-3.73-3.27-4.64c-13.39-6.19-23.55-15.47-28.61-29.7c-2.12-5.95-4.57-11.79-6.59-17.78
				c-3.14-9.34-9.41-16.77-15-24.53c-7.39-10.24-15.55-20.09-22.22-30.69c-6.94-11.03-13.44-22.84-13.83-36.89
				c-0.15-5.35-2.82-10.74-4.88-15.9c-2.52-6.31-2.99-12.75,2.45-17c7.38-5.78,9.56-13.97,12.68-21.84
				c2.6-6.55,7.2-11.47,12.57-15.62c3.15-2.43,6.11-4.35,7.85-8.43c2.19-5.14,6.77-8.82,10.78-12.84
				c8.73-8.76,19.14-15.98,25.57-26.93c0.54-0.91,0.63-2.83,2.14-2.01c1.49,0.81,0.33,2.2-0.15,3.45
				c-4.99,13.13-16.63,20.38-26,29.64c-2.6,2.57-5.04,5.3-7.42,8.07c-2.14,2.5-2.31,4.67,1.28,6.21c1.56,0.67,4.18,1.52,3.47,3.52
				c-0.78,2.22-3.2,0.46-4.89,0.46c-6.53-0.01-11.41,3.45-15.5,7.93c-1.78,1.95-5.67,3.6-4.55,6.5c1.17,3.03,5.17,1.52,7.72,1.47
				c14.2-0.24,26.17,5.01,36.83,13.9c4.48,3.74,6.27,9.32,9.34,14.03c2.29,3.51,3.99,2.58,6.09,0.1c4.84-5.71,3.39-12.08,1.96-18.44
				c-1.41-6.29-2.9-12.54-6.89-17.84c-0.51-0.68-0.48-1.72,0.42-2.14c0.9-0.42,1.56,0.33,2.05,1c2.68,3.6,5.51,7.62,5.87,11.83
				c0.5,5.82,4.38,10.9,3.18,16.94c-0.15,0.76,0.13,1.74,1.08,2.03c0.94,0.28,1.62-0.37,2.07-1.05c3.44-5.14,8.17-8.51,13.97-10.6
				c8.62-3.11,10.42-11.69,14.37-18.5c1.75-3.02,3.34-6.14,4.73-9.34c1.7-3.91,3.5-7.6,1.86-12.37c-1.38-3.98,1.44-8.05,1.95-12.18
				c0.95-7.6,2.18-15.17,3.32-22.74c0.2-1.34,0.59-3.06,2.16-2.88c1.85,0.22,1.18,2.06,1.1,3.3c-0.73,11.65-2.74,23.17-4.34,34.7
				c-1.21,8.68-4.05,17.39-9.82,24.61c-0.85,1.06-2.51,2.57-1.26,3.87c1.45,1.51,2.48-0.56,3.67-1.31
				c10.23-6.41,17.8-15.25,23.71-25.65c0.31-0.55,0.9-0.99,1.8-0.64c0.94,2.18-1.24,3.04-2.08,4.49
				c-7.41,12.77-17.92,22.46-30.05,30.65c-4.92,3.32-9.46,7.13-15.32,8.8c-1.75,0.5-3.36,1.81-4.11,3.49
				c-3.37,7.49-10.04,11.35-16.63,15.24c-7.22,4.27-8.73,7.78-6.46,15.59c3.3,11.31,3.65,23.1,5.63,34.62
				c1.72,9.99,1.91,20.11,3,30.14c0.39,3.61,2.51,6.94,3.12,10.78c0.58,3.68,1.65,7.35,2.32,11.11c1.56,8.77,7.3,14.7,14.8,19.02
				c3.01,1.73,4.86,0.32,5.35-2.77c0.6-3.77,0.87-7.6,1.37-12.22c1.57,6,6.96,6.82,10.44,9.79c3.13,2.67,6.97,4.5,10.47,6.75
				c1.68,1.08,3.96,1.87,4.85,3.43c3.98,7.02,11.02,8.28,17.79,10.17c2.93,0.82,5.42,2.4,7.86,4.21c1.72,1.28,3.69,4.19,5.81,0.14
				c0.52-0.99,1.94-0.7,2.57,0.2c1.26,1.82,4.61,1.79,4.64,4.13c0.04,2.69-3.24,0.34-4.67,2.26c4.14,5.28,8.08,10.66,15.08,12.79
				c5.91,1.8,7.88,0.43,7.99-5.86c0.02-1.32-1.06-3.52,1.16-3.63c1.6-0.08,1,2.09,1.4,3.27c2.05,6.13-0.73,11.12-3.27,16.4
				c-2.9,6.01-2.58,6.15,3.34,8.63c6.75,2.83,13.5,5.66,19.73,9.56c3.52,2.2,6.99,3.2,10.54,0.14c3.83-3.31,5.75-9.57,4-13.52
				c-2.12-4.8-2.92-10.1-6.82-14.23c-1.88-1.99-1.2-5.64-1.99-8.53c-1.9-6.89-7.1-8.06-12.8-9.03c-1.71-0.29-3.62,0.65-5.48-0.98
				c2.61-2.52,5.73-1.95,8.36-1.28c4.64,1.18,9.08,3.1,13.64,4.6c1.48,0.49,1.99,1.33,1.21,2.56c-1.71,2.69,0.11,4.75,1.03,6.99
				c0.89,2.15,2.32,2.62,4.38,1.51c2.33-1.26,4.74-2.09,7.52-0.8c-1.04,2.5-3.39,2.41-4.99,3.42c-1.83,1.17-4.1,1.91-3.73,4.68
				c0.4,2.95,2.86,3.63,5.18,3.79c6.41,0.46,11.82-2.69,17.4-5.19c9.43-4.22,17.91-9.94,26.17-16.06c0.52-0.39,1.23-0.51,2.17,0.31
				c-3.58,4.83-8.71,7.79-13.54,11.03c-4.99,3.35-10.69,5.31-16.24,7.54c-1.72,0.69-4.08,1.53-3.5,3.57
				c0.65,2.29,3.26,1.28,4.8,0.85c9.62-2.67,19.08-5.96,27.87-10.64c13.88-7.39,26.92-16.12,39.36-25.8
				c3.02-2.35,3.53-4.77,3.8-7.88c0.09-1.04,0.07-2.07-1.06-2.53c-1.22-0.49-1.83,0.42-2.35,1.29c-2.86,4.79-7.47,7.96-11.12,12.02
				c-0.96,1.06-2.34,1.75-4.17,1.96c3.61-3.92,7.28-7.78,10.82-11.76c4.5-5.05,8.45-10.34,6.47-17.8c-0.33-1.26-0.04-2.82-1.67-3.28
				c-1.25-0.35-2.12,0.51-3.05,1.29c-12.94,10.85-25.72,21.91-38.97,32.37c-5.96,4.71-12.95,8.04-20.55,9.68
				c1.62-3.08,4.92-3.94,7.52-4.87c8.41-3.02,14.21-9.58,21.23-14.44c2.07-1.43,1.75-3.14-0.78-3.93c-1.2-0.38-2.49-0.45-3.84-0.68
				c11.75-4.05,21.29-11.38,30.97-18.44c3.81-2.78,5.53-6.97,7.24-11.14c0.38-0.92,0.55-2.03-0.45-2.72
				c-0.8-0.55-1.54,0.05-2.29,0.42c-7.89,3.82-16.22,6.96-23.12,12.46c-7.93,6.32-17.13,9.74-26.24,13.76
				c-7.47,3.29-13.96,8.69-21.63,12.15c-7.84,3.54-15.78,3.83-23.85,3.72c-21.18-0.29-39.46-9.32-57.38-19.54
				c-8.34-4.75-16.99-9.08-25.86-12.71c-7.38-3.02-14.72-5.87-21.01-10.88c-0.89-0.71-1.73-1.95-2.95-0.9
				c-1.26,1.08-0.39,2.28,0.07,3.58c3.15,8.88,11.2,12.6,18.41,16.66c12.7,7.16,25.07,14.89,38.75,20.4
				c7.3,2.94,14.29,6.88,21.75,9.73c6.54,2.5,8.76,9.15,12.5,14.29c0.61,0.83,0.57,2.06-0.3,2.75c-1.04,0.83-1.87-0.04-2.49-0.82
				c-1.25-1.56-2.75-3.03-3.56-4.8c-3.54-7.81-9.59-11.76-17.99-12.84c-2.17-0.28-4.13-2.05-6.25-2.98
				c-18.58-8.16-36.61-17.37-53.48-28.71c-10.25-6.89-14.08-17.57-10.33-31.83c2.29-8.71,2.23-17.37,2.21-26.14
				c0-0.5-0.07-1-0.03-1.5c0.19-1.96-0.11-4.92,1.89-5.23c2.74-0.43,1.94,2.81,2.58,4.47c2.8,7.26,7.63,13.16,12.6,18.93
				c3.25,3.78,6.62,7.5,10.27,10.88c3.48,3.22,7.4,5.97,11.44,9.16c-2.34,1.58-3.76,0.16-5.25-0.61
				c-9.08-4.73-15.64-12.28-22.2-19.83c-1.09-1.26-2.07-2.63-3.25-3.79c-1.21-1.19-1.8-3.77-4.12-2.87
				c-2.07,0.8-1.38,3.16-1.68,4.88c-0.75,4.23-0.28,8.52-1.02,12.83c-0.94,5.48,2.5,9.58,7.3,11.97c10.86,5.41,20.66,12.94,32.14,17
				c12.17,4.3,22.48,12.38,34.6,16.54c12.38,4.25,24.65,8.99,38.29,8.18c9.86-0.58,18.54-4.52,26.86-8.76
				c8.37-4.27,16.86-8.36,25.13-12.76c11.41-6.08,22.09-13.53,32.97-20.58c10.56-6.85,10.4-6.92,7.49-19.55
				c-0.98-4.26-3.67-7.92-3.42-12.71c0.16-3.08-2.04-1.92-3.64-0.5c-3.5,3.12-6.89,6.47-12.39,8.29c0.89-3.33,2.96-4.19,4.52-5.46
				c5.9-4.8,10.66-10.66,13.79-17.49c2.79-6.07,0.84-12.84,1.07-19.28c0.14-4.15,0.82-8.58-2.76-12.25
				c-1.72-1.77-0.16-4.13,1.36-5.78c5.14-5.57,5.26-11.9,2.95-18.64c-1.51-4.42-1.82-8.32,1.61-12.5c4.78-5.83,4.44-12.2-0.39-18.25
				c-8.31-10.39-16.88-20.57-25.33-30.85c-0.63-0.76-1.39-1.48-1.77-2.36c-0.51-1.17-0.22-2.36,1.02-2.98
				c1.15-0.58,1.81,0.24,2.46,1.06c7.98,10.02,15.93,20.06,23.99,30.02c1.69,2.09,3.59,6.29,6.07,4.69c2.66-1.71-0.96-4.5-2.2-6.6
				c-4.39-7.47-5.92-16.04-9.45-23.87c-3.55-7.89-7.94-15.28-11.88-22.93c-2.66-5.16-5.8-10.08-8.69-15.13
				c-0.78-1.36-1.41-3.13,0.02-4.1c1.87-1.26,2.57,0.79,3.2,2.02c6.59,12.69,13.13,25.4,19.65,38.12c1.62,3.15,4.5,5.84,3.13,11.28
				c2.56-2.9,1.78-4.76,1.46-6.59c-2.46-14.14-6.93-27.73-10.93-41.46c-0.46-1.57-2.11-4,0.58-4.61c2.46-0.56,2.72,2.13,2.6,3.87
				c-0.24,3.47,2.14,5.84,3.1,8.77c3.67,11.16,6.91,22.44,8.55,34.14c1.2,8.55,3.51,16.87,6.1,25.1c0.53,1.69,1.38,3.97,3.54,3.56
				c2.07-0.4,1.34-2.68,1.37-4.28c0.05-2.5,0.07-4.99,0.13-7.49c0.03-1.29-0.31-3.09,1.43-3.23c1.84-0.15,1.72,1.72,1.78,2.97
				c0.14,3,0.33,6.01,0.14,8.99c-0.52,8.11,2.1,15.34,5.82,22.32c3.48,6.53,10.56,7.71,16.24,10.89c1.57,0.88,3.03-0.54,3.5-2.53
				c2.9-12.53,10.35-22.02,20.33-29.67c3.32-2.54,7.62-3.02,11.56-4.14c1.21-0.34,2.76,0.29,3.48-1.23
				c0.73-1.53-0.41-2.47-1.33-3.43c-3.85-4-6.29-8.96-9.07-13.65c-3.29-5.55-8.17-9.11-13.48-12.28c-2.58-1.54-3.86-3.6-4.79-6.56
				c-2.83-9.05-9.41-15.88-14.55-23.6c-9.17-13.8-21.43-24.4-33.88-34.81c-11.02-9.21-23.81-14.45-38.54-12.99
				c-3.4,0.34-4.77-2.63-7.51-3.36c-4.44-1.19-9.06-2.21-12.6-5.66c-1.63-1.59-2.9-0.58-3.88,1.21
				c-7.27,13.36-18.93,20.67-33.39,24.05c-2.95,0.69-4.11,2.06-3.2,5.37c2.8,10.19,4.03,20.55,2.04,31.07
				c-0.6,3.15-0.53,6.28-0.32,9.46c0.91,13.82,1.18,27.65-1.65,41.31c-0.8,3.84,1.74,5.54,3.86,7.47c5.26,4.8,5.36,4.73,1.24,10.15
				c-2.19,2.88,0.22,3.27,2.09,4.01c1.35,0.53,3.34,0.86,2.44,2.91c-0.79,1.81-2.54,1.02-3.97,0.6c-6.21-1.83-7.1-3.81-4.05-9
				c1.29-2.19,1.26-4.54-1.06-5.61c-4.72-2.19-4.9-6.18-4.2-10.15c1.79-10.22,2.67-20.65,2.5-30.83c-0.2-11.8,0.52-23.56,0.21-35.3
				c-0.17-6.51-2.79-12.94-4.18-19.43c-0.42-1.94-1.46-2.79-3.3-3.16c-10.39-2.09-17.29-9.46-24.49-16.34
				c-0.79-0.75-1.88-1.83-0.85-3c1.05-1.19,2.28-0.26,3.04,0.52c3.28,3.32,7.26,5.78,10.89,8.61c13.66,10.63,24.97,11.95,39.13,0.54
				c5.24-4.22,10.01-8.66,12.33-15.16c0.32-0.9,0.45-1.86,1.05-4.42c-7.28,6.14-12.5,13.03-22.13,14.51
				c2.92-4.02,6.64-5.65,9.64-8.08c1.17-0.95,2.44-1.69,3.13-3.09c0.48-0.98,1.79-1.97,0.58-3.07c-1.09-0.99-1.61,0.56-2.4,0.95
				c-2.62,1.3-3.71-0.92-4.65-2.47c-1.66-2.73-2.95-3.13-6.6-2.59c-6.49,0.96-13.1,4.41-19.94,1.27c-0.84-0.38-2.02-0.33-2.96-0.11
				c-5.07,1.2-8.67-0.65-11.32-4.98c-1.06-1.73-2.71-2.91-4.57-3.76c-5.61-2.53-8.08-1.34-8.83,4.83c-0.62,5.11-1.7,7.89-7.8,10.14
				c-10.46,3.87-21.05,7.65-31.39,11.96c-6.87,2.87-14.4,4.13-21.36,6.84c-12.24,4.76-23.27,11.05-29.5,23.71
				c-2.84,5.76-7,10.89-9.59,16.87c-0.43,0.99-1.43,2.65-2.44,0.97c-2.75-4.59-4.47-0.95-6.53,0.53c-1.71,1.23-2.35,3.59-4.82,4.65
				c-0.7-3.42,1.48-5.38,3.17-6.96c8.7-8.15,14.97-18.21,22.15-27.54c3.89-5.05,8.93-8.69,14.48-11.18
				c8.37-3.76,16.74-7.14,26.1-9.02c14.74-2.97,29.78-7.36,39.7-20.58c3.26-4.34,4.28-8.38,1.39-13.74
				c-2.66-4.91-5.82-9.72-7.23-15.29c-0.19-0.75-0.71-1.82-1.31-2.01c-8-2.58-7.94-9.73-8.46-15.95c-0.61-7.3-2.53-14.38-3.01-21.67
				c-0.23-3.49-0.06-6.63,4.83-5.92c0.94,0.14,1.73-0.05,1.77-1.12c0.04-0.95-0.68-1.44-1.55-1.68c-1.75-0.48-4.74,1.06-4.99-1.79
				c-0.28-3.16,3.04-2.88,5.11-3.62c1.63-0.58,2.42-1.82,2.38-3.44c-0.14-5.32-0.08-10.54,1.78-15.71
				c1.09-3.02-1.33-6.33-0.26-10.32c3.44,6.67,6.01,13.67,4,19.62c-1.96,5.81-1.65,11.39-2.44,17.05c-0.23,1.64-0.06,3.52,1.1,4.76
				c1.47,1.57,3.46,4.38,4.66-0.31c0.27-1.06,0.59-1.97,1.9-1.77c1.09,0.17,1.39,1.29,1.01,1.91c-3.12,5.11-0.11,10.79-1.6,16.09
				c-2.32-0.06-2.44-1.72-2.61-3.42c-0.15-1.48-0.28-2.99-0.68-4.41c-0.38-1.32-0.2-3.53-2.21-3.36c-2.08,0.17-1.17,2.33-1.58,3.64
				c-1.11,3.59-1.06,6.8,1.11,10.22c0.86,1.35,1.02,2.54,2.87,2.39c1.97-0.16,3.16,1.03,3.86,2.62c0.83,1.89,3.44,4.15,1.92,5.65
				c-1.99,1.96-3.09-1.18-4.44-2.42c-1.42-1.3-2.8-0.54-4.09,0.29c-0.95,0.61-1.51,1.74-0.71,2.53c4.41,4.38,5.05,10.42,6.86,15.85
				c1.84,5.52,6.76,7.89,10.3,11.64c2.88,3.05,5.69,6.57,11,4.73c1.67-0.58,2.59,1.69,3.66,2.95c2.5,2.96,4.83,5.08,8.38,0.75
				c1.67-2.04,4.73-2.93,7.14-4.39c1.23-0.74,2.02-1.85,1.65-3.33c-0.42-1.69-1.86-1.77-3.22-1.54c-3.32,0.54-4.57-2.05-6.95-4.51
				c6.31,0.78,10.92-4.61,17.17-2.14c1.55,0.62,4.77-1.52,4.8-4.11c0.03-2.75-2.73-3.18-4.89-3.07c-3.31,0.17-6.63,0.65-9.9,1.26
				c-5.64,1.06-11.31,1.13-17,1.01c-3.22-0.07-3.02,2.5-3.67,4.41c-0.44,1.3,0.08,3.55-2.21,3.09c-2.07-0.42-2.1-2.48-1.63-4.12
				c1.28-4.49,3.18-8.52,8.67-8.98c1.74-0.15,3.04-1.29,4.58-1.86c3.12-1.16,6.18-3.64,9.66-0.4c1.29,1.21,3.19,0.33,4.81-0.09
				c6.08-1.56,11.61-1.29,15.4,4.71c1.18,1.87,2.61,1.7,4.22,0.52c0.86-0.63,2.09-2.14,2.85-0.66c1.02,1.99,1.76,4.41,0.67,6.67
				c-0.66,1.37-2.23,1.77-3.46,0.96c-4.53-3.01-6.96,1.36-10.16,2.82c-1.19,0.54-1.81,2.28-1.5,3.51c0.91,3.63,0.17,6.32-3.08,8.49
				c-1.29,0.86-1.61,2.72,0.24,3.7c1.56,0.82,2.96,0.24,3.73-1.36c0.35-0.73,0.22-1.73,0.65-2.39c1.66-2.52,1.39-6.09,6.89-5.74
				c4.09,0.26,8.86-3.35,11.5-7.79c0.08-0.14,0.28-0.37,0.25-0.41c-3.34-4.08,2.08-7.88,0.26-12.13c-1.8-4.21-3.39-8.33-7.76-10.58
				c-0.56-0.29-0.93-0.93-1.41-1.4c-6.84-6.65-6.84-6.66-15.11-2.01c-1.19,0.67-2.42,1.34-3.76,1.09c-6.2-1.19-12.92,1.5-18.76-2.74
				c-1.51-1.09-3.07,0.38-4.37,1.51c-3.52,3.06-6.03,6.83-7.85,11.93c-1.35-2.59-1.28-4.84-3.06-6.73c5.65-0.7,7.32-5.45,10.51-8.44
				c1.33-1.25,2.42-2.77,3.8-3.94c2.04-1.73,3.86-1.71,3.88,1.49c0.02,3.95,2.12,4.04,4.92,3c1.8-0.67,3.74-1.13,5.33-0.15
				c4.67,2.9,8.23-0.35,12.09-1.9c1.79-0.72,1.85-2.24,1.07-3.76c-0.53-1.03-1.57-1.85-1.88-2.91c-0.68-2.29-2.62-5.7-0.28-6.78
				c2.45-1.13,2.44,2.83,3.26,4.52c3.46,7.2,10.42,10.74,15.93,16.04c-1.31-3.96,0.2-7.95-1.34-11.64c2.08-0.7,1.87,1.11,2.57,1.8
				c1.08,1.06,2.42,2.28,3.87,1.41c1.36-0.81-0.09-2.08-0.39-3.09c-0.48-1.63-0.14-2.82,1.09-4.03c4.37-4.29,5.86-9.91,7-15.68
				c0.71-3.61-4.29-10.78-7.61-10.02c-4.07,0.93-7.52-0.63-11.21-1.25c-9.74-1.63-14.65,2.92-13.35,12.56
				c0.13,0.96,0.51,1.98-1.11,3.55c-0.87-7.11-3.05-13.49,0.5-19.91c0.29-0.52,0.92-1.27,1.35-1.24c6.19,0.41,12.62-2.27,18.57,0.98
				c4.37,2.39,6.49-0.14,8.43-3.31c0.97-1.58,1.12-3-1.54-2.58c-3.92,0.62-4.59-2.3-4.61-4.91c-0.04-3.73,2.31-6.99,2.53-11.33
				c2.72,4.01,4.49,4.52,6,0c0.9-2.69,2.32-5.19,5.4-1.55c0.81,0.96,2.15,0.81,3.18-0.03c0.7-0.57,1.22-1.72,0.65-2.18
				c-3.87-3.08-2.06-8.14-4.34-11.8c-6.99-11.23-17.87-17.05-29.7-21.44c-14-5.2-25.87,1.49-37.67,7.49
				c-7.17,3.65-12.66,9.52-18.13,15.4c1.7-7.11,5.52-12.92,12-16.16c7.53-3.77,15.35-7.1,23.33-9.8c11.31-3.84,22.41-2.3,32.62,3.84
				c6.97,4.19,14.17,8.44,18.65,15.47c5.15,8.08,10.26,15.91,11.44,26.27c1.01,8.87,3.07,17.61,2.44,26.65
				c-0.02,0.32-0.03,0.78,0.16,0.97c5.33,5.31,2.88,10.68,0.39,16.26c-1.95,4.38,0.69,8.99-0.1,13.62
				c-0.64,3.74-0.92,7.54-1.77,11.3c-1.03,4.55-2.9,7.78-8.15,7.75c-1.36-0.01-2.68,0.33-3.28,1.8c-4.08,9.88-4.97,20.17-2.58,30.46
				c1.57,6.75,7.86,9.17,13.76,11c9.04,2.81,18.38,4.52,27.72,6.03c13.83,2.24,24.1,10.44,34.15,19.33
				c17.51,15.47,30.46,34.6,43.6,53.59c3.33,4.81,7.14,9.17,11.48,13.04c3.69,3.29,6.34,7.21,8.15,11.74
				c1.45,3.61,3.57,6.8,6.27,9.54c2.23,2.26,3.63,4.59,3.29,7.93c-0.73,7.05,5.58,10.13,8.66,15.05
				c4.95,7.9,10.82,15.11,13.71,24.39c4.78,15.38,3.25,31.03,2.9,46.5c-0.18,7.92-2.5,16.03-4.07,24.01
				c-1.09,5.54-2.43,11.01-1.51,16.72c0.25,1.53-0.22,2.96-0.83,4.36c-5.12,11.91-9.03,24.1-11.36,36.95
				c-1.4,7.73-5.06,14.82-12.35,19.7c-7.57,5.06-14.54,10.86-22.8,15.05c-4.59,2.33-8.94,5.68-13.24,8.76
				c-5.51,3.94-12.25,5.2-17.86,8.83c-0.42,0.27-1.21-0.04-2.75-0.13c9.27-6.96,18.71-12.01,27.86-17.5
				c10.56-6.33,21.1-12.91,30.14-21.11c4.38-3.97,10.84-9.05,7.71-17.42c-0.7-1.88,0.76-3.89,1.56-5.68
				c3.94-8.79,5.05-18.35,7.53-27.53c0.31-1.15,0.72-2.81-0.81-3.56c-0.57-0.28-1.61,0.08-2.29,0.44c-1.39,0.72-1.91,2.07-1.13,3.38
				c1.5,2.51-0.23,4.06-1.4,5.8c-1.01,1.5-2.52,2.69-4.17,1.64c-1.58-1.01,0.05-2.37,0.54-3.46c0.63-1.4,0.99-2.74,0.9-4.31
				c-0.15-2.8,0.54-6.21-5.26-3.4c10.12-6.83,7.34-16.82,8.74-25.39c1.42-8.75,0.99-17.6-0.05-26.4c-0.18-1.48-0.08-3,0-4.49
				c0.05-0.97,0.14-2.17,1.5-2.11c1.02,0.04,1.05,1.06,1.29,1.87c1.18,4.02,0.47,8.64,3.86,11.99c0.57,0.56-0.04,1.17-0.7,1.5
				c-1.6,0.79-2.77,1.84-0.52,3.11c1.65,0.93,2.88,0.48,4.03-1.42c2.2-3.65,0.61-7.47,0.78-11.12c0.23-5.23,1.14-10.75-1.57-15.79
				c-0.18-0.34-0.05-1.07,0.22-1.39c4.17-5.01,0.74-8.94-1.81-12.99c-0.62-0.98-2.08-2.4-1.82-2.82c3.58-5.91-1.8-9.48-3.65-13.81
				c-1.75-4.1-4.47-7.74-9.62-8.31c-1.24-0.14-2.68,0.12-3.89-1.24c1.67-1.07,4.34,0.86,5.2-1.52c0.81-2.23-1.7-2.96-2.54-4.48
				c-1.78-3.19-3.72-6.3-5.45-9.52c-1.01-1.89-2.45-3.23-4.31-1.86c-1.9,1.4-4.95,0.85-5.59,1.53c-3.14,3.34-7.68-0.18-9.93,2.02
				c-3.99,3.91-7.76,8.35-9.88,13.69c-1.93,4.88-5.55,8.98-6.47,14.33c-0.25,1.48-0.82,2.89-0.41,4.39
				c0.49,1.79,1.05,3.87,3.35,3.71c2.68-0.18,2.05-2.46,2.12-4.24c0.1-2.48,0.3-4.97,0.47-7.45c0.06-0.8-0.05-1.86,1.1-1.84
				c0.48,0.01,1.27,0.65,1.38,1.13c0.51,2.19,2.57,4.07,1.4,6.61c-0.14,0.3-0.35,0.86-0.26,0.92c4.15,3.04,1.72,5.79-0.28,8.65
				c-2.23,3.18-0.44,6.91-1,10.41c-1.17,7.27-0.38,14.93,1.71,22.22c0.31,1.07,0.67,2.46,2.18,2.31c1.48-0.14,1.61-1.55,1.76-2.66
				c0.32-2.42,0.51-4.86,1.21-7.31c2.88,4.97,2.16,10.33,2.28,15.72c0.14,6.04,0.53,12.22,3.53,17.85c1.09,2.05,2.55,4.74,2.05,6.66
				c-1.28,4.86,2.53,8.34,2.53,12.71c0,0.57,0.92,1.34,0.75,1.69c-2.08,4.19,0.79,5.01,4.37,5.42c-4.78,2.96-6.3,7.5-2.81,12.39
				c2.76,3.87,0.25,4.42-1.78,5.85c-1.5,1.06-4.64,1.48-2.78,4.05c1.48,2.06,3.76,0.35,5.15-1.02c1.89-1.86,4.58-1.96,6.58-3.48
				c0.89-0.67,2.07-1.94,2.97-0.66c1.04,1.48-0.76,2.38-1.68,3.08c-2.32,1.78-5.39,2.56-7.11,5.25c1.16,0.86,1.85-0.47,2.8-0.47
				c1.92,0,4.01,0.12,4.36,2.37c0.43,2.73-2.06,1.87-3.49,2.24c-4.14,1.06-8.26,0.87-12.35-0.23c-8.11-2.18-13.62,2.75-19.17,7.2
				c-1.96,1.58-0.19,2.44,1.46,2.85c0.93,0.23,2.16,0.36,1.67,1.82c-0.31,0.91-1.44,1.39-2.03,0.92c-5.92-4.7-10.12,0.2-14.8,2.51
				c-2.38,1.17-5.01,1.99-7.13,3.52c-2.73,1.97-6.9,2.96-6.25,7.89c0.14,1.03-1.02,2.45-1.91,3.37
				c-6.2,6.41-12.49,12.72-18.73,19.08c-1.52,1.55-3.05,3.09-4.42,4.76c-3,3.63-2.59,4.92,1.95,6.61c0.61,0.23,1.56,0.31,1.77,0.74
				c3.43,6.92,7.63,3.03,10.73,0.25c11.32-10.12,24.89-17.16,36.36-27.03c0.5-0.43,1.01-0.92,1.6-1.19c1.26-0.57,2.67-0.98,3.5,0.56
				c0.72,1.34-0.33,2.4-1.34,2.82c-10.61,4.46-16.67,14.72-26.34,20.44c-5.13,3.03-4.89,3.45-0.03,6.65
				c-2.85,1.82-5.53,3.24-8.61,0.59c-1.86-1.6-3.27-1.14-5.1,0.59c-4.84,4.57-8.36,4.74-13.84,1.12c-1.29-0.85-2.5-1.67-4.1-1.53
				c-2.3,0.2-5.4,1.11-6.16-1.61c-0.9-3.21-2.71-7.58-0.63-10.04c5.2-6.17,8.79-12.62,8.56-21.05c1.66,2.98,1.18,6.45,3.99,8.82
				c1.13,0.95-0.73,2.6-1.65,3.76c-0.65,0.82-1.16,1.78-0.33,2.68c0.78,0.86,1.93,0.81,2.69,0.03c6.52-6.75,12.99-13.55,19.08-20.75
				c-7.29,0.94-9.38,8.93-16.52,11.31c3.15-3.93,1.06-7.31,0.1-10.76c-1.19-4.27-3.35-5.29-6.38-2.09
				c-4.02,4.25-9.12,6.6-13.81,9.69c-1.88,1.24-4.05,2.08-1.24,5.22c2.33,2.61-0.68,5.87-1.8,8.54
				c-4.82,11.44-13.02,20.7-20.45,30.44c-0.49,0.64-1.18,1.21-1.89,1.59c-1.27,0.67-2.86,2.05-4.01,0.55
				c-1-1.31,0.76-2.35,1.64-3.19c8.52-8.08,15.31-17.43,20.66-27.87c1.07-2.08,2.87-5.14,1.02-6.29c-2.28-1.42-3.92,1.93-5.67,3.51
				c-6.19,5.6-11.81,11.87-19.07,16.99c-0.72-2.69,0.99-3.43,2.12-4.44c4.35-3.87,8.72-7.71,13.05-11.6
				c0.79-0.71,2.27-1.45,0.96-2.75c-0.91-0.9-2.16-0.59-3.23,0.1c-12.11,7.87-25.52,12.61-39.36,16.31
				c-3.51,0.94-7.23,0.6-10.68,2.25c-3.62,1.73-6.95,9.58-5.15,13.2c4.3,8.64,7.82,17.57,9.88,27.04
				c2.82,12.98,9.3,23.23,21.45,29.51c7.53,3.89,14.76,8.27,22.79,11.28c8.2,3.08,15.14,0.79,22.02-3.25
				c1.27-0.75,2.59-2.41,3.83-0.89c1.3,1.58-0.66,2.58-1.7,3.53c-7.2,6.57-15.73,7.53-24.61,5.01c-12.72-3.61-24.33-9.6-34.75-17.81
				c-1.05-0.83-2.24-1.83-3.56-0.78c-1.24,0.98-0.53,2.39-0.41,3.71c0.62,6.82,4.59,12.52,7.49,18.18
				c3.34,6.51,11.15,8.94,18.49,10.41c0.81,0.16,1.67,0.1,2.48,0.24c0.99,0.16,2.2,0.41,2.26,1.58c0.07,1.33-1.24,1.32-2.19,1.47
				c-3.93,0.62-7.63-0.04-11.07-2.04c-1.44-0.84-2.86-2.16-4.53-0.88c-1.66,1.27-0.61,2.97-0.36,4.6
				c1.28,8.35,5.45,15.95,5.93,24.58c0.39,7.01,6.96,12.41,13.91,10.93c10.73-2.28,22.29-2.63,30.94-11.14
				c2.72-2.67,5.99-4.72,7.26-8.61c0.34-1.03,0.9-2.53,2.39-1.65c1,0.6,0.44,1.82-0.07,2.69c-9.7,16.66-25.59,21.48-43.38,22.62
				c-1.84,0.12-2.97-1.19-4.35-2.12c-2.78-1.87-4.78-1.43-4.87,2.4c-0.19,7.64-0.08,15.15,7.92,19.52c1.13,0.62,2.22,1.65,2.85,2.76
				c1.94,3.41,3.98,4.66,8.39,3.53c3.81-0.97,7.59,2.46,11.81,2.99c10.98,1.38,19.97-2.21,27.75-9.54c3.92-3.7,7.83-7.46,9.93-12.37
				c1.61,0.58,1.79,1.28,1.46,1.87c-5.56,9.75-11.61,19.15-22.79,23.27c-8.36,3.08-16.85,3.22-25.08-0.77
				c-1.47-0.71-3.06-2.29-4.47-0.75c-1.74,1.91,0.35,3.24,1.47,4.58c0.64,0.77,1.41,1.45,1.95,2.28
				c9.33,14.37,23.67,16.9,39.2,16.58c0.96-0.02,2.11-0.19,2.84-0.73c6.28-4.71,12.44-9.74,13.12-18.28
				c1.23-15.59,4.57-30.88,6.31-46.37c1.21-10.75-0.57-21.46-4.77-31.59c-0.45-1.09-1.06-2.2-2.44-2.16
				c-1.49,0.04-1.94,1.33-2.04,2.45c-0.98,10.15-6.1,19.37-6.52,29.7c-0.14,3.49-2.17,6.66-4.28,9.68c-1.63-1.45-1.2-2.97-0.59-3.94
				c3.7-5.83,3.62-12.85,4.81-19.11c1.6-8.37,3.11-16.98,3.87-25.59c1.82-20.64,0.35-41.28-0.27-61.9
				c-0.21-7.11-1.64-14.19-2.5-21.28c-0.19-1.58-1.07-3.78,1.19-4.19c2.36-0.43,2.99,1.87,3.18,3.67
				c1.07,10.18,3.09,20.22,2.7,30.61c-0.33,8.77,0.9,17.59,1.32,26.39c0.15,3.15,0.17,6.34-0.09,9.48
				c-0.58,7.09,0.18,13.78,3.58,20.26c2.86,5.43,6.42,11.19,6.87,17.02c0.58,7.53,2.97,13.7,6.57,20.04
				c1.86,3.26,4.11,6.36,5.53,9.96c3.15,8.03,3.5,16.58,5.02,24.9c1.74,9.46,2.42,18.95,1.54,28.73
				c-1.54,17.11,4.57,30.53,20.74,38.93c12.36,6.42,22.48,15.68,29.13,28.32c1.11,2.12,1.91,4.05,2.08,6.48
				c0.3,4.2-0.29,8.56,2.68,12.38c1.48,1.91,1.38,4.9-1.33,6c-10.57,4.25-20.67,9.76-32.85,8.91c-8.39-0.59-14.2-4.99-20.08-9.92
				c-6.49-5.44-12.55-11.19-18.16-17.66c-9.31-10.73-18.58-10.53-29.99,0.92c-2.48,2.49-4.99,3.66-8.36,4.58
				c-8.34,2.27-17,3.42-24.98,6.93c-2.22,0.98-4.5,1.14-6.84,1.09c-0.79-0.02-1.82-0.02-1.92-1.13c-0.09-1.03,0.83-1.3,1.6-1.59
				c9.82-3.68,19.77-7.03,30.1-8.91c4.79-0.87,8.74-2.77,12.31-6.05c2.76-2.54,5.56-4.94,9.26-6.53c3.05-1.31,4.17-5.99,2.58-8.61
				c-3.63-6-1.22-11.44,0.58-16.72c2.38-7,2.87-12.95-4.02-17.64c-2.73-1.86-3.25-5.33-5.08-7.92c-2.31-3.28-5.06-4.92-8.83-4.23
				c-9.72,1.77-17.94-2.58-26.22-6.36c-4.68-2.14-7.66-6.36-10.18-10.73c-3.49-6.04-7.18-11.64-12.5-16.56
				c-6.68-6.18-10.64-14.12-9.94-24.17c0.75-10.86-2.98-21.32-5.06-31.9c-0.26-1.33-0.34-2.87-2.24-2.59
				c-1.5,0.22-2.28,1.46-2.37,2.87c-0.1,1.64,0.08,3.31,0.22,4.96c0.17,2.04,0.1,4.03-1.24,5.7c-0.93,1.17-2.2,1.54-3.57,0.87
				c-1.52-0.75-0.99-1.92-0.35-2.94c1.35-2.17,0.99-4.52,0.75-6.84c-0.26-2.55-0.11-4.77,1.7-6.98c2.77-3.37,0.51-7.12-0.46-10.39
				c-3.06-10.34-5.92-20.75-7.38-31.42c-1.85-13.5-3.68-26.96-8.17-39.89c-1.14-3.28-1.34-6.88-3.49-9.83
				c-1.02-1.4-2.24-2.4-3.71-1.32c-2.22,1.63-5.57,1.57-6.84,4.56c-0.1,0.24,0.02,0.83,0.2,0.91c7.21,3.28,4.54,10.42,5.41,15.65
				c2.18,13.14,2.1,26.54,1.69,39.88C979.79,765.57,979.97,767.01,978.27,768.03z M818.34,510.38c-0.68-3.46,1.39-5.98-0.06-9.2
				c-3.72-8.24-10.62-12.21-18.26-15.99c-7.12-3.53-15.01-2.21-22.23-4.74c-2.51-0.88-5.45-0.92-5.69,3.74
				c-0.21,3.92-2.24,7.27-6.33,9.45c-4.62,2.45-8.47,6.59-8.91,11.96c-0.56,6.88,3.74,13.32,2.87,20.44
				c-0.07,0.56,1.34,1.19,1.47,1.9c0.91,5.21,9.02,8.27,4.54,15.1c-0.18,0.27,0.23,0.93,0.37,1.4c1.49,4.96,3.5,9.63,6.3,14.04
				c8.19,12.91,18.43,24.35,26.69,37.17c9.92,15.4,18.63,31.5,24.28,49.06c2.7,8.39,9.77,12.99,16.34,17.55
				c16.76,11.64,37.48,15.21,54.72,26.04c1.24,0.78,3.12,1.34,4.15-0.05c1.31-1.76-0.34-3.12-1.53-4.2
				c-11.56-10.51-25.34-17.85-38.21-26.48c-0.74-0.5-1.53-0.83-1.13-1.81c0.27-0.66,1.28-0.99,1.67-0.51
				c2.24,2.72,5.92,1.43,8.57,3.45c8.67,6.63,17.97,12.42,26.39,19.41c3.96,3.29,7.95,6.55,12.06,9.64
				c1.62,1.22,3.91,2.02,5.45,0.18c1.63-1.95-0.41-3.24-1.68-4.51c-6.61-6.56-13.96-12.21-21.25-17.98
				c-2.91-2.3-6.62-2.71-9.09-5.39c-1.08-1.18-1.91-2.49-0.88-4.01c1-1.47,2.27-0.69,3.54-0.15c3.05,1.29,6.68,1.86,8.76,4.54
				c6.59,8.5,16.25,13.69,23.2,21.84c1.93,2.26,4.28,4.74,7.4,5.76c1.86,0.61,4.09,1.74,5.6-0.13c1.7-2.11-0.45-3.61-1.64-5.13
				c-4.86-6.21-11.31-10.79-16.94-16.21c-5.08-4.89-10.06-10.23-17.14-12.54c-1.07-0.35-2.61-0.72-2.03-2.23
				c0.59-1.58,2.26-1.33,3.46-0.82c4.73,2.03,9.24,4.17,12.99,8.08c5.96,6.21,12.56,11.81,18.96,17.6c1.26,1.14,2.97,2.04,4.49,0.6
				c1.68-1.6,0.89-3.28-0.42-4.85c-1.92-2.3-3.59-4.83-5.67-6.97c-7.87-8.08-15.47-16.14-27.71-18.2c-6.53-1.1-13.77-1.05-19.5-5.44
				c-3.46-2.65-6.44-3.42-8.42,2.35c-0.54-1.3-0.89-1.83-0.98-2.41c-0.6-3.83-1.99-6.17-6.25-3.56c-1.23,0.75-2.22,0.28-3.07-0.7
				c-0.95-1.09-1.97-1.8-3.45-0.87c-3.89,2.43-6.05-0.55-7.76-3.03c-1-1.45-1.5-2.98-3.5-2.78c-5.42,0.55-10.77-2.82-16.24-0.17
				c-1.13,0.55-2.4,0.06-2.64-1.43c-0.19-1.18,0.64-1.82,1.68-2.11c0.64-0.18,1.32-0.17,1.97-0.31c7.71-1.74,11.69-6.79,10.17-14.32
				c-1.35-6.67-2.35-13.63-6.73-19.33c-0.36-0.47-0.5-1.25-0.46-1.86c0.4-4.97-2.16-9.08-3.58-13.55c-0.96-3.04-4.31-6.77-1.05-9.65
				c4.37-3.85,2.24-8.03,2.36-12.34c0.15-5.23-6.36-9.24-2.49-15.02c0.22-0.33-0.5-1.59-1.07-2.08c-1.1-0.94-1.09-2.47-1.75-3.35
				c-3.09-4.1-3.26-9.18-4.61-13.74c-1.26-4.26-5.41-5.28-7.01-8.54c-3.56-7.26-9.4-12.55-14.75-18.29
				c-0.75-0.81-2.31-1.23-1.63-2.67c0.62-1.32,2.01-0.86,3.13-0.66c1.69,0.3,3.11,1.06,4.23,2.43c2.21,2.7,4.29,5.55,6.8,7.96
				C812.04,504.47,813.4,508.67,818.34,510.38z M1126.64,518.26c-2.66-4.86-5.47-11.99-11.91-15.64
				c-9.3-5.27-16.61-12.01-21.49-21.49c-1.21-2.35-2.63-4.65-4.28-6.71c-1.6-1.98-3.43-3-4.39,0.76c-0.82,3.22-1.77,6.43-2.91,9.54
				c-1.78,4.84-2.09,9.43-0.32,14.53c1.33,3.84,1.74,8.66-1.09,12.03c-4.63,5.52-3.95,11.39-3.35,17.83
				c0.82,8.82,2.91,18.06-2.27,26.31c-2.54,4.05-2.9,8.05-1.8,12.4c1.02,4.05,2.48,7.93,4.69,11.51c2.54,4.13,4.05,9.26,2.48,13.34
				c-2.1,5.46-1.41,10.7-1.69,16.07c-0.43,8.35,2.6,16.3,2.34,24.73c-0.15,5.07-1.1,10.5,1.31,15.6c1.35,2.85,2.83,3.94,5.09,1.54
				c4.05-4.3,9.18-7.12,14.05-10.09c11.35-6.9,22.49-14.04,33.34-21.73c8.65-6.14,10.55-14.09,9.86-23.91
				c-1.06-15-6.7-28.8-11.63-42.56C1128.85,541.64,1126.02,531.33,1126.64,518.26z M888.37,847.89c0.18-1.06,1.1-1.45,1.81-1.45
				c5.87-0.03,7.93-3.79,9.15-8.75c1.01-4.08,2.45-8.06,3.7-12.09c1.44,5.96,0.92,11.55-1.65,16.95c-0.71,1.5-2.27,3.63-0.07,4.89
				c2.33,1.33,3.53-0.94,4.69-2.52c7.4-10.08,8.85-21.48,7.42-33.52c-0.17-1.41,0.13-3.57-1.92-3.43c-1.86,0.12-1.75,2.18-1.67,3.66
				c0.22,4.02-1.82,6.91-4.26,10.32c-1.36-3.03-0.35-5.04,0.39-7.02c3.27-8.83,5.94-17.57-1.7-25.69c-0.77-0.82-1.11-2.04-1.73-3.03
				c-4.58-7.33-10.83-12.6-19.28-14.75c-3.81-0.97-7.6-1.31-11.7,0.3c-11.63,4.57-19.48,13.03-25.58,23.42
				c-3.93,6.69-8.39,13.27-7.99,21.6c0.66,13.77-1.99,27.04-6.13,40.08c-0.46,1.44-0.39,2.65,1.23,3.27
				c10.96,4.21,22.02,8.07,33.59,10.26c0.98,0.19,1.96,0.42,2.95,0.55c1.79,0.22,3.46-0.07,4.01-2.06c0.55-1.98-1.08-2.49-2.45-3.14
				c-1.11-0.53-2.74-0.38-3.11-2.43c2.71-0.69,5.37-1.09,6.65,2.05c1.43,3.5,3.79,3.32,6.48,2.16c2.49-1.07,4.9-2.09,7.69-1.34
				c3.13,0.85,3.98-1.23,3.97-3.57c-0.02-3.89,0.48-7.55,2.05-11.18c1.17-2.72-0.2-4.09-3.18-3.79
				C890.61,847.72,889.56,848.61,888.37,847.89z M930.91,728.25c0.04,2.15-0.35,5.79,3.04,6.91c3.01,1,2.91-2.9,4.41-4.42
				c6.51-6.61,8.14-7.64,13.97-4.74c2.67,1.33,5.22,2.88,7.9,4.18c4.14,2.01,7.14,0.39,7.72-4.23c0.66-5.28,1.03-10.59,1.68-15.87
				c0.31-2.5-0.58-4.37-2.61-5.48c-6.55-3.56-12.96-7.43-20.01-9.94c-2.15-0.77-4.28-0.62-5.33,2.1
				c-3.27,8.44-6.59,16.86-9.93,25.27C931.06,723.77,930.91,725.56,930.91,728.25z M936.4,701.5c0.79-3.6-2.05-6.25-3.28-9.44
				c-0.5-1.28-1.64-1.88-2.82-1.16c-3.52,2.15-7.14,0.78-10.69,0.41c-2.18-0.23-4.63-1.1-5.43,1.73c-0.65,2.31,1.34,3.27,3.18,4.37
				c4.12,2.47,8.38,4.83,11.55,8.59c0.67,0.79,1.21,1.72,0.32,2.64c-0.91,0.94-1.88,0.36-2.64-0.3c-0.87-0.76-1.52-1.79-2.44-2.49
				c-4.41-3.37-8.29-7.64-13.96-8.95c-2.32-0.53-4.6-0.27-4.56-3.81c0.02-1.72-2.16-3.27-3.65-2.49c-6.6,3.46-11.45-0.6-16.65-3.35
				c-1.38-0.73-2.95-2.63-4.16-0.39c-1.12,2.07,0.79,3.65,2.46,4.16c3.97,1.21,6.19,4.32,8.77,7.11c2.36,2.56,4.54,5.28,7.37,7.39
				c7.98,5.93,17.21,10.08,24.29,17.35c2.23,2.29,4.54,0.78,5.36-1.83c0.96-3.02,2.81-5.77,3.49-8.68
				C933.77,708.67,937.64,706.04,936.4,701.5z M850.98,1076.36c4.68-0.95,9.23-1.81,13.75-2.83c1.5-0.34,2.11-1.58,1.77-3.09
				c-0.35-1.58-1.59-2.22-3-1.93c-1.26,0.26-2.37,1.22-3.63,1.49c-3.09,0.67-6.59,3.83-9.27,0.75c-2.87-3.3-6.32-6.64-7.33-11.11
				c-1.36-5.99-3.91-11.36-7.07-16.51c-0.79-1.28-0.9-3.9-3.08-3.21c-2.49,0.79-1.58,3.22-1.39,5.17c0.86,8.73,5.6,15.94,9.68,23.28
				C843.36,1071.91,846.31,1075.55,850.98,1076.36z M864.36,1099.61c-0.12,1.58-0.15,2.91-0.33,4.22c-0.13,0.96-0.32,2.2-1.55,2.19
				c-1.28-0.01-1.25-1.28-1.48-2.24c-0.66-2.79-1.34-6.12-5.24-4.8c-5.15,1.74-6.58,4.8-4.96,8.9c2.02,5.13,3.64,5.96,9.79,3.9
				c3.91-1.31,7.58-2.06,11.62-0.62c3.28,1.17,3.42-1.6,3.81-3.67c0.52-2.83,0.43-5.59-1.88-7.74c-0.13-0.12-1.01,0.22-1.2,0.54
				c-2.15,3.67-3.09,1.06-4.3-0.74c-1.14-1.7-1.82-3.51-2.05-5.54c-0.1-0.83-0.6-1.64-1.62-1.49c-1,0.15-1.27,1.04-1.2,1.89
				C863.91,1096.23,864.17,1098.04,864.36,1099.61z M1136.62,941.92c9.43-0.03,13.73-4.51,11.2-9.96c-0.73-1.56-1.62-3.03-3.62-2.91
				c-1.9,0.11-2.17,1.59-2.53,3.15c-0.96,4.23-5.33,6.43-7.79,4.95c-5.04-3.03-13.08-1.5-15.13-9.33c-0.32-1.21-1.81-1.25-2.92-1.61
				c-3.59-1.18-7.29-2.16-8.68-6.43c-0.45-1.37-1.93-1.75-3.34-1.68c-0.91,0.04-1.65,0.55-1.72,1.48c-0.09,1.25,0.53,2.51,1.55,2.95
				c4,1.75,6.1,5.51,9.12,8.28C1120.01,937.4,1128.57,940.96,1136.62,941.92z M953.9,735.45c-0.11-3.56-3.35-4.24-5.53-5.77
				c-1.83-1.29-3.74-0.61-5.37,0.95c-2.19,2.09-3.84,4.57-5.11,7.24c-1.63,3.45,1.92,8.84,5.58,8.76
				C945.5,746.59,953.89,737.59,953.9,735.45z M865.74,894.2c3.68-0.13,6.3-0.71,8.72-1.83c1.98-0.91,6.19,0.18,5.68-2.45
				c-0.61-3.1-4.44-1.14-6.89-1.18c-10.22-0.16-20.45,0.47-30.66-0.42c-1.46-0.13-3.43-2.17-4.24,0.25
				c-0.71,2.13,1.56,2.99,3.21,3.76c1.5,0.7,3.17,1.79,4.73,0.9c2.72-1.55,5.5-0.53,8.21-0.84
				C858.84,891.89,862.59,894.15,865.74,894.2z M872,943.87c1.72,0.74,2.84,0.79,3.78-0.17c0.73-0.74,1.23-1.65,0.73-2.68
				c-0.43-0.89-1.42-1.03-2.14-0.62c-4.25,2.46-8.71,0.23-13.06,0.53c-6.1,0.42-12.3-0.11-17.71-3.68
				c-0.87-0.57-1.78-1.07-2.66-0.13c-1,1.05-0.77,2.22,0.19,3.07c1.35,1.21,2.71,2.84,4.33,3.24c6.91,1.68,13.84,3.28,21.06,3.2
				C869.05,946.6,869.86,943.21,872,943.87z M1146.81,975.65c-3.14-0.16-4.96-0.36-6.79-0.31c-1.41,0.04-3.5-0.26-3.59,1.69
				c-0.1,1.95,2.04,1.77,3.41,2.07c12.05,2.66,22.92-1.73,33.84-5.74c0.46-0.17,0.9-0.44,1.28-0.76c0.66-0.55,1.16-1.24,0.71-2.15
				c-0.44-0.88-1.56-1.28-2.09-0.83c-4.42,3.69-10.35,1.3-15.01,3.82C1154.46,975.67,1150.06,976.1,1146.81,975.65z M850.09,1121.27
				c5.13-0.19,10.05-1.6,14.83-3.63c1.5-0.64,3.66-0.98,2.85-3.23c-0.81-2.24-2.63-0.95-4.23-0.66c-8.47,1.5-16.85,5.75-25.61,1.02
				c-1.14-0.62-2.82-0.67-3.49,0.84c-0.75,1.69,0.81,2.33,1.95,2.92C840.65,1120.75,845.41,1120.59,850.09,1121.27z M862.28,961.3
				c1.85-0.22,4.45,0.41,4.52-2.49c0.06-2.72-2.4-2.57-4.36-2.9c-5.66-0.98-11.58-0.27-17.03-2.77c-1.24-0.57-3.23-0.84-3.76,1.08
				c-0.43,1.55,1.18,2.21,2.38,2.7C849.87,959.33,855.99,960.61,862.28,961.3z M884.76,641.09c-3.72-6.8-10.6-9.25-16.43-13.06
				c-1.61-1.05-3,0.83-3.79,2.32c-0.91,1.72-0.03,2.91,1.54,3.53C872.29,636.33,878.53,638.7,884.76,641.09z M939.36,673.67
				c-2.71,0.49-5.18,1.36-5.68,4.25c-0.59,3.42-1.04,7.08,1.57,9.91c1.4,1.52,2.72,0.39,3.33-1.27c1.15-3.1,2.33-6.2,3.33-9.35
				C942.64,674.93,941.6,673.74,939.36,673.67z M861.4,936.2c0.96-0.08,2.14-0.08,3.26-0.31c1.01-0.21,1.88-0.81,1.87-2
				c-0.01-0.95-0.73-1.46-1.56-1.7c-4.1-1.18-8.21-2.34-12.33-3.47c-1.14-0.31-2.38-0.58-3.02,0.83c-0.6,1.31,0.38,2.12,1.09,3.05
				C853.41,936.18,857.52,935.46,861.4,936.2z M1028.66,284.35c-0.39-1.52-1.27-2.34-2.56-1.8c-2,0.84-5.48,1.1-4.64,4.08
				c0.72,2.54,0.47,4.12-0.89,6.17c-0.87,1.33-0.2,3,1.44,3.7c1.58,0.67,3.11,0.25,3.79-1.35
				C1027.27,291.66,1026,287.46,1028.66,284.35z M838.04,905.04c1.38,0.2,2.25-0.17,2.78-1.15c0.65-1.19,0.44-2.32-0.65-3.06
				c-3-2.05-6.04-4.04-9.11-6c-0.88-0.56-1.92-0.68-2.7,0.21c-0.59,0.68-0.68,1.65-0.11,2.3
				C831.07,900.59,834.1,903.62,838.04,905.04z M828.27,917.86c0.44-0.01-0.54-0.13-0.77,0.89c-0.25,1.1,0.7,1.35,1.51,1.5
				c2.68,0.51,3.94,1.31,1.07,3.57c-2.22,1.75-0.18,2.7,0.91,3.84c2.23,2.32,5.78,1.32,8.13,3.34c1.07,0.92,2.65,1.66,3.43,0.25
				c1.02-1.83-1.17-1.7-2.11-2.42c-2.93-2.24-7.96-2.5-7.43-8.16C833.17,919.05,831.47,917.83,828.27,917.86z M859.3,914.37
				c1.18-0.19,2.87,0.62,3.78-1.04c0.4-0.73-0.37-1.26-0.95-1.44c-3.44-1.08-6.88-2.15-10.37-3.05c-1.2-0.31-2.38,0.36-2.65,1.65
				c-0.35,1.66,0.84,2.37,2.24,2.62C853.92,913.57,856.52,913.94,859.3,914.37z M849.84,962.8c-3.95-1.41-8.02-2.06-11.56-4.36
				c-1.01-0.65-2.7-0.66-3.72,0.45c-0.68,0.75-0.18,1.75,0.69,1.97C840.03,962.05,844.5,965.4,849.84,962.8z M851.42,999.42
				c0.92,0,1.59,0.07,2.25-0.01c1.58-0.2,3.79,0.06,3.6-2.35c-0.16-2.05-2.11-1.67-3.58-1.66c-0.67,0.01-1.35-0.06-1.99,0.07
				c-2.29,0.47-6.45-1.06-6.51,1.47C845.09,1000.4,849.38,998.59,851.42,999.42z M827.04,904.2c2.44,3.98,5.66,5.39,8.42,7.29
				c0.92,0.63,2.34,0.65,3.08-0.51c0.68-1.06-0.35-1.76-0.94-2.51C835.13,905.35,831.54,905.03,827.04,904.2z M831.49,1027.91
				c-1.23,0.1-2.01,0.71-2.32,1.72c-0.64,2.13-0.68,4.29,0.82,6.09c0.96,1.16,2.35,2.17,3.88,1.38c1.85-0.96,1.32-2.4,0.09-3.61
				c-0.99-0.97-0.79-1.98-0.43-3.17C834.1,1028.47,832.79,1028.08,831.49,1027.91z M833.45,978.17c-0.49-2.02,0.33-4.95-2.96-5.38
				c-1.84-0.24-2.63,1.22-2.62,2.87c0.02,2.51,0.95,4.68,3.62,5.2C833.25,981.22,833.62,979.77,833.45,978.17z M852.03,878.43
				c-0.38-1.97-2.21-2.63-3.75-3.5c-1.58-0.9-3.31-1.77-5.14-0.8c-0.89,0.47-0.82,1.58-0.09,2.09c2.02,1.4,4.1,2.76,6.3,3.84
				C850.48,880.6,851.62,879.99,852.03,878.43z M1176.65,577.02c-0.29,1.89-0.45,3.94,2.16,3.99c1.96,0.04,2.27-1.8,1.99-3.27
				c-0.34-1.74,1.06-4.62-1.53-5C1176.53,572.34,1176.77,575.08,1176.65,577.02z M851.64,971.41c2.65,2.37,5.59,1.59,8.25,1.87
				c0.94,0.1,2.17-0.14,2.31-1.38c0.17-1.59-1.24-1.77-2.33-1.97C857.23,969.44,854.62,969.27,851.64,971.41z M844.1,1093.32
				c-0.73-1.72,0.62-4.89-2.07-5.22c-1.71-0.21-1.52,2.6-1.37,4.14c0.18,1.99-0.5,5.09,2.04,5.39
				C844.51,1097.85,843.79,1095,844.1,1093.32z M868.81,925.44c3.14,0.74,5.9,2.06,8.82,0.38c0.62-0.35,0.77-1.35,0.09-1.63
				c-2.79-1.12-5.65-1.56-8.44,0.09C869.18,924.35,869.16,924.57,868.81,925.44z M844.64,948.33c-2.27-2.05-4.73-1.72-6.3-3.35
				c-0.91-0.94-2.39-1.65-3.24,0.07c-0.68,1.38,0.15,2.69,1.41,3.27C838.92,949.43,841.44,949.54,844.64,948.33z M834.8,1089.23
				c-1.03,2.96-1.1,5.89,0.6,8.68c0.35,0.58,1.35,0.33,1.6-0.36c1.1-2.99,0.53-5.75-1.41-8.24
				C835.53,1089.23,835.3,1089.28,834.8,1089.23z M862.2,966.29c-0.65-0.09-0.01,0.01,0.64,0.08c1.06,0.12,2.62,0.82,2.64-0.96
				c0.02-1.51-1.61-1.24-2.69-1.35c-0.49-0.05-0.98-0.09-1.47-0.05c-2.11,0.16-5.76-1.32-5.83,1.24
				C855.41,967.67,858.93,966.12,862.2,966.29z M833.79,1003.19c-0.32-1.64-1.47-2.47-3.04-2.63c-1.61-0.17-2.44,0.86-2.47,2.35
				c-0.04,1.77,0.95,2.76,2.75,2.58C832.38,1005.35,833.59,1004.86,833.79,1003.19z M1006.6,316.55c-0.27-0.98-0.97-1.33-1.55-1.05
				c-2.05,0.98-4.1,2.12-4.71,4.55c-0.24,0.96,0.6,2.68,1.06,2.28C1003.37,320.62,1004.95,318.46,1006.6,316.55z M821.19,1096.14
				c0.59,1.84,1.18,3.68,1.78,5.52c0.32,0.99,0.78,1.96,2.03,1.68c1.5-0.34,1.51-1.69,1.3-2.81
				C825.81,1098.01,823.6,1097.02,821.19,1096.14z M865.87,882.27c-1.19,0.2-3.18-0.47-2.94,1.55c0.23,1.93,2.28,2.13,3.92,2.32
				c1.24,0.14,2.67-0.34,2.69-1.61C869.58,882.1,867.38,882.6,865.87,882.27z M857.78,1036.07c-1.38,0.18-3.25,0-3.21,2.04
				c0.03,1.7,1.71,1.73,2.99,1.77c1.3,0.04,2.86-0.06,2.99-1.75C860.67,1036.35,859.11,1036.26,857.78,1036.07z M864.27,1081.92
				c-0.11-1.42,0.16-3.43-1.77-3.43c-1.95,0-1.7,2.04-1.73,3.45c-0.02,1.41-0.3,3.45,1.68,3.44
				C864.32,1085.37,864.13,1083.36,864.27,1081.92z M1183.07,557.36c-0.06-1.46-0.55-2.64-2.24-2.61c-1.31,0.03-2.89,0.2-2.93,1.9
				c-0.03,1.82,1.6,2.32,3.06,2.63C1182.41,559.58,1183.08,558.79,1183.07,557.36z M858.68,951.22c2.61,0.88,5.25,1.51,9.05,0.13
				C863.93,949.62,861.32,949.83,858.68,951.22z M834.49,914.5c0.08-1.93-1.09-2.61-2.78-2.65c-0.99-0.02-2.26,0.11-2.15,1.39
				c0.14,1.67,1.73,2.35,3.06,2.86C833.8,916.54,834.4,915.67,834.49,914.5z M1101.8,912.64c-0.28-1.55-1.2-2.54-2.87-2.63
				c-0.92-0.05-1.6,0.55-1.53,1.46c0.12,1.54,0.76,2.87,2.54,3.01C1101.06,914.57,1101.7,913.87,1101.8,912.64z"/>
			<path d="M1057.03,998.44c-6.71-1.39-12.73,0.25-18.6,3.64c-8.61,4.97-18.18,8.11-26.35,14.03c-3.14,2.28-3.81,4.05-1.54,7.28
				c6.01,8.58,1.89,18.43-8.31,21.38c-15.16,4.39-30.29,8.87-45.54,12.93c-5.2,1.38-9.73,5.07-15.41,5.39
				c-0.44,0.02-1.09,0.34-1.26,0.71c-4.03,8.74-13.45,10.81-20.22,16.13c-6.1,4.79-13.24,8.26-19.93,12.3
				c-0.71,0.43-1.47,0.81-2.26,1.05c-1.39,0.42-3.19,1.38-4.02-0.35c-0.92-1.92,0.75-2.95,2.32-3.72
				c11.23-5.5,21.46-12.65,31.95-19.38c1.54-0.99,3.44-1.84,3.26-4.03c-0.39-4.61,2.57-5.18,6.12-6.11
				c5.77-1.52,11.43-3.58,16.97-5.81c8.82-3.55,17.93-6.03,27.1-8.46c8.65-2.3,17.15-5.25,25.12-9.44c3.26-1.71,3.94-4.32,2.26-7.54
				c-0.54-1.03-1.18-2.01-1.84-2.96c-4.55-6.48-4.06-7.88,2.67-12.53c10.75-7.42,22.7-12.55,34.14-18.68
				c4.11-2.2,8.91-3.16,13.1-1.91c8.7,2.6,15.79-2.72,23.67-3.48c13.27-1.28,22.72-11.5,35.33-14.1c1.47-0.3,2.82-1.05,4.29-0.26
				c1.04,0.55,2.13,1.26,2.12,2.55c-0.01,1.6-1.41,1.69-2.55,1.74c-7.53,0.33-13.35,4.93-19.49,8.33
				c-4.75,2.64-9.53,4.77-14.74,5.75c-3.3,0.62-6.56,1.1-9.52,2.73C1069.93,998.88,1063.68,999.94,1057.03,998.44z"/>
			<path d="M897.87,471.52c-2.27,5.37-6.14,8.08-9.54,10.67c-5.06,3.86-9.83,8.42-16.4,10.16c-3.59,0.95-3.53,3.75-1.94,6.82
				c4.32,8.32,10.53,14.76,18.47,19.72c5.07,3.17,9.86,6.79,14.8,10.18c1.05,0.72,2.85,1.17,1.72,2.86c-0.9,1.35-2.43,0.75-3.6,0.03
				c-2.96-1.85-5.92-3.71-8.79-5.68c-3.26-2.23-6.14-5-10.74-4.31c-2.09,0.31-3.4-1.76-4.46-3.53c-1.36-2.29-2.71-4.58-4.2-6.79
				c-0.81-1.2-1.79-2.76-3.58-1.85c-1.61,0.81-1.34,2.45-1.17,3.99c1.2,10.87,5.59,20.4,11.93,29.19
				c4.68,6.49,9.84,12.57,15.23,18.47c0.77,0.85,1.72,1.62,1.46,3.26c-2.12,0.6-3.17-1.02-4.41-2.23
				c-5.95-5.82-11.88-11.63-16.28-18.82c-1.12-1.83-2.2-4.83-4.96-4.29c-2.93,0.58-1.25,3.67-1.93,5.54
				c-0.15,0.41-0.58,0.71-0.9,1.09c-1.9-1.14-1.66-3-1.44-4.52c0.97-6.72-0.25-13.28-1.23-19.86c-0.88-5.94-1.67-11.83,0.27-17.8
				c1.09-3.36-1.57-5.98-2.79-8.8c-1.07-2.45-0.86-3.61,1.96-4.19c10.53-2.14,19.22-7.71,26.97-14.92c0.6-0.56,1.07-1.29,1.71-1.8
				C894.93,473.38,895.94,472.8,897.87,471.52z"/>
			<path d="M915.87,1047.9c-8.14-1.34-12.96,2.7-17.91,6.37c-0.78,0.58-1.34,1.49-2.14,2.02c-0.68,0.45-1.65,0.61-2.28-0.15
				c-0.69-0.84-0.12-1.53,0.57-2.07c7.3-5.62,14.22-10.71,24.4-11.85c11.35-1.28,22.57-5.26,33.31-9.85
				c6.08-2.6,12.6-4.11,18.21-7.87c1.69-1.14,3.75-1.99,3.91-4.19c0.77-10.85,8.86-15.76,16.82-20.55c4.61-2.78,8.55-6.29,12.62-9.7
				c0.93-0.78,1.66-1.75,1.72-2.95c0.34-6.27,6.04-7.83,9.75-11.09c0.85-0.75,2.37-1.09,3.14,0.07c0.86,1.29-0.33,2.24-1.36,2.73
				c-4.06,1.91-5.74,4.79-7.42,9.28c-1.84,4.88-7.31,8.77-12.27,11.87c-5.65,3.54-10.99,7.44-15.52,12.38
				c-1.29,1.4-2.57,2.93-2.25,4.81c1.34,7.96-4.73,10.39-9.96,12.86c-8.54,4.05-17.15,8.33-26.2,10.82
				C933.65,1043.42,924.37,1046.73,915.87,1047.9z"/>
			<path d="M954.87,794.11c4.65-2.81,8.41-2.36,12.53,0.87c7.19,5.63,14.82,10.71,22.26,16.03c1.38,0.99,2.82,1.75,4.58,1.74
				c1.87-0.02,2.88,0.82,2.42,2.78c-0.51,2.19-1.94,2.52-3.79,1.61c-5.97-2.95-11.58-6.51-16.99-10.39
				c-8.28-5.94-14.41-5.8-22.59,0.35c-1.21,0.91-2.78,3.02-4.12,1.25c-1.13-1.49,0.92-3.04,2.22-3.89c2.21-1.45,4.71-2.45,7-3.8
				c1.37-0.81,3.4-1.55,3.06-3.5c-0.36-2.05-2.48-1.82-4.1-2C956.55,795.06,955.68,795.24,954.87,794.11z"/>
			<path d="M953.59,246.52c2.6,1.53,5.72,0.54,8.78,0.68c1.27,0.06,2.85,1.06,3.28-0.83c0.35-1.53-1.18-2.19-2.39-2.77
				c-2.69-1.29-5.37-2.58-8.07-3.85c-0.88-0.42-2.07-0.7-1.73-1.98c0.33-1.24,1.55-1.09,2.49-0.94c4.25,0.68,8.54,1.26,12.73,2.2
				c3.98,0.89,6,4.81,4.33,8.43c-1.28,2.79-2.25,5.49-1.71,8.61c0.21,1.18,0.16,2.57-1.49,2.53c-1.22-0.03-1.39-1.21-1.37-2.25
				c0.02-1.65-0.43-4.68-1.38-4.17c-2.81,1.49-6.45-2.24-8.72,1.97c-1.52,2.81-5.45,2.27-7.1-0.54c-0.33-0.56-0.63-1.17-0.79-1.8
				c-0.42-1.63-4.2,0-2.96-2.71C948.46,246.98,951.08,246.94,953.59,246.52z"/>
			<path d="M1052.43,757.14c14.37-16.55,18.76-37.12,23.32-57.63C1078.8,714.88,1064.74,753.43,1052.43,757.14z"/>
			<path d="M1111.23,648.7c1.31,0.28,3.26-0.27,3.76,1.56c0.42,1.55-1.17,2.22-2.29,2.9c-11.76,7.17-21.3,16.83-30.33,27.06
				c-0.65,0.74-1.44,1.39-2.26,1.95c-0.67,0.46-1.55,0.95-2.24,0.15c-0.7-0.82-0.04-1.55,0.52-2.14c2.76-2.89,5.4-5.91,8.34-8.59
				c5.27-4.8,9.67-10.52,15.59-14.65c2.41-1.68,5.1-3.14,5.55-6.65C1108.07,648.69,1109.77,648.68,1111.23,648.7z"/>
			<path d="M847.06,478.64c0.06,1.8,0,2.9-1.28,3.05c-1.26,0.14-1.57-0.88-1.79-1.92c-1.89-9.1-6.49-16.93-11.51-24.57
				c-0.77-1.18-1.42-2.44-0.17-3.56c0.88-0.79,1.83-0.26,2.58,0.57C841.89,459.95,845.04,469.43,847.06,478.64z"/>
			<path d="M1139.71,531.02c-0.09-3.61,0.95-7.16-1.15-10.49c-0.27-0.43,0.23-1.81,0.78-2.22c4.48-3.41,1.98-5.72-1.45-7.8
				c5.57-3.2,5.67-4.16,0.98-7.68c-0.67-0.5-1.54-0.81-1.04-1.85c0.4-0.86,1.26-0.99,2.1-1.02c3.19-0.12,6.06,3.52,5.39,7.45
				c-0.84,4.89-1.85,9.79-3.3,14.53C1141.1,524.93,1143.13,528.56,1139.71,531.02z"/>
			<path d="M987.39,760.99c-0.22-11.81-3.86-23.17-4.35-34.92c-0.18-4.22-3.34-7.66-3.13-11.98c0.06-1.2-0.81-3.13,1.08-3.26
				c1.76-0.12,1.42,1.89,1.62,3.1c1.72,10.48,3.32,20.98,5.12,31.45C988.61,750.62,987.71,755.77,987.39,760.99z"/>
			<path d="M1114.06,421.99c-4.39-2.56-10.81-2.45-15.72-5.96c-2.57-1.84-6.12-1.95-7.98-4.81c-0.57-0.88-2.12-1.6-1.01-2.89
				c0.77-0.89,1.95-0.4,2.7,0.24c6.78,5.76,15.44,7.26,23.4,10.33c1.06,0.41,2.32,0.74,2.44,2.15
				C1117.97,421.99,1117.2,422.22,1114.06,421.99z"/>
			<path d="M995.51,247.94c4.83-1.55,7.28,2.63,10.81,4.1c1.11,0.46,1.78,1.68,0.95,2.9c-0.9,1.32-2.55,1.55-3.44,0.45
				c-3.46-4.28-9.45,0.26-13-3.94c-0.74-0.88-1.85,0.78-2.44,1.79c-0.54,0.93-1.34,1.66-2.33,0.61c-0.84-0.91-0.38-1.91,0.41-2.61
				C989.08,248.91,991.65,246.36,995.51,247.94z"/>
			<path d="M1086.92,859.97c-2.91,8.67-8.18,13.62-14.6,17.5c-1.39,0.84-3.88,1.87-4.71-0.47c-0.77-2.16,1.71-2.63,3.2-2.79
				c4.67-0.5,6.22-4.65,8.92-7.38C1081.69,864.85,1083.34,862.57,1086.92,859.97z"/>
			<path d="M994.32,650.2c9.29-5.13,19.31-8.95,27.71-15.7C1015.23,644.16,1005.05,647.66,994.32,650.2z"/>
			<path d="M1045.18,808.87c-4.27,6.5-10.33,9.4-17.94,9.06c-1.37-0.06-2.9-0.51-2.66-2.21c0.23-1.69,1.75-0.92,2.83-0.9
				c4.57,0.05,8.79-0.97,12.48-3.89C1041.36,809.77,1042.93,808.5,1045.18,808.87z"/>
			<path d="M934.87,214.7c2.86,6.2,1.03,12.59,1.22,18.88c0.03,0.84-0.51,1.65-1.55,1.45c-0.91-0.18-1.36-1-1.37-1.85
				C933.09,226.99,932.48,220.74,934.87,214.7z"/>
			<path d="M942.94,300.9c-1.09,2.84,0.68,8.31-2.01,8.4c-3.56,0.12-0.68-5.05-2.17-7.53c-0.41-0.68-0.43-1.6-0.55-2.42
				c-0.27-1.78-2.91-4.29-0.23-5.13c2.67-0.84,3.31,2.92,4.81,4.68C943.12,299.3,942.9,300.18,942.94,300.9z"/>
			<path d="M1001.44,213.06c2.5,4.71-0.04,8.59-1.66,12.57c-0.22,0.55-1.04,0.83-1.72,0.35c-0.92-0.66-1.28-1.72-0.9-2.63
				C998.61,219.94,1000.2,216.61,1001.44,213.06z"/>
			<path d="M995.66,268.15c-0.78-0.39-2.04-0.84-3.08-1.57c-1.43-1.01-4.71-1.4-3.31-3.74c1.11-1.87,3.05,0.44,4.54,1.29
				c0.83,0.47,1.8,0.73,2.73,0.97c1.04,0.27,2.66-0.02,2.42,1.65C998.76,268.15,997.3,268.08,995.66,268.15z"/>
			<path d="M1035.62,579.97c3.96-1.74,8.49-1.13,12.23-3.62C1044.13,578.85,1040.7,582.27,1035.62,579.97z"/>
			<path d="M1092.35,442.81c0.12-1.45-0.25-3.54,1.51-3.69c2.05-0.18,1.69,1.98,1.65,3.3c-0.05,1.49,0.46,3.87-1.67,3.92
				C1091.91,446.39,1092.67,444.09,1092.35,442.81z"/>
			<path d="M836.51,414.29c1.96-2.82-0.24-7.07,3.59-9.86C840.75,408.85,839.61,411.95,836.51,414.29z"/>
			<path d="M889.77,1056.2c0.31,1.94,0.42,2.19,0.35,2.25c-1.97,1.92-3.82,4.08-6.77,4.43c-0.75,0.09-1.37-0.9-1-1.32
				C884.29,1059.34,887.49,1059.35,889.77,1056.2z"/>
			<path d="M1010.13,694.66c1.12,0.35,3.22-0.42,2.99,1.49c-0.19,1.61-2.27,1.61-3.71,1.74c-1.15,0.1-2.71,0.03-2.68-1.42
				C1006.77,694.32,1008.75,694.87,1010.13,694.66z"/>
			<path d="M940.9,229.67c-0.91-0.77-1.12-0.86-1.13-0.98c-0.21-2.34,0.57-4.38,2.05-6.14c0.12-0.15,1.14,0.1,1.24,0.35
				C944.13,225.7,941.26,226.98,940.9,229.67z"/>
			<path d="M1013.96,713.31c2.99-0.55,5.26-2.66,8.66-3.63C1020.59,714.27,1017.58,714.72,1013.96,713.31z"/>
			<path d="M825.38,562.99c0.21,2.12-0.55,3.29-2.11,3.93c-1.05,0.43-2.27,1.28-3.26,0.42c-1.38-1.19,0.2-2.42,0.41-3.62
				c0.4-2.28-0.3-4.14-1.4-6.13c-4.72-8.54-9.26-17.18-13.92-25.75c-1.76-3.23-4.11-6.03-6.76-8.57c-2.64-2.53-5.25-5.08-7.84-7.66
				c-0.87-0.87-2.62-1.7-1.36-3.18c1.27-1.5,2.34,0.07,3.3,0.86c7.45,6.13,14.5,12.54,18.39,21.78c1.93,4.59,4.82,8.73,8.17,12.49
				c1.44,1.62-1.14,4.7,1.04,5.41c4.5,1.47,3.5,5.57,4.92,8.48C825.26,562.04,825.32,562.74,825.38,562.99z"/>
			<path d="M825.21,613.18c-2.51-4.64-7.29-2.62-11.69-3.64c1.91-2.05,3.74-0.8,5.29-1.01c2.17-0.29,4.57-0.56,5.63-2.65
				c1.19-2.35-0.63-3.61-2.56-4.58c-0.77-0.39-1.55-1.08-0.71-1.91c0.79-0.79,1.83-1.44,2.88-1.85c0.9-0.35,1.6,0.22,1.63,1.26
				c0.1,4.11,4.27,5.62,5.8,9.08c1.44,3.25,3.89,6.11,1.99,9.53c-1.91,3.43-5.25,4.98-9.4,3.76c-0.75-0.22-1.62-0.03-3.26-0.03
				c2.84-1.54,5-2.74,7.18-3.9c1.27-0.67,3.23-0.95,2.6-2.97c-0.5-1.6-2.24-1.02-3.5-1.16c-0.66-0.07-1.33-0.05-2-0.07
				L825.21,613.18z"/>
			<path d="M795.96,572.94c-6.01-4.86-9.75-10.55-14.84-14.89c-4.34-3.7-7.13-9.03-11.62-12.74c-0.81-0.67-1.52-1.58-0.74-2.52
				c1-1.2,1.88-0.1,2.33,0.66c5.52,9.49,14.95,15.32,21.85,23.5C794.14,568.36,795.55,569.77,795.96,572.94z"/>
			<path d="M805.28,567.66c4.42-0.04,4.42-0.04,8.72,2.96C811.7,572.05,811.7,572.05,805.28,567.66z"/>
			<path d="M825.08,613.04c-0.14,0.3-0.24,0.63-0.43,0.88c-1.78,2.36-4.16,2.24-6.63,1.53c-0.7-0.2-1.05-1.07-0.65-1.6
				c1.59-2.1,3.83-1.25,5.9-1.06c0.65,0.06,1.29,0.25,1.94,0.38C825.21,613.18,825.08,613.04,825.08,613.04z"/>
			<path d="M857.87,820.56c-0.17,0.71-0.61,1.12-1.33,1.23c-1.32,0.21-7.01-4.68-7.21-6.18c-0.09-0.73,0.11-1.26,0.89-1.45
				C851.03,813.96,857.91,819.73,857.87,820.56z"/>
			<path d="M853.37,830.82c-2.95-0.72-4.94-2.4-6.39-4.7c-0.24-0.39,0.04-1.24,0.32-1.75c0.11-0.2,1.15-0.22,1.31,0.01
				c1.52,2.09,3.6,3.31,5.94,4.25c0.24,0.1,0.45,1.03,0.28,1.24C854.45,830.32,853.81,830.55,853.37,830.82z"/>
			<path d="M899.12,799.54c-1.87,2.05-4.44,2.24-6.33,3.85c-0.92,0.78-2.31,0.93-2.86-0.57c-0.52-1.41,0.52-2.33,1.7-2.52
				C894.1,799.89,896.62,799.77,899.12,799.54z"/>
		</g>
	</g>
	<g>
		<g>
			<path class="st0" d="M978.27,768.03c-1.82-1.88-1.4-3.97-1.36-5.89c0.3-14.35-0.31-28.63-2.7-42.8
				c-0.08-0.49-0.05-1.02-0.19-1.48c-0.46-1.49-0.08-4.12-2.03-3.98c-2.13,0.15-1.14,2.7-1.29,4.19c-0.21,2.14-0.19,4.32-0.01,6.46
				c0.41,4.89-0.96,9.03-5.27,11.58c-3.17,1.87-3.55,4.33-3.13,7.61c1.52,12.06,3.29,24.06,6.55,35.81c0.47,1.7,1.26,4.16-1.18,4.64
				c-2.57,0.5-2.17-2.13-2.67-3.83c-3.42-11.63-3.78-23.91-7.57-35.45c-0.58-1.76,1.18-4.7-1.51-5.17
				c-2.51-0.44-3.09,2.72-4.17,4.36c-2.5,3.8-5.05,6.65-10.19,6.79c-3.69,0.11-6.01,4.72-4.81,8.82c1.11,3.79,1.21,7.53,0.73,11.36
				c-0.12,1-0.43,2.07-1.65,2.18c-0.92,0.08-1.43-0.72-1.85-1.45c-1-1.72-2.43-3.25-2.64-5.33c-1.7-16.28-11.63-27.51-23.1-37.82
				c-1.47-1.33-2.76-2.88-4.03-4.41c-0.68-0.82-2.09-1.82-0.8-2.9c1.07-0.9,2.29,0.2,3.01,1.02c8.14,9.29,19.94,15.34,24.63,27.71
				c0.46,1.22,1.19,2.62,2.87,2.14c1.18-0.34,0.93-1.61,0.96-2.58c0.05-1.95-10.14-22.03-11.63-23.1
				c-9.28-6.72-18.5-13.43-28.51-19.16c-5.85-3.35-10.33-9.1-15.41-13.79c-0.9-0.83-1.45-2-1.28-3.15
				c0.89-6.23-3.47-8.43-7.98-10.35c-4.13-1.76-8.42-3.16-12.62-4.77c-5.64-2.16-7.24-0.63-7.5,5.37
				c-0.6,13.61,2.54,26.67,5.1,39.83c0.16,0.82,0.38,1.62,0.51,2.45c0.15,0.99,0.33,2.17-0.86,2.56c-1.54,0.51-2.06-0.8-2.38-1.89
				c-1.25-4.3-3.02-8.44-3.54-12.97c-0.21-1.86-0.62-4.53-3.15-4.46c-2.89,0.07-2.35,2.82-2.3,4.67c0.44,16.42-2.8,32.66-2.34,49.07
				c0.08,2.93-1.1,6.62,3.77,7.32c1.51,0.22,1.04,1.79,0.87,2.94c-0.22,1.47-0.56,2.94-0.55,4.41c0.01,1.13,0.3,2.41,1.76,2.68
				c1.14,0.21,1.89-0.53,2.48-1.35c3.58-4.98,8.59-8.87,11.19-14.6c0.41-0.91,0.83-2.11,2.01-1.79c1.42,0.39,1.26,1.78,1.12,2.95
				c-0.24,2.06-0.98,4.1-2.65,5.22c-4.26,2.87-6.38,7.61-10.02,11c-0.99,0.92-2.25,2.34-0.97,3.34c1.56,1.23,1.94-1.02,2.82-1.81
				c5.71-5.14,11.88-9.91,18.86-12.83c8.82-3.68,17.02,0.2,24.33,5.11c14.88,10,20.59,24.82,21.49,42.12
				c0.17,3.32,1.25,6.47-1.03,9.53c-0.97,1.31-0.68,3.06,0.85,3.93c1.74,0.99,2.65-0.62,3.71-1.64c7.92-7.59,8.46-17.35,6.24-26.85
				c-1.73-7.42-1.19-15.15-4.5-22.39c-5.3-11.58-12.41-22.03-18.84-32.9c-3.37-5.7-7.26-11.09-10.07-17.12
				c-0.49-1.05-1.48-2.14-0.04-2.97c1.05-0.6,1.85,0.4,2.41,1.23c3.54,5.23,7.36,10.3,10.48,15.76c4.29,7.52,9.84,14.19,13.84,21.92
				c4.45,8.61,9.04,17.04,9.3,27.05c0.05,1.91-0.49,4.78,2.01,4.98c2.99,0.23,1.87-2.81,2.23-4.57c0.13-0.63,0.08-1.34,1.9-1.73
				c-1.83,8.62,3.48,17.79-4.02,25.41c-0.34,0.34-0.73,0.83-0.75,1.27c-0.33,8.02-6.89,11.36-11.39,16.58
				c-4.5,5.21-9.78,10.25-12.65,16.86c-0.13,0.3-0.28,0.63-0.51,0.85c-6.57,5.95-8.13,13.28-6.65,21.82
				c2.05,11.84-1.03,22.96-5.25,33.98c-4.19,10.96-7.86,22.12-11.39,33.33c-2.37,7.53-2.84,15.56-6.62,22.72
				c-7.39,14-9.9,29.45-10.96,44.89c-0.88,12.8,2.3,25.53,4.9,38.06c1.51,7.28,1.44,14.8,4.32,21.93
				c3.52,8.72,6.89,17.46,11.29,25.78c0.38,0.72,1,1.78,0.74,2.29c-2.95,5.67-0.72,13.17-5.17,17.85
				c-3.59,3.78-8.43,6.89-13.95,7.88c-2.98,0.53-5.72,1.39-8.47,2.74c-9.27,4.56-24.17,0.93-31.59-6.45
				c-3.58-3.56-6.89-7.44-10.75-10.72c-2.89-2.46-2.46-5.88-2.06-8.8c1.73-12.87,0.62-26.01,3.7-38.74
				c0.15-0.63,0.23-1.41-0.01-1.97c-4.44-10.65,1.2-19.53,5.53-28.31c2.37-4.79,2.53-9.38,1.38-13.94
				c-1.79-7.12-2.01-14.09-0.5-21.2c0.96-4.52-0.78-8.88-0.85-13.35c-0.13-8.14,0.45-16.48-1.18-24.33
				c-1.29-6.21-2.7-12.43-2.29-18.58c0.87-12.9-4.27-25.45-2.19-38.21c1.67-10.24,0.22-20.88,4.41-30.82
				c1.45-3.44,1.43-7.48,2.23-11.22c0.72-3.37,0.92-7.05,4.92-8.66c0.98-0.39,1.07-1.62,1.11-2.63c0.27-7.67,1.38-15.24,2.36-22.84
				c0.48-3.73-1.16-7.55-0.47-11.68c1.22-7.27,3.28-14.15,6.57-20.68c1.02-2.02,1.7-3.94,0.97-6.19c-5.22-15.98-3.3-32.2-1.48-48.38
				c0.8-7.12,1.63-14.22,0.78-21.36c-0.41-3.46-0.21-6.5,1.81-9.51c2.9-4.31,3.04-9.42,3.44-14.4c0.43-5.29,0.54-10.63,3.19-15.49
				c1.91-3.5-1.31-3.73-3.27-4.64c-13.39-6.19-23.55-15.47-28.61-29.7c-2.12-5.95-4.57-11.79-6.59-17.78
				c-3.14-9.34-9.41-16.77-15-24.53c-7.39-10.24-15.55-20.09-22.22-30.69c-6.94-11.03-13.44-22.84-13.83-36.89
				c-0.15-5.35-2.82-10.74-4.88-15.9c-2.52-6.31-2.99-12.75,2.45-17c7.38-5.78,9.56-13.97,12.68-21.84
				c2.6-6.55,7.2-11.47,12.57-15.62c3.15-2.43,6.11-4.35,7.85-8.43c2.19-5.14,6.77-8.82,10.78-12.84
				c8.73-8.76,19.14-15.98,25.57-26.93c0.54-0.91,0.63-2.83,2.14-2.01c1.49,0.81,0.33,2.2-0.15,3.45
				c-4.99,13.13-16.63,20.38-26,29.64c-2.6,2.57-5.04,5.3-7.42,8.07c-2.14,2.5-2.31,4.67,1.28,6.21c1.56,0.67,4.18,1.52,3.47,3.52
				c-0.78,2.22-3.2,0.46-4.89,0.46c-6.53-0.01-11.41,3.45-15.5,7.93c-1.78,1.95-5.67,3.6-4.55,6.5c1.17,3.03,5.17,1.52,7.72,1.47
				c14.2-0.24,26.17,5.01,36.83,13.9c4.48,3.74,6.27,9.32,9.34,14.03c2.29,3.51,3.99,2.58,6.09,0.1c4.84-5.71,3.39-12.08,1.96-18.44
				c-1.41-6.29-2.9-12.54-6.89-17.84c-0.51-0.68-0.48-1.72,0.42-2.14c0.9-0.42,1.56,0.33,2.05,1c2.68,3.6,5.51,7.62,5.87,11.83
				c0.5,5.82,4.38,10.9,3.18,16.94c-0.15,0.76,0.13,1.74,1.08,2.03c0.94,0.28,1.62-0.37,2.07-1.05c3.44-5.14,8.17-8.51,13.97-10.6
				c8.62-3.11,10.42-11.69,14.37-18.5c1.75-3.02,3.34-6.14,4.73-9.34c1.7-3.91,3.5-7.6,1.86-12.37c-1.38-3.98,1.44-8.05,1.95-12.18
				c0.95-7.6,2.18-15.17,3.32-22.74c0.2-1.34,0.59-3.06,2.16-2.88c1.85,0.22,1.18,2.06,1.1,3.3c-0.73,11.65-2.74,23.17-4.34,34.7
				c-1.21,8.68-4.05,17.39-9.82,24.61c-0.85,1.06-2.51,2.57-1.26,3.87c1.45,1.51,2.48-0.56,3.67-1.31
				c10.23-6.41,17.8-15.25,23.71-25.65c0.31-0.55,0.9-0.99,1.8-0.64c0.94,2.18-1.24,3.04-2.08,4.49
				c-7.41,12.77-17.92,22.46-30.05,30.65c-4.92,3.32-9.46,7.13-15.32,8.8c-1.75,0.5-3.36,1.81-4.11,3.49
				c-3.37,7.49-10.04,11.35-16.63,15.24c-7.22,4.27-8.73,7.78-6.46,15.59c3.3,11.31,3.65,23.1,5.63,34.62
				c1.72,9.99,1.91,20.11,3,30.14c0.39,3.61,2.51,6.94,3.12,10.78c0.58,3.68,1.65,7.35,2.32,11.11c1.56,8.77,7.3,14.7,14.8,19.02
				c3.01,1.73,4.86,0.32,5.35-2.77c0.6-3.77,0.87-7.6,1.37-12.22c1.57,6,6.96,6.82,10.44,9.79c3.13,2.67,6.97,4.5,10.47,6.75
				c1.68,1.08,3.96,1.87,4.85,3.43c3.98,7.02,11.02,8.28,17.79,10.17c2.93,0.82,5.42,2.4,7.86,4.21c1.72,1.28,3.69,4.19,5.81,0.14
				c0.52-0.99,1.94-0.7,2.57,0.2c1.26,1.82,4.61,1.79,4.64,4.13c0.04,2.69-3.24,0.34-4.67,2.26c4.14,5.28,8.08,10.66,15.08,12.79
				c5.91,1.8,7.88,0.43,7.99-5.86c0.02-1.32-1.06-3.52,1.16-3.63c1.6-0.08,1,2.09,1.4,3.27c2.05,6.13-0.73,11.12-3.27,16.4
				c-2.9,6.01-2.58,6.15,3.34,8.63c6.75,2.83,13.5,5.66,19.73,9.56c3.52,2.2,6.99,3.2,10.54,0.14c3.83-3.31,5.75-9.57,4-13.52
				c-2.12-4.8-2.92-10.1-6.82-14.23c-1.88-1.99-1.2-5.64-1.99-8.53c-1.9-6.89-7.1-8.06-12.8-9.03c-1.71-0.29-3.62,0.65-5.48-0.98
				c2.61-2.52,5.73-1.95,8.36-1.28c4.64,1.18,9.08,3.1,13.64,4.6c1.48,0.49,1.99,1.33,1.21,2.56c-1.71,2.69,0.11,4.75,1.03,6.99
				c0.89,2.15,2.32,2.62,4.38,1.51c2.33-1.26,4.74-2.09,7.52-0.8c-1.04,2.5-3.39,2.41-4.99,3.42c-1.83,1.17-4.1,1.91-3.73,4.68
				c0.4,2.95,2.86,3.63,5.18,3.79c6.41,0.46,11.82-2.69,17.4-5.19c9.43-4.22,17.91-9.94,26.17-16.06c0.52-0.39,1.23-0.51,2.17,0.31
				c-3.58,4.83-8.71,7.79-13.54,11.03c-4.99,3.35-10.69,5.31-16.24,7.54c-1.72,0.69-4.08,1.53-3.5,3.57
				c0.65,2.29,3.26,1.28,4.8,0.85c9.62-2.67,19.08-5.96,27.87-10.64c13.88-7.39,26.92-16.12,39.36-25.8
				c3.02-2.35,3.53-4.77,3.8-7.88c0.09-1.04,0.07-2.07-1.06-2.53c-1.22-0.49-1.83,0.42-2.35,1.29c-2.86,4.79-7.47,7.96-11.12,12.02
				c-0.96,1.06-2.34,1.75-4.17,1.96c3.61-3.92,7.28-7.78,10.82-11.76c4.5-5.05,8.45-10.34,6.47-17.8c-0.33-1.26-0.04-2.82-1.67-3.28
				c-1.25-0.35-2.12,0.51-3.05,1.29c-12.94,10.85-25.72,21.91-38.97,32.37c-5.96,4.71-12.95,8.04-20.55,9.68
				c1.62-3.08,4.92-3.94,7.52-4.87c8.41-3.02,14.21-9.58,21.23-14.44c2.07-1.43,1.75-3.14-0.78-3.93c-1.2-0.38-2.49-0.45-3.84-0.68
				c11.75-4.05,21.29-11.38,30.97-18.44c3.81-2.78,5.53-6.97,7.24-11.14c0.38-0.92,0.55-2.03-0.45-2.72
				c-0.8-0.55-1.54,0.05-2.29,0.42c-7.89,3.82-16.22,6.96-23.12,12.46c-7.93,6.32-17.13,9.74-26.24,13.76
				c-7.47,3.29-13.96,8.69-21.63,12.15c-7.84,3.54-15.78,3.83-23.85,3.72c-21.18-0.29-39.46-9.32-57.38-19.54
				c-8.34-4.75-16.99-9.08-25.86-12.71c-7.38-3.02-14.72-5.87-21.01-10.88c-0.89-0.71-1.73-1.95-2.95-0.9
				c-1.26,1.08-0.39,2.28,0.07,3.58c3.15,8.88,11.2,12.6,18.41,16.66c12.7,7.16,25.07,14.89,38.75,20.4
				c7.3,2.94,14.29,6.88,21.75,9.73c6.54,2.5,8.76,9.15,12.5,14.29c0.61,0.83,0.57,2.06-0.3,2.75c-1.04,0.83-1.87-0.04-2.49-0.82
				c-1.25-1.56-2.75-3.03-3.56-4.8c-3.54-7.81-9.59-11.76-17.99-12.84c-2.17-0.28-4.13-2.05-6.25-2.98
				c-18.58-8.16-36.61-17.37-53.48-28.71c-10.25-6.89-14.08-17.57-10.33-31.83c2.29-8.71,2.23-17.37,2.21-26.14
				c0-0.5-0.07-1-0.03-1.5c0.19-1.96-0.11-4.92,1.89-5.23c2.74-0.43,1.94,2.81,2.58,4.47c2.8,7.26,7.63,13.16,12.6,18.93
				c3.25,3.78,6.62,7.5,10.27,10.88c3.48,3.22,7.4,5.97,11.44,9.16c-2.34,1.58-3.76,0.16-5.25-0.61
				c-9.08-4.73-15.64-12.28-22.2-19.83c-1.09-1.26-2.07-2.63-3.25-3.79c-1.21-1.19-1.8-3.77-4.12-2.87
				c-2.07,0.8-1.38,3.16-1.68,4.88c-0.75,4.23-0.28,8.52-1.02,12.83c-0.94,5.48,2.5,9.58,7.3,11.97c10.86,5.41,20.66,12.94,32.14,17
				c12.17,4.3,22.48,12.38,34.6,16.54c12.38,4.25,24.65,8.99,38.29,8.18c9.86-0.58,18.54-4.52,26.86-8.76
				c8.37-4.27,16.86-8.36,25.13-12.76c11.41-6.08,22.09-13.53,32.97-20.58c10.56-6.85,10.4-6.92,7.49-19.55
				c-0.98-4.26-3.67-7.92-3.42-12.71c0.16-3.08-2.04-1.92-3.64-0.5c-3.5,3.12-6.89,6.47-12.39,8.29c0.89-3.33,2.96-4.19,4.52-5.46
				c5.9-4.8,10.66-10.66,13.79-17.49c2.79-6.07,0.84-12.84,1.07-19.28c0.14-4.15,0.82-8.58-2.76-12.25
				c-1.72-1.77-0.16-4.13,1.36-5.78c5.14-5.57,5.26-11.9,2.95-18.64c-1.51-4.42-1.82-8.32,1.61-12.5c4.78-5.83,4.44-12.2-0.39-18.25
				c-8.31-10.39-16.88-20.57-25.33-30.85c-0.63-0.76-1.39-1.48-1.77-2.36c-0.51-1.17-0.22-2.36,1.02-2.98
				c1.15-0.58,1.81,0.24,2.46,1.06c7.98,10.02,15.93,20.06,23.99,30.02c1.69,2.09,3.59,6.29,6.07,4.69c2.66-1.71-0.96-4.5-2.2-6.6
				c-4.39-7.47-5.92-16.04-9.45-23.87c-3.55-7.89-7.94-15.28-11.88-22.93c-2.66-5.16-5.8-10.08-8.69-15.13
				c-0.78-1.36-1.41-3.13,0.02-4.1c1.87-1.26,2.57,0.79,3.2,2.02c6.59,12.69,13.13,25.4,19.65,38.12c1.62,3.15,4.5,5.84,3.13,11.28
				c2.56-2.9,1.78-4.76,1.46-6.59c-2.46-14.14-6.93-27.73-10.93-41.46c-0.46-1.57-2.11-4,0.58-4.61c2.46-0.56,2.72,2.13,2.6,3.87
				c-0.24,3.47,2.14,5.84,3.1,8.77c3.67,11.16,6.91,22.44,8.55,34.14c1.2,8.55,3.51,16.87,6.1,25.1c0.53,1.69,1.38,3.97,3.54,3.56
				c2.07-0.4,1.34-2.68,1.37-4.28c0.05-2.5,0.07-4.99,0.13-7.49c0.03-1.29-0.31-3.09,1.43-3.23c1.84-0.15,1.72,1.72,1.78,2.97
				c0.14,3,0.33,6.01,0.14,8.99c-0.52,8.11,2.1,15.34,5.82,22.32c3.48,6.53,10.56,7.71,16.24,10.89c1.57,0.88,3.03-0.54,3.5-2.53
				c2.9-12.53,10.35-22.02,20.33-29.67c3.32-2.54,7.62-3.02,11.56-4.14c1.21-0.34,2.76,0.29,3.48-1.23
				c0.73-1.53-0.41-2.47-1.33-3.43c-3.85-4-6.29-8.96-9.07-13.65c-3.29-5.55-8.17-9.11-13.48-12.28c-2.58-1.54-3.86-3.6-4.79-6.56
				c-2.83-9.05-9.41-15.88-14.55-23.6c-9.17-13.8-21.43-24.4-33.88-34.81c-11.02-9.21-23.81-14.45-38.54-12.99
				c-3.4,0.34-4.77-2.63-7.51-3.36c-4.44-1.19-9.06-2.21-12.6-5.66c-1.63-1.59-2.9-0.58-3.88,1.21
				c-7.27,13.36-18.93,20.67-33.39,24.05c-2.95,0.69-4.11,2.06-3.2,5.37c2.8,10.19,4.03,20.55,2.04,31.07
				c-0.6,3.15-0.53,6.28-0.32,9.46c0.91,13.82,1.18,27.65-1.65,41.31c-0.8,3.84,1.74,5.54,3.86,7.47c5.26,4.8,5.36,4.73,1.24,10.15
				c-2.19,2.88,0.22,3.27,2.09,4.01c1.35,0.53,3.34,0.86,2.44,2.91c-0.79,1.81-2.54,1.02-3.97,0.6c-6.21-1.83-7.1-3.81-4.05-9
				c1.29-2.19,1.26-4.54-1.06-5.61c-4.72-2.19-4.9-6.18-4.2-10.15c1.79-10.22,2.67-20.65,2.5-30.83c-0.2-11.8,0.52-23.56,0.21-35.3
				c-0.17-6.51-2.79-12.94-4.18-19.43c-0.42-1.94-1.46-2.79-3.3-3.16c-10.39-2.09-17.29-9.46-24.49-16.34
				c-0.79-0.75-1.88-1.83-0.85-3c1.05-1.19,2.28-0.26,3.04,0.52c3.28,3.32,7.26,5.78,10.89,8.61c13.66,10.63,24.97,11.95,39.13,0.54
				c5.24-4.22,10.01-8.66,12.33-15.16c0.32-0.9,0.45-1.86,1.05-4.42c-7.28,6.14-12.5,13.03-22.13,14.51
				c2.92-4.02,6.64-5.65,9.64-8.08c1.17-0.95,2.44-1.69,3.13-3.09c0.48-0.98,1.79-1.97,0.58-3.07c-1.09-0.99-1.61,0.56-2.4,0.95
				c-2.62,1.3-3.71-0.92-4.65-2.47c-1.66-2.73-2.95-3.13-6.6-2.59c-6.49,0.96-13.1,4.41-19.94,1.27c-0.84-0.38-2.02-0.33-2.96-0.11
				c-5.07,1.2-8.67-0.65-11.32-4.98c-1.06-1.73-2.71-2.91-4.57-3.76c-5.61-2.53-8.08-1.34-8.83,4.83c-0.62,5.11-1.7,7.89-7.8,10.14
				c-10.46,3.87-21.05,7.65-31.39,11.96c-6.87,2.87-14.4,4.13-21.36,6.84c-12.24,4.76-23.27,11.05-29.5,23.71
				c-2.84,5.76-7,10.89-9.59,16.87c-0.43,0.99-1.43,2.65-2.44,0.97c-2.75-4.59-4.47-0.95-6.53,0.53c-1.71,1.23-2.35,3.59-4.82,4.65
				c-0.7-3.42,1.48-5.38,3.17-6.96c8.7-8.15,14.97-18.21,22.15-27.54c3.89-5.05,8.93-8.69,14.48-11.18
				c8.37-3.76,16.74-7.14,26.1-9.02c14.74-2.97,29.78-7.36,39.7-20.58c3.26-4.34,4.28-8.38,1.39-13.74
				c-2.66-4.91-5.82-9.72-7.23-15.29c-0.19-0.75-0.71-1.82-1.31-2.01c-8-2.58-7.94-9.73-8.46-15.95c-0.61-7.3-2.53-14.38-3.01-21.67
				c-0.23-3.49-0.06-6.63,4.83-5.92c0.94,0.14,1.73-0.05,1.77-1.12c0.04-0.95-0.68-1.44-1.55-1.68c-1.75-0.48-4.74,1.06-4.99-1.79
				c-0.28-3.16,3.04-2.88,5.11-3.62c1.63-0.58,2.42-1.82,2.38-3.44c-0.14-5.32-0.08-10.54,1.78-15.71
				c1.09-3.02-1.33-6.33-0.26-10.32c3.44,6.67,6.01,13.67,4,19.62c-1.96,5.81-1.65,11.39-2.44,17.05c-0.23,1.64-0.06,3.52,1.1,4.76
				c1.47,1.57,3.46,4.38,4.66-0.31c0.27-1.06,0.59-1.97,1.9-1.77c1.09,0.17,1.39,1.29,1.01,1.91c-3.12,5.11-0.11,10.79-1.6,16.09
				c-2.32-0.06-2.44-1.72-2.61-3.42c-0.15-1.48-0.28-2.99-0.68-4.41c-0.38-1.32-0.2-3.53-2.21-3.36c-2.08,0.17-1.17,2.33-1.58,3.64
				c-1.11,3.59-1.06,6.8,1.11,10.22c0.86,1.35,1.02,2.54,2.87,2.39c1.97-0.16,3.16,1.03,3.86,2.62c0.83,1.89,3.44,4.15,1.92,5.65
				c-1.99,1.96-3.09-1.18-4.44-2.42c-1.42-1.3-2.8-0.54-4.09,0.29c-0.95,0.61-1.51,1.74-0.71,2.53c4.41,4.38,5.05,10.42,6.86,15.85
				c1.84,5.52,6.76,7.89,10.3,11.64c2.88,3.05,5.69,6.57,11,4.73c1.67-0.58,2.59,1.69,3.66,2.95c2.5,2.96,4.83,5.08,8.38,0.75
				c1.67-2.04,4.73-2.93,7.14-4.39c1.23-0.74,2.02-1.85,1.65-3.33c-0.42-1.69-1.86-1.77-3.22-1.54c-3.32,0.54-4.57-2.05-6.95-4.51
				c6.31,0.78,10.92-4.61,17.17-2.14c1.55,0.62,4.77-1.52,4.8-4.11c0.03-2.75-2.73-3.18-4.89-3.07c-3.31,0.17-6.63,0.65-9.9,1.26
				c-5.64,1.06-11.31,1.13-17,1.01c-3.22-0.07-3.02,2.5-3.67,4.41c-0.44,1.3,0.08,3.55-2.21,3.09c-2.07-0.42-2.1-2.48-1.63-4.12
				c1.28-4.49,3.18-8.52,8.67-8.98c1.74-0.15,3.04-1.29,4.58-1.86c3.12-1.16,6.18-3.64,9.66-0.4c1.29,1.21,3.19,0.33,4.81-0.09
				c6.08-1.56,11.61-1.29,15.4,4.71c1.18,1.87,2.61,1.7,4.22,0.52c0.86-0.63,2.09-2.14,2.85-0.66c1.02,1.99,1.76,4.41,0.67,6.67
				c-0.66,1.37-2.23,1.77-3.46,0.96c-4.53-3.01-6.96,1.36-10.16,2.82c-1.19,0.54-1.81,2.28-1.5,3.51c0.91,3.63,0.17,6.32-3.08,8.49
				c-1.29,0.86-1.61,2.72,0.24,3.7c1.56,0.82,2.96,0.24,3.73-1.36c0.35-0.73,0.22-1.73,0.65-2.39c1.66-2.52,1.39-6.09,6.89-5.74
				c4.09,0.26,8.86-3.35,11.5-7.79c0.08-0.14,0.28-0.37,0.25-0.41c-3.34-4.08,2.08-7.88,0.26-12.13c-1.8-4.21-3.39-8.33-7.76-10.58
				c-0.56-0.29-0.93-0.93-1.41-1.4c-6.84-6.65-6.84-6.66-15.11-2.01c-1.19,0.67-2.42,1.34-3.76,1.09c-6.2-1.19-12.92,1.5-18.76-2.74
				c-1.51-1.09-3.07,0.38-4.37,1.51c-3.52,3.06-6.03,6.83-7.85,11.93c-1.35-2.59-1.28-4.84-3.06-6.73c5.65-0.7,7.32-5.45,10.51-8.44
				c1.33-1.25,2.42-2.77,3.8-3.94c2.04-1.73,3.86-1.71,3.88,1.49c0.02,3.95,2.12,4.04,4.92,3c1.8-0.67,3.74-1.13,5.33-0.15
				c4.67,2.9,8.23-0.35,12.09-1.9c1.79-0.72,1.85-2.24,1.07-3.76c-0.53-1.03-1.57-1.85-1.88-2.91c-0.68-2.29-2.62-5.7-0.28-6.78
				c2.45-1.13,2.44,2.83,3.26,4.52c3.46,7.2,10.42,10.74,15.93,16.04c-1.31-3.96,0.2-7.95-1.34-11.64c2.08-0.7,1.87,1.11,2.57,1.8
				c1.08,1.06,2.42,2.28,3.87,1.41c1.36-0.81-0.09-2.08-0.39-3.09c-0.48-1.63-0.14-2.82,1.09-4.03c4.37-4.29,5.86-9.91,7-15.68
				c0.71-3.61-4.29-10.78-7.61-10.02c-4.07,0.93-7.52-0.63-11.21-1.25c-9.74-1.63-14.65,2.92-13.35,12.56
				c0.13,0.96,0.51,1.98-1.11,3.55c-0.87-7.11-3.05-13.49,0.5-19.91c0.29-0.52,0.92-1.27,1.35-1.24c6.19,0.41,12.62-2.27,18.57,0.98
				c4.37,2.39,6.49-0.14,8.43-3.31c0.97-1.58,1.12-3-1.54-2.58c-3.92,0.62-4.59-2.3-4.61-4.91c-0.04-3.73,2.31-6.99,2.53-11.33
				c2.72,4.01,4.49,4.52,6,0c0.9-2.69,2.32-5.19,5.4-1.55c0.81,0.96,2.15,0.81,3.18-0.03c0.7-0.57,1.22-1.72,0.65-2.18
				c-3.87-3.08-2.06-8.14-4.34-11.8c-6.99-11.23-17.87-17.05-29.7-21.44c-14-5.2-25.87,1.49-37.67,7.49
				c-7.17,3.65-12.66,9.52-18.13,15.4c1.7-7.11,5.52-12.92,12-16.16c7.53-3.77,15.35-7.1,23.33-9.8c11.31-3.84,22.41-2.3,32.62,3.84
				c6.97,4.19,14.17,8.44,18.65,15.47c5.15,8.08,10.26,15.91,11.44,26.27c1.01,8.87,3.07,17.61,2.44,26.65
				c-0.02,0.32-0.03,0.78,0.16,0.97c5.33,5.31,2.88,10.68,0.39,16.26c-1.95,4.38,0.69,8.99-0.1,13.62
				c-0.64,3.74-0.92,7.54-1.77,11.3c-1.03,4.55-2.9,7.78-8.15,7.75c-1.36-0.01-2.68,0.33-3.28,1.8c-4.08,9.88-4.97,20.17-2.58,30.46
				c1.57,6.75,7.86,9.17,13.76,11c9.04,2.81,18.38,4.52,27.72,6.03c13.83,2.24,24.1,10.44,34.15,19.33
				c17.51,15.47,30.46,34.6,43.6,53.59c3.33,4.81,7.14,9.17,11.48,13.04c3.69,3.29,6.34,7.21,8.15,11.74
				c1.45,3.61,3.57,6.8,6.27,9.54c2.23,2.26,3.63,4.59,3.29,7.93c-0.73,7.05,5.58,10.13,8.66,15.05
				c4.95,7.9,10.82,15.11,13.71,24.39c4.78,15.38,3.25,31.03,2.9,46.5c-0.18,7.92-2.5,16.03-4.07,24.01
				c-1.09,5.54-2.43,11.01-1.51,16.72c0.25,1.53-0.22,2.96-0.83,4.36c-5.12,11.91-9.03,24.1-11.36,36.95
				c-1.4,7.73-5.06,14.82-12.35,19.7c-7.57,5.06-14.54,10.86-22.8,15.05c-4.59,2.33-8.94,5.68-13.24,8.76
				c-5.51,3.94-12.25,5.2-17.86,8.83c-0.42,0.27-1.21-0.04-2.75-0.13c9.27-6.96,18.71-12.01,27.86-17.5
				c10.56-6.33,21.1-12.91,30.14-21.11c4.38-3.97,10.84-9.05,7.71-17.42c-0.7-1.88,0.76-3.89,1.56-5.68
				c3.94-8.79,5.05-18.35,7.53-27.53c0.31-1.15,0.72-2.81-0.81-3.56c-0.57-0.28-1.61,0.08-2.29,0.44c-1.39,0.72-1.91,2.07-1.13,3.38
				c1.5,2.51-0.23,4.06-1.4,5.8c-1.01,1.5-2.52,2.69-4.17,1.64c-1.58-1.01,0.05-2.37,0.54-3.46c0.63-1.4,0.99-2.74,0.9-4.31
				c-0.15-2.8,0.54-6.21-5.26-3.4c10.12-6.83,7.34-16.82,8.74-25.39c1.42-8.75,0.99-17.6-0.05-26.4c-0.18-1.48-0.08-3,0-4.49
				c0.05-0.97,0.14-2.17,1.5-2.11c1.02,0.04,1.05,1.06,1.29,1.87c1.18,4.02,0.47,8.64,3.86,11.99c0.57,0.56-0.04,1.17-0.7,1.5
				c-1.6,0.79-2.77,1.84-0.52,3.11c1.65,0.93,2.88,0.48,4.03-1.42c2.2-3.65,0.61-7.47,0.78-11.12c0.23-5.23,1.14-10.75-1.57-15.79
				c-0.18-0.34-0.05-1.07,0.22-1.39c4.17-5.01,0.74-8.94-1.81-12.99c-0.62-0.98-2.08-2.4-1.82-2.82c3.58-5.91-1.8-9.48-3.65-13.81
				c-1.75-4.1-4.47-7.74-9.62-8.31c-1.24-0.14-2.68,0.12-3.89-1.24c1.67-1.07,4.34,0.86,5.2-1.52c0.81-2.23-1.7-2.96-2.54-4.48
				c-1.78-3.19-3.72-6.3-5.45-9.52c-1.01-1.89-2.45-3.23-4.31-1.86c-1.9,1.4-4.95,0.85-5.59,1.53c-3.14,3.34-7.68-0.18-9.93,2.02
				c-3.99,3.91-7.76,8.35-9.88,13.69c-1.93,4.88-5.55,8.98-6.47,14.33c-0.25,1.48-0.82,2.89-0.41,4.39
				c0.49,1.79,1.05,3.87,3.35,3.71c2.68-0.18,2.05-2.46,2.12-4.24c0.1-2.48,0.3-4.97,0.47-7.45c0.06-0.8-0.05-1.86,1.1-1.84
				c0.48,0.01,1.27,0.65,1.38,1.13c0.51,2.19,2.57,4.07,1.4,6.61c-0.14,0.3-0.35,0.86-0.26,0.92c4.15,3.04,1.72,5.79-0.28,8.65
				c-2.23,3.18-0.44,6.91-1,10.41c-1.17,7.27-0.38,14.93,1.71,22.22c0.31,1.07,0.67,2.46,2.18,2.31c1.48-0.14,1.61-1.55,1.76-2.66
				c0.32-2.42,0.51-4.86,1.21-7.31c2.88,4.97,2.16,10.33,2.28,15.72c0.14,6.04,0.53,12.22,3.53,17.85c1.09,2.05,2.55,4.74,2.05,6.66
				c-1.28,4.86,2.53,8.34,2.53,12.71c0,0.57,0.92,1.34,0.75,1.69c-2.08,4.19,0.79,5.01,4.37,5.42c-4.78,2.96-6.3,7.5-2.81,12.39
				c2.76,3.87,0.25,4.42-1.78,5.85c-1.5,1.06-4.64,1.48-2.78,4.05c1.48,2.06,3.76,0.35,5.15-1.02c1.89-1.86,4.58-1.96,6.58-3.48
				c0.89-0.67,2.07-1.94,2.97-0.66c1.04,1.48-0.76,2.38-1.68,3.08c-2.32,1.78-5.39,2.56-7.11,5.25c1.16,0.86,1.85-0.47,2.8-0.47
				c1.92,0,4.01,0.12,4.36,2.37c0.43,2.73-2.06,1.87-3.49,2.24c-4.14,1.06-8.26,0.87-12.35-0.23c-8.11-2.18-13.62,2.75-19.17,7.2
				c-1.96,1.58-0.19,2.44,1.46,2.85c0.93,0.23,2.16,0.36,1.67,1.82c-0.31,0.91-1.44,1.39-2.03,0.92c-5.92-4.7-10.12,0.2-14.8,2.51
				c-2.38,1.17-5.01,1.99-7.13,3.52c-2.73,1.97-6.9,2.96-6.25,7.89c0.14,1.03-1.02,2.45-1.91,3.37
				c-6.2,6.41-12.49,12.72-18.73,19.08c-1.52,1.55-3.05,3.09-4.42,4.76c-3,3.63-2.59,4.92,1.95,6.61c0.61,0.23,1.56,0.31,1.77,0.74
				c3.43,6.92,7.63,3.03,10.73,0.25c11.32-10.12,24.89-17.16,36.36-27.03c0.5-0.43,1.01-0.92,1.6-1.19c1.26-0.57,2.67-0.98,3.5,0.56
				c0.72,1.34-0.33,2.4-1.34,2.82c-10.61,4.46-16.67,14.72-26.34,20.44c-5.13,3.03-4.89,3.45-0.03,6.65
				c-2.85,1.82-5.53,3.24-8.61,0.59c-1.86-1.6-3.27-1.14-5.1,0.59c-4.84,4.57-8.36,4.74-13.84,1.12c-1.29-0.85-2.5-1.67-4.1-1.53
				c-2.3,0.2-5.4,1.11-6.16-1.61c-0.9-3.21-2.71-7.58-0.63-10.04c5.2-6.17,8.79-12.62,8.56-21.05c1.66,2.98,1.18,6.45,3.99,8.82
				c1.13,0.95-0.73,2.6-1.65,3.76c-0.65,0.82-1.16,1.78-0.33,2.68c0.78,0.86,1.93,0.81,2.69,0.03c6.52-6.75,12.99-13.55,19.08-20.75
				c-7.29,0.94-9.38,8.93-16.52,11.31c3.15-3.93,1.06-7.31,0.1-10.76c-1.19-4.27-3.35-5.29-6.38-2.09
				c-4.02,4.25-9.12,6.6-13.81,9.69c-1.88,1.24-4.05,2.08-1.24,5.22c2.33,2.61-0.68,5.87-1.8,8.54
				c-4.82,11.44-13.02,20.7-20.45,30.44c-0.49,0.64-1.18,1.21-1.89,1.59c-1.27,0.67-2.86,2.05-4.01,0.55
				c-1-1.31,0.76-2.35,1.64-3.19c8.52-8.08,15.31-17.43,20.66-27.87c1.07-2.08,2.87-5.14,1.02-6.29c-2.28-1.42-3.92,1.93-5.67,3.51
				c-6.19,5.6-11.81,11.87-19.07,16.99c-0.72-2.69,0.99-3.43,2.12-4.44c4.35-3.87,8.72-7.71,13.05-11.6
				c0.79-0.71,2.27-1.45,0.96-2.75c-0.91-0.9-2.16-0.59-3.23,0.1c-12.11,7.87-25.52,12.61-39.36,16.31
				c-3.51,0.94-7.23,0.6-10.68,2.25c-3.62,1.73-6.95,9.58-5.15,13.2c4.3,8.64,7.82,17.57,9.88,27.04
				c2.82,12.98,9.3,23.23,21.45,29.51c7.53,3.89,14.76,8.27,22.79,11.28c8.2,3.08,15.14,0.79,22.02-3.25
				c1.27-0.75,2.59-2.41,3.83-0.89c1.3,1.58-0.66,2.58-1.7,3.53c-7.2,6.57-15.73,7.53-24.61,5.01c-12.72-3.61-24.33-9.6-34.75-17.81
				c-1.05-0.83-2.24-1.83-3.56-0.78c-1.24,0.98-0.53,2.39-0.41,3.71c0.62,6.82,4.59,12.52,7.49,18.18
				c3.34,6.51,11.15,8.94,18.49,10.41c0.81,0.16,1.67,0.1,2.48,0.24c0.99,0.16,2.2,0.41,2.26,1.58c0.07,1.33-1.24,1.32-2.19,1.47
				c-3.93,0.62-7.63-0.04-11.07-2.04c-1.44-0.84-2.86-2.16-4.53-0.88c-1.66,1.27-0.61,2.97-0.36,4.6
				c1.28,8.35,5.45,15.95,5.93,24.58c0.39,7.01,6.96,12.41,13.91,10.93c10.73-2.28,22.29-2.63,30.94-11.14
				c2.72-2.67,5.99-4.72,7.26-8.61c0.34-1.03,0.9-2.53,2.39-1.65c1,0.6,0.44,1.82-0.07,2.69c-9.7,16.66-25.59,21.48-43.38,22.62
				c-1.84,0.12-2.97-1.19-4.35-2.12c-2.78-1.87-4.78-1.43-4.87,2.4c-0.19,7.64-0.08,15.15,7.92,19.52c1.13,0.62,2.22,1.65,2.85,2.76
				c1.94,3.41,3.98,4.66,8.39,3.53c3.81-0.97,7.59,2.46,11.81,2.99c10.98,1.38,19.97-2.21,27.75-9.54c3.92-3.7,7.83-7.46,9.93-12.37
				c1.61,0.58,1.79,1.28,1.46,1.87c-5.56,9.75-11.61,19.15-22.79,23.27c-8.36,3.08-16.85,3.22-25.08-0.77
				c-1.47-0.71-3.06-2.29-4.47-0.75c-1.74,1.91,0.35,3.24,1.47,4.58c0.64,0.77,1.41,1.45,1.95,2.28
				c9.33,14.37,23.67,16.9,39.2,16.58c0.96-0.02,2.11-0.19,2.84-0.73c6.28-4.71,12.44-9.74,13.12-18.28
				c1.23-15.59,4.57-30.88,6.31-46.37c1.21-10.75-0.57-21.46-4.77-31.59c-0.45-1.09-1.06-2.2-2.44-2.16
				c-1.49,0.04-1.94,1.33-2.04,2.45c-0.98,10.15-6.1,19.37-6.52,29.7c-0.14,3.49-2.17,6.66-4.28,9.68c-1.63-1.45-1.2-2.97-0.59-3.94
				c3.7-5.83,3.62-12.85,4.81-19.11c1.6-8.37,3.11-16.98,3.87-25.59c1.82-20.64,0.35-41.28-0.27-61.9
				c-0.21-7.11-1.64-14.19-2.5-21.28c-0.19-1.58-1.07-3.78,1.19-4.19c2.36-0.43,2.99,1.87,3.18,3.67
				c1.07,10.18,3.09,20.22,2.7,30.61c-0.33,8.77,0.9,17.59,1.32,26.39c0.15,3.15,0.17,6.34-0.09,9.48
				c-0.58,7.09,0.18,13.78,3.58,20.26c2.86,5.43,6.42,11.19,6.87,17.02c0.58,7.53,2.97,13.7,6.57,20.04
				c1.86,3.26,4.11,6.36,5.53,9.96c3.15,8.03,3.5,16.58,5.02,24.9c1.74,9.46,2.42,18.95,1.54,28.73
				c-1.54,17.11,4.57,30.53,20.74,38.93c12.36,6.42,22.48,15.68,29.13,28.32c1.11,2.12,1.91,4.05,2.08,6.48
				c0.3,4.2-0.29,8.56,2.68,12.38c1.48,1.91,1.38,4.9-1.33,6c-10.57,4.25-20.67,9.76-32.85,8.91c-8.39-0.59-14.2-4.99-20.08-9.92
				c-6.49-5.44-12.55-11.19-18.16-17.66c-9.31-10.73-18.58-10.53-29.99,0.92c-2.48,2.49-4.99,3.66-8.36,4.58
				c-8.34,2.27-17,3.42-24.98,6.93c-2.22,0.98-4.5,1.14-6.84,1.09c-0.79-0.02-1.82-0.02-1.92-1.13c-0.09-1.03,0.83-1.3,1.6-1.59
				c9.82-3.68,19.77-7.03,30.1-8.91c4.79-0.87,8.74-2.77,12.31-6.05c2.76-2.54,5.56-4.94,9.26-6.53c3.05-1.31,4.17-5.99,2.58-8.61
				c-3.63-6-1.22-11.44,0.58-16.72c2.38-7,2.87-12.95-4.02-17.64c-2.73-1.86-3.25-5.33-5.08-7.92c-2.31-3.28-5.06-4.92-8.83-4.23
				c-9.72,1.77-17.94-2.58-26.22-6.36c-4.68-2.14-7.66-6.36-10.18-10.73c-3.49-6.04-7.18-11.64-12.5-16.56
				c-6.68-6.18-10.64-14.12-9.94-24.17c0.75-10.86-2.98-21.32-5.06-31.9c-0.26-1.33-0.34-2.87-2.24-2.59
				c-1.5,0.22-2.28,1.46-2.37,2.87c-0.1,1.64,0.08,3.31,0.22,4.96c0.17,2.04,0.1,4.03-1.24,5.7c-0.93,1.17-2.2,1.54-3.57,0.87
				c-1.52-0.75-0.99-1.92-0.35-2.94c1.35-2.17,0.99-4.52,0.75-6.84c-0.26-2.55-0.11-4.77,1.7-6.98c2.77-3.37,0.51-7.12-0.46-10.39
				c-3.06-10.34-5.92-20.75-7.38-31.42c-1.85-13.5-3.68-26.96-8.17-39.89c-1.14-3.28-1.34-6.88-3.49-9.83
				c-1.02-1.4-2.24-2.4-3.71-1.32c-2.22,1.63-5.57,1.57-6.84,4.56c-0.1,0.24,0.02,0.83,0.2,0.91c7.21,3.28,4.54,10.42,5.41,15.65
				c2.18,13.14,2.1,26.54,1.69,39.88C979.79,765.57,979.97,767.01,978.27,768.03z M818.34,510.38c-0.68-3.46,1.39-5.98-0.06-9.2
				c-3.72-8.24-10.62-12.21-18.26-15.99c-7.12-3.53-15.01-2.21-22.23-4.74c-2.51-0.88-5.45-0.92-5.69,3.74
				c-0.21,3.92-2.24,7.27-6.33,9.45c-4.62,2.45-8.47,6.59-8.91,11.96c-0.56,6.88,3.74,13.32,2.87,20.44
				c-0.07,0.56,1.34,1.19,1.47,1.9c0.91,5.21,9.02,8.27,4.54,15.1c-0.18,0.27,0.23,0.93,0.37,1.4c1.49,4.96,3.5,9.63,6.3,14.04
				c8.19,12.91,18.43,24.35,26.69,37.17c9.92,15.4,18.63,31.5,24.28,49.06c2.7,8.39,9.77,12.99,16.34,17.55
				c16.76,11.64,37.48,15.21,54.72,26.04c1.24,0.78,3.12,1.34,4.15-0.05c1.31-1.76-0.34-3.12-1.53-4.2
				c-11.56-10.51-25.34-17.85-38.21-26.48c-0.74-0.5-1.53-0.83-1.13-1.81c0.27-0.66,1.28-0.99,1.67-0.51
				c2.24,2.72,5.92,1.43,8.57,3.45c8.67,6.63,17.97,12.42,26.39,19.41c3.96,3.29,7.95,6.55,12.06,9.64
				c1.62,1.22,3.91,2.02,5.45,0.18c1.63-1.95-0.41-3.24-1.68-4.51c-6.61-6.56-13.96-12.21-21.25-17.98
				c-2.91-2.3-6.62-2.71-9.09-5.39c-1.08-1.18-1.91-2.49-0.88-4.01c1-1.47,2.27-0.69,3.54-0.15c3.05,1.29,6.68,1.86,8.76,4.54
				c6.59,8.5,16.25,13.69,23.2,21.84c1.93,2.26,4.28,4.74,7.4,5.76c1.86,0.61,4.09,1.74,5.6-0.13c1.7-2.11-0.45-3.61-1.64-5.13
				c-4.86-6.21-11.31-10.79-16.94-16.21c-5.08-4.89-10.06-10.23-17.14-12.54c-1.07-0.35-2.61-0.72-2.03-2.23
				c0.59-1.58,2.26-1.33,3.46-0.82c4.73,2.03,9.24,4.17,12.99,8.08c5.96,6.21,12.56,11.81,18.96,17.6c1.26,1.14,2.97,2.04,4.49,0.6
				c1.68-1.6,0.89-3.28-0.42-4.85c-1.92-2.3-3.59-4.83-5.67-6.97c-7.87-8.08-15.47-16.14-27.71-18.2c-6.53-1.1-13.77-1.05-19.5-5.44
				c-3.46-2.65-6.44-3.42-8.42,2.35c-0.54-1.3-0.89-1.83-0.98-2.41c-0.6-3.83-1.99-6.17-6.25-3.56c-1.23,0.75-2.22,0.28-3.07-0.7
				c-0.95-1.09-1.97-1.8-3.45-0.87c-3.89,2.43-6.05-0.55-7.76-3.03c-1-1.45-1.5-2.98-3.5-2.78c-5.42,0.55-10.77-2.82-16.24-0.17
				c-1.13,0.55-2.4,0.06-2.64-1.43c-0.19-1.18,0.64-1.82,1.68-2.11c0.64-0.18,1.32-0.17,1.97-0.31c7.71-1.74,11.69-6.79,10.17-14.32
				c-1.35-6.67-2.35-13.63-6.73-19.33c-0.36-0.47-0.5-1.25-0.46-1.86c0.4-4.97-2.16-9.08-3.58-13.55c-0.96-3.04-4.31-6.77-1.05-9.65
				c4.37-3.85,2.24-8.03,2.36-12.34c0.15-5.23-6.36-9.24-2.49-15.02c0.22-0.33-0.5-1.59-1.07-2.08c-1.1-0.94-1.09-2.47-1.75-3.35
				c-3.09-4.1-3.26-9.18-4.61-13.74c-1.26-4.26-5.41-5.28-7.01-8.54c-3.56-7.26-9.4-12.55-14.75-18.29
				c-0.75-0.81-2.31-1.23-1.63-2.67c0.62-1.32,2.01-0.86,3.13-0.66c1.69,0.3,3.11,1.06,4.23,2.43c2.21,2.7,4.29,5.55,6.8,7.96
				C812.04,504.47,813.4,508.67,818.34,510.38z M1126.64,518.26c-2.66-4.86-5.47-11.99-11.91-15.64
				c-9.3-5.27-16.61-12.01-21.49-21.49c-1.21-2.35-2.63-4.65-4.28-6.71c-1.6-1.98-3.43-3-4.39,0.76c-0.82,3.22-1.77,6.43-2.91,9.54
				c-1.78,4.84-2.09,9.43-0.32,14.53c1.33,3.84,1.74,8.66-1.09,12.03c-4.63,5.52-3.95,11.39-3.35,17.83
				c0.82,8.82,2.91,18.06-2.27,26.31c-2.54,4.05-2.9,8.05-1.8,12.4c1.02,4.05,2.48,7.93,4.69,11.51c2.54,4.13,4.05,9.26,2.48,13.34
				c-2.1,5.46-1.41,10.7-1.69,16.07c-0.43,8.35,2.6,16.3,2.34,24.73c-0.15,5.07-1.1,10.5,1.31,15.6c1.35,2.85,2.83,3.94,5.09,1.54
				c4.05-4.3,9.18-7.12,14.05-10.09c11.35-6.9,22.49-14.04,33.34-21.73c8.65-6.14,10.55-14.09,9.86-23.91
				c-1.06-15-6.7-28.8-11.63-42.56C1128.85,541.64,1126.02,531.33,1126.64,518.26z M888.37,847.89c0.18-1.06,1.1-1.45,1.81-1.45
				c5.87-0.03,7.93-3.79,9.15-8.75c1.01-4.08,2.45-8.06,3.7-12.09c1.44,5.96,0.92,11.55-1.65,16.95c-0.71,1.5-2.27,3.63-0.07,4.89
				c2.33,1.33,3.53-0.94,4.69-2.52c7.4-10.08,8.85-21.48,7.42-33.52c-0.17-1.41,0.13-3.57-1.92-3.43c-1.86,0.12-1.75,2.18-1.67,3.66
				c0.22,4.02-1.82,6.91-4.26,10.32c-1.36-3.03-0.35-5.04,0.39-7.02c3.27-8.83,5.94-17.57-1.7-25.69c-0.77-0.82-1.11-2.04-1.73-3.03
				c-4.58-7.33-10.83-12.6-19.28-14.75c-3.81-0.97-7.6-1.31-11.7,0.3c-11.63,4.57-19.48,13.03-25.58,23.42
				c-3.93,6.69-8.39,13.27-7.99,21.6c0.66,13.77-1.99,27.04-6.13,40.08c-0.46,1.44-0.39,2.65,1.23,3.27
				c10.96,4.21,22.02,8.07,33.59,10.26c0.98,0.19,1.96,0.42,2.95,0.55c1.79,0.22,3.46-0.07,4.01-2.06c0.55-1.98-1.08-2.49-2.45-3.14
				c-1.11-0.53-2.74-0.38-3.11-2.43c2.71-0.69,5.37-1.09,6.65,2.05c1.43,3.5,3.79,3.32,6.48,2.16c2.49-1.07,4.9-2.09,7.69-1.34
				c3.13,0.85,3.98-1.23,3.97-3.57c-0.02-3.89,0.48-7.55,2.05-11.18c1.17-2.72-0.2-4.09-3.18-3.79
				C890.61,847.72,889.56,848.61,888.37,847.89z M930.91,728.25c0.04,2.15-0.35,5.79,3.04,6.91c3.01,1,2.91-2.9,4.41-4.42
				c6.51-6.61,8.14-7.64,13.97-4.74c2.67,1.33,5.22,2.88,7.9,4.18c4.14,2.01,7.14,0.39,7.72-4.23c0.66-5.28,1.03-10.59,1.68-15.87
				c0.31-2.5-0.58-4.37-2.61-5.48c-6.55-3.56-12.96-7.43-20.01-9.94c-2.15-0.77-4.28-0.62-5.33,2.1
				c-3.27,8.44-6.59,16.86-9.93,25.27C931.06,723.77,930.91,725.56,930.91,728.25z M936.4,701.5c0.79-3.6-2.05-6.25-3.28-9.44
				c-0.5-1.28-1.64-1.88-2.82-1.16c-3.52,2.15-7.14,0.78-10.69,0.41c-2.18-0.23-4.63-1.1-5.43,1.73c-0.65,2.31,1.34,3.27,3.18,4.37
				c4.12,2.47,8.38,4.83,11.55,8.59c0.67,0.79,1.21,1.72,0.32,2.64c-0.91,0.94-1.88,0.36-2.64-0.3c-0.87-0.76-1.52-1.79-2.44-2.49
				c-4.41-3.37-8.29-7.64-13.96-8.95c-2.32-0.53-4.6-0.27-4.56-3.81c0.02-1.72-2.16-3.27-3.65-2.49c-6.6,3.46-11.45-0.6-16.65-3.35
				c-1.38-0.73-2.95-2.63-4.16-0.39c-1.12,2.07,0.79,3.65,2.46,4.16c3.97,1.21,6.19,4.32,8.77,7.11c2.36,2.56,4.54,5.28,7.37,7.39
				c7.98,5.93,17.21,10.08,24.29,17.35c2.23,2.29,4.54,0.78,5.36-1.83c0.96-3.02,2.81-5.77,3.49-8.68
				C933.77,708.67,937.64,706.04,936.4,701.5z M850.98,1076.36c4.68-0.95,9.23-1.81,13.75-2.83c1.5-0.34,2.11-1.58,1.77-3.09
				c-0.35-1.58-1.59-2.22-3-1.93c-1.26,0.26-2.37,1.22-3.63,1.49c-3.09,0.67-6.59,3.83-9.27,0.75c-2.87-3.3-6.32-6.64-7.33-11.11
				c-1.36-5.99-3.91-11.36-7.07-16.51c-0.79-1.28-0.9-3.9-3.08-3.21c-2.49,0.79-1.58,3.22-1.39,5.17c0.86,8.73,5.6,15.94,9.68,23.28
				C843.36,1071.91,846.31,1075.55,850.98,1076.36z M864.36,1099.61c-0.12,1.58-0.15,2.91-0.33,4.22c-0.13,0.96-0.32,2.2-1.55,2.19
				c-1.28-0.01-1.25-1.28-1.48-2.24c-0.66-2.79-1.34-6.12-5.24-4.8c-5.15,1.74-6.58,4.8-4.96,8.9c2.02,5.13,3.64,5.96,9.79,3.9
				c3.91-1.31,7.58-2.06,11.62-0.62c3.28,1.17,3.42-1.6,3.81-3.67c0.52-2.83,0.43-5.59-1.88-7.74c-0.13-0.12-1.01,0.22-1.2,0.54
				c-2.15,3.67-3.09,1.06-4.3-0.74c-1.14-1.7-1.82-3.51-2.05-5.54c-0.1-0.83-0.6-1.64-1.62-1.49c-1,0.15-1.27,1.04-1.2,1.89
				C863.91,1096.23,864.17,1098.04,864.36,1099.61z M1136.62,941.92c9.43-0.03,13.73-4.51,11.2-9.96c-0.73-1.56-1.62-3.03-3.62-2.91
				c-1.9,0.11-2.17,1.59-2.53,3.15c-0.96,4.23-5.33,6.43-7.79,4.95c-5.04-3.03-13.08-1.5-15.13-9.33c-0.32-1.21-1.81-1.25-2.92-1.61
				c-3.59-1.18-7.29-2.16-8.68-6.43c-0.45-1.37-1.93-1.75-3.34-1.68c-0.91,0.04-1.65,0.55-1.72,1.48c-0.09,1.25,0.53,2.51,1.55,2.95
				c4,1.75,6.1,5.51,9.12,8.28C1120.01,937.4,1128.57,940.96,1136.62,941.92z M953.9,735.45c-0.11-3.56-3.35-4.24-5.53-5.77
				c-1.83-1.29-3.74-0.61-5.37,0.95c-2.19,2.09-3.84,4.57-5.11,7.24c-1.63,3.45,1.92,8.84,5.58,8.76
				C945.5,746.59,953.89,737.59,953.9,735.45z M865.74,894.2c3.68-0.13,6.3-0.71,8.72-1.83c1.98-0.91,6.19,0.18,5.68-2.45
				c-0.61-3.1-4.44-1.14-6.89-1.18c-10.22-0.16-20.45,0.47-30.66-0.42c-1.46-0.13-3.43-2.17-4.24,0.25
				c-0.71,2.13,1.56,2.99,3.21,3.76c1.5,0.7,3.17,1.79,4.73,0.9c2.72-1.55,5.5-0.53,8.21-0.84
				C858.84,891.89,862.59,894.15,865.74,894.2z M872,943.87c1.72,0.74,2.84,0.79,3.78-0.17c0.73-0.74,1.23-1.65,0.73-2.68
				c-0.43-0.89-1.42-1.03-2.14-0.62c-4.25,2.46-8.71,0.23-13.06,0.53c-6.1,0.42-12.3-0.11-17.71-3.68
				c-0.87-0.57-1.78-1.07-2.66-0.13c-1,1.05-0.77,2.22,0.19,3.07c1.35,1.21,2.71,2.84,4.33,3.24c6.91,1.68,13.84,3.28,21.06,3.2
				C869.05,946.6,869.86,943.21,872,943.87z M1146.81,975.65c-3.14-0.16-4.96-0.36-6.79-0.31c-1.41,0.04-3.5-0.26-3.59,1.69
				c-0.1,1.95,2.04,1.77,3.41,2.07c12.05,2.66,22.92-1.73,33.84-5.74c0.46-0.17,0.9-0.44,1.28-0.76c0.66-0.55,1.16-1.24,0.71-2.15
				c-0.44-0.88-1.56-1.28-2.09-0.83c-4.42,3.69-10.35,1.3-15.01,3.82C1154.46,975.67,1150.06,976.1,1146.81,975.65z M850.09,1121.27
				c5.13-0.19,10.05-1.6,14.83-3.63c1.5-0.64,3.66-0.98,2.85-3.23c-0.81-2.24-2.63-0.95-4.23-0.66c-8.47,1.5-16.85,5.75-25.61,1.02
				c-1.14-0.62-2.82-0.67-3.49,0.84c-0.75,1.69,0.81,2.33,1.95,2.92C840.65,1120.75,845.41,1120.59,850.09,1121.27z M862.28,961.3
				c1.85-0.22,4.45,0.41,4.52-2.49c0.06-2.72-2.4-2.57-4.36-2.9c-5.66-0.98-11.58-0.27-17.03-2.77c-1.24-0.57-3.23-0.84-3.76,1.08
				c-0.43,1.55,1.18,2.21,2.38,2.7C849.87,959.33,855.99,960.61,862.28,961.3z M884.76,641.09c-3.72-6.8-10.6-9.25-16.43-13.06
				c-1.61-1.05-3,0.83-3.79,2.32c-0.91,1.72-0.03,2.91,1.54,3.53C872.29,636.33,878.53,638.7,884.76,641.09z M939.36,673.67
				c-2.71,0.49-5.18,1.36-5.68,4.25c-0.59,3.42-1.04,7.08,1.57,9.91c1.4,1.52,2.72,0.39,3.33-1.27c1.15-3.1,2.33-6.2,3.33-9.35
				C942.64,674.93,941.6,673.74,939.36,673.67z M861.4,936.2c0.96-0.08,2.14-0.08,3.26-0.31c1.01-0.21,1.88-0.81,1.87-2
				c-0.01-0.95-0.73-1.46-1.56-1.7c-4.1-1.18-8.21-2.34-12.33-3.47c-1.14-0.31-2.38-0.58-3.02,0.83c-0.6,1.31,0.38,2.12,1.09,3.05
				C853.41,936.18,857.52,935.46,861.4,936.2z M1028.66,284.35c-0.39-1.52-1.27-2.34-2.56-1.8c-2,0.84-5.48,1.1-4.64,4.08
				c0.72,2.54,0.47,4.12-0.89,6.17c-0.87,1.33-0.2,3,1.44,3.7c1.58,0.67,3.11,0.25,3.79-1.35
				C1027.27,291.66,1026,287.46,1028.66,284.35z M838.04,905.04c1.38,0.2,2.25-0.17,2.78-1.15c0.65-1.19,0.44-2.32-0.65-3.06
				c-3-2.05-6.04-4.04-9.11-6c-0.88-0.56-1.92-0.68-2.7,0.21c-0.59,0.68-0.68,1.65-0.11,2.3
				C831.07,900.59,834.1,903.62,838.04,905.04z M828.27,917.86c0.44-0.01-0.54-0.13-0.77,0.89c-0.25,1.1,0.7,1.35,1.51,1.5
				c2.68,0.51,3.94,1.31,1.07,3.57c-2.22,1.75-0.18,2.7,0.91,3.84c2.23,2.32,5.78,1.32,8.13,3.34c1.07,0.92,2.65,1.66,3.43,0.25
				c1.02-1.83-1.17-1.7-2.11-2.42c-2.93-2.24-7.96-2.5-7.43-8.16C833.17,919.05,831.47,917.83,828.27,917.86z M859.3,914.37
				c1.18-0.19,2.87,0.62,3.78-1.04c0.4-0.73-0.37-1.26-0.95-1.44c-3.44-1.08-6.88-2.15-10.37-3.05c-1.2-0.31-2.38,0.36-2.65,1.65
				c-0.35,1.66,0.84,2.37,2.24,2.62C853.92,913.57,856.52,913.94,859.3,914.37z M849.84,962.8c-3.95-1.41-8.02-2.06-11.56-4.36
				c-1.01-0.65-2.7-0.66-3.72,0.45c-0.68,0.75-0.18,1.75,0.69,1.97C840.03,962.05,844.5,965.4,849.84,962.8z M851.42,999.42
				c0.92,0,1.59,0.07,2.25-0.01c1.58-0.2,3.79,0.06,3.6-2.35c-0.16-2.05-2.11-1.67-3.58-1.66c-0.67,0.01-1.35-0.06-1.99,0.07
				c-2.29,0.47-6.45-1.06-6.51,1.47C845.09,1000.4,849.38,998.59,851.42,999.42z M827.04,904.2c2.44,3.98,5.66,5.39,8.42,7.29
				c0.92,0.63,2.34,0.65,3.08-0.51c0.68-1.06-0.35-1.76-0.94-2.51C835.13,905.35,831.54,905.03,827.04,904.2z M831.49,1027.91
				c-1.23,0.1-2.01,0.71-2.32,1.72c-0.64,2.13-0.68,4.29,0.82,6.09c0.96,1.16,2.35,2.17,3.88,1.38c1.85-0.96,1.32-2.4,0.09-3.61
				c-0.99-0.97-0.79-1.98-0.43-3.17C834.1,1028.47,832.79,1028.08,831.49,1027.91z M833.45,978.17c-0.49-2.02,0.33-4.95-2.96-5.38
				c-1.84-0.24-2.63,1.22-2.62,2.87c0.02,2.51,0.95,4.68,3.62,5.2C833.25,981.22,833.62,979.77,833.45,978.17z M852.03,878.43
				c-0.38-1.97-2.21-2.63-3.75-3.5c-1.58-0.9-3.31-1.77-5.14-0.8c-0.89,0.47-0.82,1.58-0.09,2.09c2.02,1.4,4.1,2.76,6.3,3.84
				C850.48,880.6,851.62,879.99,852.03,878.43z M1176.65,577.02c-0.29,1.89-0.45,3.94,2.16,3.99c1.96,0.04,2.27-1.8,1.99-3.27
				c-0.34-1.74,1.06-4.62-1.53-5C1176.53,572.34,1176.77,575.08,1176.65,577.02z M851.64,971.41c2.65,2.37,5.59,1.59,8.25,1.87
				c0.94,0.1,2.17-0.14,2.31-1.38c0.17-1.59-1.24-1.77-2.33-1.97C857.23,969.44,854.62,969.27,851.64,971.41z M844.1,1093.32
				c-0.73-1.72,0.62-4.89-2.07-5.22c-1.71-0.21-1.52,2.6-1.37,4.14c0.18,1.99-0.5,5.09,2.04,5.39
				C844.51,1097.85,843.79,1095,844.1,1093.32z M868.81,925.44c3.14,0.74,5.9,2.06,8.82,0.38c0.62-0.35,0.77-1.35,0.09-1.63
				c-2.79-1.12-5.65-1.56-8.44,0.09C869.18,924.35,869.16,924.57,868.81,925.44z M844.64,948.33c-2.27-2.05-4.73-1.72-6.3-3.35
				c-0.91-0.94-2.39-1.65-3.24,0.07c-0.68,1.38,0.15,2.69,1.41,3.27C838.92,949.43,841.44,949.54,844.64,948.33z M834.8,1089.23
				c-1.03,2.96-1.1,5.89,0.6,8.68c0.35,0.58,1.35,0.33,1.6-0.36c1.1-2.99,0.53-5.75-1.41-8.24
				C835.53,1089.23,835.3,1089.28,834.8,1089.23z M862.2,966.29c-0.65-0.09-0.01,0.01,0.64,0.08c1.06,0.12,2.62,0.82,2.64-0.96
				c0.02-1.51-1.61-1.24-2.69-1.35c-0.49-0.05-0.98-0.09-1.47-0.05c-2.11,0.16-5.76-1.32-5.83,1.24
				C855.41,967.67,858.93,966.12,862.2,966.29z M833.79,1003.19c-0.32-1.64-1.47-2.47-3.04-2.63c-1.61-0.17-2.44,0.86-2.47,2.35
				c-0.04,1.77,0.95,2.76,2.75,2.58C832.38,1005.35,833.59,1004.86,833.79,1003.19z M1006.6,316.55c-0.27-0.98-0.97-1.33-1.55-1.05
				c-2.05,0.98-4.1,2.12-4.71,4.55c-0.24,0.96,0.6,2.68,1.06,2.28C1003.37,320.62,1004.95,318.46,1006.6,316.55z M821.19,1096.14
				c0.59,1.84,1.18,3.68,1.78,5.52c0.32,0.99,0.78,1.96,2.03,1.68c1.5-0.34,1.51-1.69,1.3-2.81
				C825.81,1098.01,823.6,1097.02,821.19,1096.14z M865.87,882.27c-1.19,0.2-3.18-0.47-2.94,1.55c0.23,1.93,2.28,2.13,3.92,2.32
				c1.24,0.14,2.67-0.34,2.69-1.61C869.58,882.1,867.38,882.6,865.87,882.27z M857.78,1036.07c-1.38,0.18-3.25,0-3.21,2.04
				c0.03,1.7,1.71,1.73,2.99,1.77c1.3,0.04,2.86-0.06,2.99-1.75C860.67,1036.35,859.11,1036.26,857.78,1036.07z M864.27,1081.92
				c-0.11-1.42,0.16-3.43-1.77-3.43c-1.95,0-1.7,2.04-1.73,3.45c-0.02,1.41-0.3,3.45,1.68,3.44
				C864.32,1085.37,864.13,1083.36,864.27,1081.92z M1183.07,557.36c-0.06-1.46-0.55-2.64-2.24-2.61c-1.31,0.03-2.89,0.2-2.93,1.9
				c-0.03,1.82,1.6,2.32,3.06,2.63C1182.41,559.58,1183.08,558.79,1183.07,557.36z M858.68,951.22c2.61,0.88,5.25,1.51,9.05,0.13
				C863.93,949.62,861.32,949.83,858.68,951.22z M834.49,914.5c0.08-1.93-1.09-2.61-2.78-2.65c-0.99-0.02-2.26,0.11-2.15,1.39
				c0.14,1.67,1.73,2.35,3.06,2.86C833.8,916.54,834.4,915.67,834.49,914.5z M1101.8,912.64c-0.28-1.55-1.2-2.54-2.87-2.63
				c-0.92-0.05-1.6,0.55-1.53,1.46c0.12,1.54,0.76,2.87,2.54,3.01C1101.06,914.57,1101.7,913.87,1101.8,912.64z"/>
			<path class="st0" d="M1057.03,998.44c-6.71-1.39-12.73,0.25-18.6,3.64c-8.61,4.97-18.18,8.11-26.35,14.03
				c-3.14,2.28-3.81,4.05-1.54,7.28c6.01,8.58,1.89,18.43-8.31,21.38c-15.16,4.39-30.29,8.87-45.54,12.93
				c-5.2,1.38-9.73,5.07-15.41,5.39c-0.44,0.02-1.09,0.34-1.26,0.71c-4.03,8.74-13.45,10.81-20.22,16.13
				c-6.1,4.79-13.24,8.26-19.93,12.3c-0.71,0.43-1.47,0.81-2.26,1.05c-1.39,0.42-3.19,1.38-4.02-0.35
				c-0.92-1.92,0.75-2.95,2.32-3.72c11.23-5.5,21.46-12.65,31.95-19.38c1.54-0.99,3.44-1.84,3.26-4.03
				c-0.39-4.61,2.57-5.18,6.12-6.11c5.77-1.52,11.43-3.58,16.97-5.81c8.82-3.55,17.93-6.03,27.1-8.46
				c8.65-2.3,17.15-5.25,25.12-9.44c3.26-1.71,3.94-4.32,2.26-7.54c-0.54-1.03-1.18-2.01-1.84-2.96c-4.55-6.48-4.06-7.88,2.67-12.53
				c10.75-7.42,22.7-12.55,34.14-18.68c4.11-2.2,8.91-3.16,13.1-1.91c8.7,2.6,15.79-2.72,23.67-3.48
				c13.27-1.28,22.72-11.5,35.33-14.1c1.47-0.3,2.82-1.05,4.29-0.26c1.04,0.55,2.13,1.26,2.12,2.55c-0.01,1.6-1.41,1.69-2.55,1.74
				c-7.53,0.33-13.35,4.93-19.49,8.33c-4.75,2.64-9.53,4.77-14.74,5.75c-3.3,0.62-6.56,1.1-9.52,2.73
				C1069.93,998.88,1063.68,999.94,1057.03,998.44z"/>
			<path class="st0" d="M897.87,471.52c-2.27,5.37-6.14,8.08-9.54,10.67c-5.06,3.86-9.83,8.42-16.4,10.16
				c-3.59,0.95-3.53,3.75-1.94,6.82c4.32,8.32,10.53,14.76,18.47,19.72c5.07,3.17,9.86,6.79,14.8,10.18
				c1.05,0.72,2.85,1.17,1.72,2.86c-0.9,1.35-2.43,0.75-3.6,0.03c-2.96-1.85-5.92-3.71-8.79-5.68c-3.26-2.23-6.14-5-10.74-4.31
				c-2.09,0.31-3.4-1.76-4.46-3.53c-1.36-2.29-2.71-4.58-4.2-6.79c-0.81-1.2-1.79-2.76-3.58-1.85c-1.61,0.81-1.34,2.45-1.17,3.99
				c1.2,10.87,5.59,20.4,11.93,29.19c4.68,6.49,9.84,12.57,15.23,18.47c0.77,0.85,1.72,1.62,1.46,3.26
				c-2.12,0.6-3.17-1.02-4.41-2.23c-5.95-5.82-11.88-11.63-16.28-18.82c-1.12-1.83-2.2-4.83-4.96-4.29
				c-2.93,0.58-1.25,3.67-1.93,5.54c-0.15,0.41-0.58,0.71-0.9,1.09c-1.9-1.14-1.66-3-1.44-4.52c0.97-6.72-0.25-13.28-1.23-19.86
				c-0.88-5.94-1.67-11.83,0.27-17.8c1.09-3.36-1.57-5.98-2.79-8.8c-1.07-2.45-0.86-3.61,1.96-4.19
				c10.53-2.14,19.22-7.71,26.97-14.92c0.6-0.56,1.07-1.29,1.71-1.8C894.93,473.38,895.94,472.8,897.87,471.52z"/>
			<path class="st0" d="M915.87,1047.9c-8.14-1.34-12.96,2.7-17.91,6.37c-0.78,0.58-1.34,1.49-2.14,2.02
				c-0.68,0.45-1.65,0.61-2.28-0.15c-0.69-0.84-0.12-1.53,0.57-2.07c7.3-5.62,14.22-10.71,24.4-11.85
				c11.35-1.28,22.57-5.26,33.31-9.85c6.08-2.6,12.6-4.11,18.21-7.87c1.69-1.14,3.75-1.99,3.91-4.19
				c0.77-10.85,8.86-15.76,16.82-20.55c4.61-2.78,8.55-6.29,12.62-9.7c0.93-0.78,1.66-1.75,1.72-2.95
				c0.34-6.27,6.04-7.83,9.75-11.09c0.85-0.75,2.37-1.09,3.14,0.07c0.86,1.29-0.33,2.24-1.36,2.73c-4.06,1.91-5.74,4.79-7.42,9.28
				c-1.84,4.88-7.31,8.77-12.27,11.87c-5.65,3.54-10.99,7.44-15.52,12.38c-1.29,1.4-2.57,2.93-2.25,4.81
				c1.34,7.96-4.73,10.39-9.96,12.86c-8.54,4.05-17.15,8.33-26.2,10.82C933.65,1043.42,924.37,1046.73,915.87,1047.9z"/>
			<path class="st0" d="M954.87,794.11c4.65-2.81,8.41-2.36,12.53,0.87c7.19,5.63,14.82,10.71,22.26,16.03
				c1.38,0.99,2.82,1.75,4.58,1.74c1.87-0.02,2.88,0.82,2.42,2.78c-0.51,2.19-1.94,2.52-3.79,1.61
				c-5.97-2.95-11.58-6.51-16.99-10.39c-8.28-5.94-14.41-5.8-22.59,0.35c-1.21,0.91-2.78,3.02-4.12,1.25
				c-1.13-1.49,0.92-3.04,2.22-3.89c2.21-1.45,4.71-2.45,7-3.8c1.37-0.81,3.4-1.55,3.06-3.5c-0.36-2.05-2.48-1.82-4.1-2
				C956.55,795.06,955.68,795.24,954.87,794.11z"/>
			<path class="st0" d="M953.59,246.52c2.6,1.53,5.72,0.54,8.78,0.68c1.27,0.06,2.85,1.06,3.28-0.83c0.35-1.53-1.18-2.19-2.39-2.77
				c-2.69-1.29-5.37-2.58-8.07-3.85c-0.88-0.42-2.07-0.7-1.73-1.98c0.33-1.24,1.55-1.09,2.49-0.94c4.25,0.68,8.54,1.26,12.73,2.2
				c3.98,0.89,6,4.81,4.33,8.43c-1.28,2.79-2.25,5.49-1.71,8.61c0.21,1.18,0.16,2.57-1.49,2.53c-1.22-0.03-1.39-1.21-1.37-2.25
				c0.02-1.65-0.43-4.68-1.38-4.17c-2.81,1.49-6.45-2.24-8.72,1.97c-1.52,2.81-5.45,2.27-7.1-0.54c-0.33-0.56-0.63-1.17-0.79-1.8
				c-0.42-1.63-4.2,0-2.96-2.71C948.46,246.98,951.08,246.94,953.59,246.52z"/>
			<path class="st0" d="M1052.43,757.14c14.37-16.55,18.76-37.12,23.32-57.63C1078.8,714.88,1064.74,753.43,1052.43,757.14z"/>
			<path class="st0" d="M1111.23,648.7c1.31,0.28,3.26-0.27,3.76,1.56c0.42,1.55-1.17,2.22-2.29,2.9
				c-11.76,7.17-21.3,16.83-30.33,27.06c-0.65,0.74-1.44,1.39-2.26,1.95c-0.67,0.46-1.55,0.95-2.24,0.15
				c-0.7-0.82-0.04-1.55,0.52-2.14c2.76-2.89,5.4-5.91,8.34-8.59c5.27-4.8,9.67-10.52,15.59-14.65c2.41-1.68,5.1-3.14,5.55-6.65
				C1108.07,648.69,1109.77,648.68,1111.23,648.7z"/>
			<path class="st0" d="M847.06,478.64c0.06,1.8,0,2.9-1.28,3.05c-1.26,0.14-1.57-0.88-1.79-1.92c-1.89-9.1-6.49-16.93-11.51-24.57
				c-0.77-1.18-1.42-2.44-0.17-3.56c0.88-0.79,1.83-0.26,2.58,0.57C841.89,459.95,845.04,469.43,847.06,478.64z"/>
			<path class="st0" d="M1139.71,531.02c-0.09-3.61,0.95-7.16-1.15-10.49c-0.27-0.43,0.23-1.81,0.78-2.22
				c4.48-3.41,1.98-5.72-1.45-7.8c5.57-3.2,5.67-4.16,0.98-7.68c-0.67-0.5-1.54-0.81-1.04-1.85c0.4-0.86,1.26-0.99,2.1-1.02
				c3.19-0.12,6.06,3.52,5.39,7.45c-0.84,4.89-1.85,9.79-3.3,14.53C1141.1,524.93,1143.13,528.56,1139.71,531.02z"/>
			<path class="st0" d="M987.39,760.99c-0.22-11.81-3.86-23.17-4.35-34.92c-0.18-4.22-3.34-7.66-3.13-11.98
				c0.06-1.2-0.81-3.13,1.08-3.26c1.76-0.12,1.42,1.89,1.62,3.1c1.72,10.48,3.32,20.98,5.12,31.45
				C988.61,750.62,987.71,755.77,987.39,760.99z"/>
			<path class="st0" d="M1114.06,421.99c-4.39-2.56-10.81-2.45-15.72-5.96c-2.57-1.84-6.12-1.95-7.98-4.81
				c-0.57-0.88-2.12-1.6-1.01-2.89c0.77-0.89,1.95-0.4,2.7,0.24c6.78,5.76,15.44,7.26,23.4,10.33c1.06,0.41,2.32,0.74,2.44,2.15
				C1117.97,421.99,1117.2,422.22,1114.06,421.99z"/>
			<path class="st0" d="M995.51,247.94c4.83-1.55,7.28,2.63,10.81,4.1c1.11,0.46,1.78,1.68,0.95,2.9c-0.9,1.32-2.55,1.55-3.44,0.45
				c-3.46-4.28-9.45,0.26-13-3.94c-0.74-0.88-1.85,0.78-2.44,1.79c-0.54,0.93-1.34,1.66-2.33,0.61c-0.84-0.91-0.38-1.91,0.41-2.61
				C989.08,248.91,991.65,246.36,995.51,247.94z"/>
			<path class="st0" d="M1086.92,859.97c-2.91,8.67-8.18,13.62-14.6,17.5c-1.39,0.84-3.88,1.87-4.71-0.47
				c-0.77-2.16,1.71-2.63,3.2-2.79c4.67-0.5,6.22-4.65,8.92-7.38C1081.69,864.85,1083.34,862.57,1086.92,859.97z"/>
			<path class="st0" d="M994.32,650.2c9.29-5.13,19.31-8.95,27.71-15.7C1015.23,644.16,1005.05,647.66,994.32,650.2z"/>
			<path class="st0" d="M1045.18,808.87c-4.27,6.5-10.33,9.4-17.94,9.06c-1.37-0.06-2.9-0.51-2.66-2.21
				c0.23-1.69,1.75-0.92,2.83-0.9c4.57,0.05,8.79-0.97,12.48-3.89C1041.36,809.77,1042.93,808.5,1045.18,808.87z"/>
			<path class="st0" d="M934.87,214.7c2.86,6.2,1.03,12.59,1.22,18.88c0.03,0.84-0.51,1.65-1.55,1.45c-0.91-0.18-1.36-1-1.37-1.85
				C933.09,226.99,932.48,220.74,934.87,214.7z"/>
			<path class="st0" d="M942.94,300.9c-1.09,2.84,0.68,8.31-2.01,8.4c-3.56,0.12-0.68-5.05-2.17-7.53c-0.41-0.68-0.43-1.6-0.55-2.42
				c-0.27-1.78-2.91-4.29-0.23-5.13c2.67-0.84,3.31,2.92,4.81,4.68C943.12,299.3,942.9,300.18,942.94,300.9z"/>
			<path class="st0" d="M1001.44,213.06c2.5,4.71-0.04,8.59-1.66,12.57c-0.22,0.55-1.04,0.83-1.72,0.35
				c-0.92-0.66-1.28-1.72-0.9-2.63C998.61,219.94,1000.2,216.61,1001.44,213.06z"/>
			<path class="st0" d="M995.66,268.15c-0.78-0.39-2.04-0.84-3.08-1.57c-1.43-1.01-4.71-1.4-3.31-3.74
				c1.11-1.87,3.05,0.44,4.54,1.29c0.83,0.47,1.8,0.73,2.73,0.97c1.04,0.27,2.66-0.02,2.42,1.65
				C998.76,268.15,997.3,268.08,995.66,268.15z"/>
			<path class="st0" d="M1035.62,579.97c3.96-1.74,8.49-1.13,12.23-3.62C1044.13,578.85,1040.7,582.27,1035.62,579.97z"/>
			<path class="st0" d="M1092.35,442.81c0.12-1.45-0.25-3.54,1.51-3.69c2.05-0.18,1.69,1.98,1.65,3.3
				c-0.05,1.49,0.46,3.87-1.67,3.92C1091.91,446.39,1092.67,444.09,1092.35,442.81z"/>
			<path class="st0" d="M836.51,414.29c1.96-2.82-0.24-7.07,3.59-9.86C840.75,408.85,839.61,411.95,836.51,414.29z"/>
			<path class="st0" d="M889.77,1056.2c0.31,1.94,0.42,2.19,0.35,2.25c-1.97,1.92-3.82,4.08-6.77,4.43c-0.75,0.09-1.37-0.9-1-1.32
				C884.29,1059.34,887.49,1059.35,889.77,1056.2z"/>
			<path class="st0" d="M1010.13,694.66c1.12,0.35,3.22-0.42,2.99,1.49c-0.19,1.61-2.27,1.61-3.71,1.74
				c-1.15,0.1-2.71,0.03-2.68-1.42C1006.77,694.32,1008.75,694.87,1010.13,694.66z"/>
			<path class="st0" d="M940.9,229.67c-0.91-0.77-1.12-0.86-1.13-0.98c-0.21-2.34,0.57-4.38,2.05-6.14c0.12-0.15,1.14,0.1,1.24,0.35
				C944.13,225.7,941.26,226.98,940.9,229.67z"/>
			<path class="st0" d="M1013.96,713.31c2.99-0.55,5.26-2.66,8.66-3.63C1020.59,714.27,1017.58,714.72,1013.96,713.31z"/>
			<path class="st0" d="M825.38,562.99c0.21,2.12-0.55,3.29-2.11,3.93c-1.05,0.43-2.27,1.28-3.26,0.42
				c-1.38-1.19,0.2-2.42,0.41-3.62c0.4-2.28-0.3-4.14-1.4-6.13c-4.72-8.54-9.26-17.18-13.92-25.75c-1.76-3.23-4.11-6.03-6.76-8.57
				c-2.64-2.53-5.25-5.08-7.84-7.66c-0.87-0.87-2.62-1.7-1.36-3.18c1.27-1.5,2.34,0.07,3.3,0.86c7.45,6.13,14.5,12.54,18.39,21.78
				c1.93,4.59,4.82,8.73,8.17,12.49c1.44,1.62-1.14,4.7,1.04,5.41c4.5,1.47,3.5,5.57,4.92,8.48
				C825.26,562.04,825.32,562.74,825.38,562.99z"/>
			<path class="st0" d="M825.21,613.18c-2.51-4.64-7.29-2.62-11.69-3.64c1.91-2.05,3.74-0.8,5.29-1.01
				c2.17-0.29,4.57-0.56,5.63-2.65c1.19-2.35-0.63-3.61-2.56-4.58c-0.77-0.39-1.55-1.08-0.71-1.91c0.79-0.79,1.83-1.44,2.88-1.85
				c0.9-0.35,1.6,0.22,1.63,1.26c0.1,4.11,4.27,5.62,5.8,9.08c1.44,3.25,3.89,6.11,1.99,9.53c-1.91,3.43-5.25,4.98-9.4,3.76
				c-0.75-0.22-1.62-0.03-3.26-0.03c2.84-1.54,5-2.74,7.18-3.9c1.27-0.67,3.23-0.95,2.6-2.97c-0.5-1.6-2.24-1.02-3.5-1.16
				c-0.66-0.07-1.33-0.05-2-0.07L825.21,613.18z"/>
			<path class="st0" d="M795.96,572.94c-6.01-4.86-9.75-10.55-14.84-14.89c-4.34-3.7-7.13-9.03-11.62-12.74
				c-0.81-0.67-1.52-1.58-0.74-2.52c1-1.2,1.88-0.1,2.33,0.66c5.52,9.49,14.95,15.32,21.85,23.5
				C794.14,568.36,795.55,569.77,795.96,572.94z"/>
			<path class="st0" d="M805.28,567.66c4.42-0.04,4.42-0.04,8.72,2.96C811.7,572.05,811.7,572.05,805.28,567.66z"/>
			<path class="st0" d="M825.08,613.04c-0.14,0.3-0.24,0.63-0.43,0.88c-1.78,2.36-4.16,2.24-6.63,1.53c-0.7-0.2-1.05-1.07-0.65-1.6
				c1.59-2.1,3.83-1.25,5.9-1.06c0.65,0.06,1.29,0.25,1.94,0.38C825.21,613.18,825.08,613.04,825.08,613.04z"/>
			<path class="st0" d="M857.87,820.56c-0.17,0.71-0.61,1.12-1.33,1.23c-1.32,0.21-7.01-4.68-7.21-6.18
				c-0.09-0.73,0.11-1.26,0.89-1.45C851.03,813.96,857.91,819.73,857.87,820.56z"/>
			<path class="st0" d="M853.37,830.82c-2.95-0.72-4.94-2.4-6.39-4.7c-0.24-0.39,0.04-1.24,0.32-1.75c0.11-0.2,1.15-0.22,1.31,0.01
				c1.52,2.09,3.6,3.31,5.94,4.25c0.24,0.1,0.45,1.03,0.28,1.24C854.45,830.32,853.81,830.55,853.37,830.82z"/>
			<path class="st0" d="M899.12,799.54c-1.87,2.05-4.44,2.24-6.33,3.85c-0.92,0.78-2.31,0.93-2.86-0.57
				c-0.52-1.41,0.52-2.33,1.7-2.52C894.1,799.89,896.62,799.77,899.12,799.54z"/>
		</g>
	</g>
</g>
</svg>
