<?xml version="1.0" encoding="utf-8"?>
<!-- Generator: Adobe Illustrator 28.0.0, SVG Export Plug-In . SVG Version: 6.00 Build 0)  -->
<svg version="1.1" id="Layer_1" xmlns="http://www.w3.org/2000/svg" xmlns:xlink="http://www.w3.org/1999/xlink" x="0px" y="0px"
	 viewBox="0 0 1920 1080" style="enable-background:new 0 0 1920 1080;" xml:space="preserve">
<style type="text/css">
	.st0{fill:none;stroke:#231F20;}
</style>
<g>
	<g>
		<g>
			<path d="M751.61,300.38c4.9,2.45,7.51,6.67,7.86,11.87c0.85,12.37,6.48,22.58,14.2,31.7c2.35,2.78,2.08,4.03-0.43,5.8
				c-3.58,2.53-4.41,6.89-6.74,10.24c-0.46,0.66-0.39,1.59,0.57,2.33c1.79-1.31,3.54-2.78,5.48-3.97c2.26-1.39,4.48-1.44,7.04-0.05
				c3.81,2.07,5.6,0.88,5.62-3.24c0-1.16-0.46-2.52,0.9-3.06c1.75-0.7,1.7,0.99,2.14,1.96c0.63,1.4,1.74,2,3.22,1.74
				c1.11-0.19,1.65-1.08,1.87-2.11c0.29-1.39-0.44-2.21-1.68-2.65c-4.48-1.58-1.17-3.34,0.18-4.24
				c7.25-4.82,10.13-12.29,12.42-20.07c1.02-3.49,0.87-6.98-2.41-9.53c-1.56-1.22-1.58-2.73-0.96-4.48
				c1.58-4.46,1.78-8.94,1.15-13.71c-0.67-5.03,1.81-9.73,3.77-14.27c1.13-2.62,1.01-4.95,0.9-7.67c-0.4-9.16-1.81-18.65,5.46-26.3
				c3.01-3.16,1.54-6.88-0.19-9.71c-1.38-2.27-3.83-1.21-5.11,1.1c-1.11,2.01-1.37,4.47-3.25,6.17c-2.05-0.95-1.22-2.53-0.72-3.76
				c0.69-1.68,1.64-3.29,2.66-4.8c1.51-2.23,2.37-5.63,6.17-4.59c2.86,0.78,4.91,6.29,4.75,9.59c-0.54,10.77-3.43,21.22-5.29,31.68
				c-2.34,13.21,1.84,25.34,1.89,37.98c0.03,10.37-1.59,20.43-7.18,29.47c-0.69,1.12-1.82,2.01-1.8,3.47
				c0.03,1.72-1.88,3.61,0.04,5.11c1.79,1.4,3.94,0.75,5.68-0.21c10.7-5.91,23-7.41,34.03-12.44c3.33-1.52,6.71-3.01,9.83-4.84
				c9.19-5.38,19.63-4.43,29.49-6.38c11.18-2.21,22.77-2.48,33.11-8.57c3.8-2.24,9.08-1.43,13.56-2.86
				c5.75-1.84,6.25-3.37,5.88-9.37c-0.66-10.56-7.2-18.37-11.57-27.2c-0.77-1.55-2.01-3.12,0.06-4.25c2.37-1.29,2.03-3.06,1.71-5.11
				c-0.2-1.31-0.22-3.02,1.37-3.35c1.6-0.34,2.08,1.3,2.63,2.51c1.84,4.05,3.34,7.99,3.84,12.67c0.45,4.25,3.27,8.29,3.87,12.98
				c0.37,2.88,1.3,5.74,1.46,8.75c0.22,4.1,1.96,6.23,6.78,5.62c10.87-1.39,21.79-2.91,32.72-3.09c7.69-0.13,15.72-0.5,23.15,2.7
				c3.39,1.46,5.82,0.98,6.83-3c0.83-3.27,2.89-5.52,5.95-6.94c2.3-1.07,4.01-2.24,0.78-4.44c-2.46-1.67-1.12-2.92,0.87-3.19
				c5.14-0.69,6.91-3.19,5.5-8.28c-0.71-2.57,1.43-4.28,2.98-5.98c1.47-1.61,1.74-3.01,1.08-5.34c-2.58-9.09-6.35-18.13-3.03-27.89
				c0.45-1.34-0.23-2.24-1.26-2.95c-1.09-0.75-1.58-1.83-1.12-3.03c0.88-2.26,1.46-5.53,4.7-4.8c4.17,0.94,0.81,3.95,0.94,7.05
				c2.47-3.39,6.15-4.76,6.05-9.01c-0.02-0.91,0.59-1.52,1.49-1.75c5.4-1.38,11.51,3.86,9.95,9.18c-2.61,8.92-1.82,18.38-4.78,27.16
				c-1.88,5.58-2.25,12.33-9.77,14.21c-2.47,0.62-2.78,2.96-3.24,5.16c-1.49,7.05-3.83,13.77-8.31,19.56
				c-5.97,7.71-5.04,10.58,4.46,13.42c6.48,1.93,13.16,1.79,19.83,1.78c15.73-0.02,29.96,4.08,42.89,13.61
				c10.11,7.45,21.09,13.8,32.71,18.83c1.67,0.72,3.21,1.74,4.8,2.64c4.15,2.35,6.2,1.2,6.31-3.66c0.08-3.4-0.96-6.7-2.51-9.57
				c-7.76-14.41-5.89-28.45,1.2-43.45c1.14,4.02,0.05,7.01-1.09,9.46c-3.95,8.46-2.85,16.57,1.07,24.47
				c2.95,5.96,3.21,13.28,8.99,17.86c0.6,0.47,0.8,1.92,0.62,2.8c-0.65,3.08,1.19,4.94,2.47,7.46c3.98,7.78,11.62,7.45,18.2,9.3
				c2.38,0.67,5.82,0.68,7.14-2.91c0.15-0.42,0.65-1,0.99-1.01c8.16-0.05,3.2-4.57,2.06-6.94c-2.34-4.84-6.7-8.65-6.89-14.62
				c-0.06-1.83-0.51-3.37,1.77-3.82c3.05-0.6,4.1-2.94,5.36-5.39c2.81-5.48,7.05-10.52,8.54-16.29c1.77-6.86,5.26-12.76,7.84-19.14
				c0.78-1.92,2.43-3.48,3.45-5.33c4.5-8.2,6.27-17.72,12.09-25.31c0.73-0.96,0.74-2.19,0.36-3.36c-0.44-1.39-1.4-2.87,0.36-4.01
				c1.28-0.83,2.57-0.49,3.72,0.37c1.49,1.13,2.05,2.69,1.38,4.43c-1.37,3.57-2.54,7.28-4.42,10.58
				c-5.84,10.21-11.2,20.71-17.87,30.44c-2.66,3.88-2.78,8.76-4.72,13.04c-2.66,5.9-5.97,11.33-9.03,16.97
				c-3.69,6.82-2.31,14.75,1.5,21.14c5.55,9.29,8.03,19.87,13.67,29.14c4.22,6.93,5.81,15.2,5.63,23.54
				c-0.12,5.68-3.35,10.26-8.72,12.11c-4.43,1.53-8.63,3.48-12.57,6.02c-9.49,6.1-19.57,8.31-31.11,7.8
				c-12.13-0.53-24.49,0.55-36.53,3.17c-0.65,0.14-1.31,0.24-1.98,0.3c-9.07,0.82-9.15,1.17-9.76,11.1
				c-0.82,13.45-0.2,27.06-2.71,40.31c-3.05,16.11-0.59,32.21-1.32,48.28c-0.29,6.51-0.28,13.38-4.44,19.11
				c-1.82,2.51-1.44,5.07-1.09,8.03c2.73,23.03,17.98,38.74,31.74,55.39c10.82,13.09,20.66,26.8,28.95,41.74
				c4.22,7.61,6.31,16.05,11.04,23.38c4.5,6.96,10.25,12.75,16.18,18.27c7.52,7,11.47,15.74,14.64,25.13
				c2.58,7.63,5.96,14.84,12.31,20.19c2.5,2.1,3.92,4.93,5.53,7.64c0.76,1.29,1.18,2.99,2.27,3.85
				c11.35,9.01,14.1,22.56,18.77,35.09c1.52,4.06,2.99,8.14,5.31,11.83c1.49,2.37,1.86,5.15,1.59,7.73
				c-1.34,12.94,2.94,24.47,8.11,35.94c1.97,4.36,2.81,9.17,3.62,13.97c3.31,19.65-0.63,39.06-1.76,58.54
				c-0.67,11.49-3.94,22.41-7.24,33.49c-3.11,10.46-5.01,21.61-4.95,32.89c0.04,7.67-3.23,14.89-4.78,22.36
				c-1.94,9.38-2.7,18.73-1.33,28.24c0.65,4.54,2.62,6.79,7.66,5.91c5.32-0.93,10.66,0.23,15.83,1.44
				c7.29,1.7,13.77,10.5,12.05,17.64c-1.21,5.02-4.74,9.51-8.24,13.46c-14.01,15.83-32.28,23.85-52.56,28.04
				c-7.06,1.46-13.92,0.65-20.57-1.9c-3.89-1.49-4.23-5.34-4.42-8.63c-0.21-3.77,0.48-7.62,0.93-11.41
				c0.52-4.38-1.38-7.73-5.86-8.08c-5.3-0.41-9.06-3.26-11.37-7.18c-3.29-5.59-8.72-6.64-13.9-8.57c-1.59-0.59-4.84-0.12-4.25-2.16
				c0.68-2.34,3.75-1.19,5.71-0.61c8.07,2.39,15.01,6.57,20.18,13.38c1.79,2.36,3.83,4.33,7.14,3.38c3.12-0.9,4.07-3.45,4.97-6.31
				c4.07-12.92,5.44-26.39,7.44-39.64c1.22-8.07,0.79-16.84-3-24.9c-1.35-2.87-1.09-6.5-1.62-9.77c-1.38-8.5-2.24-17.09-5.61-25.18
				c-1.4-3.36-0.39-7.16-1.04-10.82c-3.36-18.85-5.77-37.82-3.36-57.03c0.39-3.14,1.24-6.18,2.5-9.12c0.59-1.38,2.65-2.92,0.72-4.34
				c-1.51-1.11-3.28,0.27-4.48,1.31c-4.8,4.16-10.23,7.43-15.25,11.23c-4.06,3.07-7.16,2.49-10.72-0.3
				c-3.74-2.92-6.39-6.83-9.21-10.48c-10.18-13.18-22.27-24.6-33.57-36.74c-4.35-4.68-6.45-10.48-9.28-15.83
				c-6.56-12.4-17.74-19.96-27.95-28.59c-3.95-3.34-8.3-6.2-8.11-12.32c0.06-1.86-1.49-3.41-2.83-4.58
				c-4.87-4.26-10.12-7.99-16.61-9.37c-4.12-0.87-5.43,0.47-4.97,4.76c0.85,7.96-4.69,14.6-12.54,14.65
				c-3.29,0.02-5.65,1.45-8.1,3.3c-2.78,2.1-5.65,4.12-8.68,5.84c-9.13,5.19-17.8,2.78-25.83-2.46c-7.07-4.61-13.85-7.45-22.38-3.54
				c-3.29,1.51-7.52,1.16-11.33,1.29c-3.87,0.14-5.4-2.67-6.41-5.9c-1.08-3.46-3.29-3.95-5.38-1.2
				c-8.24,10.89-20.7,17.08-29.63,27.28c-10.84,12.39-22.53,24.03-33.82,36.03c-5.06,5.38-10.8,9.87-17.18,13.55
				c-3.32,1.92-5.7,4.68-6.84,8.28c-3.67,11.56-11.3,20.21-20.22,27.93c-3.08,2.66-6.76,2.48-10.44,1.53
				c-1.16-0.3-2.26-0.85-2.2-2.31c0.06-1.47,1.18-2,2.39-2.06c15.21-0.82,20.1-13.62,27.38-23.61c0.46-0.62,0.79-1.66,0.62-2.37
				c-1.95-7.94,4.21-9.79,9.26-12.39c6.32-3.25,11.38-8.11,16.09-13.2c12.2-13.17,24.6-26.16,36.71-39.42
				c5.42-5.94,12.67-10.2,19.04-15.28c4.2-3.35,4.13-3.85-1.41-6.63c8.68-1.5,12.34-9.14,19.03-12.6c1.45-0.75,2.71-1.94,3.95-3.03
				c1.06-0.94,1.67-2.2,0.9-3.57c-0.67-1.19-1.99-1.21-3.12-0.92c-15.9,4.16-29.14-3.62-42.74-9.58c-4.72-2.07-9.21-4.63-13.84-6.89
				c-7.57-3.68-12.65-10.17-18.18-16.13c-0.84-0.91-2.18-2.14-0.61-3.36c1.15-0.89,2.09,0.33,2.98,1.06
				c1.95,1.58,3.1,3.83,4.96,5.56c14.88,13.93,33.98,18.94,52.52,25.19c6.86,2.31,13.51-0.04,20.24-0.71
				c2.07-0.2,1.85-1.52,1.03-2.87c-0.66-1.09-1.82-1.42-2.96-1.67c-14.24-3.06-24.4-12.15-33.94-22.43
				c-6.1-6.58-12.69-12.6-17.36-20.46c-5.94-9.99-11.71-20.02-16.04-30.82c-0.57-1.42-0.89-3.31,1.04-3.75
				c1.94-0.45,2.25,1.58,2.7,2.94c4.9,14.75,12.83,27.8,22.98,39.39c7.45,8.49,15.61,16.4,24.77,23.12c7.61,5.58,17,7.44,25.3,11.63
				c0.68,0.34,1.95,0.58,2.38,0.21c7.13-6.18,14.28-0.64,21.35-0.01c9.25,0.83,17.89,3.29,27.87,1.89
				c13.32-1.86,20.81-11.05,30.66-17.3c4.03-2.56,7.63-5.72,13.25-6.58c-3.34,5.28-8.67,7.29-12.67,10.78
				c-3.11,2.71-6.1,5.66-9.88,7.58c-1.25,0.63-2.94,1.51-2.56,3.3c0.41,1.96,2.33,1.43,3.74,1.63c9.22,1.26,18.23-0.14,27.2-2.18
				c1.75-0.4,4.15-1.31,4.71,1.05c0.53,2.24-2.08,2.83-3.72,3.24c-7.42,1.88-14.84,3.81-22.64,3.29c-1.31-0.09-3.48-0.82-3.73,1.24
				c-0.2,1.61,1.68,2.46,3.11,2.79c3.48,0.79,6.94,3.81,10.55-0.15c1-1.1,2.92,0.12,4.16,0.85c4.34,2.54,9.06,3.08,13.95,3
				c1.24-0.02,3.21-0.52,3.29,1.23c0.11,2.24-2.08,1.49-3.43,1.68c-0.66,0.09-1.35-0.02-1.99,0.11c-1.55,0.32-3.69,0.01-3.94,2.23
				c-0.23,2,1.81,2.04,3.07,2.7c22.76,11.83,47.37,18.43,71.89,25.25c1.37,0.38,3.66,0.2,3.38,2.06c-0.29,1.88-2.49,1-3.83,0.88
				c-6.99-0.65-13.86-2.16-20.51-4.3c-12.34-3.97-24.55-8.36-36.77-12.69c-2.01-0.71-3.76-2.13-5.72-3.03
				c-1.71-0.79-3.81-2.75-5.34-0.65c-1.39,1.9,0.58,3.73,1.95,5.14c5.22,5.38,10.8,10.31,17.2,14.29c14.23,8.86,28.99,17,40.6,29.49
				c1.33,1.44,2.78,2.72,2.73,5.88c-3.42-2.72-6.3-4.86-9-7.21c-6.05-5.27-13-9.26-19.46-13.95c-1.12-0.81-2.61-2.27-3.95-0.86
				c-1.01,1.05,0.24,2.47,0.77,3.64c6.93,15.2,18.5,26.77,30.75,37.45c7.93,6.91,13.6,15.36,19.92,23.43
				c4.15,5.3,5.42,5.29,10.96,1.6c10.93-7.26,21.34-15.26,32.11-22.75c9.89-6.88,17.45-16.69,25.42-25.88
				c8.13-9.38,13.05-20.22,17.1-31.66c0.48-1.36,0.3-2.6-0.28-3.86c-4.84-10.42-8.87-21.15-12.06-32.2
				c-0.32-1.11-0.82-2.18-1.32-3.23c-0.6-1.26-1.45-2.41-3.06-1.85c-1.45,0.5-1.25,1.9-1.01,3c2.56,11.95-2.11,23.38-2.57,35.12
				c-0.45-8.02,0.35-16.01,0.33-24.02c-0.03-15.44-4.12-28.68-15.8-39.43c-5.64-5.19-7.29-13.05-9.69-20.02
				c-3.78-10.97-10.73-19.52-18.84-27.18c-2.35-2.22-5.67-3.26-6.57-6.94c-0.2-0.82-1.35-0.83-2.19-0.5
				c-1.7,0.67-1.87,2.17-1.94,3.71c-0.3,6.47-1.38,12.91-0.93,19.42c0.08,1.12-0.19,2.27-0.37,4.18c-2.14-2.29-1.75-4.38-1.66-6.41
				c0.33-7.3,1.35-14.66,0.76-21.89c-0.78-9.63-4.31-18.48-9.36-26.96c-4.49-7.55-8.52-15.36-13.5-22.66
				c-9.87-14.43-22.19-26.92-32.2-41.23c-0.58-0.83-1.26-1.68-2.44-1.09c-1.09,0.55-1.03,1.58-0.86,2.61
				c0.91,5.5,1.73,11.02,2.75,16.5c0.58,3.11,1.27,6.14-0.62,9.14c-2.23-0.78-2.37-2.69-2.15-4.16c1.78-12.29-4.78-22.75-7.31-34.09
				c-0.26-1.17-0.9-2.37-2.31-2.2c-2.05,0.26-3.3,1.77-3.61,3.66c-0.81,5.08-1.02,10.27-2.13,15.27
				c-3.18,14.33-4.53,29.17-11.51,42.5c-1.53,2.92-2.26,6.26-3.35,9.4c-0.99,2.86-2.46,5.31-5.84,6.84
				c0.37-6.37,5.08-10.42,6.57-15.79c3.56-12.86,10.24-24.94,9.59-38.85c-0.08-1.74,0.86-3.18,1.49-4.72
				c0.54-1.33,0.43-2.7-0.78-3.63c-1.37-1.06-2.68-0.22-3.52,0.77c-5.02,5.89-11.95,9.46-17.6,14.6
				c-4.93,4.48-11.34,6.77-17.53,8.12c-13.91,3.03-27.79,6.53-42.35,5.71c-6.42-0.36-12.92,0.08-19.4-0.44
				c-10.47-0.84-20.8-2.39-30.94-5.16c-1.12-0.31-2.33-0.52-3.31-1.1c-8.45-5.03-18.26-6.91-26.82-11.63
				c-5.76-3.17-11.37-6.62-17.65-10.3c2.49,7.62,7.88,12.78,11.22,19.31c-4.93-1.61-7.73-5.57-10.77-9.31
				c-1.67-2.05-2.35-6.32-5.8-5.1c-3.04,1.08-1.14,4.78-1.19,7.27c-0.15,7.18,3.63,13.38,5.48,20.08
				c2.88,10.46,8.73,19.74,12.5,29.86c0.47,1.27,2.13,3,0.21,3.87c-1.78,0.81-2.46-1.41-2.92-2.68
				c-4.55-12.43-13.7-22.86-15.57-36.54c-0.47-3.43-3.27-6.46-3.79-10.19c-0.87-6.19-0.21-11.89,4.31-16.67
				c1.46-1.54,2.71-3.55,0.55-5.13c-1.94-1.42-2.95,0.5-4.25,1.98c-8.39,9.56-12.36,21.51-18.13,32.5
				c-2.55,4.86-2.44,10.32-4.43,15.23c-0.6,1.47-0.16,4.6-2.8,3.67c-1.81-0.64-0.23-2.86,0.24-4.4c0.89-2.93,2.81-6.98-0.1-8.51
				c-1.91-1-3.45,3.62-5.16,5.73c-10.54,13-16.74,28.68-26.19,42.34c-7.75,11.19-15.74,22.23-23.12,33.67
				c-3.66,5.66-4.36,12.81-8.51,18.46c-3.73,5.09-6.87,10.63-11.13,15.33c-14.33,15.8-24.06,34.6-34.57,52.89
				c-0.97,1.68-1.38,3.76-3.81,4.79c-1.22-2.83-0.03-5.15,1-7.55c3.19-7.37,8.39-13.6,11.98-20.67
				c8.68-17.09,22.56-30.39,32.81-46.31c3.82-5.93,6.83-12.2,8.78-18.94c0.85-2.96,1.9-5.86,3.98-7.97
				c12.29-12.44,21.27-27.26,29.07-42.58c6.21-12.2,15.66-21.97,22.25-33.73c2.17-3.88,4.33-6.9,8.37-9.52
				c3.54-2.29,4.56-8.21,7.21-12.18c3.96-5.93,6.61-12.71,11.65-17.95c1.4-1.46,2.08-3.45,2.28-5.46c0.51-4.96,0.96-9.93,1.33-14.91
				c0.2-2.69-0.53-5.03-1.89-7.53c-2.38-4.37-1.84-9.4-0.82-14.09c0.71-3.28,0.24-6.08-0.73-9.21c-2.9-9.37-5.17-18.91-7.18-28.54
				c-1.61-7.73-4.28-15.25-6.58-22.83c-2.08-6.84-3.77-13.56-3.19-20.97c0.71-9.1-0.77-18.24-2.1-27.28
				c-0.49-3.34-0.54-6.61-0.4-9.95c0.15-3.67-1.17-5.58-5.39-6.12c-6.57-0.83-12.74-0.55-19.18,1.3
				c-7.35,2.11-15.23,0.53-22.78,2.03c-2.32,0.46-4.5-0.83-6.55-2.05c-7.45-4.48-15.31-6.27-23.84-3.45
				c-0.78,0.26-1.84,0.65-2.42,0.34c-8.82-4.73-20.12-2.55-27.94-9.12c-6.39-5.37-11.79-12.07-15.04-20.08
				c-0.78-1.91-1-3.85-0.1-5.82c4.23-9.15,8.14-18.38,15.54-25.75c5.03-5,9.23-10.86,13.54-16.54c3.23-4.25,3.03-8.5,0.31-13.42
				c-4.76-8.62-9.76-17.2-10.25-27.64c-0.18-3.92-2.79-7.72-4.29-11.58L751.61,300.38z M1029.5,613.38l0.09,0.04
				c3.34-4.06,8.64-4.34,12.96-6.41c10.91-5.21,20.83-11.61,28.87-20.62c1.81-2.03,5.64-5.42,3.75-7.18
				c-2.08-1.94-4.53,2.37-6.77,4.03c-0.26,0.19-0.41,0.52-0.64,0.77c-10.41,11.15-23.15,17.88-39.19,20.57
				c7.6-5.51,16.08-6.84,23.05-11.35c8.27-5.36,16.6-13.64,16.79-17.5c-1.74,0.11-3.17,0.97-4.55,1.89
				c-8.6,5.73-17.24,11.39-28.13,11.41c-6.65,0.02-12.38,3.53-18.76,4.73c-6.8,1.28-13.56,1.46-20.34,1.23
				c-11.13-0.38-22.33,0.33-33.39-1.33c-4.92-0.74-9.73-2.26-13.73,2.24c-0.14,0.16-0.86-0.2-1.48-0.36
				c2.74-3.65,1.7-5.29-2.53-5.95c-8.72-1.36-17.39-3.07-25.66-6.29c-1-0.39-2.58-0.58-2-2.24c0.41-1.18,1.63-0.85,2.6-0.71
				c2.47,0.34,5,0.47,7.4,1.08c19.23,4.84,38.46,8.84,58.51,9.22c16.4,0.31,32.14-1.77,47.61-6.81c1.44-0.47,2.9-1.34,4.3-0.48
				c4.16,2.53,7.72,0.4,11.3-1.29c5.59-2.64,10.42-6.52,15.63-9.76c8.93-5.56,13.31-13.55,14.87-23.57
				c1.7-10.9-0.52-21.97,1.41-32.86c0.21-1.18-0.31-2.36-1.64-2.77c-1.41-0.43-2.02,0.65-2.78,1.56c-1.43,1.72-1.7,4.59-5.03,5.36
				c0.7-3.84,2.09-6.78,3.56-9.75c1.62-3.27,4.26-5.93,5.22-9.61c2.79-10.67,3.31-21.56,4.31-32.48c1.1-12.03-1.55-23.94,6.18-36.14
				c7.83-12.35,12.25-27.64,12.61-43.19c0.05-2.07-0.73-5.84,2.05-5.73c2.43,0.09,1.53,3.82,1.77,6.01
				c1.09,9.71-4.21,17.99-6.22,27.01c-1.28,5.76-3.31,11.48-6.46,16.64c-0.79,1.29-3.26,2.32-1.62,4.09
				c1.78,1.93,4.15,0.52,5.21-0.95c3.59-4.97,9.14-7.62,13.41-11.81c3.18-3.13,4.92-7.7,9.46-10.32c0.18,2.3-0.45,3.67-1.33,4.82
				c-2.88,3.75-4.6,8.53-9.77,10.25c-1.9,0.63-3.39,2.8-2.59,4.84c0.84,2.15,3.03,0.7,4.39,0.27c3.3-1.06,6.33-0.95,9.72-0.04
				c6.15,1.64,12.59,1.6,17.45-3.01c5.08-4.81,9.24-10.48,9.47-18.09c0.05-1.6-0.1-4.34,2.5-4.05c2.17,0.24,2.44,2.7,2.14,4.48
				c-0.56,3.32-0.2,6.13,2.19,8.76c0.77,0.85,1.9,2.39,0.81,4.17c-5.17-2.49-7.98,1.26-11.12,4.19c-0.92,0.85-3.56,0.85-2.02,2.96
				c1.15,1.58,2.74,0.35,3.95-0.52c2.18-1.56,4.4-3.6,7.21-1.97c3.43,1.99,5.65,0.22,7.94-1.86c2.28-2.07,3.29-4.92,4.68-7.91
				c1.54,1.47,1.95,4.1,4.91,3.29c9.11-2.49,14.89-10.94,12.86-19.92c-2.25-9.97-6.77-19.05-11.95-27.81
				c-1.07-1.81-2.95-2.02-4.73-2.42c-0.81-0.18-1.72-0.33-2.33,0.4c-0.81,0.97-0.22,1.9,0.37,2.69c3.19,4.3,3.75,9.48,4.81,14.48
				c0.29,1.36,1.08,3.31-1.21,3.55c-1.7,0.18-2.13-1.6-2-2.89c0.43-4.29-3.28-6.67-4.62-10.16c-0.95-2.46-3.86-1.97-4.98,0.57
				c-1.93,4.38-4.66,8.48-5.12,13.47c-0.15,1.6,0.19,3.63-1.93,4.81c-0.28-0.76-0.66-1.24-0.58-1.63
				c2.34-11.26-4.77-19.31-9.74-27.97c-1.58-2.75-4.72-4.62-7.21-6.83c-0.77-0.68-1.82-1.02-2.77-0.39c-1.2,0.8-1.04,2.04-0.52,3.13
				c0.5,1.04,1.25,1.95,1.89,2.92c2.77,4.23,4.13,11.36,2.89,15.36c-1.71-1.27-1.51-3.26-1.89-4.95c-0.9-4-3-7.38-5.22-10.71
				c-0.77-1.15-1.54-2.4-3.1-1.02c-2.66,2.33-3.41-0.31-4.45-1.78c-1.25-1.77-0.92-5.45-3.95-4.93c-2.83,0.48-0.62,3.82-1.67,5.59
				c-0.13,0.22-0.5,0.3-0.96,0.55c-1.43-2.99-2.81-5.98-4.28-8.94c-2.55-5.15-5.72-9.85-11.11-12.37c-1.43-0.67-3.34-2.61-4.89-0.58
				c-1.17,1.54,0.5,3.01,1.18,4.5c1.01,2.2,3.42,4.01,2.41,7.59c-2.36-2.07-3.19-4.4-4.19-6.61c-1.1-2.42-2.44-4.59-4.26-6.65
				c-8.82-10.01-19.82-15.97-32.78-18.62c-9.85-2.02-19.87-2.34-29.67-0.79c-5.49,0.87-10.07-1.37-15.11-1.68
				c-0.99-0.06-1.92-1.04-1.87-2.09c0.15-2.82-1.93-3.51-3.82-4.59c-18.57-10.52-38-4.69-57.21-3c-1.34,0.12-2.68,0.8-2.29,2.62
				c0.92,4.32-2.01,3.63-4.13,2.83c-5.99-2.25-10.56,1.38-15.44,3.46c-2.29,0.97-1.73,2.87,0.5,3.33c2.41,0.5,4.99,0.6,7.44,0.33
				c5.28-0.57,9.8,1.82,14.65,3.31c-2.26,0.54-4.55,0.88-6.7,0.48c-8.53-1.58-17.2-0.92-25.78-1.64c-6.4-0.54-13.33-0.51-19.12,3.82
				c-0.82,0.62-2.22,0.6-3.35,0.66c-5.82,0.26-11.73-0.11-17.44,0.8c-6.44,1.03-13.03-0.21-19.4,3.17
				c-10.24,5.43-20.81,10.43-32.25,13.12c-4.38,1.03-8.63,2.48-12.56,4.77c-6.18,3.6-14.01,2.58-19.93,7
				c-0.19,0.15-0.68,0.04-0.96-0.09c-5.37-2.65-8.44,1.28-10.68,4.65c-3.37,5.08-5.8,10.8-8.45,16.33
				c-1.74,3.63-3.14,7.4-1.14,11.49c0.54,1.1,0.45,2.4-0.48,3.27c-2.06,1.92-1.83,4.3-1.14,6.51c2.53,8.09,5.12,16.29,14.45,19.21
				c2.1,0.66,4.44,3.95,6.55,0.84c1.89-2.79-1.19-4.28-2.79-6.1c-1.91-2.17-3.57-4.54-5.34-6.83c3.35,0.15,5.42,1.86,7.45,3.75
				c3.05,2.83,5.94,5.97,9.42,8.15c4.56,2.86,8.81,7.55,14.48,7.08c7.15-0.6,14.28-0.16,21.39-0.67c1.52-0.11,3.63,0.65,4.24-1.61
				c0.62-2.32-1.28-2.99-2.86-4.02c-9.32-6.1-15.43-15-20.97-24.37c-0.52-0.88-0.8-1.97,0.08-2.76c1.21-1.08,2.2-0.15,2.96,0.71
				c1.86,2.12,3.66,4.25,5.1,6.74c7.13,12.34,15.85,22.59,31.54,23.78c3.49,0.27,4.85-0.84,5.37-4.1c0.97-6.09-1.28-11.68-3.4-16.92
				c-6.32-15.64-5.35-31.53-2.97-47.57c0.28-1.9,1.06-4.13,4.6-6.05c-3.96,10.61-2.91,20.25-2.49,30
				c0.42,9.59,1.46,18.64,7.03,26.72c0.36,0.52,0.63,1.24,0.63,1.86c-0.07,10.98,1.29,21.97,0.21,32.95
				c-1.19,12.04-0.57,24.15,2.69,35.56c4.36,15.24,10.38,30.06,20.76,42.56c0.82,0.99,1.73,2.46,0.35,3.53
				c-1.24,0.96-2.59,0.13-3.49-0.93c-1.5-1.77-2.68-3.85-4.34-5.43c-1.69-1.61-3.68-0.8-3.24,1.39c1.77,8.92,2.99,18.19,10.59,24.63
				c3.81,3.23,7.67,6.39,11.49,9.62c0.94,0.79,1.69,1.82,0.86,3.03c-0.81,1.17-2.15,1.02-3.15,0.37c-2.23-1.44-4.37-3.03-6.47-4.65
				c-3.45-2.66-5.23-2-6.04,2.34c-1.72,9.2,3.06,15.05,13.11,15.92c7.32,0.64,14.64,0.27,21.94-0.45c1.75-0.17,3.63-1.26,5.07,0.64
				c0.43,0.57,0.25,1.27-0.26,1.81c-1.4,1.49-3.04,0.92-4.66,0.52c-1.69-0.41-3.67-0.65-4.52,1.05c-2.18,4.41-5.72,3.38-9.02,2.38
				c-3.28-1-6.5-1.44-9.84-0.87c-1.23,0.21-3.11-0.25-3.4,1.37c-0.33,1.81,1.6,2.42,2.86,2.97c3.66,1.6,7.38,2.98,11.36,3.73
				c10.63,2,21.09,4.87,31.9,5.91c1.55,0.15,3.95,0.55,3.55,2.59c-0.35,1.77-2.56,0.81-3.92,0.64c-9.38-1.2-18.96-1.21-27.97-4.73
				c-1.55-0.6-3.98-0.96-4.77,1.24c-0.57,1.58,1.03,2.79,2.46,3.29c6.39,2.22,12.74,4.65,19.28,6.35
				c6.19,1.61,12.32,4.34,19.04,2.54c1.04-0.28,2.58,0.02,2.48,1.65c-0.07,1.23-1.37,1.34-2.33,1.37c-3.15,0.09-6.27,0.25-9.45-0.31
				c-9.27-1.62-17.53-6.1-26.34-9.04c-7.84-2.62-15.4-6.01-21.35-12.1c-0.83-0.85-1.76-1.86-2.98-1.03
				c-1.29,0.88-0.65,2.09,0.09,3.05c4.19,5.4,8.48,10.68,14.46,14.32c15.06,9.17,31.66,13.74,48.91,16.15
				c5.76,0.8,11.57,1.37,17.3,2.42c2.16,0.4,4.54,0.56,6.08,3.08c-23.62,0.46-45.42-6.34-68.4-13.78c1.71,3.18,3.08,4.16,4.55,5.31
				c3.76,2.91,8.53,2.57,12.58,4.52c9.17,4.4,18.58,8.43,28.68,9.96c18.8,2.85,37.7,4.31,56.7,2.02c9.26-1.12,18.49-2.59,27.12-6.2
				c12.67-5.3,22.44-14.76,32.38-23.84c4.06-3.71,5.64-9.01,8.58-13.74c-3.4-0.64-3.9,2.04-4.99,3.33
				c-6.01,7.08-14.78,9.84-22.22,14.64C1042.67,609.98,1036.41,612.61,1029.5,613.38z M987.42,811.17
				c9.48,2.54,14.67-5.88,21.2-11.08c4.32-3.44-0.96-8.07-0.21-12.21c0.03-0.16-0.05-0.34-0.02-0.5c0.21-1.11-1.34-2.93,0.91-3.2
				c1.72-0.21,2.2,1.58,2.22,2.79c0.07,3.98,2.32,7.26,3.25,10.95c0.42,1.66,1.36,3.47,3.49,2.23c3.74-2.17,4.24-6.12,4.82-9.93
				c0.49-3.18,0.13-6.12-3.18-7.63c-4.06-1.85-8.1-3.91-12.7-3.97c-1.26-0.02-2.32,0.1-2.88-1.25c-0.66-1.59-1.41-3.44-3.53-2.24
				c-1.81,1.02-4.03,2.2-3.57,4.87c0.39,2.25-0.15,4.19-0.82,6.3c-0.87,2.74-0.86,5.57,1.6,7.81c1.59,1.45,1.88,3.44,0.35,4.85
				c-2.03,1.87-2.14-0.95-3.1-1.71c-0.38-0.3-0.8-0.8-1.2-0.8c-4.72-0.03-3.42-2.95-2.56-5.46c1.04-3.03,1.72-6.06,1.44-9.29
				c-0.19-2.18-1.14-3.36-3.42-3.4c-10.76-0.17-20.89-3.65-31.22-6.04c-3.85-0.89-5.11-0.12-4.83,4.02c0.36,5.5-2.74,7.9-8.25,7.23
				c-0.94-0.12-2.03,0.11-2.91,0.5c-6.08,2.75-9,10.32-6.55,16.63c0.87,2.26,2.19,3.71,4.78,3.52c2.47-0.18,3.41-1.67,3.54-3.99
				c0.06-1.11-0.05-2.66,1.32-2.94c1.37-0.28,1.99,1.15,2.34,2.19c1.21,3.59,3.84,4.57,7.09,3.62c6.61-1.93,12.15,0.18,17.18,4.19
				C976.3,810.62,981.06,812,987.42,811.17z M739.88,397.37c0.73,2.48,0.56,5.29,2.49,6.61c1.8,1.23,1.89-1.69,3.06-2.36
				c1.06-0.61,1.89,0.13,2.76,0.55c0.87,0.41,1.74,1.79,2.57,1.15c5.24-4.02,4.33,1.59,5.74,3.55c1.35,1.88,1,5.45,4.31,5.31
				c2.27-0.09,2.88,0.85,3.47,2.58c0.43,1.27,1.32,2.78,2.85,1.73c1.35-0.92,0.62-2.68-0.26-3.53c-2.44-2.36-2.76-5.1-2.3-8.23
				c0.43-2.94,0.35-5.95,0.51-8.89c0.17-3.13-0.25-6.49,2.7-9.52c4.85-4.99,2.65-12.36-3.61-15.83c-2.3-1.28-3.58-0.83-5.69,0.54
				c-4.62,3.01-7.91,7.15-10.81,11.55C744.58,387.28,741.68,392.16,739.88,397.37z M1224.3,855.54c6.68,0.35,7.18-0.58,4.86-6.95
				c-1.41-3.87-3.41-7.62-3.48-11.92c-0.02-1.33-0.05-2.87-1.91-2.94c-1.34-0.05-2.79,0.24-3.43,1.61
				c-3.82,8.21-8.75,15.66-14.86,22.35c-0.77,0.84-1.53,2.02-0.58,3.13c0.96,1.12,2.21,0.39,3.22-0.1c2.44-1.18,4.71-2.33,7.39-0.25
				c1.1,0.86,2.98,0.38,3.1-1.27C1218.9,855.18,1221.55,855.4,1224.3,855.54z M1206.59,889.66c-7.06-2.35-13.14,1.41-19.27,4.85
				c-1.2,0.67-3.19,1.42-2.38,3.23c0.75,1.68,2.73,1.13,4.03,0.59c4.57-1.89,9.42-1.96,14.2-2.57c6.25-0.8,12.48-1.8,18.72-2.74
				c1.14-0.17,2.54-0.38,2.46-1.9c-0.08-1.34-1.4-1.26-2.34-1.17C1217.01,890.42,1212.12,888.13,1206.59,889.66z M1207.88,940.87
				c-7.6-0.81-13.86,2.07-20.44,2.51c-1.65,0.11-3.97,0.28-3.77,2.28c0.23,2.23,2.62,1.37,4.15,1.32
				c10.22-0.36,20.08-3.01,30.1-4.66c0.49-0.08,0.97-0.22,1.44-0.39c1.13-0.43,2.33-0.98,1.77-2.45c-0.59-1.56-1.99-1.91-3.21-0.91
				C1214.63,941.23,1210.81,940.85,1207.88,940.87z M1207.97,903.21c-7.58,0.4-13.73,0.83-19.44,3.49
				c-1.25,0.58-2.48,1.33-2.06,2.95c0.31,1.21,1.53,1.24,2.49,1.01c5.88-1.37,11.88-1.28,17.86-1.65c1.91-0.12,4.39-0.79,4.08-3.4
				C1210.64,903.45,1208.43,903.23,1207.97,903.21z M1204.14,964.23c-0.3-1.12-0.97-2.16-1.95-2.1c-5.83,0.35-11.82-0.07-17.22,2.83
				c-0.68,0.37-1.17,1.16-1.64,1.82c-0.48,0.67-0.96,1.54-0.1,2.17c0.42,0.31,1.36,0.38,1.8,0.12c5.25-3.06,11.17-2.37,16.83-3.08
				C1203.04,965.85,1204.26,965.85,1204.14,964.23z M1212.31,1063.28c3.35,1.19,3.39,1.2,2.43,5.57c-0.29,1.31,0.19,1.81,1.38,1.98
				c1.88,0.27,9.18-5.81,8.98-7.56c-0.05-0.42-0.42-0.87-0.76-1.19C1220.79,1058.7,1215.36,1059.25,1212.31,1063.28z
				 M1197.28,923.62c10.38-2.29,21.13,1.62,31.39-2.2c-2.78-0.99-5.5-0.39-8.25-0.25c-4.07,0.21-8.94,2.03-12.07-0.16
				C1203.43,917.55,1200.56,919.67,1197.28,923.62z M1204.39,954.06c2.75,0.1,5.4-0.58,7.97,0.63c1.69,0.79,3.54,1.22,4.97-0.52
				c0.3-0.36,0.27-1.38-0.03-1.77c-1.21-1.59-2.92-1.15-4.56-0.86c-3.95,0.7-7.72,2.07-11.45-1.5c-1.8-1.72-5.1-0.59-7.68,0.1
				c-0.56,0.15-1.3,0.68-1.42,1.17c-0.27,1.09,0.75,1.26,1.53,1.46C1197.26,953.64,1200.83,954.39,1204.39,954.06z M1037.43,261.41
				c0.58-3.61-2.21-5.54-8.38-6.33c-2.89-0.37-2.61,0.89-2.14,2.8c0.63,2.52,3.43,3.08,4.5,5.2c0.62,1.22,0.57,3.37,2.72,2.91
				C1036.41,265.5,1036.92,263.37,1037.43,261.41z M1192,937.29c5.95,1.57,10.53,1.4,15.07,0.61c1.54-0.27,4.3,0.07,3.81-2.64
				c-0.35-1.96-2.53-2.68-4.43-2.37C1201.93,933.64,1197.41,934.55,1192,937.29z M1192.19,1034.63c4.08,0.77,7.29-1.88,10.97-2.7
				c1.43-0.32,3.95-0.29,3.17-2.65c-0.59-1.79-3.23-1.79-4.32-0.93c-3.11,2.46-6.71,2.26-10.23,2.82c-1.49,0.24-4.04,0.15-3.78,2.26
				C1188.26,1035.6,1190.74,1034.32,1192.19,1034.63z M1215.24,976c-6.41,0.45-11.59-0.61-16.38,1.98c-1.02,0.55-2.13,1.15-1.9,2.58
				c0.13,0.79,0.9,1.04,1.55,0.92C1203.85,980.51,1209.82,981.62,1215.24,976z M1186.75,1087.77c-4.15,0.43-8.37-0.76-10.72,3.44
				c-0.38,0.68-1.22,1.14-0.96,2.07c0.32,1.15,1.33,1.35,2.33,1.4c2.66,0.13,5.29-0.23,7.71-1.31
				C1187.74,1092.19,1183.99,1089.14,1186.75,1087.77z M1210.11,982.8c-1.56,0.68-3.77,1.42-5.73,2.59
				c-1.58,0.94-3.12,2.6-1.56,4.48c1.59,1.92,3.78,0.99,5.3-0.32c1.31-1.12,1.62-3.25,3.72-3.72c0.87-0.2,2.26-0.4,1.88-1.74
				C1213.35,982.73,1211.94,982.88,1210.11,982.8z M1221.6,880.79c3.76-0.25,6.88-0.47,9.99-0.67c1.1-0.07,2.7,0.32,2.7-1.29
				c0-1.45-1.53-1.48-2.69-1.48c-2.93,0.02-5.81,1.39-8.79,0.2c-1.47-0.59-3.04-1.75-4.47,0c-0.36,0.44-0.63,1.34-0.42,1.78
				C1218.79,881.23,1220.68,880.67,1221.6,880.79z M1203.09,866.84c0.01-2.15-1.31-2.39-2.89-1.4c-2.22,1.39-4.43,2.89-6.36,4.66
				c-1.09,1.01-3.04,2.65-1.78,4.1c1.44,1.65,2.92-0.43,4.07-1.39c1.53-1.28,2.99-2.57,4.92-3.23
				C1202.24,869.16,1202.98,868.31,1203.09,866.84z M1215.76,1048.7c-0.08-0.9-0.51-1.83-1.37-1.81c-3.7,0.08-6.73,2.18-9.96,3.63
				c-0.84,0.38-1.2,1.93-0.28,2.6c3.9,2.86,5.74-3.16,9.35-2.32C1214.67,1051.06,1215.65,1050.11,1215.76,1048.7z M1180.73,1103.38
				c1.45-0.66,4.66-0.09,4.3-3.14c-0.32-2.7-3.29-3-5.59-3.19c-1.94-0.16-3.14,1.04-3.16,3.05
				C1176.26,1102.79,1178.05,1103.39,1180.73,1103.38z M1211.02,928.71c-6.59-3.27-12.87-2.16-16.75,3.32
				C1199.27,928.55,1205.42,931.51,1211.02,928.71z M1188.1,1009.03c3.84,0.21,6.07-2.85,9.36-2.83c1.08,0.01,2.75-0.17,2.57-1.63
				c-0.2-1.68-1.86-1.48-3.2-1.36c-3.18,0.28-5.47,3.05-8.78,3.06c-1.06,0-2.66,0.14-2.35,1.76
				C1186,1009.49,1187.57,1008.94,1188.1,1009.03z M1203.2,916.01c1.62-0.65,4.72,0.68,4.93-1.76c0.21-2.52-2.81-2.16-4.64-2.14
				c-1.86,0.02-4.78-0.25-4.83,2.13C1198.61,916.73,1201.49,915.44,1203.2,916.01z M1187.98,1013.4c0.07,0.44,0.15,0.89,0.22,1.33
				c3.4,0.33,6.82,0.5,10.22-0.18c0.95-0.19,2.17-0.52,1.95-1.78c-0.19-1.12-1.38-1.51-2.37-1.34
				C1194.65,1012.01,1191.32,1012.74,1187.98,1013.4z M1232.32,900.58c0.63,1.39,0.15,2.48-0.69,3.65c-0.8,1.12-3.72,2.2-1.45,3.68
				c1.9,1.23,2.97-1.35,3.74-2.93c0.65-1.32,1.09-2.77,1.45-4.2c0.34-1.34,0.34-2.95-1.46-3.03
				C1232.08,897.66,1231.99,899.14,1232.32,900.58z M1200.8,971.19c3.4,1.46,6.23,1,8.83-0.7c0.8-0.53,0.09-1.49-0.54-2.08
				c-3.14-2.89-5.04,0.46-7.4,1.49C1201.44,970.01,1201.32,970.41,1200.8,971.19z M1172.91,966.99c0.57,2.2,0.83,4.86,3.9,5.44
				c1.19,0.22,2.21-0.74,1.69-1.7c-1.26-2.33-1.07-5.82-4.22-6.67C1173.22,963.78,1172.9,965.61,1172.91,966.99z M775.26,362.51
				c-1.69,1.85-5.42,1.83-6.04,5.39c-0.23,1.32,0.73,1.8,1.85,1.46c3.01-0.93,4.84-3.21,6.02-5.97
				C777.34,362.8,776.39,362.43,775.26,362.51z M1208.51,1044.97c1.5-1.72,4.96-1.39,5.81-4.24c0.4-1.33-1.19-1.86-2.43-1.56
				c-2.51,0.61-4.69,1.84-5.43,4.5C1206.22,1044.56,1207.19,1045,1208.51,1044.97z M1201.34,994.56c-1.93,0.4-4.1,0.72-4.64,3.03
				c-0.35,1.51,0.96,2.11,2.24,1.74c1.99-0.58,4.71-0.54,5.3-2.98C1204.68,994.59,1202.65,994.74,1201.34,994.56z M1212.28,1030.82
				c-2.23,1.44-4.83,3.03-7.29,4.81c-0.34,0.24,0.29,1.18,1.04,1.33c3.7,0.73,5.27-2.79,7.93-4.13
				C1214.78,1032.42,1214.04,1031.06,1212.28,1030.82z M1218.02,917.77c1.13-0.61,3.53,0.31,3.63-2.14c0.07-1.78-1.68-1.86-3-1.76
				c-1.63,0.12-3.74,0.2-3.9,2.28C1214.6,918.06,1216.49,917.63,1218.02,917.77z M1201.24,880.82c1.43-0.17,2.58-0.97,2.71-2.73
				c0.1-1.45-0.86-2.2-2.17-2.09c-1.78,0.14-3.28,1.03-3.32,3C1198.42,880.48,1199.81,880.63,1201.24,880.82z M889.72,601.62
				c1.21,0.15,2.05-0.21,1.84-1.21c-0.49-2.27-2.28-3.48-4.27-4.3c-0.72-0.3-1.21,0.4-1.14,1.11
				C886.35,599.61,887.74,601.02,889.72,601.62z M1223.09,884.87c-2.51-1.47-4.76-1.49-7-0.16c-0.18,0.11-0.16,1.12,0.03,1.23
				c2.15,1.16,4.33,0.9,6.46-0.12C1222.69,885.76,1222.73,885.54,1223.09,884.87z M1205.36,900.03c3.84,1.4,3.84,1.4,7.43-0.43
				C1209.39,898.12,1209.39,898.12,1205.36,900.03z M756.42,414.06c-1.22,0.09-1.66,0.66-1.27,1.65c0.64,1.6,1.64,2.91,3.47,3.2
				c0.99,0.16,1.82-0.46,1.48-1.37C759.45,415.82,758.24,414.45,756.42,414.06z M1192.26,1081.34c2.8,1.09,4.88,1.64,6.79,0.09
				c0.53-0.43,0.17-1.39-0.48-1.65C1196.45,1078.93,1194.5,1079.19,1192.26,1081.34z"/>
			<path d="M799.71,927.71c-0.95,15.28-4.79,29.95-9.4,44.55c-4.49,14.21-10.09,28.21-11.83,43.12c-1.49,12.79-3.98,25.48-4.41,38.4
				c-0.04,1.16-0.37,2.48,0.05,3.46c3.88,8.95,2.57,18.32,2.09,27.55c-0.23,4.32-2.09,8.45,0.2,12.87c0.77,1.48-1.23,3.27-2.42,4.67
				c-4.06,4.75-12.15,7.13-18.09,5.15c-2.62-0.87-5.27-0.73-7.91-0.72c-4.76,0.02-8.99-1.53-12.25-4.8
				c-8.08-8.1-17.4-14.17-27.77-18.97c-6.22-2.88-10.96-8.01-15.54-13.12c-4.13-4.6-5.71-11.58-4.01-15.73
				c2.28-5.56,5.4-12.77,13.16-14.24c4.53-0.86,8.93-2.2,13.71-1.94c7.67,0.42,13.26-4.64,19.25-8.41c1.38-0.87,2.34-2.42,2.53-4.17
				c1.24-11.68,4.11-23.9,0.82-34.98c-2.7-9.09,1.62-17.39-0.98-25.99c-2.51-8.3-1.79-17.18-2.94-25.71
				c-1.58-11.68-2.62-23.4-3.82-35.1c-0.49-4.84,0.27-9.91,0.65-14.84c0.84-10.92,1.17-21.96,4.69-32.5
				c0.41-1.22,0.38-3.15,1.93-3.15c1.95-0.01,1.79,2.1,2.06,3.46c0.36,1.79,0.34,3.65,0.63,5.45c0.33,2.14,1.53,3.41,3.82,2.75
				c3.97-1.15,5.54,0.93,6.2,4.36c0.38,1.95,1.19,3.97,3.47,3.03c2.1-0.87,0.86-2.82,0.21-4.32c-2.71-6.22-5.35-12.48-8.19-18.64
				c-1.28-2.78-2.24-5.66-6.15-6.49c-2.72-0.58-0.91-3.7-1.16-5.66c-0.16-1.26-0.19-2.92,1.32-3.45c1.56-0.55,2.38,0.76,3.06,1.95
				c5.28,9.2,10.22,18.54,14.88,28.11c8.07,16.57,17.56,32.6,33.66,43.06C799.09,911.83,800.35,919.25,799.71,927.71z
				 M753.26,1102.62c7.49,2.96,13.36,1.48,16.46-3.92c0.79-1.38,1.1-2.46-0.24-3.42c-1.41-1.02-3.24-0.95-3.86,0.61
				c-1.56,3.87-4.99,3.81-8.14,4.61C755.98,1100.89,754.08,1100.75,753.26,1102.62z M771.03,1022.29c-0.74,1.05-1.35,2.22-2.24,3.13
				c-2.94,3.01-3.79,8.97-1.62,12.25c0.52,0.78,0.79,2.12,2.03,1.74c0.59-0.18,1.02-1.18,1.34-1.89
				C772.73,1032.69,771.49,1027.57,771.03,1022.29z M753.79,1094.47c4.87-0.55,9.36-1.01,13.83-1.61c0.97-0.13,1.81-0.94,1.7-2.1
				c-0.11-1.18-1.05-1.66-2.09-1.66c-2.47,0.01-4.95,0.35-7.39,0.17C756.42,1089.01,754.66,1090.52,753.79,1094.47z M744.44,931.98
				c-1.35-0.04-1.77,0.54-1.36,1.85c0.97,3.05,10.29,8.53,13.72,8.05c1.19-0.17,1.87-0.6,1.26-1.94
				C757.44,938.59,746.06,931.91,744.44,931.98z M762.36,1067.94c1.57-0.16,2.23-0.22,2.89-0.3c1.8-0.22,4.18-0.18,3.59-2.85
				c-0.49-2.19-2.57-1.66-4.16-1.11c-4.06,1.4-8.16,1.14-12.31,0.63c-1.11-0.14-2.55,0.02-2.54,1.63c0.01,1.24,1.23,1.65,2.18,1.52
				C755.8,1066.93,759.55,1066.92,762.36,1067.94z M759.04,1080.49c-0.01-0.11-0.03-0.22-0.04-0.33c-1.16,0-2.32-0.05-3.47,0.02
				c-0.89,0.05-1.68,0.54-1.78,1.44c-0.11,0.99,0.68,1.45,1.57,1.54c3.45,0.35,6.9,0.77,10.36,0.94c1.6,0.08,3.88-0.07,3.72-2.25
				c-0.19-2.51-2.2-2.88-4.5-2.31C762.99,1080.01,761,1080.18,759.04,1080.49z M782.32,950.37c1.81-0.09,3.63-0.13,5.43-0.29
				c1.31-0.12,2.88-0.27,2.69-2.11c-0.17-1.59-1.54-2.03-2.96-1.98c-2.8,0.08-5.61,0.16-8.4,0.4c-1.57,0.14-3.98,0-3.99,2
				c-0.01,2.67,2.68,1.6,4.26,1.93C780.3,950.52,781.33,950.36,782.32,950.37z M743.61,923.63c0.23,1.43,0.14,2.07,0.4,2.29
				c5.17,4.36,11.84,6.2,17.28,10.14c0.61,0.44,1.75,0.13,2.08-0.74c0.37-0.95-0.43-1.47-1.19-1.85c-2.35-1.19-4.73-2.32-7.06-3.56
				C751.47,927.96,747.85,925.95,743.61,923.63z M766.78,977.6c2.55,1.59,15.06,1.75,16.62,0.37c0.43-0.38,0.87-1.12,0.8-1.62
				c-0.12-0.9-0.99-1.39-1.86-1.26C777.27,975.88,771.97,975.51,766.78,977.6z M785.2,963.25c0.12,1.86-0.54,3.32,0.96,4.15
				c0.72,0.4,1.51-0.17,1.54-0.72c0.23-3.84,2.48-7.09,3.05-10.81c0.1-0.62-0.14-1.4-0.94-1.48c-0.38-0.04-1.13,0.32-1.16,0.55
				C788.31,958.23,784.14,960.05,785.2,963.25z M753,961.45c-0.14-2.23-2.09-2.31-3.54-2.92c-2.47-1.03-5.84-4.89-7.15-2.61
				c-1.98,3.47,3.87,3.18,5.31,5.62c0.71,1.19,2.2,1.39,3.58,1.32C752.1,962.81,752.75,962.38,753,961.45z M714.67,1045.24
				c-0.68-2.43-2.68-2.65-4.63-2.73c-1.37-0.05-3.02,0.49-2.81,2.06c0.35,2.63,2.69,3.81,4.93,4.22
				C714.83,1049.27,713.47,1046.34,714.67,1045.24z M748.25,949.22c-1.67-1.87-3.24-4.21-6.11-4.94c-1.36-0.34-2.38,0.48-2.19,1.86
				c0.46,3.23,2.83,4.59,5.76,5.08C746.89,951.41,748.02,951.11,748.25,949.22z M710.06,1075.89c-2.63-5.25-6.44-7.31-9.56-10.03
				c-0.67-0.59-1.65-0.61-2.14,0.21c-0.24,0.4-0.07,1.45,0.29,1.72C701.93,1070.35,704.61,1073.77,710.06,1075.89z M763.17,974.88
				c-0.45-2.04-2.55-2.37-3.91-3.41c-1.55-1.18-3.98-2.52-5.11-0.38c-1.04,1.99,1.89,2.06,3.14,2.88c1.09,0.72,2.2,1.5,3.41,1.94
				C761.56,976.23,762.71,976.26,763.17,974.88z M757.22,895.19c-0.31-2.05-2.6-2.23-3.72-3.59c-0.97-1.18-2.14-3.23-3.8-1.05
				c-1.26,1.67,0.09,3.12,1.54,4.07c1.22,0.8,2.52,1.54,3.89,2.04C756.16,897.04,757.09,896.63,757.22,895.19z M758.24,910.96
				c-2.12-3.14-3.41-5-4.65-6.89c-0.67-1.02-1.42-1.89-2.79-1.65c-1.09,0.19-1.77,0.88-1.95,1.97c-0.27,1.59,0.68,2.46,1.96,3.08
				C752.83,908.43,754.85,909.37,758.24,910.96z M778.92,913.96c2.91,1.75,4.89,3.1,7.01,4.16c1.34,0.68,3.31,1.02,4.03-0.49
				c1.02-2.12-1.36-2.14-2.51-2.66C785.1,913.93,782.66,913.11,778.92,913.96z M754.01,988.15c1.91,3.39,3.79,5.07,6.38,5.91
				c1.07,0.35,2.39,0.88,2.94-0.69c0.46-1.31-0.34-2.31-1.51-2.74C759.68,989.84,757.47,989.23,754.01,988.15z M795.22,931.82
				c0.05-1.22-0.24-2.57-1.36-2.27c-2.4,0.64-4.6,2.12-5.54,4.45c-0.64,1.6,1.12,2.26,2.45,2.21
				C793.59,936.12,794.46,933.89,795.22,931.82z M774.01,1004.66c1.87-0.23,3-1.31,3.04-3.24c0.02-1.55-0.83-2.59-2.48-2.39
				c-1.86,0.22-3.07,1.45-3.24,3.27C771.19,1003.94,772.51,1004.49,774.01,1004.66z M769.7,1069.56c-1.72,0.71-1.98,2.31-1.83,3.99
				c0.11,1.29,0.35,3.02,2.12,2.66c1.92-0.39,2.1-2.36,2.2-3.98C772.28,1070.76,771.54,1069.72,769.7,1069.56z M784.39,933.98
				c-0.57-1.8-2.01-2.14-3.57-2.06c-1.47,0.08-2.75,0.8-2.5,2.44c0.25,1.69,1.83,1.73,3.18,1.65
				C782.82,935.93,784.21,935.76,784.39,933.98z M761.66,1075.4c1.2-0.21,3.14,0.34,3.25-1.3c0.13-1.97-1.95-1.81-3.31-1.95
				c-1.3-0.13-3.04,0.03-3.04,1.65C758.56,1075.54,760.44,1075.13,761.66,1075.4z"/>
			<path d="M971.94,1104.33c-8.01,2.71-15.15,1.47-21.91,2.85c-10.62,2.17-21.4,2.2-32.14,3c-11.75,0.88-23.25-0.09-34.72-2.18
				c-2.53-0.46-4.78-2.1-5.5-4.6c-0.84-2.91,1.87-4.29,3.82-5.12c7.45-3.2,14.67-6.99,22.54-9.2c2.27-0.64,5.51-0.7,5.03-4.28
				c-0.42-3.18-3.42-2.76-5.6-2.87c-14.82-0.72-29.55,1.41-44.36,1.41c-15.18,0.01-30.06,3.14-45.12,4.45
				c-1.5,0.13-3.26,0.76-4.69-0.78c1.41-1.72,3.42-1.17,5.07-1.45c17.08-2.91,34.21-5.3,51.62-4.77c4.97,0.15,9.91-1.6,14.7-1.92
				c9.65-0.65,19.53-0.96,29.14,1.31c2.3,0.54,4.56,1.77,4.9,4.42c0.36,2.71-2.17,3.47-3.95,4.58c-7.65,4.79-16.49,6.82-24.63,10.47
				c-1.63,0.73-3.82,0.95-3.22,3.56c0.51,2.23,2.48,2.53,4.3,2.73c13.54,1.55,27.1,1.3,40.7,0.92c11.19-0.32,22.09-2.5,33.16-3.53
				C964.17,1103.04,967.34,1102.61,971.94,1104.33z"/>
			<path d="M1128.37,258.55c-1.28,11.85-1.8,23.62-0.83,35.51c-4.19-4.69-3.09-10.48-3.24-15.76c-0.14-4.9,0.7-9.89,1.36-14.83
				c0.91-6.86-0.45-13.86,0.22-20.83c0.32-3.31,1.28-6.1,3.33-8.64c1.57-1.94,3.37-3.3,5.98-2.75c2.49,0.53,4.2,2.2,4.76,4.61
				c0.89,3.87,1.71,7.91,0.47,11.77c-2.92,9.12-0.13,18.13,0.18,27.18c0.06,1.74,1.24,2.63,2.71,3.22c1.87,0.75,1.95,2.09,1.15,3.63
				c-0.89,1.73-2.49,2.1-4.25,1.88c-1.56-0.19-2.45-0.92-1.86-2.7c1.06-3.22-1.33-2.65-3.08-2.74c-1.31-0.07-2.98,0.22-2.68-1.88
				C1133.55,269.78,1129.55,264.55,1128.37,258.55z M1128.18,251.05c0.16,1.47-0.24,3.12,1.59,3.37c1.68,0.23,2.16-1.22,2.61-2.48
				c0.6-1.72,1.17-3.37,2.61-4.69c3.37-3.11-0.43-5.64-1.23-8.18c-0.42-1.33-3.12-0.6-3.59,1.46
				C1129.35,244.07,1128.8,247.67,1128.18,251.05z"/>
			<path d="M1152.71,246.95c0.53-6.23,2.4-10.51,5.56-14.2c1.26-1.47,3.16-2.17,4.96-1.07c2.42,1.47,4.54,3.14,4.59,6.56
				c0.08,6.23-1.78,12.16-2.81,18.18c-0.91,5.32-0.61,10.97-3.39,15.99c-1.1,1.99-0.19,4.04,2.24,4.64
				c3.24,0.79,2.96,3.17,1.85,4.99c-1.35,2.2-1.08,6.8-5.65,5.37c-3.44-1.08-4.23,0.39-4.19,3.28c0.04,3.25-1.06,6.2-2.32,9.11
				c-0.37,0.87-0.47,2.25-1.7,2.14c-1.27-0.11-1.79-1.39-2.13-2.49c-0.19-0.59-0.25-1.45,0.05-1.92c3.97-6.23,3.4-13.68,5.09-20.48
				c1.55-6.22,3.65-12.53,3.31-19.38c-0.21-4.19-0.7-9.58,4.6-12.47c1.75-0.96,1.16-3.3,0.65-5.09c-0.39-1.38-1.23-2.4-2.8-2.39
				c-2.04,0.01-2.77,1.42-3.33,3.12C1156.62,242.84,1155.75,244.77,1152.71,246.95z"/>
			<path d="M927.86,1051.47c6.95-2.23,9.61-1.36,12.15,4.19c1.11,2.43,2.74,3.35,5.19,3.98c11.61,3,23.19,0.4,34.71-0.32
				c12.94-0.81,25.83-1.98,38.82-2.09c9.79-0.08,19.57-1.72,28.81,2.37c-6.26,2.27-12.86-0.32-19.39-0.2
				c-21.27,0.37-42.3,3.87-63.54,4.11c-6.95,0.08-13.99,1.12-20.85-0.68c-3.82-1-7.74-2.06-8.68-7.04
				C934.41,1052.26,930.15,1053.83,927.86,1051.47z"/>
			<path d="M751.72,300.28c-6.54-8.96-12.04-18.58-17.98-27.92c-0.98-1.54-2.09-2.99-3.19-4.45c-2.42-3.24-1.4-5.95,1.36-8.28
				c2.66-2.25,5.75-1.75,7.56,0.62c4.27,5.58,11.22,9.16,12.59,16.98c0.37,2.1,2.52,3.73,4.55,2.53c3.03-1.78,3.44-0.11,3.8,2.09
				c0.32,1.96,0.59,3.95,0.66,5.93c0.05,1.46,0.09,3.29-1.98,3.43c-1.76,0.12-2.29-1.42-3.1-2.75c-4.05-6.63-7.67-13.62-14.12-18.41
				c-1.2-0.89-2.61-2.2-4.02-1.3c-1.91,1.23-0.51,3.03,0.1,4.45c1.98,4.62,5.25,8.45,7.9,12.65c2.77,4.39,7.71,8.16,5.77,14.52
				C751.61,300.38,751.72,300.28,751.72,300.28z"/>
			<path d="M795.54,773.36c1.8,0.45,2.18,2.05,2.81,3.35c3.62,7.48,5.59,15.73,10,22.82c9.12,14.65,16.88,30.22,28.56,43.18
				c1.99,2.21,4.06,3.79,7.31,3.43c2.08-0.23,3.82,0.81,3.26,3.2c-0.52,2.21-2.44,2-4.07,1.28c-4.13-1.81-7.94-4.08-11.18-7.35
				c-7.01-7.09-10.88-16.27-16.57-24.2c-8.35-11.64-13.89-24.59-19.49-37.57c-0.78-1.82-1.17-3.82-1.65-5.75
				C794.26,774.74,794.33,773.75,795.54,773.36z"/>
			<path d="M789.45,1067.73c1.06-0.91,1.3-1.29,1.55-1.3c12.28-0.39,23.96-5.28,36.44-4.64c5.97,0.31,11.56-2.68,17.36-3.98
				c13.24-2.97,26.75-3.15,40.05-5.26c10.51-1.67,21.25-0.97,31.74-2.97c0.95-0.18,2,0.01,2.97,0.21c0.94,0.19,2.25,0.32,2.3,1.52
				c0.08,1.71-1.55,1.51-2.58,1.6c-5.77,0.47-11.58,0.57-17.36,0.91c-21.49,1.28-42.61,4.88-63.79,8.32
				c-10.65,1.72-21.41,2.73-32.11,4.15c-1.96,0.26-3.87,0.91-5.81,1.36C796.85,1068.41,793.5,1069.16,789.45,1067.73z"/>
			<path d="M775.02,240.87c-1.58-3.26-1.77-6.41-0.47-9.25c0.96-2.1,2.43-5.29,5.24-4.48c2.84,0.82,5.75,2.66,6.98,5.83
				c0.47,1.22,0.64,2.6,0.69,3.92c0.5,11.83,3.11,23.4,4.25,35.15c0.19,1.97-0.33,4.12,3.18,3.25c2.63-0.65,2.45,1.6,1.9,3.26
				c-1.26,3.77-4.88,4.89-7.96,6.32c-1.8,0.84-1.65-1.16-1.36-2.17c1.5-5.29-0.66-10.03-1.74-15.03c-0.96-4.47-0.98-9.2-0.99-13.82
				c-0.01-6.76-2.23-13.11-3.2-19.68c-0.2-1.34-0.54-2.79-2.33-2.68c-1.71,0.11-2.53,1.29-3.02,2.88
				C775.57,236.35,776.93,238.63,775.02,240.87z"/>
			<path d="M1168.75,274.63c-1.19-4.58,0.89-7.18,1.73-9.9c1.86-6.06,3-12.2,3.87-18.42c0.66-4.72,4.17-7.31,7.93-8.84
				c3.41-1.39,5.42,1.59,6.68,4.49c1.49,3.45,0.9,7.44-0.46,10.23c-3.58,7.32-5.59,15.09-8.16,22.71c-0.35,1.02-0.41,2.64-2.13,2.05
				c-1.26-0.43-1.58-1.81-1.35-2.95c1.14-5.59,1.81-11.27,3.62-16.73c0.61-1.82,3.25-3.12,3.11-3.45c-1.58-3.59,0.46-7.44-0.61-10.6
				c-0.71-2.09-2.52,0.68-2.62,1.68c-0.62,6.5-5.1,11.39-6.98,17.35C1172.19,266.01,1170.63,269.65,1168.75,274.63z"/>
			<path d="M882.95,812.77c-8.07-0.04-15.49-2.22-23.1-2.98c-5.84-0.59-10.37-4.24-14.98-7.54c-2.71-1.94-5.42-3.86-8.09-5.86
				c-1.07-0.8-3.45-1.14-2.26-3.09c1-1.63,2.76-0.61,3.92,0.34c3.91,3.18,8.44,5.28,12.8,7.72c5.18,2.89,10.45,4.51,16.51,4.82
				c9.25,0.48,18.4,3.17,27.76,0.96c2.75-0.65,5.5-1.26,8.27-1.8c0.94-0.19,2.19-0.45,2.63,0.7c0.5,1.3-0.83,1.59-1.65,2.01
				C897.79,811.59,890.41,813.24,882.95,812.77z"/>
			<path d="M753.35,260.67c-5.43-7.94-5.49-15.92-3.75-23.94c0.8-3.69,5-4.51,8.01-2.11c1.88,1.5,3.51,3.44,3.81,5.71
				c1.38,10.26,5.94,19.67,7.65,29.82c0.55,3.25,1.89,6.05,4.97,7.6c1.78,0.9,2.51,2.1,1.88,4.01c-0.49,1.49-1.33,2.78-3,3.01
				c-1.85,0.27-2.48-1.22-3.27-2.53c-2.93-4.86-4.79-9.83-5.48-15.71c-0.74-6.28-3.61-12.35-5.89-18.39
				c-0.77-2.03-1.71-3.87-1.65-6.13c0.05-1.74,0.28-4.28-2.24-4.18c-2.2,0.09-4.34,1.94-3.99,4.32c0.49,3.37-0.05,7.03,2.19,10.07
				C754.25,254.5,754.83,257,753.35,260.67z"/>
			<path d="M1034.37,214.99c-0.18,1.7,0.32,3.57-1.44,3.71c-1.81,0.14-1.37-1.64-1.67-2.93c-4.24-18.2-9.43-35.83-27.78-45.47
				c-2.89-1.52-5.94-2.02-9.03-2.6c-1.02-0.19-2.19-0.53-2.24-1.62c-0.08-1.75,1.56-1.46,2.58-1.51c3.57-0.16,6.99,0.62,10.06,2.44
				c10.42,6.21,19.93,13.24,23.3,25.87C1030.14,200.41,1033.15,207.67,1034.37,214.99z"/>
			<path d="M923.9,238.17c0.84,7.58,0.48,14.61,2.76,21.34c0.44,1.3,0.12,3-0.29,4.39c-0.51,1.71-2.12,2.09-2.85,0.43
				c-1.37-3.13-3.26-5.67-5.89-7.83c-0.89-0.73-0.57-2.24,0-3.3c1.57-2.92,1.16-6.18,1.61-9.28c0.36-2.49,0.03-4.54-3.23-5.07
				c-3.1-0.5-3.24-2.74-1.51-4.77c2-2.34,5.27-2.64,7.93-3.92c1.48-0.71,1.82,1.07,1.81,2.21C924.22,234.54,924,236.69,923.9,238.17
				z"/>
			<path d="M1011.24,260.89c1.39,1.37,2.41-0.11,3.57-0.4c1.85-0.47,3.24,0.46,4.36,1.73c0.97,1.11,0.96,2.51,0.23,3.72
				c-1,1.66-2.61,1.1-4.02,0.73c-1.49-0.39-3.29-0.88-4.27,0.26c-3.4,3.96-9.16,0.72-12.62,4.36c-0.5,0.52-1.61,0.12-2.09-0.73
				c-0.38-0.67-0.14-1.3,0.37-1.79c0.95-0.92,1.95-1.79,2.91-2.7c3.22-3.07,8-5.03,6.47-11.17c-0.41-1.63,1.16-4.31,3.31-5.14
				c1.74-0.67,4.69-1.56,5.43,0.33c1.03,2.66,0.19,5.83-1.34,8.47C1013,259.5,1011.26,259.34,1011.24,260.89z"/>
			<path d="M1085.82,1106.3c3.89-1.55,6.72-1.18,9.46-1.26c19.79-0.56,39.58-1.08,59.37-1.59c1.33-0.03,2.68-0.06,3.98,0.17
				c1.44,0.25,2.52,1.17,2.12,2.8c-0.33,1.34-1.53,1.67-2.79,1.51c-20.45-2.57-40.89,0.42-61.33,0.05
				C1093.43,1107.91,1090.05,1108.53,1085.82,1106.3z"/>
			<path d="M938.93,724.02c-5.74-3.57-10.49-6.47-15.19-9.46c-5.03-3.2-9.56-7.13-14.98-9.77c-7.25-3.52-11.8-10.03-16.85-15.94
				c-0.87-1.01-1.9-2.47-0.63-3.5c1.63-1.32,2.19,0.75,2.9,1.64c9.92,12.38,24.34,18.72,36.97,27.43
				C934.43,716.68,937.21,718.9,938.93,724.02z"/>
			<path d="M782.41,872.58c-7.09-6.19-12.29-13.26-16.91-20.56c-3.95-6.25-7.68-12.78-10.38-19.76c-0.48-1.24-1.03-2.46-1.36-3.74
				c-0.44-1.72-1.34-4.08,0.96-4.7c1.81-0.49,1.71,1.96,2.24,3.26c6.15,14.95,14.52,28.6,24.28,41.43
				C781.95,869.42,783,870.12,782.41,872.58z"/>
			<path d="M956.08,247.12c7.64,0.93,14.46,2.9,17.79,10.84c1.18,2.81,3.45,2.08,5.28,0.37c1.6-1.49,3.11-3.03,5.43-3.3
				c1.15-0.13,2.47-0.45,2.97,1c0.45,1.3-0.39,2.47-1.42,2.89c-6.1,2.48-12.16,5.9-18.89,1.64c-1.24-0.78-2.99-1.09-2.03-3.21
				c1.51-3.34-0.99-4.25-3.24-4.75C958.88,251.9,957.35,249.78,956.08,247.12z"/>
			<path d="M845.99,861.19c-8.35,1.35-16.69,1.02-24.87-0.96c-3.62-0.87-6.12-3.88-8.31-6.89c-0.55-0.76-1.72-1.47-0.84-2.5
				c0.85-1,1.92-0.22,2.64,0.39c4.8,4.1,10.95,4.51,16.63,6.16c4.28,1.24,9.05-0.63,13.16,1.97
				C845.08,859.79,846.04,859.85,845.99,861.19z"/>
			<path d="M1076.87,725.08c-4.84,9.47-8.96,19.45-18.06,25.99c-5.61,4.03-9.55,10.32-16.65,12.35c-0.95,0.27-1.82,0.84-2.78,1.09
				c-1.13,0.3-2.5,0.56-2.91-0.96c-0.32-1.22,0.83-1.69,1.78-1.97c11.46-3.32,19.02-11.72,26.34-20.37
				C1068.95,736.08,1073.28,730.88,1076.87,725.08z"/>
			<path d="M969.46,165.67c-15.5,4.87-29.02,12.3-36.64,27.66C935.39,178.79,949.88,165.59,969.46,165.67z"/>
			<path d="M817.39,894.38c-7.19-0.78-14.67,0.46-21.5-2.96c-0.74-0.37-1.61-0.47-2.33-0.87c-2.09-1.16-5.75-2.25-4.57-4.82
				c1.24-2.7,4.04,0.02,6.03,0.8c6.23,2.46,12.66,3.92,19.32,4.47c1.16,0.1,2.33,0.14,3.46,0.38c1.15,0.24,2.55,0.74,2.39,2.08
				C819.99,895.06,818.52,894.65,817.39,894.38z"/>
			<path d="M1190.63,857.93c-0.25,3.62-2.99,4.66-4.9,5.8c-12.15,7.29-24.26,14.62-35.88,22.75c-0.41,0.29-0.77,0.67-1.22,0.86
				c-1.49,0.64-3.13,2.88-4.28,1.93c-2.02-1.68,0.38-2.21,1.59-2.78c0.59-0.28,1.3-0.32,1.91-0.57c3.61-1.49,6.31-4.33,9.19-6.75
				c2.84-2.38,5.68-4.8,9.06-6.03c8.73-3.2,14.95-10.07,22.66-14.73C1189.15,858.18,1189.67,858.17,1190.63,857.93z"/>
			<path d="M1142.14,293.51c-0.58,3.09-0.24,7.32-4.2,9.89c-1.57,1.02-1.82,2.68-1.24,4.45c0.49,1.5,0.36,3-0.33,4.37
				c-0.58,1.16-0.13,3.7-2.37,2.96c-2.29-0.76-1.46-2.79-0.35-4.07c2.46-2.85-0.28-5.9,0.51-9.02c0.56-2.21,0.99-4.29,2.33-6.11
				c0.9-1.22,1.98-2.28,1.25-3.99c-0.51-1.2-1.29-2.46-0.2-3.71c0.68-0.78,1.54-0.37,2.27,0.04
				C1141.55,289.28,1142.59,290.66,1142.14,293.51z"/>
			<path d="M1054.87,1096.31c2.25-0.35,4.49-0.88,6.76-1.01c2.69-0.16,5.11,0.72,5.66,3.72c0.71,3.9,3.27,4.45,6.58,4.38
				c3.03-0.06,6.2-0.65,9.01,1.55c-5.65,0.84-11.28,1.27-16.93,0.23c-1.2-0.22-2.46-1.16-2.49-2.21
				C1063.28,1097.1,1059.3,1096.61,1054.87,1096.31z"/>
			<path d="M1026.89,222.13c0.17,5.76-5.09,7.8-6.79,11.88c-0.85,2.03-2.85,3.57-4.25,5.39c-1.02,1.32-2.07,3.12-3.89,1.68
				c-1.77-1.4-1.1-3.15,0.34-4.7C1016.72,231.59,1020.99,226.64,1026.89,222.13z"/>
			<path d="M1145.93,271.84c0.06-3.35,0.86-6.42,2.05-9.36c1.43-3.55,3.2-6.96,3.06-10.97c-0.04-1.09,0.14-2.63,1.83-2.28
				c1.17,0.25,1.25,1.58,0.98,2.51c-2.12,7.25-2.92,14.75-4.25,22.15c-0.24,1.34-1.13,2.92-2.63,2.28
				C1145.07,275.36,1146.28,273.22,1145.93,271.84z"/>
			<path d="M1134.73,862.06c-9.84,2.22-18.12,1.61-26.03-2.63c-0.81-0.43-1.95-0.91-1.66-2.16c0.23-0.98,1.31-1.34,1.99-0.96
				c7.29,4.06,15.43,3.14,23.24,4.12C1132.7,860.5,1133.07,860.95,1134.73,862.06z"/>
			<path d="M944.7,243.24c1.95,0.17,4.93-0.83,6.4,2.26c0.42,0.88-6.35,6.34-7.77,6.41c-0.64,0.03-6.61-5.78-6.58-6.4
				C936.85,243.78,939.04,243.1,944.7,243.24z"/>
			<path d="M1092.57,773.87c-7.31,5.46-14.4,9.45-22.02,12.46c-1.2,0.48-2.59,0.56-3.9,0.67c-0.97,0.08-2.19,0.06-2.49-1.11
				c-0.39-1.55,0.97-1.96,2.04-2.28c3.15-0.96,6.38-1.58,9.55-2.49C1081.48,779.48,1085.36,774.07,1092.57,773.87z"/>
			<path d="M980.23,280.24c0.78-4.39-2.84-8.9,0.48-13.32c1.12-1.49,1.81-3.18,3.84-3.43c0.5-0.06,1.38,0.42,1.57,0.87
				c0.82,2.03-0.47,3.44-1.68,4.84c-2.39,2.77-3.86,5.42-0.09,8.42c1.52,1.21,0.9,3.07-0.21,4.48c-0.73,0.93-1.68,1.76-2.98,1.17
				C979.84,282.66,980.02,281.39,980.23,280.24z"/>
			<path d="M1188.72,274.03c1.91,2.24,1.32,3.41,0.43,4.46c-3.01,3.5-6.05,6.98-9.1,10.44c-1.06,1.2-2.35,2.03-3.86,0.84
				c-1.51-1.19-1.7-2.79-0.7-4.42c0.6-0.98,1.23-2.44,2.1-2.66C1182.48,281.47,1186.69,279.36,1188.72,274.03z"/>
			<path d="M924.07,225.22c-2.87-4.92,0.57-19.18,6-23.64C927.96,209.9,926.07,217.36,924.07,225.22z"/>
			<path d="M1161.89,327.35c-1.29,1.95-0.26,4.01-0.02,6.1c0.15,1.38-0.28,2.65-1.58,3.36c-1.13,0.62-2.24,0.32-3.18-0.51
				c-1.26-1.12-0.95-2.38-0.1-3.52c1.39-1.86,0.26-3.81,0.41-5.71c0.13-1.66,1.23-2.8,2.92-2.76
				C1162.26,324.36,1162.06,325.88,1161.89,327.35z"/>
			<path d="M996.11,1100.57c9.36-0.52,18.73-1.03,28.09-1.54c0.03,0.47,0.05,0.95,0.08,1.42
				C1014.9,1100.8,1005.59,1102.22,996.11,1100.57z"/>
			<path d="M1002.5,245.51c2.43-0.08,3.36,0.17,3.81,1.25c0.42,1.03,0.18,2.02-0.7,2.64c-1.21,0.85-2.46,1.71-3.82,2.24
				c-1.85,0.72-3.93,3.89-5.45,1.73c-1.69-2.4,1.52-4.06,3.28-5.63C1000.84,246.63,1002.07,245.51,1002.5,245.51z"/>
			<path d="M782.66,1088.99c6.05-0.28,12.13,0.16,17.99-1.78c0.96-0.32,2.08-0.37,2.55,0.78c0.49,1.18-0.38,2.14-1.34,2.2
				C795.43,1090.55,788.88,1092.34,782.66,1088.99z"/>
			<path d="M1099.15,780.79c6.48-3.8,12.95-7.6,19.57-11.47C1116.96,773.61,1112.97,776.39,1099.15,780.79z"/>
			<path d="M1047.86,678.01c-0.91,7.1-7.16,10.52-10.91,15.67C1039.97,688.02,1043.21,682.53,1047.86,678.01z"/>
			<path d="M1065.8,765.05c1.67,0.11,3.28,0.42,4.53,1.63c1.1,1.07,1.17,2.35,0.39,3.59c-0.91,1.45-2.12,1.35-3.33,0.36
				c-1.02-0.83-2-1.65-3.4-1.83c-1.26-0.16-3.5,1.23-3.5-1.13c0-1.86,2.32-1.96,3.87-2.42
				C1064.8,765.12,1065.31,765.11,1065.8,765.05z"/>
			<path d="M1088.62,709.09c-2.08,2.75-4.12,5.51-6.24,8.2c-0.18,0.23-1.03,0.22-1.3-0.01c-0.29-0.24-0.49-1.02-0.32-1.3
				c1.77-2.76,3.59-5.49,5.48-8.17c0.39-0.56,1.21-0.64,1.76-0.14C1088.32,707.96,1088.38,708.51,1088.62,709.09z"/>
			<path d="M1146.31,751c-2.14-0.42-2.47-2.03-2.42-3.77c0.04-1.82,0.75-3.44,2.76-3.52c1.89-0.07,2.46,1.51,2.43,3.12
				C1149.03,748.72,1148.51,750.45,1146.31,751z"/>
			<path d="M786.25,305.31c1.48-1.58-0.16-4.34,2.08-5.67c0.26-0.16,1.22,0.27,1.21,0.33c-0.39,2.51-0.83,5.01-1.36,7.49
				c-0.05,0.24-0.87,0.58-1.15,0.46C785.86,307.41,786.15,306.35,786.25,305.31z"/>
			<path d="M1170.14,313.88c-0.6,3.52-2.5,4.92-4.78,5.85c-0.63,0.25-1.4-0.61-1.16-1.18
				C1165.19,316.15,1167.27,315.02,1170.14,313.88z"/>
			<path d="M984.57,300.91c-0.34,1.38-1.21,2.1-2.5,1.89c-1.83-0.3-2.05-1.96-2.32-3.37c-0.22-1.11,0.32-2.15,1.57-1.76
				C982.89,298.14,984.21,299.15,984.57,300.91z"/>
			<path d="M1016.3,219.31c1.01,1.17,1.42,1.45,1.38,1.62c-0.59,2.3-0.48,4.95-2.89,6.39c-0.27,0.16-1.2-0.12-1.25-0.32
				C1012.81,223.78,1016.13,222.63,1016.3,219.31z"/>
			<path d="M1177.01,825.39c-1.03,3.45-1.79,5.29-4.12,5.87c-0.25,0.06-0.98-0.56-0.96-0.85
				C1172.01,827.86,1173.89,827.03,1177.01,825.39z"/>
			<path d="M1013.12,284.35c-1.08-0.03-1.98-0.36-1.9-1.63c0.11-1.72,1.21-2.59,2.83-2.74c1.12-0.1,1.89,0.5,1.86,1.68
				C1015.87,283.42,1014.81,284.24,1013.12,284.35z"/>
			<path d="M836.82,399.88c3.34,1.86,4.16,5.43,6.23,8.13c1.51,1.97,2.68,4.22,4.24,6.14c0.85,1.04,1.98,2.84,3.65,1.67
				c1.73-1.22,0.18-2.51-0.43-3.85c-4.6-9.98-8.17-20.3-10.35-31.09c-0.86-4.24-2.03-8.41-2.93-12.64c-0.26-1.25-0.4-2.97,1.41-3.18
				c1.47-0.17,1.74,1.36,1.96,2.47c2.39,11.73,5.5,23.28,8.98,34.73c1.93,6.36,3.44,12.85,7.64,18.27c0.68,0.88,1.68,2.06,0.77,3.14
				c-1.16,1.4-2.28,0.12-3.48-0.42C844.34,418.62,839.52,410.02,836.82,399.88z"/>
			<path d="M1089.25,419.11c0.09-7.57,1.66-14.53,3.12-21.37c1.18-5.48,1.66-10.74,1.01-16.22c-0.17-1.44-0.41-3.5,1.58-3.55
				c2.07-0.05,1.76,2.08,1.66,3.48c-0.45,6.27-0.57,12.56-2.04,18.76c-1.27,5.39-0.46,11.19-3.06,16.37
				C1091.11,417.44,1091.14,418.53,1089.25,419.11z"/>
			<path d="M996.38,605.27c-2.6,2.32-5.6,1.07-7.84,2.28c-9.41,5.07-19.27,1.44-28.94,1.51c-1.08,0.01-2.67-0.07-2.39-1.72
				c0.2-1.2,1.58-0.77,2.53-0.87c9.06-0.95,18.09,1.16,27.2,0.04C989.85,606.14,992.62,604.01,996.38,605.27z"/>
			<path d="M794.26,397.42c-2.08-5.4-4.73-10.6-3.45-16.58c0.17-0.8,0.27-1.66,1.18-2c0.81-0.3,1.58,0.41,1.5,0.85
				C792.52,385.68,796.81,391.35,794.26,397.42z"/>
			<path d="M1029.5,613.38c-6.88,3.56-13.91,5.14-22.49,1.01c8.28-0.36,15.41-0.68,22.57-0.98
				C1029.59,613.42,1029.5,613.38,1029.5,613.38z"/>
			<path d="M783.23,373.03c0-0.76-0.14-1.2,0.02-1.39c1.29-1.54,1.56-4.24,4.39-4.03c0.29,0.02,0.85,0.81,0.76,1.06
				C787.58,371.15,785.85,372.51,783.23,373.03z"/>
			<path d="M798.43,403.78c-0.04,1.37-0.24,2.59-1.49,2.43c-1.99-0.25-1.76-2.08-1.89-3.49c-0.07-0.78-0.08-1.95,1.01-1.88
				C797.98,400.96,797.95,402.78,798.43,403.78z"/>
		</g>
	</g>
	<g>
		<g>
			<path class="st0" d="M751.61,300.38c4.9,2.45,7.51,6.67,7.86,11.87c0.85,12.37,6.48,22.58,14.2,31.7
				c2.35,2.78,2.08,4.03-0.43,5.8c-3.58,2.53-4.41,6.89-6.74,10.24c-0.46,0.66-0.39,1.59,0.57,2.33c1.79-1.31,3.54-2.78,5.48-3.97
				c2.26-1.39,4.48-1.44,7.04-0.05c3.81,2.07,5.6,0.88,5.62-3.24c0-1.16-0.46-2.52,0.9-3.06c1.75-0.7,1.7,0.99,2.14,1.96
				c0.63,1.4,1.74,2,3.22,1.74c1.11-0.19,1.65-1.08,1.87-2.11c0.29-1.39-0.44-2.21-1.68-2.65c-4.48-1.58-1.17-3.34,0.18-4.24
				c7.25-4.82,10.13-12.29,12.42-20.07c1.02-3.49,0.87-6.98-2.41-9.53c-1.56-1.22-1.58-2.73-0.96-4.48
				c1.58-4.46,1.78-8.94,1.15-13.71c-0.67-5.03,1.81-9.73,3.77-14.27c1.13-2.62,1.01-4.95,0.9-7.67c-0.4-9.16-1.81-18.65,5.46-26.3
				c3.01-3.16,1.54-6.88-0.19-9.71c-1.38-2.27-3.83-1.21-5.11,1.1c-1.11,2.01-1.37,4.47-3.25,6.17c-2.05-0.95-1.22-2.53-0.72-3.76
				c0.69-1.68,1.64-3.29,2.66-4.8c1.51-2.23,2.37-5.63,6.17-4.59c2.86,0.78,4.91,6.29,4.75,9.59c-0.54,10.77-3.43,21.22-5.29,31.68
				c-2.34,13.21,1.84,25.34,1.89,37.98c0.03,10.37-1.59,20.43-7.18,29.47c-0.69,1.12-1.82,2.01-1.8,3.47
				c0.03,1.72-1.88,3.61,0.04,5.11c1.79,1.4,3.94,0.75,5.68-0.21c10.7-5.91,23-7.41,34.03-12.44c3.33-1.52,6.71-3.01,9.83-4.84
				c9.19-5.38,19.63-4.43,29.49-6.38c11.18-2.21,22.77-2.48,33.11-8.57c3.8-2.24,9.08-1.43,13.56-2.86
				c5.75-1.84,6.25-3.37,5.88-9.37c-0.66-10.56-7.2-18.37-11.57-27.2c-0.77-1.55-2.01-3.12,0.06-4.25c2.37-1.29,2.03-3.06,1.71-5.11
				c-0.2-1.31-0.22-3.02,1.37-3.35c1.6-0.34,2.08,1.3,2.63,2.51c1.84,4.05,3.34,7.99,3.84,12.67c0.45,4.25,3.27,8.29,3.87,12.98
				c0.37,2.88,1.3,5.74,1.46,8.75c0.22,4.1,1.96,6.23,6.78,5.62c10.87-1.39,21.79-2.91,32.72-3.09c7.69-0.13,15.72-0.5,23.15,2.7
				c3.39,1.46,5.82,0.98,6.83-3c0.83-3.27,2.89-5.52,5.95-6.94c2.3-1.07,4.01-2.24,0.78-4.44c-2.46-1.67-1.12-2.92,0.87-3.19
				c5.14-0.69,6.91-3.19,5.5-8.28c-0.71-2.57,1.43-4.28,2.98-5.98c1.47-1.61,1.74-3.01,1.08-5.34c-2.58-9.09-6.35-18.13-3.03-27.89
				c0.45-1.34-0.23-2.24-1.26-2.95c-1.09-0.75-1.58-1.83-1.12-3.03c0.88-2.26,1.46-5.53,4.7-4.8c4.17,0.94,0.81,3.95,0.94,7.05
				c2.47-3.39,6.15-4.76,6.05-9.01c-0.02-0.91,0.59-1.52,1.49-1.75c5.4-1.38,11.51,3.86,9.95,9.18c-2.61,8.92-1.82,18.38-4.78,27.16
				c-1.88,5.58-2.25,12.33-9.77,14.21c-2.47,0.62-2.78,2.96-3.24,5.16c-1.49,7.05-3.83,13.77-8.31,19.56
				c-5.97,7.71-5.04,10.58,4.46,13.42c6.48,1.93,13.16,1.79,19.83,1.78c15.73-0.02,29.96,4.08,42.89,13.61
				c10.11,7.45,21.09,13.8,32.71,18.83c1.67,0.72,3.21,1.74,4.8,2.64c4.15,2.35,6.2,1.2,6.31-3.66c0.08-3.4-0.96-6.7-2.51-9.57
				c-7.76-14.41-5.89-28.45,1.2-43.45c1.14,4.02,0.05,7.01-1.09,9.46c-3.95,8.46-2.85,16.57,1.07,24.47
				c2.95,5.96,3.21,13.28,8.99,17.86c0.6,0.47,0.8,1.92,0.62,2.8c-0.65,3.08,1.19,4.94,2.47,7.46c3.98,7.78,11.62,7.45,18.2,9.3
				c2.38,0.67,5.82,0.68,7.14-2.91c0.15-0.42,0.65-1,0.99-1.01c8.16-0.05,3.2-4.57,2.06-6.94c-2.34-4.84-6.7-8.65-6.89-14.62
				c-0.06-1.83-0.51-3.37,1.77-3.82c3.05-0.6,4.1-2.94,5.36-5.39c2.81-5.48,7.05-10.52,8.54-16.29c1.77-6.86,5.26-12.76,7.84-19.14
				c0.78-1.92,2.43-3.48,3.45-5.33c4.5-8.2,6.27-17.72,12.09-25.31c0.73-0.96,0.74-2.19,0.36-3.36c-0.44-1.39-1.4-2.87,0.36-4.01
				c1.28-0.83,2.57-0.49,3.72,0.37c1.49,1.13,2.05,2.69,1.38,4.43c-1.37,3.57-2.54,7.28-4.42,10.58
				c-5.84,10.21-11.2,20.71-17.87,30.44c-2.66,3.88-2.78,8.76-4.72,13.04c-2.66,5.9-5.97,11.33-9.03,16.97
				c-3.69,6.82-2.31,14.75,1.5,21.14c5.55,9.29,8.03,19.87,13.67,29.14c4.22,6.93,5.81,15.2,5.63,23.54
				c-0.12,5.68-3.35,10.26-8.72,12.11c-4.43,1.53-8.63,3.48-12.57,6.02c-9.49,6.1-19.57,8.31-31.11,7.8
				c-12.13-0.53-24.49,0.55-36.53,3.17c-0.65,0.14-1.31,0.24-1.98,0.3c-9.07,0.82-9.15,1.17-9.76,11.1
				c-0.82,13.45-0.2,27.06-2.71,40.31c-3.05,16.11-0.59,32.21-1.32,48.28c-0.29,6.51-0.28,13.38-4.44,19.11
				c-1.82,2.51-1.44,5.07-1.09,8.03c2.73,23.03,17.98,38.74,31.74,55.39c10.82,13.09,20.66,26.8,28.95,41.74
				c4.22,7.61,6.31,16.05,11.04,23.38c4.5,6.96,10.25,12.75,16.18,18.27c7.52,7,11.47,15.74,14.64,25.13
				c2.58,7.63,5.96,14.84,12.31,20.19c2.5,2.1,3.92,4.93,5.53,7.64c0.76,1.29,1.18,2.99,2.27,3.85
				c11.35,9.01,14.1,22.56,18.77,35.09c1.52,4.06,2.99,8.14,5.31,11.83c1.49,2.37,1.86,5.15,1.59,7.73
				c-1.34,12.94,2.94,24.47,8.11,35.94c1.97,4.36,2.81,9.17,3.62,13.97c3.31,19.65-0.63,39.06-1.76,58.54
				c-0.67,11.49-3.94,22.41-7.24,33.49c-3.11,10.46-5.01,21.61-4.95,32.89c0.04,7.67-3.23,14.89-4.78,22.36
				c-1.94,9.38-2.7,18.73-1.33,28.24c0.65,4.54,2.62,6.79,7.66,5.91c5.32-0.93,10.66,0.23,15.83,1.44
				c7.29,1.7,13.77,10.5,12.05,17.64c-1.21,5.02-4.74,9.51-8.24,13.46c-14.01,15.83-32.28,23.85-52.56,28.04
				c-7.06,1.46-13.92,0.65-20.57-1.9c-3.89-1.49-4.23-5.34-4.42-8.63c-0.21-3.77,0.48-7.62,0.93-11.41
				c0.52-4.38-1.38-7.73-5.86-8.08c-5.3-0.41-9.06-3.26-11.37-7.18c-3.29-5.59-8.72-6.64-13.9-8.57c-1.59-0.59-4.84-0.12-4.25-2.16
				c0.68-2.34,3.75-1.19,5.71-0.61c8.07,2.39,15.01,6.57,20.18,13.38c1.79,2.36,3.83,4.33,7.14,3.38c3.12-0.9,4.07-3.45,4.97-6.31
				c4.07-12.92,5.44-26.39,7.44-39.64c1.22-8.07,0.79-16.84-3-24.9c-1.35-2.87-1.09-6.5-1.62-9.77c-1.38-8.5-2.24-17.09-5.61-25.18
				c-1.4-3.36-0.39-7.16-1.04-10.82c-3.36-18.85-5.77-37.82-3.36-57.03c0.39-3.14,1.24-6.18,2.5-9.12c0.59-1.38,2.65-2.92,0.72-4.34
				c-1.51-1.11-3.28,0.27-4.48,1.31c-4.8,4.16-10.23,7.43-15.25,11.23c-4.06,3.07-7.16,2.49-10.72-0.3
				c-3.74-2.92-6.39-6.83-9.21-10.48c-10.18-13.18-22.27-24.6-33.57-36.74c-4.35-4.68-6.45-10.48-9.28-15.83
				c-6.56-12.4-17.74-19.96-27.95-28.59c-3.95-3.34-8.3-6.2-8.11-12.32c0.06-1.86-1.49-3.41-2.83-4.58
				c-4.87-4.26-10.12-7.99-16.61-9.37c-4.12-0.87-5.43,0.47-4.97,4.76c0.85,7.96-4.69,14.6-12.54,14.65
				c-3.29,0.02-5.65,1.45-8.1,3.3c-2.78,2.1-5.65,4.12-8.68,5.84c-9.13,5.19-17.8,2.78-25.83-2.46c-7.07-4.61-13.85-7.45-22.38-3.54
				c-3.29,1.51-7.52,1.16-11.33,1.29c-3.87,0.14-5.4-2.67-6.41-5.9c-1.08-3.46-3.29-3.95-5.38-1.2
				c-8.24,10.89-20.7,17.08-29.63,27.28c-10.84,12.39-22.53,24.03-33.82,36.03c-5.06,5.38-10.8,9.87-17.18,13.55
				c-3.32,1.92-5.7,4.68-6.84,8.28c-3.67,11.56-11.3,20.21-20.22,27.93c-3.08,2.66-6.76,2.48-10.44,1.53
				c-1.16-0.3-2.26-0.85-2.2-2.31c0.06-1.47,1.18-2,2.39-2.06c15.21-0.82,20.1-13.62,27.38-23.61c0.46-0.62,0.79-1.66,0.62-2.37
				c-1.95-7.94,4.21-9.79,9.26-12.39c6.32-3.25,11.38-8.11,16.09-13.2c12.2-13.17,24.6-26.16,36.71-39.42
				c5.42-5.94,12.67-10.2,19.04-15.28c4.2-3.35,4.13-3.85-1.41-6.63c8.68-1.5,12.34-9.14,19.03-12.6c1.45-0.75,2.71-1.94,3.95-3.03
				c1.06-0.94,1.67-2.2,0.9-3.57c-0.67-1.19-1.99-1.21-3.12-0.92c-15.9,4.16-29.14-3.62-42.74-9.58c-4.72-2.07-9.21-4.63-13.84-6.89
				c-7.57-3.68-12.65-10.17-18.18-16.13c-0.84-0.91-2.18-2.14-0.61-3.36c1.15-0.89,2.09,0.33,2.98,1.06
				c1.95,1.58,3.1,3.83,4.96,5.56c14.88,13.93,33.98,18.94,52.52,25.19c6.86,2.31,13.51-0.04,20.24-0.71
				c2.07-0.2,1.85-1.52,1.03-2.87c-0.66-1.09-1.82-1.42-2.96-1.67c-14.24-3.06-24.4-12.15-33.94-22.43
				c-6.1-6.58-12.69-12.6-17.36-20.46c-5.94-9.99-11.71-20.02-16.04-30.82c-0.57-1.42-0.89-3.31,1.04-3.75
				c1.94-0.45,2.25,1.58,2.7,2.94c4.9,14.75,12.83,27.8,22.98,39.39c7.45,8.49,15.61,16.4,24.77,23.12c7.61,5.58,17,7.44,25.3,11.63
				c0.68,0.34,1.95,0.58,2.38,0.21c7.13-6.18,14.28-0.64,21.35-0.01c9.25,0.83,17.89,3.29,27.87,1.89
				c13.32-1.86,20.81-11.05,30.66-17.3c4.03-2.56,7.63-5.72,13.25-6.58c-3.34,5.28-8.67,7.29-12.67,10.78
				c-3.11,2.71-6.1,5.66-9.88,7.58c-1.25,0.63-2.94,1.51-2.56,3.3c0.41,1.96,2.33,1.43,3.74,1.63c9.22,1.26,18.23-0.14,27.2-2.18
				c1.75-0.4,4.15-1.31,4.71,1.05c0.53,2.24-2.08,2.83-3.72,3.24c-7.42,1.88-14.84,3.81-22.64,3.29c-1.31-0.09-3.48-0.82-3.73,1.24
				c-0.2,1.61,1.68,2.46,3.11,2.79c3.48,0.79,6.94,3.81,10.55-0.15c1-1.1,2.92,0.12,4.16,0.85c4.34,2.54,9.06,3.08,13.95,3
				c1.24-0.02,3.21-0.52,3.29,1.23c0.11,2.24-2.08,1.49-3.43,1.68c-0.66,0.09-1.35-0.02-1.99,0.11c-1.55,0.32-3.69,0.01-3.94,2.23
				c-0.23,2,1.81,2.04,3.07,2.7c22.76,11.83,47.37,18.43,71.89,25.25c1.37,0.38,3.66,0.2,3.38,2.06c-0.29,1.88-2.49,1-3.83,0.88
				c-6.99-0.65-13.86-2.16-20.51-4.3c-12.34-3.97-24.55-8.36-36.77-12.69c-2.01-0.71-3.76-2.13-5.72-3.03
				c-1.71-0.79-3.81-2.75-5.34-0.65c-1.39,1.9,0.58,3.73,1.95,5.14c5.22,5.38,10.8,10.31,17.2,14.29c14.23,8.86,28.99,17,40.6,29.49
				c1.33,1.44,2.78,2.72,2.73,5.88c-3.42-2.72-6.3-4.86-9-7.21c-6.05-5.27-13-9.26-19.46-13.95c-1.12-0.81-2.61-2.27-3.95-0.86
				c-1.01,1.05,0.24,2.47,0.77,3.64c6.93,15.2,18.5,26.77,30.75,37.45c7.93,6.91,13.6,15.36,19.92,23.43
				c4.15,5.3,5.42,5.29,10.96,1.6c10.93-7.26,21.34-15.26,32.11-22.75c9.89-6.88,17.45-16.69,25.42-25.88
				c8.13-9.38,13.05-20.22,17.1-31.66c0.48-1.36,0.3-2.6-0.28-3.86c-4.84-10.42-8.87-21.15-12.06-32.2
				c-0.32-1.11-0.82-2.18-1.32-3.23c-0.6-1.26-1.45-2.41-3.06-1.85c-1.45,0.5-1.25,1.9-1.01,3c2.56,11.95-2.11,23.38-2.57,35.12
				c-0.45-8.02,0.35-16.01,0.33-24.02c-0.03-15.44-4.12-28.68-15.8-39.43c-5.64-5.19-7.29-13.05-9.69-20.02
				c-3.78-10.97-10.73-19.52-18.84-27.18c-2.35-2.22-5.67-3.26-6.57-6.94c-0.2-0.82-1.35-0.83-2.19-0.5
				c-1.7,0.67-1.87,2.17-1.94,3.71c-0.3,6.47-1.38,12.91-0.93,19.42c0.08,1.12-0.19,2.27-0.37,4.18c-2.14-2.29-1.75-4.38-1.66-6.41
				c0.33-7.3,1.35-14.66,0.76-21.89c-0.78-9.63-4.31-18.48-9.36-26.96c-4.49-7.55-8.52-15.36-13.5-22.66
				c-9.87-14.43-22.19-26.92-32.2-41.23c-0.58-0.83-1.26-1.68-2.44-1.09c-1.09,0.55-1.03,1.58-0.86,2.61
				c0.91,5.5,1.73,11.02,2.75,16.5c0.58,3.11,1.27,6.14-0.62,9.14c-2.23-0.78-2.37-2.69-2.15-4.16c1.78-12.29-4.78-22.75-7.31-34.09
				c-0.26-1.17-0.9-2.37-2.31-2.2c-2.05,0.26-3.3,1.77-3.61,3.66c-0.81,5.08-1.02,10.27-2.13,15.27
				c-3.18,14.33-4.53,29.17-11.51,42.5c-1.53,2.92-2.26,6.26-3.35,9.4c-0.99,2.86-2.46,5.31-5.84,6.84
				c0.37-6.37,5.08-10.42,6.57-15.79c3.56-12.86,10.24-24.94,9.59-38.85c-0.08-1.74,0.86-3.18,1.49-4.72
				c0.54-1.33,0.43-2.7-0.78-3.63c-1.37-1.06-2.68-0.22-3.52,0.77c-5.02,5.89-11.95,9.46-17.6,14.6
				c-4.93,4.48-11.34,6.77-17.53,8.12c-13.91,3.03-27.79,6.53-42.35,5.71c-6.42-0.36-12.92,0.08-19.4-0.44
				c-10.47-0.84-20.8-2.39-30.94-5.16c-1.12-0.31-2.33-0.52-3.31-1.1c-8.45-5.03-18.26-6.91-26.82-11.63
				c-5.76-3.17-11.37-6.62-17.65-10.3c2.49,7.62,7.88,12.78,11.22,19.31c-4.93-1.61-7.73-5.57-10.77-9.31
				c-1.67-2.05-2.35-6.32-5.8-5.1c-3.04,1.08-1.14,4.78-1.19,7.27c-0.15,7.18,3.63,13.38,5.48,20.08
				c2.88,10.46,8.73,19.74,12.5,29.86c0.47,1.27,2.13,3,0.21,3.87c-1.78,0.81-2.46-1.41-2.92-2.68
				c-4.55-12.43-13.7-22.86-15.57-36.54c-0.47-3.43-3.27-6.46-3.79-10.19c-0.87-6.19-0.21-11.89,4.31-16.67
				c1.46-1.54,2.71-3.55,0.55-5.13c-1.94-1.42-2.95,0.5-4.25,1.98c-8.39,9.56-12.36,21.51-18.13,32.5
				c-2.55,4.86-2.44,10.32-4.43,15.23c-0.6,1.47-0.16,4.6-2.8,3.67c-1.81-0.64-0.23-2.86,0.24-4.4c0.89-2.93,2.81-6.98-0.1-8.51
				c-1.91-1-3.45,3.62-5.16,5.73c-10.54,13-16.74,28.68-26.19,42.34c-7.75,11.19-15.74,22.23-23.12,33.67
				c-3.66,5.66-4.36,12.81-8.51,18.46c-3.73,5.09-6.87,10.63-11.13,15.33c-14.33,15.8-24.06,34.6-34.57,52.89
				c-0.97,1.68-1.38,3.76-3.81,4.79c-1.22-2.83-0.03-5.15,1-7.55c3.19-7.37,8.39-13.6,11.98-20.67
				c8.68-17.09,22.56-30.39,32.81-46.31c3.82-5.93,6.83-12.2,8.78-18.94c0.85-2.96,1.9-5.86,3.98-7.97
				c12.29-12.44,21.27-27.26,29.07-42.58c6.21-12.2,15.66-21.97,22.25-33.73c2.17-3.88,4.33-6.9,8.37-9.52
				c3.54-2.29,4.56-8.21,7.21-12.18c3.96-5.93,6.61-12.71,11.65-17.95c1.4-1.46,2.08-3.45,2.28-5.46c0.51-4.96,0.96-9.93,1.33-14.91
				c0.2-2.69-0.53-5.03-1.89-7.53c-2.38-4.37-1.84-9.4-0.82-14.09c0.71-3.28,0.24-6.08-0.73-9.21c-2.9-9.37-5.17-18.91-7.18-28.54
				c-1.61-7.73-4.28-15.25-6.58-22.83c-2.08-6.84-3.77-13.56-3.19-20.97c0.71-9.1-0.77-18.24-2.1-27.28
				c-0.49-3.34-0.54-6.61-0.4-9.95c0.15-3.67-1.17-5.58-5.39-6.12c-6.57-0.83-12.74-0.55-19.18,1.3
				c-7.35,2.11-15.23,0.53-22.78,2.03c-2.32,0.46-4.5-0.83-6.55-2.05c-7.45-4.48-15.31-6.27-23.84-3.45
				c-0.78,0.26-1.84,0.65-2.42,0.34c-8.82-4.73-20.12-2.55-27.94-9.12c-6.39-5.37-11.79-12.07-15.04-20.08
				c-0.78-1.91-1-3.85-0.1-5.82c4.23-9.15,8.14-18.38,15.54-25.75c5.03-5,9.23-10.86,13.54-16.54c3.23-4.25,3.03-8.5,0.31-13.42
				c-4.76-8.62-9.76-17.2-10.25-27.64c-0.18-3.92-2.79-7.72-4.29-11.58L751.61,300.38z M1029.5,613.38l0.09,0.04
				c3.34-4.06,8.64-4.34,12.96-6.41c10.91-5.21,20.83-11.61,28.87-20.62c1.81-2.03,5.64-5.42,3.75-7.18
				c-2.08-1.94-4.53,2.37-6.77,4.03c-0.26,0.19-0.41,0.52-0.64,0.77c-10.41,11.15-23.15,17.88-39.19,20.57
				c7.6-5.51,16.08-6.84,23.05-11.35c8.27-5.36,16.6-13.64,16.79-17.5c-1.74,0.11-3.17,0.97-4.55,1.89
				c-8.6,5.73-17.24,11.39-28.13,11.41c-6.65,0.02-12.38,3.53-18.76,4.73c-6.8,1.28-13.56,1.46-20.34,1.23
				c-11.13-0.38-22.33,0.33-33.39-1.33c-4.92-0.74-9.73-2.26-13.73,2.24c-0.14,0.16-0.86-0.2-1.48-0.36
				c2.74-3.65,1.7-5.29-2.53-5.95c-8.72-1.36-17.39-3.07-25.66-6.29c-1-0.39-2.58-0.58-2-2.24c0.41-1.18,1.63-0.85,2.6-0.71
				c2.47,0.34,5,0.47,7.4,1.08c19.23,4.84,38.46,8.84,58.51,9.22c16.4,0.31,32.14-1.77,47.61-6.81c1.44-0.47,2.9-1.34,4.3-0.48
				c4.16,2.53,7.72,0.4,11.3-1.29c5.59-2.64,10.42-6.52,15.63-9.76c8.93-5.56,13.31-13.55,14.87-23.57
				c1.7-10.9-0.52-21.97,1.41-32.86c0.21-1.18-0.31-2.36-1.64-2.77c-1.41-0.43-2.02,0.65-2.78,1.56c-1.43,1.72-1.7,4.59-5.03,5.36
				c0.7-3.84,2.09-6.78,3.56-9.75c1.62-3.27,4.26-5.93,5.22-9.61c2.79-10.67,3.31-21.56,4.31-32.48c1.1-12.03-1.55-23.94,6.18-36.14
				c7.83-12.35,12.25-27.64,12.61-43.19c0.05-2.07-0.73-5.84,2.05-5.73c2.43,0.09,1.53,3.82,1.77,6.01
				c1.09,9.71-4.21,17.99-6.22,27.01c-1.28,5.76-3.31,11.48-6.46,16.64c-0.79,1.29-3.26,2.32-1.62,4.09
				c1.78,1.93,4.15,0.52,5.21-0.95c3.59-4.97,9.14-7.62,13.41-11.81c3.18-3.13,4.92-7.7,9.46-10.32c0.18,2.3-0.45,3.67-1.33,4.82
				c-2.88,3.75-4.6,8.53-9.77,10.25c-1.9,0.63-3.39,2.8-2.59,4.84c0.84,2.15,3.03,0.7,4.39,0.27c3.3-1.06,6.33-0.95,9.72-0.04
				c6.15,1.64,12.59,1.6,17.45-3.01c5.08-4.81,9.24-10.48,9.47-18.09c0.05-1.6-0.1-4.34,2.5-4.05c2.17,0.24,2.44,2.7,2.14,4.48
				c-0.56,3.32-0.2,6.13,2.19,8.76c0.77,0.85,1.9,2.39,0.81,4.17c-5.17-2.49-7.98,1.26-11.12,4.19c-0.92,0.85-3.56,0.85-2.02,2.96
				c1.15,1.58,2.74,0.35,3.95-0.52c2.18-1.56,4.4-3.6,7.21-1.97c3.43,1.99,5.65,0.22,7.94-1.86c2.28-2.07,3.29-4.92,4.68-7.91
				c1.54,1.47,1.95,4.1,4.91,3.29c9.11-2.49,14.89-10.94,12.86-19.92c-2.25-9.97-6.77-19.05-11.95-27.81
				c-1.07-1.81-2.95-2.02-4.73-2.42c-0.81-0.18-1.72-0.33-2.33,0.4c-0.81,0.97-0.22,1.9,0.37,2.69c3.19,4.3,3.75,9.48,4.81,14.48
				c0.29,1.36,1.08,3.31-1.21,3.55c-1.7,0.18-2.13-1.6-2-2.89c0.43-4.29-3.28-6.67-4.62-10.16c-0.95-2.46-3.86-1.97-4.98,0.57
				c-1.93,4.38-4.66,8.48-5.12,13.47c-0.15,1.6,0.19,3.63-1.93,4.81c-0.28-0.76-0.66-1.24-0.58-1.63
				c2.34-11.26-4.77-19.31-9.74-27.97c-1.58-2.75-4.72-4.62-7.21-6.83c-0.77-0.68-1.82-1.02-2.77-0.39c-1.2,0.8-1.04,2.04-0.52,3.13
				c0.5,1.04,1.25,1.95,1.89,2.92c2.77,4.23,4.13,11.36,2.89,15.36c-1.71-1.27-1.51-3.26-1.89-4.95c-0.9-4-3-7.38-5.22-10.71
				c-0.77-1.15-1.54-2.4-3.1-1.02c-2.66,2.33-3.41-0.31-4.45-1.78c-1.25-1.77-0.92-5.45-3.95-4.93c-2.83,0.48-0.62,3.82-1.67,5.59
				c-0.13,0.22-0.5,0.3-0.96,0.55c-1.43-2.99-2.81-5.98-4.28-8.94c-2.55-5.15-5.72-9.85-11.11-12.37c-1.43-0.67-3.34-2.61-4.89-0.58
				c-1.17,1.54,0.5,3.01,1.18,4.5c1.01,2.2,3.42,4.01,2.41,7.59c-2.36-2.07-3.19-4.4-4.19-6.61c-1.1-2.42-2.44-4.59-4.26-6.65
				c-8.82-10.01-19.82-15.97-32.78-18.62c-9.85-2.02-19.87-2.34-29.67-0.79c-5.49,0.87-10.07-1.37-15.11-1.68
				c-0.99-0.06-1.92-1.04-1.87-2.09c0.15-2.82-1.93-3.51-3.82-4.59c-18.57-10.52-38-4.69-57.21-3c-1.34,0.12-2.68,0.8-2.29,2.62
				c0.92,4.32-2.01,3.63-4.13,2.83c-5.99-2.25-10.56,1.38-15.44,3.46c-2.29,0.97-1.73,2.87,0.5,3.33c2.41,0.5,4.99,0.6,7.44,0.33
				c5.28-0.57,9.8,1.82,14.65,3.31c-2.26,0.54-4.55,0.88-6.7,0.48c-8.53-1.58-17.2-0.92-25.78-1.64c-6.4-0.54-13.33-0.51-19.12,3.82
				c-0.82,0.62-2.22,0.6-3.35,0.66c-5.82,0.26-11.73-0.11-17.44,0.8c-6.44,1.03-13.03-0.21-19.4,3.17
				c-10.24,5.43-20.81,10.43-32.25,13.12c-4.38,1.03-8.63,2.48-12.56,4.77c-6.18,3.6-14.01,2.58-19.93,7
				c-0.19,0.15-0.68,0.04-0.96-0.09c-5.37-2.65-8.44,1.28-10.68,4.65c-3.37,5.08-5.8,10.8-8.45,16.33
				c-1.74,3.63-3.14,7.4-1.14,11.49c0.54,1.1,0.45,2.4-0.48,3.27c-2.06,1.92-1.83,4.3-1.14,6.51c2.53,8.09,5.12,16.29,14.45,19.21
				c2.1,0.66,4.44,3.95,6.55,0.84c1.89-2.79-1.19-4.28-2.79-6.1c-1.91-2.17-3.57-4.54-5.34-6.83c3.35,0.15,5.42,1.86,7.45,3.75
				c3.05,2.83,5.94,5.97,9.42,8.15c4.56,2.86,8.81,7.55,14.48,7.08c7.15-0.6,14.28-0.16,21.39-0.67c1.52-0.11,3.63,0.65,4.24-1.61
				c0.62-2.32-1.28-2.99-2.86-4.02c-9.32-6.1-15.43-15-20.97-24.37c-0.52-0.88-0.8-1.97,0.08-2.76c1.21-1.08,2.2-0.15,2.96,0.71
				c1.86,2.12,3.66,4.25,5.1,6.74c7.13,12.34,15.85,22.59,31.54,23.78c3.49,0.27,4.85-0.84,5.37-4.1c0.97-6.09-1.28-11.68-3.4-16.92
				c-6.32-15.64-5.35-31.53-2.97-47.57c0.28-1.9,1.06-4.13,4.6-6.05c-3.96,10.61-2.91,20.25-2.49,30
				c0.42,9.59,1.46,18.64,7.03,26.72c0.36,0.52,0.63,1.24,0.63,1.86c-0.07,10.98,1.29,21.97,0.21,32.95
				c-1.19,12.04-0.57,24.15,2.69,35.56c4.36,15.24,10.38,30.06,20.76,42.56c0.82,0.99,1.73,2.46,0.35,3.53
				c-1.24,0.96-2.59,0.13-3.49-0.93c-1.5-1.77-2.68-3.85-4.34-5.43c-1.69-1.61-3.68-0.8-3.24,1.39c1.77,8.92,2.99,18.19,10.59,24.63
				c3.81,3.23,7.67,6.39,11.49,9.62c0.94,0.79,1.69,1.82,0.86,3.03c-0.81,1.17-2.15,1.02-3.15,0.37c-2.23-1.44-4.37-3.03-6.47-4.65
				c-3.45-2.66-5.23-2-6.04,2.34c-1.72,9.2,3.06,15.05,13.11,15.92c7.32,0.64,14.64,0.27,21.94-0.45c1.75-0.17,3.63-1.26,5.07,0.64
				c0.43,0.57,0.25,1.27-0.26,1.81c-1.4,1.49-3.04,0.92-4.66,0.52c-1.69-0.41-3.67-0.65-4.52,1.05c-2.18,4.41-5.72,3.38-9.02,2.38
				c-3.28-1-6.5-1.44-9.84-0.87c-1.23,0.21-3.11-0.25-3.4,1.37c-0.33,1.81,1.6,2.42,2.86,2.97c3.66,1.6,7.38,2.98,11.36,3.73
				c10.63,2,21.09,4.87,31.9,5.91c1.55,0.15,3.95,0.55,3.55,2.59c-0.35,1.77-2.56,0.81-3.92,0.64c-9.38-1.2-18.96-1.21-27.97-4.73
				c-1.55-0.6-3.98-0.96-4.77,1.24c-0.57,1.58,1.03,2.79,2.46,3.29c6.39,2.22,12.74,4.65,19.28,6.35
				c6.19,1.61,12.32,4.34,19.04,2.54c1.04-0.28,2.58,0.02,2.48,1.65c-0.07,1.23-1.37,1.34-2.33,1.37c-3.15,0.09-6.27,0.25-9.45-0.31
				c-9.27-1.62-17.53-6.1-26.34-9.04c-7.84-2.62-15.4-6.01-21.35-12.1c-0.83-0.85-1.76-1.86-2.98-1.03
				c-1.29,0.88-0.65,2.09,0.09,3.05c4.19,5.4,8.48,10.68,14.46,14.32c15.06,9.17,31.66,13.74,48.91,16.15
				c5.76,0.8,11.57,1.37,17.3,2.42c2.16,0.4,4.54,0.56,6.08,3.08c-23.62,0.46-45.42-6.34-68.4-13.78c1.71,3.18,3.08,4.16,4.55,5.31
				c3.76,2.91,8.53,2.57,12.58,4.52c9.17,4.4,18.58,8.43,28.68,9.96c18.8,2.85,37.7,4.31,56.7,2.02c9.26-1.12,18.49-2.59,27.12-6.2
				c12.67-5.3,22.44-14.76,32.38-23.84c4.06-3.71,5.64-9.01,8.58-13.74c-3.4-0.64-3.9,2.04-4.99,3.33
				c-6.01,7.08-14.78,9.84-22.22,14.64C1042.67,609.98,1036.41,612.61,1029.5,613.38z M987.42,811.17
				c9.48,2.54,14.67-5.88,21.2-11.08c4.32-3.44-0.96-8.07-0.21-12.21c0.03-0.16-0.05-0.34-0.02-0.5c0.21-1.11-1.34-2.93,0.91-3.2
				c1.72-0.21,2.2,1.58,2.22,2.79c0.07,3.98,2.32,7.26,3.25,10.95c0.42,1.66,1.36,3.47,3.49,2.23c3.74-2.17,4.24-6.12,4.82-9.93
				c0.49-3.18,0.13-6.12-3.18-7.63c-4.06-1.85-8.1-3.91-12.7-3.97c-1.26-0.02-2.32,0.1-2.88-1.25c-0.66-1.59-1.41-3.44-3.53-2.24
				c-1.81,1.02-4.03,2.2-3.57,4.87c0.39,2.25-0.15,4.19-0.82,6.3c-0.87,2.74-0.86,5.57,1.6,7.81c1.59,1.45,1.88,3.44,0.35,4.85
				c-2.03,1.87-2.14-0.95-3.1-1.71c-0.38-0.3-0.8-0.8-1.2-0.8c-4.72-0.03-3.42-2.95-2.56-5.46c1.04-3.03,1.72-6.06,1.44-9.29
				c-0.19-2.18-1.14-3.36-3.42-3.4c-10.76-0.17-20.89-3.65-31.22-6.04c-3.85-0.89-5.11-0.12-4.83,4.02c0.36,5.5-2.74,7.9-8.25,7.23
				c-0.94-0.12-2.03,0.11-2.91,0.5c-6.08,2.75-9,10.32-6.55,16.63c0.87,2.26,2.19,3.71,4.78,3.52c2.47-0.18,3.41-1.67,3.54-3.99
				c0.06-1.11-0.05-2.66,1.32-2.94c1.37-0.28,1.99,1.15,2.34,2.19c1.21,3.59,3.84,4.57,7.09,3.62c6.61-1.93,12.15,0.18,17.18,4.19
				C976.3,810.62,981.06,812,987.42,811.17z M739.88,397.37c0.73,2.48,0.56,5.29,2.49,6.61c1.8,1.23,1.89-1.69,3.06-2.36
				c1.06-0.61,1.89,0.13,2.76,0.55c0.87,0.41,1.74,1.79,2.57,1.15c5.24-4.02,4.33,1.59,5.74,3.55c1.35,1.88,1,5.45,4.31,5.31
				c2.27-0.09,2.88,0.85,3.47,2.58c0.43,1.27,1.32,2.78,2.85,1.73c1.35-0.92,0.62-2.68-0.26-3.53c-2.44-2.36-2.76-5.1-2.3-8.23
				c0.43-2.94,0.35-5.95,0.51-8.89c0.17-3.13-0.25-6.49,2.7-9.52c4.85-4.99,2.65-12.36-3.61-15.83c-2.3-1.28-3.58-0.83-5.69,0.54
				c-4.62,3.01-7.91,7.15-10.81,11.55C744.58,387.28,741.68,392.16,739.88,397.37z M1224.3,855.54c6.68,0.35,7.18-0.58,4.86-6.95
				c-1.41-3.87-3.41-7.62-3.48-11.92c-0.02-1.33-0.05-2.87-1.91-2.94c-1.34-0.05-2.79,0.24-3.43,1.61
				c-3.82,8.21-8.75,15.66-14.86,22.35c-0.77,0.84-1.53,2.02-0.58,3.13c0.96,1.12,2.21,0.39,3.22-0.1c2.44-1.18,4.71-2.33,7.39-0.25
				c1.1,0.86,2.98,0.38,3.1-1.27C1218.9,855.18,1221.55,855.4,1224.3,855.54z M1206.59,889.66c-7.06-2.35-13.14,1.41-19.27,4.85
				c-1.2,0.67-3.19,1.42-2.38,3.23c0.75,1.68,2.73,1.13,4.03,0.59c4.57-1.89,9.42-1.96,14.2-2.57c6.25-0.8,12.48-1.8,18.72-2.74
				c1.14-0.17,2.54-0.38,2.46-1.9c-0.08-1.34-1.4-1.26-2.34-1.17C1217.01,890.42,1212.12,888.13,1206.59,889.66z M1207.88,940.87
				c-7.6-0.81-13.86,2.07-20.44,2.51c-1.65,0.11-3.97,0.28-3.77,2.28c0.23,2.23,2.62,1.37,4.15,1.32
				c10.22-0.36,20.08-3.01,30.1-4.66c0.49-0.08,0.97-0.22,1.44-0.39c1.13-0.43,2.33-0.98,1.77-2.45c-0.59-1.56-1.99-1.91-3.21-0.91
				C1214.63,941.23,1210.81,940.85,1207.88,940.87z M1207.97,903.21c-7.58,0.4-13.73,0.83-19.44,3.49
				c-1.25,0.58-2.48,1.33-2.06,2.95c0.31,1.21,1.53,1.24,2.49,1.01c5.88-1.37,11.88-1.28,17.86-1.65c1.91-0.12,4.39-0.79,4.08-3.4
				C1210.64,903.45,1208.43,903.23,1207.97,903.21z M1204.14,964.23c-0.3-1.12-0.97-2.16-1.95-2.1c-5.83,0.35-11.82-0.07-17.22,2.83
				c-0.68,0.37-1.17,1.16-1.64,1.82c-0.48,0.67-0.96,1.54-0.1,2.17c0.42,0.31,1.36,0.38,1.8,0.12c5.25-3.06,11.17-2.37,16.83-3.08
				C1203.04,965.85,1204.26,965.85,1204.14,964.23z M1212.31,1063.28c3.35,1.19,3.39,1.2,2.43,5.57c-0.29,1.31,0.19,1.81,1.38,1.98
				c1.88,0.27,9.18-5.81,8.98-7.56c-0.05-0.42-0.42-0.87-0.76-1.19C1220.79,1058.7,1215.36,1059.25,1212.31,1063.28z
				 M1197.28,923.62c10.38-2.29,21.13,1.62,31.39-2.2c-2.78-0.99-5.5-0.39-8.25-0.25c-4.07,0.21-8.94,2.03-12.07-0.16
				C1203.43,917.55,1200.56,919.67,1197.28,923.62z M1204.39,954.06c2.75,0.1,5.4-0.58,7.97,0.63c1.69,0.79,3.54,1.22,4.97-0.52
				c0.3-0.36,0.27-1.38-0.03-1.77c-1.21-1.59-2.92-1.15-4.56-0.86c-3.95,0.7-7.72,2.07-11.45-1.5c-1.8-1.72-5.1-0.59-7.68,0.1
				c-0.56,0.15-1.3,0.68-1.42,1.17c-0.27,1.09,0.75,1.26,1.53,1.46C1197.26,953.64,1200.83,954.39,1204.39,954.06z M1037.43,261.41
				c0.58-3.61-2.21-5.54-8.38-6.33c-2.89-0.37-2.61,0.89-2.14,2.8c0.63,2.52,3.43,3.08,4.5,5.2c0.62,1.22,0.57,3.37,2.72,2.91
				C1036.41,265.5,1036.92,263.37,1037.43,261.41z M1192,937.29c5.95,1.57,10.53,1.4,15.07,0.61c1.54-0.27,4.3,0.07,3.81-2.64
				c-0.35-1.96-2.53-2.68-4.43-2.37C1201.93,933.64,1197.41,934.55,1192,937.29z M1192.19,1034.63c4.08,0.77,7.29-1.88,10.97-2.7
				c1.43-0.32,3.95-0.29,3.17-2.65c-0.59-1.79-3.23-1.79-4.32-0.93c-3.11,2.46-6.71,2.26-10.23,2.82c-1.49,0.24-4.04,0.15-3.78,2.26
				C1188.26,1035.6,1190.74,1034.32,1192.19,1034.63z M1215.24,976c-6.41,0.45-11.59-0.61-16.38,1.98c-1.02,0.55-2.13,1.15-1.9,2.58
				c0.13,0.79,0.9,1.04,1.55,0.92C1203.85,980.51,1209.82,981.62,1215.24,976z M1186.75,1087.77c-4.15,0.43-8.37-0.76-10.72,3.44
				c-0.38,0.68-1.22,1.14-0.96,2.07c0.32,1.15,1.33,1.35,2.33,1.4c2.66,0.13,5.29-0.23,7.71-1.31
				C1187.74,1092.19,1183.99,1089.14,1186.75,1087.77z M1210.11,982.8c-1.56,0.68-3.77,1.42-5.73,2.59
				c-1.58,0.94-3.12,2.6-1.56,4.48c1.59,1.92,3.78,0.99,5.3-0.32c1.31-1.12,1.62-3.25,3.72-3.72c0.87-0.2,2.26-0.4,1.88-1.74
				C1213.35,982.73,1211.94,982.88,1210.11,982.8z M1221.6,880.79c3.76-0.25,6.88-0.47,9.99-0.67c1.1-0.07,2.7,0.32,2.7-1.29
				c0-1.45-1.53-1.48-2.69-1.48c-2.93,0.02-5.81,1.39-8.79,0.2c-1.47-0.59-3.04-1.75-4.47,0c-0.36,0.44-0.63,1.34-0.42,1.78
				C1218.79,881.23,1220.68,880.67,1221.6,880.79z M1203.09,866.84c0.01-2.15-1.31-2.39-2.89-1.4c-2.22,1.39-4.43,2.89-6.36,4.66
				c-1.09,1.01-3.04,2.65-1.78,4.1c1.44,1.65,2.92-0.43,4.07-1.39c1.53-1.28,2.99-2.57,4.92-3.23
				C1202.24,869.16,1202.98,868.31,1203.09,866.84z M1215.76,1048.7c-0.08-0.9-0.51-1.83-1.37-1.81c-3.7,0.08-6.73,2.18-9.96,3.63
				c-0.84,0.38-1.2,1.93-0.28,2.6c3.9,2.86,5.74-3.16,9.35-2.32C1214.67,1051.06,1215.65,1050.11,1215.76,1048.7z M1180.73,1103.38
				c1.45-0.66,4.66-0.09,4.3-3.14c-0.32-2.7-3.29-3-5.59-3.19c-1.94-0.16-3.14,1.04-3.16,3.05
				C1176.26,1102.79,1178.05,1103.39,1180.73,1103.38z M1211.02,928.71c-6.59-3.27-12.87-2.16-16.75,3.32
				C1199.27,928.55,1205.42,931.51,1211.02,928.71z M1188.1,1009.03c3.84,0.21,6.07-2.85,9.36-2.83c1.08,0.01,2.75-0.17,2.57-1.63
				c-0.2-1.68-1.86-1.48-3.2-1.36c-3.18,0.28-5.47,3.05-8.78,3.06c-1.06,0-2.66,0.14-2.35,1.76
				C1186,1009.49,1187.57,1008.94,1188.1,1009.03z M1203.2,916.01c1.62-0.65,4.72,0.68,4.93-1.76c0.21-2.52-2.81-2.16-4.64-2.14
				c-1.86,0.02-4.78-0.25-4.83,2.13C1198.61,916.73,1201.49,915.44,1203.2,916.01z M1187.98,1013.4c0.07,0.44,0.15,0.89,0.22,1.33
				c3.4,0.33,6.82,0.5,10.22-0.18c0.95-0.19,2.17-0.52,1.95-1.78c-0.19-1.12-1.38-1.51-2.37-1.34
				C1194.65,1012.01,1191.32,1012.74,1187.98,1013.4z M1232.32,900.58c0.63,1.39,0.15,2.48-0.69,3.65c-0.8,1.12-3.72,2.2-1.45,3.68
				c1.9,1.23,2.97-1.35,3.74-2.93c0.65-1.32,1.09-2.77,1.45-4.2c0.34-1.34,0.34-2.95-1.46-3.03
				C1232.08,897.66,1231.99,899.14,1232.32,900.58z M1200.8,971.19c3.4,1.46,6.23,1,8.83-0.7c0.8-0.53,0.09-1.49-0.54-2.08
				c-3.14-2.89-5.04,0.46-7.4,1.49C1201.44,970.01,1201.32,970.41,1200.8,971.19z M1172.91,966.99c0.57,2.2,0.83,4.86,3.9,5.44
				c1.19,0.22,2.21-0.74,1.69-1.7c-1.26-2.33-1.07-5.82-4.22-6.67C1173.22,963.78,1172.9,965.61,1172.91,966.99z M775.26,362.51
				c-1.69,1.85-5.42,1.83-6.04,5.39c-0.23,1.32,0.73,1.8,1.85,1.46c3.01-0.93,4.84-3.21,6.02-5.97
				C777.34,362.8,776.39,362.43,775.26,362.51z M1208.51,1044.97c1.5-1.72,4.96-1.39,5.81-4.24c0.4-1.33-1.19-1.86-2.43-1.56
				c-2.51,0.61-4.69,1.84-5.43,4.5C1206.22,1044.56,1207.19,1045,1208.51,1044.97z M1201.34,994.56c-1.93,0.4-4.1,0.72-4.64,3.03
				c-0.35,1.51,0.96,2.11,2.24,1.74c1.99-0.58,4.71-0.54,5.3-2.98C1204.68,994.59,1202.65,994.74,1201.34,994.56z M1212.28,1030.82
				c-2.23,1.44-4.83,3.03-7.29,4.81c-0.34,0.24,0.29,1.18,1.04,1.33c3.7,0.73,5.27-2.79,7.93-4.13
				C1214.78,1032.42,1214.04,1031.06,1212.28,1030.82z M1218.02,917.77c1.13-0.61,3.53,0.31,3.63-2.14c0.07-1.78-1.68-1.86-3-1.76
				c-1.63,0.12-3.74,0.2-3.9,2.28C1214.6,918.06,1216.49,917.63,1218.02,917.77z M1201.24,880.82c1.43-0.17,2.58-0.97,2.71-2.73
				c0.1-1.45-0.86-2.2-2.17-2.09c-1.78,0.14-3.28,1.03-3.32,3C1198.42,880.48,1199.81,880.63,1201.24,880.82z M889.72,601.62
				c1.21,0.15,2.05-0.21,1.84-1.21c-0.49-2.27-2.28-3.48-4.27-4.3c-0.72-0.3-1.21,0.4-1.14,1.11
				C886.35,599.61,887.74,601.02,889.72,601.62z M1223.09,884.87c-2.51-1.47-4.76-1.49-7-0.16c-0.18,0.11-0.16,1.12,0.03,1.23
				c2.15,1.16,4.33,0.9,6.46-0.12C1222.69,885.76,1222.73,885.54,1223.09,884.87z M1205.36,900.03c3.84,1.4,3.84,1.4,7.43-0.43
				C1209.39,898.12,1209.39,898.12,1205.36,900.03z M756.42,414.06c-1.22,0.09-1.66,0.66-1.27,1.65c0.64,1.6,1.64,2.91,3.47,3.2
				c0.99,0.16,1.82-0.46,1.48-1.37C759.45,415.82,758.24,414.45,756.42,414.06z M1192.26,1081.34c2.8,1.09,4.88,1.64,6.79,0.09
				c0.53-0.43,0.17-1.39-0.48-1.65C1196.45,1078.93,1194.5,1079.19,1192.26,1081.34z"/>
			<path class="st0" d="M799.71,927.71c-0.95,15.28-4.79,29.95-9.4,44.55c-4.49,14.21-10.09,28.21-11.83,43.12
				c-1.49,12.79-3.98,25.48-4.41,38.4c-0.04,1.16-0.37,2.48,0.05,3.46c3.88,8.95,2.57,18.32,2.09,27.55
				c-0.23,4.32-2.09,8.45,0.2,12.87c0.77,1.48-1.23,3.27-2.42,4.67c-4.06,4.75-12.15,7.13-18.09,5.15
				c-2.62-0.87-5.27-0.73-7.91-0.72c-4.76,0.02-8.99-1.53-12.25-4.8c-8.08-8.1-17.4-14.17-27.77-18.97
				c-6.22-2.88-10.96-8.01-15.54-13.12c-4.13-4.6-5.71-11.58-4.01-15.73c2.28-5.56,5.4-12.77,13.16-14.24
				c4.53-0.86,8.93-2.2,13.71-1.94c7.67,0.42,13.26-4.64,19.25-8.41c1.38-0.87,2.34-2.42,2.53-4.17c1.24-11.68,4.11-23.9,0.82-34.98
				c-2.7-9.09,1.62-17.39-0.98-25.99c-2.51-8.3-1.79-17.18-2.94-25.71c-1.58-11.68-2.62-23.4-3.82-35.1
				c-0.49-4.84,0.27-9.91,0.65-14.84c0.84-10.92,1.17-21.96,4.69-32.5c0.41-1.22,0.38-3.15,1.93-3.15c1.95-0.01,1.79,2.1,2.06,3.46
				c0.36,1.79,0.34,3.65,0.63,5.45c0.33,2.14,1.53,3.41,3.82,2.75c3.97-1.15,5.54,0.93,6.2,4.36c0.38,1.95,1.19,3.97,3.47,3.03
				c2.1-0.87,0.86-2.82,0.21-4.32c-2.71-6.22-5.35-12.48-8.19-18.64c-1.28-2.78-2.24-5.66-6.15-6.49c-2.72-0.58-0.91-3.7-1.16-5.66
				c-0.16-1.26-0.19-2.92,1.32-3.45c1.56-0.55,2.38,0.76,3.06,1.95c5.28,9.2,10.22,18.54,14.88,28.11
				c8.07,16.57,17.56,32.6,33.66,43.06C799.09,911.83,800.35,919.25,799.71,927.71z M753.26,1102.62
				c7.49,2.96,13.36,1.48,16.46-3.92c0.79-1.38,1.1-2.46-0.24-3.42c-1.41-1.02-3.24-0.95-3.86,0.61c-1.56,3.87-4.99,3.81-8.14,4.61
				C755.98,1100.89,754.08,1100.75,753.26,1102.62z M771.03,1022.29c-0.74,1.05-1.35,2.22-2.24,3.13
				c-2.94,3.01-3.79,8.97-1.62,12.25c0.52,0.78,0.79,2.12,2.03,1.74c0.59-0.18,1.02-1.18,1.34-1.89
				C772.73,1032.69,771.49,1027.57,771.03,1022.29z M753.79,1094.47c4.87-0.55,9.36-1.01,13.83-1.61c0.97-0.13,1.81-0.94,1.7-2.1
				c-0.11-1.18-1.05-1.66-2.09-1.66c-2.47,0.01-4.95,0.35-7.39,0.17C756.42,1089.01,754.66,1090.52,753.79,1094.47z M744.44,931.98
				c-1.35-0.04-1.77,0.54-1.36,1.85c0.97,3.05,10.29,8.53,13.72,8.05c1.19-0.17,1.87-0.6,1.26-1.94
				C757.44,938.59,746.06,931.91,744.44,931.98z M762.36,1067.94c1.57-0.16,2.23-0.22,2.89-0.3c1.8-0.22,4.18-0.18,3.59-2.85
				c-0.49-2.19-2.57-1.66-4.16-1.11c-4.06,1.4-8.16,1.14-12.31,0.63c-1.11-0.14-2.55,0.02-2.54,1.63c0.01,1.24,1.23,1.65,2.18,1.52
				C755.8,1066.93,759.55,1066.92,762.36,1067.94z M759.04,1080.49c-0.01-0.11-0.03-0.22-0.04-0.33c-1.16,0-2.32-0.05-3.47,0.02
				c-0.89,0.05-1.68,0.54-1.78,1.44c-0.11,0.99,0.68,1.45,1.57,1.54c3.45,0.35,6.9,0.77,10.36,0.94c1.6,0.08,3.88-0.07,3.72-2.25
				c-0.19-2.51-2.2-2.88-4.5-2.31C762.99,1080.01,761,1080.18,759.04,1080.49z M782.32,950.37c1.81-0.09,3.63-0.13,5.43-0.29
				c1.31-0.12,2.88-0.27,2.69-2.11c-0.17-1.59-1.54-2.03-2.96-1.98c-2.8,0.08-5.61,0.16-8.4,0.4c-1.57,0.14-3.98,0-3.99,2
				c-0.01,2.67,2.68,1.6,4.26,1.93C780.3,950.52,781.33,950.36,782.32,950.37z M743.61,923.63c0.23,1.43,0.14,2.07,0.4,2.29
				c5.17,4.36,11.84,6.2,17.28,10.14c0.61,0.44,1.75,0.13,2.08-0.74c0.37-0.95-0.43-1.47-1.19-1.85c-2.35-1.19-4.73-2.32-7.06-3.56
				C751.47,927.96,747.85,925.95,743.61,923.63z M766.78,977.6c2.55,1.59,15.06,1.75,16.62,0.37c0.43-0.38,0.87-1.12,0.8-1.62
				c-0.12-0.9-0.99-1.39-1.86-1.26C777.27,975.88,771.97,975.51,766.78,977.6z M785.2,963.25c0.12,1.86-0.54,3.32,0.96,4.15
				c0.72,0.4,1.51-0.17,1.54-0.72c0.23-3.84,2.48-7.09,3.05-10.81c0.1-0.62-0.14-1.4-0.94-1.48c-0.38-0.04-1.13,0.32-1.16,0.55
				C788.31,958.23,784.14,960.05,785.2,963.25z M753,961.45c-0.14-2.23-2.09-2.31-3.54-2.92c-2.47-1.03-5.84-4.89-7.15-2.61
				c-1.98,3.47,3.87,3.18,5.31,5.62c0.71,1.19,2.2,1.39,3.58,1.32C752.1,962.81,752.75,962.38,753,961.45z M714.67,1045.24
				c-0.68-2.43-2.68-2.65-4.63-2.73c-1.37-0.05-3.02,0.49-2.81,2.06c0.35,2.63,2.69,3.81,4.93,4.22
				C714.83,1049.27,713.47,1046.34,714.67,1045.24z M748.25,949.22c-1.67-1.87-3.24-4.21-6.11-4.94c-1.36-0.34-2.38,0.48-2.19,1.86
				c0.46,3.23,2.83,4.59,5.76,5.08C746.89,951.41,748.02,951.11,748.25,949.22z M710.06,1075.89c-2.63-5.25-6.44-7.31-9.56-10.03
				c-0.67-0.59-1.65-0.61-2.14,0.21c-0.24,0.4-0.07,1.45,0.29,1.72C701.93,1070.35,704.61,1073.77,710.06,1075.89z M763.17,974.88
				c-0.45-2.04-2.55-2.37-3.91-3.41c-1.55-1.18-3.98-2.52-5.11-0.38c-1.04,1.99,1.89,2.06,3.14,2.88c1.09,0.72,2.2,1.5,3.41,1.94
				C761.56,976.23,762.71,976.26,763.17,974.88z M757.22,895.19c-0.31-2.05-2.6-2.23-3.72-3.59c-0.97-1.18-2.14-3.23-3.8-1.05
				c-1.26,1.67,0.09,3.12,1.54,4.07c1.22,0.8,2.52,1.54,3.89,2.04C756.16,897.04,757.09,896.63,757.22,895.19z M758.24,910.96
				c-2.12-3.14-3.41-5-4.65-6.89c-0.67-1.02-1.42-1.89-2.79-1.65c-1.09,0.19-1.77,0.88-1.95,1.97c-0.27,1.59,0.68,2.46,1.96,3.08
				C752.83,908.43,754.85,909.37,758.24,910.96z M778.92,913.96c2.91,1.75,4.89,3.1,7.01,4.16c1.34,0.68,3.31,1.02,4.03-0.49
				c1.02-2.12-1.36-2.14-2.51-2.66C785.1,913.93,782.66,913.11,778.92,913.96z M754.01,988.15c1.91,3.39,3.79,5.07,6.38,5.91
				c1.07,0.35,2.39,0.88,2.94-0.69c0.46-1.31-0.34-2.31-1.51-2.74C759.68,989.84,757.47,989.23,754.01,988.15z M795.22,931.82
				c0.05-1.22-0.24-2.57-1.36-2.27c-2.4,0.64-4.6,2.12-5.54,4.45c-0.64,1.6,1.12,2.26,2.45,2.21
				C793.59,936.12,794.46,933.89,795.22,931.82z M774.01,1004.66c1.87-0.23,3-1.31,3.04-3.24c0.02-1.55-0.83-2.59-2.48-2.39
				c-1.86,0.22-3.07,1.45-3.24,3.27C771.19,1003.94,772.51,1004.49,774.01,1004.66z M769.7,1069.56c-1.72,0.71-1.98,2.31-1.83,3.99
				c0.11,1.29,0.35,3.02,2.12,2.66c1.92-0.39,2.1-2.36,2.2-3.98C772.28,1070.76,771.54,1069.72,769.7,1069.56z M784.39,933.98
				c-0.57-1.8-2.01-2.14-3.57-2.06c-1.47,0.08-2.75,0.8-2.5,2.44c0.25,1.69,1.83,1.73,3.18,1.65
				C782.82,935.93,784.21,935.76,784.39,933.98z M761.66,1075.4c1.2-0.21,3.14,0.34,3.25-1.3c0.13-1.97-1.95-1.81-3.31-1.95
				c-1.3-0.13-3.04,0.03-3.04,1.65C758.56,1075.54,760.44,1075.13,761.66,1075.4z"/>
			<path class="st0" d="M971.94,1104.33c-8.01,2.71-15.15,1.47-21.91,2.85c-10.62,2.17-21.4,2.2-32.14,3
				c-11.75,0.88-23.25-0.09-34.72-2.18c-2.53-0.46-4.78-2.1-5.5-4.6c-0.84-2.91,1.87-4.29,3.82-5.12c7.45-3.2,14.67-6.99,22.54-9.2
				c2.27-0.64,5.51-0.7,5.03-4.28c-0.42-3.18-3.42-2.76-5.6-2.87c-14.82-0.72-29.55,1.41-44.36,1.41
				c-15.18,0.01-30.06,3.14-45.12,4.45c-1.5,0.13-3.26,0.76-4.69-0.78c1.41-1.72,3.42-1.17,5.07-1.45
				c17.08-2.91,34.21-5.3,51.62-4.77c4.97,0.15,9.91-1.6,14.7-1.92c9.65-0.65,19.53-0.96,29.14,1.31c2.3,0.54,4.56,1.77,4.9,4.42
				c0.36,2.71-2.17,3.47-3.95,4.58c-7.65,4.79-16.49,6.82-24.63,10.47c-1.63,0.73-3.82,0.95-3.22,3.56c0.51,2.23,2.48,2.53,4.3,2.73
				c13.54,1.55,27.1,1.3,40.7,0.92c11.19-0.32,22.09-2.5,33.16-3.53C964.17,1103.04,967.34,1102.61,971.94,1104.33z"/>
			<path class="st0" d="M1128.37,258.55c-1.28,11.85-1.8,23.62-0.83,35.51c-4.19-4.69-3.09-10.48-3.24-15.76
				c-0.14-4.9,0.7-9.89,1.36-14.83c0.91-6.86-0.45-13.86,0.22-20.83c0.32-3.31,1.28-6.1,3.33-8.64c1.57-1.94,3.37-3.3,5.98-2.75
				c2.49,0.53,4.2,2.2,4.76,4.61c0.89,3.87,1.71,7.91,0.47,11.77c-2.92,9.12-0.13,18.13,0.18,27.18c0.06,1.74,1.24,2.63,2.71,3.22
				c1.87,0.75,1.95,2.09,1.15,3.63c-0.89,1.73-2.49,2.1-4.25,1.88c-1.56-0.19-2.45-0.92-1.86-2.7c1.06-3.22-1.33-2.65-3.08-2.74
				c-1.31-0.07-2.98,0.22-2.68-1.88C1133.55,269.78,1129.55,264.55,1128.37,258.55z M1128.18,251.05c0.16,1.47-0.24,3.12,1.59,3.37
				c1.68,0.23,2.16-1.22,2.61-2.48c0.6-1.72,1.17-3.37,2.61-4.69c3.37-3.11-0.43-5.64-1.23-8.18c-0.42-1.33-3.12-0.6-3.59,1.46
				C1129.35,244.07,1128.8,247.67,1128.18,251.05z"/>
			<path class="st0" d="M1152.71,246.95c0.53-6.23,2.4-10.51,5.56-14.2c1.26-1.47,3.16-2.17,4.96-1.07
				c2.42,1.47,4.54,3.14,4.59,6.56c0.08,6.23-1.78,12.16-2.81,18.18c-0.91,5.32-0.61,10.97-3.39,15.99
				c-1.1,1.99-0.19,4.04,2.24,4.64c3.24,0.79,2.96,3.17,1.85,4.99c-1.35,2.2-1.08,6.8-5.65,5.37c-3.44-1.08-4.23,0.39-4.19,3.28
				c0.04,3.25-1.06,6.2-2.32,9.11c-0.37,0.87-0.47,2.25-1.7,2.14c-1.27-0.11-1.79-1.39-2.13-2.49c-0.19-0.59-0.25-1.45,0.05-1.92
				c3.97-6.23,3.4-13.68,5.09-20.48c1.55-6.22,3.65-12.53,3.31-19.38c-0.21-4.19-0.7-9.58,4.6-12.47c1.75-0.96,1.16-3.3,0.65-5.09
				c-0.39-1.38-1.23-2.4-2.8-2.39c-2.04,0.01-2.77,1.42-3.33,3.12C1156.62,242.84,1155.75,244.77,1152.71,246.95z"/>
			<path class="st0" d="M927.86,1051.47c6.95-2.23,9.61-1.36,12.15,4.19c1.11,2.43,2.74,3.35,5.19,3.98
				c11.61,3,23.19,0.4,34.71-0.32c12.94-0.81,25.83-1.98,38.82-2.09c9.79-0.08,19.57-1.72,28.81,2.37
				c-6.26,2.27-12.86-0.32-19.39-0.2c-21.27,0.37-42.3,3.87-63.54,4.11c-6.95,0.08-13.99,1.12-20.85-0.68
				c-3.82-1-7.74-2.06-8.68-7.04C934.41,1052.26,930.15,1053.83,927.86,1051.47z"/>
			<path class="st0" d="M751.72,300.28c-6.54-8.96-12.04-18.58-17.98-27.92c-0.98-1.54-2.09-2.99-3.19-4.45
				c-2.42-3.24-1.4-5.95,1.36-8.28c2.66-2.25,5.75-1.75,7.56,0.62c4.27,5.58,11.22,9.16,12.59,16.98c0.37,2.1,2.52,3.73,4.55,2.53
				c3.03-1.78,3.44-0.11,3.8,2.09c0.32,1.96,0.59,3.95,0.66,5.93c0.05,1.46,0.09,3.29-1.98,3.43c-1.76,0.12-2.29-1.42-3.1-2.75
				c-4.05-6.63-7.67-13.62-14.12-18.41c-1.2-0.89-2.61-2.2-4.02-1.3c-1.91,1.23-0.51,3.03,0.1,4.45c1.98,4.62,5.25,8.45,7.9,12.65
				c2.77,4.39,7.71,8.16,5.77,14.52C751.61,300.38,751.72,300.28,751.72,300.28z"/>
			<path class="st0" d="M795.54,773.36c1.8,0.45,2.18,2.05,2.81,3.35c3.62,7.48,5.59,15.73,10,22.82
				c9.12,14.65,16.88,30.22,28.56,43.18c1.99,2.21,4.06,3.79,7.31,3.43c2.08-0.23,3.82,0.81,3.26,3.2c-0.52,2.21-2.44,2-4.07,1.28
				c-4.13-1.81-7.94-4.08-11.18-7.35c-7.01-7.09-10.88-16.27-16.57-24.2c-8.35-11.64-13.89-24.59-19.49-37.57
				c-0.78-1.82-1.17-3.82-1.65-5.75C794.26,774.74,794.33,773.75,795.54,773.36z"/>
			<path class="st0" d="M789.45,1067.73c1.06-0.91,1.3-1.29,1.55-1.3c12.28-0.39,23.96-5.28,36.44-4.64
				c5.97,0.31,11.56-2.68,17.36-3.98c13.24-2.97,26.75-3.15,40.05-5.26c10.51-1.67,21.25-0.97,31.74-2.97
				c0.95-0.18,2,0.01,2.97,0.21c0.94,0.19,2.25,0.32,2.3,1.52c0.08,1.71-1.55,1.51-2.58,1.6c-5.77,0.47-11.58,0.57-17.36,0.91
				c-21.49,1.28-42.61,4.88-63.79,8.32c-10.65,1.72-21.41,2.73-32.11,4.15c-1.96,0.26-3.87,0.91-5.81,1.36
				C796.85,1068.41,793.5,1069.16,789.45,1067.73z"/>
			<path class="st0" d="M775.02,240.87c-1.58-3.26-1.77-6.41-0.47-9.25c0.96-2.1,2.43-5.29,5.24-4.48c2.84,0.82,5.75,2.66,6.98,5.83
				c0.47,1.22,0.64,2.6,0.69,3.92c0.5,11.83,3.11,23.4,4.25,35.15c0.19,1.97-0.33,4.12,3.18,3.25c2.63-0.65,2.45,1.6,1.9,3.26
				c-1.26,3.77-4.88,4.89-7.96,6.32c-1.8,0.84-1.65-1.16-1.36-2.17c1.5-5.29-0.66-10.03-1.74-15.03c-0.96-4.47-0.98-9.2-0.99-13.82
				c-0.01-6.76-2.23-13.11-3.2-19.68c-0.2-1.34-0.54-2.79-2.33-2.68c-1.71,0.11-2.53,1.29-3.02,2.88
				C775.57,236.35,776.93,238.63,775.02,240.87z"/>
			<path class="st0" d="M1168.75,274.63c-1.19-4.58,0.89-7.18,1.73-9.9c1.86-6.06,3-12.2,3.87-18.42c0.66-4.72,4.17-7.31,7.93-8.84
				c3.41-1.39,5.42,1.59,6.68,4.49c1.49,3.45,0.9,7.44-0.46,10.23c-3.58,7.32-5.59,15.09-8.16,22.71c-0.35,1.02-0.41,2.64-2.13,2.05
				c-1.26-0.43-1.58-1.81-1.35-2.95c1.14-5.59,1.81-11.27,3.62-16.73c0.61-1.82,3.25-3.12,3.11-3.45c-1.58-3.59,0.46-7.44-0.61-10.6
				c-0.71-2.09-2.52,0.68-2.62,1.68c-0.62,6.5-5.1,11.39-6.98,17.35C1172.19,266.01,1170.63,269.65,1168.75,274.63z"/>
			<path class="st0" d="M882.95,812.77c-8.07-0.04-15.49-2.22-23.1-2.98c-5.84-0.59-10.37-4.24-14.98-7.54
				c-2.71-1.94-5.42-3.86-8.09-5.86c-1.07-0.8-3.45-1.14-2.26-3.09c1-1.63,2.76-0.61,3.92,0.34c3.91,3.18,8.44,5.28,12.8,7.72
				c5.18,2.89,10.45,4.51,16.51,4.82c9.25,0.48,18.4,3.17,27.76,0.96c2.75-0.65,5.5-1.26,8.27-1.8c0.94-0.19,2.19-0.45,2.63,0.7
				c0.5,1.3-0.83,1.59-1.65,2.01C897.79,811.59,890.41,813.24,882.95,812.77z"/>
			<path class="st0" d="M753.35,260.67c-5.43-7.94-5.49-15.92-3.75-23.94c0.8-3.69,5-4.51,8.01-2.11c1.88,1.5,3.51,3.44,3.81,5.71
				c1.38,10.26,5.94,19.67,7.65,29.82c0.55,3.25,1.89,6.05,4.97,7.6c1.78,0.9,2.51,2.1,1.88,4.01c-0.49,1.49-1.33,2.78-3,3.01
				c-1.85,0.27-2.48-1.22-3.27-2.53c-2.93-4.86-4.79-9.83-5.48-15.71c-0.74-6.28-3.61-12.35-5.89-18.39
				c-0.77-2.03-1.71-3.87-1.65-6.13c0.05-1.74,0.28-4.28-2.24-4.18c-2.2,0.09-4.34,1.94-3.99,4.32c0.49,3.37-0.05,7.03,2.19,10.07
				C754.25,254.5,754.83,257,753.35,260.67z"/>
			<path class="st0" d="M1034.37,214.99c-0.18,1.7,0.32,3.57-1.44,3.71c-1.81,0.14-1.37-1.64-1.67-2.93
				c-4.24-18.2-9.43-35.83-27.78-45.47c-2.89-1.52-5.94-2.02-9.03-2.6c-1.02-0.19-2.19-0.53-2.24-1.62
				c-0.08-1.75,1.56-1.46,2.58-1.51c3.57-0.16,6.99,0.62,10.06,2.44c10.42,6.21,19.93,13.24,23.3,25.87
				C1030.14,200.41,1033.15,207.67,1034.37,214.99z"/>
			<path class="st0" d="M923.9,238.17c0.84,7.58,0.48,14.61,2.76,21.34c0.44,1.3,0.12,3-0.29,4.39c-0.51,1.71-2.12,2.09-2.85,0.43
				c-1.37-3.13-3.26-5.67-5.89-7.83c-0.89-0.73-0.57-2.24,0-3.3c1.57-2.92,1.16-6.18,1.61-9.28c0.36-2.49,0.03-4.54-3.23-5.07
				c-3.1-0.5-3.24-2.74-1.51-4.77c2-2.34,5.27-2.64,7.93-3.92c1.48-0.71,1.82,1.07,1.81,2.21C924.22,234.54,924,236.69,923.9,238.17
				z"/>
			<path class="st0" d="M1011.24,260.89c1.39,1.37,2.41-0.11,3.57-0.4c1.85-0.47,3.24,0.46,4.36,1.73c0.97,1.11,0.96,2.51,0.23,3.72
				c-1,1.66-2.61,1.1-4.02,0.73c-1.49-0.39-3.29-0.88-4.27,0.26c-3.4,3.96-9.16,0.72-12.62,4.36c-0.5,0.52-1.61,0.12-2.09-0.73
				c-0.38-0.67-0.14-1.3,0.37-1.79c0.95-0.92,1.95-1.79,2.91-2.7c3.22-3.07,8-5.03,6.47-11.17c-0.41-1.63,1.16-4.31,3.31-5.14
				c1.74-0.67,4.69-1.56,5.43,0.33c1.03,2.66,0.19,5.83-1.34,8.47C1013,259.5,1011.26,259.34,1011.24,260.89z"/>
			<path class="st0" d="M1085.82,1106.3c3.89-1.55,6.72-1.18,9.46-1.26c19.79-0.56,39.58-1.08,59.37-1.59
				c1.33-0.03,2.68-0.06,3.98,0.17c1.44,0.25,2.52,1.17,2.12,2.8c-0.33,1.34-1.53,1.67-2.79,1.51c-20.45-2.57-40.89,0.42-61.33,0.05
				C1093.43,1107.91,1090.05,1108.53,1085.82,1106.3z"/>
			<path class="st0" d="M938.93,724.02c-5.74-3.57-10.49-6.47-15.19-9.46c-5.03-3.2-9.56-7.13-14.98-9.77
				c-7.25-3.52-11.8-10.03-16.85-15.94c-0.87-1.01-1.9-2.47-0.63-3.5c1.63-1.32,2.19,0.75,2.9,1.64
				c9.92,12.38,24.34,18.72,36.97,27.43C934.43,716.68,937.21,718.9,938.93,724.02z"/>
			<path class="st0" d="M782.41,872.58c-7.09-6.19-12.29-13.26-16.91-20.56c-3.95-6.25-7.68-12.78-10.38-19.76
				c-0.48-1.24-1.03-2.46-1.36-3.74c-0.44-1.72-1.34-4.08,0.96-4.7c1.81-0.49,1.71,1.96,2.24,3.26
				c6.15,14.95,14.52,28.6,24.28,41.43C781.95,869.42,783,870.12,782.41,872.58z"/>
			<path class="st0" d="M956.08,247.12c7.64,0.93,14.46,2.9,17.79,10.84c1.18,2.81,3.45,2.08,5.28,0.37c1.6-1.49,3.11-3.03,5.43-3.3
				c1.15-0.13,2.47-0.45,2.97,1c0.45,1.3-0.39,2.47-1.42,2.89c-6.1,2.48-12.16,5.9-18.89,1.64c-1.24-0.78-2.99-1.09-2.03-3.21
				c1.51-3.34-0.99-4.25-3.24-4.75C958.88,251.9,957.35,249.78,956.08,247.12z"/>
			<path class="st0" d="M845.99,861.19c-8.35,1.35-16.69,1.02-24.87-0.96c-3.62-0.87-6.12-3.88-8.31-6.89
				c-0.55-0.76-1.72-1.47-0.84-2.5c0.85-1,1.92-0.22,2.64,0.39c4.8,4.1,10.95,4.51,16.63,6.16c4.28,1.24,9.05-0.63,13.16,1.97
				C845.08,859.79,846.04,859.85,845.99,861.19z"/>
			<path class="st0" d="M1076.87,725.08c-4.84,9.47-8.96,19.45-18.06,25.99c-5.61,4.03-9.55,10.32-16.65,12.35
				c-0.95,0.27-1.82,0.84-2.78,1.09c-1.13,0.3-2.5,0.56-2.91-0.96c-0.32-1.22,0.83-1.69,1.78-1.97
				c11.46-3.32,19.02-11.72,26.34-20.37C1068.95,736.08,1073.28,730.88,1076.87,725.08z"/>
			<path class="st0" d="M969.46,165.67c-15.5,4.87-29.02,12.3-36.64,27.66C935.39,178.79,949.88,165.59,969.46,165.67z"/>
			<path class="st0" d="M817.39,894.38c-7.19-0.78-14.67,0.46-21.5-2.96c-0.74-0.37-1.61-0.47-2.33-0.87
				c-2.09-1.16-5.75-2.25-4.57-4.82c1.24-2.7,4.04,0.02,6.03,0.8c6.23,2.46,12.66,3.92,19.32,4.47c1.16,0.1,2.33,0.14,3.46,0.38
				c1.15,0.24,2.55,0.74,2.39,2.08C819.99,895.06,818.52,894.65,817.39,894.38z"/>
			<path class="st0" d="M1190.63,857.93c-0.25,3.62-2.99,4.66-4.9,5.8c-12.15,7.29-24.26,14.62-35.88,22.75
				c-0.41,0.29-0.77,0.67-1.22,0.86c-1.49,0.64-3.13,2.88-4.28,1.93c-2.02-1.68,0.38-2.21,1.59-2.78c0.59-0.28,1.3-0.32,1.91-0.57
				c3.61-1.49,6.31-4.33,9.19-6.75c2.84-2.38,5.68-4.8,9.06-6.03c8.73-3.2,14.95-10.07,22.66-14.73
				C1189.15,858.18,1189.67,858.17,1190.63,857.93z"/>
			<path class="st0" d="M1142.14,293.51c-0.58,3.09-0.24,7.32-4.2,9.89c-1.57,1.02-1.82,2.68-1.24,4.45c0.49,1.5,0.36,3-0.33,4.37
				c-0.58,1.16-0.13,3.7-2.37,2.96c-2.29-0.76-1.46-2.79-0.35-4.07c2.46-2.85-0.28-5.9,0.51-9.02c0.56-2.21,0.99-4.29,2.33-6.11
				c0.9-1.22,1.98-2.28,1.25-3.99c-0.51-1.2-1.29-2.46-0.2-3.71c0.68-0.78,1.54-0.37,2.27,0.04
				C1141.55,289.28,1142.59,290.66,1142.14,293.51z"/>
			<path class="st0" d="M1054.87,1096.31c2.25-0.35,4.49-0.88,6.76-1.01c2.69-0.16,5.11,0.72,5.66,3.72
				c0.71,3.9,3.27,4.45,6.58,4.38c3.03-0.06,6.2-0.65,9.01,1.55c-5.65,0.84-11.28,1.27-16.93,0.23c-1.2-0.22-2.46-1.16-2.49-2.21
				C1063.28,1097.1,1059.3,1096.61,1054.87,1096.31z"/>
			<path class="st0" d="M1026.89,222.13c0.17,5.76-5.09,7.8-6.79,11.88c-0.85,2.03-2.85,3.57-4.25,5.39
				c-1.02,1.32-2.07,3.12-3.89,1.68c-1.77-1.4-1.1-3.15,0.34-4.7C1016.72,231.59,1020.99,226.64,1026.89,222.13z"/>
			<path class="st0" d="M1145.93,271.84c0.06-3.35,0.86-6.42,2.05-9.36c1.43-3.55,3.2-6.96,3.06-10.97
				c-0.04-1.09,0.14-2.63,1.83-2.28c1.17,0.25,1.25,1.58,0.98,2.51c-2.12,7.25-2.92,14.75-4.25,22.15
				c-0.24,1.34-1.13,2.92-2.63,2.28C1145.07,275.36,1146.28,273.22,1145.93,271.84z"/>
			<path class="st0" d="M1134.73,862.06c-9.84,2.22-18.12,1.61-26.03-2.63c-0.81-0.43-1.95-0.91-1.66-2.16
				c0.23-0.98,1.31-1.34,1.99-0.96c7.29,4.06,15.43,3.14,23.24,4.12C1132.7,860.5,1133.07,860.95,1134.73,862.06z"/>
			<path class="st0" d="M944.7,243.24c1.95,0.17,4.93-0.83,6.4,2.26c0.42,0.88-6.35,6.34-7.77,6.41c-0.64,0.03-6.61-5.78-6.58-6.4
				C936.85,243.78,939.04,243.1,944.7,243.24z"/>
			<path class="st0" d="M1092.57,773.87c-7.31,5.46-14.4,9.45-22.02,12.46c-1.2,0.48-2.59,0.56-3.9,0.67
				c-0.97,0.08-2.19,0.06-2.49-1.11c-0.39-1.55,0.97-1.96,2.04-2.28c3.15-0.96,6.38-1.58,9.55-2.49
				C1081.48,779.48,1085.36,774.07,1092.57,773.87z"/>
			<path class="st0" d="M980.23,280.24c0.78-4.39-2.84-8.9,0.48-13.32c1.12-1.49,1.81-3.18,3.84-3.43c0.5-0.06,1.38,0.42,1.57,0.87
				c0.82,2.03-0.47,3.44-1.68,4.84c-2.39,2.77-3.86,5.42-0.09,8.42c1.52,1.21,0.9,3.07-0.21,4.48c-0.73,0.93-1.68,1.76-2.98,1.17
				C979.84,282.66,980.02,281.39,980.23,280.24z"/>
			<path class="st0" d="M1188.72,274.03c1.91,2.24,1.32,3.41,0.43,4.46c-3.01,3.5-6.05,6.98-9.1,10.44
				c-1.06,1.2-2.35,2.03-3.86,0.84c-1.51-1.19-1.7-2.79-0.7-4.42c0.6-0.98,1.23-2.44,2.1-2.66
				C1182.48,281.47,1186.69,279.36,1188.72,274.03z"/>
			<path class="st0" d="M924.07,225.22c-2.87-4.92,0.57-19.18,6-23.64C927.96,209.9,926.07,217.36,924.07,225.22z"/>
			<path class="st0" d="M1161.89,327.35c-1.29,1.95-0.26,4.01-0.02,6.1c0.15,1.38-0.28,2.65-1.58,3.36
				c-1.13,0.62-2.24,0.32-3.18-0.51c-1.26-1.12-0.95-2.38-0.1-3.52c1.39-1.86,0.26-3.81,0.41-5.71c0.13-1.66,1.23-2.8,2.92-2.76
				C1162.26,324.36,1162.06,325.88,1161.89,327.35z"/>
			<path class="st0" d="M996.11,1100.57c9.36-0.52,18.73-1.03,28.09-1.54c0.03,0.47,0.05,0.95,0.08,1.42
				C1014.9,1100.8,1005.59,1102.22,996.11,1100.57z"/>
			<path class="st0" d="M1002.5,245.51c2.43-0.08,3.36,0.17,3.81,1.25c0.42,1.03,0.18,2.02-0.7,2.64c-1.21,0.85-2.46,1.71-3.82,2.24
				c-1.85,0.72-3.93,3.89-5.45,1.73c-1.69-2.4,1.52-4.06,3.28-5.63C1000.84,246.63,1002.07,245.51,1002.5,245.51z"/>
			<path class="st0" d="M782.66,1088.99c6.05-0.28,12.13,0.16,17.99-1.78c0.96-0.32,2.08-0.37,2.55,0.78
				c0.49,1.18-0.38,2.14-1.34,2.2C795.43,1090.55,788.88,1092.34,782.66,1088.99z"/>
			<path class="st0" d="M1099.15,780.79c6.48-3.8,12.95-7.6,19.57-11.47C1116.96,773.61,1112.97,776.39,1099.15,780.79z"/>
			<path class="st0" d="M1047.86,678.01c-0.91,7.1-7.16,10.52-10.91,15.67C1039.97,688.02,1043.21,682.53,1047.86,678.01z"/>
			<path class="st0" d="M1065.8,765.05c1.67,0.11,3.28,0.42,4.53,1.63c1.1,1.07,1.17,2.35,0.39,3.59c-0.91,1.45-2.12,1.35-3.33,0.36
				c-1.02-0.83-2-1.65-3.4-1.83c-1.26-0.16-3.5,1.23-3.5-1.13c0-1.86,2.32-1.96,3.87-2.42
				C1064.8,765.12,1065.31,765.11,1065.8,765.05z"/>
			<path class="st0" d="M1088.62,709.09c-2.08,2.75-4.12,5.51-6.24,8.2c-0.18,0.23-1.03,0.22-1.3-0.01
				c-0.29-0.24-0.49-1.02-0.32-1.3c1.77-2.76,3.59-5.49,5.48-8.17c0.39-0.56,1.21-0.64,1.76-0.14
				C1088.32,707.96,1088.38,708.51,1088.62,709.09z"/>
			<path class="st0" d="M1146.31,751c-2.14-0.42-2.47-2.03-2.42-3.77c0.04-1.82,0.75-3.44,2.76-3.52c1.89-0.07,2.46,1.51,2.43,3.12
				C1149.03,748.72,1148.51,750.45,1146.31,751z"/>
			<path class="st0" d="M786.25,305.31c1.48-1.58-0.16-4.34,2.08-5.67c0.26-0.16,1.22,0.27,1.21,0.33
				c-0.39,2.51-0.83,5.01-1.36,7.49c-0.05,0.24-0.87,0.58-1.15,0.46C785.86,307.41,786.15,306.35,786.25,305.31z"/>
			<path class="st0" d="M1170.14,313.88c-0.6,3.52-2.5,4.92-4.78,5.85c-0.63,0.25-1.4-0.61-1.16-1.18
				C1165.19,316.15,1167.27,315.02,1170.14,313.88z"/>
			<path class="st0" d="M984.57,300.91c-0.34,1.38-1.21,2.1-2.5,1.89c-1.83-0.3-2.05-1.96-2.32-3.37c-0.22-1.11,0.32-2.15,1.57-1.76
				C982.89,298.14,984.21,299.15,984.57,300.91z"/>
			<path class="st0" d="M1016.3,219.31c1.01,1.17,1.42,1.45,1.38,1.62c-0.59,2.3-0.48,4.95-2.89,6.39c-0.27,0.16-1.2-0.12-1.25-0.32
				C1012.81,223.78,1016.13,222.63,1016.3,219.31z"/>
			<path class="st0" d="M1177.01,825.39c-1.03,3.45-1.79,5.29-4.12,5.87c-0.25,0.06-0.98-0.56-0.96-0.85
				C1172.01,827.86,1173.89,827.03,1177.01,825.39z"/>
			<path class="st0" d="M1013.12,284.35c-1.08-0.03-1.98-0.36-1.9-1.63c0.11-1.72,1.21-2.59,2.83-2.74c1.12-0.1,1.89,0.5,1.86,1.68
				C1015.87,283.42,1014.81,284.24,1013.12,284.35z"/>
			<path class="st0" d="M836.82,399.88c3.34,1.86,4.16,5.43,6.23,8.13c1.51,1.97,2.68,4.22,4.24,6.14c0.85,1.04,1.98,2.84,3.65,1.67
				c1.73-1.22,0.18-2.51-0.43-3.85c-4.6-9.98-8.17-20.3-10.35-31.09c-0.86-4.24-2.03-8.41-2.93-12.64c-0.26-1.25-0.4-2.97,1.41-3.18
				c1.47-0.17,1.74,1.36,1.96,2.47c2.39,11.73,5.5,23.28,8.98,34.73c1.93,6.36,3.44,12.85,7.64,18.27c0.68,0.88,1.68,2.06,0.77,3.14
				c-1.16,1.4-2.28,0.12-3.48-0.42C844.34,418.62,839.52,410.02,836.82,399.88z"/>
			<path class="st0" d="M1089.25,419.11c0.09-7.57,1.66-14.53,3.12-21.37c1.18-5.48,1.66-10.74,1.01-16.22
				c-0.17-1.44-0.41-3.5,1.58-3.55c2.07-0.05,1.76,2.08,1.66,3.48c-0.45,6.27-0.57,12.56-2.04,18.76
				c-1.27,5.39-0.46,11.19-3.06,16.37C1091.11,417.44,1091.14,418.53,1089.25,419.11z"/>
			<path class="st0" d="M996.38,605.27c-2.6,2.32-5.6,1.07-7.84,2.28c-9.41,5.07-19.27,1.44-28.94,1.51
				c-1.08,0.01-2.67-0.07-2.39-1.72c0.2-1.2,1.58-0.77,2.53-0.87c9.06-0.95,18.09,1.16,27.2,0.04
				C989.85,606.14,992.62,604.01,996.38,605.27z"/>
			<path class="st0" d="M794.26,397.42c-2.08-5.4-4.73-10.6-3.45-16.58c0.17-0.8,0.27-1.66,1.18-2c0.81-0.3,1.58,0.41,1.5,0.85
				C792.52,385.68,796.81,391.35,794.26,397.42z"/>
			<path class="st0" d="M1029.5,613.38c-6.88,3.56-13.91,5.14-22.49,1.01c8.28-0.36,15.41-0.68,22.57-0.98
				C1029.59,613.42,1029.5,613.38,1029.5,613.38z"/>
			<path class="st0" d="M783.23,373.03c0-0.76-0.14-1.2,0.02-1.39c1.29-1.54,1.56-4.24,4.39-4.03c0.29,0.02,0.85,0.81,0.76,1.06
				C787.58,371.15,785.85,372.51,783.23,373.03z"/>
			<path class="st0" d="M798.43,403.78c-0.04,1.37-0.24,2.59-1.49,2.43c-1.99-0.25-1.76-2.08-1.89-3.49
				c-0.07-0.78-0.08-1.95,1.01-1.88C797.98,400.96,797.95,402.78,798.43,403.78z"/>
		</g>
	</g>
</g>
</svg>
