<?xml version="1.0" encoding="utf-8"?>
<!-- Generator: Adobe Illustrator 28.0.0, SVG Export Plug-In . SVG Version: 6.00 Build 0)  -->
<svg version="1.1" id="Layer_1" xmlns="http://www.w3.org/2000/svg" xmlns:xlink="http://www.w3.org/1999/xlink" x="0px" y="0px"
	 viewBox="0 0 1920 1080" style="enable-background:new 0 0 1920 1080;" xml:space="preserve">
<style type="text/css">
	.st0{fill:none;stroke:#231F20;}
</style>
<g>
	<g>
		<g>
			<path d="M887.5,742.94c2.02-1.27,2.93,0.23,4.11,1.03c11.55,7.93,23.56,15.03,37.44,18c3.97,0.85,8.24,0.67,12.34,0.4
				c2.23-0.14,4.38-2.19,4.03-4.42c-1.2-7.68,1.7-14.82,2.32-22.24c0.48-5.71-0.69-6.92-6.02-4.43c-11.9,5.57-23.94,5.56-36.53,2.8
				c-6.48-1.42-13.07-2.2-19.33-4.62c-6.16-2.39-11.33-6.22-16.21-10.53c-1.15-1.01-2.42-2.38-1.32-3.85
				c1.45-1.92,2.99-0.4,4.25,0.61c15.08,12.03,32.92,15.53,51.5,16.1c8.28,0.25,15.75-3.73,23.3-6.73c2-0.79,3.86-1.93,5.84-2.79
				c1.42-0.61,2.99-1.08,2.53-3.06c-0.4-1.72-1.82-2.11-3.45-2.3c-7.6-0.87-15.23-1.64-22.79-2.81
				c-14.44-2.24-28.14-6.82-40.34-14.97c-10.08-6.73-20.39-13.34-27.03-24.03c-1.01-1.62-2.56-2.81-4.55-2.59
				c-2.26,0.25-2.42,2.37-3.11,4.06c-4.35,10.68-2.7,20.91,1.05,31.51c2.46,6.95,2.87,14.64,3.55,22.17
				c-2.2-3.3-4.32-6.46-5.36-10.23c-1.82-6.57-3.88-13.07-5.66-19.65c-1.1-4.06-3.2-4.19-6.17-2c-0.67,0.49-1.35,1.01-1.9,1.62
				c-11.36,12.63-25.66,22.1-37.08,34.66c-1.29,1.42-3.58,2.62-2.42,4.96c1.37,2.75,3.41,0.7,5.18,0.24
				c1.11-0.29,2.46-0.88,2.93,0.71c0.43,1.45-0.84,2.04-1.97,2.39c-1.1,0.34-2.26,0.66-3.41,0.69c-13.97,0.3-23.62,7.03-30.22,19.22
				c-7.27,13.44-17.1,24.91-28.83,34.77c-7.39,6.21-14.5,12.75-21.72,19.15c-1.13,1-2.24,1.99-4.37,1.84
				c1.15-4.25,4.38-6.65,7.25-9.1c10.9-9.29,21.28-19.09,30.96-29.66c4.21-4.59,7.92-9.57,10.44-15.18
				c3.38-7.53,8.35-13.53,14.8-18.47c0.53-0.4,0.99-1.13,1.56-1.21c9.17-1.26,12.95-9.28,18.31-15.03
				c6.51-6.99,14.12-12.65,20.98-19.18c6.98-6.65,13.9-13.38,20.78-20.13c4.25-4.17,5.26-10.03,6.99-15.3
				c1.29-3.93-2.47-3.9-5.21-3.21c-4.7,1.18-9.2,1-12.4-2.91c-4.74-5.79-7.23-12.55-7.07-21.69c3.55,4.05,4.43,8.07,6.06,11.53
				c1.62,3.44,3.81,6.24,6.5,8.73c2.09,1.92,4.43,2.14,6.8,0.35c2.31-1.74,1.63-3.82,0.51-5.78c-1.39-2.42-1.69-5.02-1.66-7.71
				c0.02-1.35,0.23-3.26,1.64-3.3c3.37-0.11,3.99-2.78,5.45-4.81c1.26-1.76,3.17-3.26,1.27-5.64c-1.34-1.68-2.6-3.63-5.26-3.02
				c-2.42,0.55-4.23,1.81-5.06,4.3c-2.31,6.87-2.33,6.86-8.07,2.24c-1.3-1.04-2.66-2.01-4.01-2.99c-2.31-1.67-4.29-2.31-4.77,1.6
				c-0.12,0.96-0.17,2.2-1.54,2.12c-1.1-0.06-1.59-1.11-2.04-2c-0.7-1.4-0.88-2.92-0.4-4.38c1.24-3.82,2.39-7.61,2.02-11.72
				c-0.12-1.4,0.81-2.5,1.9-3.36c0.67-0.53,1.45-0.87,2.31-0.51c1.05,0.44,0.78,1.31,0.58,2.12c-0.23,0.97-0.74,1.96-0.67,2.9
				c0.21,2.78-0.03,5.94,2.5,7.78c2.38,1.72,4.38-0.59,6.38-1.54c4.11-1.94,8.25-3.61,12.89-3.5c2.85,0.07,5.09-0.8,4.99-4.12
				c-0.09-3.05-2.19-4.52-4.96-4.54c-3.31-0.02-6.64,0.34-9.94,0.72c-4.37,0.51-6.77,0.22-8.27-5.46
				c-1.72-6.53-5.37-12.82-8.61-18.95c-3.62-6.84-4.34-14.54-7.56-21.45c-0.75-1.62-0.6-4.18,0.12-5.89
				c3.93-9.34,1.12-18.98,1.58-28.46c0.13-2.71,0.03-5.45,1.57-7.7c5.63-8.24,6.64-17.98,9.21-27.23
				c1.99-7.14,4.27-14.21,6.84-21.16c1.79-4.83,0.91-9.71,0.39-14.34c-1.24-11.17,0.41-21.88,3.09-32.59
				c0.93-3.72,1.62-7.48,1.61-11.35c-0.01-2.21,0.61-4.27,2.73-5.5c1.47,0.49,0.94,1.61,0.82,2.51
				c-1.78,13.39-2.42,26.82-0.96,40.28c0.24,2.18,0.47,3.75-2.4,4.41c-3.22,0.75-2.29,3.72-2,5.85c0.27,1.93,1.15,3.82,2.01,5.61
				c1.34,2.79,1.6,4.5-1.47,6.99c-3.37,2.74-3.78,7.95-5.05,12.1c-1.98,6.49-3.2,13.23-5.02,19.81c-1.92,6.97-0.73,9.74,5.6,13.04
				c4.57,2.37,8.46,5.93,13.46,7.51c1.86,0.59,4.02,2.15,5.53,0.29c1.85-2.28-1.09-3.33-2.11-4.83c-0.45-0.66-1.2-1.17-0.64-2.44
				c3.66-0.46,5.01,3.25,7.63,4.64c5.63,3,12.74,2.48,16.98-2c1.73-1.83,1.09-3.68-1.05-4.24c-2.59-0.68-5.29-0.12-7.56,1.52
				c-1.14,0.82-0.44,3.99-3.11,2.75c-2.41-1.12-5.64-1.51-6.22-5.87c4.35,2.61,8-1.15,12.05-0.31c3.07,0.64,3.4-3.09,6.37-3.75
				c3.38-0.75,1.01-4.17-0.57-6.36c-1.78-2.47-0.02-3.96,1.78-5.33c4.69-3.58,4.88-12.07,0.33-16.05c-1.87-1.64-3.82-3.21-5.67-4.88
				c-1.18-1.08-2.05-2.62-0.99-4c3.01-3.92-0.12-5.88-2.54-7.61c-2-1.43-3.27-3.26-4.6-5.15c-0.65-0.92-1.7-1.96-0.47-3.04
				c1.11-0.98,2.15-0.24,3.01,0.67c1.05,1.11,1.64,3.54,3.72,2.26c1.62-0.99,0.84-3.06,0.63-4.66c-0.84-6.3-1.26-12.61-0.38-18.93
				c0.27-1.96,0.8-3.9,1.34-5.81c0.26-0.93,0.72-2.15,1.9-1.94c1.63,0.29,1.36,1.88,1.03,2.85c-1.67,4.84-0.18,9.97-1.52,14.85
				c-0.42,1.51-0.39,3.79,1.61,4.2c2.03,0.42,1.84-1.89,2.39-3.16c1.21-2.8,2.39-5.61,3.86-9.08c1.74,4-0.28,6.75-1.14,9.6
				c-0.65,2.16-2.7,4.77,0.34,6.02c2.29,0.94,3.86-1.8,4.57-3.71c4.05-10.81,13.03-17.46,20.78-25.16c0.82-0.82,1.77-1.53,2.74-2.16
				c1.13-0.73,2.53-1.56,3.44,0.07c0.78,1.4-0.64,1.93-1.61,2.58c-10.74,7.22-18.25,17.22-24.66,28.27
				c-2.85,4.91-2.58,10.23-3.17,15.47c-0.21,1.84-0.15,3.56-1.87,4.88c-3.24,2.49-1.97,4.75,0.99,6.01
				c4.13,1.76,4.31,4.17,3.49,8.34c-1.03,5.22-2.76,10.68-0.37,16.18c0.86,1.97,0.09,4.27-0.11,6.43
				c-0.82,8.91-0.17,17.61,4.08,25.72c1.43,2.73,2.44,5.24,0.85,8.45c-1.3,2.62,0.12,5.18,1.91,7.32
				c4.81,5.78,10.09,10.96,17.12,14.06c1.17,0.51,2.37,1.27,2.53,4.08c-5.81-3.51-11.09-6.57-16.24-9.86
				c-1.8-1.15-3.22-2.87-4.87-4.28c-0.92-0.79-2.04-1.41-3.14-0.46c-1.16,1-0.31,2.06,0.16,3.14c2.02,4.64,6.08,7.33,9.78,10.36
				c0.58,0.47,0.99,1.15,1.74,2.06c-12.13-2.2-16.33-7.8-14.66-18.68c0.91-5.89-0.86-11.58-1.64-17.34
				c-0.31-2.28-1.32-4.43-1.04-6.86c0.2-1.67-0.64-2.92-2.43-3.22c-1.81-0.3-2.78,0.83-3.45,2.28c-0.65,1.42-0.81,2.96-0.18,4.38
				c4.25,9.61,2.11,19.81,2,29.63c-0.05,5.08-2.26,10.63-3.27,16c-1.74,9.28-2.06,18.56,2.66,27.25c1.25,2.31,2.17,5.01,5.85,1.95
				c3.2-2.66,6.35,0.11,7.82,2.7c4.36,7.7,12.41,9.57,19.51,11.79c12.68,3.95,25.61,6.98,37.94,12.17
				c8.15,3.43,17.13,4.22,25.87,5.27c6.76,0.81,13.61,1.42,20.31,2.4c17.5,2.55,34.28-0.68,50.73-5.5c8.99-2.64,17.57-7,25.56-12.28
				c4.67-3.08,9.33-6.46,15.09-7.47c3.04-0.53,4.62-2.46,5.03-5.42c0.89-6.55-0.23-12.94-1.66-19.29c-0.25-1.13-0.88-2.35-2.32-2.18
				c-1.37,0.17-1.77,1.44-1.98,2.6c-1.06,5.84-5.02,10.05-8.25,14.65c-0.72,1.03-1.9,2.48-3.26,1.55c-1.44-0.99-0.3-2.49,0.4-3.52
				c2.91-4.3,5.22-8.85,6.85-13.82c1.28-3.9,2.31-7.61,0.62-11.63c-0.76-1.82,0.13-3.58,0.73-5.32c0.55-1.62,0.99-3.48-0.68-4.56
				c-1.82-1.17-3.19,0.43-4.22,1.63c-2.75,3.2-5.76,5.91-10.66,7.01c4.55-5.3,8.65-10.22,12.91-15c2.27-2.55,4.09-5.25,4.55-8.69
				c0.2-1.46,0.73-3.2-1-4c-1.8-0.84-3.17,0.24-4.22,1.7c-2.85,3.93-6.14,7.31-11.5,9.31c0.56-3.73,3.21-5.24,5.26-6.75
				c4.42-3.23,7.94-7.58,9.93-12.14c1.46-3.35,2.79-6.81,4.47-10.17c1.82-3.64-1.55-3.85-4.6-4.34c2.85-2.92,3.43-6.11,2.38-9.71
				c-0.3-1.03-0.33-2.62,0.27-3.34c2.64-3.2,2.35-6.98,1.85-10.48c-0.85-5.99,0.45-12.08-0.13-17.68
				c-0.59-5.72,0.16-10.69,0.89-16.1c0.5-3.77-3.05-6.72-5.47-9.67c-1.41-1.72-3.79-2.99-3.33-5.78c0.06-0.36,0.7-0.92,1.01-0.88
				c2.76,0.34,3.39,2.83,4.68,4.7c1.4,2.05,2.92,4.03,4.48,5.96c0.95,1.17,2.16,2.39,3.8,1.38c1.48-0.91,1.5-2.6,1.06-4.06
				c-0.62-2.06-1.67-4-2.26-6.06c-0.4-1.38-0.79-3.21,1.16-3.81c1.78-0.54,3.34,0.24,4.07,2.02c1.29,3.14,2.06,6.41,0.7,9.71
				c-0.82,1.99-2.08,3.79-2.89,5.79c-0.65,1.61-2.46,3.98-0.94,4.92c2.05,1.27,3.55-1.35,4.33-2.95c3.66-7.47,7.11-15.04,7.23-23.62
				c0.02-1.08-0.43-2.64,1.11-2.92c1.66-0.29,2.17,1.3,2.64,2.49c0.76,1.94,0.43,3.94,0.03,5.91c-1.15,5.61-3.69,10.66-6.24,15.71
				c-1.19,2.37-3.64,4.28-1.85,7.64c0.88,1.64-1.11,2.48-2.58,2.95c-4.15,1.33-6.8,3.91-5.68,8.47c0.96,3.91,6.81,6.01,11.14,4.63
				c2.38-0.76,5.76-3.01,7.08-0.11c1.19,2.62-2.83,3.5-4.75,4.79c-6.13,4.11-6.51,3.97-10.98-1.49c-1.1-1.35-2.55-2.73-4.2-1.31
				c-2.03,1.75-0.57,3.46,1.04,4.43c2.57,1.55,2.98,2.84,0.31,4.65c-1,0.68-1.6,1.84-0.96,3.07c0.77,1.48,2.21,1.86,3.8,1.96
				c4.51,0.29,7.57-3.22,11.55-4.38c2.22-0.65,3.93-2.08,6.2,0.23c1.48,1.5,3.76,0.8,5.65-0.11c1.14-0.55,2.53-1.82,3.47-0.21
				c0.85,1.45-0.84,2.4-1.72,3.23c-4.33,4.08-9.2,7.36-14.95,9.11c-1.15,0.35-2.56,0.38-2.11,2.02c0.44,1.56,2.08,2.09,3.25,1.41
				c10.83-6.34,24.05-9.36,30.49-21.88c1.71-3.32,3.23-6.06,0.49-9.99c-1.65-2.36-0.41-6.89-5.83-4.9
				c-1.26,0.46-1.18-1.47-0.66-2.18c3.56-4.9,2.54-10.46,1.36-15.48c-2.61-11.16-1.29-22.21-0.23-33.27
				c1.38-14.37-1.71-27.91-7.57-40.75c-3.42-7.49-10.22-12.1-17.75-15.41c-22.56-9.9-45.87-17.9-68.67-27.16
				c-1.08-0.44-2.18-0.86-3.32-1.09c-5.7-1.18-7.01,0.07-5.43,5.59c0.87,3.04-0.54,4.75-2.65,6.34
				c-7.27,5.48-15.51,8.83-24.19,11.42c-9.53,2.84-19.45,3.09-28.99,2.65c-13.27-0.61-24.85-6.17-30.94-19.31
				c-1.57-3.39-3.2-4.91-7.27-2.87c-4.72,2.37-10.31,2.6-15.09,5.11c-12.19,6.39-25.52,10.07-37.85,16.33
				c-8.04,4.08-15.58,8.58-23.02,13.55c-4.71,3.14-6.79,8.61-12.17,11.81c1.77-7.08,5.99-12.26,11.21-15.81
				c12.49-8.52,25.81-15.73,39.92-21.32c12.2-4.83,24.26-10,36.98-13.46c5.81-1.58,9.19-5.28,8.92-11.96
				c-0.21-5.39,1.99-10.75-0.32-16.23c-1.48-3.51-3.86-6.54-4.84-10.36c-0.73-2.87-2.26-5.47-1.96-8.64
				c0.2-2.12-0.97-4.07-2.76-5.05c-6.67-3.65-8.99-8.54-6.44-16.14c1.35-4.04,0.05-8.62-0.82-12.86
				c-1.14-5.59-0.01-10.71,3.14-15.23c2.29-3.28,2.68-6.65,2.37-10.41c-0.65-7.91-0.4-15.68,4.34-22.58
				c0.74-1.08,1.18-2.65,2.86-2.3c1.51,0.31,1.88,1.79,2.14,3.09c0.57,2.94,1.26,5.88,1.52,8.85c0.27,3.21,0.58,6.21,2.95,8.76
				c1.26,1.36,1.35,3.72-0.65,4.14c-8.61,1.82-5.72,9.1-7.12,14.32c-0.16,0.61,0.11,1.32,0.07,1.99c-0.06,1.18-0.16,2.52-1.53,2.83
				c-1.27,0.28-1.52-1.02-1.96-1.87c-0.9-1.71-1.94-3.52-4.17-2.05c-2.41,1.59-0.94,3.51,0.1,5.19c0.91,1.47,2.37,2.18,3.99,2.8
				c2.42,0.93,3.62,3.49,2.17,5.2c-2.54,2.99-3.04,7.09-5.82,9.74c-3.82,3.64-0.96,6.84,0.67,9.86c1.47,2.72,3.82,2.91,6.81,1.37
				c3.21-1.66,4.16,1.25,3.2,3.27c-2.28,4.8-0.97,8.64,0.56,13.47c2.2,6.9,3.93,12.04,12.69,11.27c2.97-0.26,4.33,4.29,7.39,5.43
				c0.63,0.24,0.6,1.34,0.03,1.69c-0.64,0.39-1.69,0.74-2.28,0.47c-2.27-1.01-4.4-2.32-6.62-3.45c-2.92-1.48-4.84-0.55-4.33,2.73
				c0.61,3.9-0.81,7.19-1.99,10.65c-5.01,14.73,2.08,28.17,17.02,32.69c6.82,2.06,13.75,2.5,20.73,1.88
				c4.42-0.39,7.54-3.91,11.2-6.05c1.31-0.76,1.74-2.94,0.49-4.5c-1.05-1.31-2.57-1.41-4.11-0.84c-2.02,0.76-4.02,1.59-6.06,2.3
				c-1.49,0.52-3.21,0.72-3.98-0.93c-0.99-2.12,1.17-2.74,2.36-2.96c4.9-0.9,8.37-3.86,11.59-7.32c0.79-0.85,2.21-1.62,2.29-2.52
				c0.39-4.47,2-4.38,5.89-3.01c3.95,1.39,2.48-4.08,5.02-5.44c-3.53,1.51-6.61,2.4-10.02,0.26c-1.53-0.96-3.16,0.46-4.69,1.06
				c-0.99,0.38-2.07,0.42-2.78-0.42c-0.85-1-0.04-1.82,0.61-2.58c1.21-1.42,3.93-2.14,2.84-4.68c-1.05-2.46-3.74-1.91-5.77-2.12
				c-6.23-0.66-12.6,0.86-18.74-1.26c-0.47-0.16-1-0.13-1.46-0.3c-1.38-0.5-3.07-0.69-3.65-2.29c-0.36-0.97,0.57-1.43,1.36-1.73
				c1.54-0.57,3.12-1.53,4.57,0.14c0.76,0.88,1.36,2.07,2.75,1.78c1.62-0.34,3.64-0.64,2.31-3.14c-0.53-0.99-1.93-2.26-0.35-2.82
				c2.28-0.81,4.87-1.09,7.3-0.99c1.5,0.06,1.05,1.85,0.83,2.92c-0.43,2.03,0.29,3.5,2.28,3.65c2.43,0.19,2.41-1.85,2.33-3.53
				c-0.12-2.62,2.11-5.74-1.39-7.68c-3.62-2.01-7.33-3.47-11.13-0.32c-1.7,1.41-3.72,1.1-5.14,0.05c-3.5-2.58-8.17-2.92-11.27-6.25
				c-1.63-1.75-3.38-1.68-5.09,0.32c-2.06,2.41-4.3,2.54-6.01-0.42c-1.29-2.22-4.31-2.68-5.13-5.3c-0.29-0.95-0.88-2.07,0.17-2.71
				c1.09-0.67,1.91,0.28,2.39,1.15c2.7,4.95,4.86,3.99,10.02,1.88c5.57-2.28,9.39-7.04,15.31-8.52c2.88-0.72,5.18-1.81,7.88-0.03
				c0.86,0.57,1.95,0.63,2.75-0.22c0.79-0.83,0.58-1.84,0.21-2.81c-1.08-2.83-2.85-4.82-6.01-5.38c-2.04-0.36-4.08-1.07-4.41-3.42
				c-0.37-2.65,2.29-2.37,3.7-3.27c3.26-2.05,6.95-2.02,10.62-2.29c5.16-0.37,6.33-2.86,3.36-7.18c-0.88-1.29-1.81-2.63-1.65-4.08
				c0.88-8.32-0.71-16.96,2.4-24.92c1.31-3.36,5.7-3.76,8.71-3.33c3.47,0.49,9.11-0.93,9.95,2.25c0.69,2.61-5.17,2.2-7.98,3.53
				c-6.71,3.17-8.61,7.09-8.83,14.62c-0.3,10,5.78,16.18,11.69,22.68c1.19,1.31,2.9,1.5,4.47,2.05c3.85,1.36,4.54,3.45,1.94,6.63
				c-1.31,1.6-1.56,2.84-0.38,4.39c0.79,1.04,1.55,2.46,3.1,2.11c1.63-0.37,1.04-2.46,1.75-3.17c3.05-3.07,3.94-6.6,3.71-10.78
				c-0.07-1.2,1.29-2.37,2.84-2.29c1.46,0.07,1.69,1.35,2.05,2.47c0.47,1.48,0.14,3.95,2.41,3.71c2.35-0.25,1.87-2.84,2.23-4.5
				c1.11-5.08-1.97-9.62-2.03-14.67c-0.04-3.98,2.53-7.83-0.19-12.12c-1.84-2.9-2.72-3-5.17-1.09c-5.03,3.92-8.83,3.88-13.91,0.28
				c-2.88-2.03-3.85-2.34-7.27-2.28c2.75-4.86,7.34-5.96,14.03-3.33c1.34,0.53,2.6,1.92,4.13,0.77c1.64-1.23,0.08-2.3-0.39-3.43
				c-0.67-1.62,0.87-2.31,1.47-3.42c1.26-2.33,2.54-4.68,3.47-7.15c0.56-1.49,0.87-2.97,2.74-3.01c1.55-0.04,2.34,1.02,2.81,2.4
				c0.37,1.08,0.62,2.34,2.69,2.16c-0.89-2.73-1.39-5.57-2.72-7.95c-1.53-2.76-3.99-1.6-6.06-0.32c-1.87,1.16-3.8,2.6-5.97,1.27
				c-2.44-1.51-0.61-3.53-0.13-5.34c0.97-3.72-2.11-6.47-2.33-10.03c-0.38-6.1-0.63-6.15,5.08-4.58c0.48,0.13,1.01,0.39,1.45,0.28
				c6.33-1.53,8.88,2.72,11.36,7.24c0.61,1.12,0.48,3.77,2.54,2.7c1.84-0.96,0.62-3.04-0.24-4.41
				c-6.74-10.72-14.44-20.41-25.84-26.76c-7.04-3.92-14.31-6.14-22.31-5.92c-3.33,0.09-6.41,1.92-9.82,1.63
				c-1.13-0.1-2.73,0.1-2.82-1.37c-0.09-1.47,1.52-1.53,2.63-1.66c13.88-1.63,26.98-0.03,38.97,8.07
				c12.18,8.22,21.92,18.63,26.79,32.38c2.85,8.07,4.89,16.98,1.97,25.87c-1.22,3.71,0.51,6.82,2.25,9.91
				c1.75,3.1,0.65,11.11-1.77,13.3c-1.34,1.22-2.08-0.01-2.93-0.67c-1.05-0.82-2.08-1.98-3.48-0.88c-1.28,1.01-0.64,2.42-0.36,3.72
				c0.36,1.65,0.96,3.16,2.16,4.42c1.66,1.75,1.88,3.76,0.94,5.92c-2.29,0.99-3.12-4.68-5.69-1.26c-2.57,3.42-5.43,7-4.69,11.57
				c0.47,2.89,3.58,2.95,5.91,0.36c0.73-0.81,1.31-2.48,2.61-1.41c1.3,1.07,0.31,2.42-0.6,3.45c-0.32,0.37-0.73,0.76-1.18,0.9
				c-5.22,1.69-7.32,5.77-10.2,10.26c-5.59,8.73-3.6,16.81-2.26,25.75c1.16,7.74,5.63,9.99,12.08,11.39
				c13.58,2.95,25.99,9.14,38.79,14.27c11.87,4.76,23.88,9.11,35.44,14.69c12.08,5.82,20.26,14.29,22.69,27.71
				c1.78,9.81,3.65,19.46,2.85,29.69c-1.09,13.87-0.82,27.89,1.66,41.67c0.79,4.36,2.52,8.62,4.3,12.72
				c1.61,3.7,1.77,7.14-0.42,10.46c-2.3,3.48-2.28,6.86-0.2,10.31c4.5,7.46,5.47,15.78,4.96,24.11c-0.55,8.89,1.74,17.87-1.39,26.72
				c-1.57,4.44-3.29,8.78-5.68,12.73c-5.08,8.4-6.81,17.55-7.24,27.13c-0.16,3.52,0.35,7.11,3.17,9.07
				c4.26,2.96,2.27,9.16,6.87,11.76c1.02,0.58,1.47,2.59,3.06,1.27c1.54-1.28,0.09-2.35-0.65-3.37c-0.86-1.19-1.75-2.35-2.66-3.57
				c6.86-0.47,10.54,4.08,6.96,10.78c-5,9.36-5.73,20.01-10.56,29.3c-1.4,2.69-3.22,4.5-5.81,5.88c-3.33,1.77-6.56,2.29-9.94,0.23
				c-3.93-2.4-8.06-1.4-12.14-0.54c-1.19,0.25-2.19,0.95-2.3,2.3c-0.1,1.28,0.62,2.28,1.68,2.86c10.48,5.77,16.48,16.28,25.29,23.84
				c7.7,6.6,14.87,13.82,22.29,20.74c3.07,2.87,6.75,4.5,10.94,3.96c9.24-1.19,16.18,3.56,22.32,9.16
				c7.86,7.16,15.22,14.91,22.37,22.79c8.28,9.13,18.66,15.38,28.68,22.19c15.7,10.66,29.47,23.47,39.74,39.45
				c6.56,10.21,7.47,22.35,7.97,34.19c0.79,18.59,3.15,37.1,2.68,55.74c-0.17,6.84-1.82,13.6-3.92,20.01
				c-4.18,12.78-9.33,25.14-15.57,37.19c-7.98,15.41-11.73,32.3-8.14,49.76c1.21,5.87,4.7,11.27,7.16,16.88
				c0.4,0.91,1.14,1.76,1.28,2.7c1.26,8.61,8.21,13.24,13.09,19.4c5.91,7.45,11.79,14.95,12.2,25.42
				c0.24,6.22,2.27,12.34,1.42,18.76c-0.82,6.23-2.18,6.98-7.71,4.11c-7.78-4.02-15.94-2.35-23.98-0.93
				c-2.43,0.43-4.74,1.55-7.16,2.09c-4.32,0.97-4.19,2.82-1.22,5.39c-0.32,0.21-0.67,0.59-0.84,0.53
				c-9.2-3.49-19.04-1.53-28.58-3.72c-12.36-2.84-24.44-7.1-37.27-8.12c-11.28-0.9-22.31-3.58-33.37-6.05
				c-10.98-2.45-22-3.09-33.3,0.86c-7.86,2.74-16.67,2.88-25.09,3.85c-20.89,2.4-41.89,2.62-62.89,2.52
				c-4.95-0.03-9.91-1.1-14.84-1.81c-1.11-0.16-2.56-0.5-3.17-1.29c-4.49-5.79-11.01-5.24-17.22-5.83
				c-25.23-2.41-50.57-2.7-75.72-0.45c-15.58,1.39-31.23,0.58-46.76,2.72c-6.33,0.87-12.88-0.54-19.41-0.29
				c-14.5,0.54-28.41,2.2-41.94,8.49c-15.47,7.2-32.52,7.89-49.39,8.23c-0.39,0.01-0.79-0.4-1.64-0.87
				c4.45-1.9,8.79-1.77,12.97-2.36c12.06-1.7,23.6-5.41,35.21-8.9c5.33-1.6,9.99-3.93,14.17-7.85c2.94-2.75,7.53-2.21,11.53-2.2
				c12.28,0.02,24.56,0.33,36.83,0.04c20.64-0.48,41.33-0.69,61.91-2.23c16.84-1.26,33.6-0.5,50.39-0.36
				c10.13,0.08,20.24,1.4,30.36,2.17c1.35,0.1,2.74,0.41,3.62,1.48c4.24,5.2,10.19,5.71,16.18,5.87
				c23.34,0.62,46.64-0.15,69.88-2.38c6.24-0.6,12.52-2.16,18.3-4.08c11.98-3.97,23.63-4.16,35.22-0.12
				c7.97,2.78,16.31,2.55,24.38,4.62c10.91,2.8,22.19,4.16,32.28,9.67c2.7,1.48,5.73,1.78,8.68,2.04c2.19,0.2,4.4-0.57,5.46-2.78
				c0.97-2.03-0.51-3.39-1.71-4.82c-2.48-2.96-4.28-6.24-5.46-9.99c-2.77-8.81-8.79-16-12.45-24.39c-0.59-1.35-1.82-2.17-3.2-1.98
				c-3.94,0.54-7.11-1.4-10.4-2.93c-8.22-3.81-17.28-3.12-25.9-4.78c-24.23-4.67-48.93-5.54-73.38-8.52
				c-4.44-0.54-9-0.77-13.46-0.46c-10.51,0.72-20.65-3.19-31.28-1.96c-4.37,0.5-8.78-2.45-13.33-3.38
				c-2.54-0.52-3.52-3.52-2.55-6.23c1.36-3.8-0.54-4.77-3.79-5.01c-24.88-1.84-49.83-2.55-74.76-2.69
				c-16.09-0.09-32.22-0.91-48.29,0.09c-19.07,1.19-38.23,0.93-57.19,3.72c-2.46,0.36-4.86,1.16-7.33,1.47
				c-4.76,0.61-7.51,2.47-7.33,7.99c0.16,5.1-2.94,7.71-7.95,8.64c-17.62,3.28-35.29,6.26-52.93,9.4
				c-7.22,1.28-14.39,4.16-22.01,3.16c-2.55-0.34-3.21,1.44-2.93,3.5c0.42,3.09-0.9,5.35-2.69,7.72
				c-10.34,13.74-22.73,24.89-38.09,32.96c-7.08,3.72-15.19,6.1-20.44,12.93c-1.62,2.11-4.19,1.6-6.52,0.9
				c-6.2-1.88-12.36-3.94-18.64-5.56c-5.46-1.41-5.06-6.44-6.03-10.01c-3.12-11.45,0.48-22.31,4.45-32.97
				c0.14-0.38,0.65-0.63,1.28-1.19c1.19,1.96,2.07,3.92,3.4,5.51c3.16,3.76,5.98,6.55,12.24,6.44c13.61-0.25,23.92-7.98,35.51-12.83
				c6.33-2.65,11.68-6.87,16.89-11.22c1.51-1.27,3.28-3.05,1.56-5.09c-1.7-2.02-3.68-0.54-5.3,0.62
				c-8.92,6.38-17.49,13.28-27.05,18.7c-4.72,2.67-9.34,6.04-15.38,4.61c-1.07-0.25-2.55,0.38-2.92-1.14
				c-0.32-1.3,0.78-2.15,1.72-2.82c1.21-0.87,2.59-1.52,3.8-2.39c0.66-0.47,1.68-1.33,1.58-1.83c-1.24-6.26,4.98-6.71,7.51-10
				c1.18-1.53,3.46-2.66,3.24-5.16c-1.71-0.58-2.11,0.98-3.09,1.42c-1.17,0.52-2.51,1.75-3.35-0.1c-0.67-1.47,0.39-2.69,1.79-3.03
				c3-0.72,4.34-1.66,1.61-4.49c-1.16-1.2,0.31-2.01,1.18-2.74c1.39-1.18,2.96-2.21,4.08-3.6c1.06-1.31,2.79-3.08,0.53-4.68
				c-2.08-1.48-4.49-1.72-6.09,0.82c-2.12,3.38-4.07,6.88-6.01,10.37c-0.9,1.61-1.71,3.9-3.88,2.91c-2.41-1.1-1.33-3.5-0.52-5.27
				c4.2-9.22,6.09-18.9,6.56-28.99c0.17-3.6-0.67-6.93-1.19-10.37c-1.81-12.19-4.22-24.16-9.69-35.41
				c-4.03-8.3-4.62-17.66-6.11-26.6c-1.43-8.61-3.01-17.37-2.08-26.27c0.39-3.8,0.13-7.67,1.79-11.26c0.74-1.6,0.73-3.2,0.16-4.86
				c-4.54-13.3-1.81-25.91,3.77-38.21c0.83-1.83,2.17-3.7,1.66-5.65c-1.54-5.89,2.58-9.67,4.86-14.13c0.83-1.63,2.49-2.42,4.24-1.96
				c4.15,1.08,8.68,1.2,12.21,4.04c6.08,4.91,12.53,9.36,18.13,14.86c5.56,5.47,12.25,9.56,18.24,14.44
				c7.72,6.28,16.81,10.81,23.49,18.36c1.98,2.24,4.63,3.26,7.13,4.48c7.31,3.56,14.01,8.29,21.84,10.86
				c11.14,3.67,21.25,2.21,30.57-4.98c5.1-3.94,10.24-7.5,16.71-9.48c4.71-1.43,8.59-5.53,12.89-8.36
				c12.61-8.3,24.92-17.09,38.51-23.81c1.35-0.67,2.96-1.33,2.8-3.12c-0.19-2.07-1.98-2.56-3.69-2.67
				c-6.01-0.38-10.11-4.85-15.2-7.19c-10.72-4.94-21.01-4.08-31.31,0.5c-8.07,3.59-16.25,6.49-24.89,8.57
				c-6.46,1.55-12.8,3.1-19.44,3.73c-8.31,0.78-16.23,0.21-23.68-3.92c-2.02-1.12-4.31-1.75-6.47-2.63
				c-0.92-0.38-2.1-0.82-1.73-2.04c0.39-1.29,1.64-0.84,2.55-0.61c3.86,1,7.26,3.15,11.17,4.2c9.47,2.54,18.96,2.38,28.12-0.26
				c13.22-3.82,26.17-8.59,39.21-13.04c3.38-1.15,3.51-2.99,0.6-5.27c-1.59-1.24-3.25-2.24-5.4-2.31c-1.5-0.05-3.48-0.56-2.85-2.49
				c0.64-1.97,2.56-0.91,3.86-0.41c2.47,0.96,4.79,2.36,7.31,3.16c6.96,2.22,13.95,4.34,21,6.28c4.08,1.12,7.63,3.32,11.31,5.18
				c12.06,6.07,24.71,7.48,37.9,5.79c1.53-0.19,2.91-0.69,4.13-1.63c2.47-1.89,5.37-2.7,8.37-2.98c1.99-0.18,4.94-1.42,5.63,1.41
				c0.73,2.98-2.38,3.14-4.37,3.54c-3.86,0.79-6.89,3.29-10.44,4.72c-6.83,2.74-14.11,2.02-21.15,2.99
				c-3.3,0.45-5.99,1.28-8.68,2.93c-11.74,7.21-23.72,14.01-34.99,21.99c-10.97,7.77-22.37,14.96-33.07,23.08
				c-14.54,11.04-24.64,11.97-41.72,4.42c-7.91-3.5-15.6-7.43-22.82-12.28c-3.41-2.29-4.86-1.4-4.7,2.71
				c0.88,22.52-3.84,43.86-12.86,64.44c-4.66,10.63-5.95,22.06-6.34,33.61c-0.24,7.11,0.57,14.28-1.87,21.29
				c-1.19,3.41,0.02,7.3,2,10.02c3.23,4.45,4.72,9.46,6.53,14.45c2.82,7.74,5.79,9.28,13.6,7.16c4.07-1.1,8.44-0.53,12.29-1.61
				c11.53-3.24,23.91-1.61,35.08-6.46c1.62-0.71,3.17-0.71,4.86-0.52c6.03,0.7,11.39-1.94,16.91-3.66c1.79-0.56,2.14-2.34,2.27-4.11
				c0.39-5.44,4.37-9.97,9.9-10.37c27.56-1.99,55.01-5.46,82.74-5.19c29.71,0.3,59.44-0.11,89.15-0.05
				c11.31,0.02,22.5,1.46,33.42,4.5c3.01,0.84,3.19,3,1.65,5.49c-3.1,4.98-2.72,5.63,3.44,6.14c18.9,1.57,37.81,3.03,56.69,4.75
				c18.7,1.71,37.5,2.83,55.99,6.25c12.11,2.24,24.56,2.09,36.49,5.58c5.31,1.55,8.09-0.85,7.58-6.35
				c-0.71-7.6,2.7-14.03,5.97-20.28c2.32-4.44,2.36-8.54,1.04-12.9c-0.6-1.98-1.1-3.8-0.47-5.82c2.16-6.87,1.8-13.92,0.65-20.8
				c-3.13-18.72-7.12-37.24-14.95-54.71c-2.03-4.52-1.79-9.43-1.2-14.28c0.2-1.64,0.56-3.49-1.3-4.44c-1.54-0.79-2.8,0.21-4.11,1.03
				c-4.8,2.99-9.39,6.24-13.86,9.72c-6.73,5.26-12.58,4.9-18.69-0.88c-10.77-10.19-22.55-19.16-33.99-28.54
				c-3.8-3.12-9.08-2.35-13.32-5.11c-4.52-2.95-9.09-6.51-15.41-6.02c-2.54,0.2-3.58-4-6.35-5.19c-5.69-2.43-10.83-5.79-15.53-9.86
				c-1.33-1.15-3.18-2.32-4.84-2.4c-11.4-0.51-19.16-7.77-27.25-14.39c-6.23-5.1-18.17-4.77-24.19,0.62
				c-4.2,3.76-8.61,7.31-13.16,10.65c-4.6,3.37-9.68,2.79-14.03-1.12c-3.74-3.36-5.42-3-6.94,1.81
				c-1.88,5.93-6.17,10.07-11.07,13.06c-4.42,2.7-9.57,0.12-13.82-1.65c-4.44-1.85-8.84-3.81-13.39-5.41
				c-4.25-1.49-5.38-3.97-3.66-8.08c1.92-4.59,3.83-9.2,5.93-13.71c1.22-2.62,1.21-5.12,0.27-7.74c-1.78-4.96-2.21-9.92-1.21-15.21
				c1.21-6.36-0.53-8.88-6.61-10.93c-2.72-0.92-5.28-2.12-7.57-3.78c-4.08-2.96-4.7-6.78-2.07-10.87c2.07-3.21-0.22-4.45-2.68-4.59
				c-3.99-0.23-7.95-1.27-11.86-1.26c-16.75,0.08-30.28-6.37-41.03-19.05c-1.83-2.15-4.05-3.96-5.91-6.1
				c-1.1-1.27-1.97-3.09-0.38-4.46c1.67-1.44,3.25-0.18,4.22,1.2c6.33,9.08,15.77,14.04,25.05,19.29c4.51,2.56,9.44,3.08,14.38,3.71
				c4.3,0.55,8.65,0.72,12.9,1.5c7.76,1.42,7.96,1.61,9.67-5.82c1.26-5.5,1.87-11.15,2.72-16.74c0.5-3.25-1.05-4.7-4.24-4.51
				c-18.29,1.09-33.12-6.94-46.68-18.01C891.66,746.57,888.64,745.82,887.5,742.94z M972.03,701.08c-0.73,2.58-2.69,4.15-4.74,5.57
				c-1.21,0.84-2.97,1.28-2.5,3.21c0.44,1.84,2.3,1.75,3.69,1.98c6.68,1.14,12.48,4.5,18.55,7.17c3.66,1.62,5.77,6.99,10.29,5.83
				c4.31-1.1,4.74-6.45,7.28-9.65c0.1-0.13,0.23-0.24,0.34-0.36c1.49-1.58,1.2-3.13-0.45-4.22c-3.58-2.35-6.69-5.46-11.15-6.41
				c-3.39-0.72-6.87-1.51-10-2.94c-3.96-1.81-7.63-2.03-11.46-0.04c0.99-4.7,5.82-7.14,11.65-5.71c5.04,1.23,10.27,2.68,15.27,1.22
				c13.23-3.87,27.08-5.5,39.96-10.49c12.41-4.8,24.58-10.22,34.29-19.82c1.76-1.74,3.79-3.24,5.83-4.67
				c0.92-0.64,2.31-1.06,3.14,0.17c0.81,1.2,0.07,2.34-0.96,2.98c-6.92,4.28-12.6,10.15-19.65,14.39
				c-16.32,9.81-34.11,15.35-52.36,19.88c-2.16,0.54-5.47-0.17-5.76,2.71c-0.32,3.28,3.28,3.68,5.56,4.82
				c0.69,0.34,1.63,0.3,2.44,0.23c5.84-0.45,11.6,1.32,17.45,0.57c1.2-0.15,2.52,0.15,2.84,1.48c0.41,1.71-1,2.4-2.3,2.69
				c-2.79,0.64-5.64,0.6-8.42-0.11c-1.96-0.5-4.06-1.32-5.59,0.52c-1.69,2.04,0.23,3.67,1.12,5.38c4.49,8.53,8.44,17.42,11.07,26.59
				c3.22,11.24,9.3,21.36,11.74,32.82c1.73,8.14,6.48,15.24,8.23,23.47c0.98,4.58,2.33,9.7,8.25,10.65
				c6.19,0.99,12.45,2.52,18.64,2.36c9.63-0.24,19.27-1.44,28.41-4.99c1.94-0.75,3.94-0.63,5.91-0.18c1.09,0.25,2.52,0.29,2.63,1.81
				c0.11,1.5-1.2,2.07-2.31,2.13c-7.07,0.41-13.51,3.58-20.43,4.51c-10.97,1.47-21.92,1.09-32.78-1.24
				c-3.33-0.72-4.66-0.07-4.42,4.06c0.37,6.3-0.46,12.67-0.79,19.26c-2.3-1.1-1.71-2.83-1.95-4.17c-1.36-7.85-2.9-15.66-3.67-23.64
				c-0.85-8.82-4.75-16.94-7.66-25.2c-7.8-22.11-16.33-43.96-24.65-65.88c-1.25-3.3-3.22-3.53-5.42-0.6
				c-2.49,3.31-4.58,7.19-7.73,9.69c-4.09,3.24-3.29,5.37-0.5,8.86c11.41,14.28,15.47,31.71,20.23,48.79
				c0.43,1.54,0.18,3.32,0.02,4.97c-0.15,1.57-0.79,3.08-2.72,2.9c-1.69-0.16-2.02-1.71-1.97-3.03c0.32-8.21-4.11-15.35-5.22-23.28
				c-0.52-3.67-2.75-7.11-4.32-10.6c-0.46-1.02-1.26-2.3-2.59-1.91c-1.3,0.38-1.34,1.83-1.24,2.99c0.3,3.64,1.44,7.38,0.93,10.89
				c-1.84,12.75,0.85,26.03-4.56,38.38c-0.74,1.7-0.89,4.21,1.68,5.03c1.78,0.57,4.3-0.24,4.46,2.76c0.16,2.98-2.22,3.59-4.29,4.77
				c-5.31,3.02-5.88,5.97-2.95,11.19c4.69,8.37,8.35,17.05,7.44,26.99c-0.14,1.5-0.11,3.13,1.53,3.91c1.74,0.83,3.18,0.04,4.53-1.13
				c4.53-3.93,9.44-7.15,15.01-9.62c6.37-2.83,13.35-4.04,19.38-7.81c2.86-1.79,5.6-1.47,5.21,3.18c-0.06,0.75,0.2,1.82,0.72,2.27
				c6.76,5.85,13.68,12.7,22.13,14.54c8.94,1.96,18.64,3.02,28.17,0.62c7.03-1.77,14.29-2.78,21.52-3.55
				c6.88-0.73,13.35,2.16,20.02,3.36c0.99,0.18,2.22,0.49,2.16,1.66c-0.08,1.66-1.57,1.52-2.67,1.3c-2.77-0.55-5.5-1.27-8.25-1.9
				c-12.17-2.77-23.67,1-35.22,3.83c-2.58,0.63-7.11-0.78-7.41,2.25c-0.36,3.64,4.27,4.59,7.18,5.86
				c11.86,5.17,23.38,11.12,34.89,16.91c13.32,6.7,24.39,17.27,35.98,26.75c4.94,4.04,8.1,4.62,13.64,1.06
				c5.88-3.78,11.67-7.7,17.68-11.26c12.85-7.6,22.61-18.41,31.71-29.95c8.59-10.9,14.23-23.67,22.12-35.02
				c4.65-6.69,9.16-13.55,16.02-18.18c4.47-3.02,4.79-3.59,1.06-7.84c-12.7-14.47-26.88-27.17-43.13-37.62
				c-6.96-4.47-14.14-8.94-19.65-15.28c-7.43-8.56-15.22-16.8-23.53-24.46c-5.2-4.79-11.07-8.39-19.14-8.13
				c-6.8,0.22-13.69-1.93-20.38-3.85c-6.9-1.97-13.04-5.77-19.86-8.01c-4.97-1.64-10.46-2.57-14.42-6.56
				c-1.2-1.21-3.62-2.32-2.06-4.35c1.36-1.76,3.49-0.69,4.9,0.51c4.19,3.59,9.6,4.41,14.44,6.47c2.31,0.98,5.52,1.86,7.15-1.25
				c1.54-2.93-1.11-4.58-2.93-6.17c-7.41-6.48-14.29-13.45-20.77-20.85c-1.95-2.23-4.22-4.29-6.66-5.98
				c-3.28-2.27-5.21,1.56-8.96,3.27c4.23-5.15,6.15-9.56,4.46-14.9c-0.35-1.1-0.29-2.44,0.99-3.06c1.07-0.52,1.87,0.31,2.64,0.93
				c1.44,1.16,2.93,2.28,4.87,2.3c1.29,0.01,2.83,0.3,3.57-1.15c0.84-1.65-0.6-2.29-1.61-3.14c-3.45-2.93-2.63-6.7-0.48-9.4
				c2.02-2.53,2.65-3.58-0.21-5.78c-2.59-2-1.68-5.64-0.88-7.9c0.85-2.41,3.42-0.09,5.19,0.37c1.87,0.49,3.75,0.84,5.08-0.81
				c1.42-1.76,1.95-3.99,0.9-6.09c-1.16-2.31-3.02-4.33-5.84-3.95c-2.66,0.36-4.47,0.41-6.25-2.28c-1.36-2.05-4.2-1.74-6.26-0.06
				c-1.51,1.23-3.51,2.49-2.57,4.89c1.02,2.61,3.17,2.27,5.48,1.83c3.11-0.6,3.29,2.08,1.99,3.23c-3.01,2.66-3.56,6.26-4.97,9.57
				c-1.36,3.17-4.55,3.72-7.38,4.39c-1.57,0.37-3.1-0.95-2.55-2.78c1-3.29-0.32-6.27-0.83-9.34c-0.59-3.55-2.67-4.18-5.4-1.77
				c-1.44,1.27-2.03,2.94-2.3,4.84c-0.49,3.55,1.05,6.02,3.63,8.22c0.95,0.81,1.8,2.2,0.83,3.55c-0.68,0.94-1.78,0.71-2.7,0.16
				c-4.38-2.61-6.28-11.51-3.28-15.76c1.09-1.54,2.52-2.95,0.82-4.8c-1.58-1.72-3.51-1.01-5.02,0.02
				c-11.56,7.93-24.25,13.82-36.58,20.37c-3.68,1.96-6.69,4.96-11.14,1.91c-0.6-0.41-1.92,0.3-2.91,0.34
				c-7.67,0.31-14.89,3.47-22.69,3.18c-15.36-0.58-30.42-3.49-45.55-5.73c-5.38-0.8-11.27-0.57-16.06-3.31
				c-6.61-3.78-13.98-5.33-20.8-8.4c-7.6-3.42-15.88-4.75-23.68-7.5c-2.52-0.89-4.91-2.51-6.37,0.54c-1.5,3.15,0.15,5.77,3.24,7.28
				c2.39,1.17,4.95,2.02,7.23,3.36c15.05,8.86,31.1,14.64,48.42,17.38c5.75,0.91,11.52,1.51,17.26,2.34
				c1.26,0.18,3.02,0.41,2.74,2.18c-0.25,1.59-1.85,0.89-2.93,0.87c-13.21-0.26-26.01-3.43-38.78-6.18
				c-13.92-3-26.07-10.58-38.22-17.8c-2.02-1.2-2.39-3.03-2.09-5.18c0.55-3.9-0.56-7.65-1.43-11.34c-0.62-2.59-2.88-4.72-5.6-3.64
				c-3.17,1.26-2.27,4.34-0.69,6.3c2.69,3.35,5.51,6.29,1.34,10.48c-0.35,0.35,0.63,1.81,0.66,2.76c0.08,3.43-0.92,6.74-3.39,8.98
				c-2.48,2.25-4.79,0.46-6.98-1.42c-2.14-1.85-3.61-0.52-4.56,1.66c-1.18,2.7-0.06,4.83,1.61,6.86c1.86,2.26,3.91,1.16,5.88,0.29
				c5.11-2.26,7.67-7.11,10.79-11.24c1.93-2.57,2.91-2.52,3.99,0.18c1.1,2.77,3.15,4.61,5.29,6.5c11.3,9.98,25.1,15.91,38.64,21.48
				c10.73,4.41,21.18,10.22,32.92,12.13c0.77,0.13,1.76,0.57,1.38,1.64c-0.16,0.46-0.96,0.89-1.52,0.96
				c-2.89,0.36-5.56-0.42-8.26-1.45c-4.67-1.78-8.5-5.29-13.46-6.44c-19.76-4.59-37.12-14.16-53.29-26.03
				c-3.57-2.62-7.15-2.1-9.56,0.22c-2.86,2.76,0,5.5,2.31,7.43c9.29,7.8,20,13.16,31.47,16.75c9.52,2.97,18.88,6.28,28.06,10.14
				c1.25,0.53,3.72,0.57,3.06,2.45c-0.68,1.93-2.92,0.93-4.41,0.45c-12.8-4.12-25.71-7.98-38.33-12.6
				c-10.2-3.73-19.38-9.44-27.39-16.92c-2.51-2.34-5.47-3.95-9.08-2.49c-1.7,0.69-3.27,2.14-1.62,3.76c3.1,3.04,4.99,7.01,8.45,9.79
				c11.84,9.5,23.87,18.58,38.86,22.64c6.55,1.77,12.83,4.23,19.7,5.25c6.95,1.03,14.33,0.96,20.74,4.91
				c3.05,1.88,4.3-0.25,4.11-3.15c-0.09-1.47-1.05-3.26,0.73-3.99C963.87,706.05,966.9,701.62,972.03,701.08z M977.68,819.7
				c3.65,0.21,6.51,0.15,9.3,0.58c4.01,0.61,5.65-1.21,5.65-4.92c-0.01-2.86,0.79-5.6,1.06-8.38c1.43-14.71,4.18-29.31,2.8-44.27
				c-0.83-8.97-2.48-17.69-3.99-26.5c-1.16-6.8-4.04-10.39-9.28-13.3c-3.49-1.94-7.07-3.72-10.64-5.51
				c-4.82-2.4-13.74,2.51-11.91,9.42c2.08,7.86,2.68,15.98,3.03,24.17c0.48,11.13,2.07,22.2,2.97,33.32
				c0.48,5.93-1.58,11.48-3.55,16.95c-0.49,1.35-1.68,2.72-3.48,2.1c-1.42-0.49-1.35-1.97-0.86-2.99
				c3.15-6.57,1.54-13.42,1.32-20.18c-0.51-16.29-1.28-32.55-3.67-48.69c-0.22-1.49,0.23-3.97-1.95-4.01
				c-1.93-0.04-2.02,2.29-2.46,3.86c-2.32,8.34-1.65,17.2-4.5,25.48c-0.48,1.4,0.15,3.29,0.59,4.86c0.54,1.94,0.97,3.82,0.93,5.87
				c-0.22,11.5-2.11,22.57-7.55,32.91c-3.45,6.56-1.98,9.64,5.08,12.2c3.59,1.3,7.77,1.47,10.86,3.15
				C964.21,819.48,970.93,821.31,977.68,819.7z M817.92,577.72c2.64,7.7,5.24,16.09,9.28,23.93c0.21,0.4,0.71,0.77,1.15,0.9
				c2.82,0.81,3.35,3.29,4.5,5.53c1.93,3.76,2.72,9.73,7.02,10.31c9.38,1.27,17.79,3.54,24.72,10.39c2.08,2.06,4.32-0.32,6.17-1.63
				c1.64-1.17,2.26-2.66,1.39-4.76c-2.22-5.38-4.8-10.41-5.26-16.68c-0.33-4.55-2.58-8.68,0.71-13.04c1.04-1.39,0.71-3.25-0.65-4.57
				c-1.15-1.12-2.41-0.68-3.69-0.1c-1.81,0.82-3.65,3.3-5.67,0.85c-1.93-2.35,0.41-4.31,1.37-6.31c0.94-1.97,2.44-2.85,4.75-2.96
				c2.4-0.12,2.73-1.81,1.19-3.41c-1.03-1.08-3.64-1.1-2.62-3.4c1.07-2.42,2.87-0.11,4.34-0.19c1.88-0.11,4.01-0.03,4.04-2.56
				c0.03-2.32-1.97-2.88-3.86-3.04c-0.76-0.07-1.66,0.25-2.35,0.64c-3.76,2.11-5.57,0.06-5.76-3.25c-0.23-3.77-1.71-7.13-2.88-10.5
				c-1.51-4.38-4.29-7.69-9.24-9.63c-5.94-2.34-12.33-4.1-17.37-8.47c-1.66-1.44-2.97-4-5.85-2.46c-2.62,1.4-2.59,4.13-2.81,6.56
				c-0.28,3.13,0.96,6.23,0.22,9.43C818.63,558.38,819.56,567.8,817.92,577.72z M1106.67,598.65c-2.5,2.78-4.78,4.93-6.59,7.43
				c-1.94,2.68-3.5,5.65-5.08,8.57c-1.33,2.44-3.64,5.41-1.25,7.75c2.4,2.34,6.25,4.49,9.57,2.74c5.09-2.68,10.36-1.79,15.56-2.21
				c8.41-0.68,11.11-5.91,6.5-13.03c-0.7-1.08-2.63-2.23-1.83-3.27c3.61-4.72,0.79-9.95,1.54-14.87c0.33-2.15,1.17-2.97,3.19-2.75
				c1.78,0.2,3.92,1.02,4.71-1.35c0.72-2.17-1.14-3.22-2.67-4.27c-1.41-0.97-2.85-2.09-1.89-4.06c0.96-1.95,2.61-1.71,4.28-0.91
				c3.4,1.62,4.89-0.23,5.89-3.16c0.78-2.28,1.16-4.57,0.16-6.82c-1.93-4.35-1.48-8.59-0.43-13.15c2.09-9.08,1.92-18.1-2.05-26.85
				c-1.62-3.57-3.53-3.83-6.63-2.03c-6.87,3.98-12.49,9.32-17.4,15.47c-1.73,2.17-2.67,4.48-1.28,7.38c0.71,1.48,2.01,3.9-0.51,4.65
				c-2.17,0.65-2.94-1.49-3.23-3.47c-0.22-1.5-2.03-2.96-2.41-1.48c-1.15,4.5-5.07,6.77-7.09,10.43c-0.72,1.31-0.3,2.68,1.1,3.41
				c2.36,1.23,3.06,2.07-0.07,3.37c-3.58,1.49-4.44,5.76-3,7.88c2.79,4.1,1.64,8.39,2.16,12.48c0.51,4.04,0.5,6.48,5,2.99
				c0.74-0.58,2.09-0.69,2.7,0.3c0.66,1.1-0.33,1.79-1.18,2.35c-0.69,0.46-1.39,0.92-2.08,1.38c-2.23,1.47-5.36,3.18-3.38,6.09
				c1.69,2.49,4.07-0.06,5.98-1.23C1105.12,598.29,1105.52,598.48,1106.67,598.65z M683.14,892.5c0.44,3.23,0.96,6.85,1.41,10.48
				c1.44,11.75,7.7,13.72,18.57,17.62c6.65,2.39,12.74-0.45,19.03-1.52c2.21-0.38,3.55-1.81,2.11-3.87
				c-1.86-2.65,0.08-2.93,1.6-4.33c3.2-2.94,7.86-1.63,10.86-4.23c1.63-1.41,2.84-2.06,4.77-1c1.04,0.57,2.28,1.03,3.11-0.24
				c0.67-1.03,0.46-2.26,0.04-3.38c-0.49-1.3-1.58-1.89-2.79-1.4c-4.93,1.99-8.09-0.72-10.91-4.08c-0.95-1.13-1.78-1.4-2.96-0.76
				c-1.32,0.71-2.24,1.66-0.89,3.11c0.99,1.06,1.34,2.33-0.25,2.67c-3.07,0.65-6.93,1.24-8.88-1.23c-1.9-2.4,1.71-3.17,3.26-4.41
				c0.38-0.31,0.96-0.65,1.02-1.04c0.96-5.85,5.49-7.35,10.28-8.73c1.89-0.54,3.62-1.66,5.38-2.59c1.12-0.59,1.88-1.57,1.38-2.86
				c-0.58-1.47-1.91-1.93-3.3-1.34c-1.83,0.78-3.48,1.97-5.32,2.73c-2.08,0.87-4.81,2.44-6.07-0.53c-1.29-3.02,1.83-3.16,3.75-3.94
				c3.78-1.54,4.16-3.47,1.13-6.19c-7.84-7.05-15.7-14.07-23.64-21.01c-2.5-2.19-5.4-4.88-8.84-3.32c-3.83,1.74-4.58,5.85-4.77,9.78
				c-0.1,1.99,0.38,4.14-0.9,5.82C684.69,871.45,684.4,881.88,683.14,892.5z M1255.86,887.49c7.29-0.19,14.54-0.65,21.71-2.56
				c4.63-1.23,5.95-3.63,5.7-8.27c-0.62-11.8-1.25-23.56-2.95-35.28c-0.58-3.96-0.69-8.14-4.87-9.53
				c-4.33-1.45-7.42,1.51-10.18,4.68c-11.25,12.91-17.4,29.08-27.46,42.75c-1.95,2.65-0.81,4.46,2.43,5.43
				C1245.35,886.25,1250.37,888.02,1255.86,887.49z M981.76,848.27c-0.07,6.22-3.22,7.77-11.49,6.47c-3.73-0.59-7.15-4.32-10.9-2.22
				c-3.63,2.04-3.04,7.19-5.64,10.26c-0.11,0.12-0.17,0.29-0.25,0.43c-1.56,2.85-0.54,5.06,2.19,6.05
				c6.24,2.27,12.57,4.28,18.92,6.23c3.18,0.97,5.59-0.04,7.75-2.88c3.33-4.39,6.72-8.63,7.83-14.21c0.51-2.57,2.16-2.68,4.11-1.57
				c1.44,0.82,2.82,2.14,4.39,0.37c1.33-1.49,0.78-3.22,0.11-4.72c-3.24-7.28-4.99-15.1-8.81-22.22c-2.26-4.22-4.75-6.01-9.29-5.7
				c-5.64,0.39-11.29,0.98-16.94-0.09c-2.09-0.39-3.16,0.67-4.12,2.65c-2.48,5.12-0.5,9.71,1.08,14.41
				c1.38,4.11,6.99,8.48,11.21,8.73c2.26,0.14,3.91-0.6,4.43-3.03c0.37-1.74,0.37-4.16,2.95-3.77
				C981.82,843.86,981.78,846.22,981.76,848.27z M1249.97,945.05c0.05-0.35,0.1-0.7,0.14-1.05c1.79-0.25,3.62-0.37,5.38-0.78
				c1.64-0.38,4.17-0.16,3.73-2.91c-0.36-2.23-2.45-1.99-4.06-1.72c-2.56,0.43-4.98-0.15-7.4-0.68c-1.33-0.29-3.57-0.14-3.21-2.21
				c0.29-1.73,2.34-1.45,3.8-1.51c2.66-0.12,5.33-0.09,7.97-0.35c5.04-0.49,5.32-1.36,3.46-5.96c-1.14-2.82-4.57-4.62-3.61-8.36
				c0.71-2.77,0.93-5.39-3.01-5.92c-0.82-0.11-1.6-0.77-1.41-1.74c0.11-0.55,0.62-1.2,1.12-1.45c4.11-2.03,13.83,1.19,14.8,5.48
				c0.84,3.72,2.66,7.74-0.35,11.73c-2.54,3.37-0.53,6.94,1.52,9.64c2.16,2.83,4.77,0.73,7.02-0.71c0.42-0.27,0.89-0.46,1.36-0.63
				c3.84-1.35,4.6-4.62,4.62-8.03c0.02-3.34-2.87-3.03-5.11-3.41c-1.2-0.21-2.36-0.74-2.39-2.12c-0.04-1.43,1.14-1.98,2.34-2.14
				c2.02-0.27,3.9-0.86,5.57-2.03c1.35-0.94,1.97-2.24,1.63-3.89c-0.34-1.64-1.5-3.13-3-2.84c-5.04,0.96-8.42-1.8-12.02-4.49
				c-0.97-0.72-2.65-1.2-3.77-0.9c-6.31,1.68-12.59-1.7-18.93,0.09c-1.8,0.51-3.64,0.35-4.4,2.45c-0.75,2.1-1.4,4.19,1.07,5.73
				c0.69,0.43,1.53,0.98,1.13,1.95c-0.46,1.12-1.62,0.92-2.58,1.02c-1.75,0.18-3.85-1.12-5.94,1.96c7.5-1.13,4.69,6.88,9.26,8.49
				c-4.33,0.8-8.63,2.53-11.62-2.42c-0.71-1.17-2.37-2.01-3.47-1.07c-2.72,2.32-5.47,2.61-8.73,1.46c-1.08-0.39-2.46,0.18-2.6,1.63
				c-0.16,1.69,1.33,1.77,2.43,1.79c5.17,0.12,9.86,2.85,15.12,2.59c1.74-0.09,4.25,0,4.1,2.5c-0.16,2.8-2.74,2.5-4.68,2.2
				c-4.43-0.69-8.83-1.62-13.25-2.39c-1.34-0.23-2.88-0.24-3.32,1.39c-0.47,1.74,0.96,2.33,2.3,2.62c4.2,0.89,8.07,3.03,12.58,2.83
				c3.14-0.14,5.63,1.17,5.54,4.89c-0.06,2.55,1.61,3.01,3.52,3.27c4.29,0.57,8.58,1.13,12.87,1.65c2.03,0.25,3.99-0.16,5.85-0.97
				c1.27-0.56,2.45-1.33,2.15-2.95c-0.32-1.71-1.73-1.72-3.12-1.71C1256.9,945.07,1253.44,945.05,1249.97,945.05z M1118.78,660.83
				c0,1.52-0.08,2.69,0.01,3.84c0.33,3.97,1.15,7.59,5.8,8.81c4.64,1.22,7.09-1.83,9.59-4.74c1.6-1.86,2-4.26-0.01-5.75
				c-2.07-1.54-2.44,1.33-3.58,2.25c-1.43,1.16-3.28,3.89-4.77,1.51c-1.63-2.6-2.51-6.22-2.27-9.28c0.24-2.95,3.28-4.3,6.39-4.48
				c1.35-0.08,2.74-0.25,2.97-2c0.22-1.63-0.37-2.94-1.78-3.83c-2.59-1.65-5.05-1.43-7.28,0.65
				C1119.97,651.43,1117.94,655.78,1118.78,660.83z M1094.12,606.44c-0.3-2.96-0.74-4.95-0.65-6.92c0.35-7.58-2.34-14.77-2.69-22.25
				c-0.07-1.58-0.75-2.93-2.41-3.44c-1.12-0.34-2.18,0.12-2.41,1.18c-1.31,6.11-3.76,12.48-1.89,18.47
				c1.33,4.26,4.43,8.05,5.05,12.8c0.21,1.59,1.11,2.89,3.02,2.62C1094.16,608.62,1094.11,606.98,1094.12,606.44z M1245.07,1038.26
				c3.37,3.2,7.66,3.3,11.69,3.13c7-0.3,8.93-4.97,5-10.97c-3.32-5.07-5.93-10.34-5.14-16.74c0.24-1.93-0.18-3.97-0.47-5.93
				c-0.19-1.23-1.07-2.06-2.38-2.23c-1.47-0.18-2.55,0.55-3.44,1.62c-1,1.21-0.3,2.08,0.53,3.02c2.52,2.84,2.41,6.26,2.42,9.81
				c0.02,4.02-0.01,8.22,4.47,10.62c2.58,1.38,1.4,3.33-0.12,4.9C1254.12,1039.12,1249.89,1039.63,1245.07,1038.26z M973.48,319.46
				c-2.48,0-3.64-0.04-4.8,0.01c-2.17,0.1-4.18,0.88-4.21,3.29c-0.02,2.25,2.24,1.95,3.78,2.29c8.08,1.78,16.46-0.24,24.55,2.02
				c2.04,0.57,3.71-1.38,4.24-3.43c0.56-2.17-1.37-2.72-2.87-3.37c-2-0.88-4.13-1.44-6.29-1.19
				C982.64,319.69,977.45,321.65,973.48,319.46z M1290,1083.79c0.91-6.04-1.4-11.64-4.36-17.08c-0.74-1.36-2.12-2.19-3.22-1.03
				c-2.68,2.82-3.66,6.52-4.39,10.28c-0.57,2.93,1.96,2.93,3.52,3.92c2.14,1.35,2.86,3.54,3.17,5.91c0.19,1.47,0.26,2.97,0.55,4.41
				c0.24,1.17,0.88,2.33,2.23,2.31c1.38-0.02,1.92-1.21,2.05-2.41C1289.78,1088.12,1289.85,1086.14,1290,1083.79z M695.71,1110.47
				c5.01-1.39,10.26-3.8,15.53-6.13c7.05-3.13,13.07-7.83,19.05-12.58c0.79-0.63,1.7-1.31,1.24-2.44c-0.4-0.98-1.49-0.95-2.1-0.4
				c-5.86,5.31-14.4,5.74-20.16,11.38c-3.98,3.9-9.22,5.74-14.71,6.75c-1.36,0.25-3.62,0.09-3.36,2.03
				C691.46,1110.88,693.65,1110.13,695.71,1110.47z M997.01,299.99c-2.29,4.12-8.45,3.13-12.06,6.73c-1.73,1.72-0.99,3.85,1.82,4.18
				c2.15,0.25,4.23,0.29,6.03,1.85c6.48,5.62,6.33-2.69,9.06-4.61c2.86-2.01,1.61-4.65-0.57-6.74
				C1000.44,300.57,999.47,299.96,997.01,299.99z M745.07,936.04c-0.47-3.35,1.68-4.09,2.51-5.6c0.46-0.85,0.44-1.58-0.2-2.25
				c-0.63-0.67-1.67-0.99-2.2-0.31c-1.79,2.29-4.88,4.85-4.7,7.08c0.27,3.41-0.79,5.16-3.06,7.01c-0.91,0.74-1.54,1.9-0.84,3.09
				c0.84,1.43,2.79,1.53,3.46,0.7c3.86-4.76,12.32-3.8,13.91-11.35c0.27-1.3,2.28-2.44,0.64-3.85c-1.41-1.21-3.29-0.84-4.6,0.24
				C748.38,932.15,747.08,933.87,745.07,936.04z M1253.72,1052.39c-1.13-2.03-3.13-1.48-4.84-1.6c-2.56-0.18-5.71-0.61-6.79-2.5
				c-2.38-4.17-6.21-6.58-9.42-9.75c-1.13-1.12-1.58-3.39-3.64-1.92c-2.26,1.62-0.87,3.27,0.34,5.05c2.36,3.47,5.38,6.22,8.43,9.03
				C1242.96,1055.45,1246.97,1055.97,1253.72,1052.39z M1017.48,359.66c0.48-2.09,0.4-3.51-1.39-3.66
				c-2.56-0.21-4.37,1.59-5.79,3.28c-1.22,1.46-0.29,3.37,1.2,4.29c3.75,2.3,1.72,3.38-0.74,4.54c-1.94,0.92-3.97,1.73-5.72,2.93
				c-1.19,0.81-2.26,2.31-1.62,3.86c0.79,1.91,2.52,1.05,3.9,0.69c8.49-2.17,10.15-4.39,9.99-13.13
				C1017.29,361.32,1017.45,360.16,1017.48,359.66z M1222.72,1071.42c0.24,5.85,3.66,10.29,5.91,15.16
				c2.58,5.58,6.11,10.65,10.32,15.18c1.1,1.19,2.6,2.76,4.22,1.4c1.46-1.22,0-2.88-0.76-3.98c-3.01-4.36-6.62-8.24-9.71-12.59
				C1229.18,1081.67,1228.62,1074.85,1222.72,1071.42z M1123.2,624.76c-3.18-0.59-5.91,0.44-8.68,0.82c-1.75,0.24-3.2,1.32-2.35,3.5
				c0.75,1.91,10.48,5.41,12.02,4.13c1.98-1.66,4.01-2.6,6.57-3.12c2.68-0.54,1.08-2.24,0.1-3.24
				C1128.67,624.59,1125.7,624.9,1123.2,624.76z M876.96,646.58c-0.96-3.56,0.01-6.11,0.6-8.79c0.66-3.01,0.67-6.77-3.42-7.53
				c-2.48-0.46-5.18,0.88-5.42,3.92c-0.25,3.21-2.23,7.31,2.11,9.16C872.68,644.14,874.47,645.13,876.96,646.58z M1262.5,1059.81
				c-2.09-0.1-2.93-0.23-3.75-0.15c-1.42,0.14-3.38-0.29-3.78,1.57c-0.32,1.49,1.45,2.09,2.48,2.82c4.56,3.26,9.64,1.27,14.49,1.11
				c1.69-0.06,3.97-0.78,3.85-3.12c-0.12-2.32-2.41-2.7-4.15-2.72C1268.17,1059.29,1264.7,1059.68,1262.5,1059.81z M865.24,639.49
				c0.74-3.52-1.07-5.12-4.23-5.23c-2.86-0.1-6.18,0.13-6.07,4.08c0.11,4.22,4.32,5.84,7.12,6.59
				C865.25,645.78,864.77,641.73,865.24,639.49z M1281.18,895.65c-6.83-1.37-12.49-0.31-18.13,0.37c-1.67,0.2-3.58,0.9-3.24,2.99
				c0.37,2.34,2.51,1.57,4.07,1.53c2.96-0.08,5.41-2.67,8.61-1.74C1275.51,899.68,1277.93,898.47,1281.18,895.65z M698.21,946.88
				c1.79,0.01,3.22,0.34,3.97-1.2c0.32-0.65,0.18-1.55-0.47-1.72c-4.57-1.21-7.86-4.84-12.2-6.4c-1.46-0.53-3.09-0.24-3.75,1.5
				c-0.54,1.42,0.58,2.16,1.64,2.67C691.11,943.54,694.86,945.29,698.21,946.88z M688.72,1116.31c1.09,0.01,2.61,0.07,2.88-1.63
				c0.15-0.91-0.93-1.18-1.75-1.37c-5.92-1.38-11.84-2.77-17.77-4.14c-1.15-0.27-2.49-0.4-2.99,0.93c-0.61,1.61,0.58,2.58,1.92,2.86
				C676.81,1114.14,682.65,1115.18,688.72,1116.31z M703.88,997.64c-0.54,4.71,4.07,3.06,5.82,4.94c1.19,1.28,3.4,2.37,4.74,0.31
				c1.16-1.79,0.41-3.84-1.15-5.43c-1.73-1.75-3.9-2.39-6.27-2.72C704.49,994.39,703.62,995.47,703.88,997.64z M1002.93,331.68
				c-0.47-1.93-1.79-2.18-2.74-1.45c-1.97,1.49-4.2,2.51-6.18,3.86c-2.2,1.5-1.19,3.88,0.44,5.62c1.12,1.2,2.68,2.91,4.16,1.24
				C1000.97,338.28,999.15,333.58,1002.93,331.68z M1004.71,347.42c0.05,2.36,1.93,2.38,2.48,3.6c0.75,1.68,0.69,4.29,3.54,3.97
				c2.65-0.29,3.46-2.84,4.92-4.53c0.83-0.97,0.66-2.23-0.22-3.17c-0.95-1.02-2.78-1.93-3.47-0.97
				C1009.91,349.15,1007.34,347.55,1004.71,347.42z M1276.08,907.54c2.66-1.63,7.41,0.23,8.9-4.24c0.58-1.76-1.26-3.03-2.74-2.22
				c-3.03,1.65-8.23-2.46-9.44,3.47C1272.4,906.47,1273.66,907.6,1276.08,907.54z M1095.29,541.69c1.27-0.19,3.05-0.05,3.36-1.94
				c0.31-1.87-1.15-2.56-2.69-2.87c-1.52-0.31-2.71-1.04-3.72-2.22c-1.59-1.85-2.98-0.73-4.1,0.55c-1.32,1.51-1.16,3.29,0.6,4.16
				C1090.74,540.36,1092.65,541.88,1095.29,541.69z M721.16,958.64c-0.44-1.44,0.78-5.03-1.23-4.67c-2.52,0.46-5.85,3.05-6.48,5.36
				c-0.56,2.06,3.46,2.96,5.73,3.32C722.2,963.14,721.4,960.71,721.16,958.64z M712.61,1025.25c-0.37-2.58-2.01-3.64-4.48-3.47
				c-1.87,0.13-3.85,0.6-3.78,2.97c0.1,2.92,2.35,3.74,4.82,3.83C711.32,1028.65,712.52,1027.48,712.61,1025.25z M1091.75,637.27
				c1.61-2.12,5.5-2.04,5.94-5.66c0.18-1.46-0.51-2.83-2.15-2.62c-3.2,0.42-5.34,2.49-6.26,5.48
				C1088.88,635.79,1089.87,636.95,1091.75,637.27z M1014,332.22c-0.15-1.1-0.7-1.81-1.88-1.9c-1.76-0.12-7.12,5.52-7.2,7.56
				c-0.04,1.09,0.25,1.96,1.49,2.14C1008.31,340.28,1014.16,334.25,1014,332.22z M731.58,967.51c-0.19-1.43-1.29-1.94-2.47-2.03
				c-2.75-0.22-5.25,0.73-7.6,2.03c-0.91,0.51-1.57,1.4-1.04,2.49c0.55,1.11,1.69,1.04,2.6,0.61c2.15-1.03,4.44-1.32,6.76-1.6
				C730.68,968.91,731.41,968.5,731.58,967.51z M855.2,668.3c1.66-0.36,4.42,0.26,4.14-2.3c-0.27-2.49-2.96-3.45-5.27-3.71
				c-1.94-0.22-3.16,1.25-3.16,3.09C850.91,668.19,853.16,668.19,855.2,668.3z M729.5,936.52c0.1-2.29-1.38-3.09-3.13-3.08
				c-2.82,0.01-3.31,2.44-3.68,4.47c-0.34,1.82,1.18,2.7,2.76,2.74C728.19,940.71,728.77,938.43,729.5,936.52z M1249.41,958.11
				c1.71-0.04,4.36,0.37,4.21-1.55c-0.25-3.2-3.79-2.44-5.97-3.14c-1.79-0.58-3.78,0.29-3.49,2.3
				C1244.59,958.71,1247.67,957.34,1249.41,958.11z M709.36,1011.88c0.68-2.98-0.95-4.61-3.64-5.28c-1.36-0.34-1.77,0.97-1.37,1.9
				c1.07,2.51-0.35,6.59,3.36,7.31C709.89,1016.23,709.23,1013.5,709.36,1011.88z M738.17,918.19c4.54-1.25,7.81-2.46,9.97-5.63
				c0.33-0.49,0.6-1.25,0.46-1.76c-0.18-0.66-1.02-0.92-1.62-0.54C743.93,912.2,740.02,913.15,738.17,918.19z M1267.26,1043.67
				c-0.25-1.4-0.77-2.85-2.38-2.65c-2.42,0.31-2.86,2.56-3.26,4.46c-0.34,1.63,1.04,1.9,2.26,1.75
				C1265.92,1046.98,1267.19,1045.85,1267.26,1043.67z M711.36,978.23c-0.39-1.42-0.84-3.08-2.8-2.73c-1.67,0.3-2.42,1.71-2.23,3.4
				c0.18,1.61,1.31,2.27,2.83,2.11C710.72,980.85,711.53,979.94,711.36,978.23z M866.07,553.8c1.18-0.33,2.73-0.7,2.82-2.61
				c0.07-1.57-0.86-2.64-2.44-2.47c-1.79,0.19-3.17,1.25-3.16,3.23C863.3,553.42,864.46,553.81,866.07,553.8z M1236.4,978.12
				c-4.39-2.8-6.82-2.93-10.65-0.79C1229.23,979.63,1232.98,976.57,1236.4,978.12z M1246.31,1008.64c-2.4-0.79-4.64-3.17-7.27-0.84
				c-0.24,0.22-0.28,1.15-0.06,1.33C1241.44,1011.15,1243.86,1009.84,1246.31,1008.64z M1141.11,720.28
				c-0.87,0.24-1.69,0.7-1.54,1.92c0.19,1.61,1.46,2.07,2.82,2.2c0.99,0.1,2.24-0.03,2.06-1.35
				C1144.22,721.42,1142.78,720.77,1141.11,720.28z"/>
			<path d="M690.88,1057.97c-0.35,2.01-0.27,4.47-2.05,5.88c-3.06,2.43-5.17,5.09-4.68,9.25c0.06,0.49-0.71,1.58-0.91,1.53
				c-3.45-0.73-7.46-0.78-10.13-2.68c-2.45-1.75-1.82-5.46,0.32-8.1c2.61-3.22,5.14-6.53,7.96-9.56c2.31-2.47,5.03-0.42,7.51,0.01
				C690.71,1054.63,690.91,1056.28,690.88,1057.97z"/>
			<path d="M964.11,254.47c4.91-0.57,8.77,0.84,12.47,2.84c2.81,1.52,2.99,3.83,0.59,5.5c-2.24,1.56-3.11,3.06-2.64,5.71
				c0.29,1.63-0.81,3.49-2.44,2.93c-2.94-1.01-5.32-0.14-8.06,0.55c-3.24,0.82-5.29-1.89-6.47-4.41c-1.11-2.37,1.17-2.75,2.84-2.69
				c3.16,0.1,6.31,0.56,9.44-0.24c1.11-0.28,2.45-0.35,2.67-1.81c0.2-1.34-0.81-2.07-1.77-2.77
				C968.53,258.46,965.58,257.74,964.11,254.47z"/>
			<path d="M967.97,361.34c0.04-3.77,6.56-8.74,9.9-7.79c1.57,0.45,3.08,1.14,4.59,1.78c1.74,0.74,2.32,2.34,1.15,3.58
				c-3.37,3.59-7.22,7.12-12.06,7.96C968.1,367.47,968.32,363.56,967.97,361.34z"/>
			<path d="M967,293.1c1.61,0.02,2.34,0.42,2.42,1.38c0.15,1.68,0.19,3.68-1.73,4.21c-5.42,1.48-8.37,5.52-11.08,9.94
				c-0.8,1.3-1.86,2.64-3.59,1.82c-1.92-0.92-0.93-2.47-0.46-3.87c0.99-2.91,2.62-5.23,5.19-7.05
				C960.98,297.26,964.73,295.81,967,293.1z"/>
			<path d="M980.78,454.91c0,3.06,0.01,6.11,0,9.17c-0.02,4.3-0.37,8.66,2.62,12.35c0.88,1.09,1.39,2.54,0.01,3.51
				c-1.44,1.02-2.41-0.29-3.32-1.26c-3.73-3.97-3.18-8.84-2.89-13.65C977.42,461.41,978.17,457.96,980.78,454.91z"/>
			<path d="M919.96,624.83c-7.41-4.27-14.62-9.01-19.84-16.25c-0.57-0.79-1.02-1.82-0.37-2.78c0.64-0.94,1.55-0.52,2.14,0.05
				c6.06,5.79,11.36,12.4,18.53,17C920.92,623.18,921.07,624.02,919.96,624.83z"/>
			<path d="M977.12,413.8c0.39-4.05,0.68-7.03,0.98-10c0.14-1.39,0.47-2.93,2.19-2.7c1.39,0.18,1.74,1.89,1.28,2.83
				c-2.88,5.98-0.52,11.27,1.85,16.61c0.48,1.09,0.79,2.37-0.66,2.98c-1.32,0.55-2.26-0.4-2.89-1.37
				C978,419.3,977.06,416.14,977.12,413.8z"/>
			<path d="M983.16,493.63c-0.26,1.62-0.28,3.69-0.94,5.52c-0.96,2.68-1.56,5.07,0.79,7.34c0.73,0.7,1.16,1.74,0.31,2.66
				c-0.89,0.97-1.84,0.38-2.66-0.2c-2.54-1.81-4.8-3.56-2.72-7.32c1.52-2.75,0.31-6.31,2.1-9.12c0.8-1.25,0-4.14,2.38-3.58
				C984.69,489.46,982.86,491.77,983.16,493.63z"/>
			<path d="M1001.97,244.84c-2.41-0.07-4.08-0.7-4.53-2.83c-0.42-1.97,0.8-3.06,2.5-3.71c1.53-0.58,3.03-1.36,4.62-1.64
				c2.34-0.42,4.42,0.53,5.07,2.86c0.59,2.08-0.83,3.31-2.87,3.85C1005.02,243.83,1003.31,244.43,1001.97,244.84z"/>
			<path d="M918.77,604.36c-7.89-2.38-13.57-8.02-19.46-13.35C907.36,593.15,914.1,597.23,918.77,604.36z"/>
			<path d="M1091.26,455.48c1.8,1.4,4.11,1.72,6.69,1.27c0.83-0.14,1.19,1.07,0.81,1.93c-0.33,0.75-0.74,1.59-1.37,2.04
				c-1.6,1.16-1.12,5.36-3.94,3.93c-2.48-1.26-4.12-4.27-4.34-7.48C1089.01,455.95,1089.6,455.29,1091.26,455.48z"/>
			<path d="M964.51,204.65c-5.85,6.36-14.18,9.63-19.58,16.49C950.31,214.26,956.05,207.82,964.51,204.65z"/>
			<path d="M982.91,440.68c-0.74,2,0.56,5.96-1.91,5.81c-2.85-0.18-1.71-4.04-1.72-6.33c-0.01-1.93-0.95-5.41,1.84-5.26
				C984.38,435.07,982.51,438.55,982.91,440.68z"/>
			<path d="M1101.41,453.24c0.54-4,2.8-6.81,5.04-9.54c1.01-1.22,3.1-1.97,4.38-0.41c1.2,1.46-0.3,2.86-1.42,3.7
				C1106.73,449,1103.6,450.41,1101.41,453.24z"/>
			<path d="M950.61,636.27c-5.48,0.43-9.26-2.4-13.5-3.06c-0.58-0.09-1.12-0.9-0.74-1.57c0.45-0.82,1.39-0.82,2.19-0.61
				C942.46,632.03,946.73,632.15,950.61,636.27z"/>
			<path d="M952.67,268.35c-0.09,1.65-1.03,2.43-2.51,2.44c-1.7,0.01-2.74-0.97-2.96-2.64c-0.2-1.52,0.52-2.63,2.1-2.66
				C951.18,265.46,952.23,266.64,952.67,268.35z"/>
			<path d="M1002.54,639.21c-2.01,2.39-3.61,5.03-6.69,5.59c-0.98,0.18-2.1,0.2-2.35-1.1c-0.18-0.93,0.57-1.51,1.36-1.8
				C997.41,640.97,999.98,640.1,1002.54,639.21z"/>
			<path d="M970.23,279.11c-0.39,1.77-1.6,2.79-3.37,3.17c-1.1,0.23-2.22-0.07-2.15-1.33c0.13-2.27,2.03-2.82,3.85-3.22
				C969.52,277.52,970.15,278,970.23,279.11z"/>
			<path d="M1075.6,453.3c3.67,1.72,5.65,3.47,7.61,6.74C1079.86,458.86,1077.44,456.72,1075.6,453.3z"/>
			<path d="M886.2,441.49c0.66,3.25-1.18,4.84-3.37,7.45C882.87,445.35,883.02,443,886.2,441.49z"/>
			<path d="M982.62,684.21c-6.18,0.39-12.31,0.17-18.45,0.19c-8.02,0.03-15.28-2.94-22.86-4.66c-1.51-0.34-3.81-1.13-3.3-3.08
				c0.65-2.53,3.05-1.22,4.68-0.95c3.11,0.52,6.16,1.37,9.25,1.98c16.97,3.34,34.11,4.58,50.43-1.9c8.4-3.34,16.96-6.46,25.16-10.38
				c0.89-0.43,1.81-0.88,2.76-1.09c0.56-0.12,1.52,0.03,1.79,0.41c0.59,0.83-0.08,1.58-0.8,2.01c-1.7,1.02-3.35,2.36-5.21,2.83
				c-6.21,1.57-11.8,4.5-17.31,7.55C1000.58,681.66,991.74,683.42,982.62,684.21z"/>
			<path d="M1087.44,694.61c-4.82,5-10.73,7.76-16.35,8.4c-7.5,0.86-14.25,3.47-21.26,5.57c-1.1,0.33-2.19,0.88-3.31,0.93
				c-1.27,0.06-2.86-0.02-3.07-1.78c-0.16-1.36,0.86-2.11,2.07-2.41c5.94-1.48,11.85-3.79,17.86-4.14
				c6.25-0.36,11.5-2.76,16.97-5.04C1082.41,695.28,1084.35,693.99,1087.44,694.61z"/>
			<path d="M1058.57,690.4c10.26-5,20.57-9.47,27.5-19.04c0.84-1.15,2.35-2.66,3.74-1.5c1.78,1.48,0.53,3.58-0.52,4.94
				c-5.11,6.64-11.61,11.48-19.71,13.8C1066.01,689.64,1062.42,691.16,1058.57,690.4z"/>
			<path d="M1051.26,716.94c-0.55,3.9-2.29,7.1-4.11,10.26c-2.8,4.87-5.55,9.77-8.5,14.55c-0.81,1.32-2.26,3-4.03,1.64
				c-1.51-1.17-0.3-2.87,0.51-3.99c3.41-4.71,6.2-9.72,8.69-14.98c1.2-2.54,2.79-4.8,2.98-7.73c0.1-1.53,0.65-3.18,2.58-2.99
				C1051.37,713.9,1051.34,715.61,1051.26,716.94z"/>
			<path d="M1101.46,663.32c-0.59,1.94-2.11,1.81-3.61,1.56c-0.92-0.16-2.4-0.37-1.89-1.62c0.72-1.77,2.76-1.51,4.31-1.7
				C1101.17,661.46,1101.59,662.36,1101.46,663.32z"/>
			<path d="M852.03,601.86c0.33-2.29,0.43-4.65,1.08-6.84c0.41-1.39,1.74-2.65,3.46-2.19c1.47,0.39,1.89,1.89,1.83,3.24
				c-0.23,5.49-2.76,10.6-2.69,16.16c0.01,0.67-0.63,1.31-1.35,0.99c-0.5-0.22-1.04-0.89-1.14-1.43
				C852.6,608.51,851.74,605.26,852.03,601.86z"/>
			<path d="M1106.64,562.98c-1.38-0.41-3.38,0.3-3.63-1.77c-0.19-1.54,1.23-1.84,2.41-1.61c1.49,0.29,3.75-0.16,3.88,2.07
				C1109.38,563.16,1107.66,562.84,1106.64,562.98z"/>
			<path d="M1109.53,572.9c-0.19,1.44-1.23,1.82-2.44,1.81c-1.42-0.01-2.68-0.48-2.55-2.21c0.1-1.32,1.08-1.99,2.37-1.96
				C1108.39,570.57,1109.31,571.36,1109.53,572.9z"/>
			<path d="M715.34,881.95c2.46,0.17,5.02-0.09,6.98,1.94c1.31,1.35,1.48,2.91,0.86,4.59c-0.49,1.34-1.37,2.33-2.93,2.19
				c-1.76-0.15-2.6-1.35-2.84-2.96c-0.37-2.46-1.86-3.31-4.18-3.22c-1.11,0.04-2.78,0.31-2.85-1.15c-0.09-1.92,1.75-1.48,2.99-1.54
				C714.02,881.77,714.68,881.89,715.34,881.95z"/>
			<path d="M990.07,711.34c-2.9,0.22-5.09,0.62-6.26-1.86c-0.12-0.26,0.26-1.07,0.57-1.18
				C986.89,707.46,988.32,708.92,990.07,711.34z"/>
		</g>
	</g>
	<g>
		<g>
			<path class="st0" d="M887.5,742.94c2.02-1.27,2.93,0.23,4.11,1.03c11.55,7.93,23.56,15.03,37.44,18
				c3.97,0.85,8.24,0.67,12.34,0.4c2.23-0.14,4.38-2.19,4.03-4.42c-1.2-7.68,1.7-14.82,2.32-22.24c0.48-5.71-0.69-6.92-6.02-4.43
				c-11.9,5.57-23.94,5.56-36.53,2.8c-6.48-1.42-13.07-2.2-19.33-4.62c-6.16-2.39-11.33-6.22-16.21-10.53
				c-1.15-1.01-2.42-2.38-1.32-3.85c1.45-1.92,2.99-0.4,4.25,0.61c15.08,12.03,32.92,15.53,51.5,16.1
				c8.28,0.25,15.75-3.73,23.3-6.73c2-0.79,3.86-1.93,5.84-2.79c1.42-0.61,2.99-1.08,2.53-3.06c-0.4-1.72-1.82-2.11-3.45-2.3
				c-7.6-0.87-15.23-1.64-22.79-2.81c-14.44-2.24-28.14-6.82-40.34-14.97c-10.08-6.73-20.39-13.34-27.03-24.03
				c-1.01-1.62-2.56-2.81-4.55-2.59c-2.26,0.25-2.42,2.37-3.11,4.06c-4.35,10.68-2.7,20.91,1.05,31.51
				c2.46,6.95,2.87,14.64,3.55,22.17c-2.2-3.3-4.32-6.46-5.36-10.23c-1.82-6.57-3.88-13.07-5.66-19.65c-1.1-4.06-3.2-4.19-6.17-2
				c-0.67,0.49-1.35,1.01-1.9,1.62c-11.36,12.63-25.66,22.1-37.08,34.66c-1.29,1.42-3.58,2.62-2.42,4.96
				c1.37,2.75,3.41,0.7,5.18,0.24c1.11-0.29,2.46-0.88,2.93,0.71c0.43,1.45-0.84,2.04-1.97,2.39c-1.1,0.34-2.26,0.66-3.41,0.69
				c-13.97,0.3-23.62,7.03-30.22,19.22c-7.27,13.44-17.1,24.91-28.83,34.77c-7.39,6.21-14.5,12.75-21.72,19.15
				c-1.13,1-2.24,1.99-4.37,1.84c1.15-4.25,4.38-6.65,7.25-9.1c10.9-9.29,21.28-19.09,30.96-29.66c4.21-4.59,7.92-9.57,10.44-15.18
				c3.38-7.53,8.35-13.53,14.8-18.47c0.53-0.4,0.99-1.13,1.56-1.21c9.17-1.26,12.95-9.28,18.31-15.03
				c6.51-6.99,14.12-12.65,20.98-19.18c6.98-6.65,13.9-13.38,20.78-20.13c4.25-4.17,5.26-10.03,6.99-15.3
				c1.29-3.93-2.47-3.9-5.21-3.21c-4.7,1.18-9.2,1-12.4-2.91c-4.74-5.79-7.23-12.55-7.07-21.69c3.55,4.05,4.43,8.07,6.06,11.53
				c1.62,3.44,3.81,6.24,6.5,8.73c2.09,1.92,4.43,2.14,6.8,0.35c2.31-1.74,1.63-3.82,0.51-5.78c-1.39-2.42-1.69-5.02-1.66-7.71
				c0.02-1.35,0.23-3.26,1.64-3.3c3.37-0.11,3.99-2.78,5.45-4.81c1.26-1.76,3.17-3.26,1.27-5.64c-1.34-1.68-2.6-3.63-5.26-3.02
				c-2.42,0.55-4.23,1.81-5.06,4.3c-2.31,6.87-2.33,6.86-8.07,2.24c-1.3-1.04-2.66-2.01-4.01-2.99c-2.31-1.67-4.29-2.31-4.77,1.6
				c-0.12,0.96-0.17,2.2-1.54,2.12c-1.1-0.06-1.59-1.11-2.04-2c-0.7-1.4-0.88-2.92-0.4-4.38c1.24-3.82,2.39-7.61,2.02-11.72
				c-0.12-1.4,0.81-2.5,1.9-3.36c0.67-0.53,1.45-0.87,2.31-0.51c1.05,0.44,0.78,1.31,0.58,2.12c-0.23,0.97-0.74,1.96-0.67,2.9
				c0.21,2.78-0.03,5.94,2.5,7.78c2.38,1.72,4.38-0.59,6.38-1.54c4.11-1.94,8.25-3.61,12.89-3.5c2.85,0.07,5.09-0.8,4.99-4.12
				c-0.09-3.05-2.19-4.52-4.96-4.54c-3.31-0.02-6.64,0.34-9.94,0.72c-4.37,0.51-6.77,0.22-8.27-5.46
				c-1.72-6.53-5.37-12.82-8.61-18.95c-3.62-6.84-4.34-14.54-7.56-21.45c-0.75-1.62-0.6-4.18,0.12-5.89
				c3.93-9.34,1.12-18.98,1.58-28.46c0.13-2.71,0.03-5.45,1.57-7.7c5.63-8.24,6.64-17.98,9.21-27.23
				c1.99-7.14,4.27-14.21,6.84-21.16c1.79-4.83,0.91-9.71,0.39-14.34c-1.24-11.17,0.41-21.88,3.09-32.59
				c0.93-3.72,1.62-7.48,1.61-11.35c-0.01-2.21,0.61-4.27,2.73-5.5c1.47,0.49,0.94,1.61,0.82,2.51
				c-1.78,13.39-2.42,26.82-0.96,40.28c0.24,2.18,0.47,3.75-2.4,4.41c-3.22,0.75-2.29,3.72-2,5.85c0.27,1.93,1.15,3.82,2.01,5.61
				c1.34,2.79,1.6,4.5-1.47,6.99c-3.37,2.74-3.78,7.95-5.05,12.1c-1.98,6.49-3.2,13.23-5.02,19.81c-1.92,6.97-0.73,9.74,5.6,13.04
				c4.57,2.37,8.46,5.93,13.46,7.51c1.86,0.59,4.02,2.15,5.53,0.29c1.85-2.28-1.09-3.33-2.11-4.83c-0.45-0.66-1.2-1.17-0.64-2.44
				c3.66-0.46,5.01,3.25,7.63,4.64c5.63,3,12.74,2.48,16.98-2c1.73-1.83,1.09-3.68-1.05-4.24c-2.59-0.68-5.29-0.12-7.56,1.52
				c-1.14,0.82-0.44,3.99-3.11,2.75c-2.41-1.12-5.64-1.51-6.22-5.87c4.35,2.61,8-1.15,12.05-0.31c3.07,0.64,3.4-3.09,6.37-3.75
				c3.38-0.75,1.01-4.17-0.57-6.36c-1.78-2.47-0.02-3.96,1.78-5.33c4.69-3.58,4.88-12.07,0.33-16.05c-1.87-1.64-3.82-3.21-5.67-4.88
				c-1.18-1.08-2.05-2.62-0.99-4c3.01-3.92-0.12-5.88-2.54-7.61c-2-1.43-3.27-3.26-4.6-5.15c-0.65-0.92-1.7-1.96-0.47-3.04
				c1.11-0.98,2.15-0.24,3.01,0.67c1.05,1.11,1.64,3.54,3.72,2.26c1.62-0.99,0.84-3.06,0.63-4.66c-0.84-6.3-1.26-12.61-0.38-18.93
				c0.27-1.96,0.8-3.9,1.34-5.81c0.26-0.93,0.72-2.15,1.9-1.94c1.63,0.29,1.36,1.88,1.03,2.85c-1.67,4.84-0.18,9.97-1.52,14.85
				c-0.42,1.51-0.39,3.79,1.61,4.2c2.03,0.42,1.84-1.89,2.39-3.16c1.21-2.8,2.39-5.61,3.86-9.08c1.74,4-0.28,6.75-1.14,9.6
				c-0.65,2.16-2.7,4.77,0.34,6.02c2.29,0.94,3.86-1.8,4.57-3.71c4.05-10.81,13.03-17.46,20.78-25.16c0.82-0.82,1.77-1.53,2.74-2.16
				c1.13-0.73,2.53-1.56,3.44,0.07c0.78,1.4-0.64,1.93-1.61,2.58c-10.74,7.22-18.25,17.22-24.66,28.27
				c-2.85,4.91-2.58,10.23-3.17,15.47c-0.21,1.84-0.15,3.56-1.87,4.88c-3.24,2.49-1.97,4.75,0.99,6.01
				c4.13,1.76,4.31,4.17,3.49,8.34c-1.03,5.22-2.76,10.68-0.37,16.18c0.86,1.97,0.09,4.27-0.11,6.43
				c-0.82,8.91-0.17,17.61,4.08,25.72c1.43,2.73,2.44,5.24,0.85,8.45c-1.3,2.62,0.12,5.18,1.91,7.32
				c4.81,5.78,10.09,10.96,17.12,14.06c1.17,0.51,2.37,1.27,2.53,4.08c-5.81-3.51-11.09-6.57-16.24-9.86
				c-1.8-1.15-3.22-2.87-4.87-4.28c-0.92-0.79-2.04-1.41-3.14-0.46c-1.16,1-0.31,2.06,0.16,3.14c2.02,4.64,6.08,7.33,9.78,10.36
				c0.58,0.47,0.99,1.15,1.74,2.06c-12.13-2.2-16.33-7.8-14.66-18.68c0.91-5.89-0.86-11.58-1.64-17.34
				c-0.31-2.28-1.32-4.43-1.04-6.86c0.2-1.67-0.64-2.92-2.43-3.22c-1.81-0.3-2.78,0.83-3.45,2.28c-0.65,1.42-0.81,2.96-0.18,4.38
				c4.25,9.61,2.11,19.81,2,29.63c-0.05,5.08-2.26,10.63-3.27,16c-1.74,9.28-2.06,18.56,2.66,27.25c1.25,2.31,2.17,5.01,5.85,1.95
				c3.2-2.66,6.35,0.11,7.82,2.7c4.36,7.7,12.41,9.57,19.51,11.79c12.68,3.95,25.61,6.98,37.94,12.17
				c8.15,3.43,17.13,4.22,25.87,5.27c6.76,0.81,13.61,1.42,20.31,2.4c17.5,2.55,34.28-0.68,50.73-5.5c8.99-2.64,17.57-7,25.56-12.28
				c4.67-3.08,9.33-6.46,15.09-7.47c3.04-0.53,4.62-2.46,5.03-5.42c0.89-6.55-0.23-12.94-1.66-19.29c-0.25-1.13-0.88-2.35-2.32-2.18
				c-1.37,0.17-1.77,1.44-1.98,2.6c-1.06,5.84-5.02,10.05-8.25,14.65c-0.72,1.03-1.9,2.48-3.26,1.55c-1.44-0.99-0.3-2.49,0.4-3.52
				c2.91-4.3,5.22-8.85,6.85-13.82c1.28-3.9,2.31-7.61,0.62-11.63c-0.76-1.82,0.13-3.58,0.73-5.32c0.55-1.62,0.99-3.48-0.68-4.56
				c-1.82-1.17-3.19,0.43-4.22,1.63c-2.75,3.2-5.76,5.91-10.66,7.01c4.55-5.3,8.65-10.22,12.91-15c2.27-2.55,4.09-5.25,4.55-8.69
				c0.2-1.46,0.73-3.2-1-4c-1.8-0.84-3.17,0.24-4.22,1.7c-2.85,3.93-6.14,7.31-11.5,9.31c0.56-3.73,3.21-5.24,5.26-6.75
				c4.42-3.23,7.94-7.58,9.93-12.14c1.46-3.35,2.79-6.81,4.47-10.17c1.82-3.64-1.55-3.85-4.6-4.34c2.85-2.92,3.43-6.11,2.38-9.71
				c-0.3-1.03-0.33-2.62,0.27-3.34c2.64-3.2,2.35-6.98,1.85-10.48c-0.85-5.99,0.45-12.08-0.13-17.68
				c-0.59-5.72,0.16-10.69,0.89-16.1c0.5-3.77-3.05-6.72-5.47-9.67c-1.41-1.72-3.79-2.99-3.33-5.78c0.06-0.36,0.7-0.92,1.01-0.88
				c2.76,0.34,3.39,2.83,4.68,4.7c1.4,2.05,2.92,4.03,4.48,5.96c0.95,1.17,2.16,2.39,3.8,1.38c1.48-0.91,1.5-2.6,1.06-4.06
				c-0.62-2.06-1.67-4-2.26-6.06c-0.4-1.38-0.79-3.21,1.16-3.81c1.78-0.54,3.34,0.24,4.07,2.02c1.29,3.14,2.06,6.41,0.7,9.71
				c-0.82,1.99-2.08,3.79-2.89,5.79c-0.65,1.61-2.46,3.98-0.94,4.92c2.05,1.27,3.55-1.35,4.33-2.95c3.66-7.47,7.11-15.04,7.23-23.62
				c0.02-1.08-0.43-2.64,1.11-2.92c1.66-0.29,2.17,1.3,2.64,2.49c0.76,1.94,0.43,3.94,0.03,5.91c-1.15,5.61-3.69,10.66-6.24,15.71
				c-1.19,2.37-3.64,4.28-1.85,7.64c0.88,1.64-1.11,2.48-2.58,2.95c-4.15,1.33-6.8,3.91-5.68,8.47c0.96,3.91,6.81,6.01,11.14,4.63
				c2.38-0.76,5.76-3.01,7.08-0.11c1.19,2.62-2.83,3.5-4.75,4.79c-6.13,4.11-6.51,3.97-10.98-1.49c-1.1-1.35-2.55-2.73-4.2-1.31
				c-2.03,1.75-0.57,3.46,1.04,4.43c2.57,1.55,2.98,2.84,0.31,4.65c-1,0.68-1.6,1.84-0.96,3.07c0.77,1.48,2.21,1.86,3.8,1.96
				c4.51,0.29,7.57-3.22,11.55-4.38c2.22-0.65,3.93-2.08,6.2,0.23c1.48,1.5,3.76,0.8,5.65-0.11c1.14-0.55,2.53-1.82,3.47-0.21
				c0.85,1.45-0.84,2.4-1.72,3.23c-4.33,4.08-9.2,7.36-14.95,9.11c-1.15,0.35-2.56,0.38-2.11,2.02c0.44,1.56,2.08,2.09,3.25,1.41
				c10.83-6.34,24.05-9.36,30.49-21.88c1.71-3.32,3.23-6.06,0.49-9.99c-1.65-2.36-0.41-6.89-5.83-4.9
				c-1.26,0.46-1.18-1.47-0.66-2.18c3.56-4.9,2.54-10.46,1.36-15.48c-2.61-11.16-1.29-22.21-0.23-33.27
				c1.38-14.37-1.71-27.91-7.57-40.75c-3.42-7.49-10.22-12.1-17.75-15.41c-22.56-9.9-45.87-17.9-68.67-27.16
				c-1.08-0.44-2.18-0.86-3.32-1.09c-5.7-1.18-7.01,0.07-5.43,5.59c0.87,3.04-0.54,4.75-2.65,6.34
				c-7.27,5.48-15.51,8.83-24.19,11.42c-9.53,2.84-19.45,3.09-28.99,2.65c-13.27-0.61-24.85-6.17-30.94-19.31
				c-1.57-3.39-3.2-4.91-7.27-2.87c-4.72,2.37-10.31,2.6-15.09,5.11c-12.19,6.39-25.52,10.07-37.85,16.33
				c-8.04,4.08-15.58,8.58-23.02,13.55c-4.71,3.14-6.79,8.61-12.17,11.81c1.77-7.08,5.99-12.26,11.21-15.81
				c12.49-8.52,25.81-15.73,39.92-21.32c12.2-4.83,24.26-10,36.98-13.46c5.81-1.58,9.19-5.28,8.92-11.96
				c-0.21-5.39,1.99-10.75-0.32-16.23c-1.48-3.51-3.86-6.54-4.84-10.36c-0.73-2.87-2.26-5.47-1.96-8.64
				c0.2-2.12-0.97-4.07-2.76-5.05c-6.67-3.65-8.99-8.54-6.44-16.14c1.35-4.04,0.05-8.62-0.82-12.86
				c-1.14-5.59-0.01-10.71,3.14-15.23c2.29-3.28,2.68-6.65,2.37-10.41c-0.65-7.91-0.4-15.68,4.34-22.58
				c0.74-1.08,1.18-2.65,2.86-2.3c1.51,0.31,1.88,1.79,2.14,3.09c0.57,2.94,1.26,5.88,1.52,8.85c0.27,3.21,0.58,6.21,2.95,8.76
				c1.26,1.36,1.35,3.72-0.65,4.14c-8.61,1.82-5.72,9.1-7.12,14.32c-0.16,0.61,0.11,1.32,0.07,1.99c-0.06,1.18-0.16,2.52-1.53,2.83
				c-1.27,0.28-1.52-1.02-1.96-1.87c-0.9-1.71-1.94-3.52-4.17-2.05c-2.41,1.59-0.94,3.51,0.1,5.19c0.91,1.47,2.37,2.18,3.99,2.8
				c2.42,0.93,3.62,3.49,2.17,5.2c-2.54,2.99-3.04,7.09-5.82,9.74c-3.82,3.64-0.96,6.84,0.67,9.86c1.47,2.72,3.82,2.91,6.81,1.37
				c3.21-1.66,4.16,1.25,3.2,3.27c-2.28,4.8-0.97,8.64,0.56,13.47c2.2,6.9,3.93,12.04,12.69,11.27c2.97-0.26,4.33,4.29,7.39,5.43
				c0.63,0.24,0.6,1.34,0.03,1.69c-0.64,0.39-1.69,0.74-2.28,0.47c-2.27-1.01-4.4-2.32-6.62-3.45c-2.92-1.48-4.84-0.55-4.33,2.73
				c0.61,3.9-0.81,7.19-1.99,10.65c-5.01,14.73,2.08,28.17,17.02,32.69c6.82,2.06,13.75,2.5,20.73,1.88
				c4.42-0.39,7.54-3.91,11.2-6.05c1.31-0.76,1.74-2.94,0.49-4.5c-1.05-1.31-2.57-1.41-4.11-0.84c-2.02,0.76-4.02,1.59-6.06,2.3
				c-1.49,0.52-3.21,0.72-3.98-0.93c-0.99-2.12,1.17-2.74,2.36-2.96c4.9-0.9,8.37-3.86,11.59-7.32c0.79-0.85,2.21-1.62,2.29-2.52
				c0.39-4.47,2-4.38,5.89-3.01c3.95,1.39,2.48-4.08,5.02-5.44c-3.53,1.51-6.61,2.4-10.02,0.26c-1.53-0.96-3.16,0.46-4.69,1.06
				c-0.99,0.38-2.07,0.42-2.78-0.42c-0.85-1-0.04-1.82,0.61-2.58c1.21-1.42,3.93-2.14,2.84-4.68c-1.05-2.46-3.74-1.91-5.77-2.12
				c-6.23-0.66-12.6,0.86-18.74-1.26c-0.47-0.16-1-0.13-1.46-0.3c-1.38-0.5-3.07-0.69-3.65-2.29c-0.36-0.97,0.57-1.43,1.36-1.73
				c1.54-0.57,3.12-1.53,4.57,0.14c0.76,0.88,1.36,2.07,2.75,1.78c1.62-0.34,3.64-0.64,2.31-3.14c-0.53-0.99-1.93-2.26-0.35-2.82
				c2.28-0.81,4.87-1.09,7.3-0.99c1.5,0.06,1.05,1.85,0.83,2.92c-0.43,2.03,0.29,3.5,2.28,3.65c2.43,0.19,2.41-1.85,2.33-3.53
				c-0.12-2.62,2.11-5.74-1.39-7.68c-3.62-2.01-7.33-3.47-11.13-0.32c-1.7,1.41-3.72,1.1-5.14,0.05c-3.5-2.58-8.17-2.92-11.27-6.25
				c-1.63-1.75-3.38-1.68-5.09,0.32c-2.06,2.41-4.3,2.54-6.01-0.42c-1.29-2.22-4.31-2.68-5.13-5.3c-0.29-0.95-0.88-2.07,0.17-2.71
				c1.09-0.67,1.91,0.28,2.39,1.15c2.7,4.95,4.86,3.99,10.02,1.88c5.57-2.28,9.39-7.04,15.31-8.52c2.88-0.72,5.18-1.81,7.88-0.03
				c0.86,0.57,1.95,0.63,2.75-0.22c0.79-0.83,0.58-1.84,0.21-2.81c-1.08-2.83-2.85-4.82-6.01-5.38c-2.04-0.36-4.08-1.07-4.41-3.42
				c-0.37-2.65,2.29-2.37,3.7-3.27c3.26-2.05,6.95-2.02,10.62-2.29c5.16-0.37,6.33-2.86,3.36-7.18c-0.88-1.29-1.81-2.63-1.65-4.08
				c0.88-8.32-0.71-16.96,2.4-24.92c1.31-3.36,5.7-3.76,8.71-3.33c3.47,0.49,9.11-0.93,9.95,2.25c0.69,2.61-5.17,2.2-7.98,3.53
				c-6.71,3.17-8.61,7.09-8.83,14.62c-0.3,10,5.78,16.18,11.69,22.68c1.19,1.31,2.9,1.5,4.47,2.05c3.85,1.36,4.54,3.45,1.94,6.63
				c-1.31,1.6-1.56,2.84-0.38,4.39c0.79,1.04,1.55,2.46,3.1,2.11c1.63-0.37,1.04-2.46,1.75-3.17c3.05-3.07,3.94-6.6,3.71-10.78
				c-0.07-1.2,1.29-2.37,2.84-2.29c1.46,0.07,1.69,1.35,2.05,2.47c0.47,1.48,0.14,3.95,2.41,3.71c2.35-0.25,1.87-2.84,2.23-4.5
				c1.11-5.08-1.97-9.62-2.03-14.67c-0.04-3.98,2.53-7.83-0.19-12.12c-1.84-2.9-2.72-3-5.17-1.09c-5.03,3.92-8.83,3.88-13.91,0.28
				c-2.88-2.03-3.85-2.34-7.27-2.28c2.75-4.86,7.34-5.96,14.03-3.33c1.34,0.53,2.6,1.92,4.13,0.77c1.64-1.23,0.08-2.3-0.39-3.43
				c-0.67-1.62,0.87-2.31,1.47-3.42c1.26-2.33,2.54-4.68,3.47-7.15c0.56-1.49,0.87-2.97,2.74-3.01c1.55-0.04,2.34,1.02,2.81,2.4
				c0.37,1.08,0.62,2.34,2.69,2.16c-0.89-2.73-1.39-5.57-2.72-7.95c-1.53-2.76-3.99-1.6-6.06-0.32c-1.87,1.16-3.8,2.6-5.97,1.27
				c-2.44-1.51-0.61-3.53-0.13-5.34c0.97-3.72-2.11-6.47-2.33-10.03c-0.38-6.1-0.63-6.15,5.08-4.58c0.48,0.13,1.01,0.39,1.45,0.28
				c6.33-1.53,8.88,2.72,11.36,7.24c0.61,1.12,0.48,3.77,2.54,2.7c1.84-0.96,0.62-3.04-0.24-4.41
				c-6.74-10.72-14.44-20.41-25.84-26.76c-7.04-3.92-14.31-6.14-22.31-5.92c-3.33,0.09-6.41,1.92-9.82,1.63
				c-1.13-0.1-2.73,0.1-2.82-1.37c-0.09-1.47,1.52-1.53,2.63-1.66c13.88-1.63,26.98-0.03,38.97,8.07
				c12.18,8.22,21.92,18.63,26.79,32.38c2.85,8.07,4.89,16.98,1.97,25.87c-1.22,3.71,0.51,6.82,2.25,9.91
				c1.75,3.1,0.65,11.11-1.77,13.3c-1.34,1.22-2.08-0.01-2.93-0.67c-1.05-0.82-2.08-1.98-3.48-0.88c-1.28,1.01-0.64,2.42-0.36,3.72
				c0.36,1.65,0.96,3.16,2.16,4.42c1.66,1.75,1.88,3.76,0.94,5.92c-2.29,0.99-3.12-4.68-5.69-1.26c-2.57,3.42-5.43,7-4.69,11.57
				c0.47,2.89,3.58,2.95,5.91,0.36c0.73-0.81,1.31-2.48,2.61-1.41c1.3,1.07,0.31,2.42-0.6,3.45c-0.32,0.37-0.73,0.76-1.18,0.9
				c-5.22,1.69-7.32,5.77-10.2,10.26c-5.59,8.73-3.6,16.81-2.26,25.75c1.16,7.74,5.63,9.99,12.08,11.39
				c13.58,2.95,25.99,9.14,38.79,14.27c11.87,4.76,23.88,9.11,35.44,14.69c12.08,5.82,20.26,14.29,22.69,27.71
				c1.78,9.81,3.65,19.46,2.85,29.69c-1.09,13.87-0.82,27.89,1.66,41.67c0.79,4.36,2.52,8.62,4.3,12.72
				c1.61,3.7,1.77,7.14-0.42,10.46c-2.3,3.48-2.28,6.86-0.2,10.31c4.5,7.46,5.47,15.78,4.96,24.11c-0.55,8.89,1.74,17.87-1.39,26.72
				c-1.57,4.44-3.29,8.78-5.68,12.73c-5.08,8.4-6.81,17.55-7.24,27.13c-0.16,3.52,0.35,7.11,3.17,9.07
				c4.26,2.96,2.27,9.16,6.87,11.76c1.02,0.58,1.47,2.59,3.06,1.27c1.54-1.28,0.09-2.35-0.65-3.37c-0.86-1.19-1.75-2.35-2.66-3.57
				c6.86-0.47,10.54,4.08,6.96,10.78c-5,9.36-5.73,20.01-10.56,29.3c-1.4,2.69-3.22,4.5-5.81,5.88c-3.33,1.77-6.56,2.29-9.94,0.23
				c-3.93-2.4-8.06-1.4-12.14-0.54c-1.19,0.25-2.19,0.95-2.3,2.3c-0.1,1.28,0.62,2.28,1.68,2.86c10.48,5.77,16.48,16.28,25.29,23.84
				c7.7,6.6,14.87,13.82,22.29,20.74c3.07,2.87,6.75,4.5,10.94,3.96c9.24-1.19,16.18,3.56,22.32,9.16
				c7.86,7.16,15.22,14.91,22.37,22.79c8.28,9.13,18.66,15.38,28.68,22.19c15.7,10.66,29.47,23.47,39.74,39.45
				c6.56,10.21,7.47,22.35,7.97,34.19c0.79,18.59,3.15,37.1,2.68,55.74c-0.17,6.84-1.82,13.6-3.92,20.01
				c-4.18,12.78-9.33,25.14-15.57,37.19c-7.98,15.41-11.73,32.3-8.14,49.76c1.21,5.87,4.7,11.27,7.16,16.88
				c0.4,0.91,1.14,1.76,1.28,2.7c1.26,8.61,8.21,13.24,13.09,19.4c5.91,7.45,11.79,14.95,12.2,25.42
				c0.24,6.22,2.27,12.34,1.42,18.76c-0.82,6.23-2.18,6.98-7.71,4.11c-7.78-4.02-15.94-2.35-23.98-0.93
				c-2.43,0.43-4.74,1.55-7.16,2.09c-4.32,0.97-4.19,2.82-1.22,5.39c-0.32,0.21-0.67,0.59-0.84,0.53
				c-9.2-3.49-19.04-1.53-28.58-3.72c-12.36-2.84-24.44-7.1-37.27-8.12c-11.28-0.9-22.31-3.58-33.37-6.05
				c-10.98-2.45-22-3.09-33.3,0.86c-7.86,2.74-16.67,2.88-25.09,3.85c-20.89,2.4-41.89,2.62-62.89,2.52
				c-4.95-0.03-9.91-1.1-14.84-1.81c-1.11-0.16-2.56-0.5-3.17-1.29c-4.49-5.79-11.01-5.24-17.22-5.83
				c-25.23-2.41-50.57-2.7-75.72-0.45c-15.58,1.39-31.23,0.58-46.76,2.72c-6.33,0.87-12.88-0.54-19.41-0.29
				c-14.5,0.54-28.41,2.2-41.94,8.49c-15.47,7.2-32.52,7.89-49.39,8.23c-0.39,0.01-0.79-0.4-1.64-0.87
				c4.45-1.9,8.79-1.77,12.97-2.36c12.06-1.7,23.6-5.41,35.21-8.9c5.33-1.6,9.99-3.93,14.17-7.85c2.94-2.75,7.53-2.21,11.53-2.2
				c12.28,0.02,24.56,0.33,36.83,0.04c20.64-0.48,41.33-0.69,61.91-2.23c16.84-1.26,33.6-0.5,50.39-0.36
				c10.13,0.08,20.24,1.4,30.36,2.17c1.35,0.1,2.74,0.41,3.62,1.48c4.24,5.2,10.19,5.71,16.18,5.87
				c23.34,0.62,46.64-0.15,69.88-2.38c6.24-0.6,12.52-2.16,18.3-4.08c11.98-3.97,23.63-4.16,35.22-0.12
				c7.97,2.78,16.31,2.55,24.38,4.62c10.91,2.8,22.19,4.16,32.28,9.67c2.7,1.48,5.73,1.78,8.68,2.04c2.19,0.2,4.4-0.57,5.46-2.78
				c0.97-2.03-0.51-3.39-1.71-4.82c-2.48-2.96-4.28-6.24-5.46-9.99c-2.77-8.81-8.79-16-12.45-24.39c-0.59-1.35-1.82-2.17-3.2-1.98
				c-3.94,0.54-7.11-1.4-10.4-2.93c-8.22-3.81-17.28-3.12-25.9-4.78c-24.23-4.67-48.93-5.54-73.38-8.52
				c-4.44-0.54-9-0.77-13.46-0.46c-10.51,0.72-20.65-3.19-31.28-1.96c-4.37,0.5-8.78-2.45-13.33-3.38
				c-2.54-0.52-3.52-3.52-2.55-6.23c1.36-3.8-0.54-4.77-3.79-5.01c-24.88-1.84-49.83-2.55-74.76-2.69
				c-16.09-0.09-32.22-0.91-48.29,0.09c-19.07,1.19-38.23,0.93-57.19,3.72c-2.46,0.36-4.86,1.16-7.33,1.47
				c-4.76,0.61-7.51,2.47-7.33,7.99c0.16,5.1-2.94,7.71-7.95,8.64c-17.62,3.28-35.29,6.26-52.93,9.4
				c-7.22,1.28-14.39,4.16-22.01,3.16c-2.55-0.34-3.21,1.44-2.93,3.5c0.42,3.09-0.9,5.35-2.69,7.72
				c-10.34,13.74-22.73,24.89-38.09,32.96c-7.08,3.72-15.19,6.1-20.44,12.93c-1.62,2.11-4.19,1.6-6.52,0.9
				c-6.2-1.88-12.36-3.94-18.64-5.56c-5.46-1.41-5.06-6.44-6.03-10.01c-3.12-11.45,0.48-22.31,4.45-32.97
				c0.14-0.38,0.65-0.63,1.28-1.19c1.19,1.96,2.07,3.92,3.4,5.51c3.16,3.76,5.98,6.55,12.24,6.44c13.61-0.25,23.92-7.98,35.51-12.83
				c6.33-2.65,11.68-6.87,16.89-11.22c1.51-1.27,3.28-3.05,1.56-5.09c-1.7-2.02-3.68-0.54-5.3,0.62
				c-8.92,6.38-17.49,13.28-27.05,18.7c-4.72,2.67-9.34,6.04-15.38,4.61c-1.07-0.25-2.55,0.38-2.92-1.14
				c-0.32-1.3,0.78-2.15,1.72-2.82c1.21-0.87,2.59-1.52,3.8-2.39c0.66-0.47,1.68-1.33,1.58-1.83c-1.24-6.26,4.98-6.71,7.51-10
				c1.18-1.53,3.46-2.66,3.24-5.16c-1.71-0.58-2.11,0.98-3.09,1.42c-1.17,0.52-2.51,1.75-3.35-0.1c-0.67-1.47,0.39-2.69,1.79-3.03
				c3-0.72,4.34-1.66,1.61-4.49c-1.16-1.2,0.31-2.01,1.18-2.74c1.39-1.18,2.96-2.21,4.08-3.6c1.06-1.31,2.79-3.08,0.53-4.68
				c-2.08-1.48-4.49-1.72-6.09,0.82c-2.12,3.38-4.07,6.88-6.01,10.37c-0.9,1.61-1.71,3.9-3.88,2.91c-2.41-1.1-1.33-3.5-0.52-5.27
				c4.2-9.22,6.09-18.9,6.56-28.99c0.17-3.6-0.67-6.93-1.19-10.37c-1.81-12.19-4.22-24.16-9.69-35.41
				c-4.03-8.3-4.62-17.66-6.11-26.6c-1.43-8.61-3.01-17.37-2.08-26.27c0.39-3.8,0.13-7.67,1.79-11.26c0.74-1.6,0.73-3.2,0.16-4.86
				c-4.54-13.3-1.81-25.91,3.77-38.21c0.83-1.83,2.17-3.7,1.66-5.65c-1.54-5.89,2.58-9.67,4.86-14.13c0.83-1.63,2.49-2.42,4.24-1.96
				c4.15,1.08,8.68,1.2,12.21,4.04c6.08,4.91,12.53,9.36,18.13,14.86c5.56,5.47,12.25,9.56,18.24,14.44
				c7.72,6.28,16.81,10.81,23.49,18.36c1.98,2.24,4.63,3.26,7.13,4.48c7.31,3.56,14.01,8.29,21.84,10.86
				c11.14,3.67,21.25,2.21,30.57-4.98c5.1-3.94,10.24-7.5,16.71-9.48c4.71-1.43,8.59-5.53,12.89-8.36
				c12.61-8.3,24.92-17.09,38.51-23.81c1.35-0.67,2.96-1.33,2.8-3.12c-0.19-2.07-1.98-2.56-3.69-2.67
				c-6.01-0.38-10.11-4.85-15.2-7.19c-10.72-4.94-21.01-4.08-31.31,0.5c-8.07,3.59-16.25,6.49-24.89,8.57
				c-6.46,1.55-12.8,3.1-19.44,3.73c-8.31,0.78-16.23,0.21-23.68-3.92c-2.02-1.12-4.31-1.75-6.47-2.63
				c-0.92-0.38-2.1-0.82-1.73-2.04c0.39-1.29,1.64-0.84,2.55-0.61c3.86,1,7.26,3.15,11.17,4.2c9.47,2.54,18.96,2.38,28.12-0.26
				c13.22-3.82,26.17-8.59,39.21-13.04c3.38-1.15,3.51-2.99,0.6-5.27c-1.59-1.24-3.25-2.24-5.4-2.31c-1.5-0.05-3.48-0.56-2.85-2.49
				c0.64-1.97,2.56-0.91,3.86-0.41c2.47,0.96,4.79,2.36,7.31,3.16c6.96,2.22,13.95,4.34,21,6.28c4.08,1.12,7.63,3.32,11.31,5.18
				c12.06,6.07,24.71,7.48,37.9,5.79c1.53-0.19,2.91-0.69,4.13-1.63c2.47-1.89,5.37-2.7,8.37-2.98c1.99-0.18,4.94-1.42,5.63,1.41
				c0.73,2.98-2.38,3.14-4.37,3.54c-3.86,0.79-6.89,3.29-10.44,4.72c-6.83,2.74-14.11,2.02-21.15,2.99
				c-3.3,0.45-5.99,1.28-8.68,2.93c-11.74,7.21-23.72,14.01-34.99,21.99c-10.97,7.77-22.37,14.96-33.07,23.08
				c-14.54,11.04-24.64,11.97-41.72,4.42c-7.91-3.5-15.6-7.43-22.82-12.28c-3.41-2.29-4.86-1.4-4.7,2.71
				c0.88,22.52-3.84,43.86-12.86,64.44c-4.66,10.63-5.95,22.06-6.34,33.61c-0.24,7.11,0.57,14.28-1.87,21.29
				c-1.19,3.41,0.02,7.3,2,10.02c3.23,4.45,4.72,9.46,6.53,14.45c2.82,7.74,5.79,9.28,13.6,7.16c4.07-1.1,8.44-0.53,12.29-1.61
				c11.53-3.24,23.91-1.61,35.08-6.46c1.62-0.71,3.17-0.71,4.86-0.52c6.03,0.7,11.39-1.94,16.91-3.66c1.79-0.56,2.14-2.34,2.27-4.11
				c0.39-5.44,4.37-9.97,9.9-10.37c27.56-1.99,55.01-5.46,82.74-5.19c29.71,0.3,59.44-0.11,89.15-0.05
				c11.31,0.02,22.5,1.46,33.42,4.5c3.01,0.84,3.19,3,1.65,5.49c-3.1,4.98-2.72,5.63,3.44,6.14c18.9,1.57,37.81,3.03,56.69,4.75
				c18.7,1.71,37.5,2.83,55.99,6.25c12.11,2.24,24.56,2.09,36.49,5.58c5.31,1.55,8.09-0.85,7.58-6.35
				c-0.71-7.6,2.7-14.03,5.97-20.28c2.32-4.44,2.36-8.54,1.04-12.9c-0.6-1.98-1.1-3.8-0.47-5.82c2.16-6.87,1.8-13.92,0.65-20.8
				c-3.13-18.72-7.12-37.24-14.95-54.71c-2.03-4.52-1.79-9.43-1.2-14.28c0.2-1.64,0.56-3.49-1.3-4.44c-1.54-0.79-2.8,0.21-4.11,1.03
				c-4.8,2.99-9.39,6.24-13.86,9.72c-6.73,5.26-12.58,4.9-18.69-0.88c-10.77-10.19-22.55-19.16-33.99-28.54
				c-3.8-3.12-9.08-2.35-13.32-5.11c-4.52-2.95-9.09-6.51-15.41-6.02c-2.54,0.2-3.58-4-6.35-5.19c-5.69-2.43-10.83-5.79-15.53-9.86
				c-1.33-1.15-3.18-2.32-4.84-2.4c-11.4-0.51-19.16-7.77-27.25-14.39c-6.23-5.1-18.17-4.77-24.19,0.62
				c-4.2,3.76-8.61,7.31-13.16,10.65c-4.6,3.37-9.68,2.79-14.03-1.12c-3.74-3.36-5.42-3-6.94,1.81
				c-1.88,5.93-6.17,10.07-11.07,13.06c-4.42,2.7-9.57,0.12-13.82-1.65c-4.44-1.85-8.84-3.81-13.39-5.41
				c-4.25-1.49-5.38-3.97-3.66-8.08c1.92-4.59,3.83-9.2,5.93-13.71c1.22-2.62,1.21-5.12,0.27-7.74c-1.78-4.96-2.21-9.92-1.21-15.21
				c1.21-6.36-0.53-8.88-6.61-10.93c-2.72-0.92-5.28-2.12-7.57-3.78c-4.08-2.96-4.7-6.78-2.07-10.87c2.07-3.21-0.22-4.45-2.68-4.59
				c-3.99-0.23-7.95-1.27-11.86-1.26c-16.75,0.08-30.28-6.37-41.03-19.05c-1.83-2.15-4.05-3.96-5.91-6.1
				c-1.1-1.27-1.97-3.09-0.38-4.46c1.67-1.44,3.25-0.18,4.22,1.2c6.33,9.08,15.77,14.04,25.05,19.29c4.51,2.56,9.44,3.08,14.38,3.71
				c4.3,0.55,8.65,0.72,12.9,1.5c7.76,1.42,7.96,1.61,9.67-5.82c1.26-5.5,1.87-11.15,2.72-16.74c0.5-3.25-1.05-4.7-4.24-4.51
				c-18.29,1.09-33.12-6.94-46.68-18.01C891.66,746.57,888.64,745.82,887.5,742.94z M972.03,701.08c-0.73,2.58-2.69,4.15-4.74,5.57
				c-1.21,0.84-2.97,1.28-2.5,3.21c0.44,1.84,2.3,1.75,3.69,1.98c6.68,1.14,12.48,4.5,18.55,7.17c3.66,1.62,5.77,6.99,10.29,5.83
				c4.31-1.1,4.74-6.45,7.28-9.65c0.1-0.13,0.23-0.24,0.34-0.36c1.49-1.58,1.2-3.13-0.45-4.22c-3.58-2.35-6.69-5.46-11.15-6.41
				c-3.39-0.72-6.87-1.51-10-2.94c-3.96-1.81-7.63-2.03-11.46-0.04c0.99-4.7,5.82-7.14,11.65-5.71c5.04,1.23,10.27,2.68,15.27,1.22
				c13.23-3.87,27.08-5.5,39.96-10.49c12.41-4.8,24.58-10.22,34.29-19.82c1.76-1.74,3.79-3.24,5.83-4.67
				c0.92-0.64,2.31-1.06,3.14,0.17c0.81,1.2,0.07,2.34-0.96,2.98c-6.92,4.28-12.6,10.15-19.65,14.39
				c-16.32,9.81-34.11,15.35-52.36,19.88c-2.16,0.54-5.47-0.17-5.76,2.71c-0.32,3.28,3.28,3.68,5.56,4.82
				c0.69,0.34,1.63,0.3,2.44,0.23c5.84-0.45,11.6,1.32,17.45,0.57c1.2-0.15,2.52,0.15,2.84,1.48c0.41,1.71-1,2.4-2.3,2.69
				c-2.79,0.64-5.64,0.6-8.42-0.11c-1.96-0.5-4.06-1.32-5.59,0.52c-1.69,2.04,0.23,3.67,1.12,5.38c4.49,8.53,8.44,17.42,11.07,26.59
				c3.22,11.24,9.3,21.36,11.74,32.82c1.73,8.14,6.48,15.24,8.23,23.47c0.98,4.58,2.33,9.7,8.25,10.65
				c6.19,0.99,12.45,2.52,18.64,2.36c9.63-0.24,19.27-1.44,28.41-4.99c1.94-0.75,3.94-0.63,5.91-0.18c1.09,0.25,2.52,0.29,2.63,1.81
				c0.11,1.5-1.2,2.07-2.31,2.13c-7.07,0.41-13.51,3.58-20.43,4.51c-10.97,1.47-21.92,1.09-32.78-1.24
				c-3.33-0.72-4.66-0.07-4.42,4.06c0.37,6.3-0.46,12.67-0.79,19.26c-2.3-1.1-1.71-2.83-1.95-4.17c-1.36-7.85-2.9-15.66-3.67-23.64
				c-0.85-8.82-4.75-16.94-7.66-25.2c-7.8-22.11-16.33-43.96-24.65-65.88c-1.25-3.3-3.22-3.53-5.42-0.6
				c-2.49,3.31-4.58,7.19-7.73,9.69c-4.09,3.24-3.29,5.37-0.5,8.86c11.41,14.28,15.47,31.71,20.23,48.79
				c0.43,1.54,0.18,3.32,0.02,4.97c-0.15,1.57-0.79,3.08-2.72,2.9c-1.69-0.16-2.02-1.71-1.97-3.03c0.32-8.21-4.11-15.35-5.22-23.28
				c-0.52-3.67-2.75-7.11-4.32-10.6c-0.46-1.02-1.26-2.3-2.59-1.91c-1.3,0.38-1.34,1.83-1.24,2.99c0.3,3.64,1.44,7.38,0.93,10.89
				c-1.84,12.75,0.85,26.03-4.56,38.38c-0.74,1.7-0.89,4.21,1.68,5.03c1.78,0.57,4.3-0.24,4.46,2.76c0.16,2.98-2.22,3.59-4.29,4.77
				c-5.31,3.02-5.88,5.97-2.95,11.19c4.69,8.37,8.35,17.05,7.44,26.99c-0.14,1.5-0.11,3.13,1.53,3.91c1.74,0.83,3.18,0.04,4.53-1.13
				c4.53-3.93,9.44-7.15,15.01-9.62c6.37-2.83,13.35-4.04,19.38-7.81c2.86-1.79,5.6-1.47,5.21,3.18c-0.06,0.75,0.2,1.82,0.72,2.27
				c6.76,5.85,13.68,12.7,22.13,14.54c8.94,1.96,18.64,3.02,28.17,0.62c7.03-1.77,14.29-2.78,21.52-3.55
				c6.88-0.73,13.35,2.16,20.02,3.36c0.99,0.18,2.22,0.49,2.16,1.66c-0.08,1.66-1.57,1.52-2.67,1.3c-2.77-0.55-5.5-1.27-8.25-1.9
				c-12.17-2.77-23.67,1-35.22,3.83c-2.58,0.63-7.11-0.78-7.41,2.25c-0.36,3.64,4.27,4.59,7.18,5.86
				c11.86,5.17,23.38,11.12,34.89,16.91c13.32,6.7,24.39,17.27,35.98,26.75c4.94,4.04,8.1,4.62,13.64,1.06
				c5.88-3.78,11.67-7.7,17.68-11.26c12.85-7.6,22.61-18.41,31.71-29.95c8.59-10.9,14.23-23.67,22.12-35.02
				c4.65-6.69,9.16-13.55,16.02-18.18c4.47-3.02,4.79-3.59,1.06-7.84c-12.7-14.47-26.88-27.17-43.13-37.62
				c-6.96-4.47-14.14-8.94-19.65-15.28c-7.43-8.56-15.22-16.8-23.53-24.46c-5.2-4.79-11.07-8.39-19.14-8.13
				c-6.8,0.22-13.69-1.93-20.38-3.85c-6.9-1.97-13.04-5.77-19.86-8.01c-4.97-1.64-10.46-2.57-14.42-6.56
				c-1.2-1.21-3.62-2.32-2.06-4.35c1.36-1.76,3.49-0.69,4.9,0.51c4.19,3.59,9.6,4.41,14.44,6.47c2.31,0.98,5.52,1.86,7.15-1.25
				c1.54-2.93-1.11-4.58-2.93-6.17c-7.41-6.48-14.29-13.45-20.77-20.85c-1.95-2.23-4.22-4.29-6.66-5.98
				c-3.28-2.27-5.21,1.56-8.96,3.27c4.23-5.15,6.15-9.56,4.46-14.9c-0.35-1.1-0.29-2.44,0.99-3.06c1.07-0.52,1.87,0.31,2.64,0.93
				c1.44,1.16,2.93,2.28,4.87,2.3c1.29,0.01,2.83,0.3,3.57-1.15c0.84-1.65-0.6-2.29-1.61-3.14c-3.45-2.93-2.63-6.7-0.48-9.4
				c2.02-2.53,2.65-3.58-0.21-5.78c-2.59-2-1.68-5.64-0.88-7.9c0.85-2.41,3.42-0.09,5.19,0.37c1.87,0.49,3.75,0.84,5.08-0.81
				c1.42-1.76,1.95-3.99,0.9-6.09c-1.16-2.31-3.02-4.33-5.84-3.95c-2.66,0.36-4.47,0.41-6.25-2.28c-1.36-2.05-4.2-1.74-6.26-0.06
				c-1.51,1.23-3.51,2.49-2.57,4.89c1.02,2.61,3.17,2.27,5.48,1.83c3.11-0.6,3.29,2.08,1.99,3.23c-3.01,2.66-3.56,6.26-4.97,9.57
				c-1.36,3.17-4.55,3.72-7.38,4.39c-1.57,0.37-3.1-0.95-2.55-2.78c1-3.29-0.32-6.27-0.83-9.34c-0.59-3.55-2.67-4.18-5.4-1.77
				c-1.44,1.27-2.03,2.94-2.3,4.84c-0.49,3.55,1.05,6.02,3.63,8.22c0.95,0.81,1.8,2.2,0.83,3.55c-0.68,0.94-1.78,0.71-2.7,0.16
				c-4.38-2.61-6.28-11.51-3.28-15.76c1.09-1.54,2.52-2.95,0.82-4.8c-1.58-1.72-3.51-1.01-5.02,0.02
				c-11.56,7.93-24.25,13.82-36.58,20.37c-3.68,1.96-6.69,4.96-11.14,1.91c-0.6-0.41-1.92,0.3-2.91,0.34
				c-7.67,0.31-14.89,3.47-22.69,3.18c-15.36-0.58-30.42-3.49-45.55-5.73c-5.38-0.8-11.27-0.57-16.06-3.31
				c-6.61-3.78-13.98-5.33-20.8-8.4c-7.6-3.42-15.88-4.75-23.68-7.5c-2.52-0.89-4.91-2.51-6.37,0.54c-1.5,3.15,0.15,5.77,3.24,7.28
				c2.39,1.17,4.95,2.02,7.23,3.36c15.05,8.86,31.1,14.64,48.42,17.38c5.75,0.91,11.52,1.51,17.26,2.34
				c1.26,0.18,3.02,0.41,2.74,2.18c-0.25,1.59-1.85,0.89-2.93,0.87c-13.21-0.26-26.01-3.43-38.78-6.18
				c-13.92-3-26.07-10.58-38.22-17.8c-2.02-1.2-2.39-3.03-2.09-5.18c0.55-3.9-0.56-7.65-1.43-11.34c-0.62-2.59-2.88-4.72-5.6-3.64
				c-3.17,1.26-2.27,4.34-0.69,6.3c2.69,3.35,5.51,6.29,1.34,10.48c-0.35,0.35,0.63,1.81,0.66,2.76c0.08,3.43-0.92,6.74-3.39,8.98
				c-2.48,2.25-4.79,0.46-6.98-1.42c-2.14-1.85-3.61-0.52-4.56,1.66c-1.18,2.7-0.06,4.83,1.61,6.86c1.86,2.26,3.91,1.16,5.88,0.29
				c5.11-2.26,7.67-7.11,10.79-11.24c1.93-2.57,2.91-2.52,3.99,0.18c1.1,2.77,3.15,4.61,5.29,6.5c11.3,9.98,25.1,15.91,38.64,21.48
				c10.73,4.41,21.18,10.22,32.92,12.13c0.77,0.13,1.76,0.57,1.38,1.64c-0.16,0.46-0.96,0.89-1.52,0.96
				c-2.89,0.36-5.56-0.42-8.26-1.45c-4.67-1.78-8.5-5.29-13.46-6.44c-19.76-4.59-37.12-14.16-53.29-26.03
				c-3.57-2.62-7.15-2.1-9.56,0.22c-2.86,2.76,0,5.5,2.31,7.43c9.29,7.8,20,13.16,31.47,16.75c9.52,2.97,18.88,6.28,28.06,10.14
				c1.25,0.53,3.72,0.57,3.06,2.45c-0.68,1.93-2.92,0.93-4.41,0.45c-12.8-4.12-25.71-7.98-38.33-12.6
				c-10.2-3.73-19.38-9.44-27.39-16.92c-2.51-2.34-5.47-3.95-9.08-2.49c-1.7,0.69-3.27,2.14-1.62,3.76c3.1,3.04,4.99,7.01,8.45,9.79
				c11.84,9.5,23.87,18.58,38.86,22.64c6.55,1.77,12.83,4.23,19.7,5.25c6.95,1.03,14.33,0.96,20.74,4.91
				c3.05,1.88,4.3-0.25,4.11-3.15c-0.09-1.47-1.05-3.26,0.73-3.99C963.87,706.05,966.9,701.62,972.03,701.08z M977.68,819.7
				c3.65,0.21,6.51,0.15,9.3,0.58c4.01,0.61,5.65-1.21,5.65-4.92c-0.01-2.86,0.79-5.6,1.06-8.38c1.43-14.71,4.18-29.31,2.8-44.27
				c-0.83-8.97-2.48-17.69-3.99-26.5c-1.16-6.8-4.04-10.39-9.28-13.3c-3.49-1.94-7.07-3.72-10.64-5.51
				c-4.82-2.4-13.74,2.51-11.91,9.42c2.08,7.86,2.68,15.98,3.03,24.17c0.48,11.13,2.07,22.2,2.97,33.32
				c0.48,5.93-1.58,11.48-3.55,16.95c-0.49,1.35-1.68,2.72-3.48,2.1c-1.42-0.49-1.35-1.97-0.86-2.99
				c3.15-6.57,1.54-13.42,1.32-20.18c-0.51-16.29-1.28-32.55-3.67-48.69c-0.22-1.49,0.23-3.97-1.95-4.01
				c-1.93-0.04-2.02,2.29-2.46,3.86c-2.32,8.34-1.65,17.2-4.5,25.48c-0.48,1.4,0.15,3.29,0.59,4.86c0.54,1.94,0.97,3.82,0.93,5.87
				c-0.22,11.5-2.11,22.57-7.55,32.91c-3.45,6.56-1.98,9.64,5.08,12.2c3.59,1.3,7.77,1.47,10.86,3.15
				C964.21,819.48,970.93,821.31,977.68,819.7z M817.92,577.72c2.64,7.7,5.24,16.09,9.28,23.93c0.21,0.4,0.71,0.77,1.15,0.9
				c2.82,0.81,3.35,3.29,4.5,5.53c1.93,3.76,2.72,9.73,7.02,10.31c9.38,1.27,17.79,3.54,24.72,10.39c2.08,2.06,4.32-0.32,6.17-1.63
				c1.64-1.17,2.26-2.66,1.39-4.76c-2.22-5.38-4.8-10.41-5.26-16.68c-0.33-4.55-2.58-8.68,0.71-13.04c1.04-1.39,0.71-3.25-0.65-4.57
				c-1.15-1.12-2.41-0.68-3.69-0.1c-1.81,0.82-3.65,3.3-5.67,0.85c-1.93-2.35,0.41-4.31,1.37-6.31c0.94-1.97,2.44-2.85,4.75-2.96
				c2.4-0.12,2.73-1.81,1.19-3.41c-1.03-1.08-3.64-1.1-2.62-3.4c1.07-2.42,2.87-0.11,4.34-0.19c1.88-0.11,4.01-0.03,4.04-2.56
				c0.03-2.32-1.97-2.88-3.86-3.04c-0.76-0.07-1.66,0.25-2.35,0.64c-3.76,2.11-5.57,0.06-5.76-3.25c-0.23-3.77-1.71-7.13-2.88-10.5
				c-1.51-4.38-4.29-7.69-9.24-9.63c-5.94-2.34-12.33-4.1-17.37-8.47c-1.66-1.44-2.97-4-5.85-2.46c-2.62,1.4-2.59,4.13-2.81,6.56
				c-0.28,3.13,0.96,6.23,0.22,9.43C818.63,558.38,819.56,567.8,817.92,577.72z M1106.67,598.65c-2.5,2.78-4.78,4.93-6.59,7.43
				c-1.94,2.68-3.5,5.65-5.08,8.57c-1.33,2.44-3.64,5.41-1.25,7.75c2.4,2.34,6.25,4.49,9.57,2.74c5.09-2.68,10.36-1.79,15.56-2.21
				c8.41-0.68,11.11-5.91,6.5-13.03c-0.7-1.08-2.63-2.23-1.83-3.27c3.61-4.72,0.79-9.95,1.54-14.87c0.33-2.15,1.17-2.97,3.19-2.75
				c1.78,0.2,3.92,1.02,4.71-1.35c0.72-2.17-1.14-3.22-2.67-4.27c-1.41-0.97-2.85-2.09-1.89-4.06c0.96-1.95,2.61-1.71,4.28-0.91
				c3.4,1.62,4.89-0.23,5.89-3.16c0.78-2.28,1.16-4.57,0.16-6.82c-1.93-4.35-1.48-8.59-0.43-13.15c2.09-9.08,1.92-18.1-2.05-26.85
				c-1.62-3.57-3.53-3.83-6.63-2.03c-6.87,3.98-12.49,9.32-17.4,15.47c-1.73,2.17-2.67,4.48-1.28,7.38c0.71,1.48,2.01,3.9-0.51,4.65
				c-2.17,0.65-2.94-1.49-3.23-3.47c-0.22-1.5-2.03-2.96-2.41-1.48c-1.15,4.5-5.07,6.77-7.09,10.43c-0.72,1.31-0.3,2.68,1.1,3.41
				c2.36,1.23,3.06,2.07-0.07,3.37c-3.58,1.49-4.44,5.76-3,7.88c2.79,4.1,1.64,8.39,2.16,12.48c0.51,4.04,0.5,6.48,5,2.99
				c0.74-0.58,2.09-0.69,2.7,0.3c0.66,1.1-0.33,1.79-1.18,2.35c-0.69,0.46-1.39,0.92-2.08,1.38c-2.23,1.47-5.36,3.18-3.38,6.09
				c1.69,2.49,4.07-0.06,5.98-1.23C1105.12,598.29,1105.52,598.48,1106.67,598.65z M683.14,892.5c0.44,3.23,0.96,6.85,1.41,10.48
				c1.44,11.75,7.7,13.72,18.57,17.62c6.65,2.39,12.74-0.45,19.03-1.52c2.21-0.38,3.55-1.81,2.11-3.87
				c-1.86-2.65,0.08-2.93,1.6-4.33c3.2-2.94,7.86-1.63,10.86-4.23c1.63-1.41,2.84-2.06,4.77-1c1.04,0.57,2.28,1.03,3.11-0.24
				c0.67-1.03,0.46-2.26,0.04-3.38c-0.49-1.3-1.58-1.89-2.79-1.4c-4.93,1.99-8.09-0.72-10.91-4.08c-0.95-1.13-1.78-1.4-2.96-0.76
				c-1.32,0.71-2.24,1.66-0.89,3.11c0.99,1.06,1.34,2.33-0.25,2.67c-3.07,0.65-6.93,1.24-8.88-1.23c-1.9-2.4,1.71-3.17,3.26-4.41
				c0.38-0.31,0.96-0.65,1.02-1.04c0.96-5.85,5.49-7.35,10.28-8.73c1.89-0.54,3.62-1.66,5.38-2.59c1.12-0.59,1.88-1.57,1.38-2.86
				c-0.58-1.47-1.91-1.93-3.3-1.34c-1.83,0.78-3.48,1.97-5.32,2.73c-2.08,0.87-4.81,2.44-6.07-0.53c-1.29-3.02,1.83-3.16,3.75-3.94
				c3.78-1.54,4.16-3.47,1.13-6.19c-7.84-7.05-15.7-14.07-23.64-21.01c-2.5-2.19-5.4-4.88-8.84-3.32c-3.83,1.74-4.58,5.85-4.77,9.78
				c-0.1,1.99,0.38,4.14-0.9,5.82C684.69,871.45,684.4,881.88,683.14,892.5z M1255.86,887.49c7.29-0.19,14.54-0.65,21.71-2.56
				c4.63-1.23,5.95-3.63,5.7-8.27c-0.62-11.8-1.25-23.56-2.95-35.28c-0.58-3.96-0.69-8.14-4.87-9.53
				c-4.33-1.45-7.42,1.51-10.18,4.68c-11.25,12.91-17.4,29.08-27.46,42.75c-1.95,2.65-0.81,4.46,2.43,5.43
				C1245.35,886.25,1250.37,888.02,1255.86,887.49z M981.76,848.27c-0.07,6.22-3.22,7.77-11.49,6.47c-3.73-0.59-7.15-4.32-10.9-2.22
				c-3.63,2.04-3.04,7.19-5.64,10.26c-0.11,0.12-0.17,0.29-0.25,0.43c-1.56,2.85-0.54,5.06,2.19,6.05
				c6.24,2.27,12.57,4.28,18.92,6.23c3.18,0.97,5.59-0.04,7.75-2.88c3.33-4.39,6.72-8.63,7.83-14.21c0.51-2.57,2.16-2.68,4.11-1.57
				c1.44,0.82,2.82,2.14,4.39,0.37c1.33-1.49,0.78-3.22,0.11-4.72c-3.24-7.28-4.99-15.1-8.81-22.22c-2.26-4.22-4.75-6.01-9.29-5.7
				c-5.64,0.39-11.29,0.98-16.94-0.09c-2.09-0.39-3.16,0.67-4.12,2.65c-2.48,5.12-0.5,9.71,1.08,14.41
				c1.38,4.11,6.99,8.48,11.21,8.73c2.26,0.14,3.91-0.6,4.43-3.03c0.37-1.74,0.37-4.16,2.95-3.77
				C981.82,843.86,981.78,846.22,981.76,848.27z M1249.97,945.05c0.05-0.35,0.1-0.7,0.14-1.05c1.79-0.25,3.62-0.37,5.38-0.78
				c1.64-0.38,4.17-0.16,3.73-2.91c-0.36-2.23-2.45-1.99-4.06-1.72c-2.56,0.43-4.98-0.15-7.4-0.68c-1.33-0.29-3.57-0.14-3.21-2.21
				c0.29-1.73,2.34-1.45,3.8-1.51c2.66-0.12,5.33-0.09,7.97-0.35c5.04-0.49,5.32-1.36,3.46-5.96c-1.14-2.82-4.57-4.62-3.61-8.36
				c0.71-2.77,0.93-5.39-3.01-5.92c-0.82-0.11-1.6-0.77-1.41-1.74c0.11-0.55,0.62-1.2,1.12-1.45c4.11-2.03,13.83,1.19,14.8,5.48
				c0.84,3.72,2.66,7.74-0.35,11.73c-2.54,3.37-0.53,6.94,1.52,9.64c2.16,2.83,4.77,0.73,7.02-0.71c0.42-0.27,0.89-0.46,1.36-0.63
				c3.84-1.35,4.6-4.62,4.62-8.03c0.02-3.34-2.87-3.03-5.11-3.41c-1.2-0.21-2.36-0.74-2.39-2.12c-0.04-1.43,1.14-1.98,2.34-2.14
				c2.02-0.27,3.9-0.86,5.57-2.03c1.35-0.94,1.97-2.24,1.63-3.89c-0.34-1.64-1.5-3.13-3-2.84c-5.04,0.96-8.42-1.8-12.02-4.49
				c-0.97-0.72-2.65-1.2-3.77-0.9c-6.31,1.68-12.59-1.7-18.93,0.09c-1.8,0.51-3.64,0.35-4.4,2.45c-0.75,2.1-1.4,4.19,1.07,5.73
				c0.69,0.43,1.53,0.98,1.13,1.95c-0.46,1.12-1.62,0.92-2.58,1.02c-1.75,0.18-3.85-1.12-5.94,1.96c7.5-1.13,4.69,6.88,9.26,8.49
				c-4.33,0.8-8.63,2.53-11.62-2.42c-0.71-1.17-2.37-2.01-3.47-1.07c-2.72,2.32-5.47,2.61-8.73,1.46c-1.08-0.39-2.46,0.18-2.6,1.63
				c-0.16,1.69,1.33,1.77,2.43,1.79c5.17,0.12,9.86,2.85,15.12,2.59c1.74-0.09,4.25,0,4.1,2.5c-0.16,2.8-2.74,2.5-4.68,2.2
				c-4.43-0.69-8.83-1.62-13.25-2.39c-1.34-0.23-2.88-0.24-3.32,1.39c-0.47,1.74,0.96,2.33,2.3,2.62c4.2,0.89,8.07,3.03,12.58,2.83
				c3.14-0.14,5.63,1.17,5.54,4.89c-0.06,2.55,1.61,3.01,3.52,3.27c4.29,0.57,8.58,1.13,12.87,1.65c2.03,0.25,3.99-0.16,5.85-0.97
				c1.27-0.56,2.45-1.33,2.15-2.95c-0.32-1.71-1.73-1.72-3.12-1.71C1256.9,945.07,1253.44,945.05,1249.97,945.05z M1118.78,660.83
				c0,1.52-0.08,2.69,0.01,3.84c0.33,3.97,1.15,7.59,5.8,8.81c4.64,1.22,7.09-1.83,9.59-4.74c1.6-1.86,2-4.26-0.01-5.75
				c-2.07-1.54-2.44,1.33-3.58,2.25c-1.43,1.16-3.28,3.89-4.77,1.51c-1.63-2.6-2.51-6.22-2.27-9.28c0.24-2.95,3.28-4.3,6.39-4.48
				c1.35-0.08,2.74-0.25,2.97-2c0.22-1.63-0.37-2.94-1.78-3.83c-2.59-1.65-5.05-1.43-7.28,0.65
				C1119.97,651.43,1117.94,655.78,1118.78,660.83z M1094.12,606.44c-0.3-2.96-0.74-4.95-0.65-6.92c0.35-7.58-2.34-14.77-2.69-22.25
				c-0.07-1.58-0.75-2.93-2.41-3.44c-1.12-0.34-2.18,0.12-2.41,1.18c-1.31,6.11-3.76,12.48-1.89,18.47
				c1.33,4.26,4.43,8.05,5.05,12.8c0.21,1.59,1.11,2.89,3.02,2.62C1094.16,608.62,1094.11,606.98,1094.12,606.44z M1245.07,1038.26
				c3.37,3.2,7.66,3.3,11.69,3.13c7-0.3,8.93-4.97,5-10.97c-3.32-5.07-5.93-10.34-5.14-16.74c0.24-1.93-0.18-3.97-0.47-5.93
				c-0.19-1.23-1.07-2.06-2.38-2.23c-1.47-0.18-2.55,0.55-3.44,1.62c-1,1.21-0.3,2.08,0.53,3.02c2.52,2.84,2.41,6.26,2.42,9.81
				c0.02,4.02-0.01,8.22,4.47,10.62c2.58,1.38,1.4,3.33-0.12,4.9C1254.12,1039.12,1249.89,1039.63,1245.07,1038.26z M973.48,319.46
				c-2.48,0-3.64-0.04-4.8,0.01c-2.17,0.1-4.18,0.88-4.21,3.29c-0.02,2.25,2.24,1.95,3.78,2.29c8.08,1.78,16.46-0.24,24.55,2.02
				c2.04,0.57,3.71-1.38,4.24-3.43c0.56-2.17-1.37-2.72-2.87-3.37c-2-0.88-4.13-1.44-6.29-1.19
				C982.64,319.69,977.45,321.65,973.48,319.46z M1290,1083.79c0.91-6.04-1.4-11.64-4.36-17.08c-0.74-1.36-2.12-2.19-3.22-1.03
				c-2.68,2.82-3.66,6.52-4.39,10.28c-0.57,2.93,1.96,2.93,3.52,3.92c2.14,1.35,2.86,3.54,3.17,5.91c0.19,1.47,0.26,2.97,0.55,4.41
				c0.24,1.17,0.88,2.33,2.23,2.31c1.38-0.02,1.92-1.21,2.05-2.41C1289.78,1088.12,1289.85,1086.14,1290,1083.79z M695.71,1110.47
				c5.01-1.39,10.26-3.8,15.53-6.13c7.05-3.13,13.07-7.83,19.05-12.58c0.79-0.63,1.7-1.31,1.24-2.44c-0.4-0.98-1.49-0.95-2.1-0.4
				c-5.86,5.31-14.4,5.74-20.16,11.38c-3.98,3.9-9.22,5.74-14.71,6.75c-1.36,0.25-3.62,0.09-3.36,2.03
				C691.46,1110.88,693.65,1110.13,695.71,1110.47z M997.01,299.99c-2.29,4.12-8.45,3.13-12.06,6.73c-1.73,1.72-0.99,3.85,1.82,4.18
				c2.15,0.25,4.23,0.29,6.03,1.85c6.48,5.62,6.33-2.69,9.06-4.61c2.86-2.01,1.61-4.65-0.57-6.74
				C1000.44,300.57,999.47,299.96,997.01,299.99z M745.07,936.04c-0.47-3.35,1.68-4.09,2.51-5.6c0.46-0.85,0.44-1.58-0.2-2.25
				c-0.63-0.67-1.67-0.99-2.2-0.31c-1.79,2.29-4.88,4.85-4.7,7.08c0.27,3.41-0.79,5.16-3.06,7.01c-0.91,0.74-1.54,1.9-0.84,3.09
				c0.84,1.43,2.79,1.53,3.46,0.7c3.86-4.76,12.32-3.8,13.91-11.35c0.27-1.3,2.28-2.44,0.64-3.85c-1.41-1.21-3.29-0.84-4.6,0.24
				C748.38,932.15,747.08,933.87,745.07,936.04z M1253.72,1052.39c-1.13-2.03-3.13-1.48-4.84-1.6c-2.56-0.18-5.71-0.61-6.79-2.5
				c-2.38-4.17-6.21-6.58-9.42-9.75c-1.13-1.12-1.58-3.39-3.64-1.92c-2.26,1.62-0.87,3.27,0.34,5.05c2.36,3.47,5.38,6.22,8.43,9.03
				C1242.96,1055.45,1246.97,1055.97,1253.72,1052.39z M1017.48,359.66c0.48-2.09,0.4-3.51-1.39-3.66
				c-2.56-0.21-4.37,1.59-5.79,3.28c-1.22,1.46-0.29,3.37,1.2,4.29c3.75,2.3,1.72,3.38-0.74,4.54c-1.94,0.92-3.97,1.73-5.72,2.93
				c-1.19,0.81-2.26,2.31-1.62,3.86c0.79,1.91,2.52,1.05,3.9,0.69c8.49-2.17,10.15-4.39,9.99-13.13
				C1017.29,361.32,1017.45,360.16,1017.48,359.66z M1222.72,1071.42c0.24,5.85,3.66,10.29,5.91,15.16
				c2.58,5.58,6.11,10.65,10.32,15.18c1.1,1.19,2.6,2.76,4.22,1.4c1.46-1.22,0-2.88-0.76-3.98c-3.01-4.36-6.62-8.24-9.71-12.59
				C1229.18,1081.67,1228.62,1074.85,1222.72,1071.42z M1123.2,624.76c-3.18-0.59-5.91,0.44-8.68,0.82c-1.75,0.24-3.2,1.32-2.35,3.5
				c0.75,1.91,10.48,5.41,12.02,4.13c1.98-1.66,4.01-2.6,6.57-3.12c2.68-0.54,1.08-2.24,0.1-3.24
				C1128.67,624.59,1125.7,624.9,1123.2,624.76z M876.96,646.58c-0.96-3.56,0.01-6.11,0.6-8.79c0.66-3.01,0.67-6.77-3.42-7.53
				c-2.48-0.46-5.18,0.88-5.42,3.92c-0.25,3.21-2.23,7.31,2.11,9.16C872.68,644.14,874.47,645.13,876.96,646.58z M1262.5,1059.81
				c-2.09-0.1-2.93-0.23-3.75-0.15c-1.42,0.14-3.38-0.29-3.78,1.57c-0.32,1.49,1.45,2.09,2.48,2.82c4.56,3.26,9.64,1.27,14.49,1.11
				c1.69-0.06,3.97-0.78,3.85-3.12c-0.12-2.32-2.41-2.7-4.15-2.72C1268.17,1059.29,1264.7,1059.68,1262.5,1059.81z M865.24,639.49
				c0.74-3.52-1.07-5.12-4.23-5.23c-2.86-0.1-6.18,0.13-6.07,4.08c0.11,4.22,4.32,5.84,7.12,6.59
				C865.25,645.78,864.77,641.73,865.24,639.49z M1281.18,895.65c-6.83-1.37-12.49-0.31-18.13,0.37c-1.67,0.2-3.58,0.9-3.24,2.99
				c0.37,2.34,2.51,1.57,4.07,1.53c2.96-0.08,5.41-2.67,8.61-1.74C1275.51,899.68,1277.93,898.47,1281.18,895.65z M698.21,946.88
				c1.79,0.01,3.22,0.34,3.97-1.2c0.32-0.65,0.18-1.55-0.47-1.72c-4.57-1.21-7.86-4.84-12.2-6.4c-1.46-0.53-3.09-0.24-3.75,1.5
				c-0.54,1.42,0.58,2.16,1.64,2.67C691.11,943.54,694.86,945.29,698.21,946.88z M688.72,1116.31c1.09,0.01,2.61,0.07,2.88-1.63
				c0.15-0.91-0.93-1.18-1.75-1.37c-5.92-1.38-11.84-2.77-17.77-4.14c-1.15-0.27-2.49-0.4-2.99,0.93c-0.61,1.61,0.58,2.58,1.92,2.86
				C676.81,1114.14,682.65,1115.18,688.72,1116.31z M703.88,997.64c-0.54,4.71,4.07,3.06,5.82,4.94c1.19,1.28,3.4,2.37,4.74,0.31
				c1.16-1.79,0.41-3.84-1.15-5.43c-1.73-1.75-3.9-2.39-6.27-2.72C704.49,994.39,703.62,995.47,703.88,997.64z M1002.93,331.68
				c-0.47-1.93-1.79-2.18-2.74-1.45c-1.97,1.49-4.2,2.51-6.18,3.86c-2.2,1.5-1.19,3.88,0.44,5.62c1.12,1.2,2.68,2.91,4.16,1.24
				C1000.97,338.28,999.15,333.58,1002.93,331.68z M1004.71,347.42c0.05,2.36,1.93,2.38,2.48,3.6c0.75,1.68,0.69,4.29,3.54,3.97
				c2.65-0.29,3.46-2.84,4.92-4.53c0.83-0.97,0.66-2.23-0.22-3.17c-0.95-1.02-2.78-1.93-3.47-0.97
				C1009.91,349.15,1007.34,347.55,1004.71,347.42z M1276.08,907.54c2.66-1.63,7.41,0.23,8.9-4.24c0.58-1.76-1.26-3.03-2.74-2.22
				c-3.03,1.65-8.23-2.46-9.44,3.47C1272.4,906.47,1273.66,907.6,1276.08,907.54z M1095.29,541.69c1.27-0.19,3.05-0.05,3.36-1.94
				c0.31-1.87-1.15-2.56-2.69-2.87c-1.52-0.31-2.71-1.04-3.72-2.22c-1.59-1.85-2.98-0.73-4.1,0.55c-1.32,1.51-1.16,3.29,0.6,4.16
				C1090.74,540.36,1092.65,541.88,1095.29,541.69z M721.16,958.64c-0.44-1.44,0.78-5.03-1.23-4.67c-2.52,0.46-5.85,3.05-6.48,5.36
				c-0.56,2.06,3.46,2.96,5.73,3.32C722.2,963.14,721.4,960.71,721.16,958.64z M712.61,1025.25c-0.37-2.58-2.01-3.64-4.48-3.47
				c-1.87,0.13-3.85,0.6-3.78,2.97c0.1,2.92,2.35,3.74,4.82,3.83C711.32,1028.65,712.52,1027.48,712.61,1025.25z M1091.75,637.27
				c1.61-2.12,5.5-2.04,5.94-5.66c0.18-1.46-0.51-2.83-2.15-2.62c-3.2,0.42-5.34,2.49-6.26,5.48
				C1088.88,635.79,1089.87,636.95,1091.75,637.27z M1014,332.22c-0.15-1.1-0.7-1.81-1.88-1.9c-1.76-0.12-7.12,5.52-7.2,7.56
				c-0.04,1.09,0.25,1.96,1.49,2.14C1008.31,340.28,1014.16,334.25,1014,332.22z M731.58,967.51c-0.19-1.43-1.29-1.94-2.47-2.03
				c-2.75-0.22-5.25,0.73-7.6,2.03c-0.91,0.51-1.57,1.4-1.04,2.49c0.55,1.11,1.69,1.04,2.6,0.61c2.15-1.03,4.44-1.32,6.76-1.6
				C730.68,968.91,731.41,968.5,731.58,967.51z M855.2,668.3c1.66-0.36,4.42,0.26,4.14-2.3c-0.27-2.49-2.96-3.45-5.27-3.71
				c-1.94-0.22-3.16,1.25-3.16,3.09C850.91,668.19,853.16,668.19,855.2,668.3z M729.5,936.52c0.1-2.29-1.38-3.09-3.13-3.08
				c-2.82,0.01-3.31,2.44-3.68,4.47c-0.34,1.82,1.18,2.7,2.76,2.74C728.19,940.71,728.77,938.43,729.5,936.52z M1249.41,958.11
				c1.71-0.04,4.36,0.37,4.21-1.55c-0.25-3.2-3.79-2.44-5.97-3.14c-1.79-0.58-3.78,0.29-3.49,2.3
				C1244.59,958.71,1247.67,957.34,1249.41,958.11z M709.36,1011.88c0.68-2.98-0.95-4.61-3.64-5.28c-1.36-0.34-1.77,0.97-1.37,1.9
				c1.07,2.51-0.35,6.59,3.36,7.31C709.89,1016.23,709.23,1013.5,709.36,1011.88z M738.17,918.19c4.54-1.25,7.81-2.46,9.97-5.63
				c0.33-0.49,0.6-1.25,0.46-1.76c-0.18-0.66-1.02-0.92-1.62-0.54C743.93,912.2,740.02,913.15,738.17,918.19z M1267.26,1043.67
				c-0.25-1.4-0.77-2.85-2.38-2.65c-2.42,0.31-2.86,2.56-3.26,4.46c-0.34,1.63,1.04,1.9,2.26,1.75
				C1265.92,1046.98,1267.19,1045.85,1267.26,1043.67z M711.36,978.23c-0.39-1.42-0.84-3.08-2.8-2.73c-1.67,0.3-2.42,1.71-2.23,3.4
				c0.18,1.61,1.31,2.27,2.83,2.11C710.72,980.85,711.53,979.94,711.36,978.23z M866.07,553.8c1.18-0.33,2.73-0.7,2.82-2.61
				c0.07-1.57-0.86-2.64-2.44-2.47c-1.79,0.19-3.17,1.25-3.16,3.23C863.3,553.42,864.46,553.81,866.07,553.8z M1236.4,978.12
				c-4.39-2.8-6.82-2.93-10.65-0.79C1229.23,979.63,1232.98,976.57,1236.4,978.12z M1246.31,1008.64c-2.4-0.79-4.64-3.17-7.27-0.84
				c-0.24,0.22-0.28,1.15-0.06,1.33C1241.44,1011.15,1243.86,1009.84,1246.31,1008.64z M1141.11,720.28
				c-0.87,0.24-1.69,0.7-1.54,1.92c0.19,1.61,1.46,2.07,2.82,2.2c0.99,0.1,2.24-0.03,2.06-1.35
				C1144.22,721.42,1142.78,720.77,1141.11,720.28z"/>
			<path class="st0" d="M690.88,1057.97c-0.35,2.01-0.27,4.47-2.05,5.88c-3.06,2.43-5.17,5.09-4.68,9.25
				c0.06,0.49-0.71,1.58-0.91,1.53c-3.45-0.73-7.46-0.78-10.13-2.68c-2.45-1.75-1.82-5.46,0.32-8.1c2.61-3.22,5.14-6.53,7.96-9.56
				c2.31-2.47,5.03-0.42,7.51,0.01C690.71,1054.63,690.91,1056.28,690.88,1057.97z"/>
			<path class="st0" d="M964.11,254.47c4.91-0.57,8.77,0.84,12.47,2.84c2.81,1.52,2.99,3.83,0.59,5.5
				c-2.24,1.56-3.11,3.06-2.64,5.71c0.29,1.63-0.81,3.49-2.44,2.93c-2.94-1.01-5.32-0.14-8.06,0.55c-3.24,0.82-5.29-1.89-6.47-4.41
				c-1.11-2.37,1.17-2.75,2.84-2.69c3.16,0.1,6.31,0.56,9.44-0.24c1.11-0.28,2.45-0.35,2.67-1.81c0.2-1.34-0.81-2.07-1.77-2.77
				C968.53,258.46,965.58,257.74,964.11,254.47z"/>
			<path class="st0" d="M967.97,361.34c0.04-3.77,6.56-8.74,9.9-7.79c1.57,0.45,3.08,1.14,4.59,1.78c1.74,0.74,2.32,2.34,1.15,3.58
				c-3.37,3.59-7.22,7.12-12.06,7.96C968.1,367.47,968.32,363.56,967.97,361.34z"/>
			<path class="st0" d="M967,293.1c1.61,0.02,2.34,0.42,2.42,1.38c0.15,1.68,0.19,3.68-1.73,4.21c-5.42,1.48-8.37,5.52-11.08,9.94
				c-0.8,1.3-1.86,2.64-3.59,1.82c-1.92-0.92-0.93-2.47-0.46-3.87c0.99-2.91,2.62-5.23,5.19-7.05
				C960.98,297.26,964.73,295.81,967,293.1z"/>
			<path class="st0" d="M980.78,454.91c0,3.06,0.01,6.11,0,9.17c-0.02,4.3-0.37,8.66,2.62,12.35c0.88,1.09,1.39,2.54,0.01,3.51
				c-1.44,1.02-2.41-0.29-3.32-1.26c-3.73-3.97-3.18-8.84-2.89-13.65C977.42,461.41,978.17,457.96,980.78,454.91z"/>
			<path class="st0" d="M919.96,624.83c-7.41-4.27-14.62-9.01-19.84-16.25c-0.57-0.79-1.02-1.82-0.37-2.78
				c0.64-0.94,1.55-0.52,2.14,0.05c6.06,5.79,11.36,12.4,18.53,17C920.92,623.18,921.07,624.02,919.96,624.83z"/>
			<path class="st0" d="M977.12,413.8c0.39-4.05,0.68-7.03,0.98-10c0.14-1.39,0.47-2.93,2.19-2.7c1.39,0.18,1.74,1.89,1.28,2.83
				c-2.88,5.98-0.52,11.27,1.85,16.61c0.48,1.09,0.79,2.37-0.66,2.98c-1.32,0.55-2.26-0.4-2.89-1.37
				C978,419.3,977.06,416.14,977.12,413.8z"/>
			<path class="st0" d="M983.16,493.63c-0.26,1.62-0.28,3.69-0.94,5.52c-0.96,2.68-1.56,5.07,0.79,7.34
				c0.73,0.7,1.16,1.74,0.31,2.66c-0.89,0.97-1.84,0.38-2.66-0.2c-2.54-1.81-4.8-3.56-2.72-7.32c1.52-2.75,0.31-6.31,2.1-9.12
				c0.8-1.25,0-4.14,2.38-3.58C984.69,489.46,982.86,491.77,983.16,493.63z"/>
			<path class="st0" d="M1001.97,244.84c-2.41-0.07-4.08-0.7-4.53-2.83c-0.42-1.97,0.8-3.06,2.5-3.71c1.53-0.58,3.03-1.36,4.62-1.64
				c2.34-0.42,4.42,0.53,5.07,2.86c0.59,2.08-0.83,3.31-2.87,3.85C1005.02,243.83,1003.31,244.43,1001.97,244.84z"/>
			<path class="st0" d="M918.77,604.36c-7.89-2.38-13.57-8.02-19.46-13.35C907.36,593.15,914.1,597.23,918.77,604.36z"/>
			<path class="st0" d="M1091.26,455.48c1.8,1.4,4.11,1.72,6.69,1.27c0.83-0.14,1.19,1.07,0.81,1.93c-0.33,0.75-0.74,1.59-1.37,2.04
				c-1.6,1.16-1.12,5.36-3.94,3.93c-2.48-1.26-4.12-4.27-4.34-7.48C1089.01,455.95,1089.6,455.29,1091.26,455.48z"/>
			<path class="st0" d="M964.51,204.65c-5.85,6.36-14.18,9.63-19.58,16.49C950.31,214.26,956.05,207.82,964.51,204.65z"/>
			<path class="st0" d="M982.91,440.68c-0.74,2,0.56,5.96-1.91,5.81c-2.85-0.18-1.71-4.04-1.72-6.33c-0.01-1.93-0.95-5.41,1.84-5.26
				C984.38,435.07,982.51,438.55,982.91,440.68z"/>
			<path class="st0" d="M1101.41,453.24c0.54-4,2.8-6.81,5.04-9.54c1.01-1.22,3.1-1.97,4.38-0.41c1.2,1.46-0.3,2.86-1.42,3.7
				C1106.73,449,1103.6,450.41,1101.41,453.24z"/>
			<path class="st0" d="M950.61,636.27c-5.48,0.43-9.26-2.4-13.5-3.06c-0.58-0.09-1.12-0.9-0.74-1.57c0.45-0.82,1.39-0.82,2.19-0.61
				C942.46,632.03,946.73,632.15,950.61,636.27z"/>
			<path class="st0" d="M952.67,268.35c-0.09,1.65-1.03,2.43-2.51,2.44c-1.7,0.01-2.74-0.97-2.96-2.64c-0.2-1.52,0.52-2.63,2.1-2.66
				C951.18,265.46,952.23,266.64,952.67,268.35z"/>
			<path class="st0" d="M1002.54,639.21c-2.01,2.39-3.61,5.03-6.69,5.59c-0.98,0.18-2.1,0.2-2.35-1.1c-0.18-0.93,0.57-1.51,1.36-1.8
				C997.41,640.97,999.98,640.1,1002.54,639.21z"/>
			<path class="st0" d="M970.23,279.11c-0.39,1.77-1.6,2.79-3.37,3.17c-1.1,0.23-2.22-0.07-2.15-1.33c0.13-2.27,2.03-2.82,3.85-3.22
				C969.52,277.52,970.15,278,970.23,279.11z"/>
			<path class="st0" d="M1075.6,453.3c3.67,1.72,5.65,3.47,7.61,6.74C1079.86,458.86,1077.44,456.72,1075.6,453.3z"/>
			<path class="st0" d="M886.2,441.49c0.66,3.25-1.18,4.84-3.37,7.45C882.87,445.35,883.02,443,886.2,441.49z"/>
			<path class="st0" d="M982.62,684.21c-6.18,0.39-12.31,0.17-18.45,0.19c-8.02,0.03-15.28-2.94-22.86-4.66
				c-1.51-0.34-3.81-1.13-3.3-3.08c0.65-2.53,3.05-1.22,4.68-0.95c3.11,0.52,6.16,1.37,9.25,1.98c16.97,3.34,34.11,4.58,50.43-1.9
				c8.4-3.34,16.96-6.46,25.16-10.38c0.89-0.43,1.81-0.88,2.76-1.09c0.56-0.12,1.52,0.03,1.79,0.41c0.59,0.83-0.08,1.58-0.8,2.01
				c-1.7,1.02-3.35,2.36-5.21,2.83c-6.21,1.57-11.8,4.5-17.31,7.55C1000.58,681.66,991.74,683.42,982.62,684.21z"/>
			<path class="st0" d="M1087.44,694.61c-4.82,5-10.73,7.76-16.35,8.4c-7.5,0.86-14.25,3.47-21.26,5.57
				c-1.1,0.33-2.19,0.88-3.31,0.93c-1.27,0.06-2.86-0.02-3.07-1.78c-0.16-1.36,0.86-2.11,2.07-2.41c5.94-1.48,11.85-3.79,17.86-4.14
				c6.25-0.36,11.5-2.76,16.97-5.04C1082.41,695.28,1084.35,693.99,1087.44,694.61z"/>
			<path class="st0" d="M1058.57,690.4c10.26-5,20.57-9.47,27.5-19.04c0.84-1.15,2.35-2.66,3.74-1.5c1.78,1.48,0.53,3.58-0.52,4.94
				c-5.11,6.64-11.61,11.48-19.71,13.8C1066.01,689.64,1062.42,691.16,1058.57,690.4z"/>
			<path class="st0" d="M1051.26,716.94c-0.55,3.9-2.29,7.1-4.11,10.26c-2.8,4.87-5.55,9.77-8.5,14.55c-0.81,1.32-2.26,3-4.03,1.64
				c-1.51-1.17-0.3-2.87,0.51-3.99c3.41-4.71,6.2-9.72,8.69-14.98c1.2-2.54,2.79-4.8,2.98-7.73c0.1-1.53,0.65-3.18,2.58-2.99
				C1051.37,713.9,1051.34,715.61,1051.26,716.94z"/>
			<path class="st0" d="M1101.46,663.32c-0.59,1.94-2.11,1.81-3.61,1.56c-0.92-0.16-2.4-0.37-1.89-1.62
				c0.72-1.77,2.76-1.51,4.31-1.7C1101.17,661.46,1101.59,662.36,1101.46,663.32z"/>
			<path class="st0" d="M852.03,601.86c0.33-2.29,0.43-4.65,1.08-6.84c0.41-1.39,1.74-2.65,3.46-2.19c1.47,0.39,1.89,1.89,1.83,3.24
				c-0.23,5.49-2.76,10.6-2.69,16.16c0.01,0.67-0.63,1.31-1.35,0.99c-0.5-0.22-1.04-0.89-1.14-1.43
				C852.6,608.51,851.74,605.26,852.03,601.86z"/>
			<path class="st0" d="M1106.64,562.98c-1.38-0.41-3.38,0.3-3.63-1.77c-0.19-1.54,1.23-1.84,2.41-1.61
				c1.49,0.29,3.75-0.16,3.88,2.07C1109.38,563.16,1107.66,562.84,1106.64,562.98z"/>
			<path class="st0" d="M1109.53,572.9c-0.19,1.44-1.23,1.82-2.44,1.81c-1.42-0.01-2.68-0.48-2.55-2.21
				c0.1-1.32,1.08-1.99,2.37-1.96C1108.39,570.57,1109.31,571.36,1109.53,572.9z"/>
			<path class="st0" d="M715.34,881.95c2.46,0.17,5.02-0.09,6.98,1.94c1.31,1.35,1.48,2.91,0.86,4.59
				c-0.49,1.34-1.37,2.33-2.93,2.19c-1.76-0.15-2.6-1.35-2.84-2.96c-0.37-2.46-1.86-3.31-4.18-3.22c-1.11,0.04-2.78,0.31-2.85-1.15
				c-0.09-1.92,1.75-1.48,2.99-1.54C714.02,881.77,714.68,881.89,715.34,881.95z"/>
			<path class="st0" d="M990.07,711.34c-2.9,0.22-5.09,0.62-6.26-1.86c-0.12-0.26,0.26-1.07,0.57-1.18
				C986.89,707.46,988.32,708.92,990.07,711.34z"/>
		</g>
	</g>
</g>
</svg>
