<?xml version="1.0" encoding="utf-8"?>
<!-- Generator: Adobe Illustrator 28.0.0, SVG Export Plug-In . SVG Version: 6.00 Build 0)  -->
<svg version="1.1" id="Layer_1" xmlns="http://www.w3.org/2000/svg" xmlns:xlink="http://www.w3.org/1999/xlink" x="0px" y="0px"
	 viewBox="0 0 1920 1080" style="enable-background:new 0 0 1920 1080;" xml:space="preserve">
<style type="text/css">
	.st0{fill:none;stroke:#231F20;}
</style>
<g>
	<g>
		<g>
			<path d="M1088.68,804.42c-0.29-2.68,1.64-3.73,3.5-4.92c10.37-6.68,21.4-12.18,32.67-17.06c11.04-4.78,19.18-12.91,27.45-21.09
				c1.72-1.7,3.52-3.33,5.89-5.57c-0.64,5.31-3.5,7.87-6.59,10.44c-4.49,3.72-4.32,4.82,0.43,8.16c2.14,1.51,2.2,3.2,0.23,4.91
				c-3.52,3.05-7.15,6.19-11.74,7.24c-6.59,1.49-12.6,4.86-19.37,5.64c-1.07,0.12-2.59,0.22-2.38,1.89c0.15,1.14,1.36,1.31,2.3,1.61
				c2.07,0.65,3.85-0.32,5.78-0.87c9.21-2.59,18.21-5.69,26.88-9.75c0.21-0.1,0.6,0.19,0.52,0.16
				c-4.56,11.34-14.9,12.84-25.19,14.08c-3.74,0.45-7.47,1.98-11.37,0.84c-0.82-0.24-1.83,0-1.72,1.13
				c0.09,0.87,0.99,1.52,1.82,1.42c6.21-0.81,12.5,1.26,18.69-0.83c7.67-2.59,14.48-0.1,21.19,3.72c3.48,1.98-0.92,3.3,0.11,4.85
				c4.09-0.7,4.48-1,4.2-4.83c-0.09-1.26,0.3-1.82,1.16-2.42c5.84-4.06,11.98-7.8,14.84-15.1c1.8,3.17,0.75,6.04-0.79,8.01
				c-5.24,6.7-7.94,14.29-9.71,22.47c-1.06,4.88-4.34,9.26-5.68,13.67c-1.16,3.82-2.59,7.9-3.65,11.92
				c-1.66,6.32-5.13,11.64-8.93,16.98c-6.91,9.71-11.77,20.87-19.55,29.94c-6.67,7.77-11.21,16.78-16.82,25.15
				c-3.06,4.57-3.54,10.01-5.35,15c-2.58,7.1-7.1,13.49-6.75,21.67c0.49,11.29,0.59,22.61,0.36,33.91
				c-0.16,8.01-0.45,15.99,2.18,23.66c3.34,9.75,5.16,20.2,13.21,27.82c3.79,3.59,4.11,8.99,5.32,13.7c0.82,3.22-1.6,6.65-4.96,6.04
				c-8.98-1.63-16.73,3.92-25.63,3.27c-8.7-0.64-17.55,0.63-26.32,1.15c-2.55,0.15-4.97-0.3-7.41-0.88
				c-11.97-2.87-23.32,0.07-34.67,3.53c-13.15,4.02-26.04,9.42-40.26,8.46c-3.17-0.22-5.99,0.35-7.72,3.43
				c-0.6,1.07-1.61,1.65-2.77,1.99c-8.92,2.64-17.74,5.46-27.18,6.19c-4.31,0.33-8.19,4.33-12.27-1.42
				c-1.09-1.53-2.32,2.02-2.07,3.98c0.21,1.62,2.71,2.17,1.85,4.82c-3.05-4.68-6.86-0.06-10.63-1.18c-2.31-0.69-2.46,3.8-2.58,6.12
				c-0.13,2.55,2.34,2.91,4.01,2.34c4-1.37,8.06-1.84,12.24-1.95c2.19-0.06,2.52-2.38,3.67-3.77c5.06,7.76-0.77,15.52-8.02,16.82
				c-6.95,1.25-13.95,2.8-21.16,3.07c-6.35,0.24-12.4-0.27-17.9-3.25c-9.98-5.39-17.38-13.43-22.92-23.15
				c0.38-0.42,0.75-0.84,1.13-1.26c3.34,3.08,7.26,5.72,9.91,9.31c12.06,16.28,26.28,17.69,43.4,13.39
				c4.14-1.04,9.21,0.69,12.43-3.84c0.88-1.24,2.24-2.04,1.5-3.77c-0.69-1.61-2.16-1.07-3.46-1.2c-6.8-0.67-12.82,2.65-19.29,3.73
				c-6.78,1.13-13.37,2.66-19.71-1.34c-0.54-0.34-1.26-0.54-1.08-1.81c6.14,0.82,6.16-2.69,5.06-7.27
				c-0.49-2.06,0.05-4.36-0.42-6.43c-0.5-2.22-2.35-3.38-4.6-2.65c-2.43,0.8-1.45,2.57-0.62,4.06c1.22,2.19,1.29,3.56-1.86,2.98
				c-2.32-0.43-3.67,0.77-3.77,2.88c-0.23,5.03-2.62,2.67-4.24,1.18c-4.29-3.94-7.15-9.07-10.75-13.59
				c-0.83-1.04-1.53-2.17-2.39-3.18c-1.62-1.89-3.19-4.24-6.18-3.06c-3.29,1.31,0.48,3.73-0.49,5.69c-8.27-4.51-17.2-5.8-26.08-7.18
				c-2.34-0.36-3.75-2.09-5.57-3.18c-4.4-2.62-9.5-2.98-14.2-4.46c-4.25-1.34-7.3-3.8-10.43-6.42c-2.85-2.38-4.82-4.95-1.43-8.81
				c2.3-2.62,1-4.64-2.49-4.93c-4.63-0.38-9.2-1.34-13.91-1.06c-6.08,0.37-10.87-2.62-15.14-6.59c-1.39-1.3-2.41-2.82-1.98-4.85
				c0.46-2.13,2.13-2.67,4.02-3.15c17.64-4.47,35.78-5.76,53.67-8.69c1.69-0.28,3.41-0.08,4.85,0.8c4.1,2.51,8.34,4.03,13.27,3.05
				c1.17-0.23,3.03-0.11,2.99,1.7c-0.03,1.36-1.66,1.61-2.76,1.6c-4.74-0.04-9.63,1.22-14.04-1.87c-2.47-1.73-5.46-1.54-8.25-0.95
				c-10.92,2.3-22.18,2.24-33.03,4.91c-4.02,0.99-7.99,2.2-11.96,3.37c-2.11,0.62-1.58,1.6-0.35,2.78c3.35,3.22,7.46,4.03,11.92,4.3
				c5.93,0.36,12.02-0.23,17.58,2.8c3.17,1.73,4.63,3.05,0.77,5.95c-3.83,2.88-2.49,7.54,2.99,9.35
				c10.09,3.33,20.1,6.76,29.81,11.13c2.38,1.07,5.18,2.39,8.16,0.79c1.57-0.84,2.77,0.6,3.93,1.53c0.94,0.75,1.95,1.58,2.99,0.3
				c0.92-1.14,0.27-2.26-0.54-3.13c-2.71-2.89-5-6.21-8.53-8.45c-1.23,2.03,2.11,3.38,0.76,5.33c-5.37-2.67-7.51-8.39-4.53-13.16
				c6.86-10.99,9.53-23.56,13.8-35.53c4.58-12.87,2.5-25.89,1.45-38.9c-0.55-6.8-0.69-13.72-2.2-20.32
				c-2.07-9.07-2.37-18.34-3.99-27.45c-1.01-5.68-0.28-11.64,1.14-17.28c1.5-5.96,2.57-12.39,5.67-17.5
				c5.16-8.53,9.53-17.58,16.35-25.2c4.12-4.6,6.91-10.73,6.47-17.35c-0.14-2.13-2.98-2.92-4.83-3.98
				c-8.25-4.69-17.28-7.78-25.47-12.68c-3.13-1.87-3.87-3.63-3.32-6.71c0.43-2.46,0.61-4.99,1.28-7.38
				c3.81-13.6-1.98-26.32-3.74-39.36c-1.29-9.58-2.12-19.16-3.03-28.77c-1.06-11.11-4.48-21.76-8.76-32.07
				c-1.16-2.78-1.12-5.32-0.52-8.22c2.34-11.32,4.73-22.35,2.95-34.4c-2.3-15.57-2.62-31.52-1.82-47.35
				c0.29-5.81,4.28-10.41,6.62-15.52c5.13-11.19,9.37-22.53,12.47-34.55c1.53-5.95,2.71-11.22,1.65-17.16
				c-0.34-1.89-0.99-3.03-2.89-3.5c-13.52-3.34-25.19-10.92-37.66-16.66c-8.12-3.74-16.14-7.7-23.92-12.18
				c-5.56-3.19-8.94-8.35-13.5-12.4c-0.87-0.77-1.43-2-2.4-2.51c-13.74-7.3-21.17-20.7-30.86-31.89c-3.85-4.44-0.84-9.15,0.12-13.68
				c1.17-5.55,6.14-9.46,6.64-15.43c0.23-2.68,0.08-5.31,0.12-7.97c0.05-3.26,0.82-5.82,3.54-8.28c3.58-3.24,4.61-8.34,6.6-12.68
				c7.87-17.11,16.48-33.72,29.69-47.5c2.67-2.78,4.04-6.44,5.76-9.85c5.5-10.96,13.46-20.21,21.29-29.45
				c3.61-4.26,9.11-6.7,14.37-8.7c18.04-6.84,35.9-14.14,53.16-22.76c7.29-3.64,13.98-8.38,16.59-16.91
				c0.25-0.82,1.33-1.39,2.03-2.08c-1.08,3.44-1.23,7.73-3.42,10.17c-5.28,5.88-9.67,11.99-18.5,15.08
				c-16.38,5.73-32.27,13.13-48.45,19.64c-6.47,2.6-13.36,5.17-16.94,11.59c-2.7,4.84-6.66,8.53-9.8,12.92
				c-4.31,6.03-6.82,12.4-5.83,19.95c0.21,1.62,0.5,3.55-1.45,5.12c-0.44-0.84-0.76-1.37-1-1.94c-0.75-1.74,1.24-4.91-1.26-5.24
				c-2.51-0.33-3.94,2.61-5.16,4.78c-0.57,1.01-1.23,2.14-1.26,3.23c-0.11,4.38-2.88,7.29-5.39,10.38
				c-4.93,6.05-10.19,11.76-14.37,18.49c-4.77,7.68-6.73,16.61-11.64,24.15c-0.26,0.4-0.14,1.37,0.17,1.78
				c0.74,0.95,1.87,0.67,2.74,0.2c7.53-4.07,15.27-2.71,22.85-0.58c11.74,3.31,22.24,8.83,29.84,18.8c0.98,1.28,1.58,3.47,3.67,2.14
				c2.14-1.37,0.93-3.19-0.11-4.75c-1.06-1.59-3.56-3.84-1.73-4.97c2.32-1.44,2.97,2.17,4.34,3.6c0.33,0.34,0.45,0.88,0.63,1.35
				c1.05,2.74,2.9,2.12,4.2,0.58c4.77-5.63,10.46-10.83,10.04-19.23c-0.05-1.01-0.51-2.35,1.02-3.28c0.52,3.06-1.31,7.32,2.22,8.53
				c3.47,1.19,5.02-2.9,7.2-5c1.06-1.02,2.01-2.35,3.79-1.84c0.25,0.07,0.59,0.49,0.57,0.72c-0.16,1.67-1.81,1.79-2.84,2.42
				c-2.2,1.35-3.96,3.19-2.99,5.64c0.83,2.1,3.9,4.02,5.52,3.21c5.07-2.55,9.03,0.49,13.34,1.64c3.39,0.9,7.2,0.48,10.63,2.7
				c-2.77,2.18-5.44,2.08-8.04,1.53c-5.97-1.27-11.91-2.72-17.84-4.14c-1.02-0.25-1.98-0.5-2.75,0.39c-0.61,0.7-0.53,1.61-0.09,2.34
				c4.08,6.78,4.88,15.29,11.03,21c0.78,0.73,2.14,1.96,1.05,2.89c-1.28,1.1-3.33,0.87-5.02,1.57c-1.49,0.61-1.04-1.55-1.25-2.53
				c-1.97-9.2-7.22-17.02-10.79-25.55c-1.11-2.65-3.74-2.91-5.21-0.83c-5.64,8.03-12.35,15.12-18.92,22.33
				c-1.86,2.04-1.89,4.06-0.11,6.23c3.37,4.11,7.11,8.02,9.87,12.52c6.5,10.59,15.19,19.23,23.62,28.14
				c0.9,0.95,1.81,2.14,3.39,1.42c1.35-0.62,1.85-1.88,1.98-3.26c0.19-2.15,0.24-4.32,0.47-6.47c0.1-0.95,0.33-2.21,1.6-2.1
				c1.2,0.1,1.47,1.33,1.41,2.32c-0.21,3.44,0.76,6.57,2.14,9.65c0.57,1.28,0.63,2.25-1.06,3.2c-3.4,1.92-1.25,4.61,0.64,5.06
				c4.28,1.02,7.28,3.95,10.91,5.89c3.33,1.78,6.69,2.22,10.07,0.68c3.86-1.75,7.68-1.49,11.72-0.94
				c7.64,1.03,14.72,5.53,22.87,3.62c1.13-0.27,2.9,0.26,3.75,1.08c5.86,5.57,14.61,5.45,20.71,11.23c3.6,3.41,8.05,6.6,9.47,10.88
				c2.33,7.01,7.48,8.07,13.06,8.51c12.29,0.97,24.53,2.27,36.8,3.42c12.13,1.14,23.4-1.6,32.95-9.71c1.4-1.19,3.46-2.66,2.5-4.43
				c-1.55-2.87-0.29-4.09,1.7-5.71c1.39-1.12,2.55-2.72,2.86-4.59c1.09-6.72,2.74-13.3,2.99-20.22c0.47-13.04-3.06-25.38-5.33-37.97
				c-2.01-11.16-6.1-21.2-13.07-30.27c-4.29-5.58-8.28-11.74-5.38-19.58c0.37-1.01,0.21-2.38-0.14-3.45
				c-2.81-8.72-4.17-17.78-6.38-26.62c-3.1-12.43-8.09-24.28-12.87-36.16c-0.52-1.29-1.15-2.62,0.05-3.68
				c2-1.78,1.03-3.83,1.11-5.94c0.3-7.55-6.99-10.79-9.35-16.92c-0.78-2.03-6.7-0.49-7.94-4.76c-2.34,1.21-4.09,0.54-6.23-1.03
				c-3.22-2.36-5.31-1.02-5.8,2.97c-0.19,1.52,0.42,4.55-1.42,4.18c-4.86-0.99-8.63,1.98-13.03,2.56
				c-13.86,1.82-24.08-5.83-33.96-13.17c-6.88-5.12-14.32-8.89-21.67-12.99c-2.71-1.51-5.4-2.93-6.01-6.64
				c9.07,4.71,18.08,9.51,26.54,15.14c7.75,5.17,15.02,11.06,24.16,13.68c1.99,0.57,4.34,1.65,5.69-1.08
				c1.89-3.82,4.11-6.12,8.3-2.62c0.79,0.67,1.9,0.83,2.69-0.12c0.79-0.94,0.5-2.09-0.38-2.62c-2.44-1.45-4.16-6.95-8.05-1.5
				c-1.01,1.41-4.11-0.2-4.67,2.55c-1.33-0.62-2.71-1.15-3.96-1.9c-0.73-0.44-0.99-1.29-0.61-2.19c0.8-1.9,6.74-4.09,8.88-3.38
				c3.29,1.1,6.14,2.56,8.66-2.22c1.26-2.39,4.68-3.29,1.38-6.52c-0.56-0.54-0.09-1.61,0.65-2.18c2.14-1.66,1.51-3-0.42-4.27
				c-1.59-1.04-1.76-2.68-1.87-4.4c-0.09-1.36,0.74-3.28-1.41-3.7c-0.83-0.16-2.18,0.27-2.67,0.9c-1.45,1.85,0.53,2.52,1.57,3.44
				c0.98,0.86,1.6,1.84,0.62,2.98c-0.97,1.13-2.84,1.66-3.5,0.55c-1.41-2.39-6.2-3.14-3.85-7.51c0.5-0.93,0.03-2.05-1.2-2.27
				c-0.93-0.17-1.54,0.5-1.84,1.35c-0.38,1.09-0.11,3.59-1.96,2.37c-3.84-2.54-7.93-3.07-12.29-3.3c-1.7-0.09-2.81-1.4-3.32-3.27
				c-0.88-3.24-3.38-5.6-5.78-7.58c-1.14-0.94-5.31-0.68-5.39,0.49c-0.19,2.56-3.82,4.59-1.1,7.62c2.45,2.73,0.38,5.59-1.52,6.88
				c-3.34,2.26-5.77-0.95-8.15-2.87c-2.75-2.21,0.46-2.6,1.15-3.91c1.32-2.52,4.26-5.08,0.8-8.2c-2.52-2.27-0.15-2.91,1.37-3.85
				c1.4-0.87,3.29,1.32,4.8-1.21c-5.11-0.08-6.42-2.96-5.92-7.37c0.19-1.72,0.26-4.13-2.15-4.41c-1.99-0.22-3.31,1.58-3.91,3.3
				c-0.72,2.06-1.13,4.19-3.18,5.44c-0.99-4.19,1.09-7.81,3.46-10.5c3.62-4.12,2.74-8.79,0.83-11.97
				c-4.33-7.22-4.72-15.04-4.55-22.69c0.11-5-1.5-9.31-3.32-13.12c-3.23-6.74-1.51-12.97-0.57-19.47c0.14-0.97,0.77-1.87,0.9-2.84
				c2.37-18.64,15.84-28.48,30.09-37.5c1.76-1.11,3.68-3.45,6.77-2.78c-0.67,2.86-3.83,2.24-5.05,4.47
				c-1.78,3.24-3.02,5.57-2.47,8.9c0.29,1.75,1.03,3.69-1.49,4.59c-0.43,0.15-1.08,0.73-1.03,1c0.85,4.55-1.89,7.77-3.83,11.38
				c-0.73,1.35-1.32,2.15-2.79,2.3c-5.19,0.54-6.11,3.92-5.92,8.4c0.12,2.84,0.58,6.27-3.85,6.68c-0.74,0.07-1.24,0.59-1.26,1.3
				c-0.01,0.4,0.29,0.99,0.62,1.19c3.78,2.24,7.28,0.17,7.35-4.31c3.28,2.18,3.3,2.18,2.35,6.02c-0.26,1.04-0.23,2.63,0.84,2.24
				c4.63-1.68,2.44,2.32,2.83,3.54c0.81,2.49-1.47,2.43-3.08,2.62c-5,0.59-6.45,6.45-11.23,7.56c-0.84,0.19-0.52,2.49,0.38,3.09
				c3.19,2.13,3.37,5.58,4.1,8.72c1.58,6.77,7.41,10.84,10.39,16.72c1.3,2.57,4.06,2.29,6.22,1.24c4.67-2.28,8.59-5.67,12.31-9.26
				c0.72-0.69,0.69-1.68,0.08-2.25c-3.45-3.21-1.78-7.49-2.26-11.24c-0.76-5.97,4.66-9.29,7.02-13.95c0.87-1.72,2.53-3.07,3.97-4.45
				c0.88-0.84,1.51-3.44,3.18-1.48c0.98,1.15,0.64,3.21-1.26,4.23c-2.68,1.43-3.81,4.03-5.03,6.57c0.88,1.48,1.76,0.15,2.58,0.1
				c1.42-0.1,2.79,0.08,3.52,1.35c0.92,1.58-0.57,2.28-1.45,3.24c-2.19,2.38-5.26,3.96-6.28,7.46c-0.38,1.29-0.81,4.8,0.07,6.16
				c0.42,0.65,0.92,1.7,0.68,2.27c-3.09,7.12,2.81,4.36,5.47,4.88c0.83,0.16,1.88-0.73,2.57,0.44c0.76,1.28,0.15,2.56-0.85,3.01
				c-2.31,1.04-3.22,5.28-7.53,2c-3.77-2.87-7.94,0.88-7.62,5.88c0.16,2.44,1.23,4.9,0.13,7.39c-1.13,2.57-0.02,3.43,2.48,3.07
				c1.02-0.15,2.25-0.44,2.28,0.97c0.03,1.36-1.2,1.19-2.25,1.1c-2.37-0.2-2.97,1.3-2.51,3.18c0.8,3.23,1.82,6.4,2.82,9.57
				c0.42,1.32,1.65,3.1,2.63,2.56c4.48-2.48,5.05,1.71,6.98,3.65c1.29,1.3,2.4,3.73,4.58,0.88c0.49-0.64,1.41-0.27,1.56,0.41
				c0.9,4.11,2.91,2.27,5.47,1.58c5.73-1.53,7.67-4.1,4.38-9.55c-0.76-1.26-0.53-2.86,1.2-3.14c1.82-0.29,2.14,1.31,2.1,2.68
				c-0.19,5.54,2.05,9.97,5.92,13.77c1.02,1,2.06,1.72,3.52,1.41c3.62-0.78,6.83-2.22,10.74,0.7c1.88,1.4,4.21-2.68,4.94-5.07
				c0.77-2.53-0.19-5.02-3.25-5.76c-0.93-0.23-2.01,0.19-2.97,0.02c-1.92-0.34-2.87-1.91-2.95-3.58c-0.11-2.29,1.95-1.72,3.33-1.87
				c2.08-0.22,3.76,0.38,5.44,1.83c2.37,2.05,4.82,0.97,6.56-1.1c1.18-1.4,1.33-3.59-1.05-3.82c-6.09-0.58-12.4-5.31-18.31,0.62
				c-0.32,0.32-1.33,0.32-1.79,0.07c-0.79-0.44-1.05-1.44-0.56-2.18c1.19-1.79,2.48-3.52,3.85-5.18c1.88-2.27,3.38-0.98,4.8,0.65
				c0.09,0.11,0.33,0.19,0.46,0.16c6.01-1.58,11.91-2.21,17.93,0.32c1.36,0.57,2.39-1.22,2.55-2.98c0.44-4.66-3.06-9.31-7.98-9.81
				c-3.24-0.33-5.72-1.05-7.08-4.41c-1.04-2.56-3.12-1.48-4.54-0.36c-1.61,1.27-3.01,2.66-5.28,2.1l0.13,0.13
				c1.84-4.26,6.24-5.23,9.7-7.34c1.41-0.86,3.26-0.24,3.05,1.86c-0.42,4.19,1.91,4.64,5.2,4.57c1.79-0.04,3.58,0.65,5.39,0.91
				c3.06,0.43,5.09-1.31,6.69-3.55c1.39-1.95,0.38-3.67-0.75-5.49c-4.91-7.89-4.95-16.68-4.31-25.51c0.2-2.71,2-4.97,4.65-5.2
				c4.13-0.36,4.47-2.84,4.14-5.87c-0.39-3.59-0.77-7.22-2.53-10.46c-1.65-0.18-1.87,1.3-2.66,2.03c-1.94,1.79-4.24,1.06-6.15,0.44
				c-2.49-0.8-0.73-2.71-0.42-4.19c0.1-0.48,0.31-1.18,0.08-1.46c-4.08-4.93,0.87-6.78,3.31-9.2c1.99-1.97,1.76-3.5,0.58-5.69
				c-6.95-12.94-17.19-22.42-30.92-27.32c-6.97-2.49-14.46-3.65-22.22-3.33c-5.34,0.22-10.52,0.42-15.65,1.89
				c-1.11,0.32-2.29,0.3-3.81-1.23c5.35-2.81,10.92-3.16,16.29-3.13c6.76,0.04,13.63,0.45,20.22,1.84
				c5.37,1.13,11.01,2.87,15.44,6.23c9.37,7.12,18.57,14.54,23.72,25.68c3.04,6.59,4.68,13.82,9.24,19.74
				c0.68,0.88,0.45,2.59,0.38,3.9c-0.38,6.95-0.71,13.87-2.28,20.75c-1.04,4.52-1.77,9.12-0.75,14.2c0.92,4.56-1.11,9.76-3.31,14.26
				c-2.26,4.64-4.69,9.16-4.77,14.54c-0.04,2.62-1.14,4.87-3.37,6.4c-3.68,2.52-4.6,7.67-9.19,9.43c-1.14,0.44-0.74,2.34-0.57,3.71
				c0.8,6.21-3.88,11.88-10.14,11.86c-2.67-0.01-5.33,0.51-8.23-0.9c-2.31-1.12-5.46,1.23-6.98,3.42c-1.32,1.89,1.29,2.98,2.51,4.23
				c7.31,7.5,16.93,12.72,21.58,22.9c1.61,3.52,3.15,7.14,3.77,10.74c3.24,18.89,8.9,37.17,14.25,55.47
				c3.15,10.78,4.3,21.77,6.24,32.67c0.86,4.85,2,9.16,5.43,13.03c6.33,7.15,9.43,16.31,11.04,25.26
				c2.93,16.28,8.18,32.43,5.8,49.35c-1.2,8.53-2.97,16.95-6.77,24.8c-1.54,3.17-1.78,6.31,0.11,9.54c2.1,3.61,1.92,8.27,1.38,11.58
				c-1.46,8.96,3.42,15.26,6.8,22.32c0.57,1.19,1.53,2.31,1.71,3.55c2.23,14.97,11.75,24.81,23.36,33.07
				c10.95,7.79,19.06,18.18,25.78,29.42c6.88,11.5,16.11,20.72,25.33,30.05c10.99,11.13,22.26,21.99,33.18,33.19
				c3.34,3.43,5.95,7.57,8.83,11.43c1.56,2.08,0.73,4.58,0.7,6.82c-0.06,4.9,1.48,9.1,4.34,12.95c0.59,0.8,1.18,1.64,1.54,2.56
				c0.45,1.15,1.53,2.67-0.07,3.51c-1.29,0.68-1.83-0.95-2.62-1.75c-4.15-4.19-5.94-10.29-11.1-13.64c-0.93-0.6-0.83-1.42-0.23-2.1
				c4.71-5.4,1.33-10.62-2.13-13.71c-5.69-5.07-8.98-11.91-14.55-16.93c-11.63-10.47-22.42-21.79-33.25-33.07
				c-3.37-3.52-6.13-7.45-8.79-11.49c-8.17-12.43-17.46-23.92-28.52-33.93c-1.03-0.93-1.96-2.72-3.71-1.57
				c-1.36,0.89-1.5,2.68-1.31,4.1c0.28,2.12,0.78,4.28,1.62,6.24c2.56,6,1.43,9.83-4.18,13.21c-5.63,3.4-5.66,3.42-2.27,9.04
				c2.13,3.52,1.92,6.97-0.23,10.35c-2.92,4.61-6.27,8.9-8.36,14.09c-1.24,3.08-1.43,6.32-2.66,9.44
				c-2.43,6.17-9.67,9.11-9.76,16.73c-3.06-3.64-2.36-3.63-0.56-6.72c5.47-9.39,13.44-17.91,11.97-30.1
				c-0.12-1.02-0.49-3.08,1.22-2.45c4.07,1.5,5.15-1.37,6.16-3.88c1.21-2.98,0.56-5.87-1.88-8.23c-0.82-0.8-1.51-1.77-2.09-2.77
				c-0.91-1.56-0.5-3.04,1.06-3.83c3.55-1.8,7.96-3.11,8.75-7.45c0.93-5.15-0.69-10.46-2.76-15.04c-2.98-6.61-6.26-13.1-9.21-19.75
				c-0.87-1.95-1.96-5.76-4.85-4.72c-2.79,1-4.98,3.85-4.57,7.54l0.13-0.13c-8.72-1.16-17.49-1.59-26.28-1.63
				c-0.26-2.14-0.3-4.26,0.28-6.37l-0.13,0.14c6.13,4.4,13.71,1.43,20.25,3.96c0.83,0.32,2.26-0.44,3.23-1.01
				c5.62-3.34,8.11-14.06,3.52-18.55c-4.81-4.71-7.15-10.45-9.98-16.2c-4.66-9.45-9.71-11.17-19.8-7.55
				c-0.96,0.34-2.54,0.85-2.6-0.12c-0.32-5.08-3.71-2.46-5.82-2.35c-2.53,0.13-4.97-0.02-7.43-0.52
				c-6.85-1.39-13.85-1.68-20.75-2.67c-7.21-1.03-14.73,0.41-21.66-2.75c-1.98-0.91-4.6-2.19-5.55,0.64
				c-1.1,3.28,2.08,3.32,4.26,3.99c9.41,2.88,19.14,2.24,28.76,2.64c4.42,0.18,7.97,2.04,11.96,4.02c-1.81,0.99-3.26,1.23-4.79,1.14
				c-10.31-0.56-20.39-2.7-30.56-4.23c-4.58-0.69-9.18-1.2-13.76-1.98c-1.83-0.31-4.62-0.67-5.03,1.81
				c-0.34,2.07,2.39,2.36,3.94,3.11c1.73,0.83,4.32,0.12,5.3,2.91c-3.77,1.35-6.23-1.57-9.23-2.11c-2.76-0.5-4.47-0.57-6.49,1.78
				c-2.25,2.6-0.05,3.92,1.16,5.61c-0.73,0.24-1.05,0.46-1.34,0.42c-0.65-0.09-1.34-0.19-1.9-0.5c-5.03-2.73-9.99-5.13-15.98-2.55
				c-1.89,0.81-4.16-0.02-6.3-0.71c-7.22-2.34-14.05-6.13-21.89-6.2c-2.12-0.02-3.87-0.65-5.51-1.94
				c-5.75-4.54-12.84-6.83-18.73-11.21c-3.46-2.57-4.85-1.57-5.09,2.73c-0.14,2.46,0.55,5.3-1.11,7.26c-3.1,3.65-1.41,6.1,1.55,8.33
				c8.11,6.1,16.18,12.28,25.24,16.99c4.31,2.24,8.75,4.03,13.58,4.74c1.31,0.19,2.84,0.62,3.62-0.8c0.95-1.72-0.77-2.19-1.78-2.96
				c-2.51-1.92-5.01-3.85-7.46-5.84c-6.56-5.32-12.71-11.03-17.33-18.2c8.99,7.69,18.2,15.06,27.6,22.18
				c11.93,9.04,25.02,15.59,39.71,19.06c12.56,2.97,25.22-0.32,37.76,1.33c1.11,0.15,2.57,0.18,2.86-1.3
				c0.26-1.3-0.85-2.08-1.87-2.69c-1.97-1.19-4.19-0.99-6.34-0.94c-5.56,0.14-11.02-0.5-16.15-2.64
				c-13.77-5.74-27.27-12.09-41.48-16.8c-3.45-1.15-7.48-2.43-9.98-6.19c2.9-0.7,4.29,1.5,6.14,2.32
				c9.26,4.14,19.23,6.12,28.62,9.83c8.63,3.41,16.99,7.65,26.19,9.45c3.71,0.73,7.53,1.4,11.28,1.31c3.02-0.07,1.99-4.27,4.29-5.63
				c1.37-0.81,1.82-2.4,1.22-3.98c-0.68-1.78-2.3-1.57-3.81-1.63c-9.99-0.43-19.6-3.26-29.41-4.87c-2.72-0.45-5.23-2.18-8.66-3.68
				c4.5-2.08,6.65,1.45,9.61,1.91c5.69,0.87,11.26,2.43,17.04,3.06c7.57,0.82,15.19,2.85,21.92-2.79c0.31-0.26,1.16,0.11,2.34,0.26
				c-2.36,3.56-4.36,6.77-6.54,9.85c-2.46,3.48-4.17,6.88-0.85,10.83c1,1.19,0.82,2.79,0.91,4.3c0.22,3.75-1.97,7.26-1.82,10.66
				c0.67,14.81-4.1,29.07-3.63,43.9c0.33,10.34-3.39,20.47-2.5,31.09c0.68,8.11,3.1,11.51,11.42,11.7
				c4.66,0.11,9.47-0.51,13.84,1.36c4.44,1.9,8.91,2.38,13.63,2.3c4.95-0.08,5.85-0.98,4.71-5.99c-2.51-11.02-6.09-21.77-7.77-33
				c-0.79-5.28-0.18-10.96-1.7-15.79c-3.15-10.02-3.89-20.52-7.31-30.45c-2.09-6.09-3.06-12.57-4.53-18.87
				c-0.26-1.1-0.87-2.39,0.45-3.15c1.28-0.74,2.23,0.26,2.98,1.13c0.86,1,2.04,2.07,2.21,3.24c0.51,3.46,2.98,5.59,4.83,8.88
				c0.95-2.59,1.26-5.08,4.27-4.61c3.69,17.85,2.48,36.09,2.97,54.07c0.31,11.55,5.3,21.93,4.93,33.28
				c-0.04,1.2,0.99,2.42,1.44,3.67c2.11,5.82,0.73,8.13-4.32,11.18c-3.87,2.33-7.17,5.78-10.29,9.13c-1.52,1.63-2.55,2.56-4.47,1.14
				c-1.4-1.02-3.01-1.32-4.62-1.76c-3.01-0.81-3.61-2.6-1.84-5.23c1.02-1.52,3.88-2.47,2.32-4.87c-1.62-2.5-4.55-2.57-7.23-2.44
				c-2.79,0.14-4.69,1.88-5.45,4.43c-0.72,2.43-1,5.64,1.39,6.89c4.68,2.45,7.79,6.64,11.92,9.68c5.7,4.2,10.66,5.71,16.49-0.73
				c-2.2,8.3-1.52,9.43,4.97,14.06c4.74,3.38,9.09,7.31,12.45,12.34c-5.11-3.5-10.3-6.87-15.29-10.53
				c-8.54-6.26-19.07-9.28-26.92-16.68c-2.05-1.93-3.79-0.28-4.76,1.63c-4.44,8.74-8.69,17.57-11.53,26.98
				c-1.4,4.64-0.79,9.34,1.03,13.72c2.89,6.93,2.6,13.79-0.44,20.37c-5.5,11.93-7.26,24.79-9.95,37.42
				c-1.78,8.31-6.43,13.01-14.81,14.2c-2.3,0.33-3.31,0.97-3.92,3.45c-2.84,11.45-3.28,23.81-12.11,33.11
				c-2.38,2.51-1.31,6.21-2.76,9.35c-2.16,4.66-4.29,9.65-4.4,15.14c-0.22,12.05-2.93,23.36-10.43,33.18
				c-2.98,3.9-2.84,9.08-5.23,13.38c-3.95,7.1-6.59,14.87-11,21.81c-5.18,8.15-8.89,16.94-9.75,26.76c-0.2,2.29-1.13,4.51-1.67,6.78
				c-1.37,5.74,0.39,8.06,6.32,8.48c10.29,0.74,20.63,0.69,30.83,2.61c2.23,0.42,4.51,0.92,5.31,3.16c1.37,3.83,4.22,4.16,7.59,4.06
				c14.31-0.43,28.56-0.69,42.73,2.55c7.65,1.75,15.6,0.45,23.31-1.06c8.33-1.64,16.64-0.96,24.88,0.22
				c9.1,1.3,18.22,1.67,27.37,1.82c1.49,0.03,3.23,0.4,4.06-1.18c0.93-1.74-0.75-2.76-1.72-3.76c-7.84-8.07-11.17-18.66-16.02-28.41
				c-5.56-11.18-11.49-22.14-20.66-30.94c-7.01-6.73-5.8-20.4,0.17-24.67c4.49-3.22,9.06-6.55,14.43-8.43
				c6.16-2.16,10.52-5.9,11.91-12.73c0.67-3.28,2.9-6.04,5.47-8.2c7.34-6.17,9.71-14.61,10.03-23.51c0.22-5.96,1.39-11.51,3.37-17
				c0.66-1.82,2.31-3.86-1.63-3.89c-1.51-0.01-1.47-1.7-1.46-2.78c0.04-5.96,0.18-11.91,0.32-17.87c0.01-0.45,0.32-1.25,0.55-1.27
				c7.2-0.65,1.44-2.73,0.71-4.65c-0.9-2.37-0.15-5.11,1.04-7.2c1.11-1.94,2.06-0.14,2.69,1c0.62,1.11,1.59,2.28,2.62,0.95
				c1.61-2.07,3.14-4.42,2.06-7.33c-0.8-2.14-1.85-1.3-2.9-0.18c-0.49,0.53-1.18,0.89-1.65,0.23c-0.32-0.45-0.39-1.3-0.21-1.86
				c1.28-3.9,4.53-6.43,7.05-9.41c1.19-1.41,3.11-0.46,3.68,1.65c0.37,1.37,0.99,2.58,2.68,2.38c1.17-0.14,1.52-1.19,1.75-2.17
				c0.37-1.56,0.42-3.19-1.46-3.71c-3.89-1.06-2.92-2.42-1.21-5.19c2.47-4,5.88-7.22,8.31-11.18c2.69-4.37,2.32-5.07-2.56-6.55
				c-2.71-0.82-5.25-2.28-8.04-0.42L1088.68,804.42z M1035,575.01c-0.01,1.33-0.14,2.67-0.01,3.99c0.22,2.24,1.68,4.07,3.73,4.07
				c2.81,0.01,1.82-2.79,1.86-4.3c0.09-4-2.34-4.7-5.7-3.62c0.52-1.69,1.93-3.76,0.67-5.07c-1.7-1.77-2.91,1.26-4.64,1.43
				c-0.9,0.09-1.9,0.65-2.55,1.3c-0.89,0.88-2.74,1.51-2.34,2.87c0.61,2.07,2.53,0.56,3.85,0.74
				C1031.73,576.68,1033.39,575.87,1035,575.01z M926.02,860.13c8.05,0.13,14.05-0.02,19.84-1.87c4.58-1.46,7.57-5.79,12.42-6.89
				c8.84-2.01,12.08-8.4,13.09-16.71c1.02-8.45,2.8-16.78,6.53-24.5c3.62-7.52,4.01-15.17,2.38-23.24
				c-1.04-5.14-4.24-8.89-6.91-13.05c-1.3-2.02-3.49-5.08-1.26-6.3c2.21-1.2,1.28-1.92,1.15-3.16c-0.56-5.15-1.86-10.13-3.37-15.07
				c-0.29-0.94-0.47-2.23,0.66-2.59c1.29-0.41,1.47,0.93,1.84,1.82c2.29,5.57,3.09,11.5,4.29,17.33c0.22,1.06-0.58,2.53,0.99,2.97
				c1.7,0.48,2.24-0.99,2.84-2.18c2.72-5.41,3.86-11.28,4.83-17.16c1-6.06-0.34-12.24,0.72-18.34c0.32-1.83-0.39-3.96,2.84-2.67
				c1.71,0.68,3.04-0.36,3.15-2.14c0.13-1.91-1.31-2.32-2.99-2.52c-5.65-0.69-7.08-3.26-7.65-8.77c-0.73-6.99,0.71-14.29-2.93-20.99
				c-1.14-2.09-1.93-5.35,2.23-6.23c1.87-0.4,1.77-2.12,2.13-3.56c0.97-3.98,0.15-7.97,0.14-11.95c-0.03-9.05,2.8-17.73,3.18-26.72
				c0.41-9.63,0.45-9.63-8.72-11.58c-0.65-0.14-1.28-0.38-1.89-0.65c-8.71-3.91-18.32-4.38-27.39-7.01
				c-7.19-2.09-14.47-3.67-21.29-6.92c-6.73-3.2-13.23-6.96-21.08-7.07c-10.37-0.15-19.14-4.85-27.74-10.14
				c-5.28-3.25-9.75-7.52-14.89-10.91c-1.86-1.23-3.18-1.67-4.24,0.88c-4.93,11.79-9.66,23.66-15.18,35.21
				c-4.8,10.03-2.14,20.92-2.13,31.5c0.01,8.22,5.15,16.48-0.08,24.69c-0.23,0.36,0.23,1.26,0.53,1.83c1.3,2.45,1.26,5.14,1.51,7.78
				c0.37,3.91-0.22,7.9,2.32,11.52c1.08,1.53,1.32,4.29-2.29,3.54c-1.56-0.32-2.1,0.4-2.49,1.66c-1.58,5.04-3.25,9.94,0.14,15.09
				c1.41,2.14,1.75,4.99,2.5,7.53c0.33,1.13,0.46,2.74,1.7,2.81c4.29,0.24,3.38,3.38,3.42,5.85c0.22,13.31,0.35,26.66,2.63,39.78
				c2.84,16.34,7.42,32.48,3.43,49.27c-0.11,0.48-0.07,0.99-0.1,1.49c-0.12,2.39,0.6,3.8,3.2,4.77c5.91,2.21,12.05,4.3,17.29,7.69
				C891.43,854.71,909.4,858.44,926.02,860.13z M811.11,518.41c1.28,1.19,0.94,2.46,0.62,3.47c-1.46,4.52,2.9,6.06,4.76,8.59
				c1.34,1.82,1.98-1.73,3.31-2.4c1.45-0.74,2.09,0.51,3.05,1.03c2.2,1.17,3.26,4.81,6.94,2.99c0.79-0.39,1.45,1.16,1.36,2.23
				c-0.13,1.61,0.34,2.97,1.53,4.05c2.56,2.32,3.02,4.35-0.65,6.02c-2.28,1.04-2.05,2.4-0.23,3.68c3.53,2.47,6.89,5.19,11.63,5.21
				c4.48,0.02,8.72,0.55,11.75,4.86c1.27,1.82,3.91,3.18,6.18,3.7c7.92,1.83,13.92,6.89,20.32,11.31c1.35,0.93,2.67,2.55,4.41,1.55
				c2.56-1.47,4,0.07,5.7,1.43c1.84,1.48,3.9,2.58,6.33,2.74c4.72,0.32,9.08,1.99,13.48,3.51c9.8,3.39,15.45,0.13,19.52-9.66
				c1.18-2.85,1.05-6.11,3.08-8.64c2.23-2.78,3.06-6-0.48-8.18c-3.66-2.25-6.4,0.16-8.26,3.14c-4.39,7-9.4,8.67-16.21,4.64
				c-3.6-2.13-7.46-2.53-11.4-3.08c-1.55-0.22-3.04-1.05-2.59-2.97c0.41-1.72,1.89-1.77,3.21-1.09c1.72,0.89,3.17,0.01,4.79-0.26
				c4.27-0.72,8.25-3.2,13.01-1.22c2.65,1.1,6.3-2.61,5.93-5.69c-0.37-3.06-1.93-5.39-5.66-4.71c-2.57,0.47-4.98-0.03-7.28-1.14
				c-4.81-2.32-9.85-3.91-14.93-5.52c-3.99-1.26-6.58-0.73-9.22,2.35c-1.2,1.4-2.56,4.25-4.54,3.25c-3.48-1.74-7.82-1.46-10.37-5.98
				c-1.72-3.05-4.41-8.33-10.47-5.02c-1.79,0.98-2.93-1.27-2.86-3.03c0.1-2.43-0.9-4.18-2.66-5.61
				c-10.57-8.53-18.88-19.11-26.88-29.92c-4.66-6.3-9.12-12.65-16.37-16.38c-3.08-1.58-7.79-3.27-8.37-5.72
				c-1.14-4.81-3.78-5-7.38-5.05c-0.26,1.49,2.05,3.5-0.15,4.41c-4.06,1.67-6-3.21-10.91-3.17c5.13-3.34,9.27-5.06,13.82-6.38
				c4.29-1.24,4.4,0.62,3.54,4.69c3-2.72,5.11-2.74,7.31-0.58c1.23,1.21,0.86,1.95-0.08,2.87c-0.92,0.91-1.43,1.91-0.48,3.06
				c0.7,0.84,1.66,1.11,2.7,0.7c1.27-0.5,1.81-1.63,1.55-2.83c-0.4-1.8,0.52-3.13,0.99-4.69c0.94-3.12,0.73-5.75-2.44-8.26
				c-5.05-4-10.59-6.83-16.45-9.23c-9.09-3.72-18.25-5.95-28.14-2.75c-3.69,1.19-5.76,3.79-5.44,6.78
				c0.47,4.42-1.55,7.37-3.83,10.37c-3.06,4.02-5.21,8.54-7.3,13.03c-2.07,4.44-1.89,9.12,1.43,13.17c3.77,4.6,8.45,7.96,14.3,9.29
				c3.17,0.72,4.42,2.65,4.72,5.58c0.18,1.74-0.43,3.9,2.06,4.52c2.53,0.62,2.23-2.49,4.3-3.37c-0.32,3.39,3.1,4.13,4.1,6.62
				c0.33,0.83,1.05,1.4,1.96,0.77c0.74-0.52,0.93-1.4,0.57-2.23c-1.1-2.6-2.11-5.25-3.42-7.75c-1.05-2-1.73-4.12,0.69-5.05
				c2.22-0.86,2.36,1.74,2.99,3.13c1.48,3.29,1.57,7.22,4.78,9.7c1.2,0.92,2.21,2.17,3.9,1.78c2.04-0.48,1.61-2.16,1.59-3.65
				c-0.02-1.49,0.44-2.79,2.26-2.44c1.56,0.3,2.08,1.6,1.89,3.06c-0.11,0.79-0.46,1.59-0.86,2.3c-0.87,1.54-1.57,3.32-0.03,4.54
				c1.59,1.25,1.55-2.56,3.44-1.58c1.23,2.02,0.46,4.79,2.13,6.82c1.61-1.27,0.83-2.76,1.2-3.97c0.29-0.95,0.41-2.31,1.55-2.28
				c1.66,0.05,1.29,1.59,1.29,2.69c0,2.05-0.7,4.25,1.2,5.9C809.73,521.53,808.88,518.99,811.11,518.41z M1093.07,1057.46
				c-3.11-3.8-6.63-5.05-9.84-6.3c-7.5-2.9-14.57-8.83-23.49-4.2c-0.77,0.4-2.06,0.26-2.93-0.08c-6.68-2.61-13.82-2.15-20.71-2.71
				c-8.34-0.68-16.71-1.68-25.27,0.43c-6.65,1.64-13.86,2.67-20.81,1.06c-14.09-3.25-28.36-3.47-42.67-2.99
				c-3.93,0.13-7.17-0.8-9.72-3.93c-2.07-2.54-4.69-4.02-8.12-4.3c-9.12-0.74-18.31-0.58-27.37-2.11c-2.31-0.39-4.19,0.67-3.14,2.86
				c2.45,5.13,5,10.13,10.22,13.51c7.02,4.54,14.86,8.27,19.13,16.19c2.36,4.38,4.98,8.62,7.55,12.88c1.49,2.47,3.05,4.72,6.64,4.1
				c8.7-1.51,17.31-3.4,25.83-5.74c1.64-0.45,3.03-1.4,4.03-2.81c2.5-3.52,6.06-4.2,10.1-4.23c5.14-0.05,10.38,0.41,15.41-0.85
				c12.4-3.12,24.65-6.89,37.13-9.62c6.22-1.36,12.78-3.4,19.2-1.63C1066.91,1060.49,1079.45,1056.46,1093.07,1057.46z
				 M876.65,885.61c3.25,0.72,5.22,2.77,6.44,5.24c2.74,5.53,7.57,8.72,12.48,11.86c1.12,0.71,2.64,0.94,2.55,2.63
				c-0.14,2.56,1.81,3.41,3.5,4.37c10.32,5.9,24.23,0.55,30.7-6.47c9.61-10.44,13.53-23.34,18.03-36.11
				c0.63-1.77,0.64-3.77-0.72-5.19c-1.41-1.48-3.12-0.62-4.6,0.18c-3.07,1.66-6.48,1.34-9.76,1.72c-1.81,0.21-3.84,0.01-4.91,1.87
				c-1.96,3.4-5.2,3.68-8.6,4.03c-2.23,0.23-5.46-0.53-6.35,1.86c-1.11,2.95-3.2,3.45-5.56,4.18c-1.07,0.33-2.69,0.46-2.55,1.91
				c0.18,1.77,1.98,1.44,3.22,1.56c3.47,0.33,7.01,0.14,10.3,1.67c-6.39,1.29-12.71,1.89-18.81-1.23c-1-0.51-2.13-1.4-3.26-0.62
				c-1.53,1.06-0.01,2,0.37,2.95c0.43,1.09,0.44,1.93-0.96,2.21c-3.27,0.67-12.4-7.39-11.82-10.67c0.26-1.47,0.5-2.64-0.87-3.45
				c-0.93-0.55-1.56,0.28-1.97,0.97c-0.72,1.21-2.5,2.6-1.02,3.92c4.31,3.86,6.47,9.65,12,12.47c3.12,1.59,5.7,4.23,8.52,6.39
				c-4.71,0.88-6.67-4.55-10.87-4.38c-1.32,2.21,1.89,3.03,1.26,5.4c-5.28-2.39-8.65-6.52-11.94-10.49c0.33-2.12,3.24,0.9,2.67-1.51
				c-0.52-2.19-1.94-4.31-4.05-5.51c-1.23-0.71-1.64,0.68-2.08,1.47c-1.86,3.35-3.69,6.7-5.46,10.1c-0.6,1.15-2.91,2.16-0.99,3.66
				c1.61,1.26,3.08-0.41,4.46-1.2C878.47,889.99,876.26,887.84,876.65,885.61z M1052.23,984.72c-6.38,1.77-7.84,3.91-5.13,7.95
				c1.84,2.74,4.65,4.72,5.02,8.49c0.19,1.92,3.82,2.31,3.65,4.41c-0.47,5.63,2.23,8.9,6.88,11.31c1.18,0.61,1.87,2.18,1.25,3.51
				c-2.24,4.83,0.63,5.71,4.45,6.36c3.32,0.57,5.77,2.58,6.47,6.02c0.47,2.3,1.71,3.5,3.88,3.96c1.69,0.36,3.2,1.01,3.95,2.72
				c1.02,2.33,3,2.65,5.26,3.07c2.85,0.53,6.44,1.07,4.2,5.66c-0.46,0.93,0.01,1.64,0.86,1.99c3.72,1.53,7.51,2.84,11.63,2
				c1.34-0.27,2.56-1.11,3-2.42c0.58-1.73-1.18-2.09-2.09-2.95c-5.09-4.86-11.32-8.39-17.26-11.63
				c-15.97-8.7-22.56-24.07-30.47-38.71c-0.53-0.97-0.52-1.95,0.41-2.68c0.91-0.71,1.84-0.66,2.65,0.23
				c0.98,1.09,2.41,1.81,2.63,3.51c0.23,1.78,0.93,3.68,3.09,2.65c1.91-0.92,2.07-3.21,0.87-4.78c-2.37-3.08-3.4-6.79-5.25-10.1
				c-0.5-0.89-0.84-1.9-2.1-1.71c-1.14,0.17-1.6,1.13-1.89,2.1c-0.44,1.49,0.28,3.83-3.76,3.6c2.78-2.42,1.58-4.05,0.64-6.33
				c-1.52-3.7-6.11-6.11-6.01-9.4c0.17-5.58-3.58-7.89-6.45-10.94c-4.69-4.98-7.33-4.65-10.61,1.05c-1.58,2.75-1.34,6.02,0.78,8.33
				c1.94,2.12,4.36,0.89,6.18-0.82c2.95-2.78,5.14-2.58,7.16,1.15C1048.3,976.35,1050.19,980.55,1052.23,984.72z M1054.01,948.34
				c1.07,1.8,1.83,3.4,2.89,4.78c1.44,1.87,4.12,3.26,0.33,5.71c-1.39,0.9,0.42,2.23,1.5,2.07c7.03-1.07,9.15,4.59,11.11,8.98
				c5.13,11.49,12.01,22,17.75,33.13c1.6,3.09,4.61,4.69,7.7,6.04c0.88,0.39,1.85,1.09,2.69,0.02c0.72-0.9,0.39-1.96-0.1-2.82
				c-1.64-2.91-3.43-5.73-6.27-7.65c-2.5-1.69-4.51-3.29-0.98-6.04c1.33-1.04,0.61-2.51-0.81-2.33c-6,0.73-7.47-3.87-9.51-7.75
				c-5.81-11.04-11.88-21.89-20.24-31.26C1058.58,949.54,1057.24,947.52,1054.01,948.34z M1090.95,1027.84
				c-4.63-1.34-5.46-6.15-8.77-8.15c-5.92-3.57-9.49-8.91-12.25-14.96c-0.8-1.75-1.58-3.74-3.88-2.38
				c-1.77,1.04-1.17,2.62-0.13,4.27c6.75,10.73,14.62,20.27,25.99,26.5c2.28,1.25,4.68,2.91,6.1,5.01
				c2.74,4.08,7.17,5.21,10.99,7.42c0.96,0.55,2.35,1.19,3.12-0.1c0.64-1.07,0.03-2.59-0.87-3.14c-4.27-2.57-6.32-7.66-11.05-9.64
				c-3.19-1.33-5.69-2.87-5.66-7.08c0.01-1.82-2.48-4-4.21-3.25c-2.63,1.14,0.05,2.94,0.51,4.46
				C1090.86,1026.95,1090.86,1027.12,1090.95,1027.84z M858.58,1033.91c4.05,9.75,11.47,14.98,16.89,21.65
				c2.54,3.12,4.56,6.9,8.13,9.3c2.19,1.47,4.01,1.78,5.65-0.29c1.76-2.21,0.23-3.81-1.59-4.87c-8.24-4.82-12.9-13.31-19.95-19.34
				c-1.45-1.24-2.49-2.61,0.41-3.44c0.79-0.23,1.76-0.57,1.32-1.64c-0.46-1.11-1.86-1.42-2.51-0.81
				C864.62,1036.62,862.35,1035.44,858.58,1033.91z M871.75,996.56c4.37,5.62,10.61,6.87,16.34,9.04c1.44,0.54,4.37-0.29,3.37,2.74
				c-0.7,2.12-1.82,4.02-5.18,2.97c-4.88-1.52-9.88-2.59-14.2-5.51c-1.26-0.85-2.62-1.05-3.41,0.46c-0.8,1.53,0.79,1.81,1.66,2.5
				c4.52,3.63,10.09,5.1,15.37,6.89c3.06,1.04,7.1,0.99,8.36-3.82c1.3-4.95-0.45-10.88-4.21-10.98
				C883.58,1000.69,878.51,996.57,871.75,996.56z M1134.92,851.13c2.58,1.9,4.11,3.19,5.81,4.22c1.35,0.81,3.04,1.31,3.31-1.1
				c0.28-2.53-7.95-9.19-9.97-7.88c-2.41,1.57-3.47,0.15-5.17-0.91c-5.76-3.59-11.65-6.98-17.5-10.45c-0.24,1.41,0.04,2.03,0.5,2.44
				c9.14,8.1,20.42,13.82,27.21,24.57c0.82,1.3,2.61,1.83,3.9,0.44c1.39-1.49,0.16-2.69-0.89-3.84
				C1140.01,856.32,1136.9,855.05,1134.92,851.13z M1120.61,829.11c-0.38,0.3-1.14,0.6-1.26,1.07c-0.13,0.48,0.21,1.3,0.62,1.66
				c2.23,1.93,4.12,4.11,6.85,5.62c6.55,3.63,13.87,6.35,18.02,13.34c0.78,1.32,2.18,3.24,3.92,1.62c1.65-1.53,0.46-3.58-0.83-4.83
				c-4.71-4.54-8.42-10.21-14.99-12.66C1128.78,833.37,1124.88,831.15,1120.61,829.11z M863.01,918.31
				c-5.71-0.31,0.66,5.02-2.59,5.92c0.4,1.39,0.45,3.04,2.32,3.43c0.71,0.15,1.49-0.1,1.61-0.8c1.25-7.55,4.28-2.12,6.25-0.7
				c5.8,4.21,11.95,7.73,18.56,10.45c1.31,0.54,3.26,1.38,4.02-0.27c0.9-1.95-1.4-2.29-2.56-2.93c-7.9-4.36-16.41-7.68-23.3-13.77
				C866.13,918.58,864.69,918.27,863.01,918.31z M888.2,1034.54c-1.62,0.28-3.72-1.46-4.39,0.99c-0.3,1.11,1.25,1.19,2.27,1.17
				c1.69-0.03,4.04,0,3.68,2.1c-0.37,2.16-2.72,0.93-4.24,0.82c-3.16-0.23-6.14-1.09-9.04-2.37c-0.82-0.36-2.05-0.42-2.57,0.77
				c-0.34,0.77,0.28,1.25,0.88,1.53c6.52,3.06,13.09,5.99,20.21,7.43c2.23,0.45,3.64-0.25,3.85-2.59c0.2-2.25-0.66-3.51-3.21-3.08
				c-1.29,0.22-3.39,0.26-2.57-1.67C895.78,1033.29,890.85,1035.12,888.2,1034.54z M897.96,947.19c1.91,0.1,3.37-0.22,3.45-2.22
				c0.07-1.8-1.12-2.77-2.78-2.91c-2.16-0.19-4.14-0.82-6.21-1.49c-6.35-2.06-12.19-5.23-18.25-7.89c-1.15-0.5-2.66-1.43-3.41,0.32
				c-0.62,1.45,0.92,1.82,1.91,2.38c4.89,2.8,9.69,5.77,14.65,8.43C890.7,945.61,894.43,946.58,897.96,947.19z M1107.43,916.77
				c-0.74-2.84-2.99-4.59-5.8-5.9c-4.88-2.27-10.41-3.21-14.23-7.66c-1.54-1.79-4.33-1.77-5.71,0.13c-1.65,2.27,1.17,2.89,2.46,3.9
				c0.77,0.6,1.67,1.13,2.59,1.44c5.91,1.98,11.9,3.74,15.52,9.51c0.7,1.12,2.05,1.76,3.51,1.21
				C1106.77,919.02,1107.36,918.24,1107.43,916.77z M1114.1,872.48c2.6,2.63,5.09,5.37,7.82,7.85c1.86,1.68,3.72,2.87,1.05,5.48
				c-1.25,1.22-0.78,3.12,1.11,3.44c1.99,0.33,3.27-1.42,4.43-2.8c1.05-1.25,2.52-2.91,1.25-4.45
				C1125.8,877.19,1121.86,872.17,1114.1,872.48z M1112.97,843.19c1.41,3.12,3.05,4.46,5.1,5.75c3.18,2.01,7.07,3.67,8.7,7.18
				c1.98,4.25,5.57,6.9,8.43,10.26c0.81,0.95,1.84,2.41,3.26,1.28c1.28-1.02,0.57-2.62-0.24-3.59
				C1131.31,855.87,1123.89,848.24,1112.97,843.19z M889.75,1051.39c-1.39-0.1-2.92-0.32-3.32,1.38c-0.38,1.64,0.87,2.45,2.26,2.7
				c2.45,0.44,5.03,0.52,5.65,3.74c0.05,0.24,1.02,0.61,1.22,0.45c2.77-2.07,6.18-0.81,9.14-1.82c1.39-0.47,2.34-1.34,2.16-2.91
				c-0.19-1.73-1.5-2.05-2.93-1.91C899.08,1053.52,894.33,1053.09,889.75,1051.39z M1086.48,859.65c0.21,3.39,1.78,4.94,3.26,6.72
				c5.28,6.35,14.17,6.18,20.09,11.33c0.6,0.52,1.63,0.65,2.27-0.12c0.81-0.99,0.24-2.03-0.5-2.63c-2.19-1.79-4.71-3.02-7.23-4.32
				C1098.37,867.56,1091.15,866.53,1086.48,859.65z M903.2,968.95c1.41-0.09,3.71-0.14,6.01,0.38c1.07,0.24,2-0.32,2.17-1.5
				c0.18-1.19-0.58-1.98-1.66-2.04c-5.43-0.31-10.92,0.33-16.28-1.09c-0.24-0.06-0.77,0.18-0.84,0.39
				c-1.81,5.07-4.25,3.06-6.87,0.72c-0.71-0.64-1.87-1.01-2.68-0.11c-0.32,0.35-0.37,1.46-0.08,1.76c2.1,2.12,4.97,5.13,7.52,3.22
				C894.47,967.71,898.31,968.99,903.2,968.95z M1018.23,661.24c2.53-1.98,2.42-4.37,2.07-6.34c-1.03-5.81-2.38-11.58-4.63-17.07
				c-0.48-1.18-0.7-3.58-2.65-2.71c-1.71,0.76-1.42,3.01-0.64,4.48c1.93,3.63,2.34,7.59,3.16,11.5
				C1016.24,654.42,1017.27,657.67,1018.23,661.24z M968.12,627.91c5.69,1.91,10.83,3.76,16.45,3.61c1.64-0.04,2.84-0.9,3.06-2.66
				c0.17-1.35-0.52-2.35-1.81-2.52C980.08,625.58,974.26,623.92,968.12,627.91z M870.14,947.01c0.37,1.61,1.54,2.52,2.84,3.27
				c3.71,2.13,7.52,4.12,11.14,6.4c1.72,1.09,3.09,1.32,4.17-0.47c1.17-1.93-0.12-3.18-1.71-3.93c-4.62-2.16-9.29-4.2-13.95-6.27
				C871.51,945.51,870.36,945.17,870.14,947.01z M1136.69,871.99c-0.08-0.46-0.02-0.9-0.21-1.09c-3.42-3.51-6.84-7.02-10.36-10.43
				c-0.53-0.51-1.64-0.45-2.29,0.21c-1.03,1.05-0.63,2.32,0.14,3.14c2.92,3.14,5.87,6.27,9.04,9.15
				C1134.32,874.18,1136.08,874.32,1136.69,871.99z M885.3,972.58c-0.22-0.35-0.37-0.89-0.72-1.11c-5.73-3.53-11.49-7.01-17.24-10.5
				c-0.8-0.48-1.7-0.49-2.23,0.26c-0.74,1.03-0.05,1.81,0.77,2.51c4.95,4.19,11.02,6.51,16.46,9.89
				C883.35,974.25,884.62,974.09,885.3,972.58z M882.72,1026.12c-2.56,0-3.89-0.03-5.22,0.01c-0.89,0.02-1.73,0.4-1.92,1.28
				c-0.2,0.9,0.41,1.63,1.29,1.87c3.68,1.02,7.36,2.04,11.07,2.94c1.19,0.29,2.37-0.14,2.92-1.38c0.61-1.37-0.36-2.16-1.29-2.89
				C887.15,1026.07,884.37,1025.9,882.72,1026.12z M868.13,970.11c2.85,5.33,8.2,6.93,13,9.28c1.06,0.52,2.44,0.44,3.03-0.8
				c0.7-1.46-0.79-1.95-1.62-2.62C878.34,972.61,872.95,972.09,868.13,970.11z M1142.93,824.18c-1.5-6.83-6.51-6.82-10.41-8.28
				c-1.39-0.52-3.11-1.16-3.92,0.67c-0.82,1.84,1.02,2.47,2.11,3.42C1134.08,822.94,1138.83,820.48,1142.93,824.18z M1108.62,886.28
				c-1.18-3.58-12.29-8.98-15.3-7.71c-0.85,0.36-1.44,0.91-1.33,1.84c0.13,1.09,0.95,1.96,1.92,2.03
				C1098.99,882.81,1103.51,885.37,1108.62,886.28z M908.2,927.3c-6.26-3.66-13.62-4.24-19.95-7.69
				C892.85,927.85,901.18,925.75,908.2,927.3z M880.11,961.54c1.55,0,3.1,0.05,3.96-1.52c0.37-0.67,0.03-1.47-0.6-1.67
				c-3.86-1.18-6.92-3.86-10.54-5.48c-0.93-0.42-2.04-0.3-2.73,0.59c-0.57,0.73-0.5,1.87,0.2,2.24
				C873.76,957.46,876.21,960.75,880.11,961.54z M866.44,973.94c-0.42,0.23-1.14,0.43-1.17,0.68c-0.05,0.58,0.1,1.3,0.44,1.75
				c3.3,4.35,7.96,6.64,12.98,8.29c1.05,0.35,2.52,0.53,2.93-0.93c0.43-1.55-0.96-1.88-2.09-2.12c-3.64-0.78-6.37-3.38-9.67-4.85
				C868.59,976.19,867.62,974.94,866.44,973.94z M901.35,1069.52c1.27-0.88,3.88,1.14,4.06-1c0.15-1.72-2.24-2.52-4.17-2.84
				c-2.61-0.43-5.15-1.43-7.87-0.93c-1.04,0.19-1.99,0.6-2.11,1.77c-0.15,1.44,0.79,2.13,2.09,2.27
				C896,1069.06,898.65,1069.27,901.35,1069.52z M892.3,862.1c2.69,4.17,5.58,6.8,8.95,8.89c0.82,0.51,3.16,1.05,2.75-0.18
				c-0.78-2.34-0.45-6-3.42-6.7C898.2,863.55,895.88,862.64,892.3,862.1z M917.05,281.09c-0.7,3.91,3.02,3.48,4.63,5.02
				c1.04,0.99,2.55,1.31,3.42-0.14c0.96-1.6,0.13-3.09-1.51-3.5c-3.76-0.93-5.16-2.72-3.1-6.39c0.51-0.91,0.69-2.04-0.77-2.25
				c-1.08-0.16-2.03,0.47-2.14,1.6C917.4,277.38,917.95,279.4,917.05,281.09z M894.78,987.39c-1.72-0.38-4.53-1.23-4.74,2.64
				c-0.13,2.38,2.02,2.88,3.84,2.87c2.95-0.03,5.55-2.63,5.81-4.42C900.06,985.91,897.08,987.55,894.78,987.39z M897.14,930.63
				c-0.36-0.35-0.76-0.91-1.3-1.21c-2.9-1.62-5.82-3.18-8.76-4.73c-0.9-0.47-1.99-0.91-2.69,0.11c-0.69,1.01,0.12,2.01,0.81,2.61
				c2.8,2.4,6.19,3.73,9.68,4.74C895.85,932.43,896.93,932.27,897.14,930.63z M906.35,1097.25c-0.81-2.23-0.14-5.96-3.51-6.46
				c-1.78-0.26-1.49,2.85-1.69,4.56c-0.32,2.64,1.03,4.82,3.37,5.37C906.79,1101.25,905.87,1098.8,906.35,1097.25z M987.97,741.68
				c-0.12,1.66-0.69,3.78,1.59,3.46c2.6-0.36,3.44-2.84,3.91-5.2c0.41-2.02-0.63-3.53-2.48-3.58
				C986.79,736.25,989.14,740.11,987.97,741.68z M1104.64,800.26c1.87,0.07,3.85-1.59,6.11-2.51c1.05-0.42,2.28-1,1.51-2.5
				c-0.62-1.2-1.9-1.44-2.99-0.94c-2.37,1.08-4.66,2.34-6.95,3.59c-0.61,0.33-0.9,0.98-0.53,1.67
				C1102.24,800.43,1103.06,800.45,1104.64,800.26z M887.74,996.87c-0.13-0.34-0.2-1.08-0.5-1.19c-3.38-1.21-6.46-3.28-10.15-3.52
				c-0.35-0.02-0.9,0.45-1.09,0.83c-0.38,0.76,0.18,1.27,0.79,1.55c2.69,1.23,5.39,2.48,8.14,3.59
				C886.04,998.56,887.26,998.58,887.74,996.87z M1041.94,973.33c-3.02,1.84,0.48,4.84-1.62,7.07c-0.97,1.04,1.43,1.63,2.69,1.62
				c1.76-0.02,3.72-0.46,2.99-2.73C1045.28,977.05,1044.18,974.77,1041.94,973.33z M1082.77,1013.93c-1.4-3.41-3.56-6.3-6.66-8.28
				c-1.09-0.7-2.05,0.69-1.39,1.61c1.82,2.51,2.76,5.71,5.62,7.44C1081.48,1015.37,1082.46,1015.92,1082.77,1013.93z M892.29,871.7
				c1.15-0.54,3.4-0.36,2.47-1.79c-1.53-2.36-3.11-5.27-6.73-5.2c-1.03,0.02-1.83,0.57-1.42,1.45
				C887.79,868.75,889.66,870.73,892.29,871.7z M931.7,287.93c-0.12,1.14-1.44,2.88,0.69,3.1c1.63,0.16,1.47-1.84,1.84-3.03
				c0.5-1.6,0.72-3.24,0.11-4.85c-0.5-1.32-0.86-3.26-2.87-2.53c-1.7,0.62-1.86,2.16-0.84,3.67
				C931.38,285.39,932.09,286.49,931.7,287.93z M906.82,962.73c0.02-0.41,0.04-0.81,0.06-1.22c-2.66-0.59-5.32-1.18-7.99-1.76
				c-1.22-0.26-2.89-1.24-3.29,0.69c-0.41,1.97,1.09,3.16,2.96,3.11C901.32,963.46,904.07,963.02,906.82,962.73z M892.77,917.53
				c-0.91-4.62-5.14-4.91-7.43-7.24c-0.19-0.2-1.36,0.17-1.68,0.58c-0.79,0.99-0.17,1.85,0.7,2.47
				C886.74,915.07,889.17,916.71,892.77,917.53z M1092.99,958.53c-1.36,0.14-1.8,1.03-1.48,2.07c0.74,2.36,1.62,4.85,4.62,5
				c1.32,0.07,1.16-1.2,0.98-2.22C1096.67,960.9,1095.38,959.22,1092.99,958.53z M1118.72,864.25c-0.64-3.89-3.33-5.58-6.28-6.94
				c-0.51-0.23-1.55,0.35-1.38,1.04c0.78,3.13,3.19,4.74,5.98,5.88C1117.43,864.39,1117.95,864.25,1118.72,864.25z M879.18,1016.5
				c-0.13,0.42-0.27,0.84-0.4,1.26c2.4,1.29,4.77,2.66,7.24,3.82c0.89,0.42,2.06,0.14,2.46-0.99c0.42-1.18-0.46-1.99-1.37-2.25
				C884.5,1017.62,881.83,1017.1,879.18,1016.5z M938.91,274.66c-0.15-1.44,0.47-3.59-1.54-3.63c-2.16-0.04-2.06,2.19-2.08,3.8
				c-0.02,1.52,0.2,3.37,2.12,3.29C939.73,278.04,938.53,275.87,938.91,274.66z M896.94,979.98c1.46-0.33,3.94,0.03,3.69-2.19
				c-0.25-2.2-2.96-1.61-4.61-2.08c-1.54-0.44-2.73,0.53-2.6,2.14C893.58,979.83,895.39,979.76,896.94,979.98z M1095.43,928.39
				c-1.84,0.11-2.73,1.15-2.63,2.9c0.1,1.79,1.23,2.66,2.98,2.57c1.76-0.08,2.79-1.09,2.73-2.86
				C1098.44,929.14,1096.97,928.67,1095.43,928.39z M900.7,958.04c1.87,0.01,3.28-0.69,3.35-2.74c0.06-1.68-1.21-2.23-2.65-2.2
				c-1.78,0.03-3.34,0.6-3.39,2.72C897.96,957.54,899.3,957.89,900.7,958.04z M900.25,974.36c1.48-0.61,4.37,0.9,4.42-1.52
				c0.04-1.88-2.76-1.93-4.57-1.83c-1.69,0.09-4.39-0.39-4.19,2.07C896.07,975.03,898.67,973.97,900.25,974.36z M891.87,984.9
				c1.31-0.12,2.59-0.56,2.35-1.99c-0.31-1.84-1.94-2.58-3.64-2.83c-1.31-0.19-2.41,0.32-2.2,1.87
				C888.65,983.91,890.28,984.46,891.87,984.9z M1115.29,885.16c-0.64,3.92,1.35,6.12,3.03,8.4c0.07,0.1,1.05-0.16,1.17-0.44
				c1.25-2.91-1.4-4.43-2.44-6.53C1116.86,886.21,1116.34,886,1115.29,885.16z M1091.93,947.85c-0.59-2-2.52-1.74-4.03-2.1
				c-0.84-0.2-1.9,0.17-1.52,1.27c0.54,1.56,1.48,3.13,3.36,3.2C1091,950.26,1091.83,949.32,1091.93,947.85z M1103.72,924.92
				c-0.82-1.68-1.78-3.45-4.01-3.62c-1.21-0.09-1.7,0.96-1.41,2.02c0.5,1.83,1.65,3.2,3.63,3.47
				C1103.06,926.94,1103.76,926.29,1103.72,924.92z M1150.04,845.85c1.65-0.07,2.07-0.95,2.06-1.98c-0.01-2.63-2.42-3.2-4.03-4.38
				c-0.54-0.39-1.45,0.23-1.26,0.93C1147.41,842.59,1148.63,844.41,1150.04,845.85z M878.37,942.33c-1.04,0.01-2.09,0.44-1.56,1.3
				c1.13,1.85,3.23,2.58,5.2,3.24c0.84,0.28,1.77-0.36,1.32-1.34C882.36,943.44,880.4,942.65,878.37,942.33z M910.96,231.34
				c1.41-0.03,1.77-0.98,1.77-2.01c-0.01-1.55-0.43-3.18-2.14-3.49c-1.34-0.24-2.06,1-2.07,2.25
				C908.52,229.73,909.43,230.85,910.96,231.34z M1098.71,942.45c0.1-1.5-0.36-2.65-2.05-2.72c-1.26-0.05-2.45,0.4-2.1,1.95
				c0.35,1.55,0.82,3.52,2.76,3.55C1098.62,945.24,1098.5,943.53,1098.71,942.45z M785.44,516.86c0.27,1.21-0.15,3.23,1.45,3.25
				c1.99,0.04,1.53-2.14,1.78-3.48c0.22-1.18,0.13-2.59-1.4-2.66C785.35,513.89,785.55,515.55,785.44,516.86z M944.3,568.43
				c-1.64,0.57-2.59,1.81-2.89,3.54c-0.16,0.95,0.36,1.79,1.26,1.7c1.83-0.17,2.95-1.4,3.22-3.18
				C946.06,569.46,945.7,568.53,944.3,568.43z M902.13,1063.47c1.34-0.44,3.83,0.63,3.88-1.53c0.04-1.75-2.29-1.19-3.63-1.24
				c-1.34-0.05-3.44-0.56-3.45,1.5C898.93,1063.96,900.87,1063.36,902.13,1063.47z"/>
			<path d="M1006.59,216.57c-3.36,1.29-6,0.5-8.26-2.05c-0.68-0.76-1.46-1.62-2.51-1.04c-1.2,0.66-0.54,1.63-0.1,2.55
				c1.66,3.49-0.72,4.75-3.32,5.88c-1.11,0.48-4.1-0.94-3.06,1.46c1.11,2.57-0.92,7.52,3.01,7.56c5.88,0.05,11.46,3.86,17.46,1.22
				c0.76-0.33,2.12-0.42,2.16,0.41c0.1,2.06,0.47,4.83-0.65,6.09c-2.4,2.71-3.76,5.78-5.05,8.99c-0.57,1.42-1.26,2.47-2.87,1.08
				c-1.86-1.61-4.1-1.33-6.19-0.98c-2.73,0.46-4.98,1.12-6.37-2.51c-1.1-2.86-4.33,0.47-6.6-1.45c3.72-3.02,8.02-3.57,12.37-3.97
				c1.41-0.13,3.37,0.42,3.66-1.62c0.28-2-1.74-2.32-3.06-2.64c-6.23-1.5-11.67,0.05-16.11,4.71c-0.92,0.97-1.79,1.57-2.99,0.84
				c-1.2-0.74-0.84-1.78-0.62-3.04c0.98-5.7,5.68-11.21,1.12-17.29c-0.19-0.25-0.03-1.03,0.23-1.28c0.58-0.54,1.18-0.21,1.69,0.31
				c1.29,1.35,2.11,2.95,2.73,4.7c0.29,0.82,0.99,1.41,1.91,1.29c1.11-0.14,1.19-1.07,0.99-1.9c-0.48-1.9,0.88-2.54,2.03-3.54
				c1.61-1.4,3.14-2.92,3.28-5.36c0.13-2.33,1.33-3.7,3.9-3.39c1.04,0.12,2.01-0.18,2.75-0.92c3.36-3.38,4.83-3.14,4.01,1.99
				C1001.56,216.12,1005.71,214.1,1006.59,216.57z"/>
			<path d="M1067.91,774.62c-2.58,3.71-6.26,5.57-10.23,7.04c-3.07,1.13-4.05,2.69-1.17,5.37c7.46,6.94,13.14,15.3,18.41,23.94
				c0.73,1.2,2.07,2.91,0.16,3.84c-2.08,1.02-1.93-1.35-2.72-2.47c-2.82-3.99-4.34-8.9-8.92-11.66c-4.18-2.52-5.63-7.71-9.68-10.55
				c-2.02-1.41-3.88-3.05-6.03-4.34c-3.93-2.36-5.67-5.92-4.74-10.54c0.22-1.12-0.46-3.17,1.75-2.75c1.64,0.31,2.91,1.32,2.79,3.48
				c-0.32,5.86,1.83,7.35,7.17,4.95C1059.15,778.92,1063.52,776.73,1067.91,774.62z"/>
			<path d="M1046.15,627.83c3.95,4.01,4.93,9.41,5.23,14.46c0.47,7.99,2.61,15.67,3.26,23.59c0.15,1.87,0.4,3.62-1.45,5.33
				c-2.24-3.22-1.99-6.97-2.51-10.31c-1.42-9.29-1.87-18.72-4.74-27.78c-0.54-1.72-0.3-3.63,0.33-5.41
				C1046.28,627.7,1046.15,627.83,1046.15,627.83z"/>
			<path d="M956.83,275.61c0.21-3.41-0.94-6.76,3.98-6.64c0.8,0.02,1.66-0.97,2.42-1.58c1.13-0.9,2.96-2.85,3.16-2.69
				c2.42,1.94,5.89,0.58,8.23,2.98c1.72,1.76,1.92,2.68-0.48,3.35c-2.92,0.82-5.62,1.91-7.83,4.08c-0.76,0.74-2.06,1.09-2.69,0.23
				C961.52,272.44,959.36,274.42,956.83,275.61z"/>
			<path d="M924.23,240.2c-0.93-0.06-1.56,0.47-2.08,1.13c-0.82,1.02-1.72,1.83-2.64,0.23c-0.65-1.14-0.22-2.19,0.77-3.07
				c3.37-2.99,9.35-1.1,10.63,3.76c0.9,3.42-1.08,6.67-2.2,9.84c-0.44,1.25-2.37,0.85-3.63,0.37c-2.02-0.77-3.33-2.42-3.59-4.43
				c-0.27-2.1,1.68-0.68,2.53-1.12c1.81-0.95,2.6-2.51,2.48-4.45C926.42,241.18,925.53,240.42,924.23,240.2z"/>
			<path d="M972.5,219.71c0.68,0.38,1.21,0.52,1.47,0.86c0.74,1,0.35,1.72-0.61,2.44c-2.63,1.98-1.9,4.43-0.36,6.52
				c2.09,2.84,2.3,3.36-1.7,5.15c-4.54,2.02-5.46,1.11-6.95-2.69c-0.92-2.35-4.96-5.07,1.7-4.18c1.59,0.21,1.4-1.53,1.73-2.56
				C968.6,222.72,971.27,221.93,972.5,219.71z"/>
			<path d="M1025,742.25c2.29-7.69,11.63-5.41,14.19-12.04c2.98,3.24,2.61,4.93-0.27,7.69
				C1034.92,741.76,1030.24,741.47,1025,742.25z"/>
			<path d="M1070.74,790.79c9.18-7.38,19.28-13.67,26.79-23C1092.45,779.97,1081.05,784.74,1070.74,790.79z"/>
			<path d="M1058.26,754.54c-6.9,1.26-12.66,4.9-19.41,3.58c-1.11-0.22-2.75,0.1-2.85-1.33c-0.14-1.98,1.71-1.57,2.93-1.6
				c4.79-0.13,9.59,0.22,14.18-1.84C1054.48,752.73,1056.31,752.52,1058.26,754.54z"/>
			<path d="M1085.46,795.36c4.18-5.7,10.95-8.39,15.66-13.49c1.66-1.79,3.73-3.2,5.89-4.47c-5.83,7.62-12.35,14.41-21.68,17.86
				L1085.46,795.36z"/>
			<path d="M988.9,273.85c-2.15,5.36-7.26,8.82-9.16,14.37c-0.39,1.15-1.67,0.81-2.48,0.08c-0.99-0.88-2.42-2.41-1.11-3.25
				c4.84-3.1,7.36-8.84,12.88-11.06C989.03,273.98,988.9,273.85,988.9,273.85z"/>
			<path d="M959.1,177.62c-4.76,4.84-9.11,0.49-13.56,0.19c-0.74-0.05-1.2-0.58-1.23-1.3c-0.04-1.03,0.75-1.56,1.58-1.45
				c2.69,0.36,5.48-1.08,8.13,0.94C955.31,176.99,957.28,177.08,959.1,177.62z"/>
			<path d="M978.46,267.8c-0.15-3.42,2.21-5.2,3.02-7.67c0.79-2.43,3.11-1.01,4.16,0.45c1.16,1.61-0.22,3.48-0.27,5.26
				c-0.09,2.94-2.25,1.29-3.67,1.33C980.76,267.21,979.83,267.52,978.46,267.8z"/>
			<path d="M931.35,225.5c9.57,4.88,9.92,5.52,5.66,10.8C937.02,231.35,933.59,228.81,931.35,225.5z"/>
			<path d="M985.93,253.78c4.21-0.73,7.51,2.41,11.6,2.43C992.64,260.3,989.81,254.65,985.93,253.78z"/>
			<path d="M955.63,285.56c-2.34-1.1-5.38-1.38-5.04-4.65c0.23-2.18,3.98-2.52,4.13-0.47C954.85,282.16,954.45,283.88,955.63,285.56
				z"/>
			<path d="M1088.59,804.4c-2.59,1.94-5.18,3.87-7.75,5.84c-0.69,0.53-1.4,1.02-2.2,0.4c-0.89-0.7-0.58-1.69,0.21-2.02
				c3.27-1.38,5.58-5.02,9.81-4.19C1088.68,804.42,1088.59,804.4,1088.59,804.4z"/>
			<path d="M934.26,201.18c3.57-0.24,5.25,0.88,6.1,3.06c0.29,0.75-0.31,1.9-1.16,1.88C936.33,206.03,936.19,203.24,934.26,201.18z"
				/>
			<path d="M963.27,301.72c-1.62-2.68-0.82-4.67-0.41-6.63C965.53,296.89,965.2,298.86,963.27,301.72z"/>
			<path d="M1085.34,795.26c-2.65,2.02-4.81,5.03-8.95,4.04c3.12-1.1,4.94-4.9,9.06-3.96
				C1085.46,795.36,1085.34,795.26,1085.34,795.26z"/>
			<path d="M976,374.29c2.76,1.78,4.31,4.51,5.67,7.18c5.47,10.73,8.61,22.07,9.6,34.16c0.72,8.77,2.68,17.44,3.96,26.18
				c0.37,2.52,1.43,6.86-0.95,7.06c-2.87,0.24-2.14-4.11-2.5-6.57c-2.25-15.47-4.14-31-6.71-46.42c-1.06-6.34-4.19-12.13-8.03-17.4
				C976.21,377.34,974.72,376.38,976,374.29z"/>
			<path d="M857.74,485.78c1.09,0.31,1.09,1.24,1.35,1.99c3.38,9.54,8.65,17.88,15.94,24.91c0.92,0.89,2.56,1.77,0.93,3.09
				c-1.24,1-2.43-0.03-3.38-1.12c-2.29-2.63-4.63-5.2-6.94-7.81c-0.44-0.5-0.72-1.38-1.24-1.53c-8.71-2.51-4.1-11.54-8-16.44
				C855.88,488.22,856,486.22,857.74,485.78z"/>
			<path d="M968.51,355.15c1.53,4.78,1.86,10,5.83,13.8c0.67,0.64,0.89,1.93,0.07,2.72c-0.84,0.81-1.67,0.03-1.89-0.7
				C970.95,365.78,967.05,361.19,968.51,355.15z"/>
			<path d="M818.07,405.05c2.24,2.53,2.87,5.2,3.9,7.62c0.16,0.37-0.39,1.12-0.77,1.58c-0.09,0.11-1.08-0.21-1.17-0.49
				C819.22,411.14,816.82,408.87,818.07,405.05z"/>
			<path d="M925.94,317.51c2.05-2.55,3.7-3,5.6-1.89c0.68,0.4,1.05,1.72,0.42,2.11C930.12,318.85,928.49,317.41,925.94,317.51z"/>
			<path d="M976.47,684.71c-10.11-12.2-11.94-28.71-22.13-40.87C966.89,654.78,968.78,671.25,976.47,684.71z"/>
			<path d="M915.93,632.81c9.95,8.2,18.47,17.61,24.16,29.39C933.18,651.44,923.57,642.96,915.93,632.81z"/>
			<path d="M941.93,836.15c-9.12,1.22-17.57-0.53-26.4-5.41C919.03,830,937.94,833.79,941.93,836.15z"/>
			<path d="M977.43,660.21c-4.16-4.74-5.17-10.74-7.09-16.38C974.04,648.76,976.04,654.36,977.43,660.21z"/>
			<path d="M958.82,834.98c-3.91,2.62-7.69,1.1-10.76,2.76c-0.59,0.32-1.22-0.42-1.09-1.17c0.15-0.87,0.79-1.54,1.65-1.56
				C951.68,834.93,954.74,834.98,958.82,834.98z"/>
			<path d="M967.88,762.07c-2.13-3.72-4.45-7.36-4.57-12.07c1.9,3.83,3.8,7.66,5.7,11.48C968.64,761.68,968.26,761.88,967.88,762.07
				z"/>
			<path d="M1020.27,619.7c-3.83,3.07-5.68,1.07-6.93-2.66c-1.59-4.73-3.44-9.31-7.17-12.86c-0.67-0.63-1.5-1.68-0.46-2.55
				c0.95-0.8,1.95,0.08,2.58,0.74c4.92,5.16,9.45,10.6,11.85,17.48C1020.15,619.84,1020.27,619.7,1020.27,619.7z"/>
			<path d="M1014.05,590.1c5.54,3.35,11.21,6.52,16.58,10.12c2.93,1.96-0.65,4.04-0.67,6.16c-0.01,1.09-1.22,1.48-2.28,0.73
				c-1.73-1.24-2.23-2.52-0.82-4.56c1.47-2.14-0.95-2.29-2.07-2.93c-4.12-2.35-8.41-4.47-11.41-8.31
				C1013.61,590.91,1013.83,590.51,1014.05,590.1z"/>
			<path d="M784.53,479.34c6.58-2.64,12.25,1.74,18.32,3.39C796.51,483.71,790.81,479.52,784.53,479.34z"/>
			<path d="M924.99,898.99c-3.9,1.88-7.04,2.47-10.35,1.96c-1.01-0.16-1.97-0.68-1.87-1.89c0.11-1.33,1.28-1.5,2.22-1.23
				C917.94,898.66,921.14,896.79,924.99,898.99z"/>
		</g>
	</g>
	<g>
		<g>
			<path class="st0" d="M1088.68,804.42c-0.29-2.68,1.64-3.73,3.5-4.92c10.37-6.68,21.4-12.18,32.67-17.06
				c11.04-4.78,19.18-12.91,27.45-21.09c1.72-1.7,3.52-3.33,5.89-5.57c-0.64,5.31-3.5,7.87-6.59,10.44
				c-4.49,3.72-4.32,4.82,0.43,8.16c2.14,1.51,2.2,3.2,0.23,4.91c-3.52,3.05-7.15,6.19-11.74,7.24c-6.59,1.49-12.6,4.86-19.37,5.64
				c-1.07,0.12-2.59,0.22-2.38,1.89c0.15,1.14,1.36,1.31,2.3,1.61c2.07,0.65,3.85-0.32,5.78-0.87c9.21-2.59,18.21-5.69,26.88-9.75
				c0.21-0.1,0.6,0.19,0.52,0.16c-4.56,11.34-14.9,12.84-25.19,14.08c-3.74,0.45-7.47,1.98-11.37,0.84c-0.82-0.24-1.83,0-1.72,1.13
				c0.09,0.87,0.99,1.52,1.82,1.42c6.21-0.81,12.5,1.26,18.69-0.83c7.67-2.59,14.48-0.1,21.19,3.72c3.48,1.98-0.92,3.3,0.11,4.85
				c4.09-0.7,4.48-1,4.2-4.83c-0.09-1.26,0.3-1.82,1.16-2.42c5.84-4.06,11.98-7.8,14.84-15.1c1.8,3.17,0.75,6.04-0.79,8.01
				c-5.24,6.7-7.94,14.29-9.71,22.47c-1.06,4.88-4.34,9.26-5.68,13.67c-1.16,3.82-2.59,7.9-3.65,11.92
				c-1.66,6.32-5.13,11.64-8.93,16.98c-6.91,9.71-11.77,20.87-19.55,29.94c-6.67,7.77-11.21,16.78-16.82,25.15
				c-3.06,4.57-3.54,10.01-5.35,15c-2.58,7.1-7.1,13.49-6.75,21.67c0.49,11.29,0.59,22.61,0.36,33.91
				c-0.16,8.01-0.45,15.99,2.18,23.66c3.34,9.75,5.16,20.2,13.21,27.82c3.79,3.59,4.11,8.99,5.32,13.7c0.82,3.22-1.6,6.65-4.96,6.04
				c-8.98-1.63-16.73,3.92-25.63,3.27c-8.7-0.64-17.55,0.63-26.32,1.15c-2.55,0.15-4.97-0.3-7.41-0.88
				c-11.97-2.87-23.32,0.07-34.67,3.53c-13.15,4.02-26.04,9.42-40.26,8.46c-3.17-0.22-5.99,0.35-7.72,3.43
				c-0.6,1.07-1.61,1.65-2.77,1.99c-8.92,2.64-17.74,5.46-27.18,6.19c-4.31,0.33-8.19,4.33-12.27-1.42
				c-1.09-1.53-2.32,2.02-2.07,3.98c0.21,1.62,2.71,2.17,1.85,4.82c-3.05-4.68-6.86-0.06-10.63-1.18c-2.31-0.69-2.46,3.8-2.58,6.12
				c-0.13,2.55,2.34,2.91,4.01,2.34c4-1.37,8.06-1.84,12.24-1.95c2.19-0.06,2.52-2.38,3.67-3.77c5.06,7.76-0.77,15.52-8.02,16.82
				c-6.95,1.25-13.95,2.8-21.16,3.07c-6.35,0.24-12.4-0.27-17.9-3.25c-9.98-5.39-17.38-13.43-22.92-23.15
				c0.38-0.42,0.75-0.84,1.13-1.26c3.34,3.08,7.26,5.72,9.91,9.31c12.06,16.28,26.28,17.69,43.4,13.39
				c4.14-1.04,9.21,0.69,12.43-3.84c0.88-1.24,2.24-2.04,1.5-3.77c-0.69-1.61-2.16-1.07-3.46-1.2c-6.8-0.67-12.82,2.65-19.29,3.73
				c-6.78,1.13-13.37,2.66-19.71-1.34c-0.54-0.34-1.26-0.54-1.08-1.81c6.14,0.82,6.16-2.69,5.06-7.27
				c-0.49-2.06,0.05-4.36-0.42-6.43c-0.5-2.22-2.35-3.38-4.6-2.65c-2.43,0.8-1.45,2.57-0.62,4.06c1.22,2.19,1.29,3.56-1.86,2.98
				c-2.32-0.43-3.67,0.77-3.77,2.88c-0.23,5.03-2.62,2.67-4.24,1.18c-4.29-3.94-7.15-9.07-10.75-13.59
				c-0.83-1.04-1.53-2.17-2.39-3.18c-1.62-1.89-3.19-4.24-6.18-3.06c-3.29,1.31,0.48,3.73-0.49,5.69c-8.27-4.51-17.2-5.8-26.08-7.18
				c-2.34-0.36-3.75-2.09-5.57-3.18c-4.4-2.62-9.5-2.98-14.2-4.46c-4.25-1.34-7.3-3.8-10.43-6.42c-2.85-2.38-4.82-4.95-1.43-8.81
				c2.3-2.62,1-4.64-2.49-4.93c-4.63-0.38-9.2-1.34-13.91-1.06c-6.08,0.37-10.87-2.62-15.14-6.59c-1.39-1.3-2.41-2.82-1.98-4.85
				c0.46-2.13,2.13-2.67,4.02-3.15c17.64-4.47,35.78-5.76,53.67-8.69c1.69-0.28,3.41-0.08,4.85,0.8c4.1,2.51,8.34,4.03,13.27,3.05
				c1.17-0.23,3.03-0.11,2.99,1.7c-0.03,1.36-1.66,1.61-2.76,1.6c-4.74-0.04-9.63,1.22-14.04-1.87c-2.47-1.73-5.46-1.54-8.25-0.95
				c-10.92,2.3-22.18,2.24-33.03,4.91c-4.02,0.99-7.99,2.2-11.96,3.37c-2.11,0.62-1.58,1.6-0.35,2.78c3.35,3.22,7.46,4.03,11.92,4.3
				c5.93,0.36,12.02-0.23,17.58,2.8c3.17,1.73,4.63,3.05,0.77,5.95c-3.83,2.88-2.49,7.54,2.99,9.35
				c10.09,3.33,20.1,6.76,29.81,11.13c2.38,1.07,5.18,2.39,8.16,0.79c1.57-0.84,2.77,0.6,3.93,1.53c0.94,0.75,1.95,1.58,2.99,0.3
				c0.92-1.14,0.27-2.26-0.54-3.13c-2.71-2.89-5-6.21-8.53-8.45c-1.23,2.03,2.11,3.38,0.76,5.33c-5.37-2.67-7.51-8.39-4.53-13.16
				c6.86-10.99,9.53-23.56,13.8-35.53c4.58-12.87,2.5-25.89,1.45-38.9c-0.55-6.8-0.69-13.72-2.2-20.32
				c-2.07-9.07-2.37-18.34-3.99-27.45c-1.01-5.68-0.28-11.64,1.14-17.28c1.5-5.96,2.57-12.39,5.67-17.5
				c5.16-8.53,9.53-17.58,16.35-25.2c4.12-4.6,6.91-10.73,6.47-17.35c-0.14-2.13-2.98-2.92-4.83-3.98
				c-8.25-4.69-17.28-7.78-25.47-12.68c-3.13-1.87-3.87-3.63-3.32-6.71c0.43-2.46,0.61-4.99,1.28-7.38
				c3.81-13.6-1.98-26.32-3.74-39.36c-1.29-9.58-2.12-19.16-3.03-28.77c-1.06-11.11-4.48-21.76-8.76-32.07
				c-1.16-2.78-1.12-5.32-0.52-8.22c2.34-11.32,4.73-22.35,2.95-34.4c-2.3-15.57-2.62-31.52-1.82-47.35
				c0.29-5.81,4.28-10.41,6.62-15.52c5.13-11.19,9.37-22.53,12.47-34.55c1.53-5.95,2.71-11.22,1.65-17.16
				c-0.34-1.89-0.99-3.03-2.89-3.5c-13.52-3.34-25.19-10.92-37.66-16.66c-8.12-3.74-16.14-7.7-23.92-12.18
				c-5.56-3.19-8.94-8.35-13.5-12.4c-0.87-0.77-1.43-2-2.4-2.51c-13.74-7.3-21.17-20.7-30.86-31.89c-3.85-4.44-0.84-9.15,0.12-13.68
				c1.17-5.55,6.14-9.46,6.64-15.43c0.23-2.68,0.08-5.31,0.12-7.97c0.05-3.26,0.82-5.82,3.54-8.28c3.58-3.24,4.61-8.34,6.6-12.68
				c7.87-17.11,16.48-33.72,29.69-47.5c2.67-2.78,4.04-6.44,5.76-9.85c5.5-10.96,13.46-20.21,21.29-29.45
				c3.61-4.26,9.11-6.7,14.37-8.7c18.04-6.84,35.9-14.14,53.16-22.76c7.29-3.64,13.98-8.38,16.59-16.91
				c0.25-0.82,1.33-1.39,2.03-2.08c-1.08,3.44-1.23,7.73-3.42,10.17c-5.28,5.88-9.67,11.99-18.5,15.08
				c-16.38,5.73-32.27,13.13-48.45,19.64c-6.47,2.6-13.36,5.17-16.94,11.59c-2.7,4.84-6.66,8.53-9.8,12.92
				c-4.31,6.03-6.82,12.4-5.83,19.95c0.21,1.62,0.5,3.55-1.45,5.12c-0.44-0.84-0.76-1.37-1-1.94c-0.75-1.74,1.24-4.91-1.26-5.24
				c-2.51-0.33-3.94,2.61-5.16,4.78c-0.57,1.01-1.23,2.14-1.26,3.23c-0.11,4.38-2.88,7.29-5.39,10.38
				c-4.93,6.05-10.19,11.76-14.37,18.49c-4.77,7.68-6.73,16.61-11.64,24.15c-0.26,0.4-0.14,1.37,0.17,1.78
				c0.74,0.95,1.87,0.67,2.74,0.2c7.53-4.07,15.27-2.71,22.85-0.58c11.74,3.31,22.24,8.83,29.84,18.8c0.98,1.28,1.58,3.47,3.67,2.14
				c2.14-1.37,0.93-3.19-0.11-4.75c-1.06-1.59-3.56-3.84-1.73-4.97c2.32-1.44,2.97,2.17,4.34,3.6c0.33,0.34,0.45,0.88,0.63,1.35
				c1.05,2.74,2.9,2.12,4.2,0.58c4.77-5.63,10.46-10.83,10.04-19.23c-0.05-1.01-0.51-2.35,1.02-3.28c0.52,3.06-1.31,7.32,2.22,8.53
				c3.47,1.19,5.02-2.9,7.2-5c1.06-1.02,2.01-2.35,3.79-1.84c0.25,0.07,0.59,0.49,0.57,0.72c-0.16,1.67-1.81,1.79-2.84,2.42
				c-2.2,1.35-3.96,3.19-2.99,5.64c0.83,2.1,3.9,4.02,5.52,3.21c5.07-2.55,9.03,0.49,13.34,1.64c3.39,0.9,7.2,0.48,10.63,2.7
				c-2.77,2.18-5.44,2.08-8.04,1.53c-5.97-1.27-11.91-2.72-17.84-4.14c-1.02-0.25-1.98-0.5-2.75,0.39c-0.61,0.7-0.53,1.61-0.09,2.34
				c4.08,6.78,4.88,15.29,11.03,21c0.78,0.73,2.14,1.96,1.05,2.89c-1.28,1.1-3.33,0.87-5.02,1.57c-1.49,0.61-1.04-1.55-1.25-2.53
				c-1.97-9.2-7.22-17.02-10.79-25.55c-1.11-2.65-3.74-2.91-5.21-0.83c-5.64,8.03-12.35,15.12-18.92,22.33
				c-1.86,2.04-1.89,4.06-0.11,6.23c3.37,4.11,7.11,8.02,9.87,12.52c6.5,10.59,15.19,19.23,23.62,28.14
				c0.9,0.95,1.81,2.14,3.39,1.42c1.35-0.62,1.85-1.88,1.98-3.26c0.19-2.15,0.24-4.32,0.47-6.47c0.1-0.95,0.33-2.21,1.6-2.1
				c1.2,0.1,1.47,1.33,1.41,2.32c-0.21,3.44,0.76,6.57,2.14,9.65c0.57,1.28,0.63,2.25-1.06,3.2c-3.4,1.92-1.25,4.61,0.64,5.06
				c4.28,1.02,7.28,3.95,10.91,5.89c3.33,1.78,6.69,2.22,10.07,0.68c3.86-1.75,7.68-1.49,11.72-0.94
				c7.64,1.03,14.72,5.53,22.87,3.62c1.13-0.27,2.9,0.26,3.75,1.08c5.86,5.57,14.61,5.45,20.71,11.23c3.6,3.41,8.05,6.6,9.47,10.88
				c2.33,7.01,7.48,8.07,13.06,8.51c12.29,0.97,24.53,2.27,36.8,3.42c12.13,1.14,23.4-1.6,32.95-9.71c1.4-1.19,3.46-2.66,2.5-4.43
				c-1.55-2.87-0.29-4.09,1.7-5.71c1.39-1.12,2.55-2.72,2.86-4.59c1.09-6.72,2.74-13.3,2.99-20.22c0.47-13.04-3.06-25.38-5.33-37.97
				c-2.01-11.16-6.1-21.2-13.07-30.27c-4.29-5.58-8.28-11.74-5.38-19.58c0.37-1.01,0.21-2.38-0.14-3.45
				c-2.81-8.72-4.17-17.78-6.38-26.62c-3.1-12.43-8.09-24.28-12.87-36.16c-0.52-1.29-1.15-2.62,0.05-3.68
				c2-1.78,1.03-3.83,1.11-5.94c0.3-7.55-6.99-10.79-9.35-16.92c-0.78-2.03-6.7-0.49-7.94-4.76c-2.34,1.21-4.09,0.54-6.23-1.03
				c-3.22-2.36-5.31-1.02-5.8,2.97c-0.19,1.52,0.42,4.55-1.42,4.18c-4.86-0.99-8.63,1.98-13.03,2.56
				c-13.86,1.82-24.08-5.83-33.96-13.17c-6.88-5.12-14.32-8.89-21.67-12.99c-2.71-1.51-5.4-2.93-6.01-6.64
				c9.07,4.71,18.08,9.51,26.54,15.14c7.75,5.17,15.02,11.06,24.16,13.68c1.99,0.57,4.34,1.65,5.69-1.08
				c1.89-3.82,4.11-6.12,8.3-2.62c0.79,0.67,1.9,0.83,2.69-0.12c0.79-0.94,0.5-2.09-0.38-2.62c-2.44-1.45-4.16-6.95-8.05-1.5
				c-1.01,1.41-4.11-0.2-4.67,2.55c-1.33-0.62-2.71-1.15-3.96-1.9c-0.73-0.44-0.99-1.29-0.61-2.19c0.8-1.9,6.74-4.09,8.88-3.38
				c3.29,1.1,6.14,2.56,8.66-2.22c1.26-2.39,4.68-3.29,1.38-6.52c-0.56-0.54-0.09-1.61,0.65-2.18c2.14-1.66,1.51-3-0.42-4.27
				c-1.59-1.04-1.76-2.68-1.87-4.4c-0.09-1.36,0.74-3.28-1.41-3.7c-0.83-0.16-2.18,0.27-2.67,0.9c-1.45,1.85,0.53,2.52,1.57,3.44
				c0.98,0.86,1.6,1.84,0.62,2.98c-0.97,1.13-2.84,1.66-3.5,0.55c-1.41-2.39-6.2-3.14-3.85-7.51c0.5-0.93,0.03-2.05-1.2-2.27
				c-0.93-0.17-1.54,0.5-1.84,1.35c-0.38,1.09-0.11,3.59-1.96,2.37c-3.84-2.54-7.93-3.07-12.29-3.3c-1.7-0.09-2.81-1.4-3.32-3.27
				c-0.88-3.24-3.38-5.6-5.78-7.58c-1.14-0.94-5.31-0.68-5.39,0.49c-0.19,2.56-3.82,4.59-1.1,7.62c2.45,2.73,0.38,5.59-1.52,6.88
				c-3.34,2.26-5.77-0.95-8.15-2.87c-2.75-2.21,0.46-2.6,1.15-3.91c1.32-2.52,4.26-5.08,0.8-8.2c-2.52-2.27-0.15-2.91,1.37-3.85
				c1.4-0.87,3.29,1.32,4.8-1.21c-5.11-0.08-6.42-2.96-5.92-7.37c0.19-1.72,0.26-4.13-2.15-4.41c-1.99-0.22-3.31,1.58-3.91,3.3
				c-0.72,2.06-1.13,4.19-3.18,5.44c-0.99-4.19,1.09-7.81,3.46-10.5c3.62-4.12,2.74-8.79,0.83-11.97
				c-4.33-7.22-4.72-15.04-4.55-22.69c0.11-5-1.5-9.31-3.32-13.12c-3.23-6.74-1.51-12.97-0.57-19.47c0.14-0.97,0.77-1.87,0.9-2.84
				c2.37-18.64,15.84-28.48,30.09-37.5c1.76-1.11,3.68-3.45,6.77-2.78c-0.67,2.86-3.83,2.24-5.05,4.47
				c-1.78,3.24-3.02,5.57-2.47,8.9c0.29,1.75,1.03,3.69-1.49,4.59c-0.43,0.15-1.08,0.73-1.03,1c0.85,4.55-1.89,7.77-3.83,11.38
				c-0.73,1.35-1.32,2.15-2.79,2.3c-5.19,0.54-6.11,3.92-5.92,8.4c0.12,2.84,0.58,6.27-3.85,6.68c-0.74,0.07-1.24,0.59-1.26,1.3
				c-0.01,0.4,0.29,0.99,0.62,1.19c3.78,2.24,7.28,0.17,7.35-4.31c3.28,2.18,3.3,2.18,2.35,6.02c-0.26,1.04-0.23,2.63,0.84,2.24
				c4.63-1.68,2.44,2.32,2.83,3.54c0.81,2.49-1.47,2.43-3.08,2.62c-5,0.59-6.45,6.45-11.23,7.56c-0.84,0.19-0.52,2.49,0.38,3.09
				c3.19,2.13,3.37,5.58,4.1,8.72c1.58,6.77,7.41,10.84,10.39,16.72c1.3,2.57,4.06,2.29,6.22,1.24c4.67-2.28,8.59-5.67,12.31-9.26
				c0.72-0.69,0.69-1.68,0.08-2.25c-3.45-3.21-1.78-7.49-2.26-11.24c-0.76-5.97,4.66-9.29,7.02-13.95c0.87-1.72,2.53-3.07,3.97-4.45
				c0.88-0.84,1.51-3.44,3.18-1.48c0.98,1.15,0.64,3.21-1.26,4.23c-2.68,1.43-3.81,4.03-5.03,6.57c0.88,1.48,1.76,0.15,2.58,0.1
				c1.42-0.1,2.79,0.08,3.52,1.35c0.92,1.58-0.57,2.28-1.45,3.24c-2.19,2.38-5.26,3.96-6.28,7.46c-0.38,1.29-0.81,4.8,0.07,6.16
				c0.42,0.65,0.92,1.7,0.68,2.27c-3.09,7.12,2.81,4.36,5.47,4.88c0.83,0.16,1.88-0.73,2.57,0.44c0.76,1.28,0.15,2.56-0.85,3.01
				c-2.31,1.04-3.22,5.28-7.53,2c-3.77-2.87-7.94,0.88-7.62,5.88c0.16,2.44,1.23,4.9,0.13,7.39c-1.13,2.57-0.02,3.43,2.48,3.07
				c1.02-0.15,2.25-0.44,2.28,0.97c0.03,1.36-1.2,1.19-2.25,1.1c-2.37-0.2-2.97,1.3-2.51,3.18c0.8,3.23,1.82,6.4,2.82,9.57
				c0.42,1.32,1.65,3.1,2.63,2.56c4.48-2.48,5.05,1.71,6.98,3.65c1.29,1.3,2.4,3.73,4.58,0.88c0.49-0.64,1.41-0.27,1.56,0.41
				c0.9,4.11,2.91,2.27,5.47,1.58c5.73-1.53,7.67-4.1,4.38-9.55c-0.76-1.26-0.53-2.86,1.2-3.14c1.82-0.29,2.14,1.31,2.1,2.68
				c-0.19,5.54,2.05,9.97,5.92,13.77c1.02,1,2.06,1.72,3.52,1.41c3.62-0.78,6.83-2.22,10.74,0.7c1.88,1.4,4.21-2.68,4.94-5.07
				c0.77-2.53-0.19-5.02-3.25-5.76c-0.93-0.23-2.01,0.19-2.97,0.02c-1.92-0.34-2.87-1.91-2.95-3.58c-0.11-2.29,1.95-1.72,3.33-1.87
				c2.08-0.22,3.76,0.38,5.44,1.83c2.37,2.05,4.82,0.97,6.56-1.1c1.18-1.4,1.33-3.59-1.05-3.82c-6.09-0.58-12.4-5.31-18.31,0.62
				c-0.32,0.32-1.33,0.32-1.79,0.07c-0.79-0.44-1.05-1.44-0.56-2.18c1.19-1.79,2.48-3.52,3.85-5.18c1.88-2.27,3.38-0.98,4.8,0.65
				c0.09,0.11,0.33,0.19,0.46,0.16c6.01-1.58,11.91-2.21,17.93,0.32c1.36,0.57,2.39-1.22,2.55-2.98c0.44-4.66-3.06-9.31-7.98-9.81
				c-3.24-0.33-5.72-1.05-7.08-4.41c-1.04-2.56-3.12-1.48-4.54-0.36c-1.61,1.27-3.01,2.66-5.28,2.1l0.13,0.13
				c1.84-4.26,6.24-5.23,9.7-7.34c1.41-0.86,3.26-0.24,3.05,1.86c-0.42,4.19,1.91,4.64,5.2,4.57c1.79-0.04,3.58,0.65,5.39,0.91
				c3.06,0.43,5.09-1.31,6.69-3.55c1.39-1.95,0.38-3.67-0.75-5.49c-4.91-7.89-4.95-16.68-4.31-25.51c0.2-2.71,2-4.97,4.65-5.2
				c4.13-0.36,4.47-2.84,4.14-5.87c-0.39-3.59-0.77-7.22-2.53-10.46c-1.65-0.18-1.87,1.3-2.66,2.03c-1.94,1.79-4.24,1.06-6.15,0.44
				c-2.49-0.8-0.73-2.71-0.42-4.19c0.1-0.48,0.31-1.18,0.08-1.46c-4.08-4.93,0.87-6.78,3.31-9.2c1.99-1.97,1.76-3.5,0.58-5.69
				c-6.95-12.94-17.19-22.42-30.92-27.32c-6.97-2.49-14.46-3.65-22.22-3.33c-5.34,0.22-10.52,0.42-15.65,1.89
				c-1.11,0.32-2.29,0.3-3.81-1.23c5.35-2.81,10.92-3.16,16.29-3.13c6.76,0.04,13.63,0.45,20.22,1.84
				c5.37,1.13,11.01,2.87,15.44,6.23c9.37,7.12,18.57,14.54,23.72,25.68c3.04,6.59,4.68,13.82,9.24,19.74
				c0.68,0.88,0.45,2.59,0.38,3.9c-0.38,6.95-0.71,13.87-2.28,20.75c-1.04,4.52-1.77,9.12-0.75,14.2c0.92,4.56-1.11,9.76-3.31,14.26
				c-2.26,4.64-4.69,9.16-4.77,14.54c-0.04,2.62-1.14,4.87-3.37,6.4c-3.68,2.52-4.6,7.67-9.19,9.43c-1.14,0.44-0.74,2.34-0.57,3.71
				c0.8,6.21-3.88,11.88-10.14,11.86c-2.67-0.01-5.33,0.51-8.23-0.9c-2.31-1.12-5.46,1.23-6.98,3.42c-1.32,1.89,1.29,2.98,2.51,4.23
				c7.31,7.5,16.93,12.72,21.58,22.9c1.61,3.52,3.15,7.14,3.77,10.74c3.24,18.89,8.9,37.17,14.25,55.47
				c3.15,10.78,4.3,21.77,6.24,32.67c0.86,4.85,2,9.16,5.43,13.03c6.33,7.15,9.43,16.31,11.04,25.26
				c2.93,16.28,8.18,32.43,5.8,49.35c-1.2,8.53-2.97,16.95-6.77,24.8c-1.54,3.17-1.78,6.31,0.11,9.54c2.1,3.61,1.92,8.27,1.38,11.58
				c-1.46,8.96,3.42,15.26,6.8,22.32c0.57,1.19,1.53,2.31,1.71,3.55c2.23,14.97,11.75,24.81,23.36,33.07
				c10.95,7.79,19.06,18.18,25.78,29.42c6.88,11.5,16.11,20.72,25.33,30.05c10.99,11.13,22.26,21.99,33.18,33.19
				c3.34,3.43,5.95,7.57,8.83,11.43c1.56,2.08,0.73,4.58,0.7,6.82c-0.06,4.9,1.48,9.1,4.34,12.95c0.59,0.8,1.18,1.64,1.54,2.56
				c0.45,1.15,1.53,2.67-0.07,3.51c-1.29,0.68-1.83-0.95-2.62-1.75c-4.15-4.19-5.94-10.29-11.1-13.64c-0.93-0.6-0.83-1.42-0.23-2.1
				c4.71-5.4,1.33-10.62-2.13-13.71c-5.69-5.07-8.98-11.91-14.55-16.93c-11.63-10.47-22.42-21.79-33.25-33.07
				c-3.37-3.52-6.13-7.45-8.79-11.49c-8.17-12.43-17.46-23.92-28.52-33.93c-1.03-0.93-1.96-2.72-3.71-1.57
				c-1.36,0.89-1.5,2.68-1.31,4.1c0.28,2.12,0.78,4.28,1.62,6.24c2.56,6,1.43,9.83-4.18,13.21c-5.63,3.4-5.66,3.42-2.27,9.04
				c2.13,3.52,1.92,6.97-0.23,10.35c-2.92,4.61-6.27,8.9-8.36,14.09c-1.24,3.08-1.43,6.32-2.66,9.44
				c-2.43,6.17-9.67,9.11-9.76,16.73c-3.06-3.64-2.36-3.63-0.56-6.72c5.47-9.39,13.44-17.91,11.97-30.1
				c-0.12-1.02-0.49-3.08,1.22-2.45c4.07,1.5,5.15-1.37,6.16-3.88c1.21-2.98,0.56-5.87-1.88-8.23c-0.82-0.8-1.51-1.77-2.09-2.77
				c-0.91-1.56-0.5-3.04,1.06-3.83c3.55-1.8,7.96-3.11,8.75-7.45c0.93-5.15-0.69-10.46-2.76-15.04c-2.98-6.61-6.26-13.1-9.21-19.75
				c-0.87-1.95-1.96-5.76-4.85-4.72c-2.79,1-4.98,3.85-4.57,7.54l0.13-0.13c-8.72-1.16-17.49-1.59-26.28-1.63
				c-0.26-2.14-0.3-4.26,0.28-6.37l-0.13,0.14c6.13,4.4,13.71,1.43,20.25,3.96c0.83,0.32,2.26-0.44,3.23-1.01
				c5.62-3.34,8.11-14.06,3.52-18.55c-4.81-4.71-7.15-10.45-9.98-16.2c-4.66-9.45-9.71-11.17-19.8-7.55
				c-0.96,0.34-2.54,0.85-2.6-0.12c-0.32-5.08-3.71-2.46-5.82-2.35c-2.53,0.13-4.97-0.02-7.43-0.52
				c-6.85-1.39-13.85-1.68-20.75-2.67c-7.21-1.03-14.73,0.41-21.66-2.75c-1.98-0.91-4.6-2.19-5.55,0.64
				c-1.1,3.28,2.08,3.32,4.26,3.99c9.41,2.88,19.14,2.24,28.76,2.64c4.42,0.18,7.97,2.04,11.96,4.02c-1.81,0.99-3.26,1.23-4.79,1.14
				c-10.31-0.56-20.39-2.7-30.56-4.23c-4.58-0.69-9.18-1.2-13.76-1.98c-1.83-0.31-4.62-0.67-5.03,1.81
				c-0.34,2.07,2.39,2.36,3.94,3.11c1.73,0.83,4.32,0.12,5.3,2.91c-3.77,1.35-6.23-1.57-9.23-2.11c-2.76-0.5-4.47-0.57-6.49,1.78
				c-2.25,2.6-0.05,3.92,1.16,5.61c-0.73,0.24-1.05,0.46-1.34,0.42c-0.65-0.09-1.34-0.19-1.9-0.5c-5.03-2.73-9.99-5.13-15.98-2.55
				c-1.89,0.81-4.16-0.02-6.3-0.71c-7.22-2.34-14.05-6.13-21.89-6.2c-2.12-0.02-3.87-0.65-5.51-1.94
				c-5.75-4.54-12.84-6.83-18.73-11.21c-3.46-2.57-4.85-1.57-5.09,2.73c-0.14,2.46,0.55,5.3-1.11,7.26c-3.1,3.65-1.41,6.1,1.55,8.33
				c8.11,6.1,16.18,12.28,25.24,16.99c4.31,2.24,8.75,4.03,13.58,4.74c1.31,0.19,2.84,0.62,3.62-0.8c0.95-1.72-0.77-2.19-1.78-2.96
				c-2.51-1.92-5.01-3.85-7.46-5.84c-6.56-5.32-12.71-11.03-17.33-18.2c8.99,7.69,18.2,15.06,27.6,22.18
				c11.93,9.04,25.02,15.59,39.71,19.06c12.56,2.97,25.22-0.32,37.76,1.33c1.11,0.15,2.57,0.18,2.86-1.3
				c0.26-1.3-0.85-2.08-1.87-2.69c-1.97-1.19-4.19-0.99-6.34-0.94c-5.56,0.14-11.02-0.5-16.15-2.64
				c-13.77-5.74-27.27-12.09-41.48-16.8c-3.45-1.15-7.48-2.43-9.98-6.19c2.9-0.7,4.29,1.5,6.14,2.32
				c9.26,4.14,19.23,6.12,28.62,9.83c8.63,3.41,16.99,7.65,26.19,9.45c3.71,0.73,7.53,1.4,11.28,1.31c3.02-0.07,1.99-4.27,4.29-5.63
				c1.37-0.81,1.82-2.4,1.22-3.98c-0.68-1.78-2.3-1.57-3.81-1.63c-9.99-0.43-19.6-3.26-29.41-4.87c-2.72-0.45-5.23-2.18-8.66-3.68
				c4.5-2.08,6.65,1.45,9.61,1.91c5.69,0.87,11.26,2.43,17.04,3.06c7.57,0.82,15.19,2.85,21.92-2.79c0.31-0.26,1.16,0.11,2.34,0.26
				c-2.36,3.56-4.36,6.77-6.54,9.85c-2.46,3.48-4.17,6.88-0.85,10.83c1,1.19,0.82,2.79,0.91,4.3c0.22,3.75-1.97,7.26-1.82,10.66
				c0.67,14.81-4.1,29.07-3.63,43.9c0.33,10.34-3.39,20.47-2.5,31.09c0.68,8.11,3.1,11.51,11.42,11.7
				c4.66,0.11,9.47-0.51,13.84,1.36c4.44,1.9,8.91,2.38,13.63,2.3c4.95-0.08,5.85-0.98,4.71-5.99c-2.51-11.02-6.09-21.77-7.77-33
				c-0.79-5.28-0.18-10.96-1.7-15.79c-3.15-10.02-3.89-20.52-7.31-30.45c-2.09-6.09-3.06-12.57-4.53-18.87
				c-0.26-1.1-0.87-2.39,0.45-3.15c1.28-0.74,2.23,0.26,2.98,1.13c0.86,1,2.04,2.07,2.21,3.24c0.51,3.46,2.98,5.59,4.83,8.88
				c0.95-2.59,1.26-5.08,4.27-4.61c3.69,17.85,2.48,36.09,2.97,54.07c0.31,11.55,5.3,21.93,4.93,33.28
				c-0.04,1.2,0.99,2.42,1.44,3.67c2.11,5.82,0.73,8.13-4.32,11.18c-3.87,2.33-7.17,5.78-10.29,9.13c-1.52,1.63-2.55,2.56-4.47,1.14
				c-1.4-1.02-3.01-1.32-4.62-1.76c-3.01-0.81-3.61-2.6-1.84-5.23c1.02-1.52,3.88-2.47,2.32-4.87c-1.62-2.5-4.55-2.57-7.23-2.44
				c-2.79,0.14-4.69,1.88-5.45,4.43c-0.72,2.43-1,5.64,1.39,6.89c4.68,2.45,7.79,6.64,11.92,9.68c5.7,4.2,10.66,5.71,16.49-0.73
				c-2.2,8.3-1.52,9.43,4.97,14.06c4.74,3.38,9.09,7.31,12.45,12.34c-5.11-3.5-10.3-6.87-15.29-10.53
				c-8.54-6.26-19.07-9.28-26.92-16.68c-2.05-1.93-3.79-0.28-4.76,1.63c-4.44,8.74-8.69,17.57-11.53,26.98
				c-1.4,4.64-0.79,9.34,1.03,13.72c2.89,6.93,2.6,13.79-0.44,20.37c-5.5,11.93-7.26,24.79-9.95,37.42
				c-1.78,8.31-6.43,13.01-14.81,14.2c-2.3,0.33-3.31,0.97-3.92,3.45c-2.84,11.45-3.28,23.81-12.11,33.11
				c-2.38,2.51-1.31,6.21-2.76,9.35c-2.16,4.66-4.29,9.65-4.4,15.14c-0.22,12.05-2.93,23.36-10.43,33.18
				c-2.98,3.9-2.84,9.08-5.23,13.38c-3.95,7.1-6.59,14.87-11,21.81c-5.18,8.15-8.89,16.94-9.75,26.76c-0.2,2.29-1.13,4.51-1.67,6.78
				c-1.37,5.74,0.39,8.06,6.32,8.48c10.29,0.74,20.63,0.69,30.83,2.61c2.23,0.42,4.51,0.92,5.31,3.16c1.37,3.83,4.22,4.16,7.59,4.06
				c14.31-0.43,28.56-0.69,42.73,2.55c7.65,1.75,15.6,0.45,23.31-1.06c8.33-1.64,16.64-0.96,24.88,0.22
				c9.1,1.3,18.22,1.67,27.37,1.82c1.49,0.03,3.23,0.4,4.06-1.18c0.93-1.74-0.75-2.76-1.72-3.76c-7.84-8.07-11.17-18.66-16.02-28.41
				c-5.56-11.18-11.49-22.14-20.66-30.94c-7.01-6.73-5.8-20.4,0.17-24.67c4.49-3.22,9.06-6.55,14.43-8.43
				c6.16-2.16,10.52-5.9,11.91-12.73c0.67-3.28,2.9-6.04,5.47-8.2c7.34-6.17,9.71-14.61,10.03-23.51c0.22-5.96,1.39-11.51,3.37-17
				c0.66-1.82,2.31-3.86-1.63-3.89c-1.51-0.01-1.47-1.7-1.46-2.78c0.04-5.96,0.18-11.91,0.32-17.87c0.01-0.45,0.32-1.25,0.55-1.27
				c7.2-0.65,1.44-2.73,0.71-4.65c-0.9-2.37-0.15-5.11,1.04-7.2c1.11-1.94,2.06-0.14,2.69,1c0.62,1.11,1.59,2.28,2.62,0.95
				c1.61-2.07,3.14-4.42,2.06-7.33c-0.8-2.14-1.85-1.3-2.9-0.18c-0.49,0.53-1.18,0.89-1.65,0.23c-0.32-0.45-0.39-1.3-0.21-1.86
				c1.28-3.9,4.53-6.43,7.05-9.41c1.19-1.41,3.11-0.46,3.68,1.65c0.37,1.37,0.99,2.58,2.68,2.38c1.17-0.14,1.52-1.19,1.75-2.17
				c0.37-1.56,0.42-3.19-1.46-3.71c-3.89-1.06-2.92-2.42-1.21-5.19c2.47-4,5.88-7.22,8.31-11.18c2.69-4.37,2.32-5.07-2.56-6.55
				c-2.71-0.82-5.25-2.28-8.04-0.42L1088.68,804.42z M1035,575.01c-0.01,1.33-0.14,2.67-0.01,3.99c0.22,2.24,1.68,4.07,3.73,4.07
				c2.81,0.01,1.82-2.79,1.86-4.3c0.09-4-2.34-4.7-5.7-3.62c0.52-1.69,1.93-3.76,0.67-5.07c-1.7-1.77-2.91,1.26-4.64,1.43
				c-0.9,0.09-1.9,0.65-2.55,1.3c-0.89,0.88-2.74,1.51-2.34,2.87c0.61,2.07,2.53,0.56,3.85,0.74
				C1031.73,576.68,1033.39,575.87,1035,575.01z M926.02,860.13c8.05,0.13,14.05-0.02,19.84-1.87c4.58-1.46,7.57-5.79,12.42-6.89
				c8.84-2.01,12.08-8.4,13.09-16.71c1.02-8.45,2.8-16.78,6.53-24.5c3.62-7.52,4.01-15.17,2.38-23.24
				c-1.04-5.14-4.24-8.89-6.91-13.05c-1.3-2.02-3.49-5.08-1.26-6.3c2.21-1.2,1.28-1.92,1.15-3.16c-0.56-5.15-1.86-10.13-3.37-15.07
				c-0.29-0.94-0.47-2.23,0.66-2.59c1.29-0.41,1.47,0.93,1.84,1.82c2.29,5.57,3.09,11.5,4.29,17.33c0.22,1.06-0.58,2.53,0.99,2.97
				c1.7,0.48,2.24-0.99,2.84-2.18c2.72-5.41,3.86-11.28,4.83-17.16c1-6.06-0.34-12.24,0.72-18.34c0.32-1.83-0.39-3.96,2.84-2.67
				c1.71,0.68,3.04-0.36,3.15-2.14c0.13-1.91-1.31-2.32-2.99-2.52c-5.65-0.69-7.08-3.26-7.65-8.77c-0.73-6.99,0.71-14.29-2.93-20.99
				c-1.14-2.09-1.93-5.35,2.23-6.23c1.87-0.4,1.77-2.12,2.13-3.56c0.97-3.98,0.15-7.97,0.14-11.95c-0.03-9.05,2.8-17.73,3.18-26.72
				c0.41-9.63,0.45-9.63-8.72-11.58c-0.65-0.14-1.28-0.38-1.89-0.65c-8.71-3.91-18.32-4.38-27.39-7.01
				c-7.19-2.09-14.47-3.67-21.29-6.92c-6.73-3.2-13.23-6.96-21.08-7.07c-10.37-0.15-19.14-4.85-27.74-10.14
				c-5.28-3.25-9.75-7.52-14.89-10.91c-1.86-1.23-3.18-1.67-4.24,0.88c-4.93,11.79-9.66,23.66-15.18,35.21
				c-4.8,10.03-2.14,20.92-2.13,31.5c0.01,8.22,5.15,16.48-0.08,24.69c-0.23,0.36,0.23,1.26,0.53,1.83c1.3,2.45,1.26,5.14,1.51,7.78
				c0.37,3.91-0.22,7.9,2.32,11.52c1.08,1.53,1.32,4.29-2.29,3.54c-1.56-0.32-2.1,0.4-2.49,1.66c-1.58,5.04-3.25,9.94,0.14,15.09
				c1.41,2.14,1.75,4.99,2.5,7.53c0.33,1.13,0.46,2.74,1.7,2.81c4.29,0.24,3.38,3.38,3.42,5.85c0.22,13.31,0.35,26.66,2.63,39.78
				c2.84,16.34,7.42,32.48,3.43,49.27c-0.11,0.48-0.07,0.99-0.1,1.49c-0.12,2.39,0.6,3.8,3.2,4.77c5.91,2.21,12.05,4.3,17.29,7.69
				C891.43,854.71,909.4,858.44,926.02,860.13z M811.11,518.41c1.28,1.19,0.94,2.46,0.62,3.47c-1.46,4.52,2.9,6.06,4.76,8.59
				c1.34,1.82,1.98-1.73,3.31-2.4c1.45-0.74,2.09,0.51,3.05,1.03c2.2,1.17,3.26,4.81,6.94,2.99c0.79-0.39,1.45,1.16,1.36,2.23
				c-0.13,1.61,0.34,2.97,1.53,4.05c2.56,2.32,3.02,4.35-0.65,6.02c-2.28,1.04-2.05,2.4-0.23,3.68c3.53,2.47,6.89,5.19,11.63,5.21
				c4.48,0.02,8.72,0.55,11.75,4.86c1.27,1.82,3.91,3.18,6.18,3.7c7.92,1.83,13.92,6.89,20.32,11.31c1.35,0.93,2.67,2.55,4.41,1.55
				c2.56-1.47,4,0.07,5.7,1.43c1.84,1.48,3.9,2.58,6.33,2.74c4.72,0.32,9.08,1.99,13.48,3.51c9.8,3.39,15.45,0.13,19.52-9.66
				c1.18-2.85,1.05-6.11,3.08-8.64c2.23-2.78,3.06-6-0.48-8.18c-3.66-2.25-6.4,0.16-8.26,3.14c-4.39,7-9.4,8.67-16.21,4.64
				c-3.6-2.13-7.46-2.53-11.4-3.08c-1.55-0.22-3.04-1.05-2.59-2.97c0.41-1.72,1.89-1.77,3.21-1.09c1.72,0.89,3.17,0.01,4.79-0.26
				c4.27-0.72,8.25-3.2,13.01-1.22c2.65,1.1,6.3-2.61,5.93-5.69c-0.37-3.06-1.93-5.39-5.66-4.71c-2.57,0.47-4.98-0.03-7.28-1.14
				c-4.81-2.32-9.85-3.91-14.93-5.52c-3.99-1.26-6.58-0.73-9.22,2.35c-1.2,1.4-2.56,4.25-4.54,3.25c-3.48-1.74-7.82-1.46-10.37-5.98
				c-1.72-3.05-4.41-8.33-10.47-5.02c-1.79,0.98-2.93-1.27-2.86-3.03c0.1-2.43-0.9-4.18-2.66-5.61
				c-10.57-8.53-18.88-19.11-26.88-29.92c-4.66-6.3-9.12-12.65-16.37-16.38c-3.08-1.58-7.79-3.27-8.37-5.72
				c-1.14-4.81-3.78-5-7.38-5.05c-0.26,1.49,2.05,3.5-0.15,4.41c-4.06,1.67-6-3.21-10.91-3.17c5.13-3.34,9.27-5.06,13.82-6.38
				c4.29-1.24,4.4,0.62,3.54,4.69c3-2.72,5.11-2.74,7.31-0.58c1.23,1.21,0.86,1.95-0.08,2.87c-0.92,0.91-1.43,1.91-0.48,3.06
				c0.7,0.84,1.66,1.11,2.7,0.7c1.27-0.5,1.81-1.63,1.55-2.83c-0.4-1.8,0.52-3.13,0.99-4.69c0.94-3.12,0.73-5.75-2.44-8.26
				c-5.05-4-10.59-6.83-16.45-9.23c-9.09-3.72-18.25-5.95-28.14-2.75c-3.69,1.19-5.76,3.79-5.44,6.78
				c0.47,4.42-1.55,7.37-3.83,10.37c-3.06,4.02-5.21,8.54-7.3,13.03c-2.07,4.44-1.89,9.12,1.43,13.17c3.77,4.6,8.45,7.96,14.3,9.29
				c3.17,0.72,4.42,2.65,4.72,5.58c0.18,1.74-0.43,3.9,2.06,4.52c2.53,0.62,2.23-2.49,4.3-3.37c-0.32,3.39,3.1,4.13,4.1,6.62
				c0.33,0.83,1.05,1.4,1.96,0.77c0.74-0.52,0.93-1.4,0.57-2.23c-1.1-2.6-2.11-5.25-3.42-7.75c-1.05-2-1.73-4.12,0.69-5.05
				c2.22-0.86,2.36,1.74,2.99,3.13c1.48,3.29,1.57,7.22,4.78,9.7c1.2,0.92,2.21,2.17,3.9,1.78c2.04-0.48,1.61-2.16,1.59-3.65
				c-0.02-1.49,0.44-2.79,2.26-2.44c1.56,0.3,2.08,1.6,1.89,3.06c-0.11,0.79-0.46,1.59-0.86,2.3c-0.87,1.54-1.57,3.32-0.03,4.54
				c1.59,1.25,1.55-2.56,3.44-1.58c1.23,2.02,0.46,4.79,2.13,6.82c1.61-1.27,0.83-2.76,1.2-3.97c0.29-0.95,0.41-2.31,1.55-2.28
				c1.66,0.05,1.29,1.59,1.29,2.69c0,2.05-0.7,4.25,1.2,5.9C809.73,521.53,808.88,518.99,811.11,518.41z M1093.07,1057.46
				c-3.11-3.8-6.63-5.05-9.84-6.3c-7.5-2.9-14.57-8.83-23.49-4.2c-0.77,0.4-2.06,0.26-2.93-0.08c-6.68-2.61-13.82-2.15-20.71-2.71
				c-8.34-0.68-16.71-1.68-25.27,0.43c-6.65,1.64-13.86,2.67-20.81,1.06c-14.09-3.25-28.36-3.47-42.67-2.99
				c-3.93,0.13-7.17-0.8-9.72-3.93c-2.07-2.54-4.69-4.02-8.12-4.3c-9.12-0.74-18.31-0.58-27.37-2.11c-2.31-0.39-4.19,0.67-3.14,2.86
				c2.45,5.13,5,10.13,10.22,13.51c7.02,4.54,14.86,8.27,19.13,16.19c2.36,4.38,4.98,8.62,7.55,12.88c1.49,2.47,3.05,4.72,6.64,4.1
				c8.7-1.51,17.31-3.4,25.83-5.74c1.64-0.45,3.03-1.4,4.03-2.81c2.5-3.52,6.06-4.2,10.1-4.23c5.14-0.05,10.38,0.41,15.41-0.85
				c12.4-3.12,24.65-6.89,37.13-9.62c6.22-1.36,12.78-3.4,19.2-1.63C1066.91,1060.49,1079.45,1056.46,1093.07,1057.46z
				 M876.65,885.61c3.25,0.72,5.22,2.77,6.44,5.24c2.74,5.53,7.57,8.72,12.48,11.86c1.12,0.71,2.64,0.94,2.55,2.63
				c-0.14,2.56,1.81,3.41,3.5,4.37c10.32,5.9,24.23,0.55,30.7-6.47c9.61-10.44,13.53-23.34,18.03-36.11
				c0.63-1.77,0.64-3.77-0.72-5.19c-1.41-1.48-3.12-0.62-4.6,0.18c-3.07,1.66-6.48,1.34-9.76,1.72c-1.81,0.21-3.84,0.01-4.91,1.87
				c-1.96,3.4-5.2,3.68-8.6,4.03c-2.23,0.23-5.46-0.53-6.35,1.86c-1.11,2.95-3.2,3.45-5.56,4.18c-1.07,0.33-2.69,0.46-2.55,1.91
				c0.18,1.77,1.98,1.44,3.22,1.56c3.47,0.33,7.01,0.14,10.3,1.67c-6.39,1.29-12.71,1.89-18.81-1.23c-1-0.51-2.13-1.4-3.26-0.62
				c-1.53,1.06-0.01,2,0.37,2.95c0.43,1.09,0.44,1.93-0.96,2.21c-3.27,0.67-12.4-7.39-11.82-10.67c0.26-1.47,0.5-2.64-0.87-3.45
				c-0.93-0.55-1.56,0.28-1.97,0.97c-0.72,1.21-2.5,2.6-1.02,3.92c4.31,3.86,6.47,9.65,12,12.47c3.12,1.59,5.7,4.23,8.52,6.39
				c-4.71,0.88-6.67-4.55-10.87-4.38c-1.32,2.21,1.89,3.03,1.26,5.4c-5.28-2.39-8.65-6.52-11.94-10.49c0.33-2.12,3.24,0.9,2.67-1.51
				c-0.52-2.19-1.94-4.31-4.05-5.51c-1.23-0.71-1.64,0.68-2.08,1.47c-1.86,3.35-3.69,6.7-5.46,10.1c-0.6,1.15-2.91,2.16-0.99,3.66
				c1.61,1.26,3.08-0.41,4.46-1.2C878.47,889.99,876.26,887.84,876.65,885.61z M1052.23,984.72c-6.38,1.77-7.84,3.91-5.13,7.95
				c1.84,2.74,4.65,4.72,5.02,8.49c0.19,1.92,3.82,2.31,3.65,4.41c-0.47,5.63,2.23,8.9,6.88,11.31c1.18,0.61,1.87,2.18,1.25,3.51
				c-2.24,4.83,0.63,5.71,4.45,6.36c3.32,0.57,5.77,2.58,6.47,6.02c0.47,2.3,1.71,3.5,3.88,3.96c1.69,0.36,3.2,1.01,3.95,2.72
				c1.02,2.33,3,2.65,5.26,3.07c2.85,0.53,6.44,1.07,4.2,5.66c-0.46,0.93,0.01,1.64,0.86,1.99c3.72,1.53,7.51,2.84,11.63,2
				c1.34-0.27,2.56-1.11,3-2.42c0.58-1.73-1.18-2.09-2.09-2.95c-5.09-4.86-11.32-8.39-17.26-11.63
				c-15.97-8.7-22.56-24.07-30.47-38.71c-0.53-0.97-0.52-1.95,0.41-2.68c0.91-0.71,1.84-0.66,2.65,0.23
				c0.98,1.09,2.41,1.81,2.63,3.51c0.23,1.78,0.93,3.68,3.09,2.65c1.91-0.92,2.07-3.21,0.87-4.78c-2.37-3.08-3.4-6.79-5.25-10.1
				c-0.5-0.89-0.84-1.9-2.1-1.71c-1.14,0.17-1.6,1.13-1.89,2.1c-0.44,1.49,0.28,3.83-3.76,3.6c2.78-2.42,1.58-4.05,0.64-6.33
				c-1.52-3.7-6.11-6.11-6.01-9.4c0.17-5.58-3.58-7.89-6.45-10.94c-4.69-4.98-7.33-4.65-10.61,1.05c-1.58,2.75-1.34,6.02,0.78,8.33
				c1.94,2.12,4.36,0.89,6.18-0.82c2.95-2.78,5.14-2.58,7.16,1.15C1048.3,976.35,1050.19,980.55,1052.23,984.72z M1054.01,948.34
				c1.07,1.8,1.83,3.4,2.89,4.78c1.44,1.87,4.12,3.26,0.33,5.71c-1.39,0.9,0.42,2.23,1.5,2.07c7.03-1.07,9.15,4.59,11.11,8.98
				c5.13,11.49,12.01,22,17.75,33.13c1.6,3.09,4.61,4.69,7.7,6.04c0.88,0.39,1.85,1.09,2.69,0.02c0.72-0.9,0.39-1.96-0.1-2.82
				c-1.64-2.91-3.43-5.73-6.27-7.65c-2.5-1.69-4.51-3.29-0.98-6.04c1.33-1.04,0.61-2.51-0.81-2.33c-6,0.73-7.47-3.87-9.51-7.75
				c-5.81-11.04-11.88-21.89-20.24-31.26C1058.58,949.54,1057.24,947.52,1054.01,948.34z M1090.95,1027.84
				c-4.63-1.34-5.46-6.15-8.77-8.15c-5.92-3.57-9.49-8.91-12.25-14.96c-0.8-1.75-1.58-3.74-3.88-2.38
				c-1.77,1.04-1.17,2.62-0.13,4.27c6.75,10.73,14.62,20.27,25.99,26.5c2.28,1.25,4.68,2.91,6.1,5.01
				c2.74,4.08,7.17,5.21,10.99,7.42c0.96,0.55,2.35,1.19,3.12-0.1c0.64-1.07,0.03-2.59-0.87-3.14c-4.27-2.57-6.32-7.66-11.05-9.64
				c-3.19-1.33-5.69-2.87-5.66-7.08c0.01-1.82-2.48-4-4.21-3.25c-2.63,1.14,0.05,2.94,0.51,4.46
				C1090.86,1026.95,1090.86,1027.12,1090.95,1027.84z M858.58,1033.91c4.05,9.75,11.47,14.98,16.89,21.65
				c2.54,3.12,4.56,6.9,8.13,9.3c2.19,1.47,4.01,1.78,5.65-0.29c1.76-2.21,0.23-3.81-1.59-4.87c-8.24-4.82-12.9-13.31-19.95-19.34
				c-1.45-1.24-2.49-2.61,0.41-3.44c0.79-0.23,1.76-0.57,1.32-1.64c-0.46-1.11-1.86-1.42-2.51-0.81
				C864.62,1036.62,862.35,1035.44,858.58,1033.91z M871.75,996.56c4.37,5.62,10.61,6.87,16.34,9.04c1.44,0.54,4.37-0.29,3.37,2.74
				c-0.7,2.12-1.82,4.02-5.18,2.97c-4.88-1.52-9.88-2.59-14.2-5.51c-1.26-0.85-2.62-1.05-3.41,0.46c-0.8,1.53,0.79,1.81,1.66,2.5
				c4.52,3.63,10.09,5.1,15.37,6.89c3.06,1.04,7.1,0.99,8.36-3.82c1.3-4.95-0.45-10.88-4.21-10.98
				C883.58,1000.69,878.51,996.57,871.75,996.56z M1134.92,851.13c2.58,1.9,4.11,3.19,5.81,4.22c1.35,0.81,3.04,1.31,3.31-1.1
				c0.28-2.53-7.95-9.19-9.97-7.88c-2.41,1.57-3.47,0.15-5.17-0.91c-5.76-3.59-11.65-6.98-17.5-10.45c-0.24,1.41,0.04,2.03,0.5,2.44
				c9.14,8.1,20.42,13.82,27.21,24.57c0.82,1.3,2.61,1.83,3.9,0.44c1.39-1.49,0.16-2.69-0.89-3.84
				C1140.01,856.32,1136.9,855.05,1134.92,851.13z M1120.61,829.11c-0.38,0.3-1.14,0.6-1.26,1.07c-0.13,0.48,0.21,1.3,0.62,1.66
				c2.23,1.93,4.12,4.11,6.85,5.62c6.55,3.63,13.87,6.35,18.02,13.34c0.78,1.32,2.18,3.24,3.92,1.62c1.65-1.53,0.46-3.58-0.83-4.83
				c-4.71-4.54-8.42-10.21-14.99-12.66C1128.78,833.37,1124.88,831.15,1120.61,829.11z M863.01,918.31
				c-5.71-0.31,0.66,5.02-2.59,5.92c0.4,1.39,0.45,3.04,2.32,3.43c0.71,0.15,1.49-0.1,1.61-0.8c1.25-7.55,4.28-2.12,6.25-0.7
				c5.8,4.21,11.95,7.73,18.56,10.45c1.31,0.54,3.26,1.38,4.02-0.27c0.9-1.95-1.4-2.29-2.56-2.93c-7.9-4.36-16.41-7.68-23.3-13.77
				C866.13,918.58,864.69,918.27,863.01,918.31z M888.2,1034.54c-1.62,0.28-3.72-1.46-4.39,0.99c-0.3,1.11,1.25,1.19,2.27,1.17
				c1.69-0.03,4.04,0,3.68,2.1c-0.37,2.16-2.72,0.93-4.24,0.82c-3.16-0.23-6.14-1.09-9.04-2.37c-0.82-0.36-2.05-0.42-2.57,0.77
				c-0.34,0.77,0.28,1.25,0.88,1.53c6.52,3.06,13.09,5.99,20.21,7.43c2.23,0.45,3.64-0.25,3.85-2.59c0.2-2.25-0.66-3.51-3.21-3.08
				c-1.29,0.22-3.39,0.26-2.57-1.67C895.78,1033.29,890.85,1035.12,888.2,1034.54z M897.96,947.19c1.91,0.1,3.37-0.22,3.45-2.22
				c0.07-1.8-1.12-2.77-2.78-2.91c-2.16-0.19-4.14-0.82-6.21-1.49c-6.35-2.06-12.19-5.23-18.25-7.89c-1.15-0.5-2.66-1.43-3.41,0.32
				c-0.62,1.45,0.92,1.82,1.91,2.38c4.89,2.8,9.69,5.77,14.65,8.43C890.7,945.61,894.43,946.58,897.96,947.19z M1107.43,916.77
				c-0.74-2.84-2.99-4.59-5.8-5.9c-4.88-2.27-10.41-3.21-14.23-7.66c-1.54-1.79-4.33-1.77-5.71,0.13c-1.65,2.27,1.17,2.89,2.46,3.9
				c0.77,0.6,1.67,1.13,2.59,1.44c5.91,1.98,11.9,3.74,15.52,9.51c0.7,1.12,2.05,1.76,3.51,1.21
				C1106.77,919.02,1107.36,918.24,1107.43,916.77z M1114.1,872.48c2.6,2.63,5.09,5.37,7.82,7.85c1.86,1.68,3.72,2.87,1.05,5.48
				c-1.25,1.22-0.78,3.12,1.11,3.44c1.99,0.33,3.27-1.42,4.43-2.8c1.05-1.25,2.52-2.91,1.25-4.45
				C1125.8,877.19,1121.86,872.17,1114.1,872.48z M1112.97,843.19c1.41,3.12,3.05,4.46,5.1,5.75c3.18,2.01,7.07,3.67,8.7,7.18
				c1.98,4.25,5.57,6.9,8.43,10.26c0.81,0.95,1.84,2.41,3.26,1.28c1.28-1.02,0.57-2.62-0.24-3.59
				C1131.31,855.87,1123.89,848.24,1112.97,843.19z M889.75,1051.39c-1.39-0.1-2.92-0.32-3.32,1.38c-0.38,1.64,0.87,2.45,2.26,2.7
				c2.45,0.44,5.03,0.52,5.65,3.74c0.05,0.24,1.02,0.61,1.22,0.45c2.77-2.07,6.18-0.81,9.14-1.82c1.39-0.47,2.34-1.34,2.16-2.91
				c-0.19-1.73-1.5-2.05-2.93-1.91C899.08,1053.52,894.33,1053.09,889.75,1051.39z M1086.48,859.65c0.21,3.39,1.78,4.94,3.26,6.72
				c5.28,6.35,14.17,6.18,20.09,11.33c0.6,0.52,1.63,0.65,2.27-0.12c0.81-0.99,0.24-2.03-0.5-2.63c-2.19-1.79-4.71-3.02-7.23-4.32
				C1098.37,867.56,1091.15,866.53,1086.48,859.65z M903.2,968.95c1.41-0.09,3.71-0.14,6.01,0.38c1.07,0.24,2-0.32,2.17-1.5
				c0.18-1.19-0.58-1.98-1.66-2.04c-5.43-0.31-10.92,0.33-16.28-1.09c-0.24-0.06-0.77,0.18-0.84,0.39
				c-1.81,5.07-4.25,3.06-6.87,0.72c-0.71-0.64-1.87-1.01-2.68-0.11c-0.32,0.35-0.37,1.46-0.08,1.76c2.1,2.12,4.97,5.13,7.52,3.22
				C894.47,967.71,898.31,968.99,903.2,968.95z M1018.23,661.24c2.53-1.98,2.42-4.37,2.07-6.34c-1.03-5.81-2.38-11.58-4.63-17.07
				c-0.48-1.18-0.7-3.58-2.65-2.71c-1.71,0.76-1.42,3.01-0.64,4.48c1.93,3.63,2.34,7.59,3.16,11.5
				C1016.24,654.42,1017.27,657.67,1018.23,661.24z M968.12,627.91c5.69,1.91,10.83,3.76,16.45,3.61c1.64-0.04,2.84-0.9,3.06-2.66
				c0.17-1.35-0.52-2.35-1.81-2.52C980.08,625.58,974.26,623.92,968.12,627.91z M870.14,947.01c0.37,1.61,1.54,2.52,2.84,3.27
				c3.71,2.13,7.52,4.12,11.14,6.4c1.72,1.09,3.09,1.32,4.17-0.47c1.17-1.93-0.12-3.18-1.71-3.93c-4.62-2.16-9.29-4.2-13.95-6.27
				C871.51,945.51,870.36,945.17,870.14,947.01z M1136.69,871.99c-0.08-0.46-0.02-0.9-0.21-1.09c-3.42-3.51-6.84-7.02-10.36-10.43
				c-0.53-0.51-1.64-0.45-2.29,0.21c-1.03,1.05-0.63,2.32,0.14,3.14c2.92,3.14,5.87,6.27,9.04,9.15
				C1134.32,874.18,1136.08,874.32,1136.69,871.99z M885.3,972.58c-0.22-0.35-0.37-0.89-0.72-1.11c-5.73-3.53-11.49-7.01-17.24-10.5
				c-0.8-0.48-1.7-0.49-2.23,0.26c-0.74,1.03-0.05,1.81,0.77,2.51c4.95,4.19,11.02,6.51,16.46,9.89
				C883.35,974.25,884.62,974.09,885.3,972.58z M882.72,1026.12c-2.56,0-3.89-0.03-5.22,0.01c-0.89,0.02-1.73,0.4-1.92,1.28
				c-0.2,0.9,0.41,1.63,1.29,1.87c3.68,1.02,7.36,2.04,11.07,2.94c1.19,0.29,2.37-0.14,2.92-1.38c0.61-1.37-0.36-2.16-1.29-2.89
				C887.15,1026.07,884.37,1025.9,882.72,1026.12z M868.13,970.11c2.85,5.33,8.2,6.93,13,9.28c1.06,0.52,2.44,0.44,3.03-0.8
				c0.7-1.46-0.79-1.95-1.62-2.62C878.34,972.61,872.95,972.09,868.13,970.11z M1142.93,824.18c-1.5-6.83-6.51-6.82-10.41-8.28
				c-1.39-0.52-3.11-1.16-3.92,0.67c-0.82,1.84,1.02,2.47,2.11,3.42C1134.08,822.94,1138.83,820.48,1142.93,824.18z M1108.62,886.28
				c-1.18-3.58-12.29-8.98-15.3-7.71c-0.85,0.36-1.44,0.91-1.33,1.84c0.13,1.09,0.95,1.96,1.92,2.03
				C1098.99,882.81,1103.51,885.37,1108.62,886.28z M908.2,927.3c-6.26-3.66-13.62-4.24-19.95-7.69
				C892.85,927.85,901.18,925.75,908.2,927.3z M880.11,961.54c1.55,0,3.1,0.05,3.96-1.52c0.37-0.67,0.03-1.47-0.6-1.67
				c-3.86-1.18-6.92-3.86-10.54-5.48c-0.93-0.42-2.04-0.3-2.73,0.59c-0.57,0.73-0.5,1.87,0.2,2.24
				C873.76,957.46,876.21,960.75,880.11,961.54z M866.44,973.94c-0.42,0.23-1.14,0.43-1.17,0.68c-0.05,0.58,0.1,1.3,0.44,1.75
				c3.3,4.35,7.96,6.64,12.98,8.29c1.05,0.35,2.52,0.53,2.93-0.93c0.43-1.55-0.96-1.88-2.09-2.12c-3.64-0.78-6.37-3.38-9.67-4.85
				C868.59,976.19,867.62,974.94,866.44,973.94z M901.35,1069.52c1.27-0.88,3.88,1.14,4.06-1c0.15-1.72-2.24-2.52-4.17-2.84
				c-2.61-0.43-5.15-1.43-7.87-0.93c-1.04,0.19-1.99,0.6-2.11,1.77c-0.15,1.44,0.79,2.13,2.09,2.27
				C896,1069.06,898.65,1069.27,901.35,1069.52z M892.3,862.1c2.69,4.17,5.58,6.8,8.95,8.89c0.82,0.51,3.16,1.05,2.75-0.18
				c-0.78-2.34-0.45-6-3.42-6.7C898.2,863.55,895.88,862.64,892.3,862.1z M917.05,281.09c-0.7,3.91,3.02,3.48,4.63,5.02
				c1.04,0.99,2.55,1.31,3.42-0.14c0.96-1.6,0.13-3.09-1.51-3.5c-3.76-0.93-5.16-2.72-3.1-6.39c0.51-0.91,0.69-2.04-0.77-2.25
				c-1.08-0.16-2.03,0.47-2.14,1.6C917.4,277.38,917.95,279.4,917.05,281.09z M894.78,987.39c-1.72-0.38-4.53-1.23-4.74,2.64
				c-0.13,2.38,2.02,2.88,3.84,2.87c2.95-0.03,5.55-2.63,5.81-4.42C900.06,985.91,897.08,987.55,894.78,987.39z M897.14,930.63
				c-0.36-0.35-0.76-0.91-1.3-1.21c-2.9-1.62-5.82-3.18-8.76-4.73c-0.9-0.47-1.99-0.91-2.69,0.11c-0.69,1.01,0.12,2.01,0.81,2.61
				c2.8,2.4,6.19,3.73,9.68,4.74C895.85,932.43,896.93,932.27,897.14,930.63z M906.35,1097.25c-0.81-2.23-0.14-5.96-3.51-6.46
				c-1.78-0.26-1.49,2.85-1.69,4.56c-0.32,2.64,1.03,4.82,3.37,5.37C906.79,1101.25,905.87,1098.8,906.35,1097.25z M987.97,741.68
				c-0.12,1.66-0.69,3.78,1.59,3.46c2.6-0.36,3.44-2.84,3.91-5.2c0.41-2.02-0.63-3.53-2.48-3.58
				C986.79,736.25,989.14,740.11,987.97,741.68z M1104.64,800.26c1.87,0.07,3.85-1.59,6.11-2.51c1.05-0.42,2.28-1,1.51-2.5
				c-0.62-1.2-1.9-1.44-2.99-0.94c-2.37,1.08-4.66,2.34-6.95,3.59c-0.61,0.33-0.9,0.98-0.53,1.67
				C1102.24,800.43,1103.06,800.45,1104.64,800.26z M887.74,996.87c-0.13-0.34-0.2-1.08-0.5-1.19c-3.38-1.21-6.46-3.28-10.15-3.52
				c-0.35-0.02-0.9,0.45-1.09,0.83c-0.38,0.76,0.18,1.27,0.79,1.55c2.69,1.23,5.39,2.48,8.14,3.59
				C886.04,998.56,887.26,998.58,887.74,996.87z M1041.94,973.33c-3.02,1.84,0.48,4.84-1.62,7.07c-0.97,1.04,1.43,1.63,2.69,1.62
				c1.76-0.02,3.72-0.46,2.99-2.73C1045.28,977.05,1044.18,974.77,1041.94,973.33z M1082.77,1013.93c-1.4-3.41-3.56-6.3-6.66-8.28
				c-1.09-0.7-2.05,0.69-1.39,1.61c1.82,2.51,2.76,5.71,5.62,7.44C1081.48,1015.37,1082.46,1015.92,1082.77,1013.93z M892.29,871.7
				c1.15-0.54,3.4-0.36,2.47-1.79c-1.53-2.36-3.11-5.27-6.73-5.2c-1.03,0.02-1.83,0.57-1.42,1.45
				C887.79,868.75,889.66,870.73,892.29,871.7z M931.7,287.93c-0.12,1.14-1.44,2.88,0.69,3.1c1.63,0.16,1.47-1.84,1.84-3.03
				c0.5-1.6,0.72-3.24,0.11-4.85c-0.5-1.32-0.86-3.26-2.87-2.53c-1.7,0.62-1.86,2.16-0.84,3.67
				C931.38,285.39,932.09,286.49,931.7,287.93z M906.82,962.73c0.02-0.41,0.04-0.81,0.06-1.22c-2.66-0.59-5.32-1.18-7.99-1.76
				c-1.22-0.26-2.89-1.24-3.29,0.69c-0.41,1.97,1.09,3.16,2.96,3.11C901.32,963.46,904.07,963.02,906.82,962.73z M892.77,917.53
				c-0.91-4.62-5.14-4.91-7.43-7.24c-0.19-0.2-1.36,0.17-1.68,0.58c-0.79,0.99-0.17,1.85,0.7,2.47
				C886.74,915.07,889.17,916.71,892.77,917.53z M1092.99,958.53c-1.36,0.14-1.8,1.03-1.48,2.07c0.74,2.36,1.62,4.85,4.62,5
				c1.32,0.07,1.16-1.2,0.98-2.22C1096.67,960.9,1095.38,959.22,1092.99,958.53z M1118.72,864.25c-0.64-3.89-3.33-5.58-6.28-6.94
				c-0.51-0.23-1.55,0.35-1.38,1.04c0.78,3.13,3.19,4.74,5.98,5.88C1117.43,864.39,1117.95,864.25,1118.72,864.25z M879.18,1016.5
				c-0.13,0.42-0.27,0.84-0.4,1.26c2.4,1.29,4.77,2.66,7.24,3.82c0.89,0.42,2.06,0.14,2.46-0.99c0.42-1.18-0.46-1.99-1.37-2.25
				C884.5,1017.62,881.83,1017.1,879.18,1016.5z M938.91,274.66c-0.15-1.44,0.47-3.59-1.54-3.63c-2.16-0.04-2.06,2.19-2.08,3.8
				c-0.02,1.52,0.2,3.37,2.12,3.29C939.73,278.04,938.53,275.87,938.91,274.66z M896.94,979.98c1.46-0.33,3.94,0.03,3.69-2.19
				c-0.25-2.2-2.96-1.61-4.61-2.08c-1.54-0.44-2.73,0.53-2.6,2.14C893.58,979.83,895.39,979.76,896.94,979.98z M1095.43,928.39
				c-1.84,0.11-2.73,1.15-2.63,2.9c0.1,1.79,1.23,2.66,2.98,2.57c1.76-0.08,2.79-1.09,2.73-2.86
				C1098.44,929.14,1096.97,928.67,1095.43,928.39z M900.7,958.04c1.87,0.01,3.28-0.69,3.35-2.74c0.06-1.68-1.21-2.23-2.65-2.2
				c-1.78,0.03-3.34,0.6-3.39,2.72C897.96,957.54,899.3,957.89,900.7,958.04z M900.25,974.36c1.48-0.61,4.37,0.9,4.42-1.52
				c0.04-1.88-2.76-1.93-4.57-1.83c-1.69,0.09-4.39-0.39-4.19,2.07C896.07,975.03,898.67,973.97,900.25,974.36z M891.87,984.9
				c1.31-0.12,2.59-0.56,2.35-1.99c-0.31-1.84-1.94-2.58-3.64-2.83c-1.31-0.19-2.41,0.32-2.2,1.87
				C888.65,983.91,890.28,984.46,891.87,984.9z M1115.29,885.16c-0.64,3.92,1.35,6.12,3.03,8.4c0.07,0.1,1.05-0.16,1.17-0.44
				c1.25-2.91-1.4-4.43-2.44-6.53C1116.86,886.21,1116.34,886,1115.29,885.16z M1091.93,947.85c-0.59-2-2.52-1.74-4.03-2.1
				c-0.84-0.2-1.9,0.17-1.52,1.27c0.54,1.56,1.48,3.13,3.36,3.2C1091,950.26,1091.83,949.32,1091.93,947.85z M1103.72,924.92
				c-0.82-1.68-1.78-3.45-4.01-3.62c-1.21-0.09-1.7,0.96-1.41,2.02c0.5,1.83,1.65,3.2,3.63,3.47
				C1103.06,926.94,1103.76,926.29,1103.72,924.92z M1150.04,845.85c1.65-0.07,2.07-0.95,2.06-1.98c-0.01-2.63-2.42-3.2-4.03-4.38
				c-0.54-0.39-1.45,0.23-1.26,0.93C1147.41,842.59,1148.63,844.41,1150.04,845.85z M878.37,942.33c-1.04,0.01-2.09,0.44-1.56,1.3
				c1.13,1.85,3.23,2.58,5.2,3.24c0.84,0.28,1.77-0.36,1.32-1.34C882.36,943.44,880.4,942.65,878.37,942.33z M910.96,231.34
				c1.41-0.03,1.77-0.98,1.77-2.01c-0.01-1.55-0.43-3.18-2.14-3.49c-1.34-0.24-2.06,1-2.07,2.25
				C908.52,229.73,909.43,230.85,910.96,231.34z M1098.71,942.45c0.1-1.5-0.36-2.65-2.05-2.72c-1.26-0.05-2.45,0.4-2.1,1.95
				c0.35,1.55,0.82,3.52,2.76,3.55C1098.62,945.24,1098.5,943.53,1098.71,942.45z M785.44,516.86c0.27,1.21-0.15,3.23,1.45,3.25
				c1.99,0.04,1.53-2.14,1.78-3.48c0.22-1.18,0.13-2.59-1.4-2.66C785.35,513.89,785.55,515.55,785.44,516.86z M944.3,568.43
				c-1.64,0.57-2.59,1.81-2.89,3.54c-0.16,0.95,0.36,1.79,1.26,1.7c1.83-0.17,2.95-1.4,3.22-3.18
				C946.06,569.46,945.7,568.53,944.3,568.43z M902.13,1063.47c1.34-0.44,3.83,0.63,3.88-1.53c0.04-1.75-2.29-1.19-3.63-1.24
				c-1.34-0.05-3.44-0.56-3.45,1.5C898.93,1063.96,900.87,1063.36,902.13,1063.47z"/>
			<path class="st0" d="M1006.59,216.57c-3.36,1.29-6,0.5-8.26-2.05c-0.68-0.76-1.46-1.62-2.51-1.04c-1.2,0.66-0.54,1.63-0.1,2.55
				c1.66,3.49-0.72,4.75-3.32,5.88c-1.11,0.48-4.1-0.94-3.06,1.46c1.11,2.57-0.92,7.52,3.01,7.56c5.88,0.05,11.46,3.86,17.46,1.22
				c0.76-0.33,2.12-0.42,2.16,0.41c0.1,2.06,0.47,4.83-0.65,6.09c-2.4,2.71-3.76,5.78-5.05,8.99c-0.57,1.42-1.26,2.47-2.87,1.08
				c-1.86-1.61-4.1-1.33-6.19-0.98c-2.73,0.46-4.98,1.12-6.37-2.51c-1.1-2.86-4.33,0.47-6.6-1.45c3.72-3.02,8.02-3.57,12.37-3.97
				c1.41-0.13,3.37,0.42,3.66-1.62c0.28-2-1.74-2.32-3.06-2.64c-6.23-1.5-11.67,0.05-16.11,4.71c-0.92,0.97-1.79,1.57-2.99,0.84
				c-1.2-0.74-0.84-1.78-0.62-3.04c0.98-5.7,5.68-11.21,1.12-17.29c-0.19-0.25-0.03-1.03,0.23-1.28c0.58-0.54,1.18-0.21,1.69,0.31
				c1.29,1.35,2.11,2.95,2.73,4.7c0.29,0.82,0.99,1.41,1.91,1.29c1.11-0.14,1.19-1.07,0.99-1.9c-0.48-1.9,0.88-2.54,2.03-3.54
				c1.61-1.4,3.14-2.92,3.28-5.36c0.13-2.33,1.33-3.7,3.9-3.39c1.04,0.12,2.01-0.18,2.75-0.92c3.36-3.38,4.83-3.14,4.01,1.99
				C1001.56,216.12,1005.71,214.1,1006.59,216.57z"/>
			<path class="st0" d="M1067.91,774.62c-2.58,3.71-6.26,5.57-10.23,7.04c-3.07,1.13-4.05,2.69-1.17,5.37
				c7.46,6.94,13.14,15.3,18.41,23.94c0.73,1.2,2.07,2.91,0.16,3.84c-2.08,1.02-1.93-1.35-2.72-2.47c-2.82-3.99-4.34-8.9-8.92-11.66
				c-4.18-2.52-5.63-7.71-9.68-10.55c-2.02-1.41-3.88-3.05-6.03-4.34c-3.93-2.36-5.67-5.92-4.74-10.54
				c0.22-1.12-0.46-3.17,1.75-2.75c1.64,0.31,2.91,1.32,2.79,3.48c-0.32,5.86,1.83,7.35,7.17,4.95
				C1059.15,778.92,1063.52,776.73,1067.91,774.62z"/>
			<path class="st0" d="M1046.15,627.83c3.95,4.01,4.93,9.41,5.23,14.46c0.47,7.99,2.61,15.67,3.26,23.59
				c0.15,1.87,0.4,3.62-1.45,5.33c-2.24-3.22-1.99-6.97-2.51-10.31c-1.42-9.29-1.87-18.72-4.74-27.78c-0.54-1.72-0.3-3.63,0.33-5.41
				C1046.28,627.7,1046.15,627.83,1046.15,627.83z"/>
			<path class="st0" d="M956.83,275.61c0.21-3.41-0.94-6.76,3.98-6.64c0.8,0.02,1.66-0.97,2.42-1.58c1.13-0.9,2.96-2.85,3.16-2.69
				c2.42,1.94,5.89,0.58,8.23,2.98c1.72,1.76,1.92,2.68-0.48,3.35c-2.92,0.82-5.62,1.91-7.83,4.08c-0.76,0.74-2.06,1.09-2.69,0.23
				C961.52,272.44,959.36,274.42,956.83,275.61z"/>
			<path class="st0" d="M924.23,240.2c-0.93-0.06-1.56,0.47-2.08,1.13c-0.82,1.02-1.72,1.83-2.64,0.23
				c-0.65-1.14-0.22-2.19,0.77-3.07c3.37-2.99,9.35-1.1,10.63,3.76c0.9,3.42-1.08,6.67-2.2,9.84c-0.44,1.25-2.37,0.85-3.63,0.37
				c-2.02-0.77-3.33-2.42-3.59-4.43c-0.27-2.1,1.68-0.68,2.53-1.12c1.81-0.95,2.6-2.51,2.48-4.45
				C926.42,241.18,925.53,240.42,924.23,240.2z"/>
			<path class="st0" d="M972.5,219.71c0.68,0.38,1.21,0.52,1.47,0.86c0.74,1,0.35,1.72-0.61,2.44c-2.63,1.98-1.9,4.43-0.36,6.52
				c2.09,2.84,2.3,3.36-1.7,5.15c-4.54,2.02-5.46,1.11-6.95-2.69c-0.92-2.35-4.96-5.07,1.7-4.18c1.59,0.21,1.4-1.53,1.73-2.56
				C968.6,222.72,971.27,221.93,972.5,219.71z"/>
			<path class="st0" d="M1025,742.25c2.29-7.69,11.63-5.41,14.19-12.04c2.98,3.24,2.61,4.93-0.27,7.69
				C1034.92,741.76,1030.24,741.47,1025,742.25z"/>
			<path class="st0" d="M1070.74,790.79c9.18-7.38,19.28-13.67,26.79-23C1092.45,779.97,1081.05,784.74,1070.74,790.79z"/>
			<path class="st0" d="M1058.26,754.54c-6.9,1.26-12.66,4.9-19.41,3.58c-1.11-0.22-2.75,0.1-2.85-1.33
				c-0.14-1.98,1.71-1.57,2.93-1.6c4.79-0.13,9.59,0.22,14.18-1.84C1054.48,752.73,1056.31,752.52,1058.26,754.54z"/>
			<path class="st0" d="M1085.46,795.36c4.18-5.7,10.95-8.39,15.66-13.49c1.66-1.79,3.73-3.2,5.89-4.47
				c-5.83,7.62-12.35,14.41-21.68,17.86L1085.46,795.36z"/>
			<path class="st0" d="M988.9,273.85c-2.15,5.36-7.26,8.82-9.16,14.37c-0.39,1.15-1.67,0.81-2.48,0.08
				c-0.99-0.88-2.42-2.41-1.11-3.25c4.84-3.1,7.36-8.84,12.88-11.06C989.03,273.98,988.9,273.85,988.9,273.85z"/>
			<path class="st0" d="M959.1,177.62c-4.76,4.84-9.11,0.49-13.56,0.19c-0.74-0.05-1.2-0.58-1.23-1.3
				c-0.04-1.03,0.75-1.56,1.58-1.45c2.69,0.36,5.48-1.08,8.13,0.94C955.31,176.99,957.28,177.08,959.1,177.62z"/>
			<path class="st0" d="M978.46,267.8c-0.15-3.42,2.21-5.2,3.02-7.67c0.79-2.43,3.11-1.01,4.16,0.45c1.16,1.61-0.22,3.48-0.27,5.26
				c-0.09,2.94-2.25,1.29-3.67,1.33C980.76,267.21,979.83,267.52,978.46,267.8z"/>
			<path class="st0" d="M931.35,225.5c9.57,4.88,9.92,5.52,5.66,10.8C937.02,231.35,933.59,228.81,931.35,225.5z"/>
			<path class="st0" d="M985.93,253.78c4.21-0.73,7.51,2.41,11.6,2.43C992.64,260.3,989.81,254.65,985.93,253.78z"/>
			<path class="st0" d="M955.63,285.56c-2.34-1.1-5.38-1.38-5.04-4.65c0.23-2.18,3.98-2.52,4.13-0.47
				C954.85,282.16,954.45,283.88,955.63,285.56z"/>
			<path class="st0" d="M1088.59,804.4c-2.59,1.94-5.18,3.87-7.75,5.84c-0.69,0.53-1.4,1.02-2.2,0.4c-0.89-0.7-0.58-1.69,0.21-2.02
				c3.27-1.38,5.58-5.02,9.81-4.19C1088.68,804.42,1088.59,804.4,1088.59,804.4z"/>
			<path class="st0" d="M934.26,201.18c3.57-0.24,5.25,0.88,6.1,3.06c0.29,0.75-0.31,1.9-1.16,1.88
				C936.33,206.03,936.19,203.24,934.26,201.18z"/>
			<path class="st0" d="M963.27,301.72c-1.62-2.68-0.82-4.67-0.41-6.63C965.53,296.89,965.2,298.86,963.27,301.72z"/>
			<path class="st0" d="M1085.34,795.26c-2.65,2.02-4.81,5.03-8.95,4.04c3.12-1.1,4.94-4.9,9.06-3.96
				C1085.46,795.36,1085.34,795.26,1085.34,795.26z"/>
			<path class="st0" d="M976,374.29c2.76,1.78,4.31,4.51,5.67,7.18c5.47,10.73,8.61,22.07,9.6,34.16
				c0.72,8.77,2.68,17.44,3.96,26.18c0.37,2.52,1.43,6.86-0.95,7.06c-2.87,0.24-2.14-4.11-2.5-6.57c-2.25-15.47-4.14-31-6.71-46.42
				c-1.06-6.34-4.19-12.13-8.03-17.4C976.21,377.34,974.72,376.38,976,374.29z"/>
			<path class="st0" d="M857.74,485.78c1.09,0.31,1.09,1.24,1.35,1.99c3.38,9.54,8.65,17.88,15.94,24.91
				c0.92,0.89,2.56,1.77,0.93,3.09c-1.24,1-2.43-0.03-3.38-1.12c-2.29-2.63-4.63-5.2-6.94-7.81c-0.44-0.5-0.72-1.38-1.24-1.53
				c-8.71-2.51-4.1-11.54-8-16.44C855.88,488.22,856,486.22,857.74,485.78z"/>
			<path class="st0" d="M968.51,355.15c1.53,4.78,1.86,10,5.83,13.8c0.67,0.64,0.89,1.93,0.07,2.72c-0.84,0.81-1.67,0.03-1.89-0.7
				C970.95,365.78,967.05,361.19,968.51,355.15z"/>
			<path class="st0" d="M818.07,405.05c2.24,2.53,2.87,5.2,3.9,7.62c0.16,0.37-0.39,1.12-0.77,1.58c-0.09,0.11-1.08-0.21-1.17-0.49
				C819.22,411.14,816.82,408.87,818.07,405.05z"/>
			<path class="st0" d="M925.94,317.51c2.05-2.55,3.7-3,5.6-1.89c0.68,0.4,1.05,1.72,0.42,2.11
				C930.12,318.85,928.49,317.41,925.94,317.51z"/>
			<path class="st0" d="M976.47,684.71c-10.11-12.2-11.94-28.71-22.13-40.87C966.89,654.78,968.78,671.25,976.47,684.71z"/>
			<path class="st0" d="M915.93,632.81c9.95,8.2,18.47,17.61,24.16,29.39C933.18,651.44,923.57,642.96,915.93,632.81z"/>
			<path class="st0" d="M941.93,836.15c-9.12,1.22-17.57-0.53-26.4-5.41C919.03,830,937.94,833.79,941.93,836.15z"/>
			<path class="st0" d="M977.43,660.21c-4.16-4.74-5.17-10.74-7.09-16.38C974.04,648.76,976.04,654.36,977.43,660.21z"/>
			<path class="st0" d="M958.82,834.98c-3.91,2.62-7.69,1.1-10.76,2.76c-0.59,0.32-1.22-0.42-1.09-1.17
				c0.15-0.87,0.79-1.54,1.65-1.56C951.68,834.93,954.74,834.98,958.82,834.98z"/>
			<path class="st0" d="M967.88,762.07c-2.13-3.72-4.45-7.36-4.57-12.07c1.9,3.83,3.8,7.66,5.7,11.48
				C968.64,761.68,968.26,761.88,967.88,762.07z"/>
			<path class="st0" d="M1020.27,619.7c-3.83,3.07-5.68,1.07-6.93-2.66c-1.59-4.73-3.44-9.31-7.17-12.86
				c-0.67-0.63-1.5-1.68-0.46-2.55c0.95-0.8,1.95,0.08,2.58,0.74c4.92,5.16,9.45,10.6,11.85,17.48
				C1020.15,619.84,1020.27,619.7,1020.27,619.7z"/>
			<path class="st0" d="M1014.05,590.1c5.54,3.35,11.21,6.52,16.58,10.12c2.93,1.96-0.65,4.04-0.67,6.16
				c-0.01,1.09-1.22,1.48-2.28,0.73c-1.73-1.24-2.23-2.52-0.82-4.56c1.47-2.14-0.95-2.29-2.07-2.93c-4.12-2.35-8.41-4.47-11.41-8.31
				C1013.61,590.91,1013.83,590.51,1014.05,590.1z"/>
			<path class="st0" d="M784.53,479.34c6.58-2.64,12.25,1.74,18.32,3.39C796.51,483.71,790.81,479.52,784.53,479.34z"/>
			<path class="st0" d="M924.99,898.99c-3.9,1.88-7.04,2.47-10.35,1.96c-1.01-0.16-1.97-0.68-1.87-1.89
				c0.11-1.33,1.28-1.5,2.22-1.23C917.94,898.66,921.14,896.79,924.99,898.99z"/>
		</g>
	</g>
</g>
</svg>
