<?xml version="1.0" encoding="utf-8"?>
<!-- Generator: Adobe Illustrator 28.0.0, SVG Export Plug-In . SVG Version: 6.00 Build 0)  -->
<svg version="1.1" id="Layer_1" xmlns="http://www.w3.org/2000/svg" xmlns:xlink="http://www.w3.org/1999/xlink" x="0px" y="0px"
	 viewBox="0 0 1920 1080" style="enable-background:new 0 0 1920 1080;" xml:space="preserve">
<style type="text/css">
	.st0{fill:none;stroke:#231F20;}
</style>
<g>
	<g>
		<g>
			<path d="M1063,292.06c-1.74-0.38-2.81-1.43-3.72-3c-3.68-6.37-9.08-11.06-15.64-14.16c-3.86-1.83-6.96-5.34-12.15-4.61
				c-4.99,0.7-9.69,5.61-7.25,9.93c3.82,6.76-0.47,12.13-1.91,17.82c-1,3.97-1.78,7.05,0.7,10.74c2.58,3.84,4.34,8.23,7.44,11.78
				c0.73,0.84,1.7,1.99,0.72,3.09c-1.11,1.25-2.21,0.14-2.96-0.66c-4.69-4.94-9.99-9.52-12.01-16.33c-1.32-4.45-4.12-5.3-8.32-5.16
				c-19.27,0.65-37.09-2.9-50.54-18.39c-6.33-7.29-14.55-11.45-23.71-13.96c-2.94-0.81-5.54,0.92-8.15,1.68
				c-2.21,0.64-0.52,2.45,0.43,3.49c2.34,2.55,5.56,4.36,6.74,7.89c0.45,1.33,1.76,2.99-0.16,3.95c-1.83,0.92-2.6-0.85-3.29-2.16
				c-3.5-6.63-9.3-10.05-16.23-12.27c-4.89-1.56-9.21,0.05-13.62,1.46c-2.97,0.95-1.46,2.77-0.53,4.31
				c2.07,3.42,4.3,6.73,6.22,10.23c0.73,1.32,1.81,3.41-0.34,4.33c-1.79,0.77-2.47-1.2-3.12-2.49c-2.6-5.14-6.36-9.35-10.55-13.18
				c-1.21-1.1-2.7-2.12-4.23-2.59c-2.66-0.81-6.13-1.94-7.84,0.68c-1.68,2.58,1.93,3.69,3.38,5.27
				c5.49,5.96,12.17,11.04,14.15,19.55c0.26,1.13,0.64,2.25,0.82,3.39c0.17,1.03-0.01,2.15-1.19,2.42
				c-1.25,0.28-1.65-0.75-1.97-1.75c-2.91-9.01-8.7-15.93-15.68-22.1c-2.94-2.6-6.44-3.93-9.99-3.9
				c-11.05,0.08-21.85-1.87-32.74-3.13c-2.89-0.33-5.47-1.32-7.73-3.21c-0.88-0.74-2.01-1.53-3.17-0.76
				c-1.26,0.84-0.53,2.07-0.19,3.16c0.66,2.08,1.72,4.7-1.42,5.23c-2.87,0.48-3.3-2.28-3.45-4.47c-0.64-9.03-2.97-17.87-0.35-27.18
				c1.69-6.01-0.33-12.61-2-18.69c-1.15-4.19-4.97-6.15-9.11-5.23c-5.55,1.23-9.57-2.04-14.16-3.7c-1.47-0.53-1.93-1.85-1.35-3.29
				c0.63-1.58,1.91-1.62,3.33-1.09c1.17,0.44,2.46,1.87,3.58,0.54c1.22-1.46-0.34-2.77-1.04-3.99c-4.64-8.11-7.35-17.09-11.41-25.46
				c-2.21-4.56-6.37-7.17-9.55-10.74c-1.16-1.3-3.1-1.23-4.51,0.16c-1.36,1.34-1.4,3.01-0.58,4.62c1.28,2.48,3.51,4.01,5.91,5.19
				c2.4,1.18,3.77,2.64,2.82,5.49c-0.51,1.54,0.24,2.92,0.78,4.33c0.4,1.05,1.12,2.38-0.32,3.06c-1.26,0.59-2.49-0.34-2.79-1.44
				c-2.15-7.95-9.79-10.99-14.64-16.49c-0.85-0.97-2.07-1.68-3.24-2.3c-1.21-0.64-2.59-0.91-3.7,0.24
				c-0.96,0.99-0.62,2.18-0.14,3.27c1.68,3.85,3.57,7.6,7.42,9.77c3.97,2.24,5.76,5.14,5.69,10.09c-0.09,6.42,3.79,11.94,6.18,17.77
				c0.6,1.46,2.37,3.24,0.26,4.28c-1.93,0.95-2.78-1.36-3.37-2.79c-2.91-7.02-6.55-13.65-8.27-21.28c-1.04-4.6-6.93-6.7-10.59-9.97
				c-0.25-0.23-1.35,0.09-1.71,0.47c-0.95,1.02-0.6,2.3,0.13,3.21c1.88,2.32,3.91,4.53,5.92,6.74c1.01,1.11,2.36,2.1,2,3.8
				c-1.72,8.19,0.57,16.13,1.39,24.16c0.1,0.94,0.48,1.98,1.05,2.73c1.43,1.91,2.41,3.85,0.29,5.73c-2.4,2.13-5.12,1.46-7.32-0.26
				c-3.2-2.49-5.33-5.88-7.04-9.57c-2.04-4.4-4.36-8.66-8.56-11.45c-2.06-1.36-4.57-3.38-6.5-0.45c-2.03,3.08,0.86,4.46,3.13,5.49
				c4.27,1.93,7.19,5.23,8.11,9.59c1.76,8.33,7.22,14.57,11.37,21.52c2.7,4.53,4.72,9.18,5.34,14.3
				c1.69,13.92,10.81,22.65,21.57,29.54c5.03,3.22,11.97,2.1,18.07,2.15c3.77,0.03,6.28,0.83,8.9,3.95
				c8.26,9.78,17.5,18.58,28.7,25.09c1.8,1.04,3.43,2,5.59,1.23c1.95-0.7,3.62,0.1,5.09,1.3c2.42,1.97,5.39,2.55,8.25,3.42
				c4.05,1.24,6.75-0.45,8.55-4.05c0.52-1.04,1.31-2.07,0.3-3.19c-0.79-0.88-1.84-0.67-2.78-0.29c-4.33,1.78-3.91-0.96-2.82-3.3
				c1.79-3.85,1.3-7.63-0.16-11.15c-2.6-6.26-4.46-12.23,1.54-17.8c1.76,0.78,1.83,2.7,1.22,4.41c-1.18,3.32-0.27,6.61-0.35,9.91
				c-0.04,1.56,0.01,3.14,2.02,3.43c1.79,0.26,2.77-0.89,3.38-2.37c1.86-4.53,2.4-9.32,2.78-14.14c0.1-1.25-0.46-3.21,1.34-3.22
				c1.94-0.01,1.95,2.08,1.84,3.5c-0.14,1.81-0.78,3.57-1.07,5.37c-0.24,1.49-0.36,3.1,1.14,4.07c1.55,1,2.78,0.02,4.07-0.83
				c4.23-2.75,7-1.81,8.27,3.36c-5.05-4.29-5.82-1.4-6.71,2.93c-0.96,4.7-2.88,9.17-6.45,12.74c-1.49,1.49-3.31,3.58-1.21,5.63
				c2.36,2.31,4.04-0.37,5.32-1.76c3.61-3.91,9.11-4.78,12.72-8.68c-6.06,7.19-11.71,14.69-19.64,19.79
				c-2.63,1.69-5.83,0.96-8.82,0.77c-1.16-0.07-2.45-0.12-3.11,1.1c-0.69,1.28,0.29,2.15,1.01,3.07c5.04,6.44,16.33,7.6,23.43,3.24
				c4.22-2.6,9.79-2.62,13.47-6.79c2.06-2.33,4.81-4.07,7.34-5.96c1.13-0.85,2.48-1.4,4.06-1.67c-3.26,6.86-9.22,11.08-15.21,14.96
				c-4.99,3.23-10.66,5.41-16.01,8.1c-1.47,0.74-3.18,1.37-3.05,3.5c0.12,1.92,1.4,2.99,3.03,3.61c8.25,3.15,16.45,7.01,25.3,1.75
				c1.06-0.63,2.51-1.66,3.43,0.07c0.69,1.3-0.79,1.9-1.44,2.81c-5.12,7.17-11.77,5.93-18.68,3.57c-1.26-0.43-2.5-0.97-3.8-1.21
				c-3.47-0.63-5.27,0.74-4.43,4.38c2.18,9.47,2.62,19.09,2.71,28.75c0.01,0.8,0,1.86,0.47,2.37c8.76,9.6,17.5,19.22,30.97,22.31
				c1.49,0.34,4.08,0.34,3.55,2.49c-0.5,2.02-2.84,1.09-4.36,0.66c-7.42-2.07-14.69-4.4-19.99-10.57c-1.22-1.42-2.98-3.58-4.97-1.74
				c-1.92,1.77-0.01,3.81,1.2,5.23c5.48,6.48,11.07,12.86,16.71,19.19c2,2.25,3.64,4.65,4.04,8.06
				c-5.54-5.01-11.05-10.07-16.65-15.01c-1.77-1.56-3.41-5.13-5.81-3.67c-3.01,1.83-0.75,5.19,0.3,7.62
				c1.48,3.42,1.87,7.08,2.97,10.57c0.48,1.52,0.17,2.98-0.81,4.25c-4.85,6.26-6.96,13.22-6.93,21.26
				c0.02,6.42-0.81,13.03-5.38,18.34c-1.28,1.49-1.58,3.32-0.57,5.13c2.88,5.16,19.35,13.51,25.03,12.12
				c9.03-2.21,18-4.77,26.85-7.62c9.64-3.11,19.14-0.84,28.7,0.01c0.78,0.07,1.84,0.59,1.63,1.54c-0.39,1.79-1.81,0.73-2.85,0.78
				c-8.57,0.37-17.22-1.8-25.72,0.82c-1.72,0.53-4.02,0.61-4.03,2.98c-0.01,2.3,2.27,2.73,3.98,3.14
				c5.36,1.29,10.26,3.79,15.41,5.62c4.06,1.44,8.38,0.62,12.6,2.35c6.92,2.83,13.65,6.09,20.63,8.77c0.77,0.3,1.59,0.7,2.38,0.68
				c15.32-0.25,29.45,6.39,44.61,7.54c7.18,0.54,14.6,0.76,21.67,3.17c4.19,1.43,7.8-1.25,11.06-3.5
				c10.72-7.41,17.26-18.21,23.27-29.39c1.05-1.96,1.25-4.13,1.19-6.32c-0.07-2.73,0.68-5.21,1.94-7.65
				c4.22-8.15,5.25-16.48,2.59-25.55c-1.5-5.1-1.82-10.57-1.15-16.2c1.19-9.84-1.75-19.45-3.28-29.13
				c-2.2-13.92-8.32-26.6-12.23-39.98c-0.99-3.39-1.57-6.8-1.74-10.32c-0.1-2.06-0.06-3.39,2.47-4.56c3.55-1.65,2.01-5.83,0.92-7.95
				c-3.32-6.48-4.16-13.7-6.88-20.27c-3.48-8.43-9.88-14.92-15.95-21.55c-1.24-1.35-2.58-2.6-3.81-3.95
				c-1.01-1.1-2.38-2.41-0.89-3.83c1.45-1.39,2.7-0.15,3.76,1.02c3.34,3.7,6.84,7.28,10.02,11.12c2.44,2.94,4.43,3.73,7.91,1.12
				c3.13-2.34,5.39-5.95,9.58-6.93c1.36-0.32,2.2-1.85,1.86-3.21c-1.26-5.11,2.07-9.59,2.37-14.79c0.8,2.27,1.55,4.56,2.4,6.81
				c1.3,3.42,3.73,4.04,6.48,1.56c2.94-2.65,4.25-6.53,7.34-9.26c1.99-1.75-0.51-4.22-2.28-6.91c1.57,0.75,2.44,1.19,3.33,1.58
				c0.97,0.43,1.95,0.57,2.73-0.33c0.76-0.88,0.57-1.89,0.07-2.79c-1.08-1.95-2.44-4.23-0.1-5.78c2.56-1.69,3.68,1.32,5.15,2.61
				c2.67,2.34,4.7,3.52,5.78-1.33c0.6-2.72,3.34-4.54,3.67-7.52c0.04-0.36,1.08-0.95,1.56-0.86c6.93,1.25,7.38-4.41,7.78-8.37
				c0.91-8.94,2.31-17.7,5.02-26.27c0.6-1.88,0.1-3.79-1.82-4.7c-2.17-1.02-3.36,0.58-4.41,2.17c-2.21,3.34-3.02,7.21-3.92,11.9
				c-1.5-7.71-0.17-13.09,3.62-16.71c2.17-2.08,4.45-2.9,7.15-1.04c2.6,1.79,4.24,4.4,2.72,7.28c-4.3,8.13-4.63,16.9-5.04,25.72
				c-0.2,4.35-1.67,8.13-5.13,10.97c-1.21,0.99-2.08,2.25-2.39,3.73c-1.65,7.84-7.97,11.08-14.22,14.14
				c-3.59,1.76-6.4,3.96-8.39,7.4c-2.29,3.96-5.46,7.25-9.46,9.38c-2.88,1.53-5.19,3.46-7.32,5.84c-2.82,3.16-5.21,6.58-9.8,8.05
				c-3.23,1.03-4.23,4.38-2.29,7.93c7.95,14.59,10.16,30.27,9.52,46.73c-0.38,9.69,2.39,19.17,5.44,28.3
				c5.15,15.44,5.86,31.39,6.21,47.37c0.12,5.74,0.91,11.28,2.17,16.78c1.04,4.51,1.23,8.39-1.29,12.85
				c-2.37,4.19-3.46,9.41-3.96,14.29c-1.19,11.54-7.42,20.46-14.17,29.12c-3.79,4.87-7.75,9.38-4.17,16.04
				c0.15,0.28,0.21,0.66,0.17,0.98c-1.71,12.5,5.45,23.12,7.45,34.86c0.86,5.07,2.19,9.85,1.31,15.15
				c-0.75,4.49,0.39,9.25-2.29,13.49c-0.41,0.65-0.14,2.06,0.28,2.87c2.73,5.2,3.86,10.83,5.42,16.43c1.37,4.93,2.54,9.94,3.84,14.9
				c3.69,14.12,7.54,28.21,10.19,42.58c0.84,4.56-0.97,9.45,1.49,13.74c2.73,4.75,5.34,9.68,8.77,13.91
				c8.76,10.81,13.29,23.75,19.05,36.08c0.54,1.16,1.48,2.78-0.06,3.53c-1.66,0.81-2.87-0.76-3.42-2.12
				c-2.66-6.65-7.52-12.11-9.9-18.96c-3.16-9.11-10.24-15.92-15-24.12c-1.29-2.22-3.22-1.87-5.24-0.9
				c-1.44,0.69-3.02,0.85-3.98-0.75c-1.08-1.81,0.26-2.82,1.64-3.53c2.78-1.42,2.81-3.71,2.49-6.38
				c-1.61-13.71-4.29-27.17-8.07-40.46c-1.95-6.84-3.03-13.92-4.71-20.84c-1.18-4.83-2.66-9.58-4.12-14.33
				c-0.44-1.42-1.22-2.96-3.09-2.75c-1.96,0.22-2.78,1.81-2.94,3.54c-0.14,1.46-0.12,3.06,0.32,4.44
				c3.54,11.08,3.69,22.62,4.76,34.04c1.14,12.1,1.99,24.22,2.04,36.38c0.01,1.16,0.03,2.34-0.13,3.48
				c-0.17,1.23-0.82,2.31-2.17,2.38c-1.68,0.09-2.37-1.15-2.44-2.58c-0.18-3.49-0.49-7-0.27-10.48c1.02-15.58-2.27-30.82-3.58-46.21
				c-0.17-2-0.5-3.94-0.02-5.94c1.7-7.03-3.05-15.56-11.99-17c-2.81-0.45-3.63,1.25-3.87,3.37c-0.6,5.16-0.99,10.46,1.15,15.28
				c2.84,6.37,3.36,13.01,4.36,19.78c1.43,9.64,0.51,19.72,4.63,28.93c0.32,0.72,0.43,1.63-0.36,2.42c-2.3-0.07-2.24-2.16-2.55-3.54
				c-2.8-12.29-6.22-24.42-6.78-37.2c-0.27-6.17-3.83-11.98-4.04-18.42c-0.13-3.88,0.16-7.66,1.41-11.31
				c0.63-1.83,1.12-3.58-0.43-5.1c-1.38-1.35-3.08-1.08-4.69-0.49c-4.79,1.76-9.36,4.03-14.7,4.12c-2.79,0.05-2.75,2.69-2.85,4.98
				c-0.3,6.98-0.22,13.91,1.5,20.75c0.32,1.26,0.12,2.66,0.05,3.98c-0.06,1.01-0.31,2.18-1.46,2.35c-1.28,0.2-1.67-1-1.74-1.97
				c-0.8-10.12-3.21-19.99-3.97-30.17c-0.57-7.66,2.34-14.42,2.63-21.51c0.5-12.25,0.22-24.58,0.59-36.87
				c0.06-2.11-1.12-3.75-2.38-5.36c-1.23-1.57-1.81-3.48,0.27-4.73c1.76-1.06,3.09,0.24,4.21,1.61c4.37,5.39,3.35,11.7,2.66,17.75
				c-0.67,5.79-1.52,11.44-0.71,17.34c0.84,6.17-0.49,12.41-2.53,18.16c-2.62,7.4,2.65,9.4,8.17,8.5c3.88-0.64,7.57-2.46,11.33-3.79
				c1.25-0.44,2.41-1.01,3.84-0.81c1.14,0.16,2.33,2.19,3.4,0.31c0.7-1.23-0.19-2.68-0.87-3.75c-2.83-4.49-5.83-8.88-8.76-13.31
				c-0.89-1.34-2.58-2.95-0.83-4.31c1.55-1.2,2.47,0.99,3.53,1.89c5.38,4.54,8.3,10.79,11.38,16.86c1.2,2.36,1.76,4.97,0.64,7.72
				c-1.54,3.78,0.51,4.84,3.88,4.62c2.24-0.15,4.2-0.92,5.72-2.67c2.88-3.3,4.52-7.67,5.69-11.38c1.81-5.71,2.61-12.53,0.81-18.46
				c-1.99-6.53-3.93-13.05-5.44-19.71c-2.53-11.18-9.35-16.93-20.51-19.65c-9.4-2.29-18.98-3.45-28.37-5.76
				c-6.57-1.62-13.63-1.12-20.03-3.74c-9.6-3.93-20.56-2.35-29.85-7.4c-8.56-4.65-17.82-6.95-27.17-9.46
				c-5.87-1.58-12.07-3.42-17.49-6.64c-2.95-1.75-6.08-1.46-9.21-1.59c-1.14-0.05-2.58-0.17-2.81,1.36
				c-0.21,1.38,1.05,1.96,2.1,2.46c5.56,2.64,11.57,4.1,17.09,6.91c10.26,5.22,21.36,8.41,32.46,10.95
				c10.58,2.43,20.78,5.73,30.91,9.41c0.59,0.22,1.15,0.53,1.63,0.76c0.07,1.18-0.82,1.53-1.25,1.24c-3.68-2.45-8.02-1.79-12-2.75
				c-14.19-3.41-28.66-5.94-42.37-10.92c-11.53-4.19-22.52-9.87-33.75-14.89c-1.06-0.47-2.07-1.14-3.18-1.4
				c-1.12-0.26-2.48-0.24-2.85,1.25c-0.29,1.17,0.64,1.74,1.52,2.28c12.45,7.67,25.11,14.5,39.02,19.7
				c15.88,5.94,32.42,7.1,48.51,11.04c4.91,1.2,9.4,3.32,13.67,5.97c0.95,0.59,2.54,1.06,1.92,2.45c-0.75,1.7-2.37,0.9-3.45,0.28
				c-6.64-3.85-14.08-5.05-21.43-6.39c-6.7-1.23-13.5-1.99-20.27-2.78c-6.05-0.7-11.72-2.45-16.94-5.59
				c-5.49-3.31-12.14-3.15-17.8-6.33c-4.78-2.69-9.63-5.24-14.24-8.23c-3.78-2.45-7.73-4.55-11.81-6.48
				c-4.29-2.03-9.07-3.56-11.07-8.67c-0.57-1.46-2.28-1.87-3.63-2.5c-1.22-0.58-2.58-1.12-3.72,0.01c-1.33,1.31-0.71,2.81,0.08,4.12
				c3.93,6.6,9.89,11.1,15.91,15.63c10.12,7.6,21.54,12.26,33.49,16.05c11.4,3.62,20.65,11.08,30.55,17.46
				c6.15,3.96,13.34,6.83,19.38,10.68c9.61,6.13,20.13,5.92,30.24,8.48c0.65,0.16,1.35,0.2,1.94,0.48c2.03,0.97,5.27,1.72,4.04,4.55
				c-0.94,2.15-3.59,0.46-5.31-0.35c-6.43-3.04-13.65-1.72-20.37-4.03c-6.99-2.4-13.69-5.05-20-8.83c-4.36-2.61-9-4.2-14.23-3.87
				c-3.43,0.22-4.82,1.82-3.19,4.81c4.59,8.43,5.43,18.54,12.28,26.04c2.07,2.27,3.39,6.11,3.37,9.23
				c-0.04,5.9,3.18,9.72,6.82,13.32c12.16,12.06,23.91,24.52,35.67,36.97c2.38,2.52,5.16,4.71,7.98,6.74
				c2.38,1.71,4.38,1.09,4.12-2.15c-0.27-3.35,0.15-6.46,1.59-10.83c0.85,5.91,2.28,10.29,1.2,15.3c-1.57,7.24,4.02,11.9,7.62,17.17
				c0.51,0.75,1.41,0.85,2.2,0.26c1.05-0.78,1.36-1.93,1.2-3.12c-1.41-10.62-0.85-21.28-0.82-31.94
				c0.02-10.43,0.78-20.85,0.19-31.28c-0.05-0.96-0.26-2.17,0.89-2.61c1.45-0.55,2.1,0.69,2.67,1.66c1.29,2.23,2.11,4.72,1.21,7.19
				c-1.44,3.97-1,7.84-0.28,11.82c1.19,6.57,0.17,13.22,0.52,19.85c0.55,10.41-0.36,20.91,0.19,31.37c0.12,2.23-1.02,3.38-2.96,4.03
				c-0.82,0.28-1.57,0.75-1.55,1.71c0.02,1.21,0.94,1.7,1.97,1.9c1.79,0.34,3.8,1.25,5.37,0.77c4.49-1.37,8.61-3.12,12.96,0.75
				c1.71,1.52,3.12-1.88,5.28-2.14c1.03,2.97,0.81,5.43-1.66,7.66c-1.84,1.66-3.94,3.76-2.13,6.43c1.78,2.63,4.21,3.6,7.79,2.53
				c4.58-1.37,9.6-0.89,14.25-2.38c0.82-0.26,1.78-0.34,2.29,0.42c0.68,1.02-0.05,1.84-0.76,2.6c-4.3,4.65-20.67,7.47-25.76,4.43
				c-4.5-2.69-5.23-5.34-2.72-9.96c1.02-1.87,2.8-3.69,1.17-5.92c-1.77-2.42-4.11-1.12-6.39-0.68c-2.41,0.46-4.96,0.22-7.39,0.62
				c-3.56,0.58-4.95,2.74-3.35,6.12c3.15,6.64,4.92,13.78,7.74,20.5c1.83,4.35,5.71,7.71,9.5,10.51c6.01,4.43,12.57,8.1,18.73,12.35
				c2.14,1.48,6.06,3.47,4.25,6.13c-1.45,2.13-4.05-1.49-6.1-2.61c-4.52-2.48-8.99-5.05-13.52-7.51c-0.98-0.53-2.22-1.21-3.21-0.08
				c-0.96,1.09-0.33,2.35,0.45,3.15c2.18,2.21,1.79,4.74,1.51,7.46c-1.24,11.98,6.95,19.16,18.64,16.3c6.3-1.54,13-0.9,19.04-3.67
				c9.56-4.38,20.62-5.65,28.42-13.72c1.4-1.45,2.73-0.98,3.44,0.88c0.67,1.76,1.18,3.89,0.11,5.33c-3.16,4.3-1.63,8.73,0.35,12.27
				c7.73,13.79,5.21,25.47-6.05,35.85c-1.96,1.81-3.68,4.11-5.98,5.25c-9.95,4.94-15.5,13.93-21.26,22.63
				c-11.12,16.81-22.08,33.71-36.16,48.28c-8.81,9.11-15.56,19.77-23.21,29.74c-6.62,8.62-12.21,17.7-17.76,26.93
				c-3.35,5.57-2.4,7.73,3.18,11.06c5.97,3.56,12.72,4.81,18.92,7.59c2.03,0.91,5.21,2.54,4.63-2.48c-0.26-2.25,1.8-2.59,3.06-1.75
				c4.38,2.88,9.17,4.6,14.14,6.06c1.26,0.37,2.37,1.85,1.33,3.21c-2.23,2.9-0.25,4.04,1.78,5.46c1.22,0.85,2.22,2,3.32,3.02
				c2.35,2.16,4.47,3.21,5.95-0.89c1.13-3.15,2.86-2.02,4.47-0.39c4.1,4.16,3.24,10.76-1.74,14.04c-7.57,4.99-15.8,8.36-24.72,9.84
				c-4.51,0.75-7.24,4.37-11.19,6.18c-11.56,5.27-23.84,7.27-36.04,9.72c-3.88,0.78-6.48,1.91-6.84,6.37
				c-0.33,4.07-3.63,5.23-7.07,5.9c-6,1.16-11.29,3.57-15.97,7.7c-4.74,4.17-6.7,9.28-7.29,15.31c-0.5,5.08,0.65,10.34-1.66,15.23
				c-0.63,1.34-0.09,2.25,1.18,2.79c1.07,0.45,2.15,0.96,3.28,1.22c14.37,3.27,21.44,14.87,29.15,25.65
				c2.18,3.05,1.8,6.05-1.24,8.87c-3.31,3.07-7.19,4.66-11.32,6.06c-11.69,3.96-23.68,2.89-35.65,2.3
				c-4.49-0.22-8.98-0.46-13.47-0.72c-4.7-0.28-9.38-1.03-13.45-3.43c-7.6-4.49-15.65-8.16-23.77-11.4
				c-5.12-2.04-10.75-6.12-16.87-1.6c-1.1,0.81-2.52,0.03-3.8-0.47c-5.89-2.27-11.82-4.42-17.73-6.62
				c-1.97-0.73-3.94-0.51-5.88,0.11c-6.47,2.04-12.62,1.77-18.86-1.37c-5.04-2.54-10.54-4.12-16.4-3.61
				c-4.99,0.43-8.66-3.16-13.09-4.5c-14.01-4.26-28.65-6.21-42.36-11.63c-3.62-1.43-6.91-3.45-9.91-5.67
				c-3.42-2.53-5.15-6.38-4.28-11.05c1.11-5.96,0.99-5.88-4.81-5.7c-2.47,0.08-4.97-0.39-7.45-0.6c-4.43-0.38-8.84-1.62-13.28,0.32
				c-1.07,0.47-2.75,0.22-3.9-0.28c-9.42-4.09-19.73-6.19-28.04-12.76c-4.24-3.36-4.7-8.56-0.81-12.4
				c6.43-6.34,14.16-10.25,22.74-12.97c15.57-4.92,31.56-4.16,47.51-4.23c14.65-0.06,29.28,1.13,43.93,0.45
				c2.56-0.12,5.35-0.48,6.99-2.3c4.61-5.12,10.56-4.82,16.24-3.99c7.97,1.17,15.96,0.7,23.93,1.31c4.99,0.38,9.91,0.87,14.84,1.65
				c4.28,0.68,8.66,1.33,12.05-2.61c0.76-0.89,2-1.44,3.11-0.49c1.17,1,0.37,2.12-0.11,3.17c-1.99,4.27-5.88,6.6-11.25,5.15
				c-15.02-4.05-30.56-1.66-45.67-4.24c-3.48-0.59-6.1,1.23-8.21,3.82c-2.44,2.99-5.28,4.5-9.18,2.91c-0.73-0.3-1.74-0.42-2.45-0.15
				c-8.67,3.22-17.54,1.12-26.19,0.53c-15.34-1.06-30.62-0.11-45.82,0.91c-11.72,0.79-23.31,4.06-33.39,10.85
				c-7.21,4.86-7.41,8.78,0.44,12.49c10.15,4.8,20.35,10.07,32.26,9.27c5.63-0.38,11.28,0.04,16.92,0.93
				c4.39,0.69,6.11,2.56,5.65,6.96c-0.89,8.59-0.5,8.74,7.24,12.39c11.74,5.52,24.53,7.22,36.86,10.58
				c5.62,1.53,10.99,3.57,16.37,5.91c8.95,3.89,18.57,6.07,28.15,8.06c2.27,0.47,4.24,0.32,3.62-3.33
				c-1.63-9.56,1.93-18.07,6.78-25.86c11.59-18.62,22.58-37.58,32.81-56.94c4.43-8.39,4.95-18.26,6.66-27.59
				c0.51-2.8,0.73-5.63,3.19-7.62c1.13-0.92,1.45-2.29,0.88-3.64c-2.51-5.88-0.97-11.73-0.07-17.63c0.82-5.39,1.46-10.98,1.33-16.28
				c-0.34-14.15,6.96-24.21,15.66-33.88c0.33-0.36,0.92-1.01,1.08-0.92c6.45,3.3,3.76-2.38,4.14-4.45c0.58-3.17,3.05-5.12,4.26-7.83
				c7.02-15.66,19.21-27.34,30.62-39.62c1.9-2.05,4.17-11.36,2.6-13.58c-2.4-3.38-5.86-5.47-10.22-5.18
				c-2.65,0.18-5.26,0.78-7.9,1.16c-2,0.29-4.11,0.57-5.69-1c-1.41-1.4-3.06-3.31-2.01-5.22c0.95-1.72,2.6,0.34,3.97,0.54
				c2.14,0.31,4.3,1.06,6.4,0.17c9.38-3.96,19.36-4.66,29.3-5.02c10.66-0.39,21.36-0.25,32.03,0.05c5.05,0.14,9.66-1.53,14.01-3.26
				c8.69-3.47,18.16-5.44,25.2-12.54c3.24-3.26,7.85-4.9,11.27-8.19c1.97-1.9,3.24-0.49,3.53,1.89c0.19,1.56-0.05,3.97,2.55,2.95
				c1.92-0.76,1.44-2.77,0.59-4.33c-0.47-0.87-1.01-1.78-1.75-2.4c-5.86-4.92-6.61-11.93-6.57-18.63
				c0.03-5.64-1.25-10.52-3.98-15.17c-4.06-6.92-7.33-13.81-8.24-22.18c-0.71-6.55-4.52-12.76-6.96-19.11
				c-0.95-2.48-2.56-4.89-2.8-7.43c-0.59-6.1-3.24-11.17-5.73-16.65c-3.91-8.6-9.07-15.64-16.2-21.66
				c-10.83-9.14-19-20.92-29.63-30.32c-10.49-9.27-19.26-20.23-28.92-30.32c-1.41-1.47-2.56-3.03-3.03-5.07
				c-0.54-2.36-0.26-4.17,2.72-3.83c3.61,0.42,3.48-1.52,2.68-3.94c-2.29-6.94-4.58-13.87-6.93-20.79
				c-0.69-2.04-2.21-3.46-4.29-3.84c-5.89-1.07-10.95-3.85-15.73-7.26c-4.7-3.35-10.16-4.9-15.52-6.7c-1.09-0.37-2.3-0.91-3.31-0.01
				c-1.08,0.97-0.52,2.29-0.04,3.26c4.81,9.59,5.28,20.14,7.15,30.41c1.22,6.69-2.8,11.38-4.91,16.83c-0.17,0.44-1.11,0.93-1.6,0.84
				c-1.06-0.19-0.93-1.18-0.8-2.01c0.08-0.49,0.2-0.99,0.4-1.44c7.08-15.38,0.97-29.22-5.09-43.02c-1.35-3.07-2.98-5.93-2.46-9.48
				c0.38-2.6-1.03-4.37-3.09-5.83c-6.46-4.57-14.21-6.52-20.98-10.46c-2.55-1.48-3.61,0.69-4.61,2.38
				c-7.54,12.78-13.97,26.07-19.61,39.83c-2.75,6.72-6.1,13.01-3.84,20.31c2.29,7.39,2.85,14.63,2.89,22.43
				c0.03,6.46,2.07,13.91,6.61,19.94c6.14,8.14,7.87,18.69,13.87,26.98c1.07,1.48,1.15,4.81,3.62,3.89c2.3-0.85,1.27-3.83,1.05-5.89
				c-1.36-12.76-5.46-24.98-7.7-37.53c-1.9-10.61-4.74-21.02-6.28-31.68c-0.14-0.99-0.32-1.99-0.29-2.98
				c0.05-2.04,0.89-3.69,3.12-3.83c2.27-0.14,3.46,1.41,3.38,3.47c-0.51,13.82,3.46,27.05,5.2,40.57
				c1.14,8.91,4.77,17.23,5.66,26.28c0.78,7.94,1.76,15.85,2.32,23.82c0.51,7.18,4.9,12.98,8.1,19.07
				c3.16,6.02,7.5,11.41,8.85,18.31c0.15,0.79,0.61,1.56,1.06,2.25c0.91,1.36,1.88,3.38,3.64,2.85c1.86-0.56,0.76-2.64,0.58-3.97
				c-3.15-23.23-5.08-46.65-10.73-69.5c-0.2-0.81-0.43-1.62-0.49-2.45c-0.13-1.73-0.09-3.58,2.13-3.85c1.9-0.24,2.33,1.42,2.86,2.87
				c3.63,9.8,4.77,20.05,5.49,30.36c0.46,6.65,1.31,13.21,2.88,19.73c2.58,10.68,3.16,21.58,2.43,32.54c-0.28,4.17,1,7.6,3.43,11.12
				c10.27,14.85,19.38,30.23,19.75,49.14c0.07,3.46,1.09,6.89,1.48,10.36c0.16,1.45,0.1,3.45-1.64,3.76
				c-2.08,0.37-1.91-1.77-2.31-3.11c-2.61-8.94-5.48-17.81-6.67-27.09c-0.38-2.92-2.59-4.99-3.84-7.52
				c-4.75-9.68-8.82-19.6-15.39-28.45c-4.12-5.54-5.3-13.11-8.78-19.41c-5.63-10.19-13-19.32-17.37-30.28
				c-4.23-10.62-10.94-20.16-13.86-31.41c-0.52-2.01-1.82-4.03-3.28-5.56c-7.15-7.46-10.03-17.11-13.82-26.29
				c-0.75-1.81-1.33-3.9-1.24-5.82c0.46-9.33-1.45-18.44-2.26-27.64c-0.37-4.16,0.1-7.97,2.56-11.41c3.96-5.54,5.31-12.09,7.5-18.36
				c3.74-10.72,9.36-20.61,15.58-30.1c1.36-2.07,2.03-3.98,1.82-6.48c-0.43-5.14,3.19-9.61,2.71-14.87c-0.11-1.21,0.7-2.56-0.13-3.8
				c-3.53-5.32-3.22-10.99-0.27-16.12c4.39-7.62,2.21-16.37,4.98-24.19c0.5-1.4,0.27-3.24,1.1-4.31c6.02-7.68,3.86-15.92,2.01-24.2
				c-0.4-1.77-1.13-3.83-0.61-5.39c2.44-7.36,0.03-14.05-2.34-20.77c-1.92-5.43-2.51-11.04-2.61-16.71
				c-0.21-11.72-3.72-22.57-8.45-33.11c-0.47-1.05-1.65-2.22-0.92-3.2c3.3-4.38-0.39-5.68-3.07-7.49c-0.28-0.19-0.63-0.34-0.78-0.61
				c-6.48-11.47-18.66-15.68-28.8-22.42c-9.73-6.47-18.87-13.49-26.06-22.8c-1.12-1.44-2.5-2.34-4.32-1.6
				c-6.72,2.75-12.99-0.21-19.14-1.92c-7.8-2.17-11.85-9.36-17.13-14.81c-6.34-6.54-8.53-14.86-9.46-23.56
				c-0.47-4.43-3.54-7.47-5.3-11.19c-3.13-6.61-6.87-12.95-9.89-19.61c-2.38-5.25-7.87-7.95-9.94-13.49
				c-1.9-5.1-1.54-7.76,2.68-10.1c1.83-1.01,3.37-0.97,5.1,0.16c6.75,4.42,12.04,9.94,14.21,17.97c0.21,0.8,0.42,1.65,0.87,2.32
				c0.85,1.24,1.94,2.72,3.56,2.24c2.08-0.61,1.22-2.55,0.82-3.83c-2.31-7.39-2.16-15.08-3.13-22.63c-0.44-3.44-4.17-5.17-5.87-8.24
				c-2.11-3.81-2.93-6.88-0.22-10.53c1.11-1.5,1.49-3.36,1.03-5.25c-0.73-2.98,0.13-5.55,2.76-6.84c2.82-1.38,6.36-2.52,8.97-0.21
				c3.08,2.73,4.61,1.3,7-0.81c6.06-5.34,6.91-4.76,13.27,0.19c8.09,6.3,11.44,14.77,13.3,24.28c1.67,8.53,5.03,16.12,12.28,21.47
				c0.67,0.49,1.28,1.27,2.02,1.42c4.07,0.84,7.99,2.21,9.68,6.25c2.45,5.86,3.96,12.02,3.43,18.48c-0.19,2.32-0.13,4.71-0.74,6.92
				c-2.77,10.03,3.96,14.83,12.75,17.54c8.94,2.75,18.45,2.78,27.71,3.32c5.48,0.32,10.26-4.2,15.89-5.21
				c3.03-0.55,5.73-1.45,8.48,0.72c1.73,1.37,3.72,0.78,5.74,0.31c7.93-1.88,15.83-3.86,24.13-2.3c6.49,1.22,12.42-1.16,18.26-3.56
				c4.44-1.82,4.51-5.29,3.02-9.14c-2.1-5.43-4.29-10.82-6.37-16.25c-1.41-3.67-1.68-6.92,2.16-9.71c2.34-1.7,4.17-4.31-0.12-6.48
				c-1.39-0.7-1.99-2.29-1.81-3.88c0.92-8.26-5.68-13.35-8.4-20.07c-0.1-0.25-0.45-0.49-0.74-0.57c-4.05-1.1-4.81-2.14-3.7-5.46
				c0.58-1.71,1.24-3.83,3.32-3.98c2.19-0.16,2.22,2.07,2.72,3.6c0.1,0.32,0.16,0.68,0.36,0.93c1.64,2.06,3.85,5.15,6.11,4.04
				c3.28-1.6,0.47-4.83-0.85-6.24c-4.65-5.01-0.62-10.87-1.64-13.5c-0.28,3.03,2.92,7.35,5.72,11.84c0.44,0.7,0.56,1.81,1.16,2.17
				c3.44,2.05,2.15,4.16,1.68,7.54c-1,7.15-2.99,15.32,4.43,21.1c1.11,0.87,1.84,2.34,2.5,3.66c1.18,2.36,0.93,4.06-2.19,4.67
				c-4.36,0.86-6.16,2.96-3,7.18c1.12,1.5,0.93,3.49,1.18,5.3c0.2,1.46,0.29,3.35,1.21,4.21c2.63,2.46,4.92,4.52,0.72,7.57
				c-0.41,0.3-0.4,1.68-0.1,2.35c1.38,3.09,1.31,6.47,2.09,9.57c0.81,3.24,3.51,6.48,6.23,8.67c7.88,6.34,14.42,14.33,23.6,19.07
				c6.56,3.39,13.05,6.77,20.82,5.5c0.49-0.08,1.19-0.23,1.47,0.02c5.02,4.56,10.02,0.91,15.01-0.01c4.11-0.75,5.73-3.25,4.23-7.18
				c-0.75-1.98-0.77-3.18,1.44-3.78c4.12-1.12,3.06-3.85,1.65-6.22c-1.69-2.85-4.76-4.06-7.14-1.62c-3.33,3.4-5.04,2.46-7.83-0.61
				c-2.68-2.94-7.26-2.8-10.75-5.22c-2.9-2.01-6.15-5.39-10.65-4.58c-4.64-6.66-14.28-8.63-16.53-17.5
				c-1.56-6.15-6-9.32-11.49-11.45c-3.41-1.32-6.94-2.39-9.86-4.74c-0.9-0.72-2.26-1.33-1.86-2.65c0.5-1.67,2.18-1.19,3.44-1.17
				c0.8,0.01,1.97,0.13,2.32,0.64c3.99,5.74,11.12,5.46,16.45,8.65c3.1,1.85,5.26,3.97,7.16,7.15c1.91,3.2,5.06,6.37,8.42,7.84
				c7.91,3.46,13.81,9.69,21.05,14c1.29,0.77,2.44,2.17,3.98,1.6c6.69-2.49,13.69-2.46,20.66-3c3.11-0.24,4.83-4.03,3.61-6.94
				c-1.47-3.51-8.69-5.85-11.87-3.77c-1.11,0.72-2.09,2.08-3.38,0.64c-1.34-1.5-1.01-3.47,0.44-4.43c2.86-1.9,3.38-4.37,3.64-7.58
				c0.39-4.81,4.06-5.97,7.75-2.81c1.56,1.34,3.86,2.1,4.96,0.64c3.04-4.03,10.81-1.95,11.32-8.36c0.29-3.65-3.32-5.27-6.62-5.45
				c-2.77-0.15-5.01-0.37-7.09-2.67c-2.73-3.02-5.07-0.53-6.37,1.73c-2.72,4.72-5.46,5.53-9.4,1.37c-1.21-1.28-3.03-2.08-4.71-2.78
				c-2.51-1.05-4.68-0.91-4.94,2.58c-0.11,1.54-0.39,2.99-1.79,3.93c-1.88,1.26-2.01,2.88-1.06,4.79c0.84,1.69,0.73,3.26-0.95,4.4
				c-1.53,1.04-2.97,0.47-4.02-0.72c-2-2.26-3.83-3.11-6.03-0.22c-0.64,0.84-1.8,0.9-2.65,0.04c-0.85-0.86-0.55-1.88-0.05-2.77
				c1.13-2.02,3.26-2.84,5.13-3.85c3.5-1.89,3.62-3.69,0.71-6.4c-2.3-2.15-5.61-4.37-2.7-8.37c1.58-2.17,3.08-3.93,4.94-0.14
				c0.55,1.13,1.72,1.98,2.68,2.88c1.17,1.1,2.31,2.97,4.14,1.77c1.46-0.96,0.01-2.36-0.31-3.58c-0.84-3.18,1.27-2.8,3.15-2.44
				c1.96,0.38,2.9,2.78,6.01,2.79c-3.41-5.41,2.69-8.85,2.11-13.94c-0.3-2.6,2.58-1.79,4.27-1.96c2-0.2,4.85,0.87,5.05-2.44
				c0.19-3.21-2.32-3.47-4.83-3.62c-2.58-0.15-5.15-0.58-7.73-0.89c0.17-2.8,2.52-2.72,3.82-3.81c1.75-1.47,1.68-2.83-0.57-3.69
				c-3.47-1.32-6.55-0.34-9.36,1.81c-1.95,1.49-4.02,2.48-6.48,1.57c-1.35-0.5-2.12-1.66-2.02-3.14c0.11-1.61,1.39-1.82,2.58-1.55
				c5.26,1.2,9.16-2.49,12.59-4.86c4.37-3.02,8.37-3.1,12.65-1.97c3.41,0.9,5.79,1.3,8.14-2.12c1.38-2.01,3.59-1.77,6.7-1.1
				c8.35,1.8,5.5,8.07,5.69,12.26c0.26,5.66,2.13,10.18,4.97,14.77c4.79,7.74,4.19,11.95-2.37,18.46c-1.68,1.67-2.21,3.25-0.89,5.28
				c2.94,4.51,1.11,8.97-0.25,13.35c-0.58,1.86-1.72,2.54-4.2,2.04c-3.11-0.62-6.55-0.13-9.75,0.41c-2.1,0.36-3.08,1.72-1.17,3.94
				c2.29,2.66,3.63,7.99,8,1.95c0.5-0.69,1.52-0.82,2.25-0.23c0.89,0.73,0.95,1.89,0.41,2.74c-2.67,4.17,0.96,8.4-0.22,12.68
				c-0.5,1.8,1.75,2.06,3.28,2.02c6.05-0.15,11.93,0.79,17.68,2.65c2.82,0.91,5.47-0.21,7.44-1.89c2.08-1.77-0.33-3.53-0.98-5.28
				c-1.64-4.39-4.01-8.38-6.45-12.35c-4.81-7.83-5.72-16.18-2.77-24.89c1.21,0.51,0.34,1.76,0.52,2.68c0.22,1.14,0.39,2.33,0.3,3.47
				c-0.77,10.37,5.37,18.13,9.91,26.5c0.71,1.31,1.58,2.62,1.93,4.04c0.8,3.31,2.69,5.18,6.08,5.71c1.64,0.26,3.64,0.75,3.85,2.64
				c0.23,2.06-2.09,2.28-3.39,3.17c-3.15,2.17-6.31,1.41-9.5,0.01c-1.43-0.63-3.1-2.23-4.43-0.33c-1.11,1.58,0.19,3.21,1.12,4.56
				c3.2,4.62,7.13,8.8,8.48,14.53c0.25,1.05,1.57,2.05,0.25,3.05c-0.95,0.71-1.85-0.08-2.65-0.73c-0.75-0.61-1.58-1.53-2.54-0.45
				c-0.73,0.83-0.32,1.9-0.09,2.87c0.5,2.09,2.12,3.29,3.62,4.63c1.17,1.04,1.92,2.45,1.22,4.02c-0.77,1.71-2.08,1.43-3.77,1.11
				c-4.42-0.86-4.35,2.32-4.17,5.3c0.12,1.98,2.33,5.02-0.25,5.64c-2.75,0.66-2.88-3.14-3.46-5.14
				c-3.29-11.34-11.41-19.33-18.84-27.81c-0.54-0.62-1.28-1.07-1.88-1.65c-0.94-0.9-2.43-1.9-1.43-3.28
				c1.08-1.48,2.28-0.1,3.44,0.51c6.63,3.47,10.72,9.3,14.62,15.36c1.22,1.9,2.28,5.45,4.41,4.8c2.67-0.81,0.96-4.36,1.29-6.7
				c0.13-0.95-0.19-1.97-0.3-2.96c3.12-0.18,3.59-1.88,2.46-4.4c-1.09-2.42-2.34-4.76-3.35-7.21c-0.87-2.1-1.88-3.92-4.4-4.18
				c-1.09-0.11-2.07,0.33-2.29,1.45c-0.47,2.4,1.6,3.43,2.85,4.89C1060.53,285.28,1064.32,287.37,1063,292.06z M998.45,884.58
				c3.23,0.72,5.86,0.42,8.05-2c8.37-9.27,15.85-19.11,22.16-29.97c2.1-3.61,5.07-7.07,8.16-10.31c5.14-5.39,12.36-10.58,8.21-20.07
				c-0.4-0.91,0.72-1.34,1.24-1.95c1.22-1.43-0.47-11.65-2.04-12.54c-0.28-0.16-0.63-0.32-0.94-0.3c-4.53,0.3-8.86-0.3-13.42,2.23
				c-9.38,5.19-19.19,9.85-30.63,8.28c-3.56-0.49-7.28,0.41-10.9-0.57c-1.28-0.35-2.72-0.16-3.56,1.16
				c-0.96,1.51-0.25,2.85,0.57,4.16c1.27,2.05,3.24,3.25,5.17,4.59c2.5,1.73,0.66,3.96,0.18,5.89c-0.39,1.55-2.06,1.53-2.78,0.61
				c-2.77-3.54-8.52-4.75-7.89-11.1c0.34-3.46-2.13-5.48-6-4.43c-1.77,0.48-3.54,0.95-5.28,1.51c-2.83,0.91-4.21,2.6-2.85,5.67
				c0.68,1.53,1.62,3.34-0.07,4.56c-2.41,1.75-2.9,3.77-2.14,6.5c0.42,1.5-0.12,3.06-1.19,4.18c-5.49,5.78-10.89,11.66-16.65,17.16
				c-3.6,3.44-4.11,5.12,0.08,7.59c9.3,5.48,18.85,10.53,28.34,15.67c3.52,1.91,7.52,2.56,11.24,3.86
				C990.21,886.61,994.36,884.43,998.45,884.58z M947.13,995.72c-2.17-0.58-3.63-0.28-4.66,1c-2.37,2.96-5.35,5.43-6.77,9.17
				c-2.6,6.86-6.07,13.4-10.19,19.37c-3.25,4.71-3.14,8.94-0.18,12.85c5.6,7.4,11.45,14.67,18.52,20.78
				c2.75,2.38,5.64,4.72,9.14,5.99c1.23,0.45,2.76,0.87,3.73-0.34c0.75-0.94-0.3-1.82-0.84-2.61c-1.37-2.02-1.02-3.39,1.43-4.07
				c4.75-1.32,5.16-5.19,5.1-9.12c-0.03-1.83-0.21-3.6,0.22-5.43c2.06-8.82,12.31-17.79,21.73-18.97c3.1-0.39,7.13-0.24,7.78-4.06
				c1.24-7.35,6.43-8.21,12.29-9.26c6.5-1.16,12.86-3.12,19.26-4.79c1.08-0.28,2.41-0.68,2.44-2.12c0.03-1.26-1.18-1.71-2.1-1.71
				c-6.38,0-12.26-2.93-18.62-3.01c-8.26-0.11-16.9,0.45-24.66-1.17C969.28,995.83,957.81,997.69,947.13,995.72z M1082.19,800.9
				c0.49-1.62,2.31-1,3.19-1.93c1.12-1.19,1.52-2.51-0.34-3.07c-4.07-1.23-7.03-4.53-10.97-5.81c-3.01-0.97-2.59-1.75-0.65-3.46
				c1.29-1.13,3.39-3.02,0.95-4.36c-3.64-2-6.16,0.87-8.54,3.29c-1.69,1.71-3.8,3.43-1.05,5.73c3.46,2.89,0.8,4.95-1.31,5.3
				c-4.11,0.68-6.69,2.22-8.93,5.94c-1.26,2.09-2.54,3.69-2.07,6.11c1.18,6.11,1.72,12.18-0.53,18.2c-0.67,1.8-0.74,3.63,1.17,4.89
				c8.82,5.83,17.82,9.84,28.91,6.33c8.65-2.74,9.26-3.46,3.96-10.64c-0.57-0.77-1.58-1.45-1.09-2.58c0.51-1.17,1.69-0.82,2.63-0.84
				c1.48-0.03,3.22-0.41,4.26,0.87c3.38,4.14,5.16,1.3,7.17-1.41c2.44-3.28,4.1-7.29,8.6-8.64c8.56-2.55,12.77-9.74,16.84-16.73
				c2.87-4.92,2.32-10.22-0.53-15.27c-1.14-2.01-2.23-4.18-2.7-6.41c-0.88-4.16-3.78-5.63-7.39-6.4c-1.98-0.43-4.24-0.78-5.6,0.98
				c-1.77,2.29,1.53,2.8,1.98,4.38c0.07,0.25-0.17,0.58-0.32,1.03c-1.1,0.37-2.3,0.29-3.28-0.35c-3.31-2.17-6.74-1.35-10.14-0.47
				c-2.43,0.63-4.51,1.6-1.34,4.14c0.79,0.63,1.76,1.28,0.76,2.36c-0.8,0.86-1.94,0.63-2.74-0.01c-1.58-1.25-3.07-2.52-5.25-2.57
				c-1.69-0.04-3.51-0.35-4.13,1.78c-0.61,2.1,0.79,2.92,2.51,3.6c1.85,0.73,3.77,1.47,5.36,2.62c2.68,1.93,4.21,4.19-0.01,6.25
				c-0.87,0.42-1.76,0.56-1.67,2C1090.26,801.61,1088.98,802.43,1082.19,800.9z M915.02,979.17c-0.04,0.83,0.53,1.09,1.18,1.33
				c5.36,1.99,11.09,2.63,16.26,5.58c2.73,1.55,7,3.32,9.87,1.51c3.19-2,5.63-5.56,7.71-8.87c3.96-6.31,7.36-12.94,11.74-19.03
				c3.84-5.35,8.1-10.43,11.06-16.41c1.24-2.51,0.87-4.29-1.83-4.06c-6.5,0.56-12.9,0.81-19.29-0.9c-1.27-0.34-2.81,0.38-2.89,2.05
				c-0.08,1.87,1.56,1.77,2.85,2.03c3.09,0.61,6.17,1.28,9.25,1.92c0.82,0.17,1.85,0.31,1.85,1.3c0,1.31-1.22,1.47-2.19,1.46
				c-1.99-0.03-3.98-0.29-5.97-0.34c-0.96-0.02-2.16-0.03-2.48,1.16c-0.4,1.45,0.79,2.04,1.81,2.59c1.89,1.01,3.92,0.35,5.89,0.47
				c1.07,0.07,1.92,0.67,2.24,1.71c0.29,0.93-0.19,1.56-1.11,1.88c-5.92,2.06-11.68,5-18.19,1.66c-1.69-0.87-5.09-2.49-5.6-0.11
				c-0.67,3.18,3.01,1.74,4.85,2.2c1.36,0.34,2.76,0.65,2.48,2.44c-0.25,1.59-1.58,2.21-2.99,1.99c-1.78-0.28-3.49-1.03-5.27-1.38
				c-0.99-0.2-2.18,0.05-2.36,1.26c-0.14,0.98,0.85,1.36,1.69,1.42c3.07,0.21,5.8,2.6,9.18,1.14c1.38-0.6,3.01,0.03,3.96,1.39
				c0.31,0.45,0.46,1.37,0.21,1.8c-0.99,1.64-2.54,0.95-4.02,0.83c-5.04-0.43-10.18,0.96-15.34-1.24c3.45,1.14,4.86,4.64,8.22,5.56
				c2.26,0.62,6.76-0.83,6.41,2.62c-0.35,3.51-4.56,0.38-6.88,1.38c-0.03,1.92,3.51,2.52,1.94,4.57c-1.32,1.71-3.03-0.2-4.56-0.47
				c-5.88-1.06-11.75-2.19-17.63-3.25C916.3,978.21,915.38,978.11,915.02,979.17z M1034.7,222.88c3.42-0.38,7.51-3.2,12.09-4.59
				c2.25-0.68,1.96-3.27,1.5-5.25c-1.07-4.67-3.49-8.59-7.03-11.79c-1.75-1.58-3.37-3.21-4.06-5.54c-2.02-6.81-3.25-7.13-8.61-2.47
				c-1.5,1.31-1.61,2.76-1.34,4.48c0.3,1.84,0.45,3.72-0.82,5.25c-1.92,2.31-1.09,3.99,0.63,6.07c2.02,2.44,3.18,5.11,1.52,8.67
				C1026.99,221.1,1028.96,222.99,1034.7,222.88z M948.62,566.05c2.09,0.09,3.06-0.3,3.25-1.45c0.25-1.54-0.83-2.48-1.99-3.18
				c-7.54-4.56-14.87-9.45-23.29-12.44c-12.43-4.41-23.37-11.79-34.93-17.95c-4.18-2.23-7.64-5.19-10.78-8.69
				c-1.34-1.5-3.34-2.97-5.05-0.7c-1.58,2.1,0.01,3.73,1.82,4.89c1.4,0.89,2.81,1.86,4.36,2.43c7.48,2.74,13.36,7.87,19.26,12.91
				c3.82,3.26,7.69,6.39,12.42,8.21c7.14,2.75,14.22,5.49,20.81,9.55C939.12,562.5,944.45,564.2,948.62,566.05z M1006.18,984.71
				c-1.28-0.41-2.24-0.65-3.14-1.02c-0.91-0.37-1.99-0.77-2.02-1.95c-0.03-1.26,1.04-1.54,2.03-1.76c1.15-0.26,2.61-0.46,1.83-2.13
				c-0.82-1.76-1.43-3.85-3.65-4.47c-1.34-0.37-2.39,0.28-2.73,1.54c-0.63,2.33-2.34,3.02-4.4,3.44c-0.3,0.06-0.49,0.64-0.7,0.93
				c0.94,1.3,2.86,0.22,3.68,2.4c-2.18,1.35-6.54,2.73-1.54,6.12c0.8,0.54-0.3,1.42-0.92,1.91c-1.09,0.86-2.18,1.74-1.34,3.3
				c0.81,1.52,2.31,2.05,3.84,1.6c4.12-1.21,8.64,1.74,12.6-1.3c0.44-0.34,1.87-0.12,2.29,0.35c4.32,4.8,10.38,2.54,15.53,3.92
				c1.23,0.33,3.05,0.35,3.41-1.2c0.35-1.51-1.46-1.43-2.45-1.88c-1.02-0.45-2.55-0.64-1.9-2.27c0.55-1.39,1.89-1.15,3.02-0.77
				c2.39,0.8,4.76,1.53,7.3,0.71c1.2-0.39,2.26-0.97,1.82-2.44c-0.34-1.11-1.48-1.53-2.44-1.15c-6.07,2.42-12.16-0.42-18.25,0.2
				c-5.82,0.59-11.71,0.68-17.75-0.48C1001.81,986.23,1004.72,987.35,1006.18,984.71z M1009.51,979.38
				c3.45,3.89,7.78,2.86,11.78,3.13c9.89,0.68,19.77,2.23,29.7,0.75c1.95-0.29,3.56-0.64,3.94,2.13c0.22,1.63,1.79,1.97,3.17,1.44
				c2.48-0.95,5.13-1.92,6.49-4.33c0.78-1.38-0.77-2.47-1.78-3.21c-5.78-4.23-11.98-7.46-19.55-7.76c0.6,2.41,2.46,3.22,4.08,4.31
				c1.31,0.88,1.28,2.54-0.07,2.6c-4.58,0.22-9.49,2.55-13.65,0.56C1025.25,974.99,1017.56,979.69,1009.51,979.38z M932.57,916.12
				c4.25-0.02,6.53,3.86,10.29,4.83c8.47,2.18,16.83,4.77,25.24,7.18c1.26,0.36,3.01,0.51,2.55,2.31c-0.39,1.53-2.08,1.52-3.4,1.31
				c-2.95-0.47-5.86-1.15-8.81-1.64c-0.95-0.16-2.17-0.18-2.52,1.01c-0.42,1.45,0.72,2.3,1.84,2.47c5.72,0.87,11.45,1.81,17.21,2.24
				c2.83,0.21,7.26-5.38,6.81-8.16c-0.57-3.47-3.69-2.62-5.98-3.1c-8.26-1.71-16.8-2.6-24.67-5.37
				C944.98,917.04,939.25,914.58,932.57,916.12z M980.84,984.33c3.47,0.72,4.28-0.75,4.08-2.9c-0.25-2.6,0.24-4.56,2.98-5.54
				c1.15-0.41,1.95-1.36,1.69-2.72c-0.33-1.7-1.7-1.85-3.08-1.86c-7.65-0.07-15.1-1.18-22.34-3.81c-2.3-0.83-3.98,0.66-4.49,2.79
				c-0.64,2.63,1.4,2.94,3.36,3.05c0.83,0.05,1.68,0.02,2.48,0.19c2.1,0.42,5,0.56,5.36,2.86c0.42,2.66-2.47,3.02-4.51,3.62
				c-1.42,0.42-3.34,0.61-3.03,2.59c0.3,1.88,2.27,1.96,3.66,1.64C971.97,983.08,976.86,982.82,980.84,984.33z M974.07,1109.1
				c5.5-0.5,10.88-1.22,15.66-4.34c5.27-3.44,5.64-5.75,1.54-10.66c-1.27-1.53-2.5-3.1-3.66-4.72c-1.59-2.23-3.54-3.65-6.33-2.55
				c-1.98,0.78-4.19,1.7-4.24,4.33c-0.07,3.24,2.81,3.16,4.85,4.02c1.61,0.68,2.86,1.79,2.95,3.66c0.1,1.8-1.33,2.46-2.66,3.22
				c-2.65,1.51-5.47,2.21-8.52,2.4c-1.79,0.12-4.17,0.62-4,2.86C969.88,1109.99,972.44,1108.84,974.07,1109.1z M982.42,910.45
				c1.8,1.1,3.19-0.82,4.78-0.56c0.75,0.12,1.62,0.48,2.12,1.02c0.62,0.67,0.31,1.53-0.29,2.24c-1.73,2.04-10.42,4.48-13.04,3.23
				c-6.16-2.95-13.22-3.09-19.22-6.45c-1.01-0.56-2.49-1.07-3.09,0.23c-0.73,1.58,1.07,1.75,1.98,2.25
				c5.24,2.86,11.2,3.94,16.52,6.48c9.1,4.33,11.86,7.2,19.32-3.07c1.92-2.64,3.26-5,1.73-7.5c-1.81-2.97-5.03-1.9-7.63-0.67
				C984.41,908.22,982.73,908.63,982.42,910.45z M921.2,1007.86c-1.49,0.14-3.4-1.01-4.35,1.06c-0.4,0.86,0.54,1.38,1.27,1.82
				c1.25,0.75,3.95,0.64,2.8,3.02c-0.85,1.75-2.91,0.96-4.51,0.5c-0.95-0.28-1.9-0.67-2.87-0.74c-0.53-0.04-1.39,0.37-1.58,0.8
				c-0.47,1.04,0.44,1.44,1.25,1.66c0.8,0.22,1.64,0.24,2.44,0.44c1.83,0.46,4.04,1.26,3.6,3.36c-0.51,2.47-2.93,1.23-4.63,1.2
				c-1.99-0.03-4.49-3.2-5.59-0.74c-1.03,2.3,2.7,3.13,4.34,4.56c0.97,0.85,2.24,1.42,3.45,1.95c1.84,0.8,3.76,0.21,3.9-1.68
				c0.25-3.47,3.02-4.97,4.68-7.33c1.62-2.29,3.67-4.7,2.46-7.68C926.65,1007.11,923.56,1008.34,921.2,1007.86z M944.39,948.78
				c1.51-0.15,3.19-0.03,3.97-1.61c0.56-1.13-0.38-1.96-1.33-2.28c-6.43-2.17-12.77-4.9-19.38-6.16c-4.96-0.95-9.77-1.7-14.14-4.34
				c-1.14-0.69-2.72-1.59-3.55-0.15c-1.04,1.79,1,2.11,2.08,2.6c9.57,4.43,19.48,8.01,29.42,11.49
				C942.37,948.66,943.42,948.64,944.39,948.78z M896.11,1069.33c-0.43-1.2-1.3-1.91-2.36-2.49c-8.75-4.77-18.34-7.89-26.55-13.72
				c-1.83-1.3-4.19-2.28-5.46,0.53c-1.19,2.64,0.73,3.82,3.05,4.61c6.09,2.08,12.02,4.41,17.79,7.42c3.34,1.75,6.81,3.97,10.77,4.58
				C894.37,1070.42,895.69,1071.11,896.11,1069.33z M915.58,1079.02c0.86-0.21,2.17-0.45,3.43-0.86c1.34-0.44,3.36-0.26,3.51-2.18
				c0.16-1.97-1.82-2.1-3.16-2.58c-2.35-0.84-4.72-1.63-7.13-2.3c-2.55-0.71-4.73-2.55-7.55-2.43c-2.02,0.09-3.51,1.02-4.36,2.83
				c-0.6,1.28-0.05,2.35,1.14,2.89C905.86,1076.41,910.21,1078.54,915.58,1079.02z M904.8,1042.57c2.06,3.09,4.01,3.94,5.95,4.9
				c5.19,2.58,10.81,4.33,15.37,8.17c1.59,1.34,3.93,3.31,5.69,1.32c2.03-2.29-1.12-3.62-2.32-5.16c-0.68-0.88-1.76-1.58-2.79-2.04
				C920.02,1046.82,912.95,1045.09,904.8,1042.57z M975.53,1083.49c1.32-0.64,6.2,1.73,3.5-3.02c-2.43-4.28-7.53-5.59-12.27-6.51
				c-1.37-0.27-2.67,0.47-2.15,2.35C965.07,1077.99,973.31,1083.54,975.53,1083.49z M949.59,1084.38c3.23,0.7,6.33,1.41,9.68,1.23
				c2.83-0.15,6.21,0.53,5.82,4.71c-0.12,1.27-2.14,2.62,0.43,3.39c1.58,0.48,3.42,0.74,4.72-0.53c1.62-1.59,0.01-2.63-1.03-3.61
				c-1.12-1.05-1.18-2.24-0.78-3.62s-0.36-2.51-1.62-2.56C961.06,1083.12,955.26,1082.53,949.59,1084.38z M900.85,1024.58
				c-1.13-0.16-1.98-0.09-2.43,0.74c-0.54,1-0.33,2.26,0.59,2.64c5.31,2.19,10.65,4.32,16.07,6.21c1.23,0.43,2.61-0.52,2.95-2.05
				c0.27-1.23-0.05-2.61-1.31-2.88C911.22,1028.03,905.8,1026.66,900.85,1024.58z M936.51,1107.96c1.96-0.17,4.35,0.52,4.82-1.78
				c0.48-2.36-1.87-2.83-3.58-3.22c-3.69-0.84-7.43-1.5-11.16-2.19c-1.07-0.2-2.43-0.92-3,0.59c-0.48,1.26,0.53,2.26,1.46,2.87
				C928.59,1106.53,932.75,1106.97,936.51,1107.96z M1029.38,915.31c0.4-0.34,1.27-0.72,1.58-1.37c1.08-2.29,2.93-3.93,4.52-5.79
				c0.95-1.11,2-2.39,1.09-3.98c-0.86-1.52-2.27-2.43-4.06-2.34c-1.85,0.09-2.66,1.34-3.5,2.95c-1.58,3.05,1.34,6.52-1.18,9.42
				C1027.45,914.64,1028.27,915.28,1029.38,915.31z M1019.84,221.5c1.24-2.46,2.49-4.81,3.59-7.23c0.54-1.18,0.12-2.3-1.02-2.96
				c-1.9-1.1-3.48-0.16-4.92,1.01c-1.47,1.19-2.69,2.68-1.8,4.66C1016.51,218.75,1017.78,220.28,1019.84,221.5z M917.03,1042.18
				c1.47,0.01,3.1,0.36,3.49-1.32c0.45-1.89-0.81-3.48-2.46-3.72c-2.76-0.41-5.48-0.81-8.17-1.56c-0.96-0.27-2.1,0.06-2.41,1.18
				c-0.12,0.44,0.45,1.53,0.78,1.56C911.68,1038.64,913.76,1042.01,917.03,1042.18z M922.84,988.6c4.35,4.48,8.05,6.65,13,5.54
				c0.82-0.18,1.65-0.4,1.96-1.31c0.26-0.76-0.19-1.52-0.81-1.54C932.6,991.14,928.63,988.48,922.84,988.6z M870.45,1045.97
				c-1.26-0.03-2.27,0.03-2.61,1.24c-0.25,0.9,0.16,1.71,0.91,2.09c2.63,1.33,5.18,2.9,8.16,3.34c0.82,0.12,1.69-0.04,2.1-0.91
				c0.44-0.92-0.1-1.63-0.77-2.12C875.83,1047.84,873.11,1046.71,870.45,1045.97z M1016.05,927.13c-1.62,0.33-2.7,1.44-2.9,2.95
				c-0.29,2.21-1.68,4.35-0.73,6.64c0.29,0.71,1.21,0.6,1.69,0.14c2.31-2.2,3.85-4.85,3.96-8.1
				C1018.11,927.7,1017.28,927,1016.05,927.13z M1061.8,548.47c1.86-0.14,2.32-1.33,2.07-2.77c-0.39-2.22-1.37-4.22-3.92-4.42
				c-1.74-0.13-2.82,1.12-2.7,2.83C1057.44,546.88,1059.48,547.92,1061.8,548.47z M918.39,990.5c-0.74-1.87-2.34-2.9-4.45-3.16
				c-1.88-0.23-4.33-0.18-4.8,1.68c-0.7,2.79,2.21,1.44,3.46,2.04c1.04,0.5,2.15,0.91,3.26,1.22
				C917.16,992.64,918.19,992.38,918.39,990.5z M1026.57,889.21c-0.99-0.29-2.02-0.45-2.73,0.48c-0.44,0.57-0.38,1.41,0.29,1.72
				c1.93,0.92,3.86,1.95,5.91,2.45c1.31,0.32,2.74-0.64,2.92-2.12c0.2-1.66-1.43-1.5-2.48-1.75
				C1029.19,889.68,1027.87,889.47,1026.57,889.21z M939.63,1078.21c4.26,2.6,8.07,0.23,11.19,2.17c1,0.63,2.25,0.66,3.22-0.34
				c0.49-0.51,0.73-1.15,0.31-1.79c-0.88-1.33-2.31-1.49-3.55-1C947.59,1078.52,944.24,1077.89,939.63,1078.21z M966.86,896.2
				c-1.24-0.02-3.18-0.37-2.77,1.09c0.73,2.53,3.74,2.17,5.75,3.08c0.83,0.37,2.51,0.47,2.29-0.79
				C971.63,896.76,968.73,897.04,966.86,896.2z M885.83,1054.04c1.42,1.92,3.87,2.45,6.02,3.39c0.74,0.32,2.15,0.11,1.98-0.67
				c-0.6-2.83-3.51-2.93-5.54-4.01C887.44,1052.29,886.34,1052.36,885.83,1054.04z M859.33,1080.39c-1.48-1.23-2.35-3.57-4.78-3.65
				c-1.08-0.03-1.76,1.1-1.32,2.17c0.84,2.03,2.74,2.75,4.72,3.09C858.8,1082.15,859.57,1081.72,859.33,1080.39z M979.59,900.05
				c-1.34,0.16-2.96,0.17-3.12,1.83c-0.18,1.75,1.33,2.11,2.72,2.08c1.34-0.03,2.89-0.3,3.09-1.88
				C982.52,900.19,980.86,900.22,979.59,900.05z M1026.22,247.83c0.15-1.39-0.77-1.79-1.79-1.76c-1.48,0.04-3.04,0.34-3.44,2.06
				c-0.29,1.25,0.78,1.7,1.78,1.75C1024.34,249.96,1025.59,249.34,1026.22,247.83z M954.22,1093.2c-0.17-1.46-1.27-1.78-2.48-1.83
				c-1.18-0.05-2.6,0.08-2.76,1.46c-0.18,1.53,1.32,1.69,2.44,1.82C952.6,1094.79,953.78,1094.7,954.22,1093.2z M923.25,952.69
				c-0.22-1.25-1.07-1.55-2.13-1.39c-1.44,0.22-2.34,1.14-2.58,2.54c-0.21,1.21,0.53,1.95,1.69,1.69
				C921.7,955.2,922.81,954.26,923.25,952.69z M949.68,1072.61c-0.62-1.26-1.58-2.4-3.27-2.32c-1.18,0.06-1.72,1.03-1.47,2.13
				c0.34,1.48,1.52,2.11,2.95,2.17C949.05,1074.64,949.77,1074.08,949.68,1072.61z M875.54,1088.69c0.88-0.08,2.17,0,2.06-1.36
				c-0.13-1.68-1.63-1.95-2.98-1.89c-1.03,0.05-2.77-0.22-2.45,1.52C872.45,1088.44,874.17,1088.4,875.54,1088.69z"/>
			<path d="M919.4,177.16c-0.02-5.97,2.5-10.35,3.49-15c2.2-10.33,10.18-17.33,16.05-25.49c2.2-3.06,6.01-4.65,9.79-5.67
				c8.89-2.41,18.06-3.29,26.96-6.01c9.72-2.97,19.28,0.7,28.55,3.95c0.77,0.27,1.58,0.79,2.33,0.72
				c7.76-0.71,12.62,4.21,17.52,8.98c4.41,4.29,8.68,8.73,13,13.11c1.93,1.95,3.04,4.38,3.65,6.99c0.35,1.49,0.13,3.16-1.52,3.85
				c-1.68,0.71-2.83-0.35-3.72-1.7c-0.45-0.69-1.12-1.34-1.3-2.11c-0.63-2.62,0.35-5.46-2.37-7.74
				c-8.1-6.77-14.08-16.88-25.04-19.14c-13.73-2.84-27.83-7.82-41.72,0.05c-1.12,0.63-2.56,1.03-3.84,1
				c-11.07-0.26-17.77,6.26-24.78,13.9c-7.3,7.96-10.69,17.36-14.35,26.91c-0.24,0.62-0.48,1.24-0.8,1.82
				C921.17,175.85,920.83,176.01,919.4,177.16z"/>
			<path d="M997.24,588.53c1.99,0.27,2.94,1.71,3.67,3.17c2.87,5.77,5.12,11.67,6.94,17.95c3.59,12.41,6.07,25.16,10.82,37.24
				c0.59,1.5,2.54,3.59,0.02,4.7c-2.32,1.02-3.88-1.29-4.35-3.07c-2.96-11.05-7.38-21.64-10.1-32.78c-1.94-7.93-3.44-16.1-7.8-23.26
				C995.5,590.93,994.99,589.42,997.24,588.53z"/>
			<path d="M1110.72,206.86c-0.46,3.76-1.8,7.39-3.51,10.78c-3.63,7.18-1.9,14.15,0.57,21.01c0.96,2.67,2.15,5.17,2.32,8.07
				c0.18,3.15,1.26,5.89,4.57,7.06c2.08,0.73,2.1,1.99,0.83,3.37c-1.23,1.34-2.58,2.63-4.05,3.69c-1.73,1.24-3.78,0.75-3.72-1.33
				c0.24-9.37-3.92-17.68-5.95-26.48c-1.88-8.15,1.88-15.3,3.8-22.79c0.37-1.44,0.64-2.91,1-4.36c0.36-1.48-0.42-4.06,1.89-3.92
				C1111.17,202.13,1110.51,204.85,1110.72,206.86z"/>
			<path d="M1088.87,222.25c0.61-7.46,1.41-14.88,3.88-22.02c0.48-1.39,0.64-3.21,2.48-3.38c2.06-0.19,1.8,1.92,2.6,3.04
				c2.87,4.03,1.32,7.76-0.14,11.74c-2.08,5.69-5.81,11.02-4.25,17.63c0.23,0.98-0.13,2.09-1.23,2.46c-1.4,0.47-2.19-0.49-2.71-1.58
				C1088.29,227.6,1088.78,224.92,1088.87,222.25z"/>
			<path d="M1039.32,397.83c4.47,0.79,5.79-0.57,4.01-4.51c-0.46-1.03-0.7-2.2-0.8-3.33c-0.09-1.02,0.35-2.01,1.43-2.37
				c1.15-0.37,2.04,0.29,2.35,1.28c1.84,5.75,5.72,9.95,10.06,13.89c1.39,1.26,2.38,3.17,0.96,4.88c-1.66,2-3.32,0.37-4.72-0.72
				c-3.99-3.11-8.86-3.46-13.51-4.57c-1.84-0.44-4.59-0.78-4.08-3.35C1035.51,396.69,1037.99,397.74,1039.32,397.83z"/>
			<path d="M1073.57,216.45c0.46,3.58-2.33,5.49-2.36,8.53c-0.06,4.83,0.08,9.14,2.87,13.6c2.36,3.78,1.84,8.99,3.86,13.24
				c0.34,0.72,0,1.7-0.87,2.11c-0.98,0.46-1.57-0.21-1.99-0.96c-4.63-8.44-9.74-16.67-9.09-26.96c0.17-2.69-0.04-4.89,3.42-5.41
				C1071.36,220.32,1072.05,218.22,1073.57,216.45z"/>
			<path d="M1052.8,579.74c-0.01,1.79-0.98,2.06-2.29,1.44c-1.68-0.8-2.96-2.05-3.86-3.75c-4.73-8.92-7.89-18.71-14.62-26.55
				c-0.72-0.84-1.54-2.1-0.36-3.09c1.14-0.96,2.3-0.02,3.03,0.81c2.53,2.86,5.44,5.55,7.26,8.83c3.77,6.81,6.94,13.95,10.35,20.97
				C1052.52,578.83,1052.64,579.32,1052.8,579.74z"/>
			<path d="M794.34,242.86c1.11-1,1.53-1.5,2.06-1.84c1.68-1.07,2.82-2.51,2.37-4.53c-0.51-2.3-2.61-1.5-4.13-1.75
				c-5.74-0.96-8.74-5.61-6.67-10.35c0.47-1.07,0.87-2.33,2.27-2.34c1.25-0.01,1.21,1.32,1.73,2.11c2.99,4.57,5.7,9.67,12.7,7.65
				c1.41-0.41,2.22,0.02,2.02,1.74C805.93,240.07,802.02,243.3,794.34,242.86z"/>
			<path d="M1047.95,366.36c-0.18,1.88,0.23,3.81-1.78,4.05c-1.79,0.21-1.92-1.61-2.07-2.86c-1.25-10.13-7.34-18.49-10.22-28.02
				c-0.41-1.35-2.24-2.97-0.63-3.95c2-1.22,2.83,1.05,3.41,2.51c3.21,8.02,8.33,15.23,10.13,23.85
				C1047.12,363.57,1047.63,365.16,1047.95,366.36z"/>
			<path d="M979.18,185.56c-2.29,0.26-3.28-1.04-4.01-2.6c-1.11-2.38-2.13-4.73-5.45-2.63c-0.96,0.61-1.97,0.28-2.36-0.91
				c-0.37-1.15,0.25-1.99,1.26-2.34c3.39-1.19,6.08-2.75,7.22-6.69c0.57-1.96,2.7-0.93,3.31,0.59c1.58,3.94,3.31,7.9,4.12,12.03
				C983.86,186,980.34,184.59,979.18,185.56z"/>
			<path d="M991.17,521.42c-2.79-0.57-6.25,1.63-6.71-1.38c-0.34-2.21,3.51-1.98,5.33-2.09c8.52-0.54,16.48-3.76,24.87-4.78
				c1.25-0.15,3.11-0.91,3.55,0.61c0.61,2.12-1.64,2.03-2.93,2.39C1007.14,518.47,999.1,521.28,991.17,521.42z"/>
			<path d="M940.75,198.2c3.65-2.15,8.17-2.58,4.64-7.14c-0.55-0.71-0.23-1.62,0.5-2.21c0.74-0.6,1.56-0.59,2.26,0.02
				c0.88,0.76,1.99,1.45,2.49,2.42c1.99,3.9,3.43,8.15,8.39,9.51c0.8,0.22,1.26,1.63,0.48,2.59c-0.8,0.99-1.9,0.66-2.64-0.04
				c-2.04-1.95-5.06-1.51-7.23-3.2C947.5,198.48,944.64,198.84,940.75,198.2z"/>
			<path d="M1081.71,280.56c0.79,0.98,1.56,2.06,2.46,3.03c3.46,3.73,5.27,12.06,3.43,15.79c-0.82,1.66-1.96,2.84-3.9,2.2
				c-1.55-0.51-2.05-2.18-1.21-3.28c4.18-5.45-0.96-9.26-2.26-13.71c-0.32-1.11-1.21-2.05-0.27-3.17
				C1080.22,281.1,1080.77,281,1081.71,280.56z"/>
			<path d="M920.05,428.92c9.67,1.78,18.35,5.81,26.07,11.94C936.7,438.53,927.87,434.91,920.05,428.92z"/>
			<path d="M1075.65,207.37c-0.56-5.88,7.6-14.49,12.82-13.88c1.28,0.15,2.29,0.57,2.2,2.09c-0.07,1.31-7.29,7.68-8.59,7.32
				C1078.26,201.87,1078.11,206.24,1075.65,207.37z"/>
			<path d="M798.38,270.33c-8.37-4.09-12.01-14.97-8.45-21.83c0.46-0.89,0.94-1.96,2.08-1.76c1.37,0.24,0.89,1.49,0.9,2.42
				c0.05,3.3,0.06,6.6,0.16,9.9C793.2,263.01,795.62,266.02,798.38,270.33z"/>
			<path d="M943.32,204.53c3.95-2.22,7.25-1.31,9.87,1.93c2.31,2.85,3.12,5.86,1.07,9.16c-0.56,0.9-1.55,1.24-2.63,0.81
				c-1.37-0.54-2.54-1.64-1.96-3.02C952.07,207.68,949.73,204.96,943.32,204.53z"/>
			<path d="M952.1,254.85c3.38,0.85,4.38,4.05,6.15,6.52c1.74,2.42,3.66,4.72,5.37,7.16c0.58,0.82,0.65,2.01-0.38,2.63
				c-0.41,0.25-1.56,0.06-1.77-0.29c-2.89-4.84-7.45-8.44-9.95-13.54C951.18,256.64,951.21,255.69,952.1,254.85z"/>
			<path d="M972.35,231.39c-0.29-1.78-0.6-3.55-0.88-5.34c-0.19-1.23-0.06-2.42,1.34-2.8c1.27-0.35,2.3,0.29,2.88,1.41
				c1.77,3.45,1.16,7.09,0.61,10.67c-0.16,1.05-1.23,1.49-2.32,1.43c-1.16-0.06-1.83-0.81-1.95-1.87c-0.13-1.14-0.03-2.3-0.03-3.46
				C972.11,231.41,972.23,231.4,972.35,231.39z"/>
			<path d="M1082.93,209.27c0.11,8.26-0.76,15.36,0.02,23.24C1078.66,228.49,1078.64,214.38,1082.93,209.27z"/>
			<path d="M786.79,207.3c-0.28,2.04,0.39,3.94,0.85,5.88c0.31,1.33,0.38,2.88-1.36,3.21c-1.44,0.27-1.93-1.03-2.21-2.2
				c-0.7-2.93-1-5.92-0.55-8.9c0.19-1.22,0.23-3.06,2.05-2.85c1.33,0.15,1.37,1.68,1.35,2.87
				C786.9,205.98,786.83,206.64,786.79,207.3z"/>
			<path d="M1044.07,172.43c-0.35,2.02,0.36,4.35-2.01,4.4c-2.06,0.04-3.15-1.68-2.93-3.81c0.28-2.68-0.75-7.36,1.95-7.4
				C1044.8,165.54,1042.45,170.55,1044.07,172.43z"/>
			<path d="M1060.1,218.25c-2.2-0.53-1.91-2-1.54-3.2c0.73-2.33,0.3-5.87,4.08-5.71c2.52,0.11,3.68,2.37,3.3,4.65
				C1065.41,217.25,1061.63,216.39,1060.1,218.25z"/>
			<path d="M991.13,243.49c2.04,2.23,3.39,3.61,4.64,5.08c1.18,1.38,1.48,2.94,0.5,4.57c-0.78,1.29-1.99,1.77-3.4,1.25
				c-1.76-0.66-2.33-2.25-2.6-3.92C989.92,248.25,991.91,246.58,991.13,243.49z"/>
			<path d="M967.48,217.33c0.7-1.82,0.6-3.79,0.64-5.76c0.04-1.86,0.94-3.41,3.02-2.93c2.08,0.48,2.18,2.4,1.56,4.02
				c-0.86,2.24-2.67,4.13-2.25,6.83c0.11,0.71-0.61,1.24-1.32,1.06C967.49,220.12,967.4,218.78,967.48,217.33z"/>
			<path d="M921.33,200.32c4.47,7.6,1.62,15.25,4.64,21.81C922.44,215.66,920.99,208.82,921.33,200.32z"/>
			<path d="M1007.11,178.82c-3.71-1.88-6.47-1.24-9-1.94c-1.86-0.52-3.5-1.82-2.96-3.98c0.62-2.46,2.6-1.21,4.15-1.02
				C1002.82,172.33,1004.74,174.69,1007.11,178.82z"/>
			<path d="M964.93,193.74c-0.16,1.71-1.18,2.85-2.84,2.8c-2.95-0.09-3.72-2.75-4.1-4.83c-0.37-2.02,1.82-1.27,2.96-1.33
				C963.22,190.26,964.79,191.17,964.93,193.74z"/>
			<path d="M845.25,295.63c0.49-1.62-0.29-4.4,2.02-4.48c2.1-0.07,1.02,2.37,1,3.67c-0.03,1.66,0.58,4.24-2.03,4.21
				C844.59,299.01,845.41,296.88,845.25,295.63z"/>
			<path d="M839.15,288.05c-0.27,1.41,0.34,3.42-1.66,3.05c-1.96-0.36-1.5-2.62-1.87-4.11c-0.3-1.23,0.16-2.56,1.55-2.49
				C839.72,284.62,838.51,286.98,839.15,288.05z"/>
			<path d="M767.08,249.72c-0.02,1.17-0.36,2.31-1.58,2.13c-2.22-0.32-2.61-2.28-2.94-4.09c-0.15-0.86,0.2-1.92,1.17-1.78
				C765.79,246.29,766.69,247.89,767.08,249.72z"/>
			<path d="M782.02,273.57c-0.02,1.15-0.4,2.18-1.59,2.06c-2.01-0.2-2.37-1.94-2.68-3.55c-0.17-0.9,0.3-1.76,1.22-1.71
				C780.93,270.47,781.56,272.02,782.02,273.57z"/>
			<path d="M1084.23,239.48c-0.12,1.13,0.27,2.74-1.32,2.76c-1.91,0.01-2.15-1.75-2.21-3.23c-0.05-1.13,0.05-2.69,1.43-2.75
				C1084.27,236.16,1083.78,238.25,1084.23,239.48z"/>
			<path d="M992.04,840.99c-0.21,1.55-1.13,1.56-2.14,1.04c-3.37-1.74-6.73-3.5-10.04-5.35c-0.46-0.26-0.9-1.03-0.9-1.56
				c0-0.82,0.85-1.02,1.49-0.83c3.94,1.17,7.75,2.65,10.83,5.52C991.63,840.12,991.81,840.62,992.04,840.99z"/>
			<path d="M1078.66,820.36c-1.38-1.02-4.59,0.83-4.89-2.28c-0.17-1.74,1.76-2.85,3.53-2.52c2.11,0.4,4.28,1.49,4.4,3.9
				C1081.78,820.9,1080.03,820.52,1078.66,820.36z"/>
			<path d="M1068.05,825.48c3.4,0.31,5.78,0.48,8.14,0.77c1,0.12,2.01,0.58,1.97,1.79c-0.05,1.3-1.15,1.47-2.16,1.4
				C1073.27,829.24,1070.58,828.91,1068.05,825.48z"/>
			<path d="M1098.47,811.97c-1.61-0.88-3.58-1.58-3.69-3.92c-0.05-1.02,0.97-1.37,1.75-1.12c1.9,0.6,3.64,1.58,3.79,3.86
				C1100.4,811.8,1099.45,811.99,1098.47,811.97z"/>
			<path d="M1091.47,815.14c1.43,0.21,3.11,0.29,3.55,1.97c0.36,1.38-0.93,1.56-1.88,1.39c-1.38-0.24-3.2-0.16-3.65-1.85
				C1089.14,815.34,1090.5,815.31,1091.47,815.14z"/>
		</g>
	</g>
	<g>
		<g>
			<path class="st0" d="M1063,292.06c-1.74-0.38-2.81-1.43-3.72-3c-3.68-6.37-9.08-11.06-15.64-14.16
				c-3.86-1.83-6.96-5.34-12.15-4.61c-4.99,0.7-9.69,5.61-7.25,9.93c3.82,6.76-0.47,12.13-1.91,17.82c-1,3.97-1.78,7.05,0.7,10.74
				c2.58,3.84,4.34,8.23,7.44,11.78c0.73,0.84,1.7,1.99,0.72,3.09c-1.11,1.25-2.21,0.14-2.96-0.66c-4.69-4.94-9.99-9.52-12.01-16.33
				c-1.32-4.45-4.12-5.3-8.32-5.16c-19.27,0.65-37.09-2.9-50.54-18.39c-6.33-7.29-14.55-11.45-23.71-13.96
				c-2.94-0.81-5.54,0.92-8.15,1.68c-2.21,0.64-0.52,2.45,0.43,3.49c2.34,2.55,5.56,4.36,6.74,7.89c0.45,1.33,1.76,2.99-0.16,3.95
				c-1.83,0.92-2.6-0.85-3.29-2.16c-3.5-6.63-9.3-10.05-16.23-12.27c-4.89-1.56-9.21,0.05-13.62,1.46
				c-2.97,0.95-1.46,2.77-0.53,4.31c2.07,3.42,4.3,6.73,6.22,10.23c0.73,1.32,1.81,3.41-0.34,4.33c-1.79,0.77-2.47-1.2-3.12-2.49
				c-2.6-5.14-6.36-9.35-10.55-13.18c-1.21-1.1-2.7-2.12-4.23-2.59c-2.66-0.81-6.13-1.94-7.84,0.68c-1.68,2.58,1.93,3.69,3.38,5.27
				c5.49,5.96,12.17,11.04,14.15,19.55c0.26,1.13,0.64,2.25,0.82,3.39c0.17,1.03-0.01,2.15-1.19,2.42
				c-1.25,0.28-1.65-0.75-1.97-1.75c-2.91-9.01-8.7-15.93-15.68-22.1c-2.94-2.6-6.44-3.93-9.99-3.9
				c-11.05,0.08-21.85-1.87-32.74-3.13c-2.89-0.33-5.47-1.32-7.73-3.21c-0.88-0.74-2.01-1.53-3.17-0.76
				c-1.26,0.84-0.53,2.07-0.19,3.16c0.66,2.08,1.72,4.7-1.42,5.23c-2.87,0.48-3.3-2.28-3.45-4.47c-0.64-9.03-2.97-17.87-0.35-27.18
				c1.69-6.01-0.33-12.61-2-18.69c-1.15-4.19-4.97-6.15-9.11-5.23c-5.55,1.23-9.57-2.04-14.16-3.7c-1.47-0.53-1.93-1.85-1.35-3.29
				c0.63-1.58,1.91-1.62,3.33-1.09c1.17,0.44,2.46,1.87,3.58,0.54c1.22-1.46-0.34-2.77-1.04-3.99c-4.64-8.11-7.35-17.09-11.41-25.46
				c-2.21-4.56-6.37-7.17-9.55-10.74c-1.16-1.3-3.1-1.23-4.51,0.16c-1.36,1.34-1.4,3.01-0.58,4.62c1.28,2.48,3.51,4.01,5.91,5.19
				c2.4,1.18,3.77,2.64,2.82,5.49c-0.51,1.54,0.24,2.92,0.78,4.33c0.4,1.05,1.12,2.38-0.32,3.06c-1.26,0.59-2.49-0.34-2.79-1.44
				c-2.15-7.95-9.79-10.99-14.64-16.49c-0.85-0.97-2.07-1.68-3.24-2.3c-1.21-0.64-2.59-0.91-3.7,0.24
				c-0.96,0.99-0.62,2.18-0.14,3.27c1.68,3.85,3.57,7.6,7.42,9.77c3.97,2.24,5.76,5.14,5.69,10.09c-0.09,6.42,3.79,11.94,6.18,17.77
				c0.6,1.46,2.37,3.24,0.26,4.28c-1.93,0.95-2.78-1.36-3.37-2.79c-2.91-7.02-6.55-13.65-8.27-21.28c-1.04-4.6-6.93-6.7-10.59-9.97
				c-0.25-0.23-1.35,0.09-1.71,0.47c-0.95,1.02-0.6,2.3,0.13,3.21c1.88,2.32,3.91,4.53,5.92,6.74c1.01,1.11,2.36,2.1,2,3.8
				c-1.72,8.19,0.57,16.13,1.39,24.16c0.1,0.94,0.48,1.98,1.05,2.73c1.43,1.91,2.41,3.85,0.29,5.73c-2.4,2.13-5.12,1.46-7.32-0.26
				c-3.2-2.49-5.33-5.88-7.04-9.57c-2.04-4.4-4.36-8.66-8.56-11.45c-2.06-1.36-4.57-3.38-6.5-0.45c-2.03,3.08,0.86,4.46,3.13,5.49
				c4.27,1.93,7.19,5.23,8.11,9.59c1.76,8.33,7.22,14.57,11.37,21.52c2.7,4.53,4.72,9.18,5.34,14.3
				c1.69,13.92,10.81,22.65,21.57,29.54c5.03,3.22,11.97,2.1,18.07,2.15c3.77,0.03,6.28,0.83,8.9,3.95
				c8.26,9.78,17.5,18.58,28.7,25.09c1.8,1.04,3.43,2,5.59,1.23c1.95-0.7,3.62,0.1,5.09,1.3c2.42,1.97,5.39,2.55,8.25,3.42
				c4.05,1.24,6.75-0.45,8.55-4.05c0.52-1.04,1.31-2.07,0.3-3.19c-0.79-0.88-1.84-0.67-2.78-0.29c-4.33,1.78-3.91-0.96-2.82-3.3
				c1.79-3.85,1.3-7.63-0.16-11.15c-2.6-6.26-4.46-12.23,1.54-17.8c1.76,0.78,1.83,2.7,1.22,4.41c-1.18,3.32-0.27,6.61-0.35,9.91
				c-0.04,1.56,0.01,3.14,2.02,3.43c1.79,0.26,2.77-0.89,3.38-2.37c1.86-4.53,2.4-9.32,2.78-14.14c0.1-1.25-0.46-3.21,1.34-3.22
				c1.94-0.01,1.95,2.08,1.84,3.5c-0.14,1.81-0.78,3.57-1.07,5.37c-0.24,1.49-0.36,3.1,1.14,4.07c1.55,1,2.78,0.02,4.07-0.83
				c4.23-2.75,7-1.81,8.27,3.36c-5.05-4.29-5.82-1.4-6.71,2.93c-0.96,4.7-2.88,9.17-6.45,12.74c-1.49,1.49-3.31,3.58-1.21,5.63
				c2.36,2.31,4.04-0.37,5.32-1.76c3.61-3.91,9.11-4.78,12.72-8.68c-6.06,7.19-11.71,14.69-19.64,19.79
				c-2.63,1.69-5.83,0.96-8.82,0.77c-1.16-0.07-2.45-0.12-3.11,1.1c-0.69,1.28,0.29,2.15,1.01,3.07c5.04,6.44,16.33,7.6,23.43,3.24
				c4.22-2.6,9.79-2.62,13.47-6.79c2.06-2.33,4.81-4.07,7.34-5.96c1.13-0.85,2.48-1.4,4.06-1.67c-3.26,6.86-9.22,11.08-15.21,14.96
				c-4.99,3.23-10.66,5.41-16.01,8.1c-1.47,0.74-3.18,1.37-3.05,3.5c0.12,1.92,1.4,2.99,3.03,3.61c8.25,3.15,16.45,7.01,25.3,1.75
				c1.06-0.63,2.51-1.66,3.43,0.07c0.69,1.3-0.79,1.9-1.44,2.81c-5.12,7.17-11.77,5.93-18.68,3.57c-1.26-0.43-2.5-0.97-3.8-1.21
				c-3.47-0.63-5.27,0.74-4.43,4.38c2.18,9.47,2.62,19.09,2.71,28.75c0.01,0.8,0,1.86,0.47,2.37c8.76,9.6,17.5,19.22,30.97,22.31
				c1.49,0.34,4.08,0.34,3.55,2.49c-0.5,2.02-2.84,1.09-4.36,0.66c-7.42-2.07-14.69-4.4-19.99-10.57c-1.22-1.42-2.98-3.58-4.97-1.74
				c-1.92,1.77-0.01,3.81,1.2,5.23c5.48,6.48,11.07,12.86,16.71,19.19c2,2.25,3.64,4.65,4.04,8.06
				c-5.54-5.01-11.05-10.07-16.65-15.01c-1.77-1.56-3.41-5.13-5.81-3.67c-3.01,1.83-0.75,5.19,0.3,7.62
				c1.48,3.42,1.87,7.08,2.97,10.57c0.48,1.52,0.17,2.98-0.81,4.25c-4.85,6.26-6.96,13.22-6.93,21.26
				c0.02,6.42-0.81,13.03-5.38,18.34c-1.28,1.49-1.58,3.32-0.57,5.13c2.88,5.16,19.35,13.51,25.03,12.12
				c9.03-2.21,18-4.77,26.85-7.62c9.64-3.11,19.14-0.84,28.7,0.01c0.78,0.07,1.84,0.59,1.63,1.54c-0.39,1.79-1.81,0.73-2.85,0.78
				c-8.57,0.37-17.22-1.8-25.72,0.82c-1.72,0.53-4.02,0.61-4.03,2.98c-0.01,2.3,2.27,2.73,3.98,3.14
				c5.36,1.29,10.26,3.79,15.41,5.62c4.06,1.44,8.38,0.62,12.6,2.35c6.92,2.83,13.65,6.09,20.63,8.77c0.77,0.3,1.59,0.7,2.38,0.68
				c15.32-0.25,29.45,6.39,44.61,7.54c7.18,0.54,14.6,0.76,21.67,3.17c4.19,1.43,7.8-1.25,11.06-3.5
				c10.72-7.41,17.26-18.21,23.27-29.39c1.05-1.96,1.25-4.13,1.19-6.32c-0.07-2.73,0.68-5.21,1.94-7.65
				c4.22-8.15,5.25-16.48,2.59-25.55c-1.5-5.1-1.82-10.57-1.15-16.2c1.19-9.84-1.75-19.45-3.28-29.13
				c-2.2-13.92-8.32-26.6-12.23-39.98c-0.99-3.39-1.57-6.8-1.74-10.32c-0.1-2.06-0.06-3.39,2.47-4.56c3.55-1.65,2.01-5.83,0.92-7.95
				c-3.32-6.48-4.16-13.7-6.88-20.27c-3.48-8.43-9.88-14.92-15.95-21.55c-1.24-1.35-2.58-2.6-3.81-3.95
				c-1.01-1.1-2.38-2.41-0.89-3.83c1.45-1.39,2.7-0.15,3.76,1.02c3.34,3.7,6.84,7.28,10.02,11.12c2.44,2.94,4.43,3.73,7.91,1.12
				c3.13-2.34,5.39-5.95,9.58-6.93c1.36-0.32,2.2-1.85,1.86-3.21c-1.26-5.11,2.07-9.59,2.37-14.79c0.8,2.27,1.55,4.56,2.4,6.81
				c1.3,3.42,3.73,4.04,6.48,1.56c2.94-2.65,4.25-6.53,7.34-9.26c1.99-1.75-0.51-4.22-2.28-6.91c1.57,0.75,2.44,1.19,3.33,1.58
				c0.97,0.43,1.95,0.57,2.73-0.33c0.76-0.88,0.57-1.89,0.07-2.79c-1.08-1.95-2.44-4.23-0.1-5.78c2.56-1.69,3.68,1.32,5.15,2.61
				c2.67,2.34,4.7,3.52,5.78-1.33c0.6-2.72,3.34-4.54,3.67-7.52c0.04-0.36,1.08-0.95,1.56-0.86c6.93,1.25,7.38-4.41,7.78-8.37
				c0.91-8.94,2.31-17.7,5.02-26.27c0.6-1.88,0.1-3.79-1.82-4.7c-2.17-1.02-3.36,0.58-4.41,2.17c-2.21,3.34-3.02,7.21-3.92,11.9
				c-1.5-7.71-0.17-13.09,3.62-16.71c2.17-2.08,4.45-2.9,7.15-1.04c2.6,1.79,4.24,4.4,2.72,7.28c-4.3,8.13-4.63,16.9-5.04,25.72
				c-0.2,4.35-1.67,8.13-5.13,10.97c-1.21,0.99-2.08,2.25-2.39,3.73c-1.65,7.84-7.97,11.08-14.22,14.14
				c-3.59,1.76-6.4,3.96-8.39,7.4c-2.29,3.96-5.46,7.25-9.46,9.38c-2.88,1.53-5.19,3.46-7.32,5.84c-2.82,3.16-5.21,6.58-9.8,8.05
				c-3.23,1.03-4.23,4.38-2.29,7.93c7.95,14.59,10.16,30.27,9.52,46.73c-0.38,9.69,2.39,19.17,5.44,28.3
				c5.15,15.44,5.86,31.39,6.21,47.37c0.12,5.74,0.91,11.28,2.17,16.78c1.04,4.51,1.23,8.39-1.29,12.85
				c-2.37,4.19-3.46,9.41-3.96,14.29c-1.19,11.54-7.42,20.46-14.17,29.12c-3.79,4.87-7.75,9.38-4.17,16.04
				c0.15,0.28,0.21,0.66,0.17,0.98c-1.71,12.5,5.45,23.12,7.45,34.86c0.86,5.07,2.19,9.85,1.31,15.15
				c-0.75,4.49,0.39,9.25-2.29,13.49c-0.41,0.65-0.14,2.06,0.28,2.87c2.73,5.2,3.86,10.83,5.42,16.43c1.37,4.93,2.54,9.94,3.84,14.9
				c3.69,14.12,7.54,28.21,10.19,42.58c0.84,4.56-0.97,9.45,1.49,13.74c2.73,4.75,5.34,9.68,8.77,13.91
				c8.76,10.81,13.29,23.75,19.05,36.08c0.54,1.16,1.48,2.78-0.06,3.53c-1.66,0.81-2.87-0.76-3.42-2.12
				c-2.66-6.65-7.52-12.11-9.9-18.96c-3.16-9.11-10.24-15.92-15-24.12c-1.29-2.22-3.22-1.87-5.24-0.9
				c-1.44,0.69-3.02,0.85-3.98-0.75c-1.08-1.81,0.26-2.82,1.64-3.53c2.78-1.42,2.81-3.71,2.49-6.38
				c-1.61-13.71-4.29-27.17-8.07-40.46c-1.95-6.84-3.03-13.92-4.71-20.84c-1.18-4.83-2.66-9.58-4.12-14.33
				c-0.44-1.42-1.22-2.96-3.09-2.75c-1.96,0.22-2.78,1.81-2.94,3.54c-0.14,1.46-0.12,3.06,0.32,4.44
				c3.54,11.08,3.69,22.62,4.76,34.04c1.14,12.1,1.99,24.22,2.04,36.38c0.01,1.16,0.03,2.34-0.13,3.48
				c-0.17,1.23-0.82,2.31-2.17,2.38c-1.68,0.09-2.37-1.15-2.44-2.58c-0.18-3.49-0.49-7-0.27-10.48c1.02-15.58-2.27-30.82-3.58-46.21
				c-0.17-2-0.5-3.94-0.02-5.94c1.7-7.03-3.05-15.56-11.99-17c-2.81-0.45-3.63,1.25-3.87,3.37c-0.6,5.16-0.99,10.46,1.15,15.28
				c2.84,6.37,3.36,13.01,4.36,19.78c1.43,9.64,0.51,19.72,4.63,28.93c0.32,0.72,0.43,1.63-0.36,2.42c-2.3-0.07-2.24-2.16-2.55-3.54
				c-2.8-12.29-6.22-24.42-6.78-37.2c-0.27-6.17-3.83-11.98-4.04-18.42c-0.13-3.88,0.16-7.66,1.41-11.31
				c0.63-1.83,1.12-3.58-0.43-5.1c-1.38-1.35-3.08-1.08-4.69-0.49c-4.79,1.76-9.36,4.03-14.7,4.12c-2.79,0.05-2.75,2.69-2.85,4.98
				c-0.3,6.98-0.22,13.91,1.5,20.75c0.32,1.26,0.12,2.66,0.05,3.98c-0.06,1.01-0.31,2.18-1.46,2.35c-1.28,0.2-1.67-1-1.74-1.97
				c-0.8-10.12-3.21-19.99-3.97-30.17c-0.57-7.66,2.34-14.42,2.63-21.51c0.5-12.25,0.22-24.58,0.59-36.87
				c0.06-2.11-1.12-3.75-2.38-5.36c-1.23-1.57-1.81-3.48,0.27-4.73c1.76-1.06,3.09,0.24,4.21,1.61c4.37,5.39,3.35,11.7,2.66,17.75
				c-0.67,5.79-1.52,11.44-0.71,17.34c0.84,6.17-0.49,12.41-2.53,18.16c-2.62,7.4,2.65,9.4,8.17,8.5c3.88-0.64,7.57-2.46,11.33-3.79
				c1.25-0.44,2.41-1.01,3.84-0.81c1.14,0.16,2.33,2.19,3.4,0.31c0.7-1.23-0.19-2.68-0.87-3.75c-2.83-4.49-5.83-8.88-8.76-13.31
				c-0.89-1.34-2.58-2.95-0.83-4.31c1.55-1.2,2.47,0.99,3.53,1.89c5.38,4.54,8.3,10.79,11.38,16.86c1.2,2.36,1.76,4.97,0.64,7.72
				c-1.54,3.78,0.51,4.84,3.88,4.62c2.24-0.15,4.2-0.92,5.72-2.67c2.88-3.3,4.52-7.67,5.69-11.38c1.81-5.71,2.61-12.53,0.81-18.46
				c-1.99-6.53-3.93-13.05-5.44-19.71c-2.53-11.18-9.35-16.93-20.51-19.65c-9.4-2.29-18.98-3.45-28.37-5.76
				c-6.57-1.62-13.63-1.12-20.03-3.74c-9.6-3.93-20.56-2.35-29.85-7.4c-8.56-4.65-17.82-6.95-27.17-9.46
				c-5.87-1.58-12.07-3.42-17.49-6.64c-2.95-1.75-6.08-1.46-9.21-1.59c-1.14-0.05-2.58-0.17-2.81,1.36
				c-0.21,1.38,1.05,1.96,2.1,2.46c5.56,2.64,11.57,4.1,17.09,6.91c10.26,5.22,21.36,8.41,32.46,10.95
				c10.58,2.43,20.78,5.73,30.91,9.41c0.59,0.22,1.15,0.53,1.63,0.76c0.07,1.18-0.82,1.53-1.25,1.24c-3.68-2.45-8.02-1.79-12-2.75
				c-14.19-3.41-28.66-5.94-42.37-10.92c-11.53-4.19-22.52-9.87-33.75-14.89c-1.06-0.47-2.07-1.14-3.18-1.4
				c-1.12-0.26-2.48-0.24-2.85,1.25c-0.29,1.17,0.64,1.74,1.52,2.28c12.45,7.67,25.11,14.5,39.02,19.7
				c15.88,5.94,32.42,7.1,48.51,11.04c4.91,1.2,9.4,3.32,13.67,5.97c0.95,0.59,2.54,1.06,1.92,2.45c-0.75,1.7-2.37,0.9-3.45,0.28
				c-6.64-3.85-14.08-5.05-21.43-6.39c-6.7-1.23-13.5-1.99-20.27-2.78c-6.05-0.7-11.72-2.45-16.94-5.59
				c-5.49-3.31-12.14-3.15-17.8-6.33c-4.78-2.69-9.63-5.24-14.24-8.23c-3.78-2.45-7.73-4.55-11.81-6.48
				c-4.29-2.03-9.07-3.56-11.07-8.67c-0.57-1.46-2.28-1.87-3.63-2.5c-1.22-0.58-2.58-1.12-3.72,0.01c-1.33,1.31-0.71,2.81,0.08,4.12
				c3.93,6.6,9.89,11.1,15.91,15.63c10.12,7.6,21.54,12.26,33.49,16.05c11.4,3.62,20.65,11.08,30.55,17.46
				c6.15,3.96,13.34,6.83,19.38,10.68c9.61,6.13,20.13,5.92,30.24,8.48c0.65,0.16,1.35,0.2,1.94,0.48c2.03,0.97,5.27,1.72,4.04,4.55
				c-0.94,2.15-3.59,0.46-5.31-0.35c-6.43-3.04-13.65-1.72-20.37-4.03c-6.99-2.4-13.69-5.05-20-8.83c-4.36-2.61-9-4.2-14.23-3.87
				c-3.43,0.22-4.82,1.82-3.19,4.81c4.59,8.43,5.43,18.54,12.28,26.04c2.07,2.27,3.39,6.11,3.37,9.23
				c-0.04,5.9,3.18,9.72,6.82,13.32c12.16,12.06,23.91,24.52,35.67,36.97c2.38,2.52,5.16,4.71,7.98,6.74
				c2.38,1.71,4.38,1.09,4.12-2.15c-0.27-3.35,0.15-6.46,1.59-10.83c0.85,5.91,2.28,10.29,1.2,15.3c-1.57,7.24,4.02,11.9,7.62,17.17
				c0.51,0.75,1.41,0.85,2.2,0.26c1.05-0.78,1.36-1.93,1.2-3.12c-1.41-10.62-0.85-21.28-0.82-31.94
				c0.02-10.43,0.78-20.85,0.19-31.28c-0.05-0.96-0.26-2.17,0.89-2.61c1.45-0.55,2.1,0.69,2.67,1.66c1.29,2.23,2.11,4.72,1.21,7.19
				c-1.44,3.97-1,7.84-0.28,11.82c1.19,6.57,0.17,13.22,0.52,19.85c0.55,10.41-0.36,20.91,0.19,31.37c0.12,2.23-1.02,3.38-2.96,4.03
				c-0.82,0.28-1.57,0.75-1.55,1.71c0.02,1.21,0.94,1.7,1.97,1.9c1.79,0.34,3.8,1.25,5.37,0.77c4.49-1.37,8.61-3.12,12.96,0.75
				c1.71,1.52,3.12-1.88,5.28-2.14c1.03,2.97,0.81,5.43-1.66,7.66c-1.84,1.66-3.94,3.76-2.13,6.43c1.78,2.63,4.21,3.6,7.79,2.53
				c4.58-1.37,9.6-0.89,14.25-2.38c0.82-0.26,1.78-0.34,2.29,0.42c0.68,1.02-0.05,1.84-0.76,2.6c-4.3,4.65-20.67,7.47-25.76,4.43
				c-4.5-2.69-5.23-5.34-2.72-9.96c1.02-1.87,2.8-3.69,1.17-5.92c-1.77-2.42-4.11-1.12-6.39-0.68c-2.41,0.46-4.96,0.22-7.39,0.62
				c-3.56,0.58-4.95,2.74-3.35,6.12c3.15,6.64,4.92,13.78,7.74,20.5c1.83,4.35,5.71,7.71,9.5,10.51c6.01,4.43,12.57,8.1,18.73,12.35
				c2.14,1.48,6.06,3.47,4.25,6.13c-1.45,2.13-4.05-1.49-6.1-2.61c-4.52-2.48-8.99-5.05-13.52-7.51c-0.98-0.53-2.22-1.21-3.21-0.08
				c-0.96,1.09-0.33,2.35,0.45,3.15c2.18,2.21,1.79,4.74,1.51,7.46c-1.24,11.98,6.95,19.16,18.64,16.3c6.3-1.54,13-0.9,19.04-3.67
				c9.56-4.38,20.62-5.65,28.42-13.72c1.4-1.45,2.73-0.98,3.44,0.88c0.67,1.76,1.18,3.89,0.11,5.33c-3.16,4.3-1.63,8.73,0.35,12.27
				c7.73,13.79,5.21,25.47-6.05,35.85c-1.96,1.81-3.68,4.11-5.98,5.25c-9.95,4.94-15.5,13.93-21.26,22.63
				c-11.12,16.81-22.08,33.71-36.16,48.28c-8.81,9.11-15.56,19.77-23.21,29.74c-6.62,8.62-12.21,17.7-17.76,26.93
				c-3.35,5.57-2.4,7.73,3.18,11.06c5.97,3.56,12.72,4.81,18.92,7.59c2.03,0.91,5.21,2.54,4.63-2.48c-0.26-2.25,1.8-2.59,3.06-1.75
				c4.38,2.88,9.17,4.6,14.14,6.06c1.26,0.37,2.37,1.85,1.33,3.21c-2.23,2.9-0.25,4.04,1.78,5.46c1.22,0.85,2.22,2,3.32,3.02
				c2.35,2.16,4.47,3.21,5.95-0.89c1.13-3.15,2.86-2.02,4.47-0.39c4.1,4.16,3.24,10.76-1.74,14.04c-7.57,4.99-15.8,8.36-24.72,9.84
				c-4.51,0.75-7.24,4.37-11.19,6.18c-11.56,5.27-23.84,7.27-36.04,9.72c-3.88,0.78-6.48,1.91-6.84,6.37
				c-0.33,4.07-3.63,5.23-7.07,5.9c-6,1.16-11.29,3.57-15.97,7.7c-4.74,4.17-6.7,9.28-7.29,15.31c-0.5,5.08,0.65,10.34-1.66,15.23
				c-0.63,1.34-0.09,2.25,1.18,2.79c1.07,0.45,2.15,0.96,3.28,1.22c14.37,3.27,21.44,14.87,29.15,25.65
				c2.18,3.05,1.8,6.05-1.24,8.87c-3.31,3.07-7.19,4.66-11.32,6.06c-11.69,3.96-23.68,2.89-35.65,2.3
				c-4.49-0.22-8.98-0.46-13.47-0.72c-4.7-0.28-9.38-1.03-13.45-3.43c-7.6-4.49-15.65-8.16-23.77-11.4
				c-5.12-2.04-10.75-6.12-16.87-1.6c-1.1,0.81-2.52,0.03-3.8-0.47c-5.89-2.27-11.82-4.42-17.73-6.62
				c-1.97-0.73-3.94-0.51-5.88,0.11c-6.47,2.04-12.62,1.77-18.86-1.37c-5.04-2.54-10.54-4.12-16.4-3.61
				c-4.99,0.43-8.66-3.16-13.09-4.5c-14.01-4.26-28.65-6.21-42.36-11.63c-3.62-1.43-6.91-3.45-9.91-5.67
				c-3.42-2.53-5.15-6.38-4.28-11.05c1.11-5.96,0.99-5.88-4.81-5.7c-2.47,0.08-4.97-0.39-7.45-0.6c-4.43-0.38-8.84-1.62-13.28,0.32
				c-1.07,0.47-2.75,0.22-3.9-0.28c-9.42-4.09-19.73-6.19-28.04-12.76c-4.24-3.36-4.7-8.56-0.81-12.4
				c6.43-6.34,14.16-10.25,22.74-12.97c15.57-4.92,31.56-4.16,47.51-4.23c14.65-0.06,29.28,1.13,43.93,0.45
				c2.56-0.12,5.35-0.48,6.99-2.3c4.61-5.12,10.56-4.82,16.24-3.99c7.97,1.17,15.96,0.7,23.93,1.31c4.99,0.38,9.91,0.87,14.84,1.65
				c4.28,0.68,8.66,1.33,12.05-2.61c0.76-0.89,2-1.44,3.11-0.49c1.17,1,0.37,2.12-0.11,3.17c-1.99,4.27-5.88,6.6-11.25,5.15
				c-15.02-4.05-30.56-1.66-45.67-4.24c-3.48-0.59-6.1,1.23-8.21,3.82c-2.44,2.99-5.28,4.5-9.18,2.91c-0.73-0.3-1.74-0.42-2.45-0.15
				c-8.67,3.22-17.54,1.12-26.19,0.53c-15.34-1.06-30.62-0.11-45.82,0.91c-11.72,0.79-23.31,4.06-33.39,10.85
				c-7.21,4.86-7.41,8.78,0.44,12.49c10.15,4.8,20.35,10.07,32.26,9.27c5.63-0.38,11.28,0.04,16.92,0.93
				c4.39,0.69,6.11,2.56,5.65,6.96c-0.89,8.59-0.5,8.74,7.24,12.39c11.74,5.52,24.53,7.22,36.86,10.58
				c5.62,1.53,10.99,3.57,16.37,5.91c8.95,3.89,18.57,6.07,28.15,8.06c2.27,0.47,4.24,0.32,3.62-3.33
				c-1.63-9.56,1.93-18.07,6.78-25.86c11.59-18.62,22.58-37.58,32.81-56.94c4.43-8.39,4.95-18.26,6.66-27.59
				c0.51-2.8,0.73-5.63,3.19-7.62c1.13-0.92,1.45-2.29,0.88-3.64c-2.51-5.88-0.97-11.73-0.07-17.63c0.82-5.39,1.46-10.98,1.33-16.28
				c-0.34-14.15,6.96-24.21,15.66-33.88c0.33-0.36,0.92-1.01,1.08-0.92c6.45,3.3,3.76-2.38,4.14-4.45c0.58-3.17,3.05-5.12,4.26-7.83
				c7.02-15.66,19.21-27.34,30.62-39.62c1.9-2.05,4.17-11.36,2.6-13.58c-2.4-3.38-5.86-5.47-10.22-5.18
				c-2.65,0.18-5.26,0.78-7.9,1.16c-2,0.29-4.11,0.57-5.69-1c-1.41-1.4-3.06-3.31-2.01-5.22c0.95-1.72,2.6,0.34,3.97,0.54
				c2.14,0.31,4.3,1.06,6.4,0.17c9.38-3.96,19.36-4.66,29.3-5.02c10.66-0.39,21.36-0.25,32.03,0.05c5.05,0.14,9.66-1.53,14.01-3.26
				c8.69-3.47,18.16-5.44,25.2-12.54c3.24-3.26,7.85-4.9,11.27-8.19c1.97-1.9,3.24-0.49,3.53,1.89c0.19,1.56-0.05,3.97,2.55,2.95
				c1.92-0.76,1.44-2.77,0.59-4.33c-0.47-0.87-1.01-1.78-1.75-2.4c-5.86-4.92-6.61-11.93-6.57-18.63
				c0.03-5.64-1.25-10.52-3.98-15.17c-4.06-6.92-7.33-13.81-8.24-22.18c-0.71-6.55-4.52-12.76-6.96-19.11
				c-0.95-2.48-2.56-4.89-2.8-7.43c-0.59-6.1-3.24-11.17-5.73-16.65c-3.91-8.6-9.07-15.64-16.2-21.66
				c-10.83-9.14-19-20.92-29.63-30.32c-10.49-9.27-19.26-20.23-28.92-30.32c-1.41-1.47-2.56-3.03-3.03-5.07
				c-0.54-2.36-0.26-4.17,2.72-3.83c3.61,0.42,3.48-1.52,2.68-3.94c-2.29-6.94-4.58-13.87-6.93-20.79
				c-0.69-2.04-2.21-3.46-4.29-3.84c-5.89-1.07-10.95-3.85-15.73-7.26c-4.7-3.35-10.16-4.9-15.52-6.7c-1.09-0.37-2.3-0.91-3.31-0.01
				c-1.08,0.97-0.52,2.29-0.04,3.26c4.81,9.59,5.28,20.14,7.15,30.41c1.22,6.69-2.8,11.38-4.91,16.83c-0.17,0.44-1.11,0.93-1.6,0.84
				c-1.06-0.19-0.93-1.18-0.8-2.01c0.08-0.49,0.2-0.99,0.4-1.44c7.08-15.38,0.97-29.22-5.09-43.02c-1.35-3.07-2.98-5.93-2.46-9.48
				c0.38-2.6-1.03-4.37-3.09-5.83c-6.46-4.57-14.21-6.52-20.98-10.46c-2.55-1.48-3.61,0.69-4.61,2.38
				c-7.54,12.78-13.97,26.07-19.61,39.83c-2.75,6.72-6.1,13.01-3.84,20.31c2.29,7.39,2.85,14.63,2.89,22.43
				c0.03,6.46,2.07,13.91,6.61,19.94c6.14,8.14,7.87,18.69,13.87,26.98c1.07,1.48,1.15,4.81,3.62,3.89c2.3-0.85,1.27-3.83,1.05-5.89
				c-1.36-12.76-5.46-24.98-7.7-37.53c-1.9-10.61-4.74-21.02-6.28-31.68c-0.14-0.99-0.32-1.99-0.29-2.98
				c0.05-2.04,0.89-3.69,3.12-3.83c2.27-0.14,3.46,1.41,3.38,3.47c-0.51,13.82,3.46,27.05,5.2,40.57
				c1.14,8.91,4.77,17.23,5.66,26.28c0.78,7.94,1.76,15.85,2.32,23.82c0.51,7.18,4.9,12.98,8.1,19.07
				c3.16,6.02,7.5,11.41,8.85,18.31c0.15,0.79,0.61,1.56,1.06,2.25c0.91,1.36,1.88,3.38,3.64,2.85c1.86-0.56,0.76-2.64,0.58-3.97
				c-3.15-23.23-5.08-46.65-10.73-69.5c-0.2-0.81-0.43-1.62-0.49-2.45c-0.13-1.73-0.09-3.58,2.13-3.85c1.9-0.24,2.33,1.42,2.86,2.87
				c3.63,9.8,4.77,20.05,5.49,30.36c0.46,6.65,1.31,13.21,2.88,19.73c2.58,10.68,3.16,21.58,2.43,32.54c-0.28,4.17,1,7.6,3.43,11.12
				c10.27,14.85,19.38,30.23,19.75,49.14c0.07,3.46,1.09,6.89,1.48,10.36c0.16,1.45,0.1,3.45-1.64,3.76
				c-2.08,0.37-1.91-1.77-2.31-3.11c-2.61-8.94-5.48-17.81-6.67-27.09c-0.38-2.92-2.59-4.99-3.84-7.52
				c-4.75-9.68-8.82-19.6-15.39-28.45c-4.12-5.54-5.3-13.11-8.78-19.41c-5.63-10.19-13-19.32-17.37-30.28
				c-4.23-10.62-10.94-20.16-13.86-31.41c-0.52-2.01-1.82-4.03-3.28-5.56c-7.15-7.46-10.03-17.11-13.82-26.29
				c-0.75-1.81-1.33-3.9-1.24-5.82c0.46-9.33-1.45-18.44-2.26-27.64c-0.37-4.16,0.1-7.97,2.56-11.41c3.96-5.54,5.31-12.09,7.5-18.36
				c3.74-10.72,9.36-20.61,15.58-30.1c1.36-2.07,2.03-3.98,1.82-6.48c-0.43-5.14,3.19-9.61,2.71-14.87c-0.11-1.21,0.7-2.56-0.13-3.8
				c-3.53-5.32-3.22-10.99-0.27-16.12c4.39-7.62,2.21-16.37,4.98-24.19c0.5-1.4,0.27-3.24,1.1-4.31c6.02-7.68,3.86-15.92,2.01-24.2
				c-0.4-1.77-1.13-3.83-0.61-5.39c2.44-7.36,0.03-14.05-2.34-20.77c-1.92-5.43-2.51-11.04-2.61-16.71
				c-0.21-11.72-3.72-22.57-8.45-33.11c-0.47-1.05-1.65-2.22-0.92-3.2c3.3-4.38-0.39-5.68-3.07-7.49c-0.28-0.19-0.63-0.34-0.78-0.61
				c-6.48-11.47-18.66-15.68-28.8-22.42c-9.73-6.47-18.87-13.49-26.06-22.8c-1.12-1.44-2.5-2.34-4.32-1.6
				c-6.72,2.75-12.99-0.21-19.14-1.92c-7.8-2.17-11.85-9.36-17.13-14.81c-6.34-6.54-8.53-14.86-9.46-23.56
				c-0.47-4.43-3.54-7.47-5.3-11.19c-3.13-6.61-6.87-12.95-9.89-19.61c-2.38-5.25-7.87-7.95-9.94-13.49
				c-1.9-5.1-1.54-7.76,2.68-10.1c1.83-1.01,3.37-0.97,5.1,0.16c6.75,4.42,12.04,9.94,14.21,17.97c0.21,0.8,0.42,1.65,0.87,2.32
				c0.85,1.24,1.94,2.72,3.56,2.24c2.08-0.61,1.22-2.55,0.82-3.83c-2.31-7.39-2.16-15.08-3.13-22.63c-0.44-3.44-4.17-5.17-5.87-8.24
				c-2.11-3.81-2.93-6.88-0.22-10.53c1.11-1.5,1.49-3.36,1.03-5.25c-0.73-2.98,0.13-5.55,2.76-6.84c2.82-1.38,6.36-2.52,8.97-0.21
				c3.08,2.73,4.61,1.3,7-0.81c6.06-5.34,6.91-4.76,13.27,0.19c8.09,6.3,11.44,14.77,13.3,24.28c1.67,8.53,5.03,16.12,12.28,21.47
				c0.67,0.49,1.28,1.27,2.02,1.42c4.07,0.84,7.99,2.21,9.68,6.25c2.45,5.86,3.96,12.02,3.43,18.48c-0.19,2.32-0.13,4.71-0.74,6.92
				c-2.77,10.03,3.96,14.83,12.75,17.54c8.94,2.75,18.45,2.78,27.71,3.32c5.48,0.32,10.26-4.2,15.89-5.21
				c3.03-0.55,5.73-1.45,8.48,0.72c1.73,1.37,3.72,0.78,5.74,0.31c7.93-1.88,15.83-3.86,24.13-2.3c6.49,1.22,12.42-1.16,18.26-3.56
				c4.44-1.82,4.51-5.29,3.02-9.14c-2.1-5.43-4.29-10.82-6.37-16.25c-1.41-3.67-1.68-6.92,2.16-9.71c2.34-1.7,4.17-4.31-0.12-6.48
				c-1.39-0.7-1.99-2.29-1.81-3.88c0.92-8.26-5.68-13.35-8.4-20.07c-0.1-0.25-0.45-0.49-0.74-0.57c-4.05-1.1-4.81-2.14-3.7-5.46
				c0.58-1.71,1.24-3.83,3.32-3.98c2.19-0.16,2.22,2.07,2.72,3.6c0.1,0.32,0.16,0.68,0.36,0.93c1.64,2.06,3.85,5.15,6.11,4.04
				c3.28-1.6,0.47-4.83-0.85-6.24c-4.65-5.01-0.62-10.87-1.64-13.5c-0.28,3.03,2.92,7.35,5.72,11.84c0.44,0.7,0.56,1.81,1.16,2.17
				c3.44,2.05,2.15,4.16,1.68,7.54c-1,7.15-2.99,15.32,4.43,21.1c1.11,0.87,1.84,2.34,2.5,3.66c1.18,2.36,0.93,4.06-2.19,4.67
				c-4.36,0.86-6.16,2.96-3,7.18c1.12,1.5,0.93,3.49,1.18,5.3c0.2,1.46,0.29,3.35,1.21,4.21c2.63,2.46,4.92,4.52,0.72,7.57
				c-0.41,0.3-0.4,1.68-0.1,2.35c1.38,3.09,1.31,6.47,2.09,9.57c0.81,3.24,3.51,6.48,6.23,8.67c7.88,6.34,14.42,14.33,23.6,19.07
				c6.56,3.39,13.05,6.77,20.82,5.5c0.49-0.08,1.19-0.23,1.47,0.02c5.02,4.56,10.02,0.91,15.01-0.01c4.11-0.75,5.73-3.25,4.23-7.18
				c-0.75-1.98-0.77-3.18,1.44-3.78c4.12-1.12,3.06-3.85,1.65-6.22c-1.69-2.85-4.76-4.06-7.14-1.62c-3.33,3.4-5.04,2.46-7.83-0.61
				c-2.68-2.94-7.26-2.8-10.75-5.22c-2.9-2.01-6.15-5.39-10.65-4.58c-4.64-6.66-14.28-8.63-16.53-17.5
				c-1.56-6.15-6-9.32-11.49-11.45c-3.41-1.32-6.94-2.39-9.86-4.74c-0.9-0.72-2.26-1.33-1.86-2.65c0.5-1.67,2.18-1.19,3.44-1.17
				c0.8,0.01,1.97,0.13,2.32,0.64c3.99,5.74,11.12,5.46,16.45,8.65c3.1,1.85,5.26,3.97,7.16,7.15c1.91,3.2,5.06,6.37,8.42,7.84
				c7.91,3.46,13.81,9.69,21.05,14c1.29,0.77,2.44,2.17,3.98,1.6c6.69-2.49,13.69-2.46,20.66-3c3.11-0.24,4.83-4.03,3.61-6.94
				c-1.47-3.51-8.69-5.85-11.87-3.77c-1.11,0.72-2.09,2.08-3.38,0.64c-1.34-1.5-1.01-3.47,0.44-4.43c2.86-1.9,3.38-4.37,3.64-7.58
				c0.39-4.81,4.06-5.97,7.75-2.81c1.56,1.34,3.86,2.1,4.96,0.64c3.04-4.03,10.81-1.95,11.32-8.36c0.29-3.65-3.32-5.27-6.62-5.45
				c-2.77-0.15-5.01-0.37-7.09-2.67c-2.73-3.02-5.07-0.53-6.37,1.73c-2.72,4.72-5.46,5.53-9.4,1.37c-1.21-1.28-3.03-2.08-4.71-2.78
				c-2.51-1.05-4.68-0.91-4.94,2.58c-0.11,1.54-0.39,2.99-1.79,3.93c-1.88,1.26-2.01,2.88-1.06,4.79c0.84,1.69,0.73,3.26-0.95,4.4
				c-1.53,1.04-2.97,0.47-4.02-0.72c-2-2.26-3.83-3.11-6.03-0.22c-0.64,0.84-1.8,0.9-2.65,0.04c-0.85-0.86-0.55-1.88-0.05-2.77
				c1.13-2.02,3.26-2.84,5.13-3.85c3.5-1.89,3.62-3.69,0.71-6.4c-2.3-2.15-5.61-4.37-2.7-8.37c1.58-2.17,3.08-3.93,4.94-0.14
				c0.55,1.13,1.72,1.98,2.68,2.88c1.17,1.1,2.31,2.97,4.14,1.77c1.46-0.96,0.01-2.36-0.31-3.58c-0.84-3.18,1.27-2.8,3.15-2.44
				c1.96,0.38,2.9,2.78,6.01,2.79c-3.41-5.41,2.69-8.85,2.11-13.94c-0.3-2.6,2.58-1.79,4.27-1.96c2-0.2,4.85,0.87,5.05-2.44
				c0.19-3.21-2.32-3.47-4.83-3.62c-2.58-0.15-5.15-0.58-7.73-0.89c0.17-2.8,2.52-2.72,3.82-3.81c1.75-1.47,1.68-2.83-0.57-3.69
				c-3.47-1.32-6.55-0.34-9.36,1.81c-1.95,1.49-4.02,2.48-6.48,1.57c-1.35-0.5-2.12-1.66-2.02-3.14c0.11-1.61,1.39-1.82,2.58-1.55
				c5.26,1.2,9.16-2.49,12.59-4.86c4.37-3.02,8.37-3.1,12.65-1.97c3.41,0.9,5.79,1.3,8.14-2.12c1.38-2.01,3.59-1.77,6.7-1.1
				c8.35,1.8,5.5,8.07,5.69,12.26c0.26,5.66,2.13,10.18,4.97,14.77c4.79,7.74,4.19,11.95-2.37,18.46c-1.68,1.67-2.21,3.25-0.89,5.28
				c2.94,4.51,1.11,8.97-0.25,13.35c-0.58,1.86-1.72,2.54-4.2,2.04c-3.11-0.62-6.55-0.13-9.75,0.41c-2.1,0.36-3.08,1.72-1.17,3.94
				c2.29,2.66,3.63,7.99,8,1.95c0.5-0.69,1.52-0.82,2.25-0.23c0.89,0.73,0.95,1.89,0.41,2.74c-2.67,4.17,0.96,8.4-0.22,12.68
				c-0.5,1.8,1.75,2.06,3.28,2.02c6.05-0.15,11.93,0.79,17.68,2.65c2.82,0.91,5.47-0.21,7.44-1.89c2.08-1.77-0.33-3.53-0.98-5.28
				c-1.64-4.39-4.01-8.38-6.45-12.35c-4.81-7.83-5.72-16.18-2.77-24.89c1.21,0.51,0.34,1.76,0.52,2.68c0.22,1.14,0.39,2.33,0.3,3.47
				c-0.77,10.37,5.37,18.13,9.91,26.5c0.71,1.31,1.58,2.62,1.93,4.04c0.8,3.31,2.69,5.18,6.08,5.71c1.64,0.26,3.64,0.75,3.85,2.64
				c0.23,2.06-2.09,2.28-3.39,3.17c-3.15,2.17-6.31,1.41-9.5,0.01c-1.43-0.63-3.1-2.23-4.43-0.33c-1.11,1.58,0.19,3.21,1.12,4.56
				c3.2,4.62,7.13,8.8,8.48,14.53c0.25,1.05,1.57,2.05,0.25,3.05c-0.95,0.71-1.85-0.08-2.65-0.73c-0.75-0.61-1.58-1.53-2.54-0.45
				c-0.73,0.83-0.32,1.9-0.09,2.87c0.5,2.09,2.12,3.29,3.62,4.63c1.17,1.04,1.92,2.45,1.22,4.02c-0.77,1.71-2.08,1.43-3.77,1.11
				c-4.42-0.86-4.35,2.32-4.17,5.3c0.12,1.98,2.33,5.02-0.25,5.64c-2.75,0.66-2.88-3.14-3.46-5.14
				c-3.29-11.34-11.41-19.33-18.84-27.81c-0.54-0.62-1.28-1.07-1.88-1.65c-0.94-0.9-2.43-1.9-1.43-3.28
				c1.08-1.48,2.28-0.1,3.44,0.51c6.63,3.47,10.72,9.3,14.62,15.36c1.22,1.9,2.28,5.45,4.41,4.8c2.67-0.81,0.96-4.36,1.29-6.7
				c0.13-0.95-0.19-1.97-0.3-2.96c3.12-0.18,3.59-1.88,2.46-4.4c-1.09-2.42-2.34-4.76-3.35-7.21c-0.87-2.1-1.88-3.92-4.4-4.18
				c-1.09-0.11-2.07,0.33-2.29,1.45c-0.47,2.4,1.6,3.43,2.85,4.89C1060.53,285.28,1064.32,287.37,1063,292.06z M998.45,884.58
				c3.23,0.72,5.86,0.42,8.05-2c8.37-9.27,15.85-19.11,22.16-29.97c2.1-3.61,5.07-7.07,8.16-10.31c5.14-5.39,12.36-10.58,8.21-20.07
				c-0.4-0.91,0.72-1.34,1.24-1.95c1.22-1.43-0.47-11.65-2.04-12.54c-0.28-0.16-0.63-0.32-0.94-0.3c-4.53,0.3-8.86-0.3-13.42,2.23
				c-9.38,5.19-19.19,9.85-30.63,8.28c-3.56-0.49-7.28,0.41-10.9-0.57c-1.28-0.35-2.72-0.16-3.56,1.16
				c-0.96,1.51-0.25,2.85,0.57,4.16c1.27,2.05,3.24,3.25,5.17,4.59c2.5,1.73,0.66,3.96,0.18,5.89c-0.39,1.55-2.06,1.53-2.78,0.61
				c-2.77-3.54-8.52-4.75-7.89-11.1c0.34-3.46-2.13-5.48-6-4.43c-1.77,0.48-3.54,0.95-5.28,1.51c-2.83,0.91-4.21,2.6-2.85,5.67
				c0.68,1.53,1.62,3.34-0.07,4.56c-2.41,1.75-2.9,3.77-2.14,6.5c0.42,1.5-0.12,3.06-1.19,4.18c-5.49,5.78-10.89,11.66-16.65,17.16
				c-3.6,3.44-4.11,5.12,0.08,7.59c9.3,5.48,18.85,10.53,28.34,15.67c3.52,1.91,7.52,2.56,11.24,3.86
				C990.21,886.61,994.36,884.43,998.45,884.58z M947.13,995.72c-2.17-0.58-3.63-0.28-4.66,1c-2.37,2.96-5.35,5.43-6.77,9.17
				c-2.6,6.86-6.07,13.4-10.19,19.37c-3.25,4.71-3.14,8.94-0.18,12.85c5.6,7.4,11.45,14.67,18.52,20.78
				c2.75,2.38,5.64,4.72,9.14,5.99c1.23,0.45,2.76,0.87,3.73-0.34c0.75-0.94-0.3-1.82-0.84-2.61c-1.37-2.02-1.02-3.39,1.43-4.07
				c4.75-1.32,5.16-5.19,5.1-9.12c-0.03-1.83-0.21-3.6,0.22-5.43c2.06-8.82,12.31-17.79,21.73-18.97c3.1-0.39,7.13-0.24,7.78-4.06
				c1.24-7.35,6.43-8.21,12.29-9.26c6.5-1.16,12.86-3.12,19.26-4.79c1.08-0.28,2.41-0.68,2.44-2.12c0.03-1.26-1.18-1.71-2.1-1.71
				c-6.38,0-12.26-2.93-18.62-3.01c-8.26-0.11-16.9,0.45-24.66-1.17C969.28,995.83,957.81,997.69,947.13,995.72z M1082.19,800.9
				c0.49-1.62,2.31-1,3.19-1.93c1.12-1.19,1.52-2.51-0.34-3.07c-4.07-1.23-7.03-4.53-10.97-5.81c-3.01-0.97-2.59-1.75-0.65-3.46
				c1.29-1.13,3.39-3.02,0.95-4.36c-3.64-2-6.16,0.87-8.54,3.29c-1.69,1.71-3.8,3.43-1.05,5.73c3.46,2.89,0.8,4.95-1.31,5.3
				c-4.11,0.68-6.69,2.22-8.93,5.94c-1.26,2.09-2.54,3.69-2.07,6.11c1.18,6.11,1.72,12.18-0.53,18.2c-0.67,1.8-0.74,3.63,1.17,4.89
				c8.82,5.83,17.82,9.84,28.91,6.33c8.65-2.74,9.26-3.46,3.96-10.64c-0.57-0.77-1.58-1.45-1.09-2.58c0.51-1.17,1.69-0.82,2.63-0.84
				c1.48-0.03,3.22-0.41,4.26,0.87c3.38,4.14,5.16,1.3,7.17-1.41c2.44-3.28,4.1-7.29,8.6-8.64c8.56-2.55,12.77-9.74,16.84-16.73
				c2.87-4.92,2.32-10.22-0.53-15.27c-1.14-2.01-2.23-4.18-2.7-6.41c-0.88-4.16-3.78-5.63-7.39-6.4c-1.98-0.43-4.24-0.78-5.6,0.98
				c-1.77,2.29,1.53,2.8,1.98,4.38c0.07,0.25-0.17,0.58-0.32,1.03c-1.1,0.37-2.3,0.29-3.28-0.35c-3.31-2.17-6.74-1.35-10.14-0.47
				c-2.43,0.63-4.51,1.6-1.34,4.14c0.79,0.63,1.76,1.28,0.76,2.36c-0.8,0.86-1.94,0.63-2.74-0.01c-1.58-1.25-3.07-2.52-5.25-2.57
				c-1.69-0.04-3.51-0.35-4.13,1.78c-0.61,2.1,0.79,2.92,2.51,3.6c1.85,0.73,3.77,1.47,5.36,2.62c2.68,1.93,4.21,4.19-0.01,6.25
				c-0.87,0.42-1.76,0.56-1.67,2C1090.26,801.61,1088.98,802.43,1082.19,800.9z M915.02,979.17c-0.04,0.83,0.53,1.09,1.18,1.33
				c5.36,1.99,11.09,2.63,16.26,5.58c2.73,1.55,7,3.32,9.87,1.51c3.19-2,5.63-5.56,7.71-8.87c3.96-6.31,7.36-12.94,11.74-19.03
				c3.84-5.35,8.1-10.43,11.06-16.41c1.24-2.51,0.87-4.29-1.83-4.06c-6.5,0.56-12.9,0.81-19.29-0.9c-1.27-0.34-2.81,0.38-2.89,2.05
				c-0.08,1.87,1.56,1.77,2.85,2.03c3.09,0.61,6.17,1.28,9.25,1.92c0.82,0.17,1.85,0.31,1.85,1.3c0,1.31-1.22,1.47-2.19,1.46
				c-1.99-0.03-3.98-0.29-5.97-0.34c-0.96-0.02-2.16-0.03-2.48,1.16c-0.4,1.45,0.79,2.04,1.81,2.59c1.89,1.01,3.92,0.35,5.89,0.47
				c1.07,0.07,1.92,0.67,2.24,1.71c0.29,0.93-0.19,1.56-1.11,1.88c-5.92,2.06-11.68,5-18.19,1.66c-1.69-0.87-5.09-2.49-5.6-0.11
				c-0.67,3.18,3.01,1.74,4.85,2.2c1.36,0.34,2.76,0.65,2.48,2.44c-0.25,1.59-1.58,2.21-2.99,1.99c-1.78-0.28-3.49-1.03-5.27-1.38
				c-0.99-0.2-2.18,0.05-2.36,1.26c-0.14,0.98,0.85,1.36,1.69,1.42c3.07,0.21,5.8,2.6,9.18,1.14c1.38-0.6,3.01,0.03,3.96,1.39
				c0.31,0.45,0.46,1.37,0.21,1.8c-0.99,1.64-2.54,0.95-4.02,0.83c-5.04-0.43-10.18,0.96-15.34-1.24c3.45,1.14,4.86,4.64,8.22,5.56
				c2.26,0.62,6.76-0.83,6.41,2.62c-0.35,3.51-4.56,0.38-6.88,1.38c-0.03,1.92,3.51,2.52,1.94,4.57c-1.32,1.71-3.03-0.2-4.56-0.47
				c-5.88-1.06-11.75-2.19-17.63-3.25C916.3,978.21,915.38,978.11,915.02,979.17z M1034.7,222.88c3.42-0.38,7.51-3.2,12.09-4.59
				c2.25-0.68,1.96-3.27,1.5-5.25c-1.07-4.67-3.49-8.59-7.03-11.79c-1.75-1.58-3.37-3.21-4.06-5.54c-2.02-6.81-3.25-7.13-8.61-2.47
				c-1.5,1.31-1.61,2.76-1.34,4.48c0.3,1.84,0.45,3.72-0.82,5.25c-1.92,2.31-1.09,3.99,0.63,6.07c2.02,2.44,3.18,5.11,1.52,8.67
				C1026.99,221.1,1028.96,222.99,1034.7,222.88z M948.62,566.05c2.09,0.09,3.06-0.3,3.25-1.45c0.25-1.54-0.83-2.48-1.99-3.18
				c-7.54-4.56-14.87-9.45-23.29-12.44c-12.43-4.41-23.37-11.79-34.93-17.95c-4.18-2.23-7.64-5.19-10.78-8.69
				c-1.34-1.5-3.34-2.97-5.05-0.7c-1.58,2.1,0.01,3.73,1.82,4.89c1.4,0.89,2.81,1.86,4.36,2.43c7.48,2.74,13.36,7.87,19.26,12.91
				c3.82,3.26,7.69,6.39,12.42,8.21c7.14,2.75,14.22,5.49,20.81,9.55C939.12,562.5,944.45,564.2,948.62,566.05z M1006.18,984.71
				c-1.28-0.41-2.24-0.65-3.14-1.02c-0.91-0.37-1.99-0.77-2.02-1.95c-0.03-1.26,1.04-1.54,2.03-1.76c1.15-0.26,2.61-0.46,1.83-2.13
				c-0.82-1.76-1.43-3.85-3.65-4.47c-1.34-0.37-2.39,0.28-2.73,1.54c-0.63,2.33-2.34,3.02-4.4,3.44c-0.3,0.06-0.49,0.64-0.7,0.93
				c0.94,1.3,2.86,0.22,3.68,2.4c-2.18,1.35-6.54,2.73-1.54,6.12c0.8,0.54-0.3,1.42-0.92,1.91c-1.09,0.86-2.18,1.74-1.34,3.3
				c0.81,1.52,2.31,2.05,3.84,1.6c4.12-1.21,8.64,1.74,12.6-1.3c0.44-0.34,1.87-0.12,2.29,0.35c4.32,4.8,10.38,2.54,15.53,3.92
				c1.23,0.33,3.05,0.35,3.41-1.2c0.35-1.51-1.46-1.43-2.45-1.88c-1.02-0.45-2.55-0.64-1.9-2.27c0.55-1.39,1.89-1.15,3.02-0.77
				c2.39,0.8,4.76,1.53,7.3,0.71c1.2-0.39,2.26-0.97,1.82-2.44c-0.34-1.11-1.48-1.53-2.44-1.15c-6.07,2.42-12.16-0.42-18.25,0.2
				c-5.82,0.59-11.71,0.68-17.75-0.48C1001.81,986.23,1004.72,987.35,1006.18,984.71z M1009.51,979.38
				c3.45,3.89,7.78,2.86,11.78,3.13c9.89,0.68,19.77,2.23,29.7,0.75c1.95-0.29,3.56-0.64,3.94,2.13c0.22,1.63,1.79,1.97,3.17,1.44
				c2.48-0.95,5.13-1.92,6.49-4.33c0.78-1.38-0.77-2.47-1.78-3.21c-5.78-4.23-11.98-7.46-19.55-7.76c0.6,2.41,2.46,3.22,4.08,4.31
				c1.31,0.88,1.28,2.54-0.07,2.6c-4.58,0.22-9.49,2.55-13.65,0.56C1025.25,974.99,1017.56,979.69,1009.51,979.38z M932.57,916.12
				c4.25-0.02,6.53,3.86,10.29,4.83c8.47,2.18,16.83,4.77,25.24,7.18c1.26,0.36,3.01,0.51,2.55,2.31c-0.39,1.53-2.08,1.52-3.4,1.31
				c-2.95-0.47-5.86-1.15-8.81-1.64c-0.95-0.16-2.17-0.18-2.52,1.01c-0.42,1.45,0.72,2.3,1.84,2.47c5.72,0.87,11.45,1.81,17.21,2.24
				c2.83,0.21,7.26-5.38,6.81-8.16c-0.57-3.47-3.69-2.62-5.98-3.1c-8.26-1.71-16.8-2.6-24.67-5.37
				C944.98,917.04,939.25,914.58,932.57,916.12z M980.84,984.33c3.47,0.72,4.28-0.75,4.08-2.9c-0.25-2.6,0.24-4.56,2.98-5.54
				c1.15-0.41,1.95-1.36,1.69-2.72c-0.33-1.7-1.7-1.85-3.08-1.86c-7.65-0.07-15.1-1.18-22.34-3.81c-2.3-0.83-3.98,0.66-4.49,2.79
				c-0.64,2.63,1.4,2.94,3.36,3.05c0.83,0.05,1.68,0.02,2.48,0.19c2.1,0.42,5,0.56,5.36,2.86c0.42,2.66-2.47,3.02-4.51,3.62
				c-1.42,0.42-3.34,0.61-3.03,2.59c0.3,1.88,2.27,1.96,3.66,1.64C971.97,983.08,976.86,982.82,980.84,984.33z M974.07,1109.1
				c5.5-0.5,10.88-1.22,15.66-4.34c5.27-3.44,5.64-5.75,1.54-10.66c-1.27-1.53-2.5-3.1-3.66-4.72c-1.59-2.23-3.54-3.65-6.33-2.55
				c-1.98,0.78-4.19,1.7-4.24,4.33c-0.07,3.24,2.81,3.16,4.85,4.02c1.61,0.68,2.86,1.79,2.95,3.66c0.1,1.8-1.33,2.46-2.66,3.22
				c-2.65,1.51-5.47,2.21-8.52,2.4c-1.79,0.12-4.17,0.62-4,2.86C969.88,1109.99,972.44,1108.84,974.07,1109.1z M982.42,910.45
				c1.8,1.1,3.19-0.82,4.78-0.56c0.75,0.12,1.62,0.48,2.12,1.02c0.62,0.67,0.31,1.53-0.29,2.24c-1.73,2.04-10.42,4.48-13.04,3.23
				c-6.16-2.95-13.22-3.09-19.22-6.45c-1.01-0.56-2.49-1.07-3.09,0.23c-0.73,1.58,1.07,1.75,1.98,2.25
				c5.24,2.86,11.2,3.94,16.52,6.48c9.1,4.33,11.86,7.2,19.32-3.07c1.92-2.64,3.26-5,1.73-7.5c-1.81-2.97-5.03-1.9-7.63-0.67
				C984.41,908.22,982.73,908.63,982.42,910.45z M921.2,1007.86c-1.49,0.14-3.4-1.01-4.35,1.06c-0.4,0.86,0.54,1.38,1.27,1.82
				c1.25,0.75,3.95,0.64,2.8,3.02c-0.85,1.75-2.91,0.96-4.51,0.5c-0.95-0.28-1.9-0.67-2.87-0.74c-0.53-0.04-1.39,0.37-1.58,0.8
				c-0.47,1.04,0.44,1.44,1.25,1.66c0.8,0.22,1.64,0.24,2.44,0.44c1.83,0.46,4.04,1.26,3.6,3.36c-0.51,2.47-2.93,1.23-4.63,1.2
				c-1.99-0.03-4.49-3.2-5.59-0.74c-1.03,2.3,2.7,3.13,4.34,4.56c0.97,0.85,2.24,1.42,3.45,1.95c1.84,0.8,3.76,0.21,3.9-1.68
				c0.25-3.47,3.02-4.97,4.68-7.33c1.62-2.29,3.67-4.7,2.46-7.68C926.65,1007.11,923.56,1008.34,921.2,1007.86z M944.39,948.78
				c1.51-0.15,3.19-0.03,3.97-1.61c0.56-1.13-0.38-1.96-1.33-2.28c-6.43-2.17-12.77-4.9-19.38-6.16c-4.96-0.95-9.77-1.7-14.14-4.34
				c-1.14-0.69-2.72-1.59-3.55-0.15c-1.04,1.79,1,2.11,2.08,2.6c9.57,4.43,19.48,8.01,29.42,11.49
				C942.37,948.66,943.42,948.64,944.39,948.78z M896.11,1069.33c-0.43-1.2-1.3-1.91-2.36-2.49c-8.75-4.77-18.34-7.89-26.55-13.72
				c-1.83-1.3-4.19-2.28-5.46,0.53c-1.19,2.64,0.73,3.82,3.05,4.61c6.09,2.08,12.02,4.41,17.79,7.42c3.34,1.75,6.81,3.97,10.77,4.58
				C894.37,1070.42,895.69,1071.11,896.11,1069.33z M915.58,1079.02c0.86-0.21,2.17-0.45,3.43-0.86c1.34-0.44,3.36-0.26,3.51-2.18
				c0.16-1.97-1.82-2.1-3.16-2.58c-2.35-0.84-4.72-1.63-7.13-2.3c-2.55-0.71-4.73-2.55-7.55-2.43c-2.02,0.09-3.51,1.02-4.36,2.83
				c-0.6,1.28-0.05,2.35,1.14,2.89C905.86,1076.41,910.21,1078.54,915.58,1079.02z M904.8,1042.57c2.06,3.09,4.01,3.94,5.95,4.9
				c5.19,2.58,10.81,4.33,15.37,8.17c1.59,1.34,3.93,3.31,5.69,1.32c2.03-2.29-1.12-3.62-2.32-5.16c-0.68-0.88-1.76-1.58-2.79-2.04
				C920.02,1046.82,912.95,1045.09,904.8,1042.57z M975.53,1083.49c1.32-0.64,6.2,1.73,3.5-3.02c-2.43-4.28-7.53-5.59-12.27-6.51
				c-1.37-0.27-2.67,0.47-2.15,2.35C965.07,1077.99,973.31,1083.54,975.53,1083.49z M949.59,1084.38c3.23,0.7,6.33,1.41,9.68,1.23
				c2.83-0.15,6.21,0.53,5.82,4.71c-0.12,1.27-2.14,2.62,0.43,3.39c1.58,0.48,3.42,0.74,4.72-0.53c1.62-1.59,0.01-2.63-1.03-3.61
				c-1.12-1.05-1.18-2.24-0.78-3.62s-0.36-2.51-1.62-2.56C961.06,1083.12,955.26,1082.53,949.59,1084.38z M900.85,1024.58
				c-1.13-0.16-1.98-0.09-2.43,0.74c-0.54,1-0.33,2.26,0.59,2.64c5.31,2.19,10.65,4.32,16.07,6.21c1.23,0.43,2.61-0.52,2.95-2.05
				c0.27-1.23-0.05-2.61-1.31-2.88C911.22,1028.03,905.8,1026.66,900.85,1024.58z M936.51,1107.96c1.96-0.17,4.35,0.52,4.82-1.78
				c0.48-2.36-1.87-2.83-3.58-3.22c-3.69-0.84-7.43-1.5-11.16-2.19c-1.07-0.2-2.43-0.92-3,0.59c-0.48,1.26,0.53,2.26,1.46,2.87
				C928.59,1106.53,932.75,1106.97,936.51,1107.96z M1029.38,915.31c0.4-0.34,1.27-0.72,1.58-1.37c1.08-2.29,2.93-3.93,4.52-5.79
				c0.95-1.11,2-2.39,1.09-3.98c-0.86-1.52-2.27-2.43-4.06-2.34c-1.85,0.09-2.66,1.34-3.5,2.95c-1.58,3.05,1.34,6.52-1.18,9.42
				C1027.45,914.64,1028.27,915.28,1029.38,915.31z M1019.84,221.5c1.24-2.46,2.49-4.81,3.59-7.23c0.54-1.18,0.12-2.3-1.02-2.96
				c-1.9-1.1-3.48-0.16-4.92,1.01c-1.47,1.19-2.69,2.68-1.8,4.66C1016.51,218.75,1017.78,220.28,1019.84,221.5z M917.03,1042.18
				c1.47,0.01,3.1,0.36,3.49-1.32c0.45-1.89-0.81-3.48-2.46-3.72c-2.76-0.41-5.48-0.81-8.17-1.56c-0.96-0.27-2.1,0.06-2.41,1.18
				c-0.12,0.44,0.45,1.53,0.78,1.56C911.68,1038.64,913.76,1042.01,917.03,1042.18z M922.84,988.6c4.35,4.48,8.05,6.65,13,5.54
				c0.82-0.18,1.65-0.4,1.96-1.31c0.26-0.76-0.19-1.52-0.81-1.54C932.6,991.14,928.63,988.48,922.84,988.6z M870.45,1045.97
				c-1.26-0.03-2.27,0.03-2.61,1.24c-0.25,0.9,0.16,1.71,0.91,2.09c2.63,1.33,5.18,2.9,8.16,3.34c0.82,0.12,1.69-0.04,2.1-0.91
				c0.44-0.92-0.1-1.63-0.77-2.12C875.83,1047.84,873.11,1046.71,870.45,1045.97z M1016.05,927.13c-1.62,0.33-2.7,1.44-2.9,2.95
				c-0.29,2.21-1.68,4.35-0.73,6.64c0.29,0.71,1.21,0.6,1.69,0.14c2.31-2.2,3.85-4.85,3.96-8.1
				C1018.11,927.7,1017.28,927,1016.05,927.13z M1061.8,548.47c1.86-0.14,2.32-1.33,2.07-2.77c-0.39-2.22-1.37-4.22-3.92-4.42
				c-1.74-0.13-2.82,1.12-2.7,2.83C1057.44,546.88,1059.48,547.92,1061.8,548.47z M918.39,990.5c-0.74-1.87-2.34-2.9-4.45-3.16
				c-1.88-0.23-4.33-0.18-4.8,1.68c-0.7,2.79,2.21,1.44,3.46,2.04c1.04,0.5,2.15,0.91,3.26,1.22
				C917.16,992.64,918.19,992.38,918.39,990.5z M1026.57,889.21c-0.99-0.29-2.02-0.45-2.73,0.48c-0.44,0.57-0.38,1.41,0.29,1.72
				c1.93,0.92,3.86,1.95,5.91,2.45c1.31,0.32,2.74-0.64,2.92-2.12c0.2-1.66-1.43-1.5-2.48-1.75
				C1029.19,889.68,1027.87,889.47,1026.57,889.21z M939.63,1078.21c4.26,2.6,8.07,0.23,11.19,2.17c1,0.63,2.25,0.66,3.22-0.34
				c0.49-0.51,0.73-1.15,0.31-1.79c-0.88-1.33-2.31-1.49-3.55-1C947.59,1078.52,944.24,1077.89,939.63,1078.21z M966.86,896.2
				c-1.24-0.02-3.18-0.37-2.77,1.09c0.73,2.53,3.74,2.17,5.75,3.08c0.83,0.37,2.51,0.47,2.29-0.79
				C971.63,896.76,968.73,897.04,966.86,896.2z M885.83,1054.04c1.42,1.92,3.87,2.45,6.02,3.39c0.74,0.32,2.15,0.11,1.98-0.67
				c-0.6-2.83-3.51-2.93-5.54-4.01C887.44,1052.29,886.34,1052.36,885.83,1054.04z M859.33,1080.39c-1.48-1.23-2.35-3.57-4.78-3.65
				c-1.08-0.03-1.76,1.1-1.32,2.17c0.84,2.03,2.74,2.75,4.72,3.09C858.8,1082.15,859.57,1081.72,859.33,1080.39z M979.59,900.05
				c-1.34,0.16-2.96,0.17-3.12,1.83c-0.18,1.75,1.33,2.11,2.72,2.08c1.34-0.03,2.89-0.3,3.09-1.88
				C982.52,900.19,980.86,900.22,979.59,900.05z M1026.22,247.83c0.15-1.39-0.77-1.79-1.79-1.76c-1.48,0.04-3.04,0.34-3.44,2.06
				c-0.29,1.25,0.78,1.7,1.78,1.75C1024.34,249.96,1025.59,249.34,1026.22,247.83z M954.22,1093.2c-0.17-1.46-1.27-1.78-2.48-1.83
				c-1.18-0.05-2.6,0.08-2.76,1.46c-0.18,1.53,1.32,1.69,2.44,1.82C952.6,1094.79,953.78,1094.7,954.22,1093.2z M923.25,952.69
				c-0.22-1.25-1.07-1.55-2.13-1.39c-1.44,0.22-2.34,1.14-2.58,2.54c-0.21,1.21,0.53,1.95,1.69,1.69
				C921.7,955.2,922.81,954.26,923.25,952.69z M949.68,1072.61c-0.62-1.26-1.58-2.4-3.27-2.32c-1.18,0.06-1.72,1.03-1.47,2.13
				c0.34,1.48,1.52,2.11,2.95,2.17C949.05,1074.64,949.77,1074.08,949.68,1072.61z M875.54,1088.69c0.88-0.08,2.17,0,2.06-1.36
				c-0.13-1.68-1.63-1.95-2.98-1.89c-1.03,0.05-2.77-0.22-2.45,1.52C872.45,1088.44,874.17,1088.4,875.54,1088.69z"/>
			<path class="st0" d="M919.4,177.16c-0.02-5.97,2.5-10.35,3.49-15c2.2-10.33,10.18-17.33,16.05-25.49
				c2.2-3.06,6.01-4.65,9.79-5.67c8.89-2.41,18.06-3.29,26.96-6.01c9.72-2.97,19.28,0.7,28.55,3.95c0.77,0.27,1.58,0.79,2.33,0.72
				c7.76-0.71,12.62,4.21,17.52,8.98c4.41,4.29,8.68,8.73,13,13.11c1.93,1.95,3.04,4.38,3.65,6.99c0.35,1.49,0.13,3.16-1.52,3.85
				c-1.68,0.71-2.83-0.35-3.72-1.7c-0.45-0.69-1.12-1.34-1.3-2.11c-0.63-2.62,0.35-5.46-2.37-7.74
				c-8.1-6.77-14.08-16.88-25.04-19.14c-13.73-2.84-27.83-7.82-41.72,0.05c-1.12,0.63-2.56,1.03-3.84,1
				c-11.07-0.26-17.77,6.26-24.78,13.9c-7.3,7.96-10.69,17.36-14.35,26.91c-0.24,0.62-0.48,1.24-0.8,1.82
				C921.17,175.85,920.83,176.01,919.4,177.16z"/>
			<path class="st0" d="M997.24,588.53c1.99,0.27,2.94,1.71,3.67,3.17c2.87,5.77,5.12,11.67,6.94,17.95
				c3.59,12.41,6.07,25.16,10.82,37.24c0.59,1.5,2.54,3.59,0.02,4.7c-2.32,1.02-3.88-1.29-4.35-3.07
				c-2.96-11.05-7.38-21.64-10.1-32.78c-1.94-7.93-3.44-16.1-7.8-23.26C995.5,590.93,994.99,589.42,997.24,588.53z"/>
			<path class="st0" d="M1110.72,206.86c-0.46,3.76-1.8,7.39-3.51,10.78c-3.63,7.18-1.9,14.15,0.57,21.01
				c0.96,2.67,2.15,5.17,2.32,8.07c0.18,3.15,1.26,5.89,4.57,7.06c2.08,0.73,2.1,1.99,0.83,3.37c-1.23,1.34-2.58,2.63-4.05,3.69
				c-1.73,1.24-3.78,0.75-3.72-1.33c0.24-9.37-3.92-17.68-5.95-26.48c-1.88-8.15,1.88-15.3,3.8-22.79c0.37-1.44,0.64-2.91,1-4.36
				c0.36-1.48-0.42-4.06,1.89-3.92C1111.17,202.13,1110.51,204.85,1110.72,206.86z"/>
			<path class="st0" d="M1088.87,222.25c0.61-7.46,1.41-14.88,3.88-22.02c0.48-1.39,0.64-3.21,2.48-3.38
				c2.06-0.19,1.8,1.92,2.6,3.04c2.87,4.03,1.32,7.76-0.14,11.74c-2.08,5.69-5.81,11.02-4.25,17.63c0.23,0.98-0.13,2.09-1.23,2.46
				c-1.4,0.47-2.19-0.49-2.71-1.58C1088.29,227.6,1088.78,224.92,1088.87,222.25z"/>
			<path class="st0" d="M1039.32,397.83c4.47,0.79,5.79-0.57,4.01-4.51c-0.46-1.03-0.7-2.2-0.8-3.33c-0.09-1.02,0.35-2.01,1.43-2.37
				c1.15-0.37,2.04,0.29,2.35,1.28c1.84,5.75,5.72,9.95,10.06,13.89c1.39,1.26,2.38,3.17,0.96,4.88c-1.66,2-3.32,0.37-4.72-0.72
				c-3.99-3.11-8.86-3.46-13.51-4.57c-1.84-0.44-4.59-0.78-4.08-3.35C1035.51,396.69,1037.99,397.74,1039.32,397.83z"/>
			<path class="st0" d="M1073.57,216.45c0.46,3.58-2.33,5.49-2.36,8.53c-0.06,4.83,0.08,9.14,2.87,13.6
				c2.36,3.78,1.84,8.99,3.86,13.24c0.34,0.72,0,1.7-0.87,2.11c-0.98,0.46-1.57-0.21-1.99-0.96c-4.63-8.44-9.74-16.67-9.09-26.96
				c0.17-2.69-0.04-4.89,3.42-5.41C1071.36,220.32,1072.05,218.22,1073.57,216.45z"/>
			<path class="st0" d="M1052.8,579.74c-0.01,1.79-0.98,2.06-2.29,1.44c-1.68-0.8-2.96-2.05-3.86-3.75
				c-4.73-8.92-7.89-18.71-14.62-26.55c-0.72-0.84-1.54-2.1-0.36-3.09c1.14-0.96,2.3-0.02,3.03,0.81c2.53,2.86,5.44,5.55,7.26,8.83
				c3.77,6.81,6.94,13.95,10.35,20.97C1052.52,578.83,1052.64,579.32,1052.8,579.74z"/>
			<path class="st0" d="M794.34,242.86c1.11-1,1.53-1.5,2.06-1.84c1.68-1.07,2.82-2.51,2.37-4.53c-0.51-2.3-2.61-1.5-4.13-1.75
				c-5.74-0.96-8.74-5.61-6.67-10.35c0.47-1.07,0.87-2.33,2.27-2.34c1.25-0.01,1.21,1.32,1.73,2.11c2.99,4.57,5.7,9.67,12.7,7.65
				c1.41-0.41,2.22,0.02,2.02,1.74C805.93,240.07,802.02,243.3,794.34,242.86z"/>
			<path class="st0" d="M1047.95,366.36c-0.18,1.88,0.23,3.81-1.78,4.05c-1.79,0.21-1.92-1.61-2.07-2.86
				c-1.25-10.13-7.34-18.49-10.22-28.02c-0.41-1.35-2.24-2.97-0.63-3.95c2-1.22,2.83,1.05,3.41,2.51
				c3.21,8.02,8.33,15.23,10.13,23.85C1047.12,363.57,1047.63,365.16,1047.95,366.36z"/>
			<path class="st0" d="M979.18,185.56c-2.29,0.26-3.28-1.04-4.01-2.6c-1.11-2.38-2.13-4.73-5.45-2.63
				c-0.96,0.61-1.97,0.28-2.36-0.91c-0.37-1.15,0.25-1.99,1.26-2.34c3.39-1.19,6.08-2.75,7.22-6.69c0.57-1.96,2.7-0.93,3.31,0.59
				c1.58,3.94,3.31,7.9,4.12,12.03C983.86,186,980.34,184.59,979.18,185.56z"/>
			<path class="st0" d="M991.17,521.42c-2.79-0.57-6.25,1.63-6.71-1.38c-0.34-2.21,3.51-1.98,5.33-2.09
				c8.52-0.54,16.48-3.76,24.87-4.78c1.25-0.15,3.11-0.91,3.55,0.61c0.61,2.12-1.64,2.03-2.93,2.39
				C1007.14,518.47,999.1,521.28,991.17,521.42z"/>
			<path class="st0" d="M940.75,198.2c3.65-2.15,8.17-2.58,4.64-7.14c-0.55-0.71-0.23-1.62,0.5-2.21c0.74-0.6,1.56-0.59,2.26,0.02
				c0.88,0.76,1.99,1.45,2.49,2.42c1.99,3.9,3.43,8.15,8.39,9.51c0.8,0.22,1.26,1.63,0.48,2.59c-0.8,0.99-1.9,0.66-2.64-0.04
				c-2.04-1.95-5.06-1.51-7.23-3.2C947.5,198.48,944.64,198.84,940.75,198.2z"/>
			<path class="st0" d="M1081.71,280.56c0.79,0.98,1.56,2.06,2.46,3.03c3.46,3.73,5.27,12.06,3.43,15.79
				c-0.82,1.66-1.96,2.84-3.9,2.2c-1.55-0.51-2.05-2.18-1.21-3.28c4.18-5.45-0.96-9.26-2.26-13.71c-0.32-1.11-1.21-2.05-0.27-3.17
				C1080.22,281.1,1080.77,281,1081.71,280.56z"/>
			<path class="st0" d="M920.05,428.92c9.67,1.78,18.35,5.81,26.07,11.94C936.7,438.53,927.87,434.91,920.05,428.92z"/>
			<path class="st0" d="M1075.65,207.37c-0.56-5.88,7.6-14.49,12.82-13.88c1.28,0.15,2.29,0.57,2.2,2.09
				c-0.07,1.31-7.29,7.68-8.59,7.32C1078.26,201.87,1078.11,206.24,1075.65,207.37z"/>
			<path class="st0" d="M798.38,270.33c-8.37-4.09-12.01-14.97-8.45-21.83c0.46-0.89,0.94-1.96,2.08-1.76
				c1.37,0.24,0.89,1.49,0.9,2.42c0.05,3.3,0.06,6.6,0.16,9.9C793.2,263.01,795.62,266.02,798.38,270.33z"/>
			<path class="st0" d="M943.32,204.53c3.95-2.22,7.25-1.31,9.87,1.93c2.31,2.85,3.12,5.86,1.07,9.16c-0.56,0.9-1.55,1.24-2.63,0.81
				c-1.37-0.54-2.54-1.64-1.96-3.02C952.07,207.68,949.73,204.96,943.32,204.53z"/>
			<path class="st0" d="M952.1,254.85c3.38,0.85,4.38,4.05,6.15,6.52c1.74,2.42,3.66,4.72,5.37,7.16c0.58,0.82,0.65,2.01-0.38,2.63
				c-0.41,0.25-1.56,0.06-1.77-0.29c-2.89-4.84-7.45-8.44-9.95-13.54C951.18,256.64,951.21,255.69,952.1,254.85z"/>
			<path class="st0" d="M972.35,231.39c-0.29-1.78-0.6-3.55-0.88-5.34c-0.19-1.23-0.06-2.42,1.34-2.8c1.27-0.35,2.3,0.29,2.88,1.41
				c1.77,3.45,1.16,7.09,0.61,10.67c-0.16,1.05-1.23,1.49-2.32,1.43c-1.16-0.06-1.83-0.81-1.95-1.87c-0.13-1.14-0.03-2.3-0.03-3.46
				C972.11,231.41,972.23,231.4,972.35,231.39z"/>
			<path class="st0" d="M1082.93,209.27c0.11,8.26-0.76,15.36,0.02,23.24C1078.66,228.49,1078.64,214.38,1082.93,209.27z"/>
			<path class="st0" d="M786.79,207.3c-0.28,2.04,0.39,3.94,0.85,5.88c0.31,1.33,0.38,2.88-1.36,3.21c-1.44,0.27-1.93-1.03-2.21-2.2
				c-0.7-2.93-1-5.92-0.55-8.9c0.19-1.22,0.23-3.06,2.05-2.85c1.33,0.15,1.37,1.68,1.35,2.87
				C786.9,205.98,786.83,206.64,786.79,207.3z"/>
			<path class="st0" d="M1044.07,172.43c-0.35,2.02,0.36,4.35-2.01,4.4c-2.06,0.04-3.15-1.68-2.93-3.81
				c0.28-2.68-0.75-7.36,1.95-7.4C1044.8,165.54,1042.45,170.55,1044.07,172.43z"/>
			<path class="st0" d="M1060.1,218.25c-2.2-0.53-1.91-2-1.54-3.2c0.73-2.33,0.3-5.87,4.08-5.71c2.52,0.11,3.68,2.37,3.3,4.65
				C1065.41,217.25,1061.63,216.39,1060.1,218.25z"/>
			<path class="st0" d="M991.13,243.49c2.04,2.23,3.39,3.61,4.64,5.08c1.18,1.38,1.48,2.94,0.5,4.57c-0.78,1.29-1.99,1.77-3.4,1.25
				c-1.76-0.66-2.33-2.25-2.6-3.92C989.92,248.25,991.91,246.58,991.13,243.49z"/>
			<path class="st0" d="M967.48,217.33c0.7-1.82,0.6-3.79,0.64-5.76c0.04-1.86,0.94-3.41,3.02-2.93c2.08,0.48,2.18,2.4,1.56,4.02
				c-0.86,2.24-2.67,4.13-2.25,6.83c0.11,0.71-0.61,1.24-1.32,1.06C967.49,220.12,967.4,218.78,967.48,217.33z"/>
			<path class="st0" d="M921.33,200.32c4.47,7.6,1.62,15.25,4.64,21.81C922.44,215.66,920.99,208.82,921.33,200.32z"/>
			<path class="st0" d="M1007.11,178.82c-3.71-1.88-6.47-1.24-9-1.94c-1.86-0.52-3.5-1.82-2.96-3.98c0.62-2.46,2.6-1.21,4.15-1.02
				C1002.82,172.33,1004.74,174.69,1007.11,178.82z"/>
			<path class="st0" d="M964.93,193.74c-0.16,1.71-1.18,2.85-2.84,2.8c-2.95-0.09-3.72-2.75-4.1-4.83
				c-0.37-2.02,1.82-1.27,2.96-1.33C963.22,190.26,964.79,191.17,964.93,193.74z"/>
			<path class="st0" d="M845.25,295.63c0.49-1.62-0.29-4.4,2.02-4.48c2.1-0.07,1.02,2.37,1,3.67c-0.03,1.66,0.58,4.24-2.03,4.21
				C844.59,299.01,845.41,296.88,845.25,295.63z"/>
			<path class="st0" d="M839.15,288.05c-0.27,1.41,0.34,3.42-1.66,3.05c-1.96-0.36-1.5-2.62-1.87-4.11
				c-0.3-1.23,0.16-2.56,1.55-2.49C839.72,284.62,838.51,286.98,839.15,288.05z"/>
			<path class="st0" d="M767.08,249.72c-0.02,1.17-0.36,2.31-1.58,2.13c-2.22-0.32-2.61-2.28-2.94-4.09
				c-0.15-0.86,0.2-1.92,1.17-1.78C765.79,246.29,766.69,247.89,767.08,249.72z"/>
			<path class="st0" d="M782.02,273.57c-0.02,1.15-0.4,2.18-1.59,2.06c-2.01-0.2-2.37-1.94-2.68-3.55c-0.17-0.9,0.3-1.76,1.22-1.71
				C780.93,270.47,781.56,272.02,782.02,273.57z"/>
			<path class="st0" d="M1084.23,239.48c-0.12,1.13,0.27,2.74-1.32,2.76c-1.91,0.01-2.15-1.75-2.21-3.23
				c-0.05-1.13,0.05-2.69,1.43-2.75C1084.27,236.16,1083.78,238.25,1084.23,239.48z"/>
			<path class="st0" d="M992.04,840.99c-0.21,1.55-1.13,1.56-2.14,1.04c-3.37-1.74-6.73-3.5-10.04-5.35
				c-0.46-0.26-0.9-1.03-0.9-1.56c0-0.82,0.85-1.02,1.49-0.83c3.94,1.17,7.75,2.65,10.83,5.52
				C991.63,840.12,991.81,840.62,992.04,840.99z"/>
			<path class="st0" d="M1078.66,820.36c-1.38-1.02-4.59,0.83-4.89-2.28c-0.17-1.74,1.76-2.85,3.53-2.52c2.11,0.4,4.28,1.49,4.4,3.9
				C1081.78,820.9,1080.03,820.52,1078.66,820.36z"/>
			<path class="st0" d="M1068.05,825.48c3.4,0.31,5.78,0.48,8.14,0.77c1,0.12,2.01,0.58,1.97,1.79c-0.05,1.3-1.15,1.47-2.16,1.4
				C1073.27,829.24,1070.58,828.91,1068.05,825.48z"/>
			<path class="st0" d="M1098.47,811.97c-1.61-0.88-3.58-1.58-3.69-3.92c-0.05-1.02,0.97-1.37,1.75-1.12
				c1.9,0.6,3.64,1.58,3.79,3.86C1100.4,811.8,1099.45,811.99,1098.47,811.97z"/>
			<path class="st0" d="M1091.47,815.14c1.43,0.21,3.11,0.29,3.55,1.97c0.36,1.38-0.93,1.56-1.88,1.39
				c-1.38-0.24-3.2-0.16-3.65-1.85C1089.14,815.34,1090.5,815.31,1091.47,815.14z"/>
		</g>
	</g>
</g>
</svg>
