<?xml version="1.0" encoding="utf-8"?>
<!-- Generator: Adobe Illustrator 28.0.0, SVG Export Plug-In . SVG Version: 6.00 Build 0)  -->
<svg version="1.1" id="Layer_1" xmlns="http://www.w3.org/2000/svg" xmlns:xlink="http://www.w3.org/1999/xlink" x="0px" y="0px"
	 viewBox="0 0 1920 1080" style="enable-background:new 0 0 1920 1080;" xml:space="preserve">
<style type="text/css">
	.st0{fill:none;stroke:#231F20;}
</style>
<g>
	<g>
		<g>
			<path d="M966.46,612.35c0.19-4.12,3.02-7.27,4.3-11.03c1.31-3.83,1.22-7.47,1.36-11.21c0.12-3.09-1.65-3.65-4.29-2.45
				c-14.46,6.58-29.63,11.13-44.67,16.13c-12.37,4.11-25.37,5.2-37.65,9.43c-8.45,2.91-17.36,2.76-26.19,2.67
				c-1.67-0.02-3.58-0.59-4.41,1.32c-0.99,2.28,1.19,3.13,2.48,4.32c2.08,1.91,4.2,3.79,6.27,5.71c0.96,0.9,1.34,1.96,0.26,3.03
				c-1.11,1.1-2.58,1.38-3.49,0.09c-3.18-4.57-8.75-7.44-9.7-13.6c-0.17-1.11-0.34-2.49-1.87-2.57c-1.36-0.07-2.17,1.02-2.54,2.08
				c-2.54,7.33-3.88,12.19,4.23,14.48c0.56,0.16,0.99,0.73,1.85,1.39c-2.32,1.72-4.43,0.62-6.41,0.46c-1.8-0.15-3.35-0.1-4.08,1.9
				c-0.58,1.59-1.18,3.22-0.09,4.78c1.18,1.67,2.96,1.45,4.54,0.89c2.72-0.96,6.05-0.71,7.67-3.99c0.82-1.65,2.46-1.95,3.7-0.57
				c1.36,1.51-0.14,2.35-1.29,3.03c-4.43,2.65-8.87,5.33-13.95,6.53c-3.83,0.9-5.99,3.3-5.77,7.01c0.27,4.61,1.1,9.22,2.05,13.75
				c0.44,2.12,1.91,2.75,3.39,0.47c0.54-0.84,1.15-1.64,1.62-2.51c4.16-7.66,10.98-11.74,18.99-14.32c5.89-1.9,6.99-5.28,3.41-10.19
				c-0.84-1.16-1.58-2.33-0.52-3.58c1.11-1.3,2.5-0.79,3.54,0.16c4.75,4.35,10.14,3.31,15.54,1.87c6.91-1.85,13.43-4.78,20.1-7.29
				c8.97-3.36,18.46-5.34,27.71-7.97c2.39-0.68,5.17-1.02,7-2.48c4.88-3.9,9.25-0.93,13.44,0.74c2.05,0.82,3.26,1.51,5.29,0.2
				c2.76-1.79,6.16-1.05,8.28,0.55c2.54,1.93,4.57,2.94,7.61,1.37c-5.84,3.72-10.72,9.54-18.74,7c-1.08-0.34-2.35-0.1-3.17-1.16
				c-4.1-5.27-9.58-4.46-14.99-3.18c-5.38,1.27-10.24,3.97-15.17,6.39c-3.3,1.63-6.45,2.12-10.07,0.86
				c-4.74-1.64-11.71,1.47-13.85,5.94c-0.38,0.79-0.43,1.53-1.46,1.58c-5.09,0.21-9.66,3.69-15.14,2.05
				c-2.22-0.66-5.83-0.79-5.72,2.7c0.09,3.09,3.57,2.36,5.7,2.33c17.84-0.29,35.56-1.78,52.97-6.01c2.26-0.55,4.61-0.68,6.89-1.14
				c1.65-0.33,2.73-1.31,2.39-3.17c-0.35-1.92-1.85-2.42-3.4-2c-3.69,1-7.54,1.25-11.13,2.78c-3.74,1.6-7.7,1.46-11.68,0.36
				c9.37-2.51,18.44-6.14,28.21-6.81c1.77-0.12,3.68-0.49,2.81,2.88c-0.82,3.17,1.81,3.38,3.61,1.87c2.15-1.8,3.49-1.22,5.06,0.43
				c0.34,0.36,0.74,0.69,1.18,0.92c6.95,3.59,20.66-1.57,23.78-8.88c1.17-2.74,2.22-5.59,4.86-7.4c1.05-0.72,1.89-1.79,0.88-2.9
				c-1.34-1.47-1.99,0.12-2.59,1c-1.01,1.49-2.31,2.37-4.14,2.34c-3.49-0.07-4.47-1.74-2.63-4.67c2.65-4.23,5.13-8.59,8.17-12.52
				c2.93-3.78,2.09-8.28,3.2-12.38c0.74-2.76,1.54-3.87,3.68-1.43c2,2.28,4.62,0.28,6.97,1.57c2.44,1.34,5.61,0.92,7.8,3.65
				c1.39,1.73,2.59,0.01,2.85-1.69c0.31-2.06-0.96-4.37,2.7-5.36c2.36-0.64,3.87-1.74,5.83,0.54c0.82,0.95,2.61,0.59,2.8-0.77
				c0.91-6.56,7-5.25,10.77-7.54c7.11-4.32,15.94-6.95,18.74-16.23c1.12-3.7,4.11-6.01,6.07-9.08c2.17-3.39,4.81-6.49,7.25-9.71
				c0.37,0.22,0.73,0.43,1.1,0.65c-1.91,3.4-3.76,6.84-5.74,10.19c-1.1,1.86-2.51,3.53-3.61,5.4c-2.53,4.31-1.9,6.85,2.17,9.73
				c1.22,0.87,2.45,1.11,3.71,0.34c1.19-0.73,1.07-1.87,0.75-3.1c-0.37-1.43-0.86-2.95-0.72-4.36c0.24-2.38,1.53-4.71,3.57-5.64
				c2-0.92,2.85,1.74,4.22,2.82c1.25,0.99,1.98,3.95,4.2,1.94c1.89-1.71-0.55-2.78-1.37-4.05c-0.97-1.52-1.87-3.08-3.11-5.15
				c2.42,0.22,3.57,1.65,4.82,2.77c1.05,0.95,2.07,1.48,2.67-0.17c0.92-2.54,1.45-1.3,2.94-0.28c3.71,2.54,3.37,4.02-0.04,6.8
				c-9.42,7.68-19.67,14.04-30.12,20.14c-3.52,2.06-5.97,4.59-4.43,9.77c1.93,6.48,0.78,13.58,3.01,20.16
				c1.29,3.81,2.58,7.4,5.47,10.47c4.94,5.26,5.28,12.87,8.76,18.85c12.46,21.42,6.67,43.84,4.13,66.11
				c-0.15,1.32-0.85,2.62-0.78,3.9c0.78,14.75-8.68,24.71-16.95,34.92c-3.14,3.87-4.76,8.62-8.68,12.02
				c-12.2,10.56-18.91,24.94-26.55,38.76c-8.93,16.15-19.06,31.61-29.74,46.68c-1.57,2.21-1.93,4.15-1.4,6.91
				c1.63,8.49,2.91,17.03,5.61,25.28c0.39,1.19,0.06,2.35-0.68,3.31c-1.5,1.92-3.62,3.43-1.62,6.45c2.1,3.18,4.57,5.38,8.28,6.65
				c15.18,5.2,31.65,4.07,46.67,8.87c13.36,4.27,26.65,9.53,37,20.44c6.55,6.89,15.06,11.96,22.84,17.64
				c11.81,8.61,24.63,15.63,37.52,22.43c7.02,3.71,14.58,6.39,21.95,9.4c4.41,1.8,7.71,5.2,11.59,7.76
				c4.55,2.99,8.99,5.54,14.79,4.68c2.52-0.37,4.23,1.54,5.48,3.69c4.52,7.77,10.01,14.88,15.47,22c5.15,6.72,4.25,10.87-2.86,15.42
				c-8.51,5.45-16.76,11.32-25.09,17.04c-1.09,0.75-1.99,2.02-3.39,1.96c-11.53-0.5-18.54,8.57-27.69,13.09
				c-1.23,0.61-2.63,2.01-2.05,3.63c0.59,1.64,2.23,0.87,3.52,0.74c1.81-0.19,3.67-0.45,4.94,1.54c-1.78,1.99-4.08,1.32-6.08,1.08
				c-8.16-0.96-15.76,1.05-22.01,5.9c-7.78,6.05-16.7,7.21-25.77,7.57c-10.3,0.41-20.65,0.07-30.95-0.51
				c-4.57-0.26-9.09-1.81-13.58-3c-2.61-0.69-3.26-2.79-2.34-5.16c4.46-11.5,11.42-20.4,23.81-24.4
				c16.48-5.32,26.98-17.63,35.2-32.07c2.32-4.08,1.93-8.77-1.38-12.61c-6.91-8-16.31-11.81-25.96-15.19
				c-17.32-6.05-35.62-7.95-53.31-12.52c-10.93-2.82-22.24-4.16-33.39-6.13c-12.43-2.2-23.38-8.45-35.03-12.79
				c-6.31-2.35-12.43-5.23-18.68-7.76c-1.56-0.63-2.31-1.78-3.03-3.12c-0.73-1.34-1.92-1.85-3.37-1.36
				c-1.31,0.44-1.64,1.53-1.51,2.81c0.94,9.76-0.45,19.52,0.04,29.32c0.32,6.52-0.47,13.21-0.64,19.84
				c-0.12,4.75,0.15,9.29,1.6,13.77c1.72,5.33,0.67,10.9,1.52,16.33c1.07,6.8,2.4,13.37,6.85,18.99c2.77,3.5,5.23,7.24,6.43,11.73
				c0.83,3.12,3.11,4.4,6.61,4.97c7.23,1.19,14.49,3.39,21.72,1.73c9.96-2.29,20.2-1.36,30.17-3.56c5.29-1.17,10.95-0.6,16.42-1.06
				c7.79-0.65,15.55-1.56,23.33-2.27c1.42-0.13,3.61-0.4,3.71,1.46c0.12,2.11-2.17,1.52-3.52,1.66
				c-24.97,2.61-49.96,5.07-74.91,7.85c-6.61,0.74-13.62,0.14-19.48,4.55c-1.05,0.79-2.43,1.12-2.68,2.61
				c-1.64,10-9.79,14.46-17.24,18.75c-6.87,3.96-12.29,9.64-18.95,13.72c-1.22,0.75-2.07,1.98-1.14,3.36
				c0.74,1.1,2.12,0.92,3.22,0.43c8.63-3.88,19.64-5.58,24.85-13.09c8.14-11.73,20.41-11.09,31.31-14.5
				c14.3-4.47,29.41-4.99,44.12-7.5c5.69-0.97,11.3-0.27,16.88,0.75c4.74,0.86,5.26,2.16,3.04,6.54c-1.87,3.68,0.44,4.91,3.48,5.21
				c6.49,0.65,13.05,0.71,19.45-0.34c10.07-1.66,20.27-0.81,30.33-2.2c15.65-2.16,31.47-1.98,47.2-3.76
				c18.32-2.08,36.78-3.85,55.31-3.46c2.84,0.06,5.68-0.05,8.4-0.97c1.7-0.57,3.94-0.82,3.94-3.16c-0.01-2.49-2.15-3.28-4.17-3.54
				c-8.59-1.08-17.18-2.14-25.8-2.96c-4.8-0.46-9.64-0.44-14.47-0.64c-1.29-0.06-2.66,0.04-3.59-1.19c1.1-1.99,2.94-1.52,4.49-1.62
				c14.57-0.91,28.93,0.94,43.24,3.33c1.66,0.28,3.21,0.83,4.53,1.95c4.5,3.81,4.29,7.32-0.87,10.08
				c-4.56,2.43-9.71,2.19-14.65,2.39c-20.64,0.84-41.26,1.84-61.78,4.27c-6.32,0.75-12.8-0.49-18.9,0.51
				c-7.76,1.28-15.51,2.13-23.29,2.49c-15.62,0.72-31.21,2.53-46.89,1.88c-2.15-0.09-4.33-0.27-6.43-0.74
				c-3.07-0.68-4.91-2.51-3.33-5.78c1.95-4.04-0.63-4.64-3.52-5.02c-8.03-1.05-15.94,0.27-23.84,1.43
				c-11.01,1.61-21.98,3.54-32.76,6.3c-6.76,1.73-13.39,3.95-20.07,5.99c-1.33,0.41-2.17,1.5-2.91,2.64
				c-3.45,5.3-7.98,9.03-14.01,11.41c-10.05,3.97-20.15,7.44-30.64,10.2c-13.68,3.59-27.49,4.43-41.43,4.92
				c-2.63,0.09-4.98-0.78-7.08-2.13c-11.03-7.11-23.47-7.29-35.74-6.47c-7.41,0.5-14.88,0.41-22.31,1.46
				c-7.21,1.02-14.62,0.83-21.94,0.69c-3.68-0.07-8.22-0.01-9.65-4.55c-1.38-4.4,1.26-7.54,4.6-10.22c3.07-2.45,6.5-4.09,10.22-5.06
				c16.43-4.26,33.48-5.52,49.83-10.22c0.32-0.09,0.68-0.2,0.98-0.14c10.35,2.19,17.1-2.94,22.61-10.88
				c4.95-7.14,12.95-10.85,19.14-16.61c8.69-8.09,16.06-17.23,21.92-27.56c0.4-0.7,0.95-1.82,0.67-2.31
				c-2.15-3.79-0.26-8.69-2.32-11.91c-5.75-9.01-7.57-20.12-15.34-27.99c-2.02-2.05-0.62-5.43-2.33-7.49
				c-3.64-4.38-5.21-10.2-9.02-14.19c-7.73-8.09-11.62-18.74-19.06-26.98c-2.67-2.95-4.63-6.49-8.56-8.12
				c-2.01-0.83-3.06-2.57-3.41-4.64c-1.48-8.75-4.8-16.98-7.21-25.46c-0.34-1.21-1.48-2.47-0.14-3.66c1.16-1.03,2.65-0.83,3.73-0.06
				c3.58,2.57,7.7,1.72,11.62,2.01c2.07,0.15,4.72,0.71,3.7-3.19c-0.47-1.78,1.22-1.98,2.24-1.39c5.86,3.36,11.36-0.27,17.01-0.74
				c0.75-0.06,1.82-0.49,2.1-1.06c0.56-1.14-0.68-1.65-1.38-2.3c-1.4-1.31-2.97-2.11-4.96-1.89c-0.66,0.07-1.34,0.01-2,0.11
				c-6.17,0.93-11.8,2.17-17.61-2.94c-5.54-4.87-13.8-1.76-21.48-3.86c3.14-0.71,5.58-1.19,7.98-1.83c1-0.26,2.68-0.04,2.45-1.77
				c-0.16-1.2-1.49-1.31-2.43-1.24c-3.68,0.28-5.21-2.41-6.96-4.83c-0.74-1.03-0.94-2.18-0.13-3.24c0.8-1.03,2-1.24,3.17-0.86
				c1.25,0.41,2.86,0.71,3.57,1.63c2.89,3.75,6.25,7,9.59,10.31c1.06,1.05,1.61,2.4,3.33,2.33c2.07-0.08,5,1.6,5.98-0.71
				c1.16-2.73-2.35-2.95-3.91-4.1c-1.19-0.88-2.83-1.24-2.41-3.25c0.32-1.52,1.38-2.57,2.8-2.32c4.29,0.76,8.04-0.25,11.83-2.26
				c1.33-0.7,4.19-1.5,4.95,0.45c0.88,2.25-2.18,1.72-3.27,2.72c-0.58,0.54-1.38,1.2-1.43,1.86c-0.08,1.06,1,1.24,1.82,1.04
				c5.95-1.44,11.78-1.68,17.51,1.04c0.69,0.33,1.87-0.35,3.4-0.7c-1.25-1.46-5.2-1.32-2.47-4.33c0.73-0.8-0.1-2.15-1.12-2.33
				c-5.65-0.99-10.83-4.01-16.74-3.86c-2.23,0.06-4.07,1.03-6.02,2.09c-2.47,1.33-5.36,2.35-6.81-1.7
				c-0.68-1.89-2.25-1.89-3.68-0.96c-3.04,1.97-5.38,0.16-7.82-1.25c-0.84-0.49-1.98-0.98-1.27-2.25c3.05-5.47-1.83-7.54-4.83-9.01
				c-3.92-1.93-8.69-2.67-12.5,1.32c-1.15,1.21-1.95,3.83-4.19,2.43c-1.95-1.22-1.73-3.82-0.78-5.48
				c6.17-10.78,6.07-24.03,14.06-34.21c4.37-5.56,2.33-20.5-2.61-25.72c-2.04-2.16-2.54-4.53-2.63-7.26
				c-0.39-12.64-3.67-24.9-4.87-37.44c-0.63-6.6-1.31-13.09,0.75-19.77c3.47-11.26,7.03-22.5,10.19-33.87
				c3.33-11.97,2.37-23.65,0.53-35.51c-0.28-1.81-1.13-3.8-0.1-5.38c3.89-6,3.05-13.46,6.26-19.64c1.11-2.13,1.08-4.5,1.07-6.84
				c-0.03-4.81,1.42-9.2,4.21-13.07c1.39-1.93,2.14-3.73,0.88-5.95c-5.84-10.3-6.49-21.76-7.87-33.17
				c-2.58-21.31,4.17-40.81,10.94-60.3c1.5-4.31,4.5-8.15,7.14-11.99c8.53-12.39,13.46-26.32,17.04-40.69
				c1.92-7.7,5.28-14.87,8.85-21.57c7.03-13.19,11.83-26.77,12.91-41.57c0.86-11.81,7.13-21.23,12.32-31.23
				c3.43-6.61,8.22-12.48,10.3-19.84c1.23-4.37,1.18-7.85-2.17-11.44c-4.37-4.69-9.28-8.88-12.68-14.53
				c-3.25-5.38-9.61-6.05-14.91-8.27c-4.66-1.95-8.7-4.54-7.15-10.79c0.23-0.92,0.29-2.41-0.24-2.9
				c-4.82-4.42-4.52-11.23-7.83-16.28c-1.93-2.94-2.5-5.56-0.75-8.78c2.07-3.81,1.89-7.24-2.26-9.9c-3.07-1.97-3.4-4.62-1.09-7.65
				c1.91-2.51,3.42-5.32,5.31-7.85c2.39-3.2,4.26-6.3,2.3-10.51c-0.85-1.84-0.25-3.97,0.34-5.89c1.5-4.81,1.18-10.01,2.34-14.67
				c1.94-7.8,2-16.5,7.92-23c0.22,2.09-0.77,3.89-1.47,5.74c-3.27,8.72-5.02,18.21-3.06,26.85c2.06,9.08-0.75,15.36-5.44,22.02
				c-2,2.84-3.58,5.98-5.33,9c-1,1.73-0.22,3.19,1.36,3.57c3.32,0.8,6.74,1.23,10.14,1.66c0.83,0.11,1.57-0.6,1.57-1.59
				c-0.01-1.73-0.99-3.93,1.77-4.39c2.35-0.39,3.74,1.45,4.81,3.03c2.61,3.82,6.01,6.62,10.01,8.81c1.17,0.64,2.32,1.48,3.69,0.53
				c1.47-1.02,1.6-2.5,1.01-4.01c-1.51-3.9,0.16-6.34,3.5-8.17c1.01-0.55,1.91-1.34,2.78-2.12c5.57-4.94,6.16-4.79,9.08,2.08
				c0.45,1.05,0.17,3.37,2.03,2.69c1.77-0.64,1.34-2.59,0.17-3.75c-3.55-3.51-3.01-5.64,1.71-7.44c2.15-0.82,4.54-2.08,0.19-4.7
				c-3.44-2.07-7.53-3.26-10.56-7.07c-0.55,4.07-1.68,6.09-5.5,3.65c-1.6-1.02-3.81-1.06-5.67-1.71c-4.11-1.45-5.83-0.38-6.09,4.02
				c-0.1,1.63,0.38,3.66-1.99,3.89c-2,0.19-2.8-1.45-3.4-3.08c-1.51-4.09-1.99-8.38-2.72-12.64c-1-5.88,1.8-9.03,7.49-6.74
				c3.48,1.4,6.97,1.54,10.39,2.46c3.02,0.81,6.6,4.53,7.76-2c0.08-0.45,1.38-0.92,2.13-0.96c3.26-0.2,4.38-2.3,4.27-5.05
				c-0.11-2.96,1.79-3.69,3.15-2.01c2.68,3.31,7.17-0.85,9.47,2.92c0.3,0.49,1.38-0.7,1.65-1.44c1.71-4.68,4.99-4.6,8.93-3.23
				c1.81,0.63,4.87,1.7,5.37-0.42c1-4.26,5.05-6.51,5.93-10.66c0.31-1.45,1.06-2.71,0.32-4.3c-2.63-5.62-2.09-7.84,2.68-11.77
				c2.04-1.68,3.45-3.29,0.37-5.44c-1.91-1.34-1.84-3.18-0.93-5.33c1.82-4.3,0.99-5.47-3.77-5.88c-3.49-0.3-6.92,1.53-10.4,0.56
				c-8.23-2.27-16.25-0.46-24.18,1.34c-10.94,2.49-20.72,7.37-27.88,16.32c-1.61,2.02-3.2,3.74-5.47,4.88
				c2.75-5.96,6.33-11.31,12.07-14.73c5.8-3.46,10.94-8.17,17.91-9.49c15.57-2.95,31.14-5.08,46.67,0.11
				c15.5,5.18,28.35,14.09,36.17,28.62c3.41,6.33,4.66,13.81,6.88,20.77c0.05,0.15-0.01,0.35,0.05,0.49
				c6.2,15.94-2.87,29.32-7.62,43.27c-2.79,8.2-3.86,17.26-10.02,24.14c-0.56,0.62-0.88,2.09-0.54,2.79
				c3.46,7.14,3.93,15.29,8.72,22.16c3.52,5.04,7.75,8.23,13.08,9.99c11.59,3.85,21.28,9.88,27.89,20.51
				c2.09,3.35,6.13,4.54,9.77,5.66c10.5,3.21,17.03,10.47,21.42,20.14c3.36,7.4,8.92,13.64,11.26,21.6c0.34,1.15,1.6,2.13,2.62,2.96
				c14.42,11.89,24.81,27.11,34.88,42.55c2.33,3.56,4.95,6.74,8.37,9.12c4.43,3.09,7.45,7.18,9.16,12.15c1.2,3.5,3.34,5.52,6.4,7.68
				c4.89,3.47,9.28,7.94,13.01,12.67c3.26,4.14,0.28,8.9-1.62,12.62c-5.51,10.8-12.79,20.57-19.25,30.82
				c-3.49,5.54-7.32,10.59-12.32,14.82c-7.08,5.99-14.67,11.3-22.14,16.78c-4.62,3.39-7.31,3.58-9.02-2.38
				c-0.21-0.72-1.03-1.27-1.57-1.9c-2.68-3.11-1.56-7.04,2.38-6.72c3.94,0.31,5.2-1.86,6.16-4.26c1.25-3.13,2.89-3.18,5.27-1.52
				c1.33-1.85-1.62-4.35,1.13-5.45c2.91-1.16,3.41,1.97,4.99,3.15c0.65,0.48,1.08,1.26,1.61,1.9c0.78,0.94,1.65,1.92,2.87,0.81
				c1.1-1,0.51-2.13-0.22-3.11c-0.3-0.4-0.68-0.74-0.98-1.14c-4.67-6.24-4.24-8.16,2.55-11.74c0.79-0.42,1.49-0.72,2.27-0.1
				c0.92,0.73,1.5,2.83,3.05,1.34c1.31-1.26-0.65-2.3-0.92-3.5c-0.41-1.8-0.16-3.44,1.61-4.28c1.79-0.85,2.7,0.56,3.55,1.86
				c0.46,0.7,0.93,1.39,1.48,2.01c1.19,1.34,1.83,4.5,4.32,2.59c2.12-1.63,0.89-4.16-0.72-5.69c-2.6-2.46-4.54-5.01-3.93-8.83
				c0.13-0.8-0.21-1.83,0.88-2c0.5-0.08,1.27,0.37,1.64,0.81c1.5,1.76,3.28,3.31,4.11,5.6c0.52,1.42,1.26,2.87,3.1,2.79
				c1.65-0.07,3.18-1.15,3.38-2.56c1.12-8.07,8.03-12.8,11.09-19.78c3.92-8.93,3.4-12.28-4.3-18.49
				c-4.73-3.81-8.79-8.27-13.82-11.92c-6.72-4.87-13.27-4.24-20.33-3.59c-11.94,1.1-21.79,6.41-30.05,14.98
				c-1.41,1.46-2.57,2.98-3.61,4.7c-0.84,1.39-2.77,1.95-3.97,1.32c-1.93-1.01-0.31-2.66,0.26-3.81c0.65-1.3,1.67-2.53,2.79-3.47
				c12.03-10.17,24.99-18.21,41.52-18.11c1.86,0.01,4.41,0.72,5.23-1.75c0.69-2.09-1.67-2.95-2.68-4.38
				c-4.86-6.93-9.03-14.33-14.43-20.91c-7.35-8.96-13.66-18.81-22.89-26.16c-2.73-2.18-5.77-3.2-9.01-4.02
				c-1.93-0.49-3.87-0.99-5.75-1.66c-1.21-0.43-2.98-0.89-2.64-2.5c0.37-1.76,2.08-1.14,3.36-0.93c0.66,0.11,1.3,0.33,1.96,0.39
				c3.57,0.27,4.93-1.39,3.08-4.44c-5.78-9.51-9.93-20.73-18.54-27.61c-9.42-7.54-20.05-15.45-33.97-10.95
				c-1.78,0.57-4.04,1.03-4.46-1.47c-0.37-2.23,1.97-2.36,3.53-2.6c1.96-0.3,3.96-0.31,5.95-0.34c1.37-0.02,2.84,0.11,3.38-1.45
				c0.55-1.58-0.15-2.92-1.4-3.98c-7.59-6.45-15.99-11.3-25.91-13.15c-2.95-0.55-5.77-1.04-7.98-3.56c-2.16-2.46-5.3-1.48-8.04-1.06
				c-7.54,1.16-14.11,4.56-20.17,9.1c-7.95,5.95-17.02,9.64-26.29,12.98c-5.61,2.02-10.55,5.59-16.38,7.18
				c-2.3,0.63-2,3.29-3.18,4.81c-5.6,7.24-10.33,14.99-14.8,22.99c-4.46,7.98-6.94,16.18-7.77,25.35c-0.97,10.71-3.54,21.22-8.62,31
				c-3.81,7.33-8.45,14.72-9.97,22.62c-1.82,9.44-6.79,17.28-9.82,26.02c-3.32,9.57-9.22,18.02-13.53,27.11
				c-10.67,22.5-17.36,45.95-13.13,71.46c1.66,9.99,4.83,19.25,9.05,28.32c1.43,3.07,3.41,3.82,6.61,3.99
				c25.24,1.34,46.67-8.65,66.99-22.1c0.69-0.46,1.31-1.05,2.03-1.45c0.87-0.48,1.98-1.04,2.73-0.09c1.11,1.4-0.28,2.03-1.2,2.67
				c-5.7,4.03-11.33,8.18-17.86,10.82c-1.88,0.76-3.81,2.06-3.13,3.8c0.7,1.79,2.94,0.48,4.41,0c11.19-3.71,22.22-7.84,33.26-11.99
				c6.83-2.57,13.73-4.99,20.57-7.56c2.72-1.02,5.65-2.19,4.5-5.94c-1.16-3.77-4.44-4.15-7.34-2.84c-5.01,2.25-9.29,0.57-13.69-1.41
				c-1.4-0.63-2.7-1.44-2.79-3.19c-0.08-1.68,1.33-2.07,2.48-2.75c3.01-1.79,5.8-3.86,8.33-6.3c1.29-1.25,2.94-2.94,4.57-0.85
				c1.38,1.77,1.06,3.75-1.27,4.97c-1.84,0.96-2.49,3.55-5.16,3.54c-1.32,0-1.89,1.27-1.8,2.57c0.08,1.14,0.91,1.7,1.93,2
				c2.45,0.73,4.9,1.22,7.2-0.41c2.98-2.12,5.98-4.21,8.84-6.48c1.62-1.29,3.05-2.87,5.2-1.24c2,1.53,2.43,3.65,1.18,5.78
				c-2.86,4.89-4.48,10.28-3.42,15.68c1.34,6.84-0.45,12.82-2.87,18.89c-1,2.51-2.64,4.2-5.36,4.7L966.46,612.35z M911.96,297
				c0.56,1.3-0.29,3.61,1.39,3.86c2.15,0.33,2.92-2.28,4.41-3.46c0.83-0.65,1.19-1.61,0.22-2.52c-0.82-0.76-1.79-1.01-2.57-0.06
				c-0.97,1.18-1.97,2.19-3.59,2.32c-0.01-2.34-0.74-4.55-3.05-5.24c-2.25-0.67-1.65,2.52-3.2,3.13c-0.3,0.12-0.5,0.49-0.79,0.59
				c-1.22,0.41-1.38,3.32-3.39,1.64c-1.65-1.36,0.19-2.62,0.42-3.95c0.48-2.82,4.7-3.15,4.3-5.57c-0.59-3.52,0.28-6.98-0.38-10.39
				c-0.6-3.1-2.25-5.5-5.36-6.69c-2.02-0.77-4.61-1.09-5.9-2.54c-4.13-4.66-8.3-4.75-14.07-2.92c-4.05,1.29-5.12,3.54-6.19,6.71
				c-1.1,3.25,0.98,4.46,3.38,5.64c1.79,0.87,3.41,2.09,5.18,3c2.82,1.45,6.24,2.23,8.4-0.2c4.07-4.58,5.78-1.03,7.92,1.64
				c0.72,0.89,1.62,2,1.04,3.16c-0.72,1.45-2.05,0.38-3.11,0.31c-3.7-0.25-6.54,0.02-4.7,5.14c0.69,1.93,0.47,4.29,0.25,6.41
				c-0.18,1.74-1.44,3.34-3.29,3.13c-2.13-0.24-0.98-1.99-0.78-3.18c0.19-1.11-0.01-2.02-1.13-2.44c-1.13-0.43-1.9,0.26-2.54,1.07
				c-1.82,2.29-0.8,8.73,1.84,11.65c2.5,2.76,5.08,2.53,7.94,0.47c1.32-0.95,2.92-1.67,4.49-2.06c3.89-0.94,7.28-2.3,8.67-6.56
				C908.39,297.2,910.29,297.19,911.96,297z M953.95,899.86l0.13,0.13c-0.2-1.8,2.85-3.8,0.15-5.26c-2.54-1.37-3.1,1.75-4.51,2.9
				c-4.14,3.36-6.19,8.82-11.19,11.68c-0.44-1.66,1.72-2.91-0.39-4.29c-3.36-2.19,0.77-3.5,1.11-3.37c5.52,2.25,3.71-3.16,4.42-4.77
				c1.27-2.87-1.64-2.73-3.62-2.94c-1.55-0.16-1.61-1.38-1.59-2.62c0.03-2.17-1.43-2.86-3.24-3c-2.08-0.16-3.04,1-3.11,3
				c-0.1,2.77-1.42,2.49-3.24,1.39c-2.73-1.64-5.58-3.02-8.87-2.96c-2.39,0.04-5.15,0.25-5.3,3.26c-0.16,3.08,2.14,4.29,5.05,4.08
				c3.24-0.24,4.3,1.02,3.21,4.15c-0.25,0.73-0.31,1.79,0.04,2.42c5.47,10.01,5.09,23.4,17.2,29.63c1.79,0.92,2.95,7.26,4.77,0.01
				c0.28-1.11,2.04-0.98,3.13-0.38c2.54,1.4,4.25,0.09,6.27-1.36c2.35-1.69,4.55-4.52,8.26-1.68c1.73,1.33,1.95-0.74,1.79-2.12
				c-0.15-1.3-2.21-2.98,0.01-3.79c2.05-0.76,2.48,1.61,3.36,2.94c1.89,2.86,3.61,3.24,5.32-0.25c1.75-3.55,3.56-7.08,5.66-10.42
				c0.84-1.33,1.83-2.37,1.15-3.99c-0.38-0.9-1.22-1.15-2.08-0.84c-1.54,0.54-2.43,1.67-2.63,3.32c-0.14,1.16,0.76,3.23-1.42,2.93
				c-2.41-0.34-1.59-2.59-1.32-4.08c0.19-1.07,1.21-1.97,1.6-3.03c1.59-4.28,4.17-8.38,2.86-13.35c-2.47,3.95-4.51,8.04-6.33,12.23
				c-0.56,1.29-0.09,3.32-2.34,3.04c-2.25-0.28-2.12-2.23-2.18-3.89c-0.07-1.75,0.81-3.19,1.6-4.66c1.9-3.5,2.12-7.29,2.34-11.56
				c-2.83,1.49-3.58,3.68-4.52,5.8c-2,4.54-4.12,9.02-6.23,13.51c-1.18,2.51-3.51,2.81-5.51,1.76c-2.89-1.53,0.24-2.46,0.76-3.65
				c0.74-1.67,1.59-3.3,2.23-5.01C957.73,902.1,957.26,900.13,953.95,899.86z M1003.72,632.64c0,0,0.1,0.12,0.1,0.12
				c0.01-1.49,0.18-3-0.02-4.46c-0.29-2.05-2.35-2.74-3.12-1.29c-2.36,4.44-7.35,6.5-9.23,11.43c-2.15,5.65-6.2,9.63-12.66,10.64
				c-2.06,0.32-4.05,1.49-5.91,2.55c-1.2,0.68-1.92,2.09-1,3.43c1.03,1.49,2.3,1.03,3.28-0.2c0.89-1.12,2.02-2.15,3.38-1.59
				c3.64,1.49,6.34-0.97,9.39-1.94c1.64-0.52,3.11-2.05,4.98-0.67c0.13,1.36-0.78,1.87-1.7,2.24c-5.84,2.32-11.69,4.62-17.55,6.9
				c-1.82,0.71-3.88,0.12-4.29-1.47c-1.7-6.72-5.17-6.86-10.03-3.22c-0.12,0.09-0.32,0.09-0.48,0.1
				c-7.92,0.32-14.27,5.37-21.69,7.21c-5.49,1.36-10.34,5.12-15.6,6.04c-8.22,1.44-11.49,6.16-13.49,13.24
				c-2.08,7.37-8.11,12.43-11.38,19.21c-0.46-0.87-0.64-1.65-0.33-2.09c4.57-6.41,6.26-14.25,10.45-20.85
				c0.67-1.06,0.91-2.21,0.36-3.33c-1.55-3.09,0.45-4.29,2.77-5.17c6.66-2.52,13.33-4.98,20.03-7.39c6.4-2.3,12.83-4.49,19.23-6.78
				c1.59-0.57,3.54-1.54,2.91-3.42c-0.68-2.04-2.96-2.2-4.67-1.27c-4.66,2.56-9.82,2.98-14.88,3.83
				c-19.08,3.18-38.24,4.59-57.57,2.85c-5.91-0.53-6.62,0.35-6,6.45c0.15,1.46-0.18,2.97-0.36,4.45c-0.33,2.67-0.36,5.32,0.35,7.94
				c0.26,0.96,0.46,2.08,1.7,2.14c1.15,0.06,1.73-0.88,2.19-1.78c1.4-2.7,1.21-5.42,0.29-8.24c-0.4-1.23-1.88-2.94,0.34-3.82
				c1.67-0.66,2.86,0.59,3.67,1.91c2.06,3.37,5.12,4.11,8.89,4.4c4.7,0.36,9.3,0,13.95-0.23c1.09-0.06,2.71-0.26,2.84,1.25
				c0.13,1.57-1.53,1.57-2.62,1.61c-4.16,0.16-8.33,0.16-12.49,0.26c-7.16,0.17-9.82,3.81-7.17,10.65c1.58,4.08,1.6,7.74-0.04,11.6
				c-2.07-4.01-2.3-8.37-2.96-12.63c-0.18-1.16-0.55-2.46-1.9-2.66c-1.51-0.22-1.76,1.21-2.22,2.24c-2.14,4.72,0,15.85,4.45,17.1
				c5.54,1.56,4.49,5.16,4.95,8.7c0.37,2.79,0.64,7.02,3.71,6.68c3.11-0.34,2.86-4.44,2.58-7.49c-0.76-8.45-1.5-16.92-0.79-25.42
				c0.12-1.48-0.57-4.01,1.84-3.89c2.07,0.1,0.91,2.39,1.19,3.73c1.59,7.48-3.36,16.17,4.21,22.6c0.68,0.58,0.2,2.48,1.65,2.74
				c1.55,0.28,2.35-0.98,3.12-2.08c4.12-5.89,9.33-10.81,14.18-16.06c4.82-5.23,9.86-10.35,13.11-16.84c0.73-1.45,1.4-3.6,3.49-2.66
				c2.23,1,0.56,2.86,0.16,4.33c-0.17,0.63-0.48,1.28-0.9,1.77c-6.03,7.08-11.12,14.97-18.58,20.81c-7.66,6-13.27,13.77-18.31,22
				c-0.46,0.75-0.78,1.54-0.06,2.26c0.78,0.78,1.53,0.24,2.19-0.27c2.48-1.93,4.93-3.89,7.41-5.82
				c15.83-12.34,34.44-20.88,48.64-35.47c0.81-0.83,2.09-1.56,3-0.24c0.82,1.18-0.04,2.43-1.04,2.96c-4.09,2.16-6.51,6.13-9.98,8.96
				c-12.94,10.52-27.96,17.83-41.62,27.24c-6.83,4.71-14.79,9.08-18.62,16.16c-3.44,6.35-8.3,11.53-11.64,17.8
				c-1.48,2.77-3.78,5.1-5.24,7.87c-7.66,14.57-15.33,29.14-22.67,43.87c-3.39,6.8-6.16,13.92-7.77,21.4
				c-0.38,1.77-0.51,3.9,1.49,4.89c2.47,1.22,3.01-1.23,4.05-2.58c1.11-1.43,2.36-2.72,2.86-4.62c1.82-6.98,5.11-13.34,8.88-19.4
				c0.84-1.34,1.02-5.09,3.45-3.6c1.81,1.11-1.28,2.84-2.06,4.28c-3.56,6.58-4.11,14.39-8.65,20.57c-0.88,1.2-0.03,2.87,0.77,4.23
				c0.55,0.93,2.45,1.33,1.61,2.71c-0.87,1.43-2.67,1.45-4.09,1c-4.91-1.58-7.95,0.79-10.48,4.56c-0.83,1.24-1.75,2.43-2.7,3.58
				c-2.2,2.67-1.18,3.92,1.76,4.99c15.88,5.83,32.52,9.17,47.94,16.77c12.08,5.97,23.73,13.29,37.45,15.95
				c6.39,1.24,12.93,3.05,19.25,3.79c10.85,1.26,21.49-1.58,30.78-8.03c2.02-1.41,3.41-3.04,3.85-5.54
				c0.59-3.36-0.56-4.14-3.82-3.39c-16.23,3.74-32.27,5.69-46.46-6.18c-0.87-0.73-2.09-1.03-3.06-1.67
				c-11.39-7.5-24.38-12.34-35.05-21.04c-1.34-1.1-3.77-2.05-2.23-4.16c1.27-1.75,3.04-0.17,4.36,0.76
				c6.02,4.23,12.57,7.41,19.2,10.58c6.4,3.06,13.03,6.2,18.41,10.69c14.23,11.88,29.78,12.41,46.45,7.32
				c2.29-0.7,4.32-2.22,3.44-4.54c-0.93-2.46-3.36-1.32-5.2-0.48c-6.61,3.02-13.52,3.3-20.56,2.22c-1.11-0.17-2.58-0.33-2.57-1.83
				c0.01-1.83,1.63-2.12,2.91-1.88c7.18,1.36,14.07,0.08,21.11-1.34c5.87-1.19,10.48-3.05,12.01-9.43c0.26-1.1,0.87-2.24,1.63-3.07
				c7.39-8.02,12.26-17.75,18.19-26.76c11.11-16.86,19.9-34.92,26.87-53.88c2-5.43,3.86-10.95,7.21-15.83
				c6.21-9.06,12.49-18.13,13.47-29.6c0.09-1.11,0.79-1.86,1.97-1.84c1.14,0.03,1.85,0.79,2.1,1.82c0.58,2.4-0.28,4.57-1.16,6.76
				c-3.72,9.33-9.11,17.74-14.23,26.31c-2.45,4.11-4.48,8.48-6.58,12.79c-0.48,0.98-0.86,2.36,0.58,3.05
				c1.05,0.5,1.94-0.23,2.68-0.87c0.74-0.65,1.4-1.42,1.99-2.21c4.78-6.4,9.26-13.04,14.35-19.18c7.88-9.49,13.89-19.54,13.03-32.46
				c-0.04-0.64,0.28-1.3,0.39-1.95c3.33-19.25,6.44-38.57-1.18-57.52c-2.91-7.24-4.12-15.13-8.33-21.85
				c-2.92-4.67-7-8.58-8.59-14.12c-1.18-4.09-3.43-3.97-6.02-0.99c-3.74,4.3-8.14,7.9-12.68,11.26c-4.01,2.96-8.45,5.27-13.84,6.24
				c0.53-2.48,2-3.25,3.33-3.63c9.58-2.76,14.93-10.65,21.39-17.24c1.78-1.82,3.43-3.63,4.01-6.18c0.36-1.57,1.69-3.52,0.14-4.65
				c-1.8-1.32-3.43,0.46-4.7,1.67c-4.45,4.21-9.7,7.23-14.97,10.29c4.28-5.26,10.45-8.41,14.87-13.51c1.34-1.54,3.46-2.96,1.74-4.97
				c-1.9-2.22-3.75,0.15-5.03,1.29c-3.7,3.33-7.13,6.69-12.13,8.43c-3.35,1.17-5.53,5.02-4.56,8.56c0.75,2.74-0.07,3.69-1.66,5.35
				c-3.85,4.02-6.71,8.73-7.64,14.33C1007.38,633.44,1005.51,632.81,1003.72,632.64z M869.82,717.95
				c0.93-10.01-0.01-19.12-2.02-28.06c-2.24-9.96-2.64-20.09-3.51-30.18c-0.19-2.19,0.3-4.64-2.49-5.27
				c-3.28-0.73-5.9,1.18-7.92,3.34c-2.13,2.27,1.08,2.84,1.94,4.14c0.89,1.35,0.87,2.83,0.77,4.33c-0.13,1.99-0.36,3.98-0.46,5.97
				c-0.68,14.41-1.7,28.77-5.69,42.74c-0.34,1.19-0.5,2.26,1.18,2.66c4.78,1.15,4.75,1.16,1.38,4.93c-1.33,1.49-2.54,3.08-3.8,4.63
				c-0.76,0.94-1.6,1.85-2.92,1.15c-1.25-0.66-1.15-1.89-0.96-3.08c1.6-9.99,3.32-19.97,4.92-29.96c1.57-9.8,2.07-19.83,1.28-29.82
				c-0.1-1.27,0.09-2.89-1.66-3.19c-0.69-0.12-1.99,0.29-2.17,0.77c-2.03,5.46-7.4,9.01-8.43,15.05
				c-2.78,16.26-6.96,32.18-12.38,47.75c-2.25,6.46-1.9,12.75-0.07,19.11c1.07,3.71,2,7.37,1.16,11.28c-0.31,1.42-0.66,3.2,0.88,4.1
				c1.62,0.94,2.97-0.37,3.82-1.5c2.36-3.14,5.67-3.8,9.24-4.03c5.3-0.34,10.62-0.42,15.72-2.36c5.51-2.1,10.86-9.02,11.28-14.88
				C869.39,730.76,870.08,723.97,869.82,717.95z M801.34,1110.05c13.44-0.23,26.76-2.98,40.25-1.82c3.29,0.28,4.97-1.9,4.66-5.06
				c-0.37-3.76,0.33-7.22,1.57-10.73c1.31-3.71-0.24-5.37-4.15-4.53c-4.35,0.94-8.71,1.98-13.04,2.84
				c-12.8,2.55-25.74,4.42-38.19,8.5c-3.45,1.13-7.09,1.83-10.08,4.13c-1.49,1.14-3.05,2.26-2.44,4.45c0.64,2.32,2.72,2.18,4.5,2.2
				C790.05,1110.09,795.69,1110.05,801.34,1110.05z M936.81,321.97c3.07-2.39,5.23-4.13,7.46-5.77c1.52-1.11,3.64-2.24,4.88-0.5
				c1.15,1.61-1.12,2.74-2.17,3.94c-2.86,3.27-8.15,4.97-6.8,10.97c0.21,0.94-1.26,1.31-2.32,1.38c-1.59,0.11-3.88-0.28-3.42,2.29
				c0.47,2.6,2.81,3.39,5.06,2.73c3.81-1.12,7.79-2.19,11.17-4.18c8.86-5.2,17.43-10.9,26.14-16.37c3.41-2.14,5.81-4.88,6.15-9.09
				c0.08-0.94,0.87-2.01-0.21-2.7c-0.97-0.61-1.85,0.11-2.7,0.68c-5.03,3.36-6.01,2.98-7.67-3.21c-0.5-1.85-0.8-4.03-3.19-3.63
				c-6.11,1.02-12.84,0.32-17.31,6.28c-1.45,1.93-3.74,3.25-5.72,4.76c-1.04,0.8-2.23,1.75-3.57,0.61
				c-4.69-3.96-4.91,0.46-5.09,3.07C937.32,315.8,937.88,318.42,936.81,321.97z M994.11,621.27c-3.45,1.58-5.14,4.49-6.79,7.19
				c-6.15,10.08-16.03,12.87-26.74,14.96c-3.55,0.7-4.03-2.39-6.3-2.61c-1.13-0.11-2.31,0.11-3.45,0.28
				c-12.28,1.88-24.27,5.09-36.7,6.6c-13.47,1.64-26.83,1.37-40.25,1.51c-1.91,0.02-4.47-1.02-5.07,1.67
				c-0.65,2.91,2.11,2.8,3.95,3.25c1.44,0.35,2.92,0.86,4.37,0.81c14.74-0.5,29.53,0.88,44.21-1.84c10.9-2.02,22.24-1.93,32.4-7.3
				c1.69-0.89,3.62-1.14,2.29,1.91c-0.5,1.16-0.91,2.31,0.33,3.1c1.45,0.92,2.54-0.03,3.36-1.17c1.34-1.87,2.5-3.13,5.31-2.06
				c6.14,2.34,19.1-3.23,22.84-8.59C991.57,633.71,993.21,627.97,994.11,621.27z M1064.06,1062.9c2.77-1.23,4.88-1.66,6.28-2.9
				c2.36-2.09,6.62-1.5,7.64-5.07c0.97-3.41,3.78-3.42,5.42-2.28c4.4,3.06,8.83,1.54,13.3,1.12c9.58-0.9,19.18-1.53,27.63-7.16
				c12.69-8.47,25.77-16.43,37.48-26.23c2.9-2.43,7.31-3.38,8.76-7.06c1.69-4.26,3.9-8,7.08-11.22c0.58-0.59,1.33-1.15,1-2.09
				c-0.42-1.19-1.59-0.99-2.54-1.15c-1.84-0.3-3.3,0.41-4.34,1.87c-5.76,8.06-13.6,14.05-20.68,20.8
				c-3.64,3.46-6.91,7.33-12.63,3.52c-1.15-0.76-3.43-0.45-3.87,1.16c-0.63,2.29,1.63,1.83,2.93,2.08c0.93,0.18,2.05-0.09,2.51,1.51
				c-3.49,3.45-8.55,4.56-12.54,7.58c-4.93,3.74-10.57,7.33-16.84,8.35c-5.08,0.83-10.19,1.3-15.16,2.8
				c-1.39,0.42-3.18,0.68-4.43,0.15c-8.45-3.54-13.79,3.32-20.26,6.07C1067.92,1055.98,1065.43,1058.53,1064.06,1062.9z
				 M976.21,252.2c-6.04-6.83-6.6-6.69-9.83,0.8c-1.86,4.32-4.37,7.65-10.03,7.26c-2.83-0.19-5.05,1.96-5.02,5.09
				c0.04,4.31,3.67,9.9,6.09,9.87c0.64-0.01,1.33-0.22,1.9-0.51c8.94-4.55,17.09-9.7,20.87-19.92c2.47-6.67,1.45-12.59-4.18-16.12
				c-3.39-2.13-11.36,0.49-14.59,4.77c-0.51,0.67-1.09,1.32-0.69,2.22c0.48,1.11,1.5,1.36,2.5,1.05c1.26-0.38,2.42-1.06,3.65-1.54
				c1.77-0.7,2.73-4.47,5.2-2.03C974.26,245.27,977.07,247.51,976.21,252.2z M847.71,776.1c-0.51-1.53-0.76-2.11-0.89-2.72
				c-0.39-1.82,0.28-4.6-2.65-4.49c-3.07,0.11-2.66,2.81-2.67,4.96c-0.02,3.18,0.18,6.29,1.73,9.21c0.52,0.98,1.01,2.37-0.42,3.04
				c-1.16,0.55-1.82-0.6-2.25-1.43c-0.6-1.16-1.14-2.42-1.38-3.7c-0.98-5.22-1.84-10.47-1.41-15.83c0.09-1.12,0.47-2.51-0.85-3.12
				c-1.49-0.69-2.45,0.45-3.35,1.46c-4.12,4.61-4.49,9.61-1.97,15.17c3.22,7.09,4.69,14.84,8.37,22.06c2.19-0.88,3.46-2.46,3-5.21
				c-0.27-1.61-0.37-2.82,1.14-4.37c4.5-4.63,7.41-10.3,8.72-16.69c0.18-0.86,0.2-1.69-0.72-2.13c-0.87-0.42-1.63-0.08-2.19,0.63
				C849.34,773.69,848.83,774.5,847.71,776.1z M990.55,904.65c-0.02-1.38,0.63-3.17-1.47-3.64c-1.39-0.31-2.51,0.6-2.33,1.88
				c0.56,3.94-2.18,6.83-2.99,10.33c-1.93,8.38-6.93,14.86-13.32,20.34c-1.07,0.92-2.65,2.85-3.7,2.08
				c-4.47-3.29-6.53,1.12-9.47,2.57c-1.04,0.52-1.93,1.55-1.56,2.84c0.43,1.54,1.75,1.17,2.9,0.94c0.77-0.16,1.41-0.53,1.92,0.67
				c1.63,3.84,1.93,3.97,5.11,1.24c4.15-3.56,8.4-7.08,12.09-11.09C985.01,924.88,990.29,915.88,990.55,904.65z M897.51,1076.47
				c7.29-0.2,12.71-2.98,17.93-6.37c2.06-1.33,3.48-3.08,1.97-5.33c-1.69-2.54-3.87-0.51-5.07,0.61c-4.34,4.02-9.57,5.72-15.14,6.99
				c-7.38,1.68-10.01,0.66-13.77-6.16c-1.36-2.47-3.11-3-5.16-1c-2.83,2.77-1.55,7.22,1.48,9.62
				C885.79,1079.62,892.56,1072.31,897.51,1076.47z M877.47,1106.9c1.81,0.07,4.21-0.01,4.72-2.28c0.47-2.09-2.09-2.12-3.44-2.87
				c-1.84-1.02-3.41-2.49-5.89-2.21c-2.95,0.33-2.91-1.38-1.74-3.42c2.38-4.16,3.11-9.11,6.38-12.88c1.03-1.18,2.05-3.2,0.26-4.4
				c-1.89-1.26-2.87,0.54-3.76,2.02c-2.87,4.83-5.31,9.92-8.98,14.28c-1.99,2.36-1.47,4.86,0.46,7.23
				C868.55,1106.15,872.96,1106.28,877.47,1106.9z M1047.96,920.62c-0.13-1.66-0.45-2.84-1.95-2.84c-1.69,0.01-2.12,1.45-2.4,2.73
				c-1.17,5.48-3.62,10.67-5.84,15.59c-2.76,6.11-5.21,12.51-8.68,18.35c-0.8,1.35-1.85,3.28,0.24,4.33
				c2.16,1.08,3.34-0.62,4.15-2.37c3.95-8.59,6.39-17.83,11.68-25.86C1047.1,927.6,1045.86,923.38,1047.96,920.62z M898.91,1109.2
				c1.32,1.43,2.33,0.7,3.43,0.37c12.47-3.76,22.8-11.15,32.71-19.25c1.03-0.84,3.33-1.45,2.18-3.26c-1.11-1.74-3.07-0.84-4.43,0.13
				c-5.16,3.63-10.27,7.34-15.34,11.1c-1.87,1.39-3.62,3.03-5.95,3.49C906.39,1102.79,902.96,1106.39,898.91,1109.2z M970.39,883.21
				c2.1-0.03,3.93-0.76,5.31-2.35c1.25-1.45,2.7-2.45,4.63-2.66c3.04-0.33,3.29-2.3,2.75-4.7c-0.8-3.56-1.75-7.1-2.38-10.69
				c-0.29-1.64,0.14-3.7-2.25-3.63c-2.15,0.07-2.29,2.16-2.47,3.77c-0.12,1.12,0.08,2.32,0.34,3.44c0.94,4.16-0.12,7.52-3.66,10.05
				c-1.35,0.96-2.59,2.08-3.79,3.23c-0.68,0.66-1.61,1.42-1.09,2.55C968.26,883.3,969.42,883.1,970.39,883.21z M1207.07,1019.81
				c-0.14-1.65-2.07-2.61-3.3-1.22c-5.49,6.22-13.17,9.36-19.5,14.36c-0.98,0.77-2.52,1.83-1.45,3.22c1.11,1.45,2.82,0.66,4.04-0.2
				c6.1-4.25,12.15-8.57,18.19-12.89C1206.15,1022.29,1206.98,1021.26,1207.07,1019.81z M1099.14,953.09c-4,2.22-5.04,5.8-6.6,8.98
				c-2.26,4.6-4.61,9.13-8.06,13c-1.24,1.39-3.62,3.26-1.65,4.86c1.76,1.44,3.32-1.26,4.78-2.47c0.37-0.31,0.72-0.73,0.9-1.17
				c2.23-5.56,5.63-10.47,8.69-15.57C1098.44,958.65,1099.66,956.45,1099.14,953.09z M1095.19,973.18c0.36,0.28,0.71,0.56,1.07,0.84
				c4.48-4.35,7.88-9.55,10.82-15.04c0.75-1.4,0.84-3.21,1-4.86c0.16-1.64,0.31-3.68-1.91-3.97c-2.06-0.27-2.23,1.74-2.42,3.13
				c-0.71,5.25-2.78,9.82-5.97,14.04C1096.53,968.98,1096.03,971.21,1095.19,973.18z M871.74,741.46
				c5.53-3.66,8.85-13.74,6.86-18.68c-0.44-1.1-1.03-2.29-2.36-2.26c-1.76,0.04-1.91,1.58-2.08,2.89
				C873.41,729.13,873.36,734.91,871.74,741.46z M1068.8,962.43c4.68-5.36,7.38-11.51,10.01-17.67c0.35-0.82,0.22-1.99-0.03-2.9
				c-0.37-1.33-1.3-2.44-2.79-2.49c-2-0.06-1.68,1.58-1.84,2.86c-0.64,4.98-2.58,9.6-3.98,14.37
				C1069.64,958.36,1067.25,959.56,1068.8,962.43z M900.61,234.5c1.84-0.44,4.34-0.78,4.61-2.97c0.42-3.34-2.93-3.72-5.08-4.41
				c-2.89-0.94-6.08-0.34-6.93,2.97c-1.01,3.92,2.49,3.37,4.81,3.78C898.84,234.01,899.63,234.26,900.61,234.5z M913.85,272.12
				c-1.59,4.66-0.88,9.75-3.68,14.14c-1.02,1.6,0.7,3.42,2.17,4.61c0.68,0.55,1.57,0.65,2.31,0.06c1.61-1.27,1.18-2.82,0.71-4.52
				c-0.34-1.23-0.65-2.82-0.15-3.87C917,278.79,915.61,275.52,913.85,272.12z M920.4,976.59c-3-1.78-5.16-1.19-7.29-0.43
				c-3.38,1.22-6.71,2.57-10.09,3.78c-1.18,0.42-3.08,0.3-2.32,2.23c0.55,1.38,2.3,1.44,3.46,0.72c1.66-1.03,3.01-2.4,5.25-2.3
				C913.35,980.76,916.09,977.8,920.4,976.59z M856.02,1095.12c2.87,0.28,8.31-7.32,7.3-9.66c-0.52-1.22-1.49-1.72-2.77-1.55
				c-2.62,0.35-6.74,7.76-5.58,10.06C855.24,1094.49,855.79,1094.87,856.02,1095.12z M918.35,285.65c0.32,2.89,2.82,5.35,2.29,8.62
				c-0.08,0.49,1.36,0.71,2.19,0.35c1.07-0.46,1.74-1.59,1.15-2.38c-2.25-2.98-0.54-5.52,0.44-8.25c0.44-1.22,0.59-2.76-1.01-3.44
				c-1.73-0.73-2.88,0.31-3.66,1.68C919.18,283.23,918.86,284.36,918.35,285.65z M925.64,1006.35c-6.9,0.29-11.47,4.7-15.99,9.21
				C915.82,1014.03,921.56,1011.75,925.64,1006.35z M912.13,881.46c-2.26,0-4.72-0.2-4.86,2.47c-0.15,2.72,2.29,2.93,4.31,2.78
				c2.59-0.19,6.9,1.83,7.25-1.78C919.25,880.72,914.32,882.6,912.13,881.46z M929.09,945.51c-0.15-0.34-0.26-1.06-0.67-1.49
				c-1.57-1.62-3.35-1.24-4.91-0.05c-2.12,1.62-5.56,1.81-5.97,5.32c-0.03,0.24,0.26,0.66,0.51,0.78c2.76,1.31,5.07-0.63,7.58-1.12
				C927.32,948.63,928.71,947.74,929.09,945.51z M848.75,761.62c0.32-2.23-0.52-3.54-2.91-3.44c-2.29,0.1-4.39,0.64-4.43,3.49
				c-0.04,2.32,0.75,4.37,3.46,4.53C848.01,766.39,848.56,764.09,848.75,761.62z M1064.96,930.2c0.46-0.69,0.25-1.33-0.47-1.55
				c-1.19-0.37-1.81,0.55-2.37,1.36c-2.72,3.99-1.73,9.02-3.66,13.25c-0.34,0.74,0.21,1.73,1.19,1.81c0.93,0.08,1.51-0.69,1.73-1.51
				C1062.6,939.12,1063.77,934.66,1064.96,930.2z M884,291.71c1.64-0.76,5.13-1.23,4.84-3.91c-0.27-2.45-3.76-2.04-6.01-2.12
				c-1.82-0.06-4.22,0.07-4.1,2.5C878.84,290.6,880.8,291.83,884,291.71z M1078.14,1075.15c-5.26-2.4-9.75-3.19-14.2-4.06
				c-1-0.2-1.98,0-2.52,1.04c-0.39,0.74,0.01,1.52,0.56,1.65C1066.89,1074.96,1071.63,1078.01,1078.14,1075.15z M922.93,1000.56
				c-5.38-0.17-9.93,2.08-14.28,4.92c-0.75,0.49-0.98,1.44-0.44,2.21c0.71,1.01,1.87,0.84,2.69,0.31
				C914.83,1005.43,919.51,1004.13,922.93,1000.56z M878.46,1094.76c1.93,0.09,6.9-8.31,5.97-10.11c-0.65-1.25-1.68-0.91-2.52-0.4
				c-3.14,1.92-4.96,4.71-5.09,8.45C876.77,1093.74,877.16,1094.68,878.46,1094.76z M1049.72,946.69c2.56,0.23,6.88-6.06,5.87-8.53
				c-0.28-0.69-0.77-1.1-1.47-1.06c-2.61,0.15-3.17,2.62-4.52,4.16c-1.08,1.24-1.97,2.7-1.43,4.49
				C1048.38,946.46,1049,946.71,1049.72,946.69z M924.28,986.85c-4.12,1.54-8.24,3.05-12.34,4.65c-0.94,0.37-1.83,1.13-1.56,2.24
				c0.41,1.68,1.83,1.16,2.84,0.82C917.56,993.09,921.82,991.45,924.28,986.85z M1118.78,1017.4c-1.87-0.07-7.46,7.53-6.66,9.15
				c0.25,0.52,0.87,1.03,1.42,1.18c0.85,0.24,1.88-0.21,1.95-1.04c0.24-2.82,2.03-3.77,4.42-4.45c1.2-0.34,1.61-1.57,1.32-2.85
				C1120.95,1018.09,1120.07,1017.48,1118.78,1017.4z M876.64,1111.81c4.5,2.28,8.03,2.35,11.61,1.98c0.98-0.1,2.09-0.48,2.17-1.65
				c0.11-1.55-1.26-1.86-2.36-1.97C884.59,1109.82,881.21,1110.33,876.64,1111.81z M1066.12,965.36c-2.17,3.36-5.64,4.91-8.78,6.91
				c-1.05,0.67-2.89,1.23-1.95,2.87c0.92,1.61,2.65,1.01,3.99,0.27C1063.26,973.24,1064.81,969.44,1066.12,965.36z M1080.41,963.16
				c0.52,0.23,1.05,0.46,1.57,0.69c2.02-5.6,6.39-10.17,6.84-16.46c-0.44-0.2-0.89-0.39-1.33-0.59
				C1085.12,952.26,1082.77,957.71,1080.41,963.16z M877.97,888.78c2.14-0.23,4.79,0.14,5.33-2.56c0.45-2.2-1.67-2.17-3.08-1.88
				c-2.27,0.47-5.68-0.33-6.15,2.76C873.76,889.13,876.54,888.42,877.97,888.78z M980.42,908.29c0.95,0.15,1.74-0.17,1.74-0.85
				c0-3.13,1.5-5.7,2.76-8.39c0.36-0.76,0.21-1.79-0.62-2.2c-1.07-0.53-2.15,0.07-2.44,1.04c-0.8,2.67-1.21,5.41-2.78,7.86
				C978.45,906.74,979.18,908,980.42,908.29z M946.83,256.83c0-3.51-1.2-6.79-0.81-10.23c0.09-0.84-0.36-1.74-1.36-1.71
				c-1.18,0.03-1.61,1.01-1.79,2.03C942.11,250.98,943.76,254.15,946.83,256.83z M1015.03,942.21c2.45-1.38,3.19-4.09,3.83-6.81
				c0.22-0.94-0.47-1.89-1.36-1.37c-2.23,1.31-4.81,2.51-5.17,5.52C1012.15,941.01,1012.95,942.08,1015.03,942.21z M921.17,981.94
				c-3.48-0.7-6.45,0.78-9.45,1.96c-0.95,0.37-1.58,1.37-1.08,2.45c0.4,0.86,1.34,0.78,2.19,0.69
				C916.32,986.68,918.62,984.24,921.17,981.94z M945.08,304.73c1.82-1.13,4.36-1.92,4.56-4.9c0.07-0.96-1.01-2.53-1.36-1.97
				c-1.47,2.37-4.97,2.59-5.62,5.45C942.45,304.25,943.63,304.92,945.08,304.73z M1082.54,1061.75c-0.43,0.13-0.85,0.27-1.28,0.4
				c0.8,2.53,1.63,5.08,3.28,7.28c0.74,0.98,1.94,1.45,3.01,0.44c0.86-0.8,0.57-1.95-0.06-2.7
				C1085.92,1065.29,1084.2,1063.55,1082.54,1061.75z M987.75,313.21c1.86,0.03,3.06-0.82,3.11-2.84c0.04-1.76-0.92-2.81-2.69-2.73
				c-1.88,0.08-3.78,0.61-3.91,2.85C984.13,312.67,986.05,312.88,987.75,313.21z M929.87,323.97c-4.64-0.6-6,2.05-6.46,5.7
				c-0.09,0.69-0.1,1.36,0.58,1.7c0.75,0.38,1.25-0.14,1.62-0.71C927.01,328.47,928.4,326.27,929.87,323.97z M857.48,759.54
				c-0.02-1.24-0.29-2.84-1.2-2.46c-2.04,0.83-4.11,2.1-4.23,4.79c-0.05,1.19,0.26,2.67,1.64,2.5
				C856.49,764.01,856.72,761.37,857.48,759.54z M1116.01,1074.54c1.9-0.22,4.15,0.12,4.59-2.6c0.26-1.6-0.88-2.16-2.11-1.86
				c-2.09,0.51-5.09,0.07-5.57,2.94C1112.65,1074.61,1114.77,1074.34,1116.01,1074.54z M940.67,1060.58
				c-3.16,2.19-7.02,3.84-7.63,8.83C937.86,1068,938.59,1063.7,940.67,1060.58z M1147.8,1009.05c2.25-0.5,4.14-2.38,6.71-2.49
				c0.72-0.03,1.74-0.41,1.44-1.52c-0.26-0.96-1.29-1.17-2.01-0.94c-2.61,0.84-5.18,1.83-7.73,2.85c-0.31,0.12-0.64,0.82-0.56,1.16
				C1145.9,1009.13,1146.87,1008.94,1147.8,1009.05z M928.73,1061.01c0-1.47-0.65-2.18-1.82-1.86c-2.16,0.58-3.83,1.93-4.4,4.14
				c-0.32,1.24,0.78,1.87,1.8,1.59C926.42,1064.3,927.96,1062.91,928.73,1061.01z M1090.21,941.03c1.18-0.07,2.39-0.32,1.77-1.66
				c-0.82-1.78-2.07-3.46-4.25-3.69c-1.46-0.16-2.15,0.94-1.87,2.23C1086.35,940.23,1088.29,940.76,1090.21,941.03z M883.48,719
				c-1.86,0.43-2.33,1.97-2.34,3.72c-0.01,1.35,0.73,2.38,2.14,2.08c1.84-0.4,2.72-1.84,2.66-3.69
				C885.9,719.74,885.02,719.05,883.48,719z M919.79,940.71c-0.18-1.6-1.32-1.75-2.52-1.66c-1.63,0.12-3.64,0.16-3.68,2.34
				c-0.03,1.67,1.67,1.8,2.99,1.73C918.15,943.03,919.48,942.48,919.79,940.71z M1106.05,539.17c0.09-0.89-0.28-1.64-0.97-1.48
				c-2.08,0.49-3.83,1.7-4.77,3.62c-0.4,0.82,0.55,1.46,1.47,1.33C1103.93,542.33,1104.97,540.64,1106.05,539.17z M884.52,926.89
				c-2.74-1.03-4.75-1.36-6.51,0.4c-0.16,0.16,0.07,1.11,0.31,1.19C880.43,929.26,882.4,929.18,884.52,926.89z M955.92,257.13
				c1.56-0.44,2.74-1.57,2.89-3.36c0.11-1.29-1.07-1.55-2.11-1.37c-1.63,0.29-2.66,1.34-2.86,2.98
				C953.69,256.65,954.53,257.12,955.92,257.13z M878,956.88c2.14,1.83,3.97,2.61,6.13,1.53c0.7-0.35,0.62-1.27,0.12-1.65
				C882.41,955.32,880.46,955.44,878,956.88z M959.37,238.5c1.18-0.32,2.06-1.01,2.13-2.32c0.08-1.45-1.08-1.91-2.19-2.26
				c-1.23-0.39-1.97,0.16-1.79,1.44C957.7,236.58,957.64,238.06,959.37,238.5z"/>
			<path d="M1005.86,574.25c1.06-2.73,2.7-4.01,4.53-5.21c9.83-6.46,18.12-14.56,25.09-24.01c1.4-1.89,3.04-4.46,0.84-6.19
				c-1.81-1.43-3.89,0.36-5.45,2.13c-1.87,2.13-4.11,3.9-7.22,4.02c4.3-5.33,10.02-8.99,14.68-13.87
				c7.62-7.97,8.6-18.07,10.59-27.95c0.23-1.16,0.03-2.48-1.35-2.89c-1.21-0.36-2.28,0.31-3.17,1.11c-2.82,2.57-6,4.87-8.35,7.83
				c-6.38,8.04-15.71,12.11-23.53,18.2c-1.3,1.01-2.81,1.83-5.31,0.77c3.67-3.99,7.99-6.9,12.26-9.22
				c6.32-3.43,10.93-8.59,16.1-13.21c0.74-0.66,1.27-1.62,2.09-2.13c10.05-6.13,10.44-15.99,10.46-26.18
				c0.01-5.12-4.38-6.71-7.14-8.9c-4.15-3.29-6.28-8.17-10.46-11.26c-1.77-1.31-3.07-1.65-5.34-0.62
				c-7.08,3.22-14.74,4.81-22.25,6.75c-1.42,0.37-2.66-0.13-3.34-1.53c-0.46-0.94-0.5-1.97,0.06-2.87c0.93-1.49,2.21-1.01,3.53-0.56
				c3.6,1.23,7.2,1.03,10.77-0.21c1.37-0.48,2.38-1.3,2.5-2.79c0.14-1.72-1.15-2.22-2.5-2.58c-23.26-6.27-39.04-21.14-49.15-42.6
				c-1.55-3.3-3.59-6.38-5.08-9.71c-0.64-1.43-0.83-3.77,0.99-4.39c1.72-0.58,2.12,1.56,2.81,2.87c5.16,9.86,9.46,20.19,16.47,29.02
				c2.3,2.9,4.89,5.45,7.68,7.82c0.87,0.74,2.06,1.76,3.11,1.01c1.46-1.04,0.37-2.46-0.27-3.55c-3.72-6.31-7.47-12.61-9.98-19.53
				c-5.62-15.5-10.44-31.2-11.5-47.79c-0.09-1.46-0.54-3.41,1.57-3.54c1.92-0.12,2.24,1.79,2.25,3.29
				c0.06,11.6,3.63,22.64,5.76,33.87c1.63,8.6,5.58,16.76,10.19,24.3c3.1,5.07,5.27,10.58,9.25,15.3c4.81,5.7,11.11,8.3,17.27,11.46
				c1.51,0.77,3.65,2.36,4.92,0.32c1.41-2.25-0.88-3.4-2.49-4.64c-4.86-3.73-9.69-7.52-14.42-11.41c-1.01-0.83-2.86-2.03-1.38-3.58
				c1.08-1.14,2.55,0.13,3.51,0.95c4.53,3.85,9.02,7.76,13.43,11.75c1.35,1.22,2.87,3.49,4.36,2.6c2.23-1.33,0.2-3.61-0.45-5.31
				c-0.76-1.98-2.14-3.72-3.06-5.66c-0.49-1.03-0.79-2.45,0.69-2.99c1.56-0.57,1.86,0.82,2.32,1.9c3.31,7.78,6.75,15.44,11.72,22.41
				c5.24,7.35,12.83,11.97,19.16,18.03c5.1-1.21,8.35,0.67,9.85,5.72c0.09,0.31,1.2,0.47,1.82,0.44c0.64-0.04,1.39-0.75,1.86-0.57
				c4.49,1.69,8.59,2.61,10.66-3.44c0.19-0.55,1.94-0.17,2.56,0.76c0.82,1.23,0.14,2.31-0.76,3.08c-7.2,6.08-11.14,14.51-15.12,22.6
				c-4.17,8.49-7.97,17.12-12.88,25.25c-2.08,3.44-4.25,6.8-6.87,9.76c-10.23,11.56-20.03,23.54-31.85,33.61
				C1010.94,574,1008.73,573.93,1005.86,574.25z M1043.37,534.61c1.16-0.24,1.79-0.87,2.43-1.73c9.66-12.85,14.6-28.29,23.01-41.83
				c1.05-1.69,1.2-4.32-1.44-3.98c-4.16,0.54-5.9-2.24-8.32-4.37c-1.54-1.35-2.82-3.83-5.39-2.6c-2.45,1.17-1.49,3.78-1.74,5.83
				c-1.29,10.78,1.28,21.85-3.03,32.45c-1.75,4.29-3.05,8.7-5.98,12.4c-0.72,0.91-1.4,1.97-0.7,3.18
				C1042.41,534.31,1043.01,534.42,1043.37,534.61z"/>
			<path d="M921.45,611.05c-2.49,1.75-5.04,3.44-7.45,5.3c-0.72,0.56-1.45,1.6-0.69,2.59c0.64,0.84,1.48,0.23,2.23-0.12
				c7.64-3.51,15.28-7.01,22.93-10.5c7.85-3.57,15.7-7.14,23.57-10.64c1.16-0.51,2.77-1.21,3.38,0.6c0.52,1.54-1.06,1.75-2.09,2.2
				c-15.48,6.76-30.99,13.47-46.41,20.36c-2.89,1.29-5.77,1.96-8.69,1.07c-5.5-1.67-10.44,0.03-15.48,1.84
				c-5.95,2.13-11.93,4.17-17.94,6.12c-1.39,0.45-2.94,0.58-4.41,0.56c-0.91-0.01-2.15-0.35-2.09-1.64c0.05-1.01,1.11-1.08,1.9-1.24
				c17.24-3.38,33.28-10.24,49.37-16.97C920.18,610.33,920.85,610.25,921.45,611.05z"/>
			<path d="M1045.44,478.8c-3.51,9.61-10.81,15.59-17.76,21.42c-3.41,2.87-9.31,3.1-13.84,1.33c-5.39-2.11-10.37-1.23-15.53,0.03
				c-1.55,0.38-3.91,1.57-4.4-0.26c-0.63-2.36,2.12-1.83,3.55-2.11c6.99-1.36,13.84-2.38,21.17-1.4c5.31,0.71,10.47-2.15,14.51-6.41
				C1037.05,487.28,1039.84,481.99,1045.44,478.8z"/>
			<path d="M993.98,460.16c-0.35,0.2-0.84,0.66-1.42,0.79c-0.62,0.15-1.45,0.23-1.95-0.06c-7.51-4.33-17.1-4.1-23.43-11.18
				c-3.33-3.73-9-4.29-12.6-7.92c-1.75-1.77-3.53-3.52-5.25-5.32c-0.57-0.6-1.12-1.46-0.55-2.23c0.78-1.05,1.92-0.6,2.65,0.04
				c6.49,5.75,14.86,8.93,20.91,15.22c2.92,3.04,6.33,5.03,10.37,5.42c3.78,0.36,6.49,3.45,10.31,3.45
				C993.71,458.37,994.12,459.04,993.98,460.16z"/>
			<path d="M1131.45,482.13c0.05-4,2.04-7.25,0.94-10.83c-0.24-0.77,0.2-1.67,1.05-2.06c0.9-0.4,1.57,0.09,2.14,0.75
				c2.49,2.88,5.12,5.65,7.43,8.66c1.98,2.58-0.64,10.93-3.47,11.71C1136.86,491.11,1131.33,485.09,1131.45,482.13z"/>
			<path d="M1024.96,469.79c-8.42,9-17.89,10.91-28.65,8.81c-4.55-0.89-9.23-1.1-13.84-1.73c-1.15-0.16-3.23,0.36-3-1.57
				c0.18-1.57,2.13-1.3,3.39-1.25c5.31,0.22,10.68,0.15,15.92,0.94C1007.85,476.35,1016.07,473.74,1024.96,469.79z"/>
			<path d="M963.97,559.51c3.25-5.47,6.45-6.56,11.39-3.62c6.55,3.89,12.86,8.18,19.23,12.35c0.81,0.53,1.49,1.32,2.08,2.1
				c0.63,0.83,0.89,1.88,0.11,2.74c-0.91,1-1.87,0.37-2.57-0.33c-5.35-5.34-12.56-7.97-18.36-12.65
				C972.1,557.06,968.27,556.04,963.97,559.51z"/>
			<path d="M907.07,388.98c-0.24,0.94-0.56,2.05-0.82,3.18c-1.36,5.98-2.68,11.94-1.83,18.18c0.3,2.2,1,4.73-0.88,6.67
				c-1.21,1.25-2.6,3.35-4.5,2.01c-1.79-1.27,0.35-2.61,1.02-3.73c1.61-2.68,0.77-5.52,0.78-8.29c0.03-6.15,0.2-12.29,2.45-18.13
				c0.47-1.21,1.12-2.58,2.85-2.16C907.16,386.96,907.01,387.96,907.07,388.98z"/>
			<path d="M1127.93,496.6c0.83-2.41,1.39-5.96,4.65-6.01c3.41-0.05,5.01,3.48,5.16,6.3c0.25,4.66-4.38,1.74-6.51,3.15
				C1130.13,500.76,1127.74,499.34,1127.93,496.6z"/>
			<path d="M845.86,888.75c1.42,0.56,4.4-0.56,4,2.07c-0.41,2.65-3.64,2.17-5.75,2.63c-1.62,0.35-3.15-0.45-2.96-2.32
				C841.44,888.25,843.98,889.12,845.86,888.75z"/>
			<path d="M1108.57,472.39c-1.03,1.9-1.59,4.38-4.34,4.17c-1.49-0.11-3.24-1.3-2.75-2.91c0.64-2.07,2.84-3.28,4.79-3.89
				C1107.67,469.32,1108.41,470.94,1108.57,472.39z"/>
			<path d="M966.34,612.27c-3.55,1.79-7.13,3.34-11.28,1.51c3.48-2.43,7.47-1.62,11.38-1.44
				C966.46,612.35,966.34,612.27,966.34,612.27z"/>
			<path d="M1102.05,485.48c-1.72-0.35-1.85-1.47-1.73-2.67c0.15-1.6,0.82-2.94,2.63-2.93c1.76,0.01,2.1,1.33,1.82,2.76
				C1104.47,484.22,1103.47,485.21,1102.05,485.48z"/>
			<path d="M885.07,452.45c-0.1-0.55-0.21-0.81-0.14-0.87c1.86-1.59,3.59-3.6,6.44-2.65c0.41,0.14,0.94,1.37,0.77,1.58
				C890.21,452.92,887.48,451.95,885.07,452.45z"/>
			<path d="M903.82,641.09c2.19-2.61,3.6-4.27,6.09-3.06c0.47,0.23,1.1,1.25,0.98,1.43C909.27,641.82,906.86,640.54,903.82,641.09z"
				/>
			<path d="M1012.7,550.1c2.83-1.8,4.78-3.77,7.89-3.82C1019,549.84,1019,549.84,1012.7,550.1z"/>
			<path d="M991.66,536.71c1.77-3.07,4.36-3.31,7.63-4.5C997.25,535.51,995.19,536.68,991.66,536.71z"/>
			<path d="M1000.03,685.15c0.84,1.62,0.08,2.71-0.38,3.66c-6.03,12.52-11.02,25.53-17.8,37.71c-8.13,14.61-18.98,26.92-31.46,37.88
				c-0.93,0.82-1.86,3.21-3.4,1.41c-1.05-1.23,0.89-2.23,1.84-3.02c8.88-7.36,15.76-16.5,22.87-25.44
				c8.58-10.79,13.1-23.71,19.07-35.87C993.49,695.92,995.64,690.02,1000.03,685.15z"/>
			<path d="M1047.24,682.68c-2.35-2.65-1.38-4.18-0.84-5.69c0.51-1.44,1.15-3.24,0.09-4.28c-3.43-3.34-2.28-6.89-1.07-10.58
				c1.09-3.32-0.89-6.55-0.38-9.84c0.26-1.7,0.11-4.37,2.47-4.19c2.52,0.19,1.78,2.74,1.55,4.45c-0.34,2.59-0.41,4.96,2.18,6.57
				c1.04,0.64,1.76,1.7,1.44,2.94C1050.99,668.68,1049.2,675.29,1047.24,682.68z"/>
			<path d="M1031.79,732.26c2.87-6.22,5.76-12.22,8.43-18.31c4.19-9.53,8.05-19.18,9.78-29.54c0.22-1.3,0.15-3,1.98-2.87
				c1.96,0.14,1.52,1.67,1.24,3.03c-3.56,17.2-10.44,32.98-20.16,47.56C1032.95,732.29,1032.48,732.2,1031.79,732.26z"/>
			<path d="M960.72,763.1c-0.31,1.42-1.54,2.1-2.45,3.06c-8.97,9.51-17.9,19.06-26.91,28.53c-2.29,2.41-4.78,4.63-7.29,6.8
				c-0.95,0.82-2.45,1.84-3.43,0.31c-0.78-1.21,0.61-2.01,1.55-2.7c8.46-6.3,14.88-14.6,21.98-22.26c4.6-4.97,9.79-9.39,14.02-14.74
				c0.32-0.41,1.19-0.64,1.74-0.55C960.64,761.65,960.89,762.35,960.72,763.1z"/>
			<path d="M924.61,810.76c-2.08,6.11-7.59,9.42-11.6,13.92c-2.21,2.49-5.23,4.26-8.1,6.09c5.72-7.57,13.11-13.4,19.83-19.92
				L924.61,810.76z"/>
			<path d="M1046.38,621.65c0.19,8.55-0.19,16.07,1.58,23.51C1044.72,643.12,1043.41,628.07,1046.38,621.65z"/>
			<path d="M1033.27,711.31c2.12-5.08,4.23-10.16,6.35-15.24c1.56,3.39-0.67,5.59-1.54,8.13c-0.89,2.59-2.58,4.91-3.92,7.35
				C1033.87,711.47,1033.57,711.39,1033.27,711.31z"/>
			<path d="M1008.44,667.04c-1.5,3.59-3,7.19-4.64,11.09C1001.98,675.31,1003.68,670.67,1008.44,667.04z"/>
			<path d="M1003.72,632.64c-0.5,5.46-1.67,10.65-5.75,14.71c1.87-4.89,2.27-10.37,5.86-14.58
				C1003.82,632.76,1003.72,632.64,1003.72,632.64z"/>
			<path d="M942.99,790.84c-0.42,4.38-4.12,5.92-6.71,8.43C937.08,795.31,939.45,792.59,942.99,790.84z"/>
			<path d="M924.74,810.85c2.3-2.42,3.65-5.86,8.07-7.46c-2.18,4.02-4.41,6.54-8.19,7.37C924.61,810.76,924.74,810.85,924.74,810.85
				z"/>
			<path d="M860.04,735.82c-0.46,0.55-0.79,1.17-1.3,1.54c-3.64,2.61-7.28,5.24-11.02,7.71c-1.48,0.98-3.31,1.12-4.57-0.33
				c-1.36-1.56-0.46-3.13,0.66-4.48c3.61-4.34,7.23-8.67,10.87-12.99c0.83-0.99,1.76-2.51,3.18-1.16c1.25,1.19,0.14,2.57-0.7,3.51
				c-1.76,1.98-3.82,3.7-5.55,5.7c-0.75,0.86-2.25,2.09-0.7,3.36c1.16,0.95,2.57,0.4,3.61-0.57c1.09-1.02,2.02-2.22,3.14-3.2
				c0.41-0.36,1.18-0.44,1.76-0.39C859.65,734.54,859.81,735.3,860.04,735.82z"/>
			<path d="M953.95,899.86c-0.97,5.96-5.74,8.82-10.13,11.99c3.83-3.61,5.17-9.29,10.27-11.85
				C954.08,899.99,953.95,899.86,953.95,899.86z"/>
			<path d="M959,267.74c3.62-3.05,6-5.09,8.42-7.09c0.62-0.51,1.39-1.13,2.19-0.42c0.56,0.5,0.44,1.3-0.07,1.77
				C966.88,264.5,964.33,267.26,959,267.74z"/>
		</g>
	</g>
	<g>
		<g>
			<path class="st0" d="M966.46,612.35c0.19-4.12,3.02-7.27,4.3-11.03c1.31-3.83,1.22-7.47,1.36-11.21
				c0.12-3.09-1.65-3.65-4.29-2.45c-14.46,6.58-29.63,11.13-44.67,16.13c-12.37,4.11-25.37,5.2-37.65,9.43
				c-8.45,2.91-17.36,2.76-26.19,2.67c-1.67-0.02-3.58-0.59-4.41,1.32c-0.99,2.28,1.19,3.13,2.48,4.32c2.08,1.91,4.2,3.79,6.27,5.71
				c0.96,0.9,1.34,1.96,0.26,3.03c-1.11,1.1-2.58,1.38-3.49,0.09c-3.18-4.57-8.75-7.44-9.7-13.6c-0.17-1.11-0.34-2.49-1.87-2.57
				c-1.36-0.07-2.17,1.02-2.54,2.08c-2.54,7.33-3.88,12.19,4.23,14.48c0.56,0.16,0.99,0.73,1.85,1.39
				c-2.32,1.72-4.43,0.62-6.41,0.46c-1.8-0.15-3.35-0.1-4.08,1.9c-0.58,1.59-1.18,3.22-0.09,4.78c1.18,1.67,2.96,1.45,4.54,0.89
				c2.72-0.96,6.05-0.71,7.67-3.99c0.82-1.65,2.46-1.95,3.7-0.57c1.36,1.51-0.14,2.35-1.29,3.03c-4.43,2.65-8.87,5.33-13.95,6.53
				c-3.83,0.9-5.99,3.3-5.77,7.01c0.27,4.61,1.1,9.22,2.05,13.75c0.44,2.12,1.91,2.75,3.39,0.47c0.54-0.84,1.15-1.64,1.62-2.51
				c4.16-7.66,10.98-11.74,18.99-14.32c5.89-1.9,6.99-5.28,3.41-10.19c-0.84-1.16-1.58-2.33-0.52-3.58c1.11-1.3,2.5-0.79,3.54,0.16
				c4.75,4.35,10.14,3.31,15.54,1.87c6.91-1.85,13.43-4.78,20.1-7.29c8.97-3.36,18.46-5.34,27.71-7.97c2.39-0.68,5.17-1.02,7-2.48
				c4.88-3.9,9.25-0.93,13.44,0.74c2.05,0.82,3.26,1.51,5.29,0.2c2.76-1.79,6.16-1.05,8.28,0.55c2.54,1.93,4.57,2.94,7.61,1.37
				c-5.84,3.72-10.72,9.54-18.74,7c-1.08-0.34-2.35-0.1-3.17-1.16c-4.1-5.27-9.58-4.46-14.99-3.18c-5.38,1.27-10.24,3.97-15.17,6.39
				c-3.3,1.63-6.45,2.12-10.07,0.86c-4.74-1.64-11.71,1.47-13.85,5.94c-0.38,0.79-0.43,1.53-1.46,1.58
				c-5.09,0.21-9.66,3.69-15.14,2.05c-2.22-0.66-5.83-0.79-5.72,2.7c0.09,3.09,3.57,2.36,5.7,2.33c17.84-0.29,35.56-1.78,52.97-6.01
				c2.26-0.55,4.61-0.68,6.89-1.14c1.65-0.33,2.73-1.31,2.39-3.17c-0.35-1.92-1.85-2.42-3.4-2c-3.69,1-7.54,1.25-11.13,2.78
				c-3.74,1.6-7.7,1.46-11.68,0.36c9.37-2.51,18.44-6.14,28.21-6.81c1.77-0.12,3.68-0.49,2.81,2.88c-0.82,3.17,1.81,3.38,3.61,1.87
				c2.15-1.8,3.49-1.22,5.06,0.43c0.34,0.36,0.74,0.69,1.18,0.92c6.95,3.59,20.66-1.57,23.78-8.88c1.17-2.74,2.22-5.59,4.86-7.4
				c1.05-0.72,1.89-1.79,0.88-2.9c-1.34-1.47-1.99,0.12-2.59,1c-1.01,1.49-2.31,2.37-4.14,2.34c-3.49-0.07-4.47-1.74-2.63-4.67
				c2.65-4.23,5.13-8.59,8.17-12.52c2.93-3.78,2.09-8.28,3.2-12.38c0.74-2.76,1.54-3.87,3.68-1.43c2,2.28,4.62,0.28,6.97,1.57
				c2.44,1.34,5.61,0.92,7.8,3.65c1.39,1.73,2.59,0.01,2.85-1.69c0.31-2.06-0.96-4.37,2.7-5.36c2.36-0.64,3.87-1.74,5.83,0.54
				c0.82,0.95,2.61,0.59,2.8-0.77c0.91-6.56,7-5.25,10.77-7.54c7.11-4.32,15.94-6.95,18.74-16.23c1.12-3.7,4.11-6.01,6.07-9.08
				c2.17-3.39,4.81-6.49,7.25-9.71c0.37,0.22,0.73,0.43,1.1,0.65c-1.91,3.4-3.76,6.84-5.74,10.19c-1.1,1.86-2.51,3.53-3.61,5.4
				c-2.53,4.31-1.9,6.85,2.17,9.73c1.22,0.87,2.45,1.11,3.71,0.34c1.19-0.73,1.07-1.87,0.75-3.1c-0.37-1.43-0.86-2.95-0.72-4.36
				c0.24-2.38,1.53-4.71,3.57-5.64c2-0.92,2.85,1.74,4.22,2.82c1.25,0.99,1.98,3.95,4.2,1.94c1.89-1.71-0.55-2.78-1.37-4.05
				c-0.97-1.52-1.87-3.08-3.11-5.15c2.42,0.22,3.57,1.65,4.82,2.77c1.05,0.95,2.07,1.48,2.67-0.17c0.92-2.54,1.45-1.3,2.94-0.28
				c3.71,2.54,3.37,4.02-0.04,6.8c-9.42,7.68-19.67,14.04-30.12,20.14c-3.52,2.06-5.97,4.59-4.43,9.77
				c1.93,6.48,0.78,13.58,3.01,20.16c1.29,3.81,2.58,7.4,5.47,10.47c4.94,5.26,5.28,12.87,8.76,18.85
				c12.46,21.42,6.67,43.84,4.13,66.11c-0.15,1.32-0.85,2.62-0.78,3.9c0.78,14.75-8.68,24.71-16.95,34.92
				c-3.14,3.87-4.76,8.62-8.68,12.02c-12.2,10.56-18.91,24.94-26.55,38.76c-8.93,16.15-19.06,31.61-29.74,46.68
				c-1.57,2.21-1.93,4.15-1.4,6.91c1.63,8.49,2.91,17.03,5.61,25.28c0.39,1.19,0.06,2.35-0.68,3.31c-1.5,1.92-3.62,3.43-1.62,6.45
				c2.1,3.18,4.57,5.38,8.28,6.65c15.18,5.2,31.65,4.07,46.67,8.87c13.36,4.27,26.65,9.53,37,20.44
				c6.55,6.89,15.06,11.96,22.84,17.64c11.81,8.61,24.63,15.63,37.52,22.43c7.02,3.71,14.58,6.39,21.95,9.4
				c4.41,1.8,7.71,5.2,11.59,7.76c4.55,2.99,8.99,5.54,14.79,4.68c2.52-0.37,4.23,1.54,5.48,3.69c4.52,7.77,10.01,14.88,15.47,22
				c5.15,6.72,4.25,10.87-2.86,15.42c-8.51,5.45-16.76,11.32-25.09,17.04c-1.09,0.75-1.99,2.02-3.39,1.96
				c-11.53-0.5-18.54,8.57-27.69,13.09c-1.23,0.61-2.63,2.01-2.05,3.63c0.59,1.64,2.23,0.87,3.52,0.74
				c1.81-0.19,3.67-0.45,4.94,1.54c-1.78,1.99-4.08,1.32-6.08,1.08c-8.16-0.96-15.76,1.05-22.01,5.9
				c-7.78,6.05-16.7,7.21-25.77,7.57c-10.3,0.41-20.65,0.07-30.95-0.51c-4.57-0.26-9.09-1.81-13.58-3
				c-2.61-0.69-3.26-2.79-2.34-5.16c4.46-11.5,11.42-20.4,23.81-24.4c16.48-5.32,26.98-17.63,35.2-32.07
				c2.32-4.08,1.93-8.77-1.38-12.61c-6.91-8-16.31-11.81-25.96-15.19c-17.32-6.05-35.62-7.95-53.31-12.52
				c-10.93-2.82-22.24-4.16-33.39-6.13c-12.43-2.2-23.38-8.45-35.03-12.79c-6.31-2.35-12.43-5.23-18.68-7.76
				c-1.56-0.63-2.31-1.78-3.03-3.12c-0.73-1.34-1.92-1.85-3.37-1.36c-1.31,0.44-1.64,1.53-1.51,2.81
				c0.94,9.76-0.45,19.52,0.04,29.32c0.32,6.52-0.47,13.21-0.64,19.84c-0.12,4.75,0.15,9.29,1.6,13.77
				c1.72,5.33,0.67,10.9,1.52,16.33c1.07,6.8,2.4,13.37,6.85,18.99c2.77,3.5,5.23,7.24,6.43,11.73c0.83,3.12,3.11,4.4,6.61,4.97
				c7.23,1.19,14.49,3.39,21.72,1.73c9.96-2.29,20.2-1.36,30.17-3.56c5.29-1.17,10.95-0.6,16.42-1.06
				c7.79-0.65,15.55-1.56,23.33-2.27c1.42-0.13,3.61-0.4,3.71,1.46c0.12,2.11-2.17,1.52-3.52,1.66
				c-24.97,2.61-49.96,5.07-74.91,7.85c-6.61,0.74-13.62,0.14-19.48,4.55c-1.05,0.79-2.43,1.12-2.68,2.61
				c-1.64,10-9.79,14.46-17.24,18.75c-6.87,3.96-12.29,9.64-18.95,13.72c-1.22,0.75-2.07,1.98-1.14,3.36
				c0.74,1.1,2.12,0.92,3.22,0.43c8.63-3.88,19.64-5.58,24.85-13.09c8.14-11.73,20.41-11.09,31.31-14.5
				c14.3-4.47,29.41-4.99,44.12-7.5c5.69-0.97,11.3-0.27,16.88,0.75c4.74,0.86,5.26,2.16,3.04,6.54c-1.87,3.68,0.44,4.91,3.48,5.21
				c6.49,0.65,13.05,0.71,19.45-0.34c10.07-1.66,20.27-0.81,30.33-2.2c15.65-2.16,31.47-1.98,47.2-3.76
				c18.32-2.08,36.78-3.85,55.31-3.46c2.84,0.06,5.68-0.05,8.4-0.97c1.7-0.57,3.94-0.82,3.94-3.16c-0.01-2.49-2.15-3.28-4.17-3.54
				c-8.59-1.08-17.18-2.14-25.8-2.96c-4.8-0.46-9.64-0.44-14.47-0.64c-1.29-0.06-2.66,0.04-3.59-1.19c1.1-1.99,2.94-1.52,4.49-1.62
				c14.57-0.91,28.93,0.94,43.24,3.33c1.66,0.28,3.21,0.83,4.53,1.95c4.5,3.81,4.29,7.32-0.87,10.08
				c-4.56,2.43-9.71,2.19-14.65,2.39c-20.64,0.84-41.26,1.84-61.78,4.27c-6.32,0.75-12.8-0.49-18.9,0.51
				c-7.76,1.28-15.51,2.13-23.29,2.49c-15.62,0.72-31.21,2.53-46.89,1.88c-2.15-0.09-4.33-0.27-6.43-0.74
				c-3.07-0.68-4.91-2.51-3.33-5.78c1.95-4.04-0.63-4.64-3.52-5.02c-8.03-1.05-15.94,0.27-23.84,1.43
				c-11.01,1.61-21.98,3.54-32.76,6.3c-6.76,1.73-13.39,3.95-20.07,5.99c-1.33,0.41-2.17,1.5-2.91,2.64
				c-3.45,5.3-7.98,9.03-14.01,11.41c-10.05,3.97-20.15,7.44-30.64,10.2c-13.68,3.59-27.49,4.43-41.43,4.92
				c-2.63,0.09-4.98-0.78-7.08-2.13c-11.03-7.11-23.47-7.29-35.74-6.47c-7.41,0.5-14.88,0.41-22.31,1.46
				c-7.21,1.02-14.62,0.83-21.94,0.69c-3.68-0.07-8.22-0.01-9.65-4.55c-1.38-4.4,1.26-7.54,4.6-10.22c3.07-2.45,6.5-4.09,10.22-5.06
				c16.43-4.26,33.48-5.52,49.83-10.22c0.32-0.09,0.68-0.2,0.98-0.14c10.35,2.19,17.1-2.94,22.61-10.88
				c4.95-7.14,12.95-10.85,19.14-16.61c8.69-8.09,16.06-17.23,21.92-27.56c0.4-0.7,0.95-1.82,0.67-2.31
				c-2.15-3.79-0.26-8.69-2.32-11.91c-5.75-9.01-7.57-20.12-15.34-27.99c-2.02-2.05-0.62-5.43-2.33-7.49
				c-3.64-4.38-5.21-10.2-9.02-14.19c-7.73-8.09-11.62-18.74-19.06-26.98c-2.67-2.95-4.63-6.49-8.56-8.12
				c-2.01-0.83-3.06-2.57-3.41-4.64c-1.48-8.75-4.8-16.98-7.21-25.46c-0.34-1.21-1.48-2.47-0.14-3.66c1.16-1.03,2.65-0.83,3.73-0.06
				c3.58,2.57,7.7,1.72,11.62,2.01c2.07,0.15,4.72,0.71,3.7-3.19c-0.47-1.78,1.22-1.98,2.24-1.39c5.86,3.36,11.36-0.27,17.01-0.74
				c0.75-0.06,1.82-0.49,2.1-1.06c0.56-1.14-0.68-1.65-1.38-2.3c-1.4-1.31-2.97-2.11-4.96-1.89c-0.66,0.07-1.34,0.01-2,0.11
				c-6.17,0.93-11.8,2.17-17.61-2.94c-5.54-4.87-13.8-1.76-21.48-3.86c3.14-0.71,5.58-1.19,7.98-1.83c1-0.26,2.68-0.04,2.45-1.77
				c-0.16-1.2-1.49-1.31-2.43-1.24c-3.68,0.28-5.21-2.41-6.96-4.83c-0.74-1.03-0.94-2.18-0.13-3.24c0.8-1.03,2-1.24,3.17-0.86
				c1.25,0.41,2.86,0.71,3.57,1.63c2.89,3.75,6.25,7,9.59,10.31c1.06,1.05,1.61,2.4,3.33,2.33c2.07-0.08,5,1.6,5.98-0.71
				c1.16-2.73-2.35-2.95-3.91-4.1c-1.19-0.88-2.83-1.24-2.41-3.25c0.32-1.52,1.38-2.57,2.8-2.32c4.29,0.76,8.04-0.25,11.83-2.26
				c1.33-0.7,4.19-1.5,4.95,0.45c0.88,2.25-2.18,1.72-3.27,2.72c-0.58,0.54-1.38,1.2-1.43,1.86c-0.08,1.06,1,1.24,1.82,1.04
				c5.95-1.44,11.78-1.68,17.51,1.04c0.69,0.33,1.87-0.35,3.4-0.7c-1.25-1.46-5.2-1.32-2.47-4.33c0.73-0.8-0.1-2.15-1.12-2.33
				c-5.65-0.99-10.83-4.01-16.74-3.86c-2.23,0.06-4.07,1.03-6.02,2.09c-2.47,1.33-5.36,2.35-6.81-1.7
				c-0.68-1.89-2.25-1.89-3.68-0.96c-3.04,1.97-5.38,0.16-7.82-1.25c-0.84-0.49-1.98-0.98-1.27-2.25c3.05-5.47-1.83-7.54-4.83-9.01
				c-3.92-1.93-8.69-2.67-12.5,1.32c-1.15,1.21-1.95,3.83-4.19,2.43c-1.95-1.22-1.73-3.82-0.78-5.48
				c6.17-10.78,6.07-24.03,14.06-34.21c4.37-5.56,2.33-20.5-2.61-25.72c-2.04-2.16-2.54-4.53-2.63-7.26
				c-0.39-12.64-3.67-24.9-4.87-37.44c-0.63-6.6-1.31-13.09,0.75-19.77c3.47-11.26,7.03-22.5,10.19-33.87
				c3.33-11.97,2.37-23.65,0.53-35.51c-0.28-1.81-1.13-3.8-0.1-5.38c3.89-6,3.05-13.46,6.26-19.64c1.11-2.13,1.08-4.5,1.07-6.84
				c-0.03-4.81,1.42-9.2,4.21-13.07c1.39-1.93,2.14-3.73,0.88-5.95c-5.84-10.3-6.49-21.76-7.87-33.17
				c-2.58-21.31,4.17-40.81,10.94-60.3c1.5-4.31,4.5-8.15,7.14-11.99c8.53-12.39,13.46-26.32,17.04-40.69
				c1.92-7.7,5.28-14.87,8.85-21.57c7.03-13.19,11.83-26.77,12.91-41.57c0.86-11.81,7.13-21.23,12.32-31.23
				c3.43-6.61,8.22-12.48,10.3-19.84c1.23-4.37,1.18-7.85-2.17-11.44c-4.37-4.69-9.28-8.88-12.68-14.53
				c-3.25-5.38-9.61-6.05-14.91-8.27c-4.66-1.95-8.7-4.54-7.15-10.79c0.23-0.92,0.29-2.41-0.24-2.9
				c-4.82-4.42-4.52-11.23-7.83-16.28c-1.93-2.94-2.5-5.56-0.75-8.78c2.07-3.81,1.89-7.24-2.26-9.9c-3.07-1.97-3.4-4.62-1.09-7.65
				c1.91-2.51,3.42-5.32,5.31-7.85c2.39-3.2,4.26-6.3,2.3-10.51c-0.85-1.84-0.25-3.97,0.34-5.89c1.5-4.81,1.18-10.01,2.34-14.67
				c1.94-7.8,2-16.5,7.92-23c0.22,2.09-0.77,3.89-1.47,5.74c-3.27,8.72-5.02,18.21-3.06,26.85c2.06,9.08-0.75,15.36-5.44,22.02
				c-2,2.84-3.58,5.98-5.33,9c-1,1.73-0.22,3.19,1.36,3.57c3.32,0.8,6.74,1.23,10.14,1.66c0.83,0.11,1.57-0.6,1.57-1.59
				c-0.01-1.73-0.99-3.93,1.77-4.39c2.35-0.39,3.74,1.45,4.81,3.03c2.61,3.82,6.01,6.62,10.01,8.81c1.17,0.64,2.32,1.48,3.69,0.53
				c1.47-1.02,1.6-2.5,1.01-4.01c-1.51-3.9,0.16-6.34,3.5-8.17c1.01-0.55,1.91-1.34,2.78-2.12c5.57-4.94,6.16-4.79,9.08,2.08
				c0.45,1.05,0.17,3.37,2.03,2.69c1.77-0.64,1.34-2.59,0.17-3.75c-3.55-3.51-3.01-5.64,1.71-7.44c2.15-0.82,4.54-2.08,0.19-4.7
				c-3.44-2.07-7.53-3.26-10.56-7.07c-0.55,4.07-1.68,6.09-5.5,3.65c-1.6-1.02-3.81-1.06-5.67-1.71c-4.11-1.45-5.83-0.38-6.09,4.02
				c-0.1,1.63,0.38,3.66-1.99,3.89c-2,0.19-2.8-1.45-3.4-3.08c-1.51-4.09-1.99-8.38-2.72-12.64c-1-5.88,1.8-9.03,7.49-6.74
				c3.48,1.4,6.97,1.54,10.39,2.46c3.02,0.81,6.6,4.53,7.76-2c0.08-0.45,1.38-0.92,2.13-0.96c3.26-0.2,4.38-2.3,4.27-5.05
				c-0.11-2.96,1.79-3.69,3.15-2.01c2.68,3.31,7.17-0.85,9.47,2.92c0.3,0.49,1.38-0.7,1.65-1.44c1.71-4.68,4.99-4.6,8.93-3.23
				c1.81,0.63,4.87,1.7,5.37-0.42c1-4.26,5.05-6.51,5.93-10.66c0.31-1.45,1.06-2.71,0.32-4.3c-2.63-5.62-2.09-7.84,2.68-11.77
				c2.04-1.68,3.45-3.29,0.37-5.44c-1.91-1.34-1.84-3.18-0.93-5.33c1.82-4.3,0.99-5.47-3.77-5.88c-3.49-0.3-6.92,1.53-10.4,0.56
				c-8.23-2.27-16.25-0.46-24.18,1.34c-10.94,2.49-20.72,7.37-27.88,16.32c-1.61,2.02-3.2,3.74-5.47,4.88
				c2.75-5.96,6.33-11.31,12.07-14.73c5.8-3.46,10.94-8.17,17.91-9.49c15.57-2.95,31.14-5.08,46.67,0.11
				c15.5,5.18,28.35,14.09,36.17,28.62c3.41,6.33,4.66,13.81,6.88,20.77c0.05,0.15-0.01,0.35,0.05,0.49
				c6.2,15.94-2.87,29.32-7.62,43.27c-2.79,8.2-3.86,17.26-10.02,24.14c-0.56,0.62-0.88,2.09-0.54,2.79
				c3.46,7.14,3.93,15.29,8.72,22.16c3.52,5.04,7.75,8.23,13.08,9.99c11.59,3.85,21.28,9.88,27.89,20.51
				c2.09,3.35,6.13,4.54,9.77,5.66c10.5,3.21,17.03,10.47,21.42,20.14c3.36,7.4,8.92,13.64,11.26,21.6c0.34,1.15,1.6,2.13,2.62,2.96
				c14.42,11.89,24.81,27.11,34.88,42.55c2.33,3.56,4.95,6.74,8.37,9.12c4.43,3.09,7.45,7.18,9.16,12.15c1.2,3.5,3.34,5.52,6.4,7.68
				c4.89,3.47,9.28,7.94,13.01,12.67c3.26,4.14,0.28,8.9-1.62,12.62c-5.51,10.8-12.79,20.57-19.25,30.82
				c-3.49,5.54-7.32,10.59-12.32,14.82c-7.08,5.99-14.67,11.3-22.14,16.78c-4.62,3.39-7.31,3.58-9.02-2.38
				c-0.21-0.72-1.03-1.27-1.57-1.9c-2.68-3.11-1.56-7.04,2.38-6.72c3.94,0.31,5.2-1.86,6.16-4.26c1.25-3.13,2.89-3.18,5.27-1.52
				c1.33-1.85-1.62-4.35,1.13-5.45c2.91-1.16,3.41,1.97,4.99,3.15c0.65,0.48,1.08,1.26,1.61,1.9c0.78,0.94,1.65,1.92,2.87,0.81
				c1.1-1,0.51-2.13-0.22-3.11c-0.3-0.4-0.68-0.74-0.98-1.14c-4.67-6.24-4.24-8.16,2.55-11.74c0.79-0.42,1.49-0.72,2.27-0.1
				c0.92,0.73,1.5,2.83,3.05,1.34c1.31-1.26-0.65-2.3-0.92-3.5c-0.41-1.8-0.16-3.44,1.61-4.28c1.79-0.85,2.7,0.56,3.55,1.86
				c0.46,0.7,0.93,1.39,1.48,2.01c1.19,1.34,1.83,4.5,4.32,2.59c2.12-1.63,0.89-4.16-0.72-5.69c-2.6-2.46-4.54-5.01-3.93-8.83
				c0.13-0.8-0.21-1.83,0.88-2c0.5-0.08,1.27,0.37,1.64,0.81c1.5,1.76,3.28,3.31,4.11,5.6c0.52,1.42,1.26,2.87,3.1,2.79
				c1.65-0.07,3.18-1.15,3.38-2.56c1.12-8.07,8.03-12.8,11.09-19.78c3.92-8.93,3.4-12.28-4.3-18.49
				c-4.73-3.81-8.79-8.27-13.82-11.92c-6.72-4.87-13.27-4.24-20.33-3.59c-11.94,1.1-21.79,6.41-30.05,14.98
				c-1.41,1.46-2.57,2.98-3.61,4.7c-0.84,1.39-2.77,1.95-3.97,1.32c-1.93-1.01-0.31-2.66,0.26-3.81c0.65-1.3,1.67-2.53,2.79-3.47
				c12.03-10.17,24.99-18.21,41.52-18.11c1.86,0.01,4.41,0.72,5.23-1.75c0.69-2.09-1.67-2.95-2.68-4.38
				c-4.86-6.93-9.03-14.33-14.43-20.91c-7.35-8.96-13.66-18.81-22.89-26.16c-2.73-2.18-5.77-3.2-9.01-4.02
				c-1.93-0.49-3.87-0.99-5.75-1.66c-1.21-0.43-2.98-0.89-2.64-2.5c0.37-1.76,2.08-1.14,3.36-0.93c0.66,0.11,1.3,0.33,1.96,0.39
				c3.57,0.27,4.93-1.39,3.08-4.44c-5.78-9.51-9.93-20.73-18.54-27.61c-9.42-7.54-20.05-15.45-33.97-10.95
				c-1.78,0.57-4.04,1.03-4.46-1.47c-0.37-2.23,1.97-2.36,3.53-2.6c1.96-0.3,3.96-0.31,5.95-0.34c1.37-0.02,2.84,0.11,3.38-1.45
				c0.55-1.58-0.15-2.92-1.4-3.98c-7.59-6.45-15.99-11.3-25.91-13.15c-2.95-0.55-5.77-1.04-7.98-3.56c-2.16-2.46-5.3-1.48-8.04-1.06
				c-7.54,1.16-14.11,4.56-20.17,9.1c-7.95,5.95-17.02,9.64-26.29,12.98c-5.61,2.02-10.55,5.59-16.38,7.18
				c-2.3,0.63-2,3.29-3.18,4.81c-5.6,7.24-10.33,14.99-14.8,22.99c-4.46,7.98-6.94,16.18-7.77,25.35c-0.97,10.71-3.54,21.22-8.62,31
				c-3.81,7.33-8.45,14.72-9.97,22.62c-1.82,9.44-6.79,17.28-9.82,26.02c-3.32,9.57-9.22,18.02-13.53,27.11
				c-10.67,22.5-17.36,45.95-13.13,71.46c1.66,9.99,4.83,19.25,9.05,28.32c1.43,3.07,3.41,3.82,6.61,3.99
				c25.24,1.34,46.67-8.65,66.99-22.1c0.69-0.46,1.31-1.05,2.03-1.45c0.87-0.48,1.98-1.04,2.73-0.09c1.11,1.4-0.28,2.03-1.2,2.67
				c-5.7,4.03-11.33,8.18-17.86,10.82c-1.88,0.76-3.81,2.06-3.13,3.8c0.7,1.79,2.94,0.48,4.41,0c11.19-3.71,22.22-7.84,33.26-11.99
				c6.83-2.57,13.73-4.99,20.57-7.56c2.72-1.02,5.65-2.19,4.5-5.94c-1.16-3.77-4.44-4.15-7.34-2.84c-5.01,2.25-9.29,0.57-13.69-1.41
				c-1.4-0.63-2.7-1.44-2.79-3.19c-0.08-1.68,1.33-2.07,2.48-2.75c3.01-1.79,5.8-3.86,8.33-6.3c1.29-1.25,2.94-2.94,4.57-0.85
				c1.38,1.77,1.06,3.75-1.27,4.97c-1.84,0.96-2.49,3.55-5.16,3.54c-1.32,0-1.89,1.27-1.8,2.57c0.08,1.14,0.91,1.7,1.93,2
				c2.45,0.73,4.9,1.22,7.2-0.41c2.98-2.12,5.98-4.21,8.84-6.48c1.62-1.29,3.05-2.87,5.2-1.24c2,1.53,2.43,3.65,1.18,5.78
				c-2.86,4.89-4.48,10.28-3.42,15.68c1.34,6.84-0.45,12.82-2.87,18.89c-1,2.51-2.64,4.2-5.36,4.7L966.46,612.35z M911.96,297
				c0.56,1.3-0.29,3.61,1.39,3.86c2.15,0.33,2.92-2.28,4.41-3.46c0.83-0.65,1.19-1.61,0.22-2.52c-0.82-0.76-1.79-1.01-2.57-0.06
				c-0.97,1.18-1.97,2.19-3.59,2.32c-0.01-2.34-0.74-4.55-3.05-5.24c-2.25-0.67-1.65,2.52-3.2,3.13c-0.3,0.12-0.5,0.49-0.79,0.59
				c-1.22,0.41-1.38,3.32-3.39,1.64c-1.65-1.36,0.19-2.62,0.42-3.95c0.48-2.82,4.7-3.15,4.3-5.57c-0.59-3.52,0.28-6.98-0.38-10.39
				c-0.6-3.1-2.25-5.5-5.36-6.69c-2.02-0.77-4.61-1.09-5.9-2.54c-4.13-4.66-8.3-4.75-14.07-2.92c-4.05,1.29-5.12,3.54-6.19,6.71
				c-1.1,3.25,0.98,4.46,3.38,5.64c1.79,0.87,3.41,2.09,5.18,3c2.82,1.45,6.24,2.23,8.4-0.2c4.07-4.58,5.78-1.03,7.92,1.64
				c0.72,0.89,1.62,2,1.04,3.16c-0.72,1.45-2.05,0.38-3.11,0.31c-3.7-0.25-6.54,0.02-4.7,5.14c0.69,1.93,0.47,4.29,0.25,6.41
				c-0.18,1.74-1.44,3.34-3.29,3.13c-2.13-0.24-0.98-1.99-0.78-3.18c0.19-1.11-0.01-2.02-1.13-2.44c-1.13-0.43-1.9,0.26-2.54,1.07
				c-1.82,2.29-0.8,8.73,1.84,11.65c2.5,2.76,5.08,2.53,7.94,0.47c1.32-0.95,2.92-1.67,4.49-2.06c3.89-0.94,7.28-2.3,8.67-6.56
				C908.39,297.2,910.29,297.19,911.96,297z M953.95,899.86l0.13,0.13c-0.2-1.8,2.85-3.8,0.15-5.26c-2.54-1.37-3.1,1.75-4.51,2.9
				c-4.14,3.36-6.19,8.82-11.19,11.68c-0.44-1.66,1.72-2.91-0.39-4.29c-3.36-2.19,0.77-3.5,1.11-3.37c5.52,2.25,3.71-3.16,4.42-4.77
				c1.27-2.87-1.64-2.73-3.62-2.94c-1.55-0.16-1.61-1.38-1.59-2.62c0.03-2.17-1.43-2.86-3.24-3c-2.08-0.16-3.04,1-3.11,3
				c-0.1,2.77-1.42,2.49-3.24,1.39c-2.73-1.64-5.58-3.02-8.87-2.96c-2.39,0.04-5.15,0.25-5.3,3.26c-0.16,3.08,2.14,4.29,5.05,4.08
				c3.24-0.24,4.3,1.02,3.21,4.15c-0.25,0.73-0.31,1.79,0.04,2.42c5.47,10.01,5.09,23.4,17.2,29.63c1.79,0.92,2.95,7.26,4.77,0.01
				c0.28-1.11,2.04-0.98,3.13-0.38c2.54,1.4,4.25,0.09,6.27-1.36c2.35-1.69,4.55-4.52,8.26-1.68c1.73,1.33,1.95-0.74,1.79-2.12
				c-0.15-1.3-2.21-2.98,0.01-3.79c2.05-0.76,2.48,1.61,3.36,2.94c1.89,2.86,3.61,3.24,5.32-0.25c1.75-3.55,3.56-7.08,5.66-10.42
				c0.84-1.33,1.83-2.37,1.15-3.99c-0.38-0.9-1.22-1.15-2.08-0.84c-1.54,0.54-2.43,1.67-2.63,3.32c-0.14,1.16,0.76,3.23-1.42,2.93
				c-2.41-0.34-1.59-2.59-1.32-4.08c0.19-1.07,1.21-1.97,1.6-3.03c1.59-4.28,4.17-8.38,2.86-13.35c-2.47,3.95-4.51,8.04-6.33,12.23
				c-0.56,1.29-0.09,3.32-2.34,3.04c-2.25-0.28-2.12-2.23-2.18-3.89c-0.07-1.75,0.81-3.19,1.6-4.66c1.9-3.5,2.12-7.29,2.34-11.56
				c-2.83,1.49-3.58,3.68-4.52,5.8c-2,4.54-4.12,9.02-6.23,13.51c-1.18,2.51-3.51,2.81-5.51,1.76c-2.89-1.53,0.24-2.46,0.76-3.65
				c0.74-1.67,1.59-3.3,2.23-5.01C957.73,902.1,957.26,900.13,953.95,899.86z M1003.72,632.64c0,0,0.1,0.12,0.1,0.12
				c0.01-1.49,0.18-3-0.02-4.46c-0.29-2.05-2.35-2.74-3.12-1.29c-2.36,4.44-7.35,6.5-9.23,11.43c-2.15,5.65-6.2,9.63-12.66,10.64
				c-2.06,0.32-4.05,1.49-5.91,2.55c-1.2,0.68-1.92,2.09-1,3.43c1.03,1.49,2.3,1.03,3.28-0.2c0.89-1.12,2.02-2.15,3.38-1.59
				c3.64,1.49,6.34-0.97,9.39-1.94c1.64-0.52,3.11-2.05,4.98-0.67c0.13,1.36-0.78,1.87-1.7,2.24c-5.84,2.32-11.69,4.62-17.55,6.9
				c-1.82,0.71-3.88,0.12-4.29-1.47c-1.7-6.72-5.17-6.86-10.03-3.22c-0.12,0.09-0.32,0.09-0.48,0.1
				c-7.92,0.32-14.27,5.37-21.69,7.21c-5.49,1.36-10.34,5.12-15.6,6.04c-8.22,1.44-11.49,6.16-13.49,13.24
				c-2.08,7.37-8.11,12.43-11.38,19.21c-0.46-0.87-0.64-1.65-0.33-2.09c4.57-6.41,6.26-14.25,10.45-20.85
				c0.67-1.06,0.91-2.21,0.36-3.33c-1.55-3.09,0.45-4.29,2.77-5.17c6.66-2.52,13.33-4.98,20.03-7.39c6.4-2.3,12.83-4.49,19.23-6.78
				c1.59-0.57,3.54-1.54,2.91-3.42c-0.68-2.04-2.96-2.2-4.67-1.27c-4.66,2.56-9.82,2.98-14.88,3.83
				c-19.08,3.18-38.24,4.59-57.57,2.85c-5.91-0.53-6.62,0.35-6,6.45c0.15,1.46-0.18,2.97-0.36,4.45c-0.33,2.67-0.36,5.32,0.35,7.94
				c0.26,0.96,0.46,2.08,1.7,2.14c1.15,0.06,1.73-0.88,2.19-1.78c1.4-2.7,1.21-5.42,0.29-8.24c-0.4-1.23-1.88-2.94,0.34-3.82
				c1.67-0.66,2.86,0.59,3.67,1.91c2.06,3.37,5.12,4.11,8.89,4.4c4.7,0.36,9.3,0,13.95-0.23c1.09-0.06,2.71-0.26,2.84,1.25
				c0.13,1.57-1.53,1.57-2.62,1.61c-4.16,0.16-8.33,0.16-12.49,0.26c-7.16,0.17-9.82,3.81-7.17,10.65c1.58,4.08,1.6,7.74-0.04,11.6
				c-2.07-4.01-2.3-8.37-2.96-12.63c-0.18-1.16-0.55-2.46-1.9-2.66c-1.51-0.22-1.76,1.21-2.22,2.24c-2.14,4.72,0,15.85,4.45,17.1
				c5.54,1.56,4.49,5.16,4.95,8.7c0.37,2.79,0.64,7.02,3.71,6.68c3.11-0.34,2.86-4.44,2.58-7.49c-0.76-8.45-1.5-16.92-0.79-25.42
				c0.12-1.48-0.57-4.01,1.84-3.89c2.07,0.1,0.91,2.39,1.19,3.73c1.59,7.48-3.36,16.17,4.21,22.6c0.68,0.58,0.2,2.48,1.65,2.74
				c1.55,0.28,2.35-0.98,3.12-2.08c4.12-5.89,9.33-10.81,14.18-16.06c4.82-5.23,9.86-10.35,13.11-16.84c0.73-1.45,1.4-3.6,3.49-2.66
				c2.23,1,0.56,2.86,0.16,4.33c-0.17,0.63-0.48,1.28-0.9,1.77c-6.03,7.08-11.12,14.97-18.58,20.81c-7.66,6-13.27,13.77-18.31,22
				c-0.46,0.75-0.78,1.54-0.06,2.26c0.78,0.78,1.53,0.24,2.19-0.27c2.48-1.93,4.93-3.89,7.41-5.82
				c15.83-12.34,34.44-20.88,48.64-35.47c0.81-0.83,2.09-1.56,3-0.24c0.82,1.18-0.04,2.43-1.04,2.96c-4.09,2.16-6.51,6.13-9.98,8.96
				c-12.94,10.52-27.96,17.83-41.62,27.24c-6.83,4.71-14.79,9.08-18.62,16.16c-3.44,6.35-8.3,11.53-11.64,17.8
				c-1.48,2.77-3.78,5.1-5.24,7.87c-7.66,14.57-15.33,29.14-22.67,43.87c-3.39,6.8-6.16,13.92-7.77,21.4
				c-0.38,1.77-0.51,3.9,1.49,4.89c2.47,1.22,3.01-1.23,4.05-2.58c1.11-1.43,2.36-2.72,2.86-4.62c1.82-6.98,5.11-13.34,8.88-19.4
				c0.84-1.34,1.02-5.09,3.45-3.6c1.81,1.11-1.28,2.84-2.06,4.28c-3.56,6.58-4.11,14.39-8.65,20.57c-0.88,1.2-0.03,2.87,0.77,4.23
				c0.55,0.93,2.45,1.33,1.61,2.71c-0.87,1.43-2.67,1.45-4.09,1c-4.91-1.58-7.95,0.79-10.48,4.56c-0.83,1.24-1.75,2.43-2.7,3.58
				c-2.2,2.67-1.18,3.92,1.76,4.99c15.88,5.83,32.52,9.17,47.94,16.77c12.08,5.97,23.73,13.29,37.45,15.95
				c6.39,1.24,12.93,3.05,19.25,3.79c10.85,1.26,21.49-1.58,30.78-8.03c2.02-1.41,3.41-3.04,3.85-5.54
				c0.59-3.36-0.56-4.14-3.82-3.39c-16.23,3.74-32.27,5.69-46.46-6.18c-0.87-0.73-2.09-1.03-3.06-1.67
				c-11.39-7.5-24.38-12.34-35.05-21.04c-1.34-1.1-3.77-2.05-2.23-4.16c1.27-1.75,3.04-0.17,4.36,0.76
				c6.02,4.23,12.57,7.41,19.2,10.58c6.4,3.06,13.03,6.2,18.41,10.69c14.23,11.88,29.78,12.41,46.45,7.32
				c2.29-0.7,4.32-2.22,3.44-4.54c-0.93-2.46-3.36-1.32-5.2-0.48c-6.61,3.02-13.52,3.3-20.56,2.22c-1.11-0.17-2.58-0.33-2.57-1.83
				c0.01-1.83,1.63-2.12,2.91-1.88c7.18,1.36,14.07,0.08,21.11-1.34c5.87-1.19,10.48-3.05,12.01-9.43c0.26-1.1,0.87-2.24,1.63-3.07
				c7.39-8.02,12.26-17.75,18.19-26.76c11.11-16.86,19.9-34.92,26.87-53.88c2-5.43,3.86-10.95,7.21-15.83
				c6.21-9.06,12.49-18.13,13.47-29.6c0.09-1.11,0.79-1.86,1.97-1.84c1.14,0.03,1.85,0.79,2.1,1.82c0.58,2.4-0.28,4.57-1.16,6.76
				c-3.72,9.33-9.11,17.74-14.23,26.31c-2.45,4.11-4.48,8.48-6.58,12.79c-0.48,0.98-0.86,2.36,0.58,3.05
				c1.05,0.5,1.94-0.23,2.68-0.87c0.74-0.65,1.4-1.42,1.99-2.21c4.78-6.4,9.26-13.04,14.35-19.18c7.88-9.49,13.89-19.54,13.03-32.46
				c-0.04-0.64,0.28-1.3,0.39-1.95c3.33-19.25,6.44-38.57-1.18-57.52c-2.91-7.24-4.12-15.13-8.33-21.85
				c-2.92-4.67-7-8.58-8.59-14.12c-1.18-4.09-3.43-3.97-6.02-0.99c-3.74,4.3-8.14,7.9-12.68,11.26c-4.01,2.96-8.45,5.27-13.84,6.24
				c0.53-2.48,2-3.25,3.33-3.63c9.58-2.76,14.93-10.65,21.39-17.24c1.78-1.82,3.43-3.63,4.01-6.18c0.36-1.57,1.69-3.52,0.14-4.65
				c-1.8-1.32-3.43,0.46-4.7,1.67c-4.45,4.21-9.7,7.23-14.97,10.29c4.28-5.26,10.45-8.41,14.87-13.51c1.34-1.54,3.46-2.96,1.74-4.97
				c-1.9-2.22-3.75,0.15-5.03,1.29c-3.7,3.33-7.13,6.69-12.13,8.43c-3.35,1.17-5.53,5.02-4.56,8.56c0.75,2.74-0.07,3.69-1.66,5.35
				c-3.85,4.02-6.71,8.73-7.64,14.33C1007.38,633.44,1005.51,632.81,1003.72,632.64z M869.82,717.95
				c0.93-10.01-0.01-19.12-2.02-28.06c-2.24-9.96-2.64-20.09-3.51-30.18c-0.19-2.19,0.3-4.64-2.49-5.27
				c-3.28-0.73-5.9,1.18-7.92,3.34c-2.13,2.27,1.08,2.84,1.94,4.14c0.89,1.35,0.87,2.83,0.77,4.33c-0.13,1.99-0.36,3.98-0.46,5.97
				c-0.68,14.41-1.7,28.77-5.69,42.74c-0.34,1.19-0.5,2.26,1.18,2.66c4.78,1.15,4.75,1.16,1.38,4.93c-1.33,1.49-2.54,3.08-3.8,4.63
				c-0.76,0.94-1.6,1.85-2.92,1.15c-1.25-0.66-1.15-1.89-0.96-3.08c1.6-9.99,3.32-19.97,4.92-29.96c1.57-9.8,2.07-19.83,1.28-29.82
				c-0.1-1.27,0.09-2.89-1.66-3.19c-0.69-0.12-1.99,0.29-2.17,0.77c-2.03,5.46-7.4,9.01-8.43,15.05
				c-2.78,16.26-6.96,32.18-12.38,47.75c-2.25,6.46-1.9,12.75-0.07,19.11c1.07,3.71,2,7.37,1.16,11.28c-0.31,1.42-0.66,3.2,0.88,4.1
				c1.62,0.94,2.97-0.37,3.82-1.5c2.36-3.14,5.67-3.8,9.24-4.03c5.3-0.34,10.62-0.42,15.72-2.36c5.51-2.1,10.86-9.02,11.28-14.88
				C869.39,730.76,870.08,723.97,869.82,717.95z M801.34,1110.05c13.44-0.23,26.76-2.98,40.25-1.82c3.29,0.28,4.97-1.9,4.66-5.06
				c-0.37-3.76,0.33-7.22,1.57-10.73c1.31-3.71-0.24-5.37-4.15-4.53c-4.35,0.94-8.71,1.98-13.04,2.84
				c-12.8,2.55-25.74,4.42-38.19,8.5c-3.45,1.13-7.09,1.83-10.08,4.13c-1.49,1.14-3.05,2.26-2.44,4.45c0.64,2.32,2.72,2.18,4.5,2.2
				C790.05,1110.09,795.69,1110.05,801.34,1110.05z M936.81,321.97c3.07-2.39,5.23-4.13,7.46-5.77c1.52-1.11,3.64-2.24,4.88-0.5
				c1.15,1.61-1.12,2.74-2.17,3.94c-2.86,3.27-8.15,4.97-6.8,10.97c0.21,0.94-1.26,1.31-2.32,1.38c-1.59,0.11-3.88-0.28-3.42,2.29
				c0.47,2.6,2.81,3.39,5.06,2.73c3.81-1.12,7.79-2.19,11.17-4.18c8.86-5.2,17.43-10.9,26.14-16.37c3.41-2.14,5.81-4.88,6.15-9.09
				c0.08-0.94,0.87-2.01-0.21-2.7c-0.97-0.61-1.85,0.11-2.7,0.68c-5.03,3.36-6.01,2.98-7.67-3.21c-0.5-1.85-0.8-4.03-3.19-3.63
				c-6.11,1.02-12.84,0.32-17.31,6.28c-1.45,1.93-3.74,3.25-5.72,4.76c-1.04,0.8-2.23,1.75-3.57,0.61
				c-4.69-3.96-4.91,0.46-5.09,3.07C937.32,315.8,937.88,318.42,936.81,321.97z M994.11,621.27c-3.45,1.58-5.14,4.49-6.79,7.19
				c-6.15,10.08-16.03,12.87-26.74,14.96c-3.55,0.7-4.03-2.39-6.3-2.61c-1.13-0.11-2.31,0.11-3.45,0.28
				c-12.28,1.88-24.27,5.09-36.7,6.6c-13.47,1.64-26.83,1.37-40.25,1.51c-1.91,0.02-4.47-1.02-5.07,1.67
				c-0.65,2.91,2.11,2.8,3.95,3.25c1.44,0.35,2.92,0.86,4.37,0.81c14.74-0.5,29.53,0.88,44.21-1.84c10.9-2.02,22.24-1.93,32.4-7.3
				c1.69-0.89,3.62-1.14,2.29,1.91c-0.5,1.16-0.91,2.31,0.33,3.1c1.45,0.92,2.54-0.03,3.36-1.17c1.34-1.87,2.5-3.13,5.31-2.06
				c6.14,2.34,19.1-3.23,22.84-8.59C991.57,633.71,993.21,627.97,994.11,621.27z M1064.06,1062.9c2.77-1.23,4.88-1.66,6.28-2.9
				c2.36-2.09,6.62-1.5,7.64-5.07c0.97-3.41,3.78-3.42,5.42-2.28c4.4,3.06,8.83,1.54,13.3,1.12c9.58-0.9,19.18-1.53,27.63-7.16
				c12.69-8.47,25.77-16.43,37.48-26.23c2.9-2.43,7.31-3.38,8.76-7.06c1.69-4.26,3.9-8,7.08-11.22c0.58-0.59,1.33-1.15,1-2.09
				c-0.42-1.19-1.59-0.99-2.54-1.15c-1.84-0.3-3.3,0.41-4.34,1.87c-5.76,8.06-13.6,14.05-20.68,20.8
				c-3.64,3.46-6.91,7.33-12.63,3.52c-1.15-0.76-3.43-0.45-3.87,1.16c-0.63,2.29,1.63,1.83,2.93,2.08c0.93,0.18,2.05-0.09,2.51,1.51
				c-3.49,3.45-8.55,4.56-12.54,7.58c-4.93,3.74-10.57,7.33-16.84,8.35c-5.08,0.83-10.19,1.3-15.16,2.8
				c-1.39,0.42-3.18,0.68-4.43,0.15c-8.45-3.54-13.79,3.32-20.26,6.07C1067.92,1055.98,1065.43,1058.53,1064.06,1062.9z
				 M976.21,252.2c-6.04-6.83-6.6-6.69-9.83,0.8c-1.86,4.32-4.37,7.65-10.03,7.26c-2.83-0.19-5.05,1.96-5.02,5.09
				c0.04,4.31,3.67,9.9,6.09,9.87c0.64-0.01,1.33-0.22,1.9-0.51c8.94-4.55,17.09-9.7,20.87-19.92c2.47-6.67,1.45-12.59-4.18-16.12
				c-3.39-2.13-11.36,0.49-14.59,4.77c-0.51,0.67-1.09,1.32-0.69,2.22c0.48,1.11,1.5,1.36,2.5,1.05c1.26-0.38,2.42-1.06,3.65-1.54
				c1.77-0.7,2.73-4.47,5.2-2.03C974.26,245.27,977.07,247.51,976.21,252.2z M847.71,776.1c-0.51-1.53-0.76-2.11-0.89-2.72
				c-0.39-1.82,0.28-4.6-2.65-4.49c-3.07,0.11-2.66,2.81-2.67,4.96c-0.02,3.18,0.18,6.29,1.73,9.21c0.52,0.98,1.01,2.37-0.42,3.04
				c-1.16,0.55-1.82-0.6-2.25-1.43c-0.6-1.16-1.14-2.42-1.38-3.7c-0.98-5.22-1.84-10.47-1.41-15.83c0.09-1.12,0.47-2.51-0.85-3.12
				c-1.49-0.69-2.45,0.45-3.35,1.46c-4.12,4.61-4.49,9.61-1.97,15.17c3.22,7.09,4.69,14.84,8.37,22.06c2.19-0.88,3.46-2.46,3-5.21
				c-0.27-1.61-0.37-2.82,1.14-4.37c4.5-4.63,7.41-10.3,8.72-16.69c0.18-0.86,0.2-1.69-0.72-2.13c-0.87-0.42-1.63-0.08-2.19,0.63
				C849.34,773.69,848.83,774.5,847.71,776.1z M990.55,904.65c-0.02-1.38,0.63-3.17-1.47-3.64c-1.39-0.31-2.51,0.6-2.33,1.88
				c0.56,3.94-2.18,6.83-2.99,10.33c-1.93,8.38-6.93,14.86-13.32,20.34c-1.07,0.92-2.65,2.85-3.7,2.08
				c-4.47-3.29-6.53,1.12-9.47,2.57c-1.04,0.52-1.93,1.55-1.56,2.84c0.43,1.54,1.75,1.17,2.9,0.94c0.77-0.16,1.41-0.53,1.92,0.67
				c1.63,3.84,1.93,3.97,5.11,1.24c4.15-3.56,8.4-7.08,12.09-11.09C985.01,924.88,990.29,915.88,990.55,904.65z M897.51,1076.47
				c7.29-0.2,12.71-2.98,17.93-6.37c2.06-1.33,3.48-3.08,1.97-5.33c-1.69-2.54-3.87-0.51-5.07,0.61c-4.34,4.02-9.57,5.72-15.14,6.99
				c-7.38,1.68-10.01,0.66-13.77-6.16c-1.36-2.47-3.11-3-5.16-1c-2.83,2.77-1.55,7.22,1.48,9.62
				C885.79,1079.62,892.56,1072.31,897.51,1076.47z M877.47,1106.9c1.81,0.07,4.21-0.01,4.72-2.28c0.47-2.09-2.09-2.12-3.44-2.87
				c-1.84-1.02-3.41-2.49-5.89-2.21c-2.95,0.33-2.91-1.38-1.74-3.42c2.38-4.16,3.11-9.11,6.38-12.88c1.03-1.18,2.05-3.2,0.26-4.4
				c-1.89-1.26-2.87,0.54-3.76,2.02c-2.87,4.83-5.31,9.92-8.98,14.28c-1.99,2.36-1.47,4.86,0.46,7.23
				C868.55,1106.15,872.96,1106.28,877.47,1106.9z M1047.96,920.62c-0.13-1.66-0.45-2.84-1.95-2.84c-1.69,0.01-2.12,1.45-2.4,2.73
				c-1.17,5.48-3.62,10.67-5.84,15.59c-2.76,6.11-5.21,12.51-8.68,18.35c-0.8,1.35-1.85,3.28,0.24,4.33
				c2.16,1.08,3.34-0.62,4.15-2.37c3.95-8.59,6.39-17.83,11.68-25.86C1047.1,927.6,1045.86,923.38,1047.96,920.62z M898.91,1109.2
				c1.32,1.43,2.33,0.7,3.43,0.37c12.47-3.76,22.8-11.15,32.71-19.25c1.03-0.84,3.33-1.45,2.18-3.26c-1.11-1.74-3.07-0.84-4.43,0.13
				c-5.16,3.63-10.27,7.34-15.34,11.1c-1.87,1.39-3.62,3.03-5.95,3.49C906.39,1102.79,902.96,1106.39,898.91,1109.2z M970.39,883.21
				c2.1-0.03,3.93-0.76,5.31-2.35c1.25-1.45,2.7-2.45,4.63-2.66c3.04-0.33,3.29-2.3,2.75-4.7c-0.8-3.56-1.75-7.1-2.38-10.69
				c-0.29-1.64,0.14-3.7-2.25-3.63c-2.15,0.07-2.29,2.16-2.47,3.77c-0.12,1.12,0.08,2.32,0.34,3.44c0.94,4.16-0.12,7.52-3.66,10.05
				c-1.35,0.96-2.59,2.08-3.79,3.23c-0.68,0.66-1.61,1.42-1.09,2.55C968.26,883.3,969.42,883.1,970.39,883.21z M1207.07,1019.81
				c-0.14-1.65-2.07-2.61-3.3-1.22c-5.49,6.22-13.17,9.36-19.5,14.36c-0.98,0.77-2.52,1.83-1.45,3.22c1.11,1.45,2.82,0.66,4.04-0.2
				c6.1-4.25,12.15-8.57,18.19-12.89C1206.15,1022.29,1206.98,1021.26,1207.07,1019.81z M1099.14,953.09c-4,2.22-5.04,5.8-6.6,8.98
				c-2.26,4.6-4.61,9.13-8.06,13c-1.24,1.39-3.62,3.26-1.65,4.86c1.76,1.44,3.32-1.26,4.78-2.47c0.37-0.31,0.72-0.73,0.9-1.17
				c2.23-5.56,5.63-10.47,8.69-15.57C1098.44,958.65,1099.66,956.45,1099.14,953.09z M1095.19,973.18c0.36,0.28,0.71,0.56,1.07,0.84
				c4.48-4.35,7.88-9.55,10.82-15.04c0.75-1.4,0.84-3.21,1-4.86c0.16-1.64,0.31-3.68-1.91-3.97c-2.06-0.27-2.23,1.74-2.42,3.13
				c-0.71,5.25-2.78,9.82-5.97,14.04C1096.53,968.98,1096.03,971.21,1095.19,973.18z M871.74,741.46
				c5.53-3.66,8.85-13.74,6.86-18.68c-0.44-1.1-1.03-2.29-2.36-2.26c-1.76,0.04-1.91,1.58-2.08,2.89
				C873.41,729.13,873.36,734.91,871.74,741.46z M1068.8,962.43c4.68-5.36,7.38-11.51,10.01-17.67c0.35-0.82,0.22-1.99-0.03-2.9
				c-0.37-1.33-1.3-2.44-2.79-2.49c-2-0.06-1.68,1.58-1.84,2.86c-0.64,4.98-2.58,9.6-3.98,14.37
				C1069.64,958.36,1067.25,959.56,1068.8,962.43z M900.61,234.5c1.84-0.44,4.34-0.78,4.61-2.97c0.42-3.34-2.93-3.72-5.08-4.41
				c-2.89-0.94-6.08-0.34-6.93,2.97c-1.01,3.92,2.49,3.37,4.81,3.78C898.84,234.01,899.63,234.26,900.61,234.5z M913.85,272.12
				c-1.59,4.66-0.88,9.75-3.68,14.14c-1.02,1.6,0.7,3.42,2.17,4.61c0.68,0.55,1.57,0.65,2.31,0.06c1.61-1.27,1.18-2.82,0.71-4.52
				c-0.34-1.23-0.65-2.82-0.15-3.87C917,278.79,915.61,275.52,913.85,272.12z M920.4,976.59c-3-1.78-5.16-1.19-7.29-0.43
				c-3.38,1.22-6.71,2.57-10.09,3.78c-1.18,0.42-3.08,0.3-2.32,2.23c0.55,1.38,2.3,1.44,3.46,0.72c1.66-1.03,3.01-2.4,5.25-2.3
				C913.35,980.76,916.09,977.8,920.4,976.59z M856.02,1095.12c2.87,0.28,8.31-7.32,7.3-9.66c-0.52-1.22-1.49-1.72-2.77-1.55
				c-2.62,0.35-6.74,7.76-5.58,10.06C855.24,1094.49,855.79,1094.87,856.02,1095.12z M918.35,285.65c0.32,2.89,2.82,5.35,2.29,8.62
				c-0.08,0.49,1.36,0.71,2.19,0.35c1.07-0.46,1.74-1.59,1.15-2.38c-2.25-2.98-0.54-5.52,0.44-8.25c0.44-1.22,0.59-2.76-1.01-3.44
				c-1.73-0.73-2.88,0.31-3.66,1.68C919.18,283.23,918.86,284.36,918.35,285.65z M925.64,1006.35c-6.9,0.29-11.47,4.7-15.99,9.21
				C915.82,1014.03,921.56,1011.75,925.64,1006.35z M912.13,881.46c-2.26,0-4.72-0.2-4.86,2.47c-0.15,2.72,2.29,2.93,4.31,2.78
				c2.59-0.19,6.9,1.83,7.25-1.78C919.25,880.72,914.32,882.6,912.13,881.46z M929.09,945.51c-0.15-0.34-0.26-1.06-0.67-1.49
				c-1.57-1.62-3.35-1.24-4.91-0.05c-2.12,1.62-5.56,1.81-5.97,5.32c-0.03,0.24,0.26,0.66,0.51,0.78c2.76,1.31,5.07-0.63,7.58-1.12
				C927.32,948.63,928.71,947.74,929.09,945.51z M848.75,761.62c0.32-2.23-0.52-3.54-2.91-3.44c-2.29,0.1-4.39,0.64-4.43,3.49
				c-0.04,2.32,0.75,4.37,3.46,4.53C848.01,766.39,848.56,764.09,848.75,761.62z M1064.96,930.2c0.46-0.69,0.25-1.33-0.47-1.55
				c-1.19-0.37-1.81,0.55-2.37,1.36c-2.72,3.99-1.73,9.02-3.66,13.25c-0.34,0.74,0.21,1.73,1.19,1.81c0.93,0.08,1.51-0.69,1.73-1.51
				C1062.6,939.12,1063.77,934.66,1064.96,930.2z M884,291.71c1.64-0.76,5.13-1.23,4.84-3.91c-0.27-2.45-3.76-2.04-6.01-2.12
				c-1.82-0.06-4.22,0.07-4.1,2.5C878.84,290.6,880.8,291.83,884,291.71z M1078.14,1075.15c-5.26-2.4-9.75-3.19-14.2-4.06
				c-1-0.2-1.98,0-2.52,1.04c-0.39,0.74,0.01,1.52,0.56,1.65C1066.89,1074.96,1071.63,1078.01,1078.14,1075.15z M922.93,1000.56
				c-5.38-0.17-9.93,2.08-14.28,4.92c-0.75,0.49-0.98,1.44-0.44,2.21c0.71,1.01,1.87,0.84,2.69,0.31
				C914.83,1005.43,919.51,1004.13,922.93,1000.56z M878.46,1094.76c1.93,0.09,6.9-8.31,5.97-10.11c-0.65-1.25-1.68-0.91-2.52-0.4
				c-3.14,1.92-4.96,4.71-5.09,8.45C876.77,1093.74,877.16,1094.68,878.46,1094.76z M1049.72,946.69c2.56,0.23,6.88-6.06,5.87-8.53
				c-0.28-0.69-0.77-1.1-1.47-1.06c-2.61,0.15-3.17,2.62-4.52,4.16c-1.08,1.24-1.97,2.7-1.43,4.49
				C1048.38,946.46,1049,946.71,1049.72,946.69z M924.28,986.85c-4.12,1.54-8.24,3.05-12.34,4.65c-0.94,0.37-1.83,1.13-1.56,2.24
				c0.41,1.68,1.83,1.16,2.84,0.82C917.56,993.09,921.82,991.45,924.28,986.85z M1118.78,1017.4c-1.87-0.07-7.46,7.53-6.66,9.15
				c0.25,0.52,0.87,1.03,1.42,1.18c0.85,0.24,1.88-0.21,1.95-1.04c0.24-2.82,2.03-3.77,4.42-4.45c1.2-0.34,1.61-1.57,1.32-2.85
				C1120.95,1018.09,1120.07,1017.48,1118.78,1017.4z M876.64,1111.81c4.5,2.28,8.03,2.35,11.61,1.98c0.98-0.1,2.09-0.48,2.17-1.65
				c0.11-1.55-1.26-1.86-2.36-1.97C884.59,1109.82,881.21,1110.33,876.64,1111.81z M1066.12,965.36c-2.17,3.36-5.64,4.91-8.78,6.91
				c-1.05,0.67-2.89,1.23-1.95,2.87c0.92,1.61,2.65,1.01,3.99,0.27C1063.26,973.24,1064.81,969.44,1066.12,965.36z M1080.41,963.16
				c0.52,0.23,1.05,0.46,1.57,0.69c2.02-5.6,6.39-10.17,6.84-16.46c-0.44-0.2-0.89-0.39-1.33-0.59
				C1085.12,952.26,1082.77,957.71,1080.41,963.16z M877.97,888.78c2.14-0.23,4.79,0.14,5.33-2.56c0.45-2.2-1.67-2.17-3.08-1.88
				c-2.27,0.47-5.68-0.33-6.15,2.76C873.76,889.13,876.54,888.42,877.97,888.78z M980.42,908.29c0.95,0.15,1.74-0.17,1.74-0.85
				c0-3.13,1.5-5.7,2.76-8.39c0.36-0.76,0.21-1.79-0.62-2.2c-1.07-0.53-2.15,0.07-2.44,1.04c-0.8,2.67-1.21,5.41-2.78,7.86
				C978.45,906.74,979.18,908,980.42,908.29z M946.83,256.83c0-3.51-1.2-6.79-0.81-10.23c0.09-0.84-0.36-1.74-1.36-1.71
				c-1.18,0.03-1.61,1.01-1.79,2.03C942.11,250.98,943.76,254.15,946.83,256.83z M1015.03,942.21c2.45-1.38,3.19-4.09,3.83-6.81
				c0.22-0.94-0.47-1.89-1.36-1.37c-2.23,1.31-4.81,2.51-5.17,5.52C1012.15,941.01,1012.95,942.08,1015.03,942.21z M921.17,981.94
				c-3.48-0.7-6.45,0.78-9.45,1.96c-0.95,0.37-1.58,1.37-1.08,2.45c0.4,0.86,1.34,0.78,2.19,0.69
				C916.32,986.68,918.62,984.24,921.17,981.94z M945.08,304.73c1.82-1.13,4.36-1.92,4.56-4.9c0.07-0.96-1.01-2.53-1.36-1.97
				c-1.47,2.37-4.97,2.59-5.62,5.45C942.45,304.25,943.63,304.92,945.08,304.73z M1082.54,1061.75c-0.43,0.13-0.85,0.27-1.28,0.4
				c0.8,2.53,1.63,5.08,3.28,7.28c0.74,0.98,1.94,1.45,3.01,0.44c0.86-0.8,0.57-1.95-0.06-2.7
				C1085.92,1065.29,1084.2,1063.55,1082.54,1061.75z M987.75,313.21c1.86,0.03,3.06-0.82,3.11-2.84c0.04-1.76-0.92-2.81-2.69-2.73
				c-1.88,0.08-3.78,0.61-3.91,2.85C984.13,312.67,986.05,312.88,987.75,313.21z M929.87,323.97c-4.64-0.6-6,2.05-6.46,5.7
				c-0.09,0.69-0.1,1.36,0.58,1.7c0.75,0.38,1.25-0.14,1.62-0.71C927.01,328.47,928.4,326.27,929.87,323.97z M857.48,759.54
				c-0.02-1.24-0.29-2.84-1.2-2.46c-2.04,0.83-4.11,2.1-4.23,4.79c-0.05,1.19,0.26,2.67,1.64,2.5
				C856.49,764.01,856.72,761.37,857.48,759.54z M1116.01,1074.54c1.9-0.22,4.15,0.12,4.59-2.6c0.26-1.6-0.88-2.16-2.11-1.86
				c-2.09,0.51-5.09,0.07-5.57,2.94C1112.65,1074.61,1114.77,1074.34,1116.01,1074.54z M940.67,1060.58
				c-3.16,2.19-7.02,3.84-7.63,8.83C937.86,1068,938.59,1063.7,940.67,1060.58z M1147.8,1009.05c2.25-0.5,4.14-2.38,6.71-2.49
				c0.72-0.03,1.74-0.41,1.44-1.52c-0.26-0.96-1.29-1.17-2.01-0.94c-2.61,0.84-5.18,1.83-7.73,2.85c-0.31,0.12-0.64,0.82-0.56,1.16
				C1145.9,1009.13,1146.87,1008.94,1147.8,1009.05z M928.73,1061.01c0-1.47-0.65-2.18-1.82-1.86c-2.16,0.58-3.83,1.93-4.4,4.14
				c-0.32,1.24,0.78,1.87,1.8,1.59C926.42,1064.3,927.96,1062.91,928.73,1061.01z M1090.21,941.03c1.18-0.07,2.39-0.32,1.77-1.66
				c-0.82-1.78-2.07-3.46-4.25-3.69c-1.46-0.16-2.15,0.94-1.87,2.23C1086.35,940.23,1088.29,940.76,1090.21,941.03z M883.48,719
				c-1.86,0.43-2.33,1.97-2.34,3.72c-0.01,1.35,0.73,2.38,2.14,2.08c1.84-0.4,2.72-1.84,2.66-3.69
				C885.9,719.74,885.02,719.05,883.48,719z M919.79,940.71c-0.18-1.6-1.32-1.75-2.52-1.66c-1.63,0.12-3.64,0.16-3.68,2.34
				c-0.03,1.67,1.67,1.8,2.99,1.73C918.15,943.03,919.48,942.48,919.79,940.71z M1106.05,539.17c0.09-0.89-0.28-1.64-0.97-1.48
				c-2.08,0.49-3.83,1.7-4.77,3.62c-0.4,0.82,0.55,1.46,1.47,1.33C1103.93,542.33,1104.97,540.64,1106.05,539.17z M884.52,926.89
				c-2.74-1.03-4.75-1.36-6.51,0.4c-0.16,0.16,0.07,1.11,0.31,1.19C880.43,929.26,882.4,929.18,884.52,926.89z M955.92,257.13
				c1.56-0.44,2.74-1.57,2.89-3.36c0.11-1.29-1.07-1.55-2.11-1.37c-1.63,0.29-2.66,1.34-2.86,2.98
				C953.69,256.65,954.53,257.12,955.92,257.13z M878,956.88c2.14,1.83,3.97,2.61,6.13,1.53c0.7-0.35,0.62-1.27,0.12-1.65
				C882.41,955.32,880.46,955.44,878,956.88z M959.37,238.5c1.18-0.32,2.06-1.01,2.13-2.32c0.08-1.45-1.08-1.91-2.19-2.26
				c-1.23-0.39-1.97,0.16-1.79,1.44C957.7,236.58,957.64,238.06,959.37,238.5z"/>
			<path class="st0" d="M1005.86,574.25c1.06-2.73,2.7-4.01,4.53-5.21c9.83-6.46,18.12-14.56,25.09-24.01
				c1.4-1.89,3.04-4.46,0.84-6.19c-1.81-1.43-3.89,0.36-5.45,2.13c-1.87,2.13-4.11,3.9-7.22,4.02c4.3-5.33,10.02-8.99,14.68-13.87
				c7.62-7.97,8.6-18.07,10.59-27.95c0.23-1.16,0.03-2.48-1.35-2.89c-1.21-0.36-2.28,0.31-3.17,1.11c-2.82,2.57-6,4.87-8.35,7.83
				c-6.38,8.04-15.71,12.11-23.53,18.2c-1.3,1.01-2.81,1.83-5.31,0.77c3.67-3.99,7.99-6.9,12.26-9.22
				c6.32-3.43,10.93-8.59,16.1-13.21c0.74-0.66,1.27-1.62,2.09-2.13c10.05-6.13,10.44-15.99,10.46-26.18
				c0.01-5.12-4.38-6.71-7.14-8.9c-4.15-3.29-6.28-8.17-10.46-11.26c-1.77-1.31-3.07-1.65-5.34-0.62
				c-7.08,3.22-14.74,4.81-22.25,6.75c-1.42,0.37-2.66-0.13-3.34-1.53c-0.46-0.94-0.5-1.97,0.06-2.87c0.93-1.49,2.21-1.01,3.53-0.56
				c3.6,1.23,7.2,1.03,10.77-0.21c1.37-0.48,2.38-1.3,2.5-2.79c0.14-1.72-1.15-2.22-2.5-2.58c-23.26-6.27-39.04-21.14-49.15-42.6
				c-1.55-3.3-3.59-6.38-5.08-9.71c-0.64-1.43-0.83-3.77,0.99-4.39c1.72-0.58,2.12,1.56,2.81,2.87c5.16,9.86,9.46,20.19,16.47,29.02
				c2.3,2.9,4.89,5.45,7.68,7.82c0.87,0.74,2.06,1.76,3.11,1.01c1.46-1.04,0.37-2.46-0.27-3.55c-3.72-6.31-7.47-12.61-9.98-19.53
				c-5.62-15.5-10.44-31.2-11.5-47.79c-0.09-1.46-0.54-3.41,1.57-3.54c1.92-0.12,2.24,1.79,2.25,3.29
				c0.06,11.6,3.63,22.64,5.76,33.87c1.63,8.6,5.58,16.76,10.19,24.3c3.1,5.07,5.27,10.58,9.25,15.3c4.81,5.7,11.11,8.3,17.27,11.46
				c1.51,0.77,3.65,2.36,4.92,0.32c1.41-2.25-0.88-3.4-2.49-4.64c-4.86-3.73-9.69-7.52-14.42-11.41c-1.01-0.83-2.86-2.03-1.38-3.58
				c1.08-1.14,2.55,0.13,3.51,0.95c4.53,3.85,9.02,7.76,13.43,11.75c1.35,1.22,2.87,3.49,4.36,2.6c2.23-1.33,0.2-3.61-0.45-5.31
				c-0.76-1.98-2.14-3.72-3.06-5.66c-0.49-1.03-0.79-2.45,0.69-2.99c1.56-0.57,1.86,0.82,2.32,1.9c3.31,7.78,6.75,15.44,11.72,22.41
				c5.24,7.35,12.83,11.97,19.16,18.03c5.1-1.21,8.35,0.67,9.85,5.72c0.09,0.31,1.2,0.47,1.82,0.44c0.64-0.04,1.39-0.75,1.86-0.57
				c4.49,1.69,8.59,2.61,10.66-3.44c0.19-0.55,1.94-0.17,2.56,0.76c0.82,1.23,0.14,2.31-0.76,3.08c-7.2,6.08-11.14,14.51-15.12,22.6
				c-4.17,8.49-7.97,17.12-12.88,25.25c-2.08,3.44-4.25,6.8-6.87,9.76c-10.23,11.56-20.03,23.54-31.85,33.61
				C1010.94,574,1008.73,573.93,1005.86,574.25z M1043.37,534.61c1.16-0.24,1.79-0.87,2.43-1.73c9.66-12.85,14.6-28.29,23.01-41.83
				c1.05-1.69,1.2-4.32-1.44-3.98c-4.16,0.54-5.9-2.24-8.32-4.37c-1.54-1.35-2.82-3.83-5.39-2.6c-2.45,1.17-1.49,3.78-1.74,5.83
				c-1.29,10.78,1.28,21.85-3.03,32.45c-1.75,4.29-3.05,8.7-5.98,12.4c-0.72,0.91-1.4,1.97-0.7,3.18
				C1042.41,534.31,1043.01,534.42,1043.37,534.61z"/>
			<path class="st0" d="M921.45,611.05c-2.49,1.75-5.04,3.44-7.45,5.3c-0.72,0.56-1.45,1.6-0.69,2.59c0.64,0.84,1.48,0.23,2.23-0.12
				c7.64-3.51,15.28-7.01,22.93-10.5c7.85-3.57,15.7-7.14,23.57-10.64c1.16-0.51,2.77-1.21,3.38,0.6c0.52,1.54-1.06,1.75-2.09,2.2
				c-15.48,6.76-30.99,13.47-46.41,20.36c-2.89,1.29-5.77,1.96-8.69,1.07c-5.5-1.67-10.44,0.03-15.48,1.84
				c-5.95,2.13-11.93,4.17-17.94,6.12c-1.39,0.45-2.94,0.58-4.41,0.56c-0.91-0.01-2.15-0.35-2.09-1.64c0.05-1.01,1.11-1.08,1.9-1.24
				c17.24-3.38,33.28-10.24,49.37-16.97C920.18,610.33,920.85,610.25,921.45,611.05z"/>
			<path class="st0" d="M1045.44,478.8c-3.51,9.61-10.81,15.59-17.76,21.42c-3.41,2.87-9.31,3.1-13.84,1.33
				c-5.39-2.11-10.37-1.23-15.53,0.03c-1.55,0.38-3.91,1.57-4.4-0.26c-0.63-2.36,2.12-1.83,3.55-2.11
				c6.99-1.36,13.84-2.38,21.17-1.4c5.31,0.71,10.47-2.15,14.51-6.41C1037.05,487.28,1039.84,481.99,1045.44,478.8z"/>
			<path class="st0" d="M993.98,460.16c-0.35,0.2-0.84,0.66-1.42,0.79c-0.62,0.15-1.45,0.23-1.95-0.06
				c-7.51-4.33-17.1-4.1-23.43-11.18c-3.33-3.73-9-4.29-12.6-7.92c-1.75-1.77-3.53-3.52-5.25-5.32c-0.57-0.6-1.12-1.46-0.55-2.23
				c0.78-1.05,1.92-0.6,2.65,0.04c6.49,5.75,14.86,8.93,20.91,15.22c2.92,3.04,6.33,5.03,10.37,5.42c3.78,0.36,6.49,3.45,10.31,3.45
				C993.71,458.37,994.12,459.04,993.98,460.16z"/>
			<path class="st0" d="M1131.45,482.13c0.05-4,2.04-7.25,0.94-10.83c-0.24-0.77,0.2-1.67,1.05-2.06c0.9-0.4,1.57,0.09,2.14,0.75
				c2.49,2.88,5.12,5.65,7.43,8.66c1.98,2.58-0.64,10.93-3.47,11.71C1136.86,491.11,1131.33,485.09,1131.45,482.13z"/>
			<path class="st0" d="M1024.96,469.79c-8.42,9-17.89,10.91-28.65,8.81c-4.55-0.89-9.23-1.1-13.84-1.73
				c-1.15-0.16-3.23,0.36-3-1.57c0.18-1.57,2.13-1.3,3.39-1.25c5.31,0.22,10.68,0.15,15.92,0.94
				C1007.85,476.35,1016.07,473.74,1024.96,469.79z"/>
			<path class="st0" d="M963.97,559.51c3.25-5.47,6.45-6.56,11.39-3.62c6.55,3.89,12.86,8.18,19.23,12.35
				c0.81,0.53,1.49,1.32,2.08,2.1c0.63,0.83,0.89,1.88,0.11,2.74c-0.91,1-1.87,0.37-2.57-0.33c-5.35-5.34-12.56-7.97-18.36-12.65
				C972.1,557.06,968.27,556.04,963.97,559.51z"/>
			<path class="st0" d="M907.07,388.98c-0.24,0.94-0.56,2.05-0.82,3.18c-1.36,5.98-2.68,11.94-1.83,18.18c0.3,2.2,1,4.73-0.88,6.67
				c-1.21,1.25-2.6,3.35-4.5,2.01c-1.79-1.27,0.35-2.61,1.02-3.73c1.61-2.68,0.77-5.52,0.78-8.29c0.03-6.15,0.2-12.29,2.45-18.13
				c0.47-1.21,1.12-2.58,2.85-2.16C907.16,386.96,907.01,387.96,907.07,388.98z"/>
			<path class="st0" d="M1127.93,496.6c0.83-2.41,1.39-5.96,4.65-6.01c3.41-0.05,5.01,3.48,5.16,6.3c0.25,4.66-4.38,1.74-6.51,3.15
				C1130.13,500.76,1127.74,499.34,1127.93,496.6z"/>
			<path class="st0" d="M845.86,888.75c1.42,0.56,4.4-0.56,4,2.07c-0.41,2.65-3.64,2.17-5.75,2.63c-1.62,0.35-3.15-0.45-2.96-2.32
				C841.44,888.25,843.98,889.12,845.86,888.75z"/>
			<path class="st0" d="M1108.57,472.39c-1.03,1.9-1.59,4.38-4.34,4.17c-1.49-0.11-3.24-1.3-2.75-2.91
				c0.64-2.07,2.84-3.28,4.79-3.89C1107.67,469.32,1108.41,470.94,1108.57,472.39z"/>
			<path class="st0" d="M966.34,612.27c-3.55,1.79-7.13,3.34-11.28,1.51c3.48-2.43,7.47-1.62,11.38-1.44
				C966.46,612.35,966.34,612.27,966.34,612.27z"/>
			<path class="st0" d="M1102.05,485.48c-1.72-0.35-1.85-1.47-1.73-2.67c0.15-1.6,0.82-2.94,2.63-2.93c1.76,0.01,2.1,1.33,1.82,2.76
				C1104.47,484.22,1103.47,485.21,1102.05,485.48z"/>
			<path class="st0" d="M885.07,452.45c-0.1-0.55-0.21-0.81-0.14-0.87c1.86-1.59,3.59-3.6,6.44-2.65c0.41,0.14,0.94,1.37,0.77,1.58
				C890.21,452.92,887.48,451.95,885.07,452.45z"/>
			<path class="st0" d="M903.82,641.09c2.19-2.61,3.6-4.27,6.09-3.06c0.47,0.23,1.1,1.25,0.98,1.43
				C909.27,641.82,906.86,640.54,903.82,641.09z"/>
			<path class="st0" d="M1012.7,550.1c2.83-1.8,4.78-3.77,7.89-3.82C1019,549.84,1019,549.84,1012.7,550.1z"/>
			<path class="st0" d="M991.66,536.71c1.77-3.07,4.36-3.31,7.63-4.5C997.25,535.51,995.19,536.68,991.66,536.71z"/>
			<path class="st0" d="M1000.03,685.15c0.84,1.62,0.08,2.71-0.38,3.66c-6.03,12.52-11.02,25.53-17.8,37.71
				c-8.13,14.61-18.98,26.92-31.46,37.88c-0.93,0.82-1.86,3.21-3.4,1.41c-1.05-1.23,0.89-2.23,1.84-3.02
				c8.88-7.36,15.76-16.5,22.87-25.44c8.58-10.79,13.1-23.71,19.07-35.87C993.49,695.92,995.64,690.02,1000.03,685.15z"/>
			<path class="st0" d="M1047.24,682.68c-2.35-2.65-1.38-4.18-0.84-5.69c0.51-1.44,1.15-3.24,0.09-4.28
				c-3.43-3.34-2.28-6.89-1.07-10.58c1.09-3.32-0.89-6.55-0.38-9.84c0.26-1.7,0.11-4.37,2.47-4.19c2.52,0.19,1.78,2.74,1.55,4.45
				c-0.34,2.59-0.41,4.96,2.18,6.57c1.04,0.64,1.76,1.7,1.44,2.94C1050.99,668.68,1049.2,675.29,1047.24,682.68z"/>
			<path class="st0" d="M1031.79,732.26c2.87-6.22,5.76-12.22,8.43-18.31c4.19-9.53,8.05-19.18,9.78-29.54
				c0.22-1.3,0.15-3,1.98-2.87c1.96,0.14,1.52,1.67,1.24,3.03c-3.56,17.2-10.44,32.98-20.16,47.56
				C1032.95,732.29,1032.48,732.2,1031.79,732.26z"/>
			<path class="st0" d="M960.72,763.1c-0.31,1.42-1.54,2.1-2.45,3.06c-8.97,9.51-17.9,19.06-26.91,28.53
				c-2.29,2.41-4.78,4.63-7.29,6.8c-0.95,0.82-2.45,1.84-3.43,0.31c-0.78-1.21,0.61-2.01,1.55-2.7c8.46-6.3,14.88-14.6,21.98-22.26
				c4.6-4.97,9.79-9.39,14.02-14.74c0.32-0.41,1.19-0.64,1.74-0.55C960.64,761.65,960.89,762.35,960.72,763.1z"/>
			<path class="st0" d="M924.61,810.76c-2.08,6.11-7.59,9.42-11.6,13.92c-2.21,2.49-5.23,4.26-8.1,6.09
				c5.72-7.57,13.11-13.4,19.83-19.92L924.61,810.76z"/>
			<path class="st0" d="M1046.38,621.65c0.19,8.55-0.19,16.07,1.58,23.51C1044.72,643.12,1043.41,628.07,1046.38,621.65z"/>
			<path class="st0" d="M1033.27,711.31c2.12-5.08,4.23-10.16,6.35-15.24c1.56,3.39-0.67,5.59-1.54,8.13
				c-0.89,2.59-2.58,4.91-3.92,7.35C1033.87,711.47,1033.57,711.39,1033.27,711.31z"/>
			<path class="st0" d="M1008.44,667.04c-1.5,3.59-3,7.19-4.64,11.09C1001.98,675.31,1003.68,670.67,1008.44,667.04z"/>
			<path class="st0" d="M1003.72,632.64c-0.5,5.46-1.67,10.65-5.75,14.71c1.87-4.89,2.27-10.37,5.86-14.58
				C1003.82,632.76,1003.72,632.64,1003.72,632.64z"/>
			<path class="st0" d="M942.99,790.84c-0.42,4.38-4.12,5.92-6.71,8.43C937.08,795.31,939.45,792.59,942.99,790.84z"/>
			<path class="st0" d="M924.74,810.85c2.3-2.42,3.65-5.86,8.07-7.46c-2.18,4.02-4.41,6.54-8.19,7.37
				C924.61,810.76,924.74,810.85,924.74,810.85z"/>
			<path class="st0" d="M860.04,735.82c-0.46,0.55-0.79,1.17-1.3,1.54c-3.64,2.61-7.28,5.24-11.02,7.71
				c-1.48,0.98-3.31,1.12-4.57-0.33c-1.36-1.56-0.46-3.13,0.66-4.48c3.61-4.34,7.23-8.67,10.87-12.99c0.83-0.99,1.76-2.51,3.18-1.16
				c1.25,1.19,0.14,2.57-0.7,3.51c-1.76,1.98-3.82,3.7-5.55,5.7c-0.75,0.86-2.25,2.09-0.7,3.36c1.16,0.95,2.57,0.4,3.61-0.57
				c1.09-1.02,2.02-2.22,3.14-3.2c0.41-0.36,1.18-0.44,1.76-0.39C859.65,734.54,859.81,735.3,860.04,735.82z"/>
			<path class="st0" d="M953.95,899.86c-0.97,5.96-5.74,8.82-10.13,11.99c3.83-3.61,5.17-9.29,10.27-11.85
				C954.08,899.99,953.95,899.86,953.95,899.86z"/>
			<path class="st0" d="M959,267.74c3.62-3.05,6-5.09,8.42-7.09c0.62-0.51,1.39-1.13,2.19-0.42c0.56,0.5,0.44,1.3-0.07,1.77
				C966.88,264.5,964.33,267.26,959,267.74z"/>
		</g>
	</g>
</g>
</svg>
