<?xml version="1.0" encoding="utf-8"?>
<!-- Generator: Adobe Illustrator 28.0.0, SVG Export Plug-In . SVG Version: 6.00 Build 0)  -->
<svg version="1.1" id="Layer_1" xmlns="http://www.w3.org/2000/svg" xmlns:xlink="http://www.w3.org/1999/xlink" x="0px" y="0px"
	 viewBox="0 0 1920 1080" style="enable-background:new 0 0 1920 1080;" xml:space="preserve">
<g>
	<g>
		<path d="M879.21,478.28c-0.43,1.43-0.81,2.87-1.29,4.28c-1.73,5.01-3.66,9.88-1.58,15.43c0.96,2.56,1.2,5.66,0.83,8.4
			c-1.29,9.54,3.74,16.92,8.02,24.52c1.52,2.7,3.6,1.42,5.25-0.45c0.79-0.89,1.4-2.86,2.97-1.53c1.12,0.94-0.18,2.08-0.83,2.99
			c-0.93,1.31-2.71,2.68-0.83,4.22c1.54,1.26,3.54,0.13,4.49-1.01c5.5-6.62,13.97-10.41,17.75-18.66c0.81-1.77,2.29-3.33,4.32-2.11
			c2.19,1.3,1.07,3.2-0.07,4.71c-4.9,6.56-10.51,12.42-17.41,16.94c-2.68,1.76-4.87,4.03-6.67,6.66c-0.86,1.25-1.63,2.67-3.09,3.16
			c-7.46,2.51-6.81,8.53-6.26,14.43c0.78,8.51,3.83,16.52,5.85,24.75c0.95,3.89,1.49,6.41-4.19,5.85
			c-4.24-0.42-8.81,8.33-7.33,13.38c1.18,4.03,2.85,8.02,6,10.82c8.04,7.15,16.67,13.24,28.15,13.28c5.04,0.02,9.84,1.68,14.68,2.86
			c10.46,2.55,21.21,3.66,31.56,6.9c7.14,2.23,14.9,2.44,22.31,2c8.13-0.48,16.3,0.51,24.39-0.8c1.08-0.17,2.55-0.58,2.96,0.96
			c0.35,1.34-0.77,2.2-1.84,2.62c-1.53,0.61-3.15,1.23-4.76,1.34c-15.26,1.01-30.52,1.86-45.74-0.63
			c-3.99-0.65-7.77-1.58-11.22-3.87c-4.02-2.67-8.92-2.43-13.44-3.47c-0.98-0.22-2.21,0.06-2.38,1.23c-0.1,0.65,0.53,1.52,1.04,2.11
			c0.53,0.61,1.25,1.17,2.01,1.45c13.61,4.98,26.3,13.47,41.95,10.96c-8.67,3.88-17.4,4.3-25.94,0.54
			c-8.91-3.92-18.53-6.33-26.16-13.07c-4.08-3.61-8.9-6.36-15.01-5.37c-3.02,0.49-5.79-1.29-8.6-2.32c-0.9-0.33-2-0.87-2.6,0.37
			c-0.45,0.94,0.5,1.45,1.05,2.03c2.13,2.21,4.77,4.09,7.59,4.66c9.16,1.87,16.2,7.63,23.85,12.24
			c13.41,8.08,27.91,13.12,43.19,16.17c1.36,0.27,3.79-0.12,3.56,1.71c-0.27,2.13-2.64,1.27-4.19,1.15
			c-19.81-1.53-37.1-9.64-53.29-20.55c-3.48-2.34-7-4.31-11.16-5.37c-4.36-1.11-8.21-3.58-12.03-5.99
			c-1.43-0.91-2.88-3.13-4.71-1.27c-1.98,2.01-0.57,4.33,1.01,5.72c4.59,4.06,8.88,8.47,14.61,11.14
			c10.45,4.88,21.67,7.35,32.49,11.08c8.8,3.03,17.35,6.83,25.09,12.16c1.16,0.8,3.35,1.52,2.27,3.19
			c-1.11,1.73-2.58-0.15-3.83-0.76c-11.23-5.41-22.59-10.19-34.85-13.13c-13.92-3.34-27.31-8.58-38.07-18.72
			c-1.49-1.4-3.06-3.13-5.14-1.59c-1.81,1.34-1.6,3.64-0.95,5.56c1.03,3.04,2.72,5.72,5.44,7.59c22.71,15.6,46.5,28.99,73.51,35.74
			c2.53,0.63,4.29,1.56,4.55,4.43c0.18,2.02,1.02,3.83,3.51,2.79c2.32-0.97,1.63-2.78,0.87-4.64c-3.67-9.07,0.02-15.6,9.22-18.38
			c7.67-2.32,15.02-2.42,22.52,0c1.26,0.41,2.82,0.75,3.58,1.67c4.32,5.19,8.39,3.02,13.06,0.35c4.72-2.69,9.96-4.49,15.27-6.27
			c-5.21,3.96-9.98,8.57-16.11,11.2c-2.25,0.97-4.17,2.05-5.27,4.27c-1.82,3.66-0.21,6.27,3.86,6.34
			c6.49,0.11,12.68-0.28,18.61-3.88c9.03-5.47,19.53-7.93,28.48-13.92c8.91-5.97,17.08-12.59,24.24-20.53
			c1.57-1.74,1.79-3.9,2.03-6.05c0.23-2.07,0.8-3.92,2.54-5.22c1.32-0.99,3.15-1,2.92,0.76c-1.53,11.4,8.62,14.7,14.26,21.1
			c6.96,7.88,16.5,12.69,23.56,20.7c8.1,9.18,14.18,19.76,21.96,29.01c8.96,10.67,19.16,20.17,33.23,24.46
			c7.48,2.28,12.01,8.97,16.06,15.1c3.57,5.4,7.68,10.05,12.44,14.18c14.03,12.17,25.74,26.45,37.39,40.78
			c1.64,2.02,2.58,4.64,3.66,7.07c0.53,1.2,0.85,2.85-0.46,3.67c-1.59,1-2.75-0.44-3.87-1.4c-0.37-0.32-0.68-0.74-0.93-1.17
			c-11.89-20.2-28.48-36.29-45.66-51.79c-5.32-4.8-7.55-11.66-12.55-16.67c-3.64-3.65-7.36-6.39-12.37-7.92
			c-6.5-1.98-13.01-4.18-18.86-7.8c-1.77-1.09-3.94-2.16-2.56-5.08c0.71-1.49-0.48-2.59-1.54-3.35c-11.83-8.55-18.18-21.5-26.27-33
			c-3.72-5.29-8.4-9.63-13.41-13.2c-8.89-6.33-16.65-13.7-23.97-21.67c-3.07-3.34-4.27-3.13-6.49,0.87
			c-3.16,5.68-8.15,9.8-13.24,13.39c-11.53,8.12-23.35,15.86-36.73,20.82c-2.27,0.84-4.23,2.6-6.24,4.07
			c-1.07,0.78-1.98,1.73-3.34,2.1c-6.6,1.8-6.48,1.77-3.81,8.43c4.31,10.74,8.41,21.56,12.7,32.3c2.75,6.88,7.23,7.88,12.71,2.96
			c1.94-1.74,3.83-3.52,6.11-4.9c-2.51,4.31-6.25,7.45-10.27,10.11c-3.02,2-3.54,4.07-2.03,7.11c2.29,4.62,4.37,9.35,6.78,13.9
			c1.76,3.32,3.07,6.62,2.65,10.46c-0.39,3.5,2.4,5.74,3.64,8.59c7.42,16.99,0.52,28.7-13.22,38.24c-5.3,3.68-5.71,5.93,0.27,8.23
			c7.95,3.05,14.85,8.49,24.07,8.9c7.24,0.32,12.42,6.74,19.06,9.46c3.51,1.44,6.73,3.64,9.96,5.67c1.15,0.72,3.31,1.58,2.38,3.23
			c-1.06,1.88-3,0.56-4.42-0.16c-2.22-1.14-4.34-2.47-6.49-3.73c-1.17-0.69-2.47-1.54-3.56-0.16c-1.07,1.36-0.05,2.5,0.97,3.42
			c11.92,10.72,23.33,22.46,39.52,26.49c8.57,2.13,17.58,0.66,26.4,0.45c1.49-0.04,3-0.27,4.48-0.15c1.56,0.13,3.17,0.77,2.88,2.69
			c-0.25,1.65-1.89,1.64-3.24,1.59c-6.98-0.23-13.97-0.45-20.94-0.78c-1.84-0.09-3.86-0.7-5.13,0.96c-1.63,2.13,0.43,3.91,1.42,5.33
			c4.95,7.08,9.55,14.56,15.47,20.76c6.74,7.07,15.1,10.46,25.7,3.9c11.07-6.84,21.99-13.83,31.19-23.39
			c5.45-5.66,12.83-9.47,17.86-15.73c8.45-10.52,19.35-18.33,29.41-27.06c3.05-2.64,4.46-6.13,6.9-9.03
			c0.96-1.15,1.86-2.85,3.55-1.8c1.46,0.91,0.27,2.4-0.16,3.6c-0.23,0.62-0.46,1.33-0.92,1.76c-6.43,6.04-4.81,12.42-0.88,18.92
			c1.15,1.9,0.91,3.59-0.11,5.61c-2.36,4.63-4.29,9.49-10.45,10.21c-0.73,0.09-1.69,0.7-1.27,1.75c0.36,0.89,1.28,0.84,2.14,0.8
			c2.58-0.12,5.44-4.02,7.53-0.57c1.69,2.79-2.82,3.96-3.54,6.5c-0.74,2.63-1.46,5.23,0.25,7.68c1.68,2.41,4.18,1.62,6.42,1.21
			c2.45-0.44,4.88-1.04,7.25-1.78c6.92-2.16,12.8,1.44,12.97,8.57c0.11,4.6,2.33,9.67-1.95,13.77c-0.75,0.71-0.41,1.84-0.06,2.84
			c3.61,10.34-0.03,20.04-2.7,29.82c-0.21,0.78-0.87,1.58-0.78,2.3c1.59,11.85-4.3,22.37-5.96,33.63
			c-1.41,9.53-1.28,19.18-2.14,28.75c-0.55,6.14,4.15,11.54,7.6,16.51c6.45,9.28,12.2,19.16,16.86,29.17
			c4.09,8.79,7.91,18.65,7.11,29.2c-0.42,5.53-3.51,9.98-9.03,10.89c-3.1,0.51-6.3,0.49-9.46,0.61c-1.3,0.05-2.87,0.17-3.04-1.72
			c-0.13-1.51,0.78-2.53,2.14-3.04c1.24-0.47,2.58-0.68,3.82-1.14c1.55-0.57,2.68-1.66,2.1-3.41c-0.57-1.73-2.38-2.34-3.68-1.54
			c-4.95,3.04-10.9,2.94-16.01,5.42c-2.27,1.1-3.56,2.76-2.54,5.17c1.2,2.82,3.08,1.58,4.86,0.39c1.92-1.28,3.79-0.51,5.93,0.22
			c-0.81,2.35-2.82,2.55-4.41,2.83c-11.39,2.04-22.13,1.28-30.7-7.83c-1.07-1.13-2.11-2.01-3.82-1.96
			c-26.21,0.63-52.01-3.93-77.97-6.34c-9.78-0.91-19.57-1.79-29.37-2.45c-3.72-0.25-7.12-1.25-10.5-3.1
			c5.95-1.06,12.03-1.53,17.85-0.39c12.28,2.4,24.75,3.82,37.11,4.09c16.23,0.35,32.14,3.12,48.24,4.1
			c2.82,0.17,5.69,0.25,8.48-0.09c3.1-0.38,4.91-1.81,1.95-4.84c-4.16-4.26-5.31-9.44-5.72-15.27c-0.28-3.92-2.42-7.74-3.89-11.54
			c-0.54-1.4-1.06-2.64-0.99-4.26c0.2-4.38,0.23-8.6,6.64-7.11c0.57,0.13,1.27-0.32,1.92-0.47c2-0.47,5.08-0.2,4.26-3.42
			c-0.77-3.04-3.4-3.73-6.45-2.94c-1.37,0.35-2.61,2.51-3.93,1.13c-1.33-1.39,0.42-3.06,0.8-4.61c3.83-15.69,5.11-31.45,1.33-47.33
			c-0.5-2.11-1.03-3.72,1.65-4.81c1.88-0.77,1.78-2.85,1.05-4.37c-1.08-2.25-2.44-0.64-3.61,0.15c-1,0.67-2.38,0.68-2.48-0.36
			c-0.31-3.53-4.83-6.43-1.56-10.48c1.05-1.3,0.63-2.27-1.05-2.25c-3.03,0.04-4.27-2.28-4.8-4.37c-2.1-8.29-6.63-15.8-7.69-24.4
			c-0.41-3.33-1.03-6.58-2.56-9.61c-0.87-1.72-0.72-3.38-0.27-5.29c1.74-7.25,3.35-14.55,2.96-22.11c-0.08-1.49,0.2-3.15-1.73-3.69
			c-1.58-0.44-3.26-0.03-4.11,1.2c-4.87,7.1-12.86,10.47-18.93,16.14c-12.88,12.02-28.01,12.15-40.39-0.24
			c-5.44-5.45-9.81-12.13-13.53-19c-2.89-5.32-6.8-8.94-12.41-11.63c-12.39-5.93-23.96-12.98-32.03-24.93
			c-3.7-5.48-9.95-9.12-13.33-15.16c-0.79-1.41-2.51-1.39-3.96-1.79c-10.98-3-21.24-7.51-30.04-14.9
			c-3.78-3.18-7.82-2.02-11.79-0.79c-2.87,0.88-5.6,2.22-8.71,1.81c-1.13-0.15-2.53-0.23-2.66-1.72c-0.11-1.25,1.13-1.61,2.05-1.81
			c9.76-2.13,11.92-9.98,13.76-18.11c0.47-2.1,0.86-4.24,1.52-6.28c0.36-1.12,1.28-2.1,2.67-1.71c1.39,0.39,1.77,1.75,1.36,2.83
			c-1.73,4.61-0.96,9.59-2.3,14.23c-0.46,1.6-1.39,3.24,0.47,4.49c1.51,1.02,3.37,1.16,4.71,0.04c6.04-5.07,13.15-9.1,16.61-16.77
			c1.28-2.85,1.78-5.83,1.27-8.77c-1.48-8.54-3.69-16.89-7.13-24.9c-5.58-12.99-11.86-25.76-16.22-39.15
			c-3.13-9.61-8.71-18.26-10.43-28.4c-0.57-3.35-3.13-6.09-6.49-7.85c-3.62-1.9-5.94-1.9-7.82,2.42c-2.17,4.99-7.65,5.03-11.95,5.82
			c-5.17,0.95-10.61,0.42-15.93,0.54c-3.9,0.09-7.02-1.68-9.95-4.05c-2.74-2.22-5.14-2.1-6.83,1.38
			c-6.12,12.61-14.36,23.99-21.13,36.23c-3.68,6.64-4.12,13.99-5.93,21.02c-0.67,2.6-1.11,5.11-2.78,7.35
			c-2.36,3.16-1.53,5.9,2.13,7.02c4.63,1.41,8.31,5.99,14.4,3.13c2.39-1.12,2.99,3.37,3.15,5.66c0.63,8.77,1.5,9.66,10.56,8.96
			c15.58-1.21,13.99,1.71,16.08-14.82c0.71-5.61,0.75-11.31,1.46-16.92c1.76-14,3.67-27.99,4.72-42.07
			c0.09-1.16,0.26-2.33,0.56-3.45c0.3-1.12,0.71-2.42,2.27-2.05c1.16,0.27,1.36,1.4,1.31,2.42c-0.11,1.99-0.41,3.98-0.48,5.97
			c-0.31,7.82,0.6,15.9-1.09,23.41c-2.82,12.6-2.18,25.5-4.63,38.05c-1.69,8.62-1.43,17.28-0.56,25.87c0.47,4.66-2.32,6.12-5.1,8.18
			c-2.71,2.01-4.56,0.29-6.62-1.27c-2.64-2-5.6-3.11-8.87-1.64c-3.46,1.56-3.92,4.78-3.89,8.03c0.04,5.5,0.19,11,0.49,16.48
			c0.25,4.49,3.19,6.74,7.46,5.48c7.03-2.08,14.04-3.66,21.44-4.19c8.7-0.62,12.85-7.59,10.65-15.85
			c-1.67-6.3,0.04-12.63,0.46-18.87c0.99-14.67-0.04-29.31,0.28-43.96c0.36-16.65-1.29-33.23-2.59-49.8
			c-0.09-1.2-0.2-2.46,1.16-2.98c1.28-0.49,2.21,0.39,3.02,1.24c0.99,1.03,1.21,2.36,1.23,3.71c0.23,12.14,2.08,24.25,2.32,36.29
			c0.43,21.89,0.92,43.89-1.65,65.74c-0.3,2.53,0.12,4.97,0.26,7.45c0.18,3.35,1.27,5.46,5.04,5.25c1-0.06,2.14,0.08,2.51,1.2
			c0.36,1.11-0.41,2.13-1.29,2.43c-4.79,1.67-6.88,6.54-11.01,9.11c-2.56,1.59-4.77,2.78-7.78,2.34c-5.79-0.85-11.01,0.62-16.38,3
			c-4.72,2.09-9.82,4.27-15.37,3.07c-3.9-0.84-6.26-3.15-6.28-7.25c-0.03-5.83,0.06-11.66,0.25-17.49c0.05-1.64,0.05-3.99,1.05-4.76
			c5.14-3.95,2.47-8.34,1.38-12.83c-0.89-3.69-2.76-3.22-4.97-1.53c-0.89,0.68-1.42,1.83-2.07,2.79
			c-6.29,9.21-13.32,17.81-21.11,25.8c-2.73,2.8-6.34,4.26-9.31,6.67c-10.14,8.23-22.08,12.36-34.5,15.8
			c-10.87,3.01-17.37,10.62-20.63,21.62c-3.17,10.69-8.45,20.53-15.49,29.31c-1.24,1.54-2.93,2.12-4.8,2.37
			c-2.17,0.29-4.58,0.51-6.07,2.05c-3.59,3.71-7.42,3.03-11.42,1.23c-7.34-3.3-15.58-3.38-22.98-6.59
			c-2.92-1.27-6.11-2.16-8.31-4.41c-4.94-5.04-11.84-6.69-17.42-10.6c-2.44-1.71-4.54-0.58-5.55,2.06c-0.77,2-1.64,4.14-1.67,6.23
			c-0.14,8.26-0.2,16.53,0.15,24.78c0.42,9.89-2.38,19.07-5.57,28.17c-4.6,13.11-12.58,24.37-19.78,36.1
			c-2.9,4.73-4.25,10.79-4.96,16.41c-1.52,11.98-0.53,23.65,3.89,35.33c4.43,11.7,4.23,24.13,0.3,36.31
			c-1.85,5.74-4.37,11.02-7.45,16.23c-5.06,8.55-13.45,12.61-21.38,17.36c-2.81,1.68-5.88,0.39-8.8-0.1
			c-8.99-1.53-18.2-0.94-27.09-3.92c-12.76-4.27-17.17-21.24-7.2-30.47c5.7-5.28,9.67-11.5,13.67-18.07
			c4.1-6.72,3.8-14.08,5.3-21.07c1.57-7.3,4.13-14.28,7.5-20.48c4.35-8.02,3.31-15.43,1.24-23.14c-1.16-4.33-1.64-8.46-0.75-12.78
			c2.9-14.01,1.48-27.76-2.43-41.37c-2.35-8.19-3.74-16.54-3.93-25.07c-0.15-6.71,4.59-12.45,3.13-20.07
			c5.77,5.86,11.97,8.9,18.61,10.64c8.28,2.18,8.37,1.84,15.13-2.41c2.37-1.48,1.5-9.28-1.69-10.77c-5.14-2.39-8.23-7.25-13.06-9.91
			c-1.37-0.75-2.04-2.17-0.82-3.3c2.82-2.61,4.32-6.93,9.16-7.05c2.91-0.07,3.84-1.4,2.29-4.24c-1.82-3.32,0.04-4.12,3.04-3.95
			c1.16,0.07,2.33,0.05,3.48-0.07c1.01-0.11,2-0.49,2.16-1.7c0.15-1.21-0.72-1.78-1.67-2.18c-1.95-0.82-4.16-1.13-5.87-3.26
			c5.01-1.63,3.31-4.07,0.8-6.41c-1.45-1.35-3.02-2.67-4.75-3.63c-4.31-2.43-6.37-1.77-8.59,2.72c-2.21,4.48-4.13,9.1-6.38,13.55
			c-0.93,1.83-1.91,4.97-4.2,4.21c-2.64-0.88-1.11-3.93-0.45-5.72c2.19-5.92,4.82-11.68,7.19-17.53c0.55-1.37,1.37-3,1.07-4.28
			c-2.33-10.14,4.24-15.56,11.39-19.5c14.92-8.2,25.16-20.57,34.8-34.15c13.16-18.55,27.04-36.77,44.33-51.74
			c10.91-9.45,21.67-19.13,33.14-27.98c10.2-7.86,16.78-18.87,22.19-30.39c4.64-9.87,9.86-19.24,17.88-26.79
			c2.35-2.21,3.12-4.86,3.2-8.06c0.13-4.98,0.89-9.88,2.1-14.78c1.34-5.4,1.32-11.12-2.5-15.68c-6.37-7.63-6.22-15.22-1.21-23.41
			c4.42-7.22,5.15-14.36,1.28-22.67c-3.18-6.81-3.24-14.14,1.04-21.91c2.84-5.14,3.21-12.68-0.43-18.95
			c-1.17-2.01-1.75-4.47-3.26-6.14c-4.99-5.53-3.53-12.1-3.28-18.41c0.15-3.82-0.67-6.76-3.89-9.08c-2.31-1.67-3.73-4.05-4.65-6.9
			c-5.58-17.34-16.49-30.58-30.83-41.66c-5.13-3.96-11.58-8.14-11.62-16.31c0-0.82-0.8-2.05-1.54-2.39c-6.6-3-8.53-9.7-11.56-15.22
			c-4.77-8.7-11.28-15.97-17.73-23.2c-4.89-5.49-7.71-10.24-6.55-18.3c2.86-19.92,12.91-35.69,25.8-50.17
			c3.91-4.39,9.5-6.69,14.18-10.15c4.8-3.55,10.15-6.31,13.7-11.43c1.39-2.01,3.51-3.62,5.95-4.42
			c10.81-3.54,17.69-12.24,25.3-19.76c11.39-11.26,24.21-18.39,40.66-17.22c4.53,0.32,8.8-1.35,13.38-1.12
			c4.25,0.21,8.25,0.61,12.04,2.58c3.7,1.93,5.74,0.62,6.15-3.38c0.26-2.48,0.59-5,0.41-7.47c-1.28-18.4,7.4-31.62,21.49-42.22
			c8.52-6.41,17.58-10.96,28.4-12.43c10.9-1.48,19.2,3.53,28.04,8.34c14.25,7.75,23.14,19.95,28.67,34.5
			c3.17,8.35,2.47,17.57,1.15,26.51c-0.74,5.06-3.73,9.55-3.37,14.9c0.18,2.57-1.39,4.63-3.05,6.63c-2.61,3.14-3.83,6.51-0.87,10.36
			c1.89,2.46,1.28,4.83-1.76,5.91c-1.89,0.67-3.47,1.32-3.34,3.64c0.16,2.87,2.12,2.36,3.99,2.11c0.97-0.13,1.54,0.5,1.7,1.43
			c0.24,1.43-0.14,2.85-1.36,3.54c-7.32,4.16-7.55,12.25-9.5,18.85c-1.58,5.33-4.04,11.26-1.07,17.47c1.44,3,2.99,4.79,6.13,4.73
			c4.63-0.09,8.75,1.3,12.93,3.15c5.39,2.39,10.93,2.34,16.97,1.77c6.96-0.65,14.01-4.22,21.46-0.45c2.4,1.21,6.41-0.66,9.65-1.28
			c0.97-0.19,2.19-1.32,1.77-2.1c-1.84-3.42,0.15-7.68-1.54-10.51c-4.34-7.27-5.14-15.77-8.98-23.2c-1.8-3.49-3.72-5.04-7.25-4.19
			c-7.18,1.73-11.35-3.35-15.33-7.41c-1.74-1.78-1.32-6.29-0.82-9.39c0.3-1.83,2.68-1.53,3.92,0.13c0.89,1.19,1.39,2.71,2.84,3.4
			c1.7,0.81,3.4,1.36,3.16-1.61c-0.44-5.37,5.07-6.7,6.74-10.81c0.06,1.99-1.97,3.64,0.95,5.1c2.24,1.11,0.3,2.3-0.51,3.49
			c-1.44,2.11-1.15,3.6,1.69,4.31c4.52,1.12,6.74,4.92,7.89,8.77c1.28,4.27,0.59,9.23,7.84,7.52c2.76-0.65,4.29,2.31,2.63,4.78
			c-6.56,9.79-1.14,13.84,8.09,17.48c3.49,1.38,2.34,5,3.52,7.47c2.9,6.02,6.21,11.58,11.33,15.98c1.58,1.36,4.01,2.38,3.59,4.98
			c-0.44,2.72-2.91,1.41-4.52,1.83c-0.87,0.22-1.57,0.66-1.29,1.72c0.26,0.95,1.09,1.17,1.94,1.26c1.63,0.16,2.73-1.28,4.16-1.47
			c1.78-0.24,4.06-0.38,4.64,1.77c0.55,2.06-1.15,3.33-3.01,3.96c-0.93,0.32-1.98,0.26-2.95,0.48c-1.65,0.37-3.73,0.8-2.92,3.05
			c0.75,2.08,2.34,3.78,5.04,2.36c0.15-0.08,0.29-0.17,0.43-0.26c1.96-1.22,4.41-3.28,6.09-0.68c1.68,2.6-1.59,3.98-3.15,5.37
			c-3.33,2.98-10.13,0.92-11.57-3.4c-0.66-1.98-1.26-4.18-3.58-4.22c-2.38-0.05-2.51,2.36-2.76,4.1c-0.4,2.68-2.29,3.1-4.37,3.08
			c-2.63-0.03-3.21-1.92-3.25-4.13c-0.06-3,0.01-6.01-0.26-8.99c-0.21-2.37-1.6-4.32-4.13-4.17c-2.61,0.15-2.13,2.65-2.1,4.34
			c0.15,7.6-0.05,15.16-2.08,22.69c-2.06-4.32-2.34-8.94-1.56-13.49c0.59-3.45,0.68-6.27-1.58-9.37c-2.25-3.08-2.42-6.61,1.95-8.65
			c1.25-0.58,2.52-1.29,2.34-2.88c-0.2-1.77-1.75-1.62-3.07-1.83c-3.68-0.59-6.05-1.71-6.71,4.56c-0.54,5.18-3.19,10.42-3.66,16.16
			c-0.68,8.29,2.12,15.34,5.61,22.41c0.55,1.11,2.22,2.42,0.99,3.49c-1.62,1.4-2.81-0.62-3.51-1.64c-6.33-9.23-8.3-19.4-5.97-30.34
			c0.45-2.11,1.28-4.14,1.95-6.19c0.55-1.66,2.09-3.51-0.15-4.86c-1.96-1.18-3.48,0.34-4.75,1.67c-0.55,0.58-0.75,1.48-1.79,2.19
			c0.17-5.72-1.31-7.99-6.5-5.2c-1.32,0.71-3.14,0.86-4.38,0.07c-4.52-2.88-8.86-1.77-13.31,0.06c-1.6,0.66-3.89,0.93-4.7-0.45
			c-3.74-6.41-10.36-4.33-15.75-5.55c-2.77-0.62-4.85-0.83-5.98-3.98c-1.01-2.82-3.22-2.25-5.18-0.49c-2.79,2.5-6.15,3.97-9.69,4.96
			c-1.36,0.38-3.15,0.91-3.75-1.17c-0.47-1.62,0.27-2.87,1.73-3.77c1.88-1.15,6.36-1.78,3.91-4.55c-2.38-2.69-3.16,2.5-5.2,3.35
			c-3.2,1.33-4.28,6.47-8.98,5c-1.33-0.42-3.33-0.22-3.39-2.27c-0.05-1.73,1.34-2.53,2.85-3.03c1.47-0.48,3.9,0.12,3.95-2.14
			c0.05-2.41-2.65-2.07-4.15-2.86c-4.24-2.25-8.9-1.06-13.3-1.09c-6.24-0.04-11.67-2.21-17.3-4.29c-4.55-1.68-9.09-4.62-14.16-0.96
			c-1.82,1.31-2.16-0.57-2.55-1.8c-2.83-8.82-5.76-17.62-8.37-26.51c-0.69-2.33-1.47-4.37-3.24-6.02c-2.2-2.04-4.27-2.3-6.44,0.13
			c-3.45,3.86-7.16,5.55-12.74,3.65c-4.6-1.57-9.66-2.49-14.76-2.02c-3.01,0.28-5.99-0.13-8.74-1.57c-3.27-1.72-5.78-0.96-7.45,2.35
			c-5.01,9.94-9.98,19.89-15,29.82c-1.93,3.82-1.13,7.04,1.9,9.92c5.65,5.39,11.99,7.1,19.7,4.85c6.56-1.92,12.95-4.02,20.36-2.61
			c7.92,1.51,16.27,0.65,24.42,1.08c4.66,0.24,5.93-4.39,9.66-6.28c0.59,3.64-0.04,7.04,1.14,10.36c2.07,5.87,5.68,10,11.24,12.68
			c2.39,1.15,4.68,2.56,6.83,4.11c2.14,1.55,3.73,3.12,6.22,0.13c1.79-2.15,4.35,0.43,7.03,0.15c-1.41-4.01,0.33-4.87,4-3.89
			c2.48,0.66,4.96,0.55,7.03-1.4c0.96-0.91,2.38-2.17,3.33-0.6c1.07,1.78-1.15,1.87-2.12,2.56c-0.37,0.26-0.65,0.67-1.75,1.84
			c6.6,0.31,12.18-1.02,17.24-3.21c3.87-1.68,7.87-3.6,11.16-6.54c1.04-0.93,2.4-2.49,3.83-1.03c1.28,1.3,0.24,2.98-0.79,3.99
			c-5.75,5.64-11.8,10.86-20.26,11.91c-5.28,0.65-10.56,1.23-15.84,1.88c-4.36,0.54-4.69,1.79-3.28,5.91
			c3.43,9.98,5.12,20.42,4.39,30.89c-0.38,5.46,0.15,10.97-0.87,16.39c-0.18,0.98,0.13,2.16-0.31,2.96
			c-4.17,7.56-0.64,13.95,2.44,20.75c2.37,5.22,2.21,11.29,0.57,16.67c-1.47,4.83-0.84,10.78-6.34,14.1
			c-1.81,1.09-0.56,2.72,1.39,2.81c1.98,0.09,3.99-0.12,5.98-0.23c1.73-0.1,3.3,0.39,4.76,1.26c1.17,0.7,2.37,1.56,1.87,3.13
			c-0.43,1.33-1.78,1.51-2.94,1.33c-4.17-0.66-8.28-0.3-12.44,0.15c-2.65,0.29-4.85-1.08-6.53-3.09c-1.4-1.68-1.57-3.9,0.58-4.59
			c8.65-2.76,7.66-10.55,8.73-16.86c1.37-8.12,0.08-16.18-3.51-23.75c-0.66-1.4-0.63-2.88-0.27-4.4c3.82-16.1,4.58-32.19,0.08-48.32
			c-0.8-2.87-1.25-5.91-0.81-8.92c0.62-4.25-1.8-5.68-5.37-6.15c-13-1.72-23.22-8.12-31.08-18.46c-1.15-1.52-2.63-2.6-4.22-1.46
			c-6.98,5.01-13.67,1.58-20.47-0.34c-6.98-1.97-14.11-2.32-21.25-1.29c-6,0.86-8.41,5.74-5.78,11.14c2.11,4.33,3.14,8.75,1,13.41
			c-0.2,0.45-0.3,0.95-0.41,1.43c-0.41,1.83,1.39,4.57-1.06,5.38c-2.3,0.76-3.46-2.15-5.08-3.41c-2.78-2.16-3.47-5.67-3.99-8.92
			c-0.49-3.09-1.8-5.68-3.37-8.24c-0.57-0.93-0.8-2.52-2.35-2.04c-1.19,0.37-1.63,1.69-1.66,2.86
			c-0.39,12.52-9.51,19.77-16.88,28.07c-0.67,0.76-1.72,1.4-2.53,0.34c-0.57-0.75,0.16-1.54,0.79-2.11
			c4.24-3.82,7.9-8.08,10.09-13.45c0.44-1.07,1.22-2.05,1.48-3.15c0.51-2.14,2.1-5.06-0.89-6.08c-2.58-0.88-2.64,2.32-3.51,3.95
			c-3.4,6.34-7,12.52-13.31,16.5c-0.67,0.42-1.47,0.88-2.63-0.13c2.67-3.82,5.29-7.74,8.09-11.54c4.25-5.76,6.7-12.22,7.84-19.22
			c0.23-1.41,1.02-3.33-0.79-3.98c-1.93-0.69-2.48,1.32-2.89,2.66c-1.52,5.01-4.48,9.27-6.87,13.83
			c-3.41,6.51-9.85,9.85-15.34,13.99c-5.13,3.86-11,7.04-17,9.34c-5.18,1.98-11.03,2.72-16.29-0.75c-1.11-0.73-2.49-1.96-3.45-0.51
			c-1.09,1.66,0.87,2,1.92,2.7c2.07,1.38,4.69,2.46,5.94,4.41c3.23,5.02,7.85,5.65,13.05,5.34c0.66-0.04,1.66-0.28,1.94,0.06
			c5.69,6.77,13.36,2.32,20,3.59c-3.01,2.46-5.73,3.06-15.17,3.26c-1.66,0.04-3.33-0.11-5-0.11c-1.61,0-3.55-0.6-4.38,1.4
			c-0.71,1.7,0.23,3.25,1.16,4.65c1.04,1.57,2.5,2.76,4.21,3.42c2.5,0.97,3.99,1.73,3.31,5.29c-0.78,4.12,6.23,6.89,11.36,4.62
			c7.26-3.22,15.17-5.08,21.49-10.3c0.73-0.61,1.78-0.83,3.24-1.48c-0.49,2.27-1.96,3.13-3.23,3.86
			c-6.77,3.84-12.98,8.73-20.7,10.79c-3.48,0.93-4.1,3.29-1.24,5.16c3.44,2.24,6.01,5.31,8.69,8.19c3.11,3.36,7.1,4.18,11.07,5.24
			c3.12,0.83,4.87-1.49,6.58-3.58c3.42-4.19,5.4-9.45,9.89-13c-1.26,5.03-2.35,10.28-5.86,14.17c-3.1,3.44-5.55,7.53-9.45,10.23
			c-1.89,1.31-2.46,3.02-1.58,5.22c1.85,4.63,3.54,9.33,5.5,13.92c1.76,4.1,3.55,4.05,6.44,0.78c2.18-2.46,1.72-6.58,5.33-7.99
			L879.21,478.28z M944,710.16c-3.38-3.63-4.92-7.43-4.94-11.02c-0.03-5.29-3.06-6.93-6.93-9.08c-6.74-3.74-14.56-5.18-20.86-9.39
			c-9.65-6.46-20.06-11.92-28.47-20.16c-2.28-2.23-4.67-2.36-6.93,0.17c-2.87,3.22-5.5,6.51-7.69,10.35
			c-3.06,5.37-4.81,11.3-8.06,16.54c-1.14,1.84-4.06,3.94-1.92,5.94c1.87,1.74,3.59-1.41,5.38-2.38c0.15-0.08,0.27-0.19,0.42-0.27
			c2.18-1.06,4.72-2.16,6.11,0.59c1.25,2.47-1.34,3.27-3.03,4.27c-9.99,5.94-20.31,11.34-29.04,19.25
			c-10.22,9.26-20.7,18.24-31.11,27.29c-6.64,5.77-13.1,11.7-18.28,18.89c-2.42,3.36-4.54,7.21-7.67,9.75
			c-8.26,6.68-12.61,16.28-18.44,24.58c-8.22,11.7-17.01,22.53-28.44,30.98c-4.15,3.07-9.79,4.25-10.06,10.82
			c-0.02,0.5-0.84,0.99-1.33,1.44c-3.1,2.79-2.55,4.95,0.46,7.76c13.9,12.95,28.62,24.88,43.9,36.15
			c11.77,8.68,23.97,16.68,37.3,22.68c5.42,2.44,11.3,4.19,17.15,5.24c9.62,1.73,19.3,1.34,26.35-6.67
			c4.59-5.22,9.72-10.62,8.43-18.71c-0.22-1.4,0.9-2.44,1.62-3.56c0.7-1.09,1.99-2.26,1.07-3.57c-1.08-1.54-2.78-0.68-4.12-0.2
			c-5.88,2.1-12.01,2.14-18.12,2.73c-9.55,0.93-18.99-2.05-28.39-0.83c-7.86,1.02-12.74-2.22-16.65-8.26
			c-0.78-1.21-2.33-2.41-1.07-3.93c1.12-1.35,2.75-0.65,4.18-0.15c4.36,1.54,8.62,3.51,13.1,4.5c7,1.54,14.08,1.81,21.26,0.31
			c3.85-0.81,7.96-0.93,11.95-0.25c8.36,1.43,16.47,0.87,22.98-5.01c4.63-4.18,10.04-5.85,15.66-7.8
			c8.77-3.06,17.36-6.71,25.85-10.51c7.64-3.41,14.74-7.93,20.75-13.73c8.97-8.64,15.64-19.47,25.6-27.23
			c2.05-1.6,1.94-3.55-0.78-4.5c-3.8-1.33-5.59-4.29-5.98-7.89c-0.35-3.24-1.6-5.36-4.68-6.29c-3.27-0.99-4.95,1.38-6.56,3.46
			c-6.11,7.92-12.91,15.17-19.81,22.41c-10.81,11.33-23.9,18.77-38.05,24.75c-1.06,0.45-2.35,1.34-3.16,0.1
			c-1.11-1.71,0.7-2.33,1.73-2.91c4.62-2.61,9.35-5.02,13.96-7.65c17.36-9.89,30.97-23.96,43.5-39.23c1.16-1.42,1.86-2.83,0.62-4.48
			c-1.35-1.79-3.22-2.56-5.28-1.56c-1.46,0.71-2.77,1.85-3.95,2.99c-9.11,8.8-20.42,14.32-31.23,20.43
			c-10.39,5.87-21.97,9.71-32.16,15.87c-8.6,5.2-17.13,4.21-26.04,3.4c-1.96-0.18-3.77-1.06-3.58-3.36c0.21-2.43,2.28-2.8,4.16-2.4
			c9.16,1.99,17.11-0.03,25.76-4.1c17.45-8.2,35.22-15.73,52.09-25.12c5.52-3.07,10.31-7.14,13.44-12.97
			c1.66-3.09,1.23-5.06-1.83-6.43c-9.03-4.07-13.62-12.36-18.82-19.99c-0.8-1.17-2.79-3.46-0.69-4.69c1.58-0.92,2.53,1.61,3.57,2.81
			c5.01,5.77,9.94,11.61,15.01,17.33c1.61,1.82,3.72,3.06,6.21,1.61c2.82-1.64,5.59-13.84,3.24-16.27
			c-3.55-3.67-5.61-8.24-8.66-12.17c-8.16-10.52-13.76-22.41-17.56-35.06c-1.47-4.87-1.51-10.18-2.1-15.31
			c-0.12-1.08-0.19-2.58,1.38-2.75c1.26-0.14,1.45,1.16,1.72,2.09c0.85,2.87,1.73,5.74,2.46,8.64
			c4.38,17.37,12.51,32.88,23.33,47.05c1.71,2.23,3.47,2.45,5.01-0.32c7.66-13.83,15.64-27.5,22.55-41.74c1.42-2.93,0.5-4.9-3-5.08
			c-4.04-0.21-7.84-1.32-11.53-2.92c-1.53-0.66-3.21-1.61-4.63-0.13c-1.45,1.51-0.25,3.16,0.41,4.62
			C943.37,702.87,945.24,705.68,944,710.16z M965.86,323.47c-0.39-3.06,1.19-7.59-4.83-5.99c-1.37,0.36-0.91-1.85-0.58-2.81
			c3.23-9.26,8.6-17.05,16.18-23.3c0.77-0.63,1.68-1.43,2.67-0.83c1.06,0.65,0.54,1.74,0.24,2.7c-1.07,3.37,0.36,5.35,3.59,4.11
			c4.84-1.86,9.64-2.22,14.65-1.72c2.53,0.25,3.28-0.99,2.86-3.32c-0.4-2.23-1.62-3.94-3.09-5.59c-0.85-0.96-2.02-2.54-0.67-3.45
			c1.56-1.06,2.07,0.93,2.74,1.96c1.98,3.06,3.95,6.13,5.88,9.23c1.56,2.5,3.81,3.7,6.7,3.58c2.57-0.11,4.17-1.12,1.91-3.63
			c-2.71-3-1.21-5.02,1.11-7.13c2.69-2.45,5.6-4.62,7.89-7.57c1.49-1.92,1.68-3.24,0.6-5.3c-2.9-5.53-5.7-6.24-11.26-2.94
			c-1.65,0.98-3.65,4.26-5.65,0.72c-1.94-3.45-3.58-1.49-5.62-0.4c-2.92,1.57-2.29,5.38-5.24,7.89c-1.01-4.88-2.13-9.14-2.71-13.48
			c-0.49-3.69,0.6-6.66,4.53-8.48c6.46-3,12.97-3.88,19.86-2.1c1.25,0.32,2.69,0.92,3.62-0.53c0.62-0.96,0.24-2.15-0.59-2.69
			c-4.11-2.69-1.95-4.9,0.09-7.64c1.45-1.94,4.69-4.01,2.74-6.83c-3.29-4.77-1.05-5.08,3-4.54c3.89,0.52,6.33-2.01,8.35-4.53
			c2.02-2.52,0.04-4.94-1.39-7.25c-3.9-6.31-9.72-10.49-16.01-13.93c-6.36-3.47-12.38-7.49-19.97-8.63
			c-11.09-1.66-20,2.61-29.08,7.95c-11.12,6.55-17.52,17.01-24.15,27.33c-1.03,1.6-1.61,4.55,0.66,5.85
			c1.92,1.1,3.23-1.02,4.38-2.41c1.29-1.57,2.59-3.57,4.86-2.04c1.74,1.17,3.44,2.79,4.38,4.61c0.96,1.85-1.42,2.69-2.42,3.9
			c-1.22,1.47-0.94,3.03-0.68,4.72c0.46,3.02-3.21,11.31-5.63,11.83c-5.15,1.1-5.06,4.97-4.57,8.51c0.4,2.91,0.13,5.5-0.46,8.3
			c-2.33,11.17-1.19,12.9,10.08,16.92c3.01,1.07,5.61,2.77,4.75,6.53c-0.84,3.68-1.46,7.36-4.01,10.6
			c-4.68,5.93-1.2,16.2,5.88,18.25c2.33,0.67,3.51,2,3.9,4.55c-0.94-0.06-1.42-0.05-1.89-0.13c-1.51-0.26-3.56-1.99-4.34,0.18
			c-0.72,2.01,1.56,3.11,3.2,3.8c4.27,1.79,8.64,3.34,12.94,5.06c2.12,0.85,3.97,0.57,5.42-1.15c1.36-1.6,1.98-3.49,1.09-5.57
			c-1.29-3.04-3.15-5.41-6.67-6.15c-1.54-0.33-3.87-0.9-1.2-3.04c1.01-0.81,1.86-1.47,1.01-2.83c-0.95-1.5-2.25-2.59-4.09-2.36
			C969.24,322.42,967.69,322.99,965.86,323.47z M851.69,349.92c2-0.52,2.64,0.89,3.58,1.7c1.47,1.26,2.23,4.9,4.78,2.77
			c2.68-2.24-0.77-3.92-1.79-5.75c-0.24-0.42-0.65-0.76-1.01-1.09c-3.65-3.31-4.15-7.44-0.12-9.65c3.99-2.19,5.46-6.04,7.99-9.06
			c1.89-2.27,3.3-4.12,6.37-4.76c2.8-0.58,4.13-2.36,1.42-4.92c-0.71-0.67-1.74-1.42-0.78-2.41c0.44-0.45,1.54-0.43,2.31-0.34
			c0.98,0.11,1.91,0.6,2.89,0.76c1.47,0.23,3.27,0.62,3.76-1.32c0.4-1.6-1.19-2.17-2.36-2.78c-1.88-0.97-4.42-1.52-4.16-4.3
			c0.34-3.63,1.1-7.26,2.68-10.56c1.17-2.43,3.41-3.7,6.18-3.3c3.04,0.44,3.57,2.46,2.95,5.18c-0.35,1.54,0.55,2.84,2.05,2.85
			c3.56,0.01,3.64-3.42,4.78-5.6c1.04-1.98,0.02-3.67-2.18-4.11c-2.6-0.51-5.27-0.71-7.91-1.04c-1.88-0.24-3.73-0.91-2.16-3.08
			c2.48-3.41,4.68-7.63,10.15-6.58c1.95,0.38,3.3-0.1,3.53-2.32c0.45-4.31,2.68-3.51,5.02-1.62c2.17,1.76,4.13,3.51,6.93,1.01
			c1.04-0.93,2.65-0.65,2.81,0.68c0.63,5.24,3.51,2.89,6.2,2.22c1.78-0.44,3.05-1.04,3.73-2.81c0.56-1.46,2.48-2.45,2.99-1.16
			c1.82,4.64,5.6,2.37,8.54,2.99c2.37,0.5,3.43-0.18,1.94-2.53c-1.45-2.28-1.18-4.27,0.2-6.49c3.36-5.45,2.68-6.91-3.53-8.46
			c-2.15-0.54-4.27-0.17-6.42-0.2c-8.81-0.15-17.52,3.87-26.44,0.47c-2.24-0.85-4.58,0.4-6.66,1.52c-2.93,1.57-5.77,3.31-8.76,4.74
			c-2.63,1.26-4.36,3.21-6.18,5.48c-4.56,5.69-8.84,12.18-14.73,16.1c-10.63,7.07-21.2,13.84-30.81,22.51
			c-9.15,8.26-16.44,17.15-21.31,28.35c-0.95,2.19-0.93,7-3.69,6.11c-3.59-1.16,0.18-4.8-0.03-7.39c-0.11-1.38,1.19-3.3-0.7-3.96
			c-1.66-0.58-2.69,1.2-3.27,2.49c-1.63,3.64-2.99,7.4-4.5,11.1c-2.45,5.99-4.39,12.21-7.75,17.79c-1.66,2.76-0.73,5.12,0.9,7.39
			c0.69,0.97,1.77,1.96,2.93,1.05c2.28-1.79,0.61-3.93,0.21-5.95c-0.24-1.2-0.3-2.51,1.13-2.92c1.63-0.47,2.45,0.82,2.95,2.07
			c1.55,3.86,3.6,6.79,8.18,7.84c1.98,0.46,4.87,1.89,4.95,4.99c0.11,4.36,3.15,5.65,6.58,6.07c3.1,0.38,6.28,0.08,9.43,0.08
			c-0.08,1.55-0.89,1.78-1.67,2.05c-1.55,0.54-3.08,1.61-2.23,3.21c1.1,2.07,2.94,0.88,4.2-0.16c1.47-1.21,2.98-2.11,4.88-2.28
			c2.74-0.25,4.66-1.7,5.85-4.1c1.02-2.05,2.86-3.08,4.64-4.36c4.13-2.96,9.34-4.81,11.44-10.03c1.2-2.98,2.73-5.65,5.07-7.91
			c2.4-2.32,2.34-4.6,0.16-7.43C855.67,355.97,852.78,353.57,851.69,349.92z M982.92,701.87c0.14,0-1.2-0.05-2.53,0.01
			c-1.84,0.09-4.59-1.1-4.9,1.77c-0.31,2.88,2.39,4.08,4.72,4.05c3.21-0.03,6.26,0.79,9.4,1.01c12.56,0.9,19.11-7.78,15.05-19.84
			c-1.3-3.87-3.28-6.25-7.72-7.41c-5.6-1.46-10.43,0.39-15.61,1.23c-5.81,0.95-5.29,5.11-5.23,9.09c0.06,3.89,2.13,6.14,6.1,6.55
			c2.81,0.29,5.62,0.64,8.42,1.05c0.81,0.12,1.66,0.62,1.62,1.59c-0.05,1.07-1.02,1.21-1.85,1.2
			C988.38,702.15,986.38,702.02,982.92,701.87z M1009.43,318.08c4.24,0.11,6.55-1.91,5.17-5.04c-1.92-4.37-3.95-8.78-7.05-12.53
			c-1.22-1.48-3.01-2.18-4.38-0.94c-3.22,2.92-8.45,2.47-10.82,6.71c-0.75,1.33-2.04,1.28-2.79,0.02
			c-3.35-5.64-10.79-2.27-14.75-6.77c-0.82-0.93-2.51,0.23-3.39,1.33c-1.35,1.68-2.41,3.65-3.98,5.08
			c-3.42,3.11-2.98,6.16-0.03,8.98c3.04,2.9,6.42,4.15,10.04,0.56c2.51-2.48,5.14-2.91,8.98-2.13c7.34,1.51,15.22,0.31,22,4.63
			C1008.7,318.14,1009.1,318.06,1009.43,318.08z M1277.48,1091.94c1.01-0.31,1.06-1.16,1.31-1.95c1.6-5.03,5.09-5.96,8.78-2.23
			c1.5,1.51,2.68,3.35,3.9,5.12c0.99,1.44,1.83,1.94,2.83,0.06c1.34-2.51-0.44-12.19-3.03-14.07c-3.23-2.34-6.7-0.89-9.84,0.53
			c-1.64,0.75-3.02,2.19-5,1.58c-4.87-1.49-10.29,1.32-14.96-2.03c-0.74-0.53-2.07-0.08-2.64,0.83c-0.73,1.19,0.16,1.84,1.18,2.16
			c1.6,0.5,1.99,2.41,3.01,2.98c2.3,1.29,3.41,7.18,7.81,2.4c0.98-1.06,2.78,0.17,3.84,1.38
			C1275.62,1089.78,1275.79,1091.55,1277.48,1091.94z M1252.2,920.88c5.76-1.06,13.48,0.15,20.11-4.18
			c1.72-1.12,4.59-2.13,3.45-4.59c-1-2.17-3.79-1.31-5.9-0.92c-0.32,0.06-0.62,0.25-0.94,0.33c-10.43,2.7-20.88,4.96-31.66,1.7
			c-1.18-0.36-2.65-0.07-3.91,0.23c-1.33,0.31-3.53-0.18-3.57,1.83c-0.04,1.72,2.01,2.03,3.35,2.5
			C1238.82,919.74,1244.65,920.93,1252.2,920.88z M980.04,813.13c0.19-7.52-3.2-10.59-10.56-9.56c-0.82,0.12-1.65,0.17-2.47,0.28
			c-3.3,0.43-5.56,1.87-5.85,5.56c-0.27,3.42,0.87,5.76,4.29,6.85c1.88,0.6,3.79,1.24,5.53,2.18
			C977.3,821.84,979.85,820.39,980.04,813.13z M725.99,965.96c-5.38-1.15-10.25-1.04-14.54-3.66c-0.94-0.58-2.56-0.95-3.17,0.23
			c-0.76,1.46,0.84,1.81,1.84,2.33c5.71,3.03,11.69,5.28,18.05,6.5c2.17,0.42,4.34,0.36,6.42-0.29c1.68-0.53,2.15-1.56,0.43-2.78
			c-1.36-0.97-4.47-0.08-4.08-2.61c0.32-2.04,3.14-1.2,4.76-1.88c0.45-0.19,0.88-0.4,2.01-0.91c-10.83-2.75-20.79-4.47-29.31-10.25
			c-1.17-0.8-2.67-1.01-3.5,0.45c-0.86,1.51,0.15,2.62,1.5,3.11c4.77,1.72,9.05,4.67,14.17,5.49
			C722.74,962.05,724.79,962.69,725.99,965.96z M1260.77,1007.54c3.17,0.22,3.58-1.92,4.2-4.38c1.55-6.2,1.05-12.77,3.6-18.81
			c0.96-2.29-0.5-3.5-2.81-3.26c-1.63,0.17-3.25,0.66-4.83,1.13c-1.42,0.43-3.09,0.89-3.12,2.72c-0.03,1.99,1.7,2.15,3.19,2.39
			c1.61,0.26,3.35,0.63,1.81,2.72c-2.69,3.64-2.95,8.29-5.52,12.05C1254.93,1005.54,1256.53,1007.64,1260.77,1007.54z
			 M1269.26,1045.79c-0.02,2.3-1.93,2.97-3.3,4.08c-1.4,1.13-3.51,2.12-2.63,4.28c0.99,2.44,3.12,0.97,4.8,0.71
			c0.82-0.13,1.61-0.45,2.43-0.55c1.6-0.18,3.32-0.34,2.3,2.21c-0.48,1.21-0.74,2.33,0.83,2.82c1.36,0.42,2.69,0.14,3.67-0.92
			c0.94-1.02,0.82-2.43-0.11-3.16c-2.33-1.83-1.9-4.3-2.27-6.74c-0.53-3.51-2.77-6.52-5.48-8.46c-2.31-1.65-5.09,0.21-7.38,1.61
			c-1.02,0.62-2.02,1.44-1.53,2.8c0.45,1.27,1.72,1.34,2.89,1.58C1265.42,1046.42,1267.25,1044.55,1269.26,1045.79z M1237.61,906.17
			c2.87,0.81,6.61-1.12,10.52-1.79c1.44-0.25,2.24-1.41,2.26-2.92c0.01-1.24-0.51-2.3-1.56-2.97c-1.36-0.86-2.57-0.37-3.57,0.7
			c-1.26,1.35-2.54,2.44-4.55,2.76c-6.8,1.06-8.99-0.51-12.14-9c-0.49-1.32-0.09-4.05-2.78-2.89c-1.96,0.84-2.35,3.34-1.3,4.76
			c2.13,2.86,4.1,5.41,3.17,9.34c-0.27,1.14,1.55,1.56,2.7,1.66C1232.35,906,1234.35,906.02,1237.61,906.17z M1268.99,1064.31
			c-0.83-0.04-1.66-0.15-2.49-0.1c-1.46,0.09-3.36-0.07-3.75,1.71c-0.44,2.04,1.7,2.07,2.93,2.72c3.74,1.98,8.08,1.53,12,2.95
			c1.97,0.71,3.39-1.05,3.98-2.94c0.7-2.24,1.35-4.7-0.56-6.57c-1.45-1.42-3.18-0.33-4.57,0.53
			C1274.18,1064.05,1271.79,1065.04,1268.99,1064.31z M1009.77,321.53c-2.07,0.02-3.72,0.77-5.27,1.74
			c-1.57,0.98-3.35,2.12-1.65,4.26c2.35,2.95,6.65,3.35,8.85,6.71c0.5,0.76,2.2-0.34,2.86-1.29c1.65-2.38,2.65-5.07,1.61-7.9
			C1015.09,322.1,1012.23,321.88,1009.77,321.53z M1260.65,930.73c0.33-0.05,0.68-0.04,0.97-0.17c5.5-2.59,11.04-5.09,16.43-7.88
			c1.54-0.8,2.02-2.77,1.04-4.39c-1.07-1.76-3.01-1.76-4.34-0.61c-4.57,3.96-10.02,6.37-15.28,9.14c-0.86,0.45-1.84,1.09-1.57,2.27
			C1258.23,930.47,1259.46,930.63,1260.65,930.73z M985.85,321.99c0-0.01,0-0.02,0-0.03c-0.49,0-0.99,0-1.48,0
			c-2.07-0.02-4.67-0.88-5.31,2.07c-0.55,2.53-1.04,5.5,1.88,7.06c2.45,1.31,5.05,1.5,7.19-0.94c0.64-0.73,1.4-1.4,2.2-1.95
			c1.6-1.09,3-2.43,2.27-4.44c-0.66-1.84-2.63-1.67-4.27-1.77C987.5,321.95,986.67,321.99,985.85,321.99z M1247.23,966.22
			c7.72,4.83,20.7,2.92,22.82-3.73C1262.29,963.08,1254.62,963.03,1247.23,966.22z M1259.8,978.06c4.21,0.29,7.89-0.9,10.92-3.88
			c1.01-0.99,1.55-2.21,0.78-3.59c-0.65-1.15-2.19-1.91-2.9-1.16c-3.47,3.68-7.94,2.59-12.12,3.04c-1.36,0.15-2.66,0.81-2.76,2.4
			c-0.1,1.74,1.04,2.8,2.62,3.14C1257.45,978.25,1258.64,978.06,1259.8,978.06z M703.88,934.41c2.21,2.72,3.7,4.65,2.57,7.35
			c-0.38,0.9,0.25,2.09,1.18,2.55c4.15,2.05,7.91,4.91,12.52,5.97c1.28,0.29,2.81,0.6,3.54-0.9c0.86-1.76-0.45-3.01-1.75-3.6
			c-3.16-1.44-6.43-2.67-9.72-3.77C708.59,940.8,709.25,935.59,703.88,934.41z M1253.71,1026c2.27-0.47,5.26-0.82,8.07-1.75
			c1.92-0.64,3.46-2.34,2.89-4.63c-0.53-2.13-2.57-2.27-4.43-2.46c-4.1-0.42-5.86,3.36-8.85,4.92c-0.96,0.5-1.97,1.52-1.41,2.86
			C1250.54,1026.3,1251.92,1025.88,1253.71,1026z M1253.14,1057.44c-2.19-1.18-1.17-4.49-2.95-6.11c-1.78-1.62-4.48-2.84-6.87-1.83
			c-2.54,1.07-2.76,3.97-2.83,6.44c-0.04,1.59,1.06,2.88,2.67,3.18c1.66,0.32,1.69-1.18,1.95-2.28c0.68-2.95,1.95-2.07,3.25-0.48
			c0.72,0.89,1.23,1.98,2.03,2.78c0.36,0.36,1.23,0.39,1.83,0.29C1252.91,1059.32,1253.26,1058.71,1253.14,1057.44z
			 M1232.08,1081.89c1.74,0.02,3.09-0.58,3.48-2.29c0.69-3.03,1.65-5.6,5.2-6.47c1.32-0.32,1.55-2.04,1.17-3.44
			c-0.34-1.26-1.28-1.95-2.52-2.07c-1.55-0.15-2.47,0.7-2.89,2.16c-0.32,1.09-0.35,2.75-1.68,2.77c-5,0.07-3.43,4.41-4.63,6.89
			C1229.32,1081.25,1230.65,1081.75,1232.08,1081.89z M1227.99,949.97c3.2,1.94,6.65,3.17,10.33,4c2.04,0.46,3.89,2.01,6.12,0.85
			c1.29-0.67,2.98-1.21,2.8-3.04c-0.17-1.7-1.83-1.67-3.09-1.85c-4.24-0.61-8.49-1.19-12.75-1.67
			C1230.16,948.12,1228.72,948.02,1227.99,949.97z M727.9,983.11c-4.91-1.94-8.69-6.11-14.14-6.5c-1.46-0.1-3.27-0.72-3.88,1.07
			c-0.58,1.71,1.07,2.58,2.34,3.32C717.12,983.83,722.59,982.9,727.9,983.11z M735.18,915.3c3.07,0.02,6.64-2.15,10.37-3.86
			c0.78-0.36,1.2-1.14,0.84-2.06c-0.34-0.88-1.16-1.33-1.98-1.15c-3.98,0.89-7.96,1.82-11.88,2.93c-1.15,0.33-1.76,1.56-1.36,2.84
			C731.58,915.35,732.75,915.51,735.18,915.3z M1257.52,1041.82c-0.37-0.41-0.77-1.26-1.21-1.29c-4.07-0.24-7.02-2.18-9.27-5.5
			c-0.43-0.63-1.53-0.56-2.24,0.09c-0.72,0.66-0.65,1.51-0.32,2.28c1.68,3.9,4.6,6.5,8.78,7.2
			C1254.97,1044.89,1256.89,1044.28,1257.52,1041.82z M1267.43,1033.33c-0.14-2.53-0.9-5.18-3.93-5.21
			c-3.44-0.04-3.76,3.27-4.23,5.75c-0.54,2.82,1.61,3.81,3.9,3.91C1265.96,1037.88,1267.34,1036.21,1267.43,1033.33z M928.4,306.94
			c0.75-0.2,1.87-0.47,2.97-0.82c2.13-0.68,3.23-2.19,3.42-4.39c0.09-1.08-0.28-1.98-1.31-2.43c-1.99-0.86-3.49,0.13-4.91,1.39
			c-0.62,0.55-1.33,0.99-1.93,1.55c-0.95,0.89-3.44,0.73-2.5,2.9C924.77,306.55,926.44,306.93,928.4,306.94z M735.61,874.26
			c-1.32,0.08-2.66,0.04-3.96,0.26c-1.45,0.24-3.28,0.52-2.95,2.54c0.3,1.8,2.03,2,3.56,1.93c1.81-0.09,3.62-0.34,5.42-0.58
			c1.58-0.22,3.81-0.02,3.77-2.23c-0.05-2.26-2.24-1.94-3.85-2C736.94,874.14,736.27,874.22,735.61,874.26z M879.48,303.91
			c-0.13,2.98,0.1,5.57,3.41,5.94c1.93,0.21,2.85-1.6,2.28-3.02c-0.88-2.17,1.04-5.95-3.04-6.36
			C879.53,300.21,879.34,302.25,879.48,303.91z M1256.06,869.09c0.01-1.41-0.42-3.08-1.63-2.6c-2.62,1.03-5.9,1.63-6.93,4.8
			c-0.6,1.84,0.91,2.78,2.6,2.58C1253.05,873.5,1255.34,872.09,1256.06,869.09z M697.4,1072.71c-0.49-1.99-1.4-3.93-3.66-4.12
			c-2.61-0.22-3.28,1.93-3.39,3.99c-0.13,2.42,1.58,3.07,3.63,2.96C695.73,1075.46,697.29,1074.97,697.4,1072.71z M1247.9,1061.02
			c-2.25,0.02-3.16,1.19-3.16,3.14c0.01,2.06,0.82,3.66,3.1,3.69c2.33,0.03,3.8-1.27,3.67-3.69
			C1251.38,1061.94,1249.72,1061.19,1247.9,1061.02z M1238.6,1041.51c-1.87-2-2.88-4.43-3.99-6.83c-0.44-0.97-1.06-2.41-2.56-1.62
			c-1.21,0.64-1.24,2.06-0.74,3.11c0.99,2.07,2.17,4.07,3.44,5.99c0.59,0.89,1.73,0.98,2.72,0.55
			C1237.86,1042.55,1238.11,1042.05,1238.6,1041.51z M761.95,888.87c-2.08,0.13-2.97,1.34-2.98,3.22c-0.01,2.13,1.05,3.53,3.27,3.36
			c1.9-0.15,3.62-1.04,3.36-3.36C765.36,890.06,763.97,888.98,761.95,888.87z M721.58,974.78c-3.06-2.96-5.55-4.97-8.89-5.69
			c-0.98-0.21-2.21-0.46-2.72,0.53c-0.67,1.27,0.35,2.37,1.37,2.8C714.29,973.68,717.37,974.56,721.58,974.78z M759.78,904.1
			c2.33-0.29,4.75-0.58,4.9-3.67c0.07-1.47-0.96-2.73-2.42-2.53c-2.54,0.35-4.72,1.89-5.34,4.37
			C756.5,903.97,758.5,903.91,759.78,904.1z M1019.93,264.43c-0.65-2.39-2.55-3.47-5.03-3.63c-1.55-0.1-2.67,0.7-2.32,2.35
			c0.55,2.63,2.69,3.63,5.07,3.93C1019.22,267.29,1020.02,266.27,1019.93,264.43z M1243.23,887.83c-2.08-1.15-4.01-1.57-5.7-2.68
			c-1.1-0.72-2.28-1.58-3.61-0.54c-1.08,0.85-1.02,2.03-0.46,3.15c0.74,1.49,1.98,2.26,3.65,1.84
			C1239.18,889.08,1241.2,888.42,1243.23,887.83z M1225.79,954.6c0,0-0.7,0.15-0.69,1.01c0.02,0.92,0.7,1.63,1.52,1.75
			c3.65,0.53,7.12,1.57,10.49,3.07c0.45,0.2,1.39-0.06,1.75-0.45c0.54-0.57,0.13-1.31-0.56-1.53
			C1234.36,957.2,1230.4,956.01,1225.79,954.6z M739.7,927.82c-0.75-0.08-1.72-0.24-2.7-0.27c-1.3-0.04-2.98-0.16-3.11,1.53
			c-0.15,1.84,1.6,1.85,2.86,1.75c2.11-0.16,4.22-0.49,6.29-0.91c0.47-0.1,1.06-0.81,1.14-1.31c0.12-0.77-0.67-1.09-1.33-1.09
			C741.88,927.52,740.9,927.69,739.7,927.82z M715.59,988.4c1.21,2.11,3.58,2.45,5.68,3.11c1.07,0.34,2.9,0.4,2.84-0.96
			c-0.14-2.96-3.11-2.89-5.12-3.64C717.81,986.48,716.34,986.44,715.59,988.4z M713.39,926.79c-0.81-2.41-3.43-2.15-5.16-3.24
			c-1.04-0.66-2.28-1.64-3.61-0.55c-0.56,0.46-0.52,1.28,0.05,1.74c2.06,1.65,4.13,3.34,6.94,3.48
			C712.48,928.26,713.22,927.92,713.39,926.79z M1270.09,957.76c-0.05-1.17-0.48-2.43-2.15-2.5c-1.83-0.08-4.08-0.1-4.51,2.09
			c-0.37,1.9,1.71,2.11,3.11,2.47C1268.13,960.22,1269.53,960.01,1270.09,957.76z M943.19,300.48c-0.8-2.1-1.75-4.26-4.49-4.59
			c-1.1-0.13-2.1,0.61-1.98,1.74c0.29,2.7,2.7,3.61,4.67,4.64C942.56,302.89,943.11,301.79,943.19,300.48z M891.34,375.37
			c0.94,1.32-0.19,4.25,2.69,4.74c1.32,0.22,1.81-1.3,1.78-2.46c-0.05-2.14-1.31-3.82-3.14-4.57
			C891.22,372.47,891.42,374.02,891.34,375.37z M743.11,940.17c-3.36-0.43-5.6-0.86-7.87-0.96c-1.16-0.05-2.42,0.62-2.18,2.07
			c0.19,1.17,1.41,1.31,2.4,1.18C737.7,942.16,740.02,942.05,743.11,940.17z M1121.15,369.25c-0.22-2.19-1.82-2.89-3.71-3.16
			c-1.17-0.17-1.96,0.43-1.81,1.66c0.25,2.01,1.53,3.24,3.46,3.62C1120.62,371.66,1121.07,370.59,1121.15,369.25z M1252.32,1079.58
			c1.35-0.12,2.4-0.66,2.27-2.07c-0.16-1.75-1.51-2.43-3.1-2.52c-1.07-0.06-2.02,0.37-1.89,1.65
			C1249.76,1078.26,1250.75,1079.27,1252.32,1079.58z M742.96,954.59c-2.16-1.79-4.47-1.71-6.82-0.68c-0.68,0.3-0.73,1.34-0.06,1.61
			C738.39,956.47,740.78,957.14,742.96,954.59z M1248.95,944.05c1.46-0.07,2.83-0.52,3-2.07c0.2-1.86-1.36-2.03-2.72-2.07
			c-1.22-0.04-2.53,0.23-2.71,1.63C1246.29,943.18,1247.49,943.85,1248.95,944.05z M742.01,948.65c0.14-1.47-0.93-1.65-1.89-1.72
			c-1.43-0.1-3.16-0.41-3.58,1.54c-0.25,1.16,0.85,1.68,1.85,1.85C739.96,950.6,741.3,950.23,742.01,948.65z"/>
		<path d="M914.08,989.68c1.66,0,3.46,0.42,4.97-0.06c16.14-5.14,32.3-1.17,48.45-0.3c5.49,0.3,10.99,0.44,16.48,0.6
			c3.51,0.1,6.98,0.41,10.34,1.54c1.09,0.37,2.38,0.84,3.4,0.59c10.7-2.63,21.27,1.31,31.99,0.54c6.32-0.45,12.3,3.36,18.91,3.29
			c11.19-0.11,21.69,4.36,32.73,5.59c4.38,0.49,8.74,2.11,11.7,5.95c0.4,0.53,0.8,1.15,1.35,1.46c6.05,3.36,9.87,7.03,4.32,14.26
			c-1.66,2.17,1.18,4.06,3.58,4.84c12.14,3.95,24.26,7.98,36.43,11.82c12.85,4.05,25.66,8.24,38.66,11.75
			c9.18,2.48,18.04,5.8,27.11,8.55c2.63,0.8,4.86,2.12,6.92,3.85c1.45,1.22,3.08,2.59,1.55,4.56c-1.47,1.89-3.42,0.99-4.87-0.21
			c-4.69-3.87-10.03-6.45-15.66-8.65c-12.27-4.79-25.2-7.3-37.68-11.36c-9.62-3.13-19.27-6.21-28.89-9.23
			c-6.49-2.04-13.39-3.6-20.19-4.95c-3.05-0.61-5.66-1.75-8.07-3.66c-5.72-4.52-6.01-5.58-1.46-11c2.81-3.35,0.35-5.38-1.63-7.12
			c-3.39-2.99-7.51-5.05-11.81-6.37c-23.08-7.05-46.82-9.63-70.84-10.13c-17.96-0.37-35.82-2.42-53.74-3.35
			c-16.42-0.86-32.98-1.57-49.27,2.08c-5.3,1.19-9.21,3.9-10.04,9.65c-0.76,5.23-3.26,8.13-8.91,7.72
			c-3.9-0.28-7.55,1.21-11.23,2.19c-14.97,3.96-30.33,5.82-45.47,8.74c-12.55,2.42-24.95,6.9-36.58,12.77
			c-1.63,0.82-3.72,1.99-3.65,3.83c0.23,6.25-4.76,7.74-8.79,9.36c-5.72,2.3-11.43,5.19-17.92,4.9c-1.18-0.05-2.33,0.18-3.28,0.99
			c-1.42,1.21-2.84,2.6-4.78,0.99c-1.39-1.15-1.82-2.78-1.69-4.51c0.18-2.32,1.65-3.54,3.79-4.05c4.7-1.13,9.41-2.41,14.25-2.36
			c5.69,0.06,9.44-2.99,11.13-7.7c1.54-4.31,4.7-5.79,8.2-7.15c20.1-7.81,40.9-12.86,62.27-15.74c10.87-1.47,21.35-4.81,31.98-7.41
			c1.35-0.33,2.64-0.97,2.95-2.41C893.95,991.29,902.17,990.23,914.08,989.68z"/>
		<path d="M754.44,1096.68c13.42,0.69,26.4-3.17,39.67-3.87c8.3-0.44,16.49-1.9,24.72-2.81c20.65-2.28,41.7-0.21,62.03-5.43
			c9.47-2.43,19.34-2.97,28.59-6.31c2.27-0.82,4.06-2.25,5.56-4.1c2.7-3.33,6.46-4.91,10.49-5.04c10.29-0.31,20.6-0.45,30.89-0.15
			c5.66,0.16,11.25-0.57,16.95-0.16c14.75,1.08,29.54,1.53,44.32,2.17c15.35,0.66,30.37,3.88,45.54,5.84c3.5,0.45,7.07,1.8,5.5,6.89
			c-0.76,2.46,0.9,3.33,2.97,3.48c5.47,0.4,10.93,1.71,16.43,0.73c6.42-1.15,12.55,1.09,18.84,1.31c0.98,0.03,2.17,0.37,2.06,1.66
			c-0.13,1.39-1.64,1.49-2.31,1.06c-3.45-2.25-6.57,0.21-9.78,0.27c-11.26,0.2-22.64,0.93-33.76-1.76
			c-3.91-0.94-6.58-2.61-3.69-7.34c1.77-2.9-0.75-3.89-2.96-4.28c-4.09-0.72-8.22-1.37-12.36-1.67c-18.73-1.35-37.45-2.79-56.2-3.76
			c-14.02-0.72-28.14-0.04-42.08-1.38c-7.79-0.75-14.77,0.64-21.95,2.63c-1.65,0.46-3.62,0.83-4.14,2.45
			c-1.45,4.53-5.43,5.16-9.02,6.01c-12.13,2.84-24.34,5.23-36.76,6.53c-12.58,1.31-25,3.85-37.66,4.6
			c-11.13,0.66-22.23,1.77-33.36,2.34c-7.33,0.38-14.5,1.92-21.72,2.89c-10.26,1.38-20.57,1.51-30.82,2.69
			c-2.88,0.33-7.69,1.45-7.84-2.63c-0.14-3.65,4.63-2.42,7.39-2.81C751.42,1096.51,752.94,1096.68,754.44,1096.68z"/>
		<path d="M1099.71,448.84c-0.3,2.47-0.85,4.66,1.27,5.06c5.86,1.12,2.89,3.78,1.15,6c-2.65,3.38-4.49,6.1-0.64,10.37
			c2.21,2.46,3.29,6.45,3.42,10.25c0.08,2.46,1.3,5.15-3.07,5.07c-2.23-0.04-1.74,1.94-0.72,2.79c3.08,2.58,1.47,5.25,1.32,8.4
			c-0.26,5.43-1.7,10.68-1.73,16.04c-0.02,3.42-0.23,6.66-1.67,9.72c-3.08,6.54-2.92,13.07-0.85,19.92
			c3.22,10.67,2.97,21.81,2.51,32.72c-0.23,5.4,2.72,9.63,2.67,14.75c-0.09,10.31,3.22,20.88-5.19,30.07
			c-3.6,3.94-4.1,10.06-3.66,15.41c0.32,3.92-0.47,5.51-4.34,6.04c-3.74,0.51-6.34,2.58-8.65,5.93
			c-4.34,6.28-10.32,11.49-18.21,11.91c-6.32,0.33-10.47,3.6-14.86,7.08c-1.93,1.53-4.66,4.39-6.24,2.35
			c-2.24-2.9,1.85-3.97,3.66-5.7c5.25-5.01,12.89-6.26,17.89-11.65c0.94-1.02,2.51-1.68,4.1-1.55c6.84,0.55,11.58-2.26,14.31-8.73
			c0.88-2.1,2.79-3.28,3.95-5.1c1.14-1.79,1.95-3.71,0.37-5.51c-1.47-1.67-3.11-0.35-4.53,0.39c-4.98,2.58-10.57,4.01-14.72,8.2
			c-1.34,1.35-3.53,2.2-5.56,1.23c-1.63-0.78-0.67-2.33-0.5-3.58c0.31-2.29,0.18-4.89,3.32-5.4c11.04-1.77,18.5-9.7,27.33-15.43
			c9.98-6.48,9.28-15.34,7.06-24.53c-1.07-4.43,1.42-8.75-1.04-13.19c-1.59-2.87-2.11-5.32-5.86-2.92
			c-0.82,0.53-1.94,0.94-2.74,0.02c-1.02-1.17-0.27-2.33,0.66-3.01c6.44-4.7,6.7-11.12,6.06-18.33c-0.31-3.51,0.39-6.49-2.14-9.94
			c-2.02-2.76-1.11-7.58-0.05-11.17c2.03-6.84,0.87-13.86,1.96-20.73c1.64-10.33-1.21-20.88,1.29-31.2
			c1.58-6.52-2.51-11.14-5.65-15.89c-2.79-4.23-4.24-9-6.51-13.42c-0.58-1.12-1.21-2.72,0.06-3.71c1.48-1.15,2.96,0.01,3.99,0.98
			c1.44,1.34,2.54,3.05,3.86,4.54c0.99,1.12,2.14,2.6,3.73,1.9c2.07-0.92,0.53-2.55,0.19-3.87c-1.12-4.32-0.41-8.99-2.54-13.14
			c-0.4-0.79-0.67-2.12,0.73-2.42c1.16-0.25,1.92,0.77,2.16,1.69C1098.09,441.53,1098.96,445.57,1099.71,448.84z"/>
		<path d="M1138.49,401.52c-1.69,0.67-3.21-0.43-4.82-0.55c-1.36-0.1-2.83-0.27-3.33,1.37c-0.47,1.54,0.55,2.73,1.79,3.19
			c4.55,1.69,8.58,4.96,14.05,3.94c3.02-0.56,5.4,0.6,5.42,4.63c0.01,4.49,4.48,5.72,7.15,8.13c2.37,2.13,3.65-0.68,5.23-2
			c1.53-1.28,3.3-2.22,5.81-1.85c-1.17,2.73-2.09,5.46-3.48,7.93c-1.17,2.08-3.24,2.84-5.6,1.81c-1.53-0.67-3.1-1.06-4.74-1.41
			c-3.4-0.73-6.25-1.82-5.6,3.85c0.33,2.83-7.92,8.95-11.56,8.99c-5.78,0.06-10.26,2.47-13.87,6.77c-1.46,1.74-3.03,3.05-5.51,2.75
			c-2.72-0.34-3.96,2.18-5.99,3.19c-1.47,0.74-3.5,1.75-4.37-0.13c-0.79-1.71,1.41-2.47,2.71-2.88c3.41-1.08,7.17-1.24,8.2-5.93
			c0.36-1.64,2.66-0.54,4.09-0.58c1.93-0.05,3.79-0.36,4.46-2.45c0.65-2.03-0.36-3.61-2.08-4.62c-4.24-2.49-7.44-5.2-8.27-10.82
			c-0.59-4.04-4.97-6.85-6.86-10.84c-2.11-4.45-1.94-9.4-3.72-13.89c-0.47-1.19,0.09-2.8,1.6-3.27c1.85-0.57,2.19,1,2.59,2.26
			c3.14,10.01,9.27,18.62,13.21,28.26c0.8,1.95,2.28,2.77,4.32,2.73c1.17-0.02,2.42,0,3.11-1.16c0.8-1.33,0.4-2.71-0.56-3.68
			c-5.13-5.19-7.07-11.46-6.55-18.61c0.19-2.67-3.65-4.96-0.86-7.83c1.38-1.42,2.05-3.85,5.08-3.09
			C1133.23,396.67,1138.13,395.39,1138.49,401.52z M1141.96,414.53c-1.81,0.08-3.16,1-2.67,2.38c1.15,3.24,4.77,3.45,7.33,4.88
			c1.13,0.63,2.51-1.13,2.03-2.54C1147.57,416.06,1144.46,415.51,1141.96,414.53z"/>
		<path d="M1117.84,287.92c0.01,12.27,7.94,20.21,15.32,28.73c7.02,8.1,15.71,14.62,21.78,23.58c0.53,0.79,1.43,1.46,2.3,1.88
			c8.62,4.16,12.77,12.25,17.53,19.81c1.68,2.67,3.26,5.47,5.36,7.79c2.37,2.63,5.69,4.68,1.81,8.52c-0.27,0.26-0.34,1.04-0.15,1.4
			c5.04,9.61,1.66,19.63,1.38,29.47c-0.16,5.69-3.05,8.34-7.49,8c-0.79-0.06-1.91-0.18-2.26-0.69c-0.72-1.06,0.4-1.73,1.08-2.43
			c1.17-1.21,3.85-1.8,2.66-4.1c-1.03-1.98-3.28-0.86-5.04-0.8c-1.32,0.04-2.98,0.58-3.77-0.59c-1-1.48,0.39-2.78,1.21-3.99
			c1.41-2.06,2.82-4.11,4.29-6.12c2.7-3.71,2.99-11.87,0.27-15.64c-1.55-2.16-1.94-4-0.39-6.35c1.95-2.95,1.27-5.86-0.27-8.94
			c-3.33-6.63-8.07-11.91-13.2-17.26c-12.45-12.98-25.1-25.75-37.82-38.45c-7.48-7.47-8.45-17.01-9.02-26.7
			c-0.14-2.4-0.23-4.77-1.77-6.59c-2.2-2.6-3.47-5.57-4.83-8.63c-2.04-4.59-4.69-8.87-10.32-10c-1.44-0.29-3.11-1.09-2.67-3
			c0.49-2.13,2.37-2.02,4.07-1.74c5.34,0.9,8.26,5.34,10.63,9.14c2.59,4.15,4.84,8.64,7.31,12.94
			C1117.71,280.4,1118.01,284.12,1117.84,287.92z"/>
		<path d="M1057,638.32c-1.93,10.82-11.43,10.26-17.93,14.13c-0.52-1.86,0.78-1.9,1.55-2.33c1.07-0.6,2.08-1.31,1.83-2.67
			c-0.26-1.42-1.61-1.36-2.72-1.72c-8.81-2.84-17.48-6.12-26.68-7.62c-1.38-0.22-1.64-1.42-2.11-2.51
			c-1.95-4.47-4.98-6.51-10.23-5.69c-13.39,2.09-26.53-0.79-39.67-2.76c-6.55-0.98-12.95-2.46-19.71-2.46
			c-6.87,0-12.01-4.39-16.5-9.26c-0.83-0.9-0.97-2.18-0.15-3.25c0.97-1.27,2.46-1.41,3.57-0.53c11.75,9.32,26.64,7.94,40.03,11.49
			c10.69,2.83,21.81,3.73,33.13,3.26c4.96-0.2,11.18,0.5,15.47,5.37c2.35,2.66,5.81,4.47,9.37,5.52c2.16,0.64,5.41,2,3.14-2.73
			c-0.5-1.04-0.3-2.04,0.94-2.35c0.89-0.23,1.73,0.25,1.9,1.18c1.03,5.71,5.85,5.67,9.93,6.31
			C1047.05,640.47,1051.99,639.92,1057,638.32z"/>
		<path d="M1050.24,303.29c2.14-10.18,0.72-20.22,1.91-30.12c0.65-5.38,3.76-7.58,8.43-8.18c3.12-0.4,5.83-1.2,7.92-3.64
			c1.76-2.05,4.14-2.78,6.73-2.71c3.36,0.09,6.59,0.02,9.64-1.83c1.53-0.93,3.52-0.69,4.2,1.24c0.66,1.89-1.09,2.64-2.55,2.99
			c-3.05,0.72-5.92,2.36-9.23,1.82c-0.64-0.1-1.43-0.17-1.97,0.11c-5.83,2.98-11.83,5.7-17.35,9.18c-3.5,2.2-3.45,10.96-0.19,13.77
			c1.88,1.62,1.71,2.32,0.47,4.34c-1.7,2.77-2.34,5.83,0.79,8.8c2.84,2.71,0.52,6.22-0.05,9.29c-0.27,1.46-2.05,1.77-3.34,1
			C1053.17,307.86,1050.04,306.78,1050.24,303.29z"/>
		<path d="M955.38,775c-2.01-0.6-2.05-2.23-1.49-3.93c4.67-14.19,9.35-28.38,14.13-42.54c0.68-2.02,1.8-3.93,2.94-5.75
			c0.75-1.21,1.73-2.91,3.47-2.11c1.83,0.84,0.97,2.6,0.49,3.96c-1.15,3.29-2.31,6.59-3.65,9.81c-5.05,12.13-9.42,24.49-12.68,37.23
			C957.97,774.11,956.98,775.18,955.38,775z"/>
		<path d="M1025.93,655.63c-0.44,2.08-2.02,2.5-3.34,2.97c-13.46,4.74-27.29,6.8-41.55,5.51c-0.65-0.06-1.38-0.12-1.93-0.44
			c-1.79-1.02-5.1-1.44-4.6-3.77c0.64-3.02,3.56-1.03,5.47-0.86c13.95,1.23,27.86,2.17,41.34-3.03
			C1022.69,655.49,1024.07,654.76,1025.93,655.63z"/>
		<path d="M1064.77,698.8c1.58,0.31,1.45,1.52,1.18,2.68c-1.77,7.69-4.84,14.93-9.48,21.2c-3.34,4.51-5.7,9.79-10.11,13.49
			c-1.08,0.91-2.46,2.81-3.71,1.63c-1.76-1.66,0.56-2.75,1.54-3.9c7.48-8.81,13.29-18.56,16.61-29.69
			C1061.69,701.27,1063.42,698.77,1064.77,698.8z"/>
		<path d="M885.78,461.87c-0.91-0.56-1.01-1.51-0.67-2.2c3.78-7.62,3.58-16.09,5.34-24.14c0.29-1.34,0.38-3.39,2.48-3.02
			c1.64,0.29,1.56,2.05,1.37,3.32c-1.18,8.02-3.51,15.77-5.88,23.5C888.06,460.5,887.44,461.87,885.78,461.87z"/>
		<path d="M1072.29,282.91c2.44,0.68,4.75,1.38,5.06,4.23c0.2,1.83-4.94,7.95-6.45,7.63c-3.24-0.69-4.52-3.84-4.62-6.28
			C1066.14,285.1,1069.43,283.83,1072.29,282.91z"/>
		<path d="M1082.77,441.07c0.01,2.17-0.84,2.66-2.48,1.7c-0.41-0.24-0.85-0.63-1.04-1.05c-2.79-6.11-7.4-10.99-11.02-16.54
			c-0.62-0.96-1.4-2.11-0.19-3.11c0.76-0.62,1.73-0.11,2.13,0.61c3.11,5.66,7.67,10.23,11.51,15.33
			C1082.34,438.9,1082.47,440.19,1082.77,441.07z"/>
		<path d="M912.66,507.02c-3.83,6.81-9.81,11.76-14.25,17.94c-0.64,0.88-1.53,2.26-2.76,1.27c-1.22-0.97-0.09-2.05,0.61-2.96
			C900.92,517.2,905.56,511.13,912.66,507.02z"/>
		<path d="M963.8,355.5c0.31,0.08,0.85,0.09,0.89,0.24c1.77,6.37,6.08,10.64,11.47,14.06c0.73,0.47,1.01,1.35,0.58,2.19
			c-0.45,0.86-1.28,0.87-2.14,0.7C970.94,371.93,963.06,359.42,963.8,355.5z"/>
		<path d="M1011.39,610.61c-6.28,0.57-12.56,1.1-18.91,0.29c-0.5-0.06-1.3-0.82-1.29-1.25c0.01-1.27,1.16-1.56,2.14-1.52
			c6.02,0.25,12.04,0.59,18.07,0.89C1011.4,609.55,1011.39,610.08,1011.39,610.61z"/>
		<path d="M1022.03,608.74c3.62-1.36,7.24-2.73,10.86-4.07c0.67-0.25,1.35-0.1,1.69,0.56c0.37,0.71-0.07,1.38-0.63,1.69
			C1030.28,608.92,1026.43,610.17,1022.03,608.74z"/>
		<path d="M879.3,478.4c-0.81-4.36,1.72-7.95,2.79-11.88c0.26-0.94,0.9-2.01,2.07-1.7c1.52,0.4,1.48,2.12,0.89,2.83
			c-2.63,3.19-2.52,7.86-5.85,10.62C879.21,478.28,879.3,478.4,879.3,478.4z"/>
		<path d="M1071.41,646.64c-0.84-0.06-1.27-0.7-1.04-1.32c1.02-2.86,3.95-4.14,5.64-6.48c0.35-0.49,1.22,0.09,1.46,0.79
			C1077.68,640.25,1072.07,646.69,1071.41,646.64z"/>
		<path d="M1042.98,603.58c-1.21,0.03-2.34-0.1-2.23-1.07c0.25-2.15,2.12-2.81,3.9-3.27c1.04-0.27,2.26,0.09,2.1,1.37
			C1046.46,602.87,1044.31,602.99,1042.98,603.58z"/>
		<path d="M792.39,876.44c-5.19,1.84-8.17-1.31-11.48-3.06c-0.91-0.48-0.91-1.73-0.07-2.57c0.98-0.98,2.18-0.81,3.18-0.16
			C786.61,872.34,789.13,874.17,792.39,876.44z"/>
		<path d="M967.09,274.44c-1.69,0.11-3.18-0.3-3.06-2.31c0.18-2.96-0.96-3.98-3.85-3.34c-2.76,0.61-3.19-0.82-2.57-3.14
			c1.06-3.94,2.69-7.51,5.97-10.14c1.34-1.08,2.77-2.22,4.49-1.68c4.59,1.45,9.26,0.59,13.87,0.6c3.87,0.01,4.9,2.45,5.31,5.36
			c0.51,3.69-4.61,9.24-8.39,9.08c-2.27-0.1-3.84,0.7-5.21,2.31C971.94,273.2,969.6,273.99,967.09,274.44z M975.41,264.82
			c1.57,0.3,2.92,0.21,3.27-1.48c0.28-1.34-0.65-2.2-1.79-2.64c-3.09-1.18-6.26-2.25-9.6-2.14c-1.95,0.07-3.66,1.23-3.84,3.25
			c-0.22,2.49,1.93,2.67,3.76,2.92C970,265.1,972.8,263.67,975.41,264.82z"/>
		<path d="M969.03,283.5c0.39-4.62,3.77-6.43,6.68-8.64c0.34-0.26,1.34-0.06,1.75,0.27c0.55,0.45,0.38,1.25-0.18,1.71
			C974.55,279.08,971.79,281.28,969.03,283.5z"/>
		<path d="M1024.18,219.8c0.1,1.31-0.39,2.38-1.2,2.03c-2.77-1.22-4.52-3.68-6.1-6.14c-0.58-0.9,0.48-1.65,1.31-1.46
			C1021.38,214.96,1022.98,217.41,1024.18,219.8z"/>
		<path d="M1007.17,276.77c1.48,1.55,4.26,2.19,5.11,4.63c0.32,0.93-1.34,1.28-2.31,1.04c-2.35-0.58-4.39-1.68-4.76-4.37
			C1005.08,277.17,1005.79,276.59,1007.17,276.77z"/>
		<path d="M830.95,337.72c-0.17,0.49-0.23,1.5-0.76,1.98c-2.55,2.32-3.04,5.18-3.17,8.48c-0.33,8.98-6.99,14.94-11.06,22.13
			c-0.61,1.07-1.76,1.86-2.92,1.03c-1.5-1.07-0.16-2.14,0.55-2.85c6.17-6.18,6.84-14.19,6.95-22.15c0.06-5.03,3.04-8.25,5.49-11.92
			c0.69-1.03,1.77-1.61,3.01-0.87C830.46,334.41,830.86,335.84,830.95,337.72z"/>
		<path d="M824.81,368.76c-1.08-2.41-0.15-5.12,2.43-7.33c0.91-0.78,1.68-2.64,3.14-1.28c1.1,1.03-0.13,2.06-0.95,2.88
			c-0.47,0.47-0.96,0.92-1.38,1.43c-0.53,0.65-1.1,1.52-0.37,2.18c0.96,0.89,1.86,0.09,2.52-0.65c0.43-0.48,0.64-1.15,0.95-1.73
			c1.21-2.28,3.24-5.02,5.51-3.16c2,1.64,3.09,5.6,0.74,8.09c-2.8,2.98-6.32,5.29-9.64,7.75c-0.97,0.72-2.64,0.89-2.35-0.98
			C825.76,373.74,824.48,371.79,824.81,368.76z"/>
		<path d="M849.25,368.26c-0.28-0.39-0.47-0.53-0.45-0.65c0.37-2.67,0.76-5.37,4.15-5.86c0.94-0.14,1.76,0.39,1.49,1.4
			C853.72,365.88,851.94,367.58,849.25,368.26z"/>
	</g>
</g>
</svg>
