<?xml version="1.0" encoding="utf-8"?>
<!-- Generator: Adobe Illustrator 28.0.0, SVG Export Plug-In . SVG Version: 6.00 Build 0)  -->
<svg version="1.1" id="Layer_1" xmlns="http://www.w3.org/2000/svg" xmlns:xlink="http://www.w3.org/1999/xlink" x="0px" y="0px"
	 viewBox="0 0 1920 1080" style="enable-background:new 0 0 1920 1080;" xml:space="preserve">
<style type="text/css">
	.st0{fill:none;stroke:#231F20;}
</style>
<g>
	<g>
		<g>
			<path d="M880.42,1090.8c0.87-0.82,1.91-0.44,2.86-0.46c7.86-0.18,8.13-0.31,8.61-8.05c0.21-3.41,1.45-5.09,4.88-6.43
				c7.89-3.08,14.45-8.7,21.83-12.72c9.32-5.08,12.03-13.44,14.05-22.85c2.09-9.69-0.82-18.74-2.08-28.08
				c-2.31-17.24-9.93-32.27-18.42-47.04c-4.96-8.63-10.69-16.99-14.28-26.17c-3.65-9.33-8.42-18.21-10.91-28.1
				c-2.92-11.62-7.13-22.93-11.74-34.05c-1.21-2.93-2.31-6.02-4.77-8.12c-7.04-6-6.57-14.19-6.56-22.16
				c0.01-3.85,0.13-7.09-4.27-8.98c-2.7-1.16-2.36-4.3-1.6-6.71c2.95-9.41,1.26-19.25,2.76-28.72c2.54-15.99,0.85-32.25,3.75-48.22
				c1.84-10.14,0.87-20.73,3.4-30.76c3.21-12.68,3.15-26.04,8.23-38.29c0.3-0.73,0.67-1.97,0.33-2.35c-4.83-5.41,0.74-9.1,2.38-13.2
				c1.31-3.28,1.75-5.55-0.66-8.59c-3.28-4.12-3.81-9.33-2.26-14.23c2.74-8.63-2.18-13.86-10.74-14.13
				c-5.16-0.16-10.32-0.43-15.48-0.53c-8.73-0.17-16.94-2.31-25.2-5.18c-7.35-2.56-13.93-6.02-19.95-10.79
				c-1.45-1.15-3.02-1.63-4.59-0.5c-3.06,2.2-5.86,1.12-8.93-0.09c-5.88-2.31-11.84-4.47-17.89-6.29
				c-8.32-2.5-15.38-6.61-19.2-14.69c-3-6.34-9.59-7.36-14.65-10.48c-6.31-3.89-13.28-6.57-16.06-14.42c-1.3-3.68-5.58-4-8.45-5.79
				c-14.08-8.78-22.03-22.13-29.19-36.45c-6.53-13.05-11.46-26.36-9.33-41.13c2.11-14.62,3.44-29.41,7.81-43.64
				c1.67-5.46,0.33-7.42-5.51-7.47c-3.28-0.03-6.45-0.02-8.3-3.3c-0.92-1.63-0.64-3.46,1.58-2.74c3.58,1.18,7.08-0.9,10.78,0.7
				c3.89,1.69,4.55-2.98,6.44-4.92c1.74-1.8,0.21-3.04-1.59-4.2c-1.47-0.95-2.51-2.61-3.6-4.06c-0.87-1.16-1.18-2.61,0.33-3.45
				c1.45-0.81,2.6-0.13,2.99,1.5c0.42,1.74,1.11,3.47,3.12,3.27c2.35-0.23,1.51-2.6,1.98-4.04c0.93-2.88,2.02-5.42,4.54-7.51
				c2.24-1.86,3.75-4.61,5.5-7.04c3.02-4.2,6.05-8.36,10.34-11.42c3.43-2.45,5.64-6.11,8.6-8.99c2.83-2.77,6.22-4.99,10.12-6.26
				c2.68-0.88,4.97-2.46,4.85-5.61c-0.13-3.22,0.33-6.88-3.59-8.6c-0.15-0.07-0.3-0.14-0.45-0.22c-2.39-1.31-3.76-3.3-3.66-6.05
				c0.05-1.17,1.16-1.53,2.21-1.6c2.83-0.18,3.26,2.36,4.55,3.99c3.15,3.99,6.16,8.15,9.72,11.74c3.03,3.05,6.93,1.76,10.28,0.19
				c3.61-1.68,7.15-3.62,10.47-5.82c12.85-8.53,27.22-13.83,41.46-19.26c9.35-3.57,19.69-3.02,29.47-5.09
				c18.9-3.99,35.51,3.49,52.07,11.08c10.86,4.98,21.27,11.36,32.85,14.23c14.99,3.71,30.23,8.35,45.84,1.82
				c3.75-1.57,8.08-0.33,11.84,0.2c19.86,2.82,38.87,8.48,57.08,17.27c13.06,6.3,27.17,9.99,41.87,10.18
				c2.74,0.04,5.59-0.98,8.21-1.98c5.05-1.92,10.26-2.94,15.61-3.12c9.9-0.32,17.58-5.51,25.09-11.11c2.53-1.89,4.87-4.02,7.43-5.87
				c0.88-0.64,2.34-1.19,3.18-0.05c0.85,1.15-0.17,2.25-1,3.01c-3.69,3.37-7.35,6.78-11.21,9.94c-3.47,2.85-8.3,3.58-10.84,8.18
				c-1.3,2.36-5.13,1.88-7.97,1.52c-7.89-1-15.2-0.84-22.49,3.86c-6.92,4.46-14.61,0.59-21.73-1.3
				c-18.66-4.96-35.89-13.94-54.42-19.45c-12.1-3.6-24.42-5.29-36.8-6.17c-6.26-0.44-12.76,1.86-19.1,3.2
				c-3.46,0.73-2.94,3.4-1.51,5.45c5.08,7.29,5.74,16.25,9.38,24.07c0.33,0.71,0.53,1.79,0.22,2.42c-1.78,3.68-2.34,6.44,3.09,7.3
				c1.93,0.3,1.32,2.62,1.05,4.31c-0.42,2.58,0.66,4.07,3.37,2.99c1.76-0.7,3.2-0.35,4.81,0.17c1.17,0.38,2.6,1.68,3.58,0.12
				c1.06-1.68,0-3.16-1.28-4.39c-2.28-2.2-4.57-4.37-6.82-6.59c-0.92-0.91-2.3-1.86-1.15-3.33c1.12-1.44,2.8-2.09,4.41-0.9
				c2.39,1.77,5.19,3.21,6.72,5.88c2.42,4.23,6.47,6.66,10.11,9.52c2.93,2.3,6.14,3.62,9.95,1.47c1.29-0.72,2.96-0.78,3.23-2.61
				c0.27-1.85-0.55-3.13-2.17-4.1c-2.01-1.21-5.07-1.58-4.71-4.99c0.1-0.91,0.25-2.42,1.49-2.21c2.67,0.45,3.82,2.98,5.59,4.68
				c2.39,2.29,4.91,4.47,7.51,6.51c1.49,1.17,3.56,1.94,4.98,0.27c1.53-1.82-0.39-2.89-1.65-3.96c-0.45-0.38-0.69-1.01-1.43-2.13
				c4.02,0.38,5.12,3.67,7.46,5.16c2.63,1.68,5.02,3.52,7.99,0.72c1.53-1.44,3.13-0.4,4.69,0.06c6.17,1.82,12.14,1.76,18.64,0.65
				c9.87-1.68,20.02-1.02,28.22,6.14c7.77,6.78,16.27,11.35,26.97,10.51c0.89-0.07,1.91,0.46,2.73,0.95c1.74,1.05,3.6,6.97,4.9-0.28
				c0.14-0.75,1.04-0.74,1.64-0.31c1.82,1.32,3.82,2.73,5.85,0.92c3.01-2.69,7.29-4.27,8.02-9.11c0.32-2.1,1.28-4.11,2-6.14
				c0.65-1.85,0.9-3.7-0.95-4.94c-2.09-1.41-4.06-0.34-5.3,1.24c-1.41,1.79-2.17,4.08-3.34,6.08c-2.49,4.29-5.58,4.67-8.58,0.79
				c-1.91-2.48-3.96-4.43-7.03-5.23c-1.31-0.34-2.54-0.99-3.21-2.23c-2.23-4.16-5.94-4.96-10.2-4.73c-1.64,0.09-3.45,0.31-4.41-1.53
				c-0.61-1.17-0.25-2.29,0.64-3.2c1.61-1.65,3.62-1.97,5.47-0.77c2.9,1.88,4.58,1.16,7.28-1.02c2.44-1.97,6.49-1.91,9.8-2.84
				c7.9-2.23,15.01-5.17,18.76-13.61c3.22-7.25,10.15-11.77,15.06-17.89c0.32,3.72-2.66,5.43-4.38,7.86
				c-0.95,1.34-2.44,2.52-1.49,4.4c0.91,1.82,2.7,1.61,4.38,1.61c8.84,0.02,17.65,0.22,26.25,2.66c4.76,1.35,5.43,3.76,1.88,7.36
				c-2,2.03-4.22,3.78-7.21,4.19c-1.28,0.18-3,0.19-2.93,2c0.07,1.9,1.83,2.19,3.31,2.35c1.14,0.12,2.32-0.1,3.49-0.15
				c2.34-0.12,4.23,0.64,5.49,2.74c1.35,2.26,0.38,4.18-0.84,6.04c-4.6,7.03-11.62,5.23-18.13,4.68c-2.96-0.25-5.89-1.08-8.91-0.8
				c-2.09,0.19-4.22,0.59-4.06,3.32c0.13,2.29,1.96,2.79,3.93,2.99c5.46,0.54,10.95,0.95,16.37,1.82c3.26,0.53,7.46,0.33,7.92,5.22
				c0.31,3.31-3.73,9.01-7.63,9.61c-6.66,1.02-13.41,3.02-20.19,0.28c-4.48-1.8-9.24-0.51-13.85-0.95
				c-0.87-0.08-2.14,0.42-2.69,1.09c-6.2,7.48-13.5,4.81-20.79,2.37c-1.42-0.47-2.81-1.12-4.27-1.39
				c-8.58-1.59-15.77-5.96-22.52-11.16c-2.49-1.92-5.08-2.9-8.29-2.78c-2.8,0.11-5.69-0.12-8.44-0.69
				c-9.98-2.09-19.72-0.61-29.73,0.46c-16.8,1.8-33.68,4.69-50.72,2.01c-5.43-0.85-10.33-3.84-15.97-3.79
				c-1.16,0.01-2.33-0.25-3.48-0.17c-1.73,0.13-3.37,0.7-3.96,2.53c-0.61,1.9,0.52,3.22,1.99,4.17c3.66,2.37,5.73,5.47,5.16,10.02
				c-0.2,1.59,0.32,3.3,1.66,3.96c7.02,3.43,11.03,10.6,17.92,14.16c3.81,1.97,7.5,3.8,11.63,0.76c1.14-0.84,2.6-1.04,3.57,0.3
				c0.99,1.37,0.13,2.31-0.93,3.37c-2.59,2.62-4.59,5.87-9.27,3.29c-1.68-0.93-3.85,0.69-5.33,2.09
				c-7.6,7.2-15.96,13.49-24.11,20.04c-0.97,0.78-2.04,2.47-3.28,0.94c-1.19-1.47,0.59-2.21,1.57-3.03
				c7.51-6.29,13.9-13.82,21.9-19.56c1.57-1.13,2.29-2.76,0.64-4.18c-2.33-2.01-5.08-3.85-7.86-0.77c-3.78,4.2-7.49,8.47-10.9,12.96
				c-2.49,3.27-5.06,6.37-9.03,9.88c0.74-3.82,2.51-5.78,3.98-7.83c4.07-5.65,8.16-11.29,12.37-16.83c1.79-2.36,1.66-4.25-0.75-5.91
				c-2.08-1.43-4.68-2.44-6.04,0.33c-3.11,6.33-9.09,8.57-14.81,11.14c-7.32,3.3-13.71,7.86-17.69,14.77
				c-2.57,4.46-3.37,9.86-6.06,14.48c-1.94,3.31-3.85,6.59-6.13,9.69c-9.96,13.54-18.22,28.07-26.19,42.87
				c-4.65,8.62-5.76,17.64-6.33,26.77c-0.37,6.02,2.69,11.92,5.54,17.27c1.6,3.01,3.73,0.69,4.6-1.47
				c2.8-6.93,5.12-14.07,8.22-20.86c10.54-23.16,20.59-46.7,40.79-63.65c3.19-2.68,7.39-4.06,10.26-7.48
				c-0.82,4.13-3.98,6.73-6.63,9.05c-14.44,12.66-24.76,28.37-32.98,45.31c-5.46,11.25-10.12,22.95-12.48,35.6
				c-1.9,10.19-5.28,20.23-7.27,30.45c-2.28,11.71-6.09,23.16-6.63,35.18c-0.27,5.88-2.1,11.45-2.93,17.22
				c-0.43,2.97-0.9,5.92-0.58,8.95c0.24,2.23-0.16,4.35-1.93,5.95c-4.94,4.47-6.42,10.3-6.47,16.65
				c-0.14,18.12,3.97,35.62,7.74,53.17c1.08,5.03,1.24,10.31,2.77,15.18c2.34,7.44,5.81,14.52,8.23,21.93
				c3.2,9.82,9.3,18.37,12.03,28.35c0.37,1.36,1.89,3.23,0.26,4.03c-2.07,1.01-2.57-1.47-3.3-2.82
				c-7.88-14.49-14.07-29.48-18.33-45.62c-3.74-14.18-7.07-28.33-9.35-42.77c-0.34-2.12-0.14-4.32-0.24-6.48
				c-0.05-1.18-0.15-2.49-1.62-2.73c-1.68-0.28-2.41,0.96-2.76,2.3c-0.29,1.11-0.33,2.3-0.39,3.45c-1.15,21.83-2.85,43.62-4.63,65.4
				c-0.73,8.95-1.31,17.99-0.8,26.92c0.31,5.44,1.53,11.05,8.99,12.87c16.38,4,31.23,12.11,46.71,18.55
				c10.82,4.5,21.97,8.55,33.74,10.29c1.93,0.29,3.85,1.1,5.63,1.98c7.54,3.75,15.89,1.55,23.7,3.32c1.98,0.45,3.9-0.65,5.48-1.99
				c5.23-4.44,4.27-17.42-1.63-20.85c-7.62-4.43-12.56-11.83-19.39-17.17c-5.35-4.18-10.12-9.17-14.8-14.12
				c-3.87-4.09-7.24-8.52-9.75-13.77c-6.16-12.89-13.7-25.05-21.79-36.83c-4.28-6.24-4.87-13.76-7.58-20.53
				c-2.72-6.78-4.83-13.83-8.67-20.11c-2.77-4.52-1.43-9.9-3.34-14.68c2.38,3.04,3.32,6.73,4.84,10.05
				c7.33,15.97,15.35,31.62,21.88,47.96c2,4.99,6.3,8.46,9.02,13.11c6.59,11.28,11.14,23.86,20.91,33.2
				c7.69,7.35,16.02,14.05,22.71,22.42c1.45,1.82,2.95,3.6,4.46,5.37c0.77,0.89,1.65,1.84,2.97,1.25c1.21-0.54,1.7-1.81,1.45-2.95
				c-2.2-9.96,2.84-18.91,3.9-28.4c1.03-9.15,0.44-18.32,0.07-27.46c-0.19-4.86,0.47-9.21,3.15-13.28
				c4.46-6.76,6.15-14.63,8.62-22.16c0.79-2.42,1.78-5.64-2.04-7.25c-1.74-0.73-1.1-2.33-0.41-3.42c6.08-9.53,4.52-19.7,2.68-29.92
				c-0.25-1.39-0.61-2.75-2.3-2.76c-1.69-0.01-2.82,1.19-3.37,2.61c-3.94,10.09-12.18,16.85-19.03,24.67
				c-1.04,1.19-2.24,2.53-4.59,2.23c0.53-4.73,4.5-7.31,7.08-10.26c8.35-9.56,15.21-20.16,22.59-30.4
				c12.44-17.28,24.7-34.69,37.02-52.06c0.86-1.22,1.47-2.61,2.27-3.87c0.72-1.12,1.72-2.71,3.09-1.84c4.08,2.58,5.4-0.56,7.5-2.95
				c3.17-3.6,7.46-6.09,10.34-10.05c0.75-1.02,1.72-1.05,2.99-0.14c4.03,2.88,8.49,2.26,11.37-2.02
				c5.66-8.42,10.85-17.16,16.43-25.63c4.13-6.26,8.45-12.38,12.12-18.94c0.85-1.53,2.08-2.84,3.82-5.17
				c0.02,3.46-0.83,5.36-1.92,7.2c-7.78,13.16-15.56,26.33-23.33,39.51c-0.82,1.4-2.31,2.8-1.33,4.53c1.18,2.07,3.28,1.03,5,0.87
				c6.46-0.59,12.96-2.1,19.35-1.71c9.26,0.57,14.18-4.64,18.08-11.52c1.87-3.29,3.66-6.26,7.16-7.96c1.72-0.83,2.46-2.64,3.51-4.14
				c1.41-2.01,2.7-6.22,5.02-0.44c0.64,1.59,2.56,1.23,4.05,0.88c10.27-2.41,19.68-0.58,28.55,5.19c3.33,2.17,7.3,3.21,11.41,3.31
				c3.51,0.09,6.38-1.43,7.97-4.3c6.51-11.74,10.12-24.3,8.92-37.82c-0.44-4.94-2.83-8.73-7.69-11.42
				c-8.75-4.84-17.94-7.83-27.76-9.17c-1.12-0.15-2.26-0.52-3.26-1.03c-4.61-2.35-6.25-1.56-6.66,3.57
				c-0.41,5.15,0.13,10.5-1.1,15.43c-2.37,9.56-4.7,19.33-12.58,26.58c2.15-5.91,4.23-11.84,6.47-17.72
				c2.78-7.33,5.15-14.54,4.11-22.73c-1.16-9.15-6.61-14.65-13.89-18.85c-3.24-1.87-4.35,0.34-4.46,3.5
				c-0.25,6.81-0.68,13.62-1.08,20.43c-0.09,1.55,0.13,3.32-2.17,4.5c-1.39-3.32-0.08-6.46-0.4-9.47c-0.19-1.81-0.19-3.69,0.05-5.49
				c1.79-13.44-5.91-20.94-16.48-26.8c-9.73-5.39-19.63-10.48-26.15-20.21c-2.54-3.79-7.56-4.68-11.31-7.12
				c-0.71-0.46-1.64-0.54-2.31,0.13c-0.91,0.9-0.46,1.92,0.18,2.69c1.94,2.35,2.85,5.28,4.45,7.78
				c7.35,11.54,8.61,24.97,12.01,37.73c0.15,0.56-0.15,1.24-0.26,1.98c-2.59-0.53-2.47-2.7-3.03-4.27
				c-4.24-11.9-7.59-24.12-13.36-35.44c-0.68-1.33-1.28-2.72-2.15-3.91c-0.88-1.21-2.13-2.46-3.76-1.82
				c-1.98,0.78-0.96,2.49-0.72,3.89c0.24,1.41,1.2,3.36-0.8,3.84c-1.97,0.48-2.14-1.73-2.51-3.06c-1.95-7.11-8.89-9.57-13.31-14.37
				c-1.67-1.81-4.02-2.99-5.8-4.72c-5.39-5.22-11.13-8.88-19.15-9.48c-7.89-0.59-15.26-4.53-23.22-5.68
				c-1.76-0.26-4.58-0.71-3.73-3.54c0.73-2.41,3.03-1.87,5.11-1.52c10.03,1.68,19.38,5.77,29.21,8.14c2.39,0.58,4.94,1.43,6.87,2.89
				c10.01,7.59,22.07,9.82,33.64,13.42c8.25,2.57,16.18,5.46,21.55,13.33c3.55,5.2,9.61,8.09,15.15,11.2
				c10.72,6.02,21.63,11.76,32.04,18.3c7.18,4.52,14.27,9.49,22.26,11.93c15.14,4.63,29.83,10.59,46.41,10.67
				c11.32,0.05,22.69,3.95,33.59,8.36c12.17,4.93,23.79,11.39,36.54,14.74c14.04,3.69,27.43,9.95,42.26,10.63
				c3.09,0.14,6.18,1.34,9.17,2.35c4,1.34,6.39-0.01,7.78-3.83c1.52-4.16,1.61-8.5,1.67-12.83c0.11-8.07,10.28-16.7,18.19-14.64
				c10.41,2.71,18.46,9.03,23.39,18.68c1.51,2.96,4.31,4.56,5.84,7.37c9.18,16.82,15.25,34.35,13.29,53.94
				c-0.6,5.94-1.8,7.36-7.86,8.1c-4.19,0.51-8.23,0.46-12.35-0.7c-17.89-5.02-36-8.92-54.35-12.11c-16.78-2.91-33.55-5-50.51-5.6
				c-7.64-0.27-15.19,1.29-22.78,2.07c-16.56,1.7-33.28,5.38-49.74-1.14c-3.44-1.36-6.57-3.15-9.82-4.84
				c-12.08-6.27-24.84-11.04-37.62-15.6c-10.6-3.78-23.69,1.2-30.05,10.28c-2.47,3.53-5.34,6.79-8.09,10.12
				c-2.06,2.49-4.65,3.47-7.97,3.07c-9.27-1.11-18.54,1.62-27.84,0.09c-1.76-0.29-3.62,0.17-5.28,1.17
				c-4.45,2.68-9.05,4.17-14.24,1.97c-1.79-0.76-3.64-0.16-5.21,0.95c-8.44,5.96-16.56,12.6-22.6,20.81
				c-8.75,11.9-17.34,24.02-26.05,35.91c-6.68,9.12-4.72,17.2-3.09,25.76c2.28,11.99,1.21,23.23-2.76,34.68
				c-2.96,8.54-6.24,16.88-10.25,24.96c-1.02,2.05-0.75,4.22-0.56,6.38c0.51,5.98,0.7,11.97,0.99,17.95
				c0.4,8.36-1.88,16.18-3.94,24.02c-1.86,7.11-1.96,14.25-0.89,21.28c0.75,4.93,1.51,9.83,1.91,14.81
				c0.65,8.12-4.1,13.71-11.83,15.75c-9.13,2.41-16.99-1.47-25.29-3.46c-1.88-0.45-4.01-1.95-5.47,0.19
				c-1.49,2.19,1.33,2.95,2.12,4.41c5.08,9.38,11.56,17.87,13.11,29.16c1.86,13.54,3.68,27.1,3.62,40.68
				c-0.05,10.49,0.63,20.9,1.14,31.33c0.97,19.7,3.68,39.21,7.88,58.49c0.66,3.05,1.64,5.85-1.39,8.7
				c-1.56,1.46-2.02,4.54-1.46,7.08c0.34,1.56,1.46,2.93,3.17,2.51c1.92-0.47,1.7-2.19,1.19-3.7c-0.21-0.63-0.61-1.18-0.87-1.79
				c-0.45-1.05-1.26-2.48,0.39-2.88c1.65-0.4,1.69,1.34,1.69,2.4c0.02,3.88,1.75,7.08,3.86,10.11c2.05,2.94,2.53,5.99,2.86,9.65
				c0.54,6,2.14,12.14,4.88,17.65c2.06,4.15,10.14,4.01,13.54-0.19c3.48-4.3,7.68-5.97,13.11-5.48c6.18,0.55,12.22-0.82,18.33-1.6
				c18.65-2.39,33.46-12.5,48.38-22.7c5.34-3.65,11.22-6.47,15.86-11.19c2.91-2.95,2.83-5.11-0.29-7.84
				c-7.72-6.76-5.51-17.71,4-22.14c4.18-1.95,8.95-2.8,12.46-6.14c5.4-5.13,4.95-7.99-1.87-10.83c-7.31-3.05-14.93-4.83-22.89-4.32
				c-9.06,0.58-17.9-2.01-26.91-1.68c-21.15,0.78-42.14,3.49-63.19,5.46c-4.48,0.42-8.94,0.98-13.41,1.49
				c-2.17,0.25-4.35,0.31-6.43-0.41c-2.03-0.7-4.82-1.5-3.91-4.18c0.96-2.81,3.32-0.89,5.05-0.26c2.27,0.83,4.61,0.81,6.92,0.52
				c21.32-2.63,42.72-4.38,64.14-5.97c14.53-1.08,28.95,0.52,43.41,1.25c4.53,0.23,8.73,0.95,12.68-2.51
				c2.69-2.35,4.96-0.92,4.71,2.79c-0.18,2.6,1.07,3.63,3.05,4.44c3.76,1.54,6.81,3.84,6.99,8.25c0.2,4.9-2.74,8.13-6.71,10.33
				c-3.04,1.68-6.3,3.04-9.58,4.23c-5.05,1.83-7.63,5.63-9.01,10.51c-0.71,2.5,0.88,4.06,2.39,5.65c6.06,6.38,5.89,12.61-1.48,17.82
				c-7.46,5.26-14.91,10.66-23.13,14.76c-10.87,5.42-21.8,10.71-32.69,16.08c-5.71,2.82-11.58,4-17.9,2.28
				c-4.08-1.11-8.27-0.7-12.41-0.1c-1.52,0.22-3.42,0.5-3.66,2.12c-0.85,5.79-5.17,5.55-9.05,5.02c-5.11-0.7-8.76-0.39-8.43,6.1
				c0.06,1.25-0.81,2.29-2.2,2.21c-1.46-0.09-1.79-1.32-1.84-2.55c-0.18-4.36-1.18-8.56-2.38-12.74c-0.54-1.89-1.39-3.63-3.5-3.7
				c-2.58-0.09-2.64,2.12-2.72,3.94c-0.13,3.28-2.2,3.1-4.54,2.85c-1.31-0.14-3.01-0.12-2.74,1.86c0.23,1.66,1.75,1.87,3.15,1.59
				c0.96-0.19,1.84-0.82,2.81-0.99c2.56-0.46,3.02,1.7,3.59,3.32c0.72,2.05-0.81,2.56-2.45,2.77c-1.15,0.15-2.35,0.18-3.42,0.56
				c-1.11,0.4-2.06,1.25-2.01,2.59c0.06,1.6,1.4,1.64,2.55,1.77c2.48,0.29,4.96,0.54,7.45,0.81c0.99,0.11,2.15,0.12,2.19,1.47
				c0.03,0.91-0.74,1.46-1.57,1.73c-5.19,1.71-10.35,3.53-15.6,5.02c-1.69,0.48-3.76,0.4-5.19-1.06c-3.27-3.34-7.58-1.77-11.39-2.43
				c-1.95-0.34-2.62,1.29-2.27,2.98c0.72,3.45-1.42,4.37-4.08,4.98c-5.06,1.18-10.2,1.62-15.37,1.46
				c-8.34-0.26-16.62,0.09-24.89,1.35c-2.9,0.44-5.97,0.07-8.93-0.2c-10.77-0.97-21.53-2.03-32.29-3.09
				c-8.48-0.83-14.85-5.56-20.43-11.48c-2.4-2.55-3.14-5.26,1.19-6.88c0.61-0.23,1.27-0.58,1.68-1.06
				c7.31-8.46,18.37-10.11,27.53-15.18c1.32-0.73,3.28-2.37,4.24-0.1c0.97,2.27-1.7,2.18-2.98,3.02c-5.42,3.56-11.38,5.8-17.49,7.82
				c-3.63,1.2-4.55,5.07-6.25,8.05c-0.44,0.77-0.07,1.7,0.7,2.18c0.95,0.6,2.03,0.4,2.76-0.36c1.49-1.56,2.88-3.22,4.26-4.88
				c1.76-2.12,3.47-3.23,5.48-0.25c1.05,1.57,2.76,1.75,4.46,1.71c1.63-0.04,3.56,0.51,4.67-1.04
				C882.94,1092.98,879.98,1092.4,880.42,1090.8z M1280.89,613.18c0.37,0.92,0.65,1.9,1.13,2.76c0.81,1.47,2.03,2.26,3.71,1.41
				c1.39-0.71,1.74-1.97,1.21-3.39c-0.6-1.6-1.75-2.46-3.49-1.92c-0.94,0.29-1.79,0.85-2.68,1.29c-0.12-1.16-0.13-2.34-0.38-3.47
				c-0.24-1.09-0.29-2.64-1.73-2.71c-1.62-0.08-1.63,1.48-1.59,2.58c0.07,2.25-1.86,4.17-1.3,6.66
				C1278.17,616.03,1278.59,613.13,1280.89,613.18z M914.44,925.55c-3.12,1.03-6.25,2.06-9.37,3.08c-1.32,0.43-2.75,1.01-2.25,2.67
				c0.48,1.55,2.41,1.8,3.36,1.2c3.04-1.91,7.37-2.44,8.22-6.96c6.37,1.3,10.87-2.09,15.02-6.33
				C924.42,921.31,919.43,923.43,914.44,925.55z M937.9,389c0.65,2.92,0.38,4.13-1.81,10.16c-2.89,7.95-4,8.56-12.04,6.64
				c-1.56-0.37-3.11-0.46-3.77,1.36c-0.57,1.55,0.53,2.5,1.72,3.21c2.57,1.53,5.24,2.91,7.76,4.52c6.21,3.96,12.84,6.86,20,8.64
				c4.05,1.01,5.08-3.02,7.68-4.41c1.1-0.59,0.6-2.33-0.41-3.03c-3.86-2.67-3.03-6.24-2.17-9.89c3.44-14.75-6.37-33.49-23.2-37.98
				c-2.04-0.54-4.66-1.57-6.16,0.26c-1.81,2.22,0.81,3.81,1.94,5.52c0.42,0.64,1.16,1.28,0.19,2.13c-2.15-0.37-3.21-2.19-4.69-3.48
				c-1.75-1.53-3.83-3.89-5.96-3.1c-4.18,1.56-5.22-0.76-6.64-3.66c-1.41-2.89-3.85-4.74-7.25-5.59c-0.56,3.04,2.96,4.61,2.1,7.64
				c-3.37-1.88-6.02-4.11-8.53-6.55c-16.55-16.11-36.58-22.51-59.3-20.58c-12.57,1.07-25.43,1.72-36.81,8.01
				c-9.72,5.37-20.65,8.04-29.84,14.69c-12.73,9.2-28.3,13.89-40.14,24.68c-1.15,1.05-2.74,2.26-5.13,2.22
				c2.44-4.56,6.67-6.43,9.95-9.3c1.37-1.19,3.35-2.54,1.94-4.48c-1.36-1.87-3.26-0.41-4.95,0.3c-6.09,2.56-9.36,8.37-14.17,12.2
				c-9.98,7.94-15.4,19.01-22.55,28.9c-0.84,1.16-2.23,2.57-1,4.01c1.55,1.82,2.95,0.24,4.26-0.75c0.67-0.51,1.39-1.1,2.19-0.4
				c0.79,0.69,0.47,1.63-0.03,2.26c-5.62,7.18-8.51,15.64-11.98,23.93c-3.16,7.55-6.52,15.22-7.88,23.07
				c-2.8,16.13-3.22,32.38,4.18,47.92c5.15,10.81,10.2,21.17,19.08,29.97c10.09,9.99,21.61,14.34,35.05,15.67
				c3.8,0.38,7.57,1.12,11.34,1.79c0.97,0.17,2.2,0.7,2.08,1.81c-0.18,1.66-1.68,1.31-2.78,1.14c-4.27-0.66-8.55-1.31-12.78-2.15
				c-3.39-0.67-7.24-1.36-9.04,2c-2.03,3.78,1.26,6.42,3.9,8.78c0.49,0.44,1.01,0.94,1.61,1.16c6.73,2.5,13.47,5.03,20.86,3.24
				c4.28-1.03,8.62-0.7,12.94-0.66c1.26,0.01,3.13-0.25,3.3,1.42c0.18,1.77-1.69,1.73-2.94,1.88c-2.81,0.34-5.62,0.59-8.44,0.85
				c-3.82,0.35-5,2.21-3.35,5.75c0.86,1.83,1.79,3.67,3.48,4.81c5.74,3.88,10.95,8.84,18.53,9.01c2.38,0.05,4.45,1.21,6.53,2.32
				c6.52,3.47,6.81,3.3,7.98-4.06c0.16-1,0.23-2.13,1.54-2.16c0.95-0.03,1.42,0.8,1.61,1.64c0.62,2.78,2.19,4.61,4.78,5.98
				c9.47,5,17.67,12.37,28.86,14.11c6.69,1.04,12.95,4.01,19.87,4.58c7.95,0.65,15.93,0.24,23.88,1.71
				c12.74,2.36,12.8,2.01,15.86-10.58c2.85-11.74,2.85-11.74-7.02-18.73c-0.81-0.58-1.65-1.13-2.41-1.78
				c-1.35-1.15-2.93-2-4.58-1.23c-5.05,2.33-9.66,0.7-14.47-0.93c-4.06-1.37-8.27-2.53-12.74-1.57c-1.77,0.38-3.49-0.24-5.25-1.06
				c-6.65-3.09-11.43-8.31-15.99-13.72c-1.68-1.99-2.52-3.07-4.97-0.85c-2.3,2.09-5.03-0.37-7.6-0.48c-2.1-0.09-1.29-2.23-1.13-3.66
				c0.08-0.72-0.14-1.4-0.85-1.59c-1.38-0.37-2.24,0.6-2.86,1.56c-1.4,2.19-2.08,4.84-5.13,5.74c-1.58,0.47-2.66,2.18-2.94,3.84
				c-0.71,4.22-5.12,6.06-5.52,10.72c-1.97-2.03-1.55-3.57-0.81-4.83c3.22-5.55,6.5-11.07,9.92-16.5c0.79-1.26,2.22-2.23,1.48-3.91
				c-0.84-1.92-2.65-1.8-4.32-1.5c-1.8,0.33-3.54,0.99-5.34,1.26c-3.3,0.49-6.64,1.2-10.18-0.36c0.6-0.69,0.88-1.1,1.24-1.4
				c1.22-0.99,3.5-1.22,3.08-3.41c-0.38-1.97-2.5-1.97-4.01-2.5c-5.34-1.86-10.71-3.66-16.09-5.41c-4.42-1.44-8.69-3.28-14.52-3.97
				c3.09-1.95,4.66-0.76,6.27-0.73c1.62,0.04,3.63,0.65,4.31-1.42c0.57-1.74-1.05-2.74-2.32-3.45c-2.47-1.37-5.02-2.62-7.63-3.7
				c-4.2-1.74-7.22-4.72-9.46-8.55c-0.93-1.58-1.03-3.36,0.84-4.32c1.7-0.87,2.94,0.27,3.49,1.79c0.75,2.06,2.3,3.1,4.04,4.2
				c10.42,6.57,20.76,13.27,31.2,19.8c2.11,1.32,5.18,4.18,6.89,1.46c1.82-2.91-2.19-4.2-4.32-5.5
				c-10.69-6.52-14.22-18.05-19.83-28.12c-0.47-0.85-0.36-2.08,0.7-2.63c1.15-0.6,1.99,0.27,2.44,1.11c1.32,2.49,2.43,5.1,3.72,7.61
				c4.57,8.91,12.82,14.67,18.91,22.02c7.65,9.23,17.84,12.15,27.25,17.11c6.26,3.29,12.81,6.55,20.02,7.76
				c1.37,0.23,3.37,0.63,2.84,2.69c-0.47,1.82-2.3,1.63-3.8,1.39c-0.98-0.16-1.91-0.59-2.87-0.85c-1.27-0.34-2.75-0.94-3.51,0.66
				c-0.7,1.46,0.39,2.55,1.4,3.42c3.2,2.76,6.57,5.1,11.14,4.82c6.03-0.36,11.92,0.16,17.67,2.42c2.84,1.12,5.96,1.19,7.55-2.57
				c0.88-2.08,2.16-2.62,3.38-0.18c0.74,1.49,1.71,2.54,3.5,1.96c1.91-0.61,2.46-2.3,2.34-4c-0.37-5.65-0.46-11.58-3.23-16.55
				c-6.39-11.47-5.8-22.59,0.56-33.63c4.73-8.21,9.77-16.23,14.65-24.35c0.99-1.65,3.05-3.51,1.26-5.29
				c-1.94-1.94-3.97,0.05-5.76,1.19c-4.21,2.7-8.15,5.74-11.88,9.08c-1.21,1.08-2.76,1.59-3.93,0.02c-0.95-1.28-0.32-2.74,0.81-3.53
				c6.9-4.85,12.39-11.62,20.81-14.41c5.35-1.77,10.46-4.29,15.6-6.64c5.66-2.59,10.84-5.77,13.64-11.78
				c5.23-11.22,14.9-17.49,25.53-22.7c4.8-2.35,8.35-6.04,10.22-11.12c2.07-5.62,0.97-9.03-4.06-12.4
				c-2.48-1.66-5.06-3.23-7.74-4.55c-21.86-10.76-41.69-24.82-62.08-37.99c-7.34-4.74-14.7-9.05-24-8.51
				c-3.95,0.23-7.97-0.53-11.94-1c-1.82-0.22-4.02-0.73-3.86-3.08c0.19-2.7,2.54-2.7,4.59-2.51c3.98,0.36,7.95,0.84,11.92,1.25
				c1.3,0.13,2.91,0.6,3.53-0.97c0.7-1.75-0.75-2.84-2-3.59c-3.57-2.14-7.26-3.97-11.35-5.06c-5.76-1.54-11.46-3.35-17.11-5.25
				c-1.56-0.52-3.13-1.85-2.38-3.82c0.78-2.07,2.71-1.56,4.32-1.1c2.88,0.82,5.75,1.68,8.57,2.68c5.78,2.05,11.78,3.52,16.92,7.16
				c13.66,9.68,25.25,22,40.06,30.33c6.39,3.6,11.7,8.02,19.39,4.43c0.55-0.26,1.33-0.18,1.98-0.08c2.8,0.44,4.46-1.16,6.51-2.79
				C935.17,396.87,935.27,392.74,937.9,389z M868.27,849.82c0.06,6.99,0.69,13.72,7.47,17.96c0.75,0.47,0.96,1.72,1.56,2.5
				c4.6,5.93,5.83,13.34,8.81,19.99c1.32,2.94,2.93,4.35,6.13,2.91c12.23-5.51,25.16-10.04,31.74-23.26c0.37-0.75,1-1.42,0.25-2.2
				c-0.68-0.71-1.72-0.62-2.3-0.13c-3.71,3.13-9.15,2.94-12.54,5.59c-4.02,3.15-5.87,1.82-9.11-0.46c-2.51-1.77-1.69-2.58,0.14-3.24
				c3.9-1.42,7.25-4.08,11.44-4.84c1.23-0.22,2.2-1.08,1.79-2.5c-0.44-1.52-1.87-1.57-2.84-0.92c-3.62,2.45-6.68,0.02-9.85-1
				c-1.42-0.46-2.68-1.21-4.28-0.83c-1.34,0.32-3.34,1.62-3.94-0.22c-0.67-2.07,1.75-2.37,3.19-2.98c0.76-0.32,1.61-0.42,2.4-0.67
				c1.18-0.37,3.17-0.05,2.93-1.91c-0.25-1.86-1.97-2.62-3.81-2.4c-1.14,0.14-2.21,0.72-3.34,0.98c-2.18,0.49-4.99,1.96-4.05-2.6
				c0.38-1.86-1.32-2.38-2.53-3.26c-3.62-2.62-8.26-2.35-12.07-4.58c-4.29-2.51-6.49-1.26-7.16,3.6
				C868.1,846.81,868.27,848.33,868.27,849.82z M880.71,551.85c0,0.33-0.03,0.67,0,1c0.15,1.63-0.16,3.8,1.75,4.28
				c2.08,0.52,1.67-2.02,2.57-3.01c2.26-2.49,2.21-5.85,3.45-8.72c5.15-11.97,12.77-22.52,19.12-33.8c2.49-4.42,6.15-7.8,8.96-11.88
				c0.77-1.12,1.57-2.29,0.6-3.62c-0.7-0.96-1.86-0.89-2.72-0.35c-4.71,2.98-10.14,4.81-13.16,10.26
				c-4.35,7.84-7.7,16.2-12.79,23.67C883.97,536.32,879.96,543.29,880.71,551.85z M941.13,1010.12c4.13-2.81,7.3-5.7,12.1-4.98
				c1.23,0.19,3.07,0.52,3.21-1.33c0.14-1.86-1.7-1.91-2.95-1.7c-5.21,0.89-10.4,1.91-15.58,2.97c-1.13,0.23-2.7,0.98-2.29,2.2
				c1.91,5.7-0.22,11.79,1.86,17.46c0.5,1.36,0.94,3.07,0.56,4.38c-1.8,6.17,0.48,12.7-1.88,18.84c-0.63,1.65,0.94,2.88,2.62,2.86
				c2.45-0.04,5.44,0.18,6.61-2.48c1.32-3.01-3.12-2.31-3.61-4.63c2.44-2.53,6.15-2.12,9.62-3.61c-2.82-0.91-7.38,1.36-6.66-2.65
				c0.6-3.36-0.68-4.41-2.47-6.06c-1.06-0.98-2.77-2.21-1.07-3.65c2.69-2.28,4.79-5.17,9.13-5.44c4.42-0.28,8.53-2.62,12.31-5.25
				c-2.86-0.87-5.45-0.85-8.09,0.55c-3.45,1.83-7.22,2.43-11.11,1.85c-0.59-0.09-1.42-0.53-1.59-1.01
				c-0.34-0.97,0.52-1.41,1.32-1.72c3.1-1.2,6.18-2.42,9.59-2.61c1.56-0.09,3.13-1.07,3.02-2.77c-0.12-1.87-2.04-1.14-3.23-1.4
				C949.01,1009.17,945.49,1011.57,941.13,1010.12z M1138.45,388.35c-3.16-0.32-8.22,4.18-8.02,7.26c0.17,2.67,2.31,3.2,3.78,1.65
				c2.88-3.02,5.91-1.89,8.65-0.67c2.34,1.04,3.82,0.29,5.94-0.39c3.73-1.19,7.5-4.68,11.83-0.77c1.43,1.29,3.53,0.36,5.07-0.78
				c0.88-0.65,1.15-1.63,0.69-2.66c-0.84-1.85-2.57-1.82-4.24-1.93C1154.24,389.5,1146.34,388.93,1138.45,388.35z M1253.2,614.62
				c1.17,1.41-0.38,4.75,2.62,4.5c2.67-0.23,5.34-1.78,5.67-4.74c0.39-3.51,2.1-6.14,3.86-8.99c2.58-4.18,1.31-8.67,0.01-12.99
				c-0.25-0.82-0.98-1.46-1.89-1.29c-0.93,0.18-1.26,1.07-1.26,1.92c0,1.32,0.04,2.66,0.23,3.96c0.65,4.46-1.09,8.13-3.74,11.49
				c-0.78,1-1.99,2.65-3.19,1.43c-3.4-3.45-4.29-0.21-5.86,1.78c-1.33,1.68-2.74,3.34-4.32,4.78c-1.35,1.23-2.65,2.48-1.17,4.13
				c1.64,1.82,3.33,0.68,4.72-0.68C1250.51,618.35,1250.74,615.62,1253.2,614.62z M1148.2,404.19c-2.63,0-5.28-0.14-7.9,0.05
				c-1.55,0.11-2.94,1.05-2.95,2.81c-0.02,2.19,1.7,1.84,3.21,2c6.07,0.62,12.08,1.69,17.95,3.39c2.12,0.61,4.19,0.91,6.34,0.35
				c1.54-0.4,2.83-1.13,2.88-2.93c0.05-1.95-1.07-3.36-2.9-3.4C1159.2,406.33,1153.9,403.7,1148.2,404.19z M1163.55,430.97
				c-0.2-2.27-1.78-3.01-3.67-3.43c-6.16-1.4-12.56,0.01-18.72-1.62c-1.36-0.36-2.5,0.69-3.04,2.05c-0.53,1.34-0.55,2.85,0.75,3.56
				c1.41,0.77,3.17,0.85,4.68,1.46c5.64,2.29,11.46-0.75,17.16,0.67C1162.4,434.08,1163.35,432.66,1163.55,430.97z M932.24,950.43
				c-5.91-0.04-10.97,3.9-16.98,3.55c-1.37-0.08-1.72,1.24-1.72,2.55c-0.01,4.03,3.49,6.44,7.1,4.57c4.37-2.26,7.88-6.09,13.02-7.01
				c1.12-0.2,2.17-1.2,1.61-2.6C934.73,950.15,933.38,950.4,932.24,950.43z M1402.36,620.79c1.87-2.58,0.85-4.15,0.74-5.74
				c-0.59-8.95-5.57-16.15-9.42-23.8c-0.67-1.34-0.75-4.01-2.91-3.08c-1.7,0.73-0.48,2.91-0.13,4.5c0.68,3.13,3.93,5.03,3.98,8.42
				C1394.73,608.44,1399.5,613.82,1402.36,620.79z M958.61,993.86c-0.26-1.69-1.62-1.84-2.6-1.3c-4.53,2.52-9.69,2.47-14.5,3.81
				c-2.21,0.62-4.54,1.87-3.52-2.27c0.39-1.59-0.19-2.63-1.71-3.03c-1.36-0.35-2.68-0.1-3.57,1.11c-0.97,1.32-0.62,2.64,0.65,3.44
				c1.64,1.03,2.04,2.09,1.65,4.08c-0.56,2.87,1.67,2.93,3.48,2.2c5.49-2.2,11.03-4.18,16.83-5.39
				C956.76,996.21,958.18,995.56,958.61,993.86z M892.2,904.5c1.85,1.98,4.08,3.29,1.07,5.64c-1.95,1.52-0.53,3.36,1.71,3.79
				c2.7,0.52,11.54-3.94,13.01-6.39c0.49-0.81,1.57-2.09,0.25-2.42c-2.76-0.68-3.25-4.52-6.33-4.28c-0.92,0.07-0.89,1.22-0.41,2.04
				c0.47,0.79,1.81,1.1,1.31,2.4C899.39,907.63,896.32,904.19,892.2,904.5z M924.06,966.2c3.18-0.39,5.93-2.56,9.37-2.79
				c6.25-0.42,11.72-3.44,17.35-5.85c0.92-0.4,1.96-0.99,1.67-2.15c-0.4-1.57-1.83-1.3-2.89-0.96c-2.52,0.8-5.03,1.67-7.45,2.73
				c-5.95,2.6-12.67,2.78-18.41,5.95c-0.82,0.46-2.04,0.71-1.79,2.02C922.11,966.2,923.13,966.06,924.06,966.2z M920.35,932.12
				c13.93-3.45,24.76-9.97,34.49-18.58C943.79,919.63,931.61,923.57,920.35,932.12z M955.68,930.36c-1.82-1.05-2.93-1.02-3.71-0.48
				c-5.15,3.49-11.39,4.4-16.81,7.23c-1.18,0.62-2.81,1.12-2.44,2.71c0.44,1.89,2.47,1.87,3.75,1.45
				C943.39,938.97,949.91,935.9,955.68,930.36z M1239.76,598.79c-0.01-1.53-0.39-2.44-1.59-2.56c-1.6-0.17-2.3,0.92-2.87,2.22
				c-1.99,4.51-4.13,8.96-6,13.52c-0.84,2.04-4.24,4.47-1.51,6.21c2.18,1.39,2.46-2.72,3.9-4.11c1.39-1.36,2.56-3.06,3.43-4.82
				C1236.85,605.71,1238.33,602.04,1239.76,598.79z M1220.19,619.61c0.53-0.34,1.31-0.56,1.58-1.05c2.82-5.04,5.59-10.1,8.3-15.2
				c0.37-0.7,0.32-1.72-0.46-2.26c-1.11-0.76-1.89,0.06-2.47,0.85c-3.04,4.11-6.23,8.13-8.93,12.46
				C1217.07,616.22,1217.22,618.63,1220.19,619.61z M901.32,915.98c-5.07,0.11-5.89,1.37-3.56,5.37c0.57,0.98,0.15,1.91,0.03,2.87
				c-0.18,1.41,0.55,2.34,1.82,2.47c2.66,0.27,4.71-1.26,6.6-2.84c1.13-0.94,1.3-2.49,0.31-3.57
				C904.98,918.62,904.68,915.31,901.32,915.98z M969.84,1076.33c-2.91,0.55-6.19,1.01-9.37,1.83c-1.89,0.49-3.2,2.04-2.75,4.11
				c0.43,2.01,2.38,2.29,4,2.02c3.76-0.63,7.4-1.7,10.12-4.65c0.63-0.69,1.59-1.43,0.99-2.54
				C972.26,1076.05,971.15,1076.27,969.84,1076.33z M1362.63,558.71c-3.4,1.35-7.67,2.14-9.1,6.84c-0.49,1.63-0.77,3.34,0.92,4.47
				c1.55,1.04,2.95,0.06,4.02-0.91c2.43-2.2,4.71-4.57,7.03-6.89c0.6-0.61,0.95-1.39,0.55-2.25
				C1365.46,558.69,1364.26,558.72,1362.63,558.71z M937.32,1052.04c-0.39,0.04-0.9,0.04-1.38,0.13c-1.99,0.4-3.97,0.87-4.75,3.1
				c-0.35,1.02-0.11,2,0.64,2.76c1.81,1.84,3.35,0.15,4.98-0.42c0.63-0.22,1.29-0.35,1.89-0.64c2.08-0.99,6.15-0.03,5.89-2.97
				c-0.17-1.93-4.37-1.12-6.66-1.93C937.78,1052.02,937.6,1052.05,937.32,1052.04z M919.46,944.86c-2.08-2.26-4.7-2.49-6.99-2.75
				c-3.21-0.36-3.55,2.75-3.85,4.81c-0.35,2.33,2.03,2.39,3.57,2.27C915.13,948.97,917.01,946.75,919.46,944.86z M1407.15,630.35
				c-0.27-2.02-0.98-5.14-3.16-4.74c-4.01,0.74-2.33,5.12-3.28,7.85c-0.52,1.5,0.64,2.6,2.28,2.39
				C1406.02,635.45,1407.06,633.34,1407.15,630.35z M1304.99,613.73c-0.43-1.99-0.47-5.36-2.86-4.86c-3.14,0.66-2.75,4.7-3.67,7.33
				c-0.51,1.47,0.73,2.51,2.34,2.26C1303.41,618.06,1304.83,616.45,1304.99,613.73z M1242.4,612.68c0.44,0.28,0.88,0.57,1.31,0.85
				c2.67-3.77,5.38-7.5,7.96-11.33c0.54-0.8,0.55-2.03-0.58-2.55c-1.06-0.49-2.04,0.19-2.51,1.05
				C1246.47,604.66,1244.46,608.68,1242.4,612.68z M908.47,1079.4c-0.31-0.28-0.71-0.8-1.24-1.1c-2.53-1.44-9.7,2.75-9.59,5.64
				c0.07,1.86,1.41,1.63,2.46,1.02c2.28-1.31,4.5-2.7,7.07-3.44C907.99,1081.3,908.56,1080.68,908.47,1079.4z M1312.82,613.07
				c-0.12-1.77-0.53-3.68-2.35-3.27c-3.01,0.67-3.43,3.76-4.08,6.19c-0.44,1.64,0.89,2.99,2.67,2.61
				C1312.03,617.98,1312.38,615.34,1312.82,613.07z M1234.11,576.36c0,1.81-0.09,2.97,0.02,4.11c0.13,1.34,0.51,2.9,2.15,2.8
				c2.09-0.13,1.83-1.87,1.65-3.38c-0.19-1.62-0.34-3.25-0.47-4.88c-0.11-1.46,0.09-3.43-1.88-3.4c-2.11,0.03-1.61,2.02-1.58,3.44
				C1234.02,575.72,1234.11,576.37,1234.11,576.36z M930.41,971.15c-0.56-2.23-2.3-2.57-4.19-2.37c-1.87,0.2-3.73,0.82-3.63,3.17
				c0.1,2.29,1.87,3.01,3.82,2.87C928.56,974.66,930.1,973.54,930.41,971.15z M952.04,1084.37c-3.75-0.78-7.46-0.03-11.12-0.89
				c-1.09-0.26-2.4,0.45-2.28,1.94c0.1,1.19,1.23,1.55,2.21,1.46C944.66,1086.55,948.54,1086.54,952.04,1084.37z M923.99,1110.88
				c-3.52-0.42-6.6-1.73-9.81-2.35c-1.51-0.29-3.91-0.47-4.11,1.54c-0.21,2.11,2.14,2.26,3.71,2.13
				C917.2,1111.92,920.59,1111.34,923.99,1110.88z M1345.16,620.66c-0.3-1.46,0.04-3.89-2.13-3.74c-2.38,0.16-3.29,2.55-3.57,4.75
				c-0.22,1.72,0.73,2.96,2.59,2.87C1344.36,624.41,1345.02,622.75,1345.16,620.66z M1325.49,615.28c-0.14-1.73-0.64-3.24-2.57-2.98
				c-2.31,0.31-3.2,2.14-3.34,4.25c-0.1,1.5,0.13,3.39,2.09,3.19C1324.12,619.49,1324.87,617.26,1325.49,615.28z M1238.66,615.42
				c-0.21-1.31,0.32-3.74-1.29-3.14c-2.46,0.92-3.25,3.98-4.43,6.3c-0.66,1.31,0.11,2.45,1.59,2.29
				C1237.8,620.51,1237.63,617.44,1238.66,615.42z M1295.82,612c-0.23-1.48-0.33-3.6-2.29-3.08c-2.52,0.67-2.24,3.41-2.47,5.49
				c-0.15,1.35,0.17,3.09,1.94,2.8C1295.88,616.73,1295.29,614,1295.82,612z M947.28,985.86c2.52-0.47,4.91-1.5,6.73-3.57
				c0.18-0.2-0.03-1.15-0.26-1.24c-2.12-0.82-3.67,1.18-5.64,1.23c-0.49,0.01-1,0.09-1.47,0.23c-1.05,0.3-2.75,0.11-2.65,1.64
				C944.1,985.89,945.85,985.63,947.28,985.86z M978.58,1072.11c2.34,2.34,4.58,3.63,7.37,2.03c2.12-1.22,1.28-3.13,0.74-4.88
				c-0.36-1.17-0.9-2.43-2.37-1.79c-1.7,0.74-0.88,1.8,0.07,2.67c0.67,0.61,1.11,1.33,0.51,2.14c-0.68,0.91-1.69,0.83-2.72,0.66
				C981.07,1072.75,980.4,1071.32,978.58,1072.11z M1217.43,579.19c0.33,1.6-0.34,4.21,2.24,4.11c1.96-0.08,1.91-2.43,1.91-4.05
				c0-1.62,0.07-3.88-2.02-3.94C1217.35,575.24,1217.63,577.53,1217.43,579.19z M1382.59,575.77c-0.73,3.91,1.81,5.78,3.75,7.87
				c0.35,0.38,1.33,0.6,1.76,0.38c0.89-0.46,0.73-1.46,0.29-2.16C1386.95,579.57,1385.8,576.97,1382.59,575.77z M1335.85,619.95
				c-0.15-0.28-0.5-1.01-0.55-0.99c-2.94,1.2-3.48-1.24-4.61-2.9c-0.39-0.58-1.2-0.48-1.73,0.01c-0.79,0.73-1.01,1.73-0.6,2.69
				c0.96,2.28,3.02,2.81,5.2,2.94C1334.61,621.75,1335.42,621.17,1335.85,619.95z M1122.77,412.07c-0.13-0.99,0.02-2.64-1.27-2.11
				c-1.98,0.82-3.22,2.72-3.47,4.95c-0.13,1.13,0.72,1.91,1.86,1.66C1122.34,416.04,1122.45,413.92,1122.77,412.07z M934.76,1062.67
				c-0.32-1.61-1.3-2.33-2.81-2.03c-1.55,0.3-3.56,0.38-3.79,2.4c-0.21,1.81,1.47,1.91,2.77,1.83
				C932.53,1064.78,934.25,1064.68,934.76,1062.67z M1109.28,412.19c-0.25-1.77-1.31-2.96-3.1-3.27c-1.54-0.26-2.65,0.51-2.62,2.15
				c0.03,2.04,1.53,2.79,3.29,2.99C1108.12,414.21,1109.11,413.76,1109.28,412.19z M928.06,907.51c-3.44-0.45-5.11,1.3-7.17,1.76
				c-0.94,0.21-1.98,0.94-1.44,2.16c0.63,1.41,1.95,1.26,2.96,0.56C924.13,910.81,925.7,909.4,928.06,907.51z M924.97,1070
				c0.83-0.49,2.95,0.53,2.95-1.28c0-1.91-2.14-1.57-3.52-1.69c-1.26-0.11-3.06-0.24-2.92,1.59
				C921.62,1070.36,923.46,1069.83,924.97,1070z"/>
			<path d="M805.65,1040.96c-20.26-0.71-40.51-1.59-60.77-2.06c-8.95-0.21-17.66,2.71-26.7,2.68c-8.31-0.02-16.62,1.02-24.86-0.86
				c-2.81-0.64-5.44-1.75-7.38-3.92c-1.15-1.28-1.75-3.07-0.48-4.55c1.15-1.34,2.51-0.2,3.58,0.45c5.53,3.4,11.72,3.34,17.88,3.65
				c17.37,0.89,34.57-2.79,51.86-2.13c21.58,0.82,43.26,0.39,64.66,4.08c1.15,0.2,2.29,0.43,3.43,0.69
				c1.67,0.38,3.32,0.91,3.77,2.81c0.48,2.02-0.58,3.54-2.01,4.81c-3.05,2.71-6.87,4.03-10.5,5.68c-1.26,0.57-2.47,1.25-2.23,2.9
				c0.19,1.36,1.39,1.73,2.49,2.14c3.82,1.42,7.8,1.69,11.82,1.55c7.88-0.29,15.6,0.76,23.31,2.27c3.6,0.71,6.41,2.72,9.11,4.93
				c1.49,1.22,1.58,2.94,0.37,4.46c-1.29,1.63-2.98,1.61-4.35,0.25c-6.41-6.37-14.88-6.14-22.84-6.65c-7.87-0.5-15.59-1.06-22.98-4
				c-1.88-0.75-3.89-1.49-3.98-3.93c-0.09-2.47,1.53-3.89,3.52-5.01c2.88-1.64,5.73-3.34,8.59-5.02c1.15-0.68,2.57-1.35,2.23-2.94
				c-0.37-1.77-2.04-2.12-3.55-2.15c-4.66-0.08-9.32-0.03-13.98-0.03C805.65,1041.05,805.65,1041.01,805.65,1040.96z"/>
			<path d="M638.02,385.8c2.98-3.46,3.86-6.5,2.49-10.22c-0.58-1.57-1.63-4.09,0.57-4.84c2.19-0.75,2.52,2.08,3.5,3.47
				c1.98,2.84,1.35,6.02,1.23,9.18c-0.05,1.36-1.06,4.31,2.58,2.75c2.37-1.02,2.69,0.99,2.35,2.41c-0.77,3.18,0.27,5.51,1.89,8.28
				c2.35,4.02,1.27,9.06,2.36,13.57c0.3,1.25-1,1.95-2.3,2.1c-1.15,0.13-2.62-0.07-3.39,0.56c-2.96,2.45-4.18,1.56-6.21-1.52
				c-2.26-3.42-6.71-4.52-10.62-5.63c-1.71-0.48-3.56-0.49-5.22-1.37c-1.55-0.82-3.27-1.49-4,0.94c-0.56,1.89-0.32,3.76,1.8,4.6
				c1.21,0.48,2.57,0.62,3.88,0.85c0.98,0.17,2.59-0.11,2.87,0.39c3.93,7.21,14.01,6.38,17.89,14.22c1.66,3.35,5.6,7.45,11.17,4.57
				c1.37-0.71,2.71,0.02,3.11,1.56c0.48,1.85-0.72,2.79-2.32,3.21c-4.59,1.22-8.61-0.8-11.32-3.8
				c-6.89-7.63-15.74-12.02-24.59-16.57c-6.95-3.57-7.58-8.28-1.66-13.05c2.58-2.08,3.69-3.87-0.08-5.85
				c-1.31-0.69-2.55-1.73-2.89-3.29c-0.31-1.43-0.07-3.1,1.86-2.47c4.08,1.33,9.26,0.81,11.24,6.09c0.17,0.45,0.48,0.9,0.84,1.23
				c1.59,1.47,2.1,4.57,5.09,3.9c1.31-0.29,0.53-7.07-0.59-8.84c-3.42-5.47-8.81-8.17-14.37-10.71c-2.38-1.09-4.69-2.25-3.02-5.57
				c1.34-2.67,2.15-5.22,6.51-4.39c4.16,0.79,6.49,2,6.9,6.47C635.79,380.4,636.99,382.68,638.02,385.8z"/>
			<path d="M612.68,327.13c0.33-3.03,1.92-5.43,3.42-7.64c5.12-7.53,9.86-15.57,19.51-18.34c0.94-0.27,1.88-0.75,2.67-1.33
				c10.39-7.67,22.13-7.58,34.37-7c10.52,0.5,18.54,5.21,26.1,11.57c2.22,1.87,4.49,2.61,7.36,1.93c2.18-0.51,4.03,0.41,4.99,2.42
				c1.25,2.63-1.4,2.4-2.61,3.16c-2.1,1.31-2.11,3.29-1.65,5.3c1.03,4.59,3.72,8.1,7.41,10.92c1.32,1.01,2.76,1.92,3.87,3.12
				c2.14,2.32,2.52,4.45-1.34,5.33c-3.64,0.83-6.92,2.08-8.42,6.45c1.31-7.61-4.18-12.94-5.42-19.61
				c-1.8-9.72-7.18-16.97-15.77-22.38c-7.32-4.62-15.19-2.73-22.8-3.75c-14.13-1.89-25.27,6.04-36.58,12.39
				c-5.05,2.84-8.18,8.61-11.15,13.84C615.77,325.04,615.46,327.02,612.68,327.13z"/>
			<path d="M1002.08,745.18c0.23,4.65-2.12,8.05-3.49,11.57c-1.86,4.76-4.42,9.3-7.09,13.68c-3.37,5.52-7.52,5.66-11.4,0.44
				c-9.91-13.35-19.06-27.18-27.44-41.58c-6.14-10.55-9.71-22.23-15.74-32.78c-0.83-1.45-1.67-3.43,0.15-4.44
				c2.06-1.14,2.67,1.24,3.65,2.43c6.69,8.05,9.35,18.27,14.58,27.13c9.02,15.31,18.25,30.46,28.87,44.72
				c2.4,3.23,4.41,1.38,5.78-0.96c3.01-5.17,5.79-10.47,8.62-15.75C999.38,748.11,999.74,746.26,1002.08,745.18z"/>
			<path d="M793.06,1002.19c14.17-4.89,28.08-5.85,42.09-5.25c20.38,0.87,40.6-0.85,60.85-2.58c6.63-0.57,13.3-0.62,19.95-0.78
				c1.4-0.03,3.49-0.09,3.45,1.93c-0.04,1.87-2.06,2.11-3.5,2.01c-11.56-0.78-22.96,0.93-34.35,2.27
				c-27.69,3.26-55.59,0.93-83.3,3.33C796.77,1003.25,795.24,1003.45,793.06,1002.19z"/>
			<path d="M1050.12,632.15c1.22-7.11,5.38-12.28,7.99-18.07c3.29-7.28,6.08-14.59,7.82-22.47c2.44-11.07,3.56-22.29,5.23-33.45
				c1.56-10.41,1.16-20.84-1.32-31.13c-0.08-0.32-0.24-0.63-0.27-0.96c-0.27-2.84-1.98-6.91,1.97-7.59c3.53-0.61,3.03,3.77,3.42,6.1
				c2.12,12.7,2.02,25.22-0.53,38.07c-2.38,11.98-3.11,24.41-6.41,36.18c-2.97,10.62-7.24,20.98-13.64,30.21
				C1053.55,630.22,1052.67,631.49,1050.12,632.15z"/>
			<path d="M747.27,1009.97c-10.65,0.15-21.24,1-31.8,2.28c-1.64,0.2-3.33,0.14-4.98,0c-7.54-0.64-14.97-0.57-22.03,2.69
				c-0.9,0.42-1.96,1-2.72-0.01c-0.89-1.2-0.17-2.4,0.86-2.96c6.52-3.57,12.83-7.48,21-5.22c9.01,2.5,18.19,0.59,27.27-0.08
				c16.25-1.19,32.48-2.58,48.72-3.83c1.07-0.08,2.95-0.38,2.96,0.97c0.03,2.37-2.35,2.58-4.04,2.77
				c-10.91,1.21-21.83,2.28-32.75,3.38C748.94,1010.05,748.1,1009.97,747.27,1009.97z"/>
			<path d="M1073.65,617.61c7.3-15.15,14.16-30.43,23.97-44.09c1.06-1.47,1.75-3.2,2.66-4.78c0.57-0.98,1.12-2.36,2.57-1.64
				c1.29,0.64,0.98,2.01,0.59,3.1c-0.45,1.24-0.9,2.57-1.71,3.58c-7.87,9.8-12.95,21.17-18.11,32.45
				C1081.37,611.12,1077.24,614.02,1073.65,617.61z"/>
			<path d="M620.35,385.97c-13.43-4.43-16.04-31.84-13.38-46.66c3.04,3.76,4.72,13.73,2.69,17.65c-1.55,2.99-1.48,5.11,1.57,7.17
				c2.7,1.82,2.57,5.5,4.22,8.2C617.82,376.22,618.67,381.05,620.35,385.97z"/>
			<path d="M943.03,488.88c-0.04,1.15-0.82,1.8-1.67,2.34c-5.06,3.19-8.15,8.13-11.7,12.73c-8.1,10.49-13.75,22.22-18.3,34.56
				c-0.48,1.31-0.67,3.79-2.36,3.18c-2.14-0.77-0.76-2.87,0.06-4.15c2.13-3.32,1.86-7.37,3.59-10.81
				c6.42-12.78,13.14-25.35,23.51-35.49c1.3-1.27,2.83-2.31,4.35-3.33C941.65,487.15,942.72,487.17,943.03,488.88z"/>
			<path d="M714.04,313.32c10.05,6,22.95,26.92,20.51,32.41C727.32,335.21,721.45,323.83,714.04,313.32z"/>
			<path d="M722.26,355.73c-2.34-1.98-6.02,1.26-7.29-1.29c-1.13-2.27,1.78-4.7,2.33-7.29c0.45-2.1,1.23-4.14,2.05-6.13
				c0.53-1.29,0.59-3.12,2.47-3.35c0.43-0.05,1.19,0.64,1.4,1.15c0.63,1.53,1.22,3.14,0.12,4.74
				C719.04,349.81,719.03,349.81,722.26,355.73z"/>
			<path d="M900.41,705.41c-0.31-0.58-0.73-1.13-0.9-1.75c-1.49-5.39-3.05-10.77-4.34-16.21c-0.34-1.42-0.77-3.77,1.63-3.9
				c1.9-0.1,2.05,2.02,2.03,3.42c-0.08,6.09,3.79,11.58,3.05,17.75C901.39,704.95,900.9,705.18,900.41,705.41z"/>
			<path d="M649.05,380.73c-1.33-4.6-2.07-9.05,2.36-12.39c1-0.76,2.08-2.13,3.43-1.09c1.39,1.07,1.24,3.18,0.19,3.98
				C651.83,373.7,651.11,377.48,649.05,380.73z"/>
			<path d="M664.65,423.79c-0.22,0.74-0.34,1.3-0.4,1.3c-2.8-0.29-5.34,3.01-8.23,0.71c-1.56-1.24-2.3-2.99-1.34-4.88
				c1.21-2.38,3.23-1.29,4.77-0.54C661.33,421.29,663,422.67,664.65,423.79z"/>
			<path d="M693.54,403.58c-0.55,2.11-1.17,4.41-4.17,2.7c-1.32-0.76-2.55-1.37-4.08-1.41c-1.12-0.03-1.9-0.69-1.86-1.84
				c0.02-0.59,0.36-1.3,0.79-1.71c0.86-0.82,1.89-0.67,2.52,0.3c1.21,1.88,2.57,1.54,4.19,0.64
				C692.22,401.53,693.52,401.26,693.54,403.58z"/>
			<path d="M973.7,396.91c-4.41-0.18-8.15-1.27-10.59-6.24C968.17,391.57,970.61,394.87,973.7,396.91z"/>
			<path d="M982.14,404.95c2.15,1.46,4.17,3.11,6.86,3.62c1.42,0.27,2.23,1.69,1.44,3.08c-0.94,1.65-2.25,0.7-3.33-0.07
				c-2.27-1.61-4.5-3.27-6.75-4.9C980.95,406.11,981.54,405.53,982.14,404.95z"/>
			<path d="M672.46,384.35c0.17,1.65-0.83,2.16-2.12,2.17c-1.41,0.01-3.26,0.55-3.61-1.6c-0.26-1.61,0.93-2.41,2.36-2.68
				C670.85,381.92,671.96,382.75,672.46,384.35z"/>
			<path d="M891.57,573.85c-0.06-3.07,0.22-5.23,2.58-6.47c0.65-0.34,1.3,0.23,1.37,0.97C895.74,570.8,894.33,572.25,891.57,573.85z
				"/>
			<path d="M968.75,381.74c-0.16,1.71-1.29,2.5-2.94,2.57c-1.05,0.04-2.07-0.38-1.97-1.63c0.14-1.72,1.38-2.55,2.97-2.72
				C967.93,379.83,968.66,380.44,968.75,381.74z"/>
			<path d="M894.68,467.91c-0.57,2.08-2.46,2.07-3.97,2.45c-11.96,3.04-23.55,7.03-34.45,12.89c-4.82,2.59-9.71,5.07-14.56,7.61
				c-1.23,0.64-2.64,1.27-3.59-0.09c-1.04-1.5,0.33-2.56,1.41-3.2c4.85-2.87,9.66-5.83,14.69-8.34
				c11.51-5.72,23.68-9.62,36.22-12.35C891.94,466.55,893.7,465.66,894.68,467.91z"/>
			<path d="M764.44,495.17c-1.98,0-2.99,0.1-3.97-0.02c-1.71-0.22-3.51-0.72-3.37-2.87c0.13-2.01,1.95-1.88,3.44-2
				c12.85-1.02,25.23-4.02,37.23-8.72c1.36-0.53,3.32-2.37,4.29-0.23c0.81,1.8-1.5,2.74-2.9,3.43
				C787.89,490.36,775.98,493.81,764.44,495.17z"/>
			<path d="M740.11,526.14c-11.27,0.72-21.75-2.29-31.97-6.51c-1.77-0.73-3.73-1.56-3.1-3.81c0.72-2.54,3-1.6,4.65-1.16
				c7.2,1.9,13.8,5.9,21.52,6.03c3.15,0.06,6.34,0.3,9.41,0.92c1.89,0.38,5.18,0.32,4.69,3.18
				C744.94,527.02,741.95,526.1,740.11,526.14z"/>
			<path d="M862.54,448.3c-0.21,1.43-1.38,1.77-2.48,2.11c-14.35,4.57-27.52,11.47-39.88,20c-0.55,0.38-1.11,0.75-1.73,0.99
				c-1.78,0.68-4.23,2.67-5.33,0.66c-1.26-2.31,2-2.85,3.47-3.88c11.61-8.12,23.94-14.92,37.36-19.6c2.02-0.7,4.14-1.17,6.25-1.58
				C861.17,446.83,862.22,447.03,862.54,448.3z"/>
			<path d="M804.88,361.23c4.95,0.18,9.83,1.31,14.83,0.79c1.11-0.11,2.54,0.13,2.56,1.66c0.03,1.48-1.29,1.9-2.47,1.84
				c-5.76-0.33-11.46,1.68-17.23,0.41c-1.81-0.4-4.63,0.23-4.42-2.66c0.2-2.67,2.77-2.25,4.74-2.19
				C803.56,361.11,804.22,361.18,804.88,361.23z"/>
			<path d="M801.29,599.12c4.2-4.29,2.85-10.32,6.01-14.72c1.04-1.45,1.43-3.65,3.86-3.09c1.73,0.39,2.82,1.75,3.39,3.4
				c0.9,2.61-1.17,2.99-2.85,3.72c-2.21,0.97-2.98,2.92-3.43,5.16C807.31,598.36,807.26,598.35,801.29,599.12z"/>
			<path d="M919.84,377.63c2.33,4.42,4.66,8.83,7,13.25c-0.56,0.3-1.11,0.59-1.67,0.89c-1.38-4.94-5.98-8.11-6.76-13.39
				C918.88,378.13,919.36,377.88,919.84,377.63z"/>
			<path d="M937.41,414.79c-1.26,0.05-2.22-0.49-1.87-1.7c0.73-2.5,2.63-4.2,4.83-5.38c0.95-0.51,1.42,0.59,1.28,1.48
				C941.22,411.8,939.99,413.85,937.41,414.79z"/>
		</g>
	</g>
	<g>
		<g>
			<path class="st0" d="M880.42,1090.8c0.87-0.82,1.91-0.44,2.86-0.46c7.86-0.18,8.13-0.31,8.61-8.05c0.21-3.41,1.45-5.09,4.88-6.43
				c7.89-3.08,14.45-8.7,21.83-12.72c9.32-5.08,12.03-13.44,14.05-22.85c2.09-9.69-0.82-18.74-2.08-28.08
				c-2.31-17.24-9.93-32.27-18.42-47.04c-4.96-8.63-10.69-16.99-14.28-26.17c-3.65-9.33-8.42-18.21-10.91-28.1
				c-2.92-11.62-7.13-22.93-11.74-34.05c-1.21-2.93-2.31-6.02-4.77-8.12c-7.04-6-6.57-14.19-6.56-22.16
				c0.01-3.85,0.13-7.09-4.27-8.98c-2.7-1.16-2.36-4.3-1.6-6.71c2.95-9.41,1.26-19.25,2.76-28.72c2.54-15.99,0.85-32.25,3.75-48.22
				c1.84-10.14,0.87-20.73,3.4-30.76c3.21-12.68,3.15-26.04,8.23-38.29c0.3-0.73,0.67-1.97,0.33-2.35c-4.83-5.41,0.74-9.1,2.38-13.2
				c1.31-3.28,1.75-5.55-0.66-8.59c-3.28-4.12-3.81-9.33-2.26-14.23c2.74-8.63-2.18-13.86-10.74-14.13
				c-5.16-0.16-10.32-0.43-15.48-0.53c-8.73-0.17-16.94-2.31-25.2-5.18c-7.35-2.56-13.93-6.02-19.95-10.79
				c-1.45-1.15-3.02-1.63-4.59-0.5c-3.06,2.2-5.86,1.12-8.93-0.09c-5.88-2.31-11.84-4.47-17.89-6.29
				c-8.32-2.5-15.38-6.61-19.2-14.69c-3-6.34-9.59-7.36-14.65-10.48c-6.31-3.89-13.28-6.57-16.06-14.42c-1.3-3.68-5.58-4-8.45-5.79
				c-14.08-8.78-22.03-22.13-29.19-36.45c-6.53-13.05-11.46-26.36-9.33-41.13c2.11-14.62,3.44-29.41,7.81-43.64
				c1.67-5.46,0.33-7.42-5.51-7.47c-3.28-0.03-6.45-0.02-8.3-3.3c-0.92-1.63-0.64-3.46,1.58-2.74c3.58,1.18,7.08-0.9,10.78,0.7
				c3.89,1.69,4.55-2.98,6.44-4.92c1.74-1.8,0.21-3.04-1.59-4.2c-1.47-0.95-2.51-2.61-3.6-4.06c-0.87-1.16-1.18-2.61,0.33-3.45
				c1.45-0.81,2.6-0.13,2.99,1.5c0.42,1.74,1.11,3.47,3.12,3.27c2.35-0.23,1.51-2.6,1.98-4.04c0.93-2.88,2.02-5.42,4.54-7.51
				c2.24-1.86,3.75-4.61,5.5-7.04c3.02-4.2,6.05-8.36,10.34-11.42c3.43-2.45,5.64-6.11,8.6-8.99c2.83-2.77,6.22-4.99,10.12-6.26
				c2.68-0.88,4.97-2.46,4.85-5.61c-0.13-3.22,0.33-6.88-3.59-8.6c-0.15-0.07-0.3-0.14-0.45-0.22c-2.39-1.31-3.76-3.3-3.66-6.05
				c0.05-1.17,1.16-1.53,2.21-1.6c2.83-0.18,3.26,2.36,4.55,3.99c3.15,3.99,6.16,8.15,9.72,11.74c3.03,3.05,6.93,1.76,10.28,0.19
				c3.61-1.68,7.15-3.62,10.47-5.82c12.85-8.53,27.22-13.83,41.46-19.26c9.35-3.57,19.69-3.02,29.47-5.09
				c18.9-3.99,35.51,3.49,52.07,11.08c10.86,4.98,21.27,11.36,32.85,14.23c14.99,3.71,30.23,8.35,45.84,1.82
				c3.75-1.57,8.08-0.33,11.84,0.2c19.86,2.82,38.87,8.48,57.08,17.27c13.06,6.3,27.17,9.99,41.87,10.18
				c2.74,0.04,5.59-0.98,8.21-1.98c5.05-1.92,10.26-2.94,15.61-3.12c9.9-0.32,17.58-5.51,25.09-11.11c2.53-1.89,4.87-4.02,7.43-5.87
				c0.88-0.64,2.34-1.19,3.18-0.05c0.85,1.15-0.17,2.25-1,3.01c-3.69,3.37-7.35,6.78-11.21,9.94c-3.47,2.85-8.3,3.58-10.84,8.18
				c-1.3,2.36-5.13,1.88-7.97,1.52c-7.89-1-15.2-0.84-22.49,3.86c-6.92,4.46-14.61,0.59-21.73-1.3
				c-18.66-4.96-35.89-13.94-54.42-19.45c-12.1-3.6-24.42-5.29-36.8-6.17c-6.26-0.44-12.76,1.86-19.1,3.2
				c-3.46,0.73-2.94,3.4-1.51,5.45c5.08,7.29,5.74,16.25,9.38,24.07c0.33,0.71,0.53,1.79,0.22,2.42c-1.78,3.68-2.34,6.44,3.09,7.3
				c1.93,0.3,1.32,2.62,1.05,4.31c-0.42,2.58,0.66,4.07,3.37,2.99c1.76-0.7,3.2-0.35,4.81,0.17c1.17,0.38,2.6,1.68,3.58,0.12
				c1.06-1.68,0-3.16-1.28-4.39c-2.28-2.2-4.57-4.37-6.82-6.59c-0.92-0.91-2.3-1.86-1.15-3.33c1.12-1.44,2.8-2.09,4.41-0.9
				c2.39,1.77,5.19,3.21,6.72,5.88c2.42,4.23,6.47,6.66,10.11,9.52c2.93,2.3,6.14,3.62,9.95,1.47c1.29-0.72,2.96-0.78,3.23-2.61
				c0.27-1.85-0.55-3.13-2.17-4.1c-2.01-1.21-5.07-1.58-4.71-4.99c0.1-0.91,0.25-2.42,1.49-2.21c2.67,0.45,3.82,2.98,5.59,4.68
				c2.39,2.29,4.91,4.47,7.51,6.51c1.49,1.17,3.56,1.94,4.98,0.27c1.53-1.82-0.39-2.89-1.65-3.96c-0.45-0.38-0.69-1.01-1.43-2.13
				c4.02,0.38,5.12,3.67,7.46,5.16c2.63,1.68,5.02,3.52,7.99,0.72c1.53-1.44,3.13-0.4,4.69,0.06c6.17,1.82,12.14,1.76,18.64,0.65
				c9.87-1.68,20.02-1.02,28.22,6.14c7.77,6.78,16.27,11.35,26.97,10.51c0.89-0.07,1.91,0.46,2.73,0.95c1.74,1.05,3.6,6.97,4.9-0.28
				c0.14-0.75,1.04-0.74,1.64-0.31c1.82,1.32,3.82,2.73,5.85,0.92c3.01-2.69,7.29-4.27,8.02-9.11c0.32-2.1,1.28-4.11,2-6.14
				c0.65-1.85,0.9-3.7-0.95-4.94c-2.09-1.41-4.06-0.34-5.3,1.24c-1.41,1.79-2.17,4.08-3.34,6.08c-2.49,4.29-5.58,4.67-8.58,0.79
				c-1.91-2.48-3.96-4.43-7.03-5.23c-1.31-0.34-2.54-0.99-3.21-2.23c-2.23-4.16-5.94-4.96-10.2-4.73c-1.64,0.09-3.45,0.31-4.41-1.53
				c-0.61-1.17-0.25-2.29,0.64-3.2c1.61-1.65,3.62-1.97,5.47-0.77c2.9,1.88,4.58,1.16,7.28-1.02c2.44-1.97,6.49-1.91,9.8-2.84
				c7.9-2.23,15.01-5.17,18.76-13.61c3.22-7.25,10.15-11.77,15.06-17.89c0.32,3.72-2.66,5.43-4.38,7.86
				c-0.95,1.34-2.44,2.52-1.49,4.4c0.91,1.82,2.7,1.61,4.38,1.61c8.84,0.02,17.65,0.22,26.25,2.66c4.76,1.35,5.43,3.76,1.88,7.36
				c-2,2.03-4.22,3.78-7.21,4.19c-1.28,0.18-3,0.19-2.93,2c0.07,1.9,1.83,2.19,3.31,2.35c1.14,0.12,2.32-0.1,3.49-0.15
				c2.34-0.12,4.23,0.64,5.49,2.74c1.35,2.26,0.38,4.18-0.84,6.04c-4.6,7.03-11.62,5.23-18.13,4.68c-2.96-0.25-5.89-1.08-8.91-0.8
				c-2.09,0.19-4.22,0.59-4.06,3.32c0.13,2.29,1.96,2.79,3.93,2.99c5.46,0.54,10.95,0.95,16.37,1.82c3.26,0.53,7.46,0.33,7.92,5.22
				c0.31,3.31-3.73,9.01-7.63,9.61c-6.66,1.02-13.41,3.02-20.19,0.28c-4.48-1.8-9.24-0.51-13.85-0.95
				c-0.87-0.08-2.14,0.42-2.69,1.09c-6.2,7.48-13.5,4.81-20.79,2.37c-1.42-0.47-2.81-1.12-4.27-1.39
				c-8.58-1.59-15.77-5.96-22.52-11.16c-2.49-1.92-5.08-2.9-8.29-2.78c-2.8,0.11-5.69-0.12-8.44-0.69
				c-9.98-2.09-19.72-0.61-29.73,0.46c-16.8,1.8-33.68,4.69-50.72,2.01c-5.43-0.85-10.33-3.84-15.97-3.79
				c-1.16,0.01-2.33-0.25-3.48-0.17c-1.73,0.13-3.37,0.7-3.96,2.53c-0.61,1.9,0.52,3.22,1.99,4.17c3.66,2.37,5.73,5.47,5.16,10.02
				c-0.2,1.59,0.32,3.3,1.66,3.96c7.02,3.43,11.03,10.6,17.92,14.16c3.81,1.97,7.5,3.8,11.63,0.76c1.14-0.84,2.6-1.04,3.57,0.3
				c0.99,1.37,0.13,2.31-0.93,3.37c-2.59,2.62-4.59,5.87-9.27,3.29c-1.68-0.93-3.85,0.69-5.33,2.09
				c-7.6,7.2-15.96,13.49-24.11,20.04c-0.97,0.78-2.04,2.47-3.28,0.94c-1.19-1.47,0.59-2.21,1.57-3.03
				c7.51-6.29,13.9-13.82,21.9-19.56c1.57-1.13,2.29-2.76,0.64-4.18c-2.33-2.01-5.08-3.85-7.86-0.77c-3.78,4.2-7.49,8.47-10.9,12.96
				c-2.49,3.27-5.06,6.37-9.03,9.88c0.74-3.82,2.51-5.78,3.98-7.83c4.07-5.65,8.16-11.29,12.37-16.83c1.79-2.36,1.66-4.25-0.75-5.91
				c-2.08-1.43-4.68-2.44-6.04,0.33c-3.11,6.33-9.09,8.57-14.81,11.14c-7.32,3.3-13.71,7.86-17.69,14.77
				c-2.57,4.46-3.37,9.86-6.06,14.48c-1.94,3.31-3.85,6.59-6.13,9.69c-9.96,13.54-18.22,28.07-26.19,42.87
				c-4.65,8.62-5.76,17.64-6.33,26.77c-0.37,6.02,2.69,11.92,5.54,17.27c1.6,3.01,3.73,0.69,4.6-1.47
				c2.8-6.93,5.12-14.07,8.22-20.86c10.54-23.16,20.59-46.7,40.79-63.65c3.19-2.68,7.39-4.06,10.26-7.48
				c-0.82,4.13-3.98,6.73-6.63,9.05c-14.44,12.66-24.76,28.37-32.98,45.31c-5.46,11.25-10.12,22.95-12.48,35.6
				c-1.9,10.19-5.28,20.23-7.27,30.45c-2.28,11.71-6.09,23.16-6.63,35.18c-0.27,5.88-2.1,11.45-2.93,17.22
				c-0.43,2.97-0.9,5.92-0.58,8.95c0.24,2.23-0.16,4.35-1.93,5.95c-4.94,4.47-6.42,10.3-6.47,16.65
				c-0.14,18.12,3.97,35.62,7.74,53.17c1.08,5.03,1.24,10.31,2.77,15.18c2.34,7.44,5.81,14.52,8.23,21.93
				c3.2,9.82,9.3,18.37,12.03,28.35c0.37,1.36,1.89,3.23,0.26,4.03c-2.07,1.01-2.57-1.47-3.3-2.82
				c-7.88-14.49-14.07-29.48-18.33-45.62c-3.74-14.18-7.07-28.33-9.35-42.77c-0.34-2.12-0.14-4.32-0.24-6.48
				c-0.05-1.18-0.15-2.49-1.62-2.73c-1.68-0.28-2.41,0.96-2.76,2.3c-0.29,1.11-0.33,2.3-0.39,3.45c-1.15,21.83-2.85,43.62-4.63,65.4
				c-0.73,8.95-1.31,17.99-0.8,26.92c0.31,5.44,1.53,11.05,8.99,12.87c16.38,4,31.23,12.11,46.71,18.55
				c10.82,4.5,21.97,8.55,33.74,10.29c1.93,0.29,3.85,1.1,5.63,1.98c7.54,3.75,15.89,1.55,23.7,3.32c1.98,0.45,3.9-0.65,5.48-1.99
				c5.23-4.44,4.27-17.42-1.63-20.85c-7.62-4.43-12.56-11.83-19.39-17.17c-5.35-4.18-10.12-9.17-14.8-14.12
				c-3.87-4.09-7.24-8.52-9.75-13.77c-6.16-12.89-13.7-25.05-21.79-36.83c-4.28-6.24-4.87-13.76-7.58-20.53
				c-2.72-6.78-4.83-13.83-8.67-20.11c-2.77-4.52-1.43-9.9-3.34-14.68c2.38,3.04,3.32,6.73,4.84,10.05
				c7.33,15.97,15.35,31.62,21.88,47.96c2,4.99,6.3,8.46,9.02,13.11c6.59,11.28,11.14,23.86,20.91,33.2
				c7.69,7.35,16.02,14.05,22.71,22.42c1.45,1.82,2.95,3.6,4.46,5.37c0.77,0.89,1.65,1.84,2.97,1.25c1.21-0.54,1.7-1.81,1.45-2.95
				c-2.2-9.96,2.84-18.91,3.9-28.4c1.03-9.15,0.44-18.32,0.07-27.46c-0.19-4.86,0.47-9.21,3.15-13.28
				c4.46-6.76,6.15-14.63,8.62-22.16c0.79-2.42,1.78-5.64-2.04-7.25c-1.74-0.73-1.1-2.33-0.41-3.42c6.08-9.53,4.52-19.7,2.68-29.92
				c-0.25-1.39-0.61-2.75-2.3-2.76c-1.69-0.01-2.82,1.19-3.37,2.61c-3.94,10.09-12.18,16.85-19.03,24.67
				c-1.04,1.19-2.24,2.53-4.59,2.23c0.53-4.73,4.5-7.31,7.08-10.26c8.35-9.56,15.21-20.16,22.59-30.4
				c12.44-17.28,24.7-34.69,37.02-52.06c0.86-1.22,1.47-2.61,2.27-3.87c0.72-1.12,1.72-2.71,3.09-1.84c4.08,2.58,5.4-0.56,7.5-2.95
				c3.17-3.6,7.46-6.09,10.34-10.05c0.75-1.02,1.72-1.05,2.99-0.14c4.03,2.88,8.49,2.26,11.37-2.02
				c5.66-8.42,10.85-17.16,16.43-25.63c4.13-6.26,8.45-12.38,12.12-18.94c0.85-1.53,2.08-2.84,3.82-5.17
				c0.02,3.46-0.83,5.36-1.92,7.2c-7.78,13.16-15.56,26.33-23.33,39.51c-0.82,1.4-2.31,2.8-1.33,4.53c1.18,2.07,3.28,1.03,5,0.87
				c6.46-0.59,12.96-2.1,19.35-1.71c9.26,0.57,14.18-4.64,18.08-11.52c1.87-3.29,3.66-6.26,7.16-7.96c1.72-0.83,2.46-2.64,3.51-4.14
				c1.41-2.01,2.7-6.22,5.02-0.44c0.64,1.59,2.56,1.23,4.05,0.88c10.27-2.41,19.68-0.58,28.55,5.19c3.33,2.17,7.3,3.21,11.41,3.31
				c3.51,0.09,6.38-1.43,7.97-4.3c6.51-11.74,10.12-24.3,8.92-37.82c-0.44-4.94-2.83-8.73-7.69-11.42
				c-8.75-4.84-17.94-7.83-27.76-9.17c-1.12-0.15-2.26-0.52-3.26-1.03c-4.61-2.35-6.25-1.56-6.66,3.57
				c-0.41,5.15,0.13,10.5-1.1,15.43c-2.37,9.56-4.7,19.33-12.58,26.58c2.15-5.91,4.23-11.84,6.47-17.72
				c2.78-7.33,5.15-14.54,4.11-22.73c-1.16-9.15-6.61-14.65-13.89-18.85c-3.24-1.87-4.35,0.34-4.46,3.5
				c-0.25,6.81-0.68,13.62-1.08,20.43c-0.09,1.55,0.13,3.32-2.17,4.5c-1.39-3.32-0.08-6.46-0.4-9.47c-0.19-1.81-0.19-3.69,0.05-5.49
				c1.79-13.44-5.91-20.94-16.48-26.8c-9.73-5.39-19.63-10.48-26.15-20.21c-2.54-3.79-7.56-4.68-11.31-7.12
				c-0.71-0.46-1.64-0.54-2.31,0.13c-0.91,0.9-0.46,1.92,0.18,2.69c1.94,2.35,2.85,5.28,4.45,7.78
				c7.35,11.54,8.61,24.97,12.01,37.73c0.15,0.56-0.15,1.24-0.26,1.98c-2.59-0.53-2.47-2.7-3.03-4.27
				c-4.24-11.9-7.59-24.12-13.36-35.44c-0.68-1.33-1.28-2.72-2.15-3.91c-0.88-1.21-2.13-2.46-3.76-1.82
				c-1.98,0.78-0.96,2.49-0.72,3.89c0.24,1.41,1.2,3.36-0.8,3.84c-1.97,0.48-2.14-1.73-2.51-3.06c-1.95-7.11-8.89-9.57-13.31-14.37
				c-1.67-1.81-4.02-2.99-5.8-4.72c-5.39-5.22-11.13-8.88-19.15-9.48c-7.89-0.59-15.26-4.53-23.22-5.68
				c-1.76-0.26-4.58-0.71-3.73-3.54c0.73-2.41,3.03-1.87,5.11-1.52c10.03,1.68,19.38,5.77,29.21,8.14c2.39,0.58,4.94,1.43,6.87,2.89
				c10.01,7.59,22.07,9.82,33.64,13.42c8.25,2.57,16.18,5.46,21.55,13.33c3.55,5.2,9.61,8.09,15.15,11.2
				c10.72,6.02,21.63,11.76,32.04,18.3c7.18,4.52,14.27,9.49,22.26,11.93c15.14,4.63,29.83,10.59,46.41,10.67
				c11.32,0.05,22.69,3.95,33.59,8.36c12.17,4.93,23.79,11.39,36.54,14.74c14.04,3.69,27.43,9.95,42.26,10.63
				c3.09,0.14,6.18,1.34,9.17,2.35c4,1.34,6.39-0.01,7.78-3.83c1.52-4.16,1.61-8.5,1.67-12.83c0.11-8.07,10.28-16.7,18.19-14.64
				c10.41,2.71,18.46,9.03,23.39,18.68c1.51,2.96,4.31,4.56,5.84,7.37c9.18,16.82,15.25,34.35,13.29,53.94
				c-0.6,5.94-1.8,7.36-7.86,8.1c-4.19,0.51-8.23,0.46-12.35-0.7c-17.89-5.02-36-8.92-54.35-12.11c-16.78-2.91-33.55-5-50.51-5.6
				c-7.64-0.27-15.19,1.29-22.78,2.07c-16.56,1.7-33.28,5.38-49.74-1.14c-3.44-1.36-6.57-3.15-9.82-4.84
				c-12.08-6.27-24.84-11.04-37.62-15.6c-10.6-3.78-23.69,1.2-30.05,10.28c-2.47,3.53-5.34,6.79-8.09,10.12
				c-2.06,2.49-4.65,3.47-7.97,3.07c-9.27-1.11-18.54,1.62-27.84,0.09c-1.76-0.29-3.62,0.17-5.28,1.17
				c-4.45,2.68-9.05,4.17-14.24,1.97c-1.79-0.76-3.64-0.16-5.21,0.95c-8.44,5.96-16.56,12.6-22.6,20.81
				c-8.75,11.9-17.34,24.02-26.05,35.91c-6.68,9.12-4.72,17.2-3.09,25.76c2.28,11.99,1.21,23.23-2.76,34.68
				c-2.96,8.54-6.24,16.88-10.25,24.96c-1.02,2.05-0.75,4.22-0.56,6.38c0.51,5.98,0.7,11.97,0.99,17.95
				c0.4,8.36-1.88,16.18-3.94,24.02c-1.86,7.11-1.96,14.25-0.89,21.28c0.75,4.93,1.51,9.83,1.91,14.81
				c0.65,8.12-4.1,13.71-11.83,15.75c-9.13,2.41-16.99-1.47-25.29-3.46c-1.88-0.45-4.01-1.95-5.47,0.19
				c-1.49,2.19,1.33,2.95,2.12,4.41c5.08,9.38,11.56,17.87,13.11,29.16c1.86,13.54,3.68,27.1,3.62,40.68
				c-0.05,10.49,0.63,20.9,1.14,31.33c0.97,19.7,3.68,39.21,7.88,58.49c0.66,3.05,1.64,5.85-1.39,8.7
				c-1.56,1.46-2.02,4.54-1.46,7.08c0.34,1.56,1.46,2.93,3.17,2.51c1.92-0.47,1.7-2.19,1.19-3.7c-0.21-0.63-0.61-1.18-0.87-1.79
				c-0.45-1.05-1.26-2.48,0.39-2.88c1.65-0.4,1.69,1.34,1.69,2.4c0.02,3.88,1.75,7.08,3.86,10.11c2.05,2.94,2.53,5.99,2.86,9.65
				c0.54,6,2.14,12.14,4.88,17.65c2.06,4.15,10.14,4.01,13.54-0.19c3.48-4.3,7.68-5.97,13.11-5.48c6.18,0.55,12.22-0.82,18.33-1.6
				c18.65-2.39,33.46-12.5,48.38-22.7c5.34-3.65,11.22-6.47,15.86-11.19c2.91-2.95,2.83-5.11-0.29-7.84
				c-7.72-6.76-5.51-17.71,4-22.14c4.18-1.95,8.95-2.8,12.46-6.14c5.4-5.13,4.95-7.99-1.87-10.83c-7.31-3.05-14.93-4.83-22.89-4.32
				c-9.06,0.58-17.9-2.01-26.91-1.68c-21.15,0.78-42.14,3.49-63.19,5.46c-4.48,0.42-8.94,0.98-13.41,1.49
				c-2.17,0.25-4.35,0.31-6.43-0.41c-2.03-0.7-4.82-1.5-3.91-4.18c0.96-2.81,3.32-0.89,5.05-0.26c2.27,0.83,4.61,0.81,6.92,0.52
				c21.32-2.63,42.72-4.38,64.14-5.97c14.53-1.08,28.95,0.52,43.41,1.25c4.53,0.23,8.73,0.95,12.68-2.51
				c2.69-2.35,4.96-0.92,4.71,2.79c-0.18,2.6,1.07,3.63,3.05,4.44c3.76,1.54,6.81,3.84,6.99,8.25c0.2,4.9-2.74,8.13-6.71,10.33
				c-3.04,1.68-6.3,3.04-9.58,4.23c-5.05,1.83-7.63,5.63-9.01,10.51c-0.71,2.5,0.88,4.06,2.39,5.65c6.06,6.38,5.89,12.61-1.48,17.82
				c-7.46,5.26-14.91,10.66-23.13,14.76c-10.87,5.42-21.8,10.71-32.69,16.08c-5.71,2.82-11.58,4-17.9,2.28
				c-4.08-1.11-8.27-0.7-12.41-0.1c-1.52,0.22-3.42,0.5-3.66,2.12c-0.85,5.79-5.17,5.55-9.05,5.02c-5.11-0.7-8.76-0.39-8.43,6.1
				c0.06,1.25-0.81,2.29-2.2,2.21c-1.46-0.09-1.79-1.32-1.84-2.55c-0.18-4.36-1.18-8.56-2.38-12.74c-0.54-1.89-1.39-3.63-3.5-3.7
				c-2.58-0.09-2.64,2.12-2.72,3.94c-0.13,3.28-2.2,3.1-4.54,2.85c-1.31-0.14-3.01-0.12-2.74,1.86c0.23,1.66,1.75,1.87,3.15,1.59
				c0.96-0.19,1.84-0.82,2.81-0.99c2.56-0.46,3.02,1.7,3.59,3.32c0.72,2.05-0.81,2.56-2.45,2.77c-1.15,0.15-2.35,0.18-3.42,0.56
				c-1.11,0.4-2.06,1.25-2.01,2.59c0.06,1.6,1.4,1.64,2.55,1.77c2.48,0.29,4.96,0.54,7.45,0.81c0.99,0.11,2.15,0.12,2.19,1.47
				c0.03,0.91-0.74,1.46-1.57,1.73c-5.19,1.71-10.35,3.53-15.6,5.02c-1.69,0.48-3.76,0.4-5.19-1.06c-3.27-3.34-7.58-1.77-11.39-2.43
				c-1.95-0.34-2.62,1.29-2.27,2.98c0.72,3.45-1.42,4.37-4.08,4.98c-5.06,1.18-10.2,1.62-15.37,1.46
				c-8.34-0.26-16.62,0.09-24.89,1.35c-2.9,0.44-5.97,0.07-8.93-0.2c-10.77-0.97-21.53-2.03-32.29-3.09
				c-8.48-0.83-14.85-5.56-20.43-11.48c-2.4-2.55-3.14-5.26,1.19-6.88c0.61-0.23,1.27-0.58,1.68-1.06
				c7.31-8.46,18.37-10.11,27.53-15.18c1.32-0.73,3.28-2.37,4.24-0.1c0.97,2.27-1.7,2.18-2.98,3.02c-5.42,3.56-11.38,5.8-17.49,7.82
				c-3.63,1.2-4.55,5.07-6.25,8.05c-0.44,0.77-0.07,1.7,0.7,2.18c0.95,0.6,2.03,0.4,2.76-0.36c1.49-1.56,2.88-3.22,4.26-4.88
				c1.76-2.12,3.47-3.23,5.48-0.25c1.05,1.57,2.76,1.75,4.46,1.71c1.63-0.04,3.56,0.51,4.67-1.04
				C882.94,1092.98,879.98,1092.4,880.42,1090.8z M1280.89,613.18c0.37,0.92,0.65,1.9,1.13,2.76c0.81,1.47,2.03,2.26,3.71,1.41
				c1.39-0.71,1.74-1.97,1.21-3.39c-0.6-1.6-1.75-2.46-3.49-1.92c-0.94,0.29-1.79,0.85-2.68,1.29c-0.12-1.16-0.13-2.34-0.38-3.47
				c-0.24-1.09-0.29-2.64-1.73-2.71c-1.62-0.08-1.63,1.48-1.59,2.58c0.07,2.25-1.86,4.17-1.3,6.66
				C1278.17,616.03,1278.59,613.13,1280.89,613.18z M914.44,925.55c-3.12,1.03-6.25,2.06-9.37,3.08c-1.32,0.43-2.75,1.01-2.25,2.67
				c0.48,1.55,2.41,1.8,3.36,1.2c3.04-1.91,7.37-2.44,8.22-6.96c6.37,1.3,10.87-2.09,15.02-6.33
				C924.42,921.31,919.43,923.43,914.44,925.55z M937.9,389c0.65,2.92,0.38,4.13-1.81,10.16c-2.89,7.95-4,8.56-12.04,6.64
				c-1.56-0.37-3.11-0.46-3.77,1.36c-0.57,1.55,0.53,2.5,1.72,3.21c2.57,1.53,5.24,2.91,7.76,4.52c6.21,3.96,12.84,6.86,20,8.64
				c4.05,1.01,5.08-3.02,7.68-4.41c1.1-0.59,0.6-2.33-0.41-3.03c-3.86-2.67-3.03-6.24-2.17-9.89c3.44-14.75-6.37-33.49-23.2-37.98
				c-2.04-0.54-4.66-1.57-6.16,0.26c-1.81,2.22,0.81,3.81,1.94,5.52c0.42,0.64,1.16,1.28,0.19,2.13c-2.15-0.37-3.21-2.19-4.69-3.48
				c-1.75-1.53-3.83-3.89-5.96-3.1c-4.18,1.56-5.22-0.76-6.64-3.66c-1.41-2.89-3.85-4.74-7.25-5.59c-0.56,3.04,2.96,4.61,2.1,7.64
				c-3.37-1.88-6.02-4.11-8.53-6.55c-16.55-16.11-36.58-22.51-59.3-20.58c-12.57,1.07-25.43,1.72-36.81,8.01
				c-9.72,5.37-20.65,8.04-29.84,14.69c-12.73,9.2-28.3,13.89-40.14,24.68c-1.15,1.05-2.74,2.26-5.13,2.22
				c2.44-4.56,6.67-6.43,9.95-9.3c1.37-1.19,3.35-2.54,1.94-4.48c-1.36-1.87-3.26-0.41-4.95,0.3c-6.09,2.56-9.36,8.37-14.17,12.2
				c-9.98,7.94-15.4,19.01-22.55,28.9c-0.84,1.16-2.23,2.57-1,4.01c1.55,1.82,2.95,0.24,4.26-0.75c0.67-0.51,1.39-1.1,2.19-0.4
				c0.79,0.69,0.47,1.63-0.03,2.26c-5.62,7.18-8.51,15.64-11.98,23.93c-3.16,7.55-6.52,15.22-7.88,23.07
				c-2.8,16.13-3.22,32.38,4.18,47.92c5.15,10.81,10.2,21.17,19.08,29.97c10.09,9.99,21.61,14.34,35.05,15.67
				c3.8,0.38,7.57,1.12,11.34,1.79c0.97,0.17,2.2,0.7,2.08,1.81c-0.18,1.66-1.68,1.31-2.78,1.14c-4.27-0.66-8.55-1.31-12.78-2.15
				c-3.39-0.67-7.24-1.36-9.04,2c-2.03,3.78,1.26,6.42,3.9,8.78c0.49,0.44,1.01,0.94,1.61,1.16c6.73,2.5,13.47,5.03,20.86,3.24
				c4.28-1.03,8.62-0.7,12.94-0.66c1.26,0.01,3.13-0.25,3.3,1.42c0.18,1.77-1.69,1.73-2.94,1.88c-2.81,0.34-5.62,0.59-8.44,0.85
				c-3.82,0.35-5,2.21-3.35,5.75c0.86,1.83,1.79,3.67,3.48,4.81c5.74,3.88,10.95,8.84,18.53,9.01c2.38,0.05,4.45,1.21,6.53,2.32
				c6.52,3.47,6.81,3.3,7.98-4.06c0.16-1,0.23-2.13,1.54-2.16c0.95-0.03,1.42,0.8,1.61,1.64c0.62,2.78,2.19,4.61,4.78,5.98
				c9.47,5,17.67,12.37,28.86,14.11c6.69,1.04,12.95,4.01,19.87,4.58c7.95,0.65,15.93,0.24,23.88,1.71
				c12.74,2.36,12.8,2.01,15.86-10.58c2.85-11.74,2.85-11.74-7.02-18.73c-0.81-0.58-1.65-1.13-2.41-1.78
				c-1.35-1.15-2.93-2-4.58-1.23c-5.05,2.33-9.66,0.7-14.47-0.93c-4.06-1.37-8.27-2.53-12.74-1.57c-1.77,0.38-3.49-0.24-5.25-1.06
				c-6.65-3.09-11.43-8.31-15.99-13.72c-1.68-1.99-2.52-3.07-4.97-0.85c-2.3,2.09-5.03-0.37-7.6-0.48c-2.1-0.09-1.29-2.23-1.13-3.66
				c0.08-0.72-0.14-1.4-0.85-1.59c-1.38-0.37-2.24,0.6-2.86,1.56c-1.4,2.19-2.08,4.84-5.13,5.74c-1.58,0.47-2.66,2.18-2.94,3.84
				c-0.71,4.22-5.12,6.06-5.52,10.72c-1.97-2.03-1.55-3.57-0.81-4.83c3.22-5.55,6.5-11.07,9.92-16.5c0.79-1.26,2.22-2.23,1.48-3.91
				c-0.84-1.92-2.65-1.8-4.32-1.5c-1.8,0.33-3.54,0.99-5.34,1.26c-3.3,0.49-6.64,1.2-10.18-0.36c0.6-0.69,0.88-1.1,1.24-1.4
				c1.22-0.99,3.5-1.22,3.08-3.41c-0.38-1.97-2.5-1.97-4.01-2.5c-5.34-1.86-10.71-3.66-16.09-5.41c-4.42-1.44-8.69-3.28-14.52-3.97
				c3.09-1.95,4.66-0.76,6.27-0.73c1.62,0.04,3.63,0.65,4.31-1.42c0.57-1.74-1.05-2.74-2.32-3.45c-2.47-1.37-5.02-2.62-7.63-3.7
				c-4.2-1.74-7.22-4.72-9.46-8.55c-0.93-1.58-1.03-3.36,0.84-4.32c1.7-0.87,2.94,0.27,3.49,1.79c0.75,2.06,2.3,3.1,4.04,4.2
				c10.42,6.57,20.76,13.27,31.2,19.8c2.11,1.32,5.18,4.18,6.89,1.46c1.82-2.91-2.19-4.2-4.32-5.5
				c-10.69-6.52-14.22-18.05-19.83-28.12c-0.47-0.85-0.36-2.08,0.7-2.63c1.15-0.6,1.99,0.27,2.44,1.11c1.32,2.49,2.43,5.1,3.72,7.61
				c4.57,8.91,12.82,14.67,18.91,22.02c7.65,9.23,17.84,12.15,27.25,17.11c6.26,3.29,12.81,6.55,20.02,7.76
				c1.37,0.23,3.37,0.63,2.84,2.69c-0.47,1.82-2.3,1.63-3.8,1.39c-0.98-0.16-1.91-0.59-2.87-0.85c-1.27-0.34-2.75-0.94-3.51,0.66
				c-0.7,1.46,0.39,2.55,1.4,3.42c3.2,2.76,6.57,5.1,11.14,4.82c6.03-0.36,11.92,0.16,17.67,2.42c2.84,1.12,5.96,1.19,7.55-2.57
				c0.88-2.08,2.16-2.62,3.38-0.18c0.74,1.49,1.71,2.54,3.5,1.96c1.91-0.61,2.46-2.3,2.34-4c-0.37-5.65-0.46-11.58-3.23-16.55
				c-6.39-11.47-5.8-22.59,0.56-33.63c4.73-8.21,9.77-16.23,14.65-24.35c0.99-1.65,3.05-3.51,1.26-5.29
				c-1.94-1.94-3.97,0.05-5.76,1.19c-4.21,2.7-8.15,5.74-11.88,9.08c-1.21,1.08-2.76,1.59-3.93,0.02c-0.95-1.28-0.32-2.74,0.81-3.53
				c6.9-4.85,12.39-11.62,20.81-14.41c5.35-1.77,10.46-4.29,15.6-6.64c5.66-2.59,10.84-5.77,13.64-11.78
				c5.23-11.22,14.9-17.49,25.53-22.7c4.8-2.35,8.35-6.04,10.22-11.12c2.07-5.62,0.97-9.03-4.06-12.4
				c-2.48-1.66-5.06-3.23-7.74-4.55c-21.86-10.76-41.69-24.82-62.08-37.99c-7.34-4.74-14.7-9.05-24-8.51
				c-3.95,0.23-7.97-0.53-11.94-1c-1.82-0.22-4.02-0.73-3.86-3.08c0.19-2.7,2.54-2.7,4.59-2.51c3.98,0.36,7.95,0.84,11.92,1.25
				c1.3,0.13,2.91,0.6,3.53-0.97c0.7-1.75-0.75-2.84-2-3.59c-3.57-2.14-7.26-3.97-11.35-5.06c-5.76-1.54-11.46-3.35-17.11-5.25
				c-1.56-0.52-3.13-1.85-2.38-3.82c0.78-2.07,2.71-1.56,4.32-1.1c2.88,0.82,5.75,1.68,8.57,2.68c5.78,2.05,11.78,3.52,16.92,7.16
				c13.66,9.68,25.25,22,40.06,30.33c6.39,3.6,11.7,8.02,19.39,4.43c0.55-0.26,1.33-0.18,1.98-0.08c2.8,0.44,4.46-1.16,6.51-2.79
				C935.17,396.87,935.27,392.74,937.9,389z M868.27,849.82c0.06,6.99,0.69,13.72,7.47,17.96c0.75,0.47,0.96,1.72,1.56,2.5
				c4.6,5.93,5.83,13.34,8.81,19.99c1.32,2.94,2.93,4.35,6.13,2.91c12.23-5.51,25.16-10.04,31.74-23.26c0.37-0.75,1-1.42,0.25-2.2
				c-0.68-0.71-1.72-0.62-2.3-0.13c-3.71,3.13-9.15,2.94-12.54,5.59c-4.02,3.15-5.87,1.82-9.11-0.46c-2.51-1.77-1.69-2.58,0.14-3.24
				c3.9-1.42,7.25-4.08,11.44-4.84c1.23-0.22,2.2-1.08,1.79-2.5c-0.44-1.52-1.87-1.57-2.84-0.92c-3.62,2.45-6.68,0.02-9.85-1
				c-1.42-0.46-2.68-1.21-4.28-0.83c-1.34,0.32-3.34,1.62-3.94-0.22c-0.67-2.07,1.75-2.37,3.19-2.98c0.76-0.32,1.61-0.42,2.4-0.67
				c1.18-0.37,3.17-0.05,2.93-1.91c-0.25-1.86-1.97-2.62-3.81-2.4c-1.14,0.14-2.21,0.72-3.34,0.98c-2.18,0.49-4.99,1.96-4.05-2.6
				c0.38-1.86-1.32-2.38-2.53-3.26c-3.62-2.62-8.26-2.35-12.07-4.58c-4.29-2.51-6.49-1.26-7.16,3.6
				C868.1,846.81,868.27,848.33,868.27,849.82z M880.71,551.85c0,0.33-0.03,0.67,0,1c0.15,1.63-0.16,3.8,1.75,4.28
				c2.08,0.52,1.67-2.02,2.57-3.01c2.26-2.49,2.21-5.85,3.45-8.72c5.15-11.97,12.77-22.52,19.12-33.8c2.49-4.42,6.15-7.8,8.96-11.88
				c0.77-1.12,1.57-2.29,0.6-3.62c-0.7-0.96-1.86-0.89-2.72-0.35c-4.71,2.98-10.14,4.81-13.16,10.26
				c-4.35,7.84-7.7,16.2-12.79,23.67C883.97,536.32,879.96,543.29,880.71,551.85z M941.13,1010.12c4.13-2.81,7.3-5.7,12.1-4.98
				c1.23,0.19,3.07,0.52,3.21-1.33c0.14-1.86-1.7-1.91-2.95-1.7c-5.21,0.89-10.4,1.91-15.58,2.97c-1.13,0.23-2.7,0.98-2.29,2.2
				c1.91,5.7-0.22,11.79,1.86,17.46c0.5,1.36,0.94,3.07,0.56,4.38c-1.8,6.17,0.48,12.7-1.88,18.84c-0.63,1.65,0.94,2.88,2.62,2.86
				c2.45-0.04,5.44,0.18,6.61-2.48c1.32-3.01-3.12-2.31-3.61-4.63c2.44-2.53,6.15-2.12,9.62-3.61c-2.82-0.91-7.38,1.36-6.66-2.65
				c0.6-3.36-0.68-4.41-2.47-6.06c-1.06-0.98-2.77-2.21-1.07-3.65c2.69-2.28,4.79-5.17,9.13-5.44c4.42-0.28,8.53-2.62,12.31-5.25
				c-2.86-0.87-5.45-0.85-8.09,0.55c-3.45,1.83-7.22,2.43-11.11,1.85c-0.59-0.09-1.42-0.53-1.59-1.01
				c-0.34-0.97,0.52-1.41,1.32-1.72c3.1-1.2,6.18-2.42,9.59-2.61c1.56-0.09,3.13-1.07,3.02-2.77c-0.12-1.87-2.04-1.14-3.23-1.4
				C949.01,1009.17,945.49,1011.57,941.13,1010.12z M1138.45,388.35c-3.16-0.32-8.22,4.18-8.02,7.26c0.17,2.67,2.31,3.2,3.78,1.65
				c2.88-3.02,5.91-1.89,8.65-0.67c2.34,1.04,3.82,0.29,5.94-0.39c3.73-1.19,7.5-4.68,11.83-0.77c1.43,1.29,3.53,0.36,5.07-0.78
				c0.88-0.65,1.15-1.63,0.69-2.66c-0.84-1.85-2.57-1.82-4.24-1.93C1154.24,389.5,1146.34,388.93,1138.45,388.35z M1253.2,614.62
				c1.17,1.41-0.38,4.75,2.62,4.5c2.67-0.23,5.34-1.78,5.67-4.74c0.39-3.51,2.1-6.14,3.86-8.99c2.58-4.18,1.31-8.67,0.01-12.99
				c-0.25-0.82-0.98-1.46-1.89-1.29c-0.93,0.18-1.26,1.07-1.26,1.92c0,1.32,0.04,2.66,0.23,3.96c0.65,4.46-1.09,8.13-3.74,11.49
				c-0.78,1-1.99,2.65-3.19,1.43c-3.4-3.45-4.29-0.21-5.86,1.78c-1.33,1.68-2.74,3.34-4.32,4.78c-1.35,1.23-2.65,2.48-1.17,4.13
				c1.64,1.82,3.33,0.68,4.72-0.68C1250.51,618.35,1250.74,615.62,1253.2,614.62z M1148.2,404.19c-2.63,0-5.28-0.14-7.9,0.05
				c-1.55,0.11-2.94,1.05-2.95,2.81c-0.02,2.19,1.7,1.84,3.21,2c6.07,0.62,12.08,1.69,17.95,3.39c2.12,0.61,4.19,0.91,6.34,0.35
				c1.54-0.4,2.83-1.13,2.88-2.93c0.05-1.95-1.07-3.36-2.9-3.4C1159.2,406.33,1153.9,403.7,1148.2,404.19z M1163.55,430.97
				c-0.2-2.27-1.78-3.01-3.67-3.43c-6.16-1.4-12.56,0.01-18.72-1.62c-1.36-0.36-2.5,0.69-3.04,2.05c-0.53,1.34-0.55,2.85,0.75,3.56
				c1.41,0.77,3.17,0.85,4.68,1.46c5.64,2.29,11.46-0.75,17.16,0.67C1162.4,434.08,1163.35,432.66,1163.55,430.97z M932.24,950.43
				c-5.91-0.04-10.97,3.9-16.98,3.55c-1.37-0.08-1.72,1.24-1.72,2.55c-0.01,4.03,3.49,6.44,7.1,4.57c4.37-2.26,7.88-6.09,13.02-7.01
				c1.12-0.2,2.17-1.2,1.61-2.6C934.73,950.15,933.38,950.4,932.24,950.43z M1402.36,620.79c1.87-2.58,0.85-4.15,0.74-5.74
				c-0.59-8.95-5.57-16.15-9.42-23.8c-0.67-1.34-0.75-4.01-2.91-3.08c-1.7,0.73-0.48,2.91-0.13,4.5c0.68,3.13,3.93,5.03,3.98,8.42
				C1394.73,608.44,1399.5,613.82,1402.36,620.79z M958.61,993.86c-0.26-1.69-1.62-1.84-2.6-1.3c-4.53,2.52-9.69,2.47-14.5,3.81
				c-2.21,0.62-4.54,1.87-3.52-2.27c0.39-1.59-0.19-2.63-1.71-3.03c-1.36-0.35-2.68-0.1-3.57,1.11c-0.97,1.32-0.62,2.64,0.65,3.44
				c1.64,1.03,2.04,2.09,1.65,4.08c-0.56,2.87,1.67,2.93,3.48,2.2c5.49-2.2,11.03-4.18,16.83-5.39
				C956.76,996.21,958.18,995.56,958.61,993.86z M892.2,904.5c1.85,1.98,4.08,3.29,1.07,5.64c-1.95,1.52-0.53,3.36,1.71,3.79
				c2.7,0.52,11.54-3.94,13.01-6.39c0.49-0.81,1.57-2.09,0.25-2.42c-2.76-0.68-3.25-4.52-6.33-4.28c-0.92,0.07-0.89,1.22-0.41,2.04
				c0.47,0.79,1.81,1.1,1.31,2.4C899.39,907.63,896.32,904.19,892.2,904.5z M924.06,966.2c3.18-0.39,5.93-2.56,9.37-2.79
				c6.25-0.42,11.72-3.44,17.35-5.85c0.92-0.4,1.96-0.99,1.67-2.15c-0.4-1.57-1.83-1.3-2.89-0.96c-2.52,0.8-5.03,1.67-7.45,2.73
				c-5.95,2.6-12.67,2.78-18.41,5.95c-0.82,0.46-2.04,0.71-1.79,2.02C922.11,966.2,923.13,966.06,924.06,966.2z M920.35,932.12
				c13.93-3.45,24.76-9.97,34.49-18.58C943.79,919.63,931.61,923.57,920.35,932.12z M955.68,930.36c-1.82-1.05-2.93-1.02-3.71-0.48
				c-5.15,3.49-11.39,4.4-16.81,7.23c-1.18,0.62-2.81,1.12-2.44,2.71c0.44,1.89,2.47,1.87,3.75,1.45
				C943.39,938.97,949.91,935.9,955.68,930.36z M1239.76,598.79c-0.01-1.53-0.39-2.44-1.59-2.56c-1.6-0.17-2.3,0.92-2.87,2.22
				c-1.99,4.51-4.13,8.96-6,13.52c-0.84,2.04-4.24,4.47-1.51,6.21c2.18,1.39,2.46-2.72,3.9-4.11c1.39-1.36,2.56-3.06,3.43-4.82
				C1236.85,605.71,1238.33,602.04,1239.76,598.79z M1220.19,619.61c0.53-0.34,1.31-0.56,1.58-1.05c2.82-5.04,5.59-10.1,8.3-15.2
				c0.37-0.7,0.32-1.72-0.46-2.26c-1.11-0.76-1.89,0.06-2.47,0.85c-3.04,4.11-6.23,8.13-8.93,12.46
				C1217.07,616.22,1217.22,618.63,1220.19,619.61z M901.32,915.98c-5.07,0.11-5.89,1.37-3.56,5.37c0.57,0.98,0.15,1.91,0.03,2.87
				c-0.18,1.41,0.55,2.34,1.82,2.47c2.66,0.27,4.71-1.26,6.6-2.84c1.13-0.94,1.3-2.49,0.31-3.57
				C904.98,918.62,904.68,915.31,901.32,915.98z M969.84,1076.33c-2.91,0.55-6.19,1.01-9.37,1.83c-1.89,0.49-3.2,2.04-2.75,4.11
				c0.43,2.01,2.38,2.29,4,2.02c3.76-0.63,7.4-1.7,10.12-4.65c0.63-0.69,1.59-1.43,0.99-2.54
				C972.26,1076.05,971.15,1076.27,969.84,1076.33z M1362.63,558.71c-3.4,1.35-7.67,2.14-9.1,6.84c-0.49,1.63-0.77,3.34,0.92,4.47
				c1.55,1.04,2.95,0.06,4.02-0.91c2.43-2.2,4.71-4.57,7.03-6.89c0.6-0.61,0.95-1.39,0.55-2.25
				C1365.46,558.69,1364.26,558.72,1362.63,558.71z M937.32,1052.04c-0.39,0.04-0.9,0.04-1.38,0.13c-1.99,0.4-3.97,0.87-4.75,3.1
				c-0.35,1.02-0.11,2,0.64,2.76c1.81,1.84,3.35,0.15,4.98-0.42c0.63-0.22,1.29-0.35,1.89-0.64c2.08-0.99,6.15-0.03,5.89-2.97
				c-0.17-1.93-4.37-1.12-6.66-1.93C937.78,1052.02,937.6,1052.05,937.32,1052.04z M919.46,944.86c-2.08-2.26-4.7-2.49-6.99-2.75
				c-3.21-0.36-3.55,2.75-3.85,4.81c-0.35,2.33,2.03,2.39,3.57,2.27C915.13,948.97,917.01,946.75,919.46,944.86z M1407.15,630.35
				c-0.27-2.02-0.98-5.14-3.16-4.74c-4.01,0.74-2.33,5.12-3.28,7.85c-0.52,1.5,0.64,2.6,2.28,2.39
				C1406.02,635.45,1407.06,633.34,1407.15,630.35z M1304.99,613.73c-0.43-1.99-0.47-5.36-2.86-4.86c-3.14,0.66-2.75,4.7-3.67,7.33
				c-0.51,1.47,0.73,2.51,2.34,2.26C1303.41,618.06,1304.83,616.45,1304.99,613.73z M1242.4,612.68c0.44,0.28,0.88,0.57,1.31,0.85
				c2.67-3.77,5.38-7.5,7.96-11.33c0.54-0.8,0.55-2.03-0.58-2.55c-1.06-0.49-2.04,0.19-2.51,1.05
				C1246.47,604.66,1244.46,608.68,1242.4,612.68z M908.47,1079.4c-0.31-0.28-0.71-0.8-1.24-1.1c-2.53-1.44-9.7,2.75-9.59,5.64
				c0.07,1.86,1.41,1.63,2.46,1.02c2.28-1.31,4.5-2.7,7.07-3.44C907.99,1081.3,908.56,1080.68,908.47,1079.4z M1312.82,613.07
				c-0.12-1.77-0.53-3.68-2.35-3.27c-3.01,0.67-3.43,3.76-4.08,6.19c-0.44,1.64,0.89,2.99,2.67,2.61
				C1312.03,617.98,1312.38,615.34,1312.82,613.07z M1234.11,576.36c0,1.81-0.09,2.97,0.02,4.11c0.13,1.34,0.51,2.9,2.15,2.8
				c2.09-0.13,1.83-1.87,1.65-3.38c-0.19-1.62-0.34-3.25-0.47-4.88c-0.11-1.46,0.09-3.43-1.88-3.4c-2.11,0.03-1.61,2.02-1.58,3.44
				C1234.02,575.72,1234.11,576.37,1234.11,576.36z M930.41,971.15c-0.56-2.23-2.3-2.57-4.19-2.37c-1.87,0.2-3.73,0.82-3.63,3.17
				c0.1,2.29,1.87,3.01,3.82,2.87C928.56,974.66,930.1,973.54,930.41,971.15z M952.04,1084.37c-3.75-0.78-7.46-0.03-11.12-0.89
				c-1.09-0.26-2.4,0.45-2.28,1.94c0.1,1.19,1.23,1.55,2.21,1.46C944.66,1086.55,948.54,1086.54,952.04,1084.37z M923.99,1110.88
				c-3.52-0.42-6.6-1.73-9.81-2.35c-1.51-0.29-3.91-0.47-4.11,1.54c-0.21,2.11,2.14,2.26,3.71,2.13
				C917.2,1111.92,920.59,1111.34,923.99,1110.88z M1345.16,620.66c-0.3-1.46,0.04-3.89-2.13-3.74c-2.38,0.16-3.29,2.55-3.57,4.75
				c-0.22,1.72,0.73,2.96,2.59,2.87C1344.36,624.41,1345.02,622.75,1345.16,620.66z M1325.49,615.28c-0.14-1.73-0.64-3.24-2.57-2.98
				c-2.31,0.31-3.2,2.14-3.34,4.25c-0.1,1.5,0.13,3.39,2.09,3.19C1324.12,619.49,1324.87,617.26,1325.49,615.28z M1238.66,615.42
				c-0.21-1.31,0.32-3.74-1.29-3.14c-2.46,0.92-3.25,3.98-4.43,6.3c-0.66,1.31,0.11,2.45,1.59,2.29
				C1237.8,620.51,1237.63,617.44,1238.66,615.42z M1295.82,612c-0.23-1.48-0.33-3.6-2.29-3.08c-2.52,0.67-2.24,3.41-2.47,5.49
				c-0.15,1.35,0.17,3.09,1.94,2.8C1295.88,616.73,1295.29,614,1295.82,612z M947.28,985.86c2.52-0.47,4.91-1.5,6.73-3.57
				c0.18-0.2-0.03-1.15-0.26-1.24c-2.12-0.82-3.67,1.18-5.64,1.23c-0.49,0.01-1,0.09-1.47,0.23c-1.05,0.3-2.75,0.11-2.65,1.64
				C944.1,985.89,945.85,985.63,947.28,985.86z M978.58,1072.11c2.34,2.34,4.58,3.63,7.37,2.03c2.12-1.22,1.28-3.13,0.74-4.88
				c-0.36-1.17-0.9-2.43-2.37-1.79c-1.7,0.74-0.88,1.8,0.07,2.67c0.67,0.61,1.11,1.33,0.51,2.14c-0.68,0.91-1.69,0.83-2.72,0.66
				C981.07,1072.75,980.4,1071.32,978.58,1072.11z M1217.43,579.19c0.33,1.6-0.34,4.21,2.24,4.11c1.96-0.08,1.91-2.43,1.91-4.05
				c0-1.62,0.07-3.88-2.02-3.94C1217.35,575.24,1217.63,577.53,1217.43,579.19z M1382.59,575.77c-0.73,3.91,1.81,5.78,3.75,7.87
				c0.35,0.38,1.33,0.6,1.76,0.38c0.89-0.46,0.73-1.46,0.29-2.16C1386.95,579.57,1385.8,576.97,1382.59,575.77z M1335.85,619.95
				c-0.15-0.28-0.5-1.01-0.55-0.99c-2.94,1.2-3.48-1.24-4.61-2.9c-0.39-0.58-1.2-0.48-1.73,0.01c-0.79,0.73-1.01,1.73-0.6,2.69
				c0.96,2.28,3.02,2.81,5.2,2.94C1334.61,621.75,1335.42,621.17,1335.85,619.95z M1122.77,412.07c-0.13-0.99,0.02-2.64-1.27-2.11
				c-1.98,0.82-3.22,2.72-3.47,4.95c-0.13,1.13,0.72,1.91,1.86,1.66C1122.34,416.04,1122.45,413.92,1122.77,412.07z M934.76,1062.67
				c-0.32-1.61-1.3-2.33-2.81-2.03c-1.55,0.3-3.56,0.38-3.79,2.4c-0.21,1.81,1.47,1.91,2.77,1.83
				C932.53,1064.78,934.25,1064.68,934.76,1062.67z M1109.28,412.19c-0.25-1.77-1.31-2.96-3.1-3.27c-1.54-0.26-2.65,0.51-2.62,2.15
				c0.03,2.04,1.53,2.79,3.29,2.99C1108.12,414.21,1109.11,413.76,1109.28,412.19z M928.06,907.51c-3.44-0.45-5.11,1.3-7.17,1.76
				c-0.94,0.21-1.98,0.94-1.44,2.16c0.63,1.41,1.95,1.26,2.96,0.56C924.13,910.81,925.7,909.4,928.06,907.51z M924.97,1070
				c0.83-0.49,2.95,0.53,2.95-1.28c0-1.91-2.14-1.57-3.52-1.69c-1.26-0.11-3.06-0.24-2.92,1.59
				C921.62,1070.36,923.46,1069.83,924.97,1070z"/>
			<path class="st0" d="M805.65,1040.96c-20.26-0.71-40.51-1.59-60.77-2.06c-8.95-0.21-17.66,2.71-26.7,2.68
				c-8.31-0.02-16.62,1.02-24.86-0.86c-2.81-0.64-5.44-1.75-7.38-3.92c-1.15-1.28-1.75-3.07-0.48-4.55c1.15-1.34,2.51-0.2,3.58,0.45
				c5.53,3.4,11.72,3.34,17.88,3.65c17.37,0.89,34.57-2.79,51.86-2.13c21.58,0.82,43.26,0.39,64.66,4.08
				c1.15,0.2,2.29,0.43,3.43,0.69c1.67,0.38,3.32,0.91,3.77,2.81c0.48,2.02-0.58,3.54-2.01,4.81c-3.05,2.71-6.87,4.03-10.5,5.68
				c-1.26,0.57-2.47,1.25-2.23,2.9c0.19,1.36,1.39,1.73,2.49,2.14c3.82,1.42,7.8,1.69,11.82,1.55c7.88-0.29,15.6,0.76,23.31,2.27
				c3.6,0.71,6.41,2.72,9.11,4.93c1.49,1.22,1.58,2.94,0.37,4.46c-1.29,1.63-2.98,1.61-4.35,0.25c-6.41-6.37-14.88-6.14-22.84-6.65
				c-7.87-0.5-15.59-1.06-22.98-4c-1.88-0.75-3.89-1.49-3.98-3.93c-0.09-2.47,1.53-3.89,3.52-5.01c2.88-1.64,5.73-3.34,8.59-5.02
				c1.15-0.68,2.57-1.35,2.23-2.94c-0.37-1.77-2.04-2.12-3.55-2.15c-4.66-0.08-9.32-0.03-13.98-0.03
				C805.65,1041.05,805.65,1041.01,805.65,1040.96z"/>
			<path class="st0" d="M638.02,385.8c2.98-3.46,3.86-6.5,2.49-10.22c-0.58-1.57-1.63-4.09,0.57-4.84c2.19-0.75,2.52,2.08,3.5,3.47
				c1.98,2.84,1.35,6.02,1.23,9.18c-0.05,1.36-1.06,4.31,2.58,2.75c2.37-1.02,2.69,0.99,2.35,2.41c-0.77,3.18,0.27,5.51,1.89,8.28
				c2.35,4.02,1.27,9.06,2.36,13.57c0.3,1.25-1,1.95-2.3,2.1c-1.15,0.13-2.62-0.07-3.39,0.56c-2.96,2.45-4.18,1.56-6.21-1.52
				c-2.26-3.42-6.71-4.52-10.62-5.63c-1.71-0.48-3.56-0.49-5.22-1.37c-1.55-0.82-3.27-1.49-4,0.94c-0.56,1.89-0.32,3.76,1.8,4.6
				c1.21,0.48,2.57,0.62,3.88,0.85c0.98,0.17,2.59-0.11,2.87,0.39c3.93,7.21,14.01,6.38,17.89,14.22c1.66,3.35,5.6,7.45,11.17,4.57
				c1.37-0.71,2.71,0.02,3.11,1.56c0.48,1.85-0.72,2.79-2.32,3.21c-4.59,1.22-8.61-0.8-11.32-3.8
				c-6.89-7.63-15.74-12.02-24.59-16.57c-6.95-3.57-7.58-8.28-1.66-13.05c2.58-2.08,3.69-3.87-0.08-5.85
				c-1.31-0.69-2.55-1.73-2.89-3.29c-0.31-1.43-0.07-3.1,1.86-2.47c4.08,1.33,9.26,0.81,11.24,6.09c0.17,0.45,0.48,0.9,0.84,1.23
				c1.59,1.47,2.1,4.57,5.09,3.9c1.31-0.29,0.53-7.07-0.59-8.84c-3.42-5.47-8.81-8.17-14.37-10.71c-2.38-1.09-4.69-2.25-3.02-5.57
				c1.34-2.67,2.15-5.22,6.51-4.39c4.16,0.79,6.49,2,6.9,6.47C635.79,380.4,636.99,382.68,638.02,385.8z"/>
			<path class="st0" d="M612.68,327.13c0.33-3.03,1.92-5.43,3.42-7.64c5.12-7.53,9.86-15.57,19.51-18.34
				c0.94-0.27,1.88-0.75,2.67-1.33c10.39-7.67,22.13-7.58,34.37-7c10.52,0.5,18.54,5.21,26.1,11.57c2.22,1.87,4.49,2.61,7.36,1.93
				c2.18-0.51,4.03,0.41,4.99,2.42c1.25,2.63-1.4,2.4-2.61,3.16c-2.1,1.31-2.11,3.29-1.65,5.3c1.03,4.59,3.72,8.1,7.41,10.92
				c1.32,1.01,2.76,1.92,3.87,3.12c2.14,2.32,2.52,4.45-1.34,5.33c-3.64,0.83-6.92,2.08-8.42,6.45c1.31-7.61-4.18-12.94-5.42-19.61
				c-1.8-9.72-7.18-16.97-15.77-22.38c-7.32-4.62-15.19-2.73-22.8-3.75c-14.13-1.89-25.27,6.04-36.58,12.39
				c-5.05,2.84-8.18,8.61-11.15,13.84C615.77,325.04,615.46,327.02,612.68,327.13z"/>
			<path class="st0" d="M1002.08,745.18c0.23,4.65-2.12,8.05-3.49,11.57c-1.86,4.76-4.42,9.3-7.09,13.68
				c-3.37,5.52-7.52,5.66-11.4,0.44c-9.91-13.35-19.06-27.18-27.44-41.58c-6.14-10.55-9.71-22.23-15.74-32.78
				c-0.83-1.45-1.67-3.43,0.15-4.44c2.06-1.14,2.67,1.24,3.65,2.43c6.69,8.05,9.35,18.27,14.58,27.13
				c9.02,15.31,18.25,30.46,28.87,44.72c2.4,3.23,4.41,1.38,5.78-0.96c3.01-5.17,5.79-10.47,8.62-15.75
				C999.38,748.11,999.74,746.26,1002.08,745.18z"/>
			<path class="st0" d="M793.06,1002.19c14.17-4.89,28.08-5.85,42.09-5.25c20.38,0.87,40.6-0.85,60.85-2.58
				c6.63-0.57,13.3-0.62,19.95-0.78c1.4-0.03,3.49-0.09,3.45,1.93c-0.04,1.87-2.06,2.11-3.5,2.01c-11.56-0.78-22.96,0.93-34.35,2.27
				c-27.69,3.26-55.59,0.93-83.3,3.33C796.77,1003.25,795.24,1003.45,793.06,1002.19z"/>
			<path class="st0" d="M1050.12,632.15c1.22-7.11,5.38-12.28,7.99-18.07c3.29-7.28,6.08-14.59,7.82-22.47
				c2.44-11.07,3.56-22.29,5.23-33.45c1.56-10.41,1.16-20.84-1.32-31.13c-0.08-0.32-0.24-0.63-0.27-0.96
				c-0.27-2.84-1.98-6.91,1.97-7.59c3.53-0.61,3.03,3.77,3.42,6.1c2.12,12.7,2.02,25.22-0.53,38.07
				c-2.38,11.98-3.11,24.41-6.41,36.18c-2.97,10.62-7.24,20.98-13.64,30.21C1053.55,630.22,1052.67,631.49,1050.12,632.15z"/>
			<path class="st0" d="M747.27,1009.97c-10.65,0.15-21.24,1-31.8,2.28c-1.64,0.2-3.33,0.14-4.98,0
				c-7.54-0.64-14.97-0.57-22.03,2.69c-0.9,0.42-1.96,1-2.72-0.01c-0.89-1.2-0.17-2.4,0.86-2.96c6.52-3.57,12.83-7.48,21-5.22
				c9.01,2.5,18.19,0.59,27.27-0.08c16.25-1.19,32.48-2.58,48.72-3.83c1.07-0.08,2.95-0.38,2.96,0.97c0.03,2.37-2.35,2.58-4.04,2.77
				c-10.91,1.21-21.83,2.28-32.75,3.38C748.94,1010.05,748.1,1009.97,747.27,1009.97z"/>
			<path class="st0" d="M1073.65,617.61c7.3-15.15,14.16-30.43,23.97-44.09c1.06-1.47,1.75-3.2,2.66-4.78
				c0.57-0.98,1.12-2.36,2.57-1.64c1.29,0.64,0.98,2.01,0.59,3.1c-0.45,1.24-0.9,2.57-1.71,3.58c-7.87,9.8-12.95,21.17-18.11,32.45
				C1081.37,611.12,1077.24,614.02,1073.65,617.61z"/>
			<path class="st0" d="M620.35,385.97c-13.43-4.43-16.04-31.84-13.38-46.66c3.04,3.76,4.72,13.73,2.69,17.65
				c-1.55,2.99-1.48,5.11,1.57,7.17c2.7,1.82,2.57,5.5,4.22,8.2C617.82,376.22,618.67,381.05,620.35,385.97z"/>
			<path class="st0" d="M943.03,488.88c-0.04,1.15-0.82,1.8-1.67,2.34c-5.06,3.19-8.15,8.13-11.7,12.73
				c-8.1,10.49-13.75,22.22-18.3,34.56c-0.48,1.31-0.67,3.79-2.36,3.18c-2.14-0.77-0.76-2.87,0.06-4.15
				c2.13-3.32,1.86-7.37,3.59-10.81c6.42-12.78,13.14-25.35,23.51-35.49c1.3-1.27,2.83-2.31,4.35-3.33
				C941.65,487.15,942.72,487.17,943.03,488.88z"/>
			<path class="st0" d="M714.04,313.32c10.05,6,22.95,26.92,20.51,32.41C727.32,335.21,721.45,323.83,714.04,313.32z"/>
			<path class="st0" d="M722.26,355.73c-2.34-1.98-6.02,1.26-7.29-1.29c-1.13-2.27,1.78-4.7,2.33-7.29c0.45-2.1,1.23-4.14,2.05-6.13
				c0.53-1.29,0.59-3.12,2.47-3.35c0.43-0.05,1.19,0.64,1.4,1.15c0.63,1.53,1.22,3.14,0.12,4.74
				C719.04,349.81,719.03,349.81,722.26,355.73z"/>
			<path class="st0" d="M900.41,705.41c-0.31-0.58-0.73-1.13-0.9-1.75c-1.49-5.39-3.05-10.77-4.34-16.21
				c-0.34-1.42-0.77-3.77,1.63-3.9c1.9-0.1,2.05,2.02,2.03,3.42c-0.08,6.09,3.79,11.58,3.05,17.75
				C901.39,704.95,900.9,705.18,900.41,705.41z"/>
			<path class="st0" d="M649.05,380.73c-1.33-4.6-2.07-9.05,2.36-12.39c1-0.76,2.08-2.13,3.43-1.09c1.39,1.07,1.24,3.18,0.19,3.98
				C651.83,373.7,651.11,377.48,649.05,380.73z"/>
			<path class="st0" d="M664.65,423.79c-0.22,0.74-0.34,1.3-0.4,1.3c-2.8-0.29-5.34,3.01-8.23,0.71c-1.56-1.24-2.3-2.99-1.34-4.88
				c1.21-2.38,3.23-1.29,4.77-0.54C661.33,421.29,663,422.67,664.65,423.79z"/>
			<path class="st0" d="M693.54,403.58c-0.55,2.11-1.17,4.41-4.17,2.7c-1.32-0.76-2.55-1.37-4.08-1.41
				c-1.12-0.03-1.9-0.69-1.86-1.84c0.02-0.59,0.36-1.3,0.79-1.71c0.86-0.82,1.89-0.67,2.52,0.3c1.21,1.88,2.57,1.54,4.19,0.64
				C692.22,401.53,693.52,401.26,693.54,403.58z"/>
			<path class="st0" d="M973.7,396.91c-4.41-0.18-8.15-1.27-10.59-6.24C968.17,391.57,970.61,394.87,973.7,396.91z"/>
			<path class="st0" d="M982.14,404.95c2.15,1.46,4.17,3.11,6.86,3.62c1.42,0.27,2.23,1.69,1.44,3.08c-0.94,1.65-2.25,0.7-3.33-0.07
				c-2.27-1.61-4.5-3.27-6.75-4.9C980.95,406.11,981.54,405.53,982.14,404.95z"/>
			<path class="st0" d="M672.46,384.35c0.17,1.65-0.83,2.16-2.12,2.17c-1.41,0.01-3.26,0.55-3.61-1.6
				c-0.26-1.61,0.93-2.41,2.36-2.68C670.85,381.92,671.96,382.75,672.46,384.35z"/>
			<path class="st0" d="M891.57,573.85c-0.06-3.07,0.22-5.23,2.58-6.47c0.65-0.34,1.3,0.23,1.37,0.97
				C895.74,570.8,894.33,572.25,891.57,573.85z"/>
			<path class="st0" d="M968.75,381.74c-0.16,1.71-1.29,2.5-2.94,2.57c-1.05,0.04-2.07-0.38-1.97-1.63
				c0.14-1.72,1.38-2.55,2.97-2.72C967.93,379.83,968.66,380.44,968.75,381.74z"/>
			<path class="st0" d="M894.68,467.91c-0.57,2.08-2.46,2.07-3.97,2.45c-11.96,3.04-23.55,7.03-34.45,12.89
				c-4.82,2.59-9.71,5.07-14.56,7.61c-1.23,0.64-2.64,1.27-3.59-0.09c-1.04-1.5,0.33-2.56,1.41-3.2c4.85-2.87,9.66-5.83,14.69-8.34
				c11.51-5.72,23.68-9.62,36.22-12.35C891.94,466.55,893.7,465.66,894.68,467.91z"/>
			<path class="st0" d="M764.44,495.17c-1.98,0-2.99,0.1-3.97-0.02c-1.71-0.22-3.51-0.72-3.37-2.87c0.13-2.01,1.95-1.88,3.44-2
				c12.85-1.02,25.23-4.02,37.23-8.72c1.36-0.53,3.32-2.37,4.29-0.23c0.81,1.8-1.5,2.74-2.9,3.43
				C787.89,490.36,775.98,493.81,764.44,495.17z"/>
			<path class="st0" d="M740.11,526.14c-11.27,0.72-21.75-2.29-31.97-6.51c-1.77-0.73-3.73-1.56-3.1-3.81c0.72-2.54,3-1.6,4.65-1.16
				c7.2,1.9,13.8,5.9,21.52,6.03c3.15,0.06,6.34,0.3,9.41,0.92c1.89,0.38,5.18,0.32,4.69,3.18
				C744.94,527.02,741.95,526.1,740.11,526.14z"/>
			<path class="st0" d="M862.54,448.3c-0.21,1.43-1.38,1.77-2.48,2.11c-14.35,4.57-27.52,11.47-39.88,20
				c-0.55,0.38-1.11,0.75-1.73,0.99c-1.78,0.68-4.23,2.67-5.33,0.66c-1.26-2.31,2-2.85,3.47-3.88c11.61-8.12,23.94-14.92,37.36-19.6
				c2.02-0.7,4.14-1.17,6.25-1.58C861.17,446.83,862.22,447.03,862.54,448.3z"/>
			<path class="st0" d="M804.88,361.23c4.95,0.18,9.83,1.31,14.83,0.79c1.11-0.11,2.54,0.13,2.56,1.66c0.03,1.48-1.29,1.9-2.47,1.84
				c-5.76-0.33-11.46,1.68-17.23,0.41c-1.81-0.4-4.63,0.23-4.42-2.66c0.2-2.67,2.77-2.25,4.74-2.19
				C803.56,361.11,804.22,361.18,804.88,361.23z"/>
			<path class="st0" d="M801.29,599.12c4.2-4.29,2.85-10.32,6.01-14.72c1.04-1.45,1.43-3.65,3.86-3.09c1.73,0.39,2.82,1.75,3.39,3.4
				c0.9,2.61-1.17,2.99-2.85,3.72c-2.21,0.97-2.98,2.92-3.43,5.16C807.31,598.36,807.26,598.35,801.29,599.12z"/>
			<path class="st0" d="M919.84,377.63c2.33,4.42,4.66,8.83,7,13.25c-0.56,0.3-1.11,0.59-1.67,0.89c-1.38-4.94-5.98-8.11-6.76-13.39
				C918.88,378.13,919.36,377.88,919.84,377.63z"/>
			<path class="st0" d="M937.41,414.79c-1.26,0.05-2.22-0.49-1.87-1.7c0.73-2.5,2.63-4.2,4.83-5.38c0.95-0.51,1.42,0.59,1.28,1.48
				C941.22,411.8,939.99,413.85,937.41,414.79z"/>
		</g>
	</g>
</g>
</svg>
