<?xml version="1.0" encoding="utf-8"?>
<!-- Generator: Adobe Illustrator 28.0.0, SVG Export Plug-In . SVG Version: 6.00 Build 0)  -->
<svg version="1.1" id="Layer_1" xmlns="http://www.w3.org/2000/svg" xmlns:xlink="http://www.w3.org/1999/xlink" x="0px" y="0px"
	 viewBox="0 0 1920 1080" style="enable-background:new 0 0 1920 1080;" xml:space="preserve">
<style type="text/css">
	.st0{fill:none;stroke:#231F20;}
</style>
<g>
	<g>
		<g>
			<path d="M1040.04,777.92c0.22,3.62,3.36,3.96,6.03,5.04c-2.56,1.44-4.91,0.67-7.24,0.27c-6.82-1.17-13.07-0.75-18.44,4.58
				c-3.18,3.15-7.58,9.06-9.47,12.69c-7.67,14.72-10.27,31.25-16.71,46.34c-5.32,12.47-10.46,25-18.71,36.21
				c-5.49,7.46-10.86,15.53-13.59,24.76c-0.71,2.42-2.45,2.85-4.66,2.72c-14.64-0.85-29.16-1.7-42.89-8.15
				c-6.97-3.27-15.39-2.54-22.6-5.87c-1.49-0.69-3.2-0.95-4.66-1.69c-2.45-1.24-4.2-0.71-5.32,1.72c-1.79,3.89-5.24,5.99-8.72,7.93
				c-17.89,9.98-33.86,22.13-46.17,38.83c-15.84,21.49-35.46,39.49-54.37,58.14c-9.59,9.46-16.17,20.97-20.82,33.62
				c-2.46,6.7-0.53,12.42,3.41,17.76c5,6.76,11.3,12.58,19.72,13.34c10.36,0.93,16.97,6.72,23.22,13.81
				c2.49,2.82,5.68,5.05,6.59,9.13c0.6,2.68,0.14,4.81-2.2,5.99c-9.17,4.61-18.21,9.57-28.8,10.43c-3.27,0.27-6.46,1.42-9.71,2.05
				c-8.67,1.68-15.75-3.3-23.39-5.81c-9.15-3-18.25-6.16-27.14-9.98c-3.91-1.68-8.99,0.37-13.68-0.73
				c-6.05-1.43-11.54-4.13-17.28-6.24c-2.49-0.92-2.69-3.23-2.35-5.48c1.33-8.71,3.87-17.13,6.05-25.64c0.2-0.77,0.72-1.55,1.3-2.1
				c16.72-16.05,27.06-35.83,35.67-57.17c8.56-21.23,14.45-43.59,26.25-63.54c3.89-6.57,9.83-10.16,15.76-14.12
				c3.47-2.32,4.47,2.47,7.07,2.48c0.95-1.98-0.68-2.48-1.48-3.39c-1.61-1.82-0.9-3.43,0.61-4.76c1.82-1.6,2.94-0.49,3.89,1.19
				c0.49,0.86,1.07,1.72,1.8,2.38c1.24,1.12,2.44,3.77,4.28,2.04c1.59-1.5-0.53-3.29-1.58-4.68c-0.69-0.91-1.57-1.81-2.57-2.31
				c-2.83-1.41-2.42-3.36-0.91-5.29c2.51-3.2,4.07-6.86,5.58-10.56c2.29-5.62,8.24-7.01,12.3-10.58
				c11.34-9.98,22.37-20.23,32.79-31.15c9.61-10.06,15.13-22.24,20.67-34.88c4.47-10.2,9.87-20.42,17.2-29.37
				c4.27-5.21,6.19-12.12,6.84-18.98c0.59-6.23,2.24-12.1,4.68-17.79c0.81-1.89,1.24-3.76,1.22-5.8c-0.03-2.55,0.3-5.22,2.17-7
				c6.02-5.71,6.49-13.29,6.72-20.66c0.21-6.92,1.88-13.46,5.38-19c8.87-14.02,14.32-29.68,22.2-44.14
				c3.02-5.55,5.65-11.32,8.59-16.91c1.71-3.25,4.88-4.82,7.99-6.5c7.19-3.89,11.01-9.82,11.93-18.16
				c0.57-5.17,5.11-10.23-0.69-15.05c0.75-8.81-6.47-11.03-12.21-12.91c-12.72-4.17-23.91-11.55-36.41-16.14
				c-7.47-2.75-8.92-8.53-5.17-15.61c1.53-2.9,2.53-5.76,1.4-9.07c-0.55-1.61-0.25-3.26,0.34-4.89
				c4.25-11.73,9.71-22.86,16.25-33.47c1.27-2.05,2.28-4.11,1.82-6.56c-0.88-4.68,0.69-8.69,2.57-12.93
				c3.05-6.92,6.19-13.69,7.14-21.6c0.87-7.22,3.61-14.54,8.15-20.67c1.78-2.4,2.87-5.05,2.96-7.83
				c0.45-13.84,7.99-24.72,14.33-36.23c4.48-8.13,10.91-14.69,16.06-22.22c4.42-6.46,8.87-12.83,14.29-18.51
				c1.69-1.78,1.9-4.18,1.98-6.55c0.5-14.58-5.18-27.36-12.32-39.42c-5.92-10.01-9.24-20.66-9.78-32.03
				c-0.57-12.07,3.09-23.36,9.75-33.36c16.03-24.07,39.73-31.03,67.04-28.51c10.54,0.97,18.35,7.78,26.19,14.41
				c5.04,4.27,8,9.73,11.01,15.21c2.37,4.32,1.24,9.45,1.59,14.15c0.32,4.33,0.99,8.58,3.24,11.81c4.51,6.47,6.57,14.67,13.56,19.42
				c1.3,0.88,2.28,2.58,0.76,3.77c-1.41,1.11-2.3-0.66-3.02-1.69c-1.61-2.31-2.84-4.94-4.73-6.98c-3.07-3.32-4.76-8.55-11.22-7.41
				c-2.75,0.49-4.75-1.53-2.57-4.85c1.11-1.69,2.38-3.79,0.01-5.21c-2.32-1.39-4.07,0.17-5.37,2.15c-0.46,0.7-0.93,1.38-1.44,2.05
				c-0.51,0.67-1.12,1.36-2.06,1.04c-1.32-0.45-0.89-1.58-0.79-2.53c0.27-2.72,1.77-4.32,4.17-5.71c7.99-4.63,9.71-10.4,5.42-18.67
				c-8.94-17.25-22.85-26.4-42.69-26.67c-13.97-0.19-27.14,1.73-39.33,9.04c-12.75,7.64-20.8,18.46-24.28,32.92
				c-1.35,5.59-2.48,11.26-1.42,16.79c1.82,9.49,1.6,19.56,8.51,27.75c5.35,6.35,6.66,14.74,9.23,22.47
				c2.41,7.24,3.23,14.49,2.78,22.01c-0.11,1.87-0.56,3.58-1.25,5.3c-1.94,4.91-0.66,6.94,4.5,5.58c4.45-1.17,7.58,0.06,10.98,2.3
				c3,1.98,6.72,1.85,9.98,3.08c6.54,2.46,13.46,4.04,19.47,7.73c6.35,3.9,13.59,2.61,20.38,3.85c2.42,0.44,3.9-4.48,1.61-7.19
				c-2.65-3.14-2.49-4.93,0.96-7.03c1.92-1.17,1.62-3.11,0.23-4.75c-0.9-1.06-2.8-1.32-2.6-3.46c0.49,0.09,1.01,0.03,1.32,0.27
				c1.68,1.24,3.13,3.46,5.59,1.71c1.46-1.04,1.15-2.63,0.46-4.08c-1.17-2.42-3.22-4.92-5.71-3.64c-5.56,2.85-6.36-3.43-9.79-4.45
				c-0.67-0.2-0.31-1.48,0.3-2.17c1.07-1.21,2.28-1.72,3.98-1.46c4.39,0.67,8.13,2.99,11.82,5.06c3.65,2.04,7,1.01,10.05-0.1
				c4.14-1.51,1.04-4.6,1.1-6.99c-1.72-0.23-1.76,0.82-2.22,1.44c-1.34,1.78-2.32,4.85-5.16,3.55c-2.71-1.24-6.49-2.19-6.22-6.45
				c0.12-1.84-1.35-2.54-2.06-3.79c-1.83-3.22-4.45-6.69,1.51-8.5c2.48-0.75,0.39-3.51,2.51-4.74c1.94,2.42,4.5,4.09,7.71,4.57
				c1.32,0.2,2.82,0.67,3.47-0.96c0.53-1.31-0.62-2.12-1.51-2.85c-0.64-0.53-1.39-0.93-2.02-1.46c-0.67-0.56-1.09-1.3-0.55-2.16
				c0.45-0.71,1.16-0.54,1.78-0.28c3.44,1.41,4.04,0.51,2.39-2.72c-2.01-3.93-0.37-13.53,2.74-16.81c0.57-0.6,1.28-1.06,1.9-1.62
				c1.53-1.35-0.1-3.67,0.95-4.63c2.14-1.96,2.21,0.68,2.66,1.79c0.69,1.73,2.85,1.88,3.5,3.43c1.35,3.22,3.34,3.67,6.34,2.12
				c2.04-1.05,3.66-0.67,3.34,2.22c-0.14,1.24,0.42,2.21,1.01,3.25c3.77,6.67,2.73,15.78-2.4,21.48c-1.03,1.14-2.17,2.33-1.76,3.94
				c1.98,7.85-3.32,11.58-8.62,15.2c-2.73,1.87-5.89,3.11-8.64,4.96c-5.79,3.89-10.39,9.13-13.05,15.45
				c-2.56,6.08,0.15,12.07,3.96,16.71c3.3,4.03,7.97,6.21,13.84,4.08c6.71-2.44,13.86-2.32,20.77-1.2
				c10.57,1.71,21.31-0.1,31.85,2.08c2.55,0.53,5.27,0.36,7.81,1.29c10.41,3.83,20.65,2.01,30.82-1.1
				c6.69-2.04,13.42-2.57,20.2-0.69c4.37,1.21,8.63,0.03,12.9-0.36c3.73-0.35,7.26,0.12,10.79,1.06c0.05,1.63-1.27,1.79-2.05,1.73
				c-7.28-0.58-13.16,3.51-19.61,5.68c-5.28,1.77-8.34,6.97-13.71,8.67c-1.44,0.45-2.84,1.66-4.06,0.33
				c-1.47-1.6,0.58-2.53,1.21-3.76c1.18-2.31,3.13-3.21,5.5-3.83c2.57-0.67,5.07-1.63,7.54-2.63c1.15-0.47,1.81-1.61,1.52-2.87
				c-0.34-1.49-1.64-1.48-2.82-1.27c-8.37,1.5-17.01,0.19-25.28,2.39c-4.22,1.12-7.74,3.67-10.88,6.67
				c-1.29,1.24-2.43,2.52-4.02,0.44c-2.67-3.48-6.68-4.13-10.59-5.02c-9.03-2.07-17.85-5.31-27.48-3.27
				c-2.94,0.62-6.25-0.53-9.4-0.85c-13.41-1.36-26.12,1.56-38.51,6.35c-2.78,1.08-5.87,1.17-8.52,2.74
				c-0.97,0.57-2.42,0.87-2.94-0.65c-0.4-1.17,0.78-1.67,1.61-2.18c3.5-2.16,7.76-2.86,11.81-6.03c-6.8-1.15-11.98,1.18-17.15,3.54
				c-2.87,1.31-5.69,2.75-8.6,3.97c-1.16,0.49-2.81,1.09-3.36-0.73c-0.44-1.45,1.04-1.95,2.1-2.31c5.35-1.81,10.18-5.03,15.87-5.94
				c1.54-0.24,3.16-0.61,3.12-2.54c-0.04-1.8-1.72-1.75-2.99-1.97c-6.58-1.11-13.02-1.25-19.76-0.2c-7.74,1.2-15.48,1.79-22.56,5.51
				c-0.88,0.46-2.11,0.48-2.64-0.61c-0.71-1.43,0.4-2.2,1.5-2.64c2.79-1.1,5.62-2.09,8.44-3.09c1.32-0.47,2.67-1.1,2.59-2.65
				c-0.1-1.69-1.83-2.08-3.02-2.03c-5.93,0.25-11.95,0.31-17.13,3.88c-1.03,0.71-1.82,2.11-3.41,0.91c0.25-2.88,5.88-1.99,4.35-5.57
				c-1.18-2.77-5.1-0.29-7.5-2.61c3.31-2.02,6.72-1.53,9.58-0.62c6.95,2.22,14.65,0.99,21.21,4.86c1.08,0.63,2.58,0.69,3.9,0.72
				c1.89,0.05,4.67,1.07,5.23-1.37c0.58-2.53-2.49-2.6-4.14-3.47c-9.03-4.78-19.05-6.93-28.53-10.51c-2.1-0.79-4.26-0.63-6.42-0.61
				c-1.82,0.01-3.97,0.49-5.32-0.81c-3.23-3.1-5.59-1.33-7.38,1.28c-10.08,14.63-21.31,28.46-29.76,44.24
				c-4.88,9.11-4.22,18.94-4.98,28.52c-0.65,8.16,2.08,16.14,4.24,23.98c1.82,6.62,1.03,13.27,1.01,19.88
				c-0.06,18.19,0.97,36.2,5.44,53.94c2.21,8.76,0.79,17.9,2.05,26.81c0.53,3.78,2.86,7.55,0.6,11.63
				c-0.67,1.21,0.55,2.41,1.73,3.26c1.62,1.16,3.14,2.45,4.67,3.73c0.82,0.68,1.32,1.58,0.77,2.63c-0.55,1.06-1.52,1.18-2.57,0.77
				c-1.67-0.65-3.76-3.01-4.74,0.34c-0.84,2.86-2.9,6.91,0.67,8.69c7.22,3.6,13.17,9.89,22.42,9.47c9.9-0.45,19.54,1.98,28.45,6.4
				c11.34,5.63,23.59,7.93,35.75,10.78c7.74,1.81,15.3,4.43,22.92,6.75c11.03,3.35,22.55,4.25,33.61,2.33
				c9.74-1.69,14.84-9.58,18-19.26c3.91-11.94,2.36-23.53-0.4-34.93c-3.33-13.71-4.63-27.46-5.26-41.47
				c-0.94-20.81-7.21-40.17-17.86-58.09c-0.75-1.27-1.32-2.66-1.88-4.04c-0.55-1.35-0.68-2.95-2.67-3.73
				c-0.63,2.01-0.22,3.94,0.38,5.68c1.88,5.46,0.4,10.69-1.57,15.56c-3.86,9.56-9.14,18.35-15.78,26.34
				c-3.22,3.88-7.12,6.89-10.87,10.6c-0.69-1.73,0.49-2.36,1.17-3.03c10.78-10.57,18.18-23.08,22.66-37.53
				c1.6-5.17,2.93-10,2.02-15.48c-0.69-4.14-2.85-4.52-5.96-3.37c-4.24,1.57-8.28,3.5-10.68,7.75c-0.6,1.06-1.81,2.27-3.29,0.98
				c-1.06-0.92-0.76-2.07-0.09-3.17c0.65-1.04,2.25-2.05,0.81-3.39c-1.23-1.14-2.85-0.62-4.27-0.08c-7.14,2.73-14.27,5.5-21.41,8.23
				c-3.42,1.31-6.66,2.88-9.79,4.87c-3.95,2.51-8.4,3.84-13.26,3.76c-9.94-0.15-19.98,1.28-29.68-2.31
				c-2.49-0.92-5.25-0.7-7.93-0.38c-1.22,0.15-2.52-0.21-2.69-1.62c-0.21-1.72,1.11-2.4,2.56-2.31c3.32,0.21,6.71,0.25,9.91,1.02
				c9.51,2.27,19.22,1.73,28.83,2.49c1.49,0.12,3.38,0.08,3.5-1.89c0.14-2.15-1.95-1.92-3.31-2.11
				c-11.66-1.65-21.69-7.05-31.37-13.36c-1.65-1.08-3.5-2.2-5.39-2.5c-8.92-1.41-14.42-8.4-22.11-12.74
				c2.95-0.35,7.21,1.02,11.42,4.07c3.87,2.81,7.96,4.76,12.7,5.46c1.44,0.21,3.09,0.65,4.15,1.56c6.78,5.77,15.19,8.4,23.22,11.37
				c6.53,2.41,13.69,3.07,20.97,1.33c4.08-0.98,8.47-1.04,12.64-2.04c1.45-0.35,2.9-0.77,4.29-1.33c1.2-0.48,2.79-0.97,2.51-2.65
				c-0.29-1.73-1.94-1.59-3.23-1.55c-3.33,0.11-6.65,0.33-9.97,0.48c-1.59,0.07-3.83,0.73-4-1.59c-0.14-1.95,2.05-1.77,3.47-1.94
				c10.5-1.26,20.93,0.37,31.39,0.8c10.71,0.44,20.42-3.92,30.36-7.08c0.8-0.26,1.52-0.88,1.32-1.85c-0.25-1.21-1.38-1.25-2.35-1.46
				c-4.66-1.04-9.27,0.01-13.92,0.17c-2.67,0.09-7.18,1.84-7.66-1.43c-0.31-2.08,4.81-1.78,7.45-1.71
				c15.8,0.4,31.59,1.07,47.39,1.66c1.8,0.07,4.16,0.7,4.7-1.57c0.61-2.56-2.12-2.44-3.64-3.16c-3-1.43-6.05-2.77-9.05-4.2
				c-1.16-0.55-2.85-1.1-2.04-2.8c0.72-1.51,2.29-1.06,3.53-0.49c5.15,2.33,10.38,4.52,15.36,7.17c2.56,1.36,4.64,1.48,6.95-0.08
				c2.5-1.69,3.67-4.18,2.72-6.93c-1.79-5.14-2.45-10.57-5.26-15.49c-2.97-5.19-3.7-11.27-4.02-17.27
				c-0.05-0.98-0.02-2.08,0.87-2.73c0.8-0.59,1.49-0.08,2.21,0.43c5.4,3.81,7.49,3.99,13.35-0.53c2.56-1.98,4.55-1.32,6.89-0.51
				c1.22,0.42,2.4,1.52,1.37,2.57c-2.96,2.99-0.44,4.22,1.27,6.26c1.98,2.37,2.76,6.02,5.64,7.35c3.54,1.63,4.9-3.53,8.24-3.6
				c0.92-0.02,1.78-0.92,2.73-1.16c1.72-0.44,4.09-1.42,4.75,0.86c0.52,1.82-2.01,1.67-3.27,2.26c-1.51,0.71-2.95,1.66-4.54,2.05
				c-2.86,0.71-4.51,2.52-4.43,5.25c0.08,2.54,2.83,3.45,4.39,5.07c0.58,0.6,1.7,0.62,2.27-0.11c4.57-5.88,9.88-3.5,14.99-1.19
				c1.71,0.77,2.96,1.95,4.84,0.52c0.7-0.53,1.83-0.19,2.24,0.52c3.66,6.37,7.99,2.55,11.96,0.65c1.35-0.65,2.1-0.09,3.18,0.02
				c1.8,0.18,3.8,0.48,5.4-0.11c1.81-0.66,5.39-0.62,4.86-2.98c-0.53-2.33-3.41-0.51-5.2-0.14c-1.41,0.29-2.66,0.6-3.4-0.97
				c-0.53-1.12-0.57-2.3,0.34-3.27c1.08-1.16,2.45-1.21,3.6-0.28c1.53,1.24,2.44,1.5,4.07-0.23c2.94-3.11,8.24-2.64,11.27,0.73
				c0.97,1.08,1.77,2.18,3.24,1.3c1.44-0.86,1.19-2.25,0.46-3.51c-0.95-1.64-1.32-3.62,0.67-4.2c2.57-0.74,1.36,1.88,1.85,3
				c0.9,2.07,2.02,1.56,2.76,0.06c2.63-5.32,7.28-7.15,12.72-8.41c12.44-2.87,24.65-6.99,37.72-5.38c1.68,0.21,3.34,0.08,4.7-1.15
				c1.89-1.71,3.56-2.93,5.63,0.08c1.04,1.5,3.15,0.72,3.72-0.72c1.05-2.63,4-3.53,4.94-6.11c0.59-1.61,1.82-1.72,3.27-1.31
				c1.61,0.45,2.43,1.31,2.65,3.12c0.94,7.84,1.73,8.6,9.44,8.77c4.65,0.11,9.33,0.04,13.71-1.95c5.85-2.66,12.66-1.13,18.4-4.07
				c9.44-4.84,20.43-4.05,29.95-8.5c1.43-0.67,3.76-0.77,3.24-3.03c-0.55-2.41-2.82-1.86-4.6-1.66c-1.98,0.23-3.98,0.51-5.91,0.99
				c-2.64,0.65-4.81,0.41-6.73-1.85c-1.67-1.98-3.96-1.99-6.24-1.22c-0.17,1.9,1.8,1.53,2.26,3.03c-4,2.24-7.85,4.59-12.76,1.8
				c-2.18-1.23-4.54-0.44-6.78,0.34c-1.8,0.63-3.63,1.75-6.17-0.34c4.67-0.54,7.98-4.83,12.8-1.81c0.76,0.48,2.25-0.08,3.36-0.35
				c0.94-0.23,2.15-0.59,2.09-1.79c-0.06-1.24-1.35-1.52-2.27-1.41c-9.48,1.12-19.33-2.53-28.54,2.16
				c-1.63,0.83-3.38,0.79-4.69-0.46c-3.65-3.5-7.85-2.47-11.75-1.18c-5.95,1.98-11.87,2.61-18.15,2.47
				c-14.92-0.33-29.86-0.1-44.79,0.04c-8.68,0.08-17.31-0.34-25.84-1.98c-2.89-0.56-5.67-0.18-8.38,0.65
				c-4.74,1.46-9.09,0.19-14.11-1.47c2.31-2.67,4.84-2.21,7.18-2.07c21.79,1.27,43.63,3.25,65.4,1.58
				c13.86-1.07,27.91-0.55,41.6-4.1c5.13-1.33,10.88-0.55,16.01-1.09c12.32-1.31,24.43,2.78,36.71-0.12
				c8.43-1.99,17.25,0.4,25.89-0.68c2.66-0.33,4.62,1.82,6.42,3.46c1.56,1.42,1.43,3.44-0.34,4.77c-1.93,1.44-2.97,0.36-3.56-1.64
				c-0.22-0.76-0.67-1.59-1.27-2.07c-1.07-0.86-2.48-1.35-3.68-0.38c-1.47,1.19-0.44,2.37,0.39,3.43c3.52,4.51,2.85,6.83-2.8,8.7
				c-2.99,0.99-6.1,1.68-9.2,2.3c-4,0.8-7.07,2.1-7.89,6.91c-0.75,4.36-3.75,6.57-8.47,5.26c-11.4-3.16-22.42-1.45-33.26,2.57
				c-2.12,0.79-4.29,0.25-6.42,0.4c-15.09,1.09-30.38,0.69-45.2,3.76c-11.18,2.32-21.84,7.07-33.26,8.66
				c-8.29,1.15-15.98,4.44-24.05,6.36c-8.89,2.12-17.9,4.32-26.82,5.37c-9.56,1.12-19.46,2.07-29.16,1.05
				c-5.91-0.62-11.58,0.96-17.4,0.51c-2.55-0.2-3.91,2.19-5.4,4.01c-6.46,7.9-15.09,10.98-25.01,10.92
				c-11.28-0.06-22.23,1.5-32.79,5.65c-3.63,1.43-4.71,3.24-3.4,7.25c2.04,6.26,5.46,11.81,8.56,17.44
				c9.13,16.58,11.69,34.67,12.27,53.01c0.35,11.12,2.06,21.76,4.9,32.42c2.36,8.86,3.27,18.04,3.66,27.18
				c0.29,6.82-4.19,12.6-5.33,19.13c-1.29,7.41-2.6,14.85-1.62,22.53c0.63,4.91,0.73,9.75,2.79,14.47c2.13,4.9,5.62,8.22,9.97,10.76
				c14.65,8.55,26.85,20.1,39.28,31.41c8.5,7.73,17.34,15.1,25.62,23.05c11.5,11.04,22.68,22.4,33.84,33.78
				c2.62,2.68,3.71,6.2,3.37,10.13c-0.41,4.69,0.1,9.27,2.13,13.64c3.63,7.83,3.8,16.49,5.62,24.75c1.29,5.85,2.42,11.73,4.28,17.42
				c0.92,2.81,1.09,4.3-2.58,5.32c-2.39,0.66-8.98,1.5-3.14,6.86c0.52,0.48,0.59,1.22-0.03,1.75c-0.6,0.51-1.22,0.24-1.8-0.14
				c-2.22-1.46-4.5-2.85-6.66-4.4c-2.51-1.81-4.89-1.47-6.6,0.79c-2.04,2.7,1.16,3.23,2.41,4.4c4.6,4.32,9.66,5.82,15.72,2.76
				c2.05-1.04,2.62,0.76,2.25,2.48c-0.62,2.85,0.46,3.41,2.88,2.34c1.36-0.6,2.75-0.9,3.39,0.73c1.14,2.92,2.72,5.93,1.83,9.11
				c-0.52,1.88-2.26,0.37-3.44,0.17c-1.34-0.22-2.41,0.25-2.97,1.35c-1.41,2.74-4.37,2.85-6.64,4.09c-2.48,1.36-3.5,0.43-3-2.22
				c0.32-1.7,0.12-3.33-1.74-3.47c-2.76-0.21-5.62,0.46-6.89-3.14c-0.23-0.65-1.76-0.24-1.99,0.62c-0.73,2.64-3.37,2.83-5.21,3.99
				c0.34,0.5,0.46,0.87,0.71,1c1.79,0.93,5.04-1.06,5.54,1.88c0.43,2.56-2.4,3.17-4.41,3.96c-0.88,0.34-1.54,1.32-0.87,1.93
				c3.43,3.11,1.01,5.19-1.09,7.41c-0.8,0.85-1.81,1.93-0.32,2.86c1.1,0.69,2.46,0.17,3.03-0.95c1.59-3.14,3.96-4.28,7.38-3.53
				c0.98,0.21,2.48-0.02,2.16-1.28c-1.61-6.46,4.05-3.95,6.48-5.31c0.74-0.41,1.9-0.06,2.96-0.06c0.09,2.09-1.74,2.48-2.47,3.68
				c-2.83,4.64-2.61,5.51,2.55,6.72c1.22,0.29,2.05,0.98,2.93,1.77c2.04,1.83,3.84,2.08,4.83-1.05c0.37-1.17,0.81-2.37,2.32-2
				c1.23,0.3,1.79,1.45,2.13,2.59c0.78,2.64,0.16,5.3-0.07,7.94c-0.14,1.6-1.37,1.69-2.62,1.16c-1.38-0.58-3-0.94-4.04-1.91
				c-7.02-6.5-15.04-2.46-22.67-2.28c-0.71,0.02-1.66,0.62-2.07,1.24c-2.1,3.11-4.95,3.58-8.35,2.84c-0.92-0.2-2.02-0.14-2.81,1.26
				c2.16,2.35,6.84,1.92,7.36,6.72c0.18,1.65,3.65,0.13,5.31-0.64c3.96-1.84,7.84-1.88,12.61-0.77c-2.3,2.74-4.68,2.08-6.86,2.12
				c-1.77,0.03-3.61,0.23-3.23,2.64c0.35,2.25,2.06,2.45,3.82,1.67c3.49-1.55,7.31-0.31,10.83-1.46c1.94-0.64,4.91-0.47,2.81-3.96
				c-0.51-0.85-0.23-1.59,0.49-2.19c0.54-0.45,9.27,2.46,9.49,3.15c0.62,1.99,0.12,6.49-1.02,9.12c-1.93-0.4-1.2-2.06-1.46-3.2
				c-0.4-1.76-1.41-2.4-2.82-1.27c-5.18,4.14-11.12,2.48-16.84,2.34c-2.12-0.05-4.9-1.14-5.23,1.97c-0.36,3.37,2.66,3.22,4.98,3.24
				c1.66,0.02,3.33-0.39,4.98-0.33c1.11,0.04,2.69,0.21,3.21,0.93c1.44,1.97,0.4,7.64,5.72,2.83c0.98-0.89,2.25,2.1,0.93,3.93
				c-0.72,1-2.49,1.94-0.87,3.21c1.14,0.89,2.49-0.29,3.62-0.98c1.83-1.12,2.4-5.06,5.18-3.48c2.1,1.2,0.04,3.99-0.05,6.06
				c-0.38,8.99-0.58,17.99,0.73,26.89c0.97,6.61,3.26,12.86,7.99,17.95c8.73,9.4,18.14,18.03,28.07,26.15
				c3.86,3.16,7.42,6.45,12.06,8.57c3.42,1.56,4.98,5.25,7.05,8.26c3.09,4.51,6.42,8.87,9.25,13.54c3.91,6.46,0.64,13.67-7.82,17.08
				c-4.81,1.94-10.03,2.42-15.2,2.67c-0.98,0.05-2.22,0-2.41-1.23c-0.26-1.68,1.21-1.84,2.31-1.85c4.02-0.04,7.94-0.58,11.82-1.7
				c3.34-0.97,6.04-2.73,8.09-5.52c0.81-1.11,1.6-2.31,0.43-3.58c-1.21-1.3-2.43-0.54-3.54,0.3c-0.8,0.6-1.52,1.31-2.32,1.89
				c-2.01,1.46-3.94,2.06-5.25-0.84c-0.54-1.2-1.35-2.15-2.66-1.53c-1.38,0.66-0.34,1.61,0.1,2.44c1.35,2.54-0.29,3.38-2.3,3.7
				c-3.33,0.53-5.54-1.04-6.28-4.25c-0.49-2.12-0.01-3.26,2.9-2.95c2.55,0.27,4.63-1.94,5.22-4.43c0.58-2.47,0.19-5.05-2.7-6.29
				c-1.24-0.53-2.57-1.1-2.43-2.76c0.08-0.93,0.86-1.37,1.76-1.44c1.64-0.13,3.15,0.32,3.63,1.98c0.79,2.71,2.54,3.83,4.79,2.31
				c2.74-1.86,0.5-3.76-0.74-5.42c-3.11-4.16-5.39-8.61-12.05-9.05c-4.29-0.29-6.03-6.22-9.33-9.22c-0.23-0.21-0.27-0.7-0.52-0.84
				c-5.23-2.84-9.42-6.78-13.14-11.43c-1.34-1.67-3.76-0.2-5.67,0.31c-1.28,0.34-2.81,0.75-3.63-0.65c-0.87-1.51,0.78-1.88,1.6-2.58
				c2.25-1.9,0.79-3-0.8-4.26c-2.8-2.22-5.83-4.14-4.91-8.77c0.47-2.34-7.86-10.17-10.37-10c-4.71,0.34-4.32-3.8-5.04-6.1
				c-0.83-2.65,2.36-2.5,4.16-2.99c1.44-0.39,3.1-0.42,3.63-2.15c0.14-0.47-0.21-1.44-0.62-1.67c-1.5-0.84-3.01-0.12-4.23,0.66
				c-4.22,2.74-7.41,6.09-8.76,11.36c-0.87,3.4-3.9,6.03-7.3,7.52c-2.22,0.97-3.14,2.26-2.62,4.62c0.79,3.55-1.13,7.33,0.9,10.81
				c0.43,0.74,0.42,2.03-0.59,1.98c-4.31-0.18-5.42,3.78-8.53,6.76c-0.21-4.38,1.21-7.48,2.76-10.27c1.34-2.41,1.43-4.6,1.14-7.15
				c-1.57-13.65-6.23-26.4-11.3-39.03c-1.6-3.99-2.15-8.32-4.67-12.07c-1.73-2.58,0.61-2.43,2.41-2.22c3.21,0.36,6.4,1.55,8.41-2.87
				c2.13-4.68,1.58-9.02-3.08-11.37c-2.78-1.4-4.38-3.25-5.42-6.08c-2.02-5.49-6.6-7.97-12.01-6.91c-1.85,0.36-1.5,1.58-1.08,2.64
				c2.04,5.08,3.95,10.22,7.45,14.58c1.21,1.5,2.38,1.57,3.88,0.71c1.73-0.99,3.52-0.98,5.26-0.08c1.57,0.82,1.89,2.24,1.54,3.84
				c-0.35,1.61-1.52,2.07-3.01,1.92c-4.63-0.46-8.18-2.02-10.98-6.39c-5.58-8.68-10.16-17.97-15.88-26.49
				c-4.32-6.45-7.38-12.88-7.73-20.59c-0.04-0.82-0.09-1.65-0.04-2.47c0.02-0.25,0.39-0.48,0.84-1c2.45,2.39,5.41,4.17,4.06,8.56
				c-0.97,3.16,1.86,4.78,3.81,6.44c1.19,1.01,2.75-0.31,2.32-1.33c-1.49-3.48,0.28-7.55-3.42-10.85c-4.8-4.29-7.81-9.83-6.9-17.14
				c1.07-8.62-3.05-16.2-6.93-23.57c-1.84-3.48-4.49-2.1-7.23-0.6c-9.56,5.25-19.54,9.17-30.68,9.36
				c-6.82,0.12-11.64-3.19-15.72-8.21c-5.73-7.07-12.22-7.98-19.63-2.84c-3.97,2.75-7.97,5.48-12.41,7.45
				c-3.94,1.75-6.91,0.05-6.57-4.17c0.51-6.36-0.71-12.63-0.44-18.96c0.11-2.42-0.77-4.35-3.08-5.19
				c-4.54-1.64-8.22-5.16-13.15-5.96c-1.29-0.21-2.93-0.69-3.05-2.17c-0.13-1.73,1.73-1.73,2.91-2.12c3.55-1.18,7.28-3.58,8.81,2.78
				c0.59,2.47,3.62,3.61,6.2,3.27c2.73-0.37,2.16-3.07,2.2-4.91c0.21-9.32,0.27-18.65,0.36-27.97c0.01-1.5,0.1-3.2-1.7-3.76
				c-1.81-0.57-2.71,0.82-3.47,2.16c-3.14,5.5-7.88,9.71-10.31,16.06c-2.2,5.74-8.81,8.72-15.39,9.73c0.67-3.1,3.06-4.62,5.55-6.06
				c2.16-1.25,4.45-2.31,6.09-4.29c5.92-7.13,10.17-15.5,16.44-22.38c0.79-0.87,0.66-1.87,0.21-2.8c-1.81-3.7-1.08-7.44-0.42-11.26
				c0.39-2.29,0.69-4.73-0.49-7.32c-0.68,0.74-1.09,1.06-1.33,1.47c-0.57,1.01-1.1,2.05-1.58,3.11
				c-7.27,15.78-16.21,30.51-27.53,43.74c-1.26,1.47-3.52,2.92-2.29,5.02C1035.72,779.32,1038.11,778.28,1040.04,777.92z
				 M1024.3,777.37l-0.1-0.12c0.75,3.44,2.61,1.7,3.95,0.68c3.72-2.84,6.65-6.56,9.27-10.32c10.92-15.69,21.01-31.88,28.02-49.79
				c0.4-1.02,1.03-1.68,2.13-1.84c4.89-0.72,5.53-4.01,4.96-8.1c-0.34-2.47-1.03-5.28,1.35-6.98c3.87-2.77,3.64-6.83,4.05-10.75
				c0.24-2.32-0.08-4.82-2.91-4.83c-3.27-0.01-2.73,2.47-2.22,4.75c0.3,1.36,0.77,3.43-1.49,3.39c-1.71-0.04-1.67-1.77-1.26-3.15
				c1.02-3.42-0.86-4.15-3.68-4.03c-1.66,0.07-3.34,0.35-4.98,0.18c-4.16-0.43-5.9,1.07-5.25,5.41c0.26,1.74-0.23,3.64-0.59,5.43
				c-3.72,18.49-13.99,34.47-19.99,52.09c-0.33,0.97-0.99,2.27-2.8,1.28c0.08-0.57,0.09-1.21,0.27-1.79
				c6.13-19.68,16.42-37.91,20.07-58.47c0.91-5.14,1.02-5.34-7.55-7.85c-4.31-1.26-4.79,1.53-5.4,4.42
				c-2.04,9.55-3.28,19.13-8.26,28.04c-7.46,13.32-13.38,27.49-20.51,41c-6.7,12.71-15.42,24.2-25.45,34.41
				c-8.11,8.25-17.11,15.65-26.36,22.78c-8.42,6.49-16.97,12.79-25.49,19.13c-2.7,2-4.81,4.82-8.44,5.56
				c5.09-4.86,10.37-9.53,16.07-13.62c10.26-7.37,20.17-15.1,29.56-23.59c13.2-11.93,24.98-25.06,33.69-40.52
				c9.06-16.07,17.3-32.61,25.42-49.18c3.75-7.64,4.84-16.24,6.69-24.53c0.85-3.83-1.17-5.95-4.53-7.22
				c-3.47-1.31-4.85,0.57-5.78,3.52c-0.34,1.07-1.21,1.97-1.8,2.96c-4.07,6.87-8.23,13.69-12.15,20.65
				c-2.25,3.99-1.71,9.25-5.6,12.56c-1.03,0.88-1.54,3.3-3.26,1.97c-1.42-1.1,0.13-2.68,0.85-3.95
				c5.97-10.36,10.57-21.46,17.08-31.55c2.58-3.99-0.15-9.49-4.79-10.77c-10.45-2.88-20.66-6.31-30.15-11.74
				c-7.8-4.46-15.83-8.51-23.75-12.76c-2.45-1.32-5.13-2.66-7.22,0.05c-5.47,7.09-13.03,11.86-19.41,17.92
				c-3.13,2.98-5.93,6.65-11.02,8.28c9.18-9.32,17.8-18.22,26.61-26.92c1.89-1.87,3.85-3.52,0.78-5.4
				c-4.49-2.75-7.92-6.59-11.76-10.03c-1.45-1.29-2.99-2.41-4.91-1.29c-3.28,1.92-6.89,3.38-9.2,6.69c-5.26,7.54-9,15.91-13.05,24.1
				c-4.93,9.98-8.98,20.48-14.79,29.91c-5.56,9.04-8.28,18.36-8.3,28.75c-0.01,2.98,1.41,3.67,3.74,2.13
				c2.35-1.55,4.36-3.63,6.73-5.14c8.82-5.64,18.11-10.62,25.53-18.22c0.99-1.01,2.32-2.82,3.69-1.38c1.67,1.77-0.55,2.72-1.66,3.85
				c-9.55,9.74-21.7,15.93-32.66,23.72c-5.47,3.89-10.05,9.01-12.38,14.53c-3.71,8.77-5.4,18.52-7.01,28.01
				c-1.13,6.66-3.56,12.43-7.47,17.7c-1.48,1.99-2.69,3.96-3.01,6.28c1.53,0.85,2.53-1.3,3.85-0.1c-1.27,2.38-2.67,4.36-4.46,6.18
				c-5.74,5.82-10.77,12.08-14.25,19.69c-4.68,10.22-8.75,20.87-16.64,29.35c-2.18,2.34,0.03,3.93,1.75,5.25
				c5.03,3.84,10.14,7.56,15.15,11.42c3.12,2.4,7.06,2.93,10.13,6c9.32,9.32,19.5,17.77,32.51,21.62c8.11,2.4,16.66,3.58,24.47,6.67
				c10.27,4.07,20.99,4.87,31.62,6.72c4.84,0.84,7.55-1.05,9.72-4.94c3.23-5.81,6.15-11.87,10.01-17.24
				c10.62-14.78,17.58-31.27,23.47-48.29c3.81-11,6.41-22.41,11.92-32.82c1.96-3.69,3.22-7.85,2.81-13.54
				c-5.58,6.68-10.38,12.42-14.53,18.82c-4.1,6.32-10.21,10.95-15.81,15.9c-5.58,4.93-11.58,9.38-17.4,14.04
				c-0.39-0.4-0.77-0.8-1.16-1.2c27.36-21.37,46.58-49.71,67.04-77.09c-0.64,4.56-2.41,8.56-4.89,12.3
				C1019.62,775.56,1020.32,777.32,1024.3,777.37z M1177.91,783.26c-1.01,0.94-1.4,1.5-1.94,1.76c-11.95,5.95-24.64,8.95-37.95,9.28
				c-8.29,0.21-11.53,3.89-10.18,12.23c0.33,2.03-0.18,3.23-1.87,4.07c-2.22,1.1-4.29,2.58-6.98,2.46
				c-1.43-0.06-3.43-0.43-3.75,1.49c-0.33,2.03,1.65,2.71,3.2,3.24c1.4,0.49,2.89,0.79,4.37,0.97c10.34,1.31,19.16-3.26,27.92-7.62
				c10.7-5.32,21.22-11.01,31.83-16.51c2.15-1.11,4.51-1.08,6.85-0.81c0.98,0.12,2.41,0.56,1.71,1.74
				c-1.04,1.77-1.84,4.19-4.37,4.37c-8.24,0.61-14.13,5.64-21.13,10.53c5.39,0.51,9.8,1.42,14.25-0.39
				c-0.99-1.79-3.38-0.16-3.96-2.97c2.88,0.28,4.61-2.22,7.07-2.76c1.82-0.4,5.85-2.89,4.55,2.88c-0.75,3.31,2.28,3.44,3.71,2.1
				c4.2-3.93,10.59-3,14.59-7.13c0.81-0.84,2.16-1,3.21-0.09c1.04,0.9,1.01,2.16,0.42,3.21c-1.43,2.56-2.51,5.83-6.67,3.69
				c-1.76-0.91-3.82-0.31-4,1.57c-0.53,5.61-3.96,4.28-7.17,3.3c-4.57-1.38-8.77-0.42-13.06,1.78c4.56-0.93,8.07,2.44,12.32,2.41
				c0.99-0.01,2.24-0.25,2.38,1.07c0.13,1.22-0.98,1.56-2.05,1.66c-0.99,0.09-2.15,0.05-2.01,1.54c0.1,1.11,0.87,2,1.84,2.14
				c2.79,0.39,4.66,2.49,7.08,3.48c3.05,1.24,6.12,2.91,9.58,2.38c7.29-1.1,12.95-5.77,19.17-9.16c2.44-1.33,2.12-3.97,1.74-6.31
				c-0.97-5.92-2.1-11.81-2.99-17.74c-0.73-4.86-0.76-9.71-3.34-14.31c-1.42-2.53-2.67-5.74-2.18-9.09
				c0.23-1.61,2.73-3.52,0.25-4.78c-1.98-1.01-3.7,1-5.19,2.23c-1.66,1.37-3.11,3-4.6,4.57c-2.15,2.27-4.73,3.56-8.37,4.28
				c2.92-4.38,6.49-7.15,9.67-10.27c6.32-6.22,6.44-8.52,0.27-14.47c-5.15-4.96-10.47-9.75-15.65-14.68
				c-4.82-4.59-8.7-10.06-13.76-14.47c-8.9-7.76-17.79-15.55-26.39-23.64c-10.92-10.28-22.41-19.87-34.26-29.04
				c-0.96-0.75-1.94-1.51-3.11-0.64c-1.14,0.85-1.02,2.15-0.32,3.15c3.58,5.09,4.65,11.34,7.92,16.63
				c3.15,5.09,5.67,10.62,6.79,17.15c-2.68-0.62-3.51-2.28-4.3-3.88c-4.36-8.79-8.75-17.56-12.98-26.42
				c-4.58-9.6-8.99-19.29-13.46-28.94c-2.06-4.44-6.7-3.9-10.26-4.77c-2.76-0.68-4.35,2.58-5.5,5c-1.49,3.12,0.09,6.04,1.5,8.54
				c3.62,6.43,5.73,13.48,8.8,20.13c1.19,2.58,2.83,5.42,1.85,8.89c-2.51-1.28-3.04-3.48-4.14-5.27c-4.28-7-5.76-15.27-10.14-22.2
				c-1.83-2.9-3.83-6.61-2-9.12c2.89-3.98,6.37-8.9,11.86-8.88c4.75,0.01,7.45-2.16,10.11-5.19c1.28-1.46,3.17-3.15,1.14-5.12
				c-1.66-1.6-3.52-0.35-4.9,0.87c-4.8,4.27-10.56,4.38-16.43,3.92c-3-0.24-5.98-0.64-8.96-0.1c-0.98,0.18-2.77,0.22-1.75,2.04
				c0.65,1.15,2.29,2.42-0.43,2.49c-1.83,0.05-5.17,0.59-5.14-1.89c0.05-3.6-2.35-3.23-4.16-3.6c-2.59-0.53-5.24-0.62-7.83-1.44
				c-8.71-2.77-17.48-5.36-26.36-7.59c-12.24-3.08-24.33-6.46-36.06-11.47c-6.13-2.62-13.42-7.69-20.79-1.45
				c-0.38,0.32-1.74-0.04-2.32-0.5c-2.71-2.15-6.39-1.82-9.19-3.74c-0.78-0.54-2.09-1.03-2.72-0.03c-0.82,1.31,0.45,2.1,1.4,2.73
				c2.76,1.83,5.49,3.74,8.37,5.37c7.01,3.97,15.06,5.16,22.47,8.19c22.62,9.23,45.14,18.93,69.72,22c1.4,0.17,3.68,0.15,3.32,2.05
				c-0.37,1.94-2.47,0.83-3.87,0.72c-15.45-1.19-29.91-6.22-44.35-11.38c-7.65-2.73-15.18-6-23.63-5.65
				c-6.07,0.25-11.89-1.18-17.49-3.57c-5.66-2.42-11.29-4.88-16.68-7.91c-2.57-1.45-5.21-3.4-9.52-3.19c2.1,2.8,3.3,5.39,5.74,6.88
				c10.91,6.72,21.73,13.55,33.99,17.82c4.1,1.43,9.33,1.53,12,5.33c2.19,3.11,4.83,5.38,8.09,6.23
				c20.06,5.22,39.25,14.07,60.26,15.24c5.36,0.3,6.65,2.84,7.62,7.27c-3.66-0.71-4.62-5.26-8.04-5.04
				c-11.89,0.75-22.97-2.47-34.06-6.15c-6.93-2.3-14.27-3.37-21.18-5.72c-6.89-2.34-14.04-4.73-18.87-10.7
				c-1.7-2.1-3.55-3.09-6.07-3.86c-15.38-4.67-30.22-10.39-41.25-22.97c-2.03-2.32-3.96-1.29-5.02,1.14
				c-1.06,2.43-0.17,4.62,1.74,6.3c3.12,2.75,6.17,5.62,9.54,8.04c10.19,7.32,21.9,11.93,32.68,18.16
				c19.3,11.16,41.08,15.06,61.68,22.37c0.68,0.24,1.81,0.12,2.35-0.31c1.13-0.91,0.09-1.71-0.51-2.47
				c-0.48-0.61-1.31-1.19-0.29-2.09c5.75,3.21,12.61,1.5,19.85,4.12c-4.77,1.36-8.24-0.5-11.65,0.33c-0.97,0.24-2.09,0.39-2.24,1.6
				c-0.15,1.28,0.9,1.72,1.89,1.88c6.06,1,12.15,2.65,18.22,0.25c3.77-1.49,5.6-0.77,5.73,3.67c0.19,6.48-1.49,12.54-3.62,18.47
				c-3.22,8.95-5.64,18.04-6.39,27.55c-0.26,3.29-0.2,7.13,2.02,9c6,5.04,8.39,12.33,12.79,18.32c1.73,2.35,3.7,4.42,6.9,4.31
				c9.48-0.34,18.96-0.73,28.43-1.16c1.48-0.07,3.22-0.22,3.39-2.2c0.17-1.89-1.3-2.51-2.83-2.9c-4.55-1.16-9.21-1.8-13.86-1.32
				c-9.35,0.97-9.44,0.99-10.34-8.77c-0.51-5.54-1.93-10.38-8.1-12.51c-3.7-1.28-4.93-5.04-5.26-8.52
				c-0.63-6.62-0.74-13.3-0.98-19.96c-0.04-1.23-0.29-3.09,1.59-3.03c1.43,0.04,1.42,1.69,1.31,2.83
				c-0.56,5.54,1.12,10.92,1.18,16.41c0.03,2.7,0.62,5.3,2.33,7.52c0.82,1.07,1.71,2.25,3.24,1.88c1.58-0.38,1.71-1.84,1.82-3.2
				c0.85-10.54-0.7-20.69-4.72-30.49c-3.89-9.5-9.44-18.37-10.97-28.78c-0.33-2.26-2.11-3.22-4.1-3.92
				c-6.59-2.31-13.08-5.05-20.19-5.3c-6.32-0.22-12.07-2.39-17.64-5.05c-2.37-1.13-6.83-2.15-5.3-5.21c1.53-3.05,4.8,0.28,6.68,1.55
				c6.1,4.08,12.37,7.1,19.93,6.91c4.55-0.11,8.9,1.26,13.15,2.75c2.61,0.92,5,1.75,7.43-0.47c1.2-1.09,2.46-1.12,2.69,1.04
				c0.99,9.61,5.28,18.11,9.05,26.78c3.19,7.33,7.02,14.63,7.34,22.69c0.49,12.28,0.54,24.55,2.53,36.72
				c0.66,4.04,2.52,5.54,6.48,4.64c5.16-1.17,10.26-0.53,15.35,0.6c7.24,1.6,13.16-1.74,15.77-8.65c1.55-4.11,1.2-8.15,0.08-12.26
				c-1.02-3.76-2.37-7.52-1.51-11.92c1.71,0.85,2.14,2.07,2.25,3.39c0.33,3.86,1.63,7.44,2.78,11.1c1.56,4.99,0.71,9.89-2.14,14.34
				c-0.54,0.84-1.29,1.53-1.82,2.38c-0.71,1.14-1.43,2.44-0.58,3.73c0.96,1.45,2.35,0.67,3.63,0.37c1.87-0.44,3.67-1.68,6.18-0.43
				c-4.07,2.76-8.71,1.28-12.68,2.71c-2.78,1-6.74,1.07-6.63,4.85c0.14,4.7,0.23,9.64,2.75,13.92c0.36,0.61,1.79,0.83,2.72,0.83
				c7.89,0.02,15.57-0.94,22.96-4.06c5.88-2.48,11.96-4.47,18.31-6.82c-0.55,2.87-2.37,3.89-4.16,4.52
				c-11.56,4.09-22.67,9.86-35.44,9.49c-2.35-0.07-5.11-0.01-4.51,3.59c0.5,3.01,0.42,6.65,5.26,6.25
				c12.07-0.98,24.27-1.11,35.55-6.48C1172.78,783.85,1174.73,782.71,1177.91,783.26z M925.49,493.47c1.31,0.79,2.06,1.13,2.67,1.63
				c1.71,1.41,2.91,4.08,5.79,2.72c2.97-1.4,1.84-4.24,2.09-6.63c1.33-12.99-1.85-25.43-4.52-37.93c-0.37-1.73-0.16-4.1-2.53-4.31
				c-2.37-0.21-3.63,1.93-4.02,3.8c-1.2,5.86-3.35,11.45-4.22,17.43c-0.8,5.44-0.36,11.69-5.09,15.71
				c-3.94,3.36-4.84,7.4-4.28,12.07c0.34,2.84-0.68,4.95-2.1,7.38c-4.45,7.59-8.47,15.42-12.52,23.23c-1.01,1.94-0.86,3.91,2.14,3.3
				c7.77-1.6,14.81,0.62,21.69,3.82c3.35,1.55,6.75,2.76,10.52,2.88c1.54,0.05,4.05-0.17,4.11,1.84c0.06,2.12-2.26,2.5-4.16,2.65
				c-7.73,0.59-14.67-2.66-21.74-4.88c-4.4-1.38-14.31-0.08-14.67,3.45c-0.59,5.72-2.6,10.82-4.31,16.17
				c-1.86,5.82,4.75,4.33,7.17,5.94c1.65,1.09,0.42-2.81,0.51-4.46c0.06-1.05,0.23-2.14,1.41-2.33c1.42-0.23,1.42,0.99,1.62,1.96
				c0.4,1.95,0.76,3.91,1.32,5.82c0.45,1.54,0.74,3.06,3.15,3.09c4.57,0.05,8.25,2.81,12.03,4.97c1.09,0.62,1.08,3.24,2.95,2.8
				c2.16-0.51,1.38-2.66,1.49-4.24c0.05-0.71-0.3-1.74,1.29-1.83c0.39,2.09,0.6,4.23,1.22,6.24c0.57,1.83,1.18,4.35,3.86,3.57
				c2-0.58,2.89,0.27,4.3,1.29c7.62,5.47,10.06,4.41,11.44-4.79c0.2-1.31,0.31-2.68,0.14-3.98c-1.79-13.59-2.68-27.27-4.86-40.83
				c-1.06-6.6-3.49-13.05-2.68-20.04c0.64-5.53-1.24-10.14-7.43-11.89C927.14,498.51,925.54,496.95,925.49,493.47z M845.79,899.08
				c5.32,5.3,10.42,10.72,18.27,3.53c-3.76-2.11-7.11-4.78-10.15-9.23c4.04,0.7,5.12,3.28,7,4.82c1.58,1.3,3.39,3.1,5.14,1.11
				c2.08-2.37-0.7-3.34-2.17-4.44c-1.46-1.1-3.25-1.84-4.52-3.11c-1.72-1.72-4.4-2.93-4.52-6.59c3.2,1.36,4.88,3.76,7.12,5.37
				c0.69,0.5,1.45,1.04,2.27,0.55c1.08-0.64,0.83-1.7,0.44-2.65c-0.68-1.67-2.5-3.18-1.86-5.02c1.9-5.47-2.06-7.56-5.46-9.81
				c-7.51-4.95-15.13-9.71-21.44-16.23c-2.52-2.6-4.54-2.47-7.66-0.15c-7.4,5.51-12.76,13.08-20.02,18.72
				c-6.16,4.78-11.87,10.16-17.67,15.39c-3.01,2.71-4.35,5.86-1.63,9.7c0.75,1.06,0.85,2.57,1.6,3.62
				c5.65,7.86,9.52,17.89,21.61,18.05c0.63,0.01,1.27,0.37,1.87,0.64c2.02,0.93,3.89,4.74,5.53,3.12c2.34-2.32-2.48-3.85-2.87-7.65
				c2.81,2.94,4.81,5.2,7,7.26c1.23,1.17,3.1,2.08,4.42,0.68c0.97-1.03-0.26-2.48-1.2-3.44c-1.97-2.01-4.21-3.8-5.93-5.99
				c-1.95-2.48-4.41-4.82-5.47-9.1c3.14,1.85,3.12,4.66,4.91,5.77c1.83,1.13,3.4,7.38,6.41,0.71c0.66-1.47,2.35-0.09,3.38,0.71
				c4.9,3.79,9.86,3.86,15.14,0.33c-1.38-2.45-4.96-3.53-4.51-6.98c1.31-0.29,1.86,0.4,2.55,0.85c1.69,1.1,3.01,4.92,4.68,3.29
				c2.13-2.08-1.88-3.45-2.75-5.38c-0.07-0.15,0.22-0.45,0.4-0.79c1.45,1.14,2.82,2.36,4.34,3.36c1.25,0.82,2.87,1.67,3.83-0.24
				c0.81-1.62-0.68-2.24-1.85-2.95C849.1,905.12,847.14,902.48,845.79,899.08z M1099.21,782.76c-1.17,5.59,2.22,7.12,6.31,7.97
				c2.51,0.52,5.01-0.08,7.42-0.63c3.59-0.82,4.27-2.99,1.55-5.59c-3.14-3-3.25-6.78-3.58-10.56c-0.11-1.31,0.21-2.92,1.93-2.96
				c1.52-0.03,1.57,1.54,1.73,2.62c0.53,3.47,1.08,6.94,2.52,10.15c1.51,3.38,4.59,3.73,7.62,2.87c2.98-0.84,2.56-3.32,2.07-5.78
				c-0.58-2.93-0.95-5.91-1.25-8.88c-0.33-3.3-1.68-5.2-5.34-5.09c-8.93,0.26-17.87,0.33-26.8,0.53c-4.9,0.11-6.32,2.97-5.41,7.35
				c1.72,8.26,3.37,16.54,5.36,24.74c1,4.13,3.14,7.36,8.39,6.57c1.39-0.21,2.98,0.29,4.37,0.78c12.16,4.3,16.67,1.91,19.69-10.5
				c0.52-2.12,1.35-4.36-0.68-6.03c-2.09-1.73-4.19-0.24-6.04,0.69c-5.58,2.83-11.36,3.59-17.47,2.39
				c-2.39-0.47-4.87-1.23-5.42-3.77c-1.03-4.7-1.6-9.51-2.26-14.28c-0.17-1.22,0.31-2.42,1.71-2.64c1.43-0.23,2.1,0.73,2.32,2.03
				C1098.39,777.52,1098.82,780.31,1099.21,782.76z M1084.13,768.23c0.5-1.64-0.09-2.98-0.88-4.29c-1.8-2.99-3.55-6-5.32-9.01
				c-0.65-1.1-1.03-2.91-2.63-2.51c-1.62,0.4-1.14,2.17-1.13,3.45c0.07,5.97,0.59,11.97,0.21,17.91c-0.77,11.77-2.08,23.5,0.62,35.2
				c0.37,1.61,0.84,3.24-0.22,4.82c-0.58,0.86-0.97,1.83,0.04,2.66c0.95,0.78,1.9,0.4,2.7-0.28c3.69-3.15,7.89-5.51,12.18-7.71
				c2.38-1.22,2.17-3.07,1.21-5.08C1085.58,792.22,1085.65,780.08,1084.13,768.23z M765.86,1073.98c0.63-0.07,2.29-0.16,3.93-0.43
				c1.22-0.2,2.27-0.81,2-2.32c-0.23-1.31-1.24-1.95-2.46-2.15c-1.41-0.23-2.65,0.4-3.69,1.24c-2.21,1.77-4.4,1.81-6.97,0.7
				c-1.63-0.7-3.59-0.6-5.34-1.09c-9.21-2.62-18.82-3.91-27.54-8.11c-1.82-0.87-3.46-1.95-5.55-1.9c-2.67,0.06-6.73-3.26-7.61,1.01
				c-0.71,3.41,3.8,4.47,6.74,5.29C734.25,1070.37,749.3,1073.57,765.86,1073.98z M784.36,1089.74c-2.19-1.36-3.51-2.41-5-3.04
				c-1.37-0.57-2.8-0.4-2.48,1.71c0.38,2.52,6.56,7.8,9.1,7.87c3.26,0.1,10.23-4.16,11.06-6.75c0.49-1.53,0.32-3.1-0.58-4.3
				c-3.6-4.81-7.95-8.91-12.75-12.51c-1.11-0.83-2.51-0.93-3.82-0.45c-1.22,0.44-2.95,0.66-3.08,2.15
				c-0.17,1.95,1.76,1.48,2.92,1.83c4.73,1.42,11.01,8.41,10.95,12.27c-2.23-0.19-3.26-2.11-4.81-3.27
				c-2.02-1.51-4.42-5.59-6.16-3.67c-2.39,2.63,2.18,4.27,3.66,6.39C783.55,1088.24,783.69,1088.54,784.36,1089.74z M1147.75,435.52
				c-0.75-6.2,3.11-8.34,7.22-10.1c1.92-0.83,5.35,0.51,5.21-3.06c-0.11-2.95-3.36-3.84-5.29-5.5c-0.63-0.54-2.22-0.08-3.34,0.09
				c-2.63,0.38-5.22,1.1-7.9,0.32c-4.17-1.21-4.32,0.79-3.81,4.23C1140.67,427.13,1147.41,429.21,1147.75,435.52z M1081.34,317.33
				c0.09-0.64,0.25-1.13,0.23-1.62c-0.15-3.22-0.34-6.28-4.57-7.03c-4.28-0.75-6.6,0.81-7.57,5c-0.79,3.42-2.6,6.43-4.34,9.47
				c-0.76,1.33-2.56,3.02-0.86,4.37c1.88,1.49,3.43-0.46,4.5-1.83c2.33-2.98,5.42-4.74,9.01-4.29
				C1081.72,321.91,1082.76,320.84,1081.34,317.33z M708.72,1080.76c0.7-1.33,0.36-1.95-0.12-2.38c-3.47-3.08-6.83-6.31-10.52-9.12
				c-6.74-5.14-5.74-4.1-3.54-12.4c0.37-1.41,2.59-2.89-0.18-3.92c-1.9-0.7-3.79-0.05-4.54,1.95c-1.16,3.1-2.22,6.27-2.96,9.49
				c-1.27,5.48,1.31,9.01,7.52,10.33c-0.96-1.85-1.83-3.51-3.19-6.13C697.74,1072.91,702.05,1078.46,708.72,1080.76z
				 M1223.62,940.41c1.69,0.46,2.74,0.61,3.22-0.59c0.57-1.44-0.5-2.13-1.55-2.68c-1.64-0.86-3.38-1.41-5.26-1.31
				c-3.88,0.21-6.62-0.85-6.37-5.45c0.09-1.57-0.61-2.56-2.2-2.77c-1.64-0.21-2.4,0.88-2.91,2.19c-0.55,1.41-1.24,3.36,0.65,3.85
				c4.64,1.21,4.21,5.08,4.69,8.33c0.31,2.1,0.6,3.77,2.62,4.94c2.01,1.17,3.94,2.59,3.09,5.53c-0.24,0.84,0.27,1.65,1.29,1.73
				c0.79,0.06,1.47-0.66,1.33-1.19c-0.81-3.03,1.59-6.19-0.44-9.14c-0.64-0.94-1.74-1.93-1.03-3.1
				C1221.69,939.18,1223.08,940.27,1223.62,940.41z M1183.64,855.63c-3.17,5.24-1.14,9.01,5.3,9.34c4.64,0.24,8.3,2.05,10.21,6.15
				c0.76,1.63,1.03,3.7,2.94,2.7c2.43-1.27,6.26-1.88,6.51-5.09c0.25-3.29-1.33-5.08-5.79-5.27
				C1195.82,863.17,1187.65,863.95,1183.64,855.63z M1075.64,338.64c-0.27-1.97-0.27-4.02-0.87-5.88c-0.86-2.65-3.42-3.95-5.44-2.3
				c-2.34,1.91-5.34,3.99-4.64,8.1c0.41,2.39,0.23,4.87-0.81,7.29c-1.2,2.79,0.64,3.64,3.04,3.34
				C1070.38,348.76,1075.59,342.32,1075.64,338.64z M1231.74,929.24c2.98,0.41,4.99-2.66,8.05-2.18c1.31,0.2,2.36-0.6,2.13-2.07
				c-0.25-1.55-1.5-1.54-2.73-1.25c-1.89,0.45-3.62,0.78-4.24-1.88c-1.02-4.36-5.05-4.12-7.54-3.25c-3.18,1.12-0.46,3.4,0.46,5.17
				c0.35,0.67,0.28,1.61,0.26,2.42C1228.08,928.72,1229.69,929.23,1231.74,929.24z M1213.82,920.73c4.34-1.59,4.1,0.49,3.76,3
				c-0.16,1.17-2.16,3.08,0.46,3.51c1.61,0.27,3.78,0.45,5.09-1.21c1.17-1.47,0.35-2.83-0.69-3.99c-1.06-1.18-1.26-2.65-1.64-4.09
				c-0.37-1.41-1.32-2.63-2.84-1.94c-2.04,0.92-3.42-0.04-5.06-0.86c-1.44-0.72-3.36-1.6-4.44,0.22c-1.11,1.87,0.78,2.95,1.98,4.01
				C1211.58,920.42,1212.93,920.99,1213.82,920.73z M728.81,1080.48c-4.24-4.13-8.51-6.86-13.11-9.09c-1.03-0.5-2.27-1-3.19,0.09
				c-1.08,1.27-0.24,2.47,0.48,3.58C715.42,1078.82,722.94,1081.57,728.81,1080.48z M1183.57,830.81c-3.99-0.29-5.36,0.53-4.33,2.64
				c1.49,3.08,3.27,6,4.63,9.17c0.6,1.4,3,2.08,4.27,0.56c1.39-1.66-0.74-2.09-1.72-2.68c-2.41-1.45-2.54-3.13-0.95-5.32
				c1.24-1.69,5.32-1.18,4.41-3.76C1188.72,828.18,1185.45,832.33,1183.57,830.81z M759.79,935.03c-0.35,0.39-0.69,0.79-1.04,1.18
				c5.33,5.33,10.63,10.69,16.02,15.95c0.65,0.63,1.74,0.96,2.68,1.09c1,0.14,2-0.28,2.34-1.4c0.28-0.9-0.15-1.72-0.87-2.14
				C771.92,945.66,766,940.16,759.79,935.03z M1180.28,844.46c1.37-3.03-0.86-4.24-2.8-5.53c-0.96-0.64-2.13-1.36-3.2-0.43
				c-1.98,1.7-0.22,3.72-0.26,5.6c0,0.17,0.01,0.33,0.04,0.5c0.34,1.67,6.16,8.13,6.79,7.54c2.47-2.32-1.03-4.08-0.74-6.24
				C1180.18,845.41,1180.23,844.91,1180.28,844.46z M957.12,616.51c-0.67-2.58-1.65-4.46-1.83-6.69c-0.24-2.92-2.94-3.78-5.39-4.4
				c-1.27-0.33-2.35,0.39-2.74,1.63c-0.82,2.64,0.41,4.47,2.54,5.91C951.86,614.41,953.72,616.44,957.12,616.51z M717.41,1085.11
				c-2.24,0.34-3.13,1.45-1.8,3.04c2.65,3.15,6.25,4.73,10.33,4.97c1.24,0.08,2.64-0.99,1.39-2.16
				C724.45,1088.25,720.84,1086.6,717.41,1085.11z M1214.95,849.79c1.61,0.39,2.81,0.12,3.51-1.32c0.45-0.94,0.59-1.95-0.1-2.81
				c-1.01-1.27-2.41-1.83-3.97-1.42c-1.9,0.5-3.35,2.12-5.47,2.21c-1.02,0.04-2.11,0.65-1.94,1.83c0.22,1.54,1.64,1.5,2.77,1.29
				C1211.58,849.21,1213.35,849.1,1214.95,849.79z M1240.89,933.56c-0.75-2.31-2.56-2.41-4.11-2.17c-2.71,0.43-5.87,0.96-6.58,4.1
				c-0.43,1.9,1.75,2.79,3.44,2.44C1236.53,937.34,1238.87,935.6,1240.89,933.56z M1177.32,823.7c1.52,0.12,3.25,0.17,3.27-1.89
				c0.02-1.92-1.76-1.58-2.99-1.59c-2.43-0.04-5.1,0.66-5.55-3.09c-0.16-1.31-1.41-1.26-2.34-0.75c-1.27,0.7-1.48,1.96-0.44,2.85
				C1171.62,821.25,1173.98,823.38,1177.32,823.7z M777.98,943.02c-5.58-4.48-9.09-11.36-15.92-14.44
				C765.63,935.3,772.95,937.91,777.98,943.02z M1205.07,857.03c0.31-3.37-1.22-4.97-3.69-5.56c-2.19-0.52-2.32,1.25-2.34,2.76
				c-0.03,2.77,1.23,4.94,3.99,5.37C1205.07,859.93,1204.93,857.85,1205.07,857.03z M972.86,623.91c-0.2,0.5-0.41,0.99-0.61,1.49
				c4.64,2.04,9.28,4.1,13.95,6.07c0.48,0.2,1.5,0,1.76-0.37c0.61-0.84,0-1.62-0.81-1.95C982.45,627.22,977.91,624.79,972.86,623.91
				z M743.68,966.04c3.36,2.5,6.69,5.03,10.09,7.47c0.68,0.49,1.63,0.57,2.26-0.2c0.64-0.78,0.4-1.84-0.34-2.16
				C751.72,969.47,748.69,965.84,743.68,966.04z M1197.84,843.76c3.06-0.93,5.8,0.47,8.65,0.62c1.97,0.11,3.51-1.04,3.44-3.31
				c-0.05-1.4-1.25-2.35-2.35-1.71C1204.53,841.15,1200.59,840.86,1197.84,843.76z M761.27,1103.09c0.64,0.04,1.46,0.12,2.29,0.12
				c1.09,0,2.7,0.42,2.72-1.17c0.02-1.65-1.63-1.36-2.67-1.15c-2.61,0.53-4.87-0.37-7.15-1.4c-0.95-0.43-2.05-0.47-2.58,0.64
				c-0.65,1.37,0.28,2.17,1.38,2.72C757.15,1103.79,759.12,1103.49,761.27,1103.09z M1200.8,834.4c-0.9-2.44-2.79-2.31-4.56-2.18
				c-2.05,0.14-4.03,0.67-4.07,3.24c-0.02,1.41,1.2,2.23,2.35,1.59C1196.51,835.94,1199.53,837.06,1200.8,834.4z M785.14,970.43
				c1.29,0.15,3.03,0.4,2.94-1.03c-0.18-2.77-2.81-3.36-4.97-4.02c-1.19-0.36-2.54,0.14-2.5,1.6
				C780.69,969.95,783.38,969.74,785.14,970.43z M830.02,919.84c-0.77,0-1.82,0.41-1.43,1.69c0.78,2.53,2.55,4.29,5.17,4.85
				c1.17,0.25,1.99-0.78,1.7-1.86C834.78,921.98,833.4,919.97,830.02,919.84z M687.25,1074.25c-0.97,0.31-2.1,0.65-1.67,1.9
				c0.87,2.55,3.13,3.65,5.5,4.36c0.92,0.28,2.42-0.17,2.05-1.33C692.26,1076.48,689.65,1075.51,687.25,1074.25z M775.73,980.4
				c-0.87-2.07-2.5-3.31-4.75-3.63c-1.33-0.19-3.33,0.13-2.98,1.58c0.69,2.8,3.98,2.2,6.01,3.35
				C774.78,982.13,775.54,981.47,775.73,980.4z M1183.85,871.81c-0.15-1.95-1.92-1.51-3-1.97c-1.35-0.57-2.75-0.64-2.93,1.34
				c-0.14,1.5,0.54,2.71,2.19,2.71C1181.65,873.9,1182.99,873.23,1183.85,871.81z M784.53,976.28c-2.58-1.55-4.59-2.83-6.68-3.94
				c-0.42-0.22-1.35-0.01-1.73,0.34c-0.54,0.49-0.31,1.4,0.31,1.65C778.8,975.24,780.73,977.87,784.53,976.28z M1078.37,328.95
				c1.07-0.15,2.13-0.53,1.89-1.78c-0.38-2-1.95-3.08-3.8-3.38c-1.29-0.21-1.57,0.99-1.34,2.05
				C1075.5,327.57,1076.34,328.92,1078.37,328.95z M809.61,940.22c-0.61-1.53-1.97-2.07-3.5-2.22c-1.13-0.11-2.03,0.44-1.84,1.7
				c0.28,1.84,1.67,2.32,3.31,2.22C808.59,941.87,809.6,941.67,809.61,940.22z M1232.12,850.65c-0.82-1.29-2.05-2.06-3.6-2.04
				c-0.99,0.02-2.11,0.57-2,1.72c0.21,2.15,2.09,1.61,3.44,1.7C1230.87,852.09,1232,852.14,1232.12,850.65z M1194.8,877.61
				c-1.31,0.5-2.93,0.92-3.14,2.55c-0.17,1.25,1.11,1.42,2.09,1.24c1.24-0.23,2.74-0.35,2.94-2
				C1196.83,878.22,1195.97,877.71,1194.8,877.61z M1192.32,872.05c-0.09-1.36-1.01-1.91-2.25-1.95c-1.19-0.04-2.4,0.27-2.57,1.64
				c-0.19,1.52,1.03,1.85,2.21,1.92C1190.88,873.73,1191.99,873.54,1192.32,872.05z"/>
			<path d="M1210.56,1009.03c-10.95-7.3-21.5-5.31-32.59-2.37c-5.91,1.57-12.55,0.48-18.85,0.47c-12.33-0.01-24.65,0.81-36.96,1
				c-11.41,0.18-22.82,1.02-34.33,0.39c-8.97-0.49-18.21,0.88-27.34,1.32c-4.81,0.23-9.7,0.71-13.05-4.16
				c-1.14-1.66-3.35-1.01-5.18-0.86c-20.33,1.66-40.01,6.84-59.9,10.95c-18.39,3.8-36.79,7.66-55.04,11.91
				c-20.11,4.68-40.83,6.52-60.56,12.58c-21.65,6.65-44.03,10.07-65.82,16.08c-6.69,1.85-13.75,2.4-20.67,3.37
				c-1.84,0.26-4.62,0.68-4.46-2.33c0.13-2.49,2.63-1.85,4.41-1.94c10.21-0.52,20.02-3.18,29.78-5.88
				c12.81-3.55,25.71-6.68,38.75-9.19c5.1-0.98,9.88-2.9,14.84-4.27c14.46-4,29.42-5.48,44.1-8.43c13.05-2.62,26.06-5.43,39.08-8.21
				c15.12-3.23,30.25-6.4,45.34-9.79c15.93-3.58,31.92-6.75,48.13-8.78c5.29-0.66,10.52-1.71,14.87,3.01
				c1.61,1.75,4.39,1.19,6.72,1.21c30.66,0.18,61.29-0.91,91.93-1.87c14.67-0.46,29.18-2.99,43.87-2.51
				c1.98,0.07,3.96,0.55,5.93,0.51C1208.21,1001.15,1209.88,1003.89,1210.56,1009.03z"/>
			<path d="M1227.03,1034.97c-5.07,2.19-9.26,1.16-13.24,1.46c-6.63,0.5-13.31,0.29-19.97,0.51c-4.19,0.14-8.32,0.07-12.31-1.43
				c-2.06-0.78-4.24-0.87-6.41-0.71c-26.87,1.95-53.75,3.81-80.44,7.72c-19.43,2.85-38.92,5.36-58.34,8.3
				c-5.08,0.77-10.03,2.4-15.27,1.94c-4.9-0.44-6.25-1.94-5.11-6.7c1.05-4.37-1.79-4.12-4.25-3.66c-8.51,1.56-16.95,3.5-25.45,5.09
				c-14.55,2.71-28.94,6.18-43.43,9.12c-20.14,4.08-40.15,9.14-59.79,15.53c-12.29,4-24.63,8.31-37.49,10.09
				c-10.38,1.44-20.84,2.23-31.09,4.55c-1.15,0.26-2.49,0.3-2.96-1.11c-0.47-1.41,0.61-2.23,1.72-2.6c2.52-0.84,5.06-1.89,7.66-2.16
				c11.59-1.18,23.12-2.75,34.49-5.29c6.97-1.55,14-3.05,20.72-5.39c11.31-3.95,22.68-7.67,34.3-10.54
				c9.81-2.43,19.76-4.29,29.65-6.41c18.69-4.01,37.35-8.2,56.1-11.95c6.81-1.36,13.56-3.63,20.67-3.03
				c3.89,0.33,7.07,1.25,5.26,6.49c-1.24,3.56,1.51,3.47,3.71,3.21c8.6-1.02,17.19-2.1,25.76-3.29
				c36.93-5.12,73.78-11.09,111.12-12.44c17.62-0.64,35.23,0.78,52.84,1.49C1218.86,1033.88,1222.42,1032.96,1227.03,1034.97z"/>
			<path d="M993.48,303.67c-2.36,0.62-3.01-2.27-4.64-1.08c-1.21,0.88-0.24,2.12,0.18,3.16c0.7,1.69,1.65,3.01,3.76,1.93
				c2.44-1.25,3.03,0.82,4.26,2.11c4.81,5.04,10.43,8.68,17.54,9.59c2.39,0.31,4.59-0.52,7.37-1.01c-1.24,5.42,1.17,7.69,6.27,8.86
				c3.78,0.87,4.81,5.24,6.54,8.4c0.61,1.13-0.11,2.28-1.21,2.95c-1.32,0.81-2.14,0.05-2.89-0.99c-2.09-2.92-5.5-4.76-6.91-8.4
				c-1.17,3.2-1.62,6.05,0.85,8.98c2.02,2.39,3.55,5.21,5.14,7.93c0.77,1.31,1.18,2.92-0.38,4.04c-1.63,1.16-3.18,0.67-4.43-0.75
				c-0.88-0.99-1.62-2.1-2.44-3.15c-0.53-0.67-1.18-1.34-2.09-0.9c-1.01,0.48-0.37,1.35-0.34,2.13c0.15,5.05-3.16,8.68-5.65,12.53
				c-1.1,1.69-3.05,0.47-4.34-0.69c-1.44-1.3-1.91-2.83-0.2-4.23c1.25-1.02,2.7-2.22,1.26-3.61c-3.06-2.93-1.4-5.05,0.43-7.66
				c1.64-2.33,4.75-4.41,2.65-8.09c-0.13-0.23,0.28-1.07,0.62-1.23c6.62-3.1,1.69-5.45-0.55-7.84c-3.61-3.85-8.82-4.27-13.34-4.22
				c-4.02,0.04-6.38-1.62-8.45-4.04c-3.45-4.01-5.57-9.02-9.2-12.97c-1.45-1.58-1.18-3.71-1.23-5.72c-0.08-3.38-1.19-5.66-5.2-4.2
				c-2.52,0.92-4.63,0.01-5.2-2.31c-0.67-2.69,2.41-2.48,3.78-2.88c2.62-0.76,5.48-0.75,8.25-0.92c1.27-0.08,1.78,0.65,1.32,1.94
				c-1.12,3.12-2.88,5.68,3.33,4.4C991.52,295.08,992.7,300.1,993.48,303.67z"/>
			<path d="M1074.68,533.64c1.58,1.59,1.72,3.13,1.12,4.19c-3.75,6.57-6.25,14.09-13.23,18.29c-2.77,1.66-4.97,3.91-7.15,6.19
				c-4.28,4.49-9.48,7.3-15.57,8.26c-5.49,0.86-9.67,4.29-14.33,6.79c-2.08,1.12-4.05,2.38-7.38,0.56c3.85-2.32,7.81-3.25,11.2-5.24
				c5.25-3.08,10.84-5.52,16.66-7.68c6.8-2.53,12.01-8.23,16.47-14.11C1066.65,545.37,1070.49,539.58,1074.68,533.64z"/>
			<path d="M1248.34,989.48c0.42-6.34,0.99-6.78,7.04-6.05c1.95,0.24,3.98-0.11,5.92,0.18c1.52,0.23,2.97,1.36,2.86,2.99
				c-0.14,2.05-1.93,1.98-3.45,1.63c-4.2-0.96-7.1,0.3-8.11,4.71c-0.33,1.44-1.07,1.58-2.11,0.96c-5.94-3.58-11.88-7.18-17.77-10.85
				c-1.06-0.66-1.48-1.84-0.76-3.05c0.79-1.34,1.99-1.4,3.46-1.17C1241.71,979.8,1247.3,981.59,1248.34,989.48z"/>
			<path d="M1245.03,970.01c-6.02-5.74-7.8-5.44-11.48,2.04c-0.66,1.34-1.14,2.77-1.9,4.04c-1.19,1.98-2.47,3.44-4.07,0.18
				c-0.71-1.45-1.63-2.83-3.08-3.81c-3.72-2.51-3.76-3.73,0.27-5.24c2.64-0.98,5.24-2.57,6.33-4.5c3.12-5.53,7.44-3.5,11.1-2.09
				C1246.39,962.26,1244.63,966.68,1245.03,970.01z"/>
			<path d="M1048.28,482.68c-5.22,3.63-10.13,7.86-15.72,10.78c-14.44,7.54-30.12,12.47-44.4,20.41c-1.23,0.69-2.5,0.91-3.84,0.49
				c-1.45-0.45-3.22-1.02-2.86-2.85c0.35-1.77,2.07-1.28,3.34-0.91c2.07,0.61,3.79,0.1,5.68-0.92c10.68-5.8,21.67-10.89,33.34-14.45
				c6.44-1.97,11.89-5.8,17.39-9.52C1043.24,484.33,1044.81,482.22,1048.28,482.68z"/>
			<path d="M1003.32,291.32c5.69,0.24,8.24,3.85,10.04,7.78c1.36,2.98,1.65,6.45,4.31,8.83c0.6,0.54,1.07,1.42,0.36,2.2
				c-0.7,0.76-1.59,0.4-2.26-0.08c-2.85-2.02-5.69-4.06-8.47-6.19c-1.45-1.11-1.27-2.51-0.43-4.01c2.23-3.94-0.25-4.21-3.23-4.04
				c-0.16,0.01-0.32,0.08-0.49,0.1c-2.41,0.34-6.13,2.78-6.58-0.95C996.33,292.9,1001.01,291.92,1003.32,291.32z"/>
			<path d="M1273.36,999.35c-3.73,2.25-9.88-0.38-14.04,4.31c-1.05,1.19-3.16,1.79-3.91,0.47c-1.07-1.88,1.34-2.19,2.49-2.71
				c1.76-0.81,3.22-1.83,3.69-3.73c1.06-4.33,5.05-4.12,7.97-4.55c3.41-0.5,5.38,3.3,8.32,4.65c0.22,0.1,0.35,1.04,0.15,1.33
				C1277,1000.61,1275.66,999.48,1273.36,999.35z"/>
			<path d="M1052.08,489.03c-10.89,12.03-24.49,20.17-38.6,27.57C1025.56,506.3,1039.88,499.19,1052.08,489.03z"/>
			<path d="M1045.62,308.76c-0.19,2.12-1.29,3.54-3.4,3.62c-2.17,0.09-3.33-1.14-3.32-3.42c0.01-1.36,1.11-3.29-0.91-3.83
				c-1.53-0.41-1.96,1.45-2.67,2.51c-0.75,1.12-1.77,1.72-2.87,0.64c-1.24-1.22-1.3-2.88-0.02-3.99c1.64-1.43,1.56-6.16,4.03-4.5
				c3.07,2.06,7.11,3.62,8.75,7.55C1045.4,307.79,1045.49,308.29,1045.62,308.76z"/>
			<path d="M1271.38,1037.66c-0.07,1.07-0.85,1.62-1.66,1.28c-8.61-3.67-17.74-0.28-26.48-1.98c-0.49-0.1-1.01-0.1-1.46-0.27
				c-0.61-0.24-1.27-0.6-1.14-1.41c0.2-1.18,1.17-1.1,1.93-0.83c6.67,2.41,13.18,2.01,19.73-0.59
				C1264.69,1032.92,1271.29,1035.97,1271.38,1037.66z"/>
			<path d="M1073.77,479.72c-5.4,11.4-14.39,19.83-23.36,28.26C1058.17,498.54,1065.88,489.06,1073.77,479.72z"/>
			<path d="M1279.71,1024.9c-0.97-0.01-2.13,0.3-2.67-0.78c-0.68-1.34,0.41-2.18,1.26-2.92c2.33-2.05,5.29-3.48,6.08-6.93
				c0.2-0.85,1.19-1.23,2.03-0.78c0.51,0.27,1.02,0.89,1.16,1.44C1288.16,1017.17,1282.06,1024.82,1279.71,1024.9z"/>
			<path d="M1060.45,259.42c-0.4,1.2-0.57,2.71-2.58,1.92c-2.73-1.07-8.04-8.46-8.01-11.28c0-0.43,0.23-1.04,0.55-1.25
				c0.3-0.18,1.07-0.1,1.29,0.16c2.74,3.27,3.9,7.97,8.65,9.44C1060.47,258.46,1060.42,259.04,1060.45,259.42z"/>
			<path d="M1235.73,993.66c2.24,1.86,6.52,2.16,6.98,4.83c0.48,2.71-3.57,1.89-5.57,2.71c-2.56,1.06-2.74-0.82-2.65-2.64
				C1234.58,996.93,1233.19,994.94,1235.73,993.66z"/>
			<path d="M1207.53,999.94c-1.64-4.96-1.08-9.06,0.12-13.02c0.49-1.62,2.16-1.64,2.9,0c0.97,2.14,2.71,4.49,0.14,6.7
				C1209.03,995.04,1209.62,997.37,1207.53,999.94z"/>
			<path d="M1006.58,267.55c1.62,6.91,10.44,5.66,11.07,14.45c-3.44-4.25-7.05-6.11-10.77-7.89
				C1005.13,273.27,1004.8,270.96,1006.58,267.55z"/>
			<path d="M1002.08,286.23c5.07-3.52,9,0.17,12.99-0.14c1.02-0.08,1.37,2.09,0.64,3.38c-0.69,1.21-2.03,1.44-2.98,0.69
				C1009.91,287.95,1006.44,287.53,1002.08,286.23z"/>
			<path d="M1216.7,886.8c2.76-3.82,6.23-3.12,9.59-2.64c0.85,0.12,1.5,0.73,1.51,1.69c0.01,1-0.71,1.6-1.55,1.6
				C1223.21,887.47,1220.09,888.12,1216.7,886.8z"/>
			<path d="M1040.03,363.18c-0.09,1.28-0.38,2.5-1.6,2.2c-2.7-0.68-3.72-3-4.23-5.44c-0.24-1.14,0.42-2.75,1.76-2.2
				C1038.31,358.71,1039.49,360.93,1040.03,363.18z"/>
			<path d="M1031.01,299.92c-0.78,1.61-0.52,4.28-3.01,4.42c-2.02,0.11-2.39-2.01-2.46-3.62c-0.08-1.93,1.23-3,3.03-3.23
				C1030.2,297.28,1030.91,298.29,1031.01,299.92z"/>
			<path d="M1035.12,519.71c3.21-3.79,7.15-6.55,11.48-8.79C1043.24,514.47,1040.46,518.75,1035.12,519.71z"/>
			<path d="M1080.14,519.3c0.53,3.97-0.36,7.51-3.34,10.39C1076.85,525.9,1078.19,522.51,1080.14,519.3z"/>
			<path d="M1214.36,985.41c0.59-1.79,2.21-1.94,3.61-2.14c2.09-0.29,1.82,1.42,1.85,2.67c0.02,1.15-0.05,2.62-1.76,2.23
				C1216.53,987.81,1214.81,987.37,1214.36,985.41z"/>
			<path d="M1215.22,994.66c1.95,1.34,2.49,3.44,3.25,5.33c0.35,0.88-0.51,1.65-1.42,1.34c-2.22-0.74-2.12-3.05-2.85-4.77
				C1213.86,995.76,1214.28,995.03,1215.22,994.66z"/>
			<path d="M1265.52,1023.61c2.98-0.11,5.13-1.16,6.68,1.03c0.5,0.71,0.04,1.75-0.7,2.13
				C1268.82,1028.15,1267.83,1025.77,1265.52,1023.61z"/>
			<path d="M1225,1013.62c-3.91,0.35-6-1.82-8.56-2.33c-0.84-0.17-0.88-1.31-0.24-2.04c0.63-0.72,1.72-0.85,2.18-0.2
				C1219.82,1011.07,1222.23,1011.75,1225,1013.62z"/>
			<path d="M1282.96,1005.4c-1.29,2.79-3.23,4.42-6.91,3.27C1277.59,1005.64,1280.73,1006.41,1282.96,1005.4z"/>
			<path d="M1046.58,259.13c-0.1,1.1-0.22,2.27-1.56,2.11c-1.46-0.17-1.56-1.52-1.6-2.65c-0.03-1,0.24-2.36,1.29-2.35
				C1046.45,256.26,1046.23,258.03,1046.58,259.13z"/>
			<path d="M1024.3,777.37c-0.67-2.35,0.41-4.17,1.73-5.97c7.79-10.63,13.71-22.31,19.19-34.24c0.9-1.96,1.82-3.91,2.85-5.8
				c0.68-1.25,1.28-3.31,3.1-2.48c1.9,0.87,0.62,2.55,0,3.85c-2.22,4.65-4.18,9.44-6.73,13.89c-6.09,10.63-11.48,21.75-20.25,30.62
				C1024.2,777.25,1024.3,777.37,1024.3,777.37z"/>
			<path d="M1017.54,681.5c-12.66,18.14-27.01,34.73-44.35,48.59C988.05,713.97,1003.79,698.65,1017.54,681.5z"/>
			<path d="M922.01,842.23c-0.61,2.41,1.74,5.88-2.62,6.77c-1.01,0.21-2.29,0.1-2.46-1.05
				C916.39,844.23,919.65,843.64,922.01,842.23z"/>
			<path d="M991.68,619.73c18.04,4.06,33.07,16.61,51.86,18.83c-1.75,1.88-3.75,1.55-5.44,0.93c-6.46-2.35-13.3-3.16-19.59-6.5
				c-8.71-4.63-18.14-7.91-27.26-11.76C991.4,620.72,991.54,620.23,991.68,619.73z"/>
			<path d="M1177.88,764.99c2.99-5.18,7.9-7.86,12.75-10.6c0.87-0.49,2-0.67,2.59,0.44c0.46,0.86-0.12,1.63-0.87,2.06
				C1187.57,759.65,1183.44,763.55,1177.88,764.99z"/>
			<path d="M1196.54,792.91c1.64-6.22,7.55-7.04,11.39-10.43c0.5-0.44,1.53-0.22,1.63,0.46c0.11,0.71-0.12,1.89-0.63,2.22
				C1204.86,787.83,1200.68,790.35,1196.54,792.91z"/>
			<path d="M1058.07,642.23c-3.62,1.2-6.48-0.11-9.76-1.39C1052.65,639.22,1054.07,639.42,1058.07,642.23z"/>
			<path d="M845.18,876.47c-2.64,1.51-5.54-0.77-5.31,1.76c0.29,3.1,2.98,4.95,6.64,5.05c-2.59,2.6-6.6-0.22-9.23,2.86
				c3.29-3.77-1.7-6.62-0.42-9.96c0.5-1.3-0.82-3.29,1.12-3.97c1.97-0.69,2.81,1.3,4.05,2.29
				C842.8,875.12,843.72,875.57,845.18,876.47z"/>
		</g>
	</g>
	<g>
		<g>
			<path class="st0" d="M1040.04,777.92c0.22,3.62,3.36,3.96,6.03,5.04c-2.56,1.44-4.91,0.67-7.24,0.27
				c-6.82-1.17-13.07-0.75-18.44,4.58c-3.18,3.15-7.58,9.06-9.47,12.69c-7.67,14.72-10.27,31.25-16.71,46.34
				c-5.32,12.47-10.46,25-18.71,36.21c-5.49,7.46-10.86,15.53-13.59,24.76c-0.71,2.42-2.45,2.85-4.66,2.72
				c-14.64-0.85-29.16-1.7-42.89-8.15c-6.97-3.27-15.39-2.54-22.6-5.87c-1.49-0.69-3.2-0.95-4.66-1.69
				c-2.45-1.24-4.2-0.71-5.32,1.72c-1.79,3.89-5.24,5.99-8.72,7.93c-17.89,9.98-33.86,22.13-46.17,38.83
				c-15.84,21.49-35.46,39.49-54.37,58.14c-9.59,9.46-16.17,20.97-20.82,33.62c-2.46,6.7-0.53,12.42,3.41,17.76
				c5,6.76,11.3,12.58,19.72,13.34c10.36,0.93,16.97,6.72,23.22,13.81c2.49,2.82,5.68,5.05,6.59,9.13c0.6,2.68,0.14,4.81-2.2,5.99
				c-9.17,4.61-18.21,9.57-28.8,10.43c-3.27,0.27-6.46,1.42-9.71,2.05c-8.67,1.68-15.75-3.3-23.39-5.81
				c-9.15-3-18.25-6.16-27.14-9.98c-3.91-1.68-8.99,0.37-13.68-0.73c-6.05-1.43-11.54-4.13-17.28-6.24
				c-2.49-0.92-2.69-3.23-2.35-5.48c1.33-8.71,3.87-17.13,6.05-25.64c0.2-0.77,0.72-1.55,1.3-2.1
				c16.72-16.05,27.06-35.83,35.67-57.17c8.56-21.23,14.45-43.59,26.25-63.54c3.89-6.57,9.83-10.16,15.76-14.12
				c3.47-2.32,4.47,2.47,7.07,2.48c0.95-1.98-0.68-2.48-1.48-3.39c-1.61-1.82-0.9-3.43,0.61-4.76c1.82-1.6,2.94-0.49,3.89,1.19
				c0.49,0.86,1.07,1.72,1.8,2.38c1.24,1.12,2.44,3.77,4.28,2.04c1.59-1.5-0.53-3.29-1.58-4.68c-0.69-0.91-1.57-1.81-2.57-2.31
				c-2.83-1.41-2.42-3.36-0.91-5.29c2.51-3.2,4.07-6.86,5.58-10.56c2.29-5.62,8.24-7.01,12.3-10.58
				c11.34-9.98,22.37-20.23,32.79-31.15c9.61-10.06,15.13-22.24,20.67-34.88c4.47-10.2,9.87-20.42,17.2-29.37
				c4.27-5.21,6.19-12.12,6.84-18.98c0.59-6.23,2.24-12.1,4.68-17.79c0.81-1.89,1.24-3.76,1.22-5.8c-0.03-2.55,0.3-5.22,2.17-7
				c6.02-5.71,6.49-13.29,6.72-20.66c0.21-6.92,1.88-13.46,5.38-19c8.87-14.02,14.32-29.68,22.2-44.14
				c3.02-5.55,5.65-11.32,8.59-16.91c1.71-3.25,4.88-4.82,7.99-6.5c7.19-3.89,11.01-9.82,11.93-18.16
				c0.57-5.17,5.11-10.23-0.69-15.05c0.75-8.81-6.47-11.03-12.21-12.91c-12.72-4.17-23.91-11.55-36.41-16.14
				c-7.47-2.75-8.92-8.53-5.17-15.61c1.53-2.9,2.53-5.76,1.4-9.07c-0.55-1.61-0.25-3.26,0.34-4.89
				c4.25-11.73,9.71-22.86,16.25-33.47c1.27-2.05,2.28-4.11,1.82-6.56c-0.88-4.68,0.69-8.69,2.57-12.93
				c3.05-6.92,6.19-13.69,7.14-21.6c0.87-7.22,3.61-14.54,8.15-20.67c1.78-2.4,2.87-5.05,2.96-7.83
				c0.45-13.84,7.99-24.72,14.33-36.23c4.48-8.13,10.91-14.69,16.06-22.22c4.42-6.46,8.87-12.83,14.29-18.51
				c1.69-1.78,1.9-4.18,1.98-6.55c0.5-14.58-5.18-27.36-12.32-39.42c-5.92-10.01-9.24-20.66-9.78-32.03
				c-0.57-12.07,3.09-23.36,9.75-33.36c16.03-24.07,39.73-31.03,67.04-28.51c10.54,0.97,18.35,7.78,26.19,14.41
				c5.04,4.27,8,9.73,11.01,15.21c2.37,4.32,1.24,9.45,1.59,14.15c0.32,4.33,0.99,8.58,3.24,11.81c4.51,6.47,6.57,14.67,13.56,19.42
				c1.3,0.88,2.28,2.58,0.76,3.77c-1.41,1.11-2.3-0.66-3.02-1.69c-1.61-2.31-2.84-4.94-4.73-6.98c-3.07-3.32-4.76-8.55-11.22-7.41
				c-2.75,0.49-4.75-1.53-2.57-4.85c1.11-1.69,2.38-3.79,0.01-5.21c-2.32-1.39-4.07,0.17-5.37,2.15c-0.46,0.7-0.93,1.38-1.44,2.05
				c-0.51,0.67-1.12,1.36-2.06,1.04c-1.32-0.45-0.89-1.58-0.79-2.53c0.27-2.72,1.77-4.32,4.17-5.71c7.99-4.63,9.71-10.4,5.42-18.67
				c-8.94-17.25-22.85-26.4-42.69-26.67c-13.97-0.19-27.14,1.73-39.33,9.04c-12.75,7.64-20.8,18.46-24.28,32.92
				c-1.35,5.59-2.48,11.26-1.42,16.79c1.82,9.49,1.6,19.56,8.51,27.75c5.35,6.35,6.66,14.74,9.23,22.47
				c2.41,7.24,3.23,14.49,2.78,22.01c-0.11,1.87-0.56,3.58-1.25,5.3c-1.94,4.91-0.66,6.94,4.5,5.58c4.45-1.17,7.58,0.06,10.98,2.3
				c3,1.98,6.72,1.85,9.98,3.08c6.54,2.46,13.46,4.04,19.47,7.73c6.35,3.9,13.59,2.61,20.38,3.85c2.42,0.44,3.9-4.48,1.61-7.19
				c-2.65-3.14-2.49-4.93,0.96-7.03c1.92-1.17,1.62-3.11,0.23-4.75c-0.9-1.06-2.8-1.32-2.6-3.46c0.49,0.09,1.01,0.03,1.32,0.27
				c1.68,1.24,3.13,3.46,5.59,1.71c1.46-1.04,1.15-2.63,0.46-4.08c-1.17-2.42-3.22-4.92-5.71-3.64c-5.56,2.85-6.36-3.43-9.79-4.45
				c-0.67-0.2-0.31-1.48,0.3-2.17c1.07-1.21,2.28-1.72,3.98-1.46c4.39,0.67,8.13,2.99,11.82,5.06c3.65,2.04,7,1.01,10.05-0.1
				c4.14-1.51,1.04-4.6,1.1-6.99c-1.72-0.23-1.76,0.82-2.22,1.44c-1.34,1.78-2.32,4.85-5.16,3.55c-2.71-1.24-6.49-2.19-6.22-6.45
				c0.12-1.84-1.35-2.54-2.06-3.79c-1.83-3.22-4.45-6.69,1.51-8.5c2.48-0.75,0.39-3.51,2.51-4.74c1.94,2.42,4.5,4.09,7.71,4.57
				c1.32,0.2,2.82,0.67,3.47-0.96c0.53-1.31-0.62-2.12-1.51-2.85c-0.64-0.53-1.39-0.93-2.02-1.46c-0.67-0.56-1.09-1.3-0.55-2.16
				c0.45-0.71,1.16-0.54,1.78-0.28c3.44,1.41,4.04,0.51,2.39-2.72c-2.01-3.93-0.37-13.53,2.74-16.81c0.57-0.6,1.28-1.06,1.9-1.62
				c1.53-1.35-0.1-3.67,0.95-4.63c2.14-1.96,2.21,0.68,2.66,1.79c0.69,1.73,2.85,1.88,3.5,3.43c1.35,3.22,3.34,3.67,6.34,2.12
				c2.04-1.05,3.66-0.67,3.34,2.22c-0.14,1.24,0.42,2.21,1.01,3.25c3.77,6.67,2.73,15.78-2.4,21.48c-1.03,1.14-2.17,2.33-1.76,3.94
				c1.98,7.85-3.32,11.58-8.62,15.2c-2.73,1.87-5.89,3.11-8.64,4.96c-5.79,3.89-10.39,9.13-13.05,15.45
				c-2.56,6.08,0.15,12.07,3.96,16.71c3.3,4.03,7.97,6.21,13.84,4.08c6.71-2.44,13.86-2.32,20.77-1.2
				c10.57,1.71,21.31-0.1,31.85,2.08c2.55,0.53,5.27,0.36,7.81,1.29c10.41,3.83,20.65,2.01,30.82-1.1
				c6.69-2.04,13.42-2.57,20.2-0.69c4.37,1.21,8.63,0.03,12.9-0.36c3.73-0.35,7.26,0.12,10.79,1.06c0.05,1.63-1.27,1.79-2.05,1.73
				c-7.28-0.58-13.16,3.51-19.61,5.68c-5.28,1.77-8.34,6.97-13.71,8.67c-1.44,0.45-2.84,1.66-4.06,0.33
				c-1.47-1.6,0.58-2.53,1.21-3.76c1.18-2.31,3.13-3.21,5.5-3.83c2.57-0.67,5.07-1.63,7.54-2.63c1.15-0.47,1.81-1.61,1.52-2.87
				c-0.34-1.49-1.64-1.48-2.82-1.27c-8.37,1.5-17.01,0.19-25.28,2.39c-4.22,1.12-7.74,3.67-10.88,6.67
				c-1.29,1.24-2.43,2.52-4.02,0.44c-2.67-3.48-6.68-4.13-10.59-5.02c-9.03-2.07-17.85-5.31-27.48-3.27
				c-2.94,0.62-6.25-0.53-9.4-0.85c-13.41-1.36-26.12,1.56-38.51,6.35c-2.78,1.08-5.87,1.17-8.52,2.74
				c-0.97,0.57-2.42,0.87-2.94-0.65c-0.4-1.17,0.78-1.67,1.61-2.18c3.5-2.16,7.76-2.86,11.81-6.03c-6.8-1.15-11.98,1.18-17.15,3.54
				c-2.87,1.31-5.69,2.75-8.6,3.97c-1.16,0.49-2.81,1.09-3.36-0.73c-0.44-1.45,1.04-1.95,2.1-2.31c5.35-1.81,10.18-5.03,15.87-5.94
				c1.54-0.24,3.16-0.61,3.12-2.54c-0.04-1.8-1.72-1.75-2.99-1.97c-6.58-1.11-13.02-1.25-19.76-0.2c-7.74,1.2-15.48,1.79-22.56,5.51
				c-0.88,0.46-2.11,0.48-2.64-0.61c-0.71-1.43,0.4-2.2,1.5-2.64c2.79-1.1,5.62-2.09,8.44-3.09c1.32-0.47,2.67-1.1,2.59-2.65
				c-0.1-1.69-1.83-2.08-3.02-2.03c-5.93,0.25-11.95,0.31-17.13,3.88c-1.03,0.71-1.82,2.11-3.41,0.91c0.25-2.88,5.88-1.99,4.35-5.57
				c-1.18-2.77-5.1-0.29-7.5-2.61c3.31-2.02,6.72-1.53,9.58-0.62c6.95,2.22,14.65,0.99,21.21,4.86c1.08,0.63,2.58,0.69,3.9,0.72
				c1.89,0.05,4.67,1.07,5.23-1.37c0.58-2.53-2.49-2.6-4.14-3.47c-9.03-4.78-19.05-6.93-28.53-10.51c-2.1-0.79-4.26-0.63-6.42-0.61
				c-1.82,0.01-3.97,0.49-5.32-0.81c-3.23-3.1-5.59-1.33-7.38,1.28c-10.08,14.63-21.31,28.46-29.76,44.24
				c-4.88,9.11-4.22,18.94-4.98,28.52c-0.65,8.16,2.08,16.14,4.24,23.98c1.82,6.62,1.03,13.27,1.01,19.88
				c-0.06,18.19,0.97,36.2,5.44,53.94c2.21,8.76,0.79,17.9,2.05,26.81c0.53,3.78,2.86,7.55,0.6,11.63
				c-0.67,1.21,0.55,2.41,1.73,3.26c1.62,1.16,3.14,2.45,4.67,3.73c0.82,0.68,1.32,1.58,0.77,2.63c-0.55,1.06-1.52,1.18-2.57,0.77
				c-1.67-0.65-3.76-3.01-4.74,0.34c-0.84,2.86-2.9,6.91,0.67,8.69c7.22,3.6,13.17,9.89,22.42,9.47c9.9-0.45,19.54,1.98,28.45,6.4
				c11.34,5.63,23.59,7.93,35.75,10.78c7.74,1.81,15.3,4.43,22.92,6.75c11.03,3.35,22.55,4.25,33.61,2.33
				c9.74-1.69,14.84-9.58,18-19.26c3.91-11.94,2.36-23.53-0.4-34.93c-3.33-13.71-4.63-27.46-5.26-41.47
				c-0.94-20.81-7.21-40.17-17.86-58.09c-0.75-1.27-1.32-2.66-1.88-4.04c-0.55-1.35-0.68-2.95-2.67-3.73
				c-0.63,2.01-0.22,3.94,0.38,5.68c1.88,5.46,0.4,10.69-1.57,15.56c-3.86,9.56-9.14,18.35-15.78,26.34
				c-3.22,3.88-7.12,6.89-10.87,10.6c-0.69-1.73,0.49-2.36,1.17-3.03c10.78-10.57,18.18-23.08,22.66-37.53
				c1.6-5.17,2.93-10,2.02-15.48c-0.69-4.14-2.85-4.52-5.96-3.37c-4.24,1.57-8.28,3.5-10.68,7.75c-0.6,1.06-1.81,2.27-3.29,0.98
				c-1.06-0.92-0.76-2.07-0.09-3.17c0.65-1.04,2.25-2.05,0.81-3.39c-1.23-1.14-2.85-0.62-4.27-0.08c-7.14,2.73-14.27,5.5-21.41,8.23
				c-3.42,1.31-6.66,2.88-9.79,4.87c-3.95,2.51-8.4,3.84-13.26,3.76c-9.94-0.15-19.98,1.28-29.68-2.31
				c-2.49-0.92-5.25-0.7-7.93-0.38c-1.22,0.15-2.52-0.21-2.69-1.62c-0.21-1.72,1.11-2.4,2.56-2.31c3.32,0.21,6.71,0.25,9.91,1.02
				c9.51,2.27,19.22,1.73,28.83,2.49c1.49,0.12,3.38,0.08,3.5-1.89c0.14-2.15-1.95-1.92-3.31-2.11
				c-11.66-1.65-21.69-7.05-31.37-13.36c-1.65-1.08-3.5-2.2-5.39-2.5c-8.92-1.41-14.42-8.4-22.11-12.74
				c2.95-0.35,7.21,1.02,11.42,4.07c3.87,2.81,7.96,4.76,12.7,5.46c1.44,0.21,3.09,0.65,4.15,1.56c6.78,5.77,15.19,8.4,23.22,11.37
				c6.53,2.41,13.69,3.07,20.97,1.33c4.08-0.98,8.47-1.04,12.64-2.04c1.45-0.35,2.9-0.77,4.29-1.33c1.2-0.48,2.79-0.97,2.51-2.65
				c-0.29-1.73-1.94-1.59-3.23-1.55c-3.33,0.11-6.65,0.33-9.97,0.48c-1.59,0.07-3.83,0.73-4-1.59c-0.14-1.95,2.05-1.77,3.47-1.94
				c10.5-1.26,20.93,0.37,31.39,0.8c10.71,0.44,20.42-3.92,30.36-7.08c0.8-0.26,1.52-0.88,1.32-1.85c-0.25-1.21-1.38-1.25-2.35-1.46
				c-4.66-1.04-9.27,0.01-13.92,0.17c-2.67,0.09-7.18,1.84-7.66-1.43c-0.31-2.08,4.81-1.78,7.45-1.71
				c15.8,0.4,31.59,1.07,47.39,1.66c1.8,0.07,4.16,0.7,4.7-1.57c0.61-2.56-2.12-2.44-3.64-3.16c-3-1.43-6.05-2.77-9.05-4.2
				c-1.16-0.55-2.85-1.1-2.04-2.8c0.72-1.51,2.29-1.06,3.53-0.49c5.15,2.33,10.38,4.52,15.36,7.17c2.56,1.36,4.64,1.48,6.95-0.08
				c2.5-1.69,3.67-4.18,2.72-6.93c-1.79-5.14-2.45-10.57-5.26-15.49c-2.97-5.19-3.7-11.27-4.02-17.27
				c-0.05-0.98-0.02-2.08,0.87-2.73c0.8-0.59,1.49-0.08,2.21,0.43c5.4,3.81,7.49,3.99,13.35-0.53c2.56-1.98,4.55-1.32,6.89-0.51
				c1.22,0.42,2.4,1.52,1.37,2.57c-2.96,2.99-0.44,4.22,1.27,6.26c1.98,2.37,2.76,6.02,5.64,7.35c3.54,1.63,4.9-3.53,8.24-3.6
				c0.92-0.02,1.78-0.92,2.73-1.16c1.72-0.44,4.09-1.42,4.75,0.86c0.52,1.82-2.01,1.67-3.27,2.26c-1.51,0.71-2.95,1.66-4.54,2.05
				c-2.86,0.71-4.51,2.52-4.43,5.25c0.08,2.54,2.83,3.45,4.39,5.07c0.58,0.6,1.7,0.62,2.27-0.11c4.57-5.88,9.88-3.5,14.99-1.19
				c1.71,0.77,2.96,1.95,4.84,0.52c0.7-0.53,1.83-0.19,2.24,0.52c3.66,6.37,7.99,2.55,11.96,0.65c1.35-0.65,2.1-0.09,3.18,0.02
				c1.8,0.18,3.8,0.48,5.4-0.11c1.81-0.66,5.39-0.62,4.86-2.98c-0.53-2.33-3.41-0.51-5.2-0.14c-1.41,0.29-2.66,0.6-3.4-0.97
				c-0.53-1.12-0.57-2.3,0.34-3.27c1.08-1.16,2.45-1.21,3.6-0.28c1.53,1.24,2.44,1.5,4.07-0.23c2.94-3.11,8.24-2.64,11.27,0.73
				c0.97,1.08,1.77,2.18,3.24,1.3c1.44-0.86,1.19-2.25,0.46-3.51c-0.95-1.64-1.32-3.62,0.67-4.2c2.57-0.74,1.36,1.88,1.85,3
				c0.9,2.07,2.02,1.56,2.76,0.06c2.63-5.32,7.28-7.15,12.72-8.41c12.44-2.87,24.65-6.99,37.72-5.38c1.68,0.21,3.34,0.08,4.7-1.15
				c1.89-1.71,3.56-2.93,5.63,0.08c1.04,1.5,3.15,0.72,3.72-0.72c1.05-2.63,4-3.53,4.94-6.11c0.59-1.61,1.82-1.72,3.27-1.31
				c1.61,0.45,2.43,1.31,2.65,3.12c0.94,7.84,1.73,8.6,9.44,8.77c4.65,0.11,9.33,0.04,13.71-1.95c5.85-2.66,12.66-1.13,18.4-4.07
				c9.44-4.84,20.43-4.05,29.95-8.5c1.43-0.67,3.76-0.77,3.24-3.03c-0.55-2.41-2.82-1.86-4.6-1.66c-1.98,0.23-3.98,0.51-5.91,0.99
				c-2.64,0.65-4.81,0.41-6.73-1.85c-1.67-1.98-3.96-1.99-6.24-1.22c-0.17,1.9,1.8,1.53,2.26,3.03c-4,2.24-7.85,4.59-12.76,1.8
				c-2.18-1.23-4.54-0.44-6.78,0.34c-1.8,0.63-3.63,1.75-6.17-0.34c4.67-0.54,7.98-4.83,12.8-1.81c0.76,0.48,2.25-0.08,3.36-0.35
				c0.94-0.23,2.15-0.59,2.09-1.79c-0.06-1.24-1.35-1.52-2.27-1.41c-9.48,1.12-19.33-2.53-28.54,2.16
				c-1.63,0.83-3.38,0.79-4.69-0.46c-3.65-3.5-7.85-2.47-11.75-1.18c-5.95,1.98-11.87,2.61-18.15,2.47
				c-14.92-0.33-29.86-0.1-44.79,0.04c-8.68,0.08-17.31-0.34-25.84-1.98c-2.89-0.56-5.67-0.18-8.38,0.65
				c-4.74,1.46-9.09,0.19-14.11-1.47c2.31-2.67,4.84-2.21,7.18-2.07c21.79,1.27,43.63,3.25,65.4,1.58
				c13.86-1.07,27.91-0.55,41.6-4.1c5.13-1.33,10.88-0.55,16.01-1.09c12.32-1.31,24.43,2.78,36.71-0.12
				c8.43-1.99,17.25,0.4,25.89-0.68c2.66-0.33,4.62,1.82,6.42,3.46c1.56,1.42,1.43,3.44-0.34,4.77c-1.93,1.44-2.97,0.36-3.56-1.64
				c-0.22-0.76-0.67-1.59-1.27-2.07c-1.07-0.86-2.48-1.35-3.68-0.38c-1.47,1.19-0.44,2.37,0.39,3.43c3.52,4.51,2.85,6.83-2.8,8.7
				c-2.99,0.99-6.1,1.68-9.2,2.3c-4,0.8-7.07,2.1-7.89,6.91c-0.75,4.36-3.75,6.57-8.47,5.26c-11.4-3.16-22.42-1.45-33.26,2.57
				c-2.12,0.79-4.29,0.25-6.42,0.4c-15.09,1.09-30.38,0.69-45.2,3.76c-11.18,2.32-21.84,7.07-33.26,8.66
				c-8.29,1.15-15.98,4.44-24.05,6.36c-8.89,2.12-17.9,4.32-26.82,5.37c-9.56,1.12-19.46,2.07-29.16,1.05
				c-5.91-0.62-11.58,0.96-17.4,0.51c-2.55-0.2-3.91,2.19-5.4,4.01c-6.46,7.9-15.09,10.98-25.01,10.92
				c-11.28-0.06-22.23,1.5-32.79,5.65c-3.63,1.43-4.71,3.24-3.4,7.25c2.04,6.26,5.46,11.81,8.56,17.44
				c9.13,16.58,11.69,34.67,12.27,53.01c0.35,11.12,2.06,21.76,4.9,32.42c2.36,8.86,3.27,18.04,3.66,27.18
				c0.29,6.82-4.19,12.6-5.33,19.13c-1.29,7.41-2.6,14.85-1.62,22.53c0.63,4.91,0.73,9.75,2.79,14.47c2.13,4.9,5.62,8.22,9.97,10.76
				c14.65,8.55,26.85,20.1,39.28,31.41c8.5,7.73,17.34,15.1,25.62,23.05c11.5,11.04,22.68,22.4,33.84,33.78
				c2.62,2.68,3.71,6.2,3.37,10.13c-0.41,4.69,0.1,9.27,2.13,13.64c3.63,7.83,3.8,16.49,5.62,24.75c1.29,5.85,2.42,11.73,4.28,17.42
				c0.92,2.81,1.09,4.3-2.58,5.32c-2.39,0.66-8.98,1.5-3.14,6.86c0.52,0.48,0.59,1.22-0.03,1.75c-0.6,0.51-1.22,0.24-1.8-0.14
				c-2.22-1.46-4.5-2.85-6.66-4.4c-2.51-1.81-4.89-1.47-6.6,0.79c-2.04,2.7,1.16,3.23,2.41,4.4c4.6,4.32,9.66,5.82,15.72,2.76
				c2.05-1.04,2.62,0.76,2.25,2.48c-0.62,2.85,0.46,3.41,2.88,2.34c1.36-0.6,2.75-0.9,3.39,0.73c1.14,2.92,2.72,5.93,1.83,9.11
				c-0.52,1.88-2.26,0.37-3.44,0.17c-1.34-0.22-2.41,0.25-2.97,1.35c-1.41,2.74-4.37,2.85-6.64,4.09c-2.48,1.36-3.5,0.43-3-2.22
				c0.32-1.7,0.12-3.33-1.74-3.47c-2.76-0.21-5.62,0.46-6.89-3.14c-0.23-0.65-1.76-0.24-1.99,0.62c-0.73,2.64-3.37,2.83-5.21,3.99
				c0.34,0.5,0.46,0.87,0.71,1c1.79,0.93,5.04-1.06,5.54,1.88c0.43,2.56-2.4,3.17-4.41,3.96c-0.88,0.34-1.54,1.32-0.87,1.93
				c3.43,3.11,1.01,5.19-1.09,7.41c-0.8,0.85-1.81,1.93-0.32,2.86c1.1,0.69,2.46,0.17,3.03-0.95c1.59-3.14,3.96-4.28,7.38-3.53
				c0.98,0.21,2.48-0.02,2.16-1.28c-1.61-6.46,4.05-3.95,6.48-5.31c0.74-0.41,1.9-0.06,2.96-0.06c0.09,2.09-1.74,2.48-2.47,3.68
				c-2.83,4.64-2.61,5.51,2.55,6.72c1.22,0.29,2.05,0.98,2.93,1.77c2.04,1.83,3.84,2.08,4.83-1.05c0.37-1.17,0.81-2.37,2.32-2
				c1.23,0.3,1.79,1.45,2.13,2.59c0.78,2.64,0.16,5.3-0.07,7.94c-0.14,1.6-1.37,1.69-2.62,1.16c-1.38-0.58-3-0.94-4.04-1.91
				c-7.02-6.5-15.04-2.46-22.67-2.28c-0.71,0.02-1.66,0.62-2.07,1.24c-2.1,3.11-4.95,3.58-8.35,2.84c-0.92-0.2-2.02-0.14-2.81,1.26
				c2.16,2.35,6.84,1.92,7.36,6.72c0.18,1.65,3.65,0.13,5.31-0.64c3.96-1.84,7.84-1.88,12.61-0.77c-2.3,2.74-4.68,2.08-6.86,2.12
				c-1.77,0.03-3.61,0.23-3.23,2.64c0.35,2.25,2.06,2.45,3.82,1.67c3.49-1.55,7.31-0.31,10.83-1.46c1.94-0.64,4.91-0.47,2.81-3.96
				c-0.51-0.85-0.23-1.59,0.49-2.19c0.54-0.45,9.27,2.46,9.49,3.15c0.62,1.99,0.12,6.49-1.02,9.12c-1.93-0.4-1.2-2.06-1.46-3.2
				c-0.4-1.76-1.41-2.4-2.82-1.27c-5.18,4.14-11.12,2.48-16.84,2.34c-2.12-0.05-4.9-1.14-5.23,1.97c-0.36,3.37,2.66,3.22,4.98,3.24
				c1.66,0.02,3.33-0.39,4.98-0.33c1.11,0.04,2.69,0.21,3.21,0.93c1.44,1.97,0.4,7.64,5.72,2.83c0.98-0.89,2.25,2.1,0.93,3.93
				c-0.72,1-2.49,1.94-0.87,3.21c1.14,0.89,2.49-0.29,3.62-0.98c1.83-1.12,2.4-5.06,5.18-3.48c2.1,1.2,0.04,3.99-0.05,6.06
				c-0.38,8.99-0.58,17.99,0.73,26.89c0.97,6.61,3.26,12.86,7.99,17.95c8.73,9.4,18.14,18.03,28.07,26.15
				c3.86,3.16,7.42,6.45,12.06,8.57c3.42,1.56,4.98,5.25,7.05,8.26c3.09,4.51,6.42,8.87,9.25,13.54c3.91,6.46,0.64,13.67-7.82,17.08
				c-4.81,1.94-10.03,2.42-15.2,2.67c-0.98,0.05-2.22,0-2.41-1.23c-0.26-1.68,1.21-1.84,2.31-1.85c4.02-0.04,7.94-0.58,11.82-1.7
				c3.34-0.97,6.04-2.73,8.09-5.52c0.81-1.11,1.6-2.31,0.43-3.58c-1.21-1.3-2.43-0.54-3.54,0.3c-0.8,0.6-1.52,1.31-2.32,1.89
				c-2.01,1.46-3.94,2.06-5.25-0.84c-0.54-1.2-1.35-2.15-2.66-1.53c-1.38,0.66-0.34,1.61,0.1,2.44c1.35,2.54-0.29,3.38-2.3,3.7
				c-3.33,0.53-5.54-1.04-6.28-4.25c-0.49-2.12-0.01-3.26,2.9-2.95c2.55,0.27,4.63-1.94,5.22-4.43c0.58-2.47,0.19-5.05-2.7-6.29
				c-1.24-0.53-2.57-1.1-2.43-2.76c0.08-0.93,0.86-1.37,1.76-1.44c1.64-0.13,3.15,0.32,3.63,1.98c0.79,2.71,2.54,3.83,4.79,2.31
				c2.74-1.86,0.5-3.76-0.74-5.42c-3.11-4.16-5.39-8.61-12.05-9.05c-4.29-0.29-6.03-6.22-9.33-9.22c-0.23-0.21-0.27-0.7-0.52-0.84
				c-5.23-2.84-9.42-6.78-13.14-11.43c-1.34-1.67-3.76-0.2-5.67,0.31c-1.28,0.34-2.81,0.75-3.63-0.65c-0.87-1.51,0.78-1.88,1.6-2.58
				c2.25-1.9,0.79-3-0.8-4.26c-2.8-2.22-5.83-4.14-4.91-8.77c0.47-2.34-7.86-10.17-10.37-10c-4.71,0.34-4.32-3.8-5.04-6.1
				c-0.83-2.65,2.36-2.5,4.16-2.99c1.44-0.39,3.1-0.42,3.63-2.15c0.14-0.47-0.21-1.44-0.62-1.67c-1.5-0.84-3.01-0.12-4.23,0.66
				c-4.22,2.74-7.41,6.09-8.76,11.36c-0.87,3.4-3.9,6.03-7.3,7.52c-2.22,0.97-3.14,2.26-2.62,4.62c0.79,3.55-1.13,7.33,0.9,10.81
				c0.43,0.74,0.42,2.03-0.59,1.98c-4.31-0.18-5.42,3.78-8.53,6.76c-0.21-4.38,1.21-7.48,2.76-10.27c1.34-2.41,1.43-4.6,1.14-7.15
				c-1.57-13.65-6.23-26.4-11.3-39.03c-1.6-3.99-2.15-8.32-4.67-12.07c-1.73-2.58,0.61-2.43,2.41-2.22c3.21,0.36,6.4,1.55,8.41-2.87
				c2.13-4.68,1.58-9.02-3.08-11.37c-2.78-1.4-4.38-3.25-5.42-6.08c-2.02-5.49-6.6-7.97-12.01-6.91c-1.85,0.36-1.5,1.58-1.08,2.64
				c2.04,5.08,3.95,10.22,7.45,14.58c1.21,1.5,2.38,1.57,3.88,0.71c1.73-0.99,3.52-0.98,5.26-0.08c1.57,0.82,1.89,2.24,1.54,3.84
				c-0.35,1.61-1.52,2.07-3.01,1.92c-4.63-0.46-8.18-2.02-10.98-6.39c-5.58-8.68-10.16-17.97-15.88-26.49
				c-4.32-6.45-7.38-12.88-7.73-20.59c-0.04-0.82-0.09-1.65-0.04-2.47c0.02-0.25,0.39-0.48,0.84-1c2.45,2.39,5.41,4.17,4.06,8.56
				c-0.97,3.16,1.86,4.78,3.81,6.44c1.19,1.01,2.75-0.31,2.32-1.33c-1.49-3.48,0.28-7.55-3.42-10.85c-4.8-4.29-7.81-9.83-6.9-17.14
				c1.07-8.62-3.05-16.2-6.93-23.57c-1.84-3.48-4.49-2.1-7.23-0.6c-9.56,5.25-19.54,9.17-30.68,9.36
				c-6.82,0.12-11.64-3.19-15.72-8.21c-5.73-7.07-12.22-7.98-19.63-2.84c-3.97,2.75-7.97,5.48-12.41,7.45
				c-3.94,1.75-6.91,0.05-6.57-4.17c0.51-6.36-0.71-12.63-0.44-18.96c0.11-2.42-0.77-4.35-3.08-5.19
				c-4.54-1.64-8.22-5.16-13.15-5.96c-1.29-0.21-2.93-0.69-3.05-2.17c-0.13-1.73,1.73-1.73,2.91-2.12c3.55-1.18,7.28-3.58,8.81,2.78
				c0.59,2.47,3.62,3.61,6.2,3.27c2.73-0.37,2.16-3.07,2.2-4.91c0.21-9.32,0.27-18.65,0.36-27.97c0.01-1.5,0.1-3.2-1.7-3.76
				c-1.81-0.57-2.71,0.82-3.47,2.16c-3.14,5.5-7.88,9.71-10.31,16.06c-2.2,5.74-8.81,8.72-15.39,9.73c0.67-3.1,3.06-4.62,5.55-6.06
				c2.16-1.25,4.45-2.31,6.09-4.29c5.92-7.13,10.17-15.5,16.44-22.38c0.79-0.87,0.66-1.87,0.21-2.8c-1.81-3.7-1.08-7.44-0.42-11.26
				c0.39-2.29,0.69-4.73-0.49-7.32c-0.68,0.74-1.09,1.06-1.33,1.47c-0.57,1.01-1.1,2.05-1.58,3.11
				c-7.27,15.78-16.21,30.51-27.53,43.74c-1.26,1.47-3.52,2.92-2.29,5.02C1035.72,779.32,1038.11,778.28,1040.04,777.92z
				 M1024.3,777.37l-0.1-0.12c0.75,3.44,2.61,1.7,3.95,0.68c3.72-2.84,6.65-6.56,9.27-10.32c10.92-15.69,21.01-31.88,28.02-49.79
				c0.4-1.02,1.03-1.68,2.13-1.84c4.89-0.72,5.53-4.01,4.96-8.1c-0.34-2.47-1.03-5.28,1.35-6.98c3.87-2.77,3.64-6.83,4.05-10.75
				c0.24-2.32-0.08-4.82-2.91-4.83c-3.27-0.01-2.73,2.47-2.22,4.75c0.3,1.36,0.77,3.43-1.49,3.39c-1.71-0.04-1.67-1.77-1.26-3.15
				c1.02-3.42-0.86-4.15-3.68-4.03c-1.66,0.07-3.34,0.35-4.98,0.18c-4.16-0.43-5.9,1.07-5.25,5.41c0.26,1.74-0.23,3.64-0.59,5.43
				c-3.72,18.49-13.99,34.47-19.99,52.09c-0.33,0.97-0.99,2.27-2.8,1.28c0.08-0.57,0.09-1.21,0.27-1.79
				c6.13-19.68,16.42-37.91,20.07-58.47c0.91-5.14,1.02-5.34-7.55-7.85c-4.31-1.26-4.79,1.53-5.4,4.42
				c-2.04,9.55-3.28,19.13-8.26,28.04c-7.46,13.32-13.38,27.49-20.51,41c-6.7,12.71-15.42,24.2-25.45,34.41
				c-8.11,8.25-17.11,15.65-26.36,22.78c-8.42,6.49-16.97,12.79-25.49,19.13c-2.7,2-4.81,4.82-8.44,5.56
				c5.09-4.86,10.37-9.53,16.07-13.62c10.26-7.37,20.17-15.1,29.56-23.59c13.2-11.93,24.98-25.06,33.69-40.52
				c9.06-16.07,17.3-32.61,25.42-49.18c3.75-7.64,4.84-16.24,6.69-24.53c0.85-3.83-1.17-5.95-4.53-7.22
				c-3.47-1.31-4.85,0.57-5.78,3.52c-0.34,1.07-1.21,1.97-1.8,2.96c-4.07,6.87-8.23,13.69-12.15,20.65
				c-2.25,3.99-1.71,9.25-5.6,12.56c-1.03,0.88-1.54,3.3-3.26,1.97c-1.42-1.1,0.13-2.68,0.85-3.95
				c5.97-10.36,10.57-21.46,17.08-31.55c2.58-3.99-0.15-9.49-4.79-10.77c-10.45-2.88-20.66-6.31-30.15-11.74
				c-7.8-4.46-15.83-8.51-23.75-12.76c-2.45-1.32-5.13-2.66-7.22,0.05c-5.47,7.09-13.03,11.86-19.41,17.92
				c-3.13,2.98-5.93,6.65-11.02,8.28c9.18-9.32,17.8-18.22,26.61-26.92c1.89-1.87,3.85-3.52,0.78-5.4
				c-4.49-2.75-7.92-6.59-11.76-10.03c-1.45-1.29-2.99-2.41-4.91-1.29c-3.28,1.92-6.89,3.38-9.2,6.69c-5.26,7.54-9,15.91-13.05,24.1
				c-4.93,9.98-8.98,20.48-14.79,29.91c-5.56,9.04-8.28,18.36-8.3,28.75c-0.01,2.98,1.41,3.67,3.74,2.13
				c2.35-1.55,4.36-3.63,6.73-5.14c8.82-5.64,18.11-10.62,25.53-18.22c0.99-1.01,2.32-2.82,3.69-1.38c1.67,1.77-0.55,2.72-1.66,3.85
				c-9.55,9.74-21.7,15.93-32.66,23.72c-5.47,3.89-10.05,9.01-12.38,14.53c-3.71,8.77-5.4,18.52-7.01,28.01
				c-1.13,6.66-3.56,12.43-7.47,17.7c-1.48,1.99-2.69,3.96-3.01,6.28c1.53,0.85,2.53-1.3,3.85-0.1c-1.27,2.38-2.67,4.36-4.46,6.18
				c-5.74,5.82-10.77,12.08-14.25,19.69c-4.68,10.22-8.75,20.87-16.64,29.35c-2.18,2.34,0.03,3.93,1.75,5.25
				c5.03,3.84,10.14,7.56,15.15,11.42c3.12,2.4,7.06,2.93,10.13,6c9.32,9.32,19.5,17.77,32.51,21.62c8.11,2.4,16.66,3.58,24.47,6.67
				c10.27,4.07,20.99,4.87,31.62,6.72c4.84,0.84,7.55-1.05,9.72-4.94c3.23-5.81,6.15-11.87,10.01-17.24
				c10.62-14.78,17.58-31.27,23.47-48.29c3.81-11,6.41-22.41,11.92-32.82c1.96-3.69,3.22-7.85,2.81-13.54
				c-5.58,6.68-10.38,12.42-14.53,18.82c-4.1,6.32-10.21,10.95-15.81,15.9c-5.58,4.93-11.58,9.38-17.4,14.04
				c-0.39-0.4-0.77-0.8-1.16-1.2c27.36-21.37,46.58-49.71,67.04-77.09c-0.64,4.56-2.41,8.56-4.89,12.3
				C1019.62,775.56,1020.32,777.32,1024.3,777.37z M1177.91,783.26c-1.01,0.94-1.4,1.5-1.94,1.76c-11.95,5.95-24.64,8.95-37.95,9.28
				c-8.29,0.21-11.53,3.89-10.18,12.23c0.33,2.03-0.18,3.23-1.87,4.07c-2.22,1.1-4.29,2.58-6.98,2.46
				c-1.43-0.06-3.43-0.43-3.75,1.49c-0.33,2.03,1.65,2.71,3.2,3.24c1.4,0.49,2.89,0.79,4.37,0.97c10.34,1.31,19.16-3.26,27.92-7.62
				c10.7-5.32,21.22-11.01,31.83-16.51c2.15-1.11,4.51-1.08,6.85-0.81c0.98,0.12,2.41,0.56,1.71,1.74
				c-1.04,1.77-1.84,4.19-4.37,4.37c-8.24,0.61-14.13,5.64-21.13,10.53c5.39,0.51,9.8,1.42,14.25-0.39
				c-0.99-1.79-3.38-0.16-3.96-2.97c2.88,0.28,4.61-2.22,7.07-2.76c1.82-0.4,5.85-2.89,4.55,2.88c-0.75,3.31,2.28,3.44,3.71,2.1
				c4.2-3.93,10.59-3,14.59-7.13c0.81-0.84,2.16-1,3.21-0.09c1.04,0.9,1.01,2.16,0.42,3.21c-1.43,2.56-2.51,5.83-6.67,3.69
				c-1.76-0.91-3.82-0.31-4,1.57c-0.53,5.61-3.96,4.28-7.17,3.3c-4.57-1.38-8.77-0.42-13.06,1.78c4.56-0.93,8.07,2.44,12.32,2.41
				c0.99-0.01,2.24-0.25,2.38,1.07c0.13,1.22-0.98,1.56-2.05,1.66c-0.99,0.09-2.15,0.05-2.01,1.54c0.1,1.11,0.87,2,1.84,2.14
				c2.79,0.39,4.66,2.49,7.08,3.48c3.05,1.24,6.12,2.91,9.58,2.38c7.29-1.1,12.95-5.77,19.17-9.16c2.44-1.33,2.12-3.97,1.74-6.31
				c-0.97-5.92-2.1-11.81-2.99-17.74c-0.73-4.86-0.76-9.71-3.34-14.31c-1.42-2.53-2.67-5.74-2.18-9.09
				c0.23-1.61,2.73-3.52,0.25-4.78c-1.98-1.01-3.7,1-5.19,2.23c-1.66,1.37-3.11,3-4.6,4.57c-2.15,2.27-4.73,3.56-8.37,4.28
				c2.92-4.38,6.49-7.15,9.67-10.27c6.32-6.22,6.44-8.52,0.27-14.47c-5.15-4.96-10.47-9.75-15.65-14.68
				c-4.82-4.59-8.7-10.06-13.76-14.47c-8.9-7.76-17.79-15.55-26.39-23.64c-10.92-10.28-22.41-19.87-34.26-29.04
				c-0.96-0.75-1.94-1.51-3.11-0.64c-1.14,0.85-1.02,2.15-0.32,3.15c3.58,5.09,4.65,11.34,7.92,16.63
				c3.15,5.09,5.67,10.62,6.79,17.15c-2.68-0.62-3.51-2.28-4.3-3.88c-4.36-8.79-8.75-17.56-12.98-26.42
				c-4.58-9.6-8.99-19.29-13.46-28.94c-2.06-4.44-6.7-3.9-10.26-4.77c-2.76-0.68-4.35,2.58-5.5,5c-1.49,3.12,0.09,6.04,1.5,8.54
				c3.62,6.43,5.73,13.48,8.8,20.13c1.19,2.58,2.83,5.42,1.85,8.89c-2.51-1.28-3.04-3.48-4.14-5.27c-4.28-7-5.76-15.27-10.14-22.2
				c-1.83-2.9-3.83-6.61-2-9.12c2.89-3.98,6.37-8.9,11.86-8.88c4.75,0.01,7.45-2.16,10.11-5.19c1.28-1.46,3.17-3.15,1.14-5.12
				c-1.66-1.6-3.52-0.35-4.9,0.87c-4.8,4.27-10.56,4.38-16.43,3.92c-3-0.24-5.98-0.64-8.96-0.1c-0.98,0.18-2.77,0.22-1.75,2.04
				c0.65,1.15,2.29,2.42-0.43,2.49c-1.83,0.05-5.17,0.59-5.14-1.89c0.05-3.6-2.35-3.23-4.16-3.6c-2.59-0.53-5.24-0.62-7.83-1.44
				c-8.71-2.77-17.48-5.36-26.36-7.59c-12.24-3.08-24.33-6.46-36.06-11.47c-6.13-2.62-13.42-7.69-20.79-1.45
				c-0.38,0.32-1.74-0.04-2.32-0.5c-2.71-2.15-6.39-1.82-9.19-3.74c-0.78-0.54-2.09-1.03-2.72-0.03c-0.82,1.31,0.45,2.1,1.4,2.73
				c2.76,1.83,5.49,3.74,8.37,5.37c7.01,3.97,15.06,5.16,22.47,8.19c22.62,9.23,45.14,18.93,69.72,22c1.4,0.17,3.68,0.15,3.32,2.05
				c-0.37,1.94-2.47,0.83-3.87,0.72c-15.45-1.19-29.91-6.22-44.35-11.38c-7.65-2.73-15.18-6-23.63-5.65
				c-6.07,0.25-11.89-1.18-17.49-3.57c-5.66-2.42-11.29-4.88-16.68-7.91c-2.57-1.45-5.21-3.4-9.52-3.19c2.1,2.8,3.3,5.39,5.74,6.88
				c10.91,6.72,21.73,13.55,33.99,17.82c4.1,1.43,9.33,1.53,12,5.33c2.19,3.11,4.83,5.38,8.09,6.23
				c20.06,5.22,39.25,14.07,60.26,15.24c5.36,0.3,6.65,2.84,7.62,7.27c-3.66-0.71-4.62-5.26-8.04-5.04
				c-11.89,0.75-22.97-2.47-34.06-6.15c-6.93-2.3-14.27-3.37-21.18-5.72c-6.89-2.34-14.04-4.73-18.87-10.7
				c-1.7-2.1-3.55-3.09-6.07-3.86c-15.38-4.67-30.22-10.39-41.25-22.97c-2.03-2.32-3.96-1.29-5.02,1.14
				c-1.06,2.43-0.17,4.62,1.74,6.3c3.12,2.75,6.17,5.62,9.54,8.04c10.19,7.32,21.9,11.93,32.68,18.16
				c19.3,11.16,41.08,15.06,61.68,22.37c0.68,0.24,1.81,0.12,2.35-0.31c1.13-0.91,0.09-1.71-0.51-2.47
				c-0.48-0.61-1.31-1.19-0.29-2.09c5.75,3.21,12.61,1.5,19.85,4.12c-4.77,1.36-8.24-0.5-11.65,0.33c-0.97,0.24-2.09,0.39-2.24,1.6
				c-0.15,1.28,0.9,1.72,1.89,1.88c6.06,1,12.15,2.65,18.22,0.25c3.77-1.49,5.6-0.77,5.73,3.67c0.19,6.48-1.49,12.54-3.62,18.47
				c-3.22,8.95-5.64,18.04-6.39,27.55c-0.26,3.29-0.2,7.13,2.02,9c6,5.04,8.39,12.33,12.79,18.32c1.73,2.35,3.7,4.42,6.9,4.31
				c9.48-0.34,18.96-0.73,28.43-1.16c1.48-0.07,3.22-0.22,3.39-2.2c0.17-1.89-1.3-2.51-2.83-2.9c-4.55-1.16-9.21-1.8-13.86-1.32
				c-9.35,0.97-9.44,0.99-10.34-8.77c-0.51-5.54-1.93-10.38-8.1-12.51c-3.7-1.28-4.93-5.04-5.26-8.52
				c-0.63-6.62-0.74-13.3-0.98-19.96c-0.04-1.23-0.29-3.09,1.59-3.03c1.43,0.04,1.42,1.69,1.31,2.83
				c-0.56,5.54,1.12,10.92,1.18,16.41c0.03,2.7,0.62,5.3,2.33,7.52c0.82,1.07,1.71,2.25,3.24,1.88c1.58-0.38,1.71-1.84,1.82-3.2
				c0.85-10.54-0.7-20.69-4.72-30.49c-3.89-9.5-9.44-18.37-10.97-28.78c-0.33-2.26-2.11-3.22-4.1-3.92
				c-6.59-2.31-13.08-5.05-20.19-5.3c-6.32-0.22-12.07-2.39-17.64-5.05c-2.37-1.13-6.83-2.15-5.3-5.21c1.53-3.05,4.8,0.28,6.68,1.55
				c6.1,4.08,12.37,7.1,19.93,6.91c4.55-0.11,8.9,1.26,13.15,2.75c2.61,0.92,5,1.75,7.43-0.47c1.2-1.09,2.46-1.12,2.69,1.04
				c0.99,9.61,5.28,18.11,9.05,26.78c3.19,7.33,7.02,14.63,7.34,22.69c0.49,12.28,0.54,24.55,2.53,36.72
				c0.66,4.04,2.52,5.54,6.48,4.64c5.16-1.17,10.26-0.53,15.35,0.6c7.24,1.6,13.16-1.74,15.77-8.65c1.55-4.11,1.2-8.15,0.08-12.26
				c-1.02-3.76-2.37-7.52-1.51-11.92c1.71,0.85,2.14,2.07,2.25,3.39c0.33,3.86,1.63,7.44,2.78,11.1c1.56,4.99,0.71,9.89-2.14,14.34
				c-0.54,0.84-1.29,1.53-1.82,2.38c-0.71,1.14-1.43,2.44-0.58,3.73c0.96,1.45,2.35,0.67,3.63,0.37c1.87-0.44,3.67-1.68,6.18-0.43
				c-4.07,2.76-8.71,1.28-12.68,2.71c-2.78,1-6.74,1.07-6.63,4.85c0.14,4.7,0.23,9.64,2.75,13.92c0.36,0.61,1.79,0.83,2.72,0.83
				c7.89,0.02,15.57-0.94,22.96-4.06c5.88-2.48,11.96-4.47,18.31-6.82c-0.55,2.87-2.37,3.89-4.16,4.52
				c-11.56,4.09-22.67,9.86-35.44,9.49c-2.35-0.07-5.11-0.01-4.51,3.59c0.5,3.01,0.42,6.65,5.26,6.25
				c12.07-0.98,24.27-1.11,35.55-6.48C1172.78,783.85,1174.73,782.71,1177.91,783.26z M925.49,493.47c1.31,0.79,2.06,1.13,2.67,1.63
				c1.71,1.41,2.91,4.08,5.79,2.72c2.97-1.4,1.84-4.24,2.09-6.63c1.33-12.99-1.85-25.43-4.52-37.93c-0.37-1.73-0.16-4.1-2.53-4.31
				c-2.37-0.21-3.63,1.93-4.02,3.8c-1.2,5.86-3.35,11.45-4.22,17.43c-0.8,5.44-0.36,11.69-5.09,15.71
				c-3.94,3.36-4.84,7.4-4.28,12.07c0.34,2.84-0.68,4.95-2.1,7.38c-4.45,7.59-8.47,15.42-12.52,23.23c-1.01,1.94-0.86,3.91,2.14,3.3
				c7.77-1.6,14.81,0.62,21.69,3.82c3.35,1.55,6.75,2.76,10.52,2.88c1.54,0.05,4.05-0.17,4.11,1.84c0.06,2.12-2.26,2.5-4.16,2.65
				c-7.73,0.59-14.67-2.66-21.74-4.88c-4.4-1.38-14.31-0.08-14.67,3.45c-0.59,5.72-2.6,10.82-4.31,16.17
				c-1.86,5.82,4.75,4.33,7.17,5.94c1.65,1.09,0.42-2.81,0.51-4.46c0.06-1.05,0.23-2.14,1.41-2.33c1.42-0.23,1.42,0.99,1.62,1.96
				c0.4,1.95,0.76,3.91,1.32,5.82c0.45,1.54,0.74,3.06,3.15,3.09c4.57,0.05,8.25,2.81,12.03,4.97c1.09,0.62,1.08,3.24,2.95,2.8
				c2.16-0.51,1.38-2.66,1.49-4.24c0.05-0.71-0.3-1.74,1.29-1.83c0.39,2.09,0.6,4.23,1.22,6.24c0.57,1.83,1.18,4.35,3.86,3.57
				c2-0.58,2.89,0.27,4.3,1.29c7.62,5.47,10.06,4.41,11.44-4.79c0.2-1.31,0.31-2.68,0.14-3.98c-1.79-13.59-2.68-27.27-4.86-40.83
				c-1.06-6.6-3.49-13.05-2.68-20.04c0.64-5.53-1.24-10.14-7.43-11.89C927.14,498.51,925.54,496.95,925.49,493.47z M845.79,899.08
				c5.32,5.3,10.42,10.72,18.27,3.53c-3.76-2.11-7.11-4.78-10.15-9.23c4.04,0.7,5.12,3.28,7,4.82c1.58,1.3,3.39,3.1,5.14,1.11
				c2.08-2.37-0.7-3.34-2.17-4.44c-1.46-1.1-3.25-1.84-4.52-3.11c-1.72-1.72-4.4-2.93-4.52-6.59c3.2,1.36,4.88,3.76,7.12,5.37
				c0.69,0.5,1.45,1.04,2.27,0.55c1.08-0.64,0.83-1.7,0.44-2.65c-0.68-1.67-2.5-3.18-1.86-5.02c1.9-5.47-2.06-7.56-5.46-9.81
				c-7.51-4.95-15.13-9.71-21.44-16.23c-2.52-2.6-4.54-2.47-7.66-0.15c-7.4,5.51-12.76,13.08-20.02,18.72
				c-6.16,4.78-11.87,10.16-17.67,15.39c-3.01,2.71-4.35,5.86-1.63,9.7c0.75,1.06,0.85,2.57,1.6,3.62
				c5.65,7.86,9.52,17.89,21.61,18.05c0.63,0.01,1.27,0.37,1.87,0.64c2.02,0.93,3.89,4.74,5.53,3.12c2.34-2.32-2.48-3.85-2.87-7.65
				c2.81,2.94,4.81,5.2,7,7.26c1.23,1.17,3.1,2.08,4.42,0.68c0.97-1.03-0.26-2.48-1.2-3.44c-1.97-2.01-4.21-3.8-5.93-5.99
				c-1.95-2.48-4.41-4.82-5.47-9.1c3.14,1.85,3.12,4.66,4.91,5.77c1.83,1.13,3.4,7.38,6.41,0.71c0.66-1.47,2.35-0.09,3.38,0.71
				c4.9,3.79,9.86,3.86,15.14,0.33c-1.38-2.45-4.96-3.53-4.51-6.98c1.31-0.29,1.86,0.4,2.55,0.85c1.69,1.1,3.01,4.92,4.68,3.29
				c2.13-2.08-1.88-3.45-2.75-5.38c-0.07-0.15,0.22-0.45,0.4-0.79c1.45,1.14,2.82,2.36,4.34,3.36c1.25,0.82,2.87,1.67,3.83-0.24
				c0.81-1.62-0.68-2.24-1.85-2.95C849.1,905.12,847.14,902.48,845.79,899.08z M1099.21,782.76c-1.17,5.59,2.22,7.12,6.31,7.97
				c2.51,0.52,5.01-0.08,7.42-0.63c3.59-0.82,4.27-2.99,1.55-5.59c-3.14-3-3.25-6.78-3.58-10.56c-0.11-1.31,0.21-2.92,1.93-2.96
				c1.52-0.03,1.57,1.54,1.73,2.62c0.53,3.47,1.08,6.94,2.52,10.15c1.51,3.38,4.59,3.73,7.62,2.87c2.98-0.84,2.56-3.32,2.07-5.78
				c-0.58-2.93-0.95-5.91-1.25-8.88c-0.33-3.3-1.68-5.2-5.34-5.09c-8.93,0.26-17.87,0.33-26.8,0.53c-4.9,0.11-6.32,2.97-5.41,7.35
				c1.72,8.26,3.37,16.54,5.36,24.74c1,4.13,3.14,7.36,8.39,6.57c1.39-0.21,2.98,0.29,4.37,0.78c12.16,4.3,16.67,1.91,19.69-10.5
				c0.52-2.12,1.35-4.36-0.68-6.03c-2.09-1.73-4.19-0.24-6.04,0.69c-5.58,2.83-11.36,3.59-17.47,2.39
				c-2.39-0.47-4.87-1.23-5.42-3.77c-1.03-4.7-1.6-9.51-2.26-14.28c-0.17-1.22,0.31-2.42,1.71-2.64c1.43-0.23,2.1,0.73,2.32,2.03
				C1098.39,777.52,1098.82,780.31,1099.21,782.76z M1084.13,768.23c0.5-1.64-0.09-2.98-0.88-4.29c-1.8-2.99-3.55-6-5.32-9.01
				c-0.65-1.1-1.03-2.91-2.63-2.51c-1.62,0.4-1.14,2.17-1.13,3.45c0.07,5.97,0.59,11.97,0.21,17.91c-0.77,11.77-2.08,23.5,0.62,35.2
				c0.37,1.61,0.84,3.24-0.22,4.82c-0.58,0.86-0.97,1.83,0.04,2.66c0.95,0.78,1.9,0.4,2.7-0.28c3.69-3.15,7.89-5.51,12.18-7.71
				c2.38-1.22,2.17-3.07,1.21-5.08C1085.58,792.22,1085.65,780.08,1084.13,768.23z M765.86,1073.98c0.63-0.07,2.29-0.16,3.93-0.43
				c1.22-0.2,2.27-0.81,2-2.32c-0.23-1.31-1.24-1.95-2.46-2.15c-1.41-0.23-2.65,0.4-3.69,1.24c-2.21,1.77-4.4,1.81-6.97,0.7
				c-1.63-0.7-3.59-0.6-5.34-1.09c-9.21-2.62-18.82-3.91-27.54-8.11c-1.82-0.87-3.46-1.95-5.55-1.9c-2.67,0.06-6.73-3.26-7.61,1.01
				c-0.71,3.41,3.8,4.47,6.74,5.29C734.25,1070.37,749.3,1073.57,765.86,1073.98z M784.36,1089.74c-2.19-1.36-3.51-2.41-5-3.04
				c-1.37-0.57-2.8-0.4-2.48,1.71c0.38,2.52,6.56,7.8,9.1,7.87c3.26,0.1,10.23-4.16,11.06-6.75c0.49-1.53,0.32-3.1-0.58-4.3
				c-3.6-4.81-7.95-8.91-12.75-12.51c-1.11-0.83-2.51-0.93-3.82-0.45c-1.22,0.44-2.95,0.66-3.08,2.15
				c-0.17,1.95,1.76,1.48,2.92,1.83c4.73,1.42,11.01,8.41,10.95,12.27c-2.23-0.19-3.26-2.11-4.81-3.27
				c-2.02-1.51-4.42-5.59-6.16-3.67c-2.39,2.63,2.18,4.27,3.66,6.39C783.55,1088.24,783.69,1088.54,784.36,1089.74z M1147.75,435.52
				c-0.75-6.2,3.11-8.34,7.22-10.1c1.92-0.83,5.35,0.51,5.21-3.06c-0.11-2.95-3.36-3.84-5.29-5.5c-0.63-0.54-2.22-0.08-3.34,0.09
				c-2.63,0.38-5.22,1.1-7.9,0.32c-4.17-1.21-4.32,0.79-3.81,4.23C1140.67,427.13,1147.41,429.21,1147.75,435.52z M1081.34,317.33
				c0.09-0.64,0.25-1.13,0.23-1.62c-0.15-3.22-0.34-6.28-4.57-7.03c-4.28-0.75-6.6,0.81-7.57,5c-0.79,3.42-2.6,6.43-4.34,9.47
				c-0.76,1.33-2.56,3.02-0.86,4.37c1.88,1.49,3.43-0.46,4.5-1.83c2.33-2.98,5.42-4.74,9.01-4.29
				C1081.72,321.91,1082.76,320.84,1081.34,317.33z M708.72,1080.76c0.7-1.33,0.36-1.95-0.12-2.38c-3.47-3.08-6.83-6.31-10.52-9.12
				c-6.74-5.14-5.74-4.1-3.54-12.4c0.37-1.41,2.59-2.89-0.18-3.92c-1.9-0.7-3.79-0.05-4.54,1.95c-1.16,3.1-2.22,6.27-2.96,9.49
				c-1.27,5.48,1.31,9.01,7.52,10.33c-0.96-1.85-1.83-3.51-3.19-6.13C697.74,1072.91,702.05,1078.46,708.72,1080.76z
				 M1223.62,940.41c1.69,0.46,2.74,0.61,3.22-0.59c0.57-1.44-0.5-2.13-1.55-2.68c-1.64-0.86-3.38-1.41-5.26-1.31
				c-3.88,0.21-6.62-0.85-6.37-5.45c0.09-1.57-0.61-2.56-2.2-2.77c-1.64-0.21-2.4,0.88-2.91,2.19c-0.55,1.41-1.24,3.36,0.65,3.85
				c4.64,1.21,4.21,5.08,4.69,8.33c0.31,2.1,0.6,3.77,2.62,4.94c2.01,1.17,3.94,2.59,3.09,5.53c-0.24,0.84,0.27,1.65,1.29,1.73
				c0.79,0.06,1.47-0.66,1.33-1.19c-0.81-3.03,1.59-6.19-0.44-9.14c-0.64-0.94-1.74-1.93-1.03-3.1
				C1221.69,939.18,1223.08,940.27,1223.62,940.41z M1183.64,855.63c-3.17,5.24-1.14,9.01,5.3,9.34c4.64,0.24,8.3,2.05,10.21,6.15
				c0.76,1.63,1.03,3.7,2.94,2.7c2.43-1.27,6.26-1.88,6.51-5.09c0.25-3.29-1.33-5.08-5.79-5.27
				C1195.82,863.17,1187.65,863.95,1183.64,855.63z M1075.64,338.64c-0.27-1.97-0.27-4.02-0.87-5.88c-0.86-2.65-3.42-3.95-5.44-2.3
				c-2.34,1.91-5.34,3.99-4.64,8.1c0.41,2.39,0.23,4.87-0.81,7.29c-1.2,2.79,0.64,3.64,3.04,3.34
				C1070.38,348.76,1075.59,342.32,1075.64,338.64z M1231.74,929.24c2.98,0.41,4.99-2.66,8.05-2.18c1.31,0.2,2.36-0.6,2.13-2.07
				c-0.25-1.55-1.5-1.54-2.73-1.25c-1.89,0.45-3.62,0.78-4.24-1.88c-1.02-4.36-5.05-4.12-7.54-3.25c-3.18,1.12-0.46,3.4,0.46,5.17
				c0.35,0.67,0.28,1.61,0.26,2.42C1228.08,928.72,1229.69,929.23,1231.74,929.24z M1213.82,920.73c4.34-1.59,4.1,0.49,3.76,3
				c-0.16,1.17-2.16,3.08,0.46,3.51c1.61,0.27,3.78,0.45,5.09-1.21c1.17-1.47,0.35-2.83-0.69-3.99c-1.06-1.18-1.26-2.65-1.64-4.09
				c-0.37-1.41-1.32-2.63-2.84-1.94c-2.04,0.92-3.42-0.04-5.06-0.86c-1.44-0.72-3.36-1.6-4.44,0.22c-1.11,1.87,0.78,2.95,1.98,4.01
				C1211.58,920.42,1212.93,920.99,1213.82,920.73z M728.81,1080.48c-4.24-4.13-8.51-6.86-13.11-9.09c-1.03-0.5-2.27-1-3.19,0.09
				c-1.08,1.27-0.24,2.47,0.48,3.58C715.42,1078.82,722.94,1081.57,728.81,1080.48z M1183.57,830.81c-3.99-0.29-5.36,0.53-4.33,2.64
				c1.49,3.08,3.27,6,4.63,9.17c0.6,1.4,3,2.08,4.27,0.56c1.39-1.66-0.74-2.09-1.72-2.68c-2.41-1.45-2.54-3.13-0.95-5.32
				c1.24-1.69,5.32-1.18,4.41-3.76C1188.72,828.18,1185.45,832.33,1183.57,830.81z M759.79,935.03c-0.35,0.39-0.69,0.79-1.04,1.18
				c5.33,5.33,10.63,10.69,16.02,15.95c0.65,0.63,1.74,0.96,2.68,1.09c1,0.14,2-0.28,2.34-1.4c0.28-0.9-0.15-1.72-0.87-2.14
				C771.92,945.66,766,940.16,759.79,935.03z M1180.28,844.46c1.37-3.03-0.86-4.24-2.8-5.53c-0.96-0.64-2.13-1.36-3.2-0.43
				c-1.98,1.7-0.22,3.72-0.26,5.6c0,0.17,0.01,0.33,0.04,0.5c0.34,1.67,6.16,8.13,6.79,7.54c2.47-2.32-1.03-4.08-0.74-6.24
				C1180.18,845.41,1180.23,844.91,1180.28,844.46z M957.12,616.51c-0.67-2.58-1.65-4.46-1.83-6.69c-0.24-2.92-2.94-3.78-5.39-4.4
				c-1.27-0.33-2.35,0.39-2.74,1.63c-0.82,2.64,0.41,4.47,2.54,5.91C951.86,614.41,953.72,616.44,957.12,616.51z M717.41,1085.11
				c-2.24,0.34-3.13,1.45-1.8,3.04c2.65,3.15,6.25,4.73,10.33,4.97c1.24,0.08,2.64-0.99,1.39-2.16
				C724.45,1088.25,720.84,1086.6,717.41,1085.11z M1214.95,849.79c1.61,0.39,2.81,0.12,3.51-1.32c0.45-0.94,0.59-1.95-0.1-2.81
				c-1.01-1.27-2.41-1.83-3.97-1.42c-1.9,0.5-3.35,2.12-5.47,2.21c-1.02,0.04-2.11,0.65-1.94,1.83c0.22,1.54,1.64,1.5,2.77,1.29
				C1211.58,849.21,1213.35,849.1,1214.95,849.79z M1240.89,933.56c-0.75-2.31-2.56-2.41-4.11-2.17c-2.71,0.43-5.87,0.96-6.58,4.1
				c-0.43,1.9,1.75,2.79,3.44,2.44C1236.53,937.34,1238.87,935.6,1240.89,933.56z M1177.32,823.7c1.52,0.12,3.25,0.17,3.27-1.89
				c0.02-1.92-1.76-1.58-2.99-1.59c-2.43-0.04-5.1,0.66-5.55-3.09c-0.16-1.31-1.41-1.26-2.34-0.75c-1.27,0.7-1.48,1.96-0.44,2.85
				C1171.62,821.25,1173.98,823.38,1177.32,823.7z M777.98,943.02c-5.58-4.48-9.09-11.36-15.92-14.44
				C765.63,935.3,772.95,937.91,777.98,943.02z M1205.07,857.03c0.31-3.37-1.22-4.97-3.69-5.56c-2.19-0.52-2.32,1.25-2.34,2.76
				c-0.03,2.77,1.23,4.94,3.99,5.37C1205.07,859.93,1204.93,857.85,1205.07,857.03z M972.86,623.91c-0.2,0.5-0.41,0.99-0.61,1.49
				c4.64,2.04,9.28,4.1,13.95,6.07c0.48,0.2,1.5,0,1.76-0.37c0.61-0.84,0-1.62-0.81-1.95C982.45,627.22,977.91,624.79,972.86,623.91
				z M743.68,966.04c3.36,2.5,6.69,5.03,10.09,7.47c0.68,0.49,1.63,0.57,2.26-0.2c0.64-0.78,0.4-1.84-0.34-2.16
				C751.72,969.47,748.69,965.84,743.68,966.04z M1197.84,843.76c3.06-0.93,5.8,0.47,8.65,0.62c1.97,0.11,3.51-1.04,3.44-3.31
				c-0.05-1.4-1.25-2.35-2.35-1.71C1204.53,841.15,1200.59,840.86,1197.84,843.76z M761.27,1103.09c0.64,0.04,1.46,0.12,2.29,0.12
				c1.09,0,2.7,0.42,2.72-1.17c0.02-1.65-1.63-1.36-2.67-1.15c-2.61,0.53-4.87-0.37-7.15-1.4c-0.95-0.43-2.05-0.47-2.58,0.64
				c-0.65,1.37,0.28,2.17,1.38,2.72C757.15,1103.79,759.12,1103.49,761.27,1103.09z M1200.8,834.4c-0.9-2.44-2.79-2.31-4.56-2.18
				c-2.05,0.14-4.03,0.67-4.07,3.24c-0.02,1.41,1.2,2.23,2.35,1.59C1196.51,835.94,1199.53,837.06,1200.8,834.4z M785.14,970.43
				c1.29,0.15,3.03,0.4,2.94-1.03c-0.18-2.77-2.81-3.36-4.97-4.02c-1.19-0.36-2.54,0.14-2.5,1.6
				C780.69,969.95,783.38,969.74,785.14,970.43z M830.02,919.84c-0.77,0-1.82,0.41-1.43,1.69c0.78,2.53,2.55,4.29,5.17,4.85
				c1.17,0.25,1.99-0.78,1.7-1.86C834.78,921.98,833.4,919.97,830.02,919.84z M687.25,1074.25c-0.97,0.31-2.1,0.65-1.67,1.9
				c0.87,2.55,3.13,3.65,5.5,4.36c0.92,0.28,2.42-0.17,2.05-1.33C692.26,1076.48,689.65,1075.51,687.25,1074.25z M775.73,980.4
				c-0.87-2.07-2.5-3.31-4.75-3.63c-1.33-0.19-3.33,0.13-2.98,1.58c0.69,2.8,3.98,2.2,6.01,3.35
				C774.78,982.13,775.54,981.47,775.73,980.4z M1183.85,871.81c-0.15-1.95-1.92-1.51-3-1.97c-1.35-0.57-2.75-0.64-2.93,1.34
				c-0.14,1.5,0.54,2.71,2.19,2.71C1181.65,873.9,1182.99,873.23,1183.85,871.81z M784.53,976.28c-2.58-1.55-4.59-2.83-6.68-3.94
				c-0.42-0.22-1.35-0.01-1.73,0.34c-0.54,0.49-0.31,1.4,0.31,1.65C778.8,975.24,780.73,977.87,784.53,976.28z M1078.37,328.95
				c1.07-0.15,2.13-0.53,1.89-1.78c-0.38-2-1.95-3.08-3.8-3.38c-1.29-0.21-1.57,0.99-1.34,2.05
				C1075.5,327.57,1076.34,328.92,1078.37,328.95z M809.61,940.22c-0.61-1.53-1.97-2.07-3.5-2.22c-1.13-0.11-2.03,0.44-1.84,1.7
				c0.28,1.84,1.67,2.32,3.31,2.22C808.59,941.87,809.6,941.67,809.61,940.22z M1232.12,850.65c-0.82-1.29-2.05-2.06-3.6-2.04
				c-0.99,0.02-2.11,0.57-2,1.72c0.21,2.15,2.09,1.61,3.44,1.7C1230.87,852.09,1232,852.14,1232.12,850.65z M1194.8,877.61
				c-1.31,0.5-2.93,0.92-3.14,2.55c-0.17,1.25,1.11,1.42,2.09,1.24c1.24-0.23,2.74-0.35,2.94-2
				C1196.83,878.22,1195.97,877.71,1194.8,877.61z M1192.32,872.05c-0.09-1.36-1.01-1.91-2.25-1.95c-1.19-0.04-2.4,0.27-2.57,1.64
				c-0.19,1.52,1.03,1.85,2.21,1.92C1190.88,873.73,1191.99,873.54,1192.32,872.05z"/>
			<path class="st0" d="M1210.56,1009.03c-10.95-7.3-21.5-5.31-32.59-2.37c-5.91,1.57-12.55,0.48-18.85,0.47
				c-12.33-0.01-24.65,0.81-36.96,1c-11.41,0.18-22.82,1.02-34.33,0.39c-8.97-0.49-18.21,0.88-27.34,1.32
				c-4.81,0.23-9.7,0.71-13.05-4.16c-1.14-1.66-3.35-1.01-5.18-0.86c-20.33,1.66-40.01,6.84-59.9,10.95
				c-18.39,3.8-36.79,7.66-55.04,11.91c-20.11,4.68-40.83,6.52-60.56,12.58c-21.65,6.65-44.03,10.07-65.82,16.08
				c-6.69,1.85-13.75,2.4-20.67,3.37c-1.84,0.26-4.62,0.68-4.46-2.33c0.13-2.49,2.63-1.85,4.41-1.94
				c10.21-0.52,20.02-3.18,29.78-5.88c12.81-3.55,25.71-6.68,38.75-9.19c5.1-0.98,9.88-2.9,14.84-4.27c14.46-4,29.42-5.48,44.1-8.43
				c13.05-2.62,26.06-5.43,39.08-8.21c15.12-3.23,30.25-6.4,45.34-9.79c15.93-3.58,31.92-6.75,48.13-8.78
				c5.29-0.66,10.52-1.71,14.87,3.01c1.61,1.75,4.39,1.19,6.72,1.21c30.66,0.18,61.29-0.91,91.93-1.87
				c14.67-0.46,29.18-2.99,43.87-2.51c1.98,0.07,3.96,0.55,5.93,0.51C1208.21,1001.15,1209.88,1003.89,1210.56,1009.03z"/>
			<path class="st0" d="M1227.03,1034.97c-5.07,2.19-9.26,1.16-13.24,1.46c-6.63,0.5-13.31,0.29-19.97,0.51
				c-4.19,0.14-8.32,0.07-12.31-1.43c-2.06-0.78-4.24-0.87-6.41-0.71c-26.87,1.95-53.75,3.81-80.44,7.72
				c-19.43,2.85-38.92,5.36-58.34,8.3c-5.08,0.77-10.03,2.4-15.27,1.94c-4.9-0.44-6.25-1.94-5.11-6.7c1.05-4.37-1.79-4.12-4.25-3.66
				c-8.51,1.56-16.95,3.5-25.45,5.09c-14.55,2.71-28.94,6.18-43.43,9.12c-20.14,4.08-40.15,9.14-59.79,15.53
				c-12.29,4-24.63,8.31-37.49,10.09c-10.38,1.44-20.84,2.23-31.09,4.55c-1.15,0.26-2.49,0.3-2.96-1.11
				c-0.47-1.41,0.61-2.23,1.72-2.6c2.52-0.84,5.06-1.89,7.66-2.16c11.59-1.18,23.12-2.75,34.49-5.29c6.97-1.55,14-3.05,20.72-5.39
				c11.31-3.95,22.68-7.67,34.3-10.54c9.81-2.43,19.76-4.29,29.65-6.41c18.69-4.01,37.35-8.2,56.1-11.95
				c6.81-1.36,13.56-3.63,20.67-3.03c3.89,0.33,7.07,1.25,5.26,6.49c-1.24,3.56,1.51,3.47,3.71,3.21c8.6-1.02,17.19-2.1,25.76-3.29
				c36.93-5.12,73.78-11.09,111.12-12.44c17.62-0.64,35.23,0.78,52.84,1.49C1218.86,1033.88,1222.42,1032.96,1227.03,1034.97z"/>
			<path class="st0" d="M993.48,303.67c-2.36,0.62-3.01-2.27-4.64-1.08c-1.21,0.88-0.24,2.12,0.18,3.16
				c0.7,1.69,1.65,3.01,3.76,1.93c2.44-1.25,3.03,0.82,4.26,2.11c4.81,5.04,10.43,8.68,17.54,9.59c2.39,0.31,4.59-0.52,7.37-1.01
				c-1.24,5.42,1.17,7.69,6.27,8.86c3.78,0.87,4.81,5.24,6.54,8.4c0.61,1.13-0.11,2.28-1.21,2.95c-1.32,0.81-2.14,0.05-2.89-0.99
				c-2.09-2.92-5.5-4.76-6.91-8.4c-1.17,3.2-1.62,6.05,0.85,8.98c2.02,2.39,3.55,5.21,5.14,7.93c0.77,1.31,1.18,2.92-0.38,4.04
				c-1.63,1.16-3.18,0.67-4.43-0.75c-0.88-0.99-1.62-2.1-2.44-3.15c-0.53-0.67-1.18-1.34-2.09-0.9c-1.01,0.48-0.37,1.35-0.34,2.13
				c0.15,5.05-3.16,8.68-5.65,12.53c-1.1,1.69-3.05,0.47-4.34-0.69c-1.44-1.3-1.91-2.83-0.2-4.23c1.25-1.02,2.7-2.22,1.26-3.61
				c-3.06-2.93-1.4-5.05,0.43-7.66c1.64-2.33,4.75-4.41,2.65-8.09c-0.13-0.23,0.28-1.07,0.62-1.23c6.62-3.1,1.69-5.45-0.55-7.84
				c-3.61-3.85-8.82-4.27-13.34-4.22c-4.02,0.04-6.38-1.62-8.45-4.04c-3.45-4.01-5.57-9.02-9.2-12.97
				c-1.45-1.58-1.18-3.71-1.23-5.72c-0.08-3.38-1.19-5.66-5.2-4.2c-2.52,0.92-4.63,0.01-5.2-2.31c-0.67-2.69,2.41-2.48,3.78-2.88
				c2.62-0.76,5.48-0.75,8.25-0.92c1.27-0.08,1.78,0.65,1.32,1.94c-1.12,3.12-2.88,5.68,3.33,4.4
				C991.52,295.08,992.7,300.1,993.48,303.67z"/>
			<path class="st0" d="M1074.68,533.64c1.58,1.59,1.72,3.13,1.12,4.19c-3.75,6.57-6.25,14.09-13.23,18.29
				c-2.77,1.66-4.97,3.91-7.15,6.19c-4.28,4.49-9.48,7.3-15.57,8.26c-5.49,0.86-9.67,4.29-14.33,6.79
				c-2.08,1.12-4.05,2.38-7.38,0.56c3.85-2.32,7.81-3.25,11.2-5.24c5.25-3.08,10.84-5.52,16.66-7.68
				c6.8-2.53,12.01-8.23,16.47-14.11C1066.65,545.37,1070.49,539.58,1074.68,533.64z"/>
			<path class="st0" d="M1248.34,989.48c0.42-6.34,0.99-6.78,7.04-6.05c1.95,0.24,3.98-0.11,5.92,0.18
				c1.52,0.23,2.97,1.36,2.86,2.99c-0.14,2.05-1.93,1.98-3.45,1.63c-4.2-0.96-7.1,0.3-8.11,4.71c-0.33,1.44-1.07,1.58-2.11,0.96
				c-5.94-3.58-11.88-7.18-17.77-10.85c-1.06-0.66-1.48-1.84-0.76-3.05c0.79-1.34,1.99-1.4,3.46-1.17
				C1241.71,979.8,1247.3,981.59,1248.34,989.48z"/>
			<path class="st0" d="M1245.03,970.01c-6.02-5.74-7.8-5.44-11.48,2.04c-0.66,1.34-1.14,2.77-1.9,4.04
				c-1.19,1.98-2.47,3.44-4.07,0.18c-0.71-1.45-1.63-2.83-3.08-3.81c-3.72-2.51-3.76-3.73,0.27-5.24c2.64-0.98,5.24-2.57,6.33-4.5
				c3.12-5.53,7.44-3.5,11.1-2.09C1246.39,962.26,1244.63,966.68,1245.03,970.01z"/>
			<path class="st0" d="M1048.28,482.68c-5.22,3.63-10.13,7.86-15.72,10.78c-14.44,7.54-30.12,12.47-44.4,20.41
				c-1.23,0.69-2.5,0.91-3.84,0.49c-1.45-0.45-3.22-1.02-2.86-2.85c0.35-1.77,2.07-1.28,3.34-0.91c2.07,0.61,3.79,0.1,5.68-0.92
				c10.68-5.8,21.67-10.89,33.34-14.45c6.44-1.97,11.89-5.8,17.39-9.52C1043.24,484.33,1044.81,482.22,1048.28,482.68z"/>
			<path class="st0" d="M1003.32,291.32c5.69,0.24,8.24,3.85,10.04,7.78c1.36,2.98,1.65,6.45,4.31,8.83c0.6,0.54,1.07,1.42,0.36,2.2
				c-0.7,0.76-1.59,0.4-2.26-0.08c-2.85-2.02-5.69-4.06-8.47-6.19c-1.45-1.11-1.27-2.51-0.43-4.01c2.23-3.94-0.25-4.21-3.23-4.04
				c-0.16,0.01-0.32,0.08-0.49,0.1c-2.41,0.34-6.13,2.78-6.58-0.95C996.33,292.9,1001.01,291.92,1003.32,291.32z"/>
			<path class="st0" d="M1273.36,999.35c-3.73,2.25-9.88-0.38-14.04,4.31c-1.05,1.19-3.16,1.79-3.91,0.47
				c-1.07-1.88,1.34-2.19,2.49-2.71c1.76-0.81,3.22-1.83,3.69-3.73c1.06-4.33,5.05-4.12,7.97-4.55c3.41-0.5,5.38,3.3,8.32,4.65
				c0.22,0.1,0.35,1.04,0.15,1.33C1277,1000.61,1275.66,999.48,1273.36,999.35z"/>
			<path class="st0" d="M1052.08,489.03c-10.89,12.03-24.49,20.17-38.6,27.57C1025.56,506.3,1039.88,499.19,1052.08,489.03z"/>
			<path class="st0" d="M1045.62,308.76c-0.19,2.12-1.29,3.54-3.4,3.62c-2.17,0.09-3.33-1.14-3.32-3.42
				c0.01-1.36,1.11-3.29-0.91-3.83c-1.53-0.41-1.96,1.45-2.67,2.51c-0.75,1.12-1.77,1.72-2.87,0.64c-1.24-1.22-1.3-2.88-0.02-3.99
				c1.64-1.43,1.56-6.16,4.03-4.5c3.07,2.06,7.11,3.62,8.75,7.55C1045.4,307.79,1045.49,308.29,1045.62,308.76z"/>
			<path class="st0" d="M1271.38,1037.66c-0.07,1.07-0.85,1.62-1.66,1.28c-8.61-3.67-17.74-0.28-26.48-1.98
				c-0.49-0.1-1.01-0.1-1.46-0.27c-0.61-0.24-1.27-0.6-1.14-1.41c0.2-1.18,1.17-1.1,1.93-0.83c6.67,2.41,13.18,2.01,19.73-0.59
				C1264.69,1032.92,1271.29,1035.97,1271.38,1037.66z"/>
			<path class="st0" d="M1073.77,479.72c-5.4,11.4-14.39,19.83-23.36,28.26C1058.17,498.54,1065.88,489.06,1073.77,479.72z"/>
			<path class="st0" d="M1279.71,1024.9c-0.97-0.01-2.13,0.3-2.67-0.78c-0.68-1.34,0.41-2.18,1.26-2.92
				c2.33-2.05,5.29-3.48,6.08-6.93c0.2-0.85,1.19-1.23,2.03-0.78c0.51,0.27,1.02,0.89,1.16,1.44
				C1288.16,1017.17,1282.06,1024.82,1279.71,1024.9z"/>
			<path class="st0" d="M1060.45,259.42c-0.4,1.2-0.57,2.71-2.58,1.92c-2.73-1.07-8.04-8.46-8.01-11.28c0-0.43,0.23-1.04,0.55-1.25
				c0.3-0.18,1.07-0.1,1.29,0.16c2.74,3.27,3.9,7.97,8.65,9.44C1060.47,258.46,1060.42,259.04,1060.45,259.42z"/>
			<path class="st0" d="M1235.73,993.66c2.24,1.86,6.52,2.16,6.98,4.83c0.48,2.71-3.57,1.89-5.57,2.71
				c-2.56,1.06-2.74-0.82-2.65-2.64C1234.58,996.93,1233.19,994.94,1235.73,993.66z"/>
			<path class="st0" d="M1207.53,999.94c-1.64-4.96-1.08-9.06,0.12-13.02c0.49-1.62,2.16-1.64,2.9,0c0.97,2.14,2.71,4.49,0.14,6.7
				C1209.03,995.04,1209.62,997.37,1207.53,999.94z"/>
			<path class="st0" d="M1006.58,267.55c1.62,6.91,10.44,5.66,11.07,14.45c-3.44-4.25-7.05-6.11-10.77-7.89
				C1005.13,273.27,1004.8,270.96,1006.58,267.55z"/>
			<path class="st0" d="M1002.08,286.23c5.07-3.52,9,0.17,12.99-0.14c1.02-0.08,1.37,2.09,0.64,3.38c-0.69,1.21-2.03,1.44-2.98,0.69
				C1009.91,287.95,1006.44,287.53,1002.08,286.23z"/>
			<path class="st0" d="M1216.7,886.8c2.76-3.82,6.23-3.12,9.59-2.64c0.85,0.12,1.5,0.73,1.51,1.69c0.01,1-0.71,1.6-1.55,1.6
				C1223.21,887.47,1220.09,888.12,1216.7,886.8z"/>
			<path class="st0" d="M1040.03,363.18c-0.09,1.28-0.38,2.5-1.6,2.2c-2.7-0.68-3.72-3-4.23-5.44c-0.24-1.14,0.42-2.75,1.76-2.2
				C1038.31,358.71,1039.49,360.93,1040.03,363.18z"/>
			<path class="st0" d="M1031.01,299.92c-0.78,1.61-0.52,4.28-3.01,4.42c-2.02,0.11-2.39-2.01-2.46-3.62
				c-0.08-1.93,1.23-3,3.03-3.23C1030.2,297.28,1030.91,298.29,1031.01,299.92z"/>
			<path class="st0" d="M1035.12,519.71c3.21-3.79,7.15-6.55,11.48-8.79C1043.24,514.47,1040.46,518.75,1035.12,519.71z"/>
			<path class="st0" d="M1080.14,519.3c0.53,3.97-0.36,7.51-3.34,10.39C1076.85,525.9,1078.19,522.51,1080.14,519.3z"/>
			<path class="st0" d="M1214.36,985.41c0.59-1.79,2.21-1.94,3.61-2.14c2.09-0.29,1.82,1.42,1.85,2.67
				c0.02,1.15-0.05,2.62-1.76,2.23C1216.53,987.81,1214.81,987.37,1214.36,985.41z"/>
			<path class="st0" d="M1215.22,994.66c1.95,1.34,2.49,3.44,3.25,5.33c0.35,0.88-0.51,1.65-1.42,1.34
				c-2.22-0.74-2.12-3.05-2.85-4.77C1213.86,995.76,1214.28,995.03,1215.22,994.66z"/>
			<path class="st0" d="M1265.52,1023.61c2.98-0.11,5.13-1.16,6.68,1.03c0.5,0.71,0.04,1.75-0.7,2.13
				C1268.82,1028.15,1267.83,1025.77,1265.52,1023.61z"/>
			<path class="st0" d="M1225,1013.62c-3.91,0.35-6-1.82-8.56-2.33c-0.84-0.17-0.88-1.31-0.24-2.04c0.63-0.72,1.72-0.85,2.18-0.2
				C1219.82,1011.07,1222.23,1011.75,1225,1013.62z"/>
			<path class="st0" d="M1282.96,1005.4c-1.29,2.79-3.23,4.42-6.91,3.27C1277.59,1005.64,1280.73,1006.41,1282.96,1005.4z"/>
			<path class="st0" d="M1046.58,259.13c-0.1,1.1-0.22,2.27-1.56,2.11c-1.46-0.17-1.56-1.52-1.6-2.65c-0.03-1,0.24-2.36,1.29-2.35
				C1046.45,256.26,1046.23,258.03,1046.58,259.13z"/>
			<path class="st0" d="M1024.3,777.37c-0.67-2.35,0.41-4.17,1.73-5.97c7.79-10.63,13.71-22.31,19.19-34.24
				c0.9-1.96,1.82-3.91,2.85-5.8c0.68-1.25,1.28-3.31,3.1-2.48c1.9,0.87,0.62,2.55,0,3.85c-2.22,4.65-4.18,9.44-6.73,13.89
				c-6.09,10.63-11.48,21.75-20.25,30.62C1024.2,777.25,1024.3,777.37,1024.3,777.37z"/>
			<path class="st0" d="M1017.54,681.5c-12.66,18.14-27.01,34.73-44.35,48.59C988.05,713.97,1003.79,698.65,1017.54,681.5z"/>
			<path class="st0" d="M922.01,842.23c-0.61,2.41,1.74,5.88-2.62,6.77c-1.01,0.21-2.29,0.1-2.46-1.05
				C916.39,844.23,919.65,843.64,922.01,842.23z"/>
			<path class="st0" d="M991.68,619.73c18.04,4.06,33.07,16.61,51.86,18.83c-1.75,1.88-3.75,1.55-5.44,0.93
				c-6.46-2.35-13.3-3.16-19.59-6.5c-8.71-4.63-18.14-7.91-27.26-11.76C991.4,620.72,991.54,620.23,991.68,619.73z"/>
			<path class="st0" d="M1177.88,764.99c2.99-5.18,7.9-7.86,12.75-10.6c0.87-0.49,2-0.67,2.59,0.44c0.46,0.86-0.12,1.63-0.87,2.06
				C1187.57,759.65,1183.44,763.55,1177.88,764.99z"/>
			<path class="st0" d="M1196.54,792.91c1.64-6.22,7.55-7.04,11.39-10.43c0.5-0.44,1.53-0.22,1.63,0.46
				c0.11,0.71-0.12,1.89-0.63,2.22C1204.86,787.83,1200.68,790.35,1196.54,792.91z"/>
			<path class="st0" d="M1058.07,642.23c-3.62,1.2-6.48-0.11-9.76-1.39C1052.65,639.22,1054.07,639.42,1058.07,642.23z"/>
			<path class="st0" d="M845.18,876.47c-2.64,1.51-5.54-0.77-5.31,1.76c0.29,3.1,2.98,4.95,6.64,5.05c-2.59,2.6-6.6-0.22-9.23,2.86
				c3.29-3.77-1.7-6.62-0.42-9.96c0.5-1.3-0.82-3.29,1.12-3.97c1.97-0.69,2.81,1.3,4.05,2.29
				C842.8,875.12,843.72,875.57,845.18,876.47z"/>
		</g>
	</g>
</g>
</svg>
