<?xml version="1.0" encoding="utf-8"?>
<!-- Generator: Adobe Illustrator 28.0.0, SVG Export Plug-In . SVG Version: 6.00 Build 0)  -->
<svg version="1.1" id="Layer_1" xmlns="http://www.w3.org/2000/svg" xmlns:xlink="http://www.w3.org/1999/xlink" x="0px" y="0px"
	 viewBox="0 0 1920 1080" style="enable-background:new 0 0 1920 1080;" xml:space="preserve">
<style type="text/css">
	.st0{fill:none;stroke:#231F20;}
</style>
<g>
	<g>
		<g>
			<path d="M941.71,769.07c-0.07-2.51,2.35-2.73,3.76-3.84c10.37-8.18,21.68-9.97,32.85-2.61c11.36,7.49,19.09,17.64,16.68,32.56
				c-0.2,1.21-0.39,2.53,0.74,3.19c2.22,1.29,2.38,2.9,1.39,5.03c-0.53,1.15-0.45,2.34,0.94,2.92c1.17,0.49,2.37,0.39,3.21-0.6
				c1.07-1.27,1.93-2.72,2.99-4c0.8-0.96,1.48-2.64,3.09-1.77c1.13,0.62,0.95,2.13,0.61,3.21c-1.99,6.32-1.09,12.77-0.96,19.19
				c0.01,0.5,0.08,1.01,0.01,1.5c-0.32,2.16-0.65,4.9-3.44,4.47c-2.36-0.36-2.27-2.93-1.93-4.99c0.14-0.82,0.37-1.63,0.61-2.42
				c0.77-2.52,2.29-5.29-0.52-7.31c-2.62-1.88-5.64-0.83-8.04,0.58c-9.02,5.29-17.39,12.33-22.1,21.11
				c-7.34,13.66-17.26,26.47-20.36,41.93c-1.61,8.06-5.26,15.72-5.09,24.17c0.08,3.82-3.37,6.03-5.28,8.79
				c-4.41,6.37-5.77,14.13-10.09,20.47c-0.64,0.94-0.9,2.16-1.56,3.08c-10.2,14.09-17.04,30.01-23.65,45.88
				c-2.61,6.26-4.61,13.39-4.22,20.68c0.32,6.05,2.63,7.36,7.95,4.19c0.57-0.34,1.24-0.62,1.66-1.11
				c9.92-11.64,24.54-11.63,37.7-14.92c9.96-2.49,20.23-3.76,30.36-5.6c2.85-0.52,4.97-1.97,5.64-4.94
				c0.98-4.38,4.15-5.52,8.11-6.02c20.32-2.53,40.71-4.3,61.09-6.27c6.07-0.59,12.03-2.4,18.02-3.72c2.6-0.57,5.15-1.38,7.76-1.9
				c1.45-0.29,3.41-0.49,3.78,1.36c0.34,1.71-1.62,1.71-2.82,2.15c-12.6,4.66-25.91,5.75-39.07,7.43
				c-15.51,1.98-31.09,3.51-46.64,5.22c-2.15,0.24-4.14,1-4.53,3.24c-1.06,5.97-5.66,7.42-10.48,8.43
				c-15.93,3.34-32.21,4.81-47.96,9.17c-4.07,1.13-8.26,2.14-11.18,5.21c-3.94,4.12-8.98,6.27-13.89,8.52
				c-5.06,2.32-5.4,5.55-4.56,10.5c1.97,11.62,8.89,20.2,16.12,28.74c4.96,5.87,11,9.91,18.34,12.43
				c12.32,4.23,21.26,12.15,25.15,25.01c0.59,1.96,1.95,3.45,3.37,4.89c4.56,4.66,4.22,8.2-1.49,11.47
				c-7.1,4.07-15.07,6.33-22.77,8.57c-13.83,4.03-28.14,5.47-42.26,0.53c-9.64-3.38-18.38-8.64-26.96-14.01
				c-13.52-8.46-25.66-19.08-40.36-25.69c-2.4-1.08-4.36-2.69-2.65-5.33c3.97-6.09,2.91-13.23,4.19-19.8
				c1.46-7.5,4.63-13.91,9.92-18.47c6.12-5.28,8.26-12.4,11.32-18.99c6.23-13.41,6.28-28.1,7.06-42.57c0.2-3.68-1.27-5.66-4.86-5.04
				c-6.56,1.14-13.15,2.03-19.72,3.05c-3.62,0.57-5.97,4.13-9.94,5.18c-12.16,3.21-24.2,0.64-36.28,0.35
				c-5.16-0.12-10.32-0.42-15.47-0.6c-1.32-0.05-2.92-0.26-3.46,1.29c-0.64,1.84,0.98,2.66,2.21,3.44c3.3,2.11,7.15,2.68,10.84,3.61
				c8.2,2.06,14.96,6.27,19.95,13.1c2.66,3.64,1.98,5.84-2.3,7.69c-6.41,2.78-12.9,5.36-19.32,8.12c-2.9,1.25-6.32,2.44-5.92,6.44
				c0.38,3.75,2.65,6.3,6.42,7.5c9.02,2.86,17.87,6.18,27.04,8.61c5.07,1.34,8.57,6.14,13.98,7.23c0.98,0.2,1.57,1.79,0.8,3
				c-0.62,0.97-1.72,1.01-2.69,0.64c-1.4-0.52-2.81-1.08-4.11-1.82c-8.54-4.85-18.16-7.02-27.08-10.95
				c-4.64-2.05-10.04-1.58-14.48-4.96c-3.92-2.98-5.62-6.87-5.56-11.13c0.06-4.04,3.83-5.82,7.35-7.28
				c5.99-2.48,11.91-5.13,17.86-7.73c3.81-1.67,3.68-3.94,0.78-6.36c-5.42-4.52-11.23-8.29-18.49-9.19
				c-5.16-0.64-9.4-3.38-13.27-6.57c-2.64-2.18-1.92-4.76,1.04-5.82c7.54-2.72,15.22-3.89,23.4-2.95
				c10.7,1.23,21.51,1.75,32.29,0.61c0.49-0.05,1.11-0.06,1.44-0.34c9.18-8,20.96-6.04,31.64-8.04c4.58-0.86,6.39-2.53,6.11-7.1
				c-0.89-14.81-0.44-29.62-0.32-44.44c0.1-12.06,3.5-23.17,7.63-34.29c2.77-7.46,6.48-14.48,9.97-21.54
				c2.51-5.08,5.91-9.9,8.96-14.8c3.14-5.05,4.51-10.69,7.21-15.82c1.5-2.85-0.37-5.34-1.85-7.37
				c-6.41-8.79-10.43-18.93-16.14-28.09c-3.56-5.71-8.29-10.45-13.08-15.04c-9.83-9.42-16.59-20.2-17.5-34.19
				c-0.49-7.55-3.09-14.59-6.23-21.47c-2.68-5.86-2.26-12.38-3.01-18.64c-0.26-2.14-0.11-4.34-0.94-6.39
				c-4.92-12.13-2.91-23.59,3.25-34.68c0.62-1.12,1.13-3.03,2.63-2.45c1.91,0.74,0.95,2.72,0.25,3.81
				c-4.39,6.78-4.19,14.57-5.1,22.12c-0.16,1.35-0.26,3.12,1.23,3.45c4.63,1.03,3.28,4.28,2.82,7.08
				c-1.24,7.45,0.38,14.58,2.11,21.71c0.36,1.48,0.96,3.22,2.55,3.44c4.69,0.63,3.9,3.99,4.05,7.14c0.46,9.53,0.38,19.12,3.92,28.25
				c1.81,4.66,5.15,8.12,8.48,11.56c5.54,5.73,10.13,12.32,16.33,17.46c4.06,3.36,8.13,3.64,12.45,1.2
				c9.69-5.47,20.34-9.05,29.66-15.27c2.75-1.84,5.97-3.02,9.35-3.24c1.32-0.09,2.88,0.29,3.02,1.96c0.13,1.43-1.22,1.92-2.36,2.12
				c-9.27,1.65-16.64,6.97-24.5,11.71c-5.67,3.42-12.57,4.95-18.82,7.68c-3.72,1.63-4.22,3.1-2.39,6.23
				c3.35,5.72,7.15,11.15,9.1,17.67c1.02,3.41,3.21,1.76,4.77-0.12c3.3-3.97,6.54-7.98,9.9-11.89c1.01-1.17,2.43-3.23,3.93-1.76
				c1.2,1.17-0.13,3.15-1.49,4.22c-8,6.29-11.04,15.46-14.07,24.54c-2.36,7.06,1.98,14.66,9.29,17.21
				c13.41,4.68,27.35,6.91,41.37,8.63c10.08,1.23,15.3-2.47,18.48-12.26c2.17-6.66,8.19-10.3,12.18-15.54
				c4.33-5.68,4.67-5.99-1.02-10.37c-0.9-0.7-1.76-1.58-2.33-2.55c-0.83-1.4-2.07-3.26-0.8-4.58c1.38-1.43,2.51,0.67,3.71,1.31
				c1.87,0.98,3.61,1.86,4.97,3.83c1.85,2.68,3.71,0.78,5.08-1.1c3.68-5.01,4.37-11.02,3.73-16.71
				c-1.38-12.24-8.06-21.27-19.18-26.71c-10.05-4.92-19.33-2.05-28.22,3.34C943.73,768.9,943.11,769.88,941.71,769.07z
				 M933.07,1109.37c8.24-1.46,16.37-3.42,23.69-7.74c1.03-0.61,1.91-1.56,1.31-2.89c-0.7-1.53-2.09-1.52-3.43-1.04
				c-1.09,0.39-2.14,0.93-3.14,1.51c-12.18,7.07-24.91,11.21-39.2,7.77c-3.52-0.85-7.44-0.49-10.7-1.83
				c-8.9-3.66-17.42-8.12-25.26-13.84c-7.21-5.26-13.5-11.75-22.17-15.07c-6.54-2.51-12.28-6.63-16.54-12.44
				c-0.84-1.14-1.91-1.99-3.39-1.19c-1.4,0.75-1.52,2.12-1.25,3.49c0.69,3.51,2.68,5.89,5.96,7.47c4.79,2.3,9.85,4.36,14.06,7.51
				c11.19,8.39,22.28,16.92,34.73,23.37c13.08,6.76,26.54,11.75,41.43,5.41C930.33,1109.36,931.77,1109.51,933.07,1109.37z
				 M923.58,1061.63c-0.13,0.09-1.14,0.58-1.09,0.74c1.77,5.63-2.8,5.87-6.05,7.35c-0.93,0.42-1.39,1.54-0.74,2.55
				c0.61,0.96,1.98,1.24,2.66,0.66c3.5-2.98,6.82-1.13,10.54-0.5c3.75,0.63,5.35,1.7,5.26,5.49c-0.05,1.88,1.24,3.23,3.24,2.94
				c4.44-0.64,6.73,2.14,8.54,5.35c1.17,2.08,2.46,3.03,4.77,2.34c1.14-0.34,2.25-0.49,3.38,0.12c1.14,0.62,2.45,1.66,3.51,0.13
				c0.97-1.39,0.37-2.99-0.52-4.2c-2.26-3.07-4.55-6.14-7.06-9.01C943.13,1067.74,933.62,1064.62,923.58,1061.63z M854.05,1045.61
				c-0.19,3.3,1.58,4.17,3.01,5.19c9.47,6.74,19.46,12.46,30.47,16.45c6.48,2.35,12.81,4.51,19.79,2.93
				c1.1-0.25,2.53-0.42,2.59-1.88c0.06-1.43-1.3-1.97-2.4-2.11c-2.46-0.31-4.95-0.38-7.44-0.48c-1.65-0.07-3.52,0.54-4.85-0.59
				c-4.4-3.75-10.02-4.21-15.14-6.05c-4.75-1.71-10-3.11-13.77-6.19C862.6,1049.83,858.64,1048.01,854.05,1045.61z M899.04,934.6
				c-1.95,0.25-5.53-1.6-5.59,0.83c-0.09,3.42,3.5,2.45,5.91,2.26c0.33-0.03,0.66-0.15,0.99-0.12c2.24,0.18,5.16-0.4,3.66,3.66
				c-0.66,1.79,0.78,2.46,2.18,2.49c2.98,0.07,5.98-0.05,8.96-0.18c1-0.05,2.54-0.71,2.15-1.55c-1.64-3.56,1.24-3.74,3.15-4.74
				c1.42-0.74,3.61-1.22,3-3.33c-0.72-2.48-2.91-1.38-4.66-1.2C912.21,933.36,905.62,933.97,899.04,934.6z M937.85,882.42
				c-5.82-2.61-10.8-3.75-16.11-1.69c-1.9,0.74-3.88,0.5-5.9,0.33c-6.21-0.53-11.88-3.07-17.85-4.48c-1.07-0.25-2.51-0.72-3.04,0.73
				c-0.43,1.17,1.09,1.44,1.6,2.19c2.45,3.64,6.66,1.26,9.64,2.9c6.85,3.76,14.24,2.58,21.42,2.08
				C930.69,884.27,934.18,884.62,937.85,882.42z M903.5,964.78c4.83,1.49,6.13,0.66,6.23-3.98c0.04-1.72-0.89-3.7,1.66-4.56
				c1.47-0.49,3.6-0.66,2.86-3.12c-0.36-1.2-1.47-1.8-2.71-1.84c-1.97-0.07-3.15,1.01-3.35,2.92c-0.35,3.39-2.49,4.25-5.25,3.41
				c-4.08-1.25-8.28,0.17-12.33-0.92c-0.78-0.21-1.76-0.27-2.1,0.72c-0.41,1.19,0.42,2.11,1.35,2.27c4.02,0.68,8.06,1.36,12.12,1.58
				c1.39,0.08,3.13-2.17,4.31-0.08C907.77,963.82,903.97,963.17,903.5,964.78z M925.59,1075.66c-2.06,0.15-5.2,6.31-4.26,8.16
				c0.95,1.88,2.97,5.03,4.17,4.22c4.1-2.77,5.4,0.1,7.33,2.47c0.73,0.89,1.84,1.85,2.98,1.06c1.23-0.85,0.48-2.17-0.14-3.1
				c-2.47-3.67-4.98-7.31-7.6-10.87C927.42,1076.72,926.3,1076.19,925.59,1075.66z M906.25,875.16c0.52-0.04,2.34,0.38,2.69-1.14
				c0.45-2.01-1.52-2.15-2.93-2.54c-8.24-2.31-17.23-2.35-24.36-8.08c-1.06-0.85-2.67-1.07-3.47,0.43
				c-0.76,1.43,0.08,2.69,1.47,3.19C888.15,870.12,896.62,873.3,906.25,875.16z M941.85,895.16c-0.28-0.67-0.32-1.07-0.54-1.22
				c-0.85-0.62-1.64-0.17-2.21,0.42c-3.74,3.86-10.7,4.66-10.9,12.01c-0.04,1.49-1.11,2.9,0.84,3.47c1.9,0.56,4.19,0.85,4.64-2.03
				c0.17-1.1-0.44-2.78,1.1-2.84C941.87,904.69,936.18,895.97,941.85,895.16z M906.64,856.49c1.58-0.48,2.96,0.03,3.51-1.41
				c0.28-0.74-0.19-1.42-0.82-1.58c-6.16-1.64-11.33-5.43-17.16-7.77c-1.13-0.46-2.38-0.33-2.9,1.07c-0.39,1.06,0.03,2.26,0.96,2.57
				C896.02,851.3,901.47,854.04,906.64,856.49z M903.63,901.29c1.74-0.23,3.28,0.48,4.12-0.95c0.53-0.9-0.27-1.68-1.01-1.97
				c-5.25-2.09-10.53-4.13-15.82-6.11c-0.77-0.29-1.71-0.14-2.19,0.7c-0.53,0.93,0.09,1.68,0.8,2.08
				C894.14,897.68,898.79,900.25,903.63,901.29z M881.83,982.93c1.47-0.06,2.76,0.15,3.38-1.12c0.48-0.99-0.3-1.53-1.07-1.88
				c-4.94-2.25-9.87-4.49-14.84-6.66c-0.89-0.39-2.01-0.55-2.56,0.63c-0.41,0.87,0.04,1.77,0.68,2.22
				C871.94,979.23,876.89,981.43,881.83,982.93z M880.1,905.33c-0.96,0.01-2.11-0.29-2.59,0.86c-0.6,1.44,0.52,2.06,1.56,2.61
				c2.32,1.23,4.6,2.54,6.99,3.61c1.46,0.66,3.48,1.48,4.41-0.37c1.02-2.04-0.84-3.3-2.43-4.17
				C885.58,906.51,882.91,905.67,880.1,905.33z M888.15,925.41c-6.2-2.8-12.76-4.61-18.53-8.22c-0.7-0.44-1.68-0.06-2.04,0.84
				c-0.45,1.12,0.12,2.01,1.13,2.38c1.83,0.67,3.7,1.51,5.49,1.99C878.76,923.64,882.7,927.6,888.15,925.41z M927.02,915.39
				c-3.05,0.43-5.06,1.48-5.04,4.69c0.01,2.05,0.44,3.97,2.92,3.5c2.33-0.44,5.32-0.99,5.64-3.92
				C930.76,917.49,929.29,915.64,927.02,915.39z M902.93,910.43c1.43,0.22,2.39,0.59,2.86-0.32c0.44-0.85-0.12-1.78-0.82-2.14
				c-3.51-1.85-7.04-3.73-11.07-4.19c-0.77-0.09-1.85,0.02-1.89,1.11c-0.02,0.49,0.53,1.26,1.01,1.48
				C896.46,907.95,899.42,910.76,902.93,910.43z M890.16,1023.23c1.11,0,1.94,0.06,2.77-0.01c1.18-0.1,2.54-0.33,2.7-1.71
				c0.2-1.74-1.26-2.11-2.62-2.36c-0.65-0.12-1.33-0.13-1.98-0.24c-2.74-0.47-6.79-1.74-7.05,1.87
				C883.71,1024.36,888.18,1022.35,890.16,1023.23z M914.61,1087.93c-0.57,0.15-1.69,0.65-1.1,1.83c1.32,2.66,2.7,5.33,4.49,7.67
				c1.02,1.33,2.75,1.15,3.57-0.72C922.7,1094.13,917.98,1087.73,914.61,1087.93z M883.13,1012.11c2.44,3.79,6.04,3.83,9.58,3.99
				c1.2,0.05,2.53-0.2,2.71-1.59c0.22-1.71-1.2-2.31-2.57-2.36C889.61,1012.03,886.37,1012.11,883.13,1012.11z M903.61,1051.67
				c3.14,1.14,5.93,2.18,8.59,3.58c1.08,0.56,2.33,0.92,3.1-0.36c0.69-1.16,0.01-2.27-0.75-3.19c-1.41-1.7-3.21-2.31-5.36-1.7
				C907.32,1050.53,905.47,1051.11,903.61,1051.67z M885.35,947.39c-2.32-2-5.38-1.04-7.53-2.68c-1.7-1.3-4.58-2.69-5.47-0.37
				c-0.88,2.28,2.56,1.44,3.95,2.25c0.99,0.57,1.95,1.23,3,1.67C881.32,949.13,883.32,949.41,885.35,947.39z M923.67,925.96
				c-0.87,0.05-1.54,0.03-2.2,0.14c-1.53,0.25-3.93-0.22-3.65,2.19c0.24,2.04,2.46,1.79,4.11,1.77c0.66-0.01,1.35-0.04,1.98-0.23
				c1.5-0.44,4.05-0.16,3.96-2.15C927.73,925.02,925.09,926.23,923.67,925.96z M878.43,995.65c-0.2-0.3-0.38-0.93-0.71-1.02
				c-3.75-1.02-6.68-3.54-10.01-5.32c-0.76-0.41-1.71-0.39-2.1,0.55c-0.38,0.92,0.31,1.65,1.03,2.01c3.2,1.63,6.43,3.21,9.7,4.71
				C877.06,996.91,877.99,996.85,878.43,995.65z M897.55,883.2c-1.32,0.06-2.42,0.09-2.7,1.3c-0.21,0.88,0.33,1.67,1.11,2.01
				c2.42,1.03,4.87,2,7.36,2.85c0.45,0.16,1.3-0.23,1.69-0.63c0.52-0.55,0.18-1.36-0.35-1.74
				C902.36,885.39,899.99,883.91,897.55,883.2z M921.12,905.79c-1.66,0.69-4.31,0.49-4.86,3.12c-0.37,1.77,1.25,2.24,2.63,2.04
				c2.28-0.33,4.93-0.77,5.48-3.39C924.7,905.93,922.75,905.86,921.12,905.79z M896.25,986.22c-1.55,1.31-4.75,1.12-5.1,3.75
				c-0.21,1.59,2.17,1.73,3.6,1.88c2.05,0.22,3.68-0.57,3.92-2.85C898.82,987.54,898.25,986.38,896.25,986.22z M878.67,897.68
				c2.41,2.82,4.98,4.27,7.47,5.74c0.93,0.55,2.41,0.63,2.95-0.77c0.46-1.19-0.6-1.88-1.52-2.12
				C884.79,899.81,882.75,897,878.67,897.68z M894.97,1040.42c-2.59-1.11-5.4-0.77-7.89-2.02c-0.86-0.43-2.1,0.01-2.35,1.16
				c-0.34,1.59,1.02,1.97,2.13,2.04C889.58,1041.76,892.36,1042.12,894.97,1040.42z M899.04,983.82c2.57-0.61,3.08-2.93,3.6-5.21
				c0.28-1.25,0.11-2.72-1.45-2.48c-2.73,0.42-3.16,3.15-4.07,5.17C896.59,982.52,897.32,983.55,899.04,983.82z M901.11,972.03
				c1.45-0.1,3.4,0.09,3.3-1.51c-0.15-2.29-2.49-2.22-4.24-2.37c-1.34-0.12-3.11,0.27-3.09,1.74
				C897.14,972.66,899.8,971.38,901.11,972.03z M885.47,1006.11c2.78,2.59,5.74,1.61,8.58,1.79c0.84,0.05,1.76-0.3,1.76-1.27
				c0.01-0.97-0.9-1.36-1.75-1.3C891.19,1005.54,888.33,1005.84,885.47,1006.11z M936.96,873.87c-2.7-0.95-5.03-1.14-7.15,0.49
				c-0.77,0.59-0.54,1.71,0.25,2.07c2.43,1.09,4.35-0.49,6.34-1.52C936.52,874.84,936.56,874.62,936.96,873.87z M885.44,989.85
				c-2.37-1.99-5.04-2.21-8.14-2.72C881.23,991.62,881.23,991.62,885.44,989.85z M932.73,890.62c-0.4-1.4-1.48-1.72-2.71-1.61
				c-1.42,0.13-2.79,0.69-2.51,2.37c0.24,1.44,1.68,1.41,2.84,1.26C931.54,892.5,932.65,892.12,932.73,890.62z"/>
			<path d="M1121.64,913.89c-21.18,6.2-41.26,3.1-61.35,1.15c-7.1-0.69-14.29,0.34-21.38-0.94c-1.56-0.28-3.21,0.3-3.24,2.22
				c-0.03,1.76,1.62,1.85,2.94,1.98c3.81,0.37,7.63,0.66,11.44,1.04c6.94,0.7,13.66,2.74,20.68,3.13c4.87,0.27,9.41,1.76,14.62,0.08
				c3.5-1.13,8.01,0.59,12,1.35c4.6,0.88,9.06,1.68,13.81,0.45c2.75-0.71,6.17-1.29,6.85,3.32c0.29,1.99,1.96,2.74,3.8,2.09
				c1.96-0.69,2.06-2.42,1.6-4.17c-1.02-3.93,0.25-5.22,4.29-4.11c1.25,0.34,2.42,1.09,3.54,1.79c2.4,1.5,2.45,2.97-0.21,4.28
				c-1.79,0.89-3.61,1.73-5.34,2.74c-1.28,0.74-1.96,1.96-1.09,3.37c0.74,1.21,1.98,0.99,3.14,0.59c0.31-0.11,0.61-0.27,0.91-0.4
				c8.5-3.57,8.5-3.57,18.54-0.89c-2.72,2.75-5.87,3.59-9.37,3.98c-1.87,0.21-4.57,0.49-4.18,3.19c0.33,2.28,2.86,1.97,4.59,1.91
				c8.03-0.31,14.56-4,20.41-9.23c1.54-1.38-0.2-3.27,1.26-4.96c4.27,1.75,6.24,5.55,8.16,9.34c0.45,0.9,0.25,2.2-0.69,2.69
				c-1.25,0.66-1.65-0.58-2.09-1.45c-1.85-3.68-3.47-2.25-5.53-0.01c-4.91,5.33-11.33,6.97-18.34,7.01c-3.3,0.02-6.69-0.19-9.9,0.45
				c-8.82,1.77-17.53-0.76-26.29-0.28c-2.88,0.16-4.98-1.72-7.49-2.54c-6.71-2.18-13.19-0.16-19.72,0.81
				c-2.01,0.3-3.3,1.66-2.94,3.91c0.47,3-1.37,3.03-3.35,2.53c-8.33-2.08-16.86-1.34-25.28-1.49c-6.93-0.13-12.98-2.65-19.2-4.93
				c-2.78-1.02-3.59-3.29-2.88-6.1c0.78-3.07,1.23-6.27,2.44-9.16c4.71-11.23,8.21-22.98,15.74-32.97
				c10.29-13.64,17.69-28.85,22.1-45.42c0.67-2.5,1.73-5.47-1.55-7.03c-2.96-1.41-5.67,0.18-6.81,2.57
				c-2.39,5.03-8.09,6.25-11.05,10.49c-0.41,0.58-1.42,0.92-2.2,1.04c-9.81,1.51-19.4,4.8-29.56,3.59
				c-3.99-0.48-8.31-0.24-10.08-4.88c-1.89-4.96-1.06-9.79,1.75-14.21c0.63-0.98,1.21-2.4,2.9-2.52c0.17,1.99-0.86,3.56-1.61,5.15
				c-2.98,6.27-0.03,11.7,6.88,12.34c8.9,0.83,17.62-0.32,26.19-2.72c1.39-0.39,3.34-0.61,3.16-2.56c-0.19-1.99-2.1-1.73-3.57-1.8
				c-3.65-0.17-7.29-0.35-10.94-0.51c-1.88-0.08-3.61-0.68-5.2-1.62c-1.65-0.98-3.39-2.58-2.11-4.37c1.33-1.87,2.41,0.59,3.51,1.24
				c3.29,1.96,6.91,2.28,10.59,2.35c4.32,0.08,8.65-0.37,12.93,0.66c2.99,0.72,4.67-0.29,3.8-3.65c-0.95-3.64,0.72-4.62,3.95-4.03
				c2.17,0.4,4.29,0.33,6.45-0.03c3.85-0.64,5.04-2.64,4.8-6.63c-0.79-13.43-1.16-26.89-1.66-40.34c-0.03-0.77,0.25-1.56,0.95-2.47
				c2.01,3.88,5.51,7.17,3.99,12.24c-0.79,2.65-0.27,5.24,2.73,5.18c5.83-0.12,11.47,1.62,17.4,0.83c7.4-0.99,14.01-2.66,20-7.81
				c4.69-4.03,10.74-6.7,16.53-9.19c8.71-3.74,14.88-10.67,21.55-16.76c7.81-7.14,15.69-14.4,21.59-23.46
				c6.79-10.43,6.33-15.85-2.76-24.41c-6.67-6.28-15-10.5-21.29-17.25c-0.92-0.99-2.25-1.63-3.62-0.79
				c-1.18,0.73-0.99,1.97-0.81,3.16c0.14,0.94,0.72,1.93-0.7,3.43c-5.54-11.04-14.09-19.05-24.56-25.26
				c4.42-0.28,8.15,1.16,10.94,3.86c8.28,7.99,19.1,11.97,28.28,18.46c8.1,5.73,16.68,11.04,21.82,20.02
				c2.22,3.89,2.59,7.73,0.08,11.78c-2.58,4.17-3.48,9.13-3.86,13.79c-1.34,16.69-9.66,29.54-21.13,40.86
				c-0.76,0.75-1.12,1.59-1.37,2.58c-0.2,0.79-0.63,2.21-0.9,2.2c-7.75-0.37-3.96,7.03-6.68,10.22c-2.52,2.95-3.29,2.44-4.88-0.01
				c-1.23-1.9-1.8-4.77-4.77-4.37c-3.21,0.42-4.54,3.29-5.55,5.87c-2.73,7.01-2.42,7.34,5,7.72c1.1,0.06,2.59-0.44,3,1.04
				c0.28,1.01-0.79,1.72-1.51,2.41c-0.96,0.91-2.2,1.69-2.77,2.8c-0.99,1.95-1.69,2.29-3.73,1c-3.12-1.97-9.67,0.15-11.39,3.25
				c-0.44,0.79-0.6,1.58-0.06,2.33c0.9,1.25,2.22,1.21,3.6,1.16c1.94-0.06,4.56-2.7,5.65,0.15c0.98,2.57-2.28,3.63-3.95,5.12
				c-1.21,1.08-2.16,2.28-4.3,1.46c-2.26-0.86-4.34,0.71-5.45,2.47c-1.44,2.28,0.86,2.87,2.35,3.96c1.92,1.4,0.67,3.19-0.55,4.22
				c-6.17,5.22-9.22,12.8-14.84,18.63c-10.17,10.54-5.19,27.75,8.95,34.51C1112.36,909.72,1116.59,911.57,1121.64,913.89z
				 M1054.52,946.57c0.01-0.1,0.02-0.19,0.03-0.29c1.49,0.07,2.98,0.21,4.47,0.19c1.57-0.02,3.19-0.4,3.32-2.27
				c0.15-2.15-1.52-2.72-3.3-2.87c-0.99-0.08-1.99-0.03-2.98-0.02c-4.85,0.08-9.88,2.98-14.46-1.47c-1.09-1.06-3.78-0.78-4.31,1.7
				c-0.46,2.13,1.22,3,2.94,3.25C1044.98,945.47,1049.75,945.99,1054.52,946.57z M1075.1,897.47c-1.16,0-2.32-0.05-3.47,0.02
				c-1.05,0.06-2.02,0.48-2.2,1.63c-0.23,1.52,0.95,2.23,2.08,2.25c6.84,0.12,13.69,0.28,20.52-0.01c2.18-0.09,2.09-2.44,1.26-3.97
				c-1.21-2.22-3.23-2.63-5.55-1.61C1083.7,897.58,1079.31,897,1075.1,897.47z M1120.09,938.46c-1.38-2.65-4.52-4.09-6.56-6.58
				c-1.58-1.94-3.99,1.27-5.92,2.32c-2.2,1.19-6.03,2.64-4.52,5.37c1.72,3.11,4.2-0.46,6.24-1.37c2.15-0.96,4.2-2.79,4.15,1.78
				c-0.02,1.78,1.99,1.97,3.57,1.72C1118.65,941.44,1119.85,940.67,1120.09,938.46z M1161.19,783.57c-0.2-1.7-1.11-2.85-2.95-1.87
				c-3.26,1.74-5.82,4.36-7.84,7.46c-0.59,0.9-0.6,1.93,0.71,2.37C1153.1,792.2,1161.21,785.87,1161.19,783.57z M1086.97,931.17
				c-3.97,1.29-8.46,1.19-11.22,4.79c-0.77,1-1.97,2.13-0.82,3.48c0.92,1.09,2.16,0.52,3.17-0.07
				C1081.64,937.3,1084.79,934.79,1086.97,931.17z M1113.86,812.36c1.87,0.21,3.45,0.97,4.48-0.66c0.69-1.09,0.36-2.27-0.39-3.22
				c-1.17-1.47-2.81-1.5-4.5-1.23c-1.35,0.22-2.65,0.76-3.32,1.91c-0.83,1.44-3.98,1.77-2.72,3.89c0.99,1.66,2.95-0.1,4.47-0.44
				C1112.68,812.45,1113.5,812.4,1113.86,812.36z M1072.1,880.1c-2.28,0.2-5.95-0.18-5.82,2.22c0.16,3.21,4.13,1.98,6.44,2.45
				c1.7,0.35,4.13,0,4-2.41C1076.56,879.55,1073.88,880.37,1072.1,880.1z M1167.7,770.88c-0.06-1.62-0.52-2.98-2.11-3.05
				c-2.44-0.1-3.56,1.56-3.65,3.78c-0.06,1.44,0.03,3.52,1.83,3.56C1166.38,775.22,1166.81,772.63,1167.7,770.88z M1091.37,853.72
				c1.56-0.04,3.04-0.4,3.31-2.19c0.29-1.87-1.01-2.65-2.63-2.75c-1.84-0.11-3.27,0.71-3.34,2.7
				C1088.65,853.1,1089.94,853.6,1091.37,853.72z M1135.72,803.78c2.24-0.78,3.39-2.8,4.3-4.91c0.37-0.86-0.5-1.72-1.43-1.37
				c-2,0.75-4.09,1.63-4.56,4.07C1133.81,802.63,1134.28,803.52,1135.72,803.78z M1101.61,933.17c-2.89,1.11-5.51,0.6-6.78,3.31
				c-0.28,0.61,0.28,1.29,1.04,1.32C1098.54,937.88,1100.51,936.95,1101.61,933.17z"/>
			<path d="M1183.57,418.45c12.97,6.61,9.7,6.89,5.72,20.5c-3.53,12.06-14.16,18.13-22.16,26.28c-9.41,9.58-19.93,18.06-29.71,27.29
				c-4.61,4.35-10.94,6.22-15.02,11.31c-1.21,1.52-3.56,0.55-5.12-0.36c-1.62-0.94-1.29-2.83-0.61-4.05
				c2.6-4.73,2.14-9.33,0.72-14.36c-1.27-4.52,0.1-9.24,1.04-13.83c3.89-18.97,1.72-36.74-10.73-52.35
				c-4.64-5.82-10.94-5.71-14.25,0.99c-3.39,6.86-10.33,9.81-14.55,15.47c-4.06,5.44-7.94,4.89-13.39,1.89
				c-5.18-2.84-10.17-5.47-13.84-10.27c-8.06-10.55-17.09-20.46-21.02-33.6c-1.49-4.99-5.9-8.3-7.67-13.26
				c-0.95-2.65-3.87-3.07-6.43-1.7c-4.54,2.44-9.18,4.78-13.41,7.69c-4.23,2.91-8.16,17.04-6.67,22.13
				c2.12,7.25,1.15,9.5-4.95,11.48c-0.97-1.14,0.14-1.79,0.63-2.54c3.41-5.2,2.48-7.73-3.7-9.07c-3.21-0.69-6.47-1.71-9.86-0.64
				c-0.92,0.29-2.12,0.26-2.58-0.89c-0.35-0.88,0.33-1.57,0.96-2.11c2.64-2.27,1.96-4.09-0.5-6.06c-2.24-1.8-3.92-4.14-3.92-7.22
				c0-1.24,0.56-2.32,1.9-2.61c1.47-0.32,2.35,0.63,2.41,1.87c0.28,5.67,3.99,8.48,8.53,10.69c0.3,0.14,0.55,0.43,0.86,0.5
				c2.1,0.48,2.65,5.19,5.32,2.81c2.26-2.01,3.09-5.69,2.32-8.79c-0.68-2.72-1.45-4.83,1.12-7.01c1.43-1.21-0.21-3.15-0.01-4.65
				c8.65-0.34,15.31-4.33,20.27-11.06c1.43-1.95,1.93-4.92-1.39-6.23c-3.84-1.52-1.64-2.86,0.12-3.86c3.17-1.82,6.27-0.85,8.77,1.34
				c3.26,2.85,5.55,1.97,7.87-1.13c1.61-2.15,3.08-4.34,4.09-6.83c1.42-3.48,3.04-6.43,7.65-3.81c1.02,0.58,2.55,0.27,4.26,0.4
				c-1.6,4.01-6.04,3.97-8.18,7.03c-3.17,4.54-6.3,9.38-11.87,11.8c-2.78,1.21-2.26,4.06-0.85,6.05
				c5.56,7.87,7.21,17.77,13.33,25.32c0.52,0.64,0.79,1.98,1.29,2.04c5.88,0.7,5.49,5.55,6.51,9.5c0.25,0.96,0.49,2.14,1.17,2.72
				c5.59,4.89,9.91,11.23,16.56,14.9c4.29,2.37,8.36,1.23,12.1-1.46c1.22-0.88,2.31-2.05,1.8-3.8c-0.44-1.51-1.8-1.95-3.13-2.1
				c-6.71-0.79-4.17-6.98-6.09-10.53c-1.3-2.41,0.47-3.95,2.71-4.95c1.47-0.65,1.95-2.2,2.63-3.53c0.44-0.85,0.86-2.05,2.11-1.61
				c1.16,0.41,0.96,1.67,0.89,2.62c-0.2,2.84-0.54,5.63-2.46,7.97c-0.75,0.91-1.37,2.12-0.58,3.21c1.02,1.4,2.47,0.63,3.65,0.17
				c5.96-2.32,8.47-11.74,3.66-15.88c-2.72-2.35-7-2.94-10.63-4.17c-3.25-1.1-4.65-3.32-3.74-6.5c0.95-3.33,0.53-6.18-1.45-8.97
				c-1.05-1.48-2.37-3.72-0.45-4.84c1.98-1.15,2.42,1.57,3.25,2.83c1.08,1.66,1.73,3.82,4.42,3.02c1.23-0.36,1.37,0.4,1.54,1.29
				c0.18,0.98,0.14,2.49,0.73,2.82c5.72,3.21,8.53,10.43,15.82,11.47c1.8,0.26,3.8,0.47,5.28,1.39c2.61,1.62,4.4,3.39,6.18-1.15
				c0.83-2.11,3.92-0.73,5.13,0.67c2.01,2.33,4.17,3.7,7.25,3.66c0.8-0.01,1.78,0.11,2.02,1.09c0.31,1.26-0.71,1.77-1.62,2.14
				c-2.55,1.03-5.24,0.78-7.89,0.6c-1.67-0.11-3.55-0.56-4.28,1.49c-0.72,2.02,0.51,3.58,2.01,4.73c3.82,2.93,7.81,5.51,10.91,9.41
				c3.23,4.06,2.9,9.1,4.83,13.48c1.09,2.49,0.59,5.65,3.48,7.36c0.8,0.47,0.75,1.41,0.44,2.25c-3.74,10.04-1.4,20.19-0.53,30.31
				c0.01,0.16,0.19,0.42,0.15,0.46c-5.27,4.16-1.07,9.34-1.58,14.01c-0.19,1.76-1.2,3.44-2.66,4.7c-0.82,0.71-1.36,1.63-0.24,2.48
				c0.92,0.7,2.11,0.53,2.6-0.45c1.46-2.92,4.06-4.17,6.85-5.44c2.06-0.95,2.34-2.74,0.53-4.42c-3.49-3.24-2.17-4.41,1.86-5.2
				c2.53-0.5,4.35-3.08,7.66-1.97c1.61,0.53,2.54-1.62,1.04-3.03c-1.65-1.55-3.44-3.24-6.1-2.86c-1.22,0.17-2.97,1.09-3.17-1
				c-0.17-1.75,0.97-3.12,2.79-3.67c0.32-0.1,0.79-0.28,0.96-0.14c4.29,3.45,9.35,1.42,14.03,2.05c0.62,0.08,1.26,0.62,1.81,0.09
				c1.01-0.97,0.62-2.12,0.24-3.26c-0.4-1.22-1.62-2.63-0.53-3.7c1.46-1.44,2.66,0.41,3.92,0.98c1.57,0.72,3.26,1.58,4.46-0.22
				c1.19-1.77,0.54-3.32-1.14-4.74c-2.22-1.88-5.95-4-4.63-6.91c1.26-2.78,5.37-1.42,8.26-1.27c2.75,0.14,5.58-1.18,8.29,0.57
				c0.86,0.55,1.99,0.11,2.56-0.9c0.69-1.23,0.26-2.45-0.76-3.09c-2.66-1.69-5.35-3.43-8.24-4.64c-2.23-0.93-2.11,1.38-2.52,2.69
				c-0.4,1.28-0.68,2.81-2.35,2.82c-1.93,0.02-2.23-1.72-2.66-3.13c-2.79-9.26-3.68-9.66-12.19-5.21
				c-3.94,2.06-8.41,1.82-12.56,2.96c-1.24,0.34-3.4,0.43-3.43-1.74c-0.03-1.75,1.59-2.45,3.18-2.56
				c5.55-0.41,10.72-2.27,15.75-4.37c5.22-2.18,5.39-3.31,2.59-8.13c-0.45-0.78-0.86-1.62,0.05-2.15c1.14-0.66,2.28-0.35,3.04,0.79
				c3.33,5.04,8.68,8.01,12.63,12.46c2.47,2.78,5.35,4.31,8.36-0.48c1.46-2.33,5.58-1.11,8.42-2.28c5.09-2.11,5.65-2.87,2.86-7.77
				c-0.76-1.32-1.02-2.44-0.08-3.66C1186.29,423.17,1186.02,421.07,1183.57,418.45z"/>
			<path d="M931.69,495.43c-2.85,2.48-5.89,1.4-8.51,1.92c-3.75,0.74-4.69,2.9-3.92,6.11c0.86,3.58,3.59,4.17,6.63,3.18
				c2.62-0.86,5.1-2.17,7.86-2.85c-1.28,2.31-3.45,3.32-5.74,3.81c-6.27,1.34-9.04,5.68-10.32,11.45c-0.29,1.31-0.72,2.71,0.73,3.59
				c1.36,0.82,2.7,0.25,3.65-0.71c7.5-7.63,17.49-11.24,26.48-16.45c1.25-0.72,2.84-2.24,3.92-0.63c1.22,1.81-1.05,2.36-2.17,3.16
				c-5.01,3.58-10.99,5.27-16.25,8.53c-8.85,5.49-16.9,11.28-19.76,22.01c-0.29,1.08-0.98,2.15-1.73,3.01
				c-8.67,9.82-13.1,22.16-19.79,33.15c-2.82,4.62-3.2,10.12-5.26,15.04c-1.16,2.77,0.88,5.03,2.24,7.35
				c-2.25,1.28-4.09,1.09-5.56-0.64c-1.6-1.89-2.23-4.05-1.13-6.5c4.01-8.94,6.41-18.55,11.52-27.05c1.89-3.14,3.67-6.15,6.36-8.81
				c4.16-4.12,5.16-10.24,8.12-15.23c5.44-9.18,5.17-19.68,5.7-29.93c0.2-3.89-0.59-7.69-1.94-11.26c-2.27-6-10.23-7.57-18.07-6.16
				c-13.18,2.37-26.08,7.93-39.95,4.88c-3.53-0.78-6.99,0.05-10.39,0.78c-12.07,2.58-20.49-3.41-27.88-11.75
				c-2.2-2.49-1.85-5.68-1.22-8.62c2.03-9.41,1.9-19.74,11.1-26.73c-0.53,4.16-2.43,7.43-4.04,10.74
				c-3.43,7.05-4.14,14.21-1.59,21.66c2.05,5.96,13.33,12.55,19.38,10.89c4.97-1.37,10.15-1.69,15.03-3.58
				c2.47-0.95,4.85,0.65,7.03,1.84c1.55,0.85,3.17,1.67,4.57,0.21c2.37-2.46,5.59-3.03,8.55-3.86c9.01-2.52,16.71-7.13,23.52-13.43
				c1.31-1.21,2.7-2.49,5.05-2.89c-0.46,4.29-3.71,6.49-6.02,9.25c-1.06,1.26-2.72,2.46-1.93,4.26c0.83,1.89,2.91,1.05,4.48,1.25
				c3.81,0.49,7.06-1.8,10.71-2.14c2.38-0.22,4.4-0.64,5.5,2.58c1.27,3.72,4.64,2.61,7.26,1.76c4.65-1.51,8.48-4.54,12.41-7.36
				c1.15-0.82,2.68-2.65,3.8-1.27c1.51,1.84-0.9,2.79-2.09,3.69c-2.65,2.01-5.26,4.11-8.41,5.34c-2.25,0.88-5.54,1.08-4.94,4.49
				C925.41,497.63,928.8,494.46,931.69,495.43z"/>
			<path d="M1122.05,398.04c7.71-2.73,11.34-10.36,6.76-14.59c-5.13-4.73-11.22-7.34-18.44-6.79c-3.14,0.24-6.31,0.17-9.46,0.04
				c-1.29-0.05-2.95-0.48-2.84-2.16c0.09-1.37,1.68-1.42,2.79-1.63c9.23-1.77,18.31-1.44,27.12,2.15c2.03,0.82,4.36,1.99,5.76-0.49
				c1.26-2.23-0.69-3.57-2.38-4.78c-0.92-0.66-2.25-1.46-2.41-2.37c-0.94-5.38-4.09-6.27-9.04-5.75c-3.37,0.35-6.9-0.81-10.35-1.39
				c-1.42-0.24-3.28-0.28-2.85-2.55c0.32-1.67,1.47-2.66,3.21-2.51c3.77,0.32,7.59,0.54,11.03,2.3c1.18,0.61,2.31,1.87,3.6,1.1
				c5.85-3.44,8.5,0.93,11.13,4.64c2.8,3.94,3.76,4.05,6.83,0.23c3.94-4.89,6.86-10.16,7.26-16.58c0.07-1.1,0.09-2.72,1.52-2.8
				c1.65-0.09,1.75,1.8,1.39,2.6c-3.36,7.42,1.22,13.57,2.82,20.26c1.18,4.95,4.23,7.93,8.27,9.98
				c11.95,6.07,21.45,14.42,26.54,27.12c0.77,1.93,3.37,2.92,2.74,5.97c-2.93-1.33-3.67-4.15-4.83-6.4
				c-4.55-8.8-11.02-15.59-19.94-20.02c-1.95-0.97-3.77-2.24-6.08-1.08c-0.87,0.44-1.7,0.41-1.93-0.67
				c-0.61-2.88-2.32-1.68-4.17-1.53c-4.24,0.36-8.27-0.38-10.17-4.97c-0.49-1.18-0.96-2.21-2.39-2.04c-1.2,0.14-1.5,1.19-1.63,2.22
				c-0.15,1.19-0.47,2.26-1.38,3.11c-2.55,2.38-1.43,4.24,0.7,6.24c4.7,4.43,4.65,6.71-0.15,10.69c-2.38,1.97-2.33,3.84-0.23,5.84
				c2.12,2.03,3.47,4.1,3.06,7.41c-0.44,3.57,2.81,4.97,5.34,6.5c4.65,2.81,3.86,2.71,0.37,6.7c-3.37,3.84-5.59,2.41-8.81,0.98
				c-2.38-1.06-4.82-1.89-7.7-1.06c-2.5,0.73-4.86-0.81-6.98-2.13c-1.57-0.98-1.99-2.63-1.54-4.4c0.39-1.55,1.66-1.98,3.09-1.99
				c1.69-0.01,3.41-0.02,4.05,2.07c0.41,1.33,0.21,3.55,2.37,3.03c2.24-0.54,1.58-2.58,1.11-4.17c-0.74-2.48-0.05-4.97-0.16-7.45
				c-0.28-6.27-4.51-8.66-9.72-5.48c-1,0.61-2.11,1.52-3.17,0.64c-1.46-1.23-0.36-2.76,0-4.15L1122.05,398.04z M1146.85,366.09
				c0.17,4.19,1.53,7.24,4.69,9.31c0.88,0.58,1.87,0.88,2.64-0.09c0.6-0.75,0.26-1.62-0.34-2.22c-1.85-1.86-2.74-4.03-2.67-6.68
				c0.04-1.57,0.45-3.87-1.81-3.91C1147.03,362.46,1147.01,364.8,1146.85,366.09z"/>
			<path d="M988.08,686.03c-4.79-1.18-9.66-2.09-14.35-3.59c-16.06-5.16-29.71-14.83-43.24-24.38c-12.32-8.7-24.23-18.04-33.32-30.5
				c-4.15-5.69-5.79-12.24-8.46-18.45c-0.78-1.81-0.55-5.07-3.61-4.36c-3.06,0.71-3.29,3.79-2.48,6.21
				c4.02,12.01,8.18,24,18.92,32.09c7.48,5.62,14.92,11.29,22.16,17.4c-4.65-1.4-9.69-2.07-13.43-5.33
				c-6.62-5.77-13.55-11.19-19.39-17.86c-4.31-4.93-6.68-10.65-8.45-16.77c-0.61-2.12-1.24-4.62-4.14-3.84
				c-2.73,0.74-1.75,3.17-1.4,5.07c1.29,7.02,2.2,14.12,6.11,20.39c5.63,9.03,13.14,15.61,23.35,19
				c15.48,5.14,30.68,10.92,44.63,19.55c3.22,1.99,6.05,4.43,8.68,7.66c-0.9,0.18-1.52,0.51-1.77,0.33
				c-8.16-6.09-17.01-10.92-26.53-14.53c-5.72-2.17-11.31-4.56-17.48-5.57c-6.37-1.04-12.55-2.51-19.13-1.74
				c-2.64,0.31-5.39-1.11-8.72-2.95c3.09-1.33,5.19-0.33,7.3,0.12c1.45,0.31,3.24,0.85,3.99-0.86c0.82-1.88-1.02-2.66-2.29-3.26
				c-8.7-4.11-13.24-11.91-17.57-19.83c-2.61-4.76-3.5-10.02-3.37-15.45c0.05-1.92,0.79-4.35-1.6-5.28
				c-2.33-0.91-2.82,1.73-4.11,2.84c-7.56,6.45-12.66,14.89-18.49,22.74c-0.86,1.15-1.35,3.87-3.4,2.53
				c-1.43-0.93,0.3-2.63,0.93-3.92c4.95-10.12,13.82-16.85,21.42-24.67c4.77-4.9,11.31-8.46,11.42-16.61
				c0.02-1.77,1.84-2.98,3.2-2.04c3.52,2.44,8.56,3.42,9.48,8.65c2.41,13.82,12.34,22.12,21.76,31.21
				c14.29,13.79,31.2,23.67,47.57,34.43c3.3,2.17,7.08,2.83,10.63,4.21c5.2,2.02,10.36,4.16,15.53,6.25
				C988.3,685.29,988.19,685.66,988.08,686.03z"/>
			<path d="M967.99,423.46c-4.2,0.7-9.29-0.15-14.1,0.34c-5.67,0.59-10.42,4.66-15.04,8.12c-1.99,1.49-3.7,3.36-5.69,4.85
				c-3.86,2.89-4.57,5.53-2.32,10.5c3.46,7.65,2.72,15.89-1.85,23.35c-1.91,3.11-3.93,6.16-5.97,9.2c-0.7,1.05-1.56,2.71-3.03,1.53
				c-1.26-1.02-0.16-2.44,0.53-3.56c4.74-7.7,7.83-15.93,8.1-25.06c0.04-1.32-0.01-2.67-0.26-3.97c-0.29-1.55-0.17-3.65-2.44-3.78
				c-1.99-0.11-2.87,1.49-3.33,3.15c-0.48,1.73-1.2,3.08-3.14,3.43c-0.31,0.06-0.85,0.29-0.85,0.44c-0.04,5.81-5.1,9.15-6.86,14.09
				c-0.31,0.86,0.18,2.25-1.3,2.01c-1.11-0.17-1.48-1.44-1.2-2.42c0.81-2.83,1.19-5.43-1.09-7.91c-1.08-1.17,0-2.11,1.21-2.61
				c4.16-1.72,6.86-4.82,9.27-8.6c3.75-5.87,8.9-10.85,13.85-15.51c3.5-3.3,6.9-7.49,11.69-9.52c0.97-0.41,2.65-0.29,2.14-2.04
				c-0.33-1.14-1.58-1.07-2.57-0.99c-1.53,0.11-3.2,0.53-3.04-1.92c0.13-2.04,1.47-2.96,3.32-3c1.12-0.03,2.93,0.02,3.28,0.66
				c3.04,5.59,8.29,3.02,12.65,3.74c2.02,0.33,3.12-0.36,3.95-2.1c1.07-2.25,3.32-3.17,4.79-1.32c4.11,5.12,7.96,1.82,11.77,0.05
				c1.38-0.64,2.4-1.97,3.85-0.53c1.46,1.45,1.81,3.18,0.55,4.95c-0.97,1.37-2.14,3.04-3.83,2.94
				C976.8,421.7,972.97,424.09,967.99,423.46z"/>
			<path d="M1041.14,669.83c-2.03,2.76-5.41,3.27-7.74,5.23c-0.78,0.65-1.73,1.31-1.41,2.42c0.33,1.14,1.51,1.16,2.51,1.17
				c2.37,0.03,4.73,0.01,7.28,0.88c-2.34,0.51-4.74,1.63-7.02,1.44c-13.49-1.15-27.31,0.57-40.44-3.56
				c-14.3-4.5-28.35-9.75-39.67-20.25c-6.76-6.27-15.17-10.22-22.39-15.85c-10.62-8.28-20.85-16.92-28.46-28.24
				c-1.36-2.02-3.21-3.71-5.69-6.53c4.09,0.49,6.38,2.52,7.42,4.64c4.01,8.19,11.96,12.29,18.25,17.99
				c12.33,11.17,26.77,19.66,39.85,29.92c9.34,7.33,20.41,10.72,31.7,14.02c13.89,4.05,26.89,2.85,39.83-2.99
				C1036.83,669.35,1038.77,668.34,1041.14,669.83z"/>
			<path d="M1054.41,318.66c-4.25-1.87-6.43-6.2-11.34-7.54c-2.02-0.55-0.91-5.76,0.05-8.77c2.82-8.84,6.58-17.25,11.39-25.22
				c3.72-6.16,9.56-9.58,15.58-12.75c5.15-2.71,9.71-6.28,14.9-9c15.01-7.86,33.63-1.88,45.14,8.68
				c5.77,5.29,9.82,11.62,13.76,18.16c0.76,1.27,2.02,2.98,0.3,3.89c-1.72,0.91-2.35-1.17-3.1-2.42
				c-6.06-10.11-13.58-18.86-24.13-24.49c-8.91-4.75-18.3-4.68-27.49-1.15c-12.18,4.68-23.05,11.49-32.5,20.68
				c-3.77,3.67-5.32,8.1-6.24,12.73c-0.85,4.26,0,8.81-2.59,12.81c-0.72,1.11-0.38,3.18,0.88,3.56
				C1054.7,309.5,1052.46,315.03,1054.41,318.66z"/>
			<path d="M1151.91,336.07c-1.72-5.22-3.75-9.41-8.03-12.14c-2.31-1.47-4.46-2.15-6.2-0.1c-2.01,2.38,0.54,3.39,2.17,4.44
				c2.36,1.52,3.06,4.29,4.93,6.62c-3.61-1.82-6.63-1.14-9.26,1.58c-0.41,0.42-1.58,0.86-1.68,0.72c-1.93-2.46-4.56-3.83-7.11-5.52
				c-3.28-2.18-1.23-5.47,0.52-8.32c3.36-5.49,9.19-7.58,15.23-5.08c1.67,0.69,3.18,1.92,5.16,1.51c1.21-0.25,2.17-0.87,2.62-2.07
				c0.42-1.14-0.12-2.29-1.07-2.45c-5.83-0.98-5.16-6.11-6.58-9.93c-0.63-1.71-0.14-4.78-2.95-4.35c-2.51,0.39-1.82,3.11-1.85,5.05
				c-0.03,1.61,0.56,3.31-0.63,4.79c-2.64-2.89-2.81-8.92-0.27-11.36c3.26-3.13,5.9-0.54,8.33,1.27c1.77,1.32,2.68,3.89,5.71,2.61
				c1.03-0.43,1.7,0.63,2.15,1.62C1154.67,308.45,1154.13,330.69,1151.91,336.07z"/>
			<path d="M1013.71,783.32c-2.39-2.91-0.66-6.13-3.01-8.29c-2.17,1.98-1.49,4.41-1.45,6.56c0.15,9.72,0.2,9.72-8.38,15.87
				c2.31-3.61,3.04-7.62,3.68-11.7c1.4-8.91,1.57-17.27-3.87-25.39c-5.26-7.85-9.28-16.52-13.93-24.79
				c-5.38-9.57-13.86-16.53-20.91-24.69c-3.37-3.9-6.73-7.81-10.04-11.75c-0.82-0.97-2.13-2.21-0.83-3.44
				c1.32-1.25,2.47,0.11,3.33,1.06c15.57,17.21,33.1,32.89,42.15,55.15c1.39,3.43,3.93,6.47,6.54,9.35
				C1012.37,767.22,1014.53,774.33,1013.71,783.32z"/>
			<path d="M922.74,949.77c6.88-2.75,13.35-6.3,21-6.8c21.72-1.42,43.42-2.94,65.2-2.73c2.24,0.02,4.21-0.82,6.28-1.42
				c0.99-0.29,2.07-0.23,2.54,0.91c0.47,1.15-0.24,2-1.18,2.4c-3.05,1.29-6.03,2.57-9.49,2.75c-17.07,0.88-34.17,0.84-51.22,2.46
				c-9.92,0.95-19.85,1.5-29.56,4C925.06,951.67,923.65,951.82,922.74,949.77z"/>
			<path d="M829.61,444.8c4.71-8.66,10.76-14.2,18.27-17.77c7.04-3.35,14.6-5.49,22.34-6.96c12.64-2.4,25.09-6.24,36.2-12.33
				c8.51-4.67,18.53-8.88,22.73-19.24c0.41-1,1.12-2.48,2.46-1.96c1.63,0.63,1.12,2.34,0.63,3.49c-2.1,5.01-3.59,10.44-10.13,11.94
				c-2.3,0.53-4.56,2.15-6.37,3.78c-6.68,6.01-15.36,8.33-22.9,12.75c-1.37,0.8-3.15,0.97-4.77,1.23c-1.14,0.19-2.64-0.43-3.44,0.11
				c-5.98,4.07-13.39,2.01-19.7,4.88c-6.5,2.95-13.68,4.22-20.08,7.5c-3.64,1.86-6.13,5.05-8.75,8.06
				C834.68,441.87,833.48,443.7,829.61,444.8z"/>
			<path d="M1075.06,658.18c0-2.3,1.43-3.34,2.34-4.69c6.82-10.18,13.86-20.33,16.48-32.57c1.72-8.02,1.32-16.24,0.48-24.36
				c-0.88-8.53,0.83-16.89,1.12-25.34c0.06-1.75,0.53-4.08,1.71-5.09c4.94-4.24,4.34-10.06,5.11-15.54
				c0.47-3.36,0.41-6.95,3.73-9.88c1.4,3.51,0.75,6.79-0.46,9.36c-2.65,5.67-2.77,11.9-4.84,17.7c-3.31,9.26-3.01,19.27-1.99,28.64
				c1.93,17.88-1.92,33.57-12.61,47.83c-2.47,3.3-4.51,6.94-6.7,10.45C1078.45,656.28,1077.54,657.86,1075.06,658.18z"/>
			<path d="M1048.26,732.63c-6.46-1.11-9.57,4.09-13.67,7.35c-1.23,0.98-1.72,3.07-3.84,2.52c-1.02-0.27-1.62-1.24-1.58-2.31
				c0.08-2.2,2.01-2.36,3.51-2.96c3.35-1.33,5.81-3.89,8.14-6.43c3.57-3.88,1.87-8.09-0.84-11.31c-2.24-2.66-4.43-5.22-6.15-8.28
				c-1.11-1.97-3-3.63-5.39-4.22c-1.87-0.46-2.63-1.58-3.13-3.38c-1.58-5.74-3.2-7.05-8.94-5.46c-7.6,2.1-14.73,1.98-21.72-1.75
				c-0.73-0.39-1.55-0.64-2.23-1.1c-1.01-0.7-1.82-1.65-1-2.92c0.62-0.97,1.79-1.13,2.65-0.5c8.45,6.24,17.59,3.15,26.52,1.87
				c3.43-0.49,5.34,0.36,6.32,3.78c0.95,3.29,2.69,6.12,6.51,6.83c1,0.19,1.79,0.62,2.38,1.58c5.15,8.47,12.01,16.14,12.36,26.82
				L1048.26,732.63z"/>
			<path d="M874.81,478.72c-5.09,2.96-9.36,2.04-12.46-4.12c-2.34-4.65-5.44-7.71-10.04-9.64c-0.89-0.38-1.78-0.97-1.27-3.2
				c3.53,3.02,7.4,4.81,11.35,6.45c1.34,0.56,2.96,2.12,3.96,0.57c1.29-1.98-1.05-2.26-2.28-2.83c-1.67-0.77-2.67-1.94-2.58-3.85
				c0.04-0.91,0.46-1.73,1.43-1.7c1.77,0.05,3.18,0.93,4.06,2.48c0.74,1.29,1.17,2.82,2.66,3.49c2.56,1.15,4.53,1.64,5.47-2.23
				c1.37-5.68,2.63-5.92,8.06-4.44c5.1,1.38,10.31,1.67,15.08-1.45c0.99-0.65,2-1.25,3.23-1.07c1.17,0.17,2.41,0.45,2.6,1.87
				c0.17,1.25-0.92,1.68-1.85,2c-2.64,0.92-5.2,1.69-8.18,1.66c-6.86-0.08-13.73,0.5-18.39,6.77c-0.37,0.5-1,0.9-1.59,1.14
				c-1.7,0.7-4.38,0.18-4.23,3.17c0.13,2.69,2.53,3.2,4.43,4.16C874.52,478.06,874.64,478.44,874.81,478.72z"/>
			<path d="M1075.51,482.65c0.01-12.64,0.54-22.49-3.26-31.86c-0.51-1.26-1.02-2.99,0.25-3.67c1.86-1.01,1.88,1.21,2.5,2.18
				c3.06,4.76,2.48,10.33,2.34,15.41c-0.2,7.15,0,14.32,0.77,21.3c0.62,5.67-0.66,10.51-2.39,15.46c-3.03,8.7-3.29,17.2,0.7,25.67
				c0.64,1.36,2.39,3.32,0.34,4.3c-1.92,0.93-2.37-1.7-3.34-2.91c-4.88-6.06-4.48-12.75-2.96-19.89
				C1072.47,499.1,1076.26,489.84,1075.51,482.65z"/>
			<path d="M1005.83,750.07c-2.38-0.85-1.82-2.8-2.1-4.28c-1.05-5.61-2.65-10.93-6.02-15.7c-2.66-3.76-3.82-8.12-3.37-12.78
				c0.32-3.34,0.51-6.59-0.91-9.8c-0.6-1.34-0.85-3.3,1.03-3.82c2.17-0.6,2.94,1.31,3.08,2.99c0.27,3.31,0.34,6.64,0.3,9.96
				c-0.1,7.87,4.15,12.69,11.99,12.63c4.01-0.03,4.02,2.06,4.28,4.97c0.31,3.48-1.79,3.65-4.03,3.28c-4.88-0.79-4.83,2.09-4.34,5.42
				C1006.08,745.28,1007.44,747.62,1005.83,750.07z"/>
			<path d="M1033.97,799.57c-0.96-7.51,2.44-17.26,0.32-27.06c-0.26-1.21,0.28-2.62,0.56-3.91c0.18-0.83,0.64-1.68,1.62-1.6
				c0.95,0.08,1.29,0.94,1.36,1.81c0.06,0.83,0.1,1.67,0.04,2.49c-1.43,18.76,1.32,37.5,0.12,56.26c-0.09,1.38,0.8,3.41-1.25,3.74
				c-1.54,0.25-1.73-1.74-2.32-2.86c-1.29-2.41-1.79-4.97-1.31-7.71C1034.19,814.47,1034.36,808.16,1033.97,799.57z"/>
			<path d="M858.61,474.67c-3.01,1.47-4.35,3.83-7.95,4.2c-4.29,0.45-0.19,3.28,0.08,5.35c-2.85-1.15-5.24-2.31-7.12-4.58
				c-1.74-2.1-3.77-2.79-5.51,0.28c-1.74,3.09-4.08,2.06-6.38,0.74c-1.69-0.97-3.2-2.19-1.94-4.35c1.24-2.14,2.73-3.44,5.7-2.34
				c4.05,1.5,6.04-2.58,8.89-4.21c1.33-0.76,2.16-1.93,3.86-0.95C851.48,470.71,854.78,472.52,858.61,474.67z"/>
			<path d="M1102.2,314.71c2.39-1.27,4.34-0.69,6.21-0.18c2.22,0.62,4.19,0.88,5.84-1.22c1.12-1.42,2.61-2.11,4.38-1.09
				c1.59,0.92,2.28,2.51,2.18,4.22c-0.4,6.27-4.71,10.36-8.62,14.57c-0.92,0.99-2.67,0.85-3.45-0.58c-0.8-1.47-1.43-3.77,0.36-4.44
				c5.37-2.01,1.62-3.77,0.2-5.82C1107.59,317.74,1104.7,316.96,1102.2,314.71z"/>
			<path d="M1009.36,340.65c6.23,2.47,6.73,4.84,2.36,9.51c-4.45,4.75-11,6.93-14.8,12.46c-1.25,1.82-1.78,3.62-0.69,5.56
				c1.09,1.94,2.77,1.37,4.36,0.66c0.9-0.4,1.78-0.83,2.96-1.38c-2.36,3.63-8.64,4.75-11.39,2.19c-1.99-1.85-2.54-4.01,0-5.89
				c4.36-3.24,8.25-6.73,8.83-12.62c0.16-1.64,1.54-1.84,2.97-2.02C1011.3,348.19,1011.8,347.37,1009.36,340.65z"/>
			<path d="M1122.18,397.91c-3.08,0.17-4.72-1.42-6.07-4.12c-2.45-4.89-4.07-5.1-8.21-1.47c-1.22,1.07-2.41,2.05-3.92,1.02
				c-1.5-1.03-1.11-2.56-0.52-4.05c1.48-3.69,3.59-6.37,8.14-5.7c2.46,0.36,4.95,0.51,7.41,0.87c1.41,0.21,3.19-0.12,3.86,1.66
				c0.69,1.83-0.69,2.72-1.96,3.55c-1.84,1.21-1.6,2.57-0.59,4.25c0.76,1.26,1.16,2.74,1.72,4.12
				C1122.05,398.04,1122.18,397.91,1122.18,397.91z"/>
			<path d="M969.14,687.65c0.86,0.8,2.13,1.67,3,2.84c5.58,7.59,12.83,13.85,17.6,22.08c0.77,1.32,2.77,2.95,0.94,4.24
				c-1.72,1.21-2.86-0.94-3.75-2.26c-4.94-7.3-10.09-14.34-18.2-18.56c-3.5-1.82-1.38-4.99-1.41-7.6
				C967.3,687.76,968.03,687.35,969.14,687.65z"/>
			<path d="M1057.73,417.09c1.49-7.35-2.29-12.08-3.91-17.32c-0.48-1.55-1.52-2.94-2.34-4.39c-1.18-2.07-2.69-4.93-0.1-6.03
				c2.03-0.86,2.17,2.66,2.92,4.27c3.54,7.58,8.23,14.68,9.77,23.12c0.32,1.78,1.05,3.51,1.23,5.3c0.14,1.34-1.03,2.58-2.17,1.56
				C1060.74,421.47,1058.01,419.39,1057.73,417.09z"/>
			<path d="M979.84,343.7c-2.28,3.17-4.16,5.99-6.27,8.63c-1,1.25-2.6,1.4-4.13,0.84c-1.61-0.59-2.3-1.87-2.24-3.5
				c0.15-3.97,0.36-7.94,0.55-11.91c0.15-3.11,2.54-4.39,4.71-5.96c4-2.89,4.01-4.6-0.02-8.47c2.49-0.97,4.34-0.35,5.64,1.52
				c1.65,2.37,0.5,4.85-1.23,6.26c-3.34,2.72-4.33,6.56-5.89,10.16c-0.84,1.93-2.16,4.17,0.36,5.76c2.7,1.71,4.24-0.15,5.57-2.29
				C977.31,344.07,977.93,343.45,979.84,343.7z"/>
			<path d="M990.21,389.98c-4.79,0.6-7.71-1.67-9.38-5.34c-1.42-3.12-3.37-4.2-6.69-3.55c-2.27,0.45-4.63,0.57-6.95,0.53
				c-1.97-0.04-3.68-1.07-3.79-3.24c-0.12-2.41,1.85-2.2,3.54-2.39c1.63-0.18,3.23-0.68,4.85-1.04c4.79-1.06,8.87-0.58,10.64,4.91
				C983.79,384.1,985.46,388.1,990.21,389.98z"/>
			<path d="M1048.16,732.75c6.43,4.2,8.36,11.37,11.52,17.68c3.9,7.77,5.87,16.22,7.83,24.63c0.32,1.37,0.04,2.88,0.04,5.03
				c-2.39-1.94-2.35-4.19-2.96-6.12c-3.84-12.15-6.75-24.67-14.39-35.28c-1.26-1.75-2.15-3.76-1.95-6.06
				C1048.26,732.63,1048.16,732.75,1048.16,732.75z"/>
			<path d="M1061.91,673.43c-3.06-0.69-4,1.6-5.11,3.64c-1.5,2.74-2.01,6-4.38,8.28c-0.99,0.95-2.08,1.92-3.42,0.74
				c-1.39-1.23-0.57-2.34,0.47-3.34c1.95-1.86,3.25-3.66,1-6.36c-1.16-1.4,0.65-1.92,1.6-2.35c2.25-1.04,4.52-2.06,6.86-2.87
				c2.87-0.98,5.54-2.06,7.24-4.84c0.87-1.43,2.38-2.95,4-1.44c1.38,1.28,1.59,3.97-0.05,4.84
				C1067.51,671.14,1065.65,674.54,1061.91,673.43z"/>
			<path d="M907.54,677.93c-14.26-0.78-27.98,0.63-40.42,8.42C877.72,674.17,896.21,672.54,907.54,677.93z"/>
			<path d="M1077.98,666.75c9.31,6.43,20.29,9.72,29.56,16.13c1.15,0.79,3.23,1.77,2.18,3.31c-1.06,1.55-2.77-0.05-3.88-0.85
				c-5.32-3.81-11.35-6.27-17.17-9.11C1084.28,674.09,1080.54,671.21,1077.98,666.75z"/>
			<path d="M1173.82,402.51c-0.11,0.3-0.15,1.01-0.44,1.14c-3.45,1.52-3.48,5.03-4.56,7.87c-0.69,1.81-1.74,2.72-3.67,2.71
				c-1.99-0.02-3.24-1.02-3.35-2.94c-0.14-2.51-1.73-3.74-3.56-5.01c-1.12-0.78-1.64-2.09-1.26-3.54c0.2-0.76,0.81-1.06,1.51-0.96
				c1.26,0.18,2.02,1.03,2.59,2.11c0.71,1.33,0.15,3.78,2.61,3.61c2.54-0.17,1.48-2.49,1.96-3.91c0.92-2.72,3.58-2.71,5.73-3.3
				C1172.73,399.91,1173.38,401.15,1173.82,402.51z"/>
			<path d="M898.81,578.13c4.38,11.41,3.66,23.88,13.16,32.97C902.58,608.82,894.85,589.17,898.81,578.13z"/>
			<path d="M1037.68,322.39c-0.54,7.66,0.35,14.23,3.22,20.48c0.93,2.02-0.7,3.81-1.89,5.38c-1.23,1.61-2.7,0.9-2.85-0.62
				c-0.79-7.97-3.07-15.95-0.4-23.98C1035.83,323.41,1036.27,323.29,1037.68,322.39z"/>
			<path d="M1012.1,413.55c-0.28,4.13-0.37,7.1,0.17,10.08c0.24,1.34,1.04,3.49-1.16,3.54c-1.61,0.04-1.21-2.07-1.14-3.31
				c0.41-7.22-0.44-14.23-2.97-21.05c-0.76-2.04-1.56-3.99-2.95-5.71c-0.67-0.83-1.99-2.02-0.71-2.95c1.42-1.04,2.43,0.46,3.11,1.55
				C1010.05,401.51,1013.84,407.28,1012.1,413.55z"/>
			<path d="M1109.43,347.38c-1.24,1.73-2.14,3.97-3.8,5.11c-3.7,2.54-6.48,6.07-10.08,8.67c-1.27,0.92-2.94,1.84-3.88,0.16
				c-1.21-2.16,0.94-2.25,2.32-2.63c0.32-0.09,0.65-0.16,0.95-0.28c3.49-1.43,0.82-6.51,3.73-7.35c2.85-0.82,6-0.2,7.05-3.99
				c0.34-1.24,1.01-2.15,2.5-1.64C1109.11,345.71,1109.45,346.43,1109.43,347.38z"/>
			<path d="M912.36,694.24c11.73-4.24,30.72-2.48,34.63,2.95C936.02,691.67,924.41,697.22,912.36,694.24z"/>
			<path d="M983.01,359.98c-0.28-0.15-0.83-0.27-1.08-0.61c-0.57-0.78-0.24-1.6,0.33-2.24c2.58-2.95,3.91-6.33,4.63-10.22
				c0.53-2.87,3.58-3.63,6.15-4.23c1.12-0.26,2.5,0.2,3,1.32c0.68,1.52-0.88,1.85-1.79,2.45c-4.16,2.73-5.82,7.47-8.83,11.12
				C984.71,358.41,984.6,359.75,983.01,359.98z"/>
			<path d="M1113.12,953.25c-10.86-0.07-21.75-0.67-33.44-3.26C1091.9,946.86,1102.19,953.14,1113.12,953.25z"/>
			<path d="M1127.7,300.72c2.37,3.86,2.9,6.99,3.39,10c0.41,2.56-1.02,4.79-3.73,4.9c-2.99,0.12-2.42-2.62-2.45-4.45
				C1124.84,307.83,1126.01,304.79,1127.7,300.72z"/>
			<path d="M1019.38,711.33c-4.54,4.42-6.33,4.51-9.11,0.19c-1.35-2.11-5.79-4.27-2.95-6.82c2.68-2.41,3.92,2.2,5.73,3.73
				C1014.75,709.86,1016.64,710.74,1019.38,711.33z"/>
			<path d="M945.39,363.23c3.68-6.01,7.34-12.04,11.07-18.03c0.5-0.8,1.37-1.83,2.41-1.31c1.5,0.76,0.64,2.07,0.08,2.98
				c-3.73,6-9.22,10.67-12.02,17.39C946.41,363.92,945.9,363.57,945.39,363.23z"/>
			<path d="M1096.59,321.33c2.21,0.91,6.03,0.15,6.26,3.34c0.13,1.84-3.03,3.63-5.32,3.58c-2.63-0.06-4.78-2.49-5.24-4.61
				C1091.84,321.59,1094.7,321.61,1096.59,321.33z"/>
			<path d="M1083.29,316.32c2.53-5.76,9.82-6.92,16.56-2.32C1093.44,313.82,1087.91,312.47,1083.29,316.32z"/>
			<path d="M948.54,469.66c3.4-4.35,6.73-8.75,11.16-12.1c0.46,0.44,0.93,0.87,1.39,1.31c-3.72,4.04-7.45,8.09-11.17,12.13
				C949.46,470.56,949,470.11,948.54,469.66z"/>
			<path d="M1110.12,519.86c-1.58,5.18,0.19,10.9-2.74,16.25C1105.42,533.06,1107.2,521.93,1110.12,519.86z"/>
			<path d="M846.57,673.68c1.71-4.14,1.76-9,5.52-12.25C853.67,665.08,851.32,670.61,846.57,673.68z"/>
			<path d="M1010.22,835.51c-0.23-3.17-0.68-5.59-0.5-7.97c0.13-1.7,1.61-3.29,3.35-3.03c2.13,0.32,1.47,2.32,0.93,3.62
				C1013.09,830.35,1013.52,833.17,1010.22,835.51z"/>
			<path d="M958.2,387.49c0.19-2.06-0.55-4.51,1.98-4.77c2.03-0.21,2.62,1.79,2.54,3.55c-0.1,2.07-0.81,4.52-2.94,4.69
				C956.99,391.18,959.11,388.34,958.2,387.49z"/>
			<path d="M944.81,802.7c2.42-0.03,3.28,1.82,3.58,4.17c0.23,1.82-0.57,3.14-2.42,2.88c-2.73-0.37-2.72-3.01-3.34-4.98
				C942.19,803.36,942.84,802.53,944.81,802.7z"/>
			<path d="M1060.21,381.2c-0.21,1.23,0.59,3.53-1.01,3.28c-2.73-0.42-3.38-3.28-3.91-5.67c-0.33-1.5-0.03-3.44,1.99-3.12
				C1060.34,376.18,1059.72,379.11,1060.21,381.2z"/>
			<path d="M989.18,435.65c0.18,4.8,1.05,9.72-0.86,14.47C986.81,445.25,989.49,440.53,989.18,435.65z"/>
			<path d="M1078.54,778.9c-1.39-5.68,1.25-10.18,2.51-15.41C1081.71,767.84,1080.52,775.23,1078.54,778.9z"/>
			<path d="M1148.52,922.4c-4.29,1.26-6.8-1.69-9.88-2.22c-0.31-0.05-0.76-0.75-0.72-1.1c0.12-1.1,1.14-1.1,1.89-1.02
				C1142.91,918.4,1145.8,919.26,1148.52,922.4z"/>
			<path d="M925.14,428.95c-0.09,1.18-0.87,1.67-1.92,1.88c-1.28,0.26-2.56,0.5-3.83,0.8c-1.32,0.32-2.43,3.54-3.77,0.97
				c-1.02-1.95,1.98-2.02,3.13-2.95c1.14-0.91,2.46-1.68,3.82-2.17C923.7,427.08,924.89,427.37,925.14,428.95z"/>
			<path d="M1117.29,509.59c-1.41,2.04-0.95,5.57-4.29,6.44c-1.05,0.27-1.12-0.99-1.05-1.78c0.25-2.81,1.83-4.9,4.06-6.36
				C1116.78,507.4,1117.37,508.43,1117.29,509.59z"/>
			<path d="M1090.95,378.57c-1.55-0.05-2.99-0.53-2.89-2.15c0.13-2.14,1.96-2.98,3.81-3.36c1.3-0.27,2.45,0.3,2.35,1.8
				C1094.08,376.88,1093.01,378.27,1090.95,378.57z"/>
			<path d="M1085.8,366.53c-1.1,1.47-1.66,3.69-3.94,3.87c-1.49,0.12-1.76-1.27-1.67-2.45c0.16-2.02,1.14-3.42,3.37-3.35
				C1084.68,364.64,1085.94,364.77,1085.8,366.53z"/>
			<path d="M1025.49,737.15c-0.44,1.83-1.79,2.39-3.38,2.03c-1.7-0.39-4.2-0.79-3.96-2.9c0.21-1.91,2.68-1.44,4.25-1.53
				C1023.99,734.65,1025.36,735.18,1025.49,737.15z"/>
			<path d="M934.99,493.1c2.95-2.18,5.84-4.46,9.63-5.54C942.76,491.73,940.67,493,934.99,493.1z"/>
			<path d="M959.22,477.66c-3.2,2.44-6.4,4.89-9.59,7.33c-0.32-0.39-0.63-0.78-0.95-1.17c3.14-2.46,6.28-4.91,9.42-7.37
				C958.47,476.86,958.85,477.26,959.22,477.66z"/>
			<path d="M1032.9,751.27c-0.2,1.65-0.65,3.22-2.84,3.21c-1.16-0.01-1.96-0.78-1.82-1.88c0.24-1.97,1.47-3.45,3.42-3.68
				C1032.88,748.77,1032.92,750.15,1032.9,751.27z"/>
			<path d="M1061.57,394.31c2.9,3.19,2.81,7.64,4.87,11.19C1062.54,402.72,1062.18,398.46,1061.57,394.31z"/>
			<path d="M917.59,808.75c1.78,1.56,3.17,3.5,3.52,6.01c0.13,0.89-0.6,1.83-1.45,1.3c-2.19-1.37-2.92-3.75-3.46-6.12
				C916.05,809.28,916.65,808.79,917.59,808.75z"/>
			<path d="M999.44,339.18c0.04-1.4-0.26-2.94,1.49-2.8c1.85,0.15,3.03,1.46,2.96,3.36c-0.05,1.46-1.15,2.63-2.56,2.61
				C999.05,342.32,999.91,340.17,999.44,339.18z"/>
			<path d="M1039.5,388.35c-0.22,1.02,0.26,2.8-1.36,2.62c-1.78-0.19-1.89-2.09-1.94-3.57c-0.04-1.15,0.13-2.65,1.74-2.35
				C1039.59,385.37,1039.36,387.03,1039.5,388.35z"/>
			<path d="M1042.69,397.16c-0.01,1.21-0.37,2.22-1.65,2.06c-1.97-0.25-2.03-1.94-2.06-3.44c-0.02-0.97,0.11-2.29,1.47-2.04
				C1042.25,394.07,1042.36,395.8,1042.69,397.16z"/>
			<path d="M1044.54,320.03c1.85,0.16,2.5,1.35,2.45,3.01c-0.04,1.21-0.41,2.41-1.95,2.2c-1.68-0.22-2.54-1.44-2.63-3.05
				C1042.33,320.83,1043.22,320.17,1044.54,320.03z"/>
			<path d="M898.58,447.66c-1.43-0.34-3.1-0.72-3.34-2.44c-0.24-1.73,1.43-1.49,2.5-1.56c1.39-0.08,2.78,0.21,3.02,1.89
				C900.98,447.05,900,447.61,898.58,447.66z"/>
			<path d="M946.99,829.67c-1.26,0-1.82-0.76-1.87-1.87c-0.06-1.33,0.66-2.22,1.94-2.52c1.11-0.27,2.13,0.06,2.08,1.36
				C949.08,828,948.44,829.18,946.99,829.67z"/>
		</g>
	</g>
	<g>
		<g>
			<path class="st0" d="M941.71,769.07c-0.07-2.51,2.35-2.73,3.76-3.84c10.37-8.18,21.68-9.97,32.85-2.61
				c11.36,7.49,19.09,17.64,16.68,32.56c-0.2,1.21-0.39,2.53,0.74,3.19c2.22,1.29,2.38,2.9,1.39,5.03
				c-0.53,1.15-0.45,2.34,0.94,2.92c1.17,0.49,2.37,0.39,3.21-0.6c1.07-1.27,1.93-2.72,2.99-4c0.8-0.96,1.48-2.64,3.09-1.77
				c1.13,0.62,0.95,2.13,0.61,3.21c-1.99,6.32-1.09,12.77-0.96,19.19c0.01,0.5,0.08,1.01,0.01,1.5c-0.32,2.16-0.65,4.9-3.44,4.47
				c-2.36-0.36-2.27-2.93-1.93-4.99c0.14-0.82,0.37-1.63,0.61-2.42c0.77-2.52,2.29-5.29-0.52-7.31c-2.62-1.88-5.64-0.83-8.04,0.58
				c-9.02,5.29-17.39,12.33-22.1,21.11c-7.34,13.66-17.26,26.47-20.36,41.93c-1.61,8.06-5.26,15.72-5.09,24.17
				c0.08,3.82-3.37,6.03-5.28,8.79c-4.41,6.37-5.77,14.13-10.09,20.47c-0.64,0.94-0.9,2.16-1.56,3.08
				c-10.2,14.09-17.04,30.01-23.65,45.88c-2.61,6.26-4.61,13.39-4.22,20.68c0.32,6.05,2.63,7.36,7.95,4.19
				c0.57-0.34,1.24-0.62,1.66-1.11c9.92-11.64,24.54-11.63,37.7-14.92c9.96-2.49,20.23-3.76,30.36-5.6
				c2.85-0.52,4.97-1.97,5.64-4.94c0.98-4.38,4.15-5.52,8.11-6.02c20.32-2.53,40.71-4.3,61.09-6.27c6.07-0.59,12.03-2.4,18.02-3.72
				c2.6-0.57,5.15-1.38,7.76-1.9c1.45-0.29,3.41-0.49,3.78,1.36c0.34,1.71-1.62,1.71-2.82,2.15c-12.6,4.66-25.91,5.75-39.07,7.43
				c-15.51,1.98-31.09,3.51-46.64,5.22c-2.15,0.24-4.14,1-4.53,3.24c-1.06,5.97-5.66,7.42-10.48,8.43
				c-15.93,3.34-32.21,4.81-47.96,9.17c-4.07,1.13-8.26,2.14-11.18,5.21c-3.94,4.12-8.98,6.27-13.89,8.52
				c-5.06,2.32-5.4,5.55-4.56,10.5c1.97,11.62,8.89,20.2,16.12,28.74c4.96,5.87,11,9.91,18.34,12.43
				c12.32,4.23,21.26,12.15,25.15,25.01c0.59,1.96,1.95,3.45,3.37,4.89c4.56,4.66,4.22,8.2-1.49,11.47
				c-7.1,4.07-15.07,6.33-22.77,8.57c-13.83,4.03-28.14,5.47-42.26,0.53c-9.64-3.38-18.38-8.64-26.96-14.01
				c-13.52-8.46-25.66-19.08-40.36-25.69c-2.4-1.08-4.36-2.69-2.65-5.33c3.97-6.09,2.91-13.23,4.19-19.8
				c1.46-7.5,4.63-13.91,9.92-18.47c6.12-5.28,8.26-12.4,11.32-18.99c6.23-13.41,6.28-28.1,7.06-42.57c0.2-3.68-1.27-5.66-4.86-5.04
				c-6.56,1.14-13.15,2.03-19.72,3.05c-3.62,0.57-5.97,4.13-9.94,5.18c-12.16,3.21-24.2,0.64-36.28,0.35
				c-5.16-0.12-10.32-0.42-15.47-0.6c-1.32-0.05-2.92-0.26-3.46,1.29c-0.64,1.84,0.98,2.66,2.21,3.44c3.3,2.11,7.15,2.68,10.84,3.61
				c8.2,2.06,14.96,6.27,19.95,13.1c2.66,3.64,1.98,5.84-2.3,7.69c-6.41,2.78-12.9,5.36-19.32,8.12c-2.9,1.25-6.32,2.44-5.92,6.44
				c0.38,3.75,2.65,6.3,6.42,7.5c9.02,2.86,17.87,6.18,27.04,8.61c5.07,1.34,8.57,6.14,13.98,7.23c0.98,0.2,1.57,1.79,0.8,3
				c-0.62,0.97-1.72,1.01-2.69,0.64c-1.4-0.52-2.81-1.08-4.11-1.82c-8.54-4.85-18.16-7.02-27.08-10.95
				c-4.64-2.05-10.04-1.58-14.48-4.96c-3.92-2.98-5.62-6.87-5.56-11.13c0.06-4.04,3.83-5.82,7.35-7.28
				c5.99-2.48,11.91-5.13,17.86-7.73c3.81-1.67,3.68-3.94,0.78-6.36c-5.42-4.52-11.23-8.29-18.49-9.19
				c-5.16-0.64-9.4-3.38-13.27-6.57c-2.64-2.18-1.92-4.76,1.04-5.82c7.54-2.72,15.22-3.89,23.4-2.95
				c10.7,1.23,21.51,1.75,32.29,0.61c0.49-0.05,1.11-0.06,1.44-0.34c9.18-8,20.96-6.04,31.64-8.04c4.58-0.86,6.39-2.53,6.11-7.1
				c-0.89-14.81-0.44-29.62-0.32-44.44c0.1-12.06,3.5-23.17,7.63-34.29c2.77-7.46,6.48-14.48,9.97-21.54
				c2.51-5.08,5.91-9.9,8.96-14.8c3.14-5.05,4.51-10.69,7.21-15.82c1.5-2.85-0.37-5.34-1.85-7.37
				c-6.41-8.79-10.43-18.93-16.14-28.09c-3.56-5.71-8.29-10.45-13.08-15.04c-9.83-9.42-16.59-20.2-17.5-34.19
				c-0.49-7.55-3.09-14.59-6.23-21.47c-2.68-5.86-2.26-12.38-3.01-18.64c-0.26-2.14-0.11-4.34-0.94-6.39
				c-4.92-12.13-2.91-23.59,3.25-34.68c0.62-1.12,1.13-3.03,2.63-2.45c1.91,0.74,0.95,2.72,0.25,3.81
				c-4.39,6.78-4.19,14.57-5.1,22.12c-0.16,1.35-0.26,3.12,1.23,3.45c4.63,1.03,3.28,4.28,2.82,7.08
				c-1.24,7.45,0.38,14.58,2.11,21.71c0.36,1.48,0.96,3.22,2.55,3.44c4.69,0.63,3.9,3.99,4.05,7.14c0.46,9.53,0.38,19.12,3.92,28.25
				c1.81,4.66,5.15,8.12,8.48,11.56c5.54,5.73,10.13,12.32,16.33,17.46c4.06,3.36,8.13,3.64,12.45,1.2
				c9.69-5.47,20.34-9.05,29.66-15.27c2.75-1.84,5.97-3.02,9.35-3.24c1.32-0.09,2.88,0.29,3.02,1.96c0.13,1.43-1.22,1.92-2.36,2.12
				c-9.27,1.65-16.64,6.97-24.5,11.71c-5.67,3.42-12.57,4.95-18.82,7.68c-3.72,1.63-4.22,3.1-2.39,6.23
				c3.35,5.72,7.15,11.15,9.1,17.67c1.02,3.41,3.21,1.76,4.77-0.12c3.3-3.97,6.54-7.98,9.9-11.89c1.01-1.17,2.43-3.23,3.93-1.76
				c1.2,1.17-0.13,3.15-1.49,4.22c-8,6.29-11.04,15.46-14.07,24.54c-2.36,7.06,1.98,14.66,9.29,17.21
				c13.41,4.68,27.35,6.91,41.37,8.63c10.08,1.23,15.3-2.47,18.48-12.26c2.17-6.66,8.19-10.3,12.18-15.54
				c4.33-5.68,4.67-5.99-1.02-10.37c-0.9-0.7-1.76-1.58-2.33-2.55c-0.83-1.4-2.07-3.26-0.8-4.58c1.38-1.43,2.51,0.67,3.71,1.31
				c1.87,0.98,3.61,1.86,4.97,3.83c1.85,2.68,3.71,0.78,5.08-1.1c3.68-5.01,4.37-11.02,3.73-16.71
				c-1.38-12.24-8.06-21.27-19.18-26.71c-10.05-4.92-19.33-2.05-28.22,3.34C943.73,768.9,943.11,769.88,941.71,769.07z
				 M933.07,1109.37c8.24-1.46,16.37-3.42,23.69-7.74c1.03-0.61,1.91-1.56,1.31-2.89c-0.7-1.53-2.09-1.52-3.43-1.04
				c-1.09,0.39-2.14,0.93-3.14,1.51c-12.18,7.07-24.91,11.21-39.2,7.77c-3.52-0.85-7.44-0.49-10.7-1.83
				c-8.9-3.66-17.42-8.12-25.26-13.84c-7.21-5.26-13.5-11.75-22.17-15.07c-6.54-2.51-12.28-6.63-16.54-12.44
				c-0.84-1.14-1.91-1.99-3.39-1.19c-1.4,0.75-1.52,2.12-1.25,3.49c0.69,3.51,2.68,5.89,5.96,7.47c4.79,2.3,9.85,4.36,14.06,7.51
				c11.19,8.39,22.28,16.92,34.73,23.37c13.08,6.76,26.54,11.75,41.43,5.41C930.33,1109.36,931.77,1109.51,933.07,1109.37z
				 M923.58,1061.63c-0.13,0.09-1.14,0.58-1.09,0.74c1.77,5.63-2.8,5.87-6.05,7.35c-0.93,0.42-1.39,1.54-0.74,2.55
				c0.61,0.96,1.98,1.24,2.66,0.66c3.5-2.98,6.82-1.13,10.54-0.5c3.75,0.63,5.35,1.7,5.26,5.49c-0.05,1.88,1.24,3.23,3.24,2.94
				c4.44-0.64,6.73,2.14,8.54,5.35c1.17,2.08,2.46,3.03,4.77,2.34c1.14-0.34,2.25-0.49,3.38,0.12c1.14,0.62,2.45,1.66,3.51,0.13
				c0.97-1.39,0.37-2.99-0.52-4.2c-2.26-3.07-4.55-6.14-7.06-9.01C943.13,1067.74,933.62,1064.62,923.58,1061.63z M854.05,1045.61
				c-0.19,3.3,1.58,4.17,3.01,5.19c9.47,6.74,19.46,12.46,30.47,16.45c6.48,2.35,12.81,4.51,19.79,2.93
				c1.1-0.25,2.53-0.42,2.59-1.88c0.06-1.43-1.3-1.97-2.4-2.11c-2.46-0.31-4.95-0.38-7.44-0.48c-1.65-0.07-3.52,0.54-4.85-0.59
				c-4.4-3.75-10.02-4.21-15.14-6.05c-4.75-1.71-10-3.11-13.77-6.19C862.6,1049.83,858.64,1048.01,854.05,1045.61z M899.04,934.6
				c-1.95,0.25-5.53-1.6-5.59,0.83c-0.09,3.42,3.5,2.45,5.91,2.26c0.33-0.03,0.66-0.15,0.99-0.12c2.24,0.18,5.16-0.4,3.66,3.66
				c-0.66,1.79,0.78,2.46,2.18,2.49c2.98,0.07,5.98-0.05,8.96-0.18c1-0.05,2.54-0.71,2.15-1.55c-1.64-3.56,1.24-3.74,3.15-4.74
				c1.42-0.74,3.61-1.22,3-3.33c-0.72-2.48-2.91-1.38-4.66-1.2C912.21,933.36,905.62,933.97,899.04,934.6z M937.85,882.42
				c-5.82-2.61-10.8-3.75-16.11-1.69c-1.9,0.74-3.88,0.5-5.9,0.33c-6.21-0.53-11.88-3.07-17.85-4.48c-1.07-0.25-2.51-0.72-3.04,0.73
				c-0.43,1.17,1.09,1.44,1.6,2.19c2.45,3.64,6.66,1.26,9.64,2.9c6.85,3.76,14.24,2.58,21.42,2.08
				C930.69,884.27,934.18,884.62,937.85,882.42z M903.5,964.78c4.83,1.49,6.13,0.66,6.23-3.98c0.04-1.72-0.89-3.7,1.66-4.56
				c1.47-0.49,3.6-0.66,2.86-3.12c-0.36-1.2-1.47-1.8-2.71-1.84c-1.97-0.07-3.15,1.01-3.35,2.92c-0.35,3.39-2.49,4.25-5.25,3.41
				c-4.08-1.25-8.28,0.17-12.33-0.92c-0.78-0.21-1.76-0.27-2.1,0.72c-0.41,1.19,0.42,2.11,1.35,2.27c4.02,0.68,8.06,1.36,12.12,1.58
				c1.39,0.08,3.13-2.17,4.31-0.08C907.77,963.82,903.97,963.17,903.5,964.78z M925.59,1075.66c-2.06,0.15-5.2,6.31-4.26,8.16
				c0.95,1.88,2.97,5.03,4.17,4.22c4.1-2.77,5.4,0.1,7.33,2.47c0.73,0.89,1.84,1.85,2.98,1.06c1.23-0.85,0.48-2.17-0.14-3.1
				c-2.47-3.67-4.98-7.31-7.6-10.87C927.42,1076.72,926.3,1076.19,925.59,1075.66z M906.25,875.16c0.52-0.04,2.34,0.38,2.69-1.14
				c0.45-2.01-1.52-2.15-2.93-2.54c-8.24-2.31-17.23-2.35-24.36-8.08c-1.06-0.85-2.67-1.07-3.47,0.43
				c-0.76,1.43,0.08,2.69,1.47,3.19C888.15,870.12,896.62,873.3,906.25,875.16z M941.85,895.16c-0.28-0.67-0.32-1.07-0.54-1.22
				c-0.85-0.62-1.64-0.17-2.21,0.42c-3.74,3.86-10.7,4.66-10.9,12.01c-0.04,1.49-1.11,2.9,0.84,3.47c1.9,0.56,4.19,0.85,4.64-2.03
				c0.17-1.1-0.44-2.78,1.1-2.84C941.87,904.69,936.18,895.97,941.85,895.16z M906.64,856.49c1.58-0.48,2.96,0.03,3.51-1.41
				c0.28-0.74-0.19-1.42-0.82-1.58c-6.16-1.64-11.33-5.43-17.16-7.77c-1.13-0.46-2.38-0.33-2.9,1.07c-0.39,1.06,0.03,2.26,0.96,2.57
				C896.02,851.3,901.47,854.04,906.64,856.49z M903.63,901.29c1.74-0.23,3.28,0.48,4.12-0.95c0.53-0.9-0.27-1.68-1.01-1.97
				c-5.25-2.09-10.53-4.13-15.82-6.11c-0.77-0.29-1.71-0.14-2.19,0.7c-0.53,0.93,0.09,1.68,0.8,2.08
				C894.14,897.68,898.79,900.25,903.63,901.29z M881.83,982.93c1.47-0.06,2.76,0.15,3.38-1.12c0.48-0.99-0.3-1.53-1.07-1.88
				c-4.94-2.25-9.87-4.49-14.84-6.66c-0.89-0.39-2.01-0.55-2.56,0.63c-0.41,0.87,0.04,1.77,0.68,2.22
				C871.94,979.23,876.89,981.43,881.83,982.93z M880.1,905.33c-0.96,0.01-2.11-0.29-2.59,0.86c-0.6,1.44,0.52,2.06,1.56,2.61
				c2.32,1.23,4.6,2.54,6.99,3.61c1.46,0.66,3.48,1.48,4.41-0.37c1.02-2.04-0.84-3.3-2.43-4.17
				C885.58,906.51,882.91,905.67,880.1,905.33z M888.15,925.41c-6.2-2.8-12.76-4.61-18.53-8.22c-0.7-0.44-1.68-0.06-2.04,0.84
				c-0.45,1.12,0.12,2.01,1.13,2.38c1.83,0.67,3.7,1.51,5.49,1.99C878.76,923.64,882.7,927.6,888.15,925.41z M927.02,915.39
				c-3.05,0.43-5.06,1.48-5.04,4.69c0.01,2.05,0.44,3.97,2.92,3.5c2.33-0.44,5.32-0.99,5.64-3.92
				C930.76,917.49,929.29,915.64,927.02,915.39z M902.93,910.43c1.43,0.22,2.39,0.59,2.86-0.32c0.44-0.85-0.12-1.78-0.82-2.14
				c-3.51-1.85-7.04-3.73-11.07-4.19c-0.77-0.09-1.85,0.02-1.89,1.11c-0.02,0.49,0.53,1.26,1.01,1.48
				C896.46,907.95,899.42,910.76,902.93,910.43z M890.16,1023.23c1.11,0,1.94,0.06,2.77-0.01c1.18-0.1,2.54-0.33,2.7-1.71
				c0.2-1.74-1.26-2.11-2.62-2.36c-0.65-0.12-1.33-0.13-1.98-0.24c-2.74-0.47-6.79-1.74-7.05,1.87
				C883.71,1024.36,888.18,1022.35,890.16,1023.23z M914.61,1087.93c-0.57,0.15-1.69,0.65-1.1,1.83c1.32,2.66,2.7,5.33,4.49,7.67
				c1.02,1.33,2.75,1.15,3.57-0.72C922.7,1094.13,917.98,1087.73,914.61,1087.93z M883.13,1012.11c2.44,3.79,6.04,3.83,9.58,3.99
				c1.2,0.05,2.53-0.2,2.71-1.59c0.22-1.71-1.2-2.31-2.57-2.36C889.61,1012.03,886.37,1012.11,883.13,1012.11z M903.61,1051.67
				c3.14,1.14,5.93,2.18,8.59,3.58c1.08,0.56,2.33,0.92,3.1-0.36c0.69-1.16,0.01-2.27-0.75-3.19c-1.41-1.7-3.21-2.31-5.36-1.7
				C907.32,1050.53,905.47,1051.11,903.61,1051.67z M885.35,947.39c-2.32-2-5.38-1.04-7.53-2.68c-1.7-1.3-4.58-2.69-5.47-0.37
				c-0.88,2.28,2.56,1.44,3.95,2.25c0.99,0.57,1.95,1.23,3,1.67C881.32,949.13,883.32,949.41,885.35,947.39z M923.67,925.96
				c-0.87,0.05-1.54,0.03-2.2,0.14c-1.53,0.25-3.93-0.22-3.65,2.19c0.24,2.04,2.46,1.79,4.11,1.77c0.66-0.01,1.35-0.04,1.98-0.23
				c1.5-0.44,4.05-0.16,3.96-2.15C927.73,925.02,925.09,926.23,923.67,925.96z M878.43,995.65c-0.2-0.3-0.38-0.93-0.71-1.02
				c-3.75-1.02-6.68-3.54-10.01-5.32c-0.76-0.41-1.71-0.39-2.1,0.55c-0.38,0.92,0.31,1.65,1.03,2.01c3.2,1.63,6.43,3.21,9.7,4.71
				C877.06,996.91,877.99,996.85,878.43,995.65z M897.55,883.2c-1.32,0.06-2.42,0.09-2.7,1.3c-0.21,0.88,0.33,1.67,1.11,2.01
				c2.42,1.03,4.87,2,7.36,2.85c0.45,0.16,1.3-0.23,1.69-0.63c0.52-0.55,0.18-1.36-0.35-1.74
				C902.36,885.39,899.99,883.91,897.55,883.2z M921.12,905.79c-1.66,0.69-4.31,0.49-4.86,3.12c-0.37,1.77,1.25,2.24,2.63,2.04
				c2.28-0.33,4.93-0.77,5.48-3.39C924.7,905.93,922.75,905.86,921.12,905.79z M896.25,986.22c-1.55,1.31-4.75,1.12-5.1,3.75
				c-0.21,1.59,2.17,1.73,3.6,1.88c2.05,0.22,3.68-0.57,3.92-2.85C898.82,987.54,898.25,986.38,896.25,986.22z M878.67,897.68
				c2.41,2.82,4.98,4.27,7.47,5.74c0.93,0.55,2.41,0.63,2.95-0.77c0.46-1.19-0.6-1.88-1.52-2.12
				C884.79,899.81,882.75,897,878.67,897.68z M894.97,1040.42c-2.59-1.11-5.4-0.77-7.89-2.02c-0.86-0.43-2.1,0.01-2.35,1.16
				c-0.34,1.59,1.02,1.97,2.13,2.04C889.58,1041.76,892.36,1042.12,894.97,1040.42z M899.04,983.82c2.57-0.61,3.08-2.93,3.6-5.21
				c0.28-1.25,0.11-2.72-1.45-2.48c-2.73,0.42-3.16,3.15-4.07,5.17C896.59,982.52,897.32,983.55,899.04,983.82z M901.11,972.03
				c1.45-0.1,3.4,0.09,3.3-1.51c-0.15-2.29-2.49-2.22-4.24-2.37c-1.34-0.12-3.11,0.27-3.09,1.74
				C897.14,972.66,899.8,971.38,901.11,972.03z M885.47,1006.11c2.78,2.59,5.74,1.61,8.58,1.79c0.84,0.05,1.76-0.3,1.76-1.27
				c0.01-0.97-0.9-1.36-1.75-1.3C891.19,1005.54,888.33,1005.84,885.47,1006.11z M936.96,873.87c-2.7-0.95-5.03-1.14-7.15,0.49
				c-0.77,0.59-0.54,1.71,0.25,2.07c2.43,1.09,4.35-0.49,6.34-1.52C936.52,874.84,936.56,874.62,936.96,873.87z M885.44,989.85
				c-2.37-1.99-5.04-2.21-8.14-2.72C881.23,991.62,881.23,991.62,885.44,989.85z M932.73,890.62c-0.4-1.4-1.48-1.72-2.71-1.61
				c-1.42,0.13-2.79,0.69-2.51,2.37c0.24,1.44,1.68,1.41,2.84,1.26C931.54,892.5,932.65,892.12,932.73,890.62z"/>
			<path class="st0" d="M1121.64,913.89c-21.18,6.2-41.26,3.1-61.35,1.15c-7.1-0.69-14.29,0.34-21.38-0.94
				c-1.56-0.28-3.21,0.3-3.24,2.22c-0.03,1.76,1.62,1.85,2.94,1.98c3.81,0.37,7.63,0.66,11.44,1.04c6.94,0.7,13.66,2.74,20.68,3.13
				c4.87,0.27,9.41,1.76,14.62,0.08c3.5-1.13,8.01,0.59,12,1.35c4.6,0.88,9.06,1.68,13.81,0.45c2.75-0.71,6.17-1.29,6.85,3.32
				c0.29,1.99,1.96,2.74,3.8,2.09c1.96-0.69,2.06-2.42,1.6-4.17c-1.02-3.93,0.25-5.22,4.29-4.11c1.25,0.34,2.42,1.09,3.54,1.79
				c2.4,1.5,2.45,2.97-0.21,4.28c-1.79,0.89-3.61,1.73-5.34,2.74c-1.28,0.74-1.96,1.96-1.09,3.37c0.74,1.21,1.98,0.99,3.14,0.59
				c0.31-0.11,0.61-0.27,0.91-0.4c8.5-3.57,8.5-3.57,18.54-0.89c-2.72,2.75-5.87,3.59-9.37,3.98c-1.87,0.21-4.57,0.49-4.18,3.19
				c0.33,2.28,2.86,1.97,4.59,1.91c8.03-0.31,14.56-4,20.41-9.23c1.54-1.38-0.2-3.27,1.26-4.96c4.27,1.75,6.24,5.55,8.16,9.34
				c0.45,0.9,0.25,2.2-0.69,2.69c-1.25,0.66-1.65-0.58-2.09-1.45c-1.85-3.68-3.47-2.25-5.53-0.01c-4.91,5.33-11.33,6.97-18.34,7.01
				c-3.3,0.02-6.69-0.19-9.9,0.45c-8.82,1.77-17.53-0.76-26.29-0.28c-2.88,0.16-4.98-1.72-7.49-2.54
				c-6.71-2.18-13.19-0.16-19.72,0.81c-2.01,0.3-3.3,1.66-2.94,3.91c0.47,3-1.37,3.03-3.35,2.53c-8.33-2.08-16.86-1.34-25.28-1.49
				c-6.93-0.13-12.98-2.65-19.2-4.93c-2.78-1.02-3.59-3.29-2.88-6.1c0.78-3.07,1.23-6.27,2.44-9.16
				c4.71-11.23,8.21-22.98,15.74-32.97c10.29-13.64,17.69-28.85,22.1-45.42c0.67-2.5,1.73-5.47-1.55-7.03
				c-2.96-1.41-5.67,0.18-6.81,2.57c-2.39,5.03-8.09,6.25-11.05,10.49c-0.41,0.58-1.42,0.92-2.2,1.04
				c-9.81,1.51-19.4,4.8-29.56,3.59c-3.99-0.48-8.31-0.24-10.08-4.88c-1.89-4.96-1.06-9.79,1.75-14.21c0.63-0.98,1.21-2.4,2.9-2.52
				c0.17,1.99-0.86,3.56-1.61,5.15c-2.98,6.27-0.03,11.7,6.88,12.34c8.9,0.83,17.62-0.32,26.19-2.72c1.39-0.39,3.34-0.61,3.16-2.56
				c-0.19-1.99-2.1-1.73-3.57-1.8c-3.65-0.17-7.29-0.35-10.94-0.51c-1.88-0.08-3.61-0.68-5.2-1.62c-1.65-0.98-3.39-2.58-2.11-4.37
				c1.33-1.87,2.41,0.59,3.51,1.24c3.29,1.96,6.91,2.28,10.59,2.35c4.32,0.08,8.65-0.37,12.93,0.66c2.99,0.72,4.67-0.29,3.8-3.65
				c-0.95-3.64,0.72-4.62,3.95-4.03c2.17,0.4,4.29,0.33,6.45-0.03c3.85-0.64,5.04-2.64,4.8-6.63c-0.79-13.43-1.16-26.89-1.66-40.34
				c-0.03-0.77,0.25-1.56,0.95-2.47c2.01,3.88,5.51,7.17,3.99,12.24c-0.79,2.65-0.27,5.24,2.73,5.18c5.83-0.12,11.47,1.62,17.4,0.83
				c7.4-0.99,14.01-2.66,20-7.81c4.69-4.03,10.74-6.7,16.53-9.19c8.71-3.74,14.88-10.67,21.55-16.76
				c7.81-7.14,15.69-14.4,21.59-23.46c6.79-10.43,6.33-15.85-2.76-24.41c-6.67-6.28-15-10.5-21.29-17.25
				c-0.92-0.99-2.25-1.63-3.62-0.79c-1.18,0.73-0.99,1.97-0.81,3.16c0.14,0.94,0.72,1.93-0.7,3.43
				c-5.54-11.04-14.09-19.05-24.56-25.26c4.42-0.28,8.15,1.16,10.94,3.86c8.28,7.99,19.1,11.97,28.28,18.46
				c8.1,5.73,16.68,11.04,21.82,20.02c2.22,3.89,2.59,7.73,0.08,11.78c-2.58,4.17-3.48,9.13-3.86,13.79
				c-1.34,16.69-9.66,29.54-21.13,40.86c-0.76,0.75-1.12,1.59-1.37,2.58c-0.2,0.79-0.63,2.21-0.9,2.2
				c-7.75-0.37-3.96,7.03-6.68,10.22c-2.52,2.95-3.29,2.44-4.88-0.01c-1.23-1.9-1.8-4.77-4.77-4.37c-3.21,0.42-4.54,3.29-5.55,5.87
				c-2.73,7.01-2.42,7.34,5,7.72c1.1,0.06,2.59-0.44,3,1.04c0.28,1.01-0.79,1.72-1.51,2.41c-0.96,0.91-2.2,1.69-2.77,2.8
				c-0.99,1.95-1.69,2.29-3.73,1c-3.12-1.97-9.67,0.15-11.39,3.25c-0.44,0.79-0.6,1.58-0.06,2.33c0.9,1.25,2.22,1.21,3.6,1.16
				c1.94-0.06,4.56-2.7,5.65,0.15c0.98,2.57-2.28,3.63-3.95,5.12c-1.21,1.08-2.16,2.28-4.3,1.46c-2.26-0.86-4.34,0.71-5.45,2.47
				c-1.44,2.28,0.86,2.87,2.35,3.96c1.92,1.4,0.67,3.19-0.55,4.22c-6.17,5.22-9.22,12.8-14.84,18.63
				c-10.17,10.54-5.19,27.75,8.95,34.51C1112.36,909.72,1116.59,911.57,1121.64,913.89z M1054.52,946.57
				c0.01-0.1,0.02-0.19,0.03-0.29c1.49,0.07,2.98,0.21,4.47,0.19c1.57-0.02,3.19-0.4,3.32-2.27c0.15-2.15-1.52-2.72-3.3-2.87
				c-0.99-0.08-1.99-0.03-2.98-0.02c-4.85,0.08-9.88,2.98-14.46-1.47c-1.09-1.06-3.78-0.78-4.31,1.7c-0.46,2.13,1.22,3,2.94,3.25
				C1044.98,945.47,1049.75,945.99,1054.52,946.57z M1075.1,897.47c-1.16,0-2.32-0.05-3.47,0.02c-1.05,0.06-2.02,0.48-2.2,1.63
				c-0.23,1.52,0.95,2.23,2.08,2.25c6.84,0.12,13.69,0.28,20.52-0.01c2.18-0.09,2.09-2.44,1.26-3.97c-1.21-2.22-3.23-2.63-5.55-1.61
				C1083.7,897.58,1079.31,897,1075.1,897.47z M1120.09,938.46c-1.38-2.65-4.52-4.09-6.56-6.58c-1.58-1.94-3.99,1.27-5.92,2.32
				c-2.2,1.19-6.03,2.64-4.52,5.37c1.72,3.11,4.2-0.46,6.24-1.37c2.15-0.96,4.2-2.79,4.15,1.78c-0.02,1.78,1.99,1.97,3.57,1.72
				C1118.65,941.44,1119.85,940.67,1120.09,938.46z M1161.19,783.57c-0.2-1.7-1.11-2.85-2.95-1.87c-3.26,1.74-5.82,4.36-7.84,7.46
				c-0.59,0.9-0.6,1.93,0.71,2.37C1153.1,792.2,1161.21,785.87,1161.19,783.57z M1086.97,931.17c-3.97,1.29-8.46,1.19-11.22,4.79
				c-0.77,1-1.97,2.13-0.82,3.48c0.92,1.09,2.16,0.52,3.17-0.07C1081.64,937.3,1084.79,934.79,1086.97,931.17z M1113.86,812.36
				c1.87,0.21,3.45,0.97,4.48-0.66c0.69-1.09,0.36-2.27-0.39-3.22c-1.17-1.47-2.81-1.5-4.5-1.23c-1.35,0.22-2.65,0.76-3.32,1.91
				c-0.83,1.44-3.98,1.77-2.72,3.89c0.99,1.66,2.95-0.1,4.47-0.44C1112.68,812.45,1113.5,812.4,1113.86,812.36z M1072.1,880.1
				c-2.28,0.2-5.95-0.18-5.82,2.22c0.16,3.21,4.13,1.98,6.44,2.45c1.7,0.35,4.13,0,4-2.41
				C1076.56,879.55,1073.88,880.37,1072.1,880.1z M1167.7,770.88c-0.06-1.62-0.52-2.98-2.11-3.05c-2.44-0.1-3.56,1.56-3.65,3.78
				c-0.06,1.44,0.03,3.52,1.83,3.56C1166.38,775.22,1166.81,772.63,1167.7,770.88z M1091.37,853.72c1.56-0.04,3.04-0.4,3.31-2.19
				c0.29-1.87-1.01-2.65-2.63-2.75c-1.84-0.11-3.27,0.71-3.34,2.7C1088.65,853.1,1089.94,853.6,1091.37,853.72z M1135.72,803.78
				c2.24-0.78,3.39-2.8,4.3-4.91c0.37-0.86-0.5-1.72-1.43-1.37c-2,0.75-4.09,1.63-4.56,4.07
				C1133.81,802.63,1134.28,803.52,1135.72,803.78z M1101.61,933.17c-2.89,1.11-5.51,0.6-6.78,3.31c-0.28,0.61,0.28,1.29,1.04,1.32
				C1098.54,937.88,1100.51,936.95,1101.61,933.17z"/>
			<path class="st0" d="M1183.57,418.45c12.97,6.61,9.7,6.89,5.72,20.5c-3.53,12.06-14.16,18.13-22.16,26.28
				c-9.41,9.58-19.93,18.06-29.71,27.29c-4.61,4.35-10.94,6.22-15.02,11.31c-1.21,1.52-3.56,0.55-5.12-0.36
				c-1.62-0.94-1.29-2.83-0.61-4.05c2.6-4.73,2.14-9.33,0.72-14.36c-1.27-4.52,0.1-9.24,1.04-13.83
				c3.89-18.97,1.72-36.74-10.73-52.35c-4.64-5.82-10.94-5.71-14.25,0.99c-3.39,6.86-10.33,9.81-14.55,15.47
				c-4.06,5.44-7.94,4.89-13.39,1.89c-5.18-2.84-10.17-5.47-13.84-10.27c-8.06-10.55-17.09-20.46-21.02-33.6
				c-1.49-4.99-5.9-8.3-7.67-13.26c-0.95-2.65-3.87-3.07-6.43-1.7c-4.54,2.44-9.18,4.78-13.41,7.69
				c-4.23,2.91-8.16,17.04-6.67,22.13c2.12,7.25,1.15,9.5-4.95,11.48c-0.97-1.14,0.14-1.79,0.63-2.54c3.41-5.2,2.48-7.73-3.7-9.07
				c-3.21-0.69-6.47-1.71-9.86-0.64c-0.92,0.29-2.12,0.26-2.58-0.89c-0.35-0.88,0.33-1.57,0.96-2.11c2.64-2.27,1.96-4.09-0.5-6.06
				c-2.24-1.8-3.92-4.14-3.92-7.22c0-1.24,0.56-2.32,1.9-2.61c1.47-0.32,2.35,0.63,2.41,1.87c0.28,5.67,3.99,8.48,8.53,10.69
				c0.3,0.14,0.55,0.43,0.86,0.5c2.1,0.48,2.65,5.19,5.32,2.81c2.26-2.01,3.09-5.69,2.32-8.79c-0.68-2.72-1.45-4.83,1.12-7.01
				c1.43-1.21-0.21-3.15-0.01-4.65c8.65-0.34,15.31-4.33,20.27-11.06c1.43-1.95,1.93-4.92-1.39-6.23c-3.84-1.52-1.64-2.86,0.12-3.86
				c3.17-1.82,6.27-0.85,8.77,1.34c3.26,2.85,5.55,1.97,7.87-1.13c1.61-2.15,3.08-4.34,4.09-6.83c1.42-3.48,3.04-6.43,7.65-3.81
				c1.02,0.58,2.55,0.27,4.26,0.4c-1.6,4.01-6.04,3.97-8.18,7.03c-3.17,4.54-6.3,9.38-11.87,11.8c-2.78,1.21-2.26,4.06-0.85,6.05
				c5.56,7.87,7.21,17.77,13.33,25.32c0.52,0.64,0.79,1.98,1.29,2.04c5.88,0.7,5.49,5.55,6.51,9.5c0.25,0.96,0.49,2.14,1.17,2.72
				c5.59,4.89,9.91,11.23,16.56,14.9c4.29,2.37,8.36,1.23,12.1-1.46c1.22-0.88,2.31-2.05,1.8-3.8c-0.44-1.51-1.8-1.95-3.13-2.1
				c-6.71-0.79-4.17-6.98-6.09-10.53c-1.3-2.41,0.47-3.95,2.71-4.95c1.47-0.65,1.95-2.2,2.63-3.53c0.44-0.85,0.86-2.05,2.11-1.61
				c1.16,0.41,0.96,1.67,0.89,2.62c-0.2,2.84-0.54,5.63-2.46,7.97c-0.75,0.91-1.37,2.12-0.58,3.21c1.02,1.4,2.47,0.63,3.65,0.17
				c5.96-2.32,8.47-11.74,3.66-15.88c-2.72-2.35-7-2.94-10.63-4.17c-3.25-1.1-4.65-3.32-3.74-6.5c0.95-3.33,0.53-6.18-1.45-8.97
				c-1.05-1.48-2.37-3.72-0.45-4.84c1.98-1.15,2.42,1.57,3.25,2.83c1.08,1.66,1.73,3.82,4.42,3.02c1.23-0.36,1.37,0.4,1.54,1.29
				c0.18,0.98,0.14,2.49,0.73,2.82c5.72,3.21,8.53,10.43,15.82,11.47c1.8,0.26,3.8,0.47,5.28,1.39c2.61,1.62,4.4,3.39,6.18-1.15
				c0.83-2.11,3.92-0.73,5.13,0.67c2.01,2.33,4.17,3.7,7.25,3.66c0.8-0.01,1.78,0.11,2.02,1.09c0.31,1.26-0.71,1.77-1.62,2.14
				c-2.55,1.03-5.24,0.78-7.89,0.6c-1.67-0.11-3.55-0.56-4.28,1.49c-0.72,2.02,0.51,3.58,2.01,4.73c3.82,2.93,7.81,5.51,10.91,9.41
				c3.23,4.06,2.9,9.1,4.83,13.48c1.09,2.49,0.59,5.65,3.48,7.36c0.8,0.47,0.75,1.41,0.44,2.25c-3.74,10.04-1.4,20.19-0.53,30.31
				c0.01,0.16,0.19,0.42,0.15,0.46c-5.27,4.16-1.07,9.34-1.58,14.01c-0.19,1.76-1.2,3.44-2.66,4.7c-0.82,0.71-1.36,1.63-0.24,2.48
				c0.92,0.7,2.11,0.53,2.6-0.45c1.46-2.92,4.06-4.17,6.85-5.44c2.06-0.95,2.34-2.74,0.53-4.42c-3.49-3.24-2.17-4.41,1.86-5.2
				c2.53-0.5,4.35-3.08,7.66-1.97c1.61,0.53,2.54-1.62,1.04-3.03c-1.65-1.55-3.44-3.24-6.1-2.86c-1.22,0.17-2.97,1.09-3.17-1
				c-0.17-1.75,0.97-3.12,2.79-3.67c0.32-0.1,0.79-0.28,0.96-0.14c4.29,3.45,9.35,1.42,14.03,2.05c0.62,0.08,1.26,0.62,1.81,0.09
				c1.01-0.97,0.62-2.12,0.24-3.26c-0.4-1.22-1.62-2.63-0.53-3.7c1.46-1.44,2.66,0.41,3.92,0.98c1.57,0.72,3.26,1.58,4.46-0.22
				c1.19-1.77,0.54-3.32-1.14-4.74c-2.22-1.88-5.95-4-4.63-6.91c1.26-2.78,5.37-1.42,8.26-1.27c2.75,0.14,5.58-1.18,8.29,0.57
				c0.86,0.55,1.99,0.11,2.56-0.9c0.69-1.23,0.26-2.45-0.76-3.09c-2.66-1.69-5.35-3.43-8.24-4.64c-2.23-0.93-2.11,1.38-2.52,2.69
				c-0.4,1.28-0.68,2.81-2.35,2.82c-1.93,0.02-2.23-1.72-2.66-3.13c-2.79-9.26-3.68-9.66-12.19-5.21
				c-3.94,2.06-8.41,1.82-12.56,2.96c-1.24,0.34-3.4,0.43-3.43-1.74c-0.03-1.75,1.59-2.45,3.18-2.56
				c5.55-0.41,10.72-2.27,15.75-4.37c5.22-2.18,5.39-3.31,2.59-8.13c-0.45-0.78-0.86-1.62,0.05-2.15c1.14-0.66,2.28-0.35,3.04,0.79
				c3.33,5.04,8.68,8.01,12.63,12.46c2.47,2.78,5.35,4.31,8.36-0.48c1.46-2.33,5.58-1.11,8.42-2.28c5.09-2.11,5.65-2.87,2.86-7.77
				c-0.76-1.32-1.02-2.44-0.08-3.66C1186.29,423.17,1186.02,421.07,1183.57,418.45z"/>
			<path class="st0" d="M931.69,495.43c-2.85,2.48-5.89,1.4-8.51,1.92c-3.75,0.74-4.69,2.9-3.92,6.11c0.86,3.58,3.59,4.17,6.63,3.18
				c2.62-0.86,5.1-2.17,7.86-2.85c-1.28,2.31-3.45,3.32-5.74,3.81c-6.27,1.34-9.04,5.68-10.32,11.45c-0.29,1.31-0.72,2.71,0.73,3.59
				c1.36,0.82,2.7,0.25,3.65-0.71c7.5-7.63,17.49-11.24,26.48-16.45c1.25-0.72,2.84-2.24,3.92-0.63c1.22,1.81-1.05,2.36-2.17,3.16
				c-5.01,3.58-10.99,5.27-16.25,8.53c-8.85,5.49-16.9,11.28-19.76,22.01c-0.29,1.08-0.98,2.15-1.73,3.01
				c-8.67,9.82-13.1,22.16-19.79,33.15c-2.82,4.62-3.2,10.12-5.26,15.04c-1.16,2.77,0.88,5.03,2.24,7.35
				c-2.25,1.28-4.09,1.09-5.56-0.64c-1.6-1.89-2.23-4.05-1.13-6.5c4.01-8.94,6.41-18.55,11.52-27.05c1.89-3.14,3.67-6.15,6.36-8.81
				c4.16-4.12,5.16-10.24,8.12-15.23c5.44-9.18,5.17-19.68,5.7-29.93c0.2-3.89-0.59-7.69-1.94-11.26c-2.27-6-10.23-7.57-18.07-6.16
				c-13.18,2.37-26.08,7.93-39.95,4.88c-3.53-0.78-6.99,0.05-10.39,0.78c-12.07,2.58-20.49-3.41-27.88-11.75
				c-2.2-2.49-1.85-5.68-1.22-8.62c2.03-9.41,1.9-19.74,11.1-26.73c-0.53,4.16-2.43,7.43-4.04,10.74
				c-3.43,7.05-4.14,14.21-1.59,21.66c2.05,5.96,13.33,12.55,19.38,10.89c4.97-1.37,10.15-1.69,15.03-3.58
				c2.47-0.95,4.85,0.65,7.03,1.84c1.55,0.85,3.17,1.67,4.57,0.21c2.37-2.46,5.59-3.03,8.55-3.86c9.01-2.52,16.71-7.13,23.52-13.43
				c1.31-1.21,2.7-2.49,5.05-2.89c-0.46,4.29-3.71,6.49-6.02,9.25c-1.06,1.26-2.72,2.46-1.93,4.26c0.83,1.89,2.91,1.05,4.48,1.25
				c3.81,0.49,7.06-1.8,10.71-2.14c2.38-0.22,4.4-0.64,5.5,2.58c1.27,3.72,4.64,2.61,7.26,1.76c4.65-1.51,8.48-4.54,12.41-7.36
				c1.15-0.82,2.68-2.65,3.8-1.27c1.51,1.84-0.9,2.79-2.09,3.69c-2.65,2.01-5.26,4.11-8.41,5.34c-2.25,0.88-5.54,1.08-4.94,4.49
				C925.41,497.63,928.8,494.46,931.69,495.43z"/>
			<path class="st0" d="M1122.05,398.04c7.71-2.73,11.34-10.36,6.76-14.59c-5.13-4.73-11.22-7.34-18.44-6.79
				c-3.14,0.24-6.31,0.17-9.46,0.04c-1.29-0.05-2.95-0.48-2.84-2.16c0.09-1.37,1.68-1.42,2.79-1.63c9.23-1.77,18.31-1.44,27.12,2.15
				c2.03,0.82,4.36,1.99,5.76-0.49c1.26-2.23-0.69-3.57-2.38-4.78c-0.92-0.66-2.25-1.46-2.41-2.37c-0.94-5.38-4.09-6.27-9.04-5.75
				c-3.37,0.35-6.9-0.81-10.35-1.39c-1.42-0.24-3.28-0.28-2.85-2.55c0.32-1.67,1.47-2.66,3.21-2.51c3.77,0.32,7.59,0.54,11.03,2.3
				c1.18,0.61,2.31,1.87,3.6,1.1c5.85-3.44,8.5,0.93,11.13,4.64c2.8,3.94,3.76,4.05,6.83,0.23c3.94-4.89,6.86-10.16,7.26-16.58
				c0.07-1.1,0.09-2.72,1.52-2.8c1.65-0.09,1.75,1.8,1.39,2.6c-3.36,7.42,1.22,13.57,2.82,20.26c1.18,4.95,4.23,7.93,8.27,9.98
				c11.95,6.07,21.45,14.42,26.54,27.12c0.77,1.93,3.37,2.92,2.74,5.97c-2.93-1.33-3.67-4.15-4.83-6.4
				c-4.55-8.8-11.02-15.59-19.94-20.02c-1.95-0.97-3.77-2.24-6.08-1.08c-0.87,0.44-1.7,0.41-1.93-0.67
				c-0.61-2.88-2.32-1.68-4.17-1.53c-4.24,0.36-8.27-0.38-10.17-4.97c-0.49-1.18-0.96-2.21-2.39-2.04c-1.2,0.14-1.5,1.19-1.63,2.22
				c-0.15,1.19-0.47,2.26-1.38,3.11c-2.55,2.38-1.43,4.24,0.7,6.24c4.7,4.43,4.65,6.71-0.15,10.69c-2.38,1.97-2.33,3.84-0.23,5.84
				c2.12,2.03,3.47,4.1,3.06,7.41c-0.44,3.57,2.81,4.97,5.34,6.5c4.65,2.81,3.86,2.71,0.37,6.7c-3.37,3.84-5.59,2.41-8.81,0.98
				c-2.38-1.06-4.82-1.89-7.7-1.06c-2.5,0.73-4.86-0.81-6.98-2.13c-1.57-0.98-1.99-2.63-1.54-4.4c0.39-1.55,1.66-1.98,3.09-1.99
				c1.69-0.01,3.41-0.02,4.05,2.07c0.41,1.33,0.21,3.55,2.37,3.03c2.24-0.54,1.58-2.58,1.11-4.17c-0.74-2.48-0.05-4.97-0.16-7.45
				c-0.28-6.27-4.51-8.66-9.72-5.48c-1,0.61-2.11,1.52-3.17,0.64c-1.46-1.23-0.36-2.76,0-4.15L1122.05,398.04z M1146.85,366.09
				c0.17,4.19,1.53,7.24,4.69,9.31c0.88,0.58,1.87,0.88,2.64-0.09c0.6-0.75,0.26-1.62-0.34-2.22c-1.85-1.86-2.74-4.03-2.67-6.68
				c0.04-1.57,0.45-3.87-1.81-3.91C1147.03,362.46,1147.01,364.8,1146.85,366.09z"/>
			<path class="st0" d="M988.08,686.03c-4.79-1.18-9.66-2.09-14.35-3.59c-16.06-5.16-29.71-14.83-43.24-24.38
				c-12.32-8.7-24.23-18.04-33.32-30.5c-4.15-5.69-5.79-12.24-8.46-18.45c-0.78-1.81-0.55-5.07-3.61-4.36
				c-3.06,0.71-3.29,3.79-2.48,6.21c4.02,12.01,8.18,24,18.92,32.09c7.48,5.62,14.92,11.29,22.16,17.4
				c-4.65-1.4-9.69-2.07-13.43-5.33c-6.62-5.77-13.55-11.19-19.39-17.86c-4.31-4.93-6.68-10.65-8.45-16.77
				c-0.61-2.12-1.24-4.62-4.14-3.84c-2.73,0.74-1.75,3.17-1.4,5.07c1.29,7.02,2.2,14.12,6.11,20.39c5.63,9.03,13.14,15.61,23.35,19
				c15.48,5.14,30.68,10.92,44.63,19.55c3.22,1.99,6.05,4.43,8.68,7.66c-0.9,0.18-1.52,0.51-1.77,0.33
				c-8.16-6.09-17.01-10.92-26.53-14.53c-5.72-2.17-11.31-4.56-17.48-5.57c-6.37-1.04-12.55-2.51-19.13-1.74
				c-2.64,0.31-5.39-1.11-8.72-2.95c3.09-1.33,5.19-0.33,7.3,0.12c1.45,0.31,3.24,0.85,3.99-0.86c0.82-1.88-1.02-2.66-2.29-3.26
				c-8.7-4.11-13.24-11.91-17.57-19.83c-2.61-4.76-3.5-10.02-3.37-15.45c0.05-1.92,0.79-4.35-1.6-5.28
				c-2.33-0.91-2.82,1.73-4.11,2.84c-7.56,6.45-12.66,14.89-18.49,22.74c-0.86,1.15-1.35,3.87-3.4,2.53
				c-1.43-0.93,0.3-2.63,0.93-3.92c4.95-10.12,13.82-16.85,21.42-24.67c4.77-4.9,11.31-8.46,11.42-16.61
				c0.02-1.77,1.84-2.98,3.2-2.04c3.52,2.44,8.56,3.42,9.48,8.65c2.41,13.82,12.34,22.12,21.76,31.21
				c14.29,13.79,31.2,23.67,47.57,34.43c3.3,2.17,7.08,2.83,10.63,4.21c5.2,2.02,10.36,4.16,15.53,6.25
				C988.3,685.29,988.19,685.66,988.08,686.03z"/>
			<path class="st0" d="M967.99,423.46c-4.2,0.7-9.29-0.15-14.1,0.34c-5.67,0.59-10.42,4.66-15.04,8.12
				c-1.99,1.49-3.7,3.36-5.69,4.85c-3.86,2.89-4.57,5.53-2.32,10.5c3.46,7.65,2.72,15.89-1.85,23.35c-1.91,3.11-3.93,6.16-5.97,9.2
				c-0.7,1.05-1.56,2.71-3.03,1.53c-1.26-1.02-0.16-2.44,0.53-3.56c4.74-7.7,7.83-15.93,8.1-25.06c0.04-1.32-0.01-2.67-0.26-3.97
				c-0.29-1.55-0.17-3.65-2.44-3.78c-1.99-0.11-2.87,1.49-3.33,3.15c-0.48,1.73-1.2,3.08-3.14,3.43c-0.31,0.06-0.85,0.29-0.85,0.44
				c-0.04,5.81-5.1,9.15-6.86,14.09c-0.31,0.86,0.18,2.25-1.3,2.01c-1.11-0.17-1.48-1.44-1.2-2.42c0.81-2.83,1.19-5.43-1.09-7.91
				c-1.08-1.17,0-2.11,1.21-2.61c4.16-1.72,6.86-4.82,9.27-8.6c3.75-5.87,8.9-10.85,13.85-15.51c3.5-3.3,6.9-7.49,11.69-9.52
				c0.97-0.41,2.65-0.29,2.14-2.04c-0.33-1.14-1.58-1.07-2.57-0.99c-1.53,0.11-3.2,0.53-3.04-1.92c0.13-2.04,1.47-2.96,3.32-3
				c1.12-0.03,2.93,0.02,3.28,0.66c3.04,5.59,8.29,3.02,12.65,3.74c2.02,0.33,3.12-0.36,3.95-2.1c1.07-2.25,3.32-3.17,4.79-1.32
				c4.11,5.12,7.96,1.82,11.77,0.05c1.38-0.64,2.4-1.97,3.85-0.53c1.46,1.45,1.81,3.18,0.55,4.95c-0.97,1.37-2.14,3.04-3.83,2.94
				C976.8,421.7,972.97,424.09,967.99,423.46z"/>
			<path class="st0" d="M1041.14,669.83c-2.03,2.76-5.41,3.27-7.74,5.23c-0.78,0.65-1.73,1.31-1.41,2.42
				c0.33,1.14,1.51,1.16,2.51,1.17c2.37,0.03,4.73,0.01,7.28,0.88c-2.34,0.51-4.74,1.63-7.02,1.44
				c-13.49-1.15-27.31,0.57-40.44-3.56c-14.3-4.5-28.35-9.75-39.67-20.25c-6.76-6.27-15.17-10.22-22.39-15.85
				c-10.62-8.28-20.85-16.92-28.46-28.24c-1.36-2.02-3.21-3.71-5.69-6.53c4.09,0.49,6.38,2.52,7.42,4.64
				c4.01,8.19,11.96,12.29,18.25,17.99c12.33,11.17,26.77,19.66,39.85,29.92c9.34,7.33,20.41,10.72,31.7,14.02
				c13.89,4.05,26.89,2.85,39.83-2.99C1036.83,669.35,1038.77,668.34,1041.14,669.83z"/>
			<path class="st0" d="M1054.41,318.66c-4.25-1.87-6.43-6.2-11.34-7.54c-2.02-0.55-0.91-5.76,0.05-8.77
				c2.82-8.84,6.58-17.25,11.39-25.22c3.72-6.16,9.56-9.58,15.58-12.75c5.15-2.71,9.71-6.28,14.9-9
				c15.01-7.86,33.63-1.88,45.14,8.68c5.77,5.29,9.82,11.62,13.76,18.16c0.76,1.27,2.02,2.98,0.3,3.89
				c-1.72,0.91-2.35-1.17-3.1-2.42c-6.06-10.11-13.58-18.86-24.13-24.49c-8.91-4.75-18.3-4.68-27.49-1.15
				c-12.18,4.68-23.05,11.49-32.5,20.68c-3.77,3.67-5.32,8.1-6.24,12.73c-0.85,4.26,0,8.81-2.59,12.81
				c-0.72,1.11-0.38,3.18,0.88,3.56C1054.7,309.5,1052.46,315.03,1054.41,318.66z"/>
			<path class="st0" d="M1151.91,336.07c-1.72-5.22-3.75-9.41-8.03-12.14c-2.31-1.47-4.46-2.15-6.2-0.1
				c-2.01,2.38,0.54,3.39,2.17,4.44c2.36,1.52,3.06,4.29,4.93,6.62c-3.61-1.82-6.63-1.14-9.26,1.58c-0.41,0.42-1.58,0.86-1.68,0.72
				c-1.93-2.46-4.56-3.83-7.11-5.52c-3.28-2.18-1.23-5.47,0.52-8.32c3.36-5.49,9.19-7.58,15.23-5.08c1.67,0.69,3.18,1.92,5.16,1.51
				c1.21-0.25,2.17-0.87,2.62-2.07c0.42-1.14-0.12-2.29-1.07-2.45c-5.83-0.98-5.16-6.11-6.58-9.93c-0.63-1.71-0.14-4.78-2.95-4.35
				c-2.51,0.39-1.82,3.11-1.85,5.05c-0.03,1.61,0.56,3.31-0.63,4.79c-2.64-2.89-2.81-8.92-0.27-11.36c3.26-3.13,5.9-0.54,8.33,1.27
				c1.77,1.32,2.68,3.89,5.71,2.61c1.03-0.43,1.7,0.63,2.15,1.62C1154.67,308.45,1154.13,330.69,1151.91,336.07z"/>
			<path class="st0" d="M1013.71,783.32c-2.39-2.91-0.66-6.13-3.01-8.29c-2.17,1.98-1.49,4.41-1.45,6.56
				c0.15,9.72,0.2,9.72-8.38,15.87c2.31-3.61,3.04-7.62,3.68-11.7c1.4-8.91,1.57-17.27-3.87-25.39
				c-5.26-7.85-9.28-16.52-13.93-24.79c-5.38-9.57-13.86-16.53-20.91-24.69c-3.37-3.9-6.73-7.81-10.04-11.75
				c-0.82-0.97-2.13-2.21-0.83-3.44c1.32-1.25,2.47,0.11,3.33,1.06c15.57,17.21,33.1,32.89,42.15,55.15
				c1.39,3.43,3.93,6.47,6.54,9.35C1012.37,767.22,1014.53,774.33,1013.71,783.32z"/>
			<path class="st0" d="M922.74,949.77c6.88-2.75,13.35-6.3,21-6.8c21.72-1.42,43.42-2.94,65.2-2.73c2.24,0.02,4.21-0.82,6.28-1.42
				c0.99-0.29,2.07-0.23,2.54,0.91c0.47,1.15-0.24,2-1.18,2.4c-3.05,1.29-6.03,2.57-9.49,2.75c-17.07,0.88-34.17,0.84-51.22,2.46
				c-9.92,0.95-19.85,1.5-29.56,4C925.06,951.67,923.65,951.82,922.74,949.77z"/>
			<path class="st0" d="M829.61,444.8c4.71-8.66,10.76-14.2,18.27-17.77c7.04-3.35,14.6-5.49,22.34-6.96
				c12.64-2.4,25.09-6.24,36.2-12.33c8.51-4.67,18.53-8.88,22.73-19.24c0.41-1,1.12-2.48,2.46-1.96c1.63,0.63,1.12,2.34,0.63,3.49
				c-2.1,5.01-3.59,10.44-10.13,11.94c-2.3,0.53-4.56,2.15-6.37,3.78c-6.68,6.01-15.36,8.33-22.9,12.75
				c-1.37,0.8-3.15,0.97-4.77,1.23c-1.14,0.19-2.64-0.43-3.44,0.11c-5.98,4.07-13.39,2.01-19.7,4.88c-6.5,2.95-13.68,4.22-20.08,7.5
				c-3.64,1.86-6.13,5.05-8.75,8.06C834.68,441.87,833.48,443.7,829.61,444.8z"/>
			<path class="st0" d="M1075.06,658.18c0-2.3,1.43-3.34,2.34-4.69c6.82-10.18,13.86-20.33,16.48-32.57
				c1.72-8.02,1.32-16.24,0.48-24.36c-0.88-8.53,0.83-16.89,1.12-25.34c0.06-1.75,0.53-4.08,1.71-5.09
				c4.94-4.24,4.34-10.06,5.11-15.54c0.47-3.36,0.41-6.95,3.73-9.88c1.4,3.51,0.75,6.79-0.46,9.36c-2.65,5.67-2.77,11.9-4.84,17.7
				c-3.31,9.26-3.01,19.27-1.99,28.64c1.93,17.88-1.92,33.57-12.61,47.83c-2.47,3.3-4.51,6.94-6.7,10.45
				C1078.45,656.28,1077.54,657.86,1075.06,658.18z"/>
			<path class="st0" d="M1048.26,732.63c-6.46-1.11-9.57,4.09-13.67,7.35c-1.23,0.98-1.72,3.07-3.84,2.52
				c-1.02-0.27-1.62-1.24-1.58-2.31c0.08-2.2,2.01-2.36,3.51-2.96c3.35-1.33,5.81-3.89,8.14-6.43c3.57-3.88,1.87-8.09-0.84-11.31
				c-2.24-2.66-4.43-5.22-6.15-8.28c-1.11-1.97-3-3.63-5.39-4.22c-1.87-0.46-2.63-1.58-3.13-3.38c-1.58-5.74-3.2-7.05-8.94-5.46
				c-7.6,2.1-14.73,1.98-21.72-1.75c-0.73-0.39-1.55-0.64-2.23-1.1c-1.01-0.7-1.82-1.65-1-2.92c0.62-0.97,1.79-1.13,2.65-0.5
				c8.45,6.24,17.59,3.15,26.52,1.87c3.43-0.49,5.34,0.36,6.32,3.78c0.95,3.29,2.69,6.12,6.51,6.83c1,0.19,1.79,0.62,2.38,1.58
				c5.15,8.47,12.01,16.14,12.36,26.82L1048.26,732.63z"/>
			<path class="st0" d="M874.81,478.72c-5.09,2.96-9.36,2.04-12.46-4.12c-2.34-4.65-5.44-7.71-10.04-9.64
				c-0.89-0.38-1.78-0.97-1.27-3.2c3.53,3.02,7.4,4.81,11.35,6.45c1.34,0.56,2.96,2.12,3.96,0.57c1.29-1.98-1.05-2.26-2.28-2.83
				c-1.67-0.77-2.67-1.94-2.58-3.85c0.04-0.91,0.46-1.73,1.43-1.7c1.77,0.05,3.18,0.93,4.06,2.48c0.74,1.29,1.17,2.82,2.66,3.49
				c2.56,1.15,4.53,1.64,5.47-2.23c1.37-5.68,2.63-5.92,8.06-4.44c5.1,1.38,10.31,1.67,15.08-1.45c0.99-0.65,2-1.25,3.23-1.07
				c1.17,0.17,2.41,0.45,2.6,1.87c0.17,1.25-0.92,1.68-1.85,2c-2.64,0.92-5.2,1.69-8.18,1.66c-6.86-0.08-13.73,0.5-18.39,6.77
				c-0.37,0.5-1,0.9-1.59,1.14c-1.7,0.7-4.38,0.18-4.23,3.17c0.13,2.69,2.53,3.2,4.43,4.16
				C874.52,478.06,874.64,478.44,874.81,478.72z"/>
			<path class="st0" d="M1075.51,482.65c0.01-12.64,0.54-22.49-3.26-31.86c-0.51-1.26-1.02-2.99,0.25-3.67
				c1.86-1.01,1.88,1.21,2.5,2.18c3.06,4.76,2.48,10.33,2.34,15.41c-0.2,7.15,0,14.32,0.77,21.3c0.62,5.67-0.66,10.51-2.39,15.46
				c-3.03,8.7-3.29,17.2,0.7,25.67c0.64,1.36,2.39,3.32,0.34,4.3c-1.92,0.93-2.37-1.7-3.34-2.91c-4.88-6.06-4.48-12.75-2.96-19.89
				C1072.47,499.1,1076.26,489.84,1075.51,482.65z"/>
			<path class="st0" d="M1005.83,750.07c-2.38-0.85-1.82-2.8-2.1-4.28c-1.05-5.61-2.65-10.93-6.02-15.7
				c-2.66-3.76-3.82-8.12-3.37-12.78c0.32-3.34,0.51-6.59-0.91-9.8c-0.6-1.34-0.85-3.3,1.03-3.82c2.17-0.6,2.94,1.31,3.08,2.99
				c0.27,3.31,0.34,6.64,0.3,9.96c-0.1,7.87,4.15,12.69,11.99,12.63c4.01-0.03,4.02,2.06,4.28,4.97c0.31,3.48-1.79,3.65-4.03,3.28
				c-4.88-0.79-4.83,2.09-4.34,5.42C1006.08,745.28,1007.44,747.62,1005.83,750.07z"/>
			<path class="st0" d="M1033.97,799.57c-0.96-7.51,2.44-17.26,0.32-27.06c-0.26-1.21,0.28-2.62,0.56-3.91
				c0.18-0.83,0.64-1.68,1.62-1.6c0.95,0.08,1.29,0.94,1.36,1.81c0.06,0.83,0.1,1.67,0.04,2.49c-1.43,18.76,1.32,37.5,0.12,56.26
				c-0.09,1.38,0.8,3.41-1.25,3.74c-1.54,0.25-1.73-1.74-2.32-2.86c-1.29-2.41-1.79-4.97-1.31-7.71
				C1034.19,814.47,1034.36,808.16,1033.97,799.57z"/>
			<path class="st0" d="M858.61,474.67c-3.01,1.47-4.35,3.83-7.95,4.2c-4.29,0.45-0.19,3.28,0.08,5.35
				c-2.85-1.15-5.24-2.31-7.12-4.58c-1.74-2.1-3.77-2.79-5.51,0.28c-1.74,3.09-4.08,2.06-6.38,0.74c-1.69-0.97-3.2-2.19-1.94-4.35
				c1.24-2.14,2.73-3.44,5.7-2.34c4.05,1.5,6.04-2.58,8.89-4.21c1.33-0.76,2.16-1.93,3.86-0.95
				C851.48,470.71,854.78,472.52,858.61,474.67z"/>
			<path class="st0" d="M1102.2,314.71c2.39-1.27,4.34-0.69,6.21-0.18c2.22,0.62,4.19,0.88,5.84-1.22c1.12-1.42,2.61-2.11,4.38-1.09
				c1.59,0.92,2.28,2.51,2.18,4.22c-0.4,6.27-4.71,10.36-8.62,14.57c-0.92,0.99-2.67,0.85-3.45-0.58c-0.8-1.47-1.43-3.77,0.36-4.44
				c5.37-2.01,1.62-3.77,0.2-5.82C1107.59,317.74,1104.7,316.96,1102.2,314.71z"/>
			<path class="st0" d="M1009.36,340.65c6.23,2.47,6.73,4.84,2.36,9.51c-4.45,4.75-11,6.93-14.8,12.46
				c-1.25,1.82-1.78,3.62-0.69,5.56c1.09,1.94,2.77,1.37,4.36,0.66c0.9-0.4,1.78-0.83,2.96-1.38c-2.36,3.63-8.64,4.75-11.39,2.19
				c-1.99-1.85-2.54-4.01,0-5.89c4.36-3.24,8.25-6.73,8.83-12.62c0.16-1.64,1.54-1.84,2.97-2.02
				C1011.3,348.19,1011.8,347.37,1009.36,340.65z"/>
			<path class="st0" d="M1122.18,397.91c-3.08,0.17-4.72-1.42-6.07-4.12c-2.45-4.89-4.07-5.1-8.21-1.47
				c-1.22,1.07-2.41,2.05-3.92,1.02c-1.5-1.03-1.11-2.56-0.52-4.05c1.48-3.69,3.59-6.37,8.14-5.7c2.46,0.36,4.95,0.51,7.41,0.87
				c1.41,0.21,3.19-0.12,3.86,1.66c0.69,1.83-0.69,2.72-1.96,3.55c-1.84,1.21-1.6,2.57-0.59,4.25c0.76,1.26,1.16,2.74,1.72,4.12
				C1122.05,398.04,1122.18,397.91,1122.18,397.91z"/>
			<path class="st0" d="M969.14,687.65c0.86,0.8,2.13,1.67,3,2.84c5.58,7.59,12.83,13.85,17.6,22.08c0.77,1.32,2.77,2.95,0.94,4.24
				c-1.72,1.21-2.86-0.94-3.75-2.26c-4.94-7.3-10.09-14.34-18.2-18.56c-3.5-1.82-1.38-4.99-1.41-7.6
				C967.3,687.76,968.03,687.35,969.14,687.65z"/>
			<path class="st0" d="M1057.73,417.09c1.49-7.35-2.29-12.08-3.91-17.32c-0.48-1.55-1.52-2.94-2.34-4.39
				c-1.18-2.07-2.69-4.93-0.1-6.03c2.03-0.86,2.17,2.66,2.92,4.27c3.54,7.58,8.23,14.68,9.77,23.12c0.32,1.78,1.05,3.51,1.23,5.3
				c0.14,1.34-1.03,2.58-2.17,1.56C1060.74,421.47,1058.01,419.39,1057.73,417.09z"/>
			<path class="st0" d="M979.84,343.7c-2.28,3.17-4.16,5.99-6.27,8.63c-1,1.25-2.6,1.4-4.13,0.84c-1.61-0.59-2.3-1.87-2.24-3.5
				c0.15-3.97,0.36-7.94,0.55-11.91c0.15-3.11,2.54-4.39,4.71-5.96c4-2.89,4.01-4.6-0.02-8.47c2.49-0.97,4.34-0.35,5.64,1.52
				c1.65,2.37,0.5,4.85-1.23,6.26c-3.34,2.72-4.33,6.56-5.89,10.16c-0.84,1.93-2.16,4.17,0.36,5.76c2.7,1.71,4.24-0.15,5.57-2.29
				C977.31,344.07,977.93,343.45,979.84,343.7z"/>
			<path class="st0" d="M990.21,389.98c-4.79,0.6-7.71-1.67-9.38-5.34c-1.42-3.12-3.37-4.2-6.69-3.55
				c-2.27,0.45-4.63,0.57-6.95,0.53c-1.97-0.04-3.68-1.07-3.79-3.24c-0.12-2.41,1.85-2.2,3.54-2.39c1.63-0.18,3.23-0.68,4.85-1.04
				c4.79-1.06,8.87-0.58,10.64,4.91C983.79,384.1,985.46,388.1,990.21,389.98z"/>
			<path class="st0" d="M1048.16,732.75c6.43,4.2,8.36,11.37,11.52,17.68c3.9,7.77,5.87,16.22,7.83,24.63
				c0.32,1.37,0.04,2.88,0.04,5.03c-2.39-1.94-2.35-4.19-2.96-6.12c-3.84-12.15-6.75-24.67-14.39-35.28
				c-1.26-1.75-2.15-3.76-1.95-6.06C1048.26,732.63,1048.16,732.75,1048.16,732.75z"/>
			<path class="st0" d="M1061.91,673.43c-3.06-0.69-4,1.6-5.11,3.64c-1.5,2.74-2.01,6-4.38,8.28c-0.99,0.95-2.08,1.92-3.42,0.74
				c-1.39-1.23-0.57-2.34,0.47-3.34c1.95-1.86,3.25-3.66,1-6.36c-1.16-1.4,0.65-1.92,1.6-2.35c2.25-1.04,4.52-2.06,6.86-2.87
				c2.87-0.98,5.54-2.06,7.24-4.84c0.87-1.43,2.38-2.95,4-1.44c1.38,1.28,1.59,3.97-0.05,4.84
				C1067.51,671.14,1065.65,674.54,1061.91,673.43z"/>
			<path class="st0" d="M907.54,677.93c-14.26-0.78-27.98,0.63-40.42,8.42C877.72,674.17,896.21,672.54,907.54,677.93z"/>
			<path class="st0" d="M1077.98,666.75c9.31,6.43,20.29,9.72,29.56,16.13c1.15,0.79,3.23,1.77,2.18,3.31
				c-1.06,1.55-2.77-0.05-3.88-0.85c-5.32-3.81-11.35-6.27-17.17-9.11C1084.28,674.09,1080.54,671.21,1077.98,666.75z"/>
			<path class="st0" d="M1173.82,402.51c-0.11,0.3-0.15,1.01-0.44,1.14c-3.45,1.52-3.48,5.03-4.56,7.87
				c-0.69,1.81-1.74,2.72-3.67,2.71c-1.99-0.02-3.24-1.02-3.35-2.94c-0.14-2.51-1.73-3.74-3.56-5.01c-1.12-0.78-1.64-2.09-1.26-3.54
				c0.2-0.76,0.81-1.06,1.51-0.96c1.26,0.18,2.02,1.03,2.59,2.11c0.71,1.33,0.15,3.78,2.61,3.61c2.54-0.17,1.48-2.49,1.96-3.91
				c0.92-2.72,3.58-2.71,5.73-3.3C1172.73,399.91,1173.38,401.15,1173.82,402.51z"/>
			<path class="st0" d="M898.81,578.13c4.38,11.41,3.66,23.88,13.16,32.97C902.58,608.82,894.85,589.17,898.81,578.13z"/>
			<path class="st0" d="M1037.68,322.39c-0.54,7.66,0.35,14.23,3.22,20.48c0.93,2.02-0.7,3.81-1.89,5.38
				c-1.23,1.61-2.7,0.9-2.85-0.62c-0.79-7.97-3.07-15.95-0.4-23.98C1035.83,323.41,1036.27,323.29,1037.68,322.39z"/>
			<path class="st0" d="M1012.1,413.55c-0.28,4.13-0.37,7.1,0.17,10.08c0.24,1.34,1.04,3.49-1.16,3.54
				c-1.61,0.04-1.21-2.07-1.14-3.31c0.41-7.22-0.44-14.23-2.97-21.05c-0.76-2.04-1.56-3.99-2.95-5.71
				c-0.67-0.83-1.99-2.02-0.71-2.95c1.42-1.04,2.43,0.46,3.11,1.55C1010.05,401.51,1013.84,407.28,1012.1,413.55z"/>
			<path class="st0" d="M1109.43,347.38c-1.24,1.73-2.14,3.97-3.8,5.11c-3.7,2.54-6.48,6.07-10.08,8.67
				c-1.27,0.92-2.94,1.84-3.88,0.16c-1.21-2.16,0.94-2.25,2.32-2.63c0.32-0.09,0.65-0.16,0.95-0.28c3.49-1.43,0.82-6.51,3.73-7.35
				c2.85-0.82,6-0.2,7.05-3.99c0.34-1.24,1.01-2.15,2.5-1.64C1109.11,345.71,1109.45,346.43,1109.43,347.38z"/>
			<path class="st0" d="M912.36,694.24c11.73-4.24,30.72-2.48,34.63,2.95C936.02,691.67,924.41,697.22,912.36,694.24z"/>
			<path class="st0" d="M983.01,359.98c-0.28-0.15-0.83-0.27-1.08-0.61c-0.57-0.78-0.24-1.6,0.33-2.24
				c2.58-2.95,3.91-6.33,4.63-10.22c0.53-2.87,3.58-3.63,6.15-4.23c1.12-0.26,2.5,0.2,3,1.32c0.68,1.52-0.88,1.85-1.79,2.45
				c-4.16,2.73-5.82,7.47-8.83,11.12C984.71,358.41,984.6,359.75,983.01,359.98z"/>
			<path class="st0" d="M1113.12,953.25c-10.86-0.07-21.75-0.67-33.44-3.26C1091.9,946.86,1102.19,953.14,1113.12,953.25z"/>
			<path class="st0" d="M1127.7,300.72c2.37,3.86,2.9,6.99,3.39,10c0.41,2.56-1.02,4.79-3.73,4.9c-2.99,0.12-2.42-2.62-2.45-4.45
				C1124.84,307.83,1126.01,304.79,1127.7,300.72z"/>
			<path class="st0" d="M1019.38,711.33c-4.54,4.42-6.33,4.51-9.11,0.19c-1.35-2.11-5.79-4.27-2.95-6.82
				c2.68-2.41,3.92,2.2,5.73,3.73C1014.75,709.86,1016.64,710.74,1019.38,711.33z"/>
			<path class="st0" d="M945.39,363.23c3.68-6.01,7.34-12.04,11.07-18.03c0.5-0.8,1.37-1.83,2.41-1.31c1.5,0.76,0.64,2.07,0.08,2.98
				c-3.73,6-9.22,10.67-12.02,17.39C946.41,363.92,945.9,363.57,945.39,363.23z"/>
			<path class="st0" d="M1096.59,321.33c2.21,0.91,6.03,0.15,6.26,3.34c0.13,1.84-3.03,3.63-5.32,3.58
				c-2.63-0.06-4.78-2.49-5.24-4.61C1091.84,321.59,1094.7,321.61,1096.59,321.33z"/>
			<path class="st0" d="M1083.29,316.32c2.53-5.76,9.82-6.92,16.56-2.32C1093.44,313.82,1087.91,312.47,1083.29,316.32z"/>
			<path class="st0" d="M948.54,469.66c3.4-4.35,6.73-8.75,11.16-12.1c0.46,0.44,0.93,0.87,1.39,1.31
				c-3.72,4.04-7.45,8.09-11.17,12.13C949.46,470.56,949,470.11,948.54,469.66z"/>
			<path class="st0" d="M1110.12,519.86c-1.58,5.18,0.19,10.9-2.74,16.25C1105.42,533.06,1107.2,521.93,1110.12,519.86z"/>
			<path class="st0" d="M846.57,673.68c1.71-4.14,1.76-9,5.52-12.25C853.67,665.08,851.32,670.61,846.57,673.68z"/>
			<path class="st0" d="M1010.22,835.51c-0.23-3.17-0.68-5.59-0.5-7.97c0.13-1.7,1.61-3.29,3.35-3.03c2.13,0.32,1.47,2.32,0.93,3.62
				C1013.09,830.35,1013.52,833.17,1010.22,835.51z"/>
			<path class="st0" d="M958.2,387.49c0.19-2.06-0.55-4.51,1.98-4.77c2.03-0.21,2.62,1.79,2.54,3.55c-0.1,2.07-0.81,4.52-2.94,4.69
				C956.99,391.18,959.11,388.34,958.2,387.49z"/>
			<path class="st0" d="M944.81,802.7c2.42-0.03,3.28,1.82,3.58,4.17c0.23,1.82-0.57,3.14-2.42,2.88c-2.73-0.37-2.72-3.01-3.34-4.98
				C942.19,803.36,942.84,802.53,944.81,802.7z"/>
			<path class="st0" d="M1060.21,381.2c-0.21,1.23,0.59,3.53-1.01,3.28c-2.73-0.42-3.38-3.28-3.91-5.67
				c-0.33-1.5-0.03-3.44,1.99-3.12C1060.34,376.18,1059.72,379.11,1060.21,381.2z"/>
			<path class="st0" d="M989.18,435.65c0.18,4.8,1.05,9.72-0.86,14.47C986.81,445.25,989.49,440.53,989.18,435.65z"/>
			<path class="st0" d="M1078.54,778.9c-1.39-5.68,1.25-10.18,2.51-15.41C1081.71,767.84,1080.52,775.23,1078.54,778.9z"/>
			<path class="st0" d="M1148.52,922.4c-4.29,1.26-6.8-1.69-9.88-2.22c-0.31-0.05-0.76-0.75-0.72-1.1c0.12-1.1,1.14-1.1,1.89-1.02
				C1142.91,918.4,1145.8,919.26,1148.52,922.4z"/>
			<path class="st0" d="M925.14,428.95c-0.09,1.18-0.87,1.67-1.92,1.88c-1.28,0.26-2.56,0.5-3.83,0.8
				c-1.32,0.32-2.43,3.54-3.77,0.97c-1.02-1.95,1.98-2.02,3.13-2.95c1.14-0.91,2.46-1.68,3.82-2.17
				C923.7,427.08,924.89,427.37,925.14,428.95z"/>
			<path class="st0" d="M1117.29,509.59c-1.41,2.04-0.95,5.57-4.29,6.44c-1.05,0.27-1.12-0.99-1.05-1.78
				c0.25-2.81,1.83-4.9,4.06-6.36C1116.78,507.4,1117.37,508.43,1117.29,509.59z"/>
			<path class="st0" d="M1090.95,378.57c-1.55-0.05-2.99-0.53-2.89-2.15c0.13-2.14,1.96-2.98,3.81-3.36c1.3-0.27,2.45,0.3,2.35,1.8
				C1094.08,376.88,1093.01,378.27,1090.95,378.57z"/>
			<path class="st0" d="M1085.8,366.53c-1.1,1.47-1.66,3.69-3.94,3.87c-1.49,0.12-1.76-1.27-1.67-2.45
				c0.16-2.02,1.14-3.42,3.37-3.35C1084.68,364.64,1085.94,364.77,1085.8,366.53z"/>
			<path class="st0" d="M1025.49,737.15c-0.44,1.83-1.79,2.39-3.38,2.03c-1.7-0.39-4.2-0.79-3.96-2.9c0.21-1.91,2.68-1.44,4.25-1.53
				C1023.99,734.65,1025.36,735.18,1025.49,737.15z"/>
			<path class="st0" d="M934.99,493.1c2.95-2.18,5.84-4.46,9.63-5.54C942.76,491.73,940.67,493,934.99,493.1z"/>
			<path class="st0" d="M959.22,477.66c-3.2,2.44-6.4,4.89-9.59,7.33c-0.32-0.39-0.63-0.78-0.95-1.17c3.14-2.46,6.28-4.91,9.42-7.37
				C958.47,476.86,958.85,477.26,959.22,477.66z"/>
			<path class="st0" d="M1032.9,751.27c-0.2,1.65-0.65,3.22-2.84,3.21c-1.16-0.01-1.96-0.78-1.82-1.88
				c0.24-1.97,1.47-3.45,3.42-3.68C1032.88,748.77,1032.92,750.15,1032.9,751.27z"/>
			<path class="st0" d="M1061.57,394.31c2.9,3.19,2.81,7.64,4.87,11.19C1062.54,402.72,1062.18,398.46,1061.57,394.31z"/>
			<path class="st0" d="M917.59,808.75c1.78,1.56,3.17,3.5,3.52,6.01c0.13,0.89-0.6,1.83-1.45,1.3c-2.19-1.37-2.92-3.75-3.46-6.12
				C916.05,809.28,916.65,808.79,917.59,808.75z"/>
			<path class="st0" d="M999.44,339.18c0.04-1.4-0.26-2.94,1.49-2.8c1.85,0.15,3.03,1.46,2.96,3.36c-0.05,1.46-1.15,2.63-2.56,2.61
				C999.05,342.32,999.91,340.17,999.44,339.18z"/>
			<path class="st0" d="M1039.5,388.35c-0.22,1.02,0.26,2.8-1.36,2.62c-1.78-0.19-1.89-2.09-1.94-3.57
				c-0.04-1.15,0.13-2.65,1.74-2.35C1039.59,385.37,1039.36,387.03,1039.5,388.35z"/>
			<path class="st0" d="M1042.69,397.16c-0.01,1.21-0.37,2.22-1.65,2.06c-1.97-0.25-2.03-1.94-2.06-3.44
				c-0.02-0.97,0.11-2.29,1.47-2.04C1042.25,394.07,1042.36,395.8,1042.69,397.16z"/>
			<path class="st0" d="M1044.54,320.03c1.85,0.16,2.5,1.35,2.45,3.01c-0.04,1.21-0.41,2.41-1.95,2.2
				c-1.68-0.22-2.54-1.44-2.63-3.05C1042.33,320.83,1043.22,320.17,1044.54,320.03z"/>
			<path class="st0" d="M898.58,447.66c-1.43-0.34-3.1-0.72-3.34-2.44c-0.24-1.73,1.43-1.49,2.5-1.56c1.39-0.08,2.78,0.21,3.02,1.89
				C900.98,447.05,900,447.61,898.58,447.66z"/>
			<path class="st0" d="M946.99,829.67c-1.26,0-1.82-0.76-1.87-1.87c-0.06-1.33,0.66-2.22,1.94-2.52c1.11-0.27,2.13,0.06,2.08,1.36
				C949.08,828,948.44,829.18,946.99,829.67z"/>
		</g>
	</g>
</g>
</svg>
