<?xml version="1.0" encoding="utf-8"?>
<!-- Generator: Adobe Illustrator 28.0.0, SVG Export Plug-In . SVG Version: 6.00 Build 0)  -->
<svg version="1.1" id="Layer_1" xmlns="http://www.w3.org/2000/svg" xmlns:xlink="http://www.w3.org/1999/xlink" x="0px" y="0px"
	 viewBox="0 0 1920 1080" style="enable-background:new 0 0 1920 1080;" xml:space="preserve">
<style type="text/css">
	.st0{fill:none;stroke:#231F20;}
</style>
<g>
	<g>
		<g>
			<path d="M1079.93,346.92c0.24,1.92-0.85,3-2.25,4.11c-3.61,2.84-5.25,6.77-5.6,11.26c-0.61,7.64-0.54,15.31-0.86,22.95
				c-0.25,6.01-0.23,12.09-1.61,18.16c-0.98,4.29-0.23,9.34,1.04,13.67c1.06,3.6,1.04,6.59-0.88,9.44c-3.1,4.6-3.19,9.36-1.45,14.32
				c2.78,7.9,2.07,16.45,4.75,24.41c1.04,3.09,0.37,6.29-1.73,9.42c-2.98,4.45-1.22,10.18-2.95,15.26c-1.09,3.2-2.27,5.69-4.89,7.62
				c-5.27,3.87-5.67,9.17-4.77,15.1c0.54,3.58,1.4,7.18,0.97,10.88c-0.32,2.75,0.66,5.23,1.97,7.59c4.69,8.4,9.1,16.98,14.16,25.15
				c4.2,6.79,5.73,13.37,2.01,20.82c-3.09,6.19-1.66,12.12,0.13,18.69c3.95,14.51,9.41,28.88,7.51,44.51
				c-2.25,18.48,2.15,35.98,8.74,53.07c1.77,4.58,2.27,9.28,2.14,14.2c-0.29,11.2,2.74,22.12,3.17,33.27
				c0.52,13.48,3.02,26.72,5.06,39.98c1.97,12.8,4.41,25.55,6.57,38.33c0.79,4.71-0.52,8.51-3.55,11.95
				c-5.83,6.61-11.64,13.22-17.44,19.85c-3.35,3.82-3.92,8.95-4.7,13.43c-0.94,5.39-1.33,11.41,0.42,16.82
				c3.84,11.85,3.24,24.07,3.31,36.15c0.05,8.11,0.93,16.36-0.64,24.42c-1.3,6.68-3.48,13.18-4.05,20
				c-0.65,7.7-0.52,15.54-3.63,22.83c-4.1,9.63-2.91,20.32-6.55,30.17c-2.52,6.82-0.71,14.53-0.62,21.83c0.03,2.66,1.73,5.1,3.58,7
				c2.31,2.39,4.09,5.17,6.18,7.66c3.83,4.59,8.92,7.2,15.4,6.78c8.13-0.53,16.29-0.54,24.43-0.64c4.32-0.05,8.38-2.06,12.99-0.6
				c3.15,1,5.98,1.78,7.89,4.59c0.19,0.28,0.42,0.54,0.54,0.84c1,2.72,5.47,3.6,4.86,6.47c-0.8,3.77-3.11,7.25-4.91,10.78
				c-0.51,1.01-1.85,1.68-2.15,2.7c-1.27,4.35-2.71,7.22-6.81,2.01c-0.62-0.79-2.02-0.69-2.59,0.34c-0.7,1.28,0.4,1.74,1.39,2.01
				c1.06,0.29,1.98,0.73,1.73,1.98c-0.24,1.18-1.33,1.51-2.34,1.4c-1.97-0.22-2.85,1.54-4.33,2.17c-1.84,0.78-2.74,1.53-0.29,2.86
				c2.7,1.47,1.26,2.79-0.56,3.29c-11.54,3.15-20.16,13-32.58,14.09c-1.1,0.1-2.26,0.7-3.2,1.35c-4.07,2.82-8.14,3.37-12.58,0.74
				c-1.11-0.66-3.18-1.39-3.83,0.62c-0.61,1.91,1.24,1.89,2.53,2.12c1.05,0.19,2.06,0.58,1.57,1.91c-0.43,1.15-1.54,1.26-2.52,0.86
				c-2.64-1.09-4.75-0.89-6.42,1.77c-0.63,1-2.12,1.44-3.17,0.92c-6.32-3.09-11.72,1.47-17.57,2.13c-2.73,0.31-5.46,1.4-8.3,1.5
				c-2.75,0.1-3.79-0.21-5.46-3.78c-4.3-9.18-2.05-18.68-3.62-27.88c-1.21-7.11,1.03-14.81,1.69-22.25
				c0.7-7.95,1.71-15.89-0.64-23.8c-0.89-2.98-2.4-3.9-5.54-4.49c-7.65-1.45-15.14-3.79-23.97-6.1c6.46-2.67,11.72-1.7,16.54-0.07
				c5.13,1.74,10.71,2.3,15.4,5.36c1.85,1.2,3.09-0.38,4.37-1.36c0.9-0.69,1.21-1.67,0.45-2.61c-1.43-1.77-2.5-0.54-3.7,0.47
				c-1.59,1.33-2.57-0.08-3.09-1.21c-0.76-1.63-1.63-3.48-1.54-5.19c0.39-7.86-3.6-14.24-6.29-21.17
				c-3.06-7.89-5.14-16.19-7.2-24.42c-3.92-15.7-7.06-31.65-8.59-47.69c-0.95-9.92,0.26-20.39,3.12-30.11
				c3.72-12.63,4.94-25.26,3.03-38.18c-0.57-3.9-1.77-7.84-3.45-11.4c-1.28-2.69-3.25-5.05-6.82-5.97
				c-6.41-1.65-12.68-3.82-19.29-4.69c-5.56-0.73-8.03-3.28-8.5-8.99c-1.04-12.6-2.18-25.18-4.13-37.68
				c-0.29-1.84-0.88-3.53-1.71-5.18c-1.55-3.1-1.81-6.34-0.99-9.73c3.48-14.45,4.32-28.88-1.1-43.08c-0.96-2.51,0.42-6.59-2.94-7.34
				c-3.73-0.83-4.01,3.79-6.1,5.72c-6.02,5.57-8.11,13.38-11.1,20.63c-1.44,3.49-3.4,6.78-4.11,10.59
				c-0.92,4.95-4.85,6.79-9.09,7.04c-4.15,0.25-5.71,2.83-6.35,5.83c-2.41,11.19-7.78,21.06-12.5,31.33
				c-3.54,7.69-3.87,16.72-7.39,24.66c-6.33,14.26-12.97,28.36-19.73,42.43c-6.32,13.16-13.92,25.75-19,39.48
				c-2.76,7.46-5.06,15.12-6.97,22.84c-0.71,2.86,0.24,6.15,0.59,9.22c0.11,0.94,0.81,2.41,1.75,2.11
				c6.14-1.97,11.4,2.75,17.49,1.96c6.09-0.79,12.27,0.14,18.42,0.5c7.5,0.44,9.75,6.46,11.98,11.16c1.86,3.9,0.43,8.82-3.39,13.1
				c-4.19,4.69-9.98,7.36-13.72,11.88c-6.13,7.41-15.28,8.77-22.88,10.92c-8.69,2.46-17.06,6.13-25.93,8.05
				c-3,0.65-6.13,0.31-7.95-1.41c-3.03-2.86-6.13-2.83-9.68-2.4c-3.64,0.44-7.29,0.76-10.94,1.12c-1.14,0.11-2.66-0.05-2.57,1.58
				c0.1,1.79,1.67,2.01,3.02,1.59c4.57-1.39,9.29,0.37,13.89-0.86c1.36-0.36,3.83-0.95,3.9,1.54c0.05,1.74-1.88,1.98-3.5,1.91
				c-1.24-0.05-3.03-0.81-3.36,1c-0.26,1.4,1.55,1.98,2.46,2.9c1.32,1.34,3.06,1.05,4.72,1.06c9.99,0.04,19.98,0.09,29.97,0.17
				c0.95,0.01,1.99-0.04,3.21,1.49c-8.16,1.12-15.88,1.08-23.54,0.93c-5.22-0.1-10.8,2.04-15.62-1.23
				c-4.71-3.2-9.14-4.86-15.31-4.08c-6.81,0.86-10.86-6.6-7.93-12.85c0.83-1.76,1.06-3.36,0.87-5.26
				c-0.43-4.23-0.38-7.93,2.34-12.13c2.7-4.18,2.63-10.15,3.82-15.32c1.86-8.08,1.58-16.56,4.75-24.41
				c5.49-13.59,6.67-28,8.43-42.39c0.68-5.6,0.92-10.76-0.47-16.06c-0.99-3.76,2.6-6.13,2.35-9.95
				c-0.74-11.61-1.06-23.26-0.72-34.92c0.28-9.55,3.55-18.12,7.75-26.45c4.89-9.7,10.95-18.53,19.09-25.89
				c2.08-1.88,3.48-4.75,3.66-7.54c0.41-6.19,3.26-11.68,4.41-17.64c0.53-2.74-0.05-3.67-2.82-4.5c-8.58-2.59-10.55-8.26-6.52-16.24
				c4.29-8.5,5.48-18.05,4.38-27.68c-1-8.76-0.43-17.32,3.96-25.17c1.57-2.8,0.84-7.86,6.37-7.38c0.22,0.02,0.75-0.78,0.71-1.15
				c-0.09-0.92-0.88-1.26-1.7-1.57c-5.13-1.92-5.57-3.09-3.18-8.12c2.34-4.91-1.55-8.6-3.01-12.48
				c-3.03-8.03-7.97-15.37-10.64-23.48c-1.38-4.21-5-8.27-3.16-13.5c0.57-1.62-0.9-3.46-1.33-5.19c-1.93-7.75-5.02-15.03-7.85-22.46
				c-3.56-9.35,0.94-18.23,4.18-26.96c0.24-0.66,0.68-1.24,1.45-0.98c0.97,0.33,1.07,1.3,0.93,2.09c-0.65,3.6-1.14,7.26-2.17,10.75
				c-2.91,9.82,1.3,17.32,7.46,24.28c6.23,7.04,12.99,13.62,18.16,21.56c3.57,5.49,9.57,8.44,14.14,12.93
				c5.53,5.44,11.99,9.95,17.26,16.69c-3.02,0.17-4.31-1.32-5.74-2.63c-4.77-4.35-9.74-8.46-14.46-12.88
				c-2.75-2.58-7.23-3.63-10.15-6.66c-3.33-3.47-6.74-6.86-10.01-10.39c-1.09-1.17-2.07-2.47-3.69-1.23
				c-1.5,1.15-0.98,2.62-0.06,3.98c6.68,9.86,13.95,19.1,24.24,25.64c3.88,2.47,7.52,5.56,10.64,8.95
				c7.26,7.86,17.7,10.19,26.28,15.71c0.96,0.62,2.36,0.61,3.32-0.17c1.24-1,0.13-1.71-0.59-2.33c-0.81-0.7-1.57-1.51-0.7-2.49
				c0.92-1.03,2.17-0.72,3.2-0.03c2.35,1.57,4.92,2.92,6.91,4.87c10.4,10.21,22.99,16.34,36.62,21.02c5.53,1.9,10.7,5.2,15.57,8.54
				c2.05,1.4,4.49,1.82,7.17,3.49c-4.84,2.27-8-0.8-11.23-1.96c-4.46-1.61-8.57-4.22-12.81-6.43c-1.18-0.62-2.52-1.67-3.52-0.19
				c-0.97,1.42,0.46,2.54,1.4,3.35c5.14,4.46,10,9.14,14.39,14.39c12.16,14.52,23.7,29.5,34.79,44.85
				c3.2,4.42,7.25,8.11,11.24,11.82c1.84,1.71,4.29,3.21,4.11,6.36c-3.28,0.19-4.14-2.73-5.94-4.25
				c-11.37-9.62-19.88-21.77-28.77-33.5c-6.95-9.17-14.18-18.05-21.91-26.55c-0.76-0.83-1.41-2.14-2.78-1.66
				c-1.66,0.58-1.18,2.19-1.18,3.45c0.02,5.46,2.42,10.35,4.1,15.34c3.13,9.25,6.99,18.25,10.25,27.46
				c3.13,8.84,9.06,15.75,14.97,22.68c7.87,9.23,15.86,18.35,23.83,27.49c0.87,1,2.34,1.89,1.04,3.29
				c-1.37,1.48-2.48,0.01-3.26-0.94c-8.18-9.84-18.18-17.95-25.97-28.23c-4.98-6.57-10.67-12.63-15.25-19.54
				c-0.39-0.58-0.79-1.13-1.53-0.94c-0.97,0.25-1.32,1.19-1.18,1.96c1.42,7.86-2.13,15.81,0.91,23.75
				c2.32,6.06,2.94,12.66,3.06,19.17c0.07,3.89,2,6.3,5.22,7.78c6.29,2.9,12.44,6.8,19.07,8.02c5.91,1.09,10.98,3.85,16.74,4.96
				c-0.6,1.67-1.83,1.47-2.65,1.22c-10.03-2.99-20.64-4.02-30.05-9.06c-2.19-1.17-4.67-2.82-6.97-1.06
				c-2.11,1.62-0.93,4.44-0.73,6.63c0.41,4.68,1.87,8.3,7.72,9.14c6.86,0.99,13.42,3.56,20.36,4.72c4.36,0.73,8.39,3.78,12.41,6.07
				c4.19,2.39,8.07,3.93,13.08,1.72c5.51-2.43,12.42-0.46,17.41-5.1c0.24-0.22,1.17-0.19,1.3,0.02c2.7,4.31,6.69,1.78,9.5,1.04
				c7.45-1.95,15.47-1.8,22.38-5.84c4.77-2.78,6.91-6.45,6.56-12.27c-0.76-12.63-0.39-25.33-1.3-37.95
				c-1.17-16.24,0.67-32.62-2.35-48.76c-0.11-0.56,0.14-1.2,0.31-2.4c2.06,1.8,2.13,3.73,2.45,5.64
				c3.18,18.64,2.51,37.52,3.53,56.29c0.4,7.43,1.11,14.85,1.61,22.28c0.24,3.48,2.12,3.2,3.76,1.35c3.61-4.09,6.85-8.06,5.87-14.55
				c-3.08-20.41-7.43-40.62-9.32-61.2c-1.5-16.38-4.51-32.58-4.87-49.11c-0.19-8.32-3.83-16.16-6.56-24
				c-5.18-14.91-6.73-30.12-5.39-45.78c0.87-10.06-2.56-19.38-5.66-28.71c-0.52-1.57-1.02-3.15-1.51-4.74
				c-0.42-1.37-0.18-3.28-2.15-3.52c-1.61-0.2-2.96,0.82-3.74,2.12c-2.41,3.98-4.51,8.16-7.04,12.05c-1.06,1.63-2,5.16-4.33,3.81
				c-2.65-1.53-0.21-4.34,1-5.94c3.33-4.43,5.2-9.64,8.16-14.24c2.54-3.94,3.72-8.04,2.56-12.8c-0.73-3.01-0.16-5.67,2.85-7.82
				c3.27-2.33,4.13-9.12,2.53-12.82c-4.6-10.65-11.03-20.39-15.35-31.18c-1.12-2.78-3.36-2.66-5.33-1.24
				c-4.07,2.93-8.14,2.15-12.79,1.53c-7.61-1.02-15.41-0.69-23.14-0.78c-7.51-0.09-15.06,0.66-22.48-1.28
				c5.39-2.2,11.13-2.09,16.49-1.45c7.67,0.91,15.08-1.78,22.74-0.51c3.05,0.51,6.2,0.58,9.28,1.38c5.86,1.51,10.85-3.37,9.45-9.08
				c-0.44-1.77-1.84-1.23-2.81-0.79c-14.05,6.35-28.93,5.83-43.82,5.54c-6.96-0.14-13.76,0.28-20.61,2.65
				c-5.02,1.74-10.84,1.49-16.31,1.49c-3.9,0.01-7.76-1.34-13.01-1.1c10.16-3.81,19.81-0.29,28.84-3.81
				c-13.6-1.52-27.23-2.69-40.11-7.86c6.8,1.51,13.86,0.22,20.56,2.25c2.42,0.73,4.81,1.44,7.32,1.38
				c15.67-0.38,31.2,2.04,46.84,2.4c9.2,0.22,17.69-2.94,26.49-4.53c2.85-0.52,7.11-2.47,4.3-7.45c-0.93-1.65,0.91-2.67,1.37-4.01
				c0.58-1.68,0.62-3.55-1.03-4.48c-2.08-1.18-2.42,0.92-2.98,2.2c-0.48,1.08-0.79,2.31-2.18,2.46c-7.17,0.74-13.47,5.43-21.16,4.21
				c-4.92-0.78-10-0.5-16.16,0.28c2.34-3.14,4.49-3,6.31-3.04c9.05-0.18,17.73-2.86,26.68-3.71c1.41-0.13,3.33-0.06,3.51-2.05
				c0.17-1.97-1.64-2.48-3.08-2.61c-9.99-0.91-19.3-6.04-29.73-4.4c-4.15,0.65-8.4-1.31-11.99-2.69
				c-7.91-3.03-15.81-1.34-23.65-1.88c-7.79-0.54-15.46,0.88-23.21,2.53c-8.21,1.75-16.87,1.71-25.34,1.81
				c-10.42,0.12-20.34,3.29-30.6,4.32c-1.91,0.19-3.65,0.41-5.17-0.94c-1.88-1.67-3.81-1.44-6.03-0.66
				c-3.17,1.11-6.42,1.5-9.82,0.58c-2.69-0.73-3.26-2.54-3.26-4.88c0-1.26,0.37-2.33,1.75-2.67c1.13-0.27,2.06,0.23,2.46,1.23
				c1.84,4.64,5.39,3.79,8.77,2.57c3.87-1.4,8.17-1.73,11.55-4.49c0.69-0.57,1.88-0.68,2.85-0.73c1.29-0.07,3.18-0.32,3.39,1.25
				c0.25,1.83-1.75,1.53-2.95,1.81c-0.64,0.15-1.33,0.12-1.99,0.22c-0.82,0.12-1.8,0.22-1.84,1.28c-0.05,1.38,1.07,1.57,2.08,1.47
				c3.48-0.33,6.95-0.68,10.33-1.71c2.22-0.67,4.52-1.37,6.81-1.44c19.61-0.65,39.01-3.83,58.57-4.96
				c6.79-0.39,13.94-1.27,20.38,0.33c15.95,3.95,32.57,3.37,48.36,8.04c4.9,1.45,9.98,0.08,14.94-0.63
				c1.22-0.18,8.09-10.03,7.47-10.56c-4.89-4.17-1.9-9.95-3.16-14.83c-0.64-2.47-1.52-5.72,3.58-4.19c2.48,0.74,2.21-1.96,1.97-3.47
				c-1.28-8-2.84-15.96-4.01-23.98c-0.78-5.31-2.41-10.84,2.2-15.51c0.71-0.72,1.16-2.25,0.96-3.25
				c-1.51-7.58-1.79-15.42-4.59-22.75c-1.59-4.17,1.26-7.02,3.35-9.95c0.64-0.9,1.91-1.38,1.71-2.75
				c-1.31-8.68,1.5-17.21,0.82-25.88c-0.64-8.26-0.75-16.85-3.67-24.42c-2.56-6.65-6.75-12.86-9.88-19.45
				c-0.99-2.1-2.16-4.12-3.25-6.17c-0.75-1.4-1.41-2.95,0.46-3.84c1.76-0.83,2.78,0.39,3.36,1.96c2.6,7.03,6.34,13.51,9.63,20.2
				c1.04,2.11,2.35,3.88,4.65,5.58c1.68-10.12,1.21-19.89,1.12-29.95c2.89,1.11,2.52,3.09,2.52,4.53c0.01,8.31,1.2,16.63-0.14,24.94
				c-0.27,1.69-1.23,4.22,1.11,4.74c2.53,0.57,2.11-2.29,2.83-3.82c3.85-8.11,1.6-16.68,2.03-25.05c0.08-1.6-0.71-3.3,0.7-4.98
				c2.49,0.87,1.98,3.22,2.16,4.95c1.05,9.71,0.24,19.33-2.62,28.65c-0.9,2.93-2.93,5.52-4.53,8.21c-0.77,1.3-2,2.69-0.23,3.85
				c1.68,1.11,2.15-0.72,2.92-1.73c0.65-0.84,1.63-1.09,2.67-1.05C1080.05,347.04,1079.93,346.92,1079.93,346.92z M919.94,689.88
				c-1.19-0.34-2.92,0.69-3.53-0.99c-0.65-1.82,2.45-1.62,2.11-3.76c-4.73-0.95-9.1-3.15-13.49-5.41
				c-9.82-5.07-17.27-13.23-26.14-19.52c-5.29-3.75-8.98-9-13.24-13.73c-1.07-1.19-2.17-3.21-4.01-2.01
				c-2.06,1.33-0.24,2.77,0.54,4.19c4.4,7.99,8.71,16.3,10.55,25.05c1.59,7.58,5.3,11.62,11.8,14.19c12,4.73,23.92,9.47,35.18,16.01
				c8.46,4.92,15.58,10.69,21.76,18.22c4.65,5.66,7.54,12.51,12.92,17.63c2.39,2.27,3.77,3.04,6.33,0.15
				c5.99-6.74,5.41-22.93-0.53-30.32c-5.72-7.12-13.06-11.44-21.27-14.4c-2.31-0.83-2.25-3.91-3.78-3.58
				c-4.33,0.94-6.63-2.24-9.77-3.78c-2.47-1.21-5.26-2.38-5.6,2.21L919.94,689.88z M868.21,722.52
				c-0.22,10.01-2.88,20.93-6.84,31.52c-1.33,3.57-0.95,5.13,2.99,4.94c5.31-0.25,10.61,0.27,15.94-0.18
				c4.26-0.36,8.61-0.1,12.89,0.83c6.61,1.43,13.24,2.96,19.93,3.79c5.57,0.7,10.2,2.73,14.01,6.74c3.86,4.07,9.23,3.58,14.07,4.45
				c1.72,0.31,2.92-1.7,3.72-3.53c3.04-6.93,6.24-13.78,8.73-20.95c1.02-2.95,0.89-5.24-1.29-7.76
				c-6.63-7.64-12.77-15.73-19.58-23.2c-3.62-3.96-6.54-9-11.85-11.04c-8.64-3.32-16.54-8.27-25.48-10.93
				c-5.66-1.69-11.03-4.35-16.58-6.47c-1.22-0.46-2.74-0.62-3.54,0.85c-0.57,1.05,0.03,1.88,0.99,2.46
				c10.71,6.54,19.88,15.46,31.68,20.32c1.97,0.81,3.75,2.11,5.54,3.31c0.67,0.45,1.26,1.33,0.83,2.16
				c-0.5,0.98-1.41,0.49-2.15,0.15c-3.3-1.54-6.58-3.12-9.88-4.65c-8.88-4.14-16.84-9.85-25.22-14.82
				c-2.37-1.41-4.32-1.57-6.44,1.02c-2.4,2.94-3.42,5.97-3.14,9.63C867.79,714.48,867.94,717.8,868.21,722.52z M1051.08,864.65
				c-8.25,0.75-15.06-2.67-22.17-1.1c-1.02,0.23-2.26-0.41-3.37-0.76c-1.47-0.46-2.82-2.51-4.43-0.78c-1.44,1.55-0.49,3.41,0.1,5.17
				c1.99,5.92,3,11.93,1.16,18.11c-1.74,5.85,1.55,11.01,7.62,10.85c16.49-0.46,33.06-0.32,48.81-6.83
				c3.53-1.46,3.67-2.81,3.61-6.08c-0.15-8.5-2.88-17.19,1.34-25.49c0.62-1.22,0.22-3.46-1.23-3.05c-2.9,0.81-7.15-0.32-8.11,4.19
				c-0.25,1.17-0.32,1.9-1.76,1.43c-7.41-2.4-14.95,2.81-22.5-0.41c-1.53-0.65-5.31-0.39-5.46,1.95
				C1044.52,864.55,1047.96,863.68,1051.08,864.65z M915.2,804.88c1.43,1.93-1,4.94,2.06,5.39c2.36,0.35,2.58-2.21,3.67-3.54
				c2.4-2.91,2.97-6.64,4.37-10c2.27-5.41,2.08-11.66,5.82-16.56c0.84-1.11,0.48-2.26-0.65-3.01c-1.3-0.86-2.06-0.06-2.86,0.96
				c-2.41,3.07-2.79,6.84-3.32,10.65c-4.36-1.84-6.42-7.09-11.77-6.06c-0.86,0.16-1.54-0.63-1.3-1.66c0.95-4.13-1.66-2.29-3.45-2.18
				c-5.49,0.34-10.89,2.08-17.05,1.54c1.88-2.95,3.21-5.2,6.56-3.24c1.18,0.69,2.43,0.22,3.77,0.01c5.29-0.83,10.76-2.32,15.79,0.93
				c2.6,1.68,4.76,0.41,6.92-0.68c0.51-0.25,0.75-1.45,0.74-2.21c-0.02-1.04-0.96-1.35-1.82-1.11c-6.24,1.75-3.34-1.53-1.77-4.27
				c-8.12,2.32-15.92,0.6-24.72,2.28c1.76-2.36,2.89-1.89,3.81-2.13c1-0.27,2.08-0.59,2.12-1.76c0.05-1.43-1.16-1.85-2.33-2.18
				c-7.27-2.05-14.7-2.46-22.19-2.06c-1.98,0.1-4.6,0.16-4.52,2.81c0.15,4.58-2.04,8.26-3.4,12.33c-1.02,3.03-0.67,6.56-0.71,9.87
				c-0.02,1.62,1.41,2.16,2.79,2.32c3.8,0.45,7.48,1.41,11.21,2.29c9.64,2.29,19.86,3.16,26.74,11.64
				C911.73,807.77,913.4,808.45,915.2,804.88z M1140.85,1066.44c-1.28-1.84-2.21-4.08-4.64-5.35c-3.66-1.91-6.51-1.17-10.39,0.3
				c-4.22,1.61-7.21,3.26-8.94,7.39c-0.77,1.85-2.26,3.06-4.43,3.62c-2.2,0.57-4.27,1.74-6.33,2.77c-1.76,0.88-2.35,2.57-1.47,4.2
				c1.01,1.88,2.25,0.03,3.37-0.27c1.29-0.35,2.27-1.53,3.34-1.93c3.3-1.24,5.7-5.17,9.52-4.15c2.23,0.59,3.51-0.04,4.9-1.12
				c1.84-1.43,3.29-2.1,5.67-0.53C1133.68,1072.85,1141.03,1068.84,1140.85,1066.44z M1051.51,969.94
				c-0.46-1.55-1.53-1.51-2.51-1.52c-4.78-0.03-9.57-0.43-14.33,0.46c-1.19,0.22-2.46,0.32-3-1.02c-0.6-1.51,0.78-2,1.73-2.56
				c1.12-0.66,2.39-2.24,3.48-1.57c5.29,3.25,9.52-0.84,14.19-1.74c1.36-0.26,3.53-0.37,3-2.43c-0.56-2.17-2.41-0.7-3.77-0.61
				c-6.47,0.42-12.65,3.53-19.43,1.51c-3.03-0.9-5.49,2.09-4.57,5.11c0.45,1.48,1.49,2.39-1.1,2.19c-1.78-0.14-2.27,1.21-2.06,2.67
				c0.27,1.89,1.72,1.6,3.09,1.45c5.78-0.65,11.58-0.59,17.39-0.49C1046.24,971.43,1049.19,971.79,1051.51,969.94z M1061.11,1038.68
				c0.42,2.9,3.61,3.51,3.85,6.31c0.14,1.62,0.24,3.7,2.69,3.23c1.55-0.3,3.5-0.74,3.88-2.65c0.45-2.25-1.61-2.56-3.07-3.23
				c-1.91-0.87-3.3-2-1.36-4.06c0.81-0.86,3.65-0.43,1.81-2.79c-1.1-1.4-2.62-2.96-4.67-2c-2.32,1.08-4.37,0.38-6.68,0.1
				c-4.17-0.52-7.65,2.49-11.64,3.43c-1.62,0.39-0.78,3.94-1.12,6.03c-0.2,1.23-0.59,3.02,1.04,3.44c2.23,0.57,1.97-1.5,2.41-2.85
				c0.6-1.85,6.46-5.17,7.05-4.13C1057.55,1043.48,1059.09,1040.77,1061.11,1038.68z M1062.67,993.69
				c-0.17-4.01,1.41-5.61,5.23-5.16c3.21,0.38,5.37-2.45,5.69-4.58c0.5-3.36-3.55-0.53-4.83-2.26c-0.38-1.77,2.95-2.55,1.55-4.21
				c-1.41-1.67-3.41-0.4-5.05,0.29c-2.62,1.11-5.31,1.56-8.13,1.97c-5.71,0.83-11.47,0.19-17.14,1.02
				c-1.12,0.17-2.57,0.06-2.27,1.81c0.2,1.15,1.31,1.62,2.32,1.36c7.07-1.79,14.33,1.13,21.38-0.89c0.98-0.28,2.18-0.5,2.74,0.46
				c0.68,1.17-0.61,1.63-1.34,2.24C1059.92,988.15,1061,990.73,1062.67,993.69z M829.88,1010.49c0.66,0.07,1.32,0.23,1.96,0.18
				c0.99-0.08,2.23-0.32,2.11-1.55c-0.14-1.39-1.49-0.93-2.41-0.92c-0.66,0.01-1.31,0.22-1.96,0.29c-5.31,0.53-4.76-3.86-5.1-6.76
				c-0.37-3.19,2.93-1.08,4.3-2.04c0.33-0.23,0.97,0.01,1.46,0.01c1.6,0.01,3.29-0.25,3.16-2.23c-0.11-1.74-1.83-1.78-3.12-1.52
				c-3.25,0.66-4.79-0.53-5.67-3.78c-0.56-2.08-2.91-2.83-3.97-0.39c-2.05,4.76-3.31,9.82-3.64,15.05
				c-0.11,1.65,0.44,2.37,2.21,3.15C822.85,1011.57,826.34,1010.37,829.88,1010.49z M1043.65,1014.57c-2.5,0.18-3.99,0.2-5.46,0.42
				c-0.97,0.14-2.15,0.46-2.13,1.67c0.02,1.23,1.16,1.47,2.18,1.56c2.26,0.2,4.45,0.64,6.63,1.16c1.95,0.46,4.71-1.78,7.45-0.97
				c0.11-2.86,2.43-2.66,4.02-2.36c5.17,0.98,8.55-3.22,13.02-4.17c1.05-0.22,1.45-1.39,1.32-2.44c-0.16-1.33-1.31-1.26-2.3-1.37
				c-1.38-0.16-2.49,0.56-3.72,0.92C1057.37,1011.11,1050,1012.92,1043.65,1014.57z M1043.98,975.72c0.23,0.99,1.06,1.32,1.87,1.36
				c7.71,0.4,15.31-0.62,22.09-4.26c1.83-0.98,6.03-2.59,5.41-3.89c-2.63-5.54,2.1-5.15,4.52-6.66c1.45-0.91,3.47-2.44,1.23-3.62
				c-4.07-2.14-6.27,2.67-9.63,3.67c-2.19,0.65-1.26,2.07-0.58,3.55c1.2,2.6,0.12,4.34-2.71,4.42c-6.84,0.19-12.8,4.46-19.75,4.11
				C1045.48,974.34,1044.42,974.6,1043.98,975.72z M1045.29,1121.39c7.96,0.34,15.28-2.7,22.91-4.02c2.08-0.36,2.73-2.31,4.12-3.43
				c0.51-0.41,1-1.01,0.49-1.71c-0.55-0.75-1.33-0.84-2.21-0.58c-8.41,2.47-17,4.15-25.62,5.69c-1.72,0.31-4.49-0.12-4.44,2.14
				C1040.6,1122.28,1043.52,1121.22,1045.29,1121.39z M1094.79,1074.54c-7.04,0.34-12.22,4.04-18.3,4.63
				c-0.35,0.03-0.88,0.63-0.93,1c-0.12,1.05,0.67,1.35,1.56,1.47c2.35,0.32,4.81,0.56,2.13,3.76c-0.6,0.72-0.62,1.63,0.28,2.11
				c1.08,0.57,3.11,0.58,3.14-0.23c0.15-4.51,3.91-4.44,6.57-6.1c2.96-1.85,5.2-3.58,8.05-0.09c0.73,0.89,2.14,1.07,3.16,0.17
				c0.38-0.34,0.66-1.52,0.45-1.7C1098.66,1077.61,1096.32,1075.78,1094.79,1074.54z M1123.43,1098.37c2.1,0.15,2.81-1.1,1.96-2.74
				c-1.42-2.73-3.26-3.27-6.51-1.91c-7.93,3.31-14.78,8.94-23.35,10.84c-1.35,0.3-3.43,0.51-2.76,2.62c0.58,1.83,2.52,1.42,3.89,1
				c3.8-1.14,6.55-4.31,10.75-5.02C1112.88,1102.25,1117.12,1096.7,1123.43,1098.37z M1041.45,1081.35
				c6.85,2.13,13.32,1.29,19.51,2.58c1.93,0.4,3.51-1.31,3.78-3.23c0.35-2.51-1.85-2.27-3.42-2.4c-2.27-0.2-4.6-0.86-6.77,0.54
				c-0.82,0.53-1.72,1.15-2.68,0.28c-0.98-0.89-0.5-1.76,0.11-2.61c0.83-1.16,0.92-2.19-0.71-2.62c-1.16-0.31-3.03-0.15-2.83,1.03
				C1049.36,1080.23,1044.42,1079,1041.45,1081.35z M1048.78,1087.59c-2.62,0-4.28-0.01-5.93,0c-1.92,0.01-4.01,0.21-3.8,2.72
				c0.18,2.11,2.06,2.04,3.84,2.08c4.8,0.12,9.44-1.56,14.29-1.12c1.43,0.13,4,0,3.67-2.23c-0.33-2.27-2.48-2.98-4.71-2.12
				C1053.4,1087.98,1050.63,1087.92,1048.78,1087.59z M860.91,1008.98c-4.67-1.89-9.28-2.77-14.03-1.53
				c-2.38,0.62-3.88,2.27-3.36,4.74c0.4,1.92,2.39,2.63,3.98,1.81C851.74,1011.81,856.18,1010.27,860.91,1008.98z M1047.09,1003.85
				c1.36,0.5,2.86,0.47,2.81-1.01c-0.08-2.39-0.2-5.19-1.46-7.02c-1.06-1.54-3.32,0.01-4.88,1c-0.42,0.26-0.87,0.55-1.34,0.62
				c-1.63,0.25-3.7,0.08-2.99,2.7c0.54,1.99,1.54,3.84,4.09,3.51C1044.66,1003.48,1045.94,1003.26,1047.09,1003.85z M1072.1,902.74
				c-3.73-0.71-4.85,3.65-7.97,4.21c-0.99,0.18-3.17,0.18-1.96,2.38c0.74,1.34,1.89,1.63,3.39,1c1.75-0.74,3.23-2.26,5.54-1.39
				c3.57,1.35,4.63-2.11,5.02-3.97C1076.69,902.17,1073.55,903.53,1072.1,902.74z M882.75,810.74c-0.48-0.04-1.47-0.16-2.46-0.2
				c-0.89-0.03-1.73,0.32-1.88,1.24c-0.15,0.95,0.63,1.69,1.44,1.69c6.35-0.02,12.31,2.04,18.43,3.25c0.96,0.19,2.07-0.26,2.09-1.53
				c0.02-1-0.92-1.48-1.71-1.45C893.28,813.98,888.65,810.37,882.75,810.74z M1088.82,1059.55c-0.79-0.39-1.2-0.65-1.66-0.82
				c-2.04-0.75-4.27-1.69-6.1,0c-2.19,2.02,0.67,3.46,1.02,5.22c0.16,0.81,0.44,1.59,0.63,2.4c0.3,1.25,0.25,2.97,2.05,2.86
				c1.89-0.11,2.3-1.94,2.26-3.34C1086.97,1063.55,1086.95,1061.36,1088.82,1059.55z M858.52,978.49c-0.3,0-1.46-0.05-2.61,0.01
				c-1.66,0.09-2.53,1.01-1.94,2.61c0.69,1.9,1.77,0.56,2.73,0.11c0.59-0.28,1.21-0.56,1.84-0.66c1.35-0.21,2.92-0.25,3.39,1.26
				c0.64,2.06-1.33,1.76-2.46,2.15c-1.16,0.4-3.14,0.37-2.35,2.26c0.72,1.73,2.79,2.18,4.25,1.19c2.19-1.47,3.96-3.46,3.34-6.57
				C864.05,977.54,861.77,977.86,858.52,978.49z M1071.75,1052c-0.28-1.87-1.5-2.34-2.61-1.97c-3.01,1.01-3.99,4.21-5.97,6.31
				c-1.69,1.8,1.89,2.53,2.25,4.3c0.21,1.02,1.28,1.53,2.39,0.98c1.05-0.52,1.43-1.53,0.85-2.5c-1.41-2.37-0.08-3.61,1.63-4.95
				C1071.01,1053.62,1071.37,1052.6,1071.75,1052z M1066.03,1004.45c-6.05-3.03-13.47-1.56-16.74,4.29
				C1055.07,1005.31,1060.91,1008.27,1066.03,1004.45z M847.21,882.93c4.9,1.86,9,1.92,13.05,2.17c1.24,0.08,2.41-0.26,2.44-1.8
				c0.02-1.21-0.95-1.81-1.94-1.92C856.52,880.87,852.32,880.89,847.21,882.93z M1143.95,1071.41c0.07-1.39-0.55-2.12-1.77-1.43
				c-2.84,1.58-5.07,3.78-5.95,7.03c-0.32,1.17-0.24,2.39,0.93,3.11c1.2,0.73,2.33,0.11,3.18-0.68
				C1142.66,1077.27,1142.92,1074.12,1143.95,1071.41z M1083.73,930.03c-0.01-1.91-1.36-1.78-2.7-1.24
				c-2.9,1.17-5.83,2.31-8.59,3.76c-1.76,0.93-1.65,2.41,0.12,3.41C1074.57,937.08,1083.5,932.46,1083.73,930.03z M1052.13,944.08
				c-1.82,0.22-3.79,0.4-5.73,0.72c-0.96,0.16-2.03,0.52-1.94,1.79c0.08,1.14,1.05,1.93,1.98,1.87c3.07-0.18,6.13-0.58,9.17-1.01
				c0.78-0.11,1.61-0.68,1.42-1.69c-0.17-0.89-0.98-1.3-1.8-1.44C1054.26,944.16,1053.27,944.16,1052.13,944.08z M857.48,874.09
				c-4.58-0.25-9.23-2.37-14.47,0.79C848.52,876.69,853.03,875.12,857.48,874.09z M1068.01,1021.65c0.03-1.31,0.27-2.93-1.54-3.09
				c-2.03-0.18-2.3,1.39-2.27,3.02c0.03,1.13,0.23,2.33-0.1,3.36c-0.42,1.33-3.12,2.63-0.5,3.85c2.08,0.97,2.31-1.72,3.23-2.92
				C1067.78,1024.64,1067.96,1023.16,1068.01,1021.65z M1053.29,942.51c3.63,0.2,4.64-3,6.66-4.75c0.65-0.56,0.15-1.66-0.6-2.12
				c-0.84-0.52-1.71-0.13-2.05,0.71c-0.85,2.11-2.57,2.27-4.47,2.37c-1.39,0.07-3.53-0.2-3.36,1.9
				C1049.65,942.9,1051.95,942.24,1053.29,942.51z M1049.73,927.33c-0.22-2.1-1.5-1.77-2.62-1.57c-2.16,0.39-5.02-0.08-4.91,3.44
				c0.04,1.19,0.73,2.63,2.04,2.3C1046.64,930.91,1048.61,929.42,1049.73,927.33z M865.43,976.58c3.7,2.85,5.58-1.02,8.21-1.1
				c1.45-0.05,3.13-0.07,3.67-1.89c0.2-0.69-0.34-1.26-1.03-1.46c-1.66-0.5-3.65-0.74-4.64,0.7
				C870.18,974.95,867.73,975.1,865.43,976.58z M863.02,818.13c2.67,1.28,4.52,2.25,6.44,3.05c1.39,0.58,2.67,0.31,3.11-1.35
				c0.42-1.55-0.4-2.61-1.81-3.03C868.26,816.04,866.06,817.06,863.02,818.13z M861.76,862.78c-5.36-3.15-9.46-0.17-13.7,0.44
				C852.28,862.61,856.54,865.02,861.76,862.78z M862.08,842.32c-3.17-2.06-5.89-2.08-8.67-1.67c-0.97,0.14-2.2,0.41-2.01,1.68
				c0.17,1.1,1.38,1.26,2.37,1.4C856.44,844.09,858.84,843.15,862.08,842.32z M1034.04,929.27c1.56-0.31,4.03,0.24,4.01-2.27
				c-0.01-1.83-2.16-1.58-3.55-1.64c-1.69-0.06-3.6,0.22-3.62,2.32C1030.86,929.47,1032.71,929.07,1034.04,929.27z M1059.11,968.25
				c1.64-0.31,4.24,0.79,4.34-1.84c0.07-1.78-2.2-1.68-3.64-1.53c-1.82,0.19-4.76-0.58-4.86,1.97
				C1054.89,968.84,1057.65,967.78,1059.11,968.25z M1057.98,1049.15c-1.48,0.5-2.77,1.4-2.77,3.07c0,1.71,1.2,2.85,2.92,2.66
				c1.69-0.19,2.58-1.59,2.5-3.21C1060.56,1050.23,1059.57,1049.31,1057.98,1049.15z M1074.87,998.02
				c-0.26-1.61-1.27-1.95-2.56-1.79c-1.96,0.24-2.91,1.46-3.04,3.34c-0.09,1.24,0.58,1.95,1.8,1.66
				C1072.88,1000.82,1074.59,1000.14,1074.87,998.02z M889.88,823.29c-1.17-3.32-3.66-3.35-5.81-3.86
				c-0.96-0.23-2.16-0.06-2.42,1.07c-0.38,1.65,1.11,1.74,2.16,1.93C885.7,822.78,887.6,822.97,889.88,823.29z M1049.02,1023.54
				c-1.91,0.49-1.98,1.69-1.95,2.85c0.07,2.27,1.65,3.07,3.59,3.34c0.9,0.13,2.04-0.47,1.68-1.2
				C1051.45,1026.7,1050.1,1025.1,1049.02,1023.54z M1085.6,1107.26c-0.35-0.66-1.06-1.41-1.8-0.83c-1.71,1.32-5,0.54-5.27,3.47
				c-0.13,1.39,1.66,1.26,2.77,1.1C1083.38,1110.68,1084.95,1109.63,1085.6,1107.26z M1022.91,916.05
				c-1.22,0.06-2.99-0.87-3.21,1.08c-0.24,2.1,1.65,2.18,3.07,2.05c1.62-0.15,4.35,0.5,4.3-1.8
				C1027.03,915.52,1024.36,916.43,1022.91,916.05z M1059.23,918.15c-1.3,0.07-2.22,0.7-2.19,2.06c0.03,1.34,0.48,2.68,2.04,2.92
				c1.45,0.22,2-0.87,2.07-2.11C1061.23,919.64,1060.94,918.4,1059.23,918.15z M1058.89,1071.76c0.91-0.45,1.72-1.23,1.69-2.48
				c-0.04-1.46-1.14-1.89-2.37-1.76c-1.21,0.13-2.29,0.7-1.96,2.17C1056.51,1070.85,1057.36,1071.61,1058.89,1071.76z
				 M1050.45,1113.35c-5.02-2.14-5.89-2.08-8.74,0.55C1044.62,1114.22,1047.18,1115.23,1050.45,1113.35z"/>
			<path d="M1075.56,249.59c-1.37,4.98-5.75,3.63-9.1,4.17c-3.43,0.55-6.95-0.95-10.42,0.11c-1.04,0.32-2.61,0.31-2.45,1.88
				c0.12,1.22,1.48,1.15,2.42,1.28c4,0.55,7.02,2.79,9.68,5.62c0.69,0.73,1.3,1.75,0.28,2.6c-0.74,0.62-1.59,0.15-2.13-0.57
				c-3.05-4.02-8.09-5.73-12.14-5.89c-9.55-0.36-17.77-4.22-26.3-7.42c-2.9-1.09-4.57,2.3-7.9,0.9c-7.22-3.06-14.79-6.12-22.46-6.97
				c-4.44-0.49-8.94-2.9-14.14-0.92c-2.99,1.14-7.37-0.37-11.16-0.55c-6.38-0.29-12.01,1.73-17.45,4.54
				c-5.52,2.85-11.62,3.89-17.32,6.02c-10.35,3.86-21.22,3.28-31.8,5c-7.01,1.14-14.14-0.98-21.31,0.93
				c-11.29,3.01-27.67,17.66-25.83,31.09c0.36,2.62-0.1,5.34,0.16,7.98c0.51,5.39,0.14,10.53-2.66,15.35
				c-2.38,4.11-2.45,8.48-1.38,13.06c2.2,9.37,3.97,18.85,7.78,27.77c0.51,1.2,0.63,2.85,2.28,2.92c1.49,0.06,2.27-1.37,2.95-2.44
				c2.84-4.48,6.6-8.19,9.96-12.24c0.66-0.8,1.18-1.89,2.22-0.79c0.66,0.7-0.11,1.38-0.65,2.07c-3.36,4.26-6.7,8.53-9.87,12.93
				c-0.99,1.37-2.47,3.31-0.27,4.75c1.97,1.29,2.85-0.69,3.86-1.99c5.23-6.74,11.35-12.53,18.44-17.28c1.23-0.82,3.15-2,3.99-0.59
				c1.13,1.9-1.3,2.15-2.48,2.74c-4.07,2.04-7.25,5.16-10.41,8.32c-3.04,3.04-5.2,6.87-8.78,9.42c-1.23,0.88-1.55,2.32-0.78,3.56
				c0.87,1.4,2.08,0.32,3.1-0.04c3.88-1.36,7.51-3.27,10.88-5.6c1.45-1,2.51-1.49,3.9,0.22c-4.6,3.28-8.97,6.75-14.4,8.41
				c-4.35,1.34-5.6,4.62-3.86,8.17c1.99,4.06,1.83,8.19,1.32,12.15c-0.88,6.92-0.66,13.97-2.56,20.78
				c-0.48,1.73-0.83,3.74-0.43,5.42c2.13,8.97-1.29,16.83-5.09,24.38c-1.85,3.68-2.32,7.02-0.84,10.46
				c1.9,4.43,2.95,9.15,5.31,13.43c1.47,2.68,3.11,6.24-2.73,6.37c-2.08,0.05-2.21,1.86-1.45,3.37c3.97,7.85,4.61,15.72,1.17,24.03
				c-1.22,2.94,1.28,5.05,3.79,6.19c4.1,1.86,8.39,1.69,12.65,0.34c1.1-0.35,2.15-0.97,3.26-1.12c1.05-0.14,2.65-0.53,3.02,0.87
				c0.42,1.59-1.26,1.67-2.28,2c-3.09,1-5.78,3.26-9.38,2.74c-1.35-0.19-2.78,0.45-2.68,2.21c0.09,1.63,1.39,2.18,2.81,2.28
				c0.98,0.07,2.11,0.16,2.96-0.22c4.29-1.96,8.71-1.07,13.21-0.51c-6.07,0.87-11.7,3.36-17.71,4.33c-2.5,0.4-4.82,0.84-4.4,4.09
				c0.47,3.59,3.14,2.72,5.41,2.34c9.91-1.64,19.8-3.37,29.51-5.98c1.85-0.5,3.88-0.96,5.73,0.38c-0.18,1.73-1.68,1.62-2.64,1.73
				c-11.07,1.27-21.3,6.02-32.28,7.76c-2.04,0.32-6.04,0.76-5.33,3.91c0.61,2.73,4.31,1.64,6.15,0.97
				c5.91-2.15,12.26-0.83,18.34-3.93c5.31-2.71,12.28-0.42,19.17,0.37c-1.96,2.56-4.1,2.6-6.19,2.73
				c-13.11,0.85-25.75,4.81-38.83,5.99c-4.71,0.43-6.62,4.78-7.14,8.6c-0.57,4.15-3.61,7.08-4.12,11.08
				c-0.1,0.79-0.66,1.73-1.69,1.3c-1.32-0.55-1.35-1.99-1.11-3.04c1.02-4.34,2.17-8.65,3.4-12.94c2.41-8.36,4.87-16.7,7.37-25.02
				c0.91-3.03,0.35-5.69-1.98-7.74c-5.4-4.75-4.39-10.71-2.25-16.1c1.44-3.62,1.66-6.5,0.28-9.95c-2.46-6.17-5.08-12.32-1.31-19.07
				c1.39-2.48,0.22-5.11-1.11-7.58c-4.04-7.49-6.1-14.93,1.16-21.9c0.75-0.72,1.17-2.08,1.24-3.17c0.95-14.42,4.86-28.54,4.77-43.03
				c-0.07-11.2-3-21.85-9.64-31c-2.57-3.54-3.44-7.69-4.49-11.38c-1.89-6.63-4.55-13.22-4.82-20.3c-0.14-3.52-0.71-7.32,1.09-10.32
				c4.11-6.86,3.32-14.13,2.36-21.32c-1.29-9.64,2.17-16.68,8.43-24.09c6.61-7.83,14.78-11.76,23.63-15.28
				c3.94-1.57,8.21-1.36,12.36-1.14c8.85,0.48,17.63-0.71,26.45-0.91c5.41-0.12,10.41-2.17,15.63-3.17
				c4.67-0.89,3.74-5.34,2.78-8.14c-2.28-6.69-5.28-13.14-8.2-19.6c-0.62-1.36-1.2-2.69-1.63-4.13c-1.32-4.39-2.42-8.77-7.05-11.35
				c-2.54-1.42-3.21-4.83-3.42-7.52c-0.87-10.78-2.51-21.51-2.09-32.39c0.15-3.87,1.15-6.52,5.51-6.7c3.12-0.13,3.11-2.2,3.01-4.58
				c-0.4-9.39,0.86-18.41,4.83-27.13c3.7-8.1,10.82-12.27,18.01-15.54c9.63-4.37,19.99-6.73,30.81-7.37
				c12.91-0.77,23.58,3.76,32.26,12.45c6.17,6.17,11.84,13.2,14.7,21.77c1.85,5.53,3.88,11.12,3.23,17.46
				c-3.38-1.1-4.22-3.09-4.14-5.9c0.24-7.77-3.07-14.25-8.02-19.86c-2.94-3.35-5.02-7.27-8.21-10.49
				c-5.85-5.91-13.53-8.24-20.69-11.54c-3.94-1.81-8.24-0.1-12.34,0.42c-8.95,1.13-17.54,3.57-26.02,6.73
				c-12.72,4.75-17.55,14.68-19.13,27.1c-1.25,9.83-4.02,19.76-3.32,29.44c0.58,8.05-0.96,16.2,1.08,24.15
				c0.41,1.59,0.55,3.28,0.6,4.93c0.2,7.1,3.24,13.32,5.31,19.91c1.93,6.13,7.38,9.83,8.66,15.97c0.15,0.73,0.83,1.63,1.49,1.93
				c3.14,1.41,3.59,3.38,1.13,5.98c3.05,1.2,4.53-0.96,6-2.21c5.2-4.4,11.42-3.7,17.44-3.82c1.45-0.03,3.27-0.19,3.59-1.06
				c1.51-4.04,6.32-3.7,8.49-6.81c0.56-0.8,2.02-1.08,3.12-1.35c1.09-0.27,2.49-0.57,2.97,0.93c0.49,1.55-0.87,1.92-1.92,2.39
				c-1.14,0.52-2.9,0.22-3.16,1.94c-0.15,0.98,0.84,1.37,1.69,1.4c1.61,0.06,3.42,0.55,4.38-1.42c0.22-0.45,0.21-1.19,0.54-1.37
				c5.48-3.01,5.71-5.96,0.12-9.15c-0.86-0.49-1.04-2.18-0.3-2.71c3.75-2.72,5.49-8.04,11-8.49c3.28-0.27,6.24-1.13,7.28-4.89
				c-0.94-1.55-3.04-1.14-3.49-0.67c-4.32,4.53-8.51,0.53-12.71,0.05c1.14-3.1,4.05-5.29,4.97-8.98c-5.97,2.8-7.28,5.4-4.84,8.87
				c3.98,2.75,2.43,5.56-0.33,7.77c-2.81,2.25-4.22,4.71-4.33,8.4c-0.14,4.77-5.36,4.06-8.02,6.16c-0.62,0.49-4.31-1.6-2.72-4.35
				c1.71-2.96,0.42-3.12-1.98-2.85c-2,0.22-4.07,0.53-5.21-1.71c-0.63-1.24-1.23-2.84-2.77-1.33c-1.07,1.04-0.71,2.45,0.83,3.25
				c0.61,0.32,1.02,0.82,0.76,1.64c-0.87,0.92-1.45,0.09-2-0.44c-2.81-2.7-5.51-4.02-8.41,0c-0.87,1.21-2.56,2.24-3.93,1.04
				c-2.15-1.87,1.05-2.11,1.27-3.19c0.75-3.69-0.84-7.12-2.58-10.04c-3.78-6.36-7.89-12.52-10.68-19.42
				c-0.37-0.92-0.8-1.86,0.5-3.51c1.67,4.03,7.14,5.1,6.22,10.64c-0.18,1.05,6.71,5.77,7.74,5.48c1.64-0.47,2.05-1.61,1.4-3.09
				c-0.86-1.95-0.65-4.24-2.27-6c-0.79-0.86-1.64-2.73-0.04-3.42c1.57-0.67,2.04,1.26,2.6,2.38c2.56,5.08,2.81,5.1,6.23,0.22
				c1.37,0.51,1.14,1.88,1.55,2.89c1.87,4.56,3.88,4.61,7.26,1.17c2.83-2.88,4.42-6.61,7.33-9.34c2.91-2.73,0.87-6.3,1.62-9.41
				c1.01-0.3,1.9,0.53,1.97,1.06c0.79,5.26,5.47,7.89,7.9,12.01c0.51,0.87,0.78,2.09,2.03,1.2c0.93-0.66,0.92-1.84,0.01-2.59
				c-4.22-3.53-4.82-8.31-4.78-13.35c0.01-1.23-0.77-2.13-1.53-3.05c-0.49-0.59-1.06-2.01-0.99-2.05
				c4.85-2.83,0.82-11.74,8.94-12.29c0.26,1.47-1.8,1.95-1.99,3.35c-0.18,1.33-3.16,1.75-1.68,3.53c1.65,1.97,2.69-1.17,4.09-1.07
				c2.36,0.74-1.89,3.59,1.25,3.63c1.86,0.02,1.87-1.99,1.91-3.52c0.03-1.15-0.1-2.39,0.27-3.44c0.39-1.14,0.33-3.06,2.08-2.97
				c1.73,0.09,0.98,1.73,1.09,2.79c0.29,2.96,2.88,2.55,5.26,3.44c-3.34-6.18-1.13-10.92,2.87-15.37c0.92-1.03,1.03-2.68-0.52-3.39
				c-1.39-0.64-2.05,0.62-2.53,1.73c-1.63,3.85-6.16,4.83-8.21,8.3c-0.23,0.39-1.32,0.71-1.69,0.5c-0.83-0.48-0.73-1.47-0.28-2.2
				c0.51-0.83,1.08-1.87,1.89-2.26c5.21-2.5,1.55-7.3,2.79-10.83c0.32-0.91-1.3-1.2-2.14-0.21c-0.93,1.11-1.94,2.2-3.16,0.58
				c-0.83-1.1-2.47-2.49-1.19-3.93c1.52-1.71-0.37-4.76,0.62-4.81c3.1-0.14,5.65-1.92,8.57-2.13c2.06-0.15,4.17,0.35,6.47,0.58
				c-0.33,0.6-0.5,1.04-0.78,1.4c-0.99,1.28-4.35,1.7-2.61,3.86c1.94,2.41,2.79-0.89,4.06-1.8c1.46-1.06,2.83-0.86,4.05,0.31
				c1.17,1.13,1.12,2.43-0.07,3.49c-2.52,2.25-2.35,4.4-1.09,7.51c1.2,2.97-0.22,6.95-2.96,8.27c-4.04,1.95-1.45,3.94-0.58,5.41
				c1.16,1.96,2.59,0.95,3.91-0.57c1.28-1.48,4.9,0.8,5.5,3.5c0.31,1.4-0.27,3.17,1.75,3.66c0.85,0.21,1.66-0.17,2.04-1.05
				c0.68-1.57,0.34-3.29-0.88-4.1c-2.06-1.37-0.4-5.15-4.1-5.51c-1.59-0.16-0.02-1.49,0.37-2.21c0.84-1.56,1.17-3.12,0.16-4.72
				c-2.22-3.53-2.23-3.53,0.8-7.22c0.86,0.01,1.22,0.59,1.08,1.28c-0.96,4.88,0.92,8.43,4.29,12.01c4.3,4.58,5.4,10.45,5.94,16.87
				c0.86,10.16-1.7,19.82-2.56,29.7c-0.28,3.17-2.05,6.75-5.59,8.67c-2.67,1.44-4.96,3.7-5.26,6.82c-0.41,4.31-2.8,7.34-5.38,10.4
				c-0.85,1.01-1.66,2.09-2.34,3.22c-1.66,2.79-0.9,5.94-0.75,8.83c0.26,5.03,4.68,2.28,7.09,2.89c10.02,2.55,20.77,1.79,30.34,6.57
				c0.71,0.36,1.79,0.87,2.31,0.59c8.13-4.39,17.29-1.45,25.7-3.7L1075.56,249.59z M1011.44,186.89c-1.58,0.03-2.44,0.63-2.76,1.61
				c-0.61,1.86-1.81,2.73-3.57,3.62c-1.41,0.72-3.86,1.34-3.87,3.42c-0.01,2.41,2.68,1.24,3.87,2.18c0.89,0.71,1.65,1.6,2.43,2.45
				c2.39,2.6,5.83,1.67,8.73,2.49c0.93,0.26,5.09-10.85,4.64-12.15c-0.35-1.03-1.02-1.69-2.14-1.75c-0.97-0.05-1.88,0.57-1.67,1.38
				c0.96,3.77-5.54,3.84-3.86,8.01c0.2,0.49-1.31,0.77-2.09,0.36c-1.35-0.72-1.95-1.98-1.28-3.33c0.48-0.97,1.81-1.52,2.29-2.49
				C1013.18,190.57,1013.7,188.35,1011.44,186.89z M988.54,201.23c-5.47,2.84-10.27,6.45-16.74,4.93c-0.54-0.13-1.36,0.2-1.82,0.59
				c-2.3,1.98-1.02,11.97,1.64,13.65c1.32,0.83,2.55,0.96,3.54-0.28c1.31-1.65,0.11-2.23-1.31-2.79c-2.96-1.17-2.82-3.44-0.81-4.95
				c1.91-1.43,4.54-1.91,6.85-2.8c0.89,2.43-2.96,3.41-0.24,6.35C982.3,210.63,985.94,206.33,988.54,201.23z M1013.63,166.73
				c-2.68,0.31-5.69,7.93-4.09,10.32c1.36,2.02,3.31,3.47,2.6,6.4c-0.22,0.91,1.14,1.58,2.23,0.93c2.1-1.25,4.58-2.24,6.1-4.02
				c1.69-1.98-1.45-2.83-1.99-4.37c-0.35-1.01,0.11-2.28-0.07-3.38C1017.94,169.59,1015.22,168.48,1013.63,166.73z M1027.51,181.81
				c-0.32,7.42-4.79,12.22-5.35,19.03C1029.14,195.53,1030.82,190.07,1027.51,181.81z M1002.44,234.2
				c6.27-3.07,8.56-8.57,12.68-12.19c0.47-0.41,0.38-1.28-0.25-1.75c-0.56-0.42-1.35-0.62-1.79-0.03
				C1009.82,224.59,1004.75,227.54,1002.44,234.2z M988.12,195.56c-0.82-1.77-2.49-4.08-3.88-3.73c-3.05,0.76-1.93,4.63-3.48,6.79
				c-0.49,0.68,0,1.73,1.11,1.54C984.62,199.69,986.59,198.07,988.12,195.56z M997.93,187.9c0.3-2.71-1.83-3.63-3.55-4.84
				c-0.73-0.51-1.66-0.8-2.24-0.13c-1.9,2.17,1.43,2.86,1.43,4.55c0,0.48,0.16,0.97,0.28,1.44c0.34,1.26,0.57,2.87,2.33,2.55
				C998.1,191.12,997.81,189.31,997.93,187.9z M1005.79,189.6c-1.22-4.07,3.56-4.21,3.26-7.15c-0.19-1.85-1.93-4.06-3.96-3.69
				c-2.6,0.47-1.3,2.15-0.25,3.59c1.2,1.62-0.68,2.14-1.39,3.09c-0.67,0.9-0.43,1.89,0.15,2.74
				C1003.84,188.53,1004.35,188.69,1005.79,189.6z M1006.08,242.51c-2.01-5.19-2.94-5.95-6.92-6.09
				C1000.17,240,1003.69,240.63,1006.08,242.51z"/>
			<path d="M978.39,1095.22c0.92-5.12,4-9.01,8-12.06c4.09-3.12,8.59-5.68,12.82-8.62c3.26-2.28,3.44-5.19,0.48-7.79
				c-3.65-3.21-7.72-5.56-12.68-6.39c-3.07-0.52-5.95-2.11-9.02-2.74c-16.42-3.36-32.9-6.35-49.67-7.4
				c-4.65-0.29-9.25-0.68-13.7-2.4c-4.65-1.79-5.79-4.57-3-8.55c3.24-4.61,3.07-5.04-2.51-6.51c-1.1-0.29-2.58-0.38-2.23-2.02
				c0.26-1.2,1.56-0.98,2.52-1.05c3.81-0.27,7.01,1.61,9.15,4.22c1.76,2.15-0.18,4.62-1.95,6.56c-1.92,2.11-0.97,3.79,1.27,4.64
				c1.84,0.69,3.89,1.15,5.85,1.16c16.03,0.09,31.79,2.88,47.36,5.99c11.54,2.3,23.46,4.93,32.92,13.22
				c3.64,3.19,4.07,5.59,0.69,8.92c-3.82,3.76-8.15,6.72-12.74,9.48c-3.34,2.01-5.93,5.34-7.53,9.03c-1.61,3.71,0.15,6.7,4.77,7.41
				c7.46,1.15,14.61,3.14,21.41,6.37c2.38,1.13,4.7,2.46,6.87,3.95c1.03,0.7,2.1,2.03,0.99,3.4c-0.98,1.22-2.21,0.24-3.12-0.34
				c-6.53-4.17-13.79-6.47-21.11-8.75c-3.79-1.18-7.81-0.44-11.59-2.54C979.41,1100.63,978.45,1098.5,978.39,1095.22z"/>
			<path d="M1075.66,249.68c8.28-4.49,16.25-3.04,24.17,1.09c12.19,6.36,19.75,15.57,22.73,29.61c2.36,11.14-1.5,19.31-6.36,28.5
				c-7.04,13.32-19.32,21.24-29.25,31.56c-2.2,2.29-3.27,5.86-7.02,6.47c0,0,0.12,0.11,0.12,0.11c0.16-5.13,4.84-7.68,6.81-11.85
				c3.36-7.09,5.22-14.24,4.3-22.1c-0.92-7.93-3.35-15.63-3.58-23.66c-0.04-1.43-0.7-3.4,1.28-3.74c1.63-0.27,1.66,1.71,2.18,2.87
				c1.48,3.28,1.19,6.86,1.85,10.29c0.94,4.89,1.09,9.87,2.67,14.7c1.34,4.12-0.79,8.17-1.65,12.21c-0.27,1.27-0.56,2.75,0.98,3.52
				c1.03,0.52,1.84,0,2.57-0.85c8.01-9.36,14.98-19.3,20.05-30.66c3.45-7.73,0.76-14.6-1.02-21.79
				c-2.51-10.11-9.5-15.74-18.07-21.13c-7.47-4.7-15.19-3.79-22.85-5.24C1075.56,249.59,1075.66,249.68,1075.66,249.68z"/>
			<path d="M986.25,1034.62c-0.78-0.23-1.57-0.67-2.35-0.65c-12.49,0.23-24.7-1.84-36.89-4.18c-5.63-1.08-9.41-4.79-10-10.03
				c-0.5-4.42-4.2-7.09-9.77-7.51c-5.9-0.45-11.88,0.18-17.57-2.63c-3.07-1.52-3.82-2.93-2.08-5.63c1.26-1.95,2.75-3.75,4.18-5.58
				c0.81-1.04,1.87-1.49,3-0.54c1.14,0.96,0.68,2.01,0,3.1c-3.4,5.44-2.74,6.98,4.06,7.53c5.3,0.43,10.52,0.7,15.61,2.59
				c4.23,1.57,7.36,3.54,7.22,8.68c-0.1,3.94,2.15,5.78,5.98,6.68c11.01,2.6,22.17,3.98,33.41,4.94c2.25,0.19,4.92-0.12,5.16,3.29
				L986.25,1034.62z"/>
			<path d="M970.82,685.98c-6.6-2.19-13.06-5.3-19.35-8.82c-14.11-7.91-26.43-18.26-38.97-28.31c-0.9-0.72-1.67-1.62-2.51-2.42
				c-0.59-0.57-1.4-1.15-0.75-2.04c0.58-0.79,1.58-0.63,2.28-0.2c2.82,1.73,5.71,3.41,8.34,5.4c4.24,3.2,8.43,6.48,12.4,10
				c8.98,7.95,19.85,13.06,29.64,19.78c2.77,1.9,6.43,2.48,9.66,3.7c1.02,0.38,2.63,0.48,2.17,2.1
				C973.42,686.33,972.06,685.85,970.82,685.98z"/>
			<path d="M1060.19,392.01c-0.11,0.22-0.24,1.11-0.67,1.3c-1.13,0.49-1.87-0.38-2.4-1.25c-5.72-9.41-14.68-15.81-21.96-23.77
				c-0.88-0.96-2-1.75-3.13-2.41c-1.16-0.67-2.98-1.29-2.03-2.74c0.91-1.4,2.91-0.66,4.05,0.23c3.79,2.99,7.66,5.94,11.07,9.33
				c4.93,4.9,9.98,9.75,13.76,15.69C1059.52,389.41,1060.09,390.38,1060.19,392.01z"/>
			<path d="M1046.68,358.35c-9.22-4.76-18.26-9.3-27.56-13.33c-0.74-0.32-1.49-0.79-2.05-1.37c-0.92-0.96-3.6-1.01-2.55-2.89
				c0.86-1.54,2.56-0.11,3.92,0.48c9.79,4.3,19.51,8.71,27.59,15.95C1046.34,357.46,1046.46,357.95,1046.68,358.35z"/>
			<path d="M920.44,527.77c8.19-1.59,16.38-2.37,24.63-1.99c1.43,0.07,3.35,0.42,3.08,2.41c-0.22,1.67-2.03,1.33-3.29,1.42
				C936.66,530.17,928.5,529.9,920.44,527.77z"/>
			<path d="M972.56,434.92c-3.22,3.9-7.75,3.6-11.57,4.6c-4.78,1.26-9.82,1.6-14.75,2.24c-1.16,0.15-2.47-0.08-2.76-1.51
				c-0.2-1,0.79-1.67,1.53-1.57c9.22,1.23,17.26-4.2,26.19-4.55C971.46,434.13,971.74,434.44,972.56,434.92z"/>
			<path d="M880.74,1027.97c7.35,0.04,14.79-1.62,22.03,0.9C895.37,1030.15,888.01,1030.41,880.74,1027.97z"/>
			<path d="M1017.36,487.37c-2.62,1.38-13.57-1.19-22.25-5.24C998.73,480.54,1008.49,482.84,1017.36,487.37z"/>
			<path d="M983.78,447.49c-7.66,1.03-14.97,4.49-22.95,2.83C969.04,452.98,975.35,442.95,983.78,447.49z"/>
			<path d="M945.36,346.05c6.94,0.49,13.89,0.98,20.83,1.47c-0.02,0.45-0.04,0.9-0.07,1.35c-6.98,0.18-14.06,2.57-20.87-1.4
				C945.29,346.99,945.32,346.52,945.36,346.05z"/>
			<path d="M912.35,434.74c-4.79,2.54-10.07,1.51-15.18,1.56c-0.79,0.01-1.69-0.44-1.68-1.45c0.02-1.29,1.15-1.59,2.09-1.6
				c4.85-0.07,9.71-0.03,14.56-0.03C912.21,433.72,912.28,434.23,912.35,434.74z"/>
			<path d="M943.13,164.76c1.76,6.4,0.99,11.42-0.66,16.38c-0.25,0.74-1.02,1.38-1.98,1.05c-0.73-0.25-0.96-0.97-0.76-1.62
				C941.18,175.82,940.57,170.61,943.13,164.76z"/>
			<path d="M986.19,1034.67c5.59-1.05,11.12-1.08,16.52,0.99c-5.62,1.79-11.05,0.94-16.43-1.06
				C986.25,1034.62,986.19,1034.67,986.19,1034.67z"/>
			<path d="M934.38,504.27c6.23-2.37,12.7-1.07,19.07-1.33C947.19,504.88,940.81,504.92,934.38,504.27z"/>
			<path d="M1048.68,847.4c-5.08,1.66-9.64,0.75-14.17,0.18c-1.13-0.14-2.42-1.08-1.72-2.43c0.67-1.29,1.69-0.07,2.51,0.29
				c2.61,1.15,5.27-0.12,7.87,0.2C1044.84,845.83,1046.82,844.93,1048.68,847.4z"/>
			<path d="M909.27,509.97c-4.38,0.8-8.67,3.27-13.97,0.86C900.28,507.65,904.85,509.99,909.27,509.97z"/>
			<path d="M934.03,512.51c5.62-2.29,10.27,0.45,14.86-0.57C943.42,513.7,938.64,513.91,934.03,512.51z"/>
			<path d="M1063.61,783.82c-1.61,3.22-3.22,6.43-5.01,10.03c-1.24-4.52,1.5-9.46,5.06-9.99L1063.61,783.82z"/>
			<path d="M1063.66,783.87c-0.77-4,0.19-7.48,3.32-12.03c0.99,2.37,0.99,2.37-3.38,11.95
				C1063.61,783.82,1063.66,783.87,1063.66,783.87z"/>
			<path d="M973.96,350.74c3.86-1.43,6.79-1.97,9.76,0.09C980.89,352.28,977.97,352.21,973.96,350.74z"/>
			<path d="M878.86,339.45c2.26-3.3,3.78-5.62,5.44-7.85c0.29-0.39,1.26-0.65,1.72-0.48c0.78,0.3,0.61,1.37,0.16,1.66
				C883.69,334.35,882.85,337.74,878.86,339.45z"/>
			<path d="M947.65,184.57c-0.2,0.96,0.62,2.64-1.23,2.51c-1.57-0.12-1.66-1.79-1.87-3.03c-0.2-1.17-0.16-2.48,1.46-2.43
				C947.93,181.69,947.48,183.35,947.65,184.57z"/>
			<path d="M913.69,507.49c2.54-1.63,5.15-1.7,8.79-0.68C919.1,508.91,916.39,508.32,913.69,507.49z"/>
			<path d="M883.07,723.88c6.59,2.61,12.43,6.07,17.7,10.38c9.72,7.95,18.39,17.02,27.4,25.74c1.85,1.79,4.5,2.74,6.65,4.26
				c1.22,0.86,2.45,2.26,1.3,3.78c-1.45,1.9-2.42,0.09-3.56-0.81c-11.56-9.15-21.67-19.97-33.35-28.99
				c-4.37-3.37-9.24-5.85-13.82-8.83c-1.23-0.8-2.34-1.83-3.37-2.9c-0.38-0.4-0.61-1.29-0.42-1.77
				C881.77,724.32,882.59,724.14,883.07,723.88z"/>
			<path d="M919.79,690.03c5.76,0.72,9.67,4.76,13.73,8.17c9.38,7.89,17.7,16.86,24.82,26.85c1.39,1.96,4.49,5.05,2.15,6.85
				c-2.86,2.19-4.28-2.04-5.59-3.9c-9.42-13.31-20.34-25.17-33.18-35.24c-1.04-0.81-1.25-1.88-1.79-2.87
				C919.94,689.88,919.79,690.03,919.79,690.03z"/>
			<path d="M1047.94,870.48c-0.75,0.42-1.03,0.72-1.29,0.71c-2.53-0.12-5.08,1.21-7.57-0.05c-0.17-0.08-0.16-0.94,0.04-1.25
				C1039.79,868.84,1043.64,869.08,1047.94,870.48z"/>
			<path d="M912.3,793.73c1.34,0.42,3.97,1.36,3.38,2.93c-0.84,2.25-1.66,4.51-2.4,6.8c-0.05,0.17-1.48,0.25-1.72-0.06
				c-1.21-1.53-2.85-2.87-2.96-5.03c-0.05-0.95,0.45-1.59,1.55-1.33C916.66,798.6,909.78,794.48,912.3,793.73z"/>
		</g>
	</g>
	<g>
		<g>
			<path class="st0" d="M1079.93,346.92c0.24,1.92-0.85,3-2.25,4.11c-3.61,2.84-5.25,6.77-5.6,11.26
				c-0.61,7.64-0.54,15.31-0.86,22.95c-0.25,6.01-0.23,12.09-1.61,18.16c-0.98,4.29-0.23,9.34,1.04,13.67
				c1.06,3.6,1.04,6.59-0.88,9.44c-3.1,4.6-3.19,9.36-1.45,14.32c2.78,7.9,2.07,16.45,4.75,24.41c1.04,3.09,0.37,6.29-1.73,9.42
				c-2.98,4.45-1.22,10.18-2.95,15.26c-1.09,3.2-2.27,5.69-4.89,7.62c-5.27,3.87-5.67,9.17-4.77,15.1c0.54,3.58,1.4,7.18,0.97,10.88
				c-0.32,2.75,0.66,5.23,1.97,7.59c4.69,8.4,9.1,16.98,14.16,25.15c4.2,6.79,5.73,13.37,2.01,20.82
				c-3.09,6.19-1.66,12.12,0.13,18.69c3.95,14.51,9.41,28.88,7.51,44.51c-2.25,18.48,2.15,35.98,8.74,53.07
				c1.77,4.58,2.27,9.28,2.14,14.2c-0.29,11.2,2.74,22.12,3.17,33.27c0.52,13.48,3.02,26.72,5.06,39.98
				c1.97,12.8,4.41,25.55,6.57,38.33c0.79,4.71-0.52,8.51-3.55,11.95c-5.83,6.61-11.64,13.22-17.44,19.85
				c-3.35,3.82-3.92,8.95-4.7,13.43c-0.94,5.39-1.33,11.41,0.42,16.82c3.84,11.85,3.24,24.07,3.31,36.15
				c0.05,8.11,0.93,16.36-0.64,24.42c-1.3,6.68-3.48,13.18-4.05,20c-0.65,7.7-0.52,15.54-3.63,22.83
				c-4.1,9.63-2.91,20.32-6.55,30.17c-2.52,6.82-0.71,14.53-0.62,21.83c0.03,2.66,1.73,5.1,3.58,7c2.31,2.39,4.09,5.17,6.18,7.66
				c3.83,4.59,8.92,7.2,15.4,6.78c8.13-0.53,16.29-0.54,24.43-0.64c4.32-0.05,8.38-2.06,12.99-0.6c3.15,1,5.98,1.78,7.89,4.59
				c0.19,0.28,0.42,0.54,0.54,0.84c1,2.72,5.47,3.6,4.86,6.47c-0.8,3.77-3.11,7.25-4.91,10.78c-0.51,1.01-1.85,1.68-2.15,2.7
				c-1.27,4.35-2.71,7.22-6.81,2.01c-0.62-0.79-2.02-0.69-2.59,0.34c-0.7,1.28,0.4,1.74,1.39,2.01c1.06,0.29,1.98,0.73,1.73,1.98
				c-0.24,1.18-1.33,1.51-2.34,1.4c-1.97-0.22-2.85,1.54-4.33,2.17c-1.84,0.78-2.74,1.53-0.29,2.86c2.7,1.47,1.26,2.79-0.56,3.29
				c-11.54,3.15-20.16,13-32.58,14.09c-1.1,0.1-2.26,0.7-3.2,1.35c-4.07,2.82-8.14,3.37-12.58,0.74c-1.11-0.66-3.18-1.39-3.83,0.62
				c-0.61,1.91,1.24,1.89,2.53,2.12c1.05,0.19,2.06,0.58,1.57,1.91c-0.43,1.15-1.54,1.26-2.52,0.86c-2.64-1.09-4.75-0.89-6.42,1.77
				c-0.63,1-2.12,1.44-3.17,0.92c-6.32-3.09-11.72,1.47-17.57,2.13c-2.73,0.31-5.46,1.4-8.3,1.5c-2.75,0.1-3.79-0.21-5.46-3.78
				c-4.3-9.18-2.05-18.68-3.62-27.88c-1.21-7.11,1.03-14.81,1.69-22.25c0.7-7.95,1.71-15.89-0.64-23.8c-0.89-2.98-2.4-3.9-5.54-4.49
				c-7.65-1.45-15.14-3.79-23.97-6.1c6.46-2.67,11.72-1.7,16.54-0.07c5.13,1.74,10.71,2.3,15.4,5.36c1.85,1.2,3.09-0.38,4.37-1.36
				c0.9-0.69,1.21-1.67,0.45-2.61c-1.43-1.77-2.5-0.54-3.7,0.47c-1.59,1.33-2.57-0.08-3.09-1.21c-0.76-1.63-1.63-3.48-1.54-5.19
				c0.39-7.86-3.6-14.24-6.29-21.17c-3.06-7.89-5.14-16.19-7.2-24.42c-3.92-15.7-7.06-31.65-8.59-47.69
				c-0.95-9.92,0.26-20.39,3.12-30.11c3.72-12.63,4.94-25.26,3.03-38.18c-0.57-3.9-1.77-7.84-3.45-11.4
				c-1.28-2.69-3.25-5.05-6.82-5.97c-6.41-1.65-12.68-3.82-19.29-4.69c-5.56-0.73-8.03-3.28-8.5-8.99
				c-1.04-12.6-2.18-25.18-4.13-37.68c-0.29-1.84-0.88-3.53-1.71-5.18c-1.55-3.1-1.81-6.34-0.99-9.73
				c3.48-14.45,4.32-28.88-1.1-43.08c-0.96-2.51,0.42-6.59-2.94-7.34c-3.73-0.83-4.01,3.79-6.1,5.72
				c-6.02,5.57-8.11,13.38-11.1,20.63c-1.44,3.49-3.4,6.78-4.11,10.59c-0.92,4.95-4.85,6.79-9.09,7.04
				c-4.15,0.25-5.71,2.83-6.35,5.83c-2.41,11.19-7.78,21.06-12.5,31.33c-3.54,7.69-3.87,16.72-7.39,24.66
				c-6.33,14.26-12.97,28.36-19.73,42.43c-6.32,13.16-13.92,25.75-19,39.48c-2.76,7.46-5.06,15.12-6.97,22.84
				c-0.71,2.86,0.24,6.15,0.59,9.22c0.11,0.94,0.81,2.41,1.75,2.11c6.14-1.97,11.4,2.75,17.49,1.96c6.09-0.79,12.27,0.14,18.42,0.5
				c7.5,0.44,9.75,6.46,11.98,11.16c1.86,3.9,0.43,8.82-3.39,13.1c-4.19,4.69-9.98,7.36-13.72,11.88
				c-6.13,7.41-15.28,8.77-22.88,10.92c-8.69,2.46-17.06,6.13-25.93,8.05c-3,0.65-6.13,0.31-7.95-1.41
				c-3.03-2.86-6.13-2.83-9.68-2.4c-3.64,0.44-7.29,0.76-10.94,1.12c-1.14,0.11-2.66-0.05-2.57,1.58c0.1,1.79,1.67,2.01,3.02,1.59
				c4.57-1.39,9.29,0.37,13.89-0.86c1.36-0.36,3.83-0.95,3.9,1.54c0.05,1.74-1.88,1.98-3.5,1.91c-1.24-0.05-3.03-0.81-3.36,1
				c-0.26,1.4,1.55,1.98,2.46,2.9c1.32,1.34,3.06,1.05,4.72,1.06c9.99,0.04,19.98,0.09,29.97,0.17c0.95,0.01,1.99-0.04,3.21,1.49
				c-8.16,1.12-15.88,1.08-23.54,0.93c-5.22-0.1-10.8,2.04-15.62-1.23c-4.71-3.2-9.14-4.86-15.31-4.08
				c-6.81,0.86-10.86-6.6-7.93-12.85c0.83-1.76,1.06-3.36,0.87-5.26c-0.43-4.23-0.38-7.93,2.34-12.13
				c2.7-4.18,2.63-10.15,3.82-15.32c1.86-8.08,1.58-16.56,4.75-24.41c5.49-13.59,6.67-28,8.43-42.39c0.68-5.6,0.92-10.76-0.47-16.06
				c-0.99-3.76,2.6-6.13,2.35-9.95c-0.74-11.61-1.06-23.26-0.72-34.92c0.28-9.55,3.55-18.12,7.75-26.45
				c4.89-9.7,10.95-18.53,19.09-25.89c2.08-1.88,3.48-4.75,3.66-7.54c0.41-6.19,3.26-11.68,4.41-17.64c0.53-2.74-0.05-3.67-2.82-4.5
				c-8.58-2.59-10.55-8.26-6.52-16.24c4.29-8.5,5.48-18.05,4.38-27.68c-1-8.76-0.43-17.32,3.96-25.17c1.57-2.8,0.84-7.86,6.37-7.38
				c0.22,0.02,0.75-0.78,0.71-1.15c-0.09-0.92-0.88-1.26-1.7-1.57c-5.13-1.92-5.57-3.09-3.18-8.12c2.34-4.91-1.55-8.6-3.01-12.48
				c-3.03-8.03-7.97-15.37-10.64-23.48c-1.38-4.21-5-8.27-3.16-13.5c0.57-1.62-0.9-3.46-1.33-5.19c-1.93-7.75-5.02-15.03-7.85-22.46
				c-3.56-9.35,0.94-18.23,4.18-26.96c0.24-0.66,0.68-1.24,1.45-0.98c0.97,0.33,1.07,1.3,0.93,2.09c-0.65,3.6-1.14,7.26-2.17,10.75
				c-2.91,9.82,1.3,17.32,7.46,24.28c6.23,7.04,12.99,13.62,18.16,21.56c3.57,5.49,9.57,8.44,14.14,12.93
				c5.53,5.44,11.99,9.95,17.26,16.69c-3.02,0.17-4.31-1.32-5.74-2.63c-4.77-4.35-9.74-8.46-14.46-12.88
				c-2.75-2.58-7.23-3.63-10.15-6.66c-3.33-3.47-6.74-6.86-10.01-10.39c-1.09-1.17-2.07-2.47-3.69-1.23
				c-1.5,1.15-0.98,2.62-0.06,3.98c6.68,9.86,13.95,19.1,24.24,25.64c3.88,2.47,7.52,5.56,10.64,8.95
				c7.26,7.86,17.7,10.19,26.28,15.71c0.96,0.62,2.36,0.61,3.32-0.17c1.24-1,0.13-1.71-0.59-2.33c-0.81-0.7-1.57-1.51-0.7-2.49
				c0.92-1.03,2.17-0.72,3.2-0.03c2.35,1.57,4.92,2.92,6.91,4.87c10.4,10.21,22.99,16.34,36.62,21.02c5.53,1.9,10.7,5.2,15.57,8.54
				c2.05,1.4,4.49,1.82,7.17,3.49c-4.84,2.27-8-0.8-11.23-1.96c-4.46-1.61-8.57-4.22-12.81-6.43c-1.18-0.62-2.52-1.67-3.52-0.19
				c-0.97,1.42,0.46,2.54,1.4,3.35c5.14,4.46,10,9.14,14.39,14.39c12.16,14.52,23.7,29.5,34.79,44.85
				c3.2,4.42,7.25,8.11,11.24,11.82c1.84,1.71,4.29,3.21,4.11,6.36c-3.28,0.19-4.14-2.73-5.94-4.25
				c-11.37-9.62-19.88-21.77-28.77-33.5c-6.95-9.17-14.18-18.05-21.91-26.55c-0.76-0.83-1.41-2.14-2.78-1.66
				c-1.66,0.58-1.18,2.19-1.18,3.45c0.02,5.46,2.42,10.35,4.1,15.34c3.13,9.25,6.99,18.25,10.25,27.46
				c3.13,8.84,9.06,15.75,14.97,22.68c7.87,9.23,15.86,18.35,23.83,27.49c0.87,1,2.34,1.89,1.04,3.29
				c-1.37,1.48-2.48,0.01-3.26-0.94c-8.18-9.84-18.18-17.95-25.97-28.23c-4.98-6.57-10.67-12.63-15.25-19.54
				c-0.39-0.58-0.79-1.13-1.53-0.94c-0.97,0.25-1.32,1.19-1.18,1.96c1.42,7.86-2.13,15.81,0.91,23.75
				c2.32,6.06,2.94,12.66,3.06,19.17c0.07,3.89,2,6.3,5.22,7.78c6.29,2.9,12.44,6.8,19.07,8.02c5.91,1.09,10.98,3.85,16.74,4.96
				c-0.6,1.67-1.83,1.47-2.65,1.22c-10.03-2.99-20.64-4.02-30.05-9.06c-2.19-1.17-4.67-2.82-6.97-1.06
				c-2.11,1.62-0.93,4.44-0.73,6.63c0.41,4.68,1.87,8.3,7.72,9.14c6.86,0.99,13.42,3.56,20.36,4.72c4.36,0.73,8.39,3.78,12.41,6.07
				c4.19,2.39,8.07,3.93,13.08,1.72c5.51-2.43,12.42-0.46,17.41-5.1c0.24-0.22,1.17-0.19,1.3,0.02c2.7,4.31,6.69,1.78,9.5,1.04
				c7.45-1.95,15.47-1.8,22.38-5.84c4.77-2.78,6.91-6.45,6.56-12.27c-0.76-12.63-0.39-25.33-1.3-37.95
				c-1.17-16.24,0.67-32.62-2.35-48.76c-0.11-0.56,0.14-1.2,0.31-2.4c2.06,1.8,2.13,3.73,2.45,5.64
				c3.18,18.64,2.51,37.52,3.53,56.29c0.4,7.43,1.11,14.85,1.61,22.28c0.24,3.48,2.12,3.2,3.76,1.35c3.61-4.09,6.85-8.06,5.87-14.55
				c-3.08-20.41-7.43-40.62-9.32-61.2c-1.5-16.38-4.51-32.58-4.87-49.11c-0.19-8.32-3.83-16.16-6.56-24
				c-5.18-14.91-6.73-30.12-5.39-45.78c0.87-10.06-2.56-19.38-5.66-28.71c-0.52-1.57-1.02-3.15-1.51-4.74
				c-0.42-1.37-0.18-3.28-2.15-3.52c-1.61-0.2-2.96,0.82-3.74,2.12c-2.41,3.98-4.51,8.16-7.04,12.05c-1.06,1.63-2,5.16-4.33,3.81
				c-2.65-1.53-0.21-4.34,1-5.94c3.33-4.43,5.2-9.64,8.16-14.24c2.54-3.94,3.72-8.04,2.56-12.8c-0.73-3.01-0.16-5.67,2.85-7.82
				c3.27-2.33,4.13-9.12,2.53-12.82c-4.6-10.65-11.03-20.39-15.35-31.18c-1.12-2.78-3.36-2.66-5.33-1.24
				c-4.07,2.93-8.14,2.15-12.79,1.53c-7.61-1.02-15.41-0.69-23.14-0.78c-7.51-0.09-15.06,0.66-22.48-1.28
				c5.39-2.2,11.13-2.09,16.49-1.45c7.67,0.91,15.08-1.78,22.74-0.51c3.05,0.51,6.2,0.58,9.28,1.38c5.86,1.51,10.85-3.37,9.45-9.08
				c-0.44-1.77-1.84-1.23-2.81-0.79c-14.05,6.35-28.93,5.83-43.82,5.54c-6.96-0.14-13.76,0.28-20.61,2.65
				c-5.02,1.74-10.84,1.49-16.31,1.49c-3.9,0.01-7.76-1.34-13.01-1.1c10.16-3.81,19.81-0.29,28.84-3.81
				c-13.6-1.52-27.23-2.69-40.11-7.86c6.8,1.51,13.86,0.22,20.56,2.25c2.42,0.73,4.81,1.44,7.32,1.38
				c15.67-0.38,31.2,2.04,46.84,2.4c9.2,0.22,17.69-2.94,26.49-4.53c2.85-0.52,7.11-2.47,4.3-7.45c-0.93-1.65,0.91-2.67,1.37-4.01
				c0.58-1.68,0.62-3.55-1.03-4.48c-2.08-1.18-2.42,0.92-2.98,2.2c-0.48,1.08-0.79,2.31-2.18,2.46c-7.17,0.74-13.47,5.43-21.16,4.21
				c-4.92-0.78-10-0.5-16.16,0.28c2.34-3.14,4.49-3,6.31-3.04c9.05-0.18,17.73-2.86,26.68-3.71c1.41-0.13,3.33-0.06,3.51-2.05
				c0.17-1.97-1.64-2.48-3.08-2.61c-9.99-0.91-19.3-6.04-29.73-4.4c-4.15,0.65-8.4-1.31-11.99-2.69
				c-7.91-3.03-15.81-1.34-23.65-1.88c-7.79-0.54-15.46,0.88-23.21,2.53c-8.21,1.75-16.87,1.71-25.34,1.81
				c-10.42,0.12-20.34,3.29-30.6,4.32c-1.91,0.19-3.65,0.41-5.17-0.94c-1.88-1.67-3.81-1.44-6.03-0.66
				c-3.17,1.11-6.42,1.5-9.82,0.58c-2.69-0.73-3.26-2.54-3.26-4.88c0-1.26,0.37-2.33,1.75-2.67c1.13-0.27,2.06,0.23,2.46,1.23
				c1.84,4.64,5.39,3.79,8.77,2.57c3.87-1.4,8.17-1.73,11.55-4.49c0.69-0.57,1.88-0.68,2.85-0.73c1.29-0.07,3.18-0.32,3.39,1.25
				c0.25,1.83-1.75,1.53-2.95,1.81c-0.64,0.15-1.33,0.12-1.99,0.22c-0.82,0.12-1.8,0.22-1.84,1.28c-0.05,1.38,1.07,1.57,2.08,1.47
				c3.48-0.33,6.95-0.68,10.33-1.71c2.22-0.67,4.52-1.37,6.81-1.44c19.61-0.65,39.01-3.83,58.57-4.96
				c6.79-0.39,13.94-1.27,20.38,0.33c15.95,3.95,32.57,3.37,48.36,8.04c4.9,1.45,9.98,0.08,14.94-0.63
				c1.22-0.18,8.09-10.03,7.47-10.56c-4.89-4.17-1.9-9.95-3.16-14.83c-0.64-2.47-1.52-5.72,3.58-4.19c2.48,0.74,2.21-1.96,1.97-3.47
				c-1.28-8-2.84-15.96-4.01-23.98c-0.78-5.31-2.41-10.84,2.2-15.51c0.71-0.72,1.16-2.25,0.96-3.25
				c-1.51-7.58-1.79-15.42-4.59-22.75c-1.59-4.17,1.26-7.02,3.35-9.95c0.64-0.9,1.91-1.38,1.71-2.75
				c-1.31-8.68,1.5-17.21,0.82-25.88c-0.64-8.26-0.75-16.85-3.67-24.42c-2.56-6.65-6.75-12.86-9.88-19.45
				c-0.99-2.1-2.16-4.12-3.25-6.17c-0.75-1.4-1.41-2.95,0.46-3.84c1.76-0.83,2.78,0.39,3.36,1.96c2.6,7.03,6.34,13.51,9.63,20.2
				c1.04,2.11,2.35,3.88,4.65,5.58c1.68-10.12,1.21-19.89,1.12-29.95c2.89,1.11,2.52,3.09,2.52,4.53c0.01,8.31,1.2,16.63-0.14,24.94
				c-0.27,1.69-1.23,4.22,1.11,4.74c2.53,0.57,2.11-2.29,2.83-3.82c3.85-8.11,1.6-16.68,2.03-25.05c0.08-1.6-0.71-3.3,0.7-4.98
				c2.49,0.87,1.98,3.22,2.16,4.95c1.05,9.71,0.24,19.33-2.62,28.65c-0.9,2.93-2.93,5.52-4.53,8.21c-0.77,1.3-2,2.69-0.23,3.85
				c1.68,1.11,2.15-0.72,2.92-1.73c0.65-0.84,1.63-1.09,2.67-1.05C1080.05,347.04,1079.93,346.92,1079.93,346.92z M919.94,689.88
				c-1.19-0.34-2.92,0.69-3.53-0.99c-0.65-1.82,2.45-1.62,2.11-3.76c-4.73-0.95-9.1-3.15-13.49-5.41
				c-9.82-5.07-17.27-13.23-26.14-19.52c-5.29-3.75-8.98-9-13.24-13.73c-1.07-1.19-2.17-3.21-4.01-2.01
				c-2.06,1.33-0.24,2.77,0.54,4.19c4.4,7.99,8.71,16.3,10.55,25.05c1.59,7.58,5.3,11.62,11.8,14.19c12,4.73,23.92,9.47,35.18,16.01
				c8.46,4.92,15.58,10.69,21.76,18.22c4.65,5.66,7.54,12.51,12.92,17.63c2.39,2.27,3.77,3.04,6.33,0.15
				c5.99-6.74,5.41-22.93-0.53-30.32c-5.72-7.12-13.06-11.44-21.27-14.4c-2.31-0.83-2.25-3.91-3.78-3.58
				c-4.33,0.94-6.63-2.24-9.77-3.78c-2.47-1.21-5.26-2.38-5.6,2.21L919.94,689.88z M868.21,722.52
				c-0.22,10.01-2.88,20.93-6.84,31.52c-1.33,3.57-0.95,5.13,2.99,4.94c5.31-0.25,10.61,0.27,15.94-0.18
				c4.26-0.36,8.61-0.1,12.89,0.83c6.61,1.43,13.24,2.96,19.93,3.79c5.57,0.7,10.2,2.73,14.01,6.74c3.86,4.07,9.23,3.58,14.07,4.45
				c1.72,0.31,2.92-1.7,3.72-3.53c3.04-6.93,6.24-13.78,8.73-20.95c1.02-2.95,0.89-5.24-1.29-7.76
				c-6.63-7.64-12.77-15.73-19.58-23.2c-3.62-3.96-6.54-9-11.85-11.04c-8.64-3.32-16.54-8.27-25.48-10.93
				c-5.66-1.69-11.03-4.35-16.58-6.47c-1.22-0.46-2.74-0.62-3.54,0.85c-0.57,1.05,0.03,1.88,0.99,2.46
				c10.71,6.54,19.88,15.46,31.68,20.32c1.97,0.81,3.75,2.11,5.54,3.31c0.67,0.45,1.26,1.33,0.83,2.16
				c-0.5,0.98-1.41,0.49-2.15,0.15c-3.3-1.54-6.58-3.12-9.88-4.65c-8.88-4.14-16.84-9.85-25.22-14.82
				c-2.37-1.41-4.32-1.57-6.44,1.02c-2.4,2.94-3.42,5.97-3.14,9.63C867.79,714.48,867.94,717.8,868.21,722.52z M1051.08,864.65
				c-8.25,0.75-15.06-2.67-22.17-1.1c-1.02,0.23-2.26-0.41-3.37-0.76c-1.47-0.46-2.82-2.51-4.43-0.78c-1.44,1.55-0.49,3.41,0.1,5.17
				c1.99,5.92,3,11.93,1.16,18.11c-1.74,5.85,1.55,11.01,7.62,10.85c16.49-0.46,33.06-0.32,48.81-6.83
				c3.53-1.46,3.67-2.81,3.61-6.08c-0.15-8.5-2.88-17.19,1.34-25.49c0.62-1.22,0.22-3.46-1.23-3.05c-2.9,0.81-7.15-0.32-8.11,4.19
				c-0.25,1.17-0.32,1.9-1.76,1.43c-7.41-2.4-14.95,2.81-22.5-0.41c-1.53-0.65-5.31-0.39-5.46,1.95
				C1044.52,864.55,1047.96,863.68,1051.08,864.65z M915.2,804.88c1.43,1.93-1,4.94,2.06,5.39c2.36,0.35,2.58-2.21,3.67-3.54
				c2.4-2.91,2.97-6.64,4.37-10c2.27-5.41,2.08-11.66,5.82-16.56c0.84-1.11,0.48-2.26-0.65-3.01c-1.3-0.86-2.06-0.06-2.86,0.96
				c-2.41,3.07-2.79,6.84-3.32,10.65c-4.36-1.84-6.42-7.09-11.77-6.06c-0.86,0.16-1.54-0.63-1.3-1.66c0.95-4.13-1.66-2.29-3.45-2.18
				c-5.49,0.34-10.89,2.08-17.05,1.54c1.88-2.95,3.21-5.2,6.56-3.24c1.18,0.69,2.43,0.22,3.77,0.01c5.29-0.83,10.76-2.32,15.79,0.93
				c2.6,1.68,4.76,0.41,6.92-0.68c0.51-0.25,0.75-1.45,0.74-2.21c-0.02-1.04-0.96-1.35-1.82-1.11c-6.24,1.75-3.34-1.53-1.77-4.27
				c-8.12,2.32-15.92,0.6-24.72,2.28c1.76-2.36,2.89-1.89,3.81-2.13c1-0.27,2.08-0.59,2.12-1.76c0.05-1.43-1.16-1.85-2.33-2.18
				c-7.27-2.05-14.7-2.46-22.19-2.06c-1.98,0.1-4.6,0.16-4.52,2.81c0.15,4.58-2.04,8.26-3.4,12.33c-1.02,3.03-0.67,6.56-0.71,9.87
				c-0.02,1.62,1.41,2.16,2.79,2.32c3.8,0.45,7.48,1.41,11.21,2.29c9.64,2.29,19.86,3.16,26.74,11.64
				C911.73,807.77,913.4,808.45,915.2,804.88z M1140.85,1066.44c-1.28-1.84-2.21-4.08-4.64-5.35c-3.66-1.91-6.51-1.17-10.39,0.3
				c-4.22,1.61-7.21,3.26-8.94,7.39c-0.77,1.85-2.26,3.06-4.43,3.62c-2.2,0.57-4.27,1.74-6.33,2.77c-1.76,0.88-2.35,2.57-1.47,4.2
				c1.01,1.88,2.25,0.03,3.37-0.27c1.29-0.35,2.27-1.53,3.34-1.93c3.3-1.24,5.7-5.17,9.52-4.15c2.23,0.59,3.51-0.04,4.9-1.12
				c1.84-1.43,3.29-2.1,5.67-0.53C1133.68,1072.85,1141.03,1068.84,1140.85,1066.44z M1051.51,969.94
				c-0.46-1.55-1.53-1.51-2.51-1.52c-4.78-0.03-9.57-0.43-14.33,0.46c-1.19,0.22-2.46,0.32-3-1.02c-0.6-1.51,0.78-2,1.73-2.56
				c1.12-0.66,2.39-2.24,3.48-1.57c5.29,3.25,9.52-0.84,14.19-1.74c1.36-0.26,3.53-0.37,3-2.43c-0.56-2.17-2.41-0.7-3.77-0.61
				c-6.47,0.42-12.65,3.53-19.43,1.51c-3.03-0.9-5.49,2.09-4.57,5.11c0.45,1.48,1.49,2.39-1.1,2.19c-1.78-0.14-2.27,1.21-2.06,2.67
				c0.27,1.89,1.72,1.6,3.09,1.45c5.78-0.65,11.58-0.59,17.39-0.49C1046.24,971.43,1049.19,971.79,1051.51,969.94z M1061.11,1038.68
				c0.42,2.9,3.61,3.51,3.85,6.31c0.14,1.62,0.24,3.7,2.69,3.23c1.55-0.3,3.5-0.74,3.88-2.65c0.45-2.25-1.61-2.56-3.07-3.23
				c-1.91-0.87-3.3-2-1.36-4.06c0.81-0.86,3.65-0.43,1.81-2.79c-1.1-1.4-2.62-2.96-4.67-2c-2.32,1.08-4.37,0.38-6.68,0.1
				c-4.17-0.52-7.65,2.49-11.64,3.43c-1.62,0.39-0.78,3.94-1.12,6.03c-0.2,1.23-0.59,3.02,1.04,3.44c2.23,0.57,1.97-1.5,2.41-2.85
				c0.6-1.85,6.46-5.17,7.05-4.13C1057.55,1043.48,1059.09,1040.77,1061.11,1038.68z M1062.67,993.69
				c-0.17-4.01,1.41-5.61,5.23-5.16c3.21,0.38,5.37-2.45,5.69-4.58c0.5-3.36-3.55-0.53-4.83-2.26c-0.38-1.77,2.95-2.55,1.55-4.21
				c-1.41-1.67-3.41-0.4-5.05,0.29c-2.62,1.11-5.31,1.56-8.13,1.97c-5.71,0.83-11.47,0.19-17.14,1.02
				c-1.12,0.17-2.57,0.06-2.27,1.81c0.2,1.15,1.31,1.62,2.32,1.36c7.07-1.79,14.33,1.13,21.38-0.89c0.98-0.28,2.18-0.5,2.74,0.46
				c0.68,1.17-0.61,1.63-1.34,2.24C1059.92,988.15,1061,990.73,1062.67,993.69z M829.88,1010.49c0.66,0.07,1.32,0.23,1.96,0.18
				c0.99-0.08,2.23-0.32,2.11-1.55c-0.14-1.39-1.49-0.93-2.41-0.92c-0.66,0.01-1.31,0.22-1.96,0.29c-5.31,0.53-4.76-3.86-5.1-6.76
				c-0.37-3.19,2.93-1.08,4.3-2.04c0.33-0.23,0.97,0.01,1.46,0.01c1.6,0.01,3.29-0.25,3.16-2.23c-0.11-1.74-1.83-1.78-3.12-1.52
				c-3.25,0.66-4.79-0.53-5.67-3.78c-0.56-2.08-2.91-2.83-3.97-0.39c-2.05,4.76-3.31,9.82-3.64,15.05
				c-0.11,1.65,0.44,2.37,2.21,3.15C822.85,1011.57,826.34,1010.37,829.88,1010.49z M1043.65,1014.57c-2.5,0.18-3.99,0.2-5.46,0.42
				c-0.97,0.14-2.15,0.46-2.13,1.67c0.02,1.23,1.16,1.47,2.18,1.56c2.26,0.2,4.45,0.64,6.63,1.16c1.95,0.46,4.71-1.78,7.45-0.97
				c0.11-2.86,2.43-2.66,4.02-2.36c5.17,0.98,8.55-3.22,13.02-4.17c1.05-0.22,1.45-1.39,1.32-2.44c-0.16-1.33-1.31-1.26-2.3-1.37
				c-1.38-0.16-2.49,0.56-3.72,0.92C1057.37,1011.11,1050,1012.92,1043.65,1014.57z M1043.98,975.72c0.23,0.99,1.06,1.32,1.87,1.36
				c7.71,0.4,15.31-0.62,22.09-4.26c1.83-0.98,6.03-2.59,5.41-3.89c-2.63-5.54,2.1-5.15,4.52-6.66c1.45-0.91,3.47-2.44,1.23-3.62
				c-4.07-2.14-6.27,2.67-9.63,3.67c-2.19,0.65-1.26,2.07-0.58,3.55c1.2,2.6,0.12,4.34-2.71,4.42c-6.84,0.19-12.8,4.46-19.75,4.11
				C1045.48,974.34,1044.42,974.6,1043.98,975.72z M1045.29,1121.39c7.96,0.34,15.28-2.7,22.91-4.02c2.08-0.36,2.73-2.31,4.12-3.43
				c0.51-0.41,1-1.01,0.49-1.71c-0.55-0.75-1.33-0.84-2.21-0.58c-8.41,2.47-17,4.15-25.62,5.69c-1.72,0.31-4.49-0.12-4.44,2.14
				C1040.6,1122.28,1043.52,1121.22,1045.29,1121.39z M1094.79,1074.54c-7.04,0.34-12.22,4.04-18.3,4.63
				c-0.35,0.03-0.88,0.63-0.93,1c-0.12,1.05,0.67,1.35,1.56,1.47c2.35,0.32,4.81,0.56,2.13,3.76c-0.6,0.72-0.62,1.63,0.28,2.11
				c1.08,0.57,3.11,0.58,3.14-0.23c0.15-4.51,3.91-4.44,6.57-6.1c2.96-1.85,5.2-3.58,8.05-0.09c0.73,0.89,2.14,1.07,3.16,0.17
				c0.38-0.34,0.66-1.52,0.45-1.7C1098.66,1077.61,1096.32,1075.78,1094.79,1074.54z M1123.43,1098.37c2.1,0.15,2.81-1.1,1.96-2.74
				c-1.42-2.73-3.26-3.27-6.51-1.91c-7.93,3.31-14.78,8.94-23.35,10.84c-1.35,0.3-3.43,0.51-2.76,2.62c0.58,1.83,2.52,1.42,3.89,1
				c3.8-1.14,6.55-4.31,10.75-5.02C1112.88,1102.25,1117.12,1096.7,1123.43,1098.37z M1041.45,1081.35
				c6.85,2.13,13.32,1.29,19.51,2.58c1.93,0.4,3.51-1.31,3.78-3.23c0.35-2.51-1.85-2.27-3.42-2.4c-2.27-0.2-4.6-0.86-6.77,0.54
				c-0.82,0.53-1.72,1.15-2.68,0.28c-0.98-0.89-0.5-1.76,0.11-2.61c0.83-1.16,0.92-2.19-0.71-2.62c-1.16-0.31-3.03-0.15-2.83,1.03
				C1049.36,1080.23,1044.42,1079,1041.45,1081.35z M1048.78,1087.59c-2.62,0-4.28-0.01-5.93,0c-1.92,0.01-4.01,0.21-3.8,2.72
				c0.18,2.11,2.06,2.04,3.84,2.08c4.8,0.12,9.44-1.56,14.29-1.12c1.43,0.13,4,0,3.67-2.23c-0.33-2.27-2.48-2.98-4.71-2.12
				C1053.4,1087.98,1050.63,1087.92,1048.78,1087.59z M860.91,1008.98c-4.67-1.89-9.28-2.77-14.03-1.53
				c-2.38,0.62-3.88,2.27-3.36,4.74c0.4,1.92,2.39,2.63,3.98,1.81C851.74,1011.81,856.18,1010.27,860.91,1008.98z M1047.09,1003.85
				c1.36,0.5,2.86,0.47,2.81-1.01c-0.08-2.39-0.2-5.19-1.46-7.02c-1.06-1.54-3.32,0.01-4.88,1c-0.42,0.26-0.87,0.55-1.34,0.62
				c-1.63,0.25-3.7,0.08-2.99,2.7c0.54,1.99,1.54,3.84,4.09,3.51C1044.66,1003.48,1045.94,1003.26,1047.09,1003.85z M1072.1,902.74
				c-3.73-0.71-4.85,3.65-7.97,4.21c-0.99,0.18-3.17,0.18-1.96,2.38c0.74,1.34,1.89,1.63,3.39,1c1.75-0.74,3.23-2.26,5.54-1.39
				c3.57,1.35,4.63-2.11,5.02-3.97C1076.69,902.17,1073.55,903.53,1072.1,902.74z M882.75,810.74c-0.48-0.04-1.47-0.16-2.46-0.2
				c-0.89-0.03-1.73,0.32-1.88,1.24c-0.15,0.95,0.63,1.69,1.44,1.69c6.35-0.02,12.31,2.04,18.43,3.25c0.96,0.19,2.07-0.26,2.09-1.53
				c0.02-1-0.92-1.48-1.71-1.45C893.28,813.98,888.65,810.37,882.75,810.74z M1088.82,1059.55c-0.79-0.39-1.2-0.65-1.66-0.82
				c-2.04-0.75-4.27-1.69-6.1,0c-2.19,2.02,0.67,3.46,1.02,5.22c0.16,0.81,0.44,1.59,0.63,2.4c0.3,1.25,0.25,2.97,2.05,2.86
				c1.89-0.11,2.3-1.94,2.26-3.34C1086.97,1063.55,1086.95,1061.36,1088.82,1059.55z M858.52,978.49c-0.3,0-1.46-0.05-2.61,0.01
				c-1.66,0.09-2.53,1.01-1.94,2.61c0.69,1.9,1.77,0.56,2.73,0.11c0.59-0.28,1.21-0.56,1.84-0.66c1.35-0.21,2.92-0.25,3.39,1.26
				c0.64,2.06-1.33,1.76-2.46,2.15c-1.16,0.4-3.14,0.37-2.35,2.26c0.72,1.73,2.79,2.18,4.25,1.19c2.19-1.47,3.96-3.46,3.34-6.57
				C864.05,977.54,861.77,977.86,858.52,978.49z M1071.75,1052c-0.28-1.87-1.5-2.34-2.61-1.97c-3.01,1.01-3.99,4.21-5.97,6.31
				c-1.69,1.8,1.89,2.53,2.25,4.3c0.21,1.02,1.28,1.53,2.39,0.98c1.05-0.52,1.43-1.53,0.85-2.5c-1.41-2.37-0.08-3.61,1.63-4.95
				C1071.01,1053.62,1071.37,1052.6,1071.75,1052z M1066.03,1004.45c-6.05-3.03-13.47-1.56-16.74,4.29
				C1055.07,1005.31,1060.91,1008.27,1066.03,1004.45z M847.21,882.93c4.9,1.86,9,1.92,13.05,2.17c1.24,0.08,2.41-0.26,2.44-1.8
				c0.02-1.21-0.95-1.81-1.94-1.92C856.52,880.87,852.32,880.89,847.21,882.93z M1143.95,1071.41c0.07-1.39-0.55-2.12-1.77-1.43
				c-2.84,1.58-5.07,3.78-5.95,7.03c-0.32,1.17-0.24,2.39,0.93,3.11c1.2,0.73,2.33,0.11,3.18-0.68
				C1142.66,1077.27,1142.92,1074.12,1143.95,1071.41z M1083.73,930.03c-0.01-1.91-1.36-1.78-2.7-1.24
				c-2.9,1.17-5.83,2.31-8.59,3.76c-1.76,0.93-1.65,2.41,0.12,3.41C1074.57,937.08,1083.5,932.46,1083.73,930.03z M1052.13,944.08
				c-1.82,0.22-3.79,0.4-5.73,0.72c-0.96,0.16-2.03,0.52-1.94,1.79c0.08,1.14,1.05,1.93,1.98,1.87c3.07-0.18,6.13-0.58,9.17-1.01
				c0.78-0.11,1.61-0.68,1.42-1.69c-0.17-0.89-0.98-1.3-1.8-1.44C1054.26,944.16,1053.27,944.16,1052.13,944.08z M857.48,874.09
				c-4.58-0.25-9.23-2.37-14.47,0.79C848.52,876.69,853.03,875.12,857.48,874.09z M1068.01,1021.65c0.03-1.31,0.27-2.93-1.54-3.09
				c-2.03-0.18-2.3,1.39-2.27,3.02c0.03,1.13,0.23,2.33-0.1,3.36c-0.42,1.33-3.12,2.63-0.5,3.85c2.08,0.97,2.31-1.72,3.23-2.92
				C1067.78,1024.64,1067.96,1023.16,1068.01,1021.65z M1053.29,942.51c3.63,0.2,4.64-3,6.66-4.75c0.65-0.56,0.15-1.66-0.6-2.12
				c-0.84-0.52-1.71-0.13-2.05,0.71c-0.85,2.11-2.57,2.27-4.47,2.37c-1.39,0.07-3.53-0.2-3.36,1.9
				C1049.65,942.9,1051.95,942.24,1053.29,942.51z M1049.73,927.33c-0.22-2.1-1.5-1.77-2.62-1.57c-2.16,0.39-5.02-0.08-4.91,3.44
				c0.04,1.19,0.73,2.63,2.04,2.3C1046.64,930.91,1048.61,929.42,1049.73,927.33z M865.43,976.58c3.7,2.85,5.58-1.02,8.21-1.1
				c1.45-0.05,3.13-0.07,3.67-1.89c0.2-0.69-0.34-1.26-1.03-1.46c-1.66-0.5-3.65-0.74-4.64,0.7
				C870.18,974.95,867.73,975.1,865.43,976.58z M863.02,818.13c2.67,1.28,4.52,2.25,6.44,3.05c1.39,0.58,2.67,0.31,3.11-1.35
				c0.42-1.55-0.4-2.61-1.81-3.03C868.26,816.04,866.06,817.06,863.02,818.13z M861.76,862.78c-5.36-3.15-9.46-0.17-13.7,0.44
				C852.28,862.61,856.54,865.02,861.76,862.78z M862.08,842.32c-3.17-2.06-5.89-2.08-8.67-1.67c-0.97,0.14-2.2,0.41-2.01,1.68
				c0.17,1.1,1.38,1.26,2.37,1.4C856.44,844.09,858.84,843.15,862.08,842.32z M1034.04,929.27c1.56-0.31,4.03,0.24,4.01-2.27
				c-0.01-1.83-2.16-1.58-3.55-1.64c-1.69-0.06-3.6,0.22-3.62,2.32C1030.86,929.47,1032.71,929.07,1034.04,929.27z M1059.11,968.25
				c1.64-0.31,4.24,0.79,4.34-1.84c0.07-1.78-2.2-1.68-3.64-1.53c-1.82,0.19-4.76-0.58-4.86,1.97
				C1054.89,968.84,1057.65,967.78,1059.11,968.25z M1057.98,1049.15c-1.48,0.5-2.77,1.4-2.77,3.07c0,1.71,1.2,2.85,2.92,2.66
				c1.69-0.19,2.58-1.59,2.5-3.21C1060.56,1050.23,1059.57,1049.31,1057.98,1049.15z M1074.87,998.02
				c-0.26-1.61-1.27-1.95-2.56-1.79c-1.96,0.24-2.91,1.46-3.04,3.34c-0.09,1.24,0.58,1.95,1.8,1.66
				C1072.88,1000.82,1074.59,1000.14,1074.87,998.02z M889.88,823.29c-1.17-3.32-3.66-3.35-5.81-3.86
				c-0.96-0.23-2.16-0.06-2.42,1.07c-0.38,1.65,1.11,1.74,2.16,1.93C885.7,822.78,887.6,822.97,889.88,823.29z M1049.02,1023.54
				c-1.91,0.49-1.98,1.69-1.95,2.85c0.07,2.27,1.65,3.07,3.59,3.34c0.9,0.13,2.04-0.47,1.68-1.2
				C1051.45,1026.7,1050.1,1025.1,1049.02,1023.54z M1085.6,1107.26c-0.35-0.66-1.06-1.41-1.8-0.83c-1.71,1.32-5,0.54-5.27,3.47
				c-0.13,1.39,1.66,1.26,2.77,1.1C1083.38,1110.68,1084.95,1109.63,1085.6,1107.26z M1022.91,916.05
				c-1.22,0.06-2.99-0.87-3.21,1.08c-0.24,2.1,1.65,2.18,3.07,2.05c1.62-0.15,4.35,0.5,4.3-1.8
				C1027.03,915.52,1024.36,916.43,1022.91,916.05z M1059.23,918.15c-1.3,0.07-2.22,0.7-2.19,2.06c0.03,1.34,0.48,2.68,2.04,2.92
				c1.45,0.22,2-0.87,2.07-2.11C1061.23,919.64,1060.94,918.4,1059.23,918.15z M1058.89,1071.76c0.91-0.45,1.72-1.23,1.69-2.48
				c-0.04-1.46-1.14-1.89-2.37-1.76c-1.21,0.13-2.29,0.7-1.96,2.17C1056.51,1070.85,1057.36,1071.61,1058.89,1071.76z
				 M1050.45,1113.35c-5.02-2.14-5.89-2.08-8.74,0.55C1044.62,1114.22,1047.18,1115.23,1050.45,1113.35z"/>
			<path class="st0" d="M1075.56,249.59c-1.37,4.98-5.75,3.63-9.1,4.17c-3.43,0.55-6.95-0.95-10.42,0.11
				c-1.04,0.32-2.61,0.31-2.45,1.88c0.12,1.22,1.48,1.15,2.42,1.28c4,0.55,7.02,2.79,9.68,5.62c0.69,0.73,1.3,1.75,0.28,2.6
				c-0.74,0.62-1.59,0.15-2.13-0.57c-3.05-4.02-8.09-5.73-12.14-5.89c-9.55-0.36-17.77-4.22-26.3-7.42c-2.9-1.09-4.57,2.3-7.9,0.9
				c-7.22-3.06-14.79-6.12-22.46-6.97c-4.44-0.49-8.94-2.9-14.14-0.92c-2.99,1.14-7.37-0.37-11.16-0.55
				c-6.38-0.29-12.01,1.73-17.45,4.54c-5.52,2.85-11.62,3.89-17.32,6.02c-10.35,3.86-21.22,3.28-31.8,5
				c-7.01,1.14-14.14-0.98-21.31,0.93c-11.29,3.01-27.67,17.66-25.83,31.09c0.36,2.62-0.1,5.34,0.16,7.98
				c0.51,5.39,0.14,10.53-2.66,15.35c-2.38,4.11-2.45,8.48-1.38,13.06c2.2,9.37,3.97,18.85,7.78,27.77c0.51,1.2,0.63,2.85,2.28,2.92
				c1.49,0.06,2.27-1.37,2.95-2.44c2.84-4.48,6.6-8.19,9.96-12.24c0.66-0.8,1.18-1.89,2.22-0.79c0.66,0.7-0.11,1.38-0.65,2.07
				c-3.36,4.26-6.7,8.53-9.87,12.93c-0.99,1.37-2.47,3.31-0.27,4.75c1.97,1.29,2.85-0.69,3.86-1.99
				c5.23-6.74,11.35-12.53,18.44-17.28c1.23-0.82,3.15-2,3.99-0.59c1.13,1.9-1.3,2.15-2.48,2.74c-4.07,2.04-7.25,5.16-10.41,8.32
				c-3.04,3.04-5.2,6.87-8.78,9.42c-1.23,0.88-1.55,2.32-0.78,3.56c0.87,1.4,2.08,0.32,3.1-0.04c3.88-1.36,7.51-3.27,10.88-5.6
				c1.45-1,2.51-1.49,3.9,0.22c-4.6,3.28-8.97,6.75-14.4,8.41c-4.35,1.34-5.6,4.62-3.86,8.17c1.99,4.06,1.83,8.19,1.32,12.15
				c-0.88,6.92-0.66,13.97-2.56,20.78c-0.48,1.73-0.83,3.74-0.43,5.42c2.13,8.97-1.29,16.83-5.09,24.38
				c-1.85,3.68-2.32,7.02-0.84,10.46c1.9,4.43,2.95,9.15,5.31,13.43c1.47,2.68,3.11,6.24-2.73,6.37c-2.08,0.05-2.21,1.86-1.45,3.37
				c3.97,7.85,4.61,15.72,1.17,24.03c-1.22,2.94,1.28,5.05,3.79,6.19c4.1,1.86,8.39,1.69,12.65,0.34c1.1-0.35,2.15-0.97,3.26-1.12
				c1.05-0.14,2.65-0.53,3.02,0.87c0.42,1.59-1.26,1.67-2.28,2c-3.09,1-5.78,3.26-9.38,2.74c-1.35-0.19-2.78,0.45-2.68,2.21
				c0.09,1.63,1.39,2.18,2.81,2.28c0.98,0.07,2.11,0.16,2.96-0.22c4.29-1.96,8.71-1.07,13.21-0.51c-6.07,0.87-11.7,3.36-17.71,4.33
				c-2.5,0.4-4.82,0.84-4.4,4.09c0.47,3.59,3.14,2.72,5.41,2.34c9.91-1.64,19.8-3.37,29.51-5.98c1.85-0.5,3.88-0.96,5.73,0.38
				c-0.18,1.73-1.68,1.62-2.64,1.73c-11.07,1.27-21.3,6.02-32.28,7.76c-2.04,0.32-6.04,0.76-5.33,3.91
				c0.61,2.73,4.31,1.64,6.15,0.97c5.91-2.15,12.26-0.83,18.34-3.93c5.31-2.71,12.28-0.42,19.17,0.37c-1.96,2.56-4.1,2.6-6.19,2.73
				c-13.11,0.85-25.75,4.81-38.83,5.99c-4.71,0.43-6.62,4.78-7.14,8.6c-0.57,4.15-3.61,7.08-4.12,11.08
				c-0.1,0.79-0.66,1.73-1.69,1.3c-1.32-0.55-1.35-1.99-1.11-3.04c1.02-4.34,2.17-8.65,3.4-12.94c2.41-8.36,4.87-16.7,7.37-25.02
				c0.91-3.03,0.35-5.69-1.98-7.74c-5.4-4.75-4.39-10.71-2.25-16.1c1.44-3.62,1.66-6.5,0.28-9.95c-2.46-6.17-5.08-12.32-1.31-19.07
				c1.39-2.48,0.22-5.11-1.11-7.58c-4.04-7.49-6.1-14.93,1.16-21.9c0.75-0.72,1.17-2.08,1.24-3.17c0.95-14.42,4.86-28.54,4.77-43.03
				c-0.07-11.2-3-21.85-9.64-31c-2.57-3.54-3.44-7.69-4.49-11.38c-1.89-6.63-4.55-13.22-4.82-20.3c-0.14-3.52-0.71-7.32,1.09-10.32
				c4.11-6.86,3.32-14.13,2.36-21.32c-1.29-9.64,2.17-16.68,8.43-24.09c6.61-7.83,14.78-11.76,23.63-15.28
				c3.94-1.57,8.21-1.36,12.36-1.14c8.85,0.48,17.63-0.71,26.45-0.91c5.41-0.12,10.41-2.17,15.63-3.17
				c4.67-0.89,3.74-5.34,2.78-8.14c-2.28-6.69-5.28-13.14-8.2-19.6c-0.62-1.36-1.2-2.69-1.63-4.13c-1.32-4.39-2.42-8.77-7.05-11.35
				c-2.54-1.42-3.21-4.83-3.42-7.52c-0.87-10.78-2.51-21.51-2.09-32.39c0.15-3.87,1.15-6.52,5.51-6.7c3.12-0.13,3.11-2.2,3.01-4.58
				c-0.4-9.39,0.86-18.41,4.83-27.13c3.7-8.1,10.82-12.27,18.01-15.54c9.63-4.37,19.99-6.73,30.81-7.37
				c12.91-0.77,23.58,3.76,32.26,12.45c6.17,6.17,11.84,13.2,14.7,21.77c1.85,5.53,3.88,11.12,3.23,17.46
				c-3.38-1.1-4.22-3.09-4.14-5.9c0.24-7.77-3.07-14.25-8.02-19.86c-2.94-3.35-5.02-7.27-8.21-10.49
				c-5.85-5.91-13.53-8.24-20.69-11.54c-3.94-1.81-8.24-0.1-12.34,0.42c-8.95,1.13-17.54,3.57-26.02,6.73
				c-12.72,4.75-17.55,14.68-19.13,27.1c-1.25,9.83-4.02,19.76-3.32,29.44c0.58,8.05-0.96,16.2,1.08,24.15
				c0.41,1.59,0.55,3.28,0.6,4.93c0.2,7.1,3.24,13.32,5.31,19.91c1.93,6.13,7.38,9.83,8.66,15.97c0.15,0.73,0.83,1.63,1.49,1.93
				c3.14,1.41,3.59,3.38,1.13,5.98c3.05,1.2,4.53-0.96,6-2.21c5.2-4.4,11.42-3.7,17.44-3.82c1.45-0.03,3.27-0.19,3.59-1.06
				c1.51-4.04,6.32-3.7,8.49-6.81c0.56-0.8,2.02-1.08,3.12-1.35c1.09-0.27,2.49-0.57,2.97,0.93c0.49,1.55-0.87,1.92-1.92,2.39
				c-1.14,0.52-2.9,0.22-3.16,1.94c-0.15,0.98,0.84,1.37,1.69,1.4c1.61,0.06,3.42,0.55,4.38-1.42c0.22-0.45,0.21-1.19,0.54-1.37
				c5.48-3.01,5.71-5.96,0.12-9.15c-0.86-0.49-1.04-2.18-0.3-2.71c3.75-2.72,5.49-8.04,11-8.49c3.28-0.27,6.24-1.13,7.28-4.89
				c-0.94-1.55-3.04-1.14-3.49-0.67c-4.32,4.53-8.51,0.53-12.71,0.05c1.14-3.1,4.05-5.29,4.97-8.98c-5.97,2.8-7.28,5.4-4.84,8.87
				c3.98,2.75,2.43,5.56-0.33,7.77c-2.81,2.25-4.22,4.71-4.33,8.4c-0.14,4.77-5.36,4.06-8.02,6.16c-0.62,0.49-4.31-1.6-2.72-4.35
				c1.71-2.96,0.42-3.12-1.98-2.85c-2,0.22-4.07,0.53-5.21-1.71c-0.63-1.24-1.23-2.84-2.77-1.33c-1.07,1.04-0.71,2.45,0.83,3.25
				c0.61,0.32,1.02,0.82,0.76,1.64c-0.87,0.92-1.45,0.09-2-0.44c-2.81-2.7-5.51-4.02-8.41,0c-0.87,1.21-2.56,2.24-3.93,1.04
				c-2.15-1.87,1.05-2.11,1.27-3.19c0.75-3.69-0.84-7.12-2.58-10.04c-3.78-6.36-7.89-12.52-10.68-19.42
				c-0.37-0.92-0.8-1.86,0.5-3.51c1.67,4.03,7.14,5.1,6.22,10.64c-0.18,1.05,6.71,5.77,7.74,5.48c1.64-0.47,2.05-1.61,1.4-3.09
				c-0.86-1.95-0.65-4.24-2.27-6c-0.79-0.86-1.64-2.73-0.04-3.42c1.57-0.67,2.04,1.26,2.6,2.38c2.56,5.08,2.81,5.1,6.23,0.22
				c1.37,0.51,1.14,1.88,1.55,2.89c1.87,4.56,3.88,4.61,7.26,1.17c2.83-2.88,4.42-6.61,7.33-9.34c2.91-2.73,0.87-6.3,1.62-9.41
				c1.01-0.3,1.9,0.53,1.97,1.06c0.79,5.26,5.47,7.89,7.9,12.01c0.51,0.87,0.78,2.09,2.03,1.2c0.93-0.66,0.92-1.84,0.01-2.59
				c-4.22-3.53-4.82-8.31-4.78-13.35c0.01-1.23-0.77-2.13-1.53-3.05c-0.49-0.59-1.06-2.01-0.99-2.05
				c4.85-2.83,0.82-11.74,8.94-12.29c0.26,1.47-1.8,1.95-1.99,3.35c-0.18,1.33-3.16,1.75-1.68,3.53c1.65,1.97,2.69-1.17,4.09-1.07
				c2.36,0.74-1.89,3.59,1.25,3.63c1.86,0.02,1.87-1.99,1.91-3.52c0.03-1.15-0.1-2.39,0.27-3.44c0.39-1.14,0.33-3.06,2.08-2.97
				c1.73,0.09,0.98,1.73,1.09,2.79c0.29,2.96,2.88,2.55,5.26,3.44c-3.34-6.18-1.13-10.92,2.87-15.37c0.92-1.03,1.03-2.68-0.52-3.39
				c-1.39-0.64-2.05,0.62-2.53,1.73c-1.63,3.85-6.16,4.83-8.21,8.3c-0.23,0.39-1.32,0.71-1.69,0.5c-0.83-0.48-0.73-1.47-0.28-2.2
				c0.51-0.83,1.08-1.87,1.89-2.26c5.21-2.5,1.55-7.3,2.79-10.83c0.32-0.91-1.3-1.2-2.14-0.21c-0.93,1.11-1.94,2.2-3.16,0.58
				c-0.83-1.1-2.47-2.49-1.19-3.93c1.52-1.71-0.37-4.76,0.62-4.81c3.1-0.14,5.65-1.92,8.57-2.13c2.06-0.15,4.17,0.35,6.47,0.58
				c-0.33,0.6-0.5,1.04-0.78,1.4c-0.99,1.28-4.35,1.7-2.61,3.86c1.94,2.41,2.79-0.89,4.06-1.8c1.46-1.06,2.83-0.86,4.05,0.31
				c1.17,1.13,1.12,2.43-0.07,3.49c-2.52,2.25-2.35,4.4-1.09,7.51c1.2,2.97-0.22,6.95-2.96,8.27c-4.04,1.95-1.45,3.94-0.58,5.41
				c1.16,1.96,2.59,0.95,3.91-0.57c1.28-1.48,4.9,0.8,5.5,3.5c0.31,1.4-0.27,3.17,1.75,3.66c0.85,0.21,1.66-0.17,2.04-1.05
				c0.68-1.57,0.34-3.29-0.88-4.1c-2.06-1.37-0.4-5.15-4.1-5.51c-1.59-0.16-0.02-1.49,0.37-2.21c0.84-1.56,1.17-3.12,0.16-4.72
				c-2.22-3.53-2.23-3.53,0.8-7.22c0.86,0.01,1.22,0.59,1.08,1.28c-0.96,4.88,0.92,8.43,4.29,12.01c4.3,4.58,5.4,10.45,5.94,16.87
				c0.86,10.16-1.7,19.82-2.56,29.7c-0.28,3.17-2.05,6.75-5.59,8.67c-2.67,1.44-4.96,3.7-5.26,6.82c-0.41,4.31-2.8,7.34-5.38,10.4
				c-0.85,1.01-1.66,2.09-2.34,3.22c-1.66,2.79-0.9,5.94-0.75,8.83c0.26,5.03,4.68,2.28,7.09,2.89c10.02,2.55,20.77,1.79,30.34,6.57
				c0.71,0.36,1.79,0.87,2.31,0.59c8.13-4.39,17.29-1.45,25.7-3.7L1075.56,249.59z M1011.44,186.89c-1.58,0.03-2.44,0.63-2.76,1.61
				c-0.61,1.86-1.81,2.73-3.57,3.62c-1.41,0.72-3.86,1.34-3.87,3.42c-0.01,2.41,2.68,1.24,3.87,2.18c0.89,0.71,1.65,1.6,2.43,2.45
				c2.39,2.6,5.83,1.67,8.73,2.49c0.93,0.26,5.09-10.85,4.64-12.15c-0.35-1.03-1.02-1.69-2.14-1.75c-0.97-0.05-1.88,0.57-1.67,1.38
				c0.96,3.77-5.54,3.84-3.86,8.01c0.2,0.49-1.31,0.77-2.09,0.36c-1.35-0.72-1.95-1.98-1.28-3.33c0.48-0.97,1.81-1.52,2.29-2.49
				C1013.18,190.57,1013.7,188.35,1011.44,186.89z M988.54,201.23c-5.47,2.84-10.27,6.45-16.74,4.93c-0.54-0.13-1.36,0.2-1.82,0.59
				c-2.3,1.98-1.02,11.97,1.64,13.65c1.32,0.83,2.55,0.96,3.54-0.28c1.31-1.65,0.11-2.23-1.31-2.79c-2.96-1.17-2.82-3.44-0.81-4.95
				c1.91-1.43,4.54-1.91,6.85-2.8c0.89,2.43-2.96,3.41-0.24,6.35C982.3,210.63,985.94,206.33,988.54,201.23z M1013.63,166.73
				c-2.68,0.31-5.69,7.93-4.09,10.32c1.36,2.02,3.31,3.47,2.6,6.4c-0.22,0.91,1.14,1.58,2.23,0.93c2.1-1.25,4.58-2.24,6.1-4.02
				c1.69-1.98-1.45-2.83-1.99-4.37c-0.35-1.01,0.11-2.28-0.07-3.38C1017.94,169.59,1015.22,168.48,1013.63,166.73z M1027.51,181.81
				c-0.32,7.42-4.79,12.22-5.35,19.03C1029.14,195.53,1030.82,190.07,1027.51,181.81z M1002.44,234.2
				c6.27-3.07,8.56-8.57,12.68-12.19c0.47-0.41,0.38-1.28-0.25-1.75c-0.56-0.42-1.35-0.62-1.79-0.03
				C1009.82,224.59,1004.75,227.54,1002.44,234.2z M988.12,195.56c-0.82-1.77-2.49-4.08-3.88-3.73c-3.05,0.76-1.93,4.63-3.48,6.79
				c-0.49,0.68,0,1.73,1.11,1.54C984.62,199.69,986.59,198.07,988.12,195.56z M997.93,187.9c0.3-2.71-1.83-3.63-3.55-4.84
				c-0.73-0.51-1.66-0.8-2.24-0.13c-1.9,2.17,1.43,2.86,1.43,4.55c0,0.48,0.16,0.97,0.28,1.44c0.34,1.26,0.57,2.87,2.33,2.55
				C998.1,191.12,997.81,189.31,997.93,187.9z M1005.79,189.6c-1.22-4.07,3.56-4.21,3.26-7.15c-0.19-1.85-1.93-4.06-3.96-3.69
				c-2.6,0.47-1.3,2.15-0.25,3.59c1.2,1.62-0.68,2.14-1.39,3.09c-0.67,0.9-0.43,1.89,0.15,2.74
				C1003.84,188.53,1004.35,188.69,1005.79,189.6z M1006.08,242.51c-2.01-5.19-2.94-5.95-6.92-6.09
				C1000.17,240,1003.69,240.63,1006.08,242.51z"/>
			<path class="st0" d="M978.39,1095.22c0.92-5.12,4-9.01,8-12.06c4.09-3.12,8.59-5.68,12.82-8.62c3.26-2.28,3.44-5.19,0.48-7.79
				c-3.65-3.21-7.72-5.56-12.68-6.39c-3.07-0.52-5.95-2.11-9.02-2.74c-16.42-3.36-32.9-6.35-49.67-7.4
				c-4.65-0.29-9.25-0.68-13.7-2.4c-4.65-1.79-5.79-4.57-3-8.55c3.24-4.61,3.07-5.04-2.51-6.51c-1.1-0.29-2.58-0.38-2.23-2.02
				c0.26-1.2,1.56-0.98,2.52-1.05c3.81-0.27,7.01,1.61,9.15,4.22c1.76,2.15-0.18,4.62-1.95,6.56c-1.92,2.11-0.97,3.79,1.27,4.64
				c1.84,0.69,3.89,1.15,5.85,1.16c16.03,0.09,31.79,2.88,47.36,5.99c11.54,2.3,23.46,4.93,32.92,13.22
				c3.64,3.19,4.07,5.59,0.69,8.92c-3.82,3.76-8.15,6.72-12.74,9.48c-3.34,2.01-5.93,5.34-7.53,9.03c-1.61,3.71,0.15,6.7,4.77,7.41
				c7.46,1.15,14.61,3.14,21.41,6.37c2.38,1.13,4.7,2.46,6.87,3.95c1.03,0.7,2.1,2.03,0.99,3.4c-0.98,1.22-2.21,0.24-3.12-0.34
				c-6.53-4.17-13.79-6.47-21.11-8.75c-3.79-1.18-7.81-0.44-11.59-2.54C979.41,1100.63,978.45,1098.5,978.39,1095.22z"/>
			<path class="st0" d="M1075.66,249.68c8.28-4.49,16.25-3.04,24.17,1.09c12.19,6.36,19.75,15.57,22.73,29.61
				c2.36,11.14-1.5,19.31-6.36,28.5c-7.04,13.32-19.32,21.24-29.25,31.56c-2.2,2.29-3.27,5.86-7.02,6.47c0,0,0.12,0.11,0.12,0.11
				c0.16-5.13,4.84-7.68,6.81-11.85c3.36-7.09,5.22-14.24,4.3-22.1c-0.92-7.93-3.35-15.63-3.58-23.66c-0.04-1.43-0.7-3.4,1.28-3.74
				c1.63-0.27,1.66,1.71,2.18,2.87c1.48,3.28,1.19,6.86,1.85,10.29c0.94,4.89,1.09,9.87,2.67,14.7c1.34,4.12-0.79,8.17-1.65,12.21
				c-0.27,1.27-0.56,2.75,0.98,3.52c1.03,0.52,1.84,0,2.57-0.85c8.01-9.36,14.98-19.3,20.05-30.66c3.45-7.73,0.76-14.6-1.02-21.79
				c-2.51-10.11-9.5-15.74-18.07-21.13c-7.47-4.7-15.19-3.79-22.85-5.24C1075.56,249.59,1075.66,249.68,1075.66,249.68z"/>
			<path class="st0" d="M986.25,1034.62c-0.78-0.23-1.57-0.67-2.35-0.65c-12.49,0.23-24.7-1.84-36.89-4.18
				c-5.63-1.08-9.41-4.79-10-10.03c-0.5-4.42-4.2-7.09-9.77-7.51c-5.9-0.45-11.88,0.18-17.57-2.63c-3.07-1.52-3.82-2.93-2.08-5.63
				c1.26-1.95,2.75-3.75,4.18-5.58c0.81-1.04,1.87-1.49,3-0.54c1.14,0.96,0.68,2.01,0,3.1c-3.4,5.44-2.74,6.98,4.06,7.53
				c5.3,0.43,10.52,0.7,15.61,2.59c4.23,1.57,7.36,3.54,7.22,8.68c-0.1,3.94,2.15,5.78,5.98,6.68c11.01,2.6,22.17,3.98,33.41,4.94
				c2.25,0.19,4.92-0.12,5.16,3.29L986.25,1034.62z"/>
			<path class="st0" d="M970.82,685.98c-6.6-2.19-13.06-5.3-19.35-8.82c-14.11-7.91-26.43-18.26-38.97-28.31
				c-0.9-0.72-1.67-1.62-2.51-2.42c-0.59-0.57-1.4-1.15-0.75-2.04c0.58-0.79,1.58-0.63,2.28-0.2c2.82,1.73,5.71,3.41,8.34,5.4
				c4.24,3.2,8.43,6.48,12.4,10c8.98,7.95,19.85,13.06,29.64,19.78c2.77,1.9,6.43,2.48,9.66,3.7c1.02,0.38,2.63,0.48,2.17,2.1
				C973.42,686.33,972.06,685.85,970.82,685.98z"/>
			<path class="st0" d="M1060.19,392.01c-0.11,0.22-0.24,1.11-0.67,1.3c-1.13,0.49-1.87-0.38-2.4-1.25
				c-5.72-9.41-14.68-15.81-21.96-23.77c-0.88-0.96-2-1.75-3.13-2.41c-1.16-0.67-2.98-1.29-2.03-2.74c0.91-1.4,2.91-0.66,4.05,0.23
				c3.79,2.99,7.66,5.94,11.07,9.33c4.93,4.9,9.98,9.75,13.76,15.69C1059.52,389.41,1060.09,390.38,1060.19,392.01z"/>
			<path class="st0" d="M1046.68,358.35c-9.22-4.76-18.26-9.3-27.56-13.33c-0.74-0.32-1.49-0.79-2.05-1.37
				c-0.92-0.96-3.6-1.01-2.55-2.89c0.86-1.54,2.56-0.11,3.92,0.48c9.79,4.3,19.51,8.71,27.59,15.95
				C1046.34,357.46,1046.46,357.95,1046.68,358.35z"/>
			<path class="st0" d="M920.44,527.77c8.19-1.59,16.38-2.37,24.63-1.99c1.43,0.07,3.35,0.42,3.08,2.41
				c-0.22,1.67-2.03,1.33-3.29,1.42C936.66,530.17,928.5,529.9,920.44,527.77z"/>
			<path class="st0" d="M972.56,434.92c-3.22,3.9-7.75,3.6-11.57,4.6c-4.78,1.26-9.82,1.6-14.75,2.24
				c-1.16,0.15-2.47-0.08-2.76-1.51c-0.2-1,0.79-1.67,1.53-1.57c9.22,1.23,17.26-4.2,26.19-4.55
				C971.46,434.13,971.74,434.44,972.56,434.92z"/>
			<path class="st0" d="M880.74,1027.97c7.35,0.04,14.79-1.62,22.03,0.9C895.37,1030.15,888.01,1030.41,880.74,1027.97z"/>
			<path class="st0" d="M1017.36,487.37c-2.62,1.38-13.57-1.19-22.25-5.24C998.73,480.54,1008.49,482.84,1017.36,487.37z"/>
			<path class="st0" d="M983.78,447.49c-7.66,1.03-14.97,4.49-22.95,2.83C969.04,452.98,975.35,442.95,983.78,447.49z"/>
			<path class="st0" d="M945.36,346.05c6.94,0.49,13.89,0.98,20.83,1.47c-0.02,0.45-0.04,0.9-0.07,1.35
				c-6.98,0.18-14.06,2.57-20.87-1.4C945.29,346.99,945.32,346.52,945.36,346.05z"/>
			<path class="st0" d="M912.35,434.74c-4.79,2.54-10.07,1.51-15.18,1.56c-0.79,0.01-1.69-0.44-1.68-1.45
				c0.02-1.29,1.15-1.59,2.09-1.6c4.85-0.07,9.71-0.03,14.56-0.03C912.21,433.72,912.28,434.23,912.35,434.74z"/>
			<path class="st0" d="M943.13,164.76c1.76,6.4,0.99,11.42-0.66,16.38c-0.25,0.74-1.02,1.38-1.98,1.05
				c-0.73-0.25-0.96-0.97-0.76-1.62C941.18,175.82,940.57,170.61,943.13,164.76z"/>
			<path class="st0" d="M986.19,1034.67c5.59-1.05,11.12-1.08,16.52,0.99c-5.62,1.79-11.05,0.94-16.43-1.06
				C986.25,1034.62,986.19,1034.67,986.19,1034.67z"/>
			<path class="st0" d="M934.38,504.27c6.23-2.37,12.7-1.07,19.07-1.33C947.19,504.88,940.81,504.92,934.38,504.27z"/>
			<path class="st0" d="M1048.68,847.4c-5.08,1.66-9.64,0.75-14.17,0.18c-1.13-0.14-2.42-1.08-1.72-2.43
				c0.67-1.29,1.69-0.07,2.51,0.29c2.61,1.15,5.27-0.12,7.87,0.2C1044.84,845.83,1046.82,844.93,1048.68,847.4z"/>
			<path class="st0" d="M909.27,509.97c-4.38,0.8-8.67,3.27-13.97,0.86C900.28,507.65,904.85,509.99,909.27,509.97z"/>
			<path class="st0" d="M934.03,512.51c5.62-2.29,10.27,0.45,14.86-0.57C943.42,513.7,938.64,513.91,934.03,512.51z"/>
			<path class="st0" d="M1063.61,783.82c-1.61,3.22-3.22,6.43-5.01,10.03c-1.24-4.52,1.5-9.46,5.06-9.99L1063.61,783.82z"/>
			<path class="st0" d="M1063.66,783.87c-0.77-4,0.19-7.48,3.32-12.03c0.99,2.37,0.99,2.37-3.38,11.95
				C1063.61,783.82,1063.66,783.87,1063.66,783.87z"/>
			<path class="st0" d="M973.96,350.74c3.86-1.43,6.79-1.97,9.76,0.09C980.89,352.28,977.97,352.21,973.96,350.74z"/>
			<path class="st0" d="M878.86,339.45c2.26-3.3,3.78-5.62,5.44-7.85c0.29-0.39,1.26-0.65,1.72-0.48c0.78,0.3,0.61,1.37,0.16,1.66
				C883.69,334.35,882.85,337.74,878.86,339.45z"/>
			<path class="st0" d="M947.65,184.57c-0.2,0.96,0.62,2.64-1.23,2.51c-1.57-0.12-1.66-1.79-1.87-3.03
				c-0.2-1.17-0.16-2.48,1.46-2.43C947.93,181.69,947.48,183.35,947.65,184.57z"/>
			<path class="st0" d="M913.69,507.49c2.54-1.63,5.15-1.7,8.79-0.68C919.1,508.91,916.39,508.32,913.69,507.49z"/>
			<path class="st0" d="M883.07,723.88c6.59,2.61,12.43,6.07,17.7,10.38c9.72,7.95,18.39,17.02,27.4,25.74
				c1.85,1.79,4.5,2.74,6.65,4.26c1.22,0.86,2.45,2.26,1.3,3.78c-1.45,1.9-2.42,0.09-3.56-0.81c-11.56-9.15-21.67-19.97-33.35-28.99
				c-4.37-3.37-9.24-5.85-13.82-8.83c-1.23-0.8-2.34-1.83-3.37-2.9c-0.38-0.4-0.61-1.29-0.42-1.77
				C881.77,724.32,882.59,724.14,883.07,723.88z"/>
			<path class="st0" d="M919.79,690.03c5.76,0.72,9.67,4.76,13.73,8.17c9.38,7.89,17.7,16.86,24.82,26.85
				c1.39,1.96,4.49,5.05,2.15,6.85c-2.86,2.19-4.28-2.04-5.59-3.9c-9.42-13.31-20.34-25.17-33.18-35.24
				c-1.04-0.81-1.25-1.88-1.79-2.87C919.94,689.88,919.79,690.03,919.79,690.03z"/>
			<path class="st0" d="M1047.94,870.48c-0.75,0.42-1.03,0.72-1.29,0.71c-2.53-0.12-5.08,1.21-7.57-0.05
				c-0.17-0.08-0.16-0.94,0.04-1.25C1039.79,868.84,1043.64,869.08,1047.94,870.48z"/>
			<path class="st0" d="M912.3,793.73c1.34,0.42,3.97,1.36,3.38,2.93c-0.84,2.25-1.66,4.51-2.4,6.8c-0.05,0.17-1.48,0.25-1.72-0.06
				c-1.21-1.53-2.85-2.87-2.96-5.03c-0.05-0.95,0.45-1.59,1.55-1.33C916.66,798.6,909.78,794.48,912.3,793.73z"/>
		</g>
	</g>
</g>
</svg>
