<?xml version="1.0" encoding="utf-8"?>
<!-- Generator: Adobe Illustrator 28.0.0, SVG Export Plug-In . SVG Version: 6.00 Build 0)  -->
<svg version="1.1" id="Layer_1" xmlns="http://www.w3.org/2000/svg" xmlns:xlink="http://www.w3.org/1999/xlink" x="0px" y="0px"
	 viewBox="0 0 1920 1080" style="enable-background:new 0 0 1920 1080;" xml:space="preserve">
<style type="text/css">
	.st0{fill:none;stroke:#231F20;}
</style>
<g>
	<g>
		<g>
			<path d="M1192.71,1024.3c6.56-0.72,12.32-0.45,17.9,1.75c7.99,3.15,16.01,2.05,24,0.28c1.81-0.4,4.27-1.2,3.71-3.87
				c-0.6-2.9-2.89-1.67-4.85-1.63c-13.95,0.29-28.04-0.21-41.8,1.15c-13.72,1.35-27.15-1.01-40.72-0.15
				c-8.39,0.53-16.93,1.11-25.22-1.85c-4.03-1.44-6.77-3.42-6.89-8c-0.09-3.47-1.86-4.5-5.27-3.99c-4.15,0.61-8.25,0.12-12.25-1.52
				c-1.95-0.8-4.2-0.99-6.34-1.14c-19.49-1.4-38.94-0.87-58.37,1.09c-6.35,0.64-12.64-0.45-18.96-0.66
				c-1.76-0.06-3.99-0.86-4.92,1.25c-0.86,1.94,1.65,2.09,2.44,3.21c2.07,2.93,0.17,3.93-2.3,4.27c-8.57,1.19-17.16,2.07-25.77,2.93
				c-10.77,1.07-21.64,0.1-32.34,2.2c-4.15,0.82-7.96,2.38-11.75,4.12c-3,1.38-5.09,3.79-5.07,6.89c0.03,6.16-3.94,8.07-8.74,9.06
				c-14.01,2.9-28.12,5.08-42.41,6.38c-7.56,0.69-15.22,1.35-22.61,3.47c-1.48,0.43-3.11,0.83-3.74,2.25
				c-4.08,9.24-13.16,10.87-21.23,13.03c-14.29,3.81-28.82,6.87-43.38,9.43c-9.98,1.76-19.97,3.52-29.92,5.44
				c-4.22,0.81-8.33,2.25-12.47,3.45c-2.05,0.6-2.09,2.1-1.92,3.97c0.83,9.21-1.24,12.13-10.1,14.94c-9.56,3.03-19.5,2.1-29.27,2.71
				c-13.19,0.82-26.15-1.54-39.11-3.7c-11.27-1.88-22.39-4.3-33.52-6.89c-5.34-1.24-11.24-0.85-16.75-2.03
				c-15.98-3.41-15.98-11.64-10.38-22.84c3.46-6.93,7.8-13.47,12.25-19.83c4.9-7,11.76-12.26,18.44-17.37
				c11.15-8.54,20.69-18.62,30.45-28.6c11.55-11.82,20.49-25.65,31.08-38.16c11.49-13.58,21.29-28.68,34.16-40.94
				c11.65-11.1,24.88-20.37,40.66-25.37c9.35-2.96,18.18-7.3,26.56-12.46c1.99-1.22,4.05-2.51,4.85-4.87
				c2.68-7.93,8.3-13.92,13.17-20.43c4.58-6.12,9.51-12.2,11.67-19.65c3.72-12.81,9.51-24.86,12.43-38.03
				c2.27-10.23,6.46-20.19,9.81-30.22c2.4-7.18,5.71-15.28,2.42-23.5c-0.18-0.46-0.39-0.95-0.42-1.44
				c-1.03-21.37-0.99-42.71,5.09-63.45c4.11-14.02,12.22-26.1,19.99-38.33c3.78-5.95,7.26-12.38,2.05-19.74
				c-1.16-1.64-0.97-4.56-0.72-6.82c0.71-6.32-1.83-12.14-2.37-18.25c-0.14-1.61-1.35-2.81-2.62-3.49
				c-5.23-2.79-5.32-7.34-4.96-12.43c1.03-14.31-0.7-28.45-2.17-42.69c-1.07-10.34-2.96-20.71-2.84-31.11
				c0.06-5.04-1.73-9.39-2.43-14.1c-0.5-3.33-0.8-6.55,0.89-9.61c1.93-0.01,1.89,1.4,2.07,2.44c2.93,16.06,5.05,32.19,5.86,48.53
				c0.62,12.45,2.19,24.85,3.52,37.25c0.5,4.68,6.02,9.02,12.32,10.16c4.59,0.83,9.2,1.52,13.78,2.36c1.41,0.26,3.37,0.51,2.9,2.58
				c-0.4,1.75-2.3,1.36-3.41,0.97c-7.39-2.59-15.75-0.52-22.79-4.79c-0.99-0.6-2.26-0.89-3.22,0.2c-1.07,1.22-0.63,2.57,0.08,3.71
				c1.81,2.91,4.82,3.94,7.94,4.73c10.17,2.56,20.45,4.73,30.25,8.61c0.46,0.18,1.05,0.11,1.44,0.37c1.84,1.21,5.48,1.99,4.44,4.39
				c-1.02,2.35-3.28-0.64-4.99-1.16c-8.75-2.65-17.39-5.75-26.52-6.95c-3.58-0.47-5.64,2.51-3.9,6.44c1.7,3.85,2.08,7.36,1.35,11.54
				c-0.77,4.41,3.03,5.81,6.67,6.48c8.1,1.49,15.83-0.32,23.61-2.45c9.61-2.63,19.52-2.27,30.21-2.74c-1.93,2.2-3.59,1.71-4.85,1.57
				c-6.07-0.67-10.36,3.91-15.8,5.13c-2.07,0.46-1.65,2.3,0.02,3.28c2.19,1.27,4.36,1.02,6.64-0.18c3.65-1.92,6.87-1.6,9.58,2.05
				c2.26,3.05,6.34,4.19,9.43,4.86c12.58,2.72,24.22,8.39,36.67,11.16c16.6,3.69,33.44,5.53,50.27,0.85
				c5.7-1.59,10.48-4.53,12.41-10.47c2.42-7.48,4.5-14.59,3.61-23.13c-1.06-10.25-2.58-19.97-6.61-29.41
				c-1.53-3.58-3.78-6.64-5.79-9.89c-6.41-10.37-10.42-21.87-15.34-32.94c-0.2-0.45-0.2-1.13-0.54-1.37
				c-6.67-4.93-4.45-11.83-4.23-18.35c0.17-4.97,0.3-10.05-4.04-13.74c-1.01-0.86-1.25-2.01-0.82-3.17
				c0.97-2.61,0.51-5.26,0.42-7.92c-0.07-2,0.32-4.21-2.26-4.95c-2.64-0.75-4.51,0.71-6,2.63c-4.49,5.77-8.79,11.69-12.56,17.97
				c-1.53,2.54-3.18,5-6.16,7.06c-0.08-3.94,1.23-6.91,3.09-9.6c3.32-4.78,6.77-9.47,10.31-14.09c1.21-1.58,2.3-3.04,0.87-4.86
				c-1.46-1.87-3.05-0.48-4.45,0.23c-2.25,1.13-4.09,0.71-6.53-0.12c-9.51-3.27-19.28-2.85-28.88-0.21
				c-2.52,0.69-4.11,0.97-6.74-0.54c-3.75-2.15-8.32-3.08-12.8-3.53c-1.3-0.13-3.09-0.19-2.85-1.98c0.23-1.78,1.93-1.54,3.23-1.14
				c4.62,1.43,9.52,1.46,14.15,3.05c3.82,1.31,7.92,1.54,11.49-1.1c3.59-2.66,8.06-1.25,11.99-2.91c5.99-2.52,12.37-4.12,18.58-6.11
				c0.19,0.48,0.38,0.95,0.56,1.43c-3.17,1.19-6.34,2.38-9.51,3.58c-1.62,0.61-4.11,0.52-3.8,3.07c0.25,2.05,2.51,1.84,4.02,2.33
				c3.28,1.06,6.61-0.34,9.94,0.21c4.75,0.78,9.58,0.69,14.37,1.43c5.05,0.78,10.12-0.52,15.23-1.47
				c10.87-2.02,21.99-2.17,33.05-2.61c4.71-0.19,8.73-3.27,14.34-0.32c3.61,1.9,9.8-0.1,14.5-1.5c9.38-2.79,19.38-2.75,28.47-6.83
				c4.35-1.95,6.56-4.84,4.16-8.22c-3.21-4.51-1.48-6.79,2.69-8.77c1.5,2.04-1.16,3.36-0.7,5.13c0.7,2.71,0.73,6.12,4,6.95
				c3.99,1.02,7.16-1.49,9.43-4.29c6.23-7.67,6.03-9.2-1.09-20c-1.28-1.94-2.61-3.97-4.34-5.46c-4.68-4.04-4.71-10.38-7.9-15.18
				c-1.69-2.54-3.19-4.91-5.86-6.57c-2.55-1.59-4.67-3.8-6.05-6.54c-1.46-2.9-3.34-4.65-6.96-4.52c-3.61,0.13-4.41-4.63-7.97-5.33
				c-0.84-0.17,0.45-1.57,1.43-1.69c2.62-0.3,5.29,0.02,7.88-0.89c1.07-0.38,1.92,0.48,2.15,1.57c1.59,7.43,7.55,11.57,12.65,16.14
				c8.26,7.4,12.26,17.54,18.11,26.48c3.21,4.91,4.61,10.25,4.17,16.09c-0.15,2.04-0.63,3.74-2.21,5.34
				c-6.93,7.03-14.95,11.97-24.77,13.73c-0.33,0.06-0.69,0.09-0.96,0.25c-10.86,6.5-23.59,4.86-35.21,8.06
				c-2.85,0.78-5.9,0.76-8.88-0.28c-1.35-0.47-3.04-0.7-4.4-0.35c-11.99,3.07-24.36,2.52-36.51,3.9c-3.59,0.41-7,1.94-10.77,1.43
				c-1.38-0.19-2.81,1.08-2.65,2.48c0.49,4.22-1.1,8.41,0.71,12.74c2.36,5.64,4.48,11.51,3.49,17.91c-0.36,2.36-0.08,4.66,1.85,6.46
				c0.46,0.43,1.07,1.19,0.97,1.67c-1.66,8.13,4.85,13.36,7.22,20.03c2.42,6.82,5.2,13.49,9.64,19.59c5.72,7.87,8.4,17.32,9.7,27.02
				c0.78,5.77,1.26,11.6,2.27,17.33c0.7,3.95,0.27,7.98-1.02,11.31c-2.23,5.75-1.36,12.18-5.36,17.64
				c-3.85,5.24-2.52,11.25,2.4,16.42c3.12,3.28,6.14,6.58,8.07,10.67c3.07,6.49,9.68,7.76,15.27,10.42
				c5.78,2.76,10.71,6.08,12.53,12.66c0.42,1.51,1.66,2.45,2.88,3.36c5.99,4.48,12.45,8.36,18.39,12.83
				c15.21,11.46,31.65,21.42,44.6,35.74c2.9,3.21,6.59,5.58,10.33,7.79c2.59,1.53,4.54,3.46,3.72,6.87
				c-0.48,1.96,0.47,3.53,1.38,5.15c3.33,5.92,3.12,11.94,2.26,18.69c-1.58,12.35-3.63,24.86-0.55,37.41
				c3.12,12.73,3.93,25.66,1.67,38.65c-1.92,11.03-1.26,22.24-2.6,33.32c-0.72,5.96-1.87,11.79-2.89,17.68
				c-1.73,9.98-2.85,20.14-2.24,30.27c1.08,17.93,13.41,27.91,27.14,36.64c3.92,2.49,7.97,4.7,11.49,7.86
				c4.19,3.75,9.49,5.58,14.94,6.47c6.73,1.1,11.77,4.19,14.84,10.39c0.8,1.62,2.01,3.06,3.17,4.46c4.97,5.98,4.16,11.54-3.1,14.56
				c-9.78,4.06-20.02,4.35-30.08,0.62c-4.15-1.54-8.49-1.58-12.72-2.39C1196.41,1025.97,1194.6,1026.7,1192.71,1024.3z
				 M1134.85,808.1c-6.7,0.76-11.69,5.12-17.2,8.32c-2.23,1.29-1.87,2.92-0.25,4.93c3.02,3.75,7.48,3.75,11.81,4.92
				c-2.9,0.89-5.4,1.73-7.95,2.41c-1.18,0.31-2.38,0.51-2.61,1.9c-0.26,1.64,1.12,2.03,2.17,2.88c3.43,2.8,9.37,1.63,11.13,7.06
				c0.1,0.32,1.31,0.6,1.82,0.41c6.72-2.47,15.25,1,20.55-6.28c0.44-0.61,2.1-1,2.76-0.66c2.28,1.19,6.07-3.78,7.15,1.76
				c2.31-0.75,5.53-0.85,6.68-2.44c1.22-1.69-1.14-3.75-3.08-4.88c-1.38-0.8-3.6-0.98-3.51-3.04c0.09-2.08,2.42-1.94,3.78-2.75
				c1.14-0.68,2.38-1.21,3.44-1.99c1.32-0.98,1.56-2.67,0.14-3.31c-4.04-1.81-3.96-3.6-0.72-6.21c0.75-0.61,1.13-2.17,1.03-3.24
				c-0.46-4.69,3.24-9.1,0.69-14c-0.69-1.32-0.05-3.36,1.13-4.68c3.92-4.41,2.39-8.98,0.48-13.55c-1.27-3.03-3.42-3.03-5.49-1.05
				c-1.54,1.47-2.63,3.41-3.9,5.16c-1.96,2.7-3.71,5.59-6.93,7.09c3.61-5.56,6.32-11.64,10.73-16.66c2.13-2.43,4.22-5.63,0.2-8.02
				c-10.31-6.12-16.68-16.75-26.83-23.01c-1.81-1.11-3.35-3.42-5.65-1.99c-2.23,1.39,1.12,3.21,0.23,4.93
				c-0.12,0.24-0.46,0.37-0.76,0.6c-4.55-8.63-10.86-15.85-18.35-21.85c-5.02-4.02-11.02-6.77-15.71-11.35
				c-1.04-1.02-2.75-1.57-4.13-0.43c-1.41,1.17-0.71,2.74-0.3,4.18c2.61,9.13,3.99,18.47,5,27.91c0.57,5.32-1.42,8.76-5.94,10.89
				c-4.21,1.98-6.74,5.44-9.79,8.76c-5.98,6.52-7.64,12.74-4.21,21.06c1.2,2.91,0.53,6.6,4.78,8.71c-4.75,0.75-7.17,3.77-10.32,5.57
				c0.56-3.07,3.04-5.64,2.29-9.06c-1.45-6.67-2.36-13.5-4.35-20.01c-5.45-17.8-11.33-35.46-16.14-53.45
				c-0.58-2.18-1.73-2.74-3.59-2.22c-1.93,0.54-1.69,1.99-1.41,3.62c1.66,9.62,3.68,19.16,4.83,28.9
				c1.17,9.92,0.96,20.36,6.83,29.27c0.81,1.23,1.12,2.63-0.55,3.34c-1.62,0.7-2.39-0.62-3.04-1.82
				c-3.58-6.61-4.07-13.96-5.33-21.17c-2.89-16.56-4.18-33.28-5.32-50.02c-0.06-0.93-0.41-2.13,0.87-2.56
				c0.93-0.31,1.4,0.61,2.05,1.08c6.9,5.02,9.62,12.75,11.5,20.29c3.3,13.27,8.01,26.1,11.29,39.35c0.32,1.28,0.57,2.75,2.21,3
				c1.68,0.26,2.84-0.75,3.77-1.99c2.69-3.59,3.25-8.54,2.9-12.05c-0.53-5.42-1.19-11.16-3.25-16.54
				c-2.42-6.33-4.38-12.87-6.01-19.45c-0.69-2.79-1.15-6.1,1.06-8.87c0.52,0.36,0.97,0.51,1.01,0.74
				c2.55,13.25,7.83,25.77,10.49,38.99c0.42,2.09,0.42,4.63,3.23,5.01c3,0.4,4.4-1.91,5.7-4.06c0.9-1.49,0.76-3.15,0.54-4.85
				c-1.55-12.34-5.62-24.28-5.72-36.86c-0.01-1.21-1.08-2.38-1.55-3.62c-3.22-8.53-11.09-11.02-18.46-13.94
				c-3.09-1.22-5.16,1.05-4.49,4c2.37,10.53,4.25,21.1,5.23,31.85c0.33,3.58,1.09,7.12,1.69,10.91c-2.18-0.4-2.32-1.47-2.35-2.44
				c-0.37-10.06-2.87-19.7-5.61-29.3c-0.6-2.12-1.46-5.18-3.54-4.94c-6.27,0.71-11.96-3.33-18.23-1.71c-1.15,0.3-3.05,1.1-3.48-0.57
				c-0.49-1.94,1.72-2.12,2.98-2.65c1.04-0.43,2.26-0.42,3.4-0.59c4.21-0.63,8.23,0.06,12.24,1.41c2.06,0.7,5.22,0.98,5.04-2.01
				c-0.34-5.62,0.61-11.67-4.41-16.31c-5.37-4.96-10.52-10.36-13-17.42c-1.19-3.38-2.8-4.05-5.89-3.3
				c-11.64,2.82-23.2,5.08-35.36,2.26c-8.55-1.99-17.43-2.45-25.54-6.38c-4.83-2.34-9.86-3.94-15.39-1.72
				c-1.76,0.7-4.19,1-5.89,0.36c-7.61-2.86-15.85-3.67-23.19-7.42c-7.41-3.78-15.29-6.44-23.15-9.13c-1.39-0.47-3.2-0.99-3.85,0.91
				c-0.53,1.56,1.02,2.24,2.2,2.87c16.99,9.04,34.8,15.66,53.8,19.17c4.36,0.81,9.08,0.7,13.08,2.93c6.3,3.51,13.18,3.98,20.1,5.17
				c6.01,1.03,14.15-1.96,17.74,6.56c0.4,0.94,2.64,1.11,4.02,1.65c1.45,0.56,3.42,0.2,4.2,2.54c-4.67,2.26-8.41,0.62-11.48-2.78
				c-3.29-3.65-6.8-5.33-12.05-5.45c-9-0.21-18.45,0.5-26.49-5.25c-1.01-0.72-2.52-0.84-3.83-1.03
				c-20.97-2.99-40.42-10.35-59.02-20.24c-2.01-1.07-4.35-4.71-6.11-1.88c-1.27,2.04,2.73,3.78,4.74,5.28
				c10.19,7.64,21.86,12.75,33.17,18.28c13.54,6.62,27.51,12.42,42.38,15.81c9.35,2.13,18.07,6.95,28.04,6.58
				c0.65-0.02,1.25,0.39,1.17,1.34c-1.33,1.44-3.02,0.65-4.61,0.64c-15.98-0.13-30.39-6.89-45.33-11.16
				c-14.72-4.21-28.12-12.01-41.55-19.31c-8.26-4.49-16.66-8.94-22.97-16.43c-3.48-4.12-4.31-3.66-6.76,1.41
				c-0.72,1.48-1.44,3.06-2.54,4.24c-3.15,3.4-1.32,4.41,2.09,5.06c2.77,0.53,5.57,1.08,8.22,2.01
				c12.82,4.49,24.32,11.47,35.56,18.96c6.63,4.41,13.37,8.67,20.59,12.1c10.75,5.11,22.7,6.43,33.72,10.69
				c1.3,0.5,2.96,0.02,4.45,0.13c9.74,0.69,19.07-2.22,28.6-3.31c3.32-0.38,5.56,0.19,5.46,4.23c-0.05,1.89,1.18,2.98,3.02,3.45
				c3.82,0.98,2.69,2.85,0.43,4.19c-4.08,2.43-5.38,5.89-5.36,10.46c0.04,6.2-2.15,11.92-4.93,17.44c1.32-9.81,2.99-19.54,4.8-29.24
				c0.47-2.52,1.25-5.07-1.07-6.94c-2.22-1.79-4.89-2.02-7.57-1.02c-13.15,4.92-26.34,6.52-39.78,1c-3.06-1.26-6.34-2.09-9.59-2.81
				c-12.58-2.8-23.6-9.02-34.19-15.94c-13.26-8.67-26.41-17.38-41.96-21.62c-6.1-1.66-8.31-0.91-11.8,4.09
				c-10.66,15.28-15.78,32.34-17.8,50.74c-0.76,6.93-0.12,13.95-1.73,20.79c-0.46,1.95-0.83,4.4,1.58,5.15
				c2.22,0.69,2.86-1.73,3.82-3.21c4.56-7,9.19-13.94,17.32-17.38c1.4-0.59,2.86-3.07,4.2-1.23c1.45,2-1.2,3.11-2.49,4.11
				c-6.64,5.15-12.11,11.37-17.02,18.12c-3.09,4.24-4.4,9.29-5.99,14.18c-0.53,1.64-0.14,3.37,1.63,4.32c1.46,0.79,2.51-0.12,3.55-1
				c6.11-5.16,12.78-9.79,18.22-15.57c10.55-11.21,22.45-20.72,34.68-29.89c1.6-1.2,3.18-2.82,6.23-2.37c-2.29,3.63-5.1,5.83-8,8.04
				c-7.15,5.43-13.96,11.28-21.36,16.41c-3.68,2.55-5.32,7.05-8.86,10.04c-7.11,6.02-13.87,12.39-21.64,17.66
				c-5.64,3.82-5.02,9.93,0.49,12.2c-3.39,4.23-8.13,8.01-9.93,12.87c-3.44,9.3-7.99,18.39-9.19,28.37
				c-0.76,6.26-2.69,12.03-5.38,17.57c-1.89,3.9-3.88,7.68-5.05,11.91c-1.87,6.74-4.12,13.31-8.81,18.8
				c-3.88,4.54-7.27,9.51-11.16,14.04c-7.17,8.37-3.79,14.38,4.53,18.84c10.66,5.72,21.71,10.83,32.92,15.38
				c6.37,2.59,12.93,5.01,20.15,5.33c20.61,0.91,41.2,2.19,60.72,10c5.5,2.2,7.47,1.02,10.33-4.3c4.05-7.52,6.17-15.79,9.34-23.64
				c9.14-22.6,16.52-45.85,24.39-68.91c4.83-14.15,9.2-28.47,13.47-42.81c3.74-12.58,5.62-25.82,12.8-37.17
				c3.25-5.13,5.11-10.76,7.1-16.39c0.33-0.94,0.03-2.49,2.37-2.49c-1.44,5.36-0.53,11.01-3.55,15.9
				c-6.87,11.15-11.2,23.23-14.04,35.99c-1.8,8.09-4.4,16.01-7.43,23.76c-1.5,3.84-4.62,8.51-3.55,11.59
				c2.14,6.15-1.38,9.27-4.01,13.22c-0.74,1.11-2.26,2.58-1.41,3.47c3.65,3.87-0.04,5.48-1.92,7.84c-0.9,1.13-1.4,2.65-1.82,4.07
				c-7.49,25.73-16.82,50.78-27.43,75.39c-2.03,4.7-4.47,7.78-9.6,8.98c-4.65,1.09-9.09,3.5-12.99-1.61
				c-0.78-1.01-2.66-1.29-4.1-1.67c-15.34-4.02-30.97-6.14-46.78-7.16c-3.52-0.23-5.95,0.51-8.37,3.08
				c-3.97,4.21-6.53,10.01-12.02,12.49c-6.73,3.04-12.68,7.21-18.83,11.16c-17.13,11.03-35.25,20.41-51.76,32.5
				c-17.01,12.45-34.74,23.91-52.03,35.97c-12.23,8.53-25.6,15.38-36.06,26.56c-7.76,8.29-7.43,11.57,0.35,19.84
				c4.52,4.79,9.72,7.74,16.68,8.97c9.03,1.59,16.59,7.53,24.3,12.38c3.87,2.44,6.76,4.7,10.34,0.08c0.42-0.54,1.52-0.58,2.31-0.82
				c9.25-2.75,18.75-4.12,28.29-5.47c8.89-1.26,17.89-1.85,26.62-4.24c6.39-1.75,12.82-3.61,19.35-4.53
				c7.35-1.04,14.1-3.76,20.98-6.14c1.9-0.66,3.67-2.02,2.46-4.57c-1.51-3.18,0.58-4.5,2.96-5c7.14-1.5,14.13-3.87,21.47-4.37
				c17.14-1.17,34.03-3.8,50.67-8.1c3.03-0.78,4.96-2.35,4.91-5.36c-0.08-4.34,2.49-6.55,5.64-8.71c4.66-3.19,9.77-4.89,15.33-5.57
				c16.37-2.01,32.96-0.82,49.29-3.4c1.58-0.25,3.82,0.56,4.46-1.31c0.68-2.02-1.62-2.57-2.92-3.47c-1.07-0.74-2.75-1.17-2.27-2.83
				c0.45-1.57,2.16-1.41,3.43-1.41c7.14,0,14.25-1.44,21.43-0.24c4.78,0.8,9.61,0.07,14.42-0.07c11.98-0.36,23.77-2.73,35.84-2.3
				c13.01,0.47,25.71,3.38,38.66,4.18c2.12,0.13,4.09,0.62,5.08-1.76c2.86-6.91,5.79-13.9,6.96-21.26c1.18-7.34,2.44-14.71,3.78-22
				c3.55-19.45,0.95-38.19-5.52-56.42c-6.59-18.56-11.65-37.39-14.56-56.89c-1.16-7.76,0.58-15.17,0.54-22.75
				c-0.03-5.32-2.18-6.91-7.17-5.74c-8.7,2.03-17.66,2.62-26.32,5.12c-5.95,1.72-12.01,2.69-16.6,7.33
				c-2.94,2.97-5.96,2.62-8.7-0.27c-1.6-1.68-2.85-3.68-4.43-5.38c-3.58-3.86-5.61-9.4-10.94-11.33c-5.01-1.82-10.04-3.47-14.7-6.11
				c-1.76-1-3.37-0.39-5.1,0.69c-6.53,4.06-11.51,9.88-17.25,14.83c-3.42,2.95-6.85,5.88-10.27,8.83
				c6.01-7.28,12.78-13.74,18.93-20.74c2.33-2.65,8-2.67,7.39-6.17c-0.56-3.24-6.01-2.07-9-3.94c-4.22-2.65-4.86-4.95-1.25-9.82
				c1.02,4.67,3.93,7.46,8.09,8.68c3.47,1.01,6.9-0.5,10.3-1.07c6.18-1.04,12.32-0.92,18.34,0.55c3.05,0.74,6.63,2.01,3.48,6.49
				c-0.99,1.41-0.09,2.12,1.15,2.58c1.71,0.64,3.51,1.1,4.47,2.92c1.52,2.86,3.78,2.45,5.89,0.98c2.04-1.42,3.81-3.21,5.7-4.83
				c4.4-3.75,8.13-8.34,13.45-10.97c-0.21,0.63-0.26,1.39-0.66,1.86c-5.68,6.78-12.91,11.89-19.31,17.91
				c-0.61,0.58-1.85,0.64-2.81,0.67c-1.54,0.05-3.44-1.77-4.55,0.14c-1.2,2.05,1.25,3.11,2.12,4.59c0.5,0.86,1.14,1.66,1.51,2.58
				c1.63,4.14,4.08,4.38,7.24,1.64c4.51-3.91,9.76-6.46,15.63-7.16c8.05-0.96,15.82-3.3,23.95-4.19c6.55-0.72,13.71-0.77,19.79-4.27
				c11.38-6.56,23.99-10.88,34.5-18.99c-0.54,6.8-1.63,8.08-8.47,9.82c-4.67,1.19-8.47,3.64-11.26,7.6L1134.85,808.1z
				 M806.37,896.61c-2.88-2.68-5.84-6.65-7.95,0.39c-0.25,0.85-1.52,0.52-2.15,0.9c-2.81,1.68-7.15,0.94-8.31,5.31
				c-0.3,1.12-1.29,0.48-2,0.04c-3.64-2.26-7.43-0.31-9.92,1.37c-1.78,1.2,1.9,3.9,2.8,6.1c0.19,0.45,0.65,0.81,0.78,1.26
				c0.17,0.6,0.39,1.42,0.12,1.86c-0.55,0.89-1.41,0.54-2.13,0.01c-1.14-0.84-2.31-2.56-3.77-0.98c-1.22,1.32,0.03,2.87,0.76,4.09
				c2.82,4.7,6.02,9.18,8.58,14.01c5.05,9.49,12.36,17.06,19.9,24.48c1.68,1.65,3.78,2.19,5.39,0.85c3.29-2.74,7.48-3.43,10.99-5.45
				c11.31-6.5,21.66-14.48,32.36-21.91c1.73-1.2,1.04-2.46-0.68-2.67c-3.66-0.44-5.16-3.17-7.05-5.73
				c-2.87-3.89-4.73-8.77-10.11-10.52c1.6-1.18,5.15,0.25,4.48-2.04c-0.73-2.49-0.69-5.68-3.82-7.52
				c-5.76-3.39-11.9-2.15-17.93-2.42c-1.91-0.08-3.89,0.09-4.27-2.32c-0.29-1.83,0.04-3.53-2.77-3.69
				C806.08,891.82,808.08,895.01,806.37,896.61z M712.82,1094.43c-0.26-2.41-3.66-6.18,2.4-4.62c0.88,0.23,1.5-0.55,1.51-1.54
				c0.02-2.47,1.31-2.42,2.88-1.34c1.62,1.11,2.58,0.04,3.96-0.62c3.1-1.47,4.67-4.66,7.68-6.21c1.84-0.94,1.13-2.44,0.07-3.74
				c-1.87-2.29-4.59-2.5-7.18-2.98c-1.25-0.23-1.59,0.6-1.81,1.76c-1.1,5.74-1.65,5.93-6.67,3.48c-1.4-0.68-3.96-3-4.54-0.75
				c-1.4,5.37-2.91,1.11-4.25,0.39c-1.16-0.62-2.1-1.62-3.2-2.36c-1.05-0.71-2.26-2.13-3.47-0.89c-1.41,1.46-0.09,2.68,1.1,3.68
				c0.52,0.43,0.99,0.9,0.65,2c-4.22,1.18-5.79-4.4-9.82-4.13c0.11,2.64,2.36,3.78,3.73,5.49c0.53,0.66,0.93,1.5,0.33,2.26
				c-0.71,0.9-1.52,0.21-2.19-0.18c-1.15-0.66-2.2-1.52-3.38-2.1c-2.36-1.15-3.9-4.21-8.18-3.13c5.13,5.21,8.53,10.98,12.82,16.08
				c0.97,1.16,2.6,2.52,4.31,0.94c1.25-1.14,3.31-1.89,2.61-4.33c-0.31-1.09-2.16-1.93-0.46-3.64
				C705.18,1090.26,708.16,1093.56,712.82,1094.43z M1208.25,1003.8c-3.53,0.79-4.24-1.85-5.88-2.96c-1.64-1.11-3.53-2.37-5.17,0.04
				c-1.1,1.61-4.24,2.79-2.17,5.29c2.77,3.33,5.89,5.51,11.05,5.14c7.48-0.53,15.26-1.17,22.53,1.5c3.81,1.4,4.35-1.01,5.26-3.26
				c1.17-2.91-0.26-4.46-3.09-4.88c-6.35-0.94-11.5-6.11-18.42-5.15c-0.75,0.1-1.69-0.94-2.5-1.51c-1.33-0.93-2.74-2.59-4.32-1.01
				c-1.49,1.5-0.02,3.06,0.86,4.43C1206.82,1002.08,1207.37,1002.68,1208.25,1003.8z M676.84,1092.19
				c-0.41,0.36-0.82,0.73-1.23,1.09c-1.54-1.09-3.1-2.16-4.63-3.27c-0.71-0.51-1.45-0.95-2.23-0.32c-0.9,0.73-0.09,1.41,0.15,2.17
				c1.75,5.45,6.16,6.5,10.96,6.26c3.04-0.16,5.59-2.68,6.66-4.97c0.82-1.76-2.04-4.81-4.14-4.71c-5.7,0.28-8.05-3.66-10.96-7.19
				c-1.2-1.46-2.58-2.78-4.6-3.16C667.32,1084.83,673.29,1087.73,676.84,1092.19z M1150.2,1018.44c-1.16-1.68-3.19-1.57-4.77-2.26
				c-5-2.17-10.75-2.23-15.39-5.46c-1.91-1.33-4.11-2.14-5.72,0.13c-1.51,2.14-0.28,4.07,1.44,5.67c1.38,1.28,2.92,2.15,4.85,2.28
				c4.8,0.34,9.6,0.79,14.41,1.02C1146.72,1019.89,1148.71,1020.48,1150.2,1018.44z M1167.21,872.55c-2.35-1.38-4.26-0.21-5.63,1.03
				c-2.66,2.41-5.65,3.12-9.1,3.31c-5.81,0.32-11.61,0.99-17.41,1.6c-1.24,0.13-3.06,0.1-3.1,1.84c-0.04,1.87,1.74,1.68,3.01,1.7
				c8.47,0.12,16.94,1.45,24.73-4.15C1162.15,876.15,1165.75,876.02,1167.21,872.55z M729.88,1099.87
				c5.24-0.33,10.12-1.82,14.67-4.23c1.38-0.73,2.86-2.19,2.1-4.05c-0.66-1.62-2.42-0.89-3.53-0.57c-5.7,1.64-11.35,3.47-17.01,5.26
				c-0.77,0.24-1.62,0.62-1.44,1.68c0.16,0.97,1.04,1.25,1.83,1.42C727.61,1099.64,728.77,1099.72,729.88,1099.87z M730.58,986.49
				c3.05,6.88,8.45,9.87,14.27,12.33c0.93,0.39,2.02,0.41,2.73-0.51c0.68-0.88,0.67-2.05-0.05-2.76
				C742.98,991.11,738.86,985.82,730.58,986.49z M1148.42,902.97c5.81,0.83,10.77-0.59,15.71-2.04c1.71-0.5,3.29-1.39,2.38-3.51
				c-0.76-1.77-2.72-1.79-3.83-0.86c-4.07,3.43-9.09,2.39-13.67,3.42c-2.49,0.56-7.03-1.55-7.04,2.05
				C1141.97,904.57,1146.65,901.73,1148.42,902.97z M1037.97,807.91c2.42-0.1,4.59-0.92,4.89-3.39c0.37-2.96-2.13-3.33-4.33-3.49
				c-2.8-0.2-5.61-0.28-8.42-0.35c-1.17-0.03-2.46,0.07-2.98,1.32c-0.62,1.47,0.72,2.05,1.63,2.64
				C1031.58,806.47,1034.74,807.41,1037.97,807.91z M851.05,911.53c1.09,0.66,2.16,1.43,3.33,1.98c2.67,1.27,4.52,3.93,7.51,4.57
				c1.26,0.27,2.89,0.4,3.43-1.18c0.59-1.74-0.91-2.14-2.19-2.64c-3.86-1.51-7.63-3.19-10.94-5.76c-1.34-1.04-3.08-1.55-3.64,0.39
				c-0.58,2.02-4.01,3.47-2.34,5.39c1.73,2,2.4-0.91,3.36-2.03C849.87,911.94,850.42,911.84,851.05,911.53z M707.48,994.38
				c3.15,5.32,8.73,6.99,11.78,11.29c0.65,0.92,2.57,0.83,3.48-0.5c0.79-1.15,0.33-2.32-0.76-2.99
				C717.59,999.46,714.2,994.96,707.48,994.38z M1151.93,886.94c5.3,2.23,9.25-0.81,13.33-2.94c1.05-0.55,3.04-1.67,1.72-3.45
				c-1.08-1.45-3.06-0.79-4.1,0.02C1159.53,883.2,1155.82,885.09,1151.93,886.94z M1148.4,920.21c0.82,0.06,1.32,0.17,1.8,0.12
				c2.02-0.2,5.03,0.37,4.91-2.59c-0.11-2.62-2.92-2.6-5.1-2.57c-0.49,0.01-1.01,0.03-1.46,0.2c-2.16,0.82-6.22-0.47-6.2,2.44
				C1142.38,921.57,1146.57,919.26,1148.4,920.21z M698.1,994.87c-1.98,0.5-2.52,1.56-1.26,2.87c2.97,3.06,6.05,6.03,10.12,7.67
				c0.76,0.31,1.68,0.69,2.27-0.11c0.76-1.02,0.03-1.9-0.72-2.53c-2.92-2.41-5.88-4.76-8.86-7.1
				C699.16,995.29,698.53,995.08,698.1,994.87z M1132.12,870.68c-0.02,0.6-0.03,1.2-0.05,1.8c5.28,0.26,10.57,0.53,15.85,0.75
				c0.68,0.03,1.36-0.41,1.38-1.15c0.04-1.27-1-1.61-1.97-1.81C1142.17,869.21,1137.19,870.56,1132.12,870.68z M753.6,966.79
				c2.56,4.4,6.26,7.64,10.3,10.54c0.87,0.62,1.96,0.73,2.64-0.22c0.74-1.03-0.1-1.81-0.81-2.51
				C762.23,971.16,758.05,968.81,753.6,966.79z M1178.11,1006.48c2.69,4.73,5.72,7.91,9.29,10.62c0.84,0.64,1.89,0.93,2.63-0.09
				c0.57-0.78,0.12-1.64-0.51-2.22C1186.3,1011.83,1184.09,1007.56,1178.11,1006.48z M1163.69,952.96c-2.71,2.42-3.4,5.54-4.58,8.42
				c-0.44,1.08-1.18,2.21,0.18,3.07c0.96,0.62,1.91-0.03,2.8-0.48c2.22-1.13,3.36-2.94,2.48-5.31
				C1163.86,956.79,1163.59,954.97,1163.69,952.96z M630.85,1062.04c0.08,5.48,3.08,8.47,5.23,11.83c0.51,0.8,1.43,1.52,2.52,1.13
				c0.98-0.34,1.08-1.4,0.59-2.05C636.59,1069.56,635.36,1065.06,630.85,1062.04z M1142.72,909.31c3.63,1.98,7.52,1.67,11.35,1.61
				c0.5-0.01,1.26-0.61,1.43-1.09c0.29-0.86-0.3-1.78-1.12-1.89C1150.41,907.44,1146.44,907.16,1142.72,909.31z M1168.96,864.64
				c-0.88-1.88-2.37-2.2-3.79-1.82c-2.29,0.61-5.21,1.02-5.35,4.07c-0.08,1.82,2.06,2.03,3.44,1.78
				C1165.73,868.24,1167.46,866.57,1168.96,864.64z M788.97,963.36c-3.54-3.45-5.66-8.57-12.22-10.7
				C779.82,958.89,784.72,960.74,788.97,963.36z M950.35,640.29c-1-1.7-3.07-1.62-4.6-2.49c-1.68-0.95-3.18-2.56-5.38-1.93
				c-0.68,0.2-0.77,1.04-0.54,1.7c0.9,2.68,3.24,2.98,5.56,3.35c1.14,0.18,2.24,0.55,3.38,0.74
				C949.68,641.81,950.38,641.51,950.35,640.29z M1157.78,971.04c1.28-0.11,3.18,0.65,3.27-1.23c0.08-1.76-1.77-1.84-3.03-1.46
				c-2.65,0.79-5.19,0.73-7.83-0.04c-1.24-0.36-3.14-0.55-3.29,1.13c-0.17,1.9,1.82,1.57,3.02,1.46
				C1152.56,970.64,1155.2,970.29,1157.78,971.04z M1192.48,1006.6c-0.51,4.06-1.4,6.69,1.16,8.71c0.77,0.61,1.4,2.3,2.78,1.04
				c0.95-0.87,0.9-2.07,0.19-3.19C1195.49,1011.39,1194.38,1009.61,1192.48,1006.6z M692,1067.51c-2.27-0.86-4.54-1.75-6.82-2.58
				c-0.79-0.29-1.71-0.44-2.21,0.44c-0.48,0.85,0.04,1.67,0.61,2.25C686.03,1070.11,688.84,1069.81,692,1067.51z M1150.33,924.96
				c-1.85,0.02-4.26-0.93-4.56,1.68c-0.18,1.59,1.9,1.75,3.15,1.46c2.14-0.49,5.8,0.98,6.13-1.57
				C1155.37,924.05,1151.88,925.62,1150.33,924.96z M747.72,988.81c1.22-0.09,1.92-0.6,1.54-1.57c-0.95-2.41-2.81-3.97-5.25-4.75
				c-0.93-0.3-1.85,0.39-1.58,1.24C743.29,986.4,745.52,987.76,747.72,988.81z M1150.78,932.82c1.8,1.63,3.66,1.5,5.38,1.67
				c1.4,0.13,3.39,0.3,3.32-1.8c-0.06-1.66-1.86-1.58-3.13-1.5C1154.56,931.31,1152.76,931.53,1150.78,932.82z M1163.83,850.6
				c-1.7,0.19-3.22,0.89-3.42,2.86c-0.13,1.39,0.98,2.1,2.27,2.11c1.85,0.01,3.28-0.81,3.44-2.84
				C1166.24,851.31,1165.3,850.66,1163.83,850.6z M760.2,962.78c1.87,3.74,4.97,5.99,8.72,7.47
				C766.69,966.99,764.56,963.63,760.2,962.78z M730.17,994.8c-0.51-1.79-1.22-3.54-3.41-3.61c-1.27-0.04-1.63,1.14-1.17,2.13
				c0.71,1.52,0.26,4.01,2.56,4.29C729.76,997.8,730.12,996.22,730.17,994.8z M619.11,1087.19c1.15-0.09,2.7,0.15,2.39-1.64
				c-0.29-1.7-1.87-2.23-3.36-2.53c-1.27-0.25-2.58,0.11-2.6,1.56C615.51,1086.9,617.57,1086.82,619.11,1087.19z M1152.31,990.73
				c-0.49-1.49-1.78-2.07-3.25-2.31c-1.23-0.2-2.42,0.05-2.48,1.58c-0.06,1.52,0.87,2.5,2.39,2.52
				C1150.23,992.54,1151.6,992.43,1152.31,990.73z M1160.38,995.75c-1.71-0.87-2.06-3.69-4.66-4.2c-0.66-0.13-1.45,0.65-1.18,1.23
				c1,2.12,2.77,3.63,4.78,4.74C1159.93,997.86,1160.42,997.09,1160.38,995.75z M775.44,960.47c-0.7-2.73-1.97-4.55-4.68-4.98
				c-0.38-0.06-1.36,0.88-1.29,1.12c0.62,2.09,2.82,2.55,4.26,3.82C773.99,960.66,774.62,960.47,775.44,960.47z M1182.2,996.28
				c-0.47-1.68-1.85-1.76-3.18-1.73c-1.36,0.03-3.01,0.27-2.63,2.09c0.32,1.56,1.98,1.56,3.32,1.44
				C1180.84,997.99,1182.1,997.9,1182.2,996.28z M701.91,1008.71c-0.76-1.9-2.54-2.61-4.48-2.97c-0.77-0.14-1.27,0.57-1.09,1.23
				c0.58,2.14,2.45,2.92,4.29,3.48C701.47,1010.7,702.01,1009.86,701.91,1008.71z M1153.17,893.76c2.37,0.45,4.75,0.87,6.87-0.65
				c0.16-0.11,0.01-1.11-0.22-1.21C1157.25,890.74,1155.17,891.98,1153.17,893.76z"/>
			<path d="M1094.89,457.58c-0.51-2.51-0.69-3.46-0.9-4.41c-0.23-1.02-0.64-1.96-1.85-2.03c-1.46-0.08-1.98,0.99-2.36,2.15
				c-0.1,0.31-0.13,0.65-0.19,0.98c-0.45,2.16-1.11,5.03-3.45,4.81c-3.03-0.29-1.7-3.42-1.74-5.37c-0.1-4.88-1.12-9.59-2.3-14.27
				c-0.85-3.37-3.54-4.66-6.65-5.24c-2.62-0.48-5.25-0.91-7.89-1.24c-5.44-0.68-10.63-1.78-15.67-4.33
				c-4.53-2.3-10.11,0.5-12.6,5.14c-1.3,2.44-2.74,4.8-4.76,8.33c-0.2-3.65,0.7-5.61,1.78-7.38c1.78-2.91,3.31-5.74-0.4-8.19
				c-3.62-2.39-8.88-1.31-10.81,2.56c-2.17,4.37-6,6.55-9.83,8.88c-1.46,0.89-3.04,1.18-4.85,0.75c0.49-2.51,2.57-2.48,4.13-3.18
				c4.18-1.89,5.58-5.31,3.71-9.18c-6.7-13.89-19.44-19.5-32.9-24.43c-7.79-2.85-16.07-2.31-23.9-4.51
				c-1.95-0.55-3.53,0.45-5.25,1.07c-3.79,1.38-7.65,2.51-11.66,0.78c-1.04-0.45-2.47-1.01-1.82-2.44c0.48-1.06,1.84-0.67,2.69-0.22
				c3.29,1.73,6.43,0.85,9.64-0.24c1.37-0.47,3.28-0.17,3.32-2.23c0.03-1.76-1.58-2.81-2.95-2.97c-4.64-0.55-8.86-2.8-13.59-3.03
				c-3.81-0.18-7.6-0.83-11.39-1.33c-0.97-0.13-1.89-0.49-2.54-1.96c3.96-0.91,7.72-0.06,11.29,0.38c9.71,1.2,19.01,3.99,27.58,8.9
				c1.88,1.07,4.18,2.52,5.83,0.27c1.9-2.59-0.54-4.12-2.29-5.69c-2.91-2.63-6.7-3.65-10.03-5.5c-3.94-2.19-7.04-7.29-6.37-11.59
				c0.18-1.17,0.43-2.6,1.87-2.51c1.62,0.1,1.48,1.71,1.26,2.75c-0.6,2.85-0.18,5.23,2.15,7.19c1.02,0.86,1.84,2.17,3.37,1.32
				c1.47-0.83,1.09-2.28,0.77-3.58c-0.51-2.03-2.47-4.1,0.01-6.08c0.44,0.18,0.62,0.21,0.74,0.32c1.51,1.29-0.4,5.52,3.71,4.5
				c2.68-0.67,4.87-6.18,3.41-8.73c-2.62-4.56-4.02-9.75-8.2-13.52c-2.94-2.65-4.76-6.3-4.85-10.62c-0.07-3.43-2.98-4.05-5.63-4.64
				c-2.84-0.63-3.79,1.42-4.66,3.48c-3.5,8.3-7.21,16.4-13.73,22.97c-3.31,3.33-2.31,5.74,2.33,6.16c3.5,0.32,6.83,2.72,10.63,0.6
				c1.45-0.81,2.91,0.61,2.95,2.4c0.04,1.92-1.35,2.52-3.04,2.47c-4.82-0.12-9.68,0.07-14.39-1.24c-3.01-0.84-5.24,0.15-7.83,1.82
				c-8.29,5.33-14.72,12.82-22.02,19.21c-6.84,5.98-12.32,13.83-15.77,22.75c-2.15,5.55-4.86,10.89-7.14,16.41
				c-1.19,2.87-2.04,5.47-1.81,8.56c0.28,3.74-0.86,7.32-2.35,10.64c-2.87,6.39-2.63,13.74-6.43,19.84
				c-0.71,1.14-0.42,2.91-0.76,4.38c-0.47-8.49,0.3-16.84,3.17-24.92c0.9-2.52,2.19-5.01,1.95-7.69
				c-1.14-12.47,5.19-22.45,10.86-32.57c6.76-12.07,16.71-21.42,26.91-30.55c11.57-10.36,21.58-22.11,29.83-35.29
				c5.62-8.99,5.24-18.59,2.22-28.25c-1.29-4.11-1.74-8.41-0.84-12.31c1.67-7.23,0.91-14.5,1.63-21.7
				c1.18-11.89,7.1-21.33,15.12-30.03c9.81-10.65,22.75-15.23,35.86-18.09c10.65-2.32,22.02-1.63,32.65,3.44
				c6.74,3.22,13.36,5.89,18.99,11.35c7.09,6.87,9.48,15.42,11.79,24.21c1.71,6.54,1.64,13.42,3.68,19.96
				c1.36,4.36,0.38,8.38-1.84,12.81c-2.35,4.68-2.94,10.53-3.16,15.91c-0.32,7.86-1.09,15.58-3.09,23.18
				c-1.57,5.93-4.98,10.97-8.65,15.61c-3.98,5.02-6.97,10.52-10.09,16.01c-2.41,4.24-4.78,7.88-11.01,7.59
				c-4.42-0.2-9.05,1.84-13.41,3.37c-3.03,1.06-3.96,4.14-5.15,6.98c-1.98,4.71-1.68,4.21,1.74,8.39
				c11.3,13.79,26.71,17.93,43.38,19.23c4.25,0.33,8.14,1.81,12.08,2.95c5.24,1.51,10.5,1.65,15.8,1.96
				c2.96,0.17,6.4,0.48,6.87-3.82c0.39-3.59-3.31-7.89-6.97-7.66c-4.8,0.3-8.71-1.83-12.82-3.59c-2.71-1.16-4.58-3.36-4.31-6.17
				c0.43-4.57-1.29-8.9-0.97-13.39c0.24-3.42-1.65-5.99-3.25-8.72c-3.53-6.05-3.06-10.18,1.43-14.99c1.09-1.16,2.24-1.98,3.89-1.85
				c0.83,0.06,1.78,0.06,2.14,0.93c0.45,1.06-0.54,1.42-1.22,1.84c-1.27,0.78-2.72,1.35-3.81,2.32c-1.63,1.45-2.37,3.19-0.59,5.2
				c0.75,0.85,1.26,1.92,1.84,2.92c3.89,6.71,3.52,14.1,3.43,21.45c-0.06,4.79,1.98,6.15,6.51,4.24c2.34-0.99,4.59-1.62,5.69,1.53
				c1.42,4.06,4.24,5.13,7.18,2.14c1.61-1.63,3.13-2.21,5.22-2.14c2.93,0.1,6.81-0.59,2.67,4.13c-1.41,1.61-0.57,2.85,1.23,3.31
				c2.76,0.71,2.98,2.13,1.7,4.39c-0.73,1.29-1.2,2.73-1.72,4.13c-0.83,2.27,0.08,3.69,2.4,3.81c5.59,0.29,11.22,0.83,16.77,0.43
				c5.01-0.36,8.49,2.13,11.27,5.26c2.41,2.72-0.74,4.07-2.93,4.46c-2.83,0.5-5.82-0.19-8.19-1.67c-5.74-3.56-12.24-2.51-18.38-3.6
				c-1.1-0.19-2.55-0.39-3.06,0.96c-0.62,1.65,0.79,2.6,1.96,2.98c3.69,1.19,4.49,3.42,3.26,6.93c-0.42,1.18-0.41,3,1.32,3.25
				c1.44,0.21,1.65-1.36,1.87-2.49c0.78-4.06,3.53-4.12,6.42-2.82c3.41,1.53,8.1,1.81,8.28,7.18c0.04,1.14,0.57,2.49-0.7,3.14
				c-1.18,0.6-1.73-0.56-2.23-1.4c-0.55-0.92-1.8-2-2.31-1.5C1104.95,454.79,1098.1,450.16,1094.89,457.58z M952.92,301.02
				c0.5-0.84,0.86-1.81,1.52-2.5c0.99-1.05,1.87-2.02,0.64-3.37c-1.07-1.18-2.5-1.09-3.63-0.31c-2.01,1.39-5.05,3.13-4.38,5.44
				c0.86,2.96,3.87,0.93,5.99,0.6c-0.96,1.55-0.86,3.52-2.19,4.97c-4.24,4.63-4.68,8.01-1.85,13.69c0.99,2,1.35,4.06,1.39,6.27
				c0.15,7.84,3.58,11.38,11.26,11.12c3.28-0.11,4.66,1.3,5.01,4.15c0.68,5.47,2.72,10.59,4.94,15.46c1.63,3.58,3.96,7.23,7.57,9.59
				c4.34,2.83,9.67,5.1,12.77,8.7c5.81,6.74,13.32,7.87,20.88,9.73c1.94,0.48,3.81-0.19,4.68-2.04c1.08-2.3,2.61-3.59,5.13-4.2
				c1.68-0.41,2.66-2.14,2.62-3.89c-0.04-1.78-1.68-2.36-3.14-2.76c-1.28-0.34-2.61-0.48-3.93-0.67c-1.43-0.21-3.25,0.17-3.51-1.93
				c-0.17-1.44-0.56-3.14,0.89-4.16c1.51-1.06,2.91-0.08,4.09,0.83c3.42,2.64,7.54,2.4,11.46,2.84c1.86,0.21,3.94-0.21,4.26-2.5
				c0.32-2.28-1.67-3.07-3.38-3.71c-2.18-0.81-4.42-1.46-6.65-2.14c-8.71-2.65-16.73-2.71-22.4,6.03c-1.69,2.6-4.12,2.48-6.62,1.48
				c-0.5-0.2-0.98-0.93-1.08-1.49c-0.15-0.82,0.51-1.22,1.26-0.94c3.06,1.12,3.38-1.37,4.62-3.12c2.79-3.93,5.12-9.11,11.67-6.45
				c0.55,0.22,1.41,0.14,1.94-0.14c5.25-2.79,9.87-1.55,15.07,0.93c6.27,2.99,10.26,0.23,10.54-5.99c0-0.1,0.55-0.17,0.88-0.27
				c1.54,1.41-0.42,4.92,2.7,5.17c3.08,0.25,3.15-2.85,4.34-4.73c3.11-4.94,2.25-10.65,3.28-15.98c0.35-1.84,1.52-4.44-1.01-5.25
				c-2.65-0.85-4.7,1.28-5.02,3.67c-0.63,4.65-3.91,8.03-5.17,12.31c-0.35,1.18-0.86,2.23-2.4,1.97c-2.69-0.45-6.57,3.37-7.9-2.22
				c-0.11-0.45-1.45-0.63-2.23-0.88c-1.74-0.54-4.87,0.11-4.27-2.82c0.63-3.12,3.68-1.97,5.9-1.82c0.64,0.04,1.27,0.39,1.9,0.6
				c5.78,1.97,7.89,0.74,8.94-5.35c1.05-6.09-0.41-12.18-0.16-18.32c0.16-4.05,2.64-7.15,2.54-10.99c-0.04-1.55,0.03-1.57,8.53-1.18
				c1.31,0.06,2.62,0.4,3.91,0.69c1.39,0.32,2.04-0.12,2.57-1.51c1.73-4.58-0.17-10.14-4.47-12.67c-0.69-0.41-1.53-0.92-1.82-1.59
				c-1.22-2.79-2.81-3.67-5.87-2.35c-2.33,1-3.9-0.76-2.79-2.81c1.63-3.02,1.25-6.13,1.68-9.22c0.18-1.31,0.24-2.8,1.78-3.3
				c1.57-0.5,2.32,0.82,3.32,1.68c1.14,0.99,1.18,3.93,3.3,2.9c2.17-1.05,1.11-3.56,0.83-5.46c-0.19-1.3-0.65-2.59-1.18-3.8
				c-4.5-10.22-11.99-17.07-22.31-21.55c-23.4-10.16-44.96-5.44-64.82,8.35c-8.28,5.75-13.49,14.58-11.94,25.84
				c0.32,2.31,0.76,4.9-0.7,7.29c-0.94,1.54,0.24,3.72,1.48,3.6c4.58-0.43,6.24,4.14,9.78,5.14c3.92,1.1,3.08,5.14,4.95,7.51
				c0.94,1.19-1.09,1.85-2.18,1.36c-6.55-2.94-4.61,1.35-3.96,4.56c0.83,4.16,4.2,7.65,3.23,12.6c-1.87-2.42-2.94-4.99-4.22-7.46
				c-1.12-2.16-2.83-3.08-4.27-0.06c-0.59,1.24-0.48,3.57-2.64,2.63c-1.87-0.81-1.24-2.93-0.77-4.46c0.32-1.04,1.27-1.88,1.93-2.82
				C959.18,305.07,958.25,302.5,952.92,301.02z M995.52,394.61c2.83-4.12-3.13-5.12-2.73-8.49c0.27-2.29-1.33-3.34-3.38-4.28
				c-3.86-1.78-7.99-3.4-9.3-8.25c-0.53-1.95-2.19-3.03-4.24-2.75c-3.41,0.47-3.31,4.24-5.32,6.14c-1.03,0.98-0.31,2.86,0.67,4.13
				c0.2,0.25,0.62,0.63,0.76,0.57c3.05-1.34,2.59,1.6,3.69,2.8c1.66,1.81,2.84,3.57,2.7,6.14c-0.07,1.24,0.96,2.81,2.09,1.89
				c5.4-4.44,6.93,1.75,9.77,3.61c1.43,0.93,2.37,3.01,4.37,2.6C997.23,398.15,994.72,395.76,995.52,394.61z M1044.72,316.43
				c-0.57,3.61,0.17,5.47,2.32,6.67c2.22,1.24,4.32,1.31,6.44-0.37c1.27-1.01,3.25-1.56,2.27-3.72c-0.9-2.01-2.62-1.59-4.27-0.98
				c-1.76,0.66-4.03,2.4-4.79-0.72c-0.63-2.57,1.74-3.09,3.79-3.52c1.57-0.33,3.56-0.34,3.93-2.39c0.26-1.44-0.77-2.5-2.08-3.05
				c-1.88-0.79-3.48-0.3-4.98,1.09C1044.87,311.69,1044.91,314.73,1044.72,316.43z"/>
			<path d="M999.11,498.34c-4.57,6.39-11.5,10.09-17.5,14.91c-4.56,3.65-9.9,5.95-14.96,8.69c-6.4,3.46-13.59,5.03-20.54,7.06
				c-1.52,0.44-4.45,0.94-4.49-1.39c-0.04-2.24,2.53-1.19,4.05-1.01c3.69,0.44,5.98-2.58,9.08-3.66c6.56-2.28,13.34-4.14,19.24-8.05
				C982.34,509.36,990.73,503.86,999.11,498.34z"/>
			<path d="M1067.32,371.27c2.2-2.68,3.73-4.8,5.53-6.66c1.13-1.17,2.94-3.01,3.98-2.74c7.35,1.89,13.29-4.72,20.48-3.1
				c2.05,0.46,3.94-0.25,5.84-0.91c2.42-0.83,4.2,0.15,5.62,2.07c0.51,0.69,0.95,1.5,0.36,2.26c-0.61,0.81-1.49,0.44-2.28,0.14
				c-6.78-2.53-12.98,0.13-19.2,2.26c-1.39,0.48-2.84,1.89-4.14,0.77c-4.41-3.8-7.05-0.75-10.18,1.99
				C1071.78,368.73,1071.01,371.48,1067.32,371.27z"/>
			<path d="M1112.45,365.95c2.35,0.76,3.87,2.27,4.4,4.11c2.26,7.76,5.75,15.21,6.19,23.45c0.06,1.13-0.1,2.32-0.42,3.4
				c-0.14,0.48-0.89,1-1.43,1.11c-0.78,0.15-1.17-0.62-1.21-1.27c-0.53-10.42-4.89-19.79-7.99-29.5
				C1111.92,367.01,1112.19,366.65,1112.45,365.95z"/>
			<path d="M952.62,480.33c-2.54,3.1-5.39,3.38-8.71,3.18c-4.28-0.26-8.61-0.02-12.9,0.26c-2.33,0.15-4.27-0.43-5.95-1.9
				c-0.4-0.35-0.66-1.15-0.6-1.69c0.08-0.75,0.9-1.07,1.53-0.86c8.17,2.78,16.44,0.16,24.65,0.53
				C951.11,479.86,951.58,480.07,952.62,480.33z"/>
			<path d="M981.85,564.07c-5.74,6.67-11.53,13.28-19.36,17.7c-2.17,1.23-4.37,2.4-6.54,3.64c-1.39,0.79-3.24,2.67-4.27,0.82
				c-1.29-2.33,1.64-2.85,3.07-3.51c6.52-3,12.84-6.28,18.11-11.25C975.69,568.81,978.16,565.75,981.85,564.07z"/>
			<path d="M1001.23,434.85c-8.75,5.36-17.73,8.85-27.75,9.08c-1.25,0.03-3.12,0.63-3.42-1.05c-0.37-2,1.79-1.83,2.85-1.75
				c8.98,0.67,16.67-3.41,24.66-6.45C998.57,434.3,999.72,433.62,1001.23,434.85z"/>
			<path d="M981.8,632.84c-10.24,4.87-19.92,1.07-29.66-1.79C961.96,632.61,971.87,632.64,981.8,632.84z"/>
			<path d="M1006.49,567.43c-2.53,3.33-6.27,3.79-8.94,5.94c-0.73,0.59-1.95,0.9-2.55-0.22c-0.47-0.87,0.35-1.6,1.07-1.93
				C999.28,569.74,1002.07,567.12,1006.49,567.43z"/>
			<path d="M1077.65,392.63c-0.27,2.28-1.91,3.3-3.99,3.69c-1.48,0.28-2.84-0.27-2.68-2.02c0.23-2.4,2.09-3.17,4.22-3.47
				C1076.56,390.64,1077.49,391.02,1077.65,392.63z"/>
			<path d="M1086.64,471.53c-1.86,0.13-2.4-0.78-2.48-2.05c-0.09-1.59,0.31-3.05,2.16-3.23c1.31-0.13,2.88,0.28,2.92,1.87
				C1089.29,469.91,1087.74,470.81,1086.64,471.53z"/>
			<path d="M943.58,506.42c4.67-1.2,8.5-4.33,13.07-5.77C952.82,503.78,948.48,505.73,943.58,506.42z"/>
			<path d="M1052.01,455.38c-1.86,3.22-3.32,6.77-6.98,8.48C1046.52,460.34,1048.87,457.53,1052.01,455.38z"/>
			<path d="M959.9,479.41c2.45-2.08,4.57-2.37,6.97-1.61C964.7,480.47,964.7,480.47,959.9,479.41z"/>
			<path d="M886.35,988.11c16.17-0.46,31.02-2.34,45.92-3.96c19.01-2.07,38.03-3.98,57.22-4.32c24.81-0.43,49.61-0.02,74.39,0.55
				c14.97,0.35,29.83,2.78,44.53,5.76c3.14,0.64,6.22,1.08,9.41,0.69c0.99-0.12,2.18-0.11,2.43,1.13c0.34,1.69-1.09,1.82-2.21,1.97
				c-3.8,0.51-7.7,1.35-11.42,0.2c-13.19-4.08-26.8-5.24-40.44-5.71c-31.8-1.1-63.62-1.6-95.41,0.51
				c-15.78,1.05-31.51,2.72-47.2,4.91c-13.84,1.93-27.84,2.87-41.85,2.84c-10.37-0.03-20.51,1.86-30.72,3.25
				c-1.69,0.23-3.99,0.24-4.05,2.81c-0.05,2.13,1.67,3.19,3.32,4.01c2.08,1.04,4.28,1.84,6.42,2.77c1.8,0.78,4.3,1.34,3.67,3.93
				c-0.65,2.69-3.25,2.62-5.4,2.29c-4.49-0.7-8.55,1.02-12.75,1.95c-1.27,0.28-2.86,0.7-2.62,2.43c0.2,1.41,1.72,1.47,2.83,1.49
				c5.77,0.14,10.49,2.94,15.18,5.85c4.06,2.51,4.01,4.63,0.08,7.45c-3.63,2.61-7.89,3.57-11.98,4.82
				c-14.17,4.33-27.68,10.47-41.71,15.08c-11.83,3.89-24.22,5.97-36.11,9.82c-7.12,2.31-14.39,4.17-21.59,6.23
				c-0.96,0.27-1.92,0.67-2.9,0.73c-2.05,0.12-5.28,1.44-5.74-1.04c-0.54-2.92,2.91-2.35,4.84-2.57c5.04-0.57,9.63-2.63,14.34-4.24
				c13.2-4.52,26.68-8.09,40.13-11.74c11.28-3.06,21.74-8.31,32.84-11.85c6.16-1.96,12.24-4.18,18.34-6.3
				c1.55-0.54,3.47-0.9,3.21-3.14c-0.23-1.93-1.82-2.82-3.51-3.09c-3.28-0.53-6.6-0.97-9.91-1.14c-3.26-0.16-6.16-1.13-9.02-2.63
				c-2.04-1.07-3.85-2.22-3.74-4.77c0.11-2.73,2.3-3.43,4.46-3.95c4.21-1.02,8.41-2.11,12.77-2.2c1.36-0.03,2.86,0.11,3.46-1.36
				c0.66-1.64-0.43-2.89-1.57-3.9c-1.74-1.55-3.57-3-5.39-4.46c-1.31-1.06-2.81-2.05-2.27-4.05c0.5-1.87,2.17-2.59,3.8-2.81
				c4.61-0.64,9.24-2.11,13.75-2.18C865.38,989.96,876.24,985.71,886.35,988.11z"/>
			<path d="M1001.43,714.86c-6.83,17.85-13.38,34.74-21.17,51.19c-4.52,9.55-8.64,19.37-13.93,28.48
				c-9.02,15.55-19.11,30.43-35.98,38.84c-0.96,0.48-1.91,1.45-3.47,0.53c4.18-3.93,9.12-6.65,13.34-10.32
				c8.54-7.42,14.47-16.86,20.57-26.07c2.37-3.57,4.91-7.07,7.32-10.61c5.23-7.69,7.34-16.6,10.58-25.07
				c1.21-3.18,3.48-5.69,4.69-8.73c4.16-10.46,8.08-21.01,12.06-31.55C996.46,718.83,997.41,716.12,1001.43,714.86z"/>
			<path d="M934.05,881.84c-9.82,6.62-19.58,5.32-28.83,2.11c-8.3-2.89-16.24-6.7-25.08-7.86c-0.81-0.11-1.61-0.44-2.35-0.8
				c-1.05-0.51-2.37-1.14-2.02-2.49c0.45-1.72,2.09-1.61,3.3-1.08c8.12,3.54,17.18,3.97,25.23,7.74c3.93,1.84,8.03,3.05,12.41,3.53
				c4.18,0.46,8.21,1.19,12.02-1.45C929.97,880.7,931.59,880.83,934.05,881.84z"/>
			<path d="M1042.72,670.24c0-0.99-0.02-1.99,0-2.98c0.03-1.42,0.43-2.75,2.05-2.92c1.71-0.17,2.26,1.14,2.37,2.55
				c0.12,1.5,0.03,3.06,1.38,4.07c1.72,1.28,1.7,2.69,0.48,4.24c-0.99,1.27-2.26,1.97-3.9,1.45c-1.65-0.52-2.26-1.84-2.35-3.44
				c-0.06-0.99-0.01-1.99-0.01-2.98C1042.74,670.24,1042.73,670.24,1042.72,670.24z"/>
			<path d="M1037.12,663.14c-0.33,4.5-0.05,9-1.69,13.19c-0.55,1.4-1.5,2.95-3.32,1.8c-1.42-0.9-1.84-2.96-0.64-3.91
				C1035.13,671.33,1035.7,667.11,1037.12,663.14z"/>
			<path d="M1000.82,803.15c-2.08,4.16-2.78,9.28-7.87,11.4C994.58,810.1,996.62,805.93,1000.82,803.15z"/>
			<path d="M1030.98,681.7c1.05-0.17,1.63,0.37,1.69,1.3c0.1,1.55-0.24,3.1-1.76,3.77c-1.22,0.53-1.72-0.55-1.89-1.59
				C1028.77,683.52,1029.29,682.26,1030.98,681.7z"/>
			<path d="M1134.73,808.24c1.13-0.18,2.25-0.49,3.38-0.49c1.42,0,3.06-0.37,4.1,0.96c0.66,0.86-0.12,1.54-0.85,1.91
				c-1.65,0.84-3.41,1.48-4.99-0.03c-0.67-0.65-1.01-1.65-1.5-2.49C1134.85,808.1,1134.73,808.24,1134.73,808.24z"/>
			<path d="M793.61,903.17c7.89,3.19,13.92,9.1,15.09,14.68C803.55,913.09,798.76,907.97,793.61,903.17z"/>
			<path d="M831.97,928.08c2.69,0.93,4.54,2.85,7.13,3.75c1.34,0.47,2.57,2.13,0.47,2.71c-2.39,0.66-4.54,2.85-7.43,1.93
				c-0.15-2.51,4.46-1.19,3.06-4.11C834.44,930.78,833.07,929.5,831.97,928.08z"/>
			<path d="M802.46,939.7c3.67,3.9,5.87,7.3,9.91,9.72C807.62,949.93,803.77,946.23,802.46,939.7z"/>
			<path d="M837.37,921.2c3.09,2.02,5.31,3.55,7.61,4.96c0.86,0.53,1.98,0.95,1.32,2.12c-0.54,0.97-1.84,1-2.64,0.43
				C841.22,927,838.62,925.35,837.37,921.2z"/>
			<path d="M812.39,931.34c2.84,3.65,5.69,7.3,7.77,9.97c-3.19-1.27-5.86-5.22-8.89-8.73C811.64,932.17,812.02,931.75,812.39,931.34
				z"/>
			<path d="M807.99,937.96c4.56,2.2,6.35,5.63,9.56,8.19C814.02,946.01,810.8,943.3,807.99,937.96z"/>
			<path d="M797.56,942.82c1.95,1.66,3.39,2.7,4.6,3.97c0.86,0.9,3.52,1.48,1.89,3.1c-1.33,1.32-2.42-0.96-3.33-1.93
				C799.55,946.72,797.51,946.1,797.56,942.82z"/>
			<path d="M1021.79,294.21c2.44-0.21,3.93,1.55,5.63,2.82c1.45,1.09,2.63,2.55,4.63,2.76c1.3,0.14,3.43-0.9,3.4,1.6
				c-0.03,2.15-0.49,4.51-2.31,5.86c-1.72,1.27-3.17-0.24-4.27-1.46c-5.98-6.64-12.86-7.39-20.83-3.88
				c-2.42,1.06-6.57,3.98-7.79,0.2c-1.13-3.49,4.02-3.51,6.49-4.32C1011.63,296.19,1016.59,294.61,1021.79,294.21z"/>
			<path d="M987.15,339.94c2.35,2.14,6.92,0.11,8.1,4.41c0.19,0.69,1.55,0.54,2.24,0.02c4.43-3.37,10.11-1.87,14.9-3.86
				c0.95-0.39,2.45-0.97,3.07,0.46c0.6,1.39-0.85,1.97-1.7,2.66c-2.82,2.29-5.37,5.26-8.59,6.62c-4.35,1.84-8.62-0.5-12.35-2.83
				C990.15,345.77,988.57,342.91,987.15,339.94z"/>
			<path d="M1002.99,309.81c8.38-3.06,16.13-6.04,24.11-1c1.18,0.74,3.28,0.87,3.13,2.72c-0.15,1.98-2,2.94-3.6,3.8
				c-1.89,1.02-2.65-0.36-3.34-1.78c-0.98-2.01-2.61-2.13-4.61-1.76C1010.77,313.25,1010.76,313.2,1002.99,309.81z"/>
			<path d="M1011.9,327.47c-1.15-0.17-1.82-0.19-2.44-0.38c-1.72-0.53-4.32-1.11-4.05-2.94c0.34-2.29,3.04-1.3,4.61-1.12
				c2.53,0.29,4.75,0.72,6.54-1.83c0.73-1.05,2.46-1.45,3.46-0.14c0.92,1.21-0.23,2.17-1.19,2.79
				C1016.52,325.36,1014.41,327.32,1011.9,327.47z"/>
			<path d="M982.03,296.71c-0.42,1.09,0.23,3.25-1.34,3.2c-2.19-0.07-1.62-2.39-1.77-3.87c-0.12-1.16,0.23-2.61,1.65-2.48
				C982.3,293.72,982.06,295.36,982.03,296.71z"/>
		</g>
	</g>
	<g>
		<g>
			<path class="st0" d="M1192.71,1024.3c6.56-0.72,12.32-0.45,17.9,1.75c7.99,3.15,16.01,2.05,24,0.28c1.81-0.4,4.27-1.2,3.71-3.87
				c-0.6-2.9-2.89-1.67-4.85-1.63c-13.95,0.29-28.04-0.21-41.8,1.15c-13.72,1.35-27.15-1.01-40.72-0.15
				c-8.39,0.53-16.93,1.11-25.22-1.85c-4.03-1.44-6.77-3.42-6.89-8c-0.09-3.47-1.86-4.5-5.27-3.99c-4.15,0.61-8.25,0.12-12.25-1.52
				c-1.95-0.8-4.2-0.99-6.34-1.14c-19.49-1.4-38.94-0.87-58.37,1.09c-6.35,0.64-12.64-0.45-18.96-0.66
				c-1.76-0.06-3.99-0.86-4.92,1.25c-0.86,1.94,1.65,2.09,2.44,3.21c2.07,2.93,0.17,3.93-2.3,4.27c-8.57,1.19-17.16,2.07-25.77,2.93
				c-10.77,1.07-21.64,0.1-32.34,2.2c-4.15,0.82-7.96,2.38-11.75,4.12c-3,1.38-5.09,3.79-5.07,6.89c0.03,6.16-3.94,8.07-8.74,9.06
				c-14.01,2.9-28.12,5.08-42.41,6.38c-7.56,0.69-15.22,1.35-22.61,3.47c-1.48,0.43-3.11,0.83-3.74,2.25
				c-4.08,9.24-13.16,10.87-21.23,13.03c-14.29,3.81-28.82,6.87-43.38,9.43c-9.98,1.76-19.97,3.52-29.92,5.44
				c-4.22,0.81-8.33,2.25-12.47,3.45c-2.05,0.6-2.09,2.1-1.92,3.97c0.83,9.21-1.24,12.13-10.1,14.94c-9.56,3.03-19.5,2.1-29.27,2.71
				c-13.19,0.82-26.15-1.54-39.11-3.7c-11.27-1.88-22.39-4.3-33.52-6.89c-5.34-1.24-11.24-0.85-16.75-2.03
				c-15.98-3.41-15.98-11.64-10.38-22.84c3.46-6.93,7.8-13.47,12.25-19.83c4.9-7,11.76-12.26,18.44-17.37
				c11.15-8.54,20.69-18.62,30.45-28.6c11.55-11.82,20.49-25.65,31.08-38.16c11.49-13.58,21.29-28.68,34.16-40.94
				c11.65-11.1,24.88-20.37,40.66-25.37c9.35-2.96,18.18-7.3,26.56-12.46c1.99-1.22,4.05-2.51,4.85-4.87
				c2.68-7.93,8.3-13.92,13.17-20.43c4.58-6.12,9.51-12.2,11.67-19.65c3.72-12.81,9.51-24.86,12.43-38.03
				c2.27-10.23,6.46-20.19,9.81-30.22c2.4-7.18,5.71-15.28,2.42-23.5c-0.18-0.46-0.39-0.95-0.42-1.44
				c-1.03-21.37-0.99-42.71,5.09-63.45c4.11-14.02,12.22-26.1,19.99-38.33c3.78-5.95,7.26-12.38,2.05-19.74
				c-1.16-1.64-0.97-4.56-0.72-6.82c0.71-6.32-1.83-12.14-2.37-18.25c-0.14-1.61-1.35-2.81-2.62-3.49
				c-5.23-2.79-5.32-7.34-4.96-12.43c1.03-14.31-0.7-28.45-2.17-42.69c-1.07-10.34-2.96-20.71-2.84-31.11
				c0.06-5.04-1.73-9.39-2.43-14.1c-0.5-3.33-0.8-6.55,0.89-9.61c1.93-0.01,1.89,1.4,2.07,2.44c2.93,16.06,5.05,32.19,5.86,48.53
				c0.62,12.45,2.19,24.85,3.52,37.25c0.5,4.68,6.02,9.02,12.32,10.16c4.59,0.83,9.2,1.52,13.78,2.36c1.41,0.26,3.37,0.51,2.9,2.58
				c-0.4,1.75-2.3,1.36-3.41,0.97c-7.39-2.59-15.75-0.52-22.79-4.79c-0.99-0.6-2.26-0.89-3.22,0.2c-1.07,1.22-0.63,2.57,0.08,3.71
				c1.81,2.91,4.82,3.94,7.94,4.73c10.17,2.56,20.45,4.73,30.25,8.61c0.46,0.18,1.05,0.11,1.44,0.37c1.84,1.21,5.48,1.99,4.44,4.39
				c-1.02,2.35-3.28-0.64-4.99-1.16c-8.75-2.65-17.39-5.75-26.52-6.95c-3.58-0.47-5.64,2.51-3.9,6.44c1.7,3.85,2.08,7.36,1.35,11.54
				c-0.77,4.41,3.03,5.81,6.67,6.48c8.1,1.49,15.83-0.32,23.61-2.45c9.61-2.63,19.52-2.27,30.21-2.74c-1.93,2.2-3.59,1.71-4.85,1.57
				c-6.07-0.67-10.36,3.91-15.8,5.13c-2.07,0.46-1.65,2.3,0.02,3.28c2.19,1.27,4.36,1.02,6.64-0.18c3.65-1.92,6.87-1.6,9.58,2.05
				c2.26,3.05,6.34,4.19,9.43,4.86c12.58,2.72,24.22,8.39,36.67,11.16c16.6,3.69,33.44,5.53,50.27,0.85
				c5.7-1.59,10.48-4.53,12.41-10.47c2.42-7.48,4.5-14.59,3.61-23.13c-1.06-10.25-2.58-19.97-6.61-29.41
				c-1.53-3.58-3.78-6.64-5.79-9.89c-6.41-10.37-10.42-21.87-15.34-32.94c-0.2-0.45-0.2-1.13-0.54-1.37
				c-6.67-4.93-4.45-11.83-4.23-18.35c0.17-4.97,0.3-10.05-4.04-13.74c-1.01-0.86-1.25-2.01-0.82-3.17
				c0.97-2.61,0.51-5.26,0.42-7.92c-0.07-2,0.32-4.21-2.26-4.95c-2.64-0.75-4.51,0.71-6,2.63c-4.49,5.77-8.79,11.69-12.56,17.97
				c-1.53,2.54-3.18,5-6.16,7.06c-0.08-3.94,1.23-6.91,3.09-9.6c3.32-4.78,6.77-9.47,10.31-14.09c1.21-1.58,2.3-3.04,0.87-4.86
				c-1.46-1.87-3.05-0.48-4.45,0.23c-2.25,1.13-4.09,0.71-6.53-0.12c-9.51-3.27-19.28-2.85-28.88-0.21
				c-2.52,0.69-4.11,0.97-6.74-0.54c-3.75-2.15-8.32-3.08-12.8-3.53c-1.3-0.13-3.09-0.19-2.85-1.98c0.23-1.78,1.93-1.54,3.23-1.14
				c4.62,1.43,9.52,1.46,14.15,3.05c3.82,1.31,7.92,1.54,11.49-1.1c3.59-2.66,8.06-1.25,11.99-2.91c5.99-2.52,12.37-4.12,18.58-6.11
				c0.19,0.48,0.38,0.95,0.56,1.43c-3.17,1.19-6.34,2.38-9.51,3.58c-1.62,0.61-4.11,0.52-3.8,3.07c0.25,2.05,2.51,1.84,4.02,2.33
				c3.28,1.06,6.61-0.34,9.94,0.21c4.75,0.78,9.58,0.69,14.37,1.43c5.05,0.78,10.12-0.52,15.23-1.47
				c10.87-2.02,21.99-2.17,33.05-2.61c4.71-0.19,8.73-3.27,14.34-0.32c3.61,1.9,9.8-0.1,14.5-1.5c9.38-2.79,19.38-2.75,28.47-6.83
				c4.35-1.95,6.56-4.84,4.16-8.22c-3.21-4.51-1.48-6.79,2.69-8.77c1.5,2.04-1.16,3.36-0.7,5.13c0.7,2.71,0.73,6.12,4,6.95
				c3.99,1.02,7.16-1.49,9.43-4.29c6.23-7.67,6.03-9.2-1.09-20c-1.28-1.94-2.61-3.97-4.34-5.46c-4.68-4.04-4.71-10.38-7.9-15.18
				c-1.69-2.54-3.19-4.91-5.86-6.57c-2.55-1.59-4.67-3.8-6.05-6.54c-1.46-2.9-3.34-4.65-6.96-4.52c-3.61,0.13-4.41-4.63-7.97-5.33
				c-0.84-0.17,0.45-1.57,1.43-1.69c2.62-0.3,5.29,0.02,7.88-0.89c1.07-0.38,1.92,0.48,2.15,1.57c1.59,7.43,7.55,11.57,12.65,16.14
				c8.26,7.4,12.26,17.54,18.11,26.48c3.21,4.91,4.61,10.25,4.17,16.09c-0.15,2.04-0.63,3.74-2.21,5.34
				c-6.93,7.03-14.95,11.97-24.77,13.73c-0.33,0.06-0.69,0.09-0.96,0.25c-10.86,6.5-23.59,4.86-35.21,8.06
				c-2.85,0.78-5.9,0.76-8.88-0.28c-1.35-0.47-3.04-0.7-4.4-0.35c-11.99,3.07-24.36,2.52-36.51,3.9c-3.59,0.41-7,1.94-10.77,1.43
				c-1.38-0.19-2.81,1.08-2.65,2.48c0.49,4.22-1.1,8.41,0.71,12.74c2.36,5.64,4.48,11.51,3.49,17.91c-0.36,2.36-0.08,4.66,1.85,6.46
				c0.46,0.43,1.07,1.19,0.97,1.67c-1.66,8.13,4.85,13.36,7.22,20.03c2.42,6.82,5.2,13.49,9.64,19.59c5.72,7.87,8.4,17.32,9.7,27.02
				c0.78,5.77,1.26,11.6,2.27,17.33c0.7,3.95,0.27,7.98-1.02,11.31c-2.23,5.75-1.36,12.18-5.36,17.64
				c-3.85,5.24-2.52,11.25,2.4,16.42c3.12,3.28,6.14,6.58,8.07,10.67c3.07,6.49,9.68,7.76,15.27,10.42
				c5.78,2.76,10.71,6.08,12.53,12.66c0.42,1.51,1.66,2.45,2.88,3.36c5.99,4.48,12.45,8.36,18.39,12.83
				c15.21,11.46,31.65,21.42,44.6,35.74c2.9,3.21,6.59,5.58,10.33,7.79c2.59,1.53,4.54,3.46,3.72,6.87
				c-0.48,1.96,0.47,3.53,1.38,5.15c3.33,5.92,3.12,11.94,2.26,18.69c-1.58,12.35-3.63,24.86-0.55,37.41
				c3.12,12.73,3.93,25.66,1.67,38.65c-1.92,11.03-1.26,22.24-2.6,33.32c-0.72,5.96-1.87,11.79-2.89,17.68
				c-1.73,9.98-2.85,20.14-2.24,30.27c1.08,17.93,13.41,27.91,27.14,36.64c3.92,2.49,7.97,4.7,11.49,7.86
				c4.19,3.75,9.49,5.58,14.94,6.47c6.73,1.1,11.77,4.19,14.84,10.39c0.8,1.62,2.01,3.06,3.17,4.46c4.97,5.98,4.16,11.54-3.1,14.56
				c-9.78,4.06-20.02,4.35-30.08,0.62c-4.15-1.54-8.49-1.58-12.72-2.39C1196.41,1025.97,1194.6,1026.7,1192.71,1024.3z
				 M1134.85,808.1c-6.7,0.76-11.69,5.12-17.2,8.32c-2.23,1.29-1.87,2.92-0.25,4.93c3.02,3.75,7.48,3.75,11.81,4.92
				c-2.9,0.89-5.4,1.73-7.95,2.41c-1.18,0.31-2.38,0.51-2.61,1.9c-0.26,1.64,1.12,2.03,2.17,2.88c3.43,2.8,9.37,1.63,11.13,7.06
				c0.1,0.32,1.31,0.6,1.82,0.41c6.72-2.47,15.25,1,20.55-6.28c0.44-0.61,2.1-1,2.76-0.66c2.28,1.19,6.07-3.78,7.15,1.76
				c2.31-0.75,5.53-0.85,6.68-2.44c1.22-1.69-1.14-3.75-3.08-4.88c-1.38-0.8-3.6-0.98-3.51-3.04c0.09-2.08,2.42-1.94,3.78-2.75
				c1.14-0.68,2.38-1.21,3.44-1.99c1.32-0.98,1.56-2.67,0.14-3.31c-4.04-1.81-3.96-3.6-0.72-6.21c0.75-0.61,1.13-2.17,1.03-3.24
				c-0.46-4.69,3.24-9.1,0.69-14c-0.69-1.32-0.05-3.36,1.13-4.68c3.92-4.41,2.39-8.98,0.48-13.55c-1.27-3.03-3.42-3.03-5.49-1.05
				c-1.54,1.47-2.63,3.41-3.9,5.16c-1.96,2.7-3.71,5.59-6.93,7.09c3.61-5.56,6.32-11.64,10.73-16.66c2.13-2.43,4.22-5.63,0.2-8.02
				c-10.31-6.12-16.68-16.75-26.83-23.01c-1.81-1.11-3.35-3.42-5.65-1.99c-2.23,1.39,1.12,3.21,0.23,4.93
				c-0.12,0.24-0.46,0.37-0.76,0.6c-4.55-8.63-10.86-15.85-18.35-21.85c-5.02-4.02-11.02-6.77-15.71-11.35
				c-1.04-1.02-2.75-1.57-4.13-0.43c-1.41,1.17-0.71,2.74-0.3,4.18c2.61,9.13,3.99,18.47,5,27.91c0.57,5.32-1.42,8.76-5.94,10.89
				c-4.21,1.98-6.74,5.44-9.79,8.76c-5.98,6.52-7.64,12.74-4.21,21.06c1.2,2.91,0.53,6.6,4.78,8.71c-4.75,0.75-7.17,3.77-10.32,5.57
				c0.56-3.07,3.04-5.64,2.29-9.06c-1.45-6.67-2.36-13.5-4.35-20.01c-5.45-17.8-11.33-35.46-16.14-53.45
				c-0.58-2.18-1.73-2.74-3.59-2.22c-1.93,0.54-1.69,1.99-1.41,3.62c1.66,9.62,3.68,19.16,4.83,28.9
				c1.17,9.92,0.96,20.36,6.83,29.27c0.81,1.23,1.12,2.63-0.55,3.34c-1.62,0.7-2.39-0.62-3.04-1.82
				c-3.58-6.61-4.07-13.96-5.33-21.17c-2.89-16.56-4.18-33.28-5.32-50.02c-0.06-0.93-0.41-2.13,0.87-2.56
				c0.93-0.31,1.4,0.61,2.05,1.08c6.9,5.02,9.62,12.75,11.5,20.29c3.3,13.27,8.01,26.1,11.29,39.35c0.32,1.28,0.57,2.75,2.21,3
				c1.68,0.26,2.84-0.75,3.77-1.99c2.69-3.59,3.25-8.54,2.9-12.05c-0.53-5.42-1.19-11.16-3.25-16.54
				c-2.42-6.33-4.38-12.87-6.01-19.45c-0.69-2.79-1.15-6.1,1.06-8.87c0.52,0.36,0.97,0.51,1.01,0.74
				c2.55,13.25,7.83,25.77,10.49,38.99c0.42,2.09,0.42,4.63,3.23,5.01c3,0.4,4.4-1.91,5.7-4.06c0.9-1.49,0.76-3.15,0.54-4.85
				c-1.55-12.34-5.62-24.28-5.72-36.86c-0.01-1.21-1.08-2.38-1.55-3.62c-3.22-8.53-11.09-11.02-18.46-13.94
				c-3.09-1.22-5.16,1.05-4.49,4c2.37,10.53,4.25,21.1,5.23,31.85c0.33,3.58,1.09,7.12,1.69,10.91c-2.18-0.4-2.32-1.47-2.35-2.44
				c-0.37-10.06-2.87-19.7-5.61-29.3c-0.6-2.12-1.46-5.18-3.54-4.94c-6.27,0.71-11.96-3.33-18.23-1.71c-1.15,0.3-3.05,1.1-3.48-0.57
				c-0.49-1.94,1.72-2.12,2.98-2.65c1.04-0.43,2.26-0.42,3.4-0.59c4.21-0.63,8.23,0.06,12.24,1.41c2.06,0.7,5.22,0.98,5.04-2.01
				c-0.34-5.62,0.61-11.67-4.41-16.31c-5.37-4.96-10.52-10.36-13-17.42c-1.19-3.38-2.8-4.05-5.89-3.3
				c-11.64,2.82-23.2,5.08-35.36,2.26c-8.55-1.99-17.43-2.45-25.54-6.38c-4.83-2.34-9.86-3.94-15.39-1.72
				c-1.76,0.7-4.19,1-5.89,0.36c-7.61-2.86-15.85-3.67-23.19-7.42c-7.41-3.78-15.29-6.44-23.15-9.13c-1.39-0.47-3.2-0.99-3.85,0.91
				c-0.53,1.56,1.02,2.24,2.2,2.87c16.99,9.04,34.8,15.66,53.8,19.17c4.36,0.81,9.08,0.7,13.08,2.93c6.3,3.51,13.18,3.98,20.1,5.17
				c6.01,1.03,14.15-1.96,17.74,6.56c0.4,0.94,2.64,1.11,4.02,1.65c1.45,0.56,3.42,0.2,4.2,2.54c-4.67,2.26-8.41,0.62-11.48-2.78
				c-3.29-3.65-6.8-5.33-12.05-5.45c-9-0.21-18.45,0.5-26.49-5.25c-1.01-0.72-2.52-0.84-3.83-1.03
				c-20.97-2.99-40.42-10.35-59.02-20.24c-2.01-1.07-4.35-4.71-6.11-1.88c-1.27,2.04,2.73,3.78,4.74,5.28
				c10.19,7.64,21.86,12.75,33.17,18.28c13.54,6.62,27.51,12.42,42.38,15.81c9.35,2.13,18.07,6.95,28.04,6.58
				c0.65-0.02,1.25,0.39,1.17,1.34c-1.33,1.44-3.02,0.65-4.61,0.64c-15.98-0.13-30.39-6.89-45.33-11.16
				c-14.72-4.21-28.12-12.01-41.55-19.31c-8.26-4.49-16.66-8.94-22.97-16.43c-3.48-4.12-4.31-3.66-6.76,1.41
				c-0.72,1.48-1.44,3.06-2.54,4.24c-3.15,3.4-1.32,4.41,2.09,5.06c2.77,0.53,5.57,1.08,8.22,2.01
				c12.82,4.49,24.32,11.47,35.56,18.96c6.63,4.41,13.37,8.67,20.59,12.1c10.75,5.11,22.7,6.43,33.72,10.69
				c1.3,0.5,2.96,0.02,4.45,0.13c9.74,0.69,19.07-2.22,28.6-3.31c3.32-0.38,5.56,0.19,5.46,4.23c-0.05,1.89,1.18,2.98,3.02,3.45
				c3.82,0.98,2.69,2.85,0.43,4.19c-4.08,2.43-5.38,5.89-5.36,10.46c0.04,6.2-2.15,11.92-4.93,17.44c1.32-9.81,2.99-19.54,4.8-29.24
				c0.47-2.52,1.25-5.07-1.07-6.94c-2.22-1.79-4.89-2.02-7.57-1.02c-13.15,4.92-26.34,6.52-39.78,1c-3.06-1.26-6.34-2.09-9.59-2.81
				c-12.58-2.8-23.6-9.02-34.19-15.94c-13.26-8.67-26.41-17.38-41.96-21.62c-6.1-1.66-8.31-0.91-11.8,4.09
				c-10.66,15.28-15.78,32.34-17.8,50.74c-0.76,6.93-0.12,13.95-1.73,20.79c-0.46,1.95-0.83,4.4,1.58,5.15
				c2.22,0.69,2.86-1.73,3.82-3.21c4.56-7,9.19-13.94,17.32-17.38c1.4-0.59,2.86-3.07,4.2-1.23c1.45,2-1.2,3.11-2.49,4.11
				c-6.64,5.15-12.11,11.37-17.02,18.12c-3.09,4.24-4.4,9.29-5.99,14.18c-0.53,1.64-0.14,3.37,1.63,4.32c1.46,0.79,2.51-0.12,3.55-1
				c6.11-5.16,12.78-9.79,18.22-15.57c10.55-11.21,22.45-20.72,34.68-29.89c1.6-1.2,3.18-2.82,6.23-2.37c-2.29,3.63-5.1,5.83-8,8.04
				c-7.15,5.43-13.96,11.28-21.36,16.41c-3.68,2.55-5.32,7.05-8.86,10.04c-7.11,6.02-13.87,12.39-21.64,17.66
				c-5.64,3.82-5.02,9.93,0.49,12.2c-3.39,4.23-8.13,8.01-9.93,12.87c-3.44,9.3-7.99,18.39-9.19,28.37
				c-0.76,6.26-2.69,12.03-5.38,17.57c-1.89,3.9-3.88,7.68-5.05,11.91c-1.87,6.74-4.12,13.31-8.81,18.8
				c-3.88,4.54-7.27,9.51-11.16,14.04c-7.17,8.37-3.79,14.38,4.53,18.84c10.66,5.72,21.71,10.83,32.92,15.38
				c6.37,2.59,12.93,5.01,20.15,5.33c20.61,0.91,41.2,2.19,60.72,10c5.5,2.2,7.47,1.02,10.33-4.3c4.05-7.52,6.17-15.79,9.34-23.64
				c9.14-22.6,16.52-45.85,24.39-68.91c4.83-14.15,9.2-28.47,13.47-42.81c3.74-12.58,5.62-25.82,12.8-37.17
				c3.25-5.13,5.11-10.76,7.1-16.39c0.33-0.94,0.03-2.49,2.37-2.49c-1.44,5.36-0.53,11.01-3.55,15.9
				c-6.87,11.15-11.2,23.23-14.04,35.99c-1.8,8.09-4.4,16.01-7.43,23.76c-1.5,3.84-4.62,8.51-3.55,11.59
				c2.14,6.15-1.38,9.27-4.01,13.22c-0.74,1.11-2.26,2.58-1.41,3.47c3.65,3.87-0.04,5.48-1.92,7.84c-0.9,1.13-1.4,2.65-1.82,4.07
				c-7.49,25.73-16.82,50.78-27.43,75.39c-2.03,4.7-4.47,7.78-9.6,8.98c-4.65,1.09-9.09,3.5-12.99-1.61
				c-0.78-1.01-2.66-1.29-4.1-1.67c-15.34-4.02-30.97-6.14-46.78-7.16c-3.52-0.23-5.95,0.51-8.37,3.08
				c-3.97,4.21-6.53,10.01-12.02,12.49c-6.73,3.04-12.68,7.21-18.83,11.16c-17.13,11.03-35.25,20.41-51.76,32.5
				c-17.01,12.45-34.74,23.91-52.03,35.97c-12.23,8.53-25.6,15.38-36.06,26.56c-7.76,8.29-7.43,11.57,0.35,19.84
				c4.52,4.79,9.72,7.74,16.68,8.97c9.03,1.59,16.59,7.53,24.3,12.38c3.87,2.44,6.76,4.7,10.34,0.08c0.42-0.54,1.52-0.58,2.31-0.82
				c9.25-2.75,18.75-4.12,28.29-5.47c8.89-1.26,17.89-1.85,26.62-4.24c6.39-1.75,12.82-3.61,19.35-4.53
				c7.35-1.04,14.1-3.76,20.98-6.14c1.9-0.66,3.67-2.02,2.46-4.57c-1.51-3.18,0.58-4.5,2.96-5c7.14-1.5,14.13-3.87,21.47-4.37
				c17.14-1.17,34.03-3.8,50.67-8.1c3.03-0.78,4.96-2.35,4.91-5.36c-0.08-4.34,2.49-6.55,5.64-8.71c4.66-3.19,9.77-4.89,15.33-5.57
				c16.37-2.01,32.96-0.82,49.29-3.4c1.58-0.25,3.82,0.56,4.46-1.31c0.68-2.02-1.62-2.57-2.92-3.47c-1.07-0.74-2.75-1.17-2.27-2.83
				c0.45-1.57,2.16-1.41,3.43-1.41c7.14,0,14.25-1.44,21.43-0.24c4.78,0.8,9.61,0.07,14.42-0.07c11.98-0.36,23.77-2.73,35.84-2.3
				c13.01,0.47,25.71,3.38,38.66,4.18c2.12,0.13,4.09,0.62,5.08-1.76c2.86-6.91,5.79-13.9,6.96-21.26c1.18-7.34,2.44-14.71,3.78-22
				c3.55-19.45,0.95-38.19-5.52-56.42c-6.59-18.56-11.65-37.39-14.56-56.89c-1.16-7.76,0.58-15.17,0.54-22.75
				c-0.03-5.32-2.18-6.91-7.17-5.74c-8.7,2.03-17.66,2.62-26.32,5.12c-5.95,1.72-12.01,2.69-16.6,7.33
				c-2.94,2.97-5.96,2.62-8.7-0.27c-1.6-1.68-2.85-3.68-4.43-5.38c-3.58-3.86-5.61-9.4-10.94-11.33c-5.01-1.82-10.04-3.47-14.7-6.11
				c-1.76-1-3.37-0.39-5.1,0.69c-6.53,4.06-11.51,9.88-17.25,14.83c-3.42,2.95-6.85,5.88-10.27,8.83
				c6.01-7.28,12.78-13.74,18.93-20.74c2.33-2.65,8-2.67,7.39-6.17c-0.56-3.24-6.01-2.07-9-3.94c-4.22-2.65-4.86-4.95-1.25-9.82
				c1.02,4.67,3.93,7.46,8.09,8.68c3.47,1.01,6.9-0.5,10.3-1.07c6.18-1.04,12.32-0.92,18.34,0.55c3.05,0.74,6.63,2.01,3.48,6.49
				c-0.99,1.41-0.09,2.12,1.15,2.58c1.71,0.64,3.51,1.1,4.47,2.92c1.52,2.86,3.78,2.45,5.89,0.98c2.04-1.42,3.81-3.21,5.7-4.83
				c4.4-3.75,8.13-8.34,13.45-10.97c-0.21,0.63-0.26,1.39-0.66,1.86c-5.68,6.78-12.91,11.89-19.31,17.91
				c-0.61,0.58-1.85,0.64-2.81,0.67c-1.54,0.05-3.44-1.77-4.55,0.14c-1.2,2.05,1.25,3.11,2.12,4.59c0.5,0.86,1.14,1.66,1.51,2.58
				c1.63,4.14,4.08,4.38,7.24,1.64c4.51-3.91,9.76-6.46,15.63-7.16c8.05-0.96,15.82-3.3,23.95-4.19c6.55-0.72,13.71-0.77,19.79-4.27
				c11.38-6.56,23.99-10.88,34.5-18.99c-0.54,6.8-1.63,8.08-8.47,9.82c-4.67,1.19-8.47,3.64-11.26,7.6L1134.85,808.1z
				 M806.37,896.61c-2.88-2.68-5.84-6.65-7.95,0.39c-0.25,0.85-1.52,0.52-2.15,0.9c-2.81,1.68-7.15,0.94-8.31,5.31
				c-0.3,1.12-1.29,0.48-2,0.04c-3.64-2.26-7.43-0.31-9.92,1.37c-1.78,1.2,1.9,3.9,2.8,6.1c0.19,0.45,0.65,0.81,0.78,1.26
				c0.17,0.6,0.39,1.42,0.12,1.86c-0.55,0.89-1.41,0.54-2.13,0.01c-1.14-0.84-2.31-2.56-3.77-0.98c-1.22,1.32,0.03,2.87,0.76,4.09
				c2.82,4.7,6.02,9.18,8.58,14.01c5.05,9.49,12.36,17.06,19.9,24.48c1.68,1.65,3.78,2.19,5.39,0.85c3.29-2.74,7.48-3.43,10.99-5.45
				c11.31-6.5,21.66-14.48,32.36-21.91c1.73-1.2,1.04-2.46-0.68-2.67c-3.66-0.44-5.16-3.17-7.05-5.73
				c-2.87-3.89-4.73-8.77-10.11-10.52c1.6-1.18,5.15,0.25,4.48-2.04c-0.73-2.49-0.69-5.68-3.82-7.52
				c-5.76-3.39-11.9-2.15-17.93-2.42c-1.91-0.08-3.89,0.09-4.27-2.32c-0.29-1.83,0.04-3.53-2.77-3.69
				C806.08,891.82,808.08,895.01,806.37,896.61z M712.82,1094.43c-0.26-2.41-3.66-6.18,2.4-4.62c0.88,0.23,1.5-0.55,1.51-1.54
				c0.02-2.47,1.31-2.42,2.88-1.34c1.62,1.11,2.58,0.04,3.96-0.62c3.1-1.47,4.67-4.66,7.68-6.21c1.84-0.94,1.13-2.44,0.07-3.74
				c-1.87-2.29-4.59-2.5-7.18-2.98c-1.25-0.23-1.59,0.6-1.81,1.76c-1.1,5.74-1.65,5.93-6.67,3.48c-1.4-0.68-3.96-3-4.54-0.75
				c-1.4,5.37-2.91,1.11-4.25,0.39c-1.16-0.62-2.1-1.62-3.2-2.36c-1.05-0.71-2.26-2.13-3.47-0.89c-1.41,1.46-0.09,2.68,1.1,3.68
				c0.52,0.43,0.99,0.9,0.65,2c-4.22,1.18-5.79-4.4-9.82-4.13c0.11,2.64,2.36,3.78,3.73,5.49c0.53,0.66,0.93,1.5,0.33,2.26
				c-0.71,0.9-1.52,0.21-2.19-0.18c-1.15-0.66-2.2-1.52-3.38-2.1c-2.36-1.15-3.9-4.21-8.18-3.13c5.13,5.21,8.53,10.98,12.82,16.08
				c0.97,1.16,2.6,2.52,4.31,0.94c1.25-1.14,3.31-1.89,2.61-4.33c-0.31-1.09-2.16-1.93-0.46-3.64
				C705.18,1090.26,708.16,1093.56,712.82,1094.43z M1208.25,1003.8c-3.53,0.79-4.24-1.85-5.88-2.96c-1.64-1.11-3.53-2.37-5.17,0.04
				c-1.1,1.61-4.24,2.79-2.17,5.29c2.77,3.33,5.89,5.51,11.05,5.14c7.48-0.53,15.26-1.17,22.53,1.5c3.81,1.4,4.35-1.01,5.26-3.26
				c1.17-2.91-0.26-4.46-3.09-4.88c-6.35-0.94-11.5-6.11-18.42-5.15c-0.75,0.1-1.69-0.94-2.5-1.51c-1.33-0.93-2.74-2.59-4.32-1.01
				c-1.49,1.5-0.02,3.06,0.86,4.43C1206.82,1002.08,1207.37,1002.68,1208.25,1003.8z M676.84,1092.19
				c-0.41,0.36-0.82,0.73-1.23,1.09c-1.54-1.09-3.1-2.16-4.63-3.27c-0.71-0.51-1.45-0.95-2.23-0.32c-0.9,0.73-0.09,1.41,0.15,2.17
				c1.75,5.45,6.16,6.5,10.96,6.26c3.04-0.16,5.59-2.68,6.66-4.97c0.82-1.76-2.04-4.81-4.14-4.71c-5.7,0.28-8.05-3.66-10.96-7.19
				c-1.2-1.46-2.58-2.78-4.6-3.16C667.32,1084.83,673.29,1087.73,676.84,1092.19z M1150.2,1018.44c-1.16-1.68-3.19-1.57-4.77-2.26
				c-5-2.17-10.75-2.23-15.39-5.46c-1.91-1.33-4.11-2.14-5.72,0.13c-1.51,2.14-0.28,4.07,1.44,5.67c1.38,1.28,2.92,2.15,4.85,2.28
				c4.8,0.34,9.6,0.79,14.41,1.02C1146.72,1019.89,1148.71,1020.48,1150.2,1018.44z M1167.21,872.55c-2.35-1.38-4.26-0.21-5.63,1.03
				c-2.66,2.41-5.65,3.12-9.1,3.31c-5.81,0.32-11.61,0.99-17.41,1.6c-1.24,0.13-3.06,0.1-3.1,1.84c-0.04,1.87,1.74,1.68,3.01,1.7
				c8.47,0.12,16.94,1.45,24.73-4.15C1162.15,876.15,1165.75,876.02,1167.21,872.55z M729.88,1099.87
				c5.24-0.33,10.12-1.82,14.67-4.23c1.38-0.73,2.86-2.19,2.1-4.05c-0.66-1.62-2.42-0.89-3.53-0.57c-5.7,1.64-11.35,3.47-17.01,5.26
				c-0.77,0.24-1.62,0.62-1.44,1.68c0.16,0.97,1.04,1.25,1.83,1.42C727.61,1099.64,728.77,1099.72,729.88,1099.87z M730.58,986.49
				c3.05,6.88,8.45,9.87,14.27,12.33c0.93,0.39,2.02,0.41,2.73-0.51c0.68-0.88,0.67-2.05-0.05-2.76
				C742.98,991.11,738.86,985.82,730.58,986.49z M1148.42,902.97c5.81,0.83,10.77-0.59,15.71-2.04c1.71-0.5,3.29-1.39,2.38-3.51
				c-0.76-1.77-2.72-1.79-3.83-0.86c-4.07,3.43-9.09,2.39-13.67,3.42c-2.49,0.56-7.03-1.55-7.04,2.05
				C1141.97,904.57,1146.65,901.73,1148.42,902.97z M1037.97,807.91c2.42-0.1,4.59-0.92,4.89-3.39c0.37-2.96-2.13-3.33-4.33-3.49
				c-2.8-0.2-5.61-0.28-8.42-0.35c-1.17-0.03-2.46,0.07-2.98,1.32c-0.62,1.47,0.72,2.05,1.63,2.64
				C1031.58,806.47,1034.74,807.41,1037.97,807.91z M851.05,911.53c1.09,0.66,2.16,1.43,3.33,1.98c2.67,1.27,4.52,3.93,7.51,4.57
				c1.26,0.27,2.89,0.4,3.43-1.18c0.59-1.74-0.91-2.14-2.19-2.64c-3.86-1.51-7.63-3.19-10.94-5.76c-1.34-1.04-3.08-1.55-3.64,0.39
				c-0.58,2.02-4.01,3.47-2.34,5.39c1.73,2,2.4-0.91,3.36-2.03C849.87,911.94,850.42,911.84,851.05,911.53z M707.48,994.38
				c3.15,5.32,8.73,6.99,11.78,11.29c0.65,0.92,2.57,0.83,3.48-0.5c0.79-1.15,0.33-2.32-0.76-2.99
				C717.59,999.46,714.2,994.96,707.48,994.38z M1151.93,886.94c5.3,2.23,9.25-0.81,13.33-2.94c1.05-0.55,3.04-1.67,1.72-3.45
				c-1.08-1.45-3.06-0.79-4.1,0.02C1159.53,883.2,1155.82,885.09,1151.93,886.94z M1148.4,920.21c0.82,0.06,1.32,0.17,1.8,0.12
				c2.02-0.2,5.03,0.37,4.91-2.59c-0.11-2.62-2.92-2.6-5.1-2.57c-0.49,0.01-1.01,0.03-1.46,0.2c-2.16,0.82-6.22-0.47-6.2,2.44
				C1142.38,921.57,1146.57,919.26,1148.4,920.21z M698.1,994.87c-1.98,0.5-2.52,1.56-1.26,2.87c2.97,3.06,6.05,6.03,10.12,7.67
				c0.76,0.31,1.68,0.69,2.27-0.11c0.76-1.02,0.03-1.9-0.72-2.53c-2.92-2.41-5.88-4.76-8.86-7.1
				C699.16,995.29,698.53,995.08,698.1,994.87z M1132.12,870.68c-0.02,0.6-0.03,1.2-0.05,1.8c5.28,0.26,10.57,0.53,15.85,0.75
				c0.68,0.03,1.36-0.41,1.38-1.15c0.04-1.27-1-1.61-1.97-1.81C1142.17,869.21,1137.19,870.56,1132.12,870.68z M753.6,966.79
				c2.56,4.4,6.26,7.64,10.3,10.54c0.87,0.62,1.96,0.73,2.64-0.22c0.74-1.03-0.1-1.81-0.81-2.51
				C762.23,971.16,758.05,968.81,753.6,966.79z M1178.11,1006.48c2.69,4.73,5.72,7.91,9.29,10.62c0.84,0.64,1.89,0.93,2.63-0.09
				c0.57-0.78,0.12-1.64-0.51-2.22C1186.3,1011.83,1184.09,1007.56,1178.11,1006.48z M1163.69,952.96c-2.71,2.42-3.4,5.54-4.58,8.42
				c-0.44,1.08-1.18,2.21,0.18,3.07c0.96,0.62,1.91-0.03,2.8-0.48c2.22-1.13,3.36-2.94,2.48-5.31
				C1163.86,956.79,1163.59,954.97,1163.69,952.96z M630.85,1062.04c0.08,5.48,3.08,8.47,5.23,11.83c0.51,0.8,1.43,1.52,2.52,1.13
				c0.98-0.34,1.08-1.4,0.59-2.05C636.59,1069.56,635.36,1065.06,630.85,1062.04z M1142.72,909.31c3.63,1.98,7.52,1.67,11.35,1.61
				c0.5-0.01,1.26-0.61,1.43-1.09c0.29-0.86-0.3-1.78-1.12-1.89C1150.41,907.44,1146.44,907.16,1142.72,909.31z M1168.96,864.64
				c-0.88-1.88-2.37-2.2-3.79-1.82c-2.29,0.61-5.21,1.02-5.35,4.07c-0.08,1.82,2.06,2.03,3.44,1.78
				C1165.73,868.24,1167.46,866.57,1168.96,864.64z M788.97,963.36c-3.54-3.45-5.66-8.57-12.22-10.7
				C779.82,958.89,784.72,960.74,788.97,963.36z M950.35,640.29c-1-1.7-3.07-1.62-4.6-2.49c-1.68-0.95-3.18-2.56-5.38-1.93
				c-0.68,0.2-0.77,1.04-0.54,1.7c0.9,2.68,3.24,2.98,5.56,3.35c1.14,0.18,2.24,0.55,3.38,0.74
				C949.68,641.81,950.38,641.51,950.35,640.29z M1157.78,971.04c1.28-0.11,3.18,0.65,3.27-1.23c0.08-1.76-1.77-1.84-3.03-1.46
				c-2.65,0.79-5.19,0.73-7.83-0.04c-1.24-0.36-3.14-0.55-3.29,1.13c-0.17,1.9,1.82,1.57,3.02,1.46
				C1152.56,970.64,1155.2,970.29,1157.78,971.04z M1192.48,1006.6c-0.51,4.06-1.4,6.69,1.16,8.71c0.77,0.61,1.4,2.3,2.78,1.04
				c0.95-0.87,0.9-2.07,0.19-3.19C1195.49,1011.39,1194.38,1009.61,1192.48,1006.6z M692,1067.51c-2.27-0.86-4.54-1.75-6.82-2.58
				c-0.79-0.29-1.71-0.44-2.21,0.44c-0.48,0.85,0.04,1.67,0.61,2.25C686.03,1070.11,688.84,1069.81,692,1067.51z M1150.33,924.96
				c-1.85,0.02-4.26-0.93-4.56,1.68c-0.18,1.59,1.9,1.75,3.15,1.46c2.14-0.49,5.8,0.98,6.13-1.57
				C1155.37,924.05,1151.88,925.62,1150.33,924.96z M747.72,988.81c1.22-0.09,1.92-0.6,1.54-1.57c-0.95-2.41-2.81-3.97-5.25-4.75
				c-0.93-0.3-1.85,0.39-1.58,1.24C743.29,986.4,745.52,987.76,747.72,988.81z M1150.78,932.82c1.8,1.63,3.66,1.5,5.38,1.67
				c1.4,0.13,3.39,0.3,3.32-1.8c-0.06-1.66-1.86-1.58-3.13-1.5C1154.56,931.31,1152.76,931.53,1150.78,932.82z M1163.83,850.6
				c-1.7,0.19-3.22,0.89-3.42,2.86c-0.13,1.39,0.98,2.1,2.27,2.11c1.85,0.01,3.28-0.81,3.44-2.84
				C1166.24,851.31,1165.3,850.66,1163.83,850.6z M760.2,962.78c1.87,3.74,4.97,5.99,8.72,7.47
				C766.69,966.99,764.56,963.63,760.2,962.78z M730.17,994.8c-0.51-1.79-1.22-3.54-3.41-3.61c-1.27-0.04-1.63,1.14-1.17,2.13
				c0.71,1.52,0.26,4.01,2.56,4.29C729.76,997.8,730.12,996.22,730.17,994.8z M619.11,1087.19c1.15-0.09,2.7,0.15,2.39-1.64
				c-0.29-1.7-1.87-2.23-3.36-2.53c-1.27-0.25-2.58,0.11-2.6,1.56C615.51,1086.9,617.57,1086.82,619.11,1087.19z M1152.31,990.73
				c-0.49-1.49-1.78-2.07-3.25-2.31c-1.23-0.2-2.42,0.05-2.48,1.58c-0.06,1.52,0.87,2.5,2.39,2.52
				C1150.23,992.54,1151.6,992.43,1152.31,990.73z M1160.38,995.75c-1.71-0.87-2.06-3.69-4.66-4.2c-0.66-0.13-1.45,0.65-1.18,1.23
				c1,2.12,2.77,3.63,4.78,4.74C1159.93,997.86,1160.42,997.09,1160.38,995.75z M775.44,960.47c-0.7-2.73-1.97-4.55-4.68-4.98
				c-0.38-0.06-1.36,0.88-1.29,1.12c0.62,2.09,2.82,2.55,4.26,3.82C773.99,960.66,774.62,960.47,775.44,960.47z M1182.2,996.28
				c-0.47-1.68-1.85-1.76-3.18-1.73c-1.36,0.03-3.01,0.27-2.63,2.09c0.32,1.56,1.98,1.56,3.32,1.44
				C1180.84,997.99,1182.1,997.9,1182.2,996.28z M701.91,1008.71c-0.76-1.9-2.54-2.61-4.48-2.97c-0.77-0.14-1.27,0.57-1.09,1.23
				c0.58,2.14,2.45,2.92,4.29,3.48C701.47,1010.7,702.01,1009.86,701.91,1008.71z M1153.17,893.76c2.37,0.45,4.75,0.87,6.87-0.65
				c0.16-0.11,0.01-1.11-0.22-1.21C1157.25,890.74,1155.17,891.98,1153.17,893.76z"/>
			<path class="st0" d="M1094.89,457.58c-0.51-2.51-0.69-3.46-0.9-4.41c-0.23-1.02-0.64-1.96-1.85-2.03
				c-1.46-0.08-1.98,0.99-2.36,2.15c-0.1,0.31-0.13,0.65-0.19,0.98c-0.45,2.16-1.11,5.03-3.45,4.81c-3.03-0.29-1.7-3.42-1.74-5.37
				c-0.1-4.88-1.12-9.59-2.3-14.27c-0.85-3.37-3.54-4.66-6.65-5.24c-2.62-0.48-5.25-0.91-7.89-1.24
				c-5.44-0.68-10.63-1.78-15.67-4.33c-4.53-2.3-10.11,0.5-12.6,5.14c-1.3,2.44-2.74,4.8-4.76,8.33c-0.2-3.65,0.7-5.61,1.78-7.38
				c1.78-2.91,3.31-5.74-0.4-8.19c-3.62-2.39-8.88-1.31-10.81,2.56c-2.17,4.37-6,6.55-9.83,8.88c-1.46,0.89-3.04,1.18-4.85,0.75
				c0.49-2.51,2.57-2.48,4.13-3.18c4.18-1.89,5.58-5.31,3.71-9.18c-6.7-13.89-19.44-19.5-32.9-24.43
				c-7.79-2.85-16.07-2.31-23.9-4.51c-1.95-0.55-3.53,0.45-5.25,1.07c-3.79,1.38-7.65,2.51-11.66,0.78
				c-1.04-0.45-2.47-1.01-1.82-2.44c0.48-1.06,1.84-0.67,2.69-0.22c3.29,1.73,6.43,0.85,9.64-0.24c1.37-0.47,3.28-0.17,3.32-2.23
				c0.03-1.76-1.58-2.81-2.95-2.97c-4.64-0.55-8.86-2.8-13.59-3.03c-3.81-0.18-7.6-0.83-11.39-1.33c-0.97-0.13-1.89-0.49-2.54-1.96
				c3.96-0.91,7.72-0.06,11.29,0.38c9.71,1.2,19.01,3.99,27.58,8.9c1.88,1.07,4.18,2.52,5.83,0.27c1.9-2.59-0.54-4.12-2.29-5.69
				c-2.91-2.63-6.7-3.65-10.03-5.5c-3.94-2.19-7.04-7.29-6.37-11.59c0.18-1.17,0.43-2.6,1.87-2.51c1.62,0.1,1.48,1.71,1.26,2.75
				c-0.6,2.85-0.18,5.23,2.15,7.19c1.02,0.86,1.84,2.17,3.37,1.32c1.47-0.83,1.09-2.28,0.77-3.58c-0.51-2.03-2.47-4.1,0.01-6.08
				c0.44,0.18,0.62,0.21,0.74,0.32c1.51,1.29-0.4,5.52,3.71,4.5c2.68-0.67,4.87-6.18,3.41-8.73c-2.62-4.56-4.02-9.75-8.2-13.52
				c-2.94-2.65-4.76-6.3-4.85-10.62c-0.07-3.43-2.98-4.05-5.63-4.64c-2.84-0.63-3.79,1.42-4.66,3.48c-3.5,8.3-7.21,16.4-13.73,22.97
				c-3.31,3.33-2.31,5.74,2.33,6.16c3.5,0.32,6.83,2.72,10.63,0.6c1.45-0.81,2.91,0.61,2.95,2.4c0.04,1.92-1.35,2.52-3.04,2.47
				c-4.82-0.12-9.68,0.07-14.39-1.24c-3.01-0.84-5.24,0.15-7.83,1.82c-8.29,5.33-14.72,12.82-22.02,19.21
				c-6.84,5.98-12.32,13.83-15.77,22.75c-2.15,5.55-4.86,10.89-7.14,16.41c-1.19,2.87-2.04,5.47-1.81,8.56
				c0.28,3.74-0.86,7.32-2.35,10.64c-2.87,6.39-2.63,13.74-6.43,19.84c-0.71,1.14-0.42,2.91-0.76,4.38
				c-0.47-8.49,0.3-16.84,3.17-24.92c0.9-2.52,2.19-5.01,1.95-7.69c-1.14-12.47,5.19-22.45,10.86-32.57
				c6.76-12.07,16.71-21.42,26.91-30.55c11.57-10.36,21.58-22.11,29.83-35.29c5.62-8.99,5.24-18.59,2.22-28.25
				c-1.29-4.11-1.74-8.41-0.84-12.31c1.67-7.23,0.91-14.5,1.63-21.7c1.18-11.89,7.1-21.33,15.12-30.03
				c9.81-10.65,22.75-15.23,35.86-18.09c10.65-2.32,22.02-1.63,32.65,3.44c6.74,3.22,13.36,5.89,18.99,11.35
				c7.09,6.87,9.48,15.42,11.79,24.21c1.71,6.54,1.64,13.42,3.68,19.96c1.36,4.36,0.38,8.38-1.84,12.81
				c-2.35,4.68-2.94,10.53-3.16,15.91c-0.32,7.86-1.09,15.58-3.09,23.18c-1.57,5.93-4.98,10.97-8.65,15.61
				c-3.98,5.02-6.97,10.52-10.09,16.01c-2.41,4.24-4.78,7.88-11.01,7.59c-4.42-0.2-9.05,1.84-13.41,3.37
				c-3.03,1.06-3.96,4.14-5.15,6.98c-1.98,4.71-1.68,4.21,1.74,8.39c11.3,13.79,26.71,17.93,43.38,19.23
				c4.25,0.33,8.14,1.81,12.08,2.95c5.24,1.51,10.5,1.65,15.8,1.96c2.96,0.17,6.4,0.48,6.87-3.82c0.39-3.59-3.31-7.89-6.97-7.66
				c-4.8,0.3-8.71-1.83-12.82-3.59c-2.71-1.16-4.58-3.36-4.31-6.17c0.43-4.57-1.29-8.9-0.97-13.39c0.24-3.42-1.65-5.99-3.25-8.72
				c-3.53-6.05-3.06-10.18,1.43-14.99c1.09-1.16,2.24-1.98,3.89-1.85c0.83,0.06,1.78,0.06,2.14,0.93c0.45,1.06-0.54,1.42-1.22,1.84
				c-1.27,0.78-2.72,1.35-3.81,2.32c-1.63,1.45-2.37,3.19-0.59,5.2c0.75,0.85,1.26,1.92,1.84,2.92c3.89,6.71,3.52,14.1,3.43,21.45
				c-0.06,4.79,1.98,6.15,6.51,4.24c2.34-0.99,4.59-1.62,5.69,1.53c1.42,4.06,4.24,5.13,7.18,2.14c1.61-1.63,3.13-2.21,5.22-2.14
				c2.93,0.1,6.81-0.59,2.67,4.13c-1.41,1.61-0.57,2.85,1.23,3.31c2.76,0.71,2.98,2.13,1.7,4.39c-0.73,1.29-1.2,2.73-1.72,4.13
				c-0.83,2.27,0.08,3.69,2.4,3.81c5.59,0.29,11.22,0.83,16.77,0.43c5.01-0.36,8.49,2.13,11.27,5.26c2.41,2.72-0.74,4.07-2.93,4.46
				c-2.83,0.5-5.82-0.19-8.19-1.67c-5.74-3.56-12.24-2.51-18.38-3.6c-1.1-0.19-2.55-0.39-3.06,0.96c-0.62,1.65,0.79,2.6,1.96,2.98
				c3.69,1.19,4.49,3.42,3.26,6.93c-0.42,1.18-0.41,3,1.32,3.25c1.44,0.21,1.65-1.36,1.87-2.49c0.78-4.06,3.53-4.12,6.42-2.82
				c3.41,1.53,8.1,1.81,8.28,7.18c0.04,1.14,0.57,2.49-0.7,3.14c-1.18,0.6-1.73-0.56-2.23-1.4c-0.55-0.92-1.8-2-2.31-1.5
				C1104.95,454.79,1098.1,450.16,1094.89,457.58z M952.92,301.02c0.5-0.84,0.86-1.81,1.52-2.5c0.99-1.05,1.87-2.02,0.64-3.37
				c-1.07-1.18-2.5-1.09-3.63-0.31c-2.01,1.39-5.05,3.13-4.38,5.44c0.86,2.96,3.87,0.93,5.99,0.6c-0.96,1.55-0.86,3.52-2.19,4.97
				c-4.24,4.63-4.68,8.01-1.85,13.69c0.99,2,1.35,4.06,1.39,6.27c0.15,7.84,3.58,11.38,11.26,11.12c3.28-0.11,4.66,1.3,5.01,4.15
				c0.68,5.47,2.72,10.59,4.94,15.46c1.63,3.58,3.96,7.23,7.57,9.59c4.34,2.83,9.67,5.1,12.77,8.7c5.81,6.74,13.32,7.87,20.88,9.73
				c1.94,0.48,3.81-0.19,4.68-2.04c1.08-2.3,2.61-3.59,5.13-4.2c1.68-0.41,2.66-2.14,2.62-3.89c-0.04-1.78-1.68-2.36-3.14-2.76
				c-1.28-0.34-2.61-0.48-3.93-0.67c-1.43-0.21-3.25,0.17-3.51-1.93c-0.17-1.44-0.56-3.14,0.89-4.16c1.51-1.06,2.91-0.08,4.09,0.83
				c3.42,2.64,7.54,2.4,11.46,2.84c1.86,0.21,3.94-0.21,4.26-2.5c0.32-2.28-1.67-3.07-3.38-3.71c-2.18-0.81-4.42-1.46-6.65-2.14
				c-8.71-2.65-16.73-2.71-22.4,6.03c-1.69,2.6-4.12,2.48-6.62,1.48c-0.5-0.2-0.98-0.93-1.08-1.49c-0.15-0.82,0.51-1.22,1.26-0.94
				c3.06,1.12,3.38-1.37,4.62-3.12c2.79-3.93,5.12-9.11,11.67-6.45c0.55,0.22,1.41,0.14,1.94-0.14c5.25-2.79,9.87-1.55,15.07,0.93
				c6.27,2.99,10.26,0.23,10.54-5.99c0-0.1,0.55-0.17,0.88-0.27c1.54,1.41-0.42,4.92,2.7,5.17c3.08,0.25,3.15-2.85,4.34-4.73
				c3.11-4.94,2.25-10.65,3.28-15.98c0.35-1.84,1.52-4.44-1.01-5.25c-2.65-0.85-4.7,1.28-5.02,3.67c-0.63,4.65-3.91,8.03-5.17,12.31
				c-0.35,1.18-0.86,2.23-2.4,1.97c-2.69-0.45-6.57,3.37-7.9-2.22c-0.11-0.45-1.45-0.63-2.23-0.88c-1.74-0.54-4.87,0.11-4.27-2.82
				c0.63-3.12,3.68-1.97,5.9-1.82c0.64,0.04,1.27,0.39,1.9,0.6c5.78,1.97,7.89,0.74,8.94-5.35c1.05-6.09-0.41-12.18-0.16-18.32
				c0.16-4.05,2.64-7.15,2.54-10.99c-0.04-1.55,0.03-1.57,8.53-1.18c1.31,0.06,2.62,0.4,3.91,0.69c1.39,0.32,2.04-0.12,2.57-1.51
				c1.73-4.58-0.17-10.14-4.47-12.67c-0.69-0.41-1.53-0.92-1.82-1.59c-1.22-2.79-2.81-3.67-5.87-2.35c-2.33,1-3.9-0.76-2.79-2.81
				c1.63-3.02,1.25-6.13,1.68-9.22c0.18-1.31,0.24-2.8,1.78-3.3c1.57-0.5,2.32,0.82,3.32,1.68c1.14,0.99,1.18,3.93,3.3,2.9
				c2.17-1.05,1.11-3.56,0.83-5.46c-0.19-1.3-0.65-2.59-1.18-3.8c-4.5-10.22-11.99-17.07-22.31-21.55
				c-23.4-10.16-44.96-5.44-64.82,8.35c-8.28,5.75-13.49,14.58-11.94,25.84c0.32,2.31,0.76,4.9-0.7,7.29
				c-0.94,1.54,0.24,3.72,1.48,3.6c4.58-0.43,6.24,4.14,9.78,5.14c3.92,1.1,3.08,5.14,4.95,7.51c0.94,1.19-1.09,1.85-2.18,1.36
				c-6.55-2.94-4.61,1.35-3.96,4.56c0.83,4.16,4.2,7.65,3.23,12.6c-1.87-2.42-2.94-4.99-4.22-7.46c-1.12-2.16-2.83-3.08-4.27-0.06
				c-0.59,1.24-0.48,3.57-2.64,2.63c-1.87-0.81-1.24-2.93-0.77-4.46c0.32-1.04,1.27-1.88,1.93-2.82
				C959.18,305.07,958.25,302.5,952.92,301.02z M995.52,394.61c2.83-4.12-3.13-5.12-2.73-8.49c0.27-2.29-1.33-3.34-3.38-4.28
				c-3.86-1.78-7.99-3.4-9.3-8.25c-0.53-1.95-2.19-3.03-4.24-2.75c-3.41,0.47-3.31,4.24-5.32,6.14c-1.03,0.98-0.31,2.86,0.67,4.13
				c0.2,0.25,0.62,0.63,0.76,0.57c3.05-1.34,2.59,1.6,3.69,2.8c1.66,1.81,2.84,3.57,2.7,6.14c-0.07,1.24,0.96,2.81,2.09,1.89
				c5.4-4.44,6.93,1.75,9.77,3.61c1.43,0.93,2.37,3.01,4.37,2.6C997.23,398.15,994.72,395.76,995.52,394.61z M1044.72,316.43
				c-0.57,3.61,0.17,5.47,2.32,6.67c2.22,1.24,4.32,1.31,6.44-0.37c1.27-1.01,3.25-1.56,2.27-3.72c-0.9-2.01-2.62-1.59-4.27-0.98
				c-1.76,0.66-4.03,2.4-4.79-0.72c-0.63-2.57,1.74-3.09,3.79-3.52c1.57-0.33,3.56-0.34,3.93-2.39c0.26-1.44-0.77-2.5-2.08-3.05
				c-1.88-0.79-3.48-0.3-4.98,1.09C1044.87,311.69,1044.91,314.73,1044.72,316.43z"/>
			<path class="st0" d="M999.11,498.34c-4.57,6.39-11.5,10.09-17.5,14.91c-4.56,3.65-9.9,5.95-14.96,8.69
				c-6.4,3.46-13.59,5.03-20.54,7.06c-1.52,0.44-4.45,0.94-4.49-1.39c-0.04-2.24,2.53-1.19,4.05-1.01c3.69,0.44,5.98-2.58,9.08-3.66
				c6.56-2.28,13.34-4.14,19.24-8.05C982.34,509.36,990.73,503.86,999.11,498.34z"/>
			<path class="st0" d="M1067.32,371.27c2.2-2.68,3.73-4.8,5.53-6.66c1.13-1.17,2.94-3.01,3.98-2.74c7.35,1.89,13.29-4.72,20.48-3.1
				c2.05,0.46,3.94-0.25,5.84-0.91c2.42-0.83,4.2,0.15,5.62,2.07c0.51,0.69,0.95,1.5,0.36,2.26c-0.61,0.81-1.49,0.44-2.28,0.14
				c-6.78-2.53-12.98,0.13-19.2,2.26c-1.39,0.48-2.84,1.89-4.14,0.77c-4.41-3.8-7.05-0.75-10.18,1.99
				C1071.78,368.73,1071.01,371.48,1067.32,371.27z"/>
			<path class="st0" d="M1112.45,365.95c2.35,0.76,3.87,2.27,4.4,4.11c2.26,7.76,5.75,15.21,6.19,23.45c0.06,1.13-0.1,2.32-0.42,3.4
				c-0.14,0.48-0.89,1-1.43,1.11c-0.78,0.15-1.17-0.62-1.21-1.27c-0.53-10.42-4.89-19.79-7.99-29.5
				C1111.92,367.01,1112.19,366.65,1112.45,365.95z"/>
			<path class="st0" d="M952.62,480.33c-2.54,3.1-5.39,3.38-8.71,3.18c-4.28-0.26-8.61-0.02-12.9,0.26
				c-2.33,0.15-4.27-0.43-5.95-1.9c-0.4-0.35-0.66-1.15-0.6-1.69c0.08-0.75,0.9-1.07,1.53-0.86c8.17,2.78,16.44,0.16,24.65,0.53
				C951.11,479.86,951.58,480.07,952.62,480.33z"/>
			<path class="st0" d="M981.85,564.07c-5.74,6.67-11.53,13.28-19.36,17.7c-2.17,1.23-4.37,2.4-6.54,3.64
				c-1.39,0.79-3.24,2.67-4.27,0.82c-1.29-2.33,1.64-2.85,3.07-3.51c6.52-3,12.84-6.28,18.11-11.25
				C975.69,568.81,978.16,565.75,981.85,564.07z"/>
			<path class="st0" d="M1001.23,434.85c-8.75,5.36-17.73,8.85-27.75,9.08c-1.25,0.03-3.12,0.63-3.42-1.05
				c-0.37-2,1.79-1.83,2.85-1.75c8.98,0.67,16.67-3.41,24.66-6.45C998.57,434.3,999.72,433.62,1001.23,434.85z"/>
			<path class="st0" d="M981.8,632.84c-10.24,4.87-19.92,1.07-29.66-1.79C961.96,632.61,971.87,632.64,981.8,632.84z"/>
			<path class="st0" d="M1006.49,567.43c-2.53,3.33-6.27,3.79-8.94,5.94c-0.73,0.59-1.95,0.9-2.55-0.22
				c-0.47-0.87,0.35-1.6,1.07-1.93C999.28,569.74,1002.07,567.12,1006.49,567.43z"/>
			<path class="st0" d="M1077.65,392.63c-0.27,2.28-1.91,3.3-3.99,3.69c-1.48,0.28-2.84-0.27-2.68-2.02
				c0.23-2.4,2.09-3.17,4.22-3.47C1076.56,390.64,1077.49,391.02,1077.65,392.63z"/>
			<path class="st0" d="M1086.64,471.53c-1.86,0.13-2.4-0.78-2.48-2.05c-0.09-1.59,0.31-3.05,2.16-3.23
				c1.31-0.13,2.88,0.28,2.92,1.87C1089.29,469.91,1087.74,470.81,1086.64,471.53z"/>
			<path class="st0" d="M943.58,506.42c4.67-1.2,8.5-4.33,13.07-5.77C952.82,503.78,948.48,505.73,943.58,506.42z"/>
			<path class="st0" d="M1052.01,455.38c-1.86,3.22-3.32,6.77-6.98,8.48C1046.52,460.34,1048.87,457.53,1052.01,455.38z"/>
			<path class="st0" d="M959.9,479.41c2.45-2.08,4.57-2.37,6.97-1.61C964.7,480.47,964.7,480.47,959.9,479.41z"/>
			<path class="st0" d="M886.35,988.11c16.17-0.46,31.02-2.34,45.92-3.96c19.01-2.07,38.03-3.98,57.22-4.32
				c24.81-0.43,49.61-0.02,74.39,0.55c14.97,0.35,29.83,2.78,44.53,5.76c3.14,0.64,6.22,1.08,9.41,0.69
				c0.99-0.12,2.18-0.11,2.43,1.13c0.34,1.69-1.09,1.82-2.21,1.97c-3.8,0.51-7.7,1.35-11.42,0.2c-13.19-4.08-26.8-5.24-40.44-5.71
				c-31.8-1.1-63.62-1.6-95.41,0.51c-15.78,1.05-31.51,2.72-47.2,4.91c-13.84,1.93-27.84,2.87-41.85,2.84
				c-10.37-0.03-20.51,1.86-30.72,3.25c-1.69,0.23-3.99,0.24-4.05,2.81c-0.05,2.13,1.67,3.19,3.32,4.01
				c2.08,1.04,4.28,1.84,6.42,2.77c1.8,0.78,4.3,1.34,3.67,3.93c-0.65,2.69-3.25,2.62-5.4,2.29c-4.49-0.7-8.55,1.02-12.75,1.95
				c-1.27,0.28-2.86,0.7-2.62,2.43c0.2,1.41,1.72,1.47,2.83,1.49c5.77,0.14,10.49,2.94,15.18,5.85c4.06,2.51,4.01,4.63,0.08,7.45
				c-3.63,2.61-7.89,3.57-11.98,4.82c-14.17,4.33-27.68,10.47-41.71,15.08c-11.83,3.89-24.22,5.97-36.11,9.82
				c-7.12,2.31-14.39,4.17-21.59,6.23c-0.96,0.27-1.92,0.67-2.9,0.73c-2.05,0.12-5.28,1.44-5.74-1.04
				c-0.54-2.92,2.91-2.35,4.84-2.57c5.04-0.57,9.63-2.63,14.34-4.24c13.2-4.52,26.68-8.09,40.13-11.74
				c11.28-3.06,21.74-8.31,32.84-11.85c6.16-1.96,12.24-4.18,18.34-6.3c1.55-0.54,3.47-0.9,3.21-3.14
				c-0.23-1.93-1.82-2.82-3.51-3.09c-3.28-0.53-6.6-0.97-9.91-1.14c-3.26-0.16-6.16-1.13-9.02-2.63c-2.04-1.07-3.85-2.22-3.74-4.77
				c0.11-2.73,2.3-3.43,4.46-3.95c4.21-1.02,8.41-2.11,12.77-2.2c1.36-0.03,2.86,0.11,3.46-1.36c0.66-1.64-0.43-2.89-1.57-3.9
				c-1.74-1.55-3.57-3-5.39-4.46c-1.31-1.06-2.81-2.05-2.27-4.05c0.5-1.87,2.17-2.59,3.8-2.81c4.61-0.64,9.24-2.11,13.75-2.18
				C865.38,989.96,876.24,985.71,886.35,988.11z"/>
			<path class="st0" d="M1001.43,714.86c-6.83,17.85-13.38,34.74-21.17,51.19c-4.52,9.55-8.64,19.37-13.93,28.48
				c-9.02,15.55-19.11,30.43-35.98,38.84c-0.96,0.48-1.91,1.45-3.47,0.53c4.18-3.93,9.12-6.65,13.34-10.32
				c8.54-7.42,14.47-16.86,20.57-26.07c2.37-3.57,4.91-7.07,7.32-10.61c5.23-7.69,7.34-16.6,10.58-25.07
				c1.21-3.18,3.48-5.69,4.69-8.73c4.16-10.46,8.08-21.01,12.06-31.55C996.46,718.83,997.41,716.12,1001.43,714.86z"/>
			<path class="st0" d="M934.05,881.84c-9.82,6.62-19.58,5.32-28.83,2.11c-8.3-2.89-16.24-6.7-25.08-7.86
				c-0.81-0.11-1.61-0.44-2.35-0.8c-1.05-0.51-2.37-1.14-2.02-2.49c0.45-1.72,2.09-1.61,3.3-1.08c8.12,3.54,17.18,3.97,25.23,7.74
				c3.93,1.84,8.03,3.05,12.41,3.53c4.18,0.46,8.21,1.19,12.02-1.45C929.97,880.7,931.59,880.83,934.05,881.84z"/>
			<path class="st0" d="M1042.72,670.24c0-0.99-0.02-1.99,0-2.98c0.03-1.42,0.43-2.75,2.05-2.92c1.71-0.17,2.26,1.14,2.37,2.55
				c0.12,1.5,0.03,3.06,1.38,4.07c1.72,1.28,1.7,2.69,0.48,4.24c-0.99,1.27-2.26,1.97-3.9,1.45c-1.65-0.52-2.26-1.84-2.35-3.44
				c-0.06-0.99-0.01-1.99-0.01-2.98C1042.74,670.24,1042.73,670.24,1042.72,670.24z"/>
			<path class="st0" d="M1037.12,663.14c-0.33,4.5-0.05,9-1.69,13.19c-0.55,1.4-1.5,2.95-3.32,1.8c-1.42-0.9-1.84-2.96-0.64-3.91
				C1035.13,671.33,1035.7,667.11,1037.12,663.14z"/>
			<path class="st0" d="M1000.82,803.15c-2.08,4.16-2.78,9.28-7.87,11.4C994.58,810.1,996.62,805.93,1000.82,803.15z"/>
			<path class="st0" d="M1030.98,681.7c1.05-0.17,1.63,0.37,1.69,1.3c0.1,1.55-0.24,3.1-1.76,3.77c-1.22,0.53-1.72-0.55-1.89-1.59
				C1028.77,683.52,1029.29,682.26,1030.98,681.7z"/>
			<path class="st0" d="M1134.73,808.24c1.13-0.18,2.25-0.49,3.38-0.49c1.42,0,3.06-0.37,4.1,0.96c0.66,0.86-0.12,1.54-0.85,1.91
				c-1.65,0.84-3.41,1.48-4.99-0.03c-0.67-0.65-1.01-1.65-1.5-2.49C1134.85,808.1,1134.73,808.24,1134.73,808.24z"/>
			<path class="st0" d="M793.61,903.17c7.89,3.19,13.92,9.1,15.09,14.68C803.55,913.09,798.76,907.97,793.61,903.17z"/>
			<path class="st0" d="M831.97,928.08c2.69,0.93,4.54,2.85,7.13,3.75c1.34,0.47,2.57,2.13,0.47,2.71
				c-2.39,0.66-4.54,2.85-7.43,1.93c-0.15-2.51,4.46-1.19,3.06-4.11C834.44,930.78,833.07,929.5,831.97,928.08z"/>
			<path class="st0" d="M802.46,939.7c3.67,3.9,5.87,7.3,9.91,9.72C807.62,949.93,803.77,946.23,802.46,939.7z"/>
			<path class="st0" d="M837.37,921.2c3.09,2.02,5.31,3.55,7.61,4.96c0.86,0.53,1.98,0.95,1.32,2.12c-0.54,0.97-1.84,1-2.64,0.43
				C841.22,927,838.62,925.35,837.37,921.2z"/>
			<path class="st0" d="M812.39,931.34c2.84,3.65,5.69,7.3,7.77,9.97c-3.19-1.27-5.86-5.22-8.89-8.73
				C811.64,932.17,812.02,931.75,812.39,931.34z"/>
			<path class="st0" d="M807.99,937.96c4.56,2.2,6.35,5.63,9.56,8.19C814.02,946.01,810.8,943.3,807.99,937.96z"/>
			<path class="st0" d="M797.56,942.82c1.95,1.66,3.39,2.7,4.6,3.97c0.86,0.9,3.52,1.48,1.89,3.1c-1.33,1.32-2.42-0.96-3.33-1.93
				C799.55,946.72,797.51,946.1,797.56,942.82z"/>
			<path class="st0" d="M1021.79,294.21c2.44-0.21,3.93,1.55,5.63,2.82c1.45,1.09,2.63,2.55,4.63,2.76c1.3,0.14,3.43-0.9,3.4,1.6
				c-0.03,2.15-0.49,4.51-2.31,5.86c-1.72,1.27-3.17-0.24-4.27-1.46c-5.98-6.64-12.86-7.39-20.83-3.88
				c-2.42,1.06-6.57,3.98-7.79,0.2c-1.13-3.49,4.02-3.51,6.49-4.32C1011.63,296.19,1016.59,294.61,1021.79,294.21z"/>
			<path class="st0" d="M987.15,339.94c2.35,2.14,6.92,0.11,8.1,4.41c0.19,0.69,1.55,0.54,2.24,0.02c4.43-3.37,10.11-1.87,14.9-3.86
				c0.95-0.39,2.45-0.97,3.07,0.46c0.6,1.39-0.85,1.97-1.7,2.66c-2.82,2.29-5.37,5.26-8.59,6.62c-4.35,1.84-8.62-0.5-12.35-2.83
				C990.15,345.77,988.57,342.91,987.15,339.94z"/>
			<path class="st0" d="M1002.99,309.81c8.38-3.06,16.13-6.04,24.11-1c1.18,0.74,3.28,0.87,3.13,2.72c-0.15,1.98-2,2.94-3.6,3.8
				c-1.89,1.02-2.65-0.36-3.34-1.78c-0.98-2.01-2.61-2.13-4.61-1.76C1010.77,313.25,1010.76,313.2,1002.99,309.81z"/>
			<path class="st0" d="M1011.9,327.47c-1.15-0.17-1.82-0.19-2.44-0.38c-1.72-0.53-4.32-1.11-4.05-2.94
				c0.34-2.29,3.04-1.3,4.61-1.12c2.53,0.29,4.75,0.72,6.54-1.83c0.73-1.05,2.46-1.45,3.46-0.14c0.92,1.21-0.23,2.17-1.19,2.79
				C1016.52,325.36,1014.41,327.32,1011.9,327.47z"/>
			<path class="st0" d="M982.03,296.71c-0.42,1.09,0.23,3.25-1.34,3.2c-2.19-0.07-1.62-2.39-1.77-3.87
				c-0.12-1.16,0.23-2.61,1.65-2.48C982.3,293.72,982.06,295.36,982.03,296.71z"/>
		</g>
	</g>
</g>
</svg>
