<?xml version="1.0" encoding="utf-8"?>
<!-- Generator: Adobe Illustrator 28.0.0, SVG Export Plug-In . SVG Version: 6.00 Build 0)  -->
<svg version="1.1" id="Layer_1" xmlns="http://www.w3.org/2000/svg" xmlns:xlink="http://www.w3.org/1999/xlink" x="0px" y="0px"
	 viewBox="0 0 1920 1080" style="enable-background:new 0 0 1920 1080;" xml:space="preserve">
<style type="text/css">
	.st0{fill:none;stroke:#231F20;}
</style>
<g>
	<g>
		<g>
			<path d="M976.43,743.08c2.24,0.1,1.88,4.55,4.81,3.13c2.66-1.29,2.32-4.18,2.7-6.6c0.03-0.16,0.05-0.33,0.04-0.5
				c-0.26-8.2,1.59-15.4,9.17-20.06c1.32-0.81,3.14-1.95,2.26-3.93c-0.77-1.74-2.63-0.78-4.05-0.91c-7.62-0.7-15.13-1.94-22.21-5.03
				c-1.37-0.6-3.13-1.33-2.39-3.11c0.63-1.5,2.39-0.93,3.54-0.33c8.41,4.38,17.68,2.38,26.51,3.6c2.17,0.3,5.43,0.37,5.74-2.54
				c0.35-3.24-2.89-5.09-5.37-4.57c-5.8,1.22-10.72-1.27-15.97-2.46c-14.15-3.19-26.31-9.25-35.5-21.21
				c-6.46-8.41-13.33-16.54-19.66-25.08c-1.88-2.54-3.25-5.46-4.43-8.49c2.63,1.04,4.12,3.1,5.78,5.04
				c7.74,9.1,14.33,19.09,22.41,27.98c8.99,9.89,20.19,14.82,32.56,18.13c4.77,1.28,9.33,2.9,14.59,2.18
				c3.68-0.5,6.54,2.9,9.44,5.09c1.18,0.89,2.12,2.63,3.7,2.15c4.3-1.3,7.22,1.66,10.7,2.96c1.84,0.68,2.56,1.45,1.2,3.2
				c-0.82,1.05-1.07,2.28,0.22,3c1.71,0.96,2.14-0.6,2.9-1.72c1.75-2.59,2.26-5.61,2.58-8.51c1.25-11.42,7.34-20.91,12-30.96
				c2.37-5.13,4.97-10.15,7.55-15.17c0.56-1.09,1.01-3.12,2.55-2.48c1.81,0.76,0.79,2.72,0.24,3.94c-1.38,3.02-3.24,5.82-4.58,8.86
				c-2.96,6.67-5.01,13.74-9.16,19.9c-3.57,5.3-3.04,11.81-4.73,17.68c-1.98,6.86-3.96,13.73-5.62,20.68
				c-1.48,6.24,1.42,12.05,2.38,18.06c0.13,0.81,0.53,1.58,0.87,2.34c1.14,2.52,1.55,6.66,4.56,6.5c3.22-0.17,1.56-4.39,2.56-6.64
				c1.42-3.21,2.48-6.48,2.64-10.02c0.04-0.92,0.41-2.21,1.7-1.97c1.24,0.23,1.15,1.56,1.05,2.49c-0.61,5.41-2.79,10.44-3.89,15.76
				c-0.58,2.79-1.59,5.59-2.01,8.54c-0.68,4.74,1.31,9.89-2.74,14.23c-1,1.07-0.11,4.19,0.35,6.27c1.44,6.5,3.09,12.96,4.69,19.42
				c0.31,1.24,0.41,2.97,2.17,2.83c1.34-0.1,1.39-1.64,1.77-2.72c5.9-16.87,9.93-34.12,10.92-52.02c0.07-1.27-0.06-3.04,1.74-3.05
				c1.69-0.02,1.92,1.7,2.01,2.99c0.13,1.98,0.26,4.04-0.08,5.97c-2.13,11.93-3.41,24.04-6.98,35.67c-0.97,3.16-2.74,6.07-3.73,9.23
				c-3.01,9.6-1.18,19.49-1.19,29.24c-0.01,4.82,3.94,3.22,6.19,1.66c4.22-2.94,8.12-6.33,12.07-9.64
				c9.61-8.05,25.48-8.08,36.9-2.84c10.74,4.93,20.04,11.65,29.71,18.04c1.82,1.2,4.27,2.54,6.54,0.97
				c1.95-1.35,1.29-3.66,0.98-5.59c-2.84-17.93-4.98-35.94-6.45-54.02c-0.15-1.88-1.09-3.03-2.7-3.87c-1.09-0.57-1.92-1.45-1.4-2.83
				c0.38-1.02,1.29-1.51,2.32-1.67c1.31-0.2,2.31,0.39,2.86,1.53c0.43,0.89,0.81,1.85,0.95,2.82c0.99,6.97,4.22,13.52,2.96,20.98
				c-0.6,3.57,0.74,7.57,1.59,11.28c2.53,11.04,3,22.36,4.73,33.51c0.5,3.24,0.2,5.28-3.85,5.9c-5.82,0.9-7.7,6.67-7.73,10.75
				c-0.09,10.97-2.09,22.21,2.34,32.94c1.67,4.06,0.83,8.57,1.38,12.86c1.49,11.73,2.3,23.5,2.72,35.34
				c0.31,8.76-0.49,17.44-0.27,26.17c0.08,3.17-0.09,6.29-1.64,9.24c-0.94,1.78-1.18,3.88-0.63,5.86
				c2.39,8.63,2.44,17.49,2.23,26.28c-0.2,8.72,2.47,16.77,4.72,24.9c1.3,4.7,5.3,8.08,8.93,11.15c6.7,5.65,13.58,10.59,23.43,9.97
				c6.13-0.38,12.47,1.89,17.91,5.13c3.28,1.95,5.03,5.14,2.94,9.35c-2.36,4.76-4.12,9.84-6.71,14.45
				c-3.8,6.76-10.98,9.35-17.25,13.06c-4.73,2.8-10.33,2.48-15.27,4.95c-2.58,1.29-6.75-0.57-10.19-1.04
				c-5.01-0.69-9.75-0.28-14.69,1.44c-5.44,1.91-11.33,2.56-17.05,3.65c-1.23,0.23-3.62,0.03-2.79-1.53
				c2.09-3.91-0.99-5.6-2.78-7.56c-1.77-1.93-2.36-4.06-2.39-6.35c-0.1-9.15-1.3-18.27-0.74-27.44c0.33-5.36-4.7-11.25-10.16-11.56
				c-6.74-0.39-13-2.44-19.35-4.52c-6.55-2.15-13.56-0.55-20.33-1.34c-2.81-0.33-5.66-0.47-8.4-1.1c-3.03-0.69-5.14-2.15-5.88-5.83
				c-0.86-4.3-3.33-7.92-8.37-8.75c-12.45-2.04-23.88-7.86-36.43-9.75c-6.65-1-7.27-2.59-7.26-9.44c0.01-4.31-2.79-7.05-6.31-8.9
				c-6.6-3.49-13.48-6.38-19.65-10.73c-2.45-1.73-5.22-0.57-7.87,1.09c-7,4.37-13.49,9.59-21.85,11.68
				c-6.38,1.59-12.83,1.29-19.26,1.84c0.06,0.57,0.08,1.12,0.13,1.13c8.5,0.32,16.4,3.63,24.75,4.93
				c10.06,1.56,19.98,4.72,29.27,9.17c4.25,2.03,4.7,4.98,2.08,8.92c-0.83,1.25-1.57,2.59-2.6,3.65c-2.82,2.91-1.04,4.65,1.63,5.53
				c12.45,4.1,24.71,8.71,38.01,9.85c13.29,1.13,24.97,6.65,35.02,15.51c2,1.76,3.96,3.59,6.14,5.09c2.23,1.54,3.18,3.25,2.16,5.91
				c-1.09,2.82,0.3,4.88,2.41,6.49c3.95,3.01,8.24,4.57,13.45,4.22c7.2-0.47,14.29,0.93,20.79,4.1c3.87,1.89,7.9,2.48,12.02,3.06
				c1.85,0.26,4.25,0.65,3.89,2.88c-0.41,2.56-2.72,1.32-4.5,1.17c-6.09-0.52-11.47-2.89-16.96-5.38
				c-5.02-2.28-10.62-2.42-16.19-2.12c-6.59,0.36-12.5-1.43-17.24-6.31c-1.32-1.36-2.68-2.93-2.39-4.77
				c1.17-7.49-4.55-10.86-9.11-14.2c-7.89-5.77-16.35-10.09-26.73-11.06c-14.95-1.41-29.48-5.48-43.46-11.27
				c-5.07-2.1-6.04-4.54-2.98-8.96c0.66-0.96,1.3-1.93,1.98-2.88c2.69-3.75,1.91-6.16-2.47-8c-5.09-2.14-10.57-3.11-15.84-4.19
				c-11.34-2.34-22.22-6.82-34.04-7.11c-7.09-0.17-14.2-1.19-21.2-2.39c-4.34-0.75-8.06-3.57-12.12-5.3
				c-4.74-2.02-5.06-6.8-4.46-11.65c1.14-9.28,3.72-18.2,6.13-27.18c3.4-12.68,4.68-25.6,5.35-38.73
				c0.48-9.49,0.04-18.98-0.47-28.31c-0.49-8.92-2.75-17.94-4.19-26.92c-1.86-11.61-2.18-23.08,1.46-34.48
				c1.09-3.41,3.24-6.1,4.86-9.15c3.35-6.29,7.66-11.89,12.43-17.17c2.13-2.35,2.93-5.03,1.29-8.25c-1.31-2.57-0.96-5.53-0.8-8.37
				c0.27-4.82,0.72-9.6-1.18-14.31c-0.57-1.41-0.33-3.33,0.01-4.91c1.79-8.27,2.57-16.79,5.75-24.73
				c2.39-5.98,1.69-11.75-0.68-17.48c-2.05-4.97-2.35-9.84-0.56-15.07c1.87-5.49,2.05-11.43,4.07-16.96
				c0.85-2.32-0.98-4.52-2.33-6.37c-10.81-14.85-13.85-32.14-15.73-49.78c-0.34-3.15,0.91-6.2,1.18-9.36
				c0.97-11.37-2.32-22.17-4.2-33.08c-2.87-16.75,2.77-30.71,11.83-43.98c3.1-4.54,6.56-8.91,5.6-14.96
				c-0.3-1.86,1.06-3.04,1.89-4.46c2.5-4.26,1.72-6.56-2.86-8.4c-1.78-0.71-3.38-1.47-3.86-3.52c-0.35-1.52-0.48-3.23,0.85-4.17
				c1.84-1.29,2.01,0.93,2.78,1.77c2.62,2.86,5.82,2.16,8.79,1.11c3.14-1.1,6.05-1.31,9.34,0.23c-1.47,2.72-3.94,2.46-6.14,2.63
				c-1.87,0.14-3.39,0.65-3.4,2.79c-0.01,1.92-0.94,4.22,0.89,5.65c1.67,1.31,3.05-0.41,4.44-1.19c2.45-1.39,4.81-2.99,7.38-4.1
				c2.08-0.9,4.25-1.18,2.59-4.31c-0.55-1.04,0.52-1.97,1.6-2c8.75-0.2,15.7-5.99,24.14-7.47c13.23-2.32,26.16-6.66,39.72-6.58
				c8.24,0.05,15.99-3.16,24.18-2.77c6.08,0.29,11.55,2.26,16.12,6.37c-5.29,0.28-9.73-2.65-14.82-3.2
				c-4.21-0.45-8.11-0.53-12.21,0.82c-6.37,2.09-13.18,1.63-19.75,2.67c-11.42,1.82-22.84,3.21-33.61,8.22
				c-6.38,2.97-13.51,4.29-19.95,7.49c-5.14,2.56-10.34,4.97-15.07,8.24c-2.03,1.4-3.73,3.15-6.47,3.48
				c-2.03,0.25-2.37,2.27-1.76,3.96c0.68,1.87,2.33,1.77,3.74,0.92c14.07-8.44,30.26-10.73,45.58-15.46
				c5.47-1.69,10.97-3.98,16.91-4.03c0.81-0.01,1.94-0.08,2.36-0.59c6.02-7.29,14.19-3.39,21.37-3.94
				c10.71-0.82,20.99,3.85,31.39,4.22c11.53,0.41,21.17,6.56,32.3,7.6c4.18,0.39,7.35,4.66,11.83,5.93
				c2.91,0.83,6.03,1.58,8.81,3.31c2.93,1.83,5.85,1.28,7.23-2.45c1.3-3.5,0.31-5.86-3.56-6.66c-1.11-0.23-2.55-0.18-2.64-1.73
				c-0.09-1.4,1.07-1.99,2.23-2.32c4.24-1.23,3.56-4.7,3.49-7.79c-0.05-1.92-1.32-2.54-3.14-2.05c-7.06,1.89-14.25,0.95-21.39,1
				c-3.03,0.02-5.03-1.96-7.52-3.49c-5.53-3.42-10.7-9.46-16.3-10.13c-7.2-0.87-13.19-3.88-19.74-5.83
				c-3.96-1.17-7.93-0.5-11.9-0.45c-1.38,0.02-3.64,0.18-3.58-1.7c0.06-1.91,2.22-1.38,3.67-1.47c8.11-0.5,15.71,1.01,22.81,5.18
				c1.61,0.94,3.87,0.84,5.85,1.05c4.57,0.48,8.1,2.93,12.08,5.04c11.04,5.84,22.48,12.27,35.77,5.99c1.45-0.68,2.45-1.59,3.18-2.98
				c6.39-12.12,9.25-24.53,3.57-37.83c-1.96-4.6-3.36-9.39-3.81-14.43c-0.2-2.2-0.54-4.58,0.7-6.34c3.2-4.54,2.53-9.49,2.22-14.46
				c-0.2-3.15-0.22-6.24,0.15-9.43c0.49-4.29-2.36-7.97-4.74-11.04c-3.96-5.09-6.67-11.19-11.91-15.28
				c-0.78-0.61-1.68-1.56-0.95-2.52c0.98-1.27,2.1-0.28,3.03,0.38c2.21,1.56,4.22,3.46,5.36,5.85c2.34,4.9,6.51,8.41,9.29,12.95
				c0.52,0.84,1.12,1.9,2.3,1.4c1.03-0.44,1.07-1.63,1.04-2.63c-0.12-3.65-0.31-7.3-0.41-10.95c-0.03-1.01,0.18-2.12,1.32-2.43
				c1.28-0.34,1.52,0.88,2.1,1.66c5.98,8.02,11.29,8.88,19.52,3.22c3.25-2.23,6.53-4.43,10.16-6.19c-3.11,4.28-6.62,8.11-11.89,9.84
				c-1.73,0.57-3.6,0.74-5.08,1.94c-1.2,0.97-3.84,0.41-3.68,2.7c0.17,2.43,2.35,3.62,4.4,4.23c4.13,1.22,8.22,3.73,12.71,0.8
				c0.84-0.55,2.21-0.28,3.99-0.46c-4.98,7.27,2.27,7.32,5.06,8.52c4.94,2.11,9.74,4.64,14.61,6.82c4.2,1.88,3.97,7.39,4.13,11.64
				c-1.21,0.66-2.01,0.13-2.04-0.36c-0.42-6.53-6.76-7.57-10.45-10.9c-2.54-2.29-6.55-2.9-9.64-4.88
				c-5.12-3.29-9.89-6.93-16.63-7.13c-4.9-0.14-7.87-4.56-10.8-8.23c-0.85-1.07-1.82-2.11-3.34-1.61c-1.28,0.42-1.58,1.66-1.67,2.84
				c-0.94,12.21-4.09,24.1-5.08,36.33c-0.47,5.92,1.69,10.79,3.55,15.83c3.87,10.49,3.75,20.85,0.06,31.26
				c-1.6,4.51-0.83,10.22-6.48,12.77c-0.83,0.38-0.88,1.85-0.17,2.71c6.7,8.02,4.73,17.14,2.87,25.98
				c-0.81,3.85-1.29,7.09,1.31,10.31c0.59,0.73,0.88,1.79,1.04,2.75c0.16,0.94,0.25,2.16-1.01,2.46c-1.25,0.3-1.81-0.69-1.93-1.74
				c-0.21-1.88-0.65-4.32-1.99-4.95c-3.91-1.85-5.9-6.41-9.41-7.7c-12.99-4.78-26.13-9.02-38.61-15.24c-4-2-9.46-1.22-14.27-1.43
				c-5.43-0.23-10.5-1.82-15.38-3.92c-2.75-1.19-5.46-1.6-8.25-1.13c-18.38,3.07-36.75,6.42-54.51,12.1
				c-13.88,4.44-28.09,7.98-41.43,14.02c-1.9,0.86-4.08,2.27-4.94,4.02c-4.17,8.47-10.43,15.9-12.47,25.44
				c-2.27,10.65-0.65,21.25,1.12,31.62c2.41,14.15,8.78,27.09,14.67,40.11c1.76,3.88,4.72,6.82,7.29,10.03
				c10.98,13.68,21.45,27.83,33.58,40.51c8.98,9.39,20.05,15.7,33.05,18.2c1.38,0.27,4.08-0.07,3.47,2.44
				c-0.58,2.42-2.8,1.54-4.62,1.15c-20.42-4.34-35.13-16.74-47.2-33.05c-7.71-10.43-15.37-20.88-23.84-30.76
				c-5.27-6.15-8.05-14.07-11.35-21.51c-0.62-1.41-0.5-3.82-2.9-3.13c-1.9,0.55-1.74,2.61-1.65,4.3
				c0.96,19.22,5.71,37.03,16.33,53.59c9.7,15.12,20.52,29.36,31.11,43.78c4.01,5.45,9.05,10.06,10.44,17.11
				c0.47,2.4,1.53,4.67,1.38,7.07c-1.69,0.61-2.32-0.32-2.55-1.24c-3.06-11.86-11.39-20.49-18.33-29.96
				c-3.83-5.23-8.03-10.19-10.98-16.02c-0.89-1.76-2.05-4.37-4.16-3.38c-2.07,0.97-0.17,3.2,0.42,4.81
				c4.58,12.64,10.53,24.76,14.49,37.64c0.2,0.64,0.44,1.27,0.54,1.92c0.21,1.41,1.13,3.4-0.77,3.92c-2.17,0.58-1.83-1.75-2.31-3.03
				c-3.23-8.56-7-16.95-9.53-25.71c-2.07-7.17-6.23-13.53-7.45-20.94c-0.17-1.01-0.5-2.1-1.8-1.87c-1.15,0.21-1.27,1.35-1.54,2.33
				c-2.04,7.17-3.2,14.35,0.57,21.32c4.04,7.45,1.2,14.33-1.16,21.46c-2.07,6.27-3.43,12.79-4.92,19.24
				c-0.35,1.52-0.52,3.78,1.56,4.18c1.93,0.38,1.94-1.89,2.57-3.13c2.63-5.14,5.22-10.3,8.61-15.07c-2.39,6.26-3.87,12.85-7.6,18.49
				c-1.42,2.15-2.42,4.35-2.51,6.93c-0.13,3.7,2.11,4.86,4.68,2.95c4.05-3.02,8.34-3.68,12.68-2.09c6.08,2.22,12.19,4.9,15.88,10.65
				c2.53,3.95,5.74,6.81,9.97,8.72c2.67,1.2,4.65,3.36,5.71,6.02c2.59,6.48,6.25,12.5,8.15,19.27c0.35,1.24,0.37,2.86,2.09,3.04
				c1.73,0.18,3.14-1.19,3.46-2.42c1.14-4.31,4.79-8.19,3.93-12.66c-1.2-6.23-1.72-12.78-5.22-18.42c-4.15-6.7-6.4-14.27-9.5-21.45
				c-0.57-1.31-1.13-3.22,0.91-3.77c1.59-0.43,2.17,1.14,2.6,2.46c2.71,8.26,6.39,16.1,10.94,23.48c2,3.25,0.54,6.7,1.04,10.57
				c3.14-1.78,3.18-4.16,2.95-6.39c-0.6-5.78-1.41-11.55-2.19-17.31c-0.22-1.65-1.14-3.33-0.92-4.88
				c1.17-8.21-4.15-13.95-7.18-20.67c-5.07-11.22-13.3-20.67-17.54-32.29c-0.47-1.28-2.09-3.09-0.29-3.94
				c1.87-0.89,2.08,1.62,2.75,2.74c8.19,13.61,16.2,27.32,23.03,41.7c0.58,1.22,1.18,3.21,3.06,2.64c1.49-0.45,1.19-2.26,1.16-3.53
				c-0.15-6.26,2.85-12.91-2.36-18.6C975.01,745.36,975.15,743.89,976.43,743.08z M1099.62,1045.62c2.69,0.24,3.69-1.23,2.98-3.65
				c-1.82-6.21-3.32-12.45-4.05-18.91c-0.42-3.77-0.86-7.82-2.53-11.12c-5.58-10.97-8.13-23.16-14-33.97
				c-4.34-7.98-4.57-17.21-8.07-25.47c-1.39-3.28-2.43-6.93-3.13-10.41c-1.72-8.6-3.58-17.25-3.54-26.11
				c0.04-11.06-1.16-22.09,2.08-33.09c2.19-7.45,0.99-15.45-2.96-22.21c-2.68-4.58-5.55-8.88-7.26-14.03
				c-1.57-4.75-4.55-8.05-10.39-9.2c-6.61-1.31-7.52-0.2-8.14-8.82c-0.14-1.97-0.65-3.92-1.07-5.87
				c-2.58-11.88-7.47-23.12-9.72-35.1c-0.93-4.94-1.98-10.03-0.59-14.85c2.27-7.89-0.89-14.57-3.33-21.61
				c-2.72-7.88-7.02-15.54-4.56-24.42c0.48-1.75,0.34-3.9-1.77-3.92c-5.88-0.06-7.5-4.86-10.03-8.53c-2.39-3.47-5.08-4.27-7.42-0.69
				c-3.15,4.81-7.54,8.34-11.24,12.56c-2.37,2.71-3.44,6.28-3.69,10.12c-0.32,4.86-0.16,9.68-2.74,14.45
				c-1.41,2.61-3.07,5.78-3.27,9.23c-0.49,8.14,2.61,16.84-3.58,24.15c-0.18,0.22-0.27,0.7-0.15,0.96c2.33,5.18-0.28,11,2.14,16.17
				c0.98,2.1,0.52,4.08-0.19,6.26c-1.69,5.17-3.72,10.15-5.87,15.14c-1.93,4.5-3.8,8.48-7.94,10.93c-4.08,2.41-6.08,6.17-7.24,10.35
				c-1.7,6.14-4.29,12.09-7.45,17.31c-7.68,12.7-9.24,27.13-11.95,40.91c-2.47,12.51-6.44,24.3-10.86,36.01
				c-1.56,4.13-2.08,8-1.74,12.05c0.29,3.49,1.8,6.97,5.23,8.53c5.44,2.47,11.13,4.46,17.06,5.42c10.21,1.66,13.26,5.08,12.47,15.33
				c-0.34,4.34,1.43,6.28,5.25,7.73c6.37,2.41,12.74,4.95,18.48,8.71c4.6,3.02,8.46,6.51,7.54,12.9c-0.44,3.08,1.54,4.74,4.38,4.96
				c12.88,1.02,24.22,7.69,36.8,9.91c4.31,0.76,7.96,3.36,8.51,8.57c0.11,1.04,1.03,2.04,1.68,2.98c3.55,5.15,9.08,4.26,14.1,4.28
				c7.32,0.04,14.52-0.22,21.7,2.22C1085.96,1043.98,1092.69,1045.44,1099.62,1045.62z M1126.34,857.71
				c-0.16-14.57-0.15-14.58-10-23.09c-11.5-9.95-23.98-16.64-40.08-14.24c-8.24,1.23-15.74,5.8-15.48,12.68
				c0.25,6.65,0.5,13.79,4.84,19.54c4.48,5.94,7.88,12.19,7.96,19.86c0.02,1.9,0.81,3.58,3.05,2.58c4.08-1.81,8.87-0.86,12.57-2.38
				c10.74-4.41,20.94-0.04,31.32,0.59c4.93,0.3,7.2-0.81,6.38-5.61C1126.33,864.31,1126.42,861.03,1126.34,857.71z M1107.11,979.1
				c2.53-3.32,4.66-2.5,6.52-2.65c3.31-0.26,6.7-0.1,9.94-0.72c3.12-0.6,6.12-2.16,7.29-5.37c0.7-1.93-3.96-4.25,0.28-6.55
				c0.59-0.32-1.65-1.5-2.89-1.83c-3.62-0.96-7.36-0.79-11.09-1.18c3.3-1.87,6.85-1.83,10.42-1.9c1.54-0.03,4.04,0.82,4.3-1.25
				c0.27-2.2-2.38-2.33-4.05-2.89c-0.94-0.31-1.99-0.32-2.92-0.64c-5.36-1.84-10.99-0.12-16.3-1.05c-9.08-1.6-17.02,1.59-25.08,4.57
				c-1.4,0.52-3.64,1.76-2.77,3.53c1.04,2.14,3.35,0.89,4.8,0.05c3.98-2.3,8.51-2.89,12.79-4.03c4.44-1.18,9.22-0.87,13.77,0.24
				c-9.23,3.1-19.22,3.32-28.95,9.22c4.46,0.76,7.26-0.72,10.16-0.79c1.15-0.03,3.33-0.07,3.18,0.42c-1.23,4.14,3.58,3.21,4.6,5.58
				c-3.36,2.78-7.88,1.76-11.27,3.94c-1.23,0.79-3.17,1.05-2.48,3.04c0.76,2.2,2.4,1.62,4.11,0.91c3.8-1.57,7.75-2.52,12.02-2.32
				c-0.33,1.42-1.36,1.21-2.04,1.55c-2.08,1.03-2.25,2.71-1.59,4.64c0.42,1.21,1.2,2.23,2.59,1.52c2.64-1.35,4.35-0.79,4.36,2.26
				c0.02,3.04-2.24,3.72-4.85,3.69c-2.1-0.02-3.16-1.31-4.31-2.88c-1.02-1.38-2.78-0.78-4.18-0.31c-0.49,0.16-1.17,1-1.09,1.4
				c0.31,1.63,1.85,1.6,3.1,1.95c2.23,0.62,4.48,1.21,6.65,1.98c1.34,0.48,1.84,1.39,0.55,2.6c-1.18,1.1-4.53,0.44-3.53,3.07
				c0.74,1.95,3.33,0.26,5.05,0.6c0.49,0.1,1,0.13,1.46,0.29c1.19,0.42,2.16,1.15,1.75,2.56c-0.35,1.22-1.43,1.11-2.47,0.99
				c-1.89-0.23-3.79-0.37-6.55-0.62c4.39,2.24,4.39,2.23,1.88,5.78c-0.76,1.08-0.32,2.36,0.76,2.18c3.52-0.57,6.61,1.12,10.21,1.99
				c-2.72-5.02-2.41-5.53,2.75-5.4c0.66,0.02,1.32,0.14,1.99,0.19c1.33,0.1,3.11,0.34,3.16-1.39c0.05-1.63-1.73-1.01-2.8-1.08
				c-1.34-0.08-3.59-0.34-3.08-1.54c0.92-2.17,0.06-5.96,4.54-5.87c3.78,0.08,7.57-0.67,11.36-1.1c0.99-0.11,2.12-0.36,2.21-1.59
				c0.11-1.55-1.23-2.05-2.34-2c-2.98,0.15-5.95,0.64-8.93,0.85c-1.55,0.11-3.97,0.84-4.06-1.44c-0.07-1.89,2.4-1.01,3.71-1.45
				c2.94-0.99,6.56,1.08,10.18-2.73c-5.44,0.58-9.52-2.13-14.02-0.16c-1.88,0.82-4.04,0.47-4.34-1.79
				c-0.29-2.19,2.02-2.28,3.61-2.52c4.23-0.62,8.1,1.57,12.27,1.7c1.6,0.05,3.31,0.56,3.44-1.5c0.15-2.42-0.06-4.96-1.78-6.97
				c-0.14-0.16-0.96,0.03-1.28,0.29C1121.45,982.35,1114.77,977.74,1107.11,979.1z M1107.6,905.07c3.62,2.99,3.67,4.74-0.98,5.1
				c-1.9,0.15-2.85,1.41-0.97,2.95c1.4,1.15,2.63,2.06,1.44,4.07c-1,1.69-2.48,1.99-4.27,1.88c-3.48-0.22-6.97-0.42-10.46-0.5
				c-1.12-0.03-2.63,0.07-2.79,1.51c-0.18,1.71,1.46,1.54,2.51,1.6c2.17,0.12,3.84,0.9,4.87,2.89c1.2,2.33,2.9,4.04,5.67,4.38
				c0.85,0.11,1.71,0.48,1.79,1.44c0.09,0.94-0.64,1.42-1.47,1.75c-1.31,0.52-3.47,0.59-2.9,2.64c0.56,2.04,2.66,1.57,4.29,1.46
				c6.58-0.45,13.15,1.11,19.74,0.03c0.85-0.14,2.12-0.2,2.03,1.96c-9.31,1.65-19.62-2.03-28.35,3.82
				c5.28,1.21,10.32,3.36,15.76,2.05c1.6-0.39,3.27-0.57,4.91-0.68c0.86-0.06,1.71,0.45,1.83,1.36c0.14,1.01-0.77,1.44-1.57,1.6
				c-1.13,0.23-2.31,0.2-3.46,0.38c-10.88,1.64-22.26-1.99-32.84,3.12c-1.23,0.59-3.15-0.17-3.8,1.67c-0.36,1,0.05,2.04,0.82,2.73
				c1.64,1.48,3.06,0.16,4.55-0.47c2.56-1.08,4.79-2.63,7.79-3.04c12.49-1.7,24.83,0.69,37.24,0.91c1.71,0.03,3.59,0.64,3.93-1.68
				c0.32-2.22-1.59-2.61-3.26-2.94c-1.94-0.38-4.23,0.22-5.89-1.86c2.33-1.66,4.44-0.69,6.51-0.54c2.08,0.15,3.71-0.73,2.29-2.83
				c-2.5-3.7-1.6-7.19-0.33-10.86c1.91-5.52,0.94-6.65-5.01-6.82c-4.32-0.12-8.74,0.55-14.21-0.89c5-2.63,9.18-1.31,13.13-1.59
				c3.97-0.28,7.55-0.04,4.44-5.65c-0.31-0.57,0-1.61,0.27-2.35c1.29-3.56-0.28-4.48-3.59-4.35c-3.96,0.16-7.92,0.04-11.88,0.04
				c0.01-0.51,0.01-1.01,0.02-1.52c4.08,0,8.16,0.01,12.25-0.01c1.42-0.01,2.77-0.27,2.79-2.08c0.01-1.14-0.88-2.07-1.89-1.9
				C1121.85,904.97,1114.96,902.9,1107.6,905.07z M1125.99,1070.14c-2.35,1.41-6.34,1.51-5.49,5.72c1.49,7.41,1.58,7.39-5.59,10.04
				c-0.16,0.06-0.35,0.07-0.46,0.18c-1.64,1.64-5.82,1.62-4.86,4.68c0.9,2.85,4.32,3.83,7.44,3.79c1.12-0.01,2.22-0.83,3.35-0.89
				c9.26-0.55,18.2-4.9,27.74-2.29c1.23,0.34,3.07,0.65,3.48-0.91c0.39-1.49,0.03-3.27-0.36-4.83c-0.4-1.63-1.89-0.95-2.96-0.83
				c-3.27,0.37-6.33,1.63-9.81,1.26c-6.63-0.72-8.05-3.46-5.38-9.47c0.93-2.1-0.36-5.19,1.8-7.31c0.01-0.01-0.55-0.81-0.95-1.01
				c-1.92-0.94-3.59-2.56-5.87-2.59c-1.75-0.02-4.08-1.09-5.07,0.83C1121.67,1069.09,1125.65,1068.21,1125.99,1070.14z
				 M900.67,923.18c-1.83-1.28-2.83-1.88-3.7-2.62c-1.77-1.5-3.79-2.37-5.95-1.35c-2.08,0.99-1.35,3.23-1.35,4.94
				c0.01,4.59-1.31,9.18,0.42,13.78c1.83,4.89-3.24,8.06-3.46,12.49c-0.04,0.82-0.14,1.67-0.01,2.47c0.19,1.14,0.58,2.92,1.77,2.61
				c2.61-0.67,5.45-1.51,7.47-3.17c2.07-1.71-2.46-2.25-1.51-4.53c0.86-0.09,1.83-0.31,2.78-0.26c4.14,0.2,8.27,0.52,12.41,0.71
				c1.12,0.05,2.58,0.13,2.83-1.36c0.24-1.46-1.13-1.83-2.19-2.26c-2.4-0.97-4.87-0.88-7.37-0.48c-7.68,1.21-7.68,1.21-9.53-5.49
				c-0.09-0.32-0.27-0.61-0.36-0.93c-1.48-5.32,0.06-7.37,5.75-7.57c1.99-0.07,3.99,0.04,5.97-0.04c1.03-0.04,1.93-0.53,2.24-1.65
				c0.24-0.86,0.08-1.68-0.56-2.3c-0.99-0.94-1.84-0.31-2.57,0.41c-2.12,2.1-4.4,0.47-6.61,0.3c-0.84-0.06-1.62-0.58-1.58-1.58
				c0.05-1.04,0.95-1.22,1.78-1.4C898.11,923.74,898.88,923.57,900.67,923.18z M915.23,787.62c-2.22-0.64-3.6,0.55-3.79,2.62
				c-0.27,2.93,1.81,2.52,3.74,2.12c2.47-0.52,5.44-0.09,6.23,2.02c3.09,8.21,10.97,8.25,17.32,10.92c1.5,0.63,2.98,0.28,4.12-0.93
				c0.95-1.02,0.98-2.28-0.09-3.09c-3.82-2.88-5.44-7.8-9.1-10.48c-3.03-2.23-6.52-8.3-11.33-1.72c-0.61,0.84-1.58,0.26-2.21-0.27
				C918.7,787.63,916.85,788.37,915.23,787.62z M1122.32,891.7c-4.58-0.77-4.58-0.77-6.5-3.44c-1.68-2.34-5.84-2.15-7.44,0.57
				c-0.7,1.19-1.15,2.31-2.63,2.67c-1.32,0.32-2.76,0.78-2.32,2.58c0.43,1.76,2.03,2.21,3.54,2.2c6.15-0.03,12.32-0.06,18.46-0.38
				c3.3-0.17,4.46-2.06,2.67-5.11c-2.3-3.9-0.06-9.93-5.75-12.23c-0.08-0.03-0.06-0.31-0.07-0.48c-0.13-2.77-1.68-2.97-3.73-1.96
				c-1.74,0.85-3.6,0.5-5.39,0.79c-2.08,0.33-4.43-0.12-6.02,1.8c-0.46,0.55-0.49,1.39,0.15,1.76c2.28,1.31,4.79,1.12,7.26,0.75
				c0.62-0.09,1.26-0.47,1.75-0.88c2.24-1.91,3.71-1.06,4.42,1.38c0.51,1.77,2.28,2.36,3.36,4.38
				C1120.38,886.45,1120.07,888.52,1122.32,891.7z M1123.95,1014.91c-1.54,1.81-3.6,1.2-5.51,1.26c-3.48,0.11-6.97,0.25-10.45,0.47
				c-0.79,0.05-1.74,0.3-1.92,1.27c-0.21,1.08,0.73,1.49,1.5,1.64c7.28,1.4,14.57,0.97,21.73-0.64c1.86-0.42,5.03-2.85,3.17-4.42
				c-2.36-2-2.39-7.51-7.17-5.97c-2.28,0.74-4.74,1.86-6.39,3.79C1120.19,1014.42,1122.79,1012.8,1123.95,1014.91z M1144.76,1060.11
				c0-0.14,0-0.27-0.01-0.41c-3.32,0-6.65-0.05-9.97,0.03c-1.12,0.02-2.68-0.02-2.86,1.4c-0.24,1.89,1.54,1.8,2.78,2.04
				c7.96,1.54,15.9,0.74,23.83-0.26c1.5-0.19,3.33-0.41,2.98-2.46c-0.29-1.66-1.98-1.46-3.32-1.36
				C1153.72,1059.41,1149.24,1059.77,1144.76,1060.11z M1118.58,898.03c0-0.07-0.01-0.15-0.01-0.22c-3.82,0-7.64-0.1-11.45,0.06
				c-1.17,0.05-3.01,0.11-2.92,1.95c0.07,1.39,1.6,1.61,2.7,1.75c6.8,0.91,13.6-0.18,20.41-0.14c1.21,0.01,2.37-0.68,2.23-2.14
				c-0.17-1.83-1.61-1.8-3-1.71C1123.89,897.74,1121.23,897.88,1118.58,898.03z M907.57,986.23c-1.05-2.01-4.87-0.14-5-3.73
				c-0.14-4.1-4.26-5.82-6.46-8.71c-0.71-0.93-2.39-1.43-3.59-0.24c-1,1-0.33,2.12,0.03,3.24c1.38,4.25,1.45,9.68,8.38,8.59
				c0.6-0.09,1.32,0.95,2.07,1.3C904.48,987.36,906.04,988.29,907.57,986.23z M897.15,866.85c3.01,0,5.48,0.05,7.96-0.02
				c1-0.03,2.24-0.4,2.32-1.48c0.11-1.56-1.34-1.52-2.48-1.74c-4.87-0.92-10.16,1.03-14.7-2.42c-1.06-0.81-2.58,0-3.35,1.3
				c-0.7,1.17-1.12,2.43-0.52,3.77c0.7,1.56,2.01,1.34,3.38,1.19C892.4,867.16,895.03,867.01,897.15,866.85z M905.11,876.9
				c-1.93,0.83-3.53,1.86-5.71,1.19c-3.15-0.98-6.43-1.22-9.75-1.18c-1.26,0.02-2.7-0.89-3.45,0.78c-0.6,1.32,0.09,2.6,0.72,3.75
				c0.69,1.25,2.09,2.37,3.22,1.55c2.82-2.06,6.12-0.97,9.04-1.93C901.51,880.28,904.43,880.32,905.11,876.9z M1128.2,1034.74
				c2.74-0.39,3.46-2.08,2.29-4.22c-1.41-2.58-1.14-3.91,1.94-4.4c1.27-0.2,1.87-1.27,1.71-2.6c-0.11-0.9-0.63-1.7-1.48-1.75
				c-2.84-0.16-5.54,0.48-7.64,2.51c-0.81,0.78,0.94,9.72,1.79,10.09C1127.26,1034.55,1127.76,1034.62,1128.2,1034.74z
				 M1162.02,1092.17c7.45,0.07,12.32-5.14,18.27-7.77c1.31-0.58,2.86-2.48,1.36-4.15c-1.59-1.78-3.11-0.28-4.07,1.09
				c-1.65,2.39-4.09,3.52-6.36,5.1C1168.31,1088.46,1163.48,1087.14,1162.02,1092.17z M912.67,861.23c1.39,0.48,2.72,0.26,3.31-1.18
				c0.45-1.09-0.54-1.54-1.36-1.5c-5.72,0.26-11.15-1.1-16.58-2.64c-1.52-0.43-3.23,0.01-3.45,1.87c-0.22,1.82,1.5,1.92,2.79,2.05
				C902.47,860.33,907.57,860.77,912.67,861.23z M907.31,836.27c-3.7-0.16-7.21-0.14-10.68-1.2c-1.25-0.38-2.61,0.28-3.67,1.15
				c-0.97,0.79-1.47,1.82-0.9,3.05c0.47,1.02,1.45,1.44,2.46,1.24C898.92,839.63,903.3,838.65,907.31,836.27z M920.35,798.91
				c-0.62-1.91-2.21-2.88-3.81-3.72c-1.6-0.84-3.35-1.86-5.04-0.21c-1.15,1.12-3.01,2.22-2.28,4.07c0.91,2.29,2.51,1.3,4.03,0.29
				c1.59-1.06,2.76,0.46,4.1,0.96C918.74,800.83,919.97,800.79,920.35,798.91z M897.55,847.12c0.99,0,1.97,0.02,2.96-0.01
				c1.3-0.04,2.99,0.11,3.08-1.61c0.09-1.74-1.72-1.61-2.91-2.01c-3.26-1.1-6.51,0-9.77-0.04c-0.88-0.01-1.7,0.48-1.74,1.4
				c-0.06,1.26,1,1.57,2.01,1.68C893.29,846.78,895.42,846.94,897.55,847.12z M903.63,828.7c-1.42,0-2.25-0.02-3.07,0
				c-1.5,0.04-3.5,0.05-3.56,1.8c-0.07,1.91,2.05,1.77,3.46,1.87c2.46,0.18,4.93,0.08,7.28,1.05c1.14,0.47,2.37,0.56,2.87-0.88
				c0.55-1.56-0.35-2.62-1.76-2.98C906.96,829.1,904.99,828.92,903.63,828.7z M891.22,897.69c0.15,0.58,0.19,2.03,0.87,3.06
				c1.02,1.56,3.03,1.66,3.38-0.17c0.43-2.18,0.15-4.34,1.63-6.41c0.73-1.03-0.91-1.94-2.14-1.94
				C891.78,892.22,891.28,894.43,891.22,897.69z M911.14,848.1c4.18,1.47,8.36,2.56,12.74,1.04c0.79-0.27,1.73-0.54,1.31-1.6
				c-0.18-0.46-0.98-0.95-1.5-0.94C919.5,846.64,915.2,845.64,911.14,848.1z M1126.77,999.46c-0.72,0-1.21-0.03-1.7,0.01
				c-1.44,0.09-3.35-0.19-3.63,1.67c-0.32,2.17,1.72,1.9,3.09,2.14c0.48,0.08,1.01,0.03,1.46,0.19c2.63,0.95,5.98,1.69,6.12-1.98
				C1132.25,998.22,1128.31,1000.7,1126.77,999.46z M896.48,852.47c2.16,0.38,4.48,1.28,4.69-0.98c0.22-2.38-2.42-1.55-3.88-1.75
				c-1.96-0.27-3.96-0.36-5.94-0.28c-1.07,0.04-2.64,0.19-2.47,1.8c0.15,1.4,1.58,1.62,2.74,1.6
				C893.43,852.82,895.24,852.58,896.48,852.47z M1083.74,898.97c3.41-0.29,6.03-0.49,8.64-0.77c0.77-0.08,1.8-0.21,1.67-1.34
				c-0.12-1.03-1.11-1.1-1.9-1.15c-2.62-0.17-5.25-0.35-7.87-0.35c-1.43,0-3.47-0.03-3.33,1.98
				C1081.09,899.22,1083.11,898.91,1083.74,898.97z M1126.43,1048.42c-0.37-2.37-2.21-3-4.24-3.14c-1.39-0.09-3.58-0.31-3.39,1.69
				c0.23,2.42,2.77,3.01,4.77,3.55C1124.96,1050.89,1126.09,1050.09,1126.43,1048.42z M935.82,972.07
				c-2.48,1.02-5.03,0.65-7.43,1.18c-1.15,0.25-2.47,0.67-2.41,2.09c0.07,1.62,1.55,1.33,2.67,1.48
				C932.31,977.3,934.28,975.07,935.82,972.07z M1189.35,1066.91c-0.32-0.86-0.32-2.76-1.82-2.06c-2.81,1.31-3.5,4.54-4.97,7.02
				c-0.47,0.79,0.5,1.8,1.31,1.54C1186.88,1072.43,1188.89,1070.42,1189.35,1066.91z M1089.25,914.92c2.91,0.28,5.81,0.62,8.72,0.81
				c0.96,0.06,2.16-0.19,2.08-1.53c-0.07-1.2-1.25-1.65-2.18-1.62C1094.98,912.67,1092.04,912.69,1089.25,914.92z M899.28,905.79
				c-0.38-1.22-1.2-1.7-1.98-1.51c-2.13,0.52-3.94,1.65-4.9,3.73c-0.36,0.77,0.21,2.26,0.61,2.03
				C895.23,908.79,897.25,907.21,899.28,905.79z M1086.53,903.15c2.45,1.31,4.65,0.77,6.73,0.98c1.43,0.14,3.86,0.23,3.8-1.34
				c-0.09-2.5-2.57-1.29-3.98-1.17C1091.04,901.81,1088.73,900.97,1086.53,903.15z M920.59,977.28c-0.59-2.02-2.45-1.88-3.99-2.17
				c-0.89-0.17-2.34-0.43-2.29,0.99c0.07,1.79,1.21,3.09,3.17,3.13C918.82,979.24,920.13,978.94,920.59,977.28z M1090.21,908.9
				c2.76,0.69,5.32,2.85,8.38,0.87c0.26-0.17,0.36-1.2,0.25-1.25C1095.98,907.12,1093.11,907.35,1090.21,908.9z M1088.12,970.03
				c-1.33,0.31-3.19,0.03-3.4,2c-0.15,1.44,1.07,1.99,2.32,1.73c1.39-0.3,3.21-0.48,3.51-2.16
				C1090.84,969.95,1089.26,970.12,1088.12,970.03z M902.58,959.25c-1.15,0.1-2.11,0.52-2.1,1.71c0.03,2.01,1.54,2.76,3.23,3.12
				c0.89,0.19,1.8-0.28,1.68-1.25C905.18,961.12,904.36,959.73,902.58,959.25z M1111.12,1033.81c-1.27,0.18-3.07-0.26-3.28,1.48
				c-0.18,1.49,1.39,1.69,2.55,1.66c1.45-0.04,3.42,0.06,3.51-1.88C1113.97,1033.47,1112.15,1034.08,1111.12,1033.81z
				 M1075.7,935.71c1.19-1.08,2.9-2.16,3.9-3.7c0.62-0.96-0.81-1.63-1.8-1.48c-1.94,0.29-3.12,1.65-3.71,3.43
				C1073.78,934.86,1074.3,935.49,1075.7,935.71z M931.05,993.79c1.24-0.23,3.08,0.12,3.22-1.56c0.13-1.51-1.53-1.45-2.66-1.45
				c-1.31,0-3.06-0.04-3.2,1.6C928.28,993.98,929.92,993.74,931.05,993.79z"/>
			<path d="M1017.25,239.8c-1.33,2.73-4.36,6.47,2.63,4.78c1.59-0.39,1.09,1.65,0.24,2.48c-1.51,1.48-3.14,2.82-3.82,5.57
				c4.66-0.73,6.27-4.66,9.2-6.73c0.35-0.25,0.19-1.23,0.26-1.88c0.14-1.46-4.19-0.68-1.65-3.36c2.07-2.18,4.35-2.1,7.45-0.37
				c-0.72-2.96,0.7-5.09,1.04-7.47c0.16-1.15,0.31-2.43-0.99-3.08c-1.1-0.55-1.87,0.16-2.55,0.96c-0.85,0.99-1.67,2.47-3.16,1.04
				c-1.1-1.07-0.78-2.44-0.04-3.69c0.58-0.98,1.64-2.04,0.49-3.1c-1.4-1.29-2.39,0.15-3.41,0.89c-1.49,1.07-2.91,1.71-4.3-0.8
				c5.45-1.36,7.14-4.72,5.51-10c-0.48-1.56,0.74-3.15,1.22-4.72c2.4-8.02,2.5-16.39,4.34-24.72c-2.63,0.14-1.9,1.43-2.07,2.25
				c-0.23,1.14-0.85,1.82-2.08,1.54c-0.9-0.2-1.48-0.9-1.46-1.79c0.04-1.32-0.07-2.85,0.54-3.89c1.72-2.94,0.96-5.68,0.26-8.66
				c-0.37-1.57-2.91-3.66,0.71-5.21c1.2-0.51-0.14-2.37-1.34-3.1c-2.73-1.67-3.94-4.58-5.8-6.82c-6.24-7.49-9.54-17.96-20.25-21.32
				c-1.97-0.62-3.86-0.77-5.83-0.98c-9.6-1.02-18.68,2.11-28,3.38c-5.83,0.79-10.14,3.74-15.14,6.61
				c-9.82,5.64-10.94,14.86-14.34,23.49c-0.93,2.36-2.57,4.45-4.23,6.45c2.15-12.51,5.41-23.62,16.75-32.2
				c13.01-9.86,27.42-9.14,41.73-9.56c19.29-0.57,29.59,12.55,37.68,27.83c1.76,3.33,4.87,6.72,1.67,11
				c-0.61,0.82-0.01,2.01,0.75,2.71c4.32,4,4.11,8.88,2.52,13.85c-1.18,3.68-0.03,5.72,3.51,6.82c3,0.93,3.98,3,3.77,6.15
				c-0.41,6.3-0.07,12.68-0.81,18.93c-0.93,7.89-1.27,16.04-7.23,22.5c-2.31,2.51-2.84,6.48-3.48,9.58
				c-0.89,4.34-2.99,7.58-5.26,10.96c-1.09,1.62-1.55,3.66,0.33,4.24c6.84,2.07,11.54,7.62,18.05,10.35
				c8.38,3.52,17.02,5.19,25.89,6.26c3.26,0.39,5.77,2.49,8.81,3.4c6.81,2.05,13.53,4.43,20.23,6.82c1.86,0.66,3.9,1.47,5.24,2.82
				c3.57,3.6,7.59,6.4,12.15,8.57c6.49,3.09,9.83,8.86,13.17,14.92c4.41,7.99,9.65,15.51,14.57,23.22c0.85,1.33,1.6,2.61,0.58,4.12
				c-0.58,0.86-1.49,1.5-2.52,1.39c-1.86-0.19-1.31-1.99-1.86-3.09c-1.55-3.11-2.87-6.39-4.88-9.18
				c-4.1-5.69-7.32-11.89-10.79-17.94c-1.93-3.37-4.07-6.44-7.45-8.48c-9.03-5.45-16.7-13.45-27.24-15.97
				c-6.39-1.53-12.43-3.47-18.19-6.55c-1.21-0.65-2.98-0.65-4.4-0.42c-8.37,1.37-15.58-2.09-22.93-5.17
				c-9.13-3.83-17.05-10.44-27.4-11.53c-3.18-0.33-6.32,0.2-9.45-0.28c-1.16-0.18-2.49-0.35-2.51-1.89
				c-0.02-1.35,1.31-1.12,2.15-1.54c3.53-1.76,8-2.32,5.26-8.81c-1.09-2.57-1.23-8.02,2.49-10.82c2.29-1.72,1.9-2.67-0.22-3.97
				c-1.12-0.69-1.99-1.76-3.05-2.56c-1.28-0.97-3.23-1.52-2.24-3.77c0.94-2.15,1.87-4.34,4.68-4.67c0.98-0.12,2.03-0.48,2.67,0.61
				c0.49,0.84,0.01,1.58-0.46,2.29c-0.58,0.87-2.3,1.62-1.03,2.82c1.13,1.06,2.06-0.3,2.86-1.09
				C1015.46,239.56,1016.14,239.26,1017.25,239.8z M1030.84,213.06c0.53,2.47,1.03,4.73,1.5,7c0.23,1.1,0.05,2.83,1.45,2.8
				c1.89-0.04,1.47-1.94,1.38-3.14c-0.31-4.46-1.23-8.93,0.97-13.2c0.87-1.7,0.49-3.24-0.82-4.54c-0.94-0.93-2.11-1.05-3.2-0.31
				c-1.52,1.02-2.29,2.65-1.76,4.33C1031.12,208.43,1031.76,210.77,1030.84,213.06z M1020.61,259.72c-3.86,1.84-5.22,5.18-7.56,7.52
				c-0.65,0.66-0.96,1.9-0.02,2.67c1.04,0.85,1.84,0.07,2.35-0.82C1017.05,266.18,1018.65,263.24,1020.61,259.72z"/>
			<path d="M849.17,282.1c1.53-6.06,9.83-12.25,15.7-11.85c1.76,0.12,4.32,0.49,2.26-2.74c-0.38-0.6-0.64-1.32-0.05-1.8
				c4.24-3.45,0.51-5.73-1.22-8.24c-0.46-0.66-1.47-1.18-1.13-2.03c2.46-6.17,0.09-11.82-1.78-17.53c-0.49-1.48,1.69-2.13,0.85-4.03
				c-5.1,2.88-7.1,0.27-7.68-4.62c-0.13-1.09-1.05-1.61-1.85-2.22c-2.35-1.82,0.14-3.24,0.54-4.77c0.46-1.76,1.81-1.66,3.15-0.78
				c2.71,1.8,5.09,0.76,7.36-0.89c6.29-4.56,9.56-10.99,12.22-18.16c2.85-7.66,3.12-16.63,10.28-22.33
				c0.61,2.58,0.26,5.14-2.32,10.38c-3.29,6.67-6.32,13.41-8.09,20.66c-0.12,0.47-0.3,1.03-0.65,1.33
				c-7.31,6.28-6.97,15.04-7.41,23.44c-0.23,4.49,1.01,8.93,2.87,13c1.43,3.11,2.07,6.24,2.36,9.59c0.5,5.95,2.96,10.42,8.13,14.25
				c5.19,3.86,10.44,5.83,16.67,6.3c3.03,0.23,4.91,2.66,6.64,4.92c1.84,2.4,3.97,2.9,6.99,2.41c6.17-1,11.59-4.12,17.59-5.6
				c3.92-0.97,7.73-1.9,11.76-1.74c2.21,0.09,3.84-0.52,4.71-2.8c0.97-2.54,2.44-5.38,0.05-7.45c-6.66-5.78-7.29-14.57-11.32-21.64
				c-0.79-1.39-1.34-2.61-3.05-2.87c-4.47-0.67-6.65-3.78-7.33-7.78c-1.57-9.33-1.92-18.84-4.34-28.06
				c-0.98-3.74,0.95-6.97,3.78-9.24c2.7-2.17,3.87-4.29,2.36-7.69c-0.74-1.66-1-4.22,1.27-4.6c2.15-0.37,1.86,2.3,2.29,3.77
				c2.09,7.18,1,14.56,1.09,21.84c0.03,3.04,0.62,5.71,1.39,8.6c1.82,6.87,2.63,13.99,6.28,20.32c0.59,1.03,0.48,2.65,0.28,3.92
				c-0.7,4.43,1.67,7.43,4.77,9.81c5.73,4.42,5.54,11.24,7.31,17.23c0.58,1.97-0.13,4.24,0.23,6.43c0.43,2.64-3.06,6.03-5.23,5.02
				c-8.18-3.8-15.32,0.51-22.57,2.79c-6.48,2.05-12.99,3.28-19.58,4.63c-6.3,1.29-12.39-0.91-17.66,0.46
				c-7.35,1.92-15.17,4.78-20.83,10.81c-1.31,1.39-2.64,2.76-4.13,3.95c3.67-8.62,11.16-12.86,19.13-16.26
				c4.06-1.73,8.09-4.49,13.04-0.86c1.81,1.33,5.07-0.69,7.23-2.29c0.96-0.71,0.77-1.84-0.08-2.6c-1.56-1.38-3.81-2.69-5.4-1.35
				c-3.43,2.89-5.61,1.26-8.71-0.65c-3.15-1.94-7.13-1.04-10.7-0.1c-1.58,0.42-2.91,1.23-2.42-1.57c0.23-1.34-0.99-1.93-2.17-2.34
				c-1.08-0.38-2.34-0.64-3.14-1.36c-5.63-5.1-9.86-5.06-13.26,1.28c-1.75,3.26-3.65,3.8-6.62,3.54L849.17,282.1z"/>
			<path d="M849.03,281.97c-0.22,5.38-4.82,8.46-6.9,12.9c-1.83,3.9-0.47,8.26-2.67,12.02c-0.73,1.25,0.83,2.41,2.07,2.98
				c3.89,1.81,4.42,4.99,3.88,8.79c-0.32,2.3-0.44,4.65-0.42,6.97c0.02,1.41-0.11,3.45,1.83,3.56c1.72,0.1,1.59-1.88,1.83-3.08
				c0.35-1.79,0.77-3.67,0.56-5.44c-0.54-4.68,3.05-8.46,2.59-13.09c-0.06-0.58,0.47-1.33,1.31-1.12c1.04,0.26,1.23,1.34,0.9,1.99
				c-3.66,7.21-1.08,15.11-2.62,22.57c-1.73,8.37,0.52,16.85-0.26,25.29c-0.18,1.88,1.25,3.48,2.63,4.68
				c6.16,5.38,12.05,10.98,16.57,17.89c0.63,0.96,1.52,2.85,2.99,1.94c1.5-0.93,0.22-2.32-0.44-3.45c-0.77-1.31-1.33-2.68-0.26-4.66
				c2.81,2.27,3.57,5.55,4.15,8.46c0.52,2.61,1.67,4.66,3.07,6.69c3.01,4.38,4.16,4.39,7.73-0.02c2.3,3.53,1.8,7.5,1.61,11.04
				c-0.27,4.96,0.17,9.47,2.28,14.03c4.19,9.05,3.99,18.83,3.33,28.44c-0.44,6.48-0.85,12.9-0.31,19.37
				c0.11,1.33-0.18,2.82,0.33,3.95c4.66,10.34,3.76,21.19,2.89,31.98c-0.4,5.04,1.77,8.61,4.97,11.92c1.01,1.04,2.72,1.71,1.9,3.57
				c-0.3,0.67-1.13,1.44-1.81,1.53c-2,0.26-2.08-1.8-2.95-2.88c-4.81-6-6.6-13.16-4.54-20.23c2.04-7.01,0.15-13.36-1.69-19.44
				c-2.14-7.09-1.83-14.14-2.19-21.21c-0.33-6.46,0.18-12.97,0.53-19.45c0.17-3.17-1.07-5.84-2.26-8.58
				c-2.59-5.98-3.72-12.36-5.21-18.66c-1.48-6.25-4.75-11.4-9.97-15.62c-4.61-3.73-8.35-8.55-12.41-12.95
				c-2.71-2.93-5.08-6.21-8.41-8.49c-4.16-2.85-6.31-7.1-6.91-11.73c-1.09-8.43-4.22-16.35-5.53-24.7c-0.86-5.49-4.45-9.98-6-15.26
				c-1.05-3.57-2.1-6.97-0.87-10.71c1.41-4.26,0.39-8.62,0.02-12.9c-1.12-13.03,2.98-25.82,1.84-38.78
				c-1.21-13.68,3.25-26.69,4.19-40.1c0.18-2.55-0.06-4.99-0.4-7.43c-1.52-11.12,2.71-20.65,7.82-30.04
				c0.99-1.82,1.24-4.03,1.98-6.6c2.81,4.75-0.59,8.22-1.9,11.31c-4.68,11.06-4.83,22.53-4.73,34.13c0.03,4.29-0.13,8.4-2.08,12.52
				c-1.57,3.31,1.06,7.28-0.75,11.07c-3.86,8.14-2.25,16.98-2.55,25.56c-0.3,8.45-0.3,16.9,0.5,25.32c0.12,1.26-0.44,2.96,1.26,3.39
				c1.67,0.42,2.47-0.99,3.54-2.12c2.13-2.25,1.41-7,6.06-7.01C849.17,282.1,849.03,281.97,849.03,281.97z"/>
			<path d="M1141.13,602.06c1.3-3.34,2.99-6.22,2.68-9.61c-0.12-1.36,0.91-2.21,2.3-1.93c8.19,1.69,11.35-4.96,15.45-9.62
				c2.19-2.48,4.38-3.92,7.56-4.03c1.91-0.07,3.39,0.61,3.39,2.73c0,2.25-1.75,1.9-3.26,1.93c-6.52,0.12-12.07,6.43-11.32,12.54
				c0.32,2.64-2.04,4.4-2.9,6.68c-0.53,1.4-1.48,2.93,0.01,4.11c1.67,1.31,3.52-0.04,5.27-0.25c1.9-0.22,1.67-1.54,1.25-3
				c-1.14-3.97,3.09-5.18,4.76-6.65c4.14-3.65,7.69-9.82,15.06-7.4c2.05,0.67,4.44,0.82,5.19,3.28c0.73,2.37-1.83,2.84-2.81,4.24
				c-2.65,3.77-6.63,6.64-7.73,11.47c-0.2,0.88-1.46,1.68-0.4,2.63c1.1,0.98,2.31,0.29,3.17-0.43c2.91-2.47,6.28-4.83,7.66-8.37
				c1.99-5.07,4.33-9.72,8.4-13.41c0.92-0.83,0.73-1.76-0.27-2.5c-0.66-0.49-1.66-1.26-0.76-1.91c3.26-2.35,2.08-3.56-0.92-4.52
				c-0.92-0.29-1.34-0.89-1.11-1.88c0.95-4.15-1.4-2.79-3.27-1.88c-1.27,0.62-2.72,2.5-3.79,0.77c-1.01-1.63,1.43-2.29,2.43-3.18
				c4.51-4,6.69-3.27,10.06,1.56c1.35,1.94,1.85,6.35,4.73,5.45c3.32-1.04,6.04-4.37,6.58-8.16c0.76-5.33,1.8-10.33,4.81-15.02
				c3.01-4.68-0.61-10.45,2.01-16.8c1.91,7.34,3.82,13.17,1.49,19.97c-4.66,13.63-12.25,25.14-22.38,35.3
				c-3.42,3.43-5.66,8.06-8.31,12.22c-1.82,2.86-3.94,5.34-7.04,6.85c-1.91,0.93-4.15,1.49-5.63-0.11c-2.91-3.16-4.91-1.8-7.91,0.11
				c-5.74,3.67-12.26,4.78-18.96,2.74c-1.86-0.57-3.22-0.32-4.55,0.9c-1.42,1.3-3,2.51-4.82,0.99c-1.53-1.28-2.7-3.03-2.7-5.14
				c0-1.11,1.25-2.95,1.94-1.38c1.74,3.98,3.85,1.08,5.66,0.74c2.16-0.41,3.8-1.68,6.18,0.52c2.44,2.26,4.04-1,5.46-2.59
				c1.72-1.93,0.33-2.71-1.54-3.45c-2.98-1.18-3.52-3.22-1.6-5.93c0.85-1.2,3.17-2.43,1.16-4.09c-1.94-1.6-4.11-0.64-5.84,0.92
				C1144.45,598.82,1144.21,601.44,1141.13,602.06z M1177.77,595.95c0.29-1.49-0.47-1.71-1.36-1.79c-2.12-0.19-3.88-0.4-5.66,1.76
				c-3.66,4.44-6.98,9.03-9.73,14.08c-0.44,0.81-2.76,0.73-1.69,2.27c1.05,1.51,2.24,0.32,3.24-0.65c4.6-4.48,9.26-8.9,13.84-13.4
				C1177.09,597.55,1177.42,596.54,1177.77,595.95z"/>
			<path d="M871.41,153.57c-2.67,3.75-2.05,8.41-4.67,12.07c-0.66,0.93-1.78,1.71-1.13,3.05c0.41,0.85,1.27,0.98,2.15,0.79
				c1.29-0.28,2.16-1,1.99-2.41c-0.53-4.36,4.14-2.39,5.53-4.73c-4.2-3.61,0.28-6.01,1.74-8.46c1.84-3.08,4.65-5.62,7.24-8.2
				c1.52-1.52,2.52-2.99,2.21-5.23c-0.21-1.54,0.08-3.11,1.7-3.83c1.86-0.82,3.19,0.43,4.41,1.56c1.9,1.76,3.08,9.6,1.77,11.82
				c-0.29,0.5-0.95,1.1-1.43,1.09c-1.18-0.01-0.95-1.08-1-1.87c-0.16-2.68,1.79-6.93-1.3-7.6c-3.76-0.81-3.06,4.3-4.74,6.52
				c-3.87,5.12-4.54,11.65-7.69,17.12c-1.49,2.6,1.27,3.68,3.12,5.24c0.44-1.43,0.63-2.85,1.29-4c0.85-1.47,2.34-1.8,3.91-1.01
				c1.34,0.67,2.38,1.86,1.37,3.19c-4.58,6.05-3.63,15.15-10.92,19.71c-0.56,0.35-1.05,1.46-0.95,2.12
				c0.82,5.42-2.59,9.33-4.66,13.74c-1.82,3.89-4.18,5.74-8.63,3.7c-2.47-1.13-5.95-2.67-3.54,2.9c0.62,1.44-1.37,2.39-1.97,1.33
				c-0.99-1.76-5.53-2.15-2.96-4.9c1.06-1.13,1.86-8.27,6.26-2.38c0.25,0.34,1.08,0.71,1.25,0.58c2.81-2.26,4.55-5.21,4.94-8.79
				c0.26-2.38-0.74-3.93-3.52-3.35c-0.81,0.17-1.75,0.47-2.05-0.66c-0.4-1.48,0.73-2.1,1.79-2.6c3.97-1.86,7.47-4.26,10.22-7.77
				c1.98-2.53,2.67-5.31,2.58-8.38c-0.04-1.48,0.09-3.32-2.05-3.32c-1.64,0-2.22,1.53-2.22,2.86c-0.01,3.06,0.1,5.92-4.06,2.79
				c-4.95,3.7-5.04,0.4-6.29-3.52c-0.81-2.55-1.1-3.96,0.36-6.17c2.47-3.73,4.53-7.73,6.77-11.61
				C868.75,154.1,869.21,153.14,871.41,153.57z"/>
			<path d="M1130.1,766.36c-2.25-3.46-2.21-6.77-2.42-9.96c-1.05-16.1-2.02-32.28-5.48-48c-3.1-14.06-5.82-28.28-10.65-41.93
				c-0.87-2.46-1.34-5.24-0.16-7.31c2.46-4.32,1.5-8.43,0.9-12.9c-1.83-13.68-1.67-27.5-2.34-41.26
				c-0.41-8.41-2.82-16.54-6.63-24.22c-2.77-5.58-3.77-11.94-7.3-17.26c-0.69-1.04-0.4-2.93,0.78-3.62
				c1.76-1.02,2.18,0.88,2.73,1.95c3.6,7.12,6.6,14.41,8.1,22.36c0.77,4.06,3.79,7.42,4.47,11.81c0.69,4.44,1.62,8.83,1.53,13.35
				c-0.25,11.86,1.93,23.54,2.6,35.32c0.32,5.55,0.91,11.25-1.49,16.61c-0.49,1.09-1,2.32-0.44,3.37c3.28,6.2,3.67,13.28,6.33,19.78
				c3.22,7.88,5.02,16.6,6.14,25.01c2.24,16.78,2.88,33.77,4.11,50.68C1130.99,761.9,1131.34,763.77,1130.1,766.36z"/>
			<path d="M1214.89,466.91c0.04,5.2,1.22,9.73-3.2,12.79c-0.73,0.51-0.87,2.04-2.13,1.61c-1.01-0.34-1.55-1.46-1.32-2.46
				c1.21-5.19-2.22-10.53,1.09-15.87c1.5-2.42-0.75-5.91-0.64-9.16c0.35-10,0.26-20.48-4.32-29.37
				c-2.82-5.47-7.07-10.71-11.52-15.61c-8.43-9.28-19.3-15.61-27.61-24.86c-0.45-0.5-0.96-0.95-1.32-1.5
				c-0.77-1.21-2.39-2.73-0.97-3.9c1.69-1.4,2.46,0.92,3.33,1.89c3.48,3.86,7.3,7.26,11.77,9.96c8.48,5.12,13.31,13.75,19.86,20.72
				c4.07,4.33,8.6,8.04,10.85,13.95c3.44,9.03,3.37,18.56,4.96,27.85C1214.57,457.86,1214.58,462.9,1214.89,466.91z"/>
			<path d="M1155.14,458.87c5.47,11.47,11.96,21.59,16.29,32.78c2.57,6.63,7.65,11.99,9.56,18.88c1.91,6.9,7.15,12.56,7.36,20.05
				c0.06,2.19,2.12,3.35,2.6,5.29c0.23,0.94,0.48,2.12-0.77,2.51c-1.08,0.34-1.27-0.75-1.63-1.46c-0.46-0.91-0.25-2.7-2.08-1.97
				c-1.03,0.41-1.4,1.67-1.08,2.57c4.61,13-5.96,17-13.59,22.41c-2.67,1.9-5.4,5.14-10.52,3.61c5.73-3.9,10.75-7.53,15.99-10.79
				c3.76-2.34,5.58-5.53,5.8-9.8c0.4-7.6-0.62-14.89-2.04-22.48c-1.99-10.69-9.15-18.47-12.04-28.15
				c-3.02-10.09-10.61-17.53-13.81-27.33C1154.62,463.26,1153.62,461.67,1155.14,458.87z"/>
			<path d="M912.87,669.82c1.11,0.32,1.56,1.28,1.79,2.22c2.46,10.19,8.95,18.16,15.36,25.85c4.7,5.63,10.77,10.36,16.92,14.46
				c4.16,2.78,8.05,5.82,11.74,9.07c5.39,4.74,12.25,7.28,17.47,12.24c1.49,1.42,3.74,2.71,2.07,4.77c-2.03,2.5-2.87-0.71-4.11-1.6
				c-6.55-4.69-13.01-9.5-19.66-14.08c-8.16-5.62-16.78-11.12-23.38-18.34c-7.94-8.69-15.69-18.08-19.06-29.92
				C911.08,671.26,911.53,669.72,912.87,669.82z"/>
			<path d="M926,514.29c2.68-2.01,4.58-4.65,8.27-5.69c9.65-2.73,19.02-6.13,28.97-8.23c9.69-2.05,19.37-4.05,29.17-5.48
				c1.23-0.18,3.11-0.98,3.36,0.81c0.26,1.87-1.77,1.58-2.98,1.6c-6.31,0.09-11.9,3.08-17.74,4.79c-3.69,1.08-7.15,0.74-10.68,1.12
				c-7.33,0.8-13.97,4.32-21.3,5.07c-1.22,0.13-2.63,0.92-3.47,1.84C935.91,514.13,931.15,514.59,926,514.29z"/>
			<path d="M1143.73,385.84c-0.76-2.19,0.3-3.45,0.9-4.75c3.59-7.88,1.55-15.57-0.79-23.21c-0.49-1.6-1.67-3.36-0.37-4.66
				c1.83-1.82,2.83,0.67,4.03,1.48c6.53,4.42,11.13,14.59,9.36,21.75c-1.44-3.43-2.57-6.26-3.83-9.03
				c-0.61-1.34-1.37-3.17-3.04-2.81c-1.95,0.42-1.21,2.42-1.13,3.82C1149.16,374.31,1147.84,378.97,1143.73,385.84z"/>
			<path d="M1069.8,675.05c0.06,0.6,0.38,1.36,0.14,1.79c-7.73,13.89-12.84,29.09-21.46,42.55c-1.68,2.63-3.72,5.52-3.61,9.06
				c0.04,1.18-0.07,2.43-1.46,2.84c-0.34,0.1-1.05-0.2-1.23-0.52c-0.73-1.26-0.51-2.63,0.09-3.83c2.74-5.44,5.59-10.81,8.33-16.25
				c5.58-11.09,11.11-22.2,16.67-33.3C1067.76,676.4,1068.01,675.1,1069.8,675.05z"/>
			<path d="M1110.27,728.1c1.62,0.56,2.37,1.82,2.76,3.31c2.87,10.9,7.08,21.34,11.2,31.8c0.37,0.95,0.81,2.11-0.15,2.73
				c-1.53,0.97-2-0.63-2.48-1.54c-5.54-10.6-10.6-21.38-12.73-33.28C1108.65,729.93,1108.24,728.37,1110.27,728.1z"/>
			<path d="M964.85,424.48c0.59-2.19,2.16-2.72,3.51-2.96c7.65-1.39,15.29-2.96,23.01-3.76c6.07-0.63,12.26-0.08,18.39-0.33
				c3.94-0.16,7.01,1.8,10.26,3.4c0.75,0.37,1.46,1.04,1.09,1.98c-0.4,1.02-1.36,0.84-2.09,0.44c-9.51-5.26-19.9-4.01-29.75-2.65
				c-6.71,0.92-13.5,2.4-20.27,3.58C967.73,424.4,966.54,425.14,964.85,424.48z"/>
			<path d="M995.59,641.74c-15.19-4.75-30.84-6.68-40.9-20.14c-0.69-0.92-1.27-1.96-1.65-3.03c-0.18-0.5,0.06-1.4,0.44-1.79
				c0.5-0.51,1.28-0.21,1.7,0.37c9.82,13.58,25.26,17.45,39.7,23.07C994.98,640.25,995.01,640.48,995.59,641.74z"/>
			<path d="M1032.81,673.74c4.76-15.78,14.45-28.48,25.21-40.52c0.86-0.97,1.79-2.34,3.27-1.13c1.23,1.01,0.81,2.43,0.15,3.65
				c-0.3,0.57-0.74,1.16-1.28,1.48c-11.22,6.71-15.92,18.47-22.37,28.87c-1.6,2.58-1.76,6.12-5.08,7.53L1032.81,673.74z"/>
			<path d="M1086.84,552.29c1.48,7.56,1.21,14.34-0.18,20.58c-1.32,5.92-0.78,12.35-4.09,17.85c-1.44,2.4-2.54,5.01-3.77,7.53
				c-0.38,0.78-0.85,1.61-1.82,1.12c-0.85-0.44-0.83-1.36-0.39-2.17c6.92-12.55,8.22-26.28,8.43-40.24
				c0.01-0.99,0.19-1.97,0.37-2.95C1085.44,553.74,1085.78,553.52,1086.84,552.29z"/>
			<path d="M1214.8,528.1c-0.16-1.78-0.72-3.64-0.4-5.33c1.91-10.05,0.28-20.17,0.79-30.24c0.14-2.79-0.37-5.61-0.53-8.42
				c-0.05-0.81-0.07-1.85,0.84-2.12c1.36-0.4,1.63,0.88,1.87,1.76c0.31,1.1,0.6,2.3,0.48,3.42c-0.8,7.46,0.89,14.94,0.34,22.25
				c-0.46,6.19,0.1,12.77-2.08,18.82C1215.67,528.19,1215.23,528.15,1214.8,528.1z"/>
			<path d="M1094.37,625.69c-1.02-13.23-1.15-26.46,0.44-39.65C1097.62,599.3,1096.17,612.5,1094.37,625.69z"/>
			<path d="M1077.97,528.39c-3.12-1.94-6.42-0.98-9.64-1.14c-8.83-0.46-16.98-4.08-25.55-5.8c-1.02-0.2-2.73-0.6-2.29-2.05
				c0.52-1.72,2.28-1.1,3.44-0.7c5.79,2,11.64,3.65,17.68,4.78c3.17,0.59,6.29,0.66,9.44,0.53
				C1074.39,523.87,1076.47,525.43,1077.97,528.39z"/>
			<path d="M953.14,610.86c-0.11,1.23,0,2.36-1.22,2.73c-0.97,0.29-1.72-0.38-1.92-1.15c-1.55-6.05-6.6-9.36-10.48-13.59
				c-2.27-2.47-4.01-5.29-4.99-8.53c-0.24-0.8-0.38-1.73,0.4-2.28c0.82-0.58,1.69-0.16,2.12,0.6c4.29,7.55,10.52,13.62,15.56,20.59
				C952.97,609.72,953.01,610.46,953.14,610.86z"/>
			<path d="M1055.42,449.06c-8.68-7.26-19.11-11.06-29.58-15.51C1033.63,431.08,1053.19,441.15,1055.42,449.06z"/>
			<path d="M959,369.85c-7.93,3.69-14.09,8.87-22.12,10.15c-2.46,0.39-4.05,2.95-6.76,2.85c-1.1-0.04-2.62,0.53-2.98-0.94
				c-0.39-1.59,1.21-1.81,2.27-1.96c8.53-1.21,15.85-5.27,23.07-9.6C954.2,369.33,955.88,368.25,959,369.85z"/>
			<path d="M1092.59,353.42c2.84,0.72,3.95,2.72,4.25,5.46c0.65,5.95,2.03,11.68,4.65,17.15c1.29,2.69,1.11,5.8-1.05,9
				c-2.58-10.57-5.16-21.15-7.75-31.72L1092.59,353.42z"/>
			<path d="M1092.7,353.31c-0.99-1.14-1.94-2.33-1.88-3.94c0.22-6.53-2.61-12.22-4.92-18.06c-0.59-1.5-1.7-3.48,0.44-4.26
				c1.66-0.61,2.47,1.43,2.96,2.74c2.83,7.61,5.79,15.23,3.31,23.61C1092.59,353.42,1092.7,353.31,1092.7,353.31z"/>
			<path d="M907.48,617.04c2.2,2.88,4.04,5.23,5.05,8.31c1.53,4.65,2.77,9.54,6.92,12.86c0.98,0.78,2.08,2.2,0.64,3.34
				c-1.16,0.92-2.07-0.41-2.81-1.25c-2.51-2.84-5.24-5.54-5.13-9.81c0.08-3.1-3.17-4.52-3.91-7.28
				C907.76,621.42,905.81,619.96,907.48,617.04z"/>
			<path d="M1021.66,201.33c-4.99,5.78-9.04,10.83-13.52,15.45c-1.35,1.39-2.04,5.77-4.65,3.52c-1.91-1.65,1.98-3.4,3.14-5.12
				c2.63-3.92,5.08-8.06,8.84-11.12C1016.86,202.93,1018.1,201.59,1021.66,201.33z"/>
			<path d="M1032.72,673.63c0.31,6.2-3.86,10.78-5.96,16.1c-0.9,2.28-2.43,4.28-2.82,6.84c-0.31,2.03-1.63,3.29-3.83,3.15
				c-1.32-0.08-2.67-0.79-1.41-2.15c6.41-6.95,8.74-16.28,14.13-23.81C1032.81,673.74,1032.72,673.63,1032.72,673.63z"/>
			<path d="M956.17,222.5c3.45,1.64,8.16-1.91,10.77,3.14c1.03,1.99,2.69,1.62,4.06,0.21c0.92-0.94,1.77-1.65,2.84-0.38
				c0.83,0.98,2.04,1.99,1.51,3.43c-0.44,1.22-1.84,0.28-2.55,0.62c-3.37,1.63-5.6,1.37-7.97-2.13
				C963.04,224.73,958.49,225.5,956.17,222.5z"/>
			<path d="M1006.45,488.89c8.71,0.46,16.69-0.99,24.19,2.71c0.88,0.43,2.03,0.77,1.61,2.07c-0.23,0.72-1.09,0.75-1.68,0.37
				c-5.61-3.61-11.8-2.14-17.81-2C1010.53,492.11,1008.48,492.2,1006.45,488.89z"/>
			<path d="M928.82,491.31c-0.51,0.06-1.25-0.1-1.34-0.85c-0.07-0.55,0.19-1.46,0.59-1.68c1.58-0.87,3.22-1.77,4.94-2.23
				c3.81-1.03,7.94-0.51,11.62-2.37c0.77-0.39,2.1-0.51,2.47,0.8c0.29,1.03-0.7,1.32-1.42,1.71
				C940.51,489.57,934.4,489.11,928.82,491.31z"/>
			<path d="M893.05,173.89c-0.78-2.81,1.76-4.19,1.95-6.54c0.15-1.88,1.33-3.61-0.96-5.27c-2.1-1.52-0.29-2.88,1-3.87
				c1.82-1.4,3.19-0.38,3.99,1.25c1.58,3.19,0.43,6.19-1.3,8.88C896.44,170.33,894.44,171.82,893.05,173.89z"/>
			<path d="M963.22,367.4c7.65-1.74,15.3-2.37,22.96-0.39C978.53,369.21,970.87,367.6,963.22,367.4z"/>
			<path d="M1172.64,476.68c2.39,4.25,4.83,8.47,7.15,12.76c0.74,1.36,1.01,3.32-0.33,4.11c-1.88,1.11-2.5-1.08-3.06-2.25
				C1174.21,486.73,1171.72,482.23,1172.64,476.68z"/>
			<path d="M999.57,225.62c-0.97,3.04-3.13,4.91-3.76,7.85c-0.4,1.91-2.51,2.75-4.24,2.97c-1.43,0.18-2.2-1.33-2.36-2.74
				c-0.24-2.1,1.3-2.68,2.87-3.49C994.67,228.87,997.08,227.17,999.57,225.62z"/>
			<path d="M884.1,379.05c-0.66-7.91-1.16-15.83,1.28-23.78c0,7.88,0,15.75,0,23.63C884.95,378.95,884.53,379,884.1,379.05z"/>
			<path d="M1071.34,361.47c3.49,5.49,8.33,10.11,9.72,16.63C1078.06,372.36,1072.82,367.92,1071.34,361.47z"/>
			<path d="M958.83,483.47c2.43-2.12,11.84-3.59,13.72-2.35c0.34,0.22,0.75,0.96,0.65,1.11c-0.37,0.5-0.94,1.17-1.45,1.18
				C967.55,483.51,963.36,483.47,958.83,483.47z"/>
			<path d="M1000.68,248.67c-0.01,0.17-0.02,0.33-0.03,0.5c-0.22,2.48-0.54,4.99-2.91,6.4c-0.71,0.43-1.69-0.23-1.92-1.11
				c-0.69-2.6,0.19-4.91,1.71-6.97c0.63-0.86,1.29-2.28,2.7-1.55C1001.27,246.48,1000.69,247.72,1000.68,248.67z"/>
			<path d="M861.76,151.13c-2.81,4.45-5.63,8.9-8.44,13.36c0.9-5.69,3.33-10.43,7.26-14.25
				C860.97,150.53,861.36,150.83,861.76,151.13z"/>
			<path d="M984.74,275.3c4.65-1.15,9.27-3.02,14.13-0.58C994.11,273.92,989.53,276.44,984.74,275.3z"/>
			<path d="M863.72,148.37c0.89-4.4,4.34-6.82,7.3-9.64C869.95,142.93,867.68,146.26,863.72,148.37z"/>
			<path d="M1070.84,478.58c-3.06-0.25-5.63-0.44-8.19-0.68c-0.97-0.09-2.11-0.23-2.05-1.53c0.04-0.97,0.99-1.27,1.82-1.26
				C1065.49,475.14,1068.63,475.06,1070.84,478.58z"/>
			<path d="M1059.75,375.58c1.92,2.07,3.39,3.52,4.67,5.12c0.69,0.86,1.45,2.18,0.43,3.08c-1.37,1.21-2.46-0.15-3.2-1.12
				C1060.29,380.89,1058.88,379.03,1059.75,375.58z"/>
			<path d="M887.71,162.66c-1.25-2.54-1.82-5.02,0.47-7.12c0.85-0.78,1.97-0.54,2.51,0.45
				C892.46,159.26,888.85,160.42,887.71,162.66z"/>
			<path d="M965.79,279.4c-3.2,2.17-5.47,2.99-8.04,2.77c-0.86-0.07-1.73-0.51-1.72-1.46c0.01-0.99,0.91-1.28,1.78-1.3
				C960.07,279.39,962.34,279.4,965.79,279.4z"/>
			<path d="M1195.9,525.77c0.42,0.8,0.82,1.2,0.8,1.57c-0.11,2.2,1.28,4.52-0.49,6.55c-0.16,0.18-1.15,0.03-1.23-0.18
				C1193.93,531.07,1194.06,528.54,1195.9,525.77z"/>
			<path d="M984.66,479.11c-2.36,2.35-4.85,2.04-7.97,0.71C979.57,477.37,982.11,478.27,984.66,479.11z"/>
			<path d="M1022.58,196.03c-1.55-0.26-3.01-0.89-2.99-2.64c0.02-1.4,1.37-1.69,2.59-1.58c1.3,0.12,2.91,0.21,3.06,1.82
				C1025.38,195.21,1023.9,195.67,1022.58,196.03z"/>
			<path d="M948.09,323.47c-0.14,0.43-0.14,0.67-0.25,0.73c-2.26,1.37-4.6,1.31-6.92,0.2c-0.17-0.08-0.17-1.15,0.01-1.24
				C943.37,321.98,945.77,322.02,948.09,323.47z"/>
			<path d="M1201.15,560.06c0.27,4.02-0.2,6.32-2.71,7.57c-0.57,0.28-1.3-0.22-1.41-0.98
				C1196.6,563.45,1199.79,563.2,1201.15,560.06z"/>
			<path d="M1155.7,380.66c1.04,2.6,1.73,5.16-1.2,8.07C1153.78,385.36,1154.38,382.97,1155.7,380.66z"/>
			<path d="M888.27,343.21c0.52,3.48,1.22,5.79-1.43,8.03C885.69,348.43,885.88,346.28,888.27,343.21z"/>
			<path d="M958.16,699.9c1.14,0.1,1.61,0.01,1.73,0.18c1.23,1.67,3.8,2.11,4.18,4.51c0.04,0.23-0.73,0.88-1,0.81
				C960.45,704.74,959.22,702.79,958.16,699.9z"/>
			<path d="M1071.03,826.21c6.89,3.85,12.67,8.66,16.43,15.46c1.15,2.08-0.79,2.99-2.05,3.91c-1.55,1.12-3.35,1.61-5.11,0.42
				c-0.63-0.43-0.59-1.38,0.01-1.7c4.72-2.52,1.21-3.06-0.86-4.39C1074.5,836.73,1074.67,830.35,1071.03,826.21z"/>
			<path d="M1117.29,972.14c-4.02,0.91-7.67,1.16-11.31-0.2c-2.51-0.94-3.76-3.12-3.24-5.45c0.5-2.27,2.97-1.18,4.67-1.46
				C1112.97,964.12,1114.8,968.14,1117.29,972.14z"/>
			<path d="M1110.05,931.31c5.02-2.23,10.19-3.44,15.66-2.77c1.09,0.13,2.56,0.35,2.55,1.87c-0.01,1.54-1.44,1.72-2.57,1.74
				C1120.48,932.21,1115.25,932.45,1110.05,931.31z"/>
			<path d="M1126.71,914.69c-3.89,0.62-7.71,1.74-12.53,0.2C1119.07,912.86,1122.94,913.41,1126.71,914.69z"/>
		</g>
	</g>
	<g>
		<g>
			<path class="st0" d="M976.43,743.08c2.24,0.1,1.88,4.55,4.81,3.13c2.66-1.29,2.32-4.18,2.7-6.6c0.03-0.16,0.05-0.33,0.04-0.5
				c-0.26-8.2,1.59-15.4,9.17-20.06c1.32-0.81,3.14-1.95,2.26-3.93c-0.77-1.74-2.63-0.78-4.05-0.91c-7.62-0.7-15.13-1.94-22.21-5.03
				c-1.37-0.6-3.13-1.33-2.39-3.11c0.63-1.5,2.39-0.93,3.54-0.33c8.41,4.38,17.68,2.38,26.51,3.6c2.17,0.3,5.43,0.37,5.74-2.54
				c0.35-3.24-2.89-5.09-5.37-4.57c-5.8,1.22-10.72-1.27-15.97-2.46c-14.15-3.19-26.31-9.25-35.5-21.21
				c-6.46-8.41-13.33-16.54-19.66-25.08c-1.88-2.54-3.25-5.46-4.43-8.49c2.63,1.04,4.12,3.1,5.78,5.04
				c7.74,9.1,14.33,19.09,22.41,27.98c8.99,9.89,20.19,14.82,32.56,18.13c4.77,1.28,9.33,2.9,14.59,2.18
				c3.68-0.5,6.54,2.9,9.44,5.09c1.18,0.89,2.12,2.63,3.7,2.15c4.3-1.3,7.22,1.66,10.7,2.96c1.84,0.68,2.56,1.45,1.2,3.2
				c-0.82,1.05-1.07,2.28,0.22,3c1.71,0.96,2.14-0.6,2.9-1.72c1.75-2.59,2.26-5.61,2.58-8.51c1.25-11.42,7.34-20.91,12-30.96
				c2.37-5.13,4.97-10.15,7.55-15.17c0.56-1.09,1.01-3.12,2.55-2.48c1.81,0.76,0.79,2.72,0.24,3.94c-1.38,3.02-3.24,5.82-4.58,8.86
				c-2.96,6.67-5.01,13.74-9.16,19.9c-3.57,5.3-3.04,11.81-4.73,17.68c-1.98,6.86-3.96,13.73-5.62,20.68
				c-1.48,6.24,1.42,12.05,2.38,18.06c0.13,0.81,0.53,1.58,0.87,2.34c1.14,2.52,1.55,6.66,4.56,6.5c3.22-0.17,1.56-4.39,2.56-6.64
				c1.42-3.21,2.48-6.48,2.64-10.02c0.04-0.92,0.41-2.21,1.7-1.97c1.24,0.23,1.15,1.56,1.05,2.49c-0.61,5.41-2.79,10.44-3.89,15.76
				c-0.58,2.79-1.59,5.59-2.01,8.54c-0.68,4.74,1.31,9.89-2.74,14.23c-1,1.07-0.11,4.19,0.35,6.27c1.44,6.5,3.09,12.96,4.69,19.42
				c0.31,1.24,0.41,2.97,2.17,2.83c1.34-0.1,1.39-1.64,1.77-2.72c5.9-16.87,9.93-34.12,10.92-52.02c0.07-1.27-0.06-3.04,1.74-3.05
				c1.69-0.02,1.92,1.7,2.01,2.99c0.13,1.98,0.26,4.04-0.08,5.97c-2.13,11.93-3.41,24.04-6.98,35.67c-0.97,3.16-2.74,6.07-3.73,9.23
				c-3.01,9.6-1.18,19.49-1.19,29.24c-0.01,4.82,3.94,3.22,6.19,1.66c4.22-2.94,8.12-6.33,12.07-9.64
				c9.61-8.05,25.48-8.08,36.9-2.84c10.74,4.93,20.04,11.65,29.71,18.04c1.82,1.2,4.27,2.54,6.54,0.97
				c1.95-1.35,1.29-3.66,0.98-5.59c-2.84-17.93-4.98-35.94-6.45-54.02c-0.15-1.88-1.09-3.03-2.7-3.87c-1.09-0.57-1.92-1.45-1.4-2.83
				c0.38-1.02,1.29-1.51,2.32-1.67c1.31-0.2,2.31,0.39,2.86,1.53c0.43,0.89,0.81,1.85,0.95,2.82c0.99,6.97,4.22,13.52,2.96,20.98
				c-0.6,3.57,0.74,7.57,1.59,11.28c2.53,11.04,3,22.36,4.73,33.51c0.5,3.24,0.2,5.28-3.85,5.9c-5.82,0.9-7.7,6.67-7.73,10.75
				c-0.09,10.97-2.09,22.21,2.34,32.94c1.67,4.06,0.83,8.57,1.38,12.86c1.49,11.73,2.3,23.5,2.72,35.34
				c0.31,8.76-0.49,17.44-0.27,26.17c0.08,3.17-0.09,6.29-1.64,9.24c-0.94,1.78-1.18,3.88-0.63,5.86
				c2.39,8.63,2.44,17.49,2.23,26.28c-0.2,8.72,2.47,16.77,4.72,24.9c1.3,4.7,5.3,8.08,8.93,11.15c6.7,5.65,13.58,10.59,23.43,9.97
				c6.13-0.38,12.47,1.89,17.91,5.13c3.28,1.95,5.03,5.14,2.94,9.35c-2.36,4.76-4.12,9.84-6.71,14.45
				c-3.8,6.76-10.98,9.35-17.25,13.06c-4.73,2.8-10.33,2.48-15.27,4.95c-2.58,1.29-6.75-0.57-10.19-1.04
				c-5.01-0.69-9.75-0.28-14.69,1.44c-5.44,1.91-11.33,2.56-17.05,3.65c-1.23,0.23-3.62,0.03-2.79-1.53
				c2.09-3.91-0.99-5.6-2.78-7.56c-1.77-1.93-2.36-4.06-2.39-6.35c-0.1-9.15-1.3-18.27-0.74-27.44c0.33-5.36-4.7-11.25-10.16-11.56
				c-6.74-0.39-13-2.44-19.35-4.52c-6.55-2.15-13.56-0.55-20.33-1.34c-2.81-0.33-5.66-0.47-8.4-1.1c-3.03-0.69-5.14-2.15-5.88-5.83
				c-0.86-4.3-3.33-7.92-8.37-8.75c-12.45-2.04-23.88-7.86-36.43-9.75c-6.65-1-7.27-2.59-7.26-9.44c0.01-4.31-2.79-7.05-6.31-8.9
				c-6.6-3.49-13.48-6.38-19.65-10.73c-2.45-1.73-5.22-0.57-7.87,1.09c-7,4.37-13.49,9.59-21.85,11.68
				c-6.38,1.59-12.83,1.29-19.26,1.84c0.06,0.57,0.08,1.12,0.13,1.13c8.5,0.32,16.4,3.63,24.75,4.93
				c10.06,1.56,19.98,4.72,29.27,9.17c4.25,2.03,4.7,4.98,2.08,8.92c-0.83,1.25-1.57,2.59-2.6,3.65c-2.82,2.91-1.04,4.65,1.63,5.53
				c12.45,4.1,24.71,8.71,38.01,9.85c13.29,1.13,24.97,6.65,35.02,15.51c2,1.76,3.96,3.59,6.14,5.09c2.23,1.54,3.18,3.25,2.16,5.91
				c-1.09,2.82,0.3,4.88,2.41,6.49c3.95,3.01,8.24,4.57,13.45,4.22c7.2-0.47,14.29,0.93,20.79,4.1c3.87,1.89,7.9,2.48,12.02,3.06
				c1.85,0.26,4.25,0.65,3.89,2.88c-0.41,2.56-2.72,1.32-4.5,1.17c-6.09-0.52-11.47-2.89-16.96-5.38
				c-5.02-2.28-10.62-2.42-16.19-2.12c-6.59,0.36-12.5-1.43-17.24-6.31c-1.32-1.36-2.68-2.93-2.39-4.77
				c1.17-7.49-4.55-10.86-9.11-14.2c-7.89-5.77-16.35-10.09-26.73-11.06c-14.95-1.41-29.48-5.48-43.46-11.27
				c-5.07-2.1-6.04-4.54-2.98-8.96c0.66-0.96,1.3-1.93,1.98-2.88c2.69-3.75,1.91-6.16-2.47-8c-5.09-2.14-10.57-3.11-15.84-4.19
				c-11.34-2.34-22.22-6.82-34.04-7.11c-7.09-0.17-14.2-1.19-21.2-2.39c-4.34-0.75-8.06-3.57-12.12-5.3
				c-4.74-2.02-5.06-6.8-4.46-11.65c1.14-9.28,3.72-18.2,6.13-27.18c3.4-12.68,4.68-25.6,5.35-38.73
				c0.48-9.49,0.04-18.98-0.47-28.31c-0.49-8.92-2.75-17.94-4.19-26.92c-1.86-11.61-2.18-23.08,1.46-34.48
				c1.09-3.41,3.24-6.1,4.86-9.15c3.35-6.29,7.66-11.89,12.43-17.17c2.13-2.35,2.93-5.03,1.29-8.25c-1.31-2.57-0.96-5.53-0.8-8.37
				c0.27-4.82,0.72-9.6-1.18-14.31c-0.57-1.41-0.33-3.33,0.01-4.91c1.79-8.27,2.57-16.79,5.75-24.73
				c2.39-5.98,1.69-11.75-0.68-17.48c-2.05-4.97-2.35-9.84-0.56-15.07c1.87-5.49,2.05-11.43,4.07-16.96
				c0.85-2.32-0.98-4.52-2.33-6.37c-10.81-14.85-13.85-32.14-15.73-49.78c-0.34-3.15,0.91-6.2,1.18-9.36
				c0.97-11.37-2.32-22.17-4.2-33.08c-2.87-16.75,2.77-30.71,11.83-43.98c3.1-4.54,6.56-8.91,5.6-14.96
				c-0.3-1.86,1.06-3.04,1.89-4.46c2.5-4.26,1.72-6.56-2.86-8.4c-1.78-0.71-3.38-1.47-3.86-3.52c-0.35-1.52-0.48-3.23,0.85-4.17
				c1.84-1.29,2.01,0.93,2.78,1.77c2.62,2.86,5.82,2.16,8.79,1.11c3.14-1.1,6.05-1.31,9.34,0.23c-1.47,2.72-3.94,2.46-6.14,2.63
				c-1.87,0.14-3.39,0.65-3.4,2.79c-0.01,1.92-0.94,4.22,0.89,5.65c1.67,1.31,3.05-0.41,4.44-1.19c2.45-1.39,4.81-2.99,7.38-4.1
				c2.08-0.9,4.25-1.18,2.59-4.31c-0.55-1.04,0.52-1.97,1.6-2c8.75-0.2,15.7-5.99,24.14-7.47c13.23-2.32,26.16-6.66,39.72-6.58
				c8.24,0.05,15.99-3.16,24.18-2.77c6.08,0.29,11.55,2.26,16.12,6.37c-5.29,0.28-9.73-2.65-14.82-3.2
				c-4.21-0.45-8.11-0.53-12.21,0.82c-6.37,2.09-13.18,1.63-19.75,2.67c-11.42,1.82-22.84,3.21-33.61,8.22
				c-6.38,2.97-13.51,4.29-19.95,7.49c-5.14,2.56-10.34,4.97-15.07,8.24c-2.03,1.4-3.73,3.15-6.47,3.48
				c-2.03,0.25-2.37,2.27-1.76,3.96c0.68,1.87,2.33,1.77,3.74,0.92c14.07-8.44,30.26-10.73,45.58-15.46
				c5.47-1.69,10.97-3.98,16.91-4.03c0.81-0.01,1.94-0.08,2.36-0.59c6.02-7.29,14.19-3.39,21.37-3.94
				c10.71-0.82,20.99,3.85,31.39,4.22c11.53,0.41,21.17,6.56,32.3,7.6c4.18,0.39,7.35,4.66,11.83,5.93
				c2.91,0.83,6.03,1.58,8.81,3.31c2.93,1.83,5.85,1.28,7.23-2.45c1.3-3.5,0.31-5.86-3.56-6.66c-1.11-0.23-2.55-0.18-2.64-1.73
				c-0.09-1.4,1.07-1.99,2.23-2.32c4.24-1.23,3.56-4.7,3.49-7.79c-0.05-1.92-1.32-2.54-3.14-2.05c-7.06,1.89-14.25,0.95-21.39,1
				c-3.03,0.02-5.03-1.96-7.52-3.49c-5.53-3.42-10.7-9.46-16.3-10.13c-7.2-0.87-13.19-3.88-19.74-5.83
				c-3.96-1.17-7.93-0.5-11.9-0.45c-1.38,0.02-3.64,0.18-3.58-1.7c0.06-1.91,2.22-1.38,3.67-1.47c8.11-0.5,15.71,1.01,22.81,5.18
				c1.61,0.94,3.87,0.84,5.85,1.05c4.57,0.48,8.1,2.93,12.08,5.04c11.04,5.84,22.48,12.27,35.77,5.99c1.45-0.68,2.45-1.59,3.18-2.98
				c6.39-12.12,9.25-24.53,3.57-37.83c-1.96-4.6-3.36-9.39-3.81-14.43c-0.2-2.2-0.54-4.58,0.7-6.34c3.2-4.54,2.53-9.49,2.22-14.46
				c-0.2-3.15-0.22-6.24,0.15-9.43c0.49-4.29-2.36-7.97-4.74-11.04c-3.96-5.09-6.67-11.19-11.91-15.28
				c-0.78-0.61-1.68-1.56-0.95-2.52c0.98-1.27,2.1-0.28,3.03,0.38c2.21,1.56,4.22,3.46,5.36,5.85c2.34,4.9,6.51,8.41,9.29,12.95
				c0.52,0.84,1.12,1.9,2.3,1.4c1.03-0.44,1.07-1.63,1.04-2.63c-0.12-3.65-0.31-7.3-0.41-10.95c-0.03-1.01,0.18-2.12,1.32-2.43
				c1.28-0.34,1.52,0.88,2.1,1.66c5.98,8.02,11.29,8.88,19.52,3.22c3.25-2.23,6.53-4.43,10.16-6.19c-3.11,4.28-6.62,8.11-11.89,9.84
				c-1.73,0.57-3.6,0.74-5.08,1.94c-1.2,0.97-3.84,0.41-3.68,2.7c0.17,2.43,2.35,3.62,4.4,4.23c4.13,1.22,8.22,3.73,12.71,0.8
				c0.84-0.55,2.21-0.28,3.99-0.46c-4.98,7.27,2.27,7.32,5.06,8.52c4.94,2.11,9.74,4.64,14.61,6.82c4.2,1.88,3.97,7.39,4.13,11.64
				c-1.21,0.66-2.01,0.13-2.04-0.36c-0.42-6.53-6.76-7.57-10.45-10.9c-2.54-2.29-6.55-2.9-9.64-4.88
				c-5.12-3.29-9.89-6.93-16.63-7.13c-4.9-0.14-7.87-4.56-10.8-8.23c-0.85-1.07-1.82-2.11-3.34-1.61c-1.28,0.42-1.58,1.66-1.67,2.84
				c-0.94,12.21-4.09,24.1-5.08,36.33c-0.47,5.92,1.69,10.79,3.55,15.83c3.87,10.49,3.75,20.85,0.06,31.26
				c-1.6,4.51-0.83,10.22-6.48,12.77c-0.83,0.38-0.88,1.85-0.17,2.71c6.7,8.02,4.73,17.14,2.87,25.98
				c-0.81,3.85-1.29,7.09,1.31,10.31c0.59,0.73,0.88,1.79,1.04,2.75c0.16,0.94,0.25,2.16-1.01,2.46c-1.25,0.3-1.81-0.69-1.93-1.74
				c-0.21-1.88-0.65-4.32-1.99-4.95c-3.91-1.85-5.9-6.41-9.41-7.7c-12.99-4.78-26.13-9.02-38.61-15.24c-4-2-9.46-1.22-14.27-1.43
				c-5.43-0.23-10.5-1.82-15.38-3.92c-2.75-1.19-5.46-1.6-8.25-1.13c-18.38,3.07-36.75,6.42-54.51,12.1
				c-13.88,4.44-28.09,7.98-41.43,14.02c-1.9,0.86-4.08,2.27-4.94,4.02c-4.17,8.47-10.43,15.9-12.47,25.44
				c-2.27,10.65-0.65,21.25,1.12,31.62c2.41,14.15,8.78,27.09,14.67,40.11c1.76,3.88,4.72,6.82,7.29,10.03
				c10.98,13.68,21.45,27.83,33.58,40.51c8.98,9.39,20.05,15.7,33.05,18.2c1.38,0.27,4.08-0.07,3.47,2.44
				c-0.58,2.42-2.8,1.54-4.62,1.15c-20.42-4.34-35.13-16.74-47.2-33.05c-7.71-10.43-15.37-20.88-23.84-30.76
				c-5.27-6.15-8.05-14.07-11.35-21.51c-0.62-1.41-0.5-3.82-2.9-3.13c-1.9,0.55-1.74,2.61-1.65,4.3
				c0.96,19.22,5.71,37.03,16.33,53.59c9.7,15.12,20.52,29.36,31.11,43.78c4.01,5.45,9.05,10.06,10.44,17.11
				c0.47,2.4,1.53,4.67,1.38,7.07c-1.69,0.61-2.32-0.32-2.55-1.24c-3.06-11.86-11.39-20.49-18.33-29.96
				c-3.83-5.23-8.03-10.19-10.98-16.02c-0.89-1.76-2.05-4.37-4.16-3.38c-2.07,0.97-0.17,3.2,0.42,4.81
				c4.58,12.64,10.53,24.76,14.49,37.64c0.2,0.64,0.44,1.27,0.54,1.92c0.21,1.41,1.13,3.4-0.77,3.92c-2.17,0.58-1.83-1.75-2.31-3.03
				c-3.23-8.56-7-16.95-9.53-25.71c-2.07-7.17-6.23-13.53-7.45-20.94c-0.17-1.01-0.5-2.1-1.8-1.87c-1.15,0.21-1.27,1.35-1.54,2.33
				c-2.04,7.17-3.2,14.35,0.57,21.32c4.04,7.45,1.2,14.33-1.16,21.46c-2.07,6.27-3.43,12.79-4.92,19.24
				c-0.35,1.52-0.52,3.78,1.56,4.18c1.93,0.38,1.94-1.89,2.57-3.13c2.63-5.14,5.22-10.3,8.61-15.07c-2.39,6.26-3.87,12.85-7.6,18.49
				c-1.42,2.15-2.42,4.35-2.51,6.93c-0.13,3.7,2.11,4.86,4.68,2.95c4.05-3.02,8.34-3.68,12.68-2.09c6.08,2.22,12.19,4.9,15.88,10.65
				c2.53,3.95,5.74,6.81,9.97,8.72c2.67,1.2,4.65,3.36,5.71,6.02c2.59,6.48,6.25,12.5,8.15,19.27c0.35,1.24,0.37,2.86,2.09,3.04
				c1.73,0.18,3.14-1.19,3.46-2.42c1.14-4.31,4.79-8.19,3.93-12.66c-1.2-6.23-1.72-12.78-5.22-18.42c-4.15-6.7-6.4-14.27-9.5-21.45
				c-0.57-1.31-1.13-3.22,0.91-3.77c1.59-0.43,2.17,1.14,2.6,2.46c2.71,8.26,6.39,16.1,10.94,23.48c2,3.25,0.54,6.7,1.04,10.57
				c3.14-1.78,3.18-4.16,2.95-6.39c-0.6-5.78-1.41-11.55-2.19-17.31c-0.22-1.65-1.14-3.33-0.92-4.88
				c1.17-8.21-4.15-13.95-7.18-20.67c-5.07-11.22-13.3-20.67-17.54-32.29c-0.47-1.28-2.09-3.09-0.29-3.94
				c1.87-0.89,2.08,1.62,2.75,2.74c8.19,13.61,16.2,27.32,23.03,41.7c0.58,1.22,1.18,3.21,3.06,2.64c1.49-0.45,1.19-2.26,1.16-3.53
				c-0.15-6.26,2.85-12.91-2.36-18.6C975.01,745.36,975.15,743.89,976.43,743.08z M1099.62,1045.62c2.69,0.24,3.69-1.23,2.98-3.65
				c-1.82-6.21-3.32-12.45-4.05-18.91c-0.42-3.77-0.86-7.82-2.53-11.12c-5.58-10.97-8.13-23.16-14-33.97
				c-4.34-7.98-4.57-17.21-8.07-25.47c-1.39-3.28-2.43-6.93-3.13-10.41c-1.72-8.6-3.58-17.25-3.54-26.11
				c0.04-11.06-1.16-22.09,2.08-33.09c2.19-7.45,0.99-15.45-2.96-22.21c-2.68-4.58-5.55-8.88-7.26-14.03
				c-1.57-4.75-4.55-8.05-10.39-9.2c-6.61-1.31-7.52-0.2-8.14-8.82c-0.14-1.97-0.65-3.92-1.07-5.87
				c-2.58-11.88-7.47-23.12-9.72-35.1c-0.93-4.94-1.98-10.03-0.59-14.85c2.27-7.89-0.89-14.57-3.33-21.61
				c-2.72-7.88-7.02-15.54-4.56-24.42c0.48-1.75,0.34-3.9-1.77-3.92c-5.88-0.06-7.5-4.86-10.03-8.53c-2.39-3.47-5.08-4.27-7.42-0.69
				c-3.15,4.81-7.54,8.34-11.24,12.56c-2.37,2.71-3.44,6.28-3.69,10.12c-0.32,4.86-0.16,9.68-2.74,14.45
				c-1.41,2.61-3.07,5.78-3.27,9.23c-0.49,8.14,2.61,16.84-3.58,24.15c-0.18,0.22-0.27,0.7-0.15,0.96c2.33,5.18-0.28,11,2.14,16.17
				c0.98,2.1,0.52,4.08-0.19,6.26c-1.69,5.17-3.72,10.15-5.87,15.14c-1.93,4.5-3.8,8.48-7.94,10.93c-4.08,2.41-6.08,6.17-7.24,10.35
				c-1.7,6.14-4.29,12.09-7.45,17.31c-7.68,12.7-9.24,27.13-11.95,40.91c-2.47,12.51-6.44,24.3-10.86,36.01
				c-1.56,4.13-2.08,8-1.74,12.05c0.29,3.49,1.8,6.97,5.23,8.53c5.44,2.47,11.13,4.46,17.06,5.42c10.21,1.66,13.26,5.08,12.47,15.33
				c-0.34,4.34,1.43,6.28,5.25,7.73c6.37,2.41,12.74,4.95,18.48,8.71c4.6,3.02,8.46,6.51,7.54,12.9c-0.44,3.08,1.54,4.74,4.38,4.96
				c12.88,1.02,24.22,7.69,36.8,9.91c4.31,0.76,7.96,3.36,8.51,8.57c0.11,1.04,1.03,2.04,1.68,2.98c3.55,5.15,9.08,4.26,14.1,4.28
				c7.32,0.04,14.52-0.22,21.7,2.22C1085.96,1043.98,1092.69,1045.44,1099.62,1045.62z M1126.34,857.71
				c-0.16-14.57-0.15-14.58-10-23.09c-11.5-9.95-23.98-16.64-40.08-14.24c-8.24,1.23-15.74,5.8-15.48,12.68
				c0.25,6.65,0.5,13.79,4.84,19.54c4.48,5.94,7.88,12.19,7.96,19.86c0.02,1.9,0.81,3.58,3.05,2.58c4.08-1.81,8.87-0.86,12.57-2.38
				c10.74-4.41,20.94-0.04,31.32,0.59c4.93,0.3,7.2-0.81,6.38-5.61C1126.33,864.31,1126.42,861.03,1126.34,857.71z M1107.11,979.1
				c2.53-3.32,4.66-2.5,6.52-2.65c3.31-0.26,6.7-0.1,9.94-0.72c3.12-0.6,6.12-2.16,7.29-5.37c0.7-1.93-3.96-4.25,0.28-6.55
				c0.59-0.32-1.65-1.5-2.89-1.83c-3.62-0.96-7.36-0.79-11.09-1.18c3.3-1.87,6.85-1.83,10.42-1.9c1.54-0.03,4.04,0.82,4.3-1.25
				c0.27-2.2-2.38-2.33-4.05-2.89c-0.94-0.31-1.99-0.32-2.92-0.64c-5.36-1.84-10.99-0.12-16.3-1.05c-9.08-1.6-17.02,1.59-25.08,4.57
				c-1.4,0.52-3.64,1.76-2.77,3.53c1.04,2.14,3.35,0.89,4.8,0.05c3.98-2.3,8.51-2.89,12.79-4.03c4.44-1.18,9.22-0.87,13.77,0.24
				c-9.23,3.1-19.22,3.32-28.95,9.22c4.46,0.76,7.26-0.72,10.16-0.79c1.15-0.03,3.33-0.07,3.18,0.42c-1.23,4.14,3.58,3.21,4.6,5.58
				c-3.36,2.78-7.88,1.76-11.27,3.94c-1.23,0.79-3.17,1.05-2.48,3.04c0.76,2.2,2.4,1.62,4.11,0.91c3.8-1.57,7.75-2.52,12.02-2.32
				c-0.33,1.42-1.36,1.21-2.04,1.55c-2.08,1.03-2.25,2.71-1.59,4.64c0.42,1.21,1.2,2.23,2.59,1.52c2.64-1.35,4.35-0.79,4.36,2.26
				c0.02,3.04-2.24,3.72-4.85,3.69c-2.1-0.02-3.16-1.31-4.31-2.88c-1.02-1.38-2.78-0.78-4.18-0.31c-0.49,0.16-1.17,1-1.09,1.4
				c0.31,1.63,1.85,1.6,3.1,1.95c2.23,0.62,4.48,1.21,6.65,1.98c1.34,0.48,1.84,1.39,0.55,2.6c-1.18,1.1-4.53,0.44-3.53,3.07
				c0.74,1.95,3.33,0.26,5.05,0.6c0.49,0.1,1,0.13,1.46,0.29c1.19,0.42,2.16,1.15,1.75,2.56c-0.35,1.22-1.43,1.11-2.47,0.99
				c-1.89-0.23-3.79-0.37-6.55-0.62c4.39,2.24,4.39,2.23,1.88,5.78c-0.76,1.08-0.32,2.36,0.76,2.18c3.52-0.57,6.61,1.12,10.21,1.99
				c-2.72-5.02-2.41-5.53,2.75-5.4c0.66,0.02,1.32,0.14,1.99,0.19c1.33,0.1,3.11,0.34,3.16-1.39c0.05-1.63-1.73-1.01-2.8-1.08
				c-1.34-0.08-3.59-0.34-3.08-1.54c0.92-2.17,0.06-5.96,4.54-5.87c3.78,0.08,7.57-0.67,11.36-1.1c0.99-0.11,2.12-0.36,2.21-1.59
				c0.11-1.55-1.23-2.05-2.34-2c-2.98,0.15-5.95,0.64-8.93,0.85c-1.55,0.11-3.97,0.84-4.06-1.44c-0.07-1.89,2.4-1.01,3.71-1.45
				c2.94-0.99,6.56,1.08,10.18-2.73c-5.44,0.58-9.52-2.13-14.02-0.16c-1.88,0.82-4.04,0.47-4.34-1.79
				c-0.29-2.19,2.02-2.28,3.61-2.52c4.23-0.62,8.1,1.57,12.27,1.7c1.6,0.05,3.31,0.56,3.44-1.5c0.15-2.42-0.06-4.96-1.78-6.97
				c-0.14-0.16-0.96,0.03-1.28,0.29C1121.45,982.35,1114.77,977.74,1107.11,979.1z M1107.6,905.07c3.62,2.99,3.67,4.74-0.98,5.1
				c-1.9,0.15-2.85,1.41-0.97,2.95c1.4,1.15,2.63,2.06,1.44,4.07c-1,1.69-2.48,1.99-4.27,1.88c-3.48-0.22-6.97-0.42-10.46-0.5
				c-1.12-0.03-2.63,0.07-2.79,1.51c-0.18,1.71,1.46,1.54,2.51,1.6c2.17,0.12,3.84,0.9,4.87,2.89c1.2,2.33,2.9,4.04,5.67,4.38
				c0.85,0.11,1.71,0.48,1.79,1.44c0.09,0.94-0.64,1.42-1.47,1.75c-1.31,0.52-3.47,0.59-2.9,2.64c0.56,2.04,2.66,1.57,4.29,1.46
				c6.58-0.45,13.15,1.11,19.74,0.03c0.85-0.14,2.12-0.2,2.03,1.96c-9.31,1.65-19.62-2.03-28.35,3.82
				c5.28,1.21,10.32,3.36,15.76,2.05c1.6-0.39,3.27-0.57,4.91-0.68c0.86-0.06,1.71,0.45,1.83,1.36c0.14,1.01-0.77,1.44-1.57,1.6
				c-1.13,0.23-2.31,0.2-3.46,0.38c-10.88,1.64-22.26-1.99-32.84,3.12c-1.23,0.59-3.15-0.17-3.8,1.67c-0.36,1,0.05,2.04,0.82,2.73
				c1.64,1.48,3.06,0.16,4.55-0.47c2.56-1.08,4.79-2.63,7.79-3.04c12.49-1.7,24.83,0.69,37.24,0.91c1.71,0.03,3.59,0.64,3.93-1.68
				c0.32-2.22-1.59-2.61-3.26-2.94c-1.94-0.38-4.23,0.22-5.89-1.86c2.33-1.66,4.44-0.69,6.51-0.54c2.08,0.15,3.71-0.73,2.29-2.83
				c-2.5-3.7-1.6-7.19-0.33-10.86c1.91-5.52,0.94-6.65-5.01-6.82c-4.32-0.12-8.74,0.55-14.21-0.89c5-2.63,9.18-1.31,13.13-1.59
				c3.97-0.28,7.55-0.04,4.44-5.65c-0.31-0.57,0-1.61,0.27-2.35c1.29-3.56-0.28-4.48-3.59-4.35c-3.96,0.16-7.92,0.04-11.88,0.04
				c0.01-0.51,0.01-1.01,0.02-1.52c4.08,0,8.16,0.01,12.25-0.01c1.42-0.01,2.77-0.27,2.79-2.08c0.01-1.14-0.88-2.07-1.89-1.9
				C1121.85,904.97,1114.96,902.9,1107.6,905.07z M1125.99,1070.14c-2.35,1.41-6.34,1.51-5.49,5.72c1.49,7.41,1.58,7.39-5.59,10.04
				c-0.16,0.06-0.35,0.07-0.46,0.18c-1.64,1.64-5.82,1.62-4.86,4.68c0.9,2.85,4.32,3.83,7.44,3.79c1.12-0.01,2.22-0.83,3.35-0.89
				c9.26-0.55,18.2-4.9,27.74-2.29c1.23,0.34,3.07,0.65,3.48-0.91c0.39-1.49,0.03-3.27-0.36-4.83c-0.4-1.63-1.89-0.95-2.96-0.83
				c-3.27,0.37-6.33,1.63-9.81,1.26c-6.63-0.72-8.05-3.46-5.38-9.47c0.93-2.1-0.36-5.19,1.8-7.31c0.01-0.01-0.55-0.81-0.95-1.01
				c-1.92-0.94-3.59-2.56-5.87-2.59c-1.75-0.02-4.08-1.09-5.07,0.83C1121.67,1069.09,1125.65,1068.21,1125.99,1070.14z
				 M900.67,923.18c-1.83-1.28-2.83-1.88-3.7-2.62c-1.77-1.5-3.79-2.37-5.95-1.35c-2.08,0.99-1.35,3.23-1.35,4.94
				c0.01,4.59-1.31,9.18,0.42,13.78c1.83,4.89-3.24,8.06-3.46,12.49c-0.04,0.82-0.14,1.67-0.01,2.47c0.19,1.14,0.58,2.92,1.77,2.61
				c2.61-0.67,5.45-1.51,7.47-3.17c2.07-1.71-2.46-2.25-1.51-4.53c0.86-0.09,1.83-0.31,2.78-0.26c4.14,0.2,8.27,0.52,12.41,0.71
				c1.12,0.05,2.58,0.13,2.83-1.36c0.24-1.46-1.13-1.83-2.19-2.26c-2.4-0.97-4.87-0.88-7.37-0.48c-7.68,1.21-7.68,1.21-9.53-5.49
				c-0.09-0.32-0.27-0.61-0.36-0.93c-1.48-5.32,0.06-7.37,5.75-7.57c1.99-0.07,3.99,0.04,5.97-0.04c1.03-0.04,1.93-0.53,2.24-1.65
				c0.24-0.86,0.08-1.68-0.56-2.3c-0.99-0.94-1.84-0.31-2.57,0.41c-2.12,2.1-4.4,0.47-6.61,0.3c-0.84-0.06-1.62-0.58-1.58-1.58
				c0.05-1.04,0.95-1.22,1.78-1.4C898.11,923.74,898.88,923.57,900.67,923.18z M915.23,787.62c-2.22-0.64-3.6,0.55-3.79,2.62
				c-0.27,2.93,1.81,2.52,3.74,2.12c2.47-0.52,5.44-0.09,6.23,2.02c3.09,8.21,10.97,8.25,17.32,10.92c1.5,0.63,2.98,0.28,4.12-0.93
				c0.95-1.02,0.98-2.28-0.09-3.09c-3.82-2.88-5.44-7.8-9.1-10.48c-3.03-2.23-6.52-8.3-11.33-1.72c-0.61,0.84-1.58,0.26-2.21-0.27
				C918.7,787.63,916.85,788.37,915.23,787.62z M1122.32,891.7c-4.58-0.77-4.58-0.77-6.5-3.44c-1.68-2.34-5.84-2.15-7.44,0.57
				c-0.7,1.19-1.15,2.31-2.63,2.67c-1.32,0.32-2.76,0.78-2.32,2.58c0.43,1.76,2.03,2.21,3.54,2.2c6.15-0.03,12.32-0.06,18.46-0.38
				c3.3-0.17,4.46-2.06,2.67-5.11c-2.3-3.9-0.06-9.93-5.75-12.23c-0.08-0.03-0.06-0.31-0.07-0.48c-0.13-2.77-1.68-2.97-3.73-1.96
				c-1.74,0.85-3.6,0.5-5.39,0.79c-2.08,0.33-4.43-0.12-6.02,1.8c-0.46,0.55-0.49,1.39,0.15,1.76c2.28,1.31,4.79,1.12,7.26,0.75
				c0.62-0.09,1.26-0.47,1.75-0.88c2.24-1.91,3.71-1.06,4.42,1.38c0.51,1.77,2.28,2.36,3.36,4.38
				C1120.38,886.45,1120.07,888.52,1122.32,891.7z M1123.95,1014.91c-1.54,1.81-3.6,1.2-5.51,1.26c-3.48,0.11-6.97,0.25-10.45,0.47
				c-0.79,0.05-1.74,0.3-1.92,1.27c-0.21,1.08,0.73,1.49,1.5,1.64c7.28,1.4,14.57,0.97,21.73-0.64c1.86-0.42,5.03-2.85,3.17-4.42
				c-2.36-2-2.39-7.51-7.17-5.97c-2.28,0.74-4.74,1.86-6.39,3.79C1120.19,1014.42,1122.79,1012.8,1123.95,1014.91z M1144.76,1060.11
				c0-0.14,0-0.27-0.01-0.41c-3.32,0-6.65-0.05-9.97,0.03c-1.12,0.02-2.68-0.02-2.86,1.4c-0.24,1.89,1.54,1.8,2.78,2.04
				c7.96,1.54,15.9,0.74,23.83-0.26c1.5-0.19,3.33-0.41,2.98-2.46c-0.29-1.66-1.98-1.46-3.32-1.36
				C1153.72,1059.41,1149.24,1059.77,1144.76,1060.11z M1118.58,898.03c0-0.07-0.01-0.15-0.01-0.22c-3.82,0-7.64-0.1-11.45,0.06
				c-1.17,0.05-3.01,0.11-2.92,1.95c0.07,1.39,1.6,1.61,2.7,1.75c6.8,0.91,13.6-0.18,20.41-0.14c1.21,0.01,2.37-0.68,2.23-2.14
				c-0.17-1.83-1.61-1.8-3-1.71C1123.89,897.74,1121.23,897.88,1118.58,898.03z M907.57,986.23c-1.05-2.01-4.87-0.14-5-3.73
				c-0.14-4.1-4.26-5.82-6.46-8.71c-0.71-0.93-2.39-1.43-3.59-0.24c-1,1-0.33,2.12,0.03,3.24c1.38,4.25,1.45,9.68,8.38,8.59
				c0.6-0.09,1.32,0.95,2.07,1.3C904.48,987.36,906.04,988.29,907.57,986.23z M897.15,866.85c3.01,0,5.48,0.05,7.96-0.02
				c1-0.03,2.24-0.4,2.32-1.48c0.11-1.56-1.34-1.52-2.48-1.74c-4.87-0.92-10.16,1.03-14.7-2.42c-1.06-0.81-2.58,0-3.35,1.3
				c-0.7,1.17-1.12,2.43-0.52,3.77c0.7,1.56,2.01,1.34,3.38,1.19C892.4,867.16,895.03,867.01,897.15,866.85z M905.11,876.9
				c-1.93,0.83-3.53,1.86-5.71,1.19c-3.15-0.98-6.43-1.22-9.75-1.18c-1.26,0.02-2.7-0.89-3.45,0.78c-0.6,1.32,0.09,2.6,0.72,3.75
				c0.69,1.25,2.09,2.37,3.22,1.55c2.82-2.06,6.12-0.97,9.04-1.93C901.51,880.28,904.43,880.32,905.11,876.9z M1128.2,1034.74
				c2.74-0.39,3.46-2.08,2.29-4.22c-1.41-2.58-1.14-3.91,1.94-4.4c1.27-0.2,1.87-1.27,1.71-2.6c-0.11-0.9-0.63-1.7-1.48-1.75
				c-2.84-0.16-5.54,0.48-7.64,2.51c-0.81,0.78,0.94,9.72,1.79,10.09C1127.26,1034.55,1127.76,1034.62,1128.2,1034.74z
				 M1162.02,1092.17c7.45,0.07,12.32-5.14,18.27-7.77c1.31-0.58,2.86-2.48,1.36-4.15c-1.59-1.78-3.11-0.28-4.07,1.09
				c-1.65,2.39-4.09,3.52-6.36,5.1C1168.31,1088.46,1163.48,1087.14,1162.02,1092.17z M912.67,861.23c1.39,0.48,2.72,0.26,3.31-1.18
				c0.45-1.09-0.54-1.54-1.36-1.5c-5.72,0.26-11.15-1.1-16.58-2.64c-1.52-0.43-3.23,0.01-3.45,1.87c-0.22,1.82,1.5,1.92,2.79,2.05
				C902.47,860.33,907.57,860.77,912.67,861.23z M907.31,836.27c-3.7-0.16-7.21-0.14-10.68-1.2c-1.25-0.38-2.61,0.28-3.67,1.15
				c-0.97,0.79-1.47,1.82-0.9,3.05c0.47,1.02,1.45,1.44,2.46,1.24C898.92,839.63,903.3,838.65,907.31,836.27z M920.35,798.91
				c-0.62-1.91-2.21-2.88-3.81-3.72c-1.6-0.84-3.35-1.86-5.04-0.21c-1.15,1.12-3.01,2.22-2.28,4.07c0.91,2.29,2.51,1.3,4.03,0.29
				c1.59-1.06,2.76,0.46,4.1,0.96C918.74,800.83,919.97,800.79,920.35,798.91z M897.55,847.12c0.99,0,1.97,0.02,2.96-0.01
				c1.3-0.04,2.99,0.11,3.08-1.61c0.09-1.74-1.72-1.61-2.91-2.01c-3.26-1.1-6.51,0-9.77-0.04c-0.88-0.01-1.7,0.48-1.74,1.4
				c-0.06,1.26,1,1.57,2.01,1.68C893.29,846.78,895.42,846.94,897.55,847.12z M903.63,828.7c-1.42,0-2.25-0.02-3.07,0
				c-1.5,0.04-3.5,0.05-3.56,1.8c-0.07,1.91,2.05,1.77,3.46,1.87c2.46,0.18,4.93,0.08,7.28,1.05c1.14,0.47,2.37,0.56,2.87-0.88
				c0.55-1.56-0.35-2.62-1.76-2.98C906.96,829.1,904.99,828.92,903.63,828.7z M891.22,897.69c0.15,0.58,0.19,2.03,0.87,3.06
				c1.02,1.56,3.03,1.66,3.38-0.17c0.43-2.18,0.15-4.34,1.63-6.41c0.73-1.03-0.91-1.94-2.14-1.94
				C891.78,892.22,891.28,894.43,891.22,897.69z M911.14,848.1c4.18,1.47,8.36,2.56,12.74,1.04c0.79-0.27,1.73-0.54,1.31-1.6
				c-0.18-0.46-0.98-0.95-1.5-0.94C919.5,846.64,915.2,845.64,911.14,848.1z M1126.77,999.46c-0.72,0-1.21-0.03-1.7,0.01
				c-1.44,0.09-3.35-0.19-3.63,1.67c-0.32,2.17,1.72,1.9,3.09,2.14c0.48,0.08,1.01,0.03,1.46,0.19c2.63,0.95,5.98,1.69,6.12-1.98
				C1132.25,998.22,1128.31,1000.7,1126.77,999.46z M896.48,852.47c2.16,0.38,4.48,1.28,4.69-0.98c0.22-2.38-2.42-1.55-3.88-1.75
				c-1.96-0.27-3.96-0.36-5.94-0.28c-1.07,0.04-2.64,0.19-2.47,1.8c0.15,1.4,1.58,1.62,2.74,1.6
				C893.43,852.82,895.24,852.58,896.48,852.47z M1083.74,898.97c3.41-0.29,6.03-0.49,8.64-0.77c0.77-0.08,1.8-0.21,1.67-1.34
				c-0.12-1.03-1.11-1.1-1.9-1.15c-2.62-0.17-5.25-0.35-7.87-0.35c-1.43,0-3.47-0.03-3.33,1.98
				C1081.09,899.22,1083.11,898.91,1083.74,898.97z M1126.43,1048.42c-0.37-2.37-2.21-3-4.24-3.14c-1.39-0.09-3.58-0.31-3.39,1.69
				c0.23,2.42,2.77,3.01,4.77,3.55C1124.96,1050.89,1126.09,1050.09,1126.43,1048.42z M935.82,972.07
				c-2.48,1.02-5.03,0.65-7.43,1.18c-1.15,0.25-2.47,0.67-2.41,2.09c0.07,1.62,1.55,1.33,2.67,1.48
				C932.31,977.3,934.28,975.07,935.82,972.07z M1189.35,1066.91c-0.32-0.86-0.32-2.76-1.82-2.06c-2.81,1.31-3.5,4.54-4.97,7.02
				c-0.47,0.79,0.5,1.8,1.31,1.54C1186.88,1072.43,1188.89,1070.42,1189.35,1066.91z M1089.25,914.92c2.91,0.28,5.81,0.62,8.72,0.81
				c0.96,0.06,2.16-0.19,2.08-1.53c-0.07-1.2-1.25-1.65-2.18-1.62C1094.98,912.67,1092.04,912.69,1089.25,914.92z M899.28,905.79
				c-0.38-1.22-1.2-1.7-1.98-1.51c-2.13,0.52-3.94,1.65-4.9,3.73c-0.36,0.77,0.21,2.26,0.61,2.03
				C895.23,908.79,897.25,907.21,899.28,905.79z M1086.53,903.15c2.45,1.31,4.65,0.77,6.73,0.98c1.43,0.14,3.86,0.23,3.8-1.34
				c-0.09-2.5-2.57-1.29-3.98-1.17C1091.04,901.81,1088.73,900.97,1086.53,903.15z M920.59,977.28c-0.59-2.02-2.45-1.88-3.99-2.17
				c-0.89-0.17-2.34-0.43-2.29,0.99c0.07,1.79,1.21,3.09,3.17,3.13C918.82,979.24,920.13,978.94,920.59,977.28z M1090.21,908.9
				c2.76,0.69,5.32,2.85,8.38,0.87c0.26-0.17,0.36-1.2,0.25-1.25C1095.98,907.12,1093.11,907.35,1090.21,908.9z M1088.12,970.03
				c-1.33,0.31-3.19,0.03-3.4,2c-0.15,1.44,1.07,1.99,2.32,1.73c1.39-0.3,3.21-0.48,3.51-2.16
				C1090.84,969.95,1089.26,970.12,1088.12,970.03z M902.58,959.25c-1.15,0.1-2.11,0.52-2.1,1.71c0.03,2.01,1.54,2.76,3.23,3.12
				c0.89,0.19,1.8-0.28,1.68-1.25C905.18,961.12,904.36,959.73,902.58,959.25z M1111.12,1033.81c-1.27,0.18-3.07-0.26-3.28,1.48
				c-0.18,1.49,1.39,1.69,2.55,1.66c1.45-0.04,3.42,0.06,3.51-1.88C1113.97,1033.47,1112.15,1034.08,1111.12,1033.81z
				 M1075.7,935.71c1.19-1.08,2.9-2.16,3.9-3.7c0.62-0.96-0.81-1.63-1.8-1.48c-1.94,0.29-3.12,1.65-3.71,3.43
				C1073.78,934.86,1074.3,935.49,1075.7,935.71z M931.05,993.79c1.24-0.23,3.08,0.12,3.22-1.56c0.13-1.51-1.53-1.45-2.66-1.45
				c-1.31,0-3.06-0.04-3.2,1.6C928.28,993.98,929.92,993.74,931.05,993.79z"/>
			<path class="st0" d="M1017.25,239.8c-1.33,2.73-4.36,6.47,2.63,4.78c1.59-0.39,1.09,1.65,0.24,2.48
				c-1.51,1.48-3.14,2.82-3.82,5.57c4.66-0.73,6.27-4.66,9.2-6.73c0.35-0.25,0.19-1.23,0.26-1.88c0.14-1.46-4.19-0.68-1.65-3.36
				c2.07-2.18,4.35-2.1,7.45-0.37c-0.72-2.96,0.7-5.09,1.04-7.47c0.16-1.15,0.31-2.43-0.99-3.08c-1.1-0.55-1.87,0.16-2.55,0.96
				c-0.85,0.99-1.67,2.47-3.16,1.04c-1.1-1.07-0.78-2.44-0.04-3.69c0.58-0.98,1.64-2.04,0.49-3.1c-1.4-1.29-2.39,0.15-3.41,0.89
				c-1.49,1.07-2.91,1.71-4.3-0.8c5.45-1.36,7.14-4.72,5.51-10c-0.48-1.56,0.74-3.15,1.22-4.72c2.4-8.02,2.5-16.39,4.34-24.72
				c-2.63,0.14-1.9,1.43-2.07,2.25c-0.23,1.14-0.85,1.82-2.08,1.54c-0.9-0.2-1.48-0.9-1.46-1.79c0.04-1.32-0.07-2.85,0.54-3.89
				c1.72-2.94,0.96-5.68,0.26-8.66c-0.37-1.57-2.91-3.66,0.71-5.21c1.2-0.51-0.14-2.37-1.34-3.1c-2.73-1.67-3.94-4.58-5.8-6.82
				c-6.24-7.49-9.54-17.96-20.25-21.32c-1.97-0.62-3.86-0.77-5.83-0.98c-9.6-1.02-18.68,2.11-28,3.38
				c-5.83,0.79-10.14,3.74-15.14,6.61c-9.82,5.64-10.94,14.86-14.34,23.49c-0.93,2.36-2.57,4.45-4.23,6.45
				c2.15-12.51,5.41-23.62,16.75-32.2c13.01-9.86,27.42-9.14,41.73-9.56c19.29-0.57,29.59,12.55,37.68,27.83
				c1.76,3.33,4.87,6.72,1.67,11c-0.61,0.82-0.01,2.01,0.75,2.71c4.32,4,4.11,8.88,2.52,13.85c-1.18,3.68-0.03,5.72,3.51,6.82
				c3,0.93,3.98,3,3.77,6.15c-0.41,6.3-0.07,12.68-0.81,18.93c-0.93,7.89-1.27,16.04-7.23,22.5c-2.31,2.51-2.84,6.48-3.48,9.58
				c-0.89,4.34-2.99,7.58-5.26,10.96c-1.09,1.62-1.55,3.66,0.33,4.24c6.84,2.07,11.54,7.62,18.05,10.35
				c8.38,3.52,17.02,5.19,25.89,6.26c3.26,0.39,5.77,2.49,8.81,3.4c6.81,2.05,13.53,4.43,20.23,6.82c1.86,0.66,3.9,1.47,5.24,2.82
				c3.57,3.6,7.59,6.4,12.15,8.57c6.49,3.09,9.83,8.86,13.17,14.92c4.41,7.99,9.65,15.51,14.57,23.22c0.85,1.33,1.6,2.61,0.58,4.12
				c-0.58,0.86-1.49,1.5-2.52,1.39c-1.86-0.19-1.31-1.99-1.86-3.09c-1.55-3.11-2.87-6.39-4.88-9.18
				c-4.1-5.69-7.32-11.89-10.79-17.94c-1.93-3.37-4.07-6.44-7.45-8.48c-9.03-5.45-16.7-13.45-27.24-15.97
				c-6.39-1.53-12.43-3.47-18.19-6.55c-1.21-0.65-2.98-0.65-4.4-0.42c-8.37,1.37-15.58-2.09-22.93-5.17
				c-9.13-3.83-17.05-10.44-27.4-11.53c-3.18-0.33-6.32,0.2-9.45-0.28c-1.16-0.18-2.49-0.35-2.51-1.89
				c-0.02-1.35,1.31-1.12,2.15-1.54c3.53-1.76,8-2.32,5.26-8.81c-1.09-2.57-1.23-8.02,2.49-10.82c2.29-1.72,1.9-2.67-0.22-3.97
				c-1.12-0.69-1.99-1.76-3.05-2.56c-1.28-0.97-3.23-1.52-2.24-3.77c0.94-2.15,1.87-4.34,4.68-4.67c0.98-0.12,2.03-0.48,2.67,0.61
				c0.49,0.84,0.01,1.58-0.46,2.29c-0.58,0.87-2.3,1.62-1.03,2.82c1.13,1.06,2.06-0.3,2.86-1.09
				C1015.46,239.56,1016.14,239.26,1017.25,239.8z M1030.84,213.06c0.53,2.47,1.03,4.73,1.5,7c0.23,1.1,0.05,2.83,1.45,2.8
				c1.89-0.04,1.47-1.94,1.38-3.14c-0.31-4.46-1.23-8.93,0.97-13.2c0.87-1.7,0.49-3.24-0.82-4.54c-0.94-0.93-2.11-1.05-3.2-0.31
				c-1.52,1.02-2.29,2.65-1.76,4.33C1031.12,208.43,1031.76,210.77,1030.84,213.06z M1020.61,259.72c-3.86,1.84-5.22,5.18-7.56,7.52
				c-0.65,0.66-0.96,1.9-0.02,2.67c1.04,0.85,1.84,0.07,2.35-0.82C1017.05,266.18,1018.65,263.24,1020.61,259.72z"/>
			<path class="st0" d="M849.17,282.1c1.53-6.06,9.83-12.25,15.7-11.85c1.76,0.12,4.32,0.49,2.26-2.74c-0.38-0.6-0.64-1.32-0.05-1.8
				c4.24-3.45,0.51-5.73-1.22-8.24c-0.46-0.66-1.47-1.18-1.13-2.03c2.46-6.17,0.09-11.82-1.78-17.53c-0.49-1.48,1.69-2.13,0.85-4.03
				c-5.1,2.88-7.1,0.27-7.68-4.62c-0.13-1.09-1.05-1.61-1.85-2.22c-2.35-1.82,0.14-3.24,0.54-4.77c0.46-1.76,1.81-1.66,3.15-0.78
				c2.71,1.8,5.09,0.76,7.36-0.89c6.29-4.56,9.56-10.99,12.22-18.16c2.85-7.66,3.12-16.63,10.28-22.33
				c0.61,2.58,0.26,5.14-2.32,10.38c-3.29,6.67-6.32,13.41-8.09,20.66c-0.12,0.47-0.3,1.03-0.65,1.33
				c-7.31,6.28-6.97,15.04-7.41,23.44c-0.23,4.49,1.01,8.93,2.87,13c1.43,3.11,2.07,6.24,2.36,9.59c0.5,5.95,2.96,10.42,8.13,14.25
				c5.19,3.86,10.44,5.83,16.67,6.3c3.03,0.23,4.91,2.66,6.64,4.92c1.84,2.4,3.97,2.9,6.99,2.41c6.17-1,11.59-4.12,17.59-5.6
				c3.92-0.97,7.73-1.9,11.76-1.74c2.21,0.09,3.84-0.52,4.71-2.8c0.97-2.54,2.44-5.38,0.05-7.45c-6.66-5.78-7.29-14.57-11.32-21.64
				c-0.79-1.39-1.34-2.61-3.05-2.87c-4.47-0.67-6.65-3.78-7.33-7.78c-1.57-9.33-1.92-18.84-4.34-28.06
				c-0.98-3.74,0.95-6.97,3.78-9.24c2.7-2.17,3.87-4.29,2.36-7.69c-0.74-1.66-1-4.22,1.27-4.6c2.15-0.37,1.86,2.3,2.29,3.77
				c2.09,7.18,1,14.56,1.09,21.84c0.03,3.04,0.62,5.71,1.39,8.6c1.82,6.87,2.63,13.99,6.28,20.32c0.59,1.03,0.48,2.65,0.28,3.92
				c-0.7,4.43,1.67,7.43,4.77,9.81c5.73,4.42,5.54,11.24,7.31,17.23c0.58,1.97-0.13,4.24,0.23,6.43c0.43,2.64-3.06,6.03-5.23,5.02
				c-8.18-3.8-15.32,0.51-22.57,2.79c-6.48,2.05-12.99,3.28-19.58,4.63c-6.3,1.29-12.39-0.91-17.66,0.46
				c-7.35,1.92-15.17,4.78-20.83,10.81c-1.31,1.39-2.64,2.76-4.13,3.95c3.67-8.62,11.16-12.86,19.13-16.26
				c4.06-1.73,8.09-4.49,13.04-0.86c1.81,1.33,5.07-0.69,7.23-2.29c0.96-0.71,0.77-1.84-0.08-2.6c-1.56-1.38-3.81-2.69-5.4-1.35
				c-3.43,2.89-5.61,1.26-8.71-0.65c-3.15-1.94-7.13-1.04-10.7-0.1c-1.58,0.42-2.91,1.23-2.42-1.57c0.23-1.34-0.99-1.93-2.17-2.34
				c-1.08-0.38-2.34-0.64-3.14-1.36c-5.63-5.1-9.86-5.06-13.26,1.28c-1.75,3.26-3.65,3.8-6.62,3.54L849.17,282.1z"/>
			<path class="st0" d="M849.03,281.97c-0.22,5.38-4.82,8.46-6.9,12.9c-1.83,3.9-0.47,8.26-2.67,12.02
				c-0.73,1.25,0.83,2.41,2.07,2.98c3.89,1.81,4.42,4.99,3.88,8.79c-0.32,2.3-0.44,4.65-0.42,6.97c0.02,1.41-0.11,3.45,1.83,3.56
				c1.72,0.1,1.59-1.88,1.83-3.08c0.35-1.79,0.77-3.67,0.56-5.44c-0.54-4.68,3.05-8.46,2.59-13.09c-0.06-0.58,0.47-1.33,1.31-1.12
				c1.04,0.26,1.23,1.34,0.9,1.99c-3.66,7.21-1.08,15.11-2.62,22.57c-1.73,8.37,0.52,16.85-0.26,25.29
				c-0.18,1.88,1.25,3.48,2.63,4.68c6.16,5.38,12.05,10.98,16.57,17.89c0.63,0.96,1.52,2.85,2.99,1.94c1.5-0.93,0.22-2.32-0.44-3.45
				c-0.77-1.31-1.33-2.68-0.26-4.66c2.81,2.27,3.57,5.55,4.15,8.46c0.52,2.61,1.67,4.66,3.07,6.69c3.01,4.38,4.16,4.39,7.73-0.02
				c2.3,3.53,1.8,7.5,1.61,11.04c-0.27,4.96,0.17,9.47,2.28,14.03c4.19,9.05,3.99,18.83,3.33,28.44c-0.44,6.48-0.85,12.9-0.31,19.37
				c0.11,1.33-0.18,2.82,0.33,3.95c4.66,10.34,3.76,21.19,2.89,31.98c-0.4,5.04,1.77,8.61,4.97,11.92c1.01,1.04,2.72,1.71,1.9,3.57
				c-0.3,0.67-1.13,1.44-1.81,1.53c-2,0.26-2.08-1.8-2.95-2.88c-4.81-6-6.6-13.16-4.54-20.23c2.04-7.01,0.15-13.36-1.69-19.44
				c-2.14-7.09-1.83-14.14-2.19-21.21c-0.33-6.46,0.18-12.97,0.53-19.45c0.17-3.17-1.07-5.84-2.26-8.58
				c-2.59-5.98-3.72-12.36-5.21-18.66c-1.48-6.25-4.75-11.4-9.97-15.62c-4.61-3.73-8.35-8.55-12.41-12.95
				c-2.71-2.93-5.08-6.21-8.41-8.49c-4.16-2.85-6.31-7.1-6.91-11.73c-1.09-8.43-4.22-16.35-5.53-24.7c-0.86-5.49-4.45-9.98-6-15.26
				c-1.05-3.57-2.1-6.97-0.87-10.71c1.41-4.26,0.39-8.62,0.02-12.9c-1.12-13.03,2.98-25.82,1.84-38.78
				c-1.21-13.68,3.25-26.69,4.19-40.1c0.18-2.55-0.06-4.99-0.4-7.43c-1.52-11.12,2.71-20.65,7.82-30.04
				c0.99-1.82,1.24-4.03,1.98-6.6c2.81,4.75-0.59,8.22-1.9,11.31c-4.68,11.06-4.83,22.53-4.73,34.13c0.03,4.29-0.13,8.4-2.08,12.52
				c-1.57,3.31,1.06,7.28-0.75,11.07c-3.86,8.14-2.25,16.98-2.55,25.56c-0.3,8.45-0.3,16.9,0.5,25.32c0.12,1.26-0.44,2.96,1.26,3.39
				c1.67,0.42,2.47-0.99,3.54-2.12c2.13-2.25,1.41-7,6.06-7.01C849.17,282.1,849.03,281.97,849.03,281.97z"/>
			<path class="st0" d="M1141.13,602.06c1.3-3.34,2.99-6.22,2.68-9.61c-0.12-1.36,0.91-2.21,2.3-1.93
				c8.19,1.69,11.35-4.96,15.45-9.62c2.19-2.48,4.38-3.92,7.56-4.03c1.91-0.07,3.39,0.61,3.39,2.73c0,2.25-1.75,1.9-3.26,1.93
				c-6.52,0.12-12.07,6.43-11.32,12.54c0.32,2.64-2.04,4.4-2.9,6.68c-0.53,1.4-1.48,2.93,0.01,4.11c1.67,1.31,3.52-0.04,5.27-0.25
				c1.9-0.22,1.67-1.54,1.25-3c-1.14-3.97,3.09-5.18,4.76-6.65c4.14-3.65,7.69-9.82,15.06-7.4c2.05,0.67,4.44,0.82,5.19,3.28
				c0.73,2.37-1.83,2.84-2.81,4.24c-2.65,3.77-6.63,6.64-7.73,11.47c-0.2,0.88-1.46,1.68-0.4,2.63c1.1,0.98,2.31,0.29,3.17-0.43
				c2.91-2.47,6.28-4.83,7.66-8.37c1.99-5.07,4.33-9.72,8.4-13.41c0.92-0.83,0.73-1.76-0.27-2.5c-0.66-0.49-1.66-1.26-0.76-1.91
				c3.26-2.35,2.08-3.56-0.92-4.52c-0.92-0.29-1.34-0.89-1.11-1.88c0.95-4.15-1.4-2.79-3.27-1.88c-1.27,0.62-2.72,2.5-3.79,0.77
				c-1.01-1.63,1.43-2.29,2.43-3.18c4.51-4,6.69-3.27,10.06,1.56c1.35,1.94,1.85,6.35,4.73,5.45c3.32-1.04,6.04-4.37,6.58-8.16
				c0.76-5.33,1.8-10.33,4.81-15.02c3.01-4.68-0.61-10.45,2.01-16.8c1.91,7.34,3.82,13.17,1.49,19.97
				c-4.66,13.63-12.25,25.14-22.38,35.3c-3.42,3.43-5.66,8.06-8.31,12.22c-1.82,2.86-3.94,5.34-7.04,6.85
				c-1.91,0.93-4.15,1.49-5.63-0.11c-2.91-3.16-4.91-1.8-7.91,0.11c-5.74,3.67-12.26,4.78-18.96,2.74c-1.86-0.57-3.22-0.32-4.55,0.9
				c-1.42,1.3-3,2.51-4.82,0.99c-1.53-1.28-2.7-3.03-2.7-5.14c0-1.11,1.25-2.95,1.94-1.38c1.74,3.98,3.85,1.08,5.66,0.74
				c2.16-0.41,3.8-1.68,6.18,0.52c2.44,2.26,4.04-1,5.46-2.59c1.72-1.93,0.33-2.71-1.54-3.45c-2.98-1.18-3.52-3.22-1.6-5.93
				c0.85-1.2,3.17-2.43,1.16-4.09c-1.94-1.6-4.11-0.64-5.84,0.92C1144.45,598.82,1144.21,601.44,1141.13,602.06z M1177.77,595.95
				c0.29-1.49-0.47-1.71-1.36-1.79c-2.12-0.19-3.88-0.4-5.66,1.76c-3.66,4.44-6.98,9.03-9.73,14.08c-0.44,0.81-2.76,0.73-1.69,2.27
				c1.05,1.51,2.24,0.32,3.24-0.65c4.6-4.48,9.26-8.9,13.84-13.4C1177.09,597.55,1177.42,596.54,1177.77,595.95z"/>
			<path class="st0" d="M871.41,153.57c-2.67,3.75-2.05,8.41-4.67,12.07c-0.66,0.93-1.78,1.71-1.13,3.05
				c0.41,0.85,1.27,0.98,2.15,0.79c1.29-0.28,2.16-1,1.99-2.41c-0.53-4.36,4.14-2.39,5.53-4.73c-4.2-3.61,0.28-6.01,1.74-8.46
				c1.84-3.08,4.65-5.62,7.24-8.2c1.52-1.52,2.52-2.99,2.21-5.23c-0.21-1.54,0.08-3.11,1.7-3.83c1.86-0.82,3.19,0.43,4.41,1.56
				c1.9,1.76,3.08,9.6,1.77,11.82c-0.29,0.5-0.95,1.1-1.43,1.09c-1.18-0.01-0.95-1.08-1-1.87c-0.16-2.68,1.79-6.93-1.3-7.6
				c-3.76-0.81-3.06,4.3-4.74,6.52c-3.87,5.12-4.54,11.65-7.69,17.12c-1.49,2.6,1.27,3.68,3.12,5.24c0.44-1.43,0.63-2.85,1.29-4
				c0.85-1.47,2.34-1.8,3.91-1.01c1.34,0.67,2.38,1.86,1.37,3.19c-4.58,6.05-3.63,15.15-10.92,19.71c-0.56,0.35-1.05,1.46-0.95,2.12
				c0.82,5.42-2.59,9.33-4.66,13.74c-1.82,3.89-4.18,5.74-8.63,3.7c-2.47-1.13-5.95-2.67-3.54,2.9c0.62,1.44-1.37,2.39-1.97,1.33
				c-0.99-1.76-5.53-2.15-2.96-4.9c1.06-1.13,1.86-8.27,6.26-2.38c0.25,0.34,1.08,0.71,1.25,0.58c2.81-2.26,4.55-5.21,4.94-8.79
				c0.26-2.38-0.74-3.93-3.52-3.35c-0.81,0.17-1.75,0.47-2.05-0.66c-0.4-1.48,0.73-2.1,1.79-2.6c3.97-1.86,7.47-4.26,10.22-7.77
				c1.98-2.53,2.67-5.31,2.58-8.38c-0.04-1.48,0.09-3.32-2.05-3.32c-1.64,0-2.22,1.53-2.22,2.86c-0.01,3.06,0.1,5.92-4.06,2.79
				c-4.95,3.7-5.04,0.4-6.29-3.52c-0.81-2.55-1.1-3.96,0.36-6.17c2.47-3.73,4.53-7.73,6.77-11.61
				C868.75,154.1,869.21,153.14,871.41,153.57z"/>
			<path class="st0" d="M1130.1,766.36c-2.25-3.46-2.21-6.77-2.42-9.96c-1.05-16.1-2.02-32.28-5.48-48
				c-3.1-14.06-5.82-28.28-10.65-41.93c-0.87-2.46-1.34-5.24-0.16-7.31c2.46-4.32,1.5-8.43,0.9-12.9
				c-1.83-13.68-1.67-27.5-2.34-41.26c-0.41-8.41-2.82-16.54-6.63-24.22c-2.77-5.58-3.77-11.94-7.3-17.26
				c-0.69-1.04-0.4-2.93,0.78-3.62c1.76-1.02,2.18,0.88,2.73,1.95c3.6,7.12,6.6,14.41,8.1,22.36c0.77,4.06,3.79,7.42,4.47,11.81
				c0.69,4.44,1.62,8.83,1.53,13.35c-0.25,11.86,1.93,23.54,2.6,35.32c0.32,5.55,0.91,11.25-1.49,16.61c-0.49,1.09-1,2.32-0.44,3.37
				c3.28,6.2,3.67,13.28,6.33,19.78c3.22,7.88,5.02,16.6,6.14,25.01c2.24,16.78,2.88,33.77,4.11,50.68
				C1130.99,761.9,1131.34,763.77,1130.1,766.36z"/>
			<path class="st0" d="M1214.89,466.91c0.04,5.2,1.22,9.73-3.2,12.79c-0.73,0.51-0.87,2.04-2.13,1.61
				c-1.01-0.34-1.55-1.46-1.32-2.46c1.21-5.19-2.22-10.53,1.09-15.87c1.5-2.42-0.75-5.91-0.64-9.16c0.35-10,0.26-20.48-4.32-29.37
				c-2.82-5.47-7.07-10.71-11.52-15.61c-8.43-9.28-19.3-15.61-27.61-24.86c-0.45-0.5-0.96-0.95-1.32-1.5
				c-0.77-1.21-2.39-2.73-0.97-3.9c1.69-1.4,2.46,0.92,3.33,1.89c3.48,3.86,7.3,7.26,11.77,9.96c8.48,5.12,13.31,13.75,19.86,20.72
				c4.07,4.33,8.6,8.04,10.85,13.95c3.44,9.03,3.37,18.56,4.96,27.85C1214.57,457.86,1214.58,462.9,1214.89,466.91z"/>
			<path class="st0" d="M1155.14,458.87c5.47,11.47,11.96,21.59,16.29,32.78c2.57,6.63,7.65,11.99,9.56,18.88
				c1.91,6.9,7.15,12.56,7.36,20.05c0.06,2.19,2.12,3.35,2.6,5.29c0.23,0.94,0.48,2.12-0.77,2.51c-1.08,0.34-1.27-0.75-1.63-1.46
				c-0.46-0.91-0.25-2.7-2.08-1.97c-1.03,0.41-1.4,1.67-1.08,2.57c4.61,13-5.96,17-13.59,22.41c-2.67,1.9-5.4,5.14-10.52,3.61
				c5.73-3.9,10.75-7.53,15.99-10.79c3.76-2.34,5.58-5.53,5.8-9.8c0.4-7.6-0.62-14.89-2.04-22.48
				c-1.99-10.69-9.15-18.47-12.04-28.15c-3.02-10.09-10.61-17.53-13.81-27.33C1154.62,463.26,1153.62,461.67,1155.14,458.87z"/>
			<path class="st0" d="M912.87,669.82c1.11,0.32,1.56,1.28,1.79,2.22c2.46,10.19,8.95,18.16,15.36,25.85
				c4.7,5.63,10.77,10.36,16.92,14.46c4.16,2.78,8.05,5.82,11.74,9.07c5.39,4.74,12.25,7.28,17.47,12.24
				c1.49,1.42,3.74,2.71,2.07,4.77c-2.03,2.5-2.87-0.71-4.11-1.6c-6.55-4.69-13.01-9.5-19.66-14.08
				c-8.16-5.62-16.78-11.12-23.38-18.34c-7.94-8.69-15.69-18.08-19.06-29.92C911.08,671.26,911.53,669.72,912.87,669.82z"/>
			<path class="st0" d="M926,514.29c2.68-2.01,4.58-4.65,8.27-5.69c9.65-2.73,19.02-6.13,28.97-8.23
				c9.69-2.05,19.37-4.05,29.17-5.48c1.23-0.18,3.11-0.98,3.36,0.81c0.26,1.87-1.77,1.58-2.98,1.6c-6.31,0.09-11.9,3.08-17.74,4.79
				c-3.69,1.08-7.15,0.74-10.68,1.12c-7.33,0.8-13.97,4.32-21.3,5.07c-1.22,0.13-2.63,0.92-3.47,1.84
				C935.91,514.13,931.15,514.59,926,514.29z"/>
			<path class="st0" d="M1143.73,385.84c-0.76-2.19,0.3-3.45,0.9-4.75c3.59-7.88,1.55-15.57-0.79-23.21
				c-0.49-1.6-1.67-3.36-0.37-4.66c1.83-1.82,2.83,0.67,4.03,1.48c6.53,4.42,11.13,14.59,9.36,21.75c-1.44-3.43-2.57-6.26-3.83-9.03
				c-0.61-1.34-1.37-3.17-3.04-2.81c-1.95,0.42-1.21,2.42-1.13,3.82C1149.16,374.31,1147.84,378.97,1143.73,385.84z"/>
			<path class="st0" d="M1069.8,675.05c0.06,0.6,0.38,1.36,0.14,1.79c-7.73,13.89-12.84,29.09-21.46,42.55
				c-1.68,2.63-3.72,5.52-3.61,9.06c0.04,1.18-0.07,2.43-1.46,2.84c-0.34,0.1-1.05-0.2-1.23-0.52c-0.73-1.26-0.51-2.63,0.09-3.83
				c2.74-5.44,5.59-10.81,8.33-16.25c5.58-11.09,11.11-22.2,16.67-33.3C1067.76,676.4,1068.01,675.1,1069.8,675.05z"/>
			<path class="st0" d="M1110.27,728.1c1.62,0.56,2.37,1.82,2.76,3.31c2.87,10.9,7.08,21.34,11.2,31.8
				c0.37,0.95,0.81,2.11-0.15,2.73c-1.53,0.97-2-0.63-2.48-1.54c-5.54-10.6-10.6-21.38-12.73-33.28
				C1108.65,729.93,1108.24,728.37,1110.27,728.1z"/>
			<path class="st0" d="M964.85,424.48c0.59-2.19,2.16-2.72,3.51-2.96c7.65-1.39,15.29-2.96,23.01-3.76
				c6.07-0.63,12.26-0.08,18.39-0.33c3.94-0.16,7.01,1.8,10.26,3.4c0.75,0.37,1.46,1.04,1.09,1.98c-0.4,1.02-1.36,0.84-2.09,0.44
				c-9.51-5.26-19.9-4.01-29.75-2.65c-6.71,0.92-13.5,2.4-20.27,3.58C967.73,424.4,966.54,425.14,964.85,424.48z"/>
			<path class="st0" d="M995.59,641.74c-15.19-4.75-30.84-6.68-40.9-20.14c-0.69-0.92-1.27-1.96-1.65-3.03
				c-0.18-0.5,0.06-1.4,0.44-1.79c0.5-0.51,1.28-0.21,1.7,0.37c9.82,13.58,25.26,17.45,39.7,23.07
				C994.98,640.25,995.01,640.48,995.59,641.74z"/>
			<path class="st0" d="M1032.81,673.74c4.76-15.78,14.45-28.48,25.21-40.52c0.86-0.97,1.79-2.34,3.27-1.13
				c1.23,1.01,0.81,2.43,0.15,3.65c-0.3,0.57-0.74,1.16-1.28,1.48c-11.22,6.71-15.92,18.47-22.37,28.87
				c-1.6,2.58-1.76,6.12-5.08,7.53L1032.81,673.74z"/>
			<path class="st0" d="M1086.84,552.29c1.48,7.56,1.21,14.34-0.18,20.58c-1.32,5.92-0.78,12.35-4.09,17.85
				c-1.44,2.4-2.54,5.01-3.77,7.53c-0.38,0.78-0.85,1.61-1.82,1.12c-0.85-0.44-0.83-1.36-0.39-2.17
				c6.92-12.55,8.22-26.28,8.43-40.24c0.01-0.99,0.19-1.97,0.37-2.95C1085.44,553.74,1085.78,553.52,1086.84,552.29z"/>
			<path class="st0" d="M1214.8,528.1c-0.16-1.78-0.72-3.64-0.4-5.33c1.91-10.05,0.28-20.17,0.79-30.24
				c0.14-2.79-0.37-5.61-0.53-8.42c-0.05-0.81-0.07-1.85,0.84-2.12c1.36-0.4,1.63,0.88,1.87,1.76c0.31,1.1,0.6,2.3,0.48,3.42
				c-0.8,7.46,0.89,14.94,0.34,22.25c-0.46,6.19,0.1,12.77-2.08,18.82C1215.67,528.19,1215.23,528.15,1214.8,528.1z"/>
			<path class="st0" d="M1094.37,625.69c-1.02-13.23-1.15-26.46,0.44-39.65C1097.62,599.3,1096.17,612.5,1094.37,625.69z"/>
			<path class="st0" d="M1077.97,528.39c-3.12-1.94-6.42-0.98-9.64-1.14c-8.83-0.46-16.98-4.08-25.55-5.8
				c-1.02-0.2-2.73-0.6-2.29-2.05c0.52-1.72,2.28-1.1,3.44-0.7c5.79,2,11.64,3.65,17.68,4.78c3.17,0.59,6.29,0.66,9.44,0.53
				C1074.39,523.87,1076.47,525.43,1077.97,528.39z"/>
			<path class="st0" d="M953.14,610.86c-0.11,1.23,0,2.36-1.22,2.73c-0.97,0.29-1.72-0.38-1.92-1.15
				c-1.55-6.05-6.6-9.36-10.48-13.59c-2.27-2.47-4.01-5.29-4.99-8.53c-0.24-0.8-0.38-1.73,0.4-2.28c0.82-0.58,1.69-0.16,2.12,0.6
				c4.29,7.55,10.52,13.62,15.56,20.59C952.97,609.72,953.01,610.46,953.14,610.86z"/>
			<path class="st0" d="M1055.42,449.06c-8.68-7.26-19.11-11.06-29.58-15.51C1033.63,431.08,1053.19,441.15,1055.42,449.06z"/>
			<path class="st0" d="M959,369.85c-7.93,3.69-14.09,8.87-22.12,10.15c-2.46,0.39-4.05,2.95-6.76,2.85
				c-1.1-0.04-2.62,0.53-2.98-0.94c-0.39-1.59,1.21-1.81,2.27-1.96c8.53-1.21,15.85-5.27,23.07-9.6
				C954.2,369.33,955.88,368.25,959,369.85z"/>
			<path class="st0" d="M1092.59,353.42c2.84,0.72,3.95,2.72,4.25,5.46c0.65,5.95,2.03,11.68,4.65,17.15c1.29,2.69,1.11,5.8-1.05,9
				c-2.58-10.57-5.16-21.15-7.75-31.72L1092.59,353.42z"/>
			<path class="st0" d="M1092.7,353.31c-0.99-1.14-1.94-2.33-1.88-3.94c0.22-6.53-2.61-12.22-4.92-18.06
				c-0.59-1.5-1.7-3.48,0.44-4.26c1.66-0.61,2.47,1.43,2.96,2.74c2.83,7.61,5.79,15.23,3.31,23.61
				C1092.59,353.42,1092.7,353.31,1092.7,353.31z"/>
			<path class="st0" d="M907.48,617.04c2.2,2.88,4.04,5.23,5.05,8.31c1.53,4.65,2.77,9.54,6.92,12.86c0.98,0.78,2.08,2.2,0.64,3.34
				c-1.16,0.92-2.07-0.41-2.81-1.25c-2.51-2.84-5.24-5.54-5.13-9.81c0.08-3.1-3.17-4.52-3.91-7.28
				C907.76,621.42,905.81,619.96,907.48,617.04z"/>
			<path class="st0" d="M1021.66,201.33c-4.99,5.78-9.04,10.83-13.52,15.45c-1.35,1.39-2.04,5.77-4.65,3.52
				c-1.91-1.65,1.98-3.4,3.14-5.12c2.63-3.92,5.08-8.06,8.84-11.12C1016.86,202.93,1018.1,201.59,1021.66,201.33z"/>
			<path class="st0" d="M1032.72,673.63c0.31,6.2-3.86,10.78-5.96,16.1c-0.9,2.28-2.43,4.28-2.82,6.84
				c-0.31,2.03-1.63,3.29-3.83,3.15c-1.32-0.08-2.67-0.79-1.41-2.15c6.41-6.95,8.74-16.28,14.13-23.81
				C1032.81,673.74,1032.72,673.63,1032.72,673.63z"/>
			<path class="st0" d="M956.17,222.5c3.45,1.64,8.16-1.91,10.77,3.14c1.03,1.99,2.69,1.62,4.06,0.21c0.92-0.94,1.77-1.65,2.84-0.38
				c0.83,0.98,2.04,1.99,1.51,3.43c-0.44,1.22-1.84,0.28-2.55,0.62c-3.37,1.63-5.6,1.37-7.97-2.13
				C963.04,224.73,958.49,225.5,956.17,222.5z"/>
			<path class="st0" d="M1006.45,488.89c8.71,0.46,16.69-0.99,24.19,2.71c0.88,0.43,2.03,0.77,1.61,2.07
				c-0.23,0.72-1.09,0.75-1.68,0.37c-5.61-3.61-11.8-2.14-17.81-2C1010.53,492.11,1008.48,492.2,1006.45,488.89z"/>
			<path class="st0" d="M928.82,491.31c-0.51,0.06-1.25-0.1-1.34-0.85c-0.07-0.55,0.19-1.46,0.59-1.68
				c1.58-0.87,3.22-1.77,4.94-2.23c3.81-1.03,7.94-0.51,11.62-2.37c0.77-0.39,2.1-0.51,2.47,0.8c0.29,1.03-0.7,1.32-1.42,1.71
				C940.51,489.57,934.4,489.11,928.82,491.31z"/>
			<path class="st0" d="M893.05,173.89c-0.78-2.81,1.76-4.19,1.95-6.54c0.15-1.88,1.33-3.61-0.96-5.27c-2.1-1.52-0.29-2.88,1-3.87
				c1.82-1.4,3.19-0.38,3.99,1.25c1.58,3.19,0.43,6.19-1.3,8.88C896.44,170.33,894.44,171.82,893.05,173.89z"/>
			<path class="st0" d="M963.22,367.4c7.65-1.74,15.3-2.37,22.96-0.39C978.53,369.21,970.87,367.6,963.22,367.4z"/>
			<path class="st0" d="M1172.64,476.68c2.39,4.25,4.83,8.47,7.15,12.76c0.74,1.36,1.01,3.32-0.33,4.11
				c-1.88,1.11-2.5-1.08-3.06-2.25C1174.21,486.73,1171.72,482.23,1172.64,476.68z"/>
			<path class="st0" d="M999.57,225.62c-0.97,3.04-3.13,4.91-3.76,7.85c-0.4,1.91-2.51,2.75-4.24,2.97
				c-1.43,0.18-2.2-1.33-2.36-2.74c-0.24-2.1,1.3-2.68,2.87-3.49C994.67,228.87,997.08,227.17,999.57,225.62z"/>
			<path class="st0" d="M884.1,379.05c-0.66-7.91-1.16-15.83,1.28-23.78c0,7.88,0,15.75,0,23.63
				C884.95,378.95,884.53,379,884.1,379.05z"/>
			<path class="st0" d="M1071.34,361.47c3.49,5.49,8.33,10.11,9.72,16.63C1078.06,372.36,1072.82,367.92,1071.34,361.47z"/>
			<path class="st0" d="M958.83,483.47c2.43-2.12,11.84-3.59,13.72-2.35c0.34,0.22,0.75,0.96,0.65,1.11
				c-0.37,0.5-0.94,1.17-1.45,1.18C967.55,483.51,963.36,483.47,958.83,483.47z"/>
			<path class="st0" d="M1000.68,248.67c-0.01,0.17-0.02,0.33-0.03,0.5c-0.22,2.48-0.54,4.99-2.91,6.4
				c-0.71,0.43-1.69-0.23-1.92-1.11c-0.69-2.6,0.19-4.91,1.71-6.97c0.63-0.86,1.29-2.28,2.7-1.55
				C1001.27,246.48,1000.69,247.72,1000.68,248.67z"/>
			<path class="st0" d="M861.76,151.13c-2.81,4.45-5.63,8.9-8.44,13.36c0.9-5.69,3.33-10.43,7.26-14.25
				C860.97,150.53,861.36,150.83,861.76,151.13z"/>
			<path class="st0" d="M984.74,275.3c4.65-1.15,9.27-3.02,14.13-0.58C994.11,273.92,989.53,276.44,984.74,275.3z"/>
			<path class="st0" d="M863.72,148.37c0.89-4.4,4.34-6.82,7.3-9.64C869.95,142.93,867.68,146.26,863.72,148.37z"/>
			<path class="st0" d="M1070.84,478.58c-3.06-0.25-5.63-0.44-8.19-0.68c-0.97-0.09-2.11-0.23-2.05-1.53
				c0.04-0.97,0.99-1.27,1.82-1.26C1065.49,475.14,1068.63,475.06,1070.84,478.58z"/>
			<path class="st0" d="M1059.75,375.58c1.92,2.07,3.39,3.52,4.67,5.12c0.69,0.86,1.45,2.18,0.43,3.08
				c-1.37,1.21-2.46-0.15-3.2-1.12C1060.29,380.89,1058.88,379.03,1059.75,375.58z"/>
			<path class="st0" d="M887.71,162.66c-1.25-2.54-1.82-5.02,0.47-7.12c0.85-0.78,1.97-0.54,2.51,0.45
				C892.46,159.26,888.85,160.42,887.71,162.66z"/>
			<path class="st0" d="M965.79,279.4c-3.2,2.17-5.47,2.99-8.04,2.77c-0.86-0.07-1.73-0.51-1.72-1.46c0.01-0.99,0.91-1.28,1.78-1.3
				C960.07,279.39,962.34,279.4,965.79,279.4z"/>
			<path class="st0" d="M1195.9,525.77c0.42,0.8,0.82,1.2,0.8,1.57c-0.11,2.2,1.28,4.52-0.49,6.55c-0.16,0.18-1.15,0.03-1.23-0.18
				C1193.93,531.07,1194.06,528.54,1195.9,525.77z"/>
			<path class="st0" d="M984.66,479.11c-2.36,2.35-4.85,2.04-7.97,0.71C979.57,477.37,982.11,478.27,984.66,479.11z"/>
			<path class="st0" d="M1022.58,196.03c-1.55-0.26-3.01-0.89-2.99-2.64c0.02-1.4,1.37-1.69,2.59-1.58c1.3,0.12,2.91,0.21,3.06,1.82
				C1025.38,195.21,1023.9,195.67,1022.58,196.03z"/>
			<path class="st0" d="M948.09,323.47c-0.14,0.43-0.14,0.67-0.25,0.73c-2.26,1.37-4.6,1.31-6.92,0.2
				c-0.17-0.08-0.17-1.15,0.01-1.24C943.37,321.98,945.77,322.02,948.09,323.47z"/>
			<path class="st0" d="M1201.15,560.06c0.27,4.02-0.2,6.32-2.71,7.57c-0.57,0.28-1.3-0.22-1.41-0.98
				C1196.6,563.45,1199.79,563.2,1201.15,560.06z"/>
			<path class="st0" d="M1155.7,380.66c1.04,2.6,1.73,5.16-1.2,8.07C1153.78,385.36,1154.38,382.97,1155.7,380.66z"/>
			<path class="st0" d="M888.27,343.21c0.52,3.48,1.22,5.79-1.43,8.03C885.69,348.43,885.88,346.28,888.27,343.21z"/>
			<path class="st0" d="M958.16,699.9c1.14,0.1,1.61,0.01,1.73,0.18c1.23,1.67,3.8,2.11,4.18,4.51c0.04,0.23-0.73,0.88-1,0.81
				C960.45,704.74,959.22,702.79,958.16,699.9z"/>
			<path class="st0" d="M1071.03,826.21c6.89,3.85,12.67,8.66,16.43,15.46c1.15,2.08-0.79,2.99-2.05,3.91
				c-1.55,1.12-3.35,1.61-5.11,0.42c-0.63-0.43-0.59-1.38,0.01-1.7c4.72-2.52,1.21-3.06-0.86-4.39
				C1074.5,836.73,1074.67,830.35,1071.03,826.21z"/>
			<path class="st0" d="M1117.29,972.14c-4.02,0.91-7.67,1.16-11.31-0.2c-2.51-0.94-3.76-3.12-3.24-5.45
				c0.5-2.27,2.97-1.18,4.67-1.46C1112.97,964.12,1114.8,968.14,1117.29,972.14z"/>
			<path class="st0" d="M1110.05,931.31c5.02-2.23,10.19-3.44,15.66-2.77c1.09,0.13,2.56,0.35,2.55,1.87
				c-0.01,1.54-1.44,1.72-2.57,1.74C1120.48,932.21,1115.25,932.45,1110.05,931.31z"/>
			<path class="st0" d="M1126.71,914.69c-3.89,0.62-7.71,1.74-12.53,0.2C1119.07,912.86,1122.94,913.41,1126.71,914.69z"/>
		</g>
	</g>
</g>
</svg>
