<?xml version="1.0" encoding="utf-8"?>
<!-- Generator: Adobe Illustrator 28.0.0, SVG Export Plug-In . SVG Version: 6.00 Build 0)  -->
<svg version="1.1" id="Layer_1" xmlns="http://www.w3.org/2000/svg" xmlns:xlink="http://www.w3.org/1999/xlink" x="0px" y="0px"
	 viewBox="0 0 1920 1080" style="enable-background:new 0 0 1920 1080;" xml:space="preserve">
<style type="text/css">
	.st0{fill:none;stroke:#231F20;}
</style>
<g>
	<g>
		<g>
			<path d="M975.67,752.43c1.83,0.53,2.98,1.92,2.91,3.65c-0.19,4.94,1.13,9.45,2.9,14c0.81,2.07,0.49,4.54,1.85,6.62
				c2.45,3.74,3.93,7.57,1.58,12.13c-0.99,1.92-0.05,4.15,0.91,6.21c2.8,6.02,6.75,11.48,8.68,17.92c0.33,1.1,0.86,2.45,2.21,2.38
				c1.45-0.07,1.67-1.64,1.77-2.69c0.81-8.18,4.57-15.42,7.18-23.02c0.54-1.57,0.48-2.91-0.56-4.21c-1.13-1.42-1.17-3.07-0.9-4.76
				c0.14-0.84,0.4-1.78,1.36-1.82c0.94-0.04,1.5,0.85,1.57,1.67c0.49,5.46,2.7,10.62-0.65,16.41c-2.97,5.13-5.99,10.79-5.57,17.27
				c0.1,1.56-1.26,2.21-2.12,3.2c-0.99,1.15-1.01,2.47,0.02,3.62c1.07,1.2,2.37,1.02,3.63,0.3c0.42-0.24,0.71-0.72,1.14-0.96
				c2.12-1.22,4.28-3.39,6.4-3.37c3.84,0.04,1.03,3.93,2.28,5.81c1.29,1.92,1.94,4.14,2.22,6.54c0.3,2.59,0.62,4.78-2.01,6.58
				c-2.42,1.65-1.51,4.21-0.65,6.38c0.98,2.47,2.97,1.57,4.68,1.02c8.65-2.81,17.04,0.52,25.41,1.5c8.78,1.02,17.31,4.16,25.98,6.25
				c3.9,0.94,7.47-1.02,11.16-1.78c1.45-0.3,1.42-2.03,1.41-3.41c-0.11-9.49,2.08-18.77,2.67-28.2c0.21-3.4-1.67-4.98-4.21-6
				c-7.11-2.86-12.53-8.07-17.83-13.21c-5.02-4.86-11.04-7.42-17.47-8.87c-8.03-1.81-12.7,4.38-17.77,9.03
				c-1.54,1.41-2.7,3.23-5.13,4.53c0.1-3.95,2.85-5.54,4.83-7.45c12.23-11.81,23.88-11.76,36.33-1.15
				c9.8,8.35,20.95,14.62,31.13,22.35c2.53,1.92,3.47,0.27,3.77-2.24c2.05-17.34,4.26-34.65,5.48-52.08
				c0.77-10.95,1.89-21.81,0.71-32.81c-0.64-5.95-2.85-11.41-5.3-16.53c-8.04-16.85-12.86-34.5-14.86-52.96
				c-0.41-3.82-3.47-7.26-1.32-12.77c2.39,5.54,4.06,10.03,4.31,14.93c0.51,10.01,2.7,19.84,5.89,29.12
				c2.43,7.08,5.83,14.11,9.58,20.78c0.52,0.93,0.99,2.46,2.48,1.86c1.33-0.54,0.87-1.99,0.87-3.12c0.02-22.3,0.74-44.63-0.23-66.88
				c-0.47-10.81-1.44-21.81-3.89-32.55c-0.99-4.33-0.42-8.99-1.19-13.39c-2.01-11.47-2.43-23.05-3.48-34.59
				c-1.01-11-2.66-22.25-9.28-32.15c-3.48-5.2-4.77-11.91-6.85-18c-1.32-3.88-4.3-5.75-7.73-7.26c-0.79-0.35-1.62-0.49-2.32,0.18
				c-0.89,0.86-0.5,1.78-0.13,2.74c4.45,11.44,4.31,23.49,4.61,35.48c0.02,0.83-0.2,1.81-1.24,1.84c-1.29,0.04-1.6-1.02-1.62-2.05
				c-0.21-8.8-1.95-17.48-1.75-26.34c0.11-4.81-0.81-9.66-4.68-13.24c-0.82-0.76-1.67-1.88-3-1.13c-1.21,0.68-1.12,2-0.94,3.13
				c0.28,1.81,0.77,3.58,1.11,5.38c0.25,1.29-0.14,2.42-1.51,2.72c-1.4,0.31-2.15-0.61-2.45-1.89c-0.77-3.32,0.14-7.53-3.44-9.46
				c-3.33-1.8-6.7,1.27-10.11,1.13c-12.44-0.51-24.86,0.79-37.36-0.53c-14.89-1.57-29.69-4.17-44.95-2.31
				c-9.29,1.13-18.85,1.15-28.04,3.03c-6.53,1.34-12.94,4-18.94,6.99c-6.65,3.31-12.68,7.84-19.16,11.52
				c-11.14,6.31-15.87,16.77-18.09,28.46c-0.9,4.75-2.54,9.26-3.78,13.82c-2.31,8.51-3.9,17.11-5.54,25.73
				c-0.38,2.01-0.42,4.03,0.15,5.95c2.35,7.88,3.49,16.07,7.26,23.6c2.18,4.37,3.64,9.41,4.1,14.28
				c1.57,16.29,9.54,27.35,24.49,34.18c6.77,3.09,13.07,7.04,20.42,8.99c5.71,1.51,10.47,4.95,14.39,10.38
				c-2.77-0.2-3.97-2.17-5.71-3.05c-4.91-2.49-9.87-4.55-15.39-5.58c-7.3-1.37-13.58-5.33-19.53-9.7c-1.36-1-2.82-2.42-4.42-1.14
				c-1.65,1.32-0.46,3.12,0.24,4.56c3.57,7.29,10.8,8.89,17.61,10.89c2.34,0.68,4.37,1.2,6.28,4.94
				c-6.77-3.08-12.79-4.06-18.51-6.01c-2.56-0.87-4.21-0.67-4.24,1.96c-0.08,8.25-2.68,16.02-4.13,24.01
				c-0.5,2.77-1.04,5.57-0.55,8.44c0.16,0.95,0.22,2.15-0.94,2.55c-1.46,0.51-2.01-0.77-2.62-1.73c-1.29-2.03-0.72-4.14-0.29-6.29
				c1.69-8.49,3.37-16.98,4.35-25.6c0.45-3.96-0.28-7.63-1.5-11.26c-1.15-3.42-3.28-6.54-2.13-10.51c0.44-1.51-1.12-2.68-2.04-3.84
				c-3.59-4.49-6.6-9.47-7.5-15.07c-2.33-14.53-8.64-27.89-11.75-42.21c-2.1-9.64-2.73-18.88,0.06-28.45
				c3.08-10.53,5.61-21.21,8.28-31.85c2.07-8.22,6.34-15,12.98-20.22c4.54-3.57,8.41-8.8,8.37-13.64
				c-0.06-8.23-1.42-17.41-9.59-22.4c-7.66-4.68-9.34-11.74-9.41-19.61c-0.09-9.65,0.1-19.31,0.54-28.95
				c0.19-4.27-0.99-8.01-3.21-11.32c-4.56-6.82-3.79-14.24-2.73-21.6c0.39-2.67,0.29-4.68-1.03-7.03c-2.62-4.67-4.31-9.53-3.52-15.2
				c0.57-4.1-0.3-8.31-3.15-11.66c-2.63-3.09-3.41-6.61-3.57-10.6c-0.43-10.48-1.44-20.95-1.78-31.43
				c-0.62-18.95,6.98-34.6,20.46-47.42c8.82-8.39,18.42-15.92,30.17-19.88c4.99-1.69,9.98-3.55,15.41-3.85
				c3.57-0.2,6.27-2.93,9.26-4.66c4.3-2.48,8.13-5.6,13.18-6.86c4.17-1.03,6.19-7.89,3-10.04c-6.28-4.22-6.25-11.42-9.21-17.17
				c-1.05-2.04-1.35-3.27-4.51-2.89c-4.51,0.55-6.3-3.68-7.26-7.32c-1.9-7.24-3.33-14.59-4.95-21.9c-0.74-3.31-2.1-6.35-2.22-9.98
				c-0.15-4.48,1.44-6.67,5.4-7.43c3.69-0.71,4.21-2.52,3.65-6.06c-2.1-13.43-1.3-25.74,7.59-37.74
				c6.75-9.12,14.96-15.79,23.57-22.44c3.98-3.07,9.15-2.78,13.75-3.74c9.44-1.96,19.51-1.37,27.83,2.75
				c10.77,5.33,20.72,12.86,26.12,24.4c1.57,3.35,5.36,6.26,3.42,10.86c-2.26-0.1-2.02-1.92-2.55-3.21
				c-1.97-4.75-4.25-9.12-9.12-11.82c-5.68-3.15-7.64-10-12.85-13.77c-2.87-2.08-5.17-5.54-9.54-3.44
				c-0.26,0.13-0.74,0.12-0.97-0.03c-8.01-5.39-16.59-0.63-24.87-1.3c-5.45-0.44-10.09,2.16-14.74,5.17
				c-10.01,6.49-16,16.26-22.37,25.72c-4.2,6.23-2.2,13.65-2.51,20.52c-0.21,4.74,0.55,9.74,0.29,14.37
				c-0.27,4.7-3.72,9.17-0.84,14.28c0.25,0.45-1.2,1.84-1.84,2.8c-1.38,2.04-2,4.21-0.99,6.61c0.48,1.14,0.2,2.98,2.07,2.94
				c1.54-0.03,2.15-1.36,2.55-2.7c0.22-0.75-0.11-1.71,1.25-2.4c0.84,5.38,6.16,9.38,3.73,15.64c-0.81,2.09,1.72,3.5,2.09,5.41
				c0.93,4.84,4.65,8.65,4.54,14c-0.05,2.66,2.25,4.85,5,6.36c3.19,1.76,6.59,4.03,2.99,8.46c-0.57,0.7-0.82,1.47-0.08,2.21
				c0.67,0.67,1.51,0.65,2.32,0.3c9.06-3.86,18.65-5.49,28.31-6.93c9.36-1.39,18.75-1.89,28.19-1.15c2.9,0.23,5.12,0.01,6.45-3.18
				c0.78-1.86,2.54-3.32,4.08-5.23c1.35,2.96,0,4.71-1.16,6.48c-1.91,2.91-0.7,4.71,2.32,4.67c7.35-0.09,15.04,1.67,21.68-3.21
				c1.33-0.98,2.39-0.81,3.57,0.16c1.23,1.01,0.92,1.73-0.04,2.84c-2.19,2.53,0.09,2.58,1.76,2.78c5.73,0.69,10.75,3.39,15.94,5.61
				c0.86,0.37,2.18,0.76,1.57,2.03c-0.52,1.07-1.74,0.7-2.68,0.37c-6.25-2.18-12.52-4.31-18.73-6.59c-4.18-1.53-8.5-1.2-12.79-1.33
				c-0.82-0.03-1.78,0.26-1.95,1.2c-0.17,0.98,0.77,1.33,1.47,1.78c3.37,2.14,6.76,4.25,10.07,6.48c1.08,0.72,2.38,1.81,1.18,3.24
				c-1.09,1.31-2.07-0.08-2.98-0.66c-6.56-4.23-12.98-8.58-20.3-11.6c-12.59-5.2-25.47-3.95-38.36-2.59
				c-10.2,1.08-19.91,4.81-29.51,7.98c-5.81,1.92-12.33,4.51-17.16,8.75c-6.55,5.74-14.46,7.05-22.35,8.81
				c-14.09,3.13-24.94,11.61-34.81,21.43c-4.43,4.41-8.05,9.68-11.73,14.78c-5.83,8.05-6.11,17.41-5.56,26.81
				c0.66,11.47,1.55,22.93,2.3,34.39c0.36,5.59,3.72,10.21,5.01,15.51c0.38,1.57,1.61,3.13,1.03,4.73
				c-2.72,7.5,1.77,12.74,5.64,18.04c2.95,4.04,6.71,7.43,10.84,10.28c4.15,2.87,7.34,6.72,10.98,10.12c0.72,0.67,1.5,1.59,0.7,2.58
				c-0.75,0.94-1.89,0.66-2.71,0.05c-1.59-1.2-3.34-2.34-4.54-3.89c-3.94-5.1-10.58-6.9-14.46-12.14c-1.34-1.82-2.83-1.01-3.27,1.38
				c-1.57,8.57,2.32,16.67,9.65,21.95c5.98,4.31,13.43,5.99,18.87,11.12c1.21,1.14,4.01,1.87,2.4,4.04
				c-1.3,1.75-2.88-0.29-4.26-1.07c-5.49-3.12-10.99-6.2-16.5-9.27c-2.46-1.37-3.57-0.87-3.63,2.19
				c-0.19,10.13-0.66,20.26-0.85,30.39c-0.13,6.83,7.07,16.76,13.38,18.82c0.31,0.1,0.67,0.24,0.97,0.18
				c9.62-1.88,19.23-3.78,29.92-5.89c-4.69-3.32-9.6-0.75-13.31-3.6c1.35-2.11,3.34-1.44,4.96-1.35c9.3,0.53,18.6,1.07,27.88,1.85
				c12.51,1.04,24.47-1.61,36.37-4.91c1.01-0.28,1.89-0.77,1.88-1.99c-0.01-1.17-0.85-1.77-1.83-2.12
				c-2.95-1.03-6.03-1.76-8.61-3.85c9.67,1.21,19.39,2.21,28.47,6.12c13.06,5.62,25.67,3.31,38.13-1.97
				c4.44-1.88,8.8-3.95,13.29-5.72c1.82-0.72,3.83-1.14,5.23,1.22c3.01,5.04,6.86,4.73,10.5,0.08c5.77-7.35,6.14-16.36,8.67-24.73
				c2.21-7.33,3.29-14.86,5.05-22.26c1.44-6.05-1.43-11.46-2.34-17.13c-0.39-2.46-3.13-1.03-4.39,0.25
				c-6.83,6.97-15.06,11.92-23.43,16.73c-1.35,0.77-2.95,2.02-3.9,0.46c-1.06-1.76,1.25-1.78,2.24-2.41
				c9.45-5.97,18.35-12.69,26.43-20.4c4.62-4.41,5.07-10.66,6.13-16.54c0.15-0.82,0.06-1.76-0.83-2.16
				c-1.44-0.65-2.68,0.12-3.6,1.05c-6.14,6.22-14,10.08-20.86,15.3c-0.49,0.37-1.12,0.57-2.52,1.26c1.28-3.28,3.47-4.51,5.3-6.11
				c6.02-5.25,13.16-9.09,18.74-14.91c4.91-5.12,5.92-12.14,8.97-18.17c0.21-0.41,0.3-1.14,0.07-1.46
				c-4.02-5.64,1.06-9.87,2.1-14.77c2.2-10.31,8.2-19.1,11.09-29.08c0.84-2.92,2.24-6.07-0.28-9.05c-0.43-0.51-0.48-1.63-0.28-2.35
				c2.28-8.24-1.44-14.93-5.67-21.38c-3.01-4.59-6.45-8.9-9.7-13.32c-0.56-0.77-1.6-1.53-0.62-2.52c0.86-0.88,2.06-0.45,2.64,0.33
				c5.51,7.39,12.82,13.66,14.69,23.34c0.24,1.23-0.3,3.1,1.44,3.29c1.54,0.17,2-1.59,2.45-2.79c4.09-10.72,4.39-21.28-1.6-31.5
				c-0.42-0.71-0.82-1.43-1.2-2.16c-0.06-0.12,0.02-0.32,0.04-0.48c4.38,1.82,6.51,4.94,6.82,9.86c0.1,1.54-0.43,4.04,1.83,3.84
				c2.21-0.19,2.08-2.61,1.81-4.48c-1.06-7.42-6.12-12.71-9.7-18.85c-5.59-9.57-14.6-13.52-24.1-17.17
				c-1.24-0.48-2.55-0.77-3.8-1.24c-0.42-0.15-0.74-0.56-1.22-0.94c3.21-2.42,6.51-1.29,9,0.33c5.64,3.68,12.06,5.89,17.41,10.22
				c2.88,2.33,4.4,5.22,6.42,7.95c0.67,0.91,0.91,2.42,1.76,2.88c1.64,0.89,3.3,3.19,5.27,1.84c1.7-1.17,0.86-3.4,0.11-5.08
				c-1.14-2.55-0.99-4.77,0.92-6.93c2.27-2.57,0.62-6.04,2.09-9.05c2.75-5.62,4.75-11.61,2.86-18.11c-0.28-0.96-1.07-2.56,0.81-2.75
				c1.4-0.14,1.87,1.31,2.04,2.43c0.91,5.98,1.41,12.09-0.74,17.79c-1.68,4.45-2.47,8.93-3.05,13.56c-0.49,3.9-0.37,7.98-3.42,11.21
				c-0.99,1.05-0.9,2.85-0.59,4.35c2.05,9.75-0.29,18.96-3.44,28.06c-0.98,2.83-2.06,5.64-3.31,8.36
				c-2.15,4.65-4.42,8.93-3.33,14.65c0.91,4.77-2.59,9.2-4.52,13.53c-4.57,10.22-7.58,21.05-9.86,31.75
				c-1.69,7.92-4.11,15.63-5.83,23.51c-1.07,4.88,1.1,9.84-0.76,14.78c-0.78,2.09-0.8,4.46-2.03,6.55
				c-2.01,3.42,0.34,6.73,1.54,9.46c4.39,9.97,0.61,19.41-1.29,28.85c-1.43,7.1-3.69,14.06-4.98,21.23c-0.93,5.15-3.88,9.52-6,14.18
				c-3.58,7.85-1.8,14.97,1.69,22.22c4.58,9.52,9.16,19.05,12.4,29.15c0.91,2.84,2.15,5.61,3.52,8.26
				c4.46,8.63,7.47,17.83,9.04,27.29c1.35,8.13,1.2,16.51,1.64,24.79c0.23,4.32,0.47,8.62,1.64,12.82c0.36,1.28,0.9,2.66,0.73,3.91
				c-1.31,9.95,3.15,19.27,2.98,29.15c-0.08,4.51,2.06,8.97,2.69,13.6c1.73,12.66-0.27,25.29,0.02,37.92
				c0.18,7.61,0.4,15.33,0.25,22.82c-0.18,8.98,2.59,18.01-0.44,27.17c-1.34,4.05,1.39,8.94,1.01,13.67
				c-0.42,5.18-0.06,10.23-1.21,15.56c-3.61,16.76-4.69,33.95-5.77,51.06c-0.54,8.59-1.81,16.83-4.98,24.86
				c-1.67,4.24-4.77,7.55-7.86,10.11c-5.39,4.47-5.59,9.59-5.06,15.61c0.53,6.06-2.33,11.74-2.67,17.75
				c-0.05,0.92-1.21,1.85-1.12,2.69c0.66,6.15-2.81,11.63-2.89,17.52c-0.19,13.15-6.01,25-7.99,37.66
				c-1.55,9.89-3.71,19.65-5.81,29.4c-1.53,7.1-3.24,14.19-5.01,21.26c-1.29,5.14,0.31,10.52-1.72,15.68
				c-1.43,3.65-2.62,7.55-1.87,11.69c0.13,0.71-0.28,2.07-0.75,2.24c-5.52,1.93-2.42,4.55-0.98,7.49c1.88,3.84,1.42,8.47,3.9,12.25
				c2.72,4.16,5.84,7.35,11.29,6.42c2.2-0.38,3.64,1.39,6.03,1.68c-0.6-3.49,1.58-3.77,4.24-4.5c7.95-2.18,16.15-1.35,24.19-2.57
				c9.51-1.45,17.52,7.65,13.66,17.83c-0.97,2.57-0.58,5.65-1.46,8.28c-1.96,5.85-6.56,10.66-11.06,13.62
				c-7.12,4.69-14.29,9.66-22.15,13.27c-1.46,0.67-2.82,1.89-5.22,0.7c9.62-9.13,22.98-12.42,32.62-22.36c-4-0.3-7.07,1.28-9.2,2.77
				c-6.65,4.64-15.23,5.78-20.8,12.56c-3.52,4.29-8.13,7.4-15.02,6.22c-5.65-0.97-11.5,1.04-15.9,5.53
				c-1.44,1.47-3.08,2.55-5.34,1.88c-2.49-0.74-4.98-1.37-3.93,2.86c0.19,0.78-0.35,1.21-1.11,1.31
				c-7.23,0.93-13.91,6.15-21.63,2.27c1.62-1.07,2.41-3.51,4.86-4.32c0.77-0.25,1.66-0.68,1.27-1.75c-0.35-0.95-1.34-1.05-2.12-0.86
				c-4.08,0.99-5-1.65-5.26-4.7c-0.26-3.05-3.97-6.96,1.87-8.77c0.21-0.07,0.36-0.55,0.43-0.86c1.21-5.42,1.22-5.42,7.34-3.54
				c0.37,1.85-2.06,1.49-2.32,3.21c3,0.88,5.92,2.61,6.74-2.74c0.52-3.42,3.46-4.36,6.46-4.18c7.97,0.47,15.65,0.09,22.21-5.32
				c1.28-1.06,2.67-1.48,3.21,0.98c0.31,1.4,2.44,1.84,2.44,0.78c0.04-6,5.38-6.31,8.75-8.03c7.77-3.96,13.94-9.41,18.8-16.51
				c0.46-0.67,1.33-1.89,1.73-1.2c2.47,4.33,4.95,1.2,7.46,0.25c0.81-0.31,2.14-0.28,2.14,0.53c0,2.74,3.07,5.36,0.87,8.01
				c-2.73,3.3-4.81,7.25-8.69,9.51c-0.84,0.49-2.14,0.85-1.47,2.08c0.59,1.09,1.83,0.79,2.58,0.04c3.24-3.26,7.96-5.04,9.76-9.75
				c0.23-0.59,0.65-1.17,1.12-1.61c1.51-1.39,4.5-1.55,4.31-4.31c-0.19-2.63,0.92-5.37-0.46-7.87c-1.71-3.08-9.27-4.51-13.87-1.99
				c-4.07,2.23-8.08,3.74-12.73,3.42c-1.01-0.07-2.2,0.15-2.39,1.34c-0.37,2.34,2.74,1.58,3.15,3.48
				c-6.23,6.25-14.08,10.16-22.05,13.87c-3.59,1.67-6.52-0.88-7.39-3.32c-1.98-5.52-6.04-4.62-10.05-4.51
				c-1.31,0.04-2.61,0.61-3.86-0.12c-1.12-1.75,3.04-2.38,0.94-4.08c-1.85-1.5-2.94,0.3-4.06,1.51c-0.94,1.01-2.11,1.03-3.15,0.25
				c-0.45-0.34-0.91-1.13-0.83-1.63c0.19-1.16,1.32-1.41,2.29-1.56c4.77-0.74,9.53-3.06,13.94,1.7c2.01,2.17,4.79,0.16,5.57-2.03
				c1.28-3.59-1.03-6.26-3.6-8.58c-2.47-2.22-3.88-0.1-5.46,1.26c-1.13,0.98-2.16,2.23-3.84,2.01c-5.9-0.75-9.68,1.98-12.06,7.14
				c-1.12,2.44-2.7,2.28-5.4,2.38c-5.31,0.19-7.98-3.49-12.2-6.49c0.03,2.88,2.48,4.87-0.2,6.87c-1.56,1.17,0.02,2.42,1.44,2.61
				c1.97,0.27,3.99,0.29,5.98,0.24c2.79-0.07,6.13-1.74,6.11,3.57c-0.01,1.94,2.65,1.63,4.23,1.42c2.05-0.27,4.37,0.21,6.19-1.78
				c-1.85-2.47-5.41-0.32-7.14-2.7c3.18-1.22,3.18-1.22,13.95,2.83c-1.09,2.05-3.56,1.5-5.08,2.75c-1.36,1.12-3.01,1.88-4.71,2.9
				c4.75,2.21,11.24,0.24,12.85-3.92c0.79-2.05,2.23-2.29,3.89-2.35c2.04-0.07,1.36,1.36,1.65,2.66c1.06,4.81,0.84,4.89-4.48,6.83
				c-7.34,2.67-15.11,2.94-22.62,4.59c-3.21,0.7-6.43-1.33-9.58-2.34c-4.78-1.54-6.57-0.35-6.57,4.63c0,2.47,0.41,4.97-1.98,7.5
				c-0.03-11.18-0.92-21.89,2.38-32.25c3.15-9.89,2.92-20.01,2.61-30.15c-0.23-7.49-0.9-14.96-1.22-22.45
				c-0.2-4.75-3.11-8.63-3.73-13.35c-1.14-8.69-2.44-17.41-3.81-26.02c-1.4-8.82-3.13-17.95-6.58-26.41
				c-1.73-4.25-0.57-8.55-0.79-12.75c-0.65-12.58-1.46-25.28,1.76-37.72c0.5-1.93-0.25-6.23,4.03-2.59c0.8,0.68,1.4-0.04,1.98-0.76
				c6.01-7.45,14.05-7.3,22.18-5.3c3.12,0.77,5.98,2.72,9.62,2.55c-0.3,2.82-5.12,1.49-3.69,4.44c1.34,2.77,4.64,0.42,6.81,2
				c-8.71-0.61-17.42-2.04-26.21-0.05c8.09-0.61,14.78,4,22.8,5.22c-3,1.48-5.28,1.57-9.56,0.11c-2.6-0.89-5.2-1.16-7.87-0.93
				c-0.94,0.08-2.61,0.52-2.65,0.93c-0.83,7.71-6.66,4.62-10.78,5.04c-0.99,0.1-2.02-0.12-2.83,0.6c-0.78,0.69-1.32,1.6-0.98,2.65
				c0.44,1.36,1.58,1.63,2.84,1.32c5.23-1.3,10.83-0.93,15.49-4.77c2.88-2.37,6.53-0.77,10.95,0.71c-3.44,1.63-5.87,1.24-8.26,1.16
				c-0.82-0.03-1.77-0.04-1.98,1.03c-0.2,1.05,0.62,1.62,1.43,1.65c5.24,0.18,10.51,4.33,14.99,2.93c9.36-2.92,16.9,3.15,25.46,3.14
				c1.66,0,3.33,0.3,4.99,0.24c1.51-0.06,3.86,0.59,3.84-1.85c-0.02-2.02-2.05-2.5-3.79-2.24c-4.87,0.74-8.68-2.78-14.49-2.42
				c2.92-2.71,6.93-1.88,7.15-5.62l-0.12,0.13c3.69-2.68-1.07-3.94-1-6.43c3.59,1.44,7.06,3.11,10.98,2.38
				c1.35-0.25,2.82-0.3,2.9-2.06c0.07-1.69-1.21-2.06-2.64-2.37c-4-0.87-7.97-1.87-12.35-2.92c1.77-3.15,5.55-0.65,6.98-3.36
				c-2.05-2.49-5.63-0.17-7.94-2.71c4.34-2.14,8.25,0.25,12.21,0.51c0.8,0.05,1.6,0.76,2.34,0.67c1.56-0.18,2.96-0.98,3.04-2.75
				c0.08-1.59-1.32-1.6-2.48-1.82c-2.88-0.54-5.74-1.16-8.63-2.26c3.01-1.15,6.43-0.06,9.24-1.68c-0.32-2.82-3.69-1.5-4.41-3.95
				c2.54-0.17,4.96-0.27,7.37-0.52c0.79-0.08,1.66-0.47,1.71-1.5c0.05-1.03-0.78-1.42-1.57-1.66c-5.06-1.53-10.1-2.8-14.36,1.85
				c-2.66,2.91-5.78,3.74-9.49,2.24c-0.6-0.24-1.5-0.59-1.92-0.34c-5.97,3.63-10.14-1.99-15.15-3.04c-3.11-0.66-6.58,0.45-9.51-2.15
				c-1.11-0.99-3.26,0.93-3.53,2.57c-0.25,1.56,1.56,1.33,2.63,1.43c1.49,0.15,3.03-0.03,4.49,0.23c1.94,0.35,3.53,1.1,0.92,2.98
				c-0.54,0.39-1.36,0.79-0.96,1.47c3.16,5.49-1.78,3.92-3.77,3.98c-7.57,0.23-15.25-1-22.15,3.81c-2.58,1.79-2.19-0.91-1.77-2.19
				c2.52-7.7,3.79-15.82,7.45-23.12c2.27-4.53,2.27-9.31,2.16-14.09c-0.09-3.68-2.99-5.05-6.05-5.65
				c-6.54-1.29-9.69-5.36-11.35-11.64c-1.44-5.44-5.9-9.52-8.06-14.79c-1.7-4.15-3.46-7.81-2.78-12.78
				c0.68-4.92-0.21-10.23-2.52-15.01c-3.2-6.63-4.07-13.67-3.38-20.94L975.67,752.43z M1038.65,965.2
				c4.64-5.8,11.99-7.03,18.85-10.39c-5.83-3.28-10.6-1.08-15.63,0.06c2.87-1,3.03-5.18,6.76-4.94c2.18,0.14,5.37,1.29,6-1.72
				c0.69-3.3-3.19-2.51-4.88-3.77c-0.21-0.15-0.23-0.56-0.55-1.42c4.6-0.4,9.47,0.87,14.24-2.46c-10.1-0.6-19.36-0.7-28.5-1.84
				c-6.19-0.77-12.19-1.22-18.23,0.33c-1.34,0.34-3.61-0.05-3.6,1.82c0.02,1.88,2.27,1.64,3.61,1.69
				c8.47,0.34,16.94,0.69,25.28,2.42c1.17,0.24,3.09-0.5,3.01,1.56c-0.06,1.66-1.78,1.95-3.07,1.9c-4.48-0.2-8.95-0.62-13.42-0.92
				c-2.32-0.15-4.77-0.72-6.85,1.35c2.32,2.49,5.75,1.15,8.39,3.4c-3.08,1.11-5.68,1.03-8.28,0.91c-4.09-0.2-7.96,0.6-11.46,2.75
				c-1.5,0.92-2.49,2.4-1.84,4.23c0.58,1.65,2.18,1.89,3.73,1.9c2.09,0.02,3.78-1.06,5.56-1.99c3.92-2.03,10.5-2.56,11.6-0.29
				c2.32,4.78,5.98,4.19,9.41,5.3c-2.42,1.72-5.13,2.23-8.04,1.98c-1.27-0.11-3.27-0.59-3.33,1.08c-0.07,2.13,2.16,1.49,3.5,1.55
				c3.48,0.16,7.02-0.25,11.58,1.17c-5.33,2.1-9.81,2.2-15.27,2.53c5.29,1.1,9.51,1.98,14.17,2.95c-0.82,0.71-1.06,1.09-1.3,1.1
				c-6.44,0.25-12.97-0.71-19.24,1.76c-1.41,0.56-2.21-0.43-1.9-1.95c0.89-4.37-2.2-6.55-5.23-9.8c0.31,2.55,2.59,4.45,1.04,5.77
				c-3.44,2.93-1.67,6.88-2.32,10.23c-0.64,3.27,0.65,7.44,3.13,9.55c2.2,1.87,4.37-2.18,6.75-2.72c5.46-1.22,11.02-3.3,16.89-0.84
				c-2.31,3.82-7,0.54-9.77,4.55c7.13,0.47,13.53,0.98,19.95,1.25c1.64,0.07,3.37-0.66,3.88-2.58c0.33-1.26,0.89-3.22-0.37-3.68
				c-2.78-1.01-4.96-3.37-8.11-3.5c-8.59-0.35-17.15-0.32-25.56,1.84c-1.09,0.28-2.54,0.88-3.03-0.58c-0.53-1.55,1.07-1.82,2.1-2.2
				c6.2-2.3,12.66-2.44,19.18-2.43c5.9,0,11.76,0.12,16.52-4.86c2.55-2.67,0.84-2.77-0.97-3.4c-0.93-0.32-1.99-0.25-2.93-0.55
				c-0.94-0.29-2-0.78-1.87-1.98c0.1-0.98,1.11-1.1,1.91-1.31c1.2-0.32,3.33,0.24,3.24-1.45c-0.1-2.04-2.29-1.22-3.66-1.46
				c-0.66-0.12-1.29-0.36-1.22-1.29c0.76-1.4,2.38-0.79,3.48-1.4c1.21-0.68,3.6-0.36,3.33-2.29c-0.33-2.36-2.51-1.45-4.09-1.33
				C1046.62,961.12,1043.06,964.4,1038.65,965.2z M916.13,490.87c-0.76-3.23-2.98-3.42-5.77-3.03c-3.35,0.47-5.98,2.96-9.44,3.07
				c-1.44,0.05-3.62,0.06-3.37,2c0.28,2.19,0.59,4.79,2.48,6.29c1.53,1.22,2.63-0.49,3.76-1.43c3.74-3.09,7.66-5.87,12.48-7.05
				c-1.45,2.53-3.83,4.04-6.05,5.81c-4.64,3.7-9.61,7.09-8.49,14.55c0.58,3.87,1.58,4.18,4.6,2.46c4.3-2.44,8.38-5.36,13.22-6.76
				c7.63-2.2,15.25-4.28,23.08-5.91c13.21-2.75,26.28-3.06,39.58-2.27c10.24,0.61,20.4,1.72,30.48,3.61
				c1.51,0.28,3.26,0.24,4.27-1.96c-20.4-9.17-41.89-9.82-63.48-9.95c0.36-0.71,0.61-0.97,0.89-1.01
				c23.83-3.45,46.62,1.66,69.01,8.92c7.54,2.44,14.85,4.56,22.81,3.23c7.35-1.23,14.7-2.48,22.03,0.27
				c1.38,0.52,3.08,0.57,4.29-0.52c1.42-1.27,0.55-2.95-0.06-4.17c-2.53-5.07-6.44-8.28-12.39-8.45c-1.17-0.03-2.39-0.23-2.93-1.47
				c-0.13-0.3,0.16-0.98,0.47-1.23c1.02-0.84,2.1-0.54,3.27-0.11c6.3,2.31,6.31,2.28,5.97-4.02c-0.53-10.03-0.58-10.71-10.59-9.97
				c-5.98,0.44-13.51-3.01-17.88,4.7c-0.45,0.78-2.46,0.81-3.77,0.94c-2.15,0.22-4.33,0.17-6.48,0.38
				c-1.07,0.11-2.32,0.03-2.66,1.66c-0.81,3.83-1.39,4.09-4.73,1.91c-1.42-0.92-2.72-1.98-4.48-1.94
				c-6.16,0.16-11.79-1.92-17.4-4.04c-4.77-1.8-9.51-1.98-14.06,0.27c-9.89,4.9-20.62,6.02-31.33,7.23
				c-7.66,0.86-15.32-0.18-23.04,2.67C925.69,487.3,921.55,491.01,916.13,490.87z M1037.73,924.31c1.26-1.08,2.05-1.68,2.74-2.37
				c0.88-0.88,2.91-1.15,2.38-2.77c-0.58-1.76-2.54-2.02-4.19-2.12c-1.14-0.07-2.29,0.4-3.45,0.43c-1.31,0.04-3.21,0.14-3.38-1.34
				c-0.22-1.94,1.79-1.5,2.99-1.56c3.16-0.15,6.33-0.03,9.48-0.27c2.73-0.21,4.41,0.29,4.79,3.48c0.36,3.06,2.17,4.97,5.8,4.75
				c-2.36-4.9-2.26-5.18,2.87-4.8c2.68,0.2,4.89-0.77,7.12-1.86c0.51-0.25,1.13-0.99,1.08-1.44c-0.04-0.44-0.87-1.13-1.37-1.13
				c-6.52-0.07-12.46-2.76-18.7-4.05c-1.32-0.27-3.51,0.57-3.28-1.66c0.18-1.75,2.22-1.71,3.73-1.51c0.98,0.13,2,0.39,2.85,0.86
				c5.82,3.26,12.43,1.78,18.56,3.17c1.14,0.26,2.48,0.18,2.88-1.26c0.42-1.5-0.71-2.16-1.91-2.36c-10.1-1.61-19.64-6.36-30.21-5.43
				c-1.3,0.11-2.82-0.43-3.65,0.91c-1.01,1.62,0.74,2.25,1.46,3.25c0.7,0.97,2.64,1.59,1.44,3.16c-0.82,1.08-2.2,0.33-3.26-0.04
				c-11.26-3.89-22.54-2.32-33.81-0.1c-2.52,0.5-3.15,2.51-2.51,4.6c0.71,2.28,2.33,1.39,4.05,0.8c3.91-1.35,7.9-2.92,11.95-3.3
				c5.92-0.55,11.93-0.14,18.5-0.14c-3.57,4.73-7.38,5.83-12.02,4.69c-4.06-1-7.88,0.43-11.81,1.26c7.24,1.84,14.49,3.09,21.7,4.51
				c1.41,0.28,4.05,0.02,3.53,2.32c-0.4,1.75-2.6,0.65-3.97,0.45c-6.48-0.93-12.92-0.36-19.38,0.11c2.45,1.72,5.18,0.99,7.72,1.31
				c10.22,1.27,20.08,4.71,30.47,4.91c3.18,0.06,6.33,0.17,9.4-0.79c0.95-0.3,1.98-0.68,1.59-2.03c-0.31-1.09-14.09-4.81-14.95-4.07
				c-0.12,0.11-0.2,0.27-0.31,0.39C1042.93,925.32,1040.84,925.63,1037.73,924.31z M1029.76,1030.31c3.05-0.33,5.71-0.48,8.33-0.93
				c4.87-0.85,8.17-3.47,8.99-8.62c0.2-1.28,0.92-2.67-0.6-3.59c-1.26-0.76-2.2,0.21-3.13,0.86c-5.79,4.08-12.86,5.24-19.07,8.39
				c-1.55,0.79-3.51,0.06-4.42-1.44c-1.15-1.89,0.93-2.5,1.98-3.38c2.56-2.15,5.79-2.46,8.9-2.87c3.67-0.48,7.11-1.7,10.58-2.82
				c1.35-0.44,2.3-1.61,2.06-3.08c-0.3-1.88-1.91-1.47-3.2-1.34c-4.5,0.45-8.81,1.65-13.01,3.28c-4.92,1.9-9.74,3.76-10.56,10.1
				c-0.25,1.91-2.97,3.53-0.61,5.72c2.16,2,5.27,1.84,7.01,0.64C1025.53,1029.52,1027.66,1029.61,1029.76,1030.31z M1019.24,929.04
				c-4.36-0.64-9.22,0.29-14,1.92c-1.48,0.5-2.27,1.46-1.84,3.02c0.38,1.38,1.5,1.67,2.78,1.39c7.96-1.75,15.69-2.62,23.93-0.23
				c7.19,2.09,15.14-0.48,22.59,2.01c1.95,0.65,4.3,0.29,6.44,0.12c1.41-0.11,3.49-0.19,3.37-2.14c-0.12-2.06-2.24-1.71-3.6-1.56
				c-5.69,0.62-11.26-0.71-16.75-1.51C1034.76,930.99,1027.45,929.38,1019.24,929.04z M1015.19,1009.24
				c-0.15,1.12-0.28,1.78-0.32,2.44c-0.09,1.48-0.41,3.41,1.33,3.85c1.75,0.44,3.07-1.07,3.9-2.53c0.46-0.81,0.67-1.94,0.54-2.85
				c-0.4-2.64,1.02-3.84,3.1-5.01c7.35-4.13,15.5-2.54,23.3-3.42c1.24-0.14,2.96,0.77,3.39-0.94c0.48-1.88-1.42-1.75-2.6-2.17
				c-9-3.19-17.5-0.95-26.03,2.12C1017.39,1002.31,1013.54,1003.87,1015.19,1009.24z M1083.1,837.76c-0.06,0.66-0.11,1.33-0.18,1.99
				c-0.14,1.29-0.74,2.77,0.87,3.52c1.62,0.76,2.3-0.69,3.24-1.6c2.04-1.97,4.12-3.88,5.6-6.34c3.5-5.8,2.15-12.43-3.32-16.3
				c-1.47-1.04-3.85-1.93-3.66,0.59C1086.14,825.95,1083.55,831.67,1083.1,837.76z M938.99,211.21c-0.38-2.32-0.74-4.42-1.08-6.53
				c-0.49-2.98-2.83-3.64-5.15-3.47c-2.89,0.2-1.29,2.79-1.71,4.3c-0.8,2.85,2.76,3.97,2.68,6.61c-0.06,1.84,1.16,2.75,2.88,2.57
				C938.77,214.48,938.87,212.67,938.99,211.21z M1074.43,1079.3c-1.76-3.74-3.65-4.76-6.84-2.63c-2.96,1.98-6.1,3.93-8.83-0.56
				c-0.52-0.85-1.74-1.14-2.59-0.24c-0.36,0.38-0.55,1.27-0.38,1.76c1.06,2.97,8.36,5.89,10.34,3.81
				C1068.47,1078.99,1070.96,1078.47,1074.43,1079.3z M1044.04,1006.35c-0.22-1.3-1.04-1.76-2.11-1.82
				c-4.95-0.28-9.24,2.07-13.75,3.5c-0.61,0.19-1.06,0.84-0.82,1.58c0.32,0.98,1.25,1.16,2.01,0.92c3.97-1.25,8.07-1.45,12.17-1.76
				C1042.89,1008.67,1044.03,1007.9,1044.04,1006.35z M1010.77,860.2c2.2-0.16,4.98-0.07,5.42-2.97c0.26-1.68-2.08-3.33-3.3-3.08
				c-2.27,0.47-4.66,2.05-5.2,4.49C1007.3,860.45,1009.36,860.16,1010.77,860.2z M1054.95,1052.79c3.87,3.77,5.92-0.19,8.46-0.72
				c1.18-0.25,2.09-1.41,1.15-2.66c-0.84-1.11-2.49-0.94-3.05,0.02C1060.19,1051.71,1057.86,1051.9,1054.95,1052.79z
				 M1008.19,882.67c-0.41-1.7-1.63-2.35-2.97-2.15c-2.07,0.31-3.59,1.65-3.98,3.77c-0.16,0.86,0.81,1.68,1.62,1.17
				C1004.57,884.39,1007.16,884.89,1008.19,882.67z M1025.22,1085.5c-2.67-1.14-5.42-1.2-8.16-0.15c-0.6,0.23-0.5,1.3,0.21,1.55
				c2.65,0.95,5.32,1.35,7.8-0.54C1025.15,1086.3,1025.12,1086.08,1025.22,1085.5z M1017.9,1064.46c-0.37-1.6-1.25-2.75-3.03-2.64
				c-1.41,0.09-2.74,0.79-2.5,2.43c0.23,1.57,1.45,2.68,3.08,2.76C1017.01,1067.08,1017.76,1065.98,1017.9,1064.46z M930.9,183.07
				c-0.2-1.2-0.22-2.85-1.78-3.03c-1.57-0.18-2.09,1.45-2.39,2.66c-0.4,1.63,0.79,2.47,2.17,2.67
				C930.39,185.58,930.78,184.41,930.9,183.07z M1016.58,1034.16c-1.23,0.48-1.84,1.55-1.67,2.99c0.14,1.2,0.65,2.37,2.14,2.09
				c1.33-0.25,2.58-1,2.37-2.62C1019.25,1035.22,1018.37,1034.26,1016.58,1034.16z"/>
			<path d="M975.75,752.32c-0.67-0.73-1.43-1.4-2.01-2.2c-3.83-5.28-3.93-5.43-8.93-1.37c-5.53,4.49-10.46,9-11.16,17.25
				c-0.45,5.32-3.07,10.77-5.25,15.87c-1.99,4.66-1.44,9.34-2.15,13.97c-0.47,3.06-2.84,6.56,1.04,9.54c1.18,0.9-0.78,2.59-1.39,3.9
				c-0.9,1.92-3.69,3.23-2.92,5.54c2.23,6.67-0.92,12.64-2.9,18.3c-3.14,8.99-4.99,18.5-9.59,26.96
				c-6.29,11.58-9.41,24.53-16.43,35.93c-3.65,5.93-6.74,12.8-8.55,19.84c-0.89,3.46-3.18,5.04-6.22,5.67
				c-5.68,1.17-11.34,2.68-17.28,1.55c-1.48-0.28-4.27-1.46-4.3,1.36c-0.02,2.17,2.6,1.88,4.41,2.08c3.91,0.44,7.41,3.5,11.73,1.53
				c1.8-0.82,3.87-1.04,5.25-2.67c0.83-0.97,1.48-2.53,3.11-1.13c1.08,0.93,1.77,2.19,0.9,3.53c-1.58,2.44-0.17,3.39,1.72,4.66
				c2.74,1.84,4.93,4.38,7.56,6.44c3.72,2.9,3.79,7.37,2.57,11.49c-1.1,3.73-1.9,7.4-1.71,11.28c0.16,3.39-1.5,6.08-3.41,8.65
				c-2.11,2.84-1.85,4.84,2.07,4.74c10.49-0.27,19.84,3.71,29.18,7.66c3.44,1.45,5.4,4.84,7.94,7.44c0.71,0.73,0.83,1.97,0.24,2.83
				c-2.91,4.26,0.02,5.75,3.23,7.39c12.14,6.19,24.76,11.21,37.43,16.17c5.04,1.97,9.49,5.43,14.19,8.25
				c0.75,0.45,1.34,1.19,0.78,2.06c-0.54,0.83-1.49,0.63-2.26,0.28c-1.06-0.49-2.1-1.03-3.08-1.65c-6.81-4.34-14.4-6.71-21.94-9.42
				c-9.34-3.36-18.43-7.55-27.29-12.05c-3.01-1.53-6.39-4.03-4.54-9.19c1.44-4.02-2.15-7.92-8.87-10.27
				c-8.46-2.97-17.08-5.39-26.12-6.04c-2.72-0.19-4.76,0.39-6.73,2.29c-5.01,4.83-11.16,7.82-17.69,9.94
				c-4.34,1.41-8.54-0.47-12.69-1.49c-4.7-1.16-9.32-2.46-14.25-1.59c-5.02,0.89-5.42,1.98-2.3,6.25
				c5.2,7.13,11.98,11.77,20.57,14.03c7.06,1.86,11.87,7.72,18.18,11.03c2.23,1.17,1.89,4.24-0.63,5.2
				c-3.66,1.4-7.17,3.42-11.43,3.11c-7.95-0.58-15.93-0.65-23.88-1.27c-3.87-0.3-7.27,0.75-10.55,2.39
				c-4.84,2.42-5.32,4.55-2.43,9.18c2.59,4.14,1.3,7.95-3.52,9.29c-8.66,2.42-17.69,2.73-26.53,4.16c-3.11,0.5-6.29,0.52-9.43,0.9
				c-5.89,0.72-12.23,8.52-10.07,13.93c1.5,3.76,5.65,6.54,9.68,8.66c10.71,5.63,22.21,6.24,33.95,5.96
				c8.1-0.19,15.44,3.6,23.29,4.94c12.02,2.06,23.62,6.71,36.13,5.39c3.47-0.36,6.94-0.06,10.43-0.73c4.3-0.83,7.02,1.6,9.63,8.86
				c-7.11-7.41-14.44-3.99-21.46-3.63c-11.31,0.59-22.14-1.68-32.52-5.84c-4.07-1.63-8.2-0.65-12.26-1.76
				c-10.91-2.98-22.07-4.19-33.39-5.07c-10.94-0.85-20.86-5.66-27.47-15.21c-3.93-5.67-1.91-12.51,4.23-15.41
				c2.1-0.99,4.16-2.38,6.38-2.77c9.91-1.73,19.32-5.98,29.66-5.59c6.97,0.26,8.78-1.97,7.68-8.65c-0.18-1.07,0.1-1.93,0.48-2.87
				c2.5-6.12,15.39-12.37,21.38-9.85c3.2,1.35,6.35,1.5,9.63,1.97c5.25,0.75,10.27-0.63,15.41-0.71c1.78-0.03,3.51-0.4,3.87-2.39
				c0.4-2.18-1.78-1.99-2.97-2.67c-6.61-3.81-13.98-6.21-20.5-10c-7-4.07-15.16-8-18.18-16.12c-3.97-10.68-3.78-21.76,1.16-32.38
				c0.7-1.51,1.64-2.91,1.66-4.65c0.1-9.04,4.01-17.11,6.64-25.49c1.78-5.7,3.73-11.34,4.83-17.22c0.45-2.39,0.2-5.01,3.55-5.84
				c1.8-0.44,1.35-2.4,0.54-3.31c-2.16-2.44-1.99-5.31-1.71-8.06c1.14-10.92,0.36-21.89,1.45-32.87
				c1.05-10.56,1.46-21.35,0.52-32.21c-0.66-7.63-0.86-15.89,1.95-23.68c1.91-5.29,3.83-10.68,4.31-16.38
				c0.21-2.47,1.89-4.21,2.78-6.32c4.13-9.77,10.64-18.25,14.95-27.9c2.03-4.55,1.55-9.71,3.52-14.42c1.02-2.43-2.03-4.76-4.29-6.13
				c-2.19-1.32-5.01-2.26-4.05-5.37c0.99-3.17,2.96-5.91,6.73-6.53c1.29-0.21,2.85-0.19,3.8-0.91c10.04-7.62,20.4-3.26,30.55-0.7
				c4.91,1.23,9.26,4.12,14.49,4.97c5.54,0.9,9.75,4.87,13.64,8.81c1.35,1.38,2.51,2.81,4.63,1.56c2.34-1.38,1.65-3.16,0.81-5.17
				c-2.36-5.68-4.31-11.57-10-15.07c-0.91-0.56-2.04-1.59-0.99-2.85c0.73-0.87,1.81-0.36,2.76,0.04c5.58,2.34,7.96,7.35,10.1,12.41
				c1.14,2.7,1.66,5.68,2.32,8.56c0.23,1.01,0.27,2.14,1.52,2.2c1.37,0.06,2.22-0.93,2.22-2.21c0.04-6.12,2.02-11.94-3.81-17.72
				c-3.8-3.77-5.78-10.34-7.2-16.34c-1.47-6.24-3.02-12.59-7.38-17.75c-1.57-1.86-3.3-3.09-5.56-3.96
				c-9.17-3.51-18.2-7.81-25.99-13.49c-6.48-4.73-9.96-12.95-12.39-20.73c-3.06-9.79-8-18.57-13.02-27.32
				c-4.22-7.34-8.38-14.75-13.89-21.27c-0.61-0.72-1.07-1.79-1.11-2.72c-0.08-1.99-2.23-4.9,0.39-5.77c2.9-0.97,1.99,2.68,2.87,4.18
				c2.59,4.44,5.79,8.46,8.46,12.88c7.93,13.11,14.41,26.91,20.56,40.86c4.81,10.91,12.11,18.82,23.11,23.56
				c15.51,6.68,30.91,13.63,44.99,23.13c0.65,0.44,1.65,0.85,2.32,0.67c6.63-1.74,4.53,2.48,3.6,5.44
				c-2.88,9.21-7.25,17.78-11.52,26.39c-1.6,3.22-2.98,6.39-0.48,9.81c0.27,0.37,0.56,1.07,0.39,1.37
				c-2.6,4.64-0.62,9.03,0.57,13.49c0.2,0.76-0.06,1.65-0.12,2.49C975.67,752.43,975.75,752.32,975.75,752.32z M915.96,803.04
				l-0.13-0.14c0.87,1.94,2.91,2.02,4.49,2.82c4.87,2.44,6.55,1.95,8.61-2.94c0.89-2.11,2.34-2.49,4.26-2.63
				c1.13-0.08,2.83,0.54,2.9-1.61c-15.29-2.66-21.71-1.85-24.41,3.19C913.13,802.18,914.55,802.61,915.96,803.04z M944.16,761.3
				c0.15-0.35,0.21-0.82,0.42-0.91c6.69-2.73,12.61-5.92,9.62-14.91c-0.13-0.4,0.07-1.04,0.33-1.41c2.31-3.24,1.83-4.86-2.46-4.56
				c-1.44,0.1-2.73-0.26-2.45-2.22c0.56-3.91-2.4-4.74-5.11-5.54c-2.06-0.61-4.11-1.13-6.15-1.9c-9.76-3.66-19.29-8.19-30.3-6.92
				c-7.18,0.82-10.53,4.17-9.07,11.09c1.75,8.3-0.15,16.12-2.83,23.74c-1.23,3.48-0.79,4.16,2.66,3.73
				c1.83-0.23,3.75,0.09,4.75,1.98c0.23,0.43,0.05,1.45-0.32,1.76c-1.57,1.34-3.63,1.45-5.12,0.33c-4.52-3.37-6.71-0.16-8.69,2.97
				c-2.12,3.35-3.36,6.67,0.78,9.97c4.6,3.66,10.14,5.7,14.73,9.29c3.04,2.37,6.57,3.09,10.3,2.96c3.32-0.12,6.65-0.26,9.95-0.65
				c7.56-0.9,14.98-2.62,19.66-9.21c2.62-3.69,4.62-7.9,3.97-13.01c-0.27-2.08,3.83-3.82,2.27-6.57
				C949.12,757.79,946.53,763.04,944.16,761.3z M896.02,862.07c-6.16,0.5-12.32,2.28-17.85-1.84c-0.89-0.67-2.36-1.19-3.15,0.01
				c-0.96,1.46,0.23,2.41,1.4,3.19c2.49,1.67,4.99,3.27,8.01,3.92c1.07,0.23,2.43,0.87,1.71,2.41c-0.48,1.03-1.71,1.07-2.65,0.73
				c-1.56-0.55-3.02-1.4-4.57-1.98c-1.07-0.4-2.41-0.84-3.07,0.55c-0.64,1.35,0.48,2.17,1.46,2.8c3.24,2.09,6.67,2.84,10.47,1.55
				c1.43-0.48,3.34-0.56,3.47,1.54c0.11,1.84-1.75,1.53-3,1.76c-4.79,0.89-9.42,1.28-13.55-2.27c-1.13-0.97-3.16-2.01-4.25,0.21
				c-1.03,2.11,0.27,3.13,2.23,4.11c4.11,2.05,8.05,4.46,11.99,6.83c1.13,0.68,2.26,1.88,1.63,3.28c-0.7,1.56-2.36,1.14-3.51,0.59
				c-2.39-1.15-4.61-2.66-7-3.81c-1.39-0.67-3.2-2.26-4.48-0.55c-1.32,1.75,0.08,3.94,1.55,4.69c6.82,3.47,13.81,6.63,21.79,5.91
				c0.83-0.07,1.73-0.23,1.74-1.31c0.01-0.81-0.78-0.93-1.37-1.23c-4.21-2.1-4.21-2.1-5.44-3.91c5.15,0.68,10.23,2.73,16.42,0.26
				c-6.11-4.1-13.25-3.5-18.08-8.11c5.38,1.63,10.82,1.7,16.56,1.69c-1.5-4.73-6.64-2.75-9.37-5.95c5.67,0,10.7,0.07,15.73-0.04
				c1.72-0.04,4.36,0.22,4.23-2.24c-0.11-2.11-2.68-1.37-4.18-1.49c-5.82-0.46-11.7-0.53-17-3.89c5.89-0.82,12.16,1.59,17.97-1.92
				c-2.41-2.16-6.1-0.52-7.95-4.19c3.53-0.33,6.79-0.38,9.94-1.02c2.27-0.46,5.96-0.52,5.84-3.34c-0.09-2.14-3.63-1.25-5.65-1.65
				c-0.49-0.1-1-0.1-1.48-0.21c-0.95-0.22-2.28-0.21-2.36-1.41c-0.12-1.64,1.41-1.69,2.5-1.68c2.49,0.04,4.98,0.41,7.47,0.41
				c1.63,0,3.89-0.11,3.88-2.19c-0.01-1.97-2.26-1.46-3.64-1.59c-3.23-0.31-6.58-0.07-9.73-2.31c3.36-2.78,8.1-0.09,11.17-3.18
				c-1.47-1.38-2.89-0.97-4.16-1.24c-1.26-0.26-3.04-0.16-3.22-1.68c-0.1-0.84,1.16-1.87,1.85-2.78c1.03-1.35,2.39-1.67,4.01-1.24
				c1.8,0.48,3.63,0.47,5.44,0c0.78-0.21,1.75-0.36,1.71-1.46c-0.03-1.02-0.92-1.25-1.72-1.49c-1.54-0.47-3.64,0.57-5.06-2.01
				c3.78-0.77,6.88-0.11,10.08,0.82c2.27,0.66,4.74-0.03,4.94-2.73c0.21-2.82-2.57-2.64-4.42-2.75c-1.78-0.1-3.57,0.88-5.4,0.11
				c-0.88-0.37-2.17-0.44-2.11-1.72c0.06-1.27,1.46-1.63,2.25-1.47c5.18,1.05,8.68-2.12,12.67-4.76c-3.98-4.37-9.15-4.87-14.44-5.03
				c-1.32-0.04-2.71,0.25-3.8-0.72c-0.21-0.19-0.19-1.03,0.04-1.26c1.21-1.2,2.45-0.39,3.68,0.08c2.12,0.82,3.83,0.29,5.46-1.84
				c-7.23-3.7-15.04-4.74-22.67-5.3c-2.69-0.2-5.11,0.43-7.4-1.5c-0.75-0.63-1.91-0.6-2.76,0.19c-0.9,0.84-0.67,1.72-0.12,2.69
				c0.43,0.76,1.79,1.24,0.69,2.75c-1.54-0.47-3.55,0.11-4.07-2.53c-0.59-3.02-1.99-1.04-3.13-0.37c-2,1.18-0.15,3.02-0.76,4.82
				c-4.75-2.23-8.65-5.08-10.97-9.77c-0.51-1.04-0.82-2.4-2.39-1.83c-1.34,0.48-1.29,1.82-1.27,2.98c0.03,2.02,1.21,3.31,2.73,4.5
				c2.34,1.83,4.79,3.57,6.45,6.34c-3.42,0.71-4.46,2.28-1.38,4.57c2.76,2.05,4.96,4.98,8.72,5.56c3.01,0.46,2.83,3.53,3.64,5.45
				c0.61,1.45-2.06,1.05-2.92,1.84c-2.26,2.08-7.53,2.64-7.18,4.7c0.52,3.05,4.9,4.43,7.9,6.13c0.83,0.47,1.93,0.45,2.91,0.66
				c3.05,0.66,5.75,2.04,8.55,3.69c-1.73,1.78-3.09,0.6-4.45,0.34c-2.78-0.53-5.55-1.08-8.34-1.54c-0.94-0.16-2.2-0.54-2.65,0.61
				c-0.57,1.46,0.77,2,1.78,2.54c2.25,1.21,4.53,2.35,6.79,3.52c-6.73,0.42-12.44-2.03-17.77-5.35c-1.78-1.11-3.7-3.57-5.37-2.66
				c-1.86,1.01-0.57,3.96-0.56,6.06c0,0.98,0.28,1.98,0.57,2.93c0.29,0.95,0.65,2.01,1.86,2.06c1.26,0.05,1.63-0.98,1.83-1.98
				c0.47-2.38,1.92-3.46,3.83-1.82C886.13,856.11,891.42,858.46,896.02,862.07z M974.11,718.71c1.18-0.03,1.74-0.82,2.14-1.79
				c2.4-5.82,4.79-11.64,7.19-17.46c0.78-1.88-0.25-2.68-1.83-3.36c-4.57-1.95-9.04-4.15-13.67-5.92c-2.49-0.95-4.75-5.08-7.09-2.89
				c-2.18,2.05,0.76,5.53,1.51,8.31c1.92,7.15,3.11,14.67,8.28,20.53C971.61,717.25,972.39,718.6,974.11,718.71z M872.62,981.51
				c-1.66-0.1-3.31-0.24-4.97-0.28c-0.97-0.03-2.26-0.13-2.45,1.1c-0.25,1.66,1.22,1.78,2.34,1.8c4.38,0.08,8.35,1.96,12.55,2.81
				c1.53,0.31,3.04,0.89,3.91-0.86c1-2.02,2.77-1.86,4.57-2.28c7.61-1.78,14.25-5.09,17.96-12.54c0.53-1.06,1.3-2.24,0.08-3.1
				c-0.95-0.67-1.82,0.38-2.57,0.97c-0.64,0.5-1.18,1.15-1.74,1.76c-3.61,3.91-4.86,3.97-8.35-0.2c-1.48-1.77-2.94-1.09-4.44-0.54
				c-1.15,0.42-1.28,1.27-0.59,2.36c2.45,3.89,1.12,7.06-3.43,7.9C881.25,981.2,876.96,981.7,872.62,981.51z M891.51,905.19
				c5.71-0.19,10.3-1.35,14.64-3.56c1.08-0.55,3.18-0.01,2.97-1.84c-0.23-1.99-2.21-1.51-3.64-1.5c-7.14,0.07-14.22,1.73-21.44,0.09
				c-2.65-0.6-5.01-1.55-7.41-2.65c-0.92-0.42-1.94-0.55-2.79,0.24c-0.54,0.5-0.77,1.52-0.23,1.71c2.68,0.91,2.99,4.37,5.55,5.16
				C883.46,904.15,888.24,902.96,891.51,905.19z M879.23,937.08c5.26,1.29,9.7-1.46,14.48-1.7c1.78-0.09,4.27-0.29,3.79-2.75
				c-0.43-2.21-2.66-1.27-4.21-0.86c-4.05,1.09-8.21,0.23-12.49,1.69c-3.4,1.16-7.62-2.34-10.73-5.18
				c-0.89-0.81-1.73-1.91-2.91-0.92c-1.24,1.04-0.88,2.38,0.14,3.5C870.61,934.46,873.34,939.18,879.23,937.08z M889.89,800.71
				c1.95,0.39,2.08,2.88,4.12,2.79c1.5-0.06,2.77-0.18,2.42-2.14c-0.15-0.87-7.68-4.45-8.52-3.98c-4.67,2.58-6.71,1.51-6.07-4.02
				c0.18-1.6-0.86-3.06-2.58-3.09c-1.57-0.03-1.32,1.56-1.52,2.68c-1.1,6.29,3.95,8.16,7.86,10.71c1.37,0.89,2.69,3.16,4.73,1.59
				C892.3,803.72,888.45,802.67,889.89,800.71z M904.62,941.58c-1.25-1.48-1.79-4.77-4.38-4.36c-4.14,0.65-8.18,2.21-12.12,3.74
				c-2.21,0.86-2.22,2.76-0.61,4.39c1.33,1.35,2.9,1.87,4-0.29c0.82-1.61,1.97-2,3.65-1.71c2.76,0.48,5.45-2.87,8.36-0.12
				C903.91,943.61,904.51,942.65,904.62,941.58z M892.39,918.41c-0.07-0.74-0.51-1.14-1.18-1.41c-5.56-2.22-11.64-3.22-16.45-7.26
				c-0.82-0.69-2.63-1.34-3.39,0.45c-0.55,1.31,0.67,1.97,1.52,2.79c5.07,4.88,11.98,4.61,18.1,6.53
				C891.61,919.71,892.25,919.19,892.39,918.41z M889.26,829.07c-0.16-0.34-0.26-0.93-0.6-1.18c-2.95-2.11-5.92-4.19-8.96-6.17
				c-0.38-0.25-1.41-0.04-1.73,0.32c-0.32,0.36-0.41,1.35-0.13,1.76c2.29,3.48,6.08,4.9,9.6,6.63
				C888.18,830.81,888.99,830.16,889.26,829.07z M906.04,797.77c1.57-0.52,4.56,0.56,4.2-1.95c-0.36-2.45-3.45-2.69-5.74-2.76
				c-1.53-0.04-4.03-0.13-3.9,1.92C900.82,798.22,903.97,797.24,906.04,797.77z M876.52,945.67c-0.07-1.78-7.53-6.3-9.33-5.63
				c-1.67,0.62-1.31,1.73-0.44,2.7c2.06,2.32,4.87,3.42,7.72,4.33C875.42,947.37,876.5,947.1,876.52,945.67z M893.94,913.13
				c2.02-0.46,5.19-0.02,5.08-2.71c-0.11-2.74-3.15-1.35-4.86-1.41c-1.74-0.06-4.69-1.03-4.82,1.7
				C889.21,913.28,892.13,912.76,893.94,913.13z M882.6,834.83c-1.67-4.03-4.05-6.31-6.61-8.43c-0.72-0.59-1.57-1.56-2.52-0.45
				c-0.62,0.73-0.1,1.58,0.41,2.25C875.99,830.96,878.23,833.55,882.6,834.83z M893.24,960.15c-1.54,0.43-3.91,0.01-3.79,2.64
				c0.08,1.64,1.78,1.74,3.04,1.76c1.88,0.03,3.13-1.02,3.23-2.92C895.83,959.94,894.5,960.04,893.24,960.15z M860.74,982.51
				c-0.48-1.94-2.18-2.34-3.76-2.7c-1.27-0.29-3.1-0.47-3.28,1.21c-0.27,2.41,1.92,2.78,3.71,3.07
				C858.74,984.3,860.08,984.07,860.74,982.51z M869.2,977.52c1.69-0.18,2.96-0.87,3.04-2.7c0.06-1.46-0.95-2.13-2.26-2.02
				c-1.78,0.14-3.33,0.96-3.32,2.97C866.66,977.24,868.04,977.41,869.2,977.52z M868.55,969.74c1.1-0.14,2.01-0.65,1.88-1.86
				c-0.17-1.51-0.65-3.12-2.48-3.24c-1.53-0.11-1.84,1.21-1.8,2.44C866.19,968.58,866.91,969.58,868.55,969.74z M879.46,963.81
				c-1.26,0.39-3.26-0.04-3.39,2c-0.09,1.4,1.41,1.71,2.55,1.82c1.42,0.14,2.75-0.35,3.08-1.88
				C882.05,964.13,880.79,963.88,879.46,963.81z"/>
			<path d="M1104.17,157.08c-2.39,2.03-4.7,4.14-7.17,6.05c-2.72,2.1-4.51,4.84-6.11,7.79c-4.64,8.57-8.38,17.62-12.43,26.43
				c-1.81,3.93-5.28,8.76-3.42,14.31c0.47,1.4-1.67,2.63-3.09,3.58c-3.24,2.16-7.14,3.59-7.66,8.48c-0.19,1.8-2.69,1.53-4.28,1.78
				c-0.65,0.1-1.43-0.09-1.55-0.9c-0.25-1.62,1.17-2.25,2.06-3.17c2.2-2.26,4.24-4.74,6.7-6.67c4.74-3.72,4.8-9.62,7.06-14.46
				c5.24-11.18,9.79-22.68,15.62-33.59c0.63-1.18,1.71-2.34,1.04-3.67c-4.3-8.53-1.43-17.68-2.4-26.5
				c-0.94-8.59,0.93-16.9,3.29-25.05c0.59-2.02-0.68-2.66-1.16-3.91c-0.39-1.01-0.41-2.12,0.51-2.72c1.33-0.86,2.2,0.21,2.8,1.21
				c1.51,2.54,0.92,5.25,0.07,7.75c-3.74,11.13-3.34,22.39-1.62,33.78c0.33,2.19-0.24,4.63-0.83,6.83c-0.6,2.23-0.48,4.03,1.6,5.18
				c2.08,1.16,4.17,1.04,5.94-0.76c1.15-1.17,2.18-2.49,3.85-2.96C1103.39,156.29,1103.78,156.68,1104.17,157.08z"/>
			<path d="M1070.49,566.19c2.07,1.58,1.38,3.67,1.06,5.52c-1.39,7.97-4.12,15.37-7.54,22.81c-5.13,11.15-12.74,20.86-17.38,32.24
				c-1.67,4.09-4.47,7.78-7.09,11.4c-6.59,9.11-10.8,19.72-18.43,28.21c-5.28,5.87-11.49,10.57-17.45,15.61
				c-1.04,0.88-2.74,2.33-3.87,0.68c-1.07-1.56,0.84-2.59,1.94-3.51c8.43-7.06,16.79-14.19,22.95-23.44
				c6.06-9.11,12.43-18.06,17.83-27.56c7.61-13.38,15.5-26.63,22.09-40.57c2.23-4.73,2.53-9.95,3.57-14.98
				C1068.62,570.4,1068.4,567.91,1070.49,566.19z"/>
			<path d="M972.72,1114.51c-12.26-0.15-24.47-1.02-36.35-4.46c-3.25-0.94-5.57-3.53-8.25-5.44c-0.92-0.66-1.59-1.95-0.42-3.01
				c0.98-0.9,1.91-0.07,2.57,0.63c3.68,3.92,7.71,6.85,13.52,5.2c11.71,6.86,24.56,1.61,36.79,3.33c4.6,0.65,9.51-0.9,14.28-1.44
				c1.3-0.15,3.14-0.57,3.37,1.1c0.28,1.97-1.7,2.26-3.16,2.28C987.58,1112.83,980.33,1115.7,972.72,1114.51z"/>
			<path d="M996.15,343.23c-9.61,1.42-18.01,0.04-26.56,1.33c-9.54,1.45-17.46,6.12-26.16,9.18c-1.38,0.49-3.27,2.5-4.17,0.15
				c-0.79-2.06,1.81-2.3,3.2-2.99c1.64-0.82,3.43-1.38,4.96-2.35c12.73-8.15,26.81-8.99,41.34-8.08c5.62,0.35,11.3-0.24,16.95-0.33
				c1.38-0.02,3.49-0.54,3.45,1.64c-0.03,1.7-2,1.4-3.25,1.43C1002.25,343.28,998.59,343.23,996.15,343.23z"/>
			<path d="M948.56,333.62c7.39-1.29,14.63-3.86,22.21-3.58c18.57,0.68,36.54-1.17,53.12-10.42c1.04-0.58,2.47-1.17,3.17-0.03
				c0.93,1.52-0.84,1.82-1.74,2.34c-10.81,6.22-22.31,9.99-34.89,10.77c-9.94,0.62-19.96-0.54-29.84,2.01
				c-3.7,0.95-7.86,0.15-11.81,0.15C948.71,334.45,948.63,334.03,948.56,333.62z"/>
			<path d="M1121.15,196.56c0.36-1.57-0.03-2.96-1-4.22c-0.84-1.09-1.6-2.42-1.13-3.7c1.98-5.42,1.68-11.05,1.79-16.65
				c0.02-0.99-0.37-2.26,1.01-2.36c1.51-0.11,1.79,1.21,1.83,2.44c0.04,1.38-1.03,3.11,1.13,3.8c2.08,0.66,3.31-0.78,4.8-1.91
				c2.26-1.72,2.3-4.8,4.44-6.53c1.38-1.11,1.27-5.01,4.75-2.21c0.83,0.67,1.46-0.93,1.11-1.98c-1.06-3.21,1.85-4.71,2.98-6.96
				c0.35-0.69,1.1-1.36,2.06-0.91c0.92,0.43,0.94,1.39,0.77,2.17c-0.28,1.28-0.58,2.63-1.23,3.75c-3.63,6.2-7.9,11.79-14.08,15.83
				c-3.94,2.58-7.09,5.93-6.67,11.37c0.24,3.14-0.07,6.32-0.15,9.48c-0.03,1.11,0.37,2.76-1.22,2.79c-1.55,0.04-1.31-1.6-1.35-2.72
				C1120.95,197.56,1121.08,197.06,1121.15,196.56z"/>
			<path d="M1129.85,83.91c0.21,2.8-1.86,4.55-3.14,6.62c-6.19,9.97-9.21,21.62-16.52,30.99c-0.3,0.39-0.35,0.99-0.69,1.32
				c-1.56,1.55-2.3,4.67-5.18,3.88c-2.81-0.77-1.67-3.59-1.87-5.61c-0.38-3.81-0.33-7.69-1.07-11.42c-0.85-4.28-2.13-8.67-8.1-8.07
				c-1.23,0.12-1.95-0.4-1.78-1.69c0.17-1.35,1.16-1.91,2.39-2.19c3.21-0.73,8.22,2.71,9.34,6.8c1.05,3.83,2.12,7.71,1.56,11.8
				c-0.15,1.11-0.3,2.47,1.03,3.07c1.37,0.62,2.15-0.51,2.9-1.35c4.12-4.64,6.91-10.05,9.57-15.63c2.83-5.94,6.26-11.6,9.54-17.32
				c0.34-0.58,1.42-0.74,2.16-1.09C1129.98,84.04,1129.85,83.91,1129.85,83.91z"/>
			<path d="M1129.98,84.04c1.39-3.64,3.98-4.27,7.19-2.6c3.78,1.96,3.45,5.15,2.36,8.61c-1.88,5.92-4.26,11.69-5.19,17.9
				c-0.43,2.86,0.52,4.51,3.24,5.19c3.16,0.79,4.98,3.15,6.65,5.64c0.68,1.01,1.02,2.33-0.22,3.11c-1.56,0.98-2.07-0.58-2.47-1.53
				c-1.49-3.55-3.38-4.31-6.19-1.27c-0.65,0.7-1.5,1.51-2.57,0.73c-0.79-0.58-0.56-1.51-0.4-2.31c0.59-2.89-0.39-5.44-1.13-8.2
				c-1.68-6.28,0.75-11.94,4.13-17.13c0.72-1.1,1.6-1.98,1.89-3.37c1.04-4.92,0.11-5.94-4.93-5.13c-0.82,0.13-1.65,0.17-2.48,0.26
				C1129.85,83.91,1129.98,84.04,1129.98,84.04z"/>
			<path d="M909.63,694.45c0.31,0.22,1,0.48,1.35,0.98c3.3,4.7,8.31,5.52,13.48,6.39c7.75,1.32,14.97,4.29,21.84,8.06
				c1.1,0.6,2.88,1.24,2.15,2.82c-0.77,1.66-2.34,0.29-3.53,0.1c-2.31-0.36-4.49-0.99-6.55-2.24c-6.07-3.68-12.96-4.77-19.8-5.92
				c-4.24-0.71-7.95-2.31-10.85-5.54c-0.95-1.06-1.35-2.31-0.49-3.65C907.71,694.72,908.4,694.32,909.63,694.45z"/>
			<path d="M1042.76,574.62c-0.65-4.36,1.49-6.66,2.93-8.7c9.01-12.79,11.43-27.36,12.3-42.44c0.09-1.52-0.7-3.99,1.69-3.92
				c2.21,0.06,1.71,2.48,1.65,4.05c-0.56,14.09-3.09,27.55-11.4,39.49C1047.62,566.43,1045.81,570.16,1042.76,574.62z"/>
			<path d="M1069.78,740.69c6.36,5.76,12.71,11.46,19.01,17.22c4.77,4.37,8.27,9.44,8.66,16.2c0.08,1.33,0.49,2.66-0.27,3.86
				c-0.32,0.5-0.9,1.03-1.45,1.15c-0.77,0.16-1.22-0.61-1.2-1.25c0.42-13.03-10.78-18.62-17.36-27.16
				C1074.62,747.41,1071.1,744.76,1069.78,740.69z"/>
			<path d="M931.47,691.36c3.58,1.82,7.19,3.22,10.31,5.35c5.49,3.74,10.7,7.89,15.99,11.92c0.88,0.67,2.16,1.54,1.16,2.82
				c-0.86,1.09-2.07,0.5-3.15-0.11c-8.4-4.76-15.53-11.44-24.17-15.85c-1.09-0.56-2.37-1.58-1.68-3.19
				C930.12,691.84,930.95,691.65,931.47,691.36z"/>
			<path d="M1023.63,363.46c-0.48,3.57-3.13,5.77-5.83,7.05c-9.85,4.66-20.1,8.39-30.49,11.71c-1.45,0.46-3.64,1.85-4.24-0.41
				c-0.68-2.56,2.05-2.36,3.68-2.86c10.67-3.28,21.31-6.67,31.47-11.33C1020.23,366.69,1021.83,364.87,1023.63,363.46z"/>
			<path d="M1015.89,752.34c-1.32-4.79,1.08-7.71,2.43-10.48c3.42-7.01,7.43-13.71,8-21.76c0.07-0.95,0.51-1.94,0.99-2.79
				c0.63-1.12,1.69-1.63,2.96-1.08c1.13,0.48,1.21,1.48,0.94,2.52C1028.15,730.5,1022.47,741.02,1015.89,752.34z"/>
			<path d="M1039.16,200.94c-0.18-6.8-1.39-12.21,0.79-17.62c0.68-1.68,1.47-3.37,1.77-5.14c0.45-2.68,0.1-5.11-3.61-4.98
				c-1.43,0.05-2.7-0.3-2.87-2.03c-0.12-1.22,0.33-2.31,1.2-3.15c1.28-1.26,2.39-0.21,3.59,0.31c5.4,2.35,4.51,7.55,3.6,11.16
				c-1.59,6.32-1,12.86-2.92,19.04C1040.58,198.93,1040.24,199.27,1039.16,200.94z"/>
			<path d="M1039.9,208.01c-0.35,3.95-0.48,6.93-0.9,9.86c-0.45,3.15-2.59,4.87-5.55,5.65c-1.58,0.42-3.36-0.03-4.81,1.02
				c-1.53,1.11-2.42,0.64-2.82-1.1c-0.33-1.43-0.24-2.73,1.47-3.12c1.12-0.26,2.29-0.22,3.42-0.43c4.3-0.8,6.98-2.65,5.41-7.71
				c-0.35-1.14,0.18-2.61,0.5-3.88c0.33-1.32-0.2-3.7,1.83-3.46C1040.57,205.1,1039.82,207.46,1039.9,208.01z"/>
			<path d="M1146.54,150.8c-2.1-4.13-0.15-8.66-0.85-12.97c-0.34-2.1,0.2-4.04-1.93-5.6c-0.89-0.65-1.14-2.3-1.45-3.56
				c-0.2-0.79,0.12-1.79,1.1-1.9c0.48-0.05,1.25,0.45,1.52,0.91c1.27,2.12,3.22,4.25,3.43,6.51c0.5,5.47,0.16,11.03,0.16,16.55
				C1147.87,150.76,1147.2,150.78,1146.54,150.8z"/>
			<path d="M995.01,761.78c-2.8-2.4-2.33-4.2-1.89-5.6c1.59-5.08,2.61-10.19,2.25-15.53c-0.07-0.99,0.18-2.17,1.43-2.25
				c1.72-0.1,1.52,1.33,1.63,2.46C999.11,747.97,994.16,753.77,995.01,761.78z"/>
			<path d="M1065.13,237.57c6.82-1.91,12.19,1.15,17.45,4.54c0.74,0.48,1.17,1.34,0.46,2.09c-0.35,0.37-1.4,0.65-1.72,0.42
				C1076.5,241.02,1070.87,239.29,1065.13,237.57z"/>
			<path d="M1104.19,226.17c-2.05-1.59-4.04-2.72-5.46-4.36c-1.05-1.21,0.72-1.89,1.48-2.64c2.01-1.96,3.59-0.69,5.13,0.73
				c0.12,0.11,0.26,0.21,0.39,0.31c1.41,1.12,3.51,2.19,2.8,4.22C1107.9,226.21,1105.24,223.35,1104.19,226.17z"/>
			<path d="M1018.08,1110.16c-5.86,3.19-9.58-0.53-13.72-0.8c-0.81-0.05-1.4-0.96-0.98-1.89c0.55-1.22,1.75-1.7,2.9-1.34
				C1009.95,1107.27,1013.57,1108.6,1018.08,1110.16z"/>
			<path d="M922.99,356.38c-1.16,3.9-2.28,7.81-3.51,11.68c-0.29,0.91-0.89,1.92-2.15,1.53c-0.96-0.29-1.21-1.32-0.93-2.05
				C917.95,363.51,918.15,358.77,922.99,356.38z"/>
			<path d="M1013.25,754.5c2.11,8.02-2.08,12.66-5.54,17.56C1007.14,765.75,1012.3,761.44,1013.25,754.5z"/>
			<path d="M1036.26,160.4c-2.06-5.78-2.85-11.77-2.31-17.93C1038.06,147.96,1035.24,154.43,1036.26,160.4z"/>
			<path d="M1070.72,231.04c-5.04,0-10.08,0-15.11,0c-1.08,0-2.67,0.59-2.62-1.19c0.05-1.65,1.83-3.26,2.99-2.47
				c4.63,3.17,9.97,0.57,14.73,2.05C1070.71,229.97,1070.71,230.5,1070.72,231.04z"/>
			<path d="M1005.5,1091.91c0.93,2.94,1.18,5.89,3.38,8.17c0.69,0.71,2.35,1.19,1.47,2.63c-0.33,0.55-1.4,0.8-2.16,0.89
				c-1.52,0.19-2.63-0.63-2.87-2.08C1004.8,1098.32,1004.61,1095.09,1005.5,1091.91z"/>
			<path d="M1059.23,889.82c-3.4,0.33-6.93-0.27-10.05,1.96c-1.09,0.78-2.85,0.17-3.17-1.37c-0.34-1.65,1.34-1.71,2.38-1.77
				c3.64-0.23,7.51-2.03,10.72,1.32C1059.11,889.94,1059.23,889.82,1059.23,889.82z"/>
			<path d="M1061.98,1096.45c-3.85,0.96-6.71,1.71-9.59,2.34c-0.55,0.12-1.44-0.05-1.76-0.43c-0.43-0.51-0.14-1.46,0.52-1.65
				C1054.36,1095.8,1057.47,1092.79,1061.98,1096.45z"/>
			<path d="M1096.99,144.1c-1.19-0.06-2.42-0.44-2.12-1.58c0.5-1.9,2.39-2.56,4.1-2.99c0.9-0.22,1.42,0.73,1.32,1.64
				C1100.06,143.16,1098.55,143.75,1096.99,144.1z"/>
			<path d="M1010.51,134.47c2.56,3.64,0.88,6.47,0.42,9.28C1010.05,141.08,1009.26,138.4,1010.51,134.47z"/>
			<path d="M1038.22,483.95c5.3-0.97,10.53-0.81,15.67,0.91C1048.62,485.44,1043.35,486.48,1038.22,483.95z"/>
			<path d="M1058.13,482.08c-3.34-3.23-8.08-1.38-12.24-3.37C1051.83,476.38,1055.64,477.43,1058.13,482.08z"/>
			<path d="M934.64,494.92c-2.49,1.87-5.12,2.1-8.41,0.65C929.22,493.21,931.93,494.25,934.64,494.92z"/>
			<path d="M889.93,818.89c3.8,0.45,7.17,1.27,10.41,2.64c0.93,0.39,2.02,1.07,1.85,2.05c-0.26,1.55-1.79,1.23-2.83,1.04
				C895.61,823.94,892.16,822.66,889.93,818.89z"/>
			<path d="M916.79,817.89c-4.24,1.45-8.63,1.49-13.05,1.21c-0.67-0.04-1.33-0.7-1.05-1.38c0.52-1.24,2-1.68,2.94-1.3
				C909.24,817.91,912.96,817.4,916.79,817.89z"/>
			<path d="M920.09,826.7c-5,0.87-8.76,0.56-12.78-0.49C910.44,824.48,915.51,824.54,920.09,826.7z"/>
			<path d="M915.96,803.04c2.33-3.27,5.4-3.35,9.89-2.2c-3.74,2.34-6.99,1.68-10.02,2.06C915.83,802.91,915.96,803.04,915.96,803.04
				z"/>
		</g>
	</g>
	<g>
		<g>
			<path class="st0" d="M975.67,752.43c1.83,0.53,2.98,1.92,2.91,3.65c-0.19,4.94,1.13,9.45,2.9,14c0.81,2.07,0.49,4.54,1.85,6.62
				c2.45,3.74,3.93,7.57,1.58,12.13c-0.99,1.92-0.05,4.15,0.91,6.21c2.8,6.02,6.75,11.48,8.68,17.92c0.33,1.1,0.86,2.45,2.21,2.38
				c1.45-0.07,1.67-1.64,1.77-2.69c0.81-8.18,4.57-15.42,7.18-23.02c0.54-1.57,0.48-2.91-0.56-4.21c-1.13-1.42-1.17-3.07-0.9-4.76
				c0.14-0.84,0.4-1.78,1.36-1.82c0.94-0.04,1.5,0.85,1.57,1.67c0.49,5.46,2.7,10.62-0.65,16.41c-2.97,5.13-5.99,10.79-5.57,17.27
				c0.1,1.56-1.26,2.21-2.12,3.2c-0.99,1.15-1.01,2.47,0.02,3.62c1.07,1.2,2.37,1.02,3.63,0.3c0.42-0.24,0.71-0.72,1.14-0.96
				c2.12-1.22,4.28-3.39,6.4-3.37c3.84,0.04,1.03,3.93,2.28,5.81c1.29,1.92,1.94,4.14,2.22,6.54c0.3,2.59,0.62,4.78-2.01,6.58
				c-2.42,1.65-1.51,4.21-0.65,6.38c0.98,2.47,2.97,1.57,4.68,1.02c8.65-2.81,17.04,0.52,25.41,1.5c8.78,1.02,17.31,4.16,25.98,6.25
				c3.9,0.94,7.47-1.02,11.16-1.78c1.45-0.3,1.42-2.03,1.41-3.41c-0.11-9.49,2.08-18.77,2.67-28.2c0.21-3.4-1.67-4.98-4.21-6
				c-7.11-2.86-12.53-8.07-17.83-13.21c-5.02-4.86-11.04-7.42-17.47-8.87c-8.03-1.81-12.7,4.38-17.77,9.03
				c-1.54,1.41-2.7,3.23-5.13,4.53c0.1-3.95,2.85-5.54,4.83-7.45c12.23-11.81,23.88-11.76,36.33-1.15
				c9.8,8.35,20.95,14.62,31.13,22.35c2.53,1.92,3.47,0.27,3.77-2.24c2.05-17.34,4.26-34.65,5.48-52.08
				c0.77-10.95,1.89-21.81,0.71-32.81c-0.64-5.95-2.85-11.41-5.3-16.53c-8.04-16.85-12.86-34.5-14.86-52.96
				c-0.41-3.82-3.47-7.26-1.32-12.77c2.39,5.54,4.06,10.03,4.31,14.93c0.51,10.01,2.7,19.84,5.89,29.12
				c2.43,7.08,5.83,14.11,9.58,20.78c0.52,0.93,0.99,2.46,2.48,1.86c1.33-0.54,0.87-1.99,0.87-3.12c0.02-22.3,0.74-44.63-0.23-66.88
				c-0.47-10.81-1.44-21.81-3.89-32.55c-0.99-4.33-0.42-8.99-1.19-13.39c-2.01-11.47-2.43-23.05-3.48-34.59
				c-1.01-11-2.66-22.25-9.28-32.15c-3.48-5.2-4.77-11.91-6.85-18c-1.32-3.88-4.3-5.75-7.73-7.26c-0.79-0.35-1.62-0.49-2.32,0.18
				c-0.89,0.86-0.5,1.78-0.13,2.74c4.45,11.44,4.31,23.49,4.61,35.48c0.02,0.83-0.2,1.81-1.24,1.84c-1.29,0.04-1.6-1.02-1.62-2.05
				c-0.21-8.8-1.95-17.48-1.75-26.34c0.11-4.81-0.81-9.66-4.68-13.24c-0.82-0.76-1.67-1.88-3-1.13c-1.21,0.68-1.12,2-0.94,3.13
				c0.28,1.81,0.77,3.58,1.11,5.38c0.25,1.29-0.14,2.42-1.51,2.72c-1.4,0.31-2.15-0.61-2.45-1.89c-0.77-3.32,0.14-7.53-3.44-9.46
				c-3.33-1.8-6.7,1.27-10.11,1.13c-12.44-0.51-24.86,0.79-37.36-0.53c-14.89-1.57-29.69-4.17-44.95-2.31
				c-9.29,1.13-18.85,1.15-28.04,3.03c-6.53,1.34-12.94,4-18.94,6.99c-6.65,3.31-12.68,7.84-19.16,11.52
				c-11.14,6.31-15.87,16.77-18.09,28.46c-0.9,4.75-2.54,9.26-3.78,13.82c-2.31,8.51-3.9,17.11-5.54,25.73
				c-0.38,2.01-0.42,4.03,0.15,5.95c2.35,7.88,3.49,16.07,7.26,23.6c2.18,4.37,3.64,9.41,4.1,14.28
				c1.57,16.29,9.54,27.35,24.49,34.18c6.77,3.09,13.07,7.04,20.42,8.99c5.71,1.51,10.47,4.95,14.39,10.38
				c-2.77-0.2-3.97-2.17-5.71-3.05c-4.91-2.49-9.87-4.55-15.39-5.58c-7.3-1.37-13.58-5.33-19.53-9.7c-1.36-1-2.82-2.42-4.42-1.14
				c-1.65,1.32-0.46,3.12,0.24,4.56c3.57,7.29,10.8,8.89,17.61,10.89c2.34,0.68,4.37,1.2,6.28,4.94
				c-6.77-3.08-12.79-4.06-18.51-6.01c-2.56-0.87-4.21-0.67-4.24,1.96c-0.08,8.25-2.68,16.02-4.13,24.01
				c-0.5,2.77-1.04,5.57-0.55,8.44c0.16,0.95,0.22,2.15-0.94,2.55c-1.46,0.51-2.01-0.77-2.62-1.73c-1.29-2.03-0.72-4.14-0.29-6.29
				c1.69-8.49,3.37-16.98,4.35-25.6c0.45-3.96-0.28-7.63-1.5-11.26c-1.15-3.42-3.28-6.54-2.13-10.51c0.44-1.51-1.12-2.68-2.04-3.84
				c-3.59-4.49-6.6-9.47-7.5-15.07c-2.33-14.53-8.64-27.89-11.75-42.21c-2.1-9.64-2.73-18.88,0.06-28.45
				c3.08-10.53,5.61-21.21,8.28-31.85c2.07-8.22,6.34-15,12.98-20.22c4.54-3.57,8.41-8.8,8.37-13.64
				c-0.06-8.23-1.42-17.41-9.59-22.4c-7.66-4.68-9.34-11.74-9.41-19.61c-0.09-9.65,0.1-19.31,0.54-28.95
				c0.19-4.27-0.99-8.01-3.21-11.32c-4.56-6.82-3.79-14.24-2.73-21.6c0.39-2.67,0.29-4.68-1.03-7.03c-2.62-4.67-4.31-9.53-3.52-15.2
				c0.57-4.1-0.3-8.31-3.15-11.66c-2.63-3.09-3.41-6.61-3.57-10.6c-0.43-10.48-1.44-20.95-1.78-31.43
				c-0.62-18.95,6.98-34.6,20.46-47.42c8.82-8.39,18.42-15.92,30.17-19.88c4.99-1.69,9.98-3.55,15.41-3.85
				c3.57-0.2,6.27-2.93,9.26-4.66c4.3-2.48,8.13-5.6,13.18-6.86c4.17-1.03,6.19-7.89,3-10.04c-6.28-4.22-6.25-11.42-9.21-17.17
				c-1.05-2.04-1.35-3.27-4.51-2.89c-4.51,0.55-6.3-3.68-7.26-7.32c-1.9-7.24-3.33-14.59-4.95-21.9c-0.74-3.31-2.1-6.35-2.22-9.98
				c-0.15-4.48,1.44-6.67,5.4-7.43c3.69-0.71,4.21-2.52,3.65-6.06c-2.1-13.43-1.3-25.74,7.59-37.74
				c6.75-9.12,14.96-15.79,23.57-22.44c3.98-3.07,9.15-2.78,13.75-3.74c9.44-1.96,19.51-1.37,27.83,2.75
				c10.77,5.33,20.72,12.86,26.12,24.4c1.57,3.35,5.36,6.26,3.42,10.86c-2.26-0.1-2.02-1.92-2.55-3.21
				c-1.97-4.75-4.25-9.12-9.12-11.82c-5.68-3.15-7.64-10-12.85-13.77c-2.87-2.08-5.17-5.54-9.54-3.44
				c-0.26,0.13-0.74,0.12-0.97-0.03c-8.01-5.39-16.59-0.63-24.87-1.3c-5.45-0.44-10.09,2.16-14.74,5.17
				c-10.01,6.49-16,16.26-22.37,25.72c-4.2,6.23-2.2,13.65-2.51,20.52c-0.21,4.74,0.55,9.74,0.29,14.37
				c-0.27,4.7-3.72,9.17-0.84,14.28c0.25,0.45-1.2,1.84-1.84,2.8c-1.38,2.04-2,4.21-0.99,6.61c0.48,1.14,0.2,2.98,2.07,2.94
				c1.54-0.03,2.15-1.36,2.55-2.7c0.22-0.75-0.11-1.71,1.25-2.4c0.84,5.38,6.16,9.38,3.73,15.64c-0.81,2.09,1.72,3.5,2.09,5.41
				c0.93,4.84,4.65,8.65,4.54,14c-0.05,2.66,2.25,4.85,5,6.36c3.19,1.76,6.59,4.03,2.99,8.46c-0.57,0.7-0.82,1.47-0.08,2.21
				c0.67,0.67,1.51,0.65,2.32,0.3c9.06-3.86,18.65-5.49,28.31-6.93c9.36-1.39,18.75-1.89,28.19-1.15c2.9,0.23,5.12,0.01,6.45-3.18
				c0.78-1.86,2.54-3.32,4.08-5.23c1.35,2.96,0,4.71-1.16,6.48c-1.91,2.91-0.7,4.71,2.32,4.67c7.35-0.09,15.04,1.67,21.68-3.21
				c1.33-0.98,2.39-0.81,3.57,0.16c1.23,1.01,0.92,1.73-0.04,2.84c-2.19,2.53,0.09,2.58,1.76,2.78c5.73,0.69,10.75,3.39,15.94,5.61
				c0.86,0.37,2.18,0.76,1.57,2.03c-0.52,1.07-1.74,0.7-2.68,0.37c-6.25-2.18-12.52-4.31-18.73-6.59c-4.18-1.53-8.5-1.2-12.79-1.33
				c-0.82-0.03-1.78,0.26-1.95,1.2c-0.17,0.98,0.77,1.33,1.47,1.78c3.37,2.14,6.76,4.25,10.07,6.48c1.08,0.72,2.38,1.81,1.18,3.24
				c-1.09,1.31-2.07-0.08-2.98-0.66c-6.56-4.23-12.98-8.58-20.3-11.6c-12.59-5.2-25.47-3.95-38.36-2.59
				c-10.2,1.08-19.91,4.81-29.51,7.98c-5.81,1.92-12.33,4.51-17.16,8.75c-6.55,5.74-14.46,7.05-22.35,8.81
				c-14.09,3.13-24.94,11.61-34.81,21.43c-4.43,4.41-8.05,9.68-11.73,14.78c-5.83,8.05-6.11,17.41-5.56,26.81
				c0.66,11.47,1.55,22.93,2.3,34.39c0.36,5.59,3.72,10.21,5.01,15.51c0.38,1.57,1.61,3.13,1.03,4.73
				c-2.72,7.5,1.77,12.74,5.64,18.04c2.95,4.04,6.71,7.43,10.84,10.28c4.15,2.87,7.34,6.72,10.98,10.12c0.72,0.67,1.5,1.59,0.7,2.58
				c-0.75,0.94-1.89,0.66-2.71,0.05c-1.59-1.2-3.34-2.34-4.54-3.89c-3.94-5.1-10.58-6.9-14.46-12.14c-1.34-1.82-2.83-1.01-3.27,1.38
				c-1.57,8.57,2.32,16.67,9.65,21.95c5.98,4.31,13.43,5.99,18.87,11.12c1.21,1.14,4.01,1.87,2.4,4.04
				c-1.3,1.75-2.88-0.29-4.26-1.07c-5.49-3.12-10.99-6.2-16.5-9.27c-2.46-1.37-3.57-0.87-3.63,2.19
				c-0.19,10.13-0.66,20.26-0.85,30.39c-0.13,6.83,7.07,16.76,13.38,18.82c0.31,0.1,0.67,0.24,0.97,0.18
				c9.62-1.88,19.23-3.78,29.92-5.89c-4.69-3.32-9.6-0.75-13.31-3.6c1.35-2.11,3.34-1.44,4.96-1.35c9.3,0.53,18.6,1.07,27.88,1.85
				c12.51,1.04,24.47-1.61,36.37-4.91c1.01-0.28,1.89-0.77,1.88-1.99c-0.01-1.17-0.85-1.77-1.83-2.12
				c-2.95-1.03-6.03-1.76-8.61-3.85c9.67,1.21,19.39,2.21,28.47,6.12c13.06,5.62,25.67,3.31,38.13-1.97
				c4.44-1.88,8.8-3.95,13.29-5.72c1.82-0.72,3.83-1.14,5.23,1.22c3.01,5.04,6.86,4.73,10.5,0.08c5.77-7.35,6.14-16.36,8.67-24.73
				c2.21-7.33,3.29-14.86,5.05-22.26c1.44-6.05-1.43-11.46-2.34-17.13c-0.39-2.46-3.13-1.03-4.39,0.25
				c-6.83,6.97-15.06,11.92-23.43,16.73c-1.35,0.77-2.95,2.02-3.9,0.46c-1.06-1.76,1.25-1.78,2.24-2.41
				c9.45-5.97,18.35-12.69,26.43-20.4c4.62-4.41,5.07-10.66,6.13-16.54c0.15-0.82,0.06-1.76-0.83-2.16
				c-1.44-0.65-2.68,0.12-3.6,1.05c-6.14,6.22-14,10.08-20.86,15.3c-0.49,0.37-1.12,0.57-2.52,1.26c1.28-3.28,3.47-4.51,5.3-6.11
				c6.02-5.25,13.16-9.09,18.74-14.91c4.91-5.12,5.92-12.14,8.97-18.17c0.21-0.41,0.3-1.14,0.07-1.46
				c-4.02-5.64,1.06-9.87,2.1-14.77c2.2-10.31,8.2-19.1,11.09-29.08c0.84-2.92,2.24-6.07-0.28-9.05c-0.43-0.51-0.48-1.63-0.28-2.35
				c2.28-8.24-1.44-14.93-5.67-21.38c-3.01-4.59-6.45-8.9-9.7-13.32c-0.56-0.77-1.6-1.53-0.62-2.52c0.86-0.88,2.06-0.45,2.64,0.33
				c5.51,7.39,12.82,13.66,14.69,23.34c0.24,1.23-0.3,3.1,1.44,3.29c1.54,0.17,2-1.59,2.45-2.79c4.09-10.72,4.39-21.28-1.6-31.5
				c-0.42-0.71-0.82-1.43-1.2-2.16c-0.06-0.12,0.02-0.32,0.04-0.48c4.38,1.82,6.51,4.94,6.82,9.86c0.1,1.54-0.43,4.04,1.83,3.84
				c2.21-0.19,2.08-2.61,1.81-4.48c-1.06-7.42-6.12-12.71-9.7-18.85c-5.59-9.57-14.6-13.52-24.1-17.17
				c-1.24-0.48-2.55-0.77-3.8-1.24c-0.42-0.15-0.74-0.56-1.22-0.94c3.21-2.42,6.51-1.29,9,0.33c5.64,3.68,12.06,5.89,17.41,10.22
				c2.88,2.33,4.4,5.22,6.42,7.95c0.67,0.91,0.91,2.42,1.76,2.88c1.64,0.89,3.3,3.19,5.27,1.84c1.7-1.17,0.86-3.4,0.11-5.08
				c-1.14-2.55-0.99-4.77,0.92-6.93c2.27-2.57,0.62-6.04,2.09-9.05c2.75-5.62,4.75-11.61,2.86-18.11c-0.28-0.96-1.07-2.56,0.81-2.75
				c1.4-0.14,1.87,1.31,2.04,2.43c0.91,5.98,1.41,12.09-0.74,17.79c-1.68,4.45-2.47,8.93-3.05,13.56c-0.49,3.9-0.37,7.98-3.42,11.21
				c-0.99,1.05-0.9,2.85-0.59,4.35c2.05,9.75-0.29,18.96-3.44,28.06c-0.98,2.83-2.06,5.64-3.31,8.36
				c-2.15,4.65-4.42,8.93-3.33,14.65c0.91,4.77-2.59,9.2-4.52,13.53c-4.57,10.22-7.58,21.05-9.86,31.75
				c-1.69,7.92-4.11,15.63-5.83,23.51c-1.07,4.88,1.1,9.84-0.76,14.78c-0.78,2.09-0.8,4.46-2.03,6.55
				c-2.01,3.42,0.34,6.73,1.54,9.46c4.39,9.97,0.61,19.41-1.29,28.85c-1.43,7.1-3.69,14.06-4.98,21.23c-0.93,5.15-3.88,9.52-6,14.18
				c-3.58,7.85-1.8,14.97,1.69,22.22c4.58,9.52,9.16,19.05,12.4,29.15c0.91,2.84,2.15,5.61,3.52,8.26
				c4.46,8.63,7.47,17.83,9.04,27.29c1.35,8.13,1.2,16.51,1.64,24.79c0.23,4.32,0.47,8.62,1.64,12.82c0.36,1.28,0.9,2.66,0.73,3.91
				c-1.31,9.95,3.15,19.27,2.98,29.15c-0.08,4.51,2.06,8.97,2.69,13.6c1.73,12.66-0.27,25.29,0.02,37.92
				c0.18,7.61,0.4,15.33,0.25,22.82c-0.18,8.98,2.59,18.01-0.44,27.17c-1.34,4.05,1.39,8.94,1.01,13.67
				c-0.42,5.18-0.06,10.23-1.21,15.56c-3.61,16.76-4.69,33.95-5.77,51.06c-0.54,8.59-1.81,16.83-4.98,24.86
				c-1.67,4.24-4.77,7.55-7.86,10.11c-5.39,4.47-5.59,9.59-5.06,15.61c0.53,6.06-2.33,11.74-2.67,17.75
				c-0.05,0.92-1.21,1.85-1.12,2.69c0.66,6.15-2.81,11.63-2.89,17.52c-0.19,13.15-6.01,25-7.99,37.66
				c-1.55,9.89-3.71,19.65-5.81,29.4c-1.53,7.1-3.24,14.19-5.01,21.26c-1.29,5.14,0.31,10.52-1.72,15.68
				c-1.43,3.65-2.62,7.55-1.87,11.69c0.13,0.71-0.28,2.07-0.75,2.24c-5.52,1.93-2.42,4.55-0.98,7.49c1.88,3.84,1.42,8.47,3.9,12.25
				c2.72,4.16,5.84,7.35,11.29,6.42c2.2-0.38,3.64,1.39,6.03,1.68c-0.6-3.49,1.58-3.77,4.24-4.5c7.95-2.18,16.15-1.35,24.19-2.57
				c9.51-1.45,17.52,7.65,13.66,17.83c-0.97,2.57-0.58,5.65-1.46,8.28c-1.96,5.85-6.56,10.66-11.06,13.62
				c-7.12,4.69-14.29,9.66-22.15,13.27c-1.46,0.67-2.82,1.89-5.22,0.7c9.62-9.13,22.98-12.42,32.62-22.36c-4-0.3-7.07,1.28-9.2,2.77
				c-6.65,4.64-15.23,5.78-20.8,12.56c-3.52,4.29-8.13,7.4-15.02,6.22c-5.65-0.97-11.5,1.04-15.9,5.53
				c-1.44,1.47-3.08,2.55-5.34,1.88c-2.49-0.74-4.98-1.37-3.93,2.86c0.19,0.78-0.35,1.21-1.11,1.31
				c-7.23,0.93-13.91,6.15-21.63,2.27c1.62-1.07,2.41-3.51,4.86-4.32c0.77-0.25,1.66-0.68,1.27-1.75c-0.35-0.95-1.34-1.05-2.12-0.86
				c-4.08,0.99-5-1.65-5.26-4.7c-0.26-3.05-3.97-6.96,1.87-8.77c0.21-0.07,0.36-0.55,0.43-0.86c1.21-5.42,1.22-5.42,7.34-3.54
				c0.37,1.85-2.06,1.49-2.32,3.21c3,0.88,5.92,2.61,6.74-2.74c0.52-3.42,3.46-4.36,6.46-4.18c7.97,0.47,15.65,0.09,22.21-5.32
				c1.28-1.06,2.67-1.48,3.21,0.98c0.31,1.4,2.44,1.84,2.44,0.78c0.04-6,5.38-6.31,8.75-8.03c7.77-3.96,13.94-9.41,18.8-16.51
				c0.46-0.67,1.33-1.89,1.73-1.2c2.47,4.33,4.95,1.2,7.46,0.25c0.81-0.31,2.14-0.28,2.14,0.53c0,2.74,3.07,5.36,0.87,8.01
				c-2.73,3.3-4.81,7.25-8.69,9.51c-0.84,0.49-2.14,0.85-1.47,2.08c0.59,1.09,1.83,0.79,2.58,0.04c3.24-3.26,7.96-5.04,9.76-9.75
				c0.23-0.59,0.65-1.17,1.12-1.61c1.51-1.39,4.5-1.55,4.31-4.31c-0.19-2.63,0.92-5.37-0.46-7.87c-1.71-3.08-9.27-4.51-13.87-1.99
				c-4.07,2.23-8.08,3.74-12.73,3.42c-1.01-0.07-2.2,0.15-2.39,1.34c-0.37,2.34,2.74,1.58,3.15,3.48
				c-6.23,6.25-14.08,10.16-22.05,13.87c-3.59,1.67-6.52-0.88-7.39-3.32c-1.98-5.52-6.04-4.62-10.05-4.51
				c-1.31,0.04-2.61,0.61-3.86-0.12c-1.12-1.75,3.04-2.38,0.94-4.08c-1.85-1.5-2.94,0.3-4.06,1.51c-0.94,1.01-2.11,1.03-3.15,0.25
				c-0.45-0.34-0.91-1.13-0.83-1.63c0.19-1.16,1.32-1.41,2.29-1.56c4.77-0.74,9.53-3.06,13.94,1.7c2.01,2.17,4.79,0.16,5.57-2.03
				c1.28-3.59-1.03-6.26-3.6-8.58c-2.47-2.22-3.88-0.1-5.46,1.26c-1.13,0.98-2.16,2.23-3.84,2.01c-5.9-0.75-9.68,1.98-12.06,7.14
				c-1.12,2.44-2.7,2.28-5.4,2.38c-5.31,0.19-7.98-3.49-12.2-6.49c0.03,2.88,2.48,4.87-0.2,6.87c-1.56,1.17,0.02,2.42,1.44,2.61
				c1.97,0.27,3.99,0.29,5.98,0.24c2.79-0.07,6.13-1.74,6.11,3.57c-0.01,1.94,2.65,1.63,4.23,1.42c2.05-0.27,4.37,0.21,6.19-1.78
				c-1.85-2.47-5.41-0.32-7.14-2.7c3.18-1.22,3.18-1.22,13.95,2.83c-1.09,2.05-3.56,1.5-5.08,2.75c-1.36,1.12-3.01,1.88-4.71,2.9
				c4.75,2.21,11.24,0.24,12.85-3.92c0.79-2.05,2.23-2.29,3.89-2.35c2.04-0.07,1.36,1.36,1.65,2.66c1.06,4.81,0.84,4.89-4.48,6.83
				c-7.34,2.67-15.11,2.94-22.62,4.59c-3.21,0.7-6.43-1.33-9.58-2.34c-4.78-1.54-6.57-0.35-6.57,4.63c0,2.47,0.41,4.97-1.98,7.5
				c-0.03-11.18-0.92-21.89,2.38-32.25c3.15-9.89,2.92-20.01,2.61-30.15c-0.23-7.49-0.9-14.96-1.22-22.45
				c-0.2-4.75-3.11-8.63-3.73-13.35c-1.14-8.69-2.44-17.41-3.81-26.02c-1.4-8.82-3.13-17.95-6.58-26.41
				c-1.73-4.25-0.57-8.55-0.79-12.75c-0.65-12.58-1.46-25.28,1.76-37.72c0.5-1.93-0.25-6.23,4.03-2.59c0.8,0.68,1.4-0.04,1.98-0.76
				c6.01-7.45,14.05-7.3,22.18-5.3c3.12,0.77,5.98,2.72,9.62,2.55c-0.3,2.82-5.12,1.49-3.69,4.44c1.34,2.77,4.64,0.42,6.81,2
				c-8.71-0.61-17.42-2.04-26.21-0.05c8.09-0.61,14.78,4,22.8,5.22c-3,1.48-5.28,1.57-9.56,0.11c-2.6-0.89-5.2-1.16-7.87-0.93
				c-0.94,0.08-2.61,0.52-2.65,0.93c-0.83,7.71-6.66,4.62-10.78,5.04c-0.99,0.1-2.02-0.12-2.83,0.6c-0.78,0.69-1.32,1.6-0.98,2.65
				c0.44,1.36,1.58,1.63,2.84,1.32c5.23-1.3,10.83-0.93,15.49-4.77c2.88-2.37,6.53-0.77,10.95,0.71c-3.44,1.63-5.87,1.24-8.26,1.16
				c-0.82-0.03-1.77-0.04-1.98,1.03c-0.2,1.05,0.62,1.62,1.43,1.65c5.24,0.18,10.51,4.33,14.99,2.93c9.36-2.92,16.9,3.15,25.46,3.14
				c1.66,0,3.33,0.3,4.99,0.24c1.51-0.06,3.86,0.59,3.84-1.85c-0.02-2.02-2.05-2.5-3.79-2.24c-4.87,0.74-8.68-2.78-14.49-2.42
				c2.92-2.71,6.93-1.88,7.15-5.62l-0.12,0.13c3.69-2.68-1.07-3.94-1-6.43c3.59,1.44,7.06,3.11,10.98,2.38
				c1.35-0.25,2.82-0.3,2.9-2.06c0.07-1.69-1.21-2.06-2.64-2.37c-4-0.87-7.97-1.87-12.35-2.92c1.77-3.15,5.55-0.65,6.98-3.36
				c-2.05-2.49-5.63-0.17-7.94-2.71c4.34-2.14,8.25,0.25,12.21,0.51c0.8,0.05,1.6,0.76,2.34,0.67c1.56-0.18,2.96-0.98,3.04-2.75
				c0.08-1.59-1.32-1.6-2.48-1.82c-2.88-0.54-5.74-1.16-8.63-2.26c3.01-1.15,6.43-0.06,9.24-1.68c-0.32-2.82-3.69-1.5-4.41-3.95
				c2.54-0.17,4.96-0.27,7.37-0.52c0.79-0.08,1.66-0.47,1.71-1.5c0.05-1.03-0.78-1.42-1.57-1.66c-5.06-1.53-10.1-2.8-14.36,1.85
				c-2.66,2.91-5.78,3.74-9.49,2.24c-0.6-0.24-1.5-0.59-1.92-0.34c-5.97,3.63-10.14-1.99-15.15-3.04c-3.11-0.66-6.58,0.45-9.51-2.15
				c-1.11-0.99-3.26,0.93-3.53,2.57c-0.25,1.56,1.56,1.33,2.63,1.43c1.49,0.15,3.03-0.03,4.49,0.23c1.94,0.35,3.53,1.1,0.92,2.98
				c-0.54,0.39-1.36,0.79-0.96,1.47c3.16,5.49-1.78,3.92-3.77,3.98c-7.57,0.23-15.25-1-22.15,3.81c-2.58,1.79-2.19-0.91-1.77-2.19
				c2.52-7.7,3.79-15.82,7.45-23.12c2.27-4.53,2.27-9.31,2.16-14.09c-0.09-3.68-2.99-5.05-6.05-5.65
				c-6.54-1.29-9.69-5.36-11.35-11.64c-1.44-5.44-5.9-9.52-8.06-14.79c-1.7-4.15-3.46-7.81-2.78-12.78
				c0.68-4.92-0.21-10.23-2.52-15.01c-3.2-6.63-4.07-13.67-3.38-20.94L975.67,752.43z M1038.65,965.2
				c4.64-5.8,11.99-7.03,18.85-10.39c-5.83-3.28-10.6-1.08-15.63,0.06c2.87-1,3.03-5.18,6.76-4.94c2.18,0.14,5.37,1.29,6-1.72
				c0.69-3.3-3.19-2.51-4.88-3.77c-0.21-0.15-0.23-0.56-0.55-1.42c4.6-0.4,9.47,0.87,14.24-2.46c-10.1-0.6-19.36-0.7-28.5-1.84
				c-6.19-0.77-12.19-1.22-18.23,0.33c-1.34,0.34-3.61-0.05-3.6,1.82c0.02,1.88,2.27,1.64,3.61,1.69
				c8.47,0.34,16.94,0.69,25.28,2.42c1.17,0.24,3.09-0.5,3.01,1.56c-0.06,1.66-1.78,1.95-3.07,1.9c-4.48-0.2-8.95-0.62-13.42-0.92
				c-2.32-0.15-4.77-0.72-6.85,1.35c2.32,2.49,5.75,1.15,8.39,3.4c-3.08,1.11-5.68,1.03-8.28,0.91c-4.09-0.2-7.96,0.6-11.46,2.75
				c-1.5,0.92-2.49,2.4-1.84,4.23c0.58,1.65,2.18,1.89,3.73,1.9c2.09,0.02,3.78-1.06,5.56-1.99c3.92-2.03,10.5-2.56,11.6-0.29
				c2.32,4.78,5.98,4.19,9.41,5.3c-2.42,1.72-5.13,2.23-8.04,1.98c-1.27-0.11-3.27-0.59-3.33,1.08c-0.07,2.13,2.16,1.49,3.5,1.55
				c3.48,0.16,7.02-0.25,11.58,1.17c-5.33,2.1-9.81,2.2-15.27,2.53c5.29,1.1,9.51,1.98,14.17,2.95c-0.82,0.71-1.06,1.09-1.3,1.1
				c-6.44,0.25-12.97-0.71-19.24,1.76c-1.41,0.56-2.21-0.43-1.9-1.95c0.89-4.37-2.2-6.55-5.23-9.8c0.31,2.55,2.59,4.45,1.04,5.77
				c-3.44,2.93-1.67,6.88-2.32,10.23c-0.64,3.27,0.65,7.44,3.13,9.55c2.2,1.87,4.37-2.18,6.75-2.72c5.46-1.22,11.02-3.3,16.89-0.84
				c-2.31,3.82-7,0.54-9.77,4.55c7.13,0.47,13.53,0.98,19.95,1.25c1.64,0.07,3.37-0.66,3.88-2.58c0.33-1.26,0.89-3.22-0.37-3.68
				c-2.78-1.01-4.96-3.37-8.11-3.5c-8.59-0.35-17.15-0.32-25.56,1.84c-1.09,0.28-2.54,0.88-3.03-0.58c-0.53-1.55,1.07-1.82,2.1-2.2
				c6.2-2.3,12.66-2.44,19.18-2.43c5.9,0,11.76,0.12,16.52-4.86c2.55-2.67,0.84-2.77-0.97-3.4c-0.93-0.32-1.99-0.25-2.93-0.55
				c-0.94-0.29-2-0.78-1.87-1.98c0.1-0.98,1.11-1.1,1.91-1.31c1.2-0.32,3.33,0.24,3.24-1.45c-0.1-2.04-2.29-1.22-3.66-1.46
				c-0.66-0.12-1.29-0.36-1.22-1.29c0.76-1.4,2.38-0.79,3.48-1.4c1.21-0.68,3.6-0.36,3.33-2.29c-0.33-2.36-2.51-1.45-4.09-1.33
				C1046.62,961.12,1043.06,964.4,1038.65,965.2z M916.13,490.87c-0.76-3.23-2.98-3.42-5.77-3.03c-3.35,0.47-5.98,2.96-9.44,3.07
				c-1.44,0.05-3.62,0.06-3.37,2c0.28,2.19,0.59,4.79,2.48,6.29c1.53,1.22,2.63-0.49,3.76-1.43c3.74-3.09,7.66-5.87,12.48-7.05
				c-1.45,2.53-3.83,4.04-6.05,5.81c-4.64,3.7-9.61,7.09-8.49,14.55c0.58,3.87,1.58,4.18,4.6,2.46c4.3-2.44,8.38-5.36,13.22-6.76
				c7.63-2.2,15.25-4.28,23.08-5.91c13.21-2.75,26.28-3.06,39.58-2.27c10.24,0.61,20.4,1.72,30.48,3.61
				c1.51,0.28,3.26,0.24,4.27-1.96c-20.4-9.17-41.89-9.82-63.48-9.95c0.36-0.71,0.61-0.97,0.89-1.01
				c23.83-3.45,46.62,1.66,69.01,8.92c7.54,2.44,14.85,4.56,22.81,3.23c7.35-1.23,14.7-2.48,22.03,0.27
				c1.38,0.52,3.08,0.57,4.29-0.52c1.42-1.27,0.55-2.95-0.06-4.17c-2.53-5.07-6.44-8.28-12.39-8.45c-1.17-0.03-2.39-0.23-2.93-1.47
				c-0.13-0.3,0.16-0.98,0.47-1.23c1.02-0.84,2.1-0.54,3.27-0.11c6.3,2.31,6.31,2.28,5.97-4.02c-0.53-10.03-0.58-10.71-10.59-9.97
				c-5.98,0.44-13.51-3.01-17.88,4.7c-0.45,0.78-2.46,0.81-3.77,0.94c-2.15,0.22-4.33,0.17-6.48,0.38
				c-1.07,0.11-2.32,0.03-2.66,1.66c-0.81,3.83-1.39,4.09-4.73,1.91c-1.42-0.92-2.72-1.98-4.48-1.94
				c-6.16,0.16-11.79-1.92-17.4-4.04c-4.77-1.8-9.51-1.98-14.06,0.27c-9.89,4.9-20.62,6.02-31.33,7.23
				c-7.66,0.86-15.32-0.18-23.04,2.67C925.69,487.3,921.55,491.01,916.13,490.87z M1037.73,924.31c1.26-1.08,2.05-1.68,2.74-2.37
				c0.88-0.88,2.91-1.15,2.38-2.77c-0.58-1.76-2.54-2.02-4.19-2.12c-1.14-0.07-2.29,0.4-3.45,0.43c-1.31,0.04-3.21,0.14-3.38-1.34
				c-0.22-1.94,1.79-1.5,2.99-1.56c3.16-0.15,6.33-0.03,9.48-0.27c2.73-0.21,4.41,0.29,4.79,3.48c0.36,3.06,2.17,4.97,5.8,4.75
				c-2.36-4.9-2.26-5.18,2.87-4.8c2.68,0.2,4.89-0.77,7.12-1.86c0.51-0.25,1.13-0.99,1.08-1.44c-0.04-0.44-0.87-1.13-1.37-1.13
				c-6.52-0.07-12.46-2.76-18.7-4.05c-1.32-0.27-3.51,0.57-3.28-1.66c0.18-1.75,2.22-1.71,3.73-1.51c0.98,0.13,2,0.39,2.85,0.86
				c5.82,3.26,12.43,1.78,18.56,3.17c1.14,0.26,2.48,0.18,2.88-1.26c0.42-1.5-0.71-2.16-1.91-2.36c-10.1-1.61-19.64-6.36-30.21-5.43
				c-1.3,0.11-2.82-0.43-3.65,0.91c-1.01,1.62,0.74,2.25,1.46,3.25c0.7,0.97,2.64,1.59,1.44,3.16c-0.82,1.08-2.2,0.33-3.26-0.04
				c-11.26-3.89-22.54-2.32-33.81-0.1c-2.52,0.5-3.15,2.51-2.51,4.6c0.71,2.28,2.33,1.39,4.05,0.8c3.91-1.35,7.9-2.92,11.95-3.3
				c5.92-0.55,11.93-0.14,18.5-0.14c-3.57,4.73-7.38,5.83-12.02,4.69c-4.06-1-7.88,0.43-11.81,1.26c7.24,1.84,14.49,3.09,21.7,4.51
				c1.41,0.28,4.05,0.02,3.53,2.32c-0.4,1.75-2.6,0.65-3.97,0.45c-6.48-0.93-12.92-0.36-19.38,0.11c2.45,1.72,5.18,0.99,7.72,1.31
				c10.22,1.27,20.08,4.71,30.47,4.91c3.18,0.06,6.33,0.17,9.4-0.79c0.95-0.3,1.98-0.68,1.59-2.03c-0.31-1.09-14.09-4.81-14.95-4.07
				c-0.12,0.11-0.2,0.27-0.31,0.39C1042.93,925.32,1040.84,925.63,1037.73,924.31z M1029.76,1030.31c3.05-0.33,5.71-0.48,8.33-0.93
				c4.87-0.85,8.17-3.47,8.99-8.62c0.2-1.28,0.92-2.67-0.6-3.59c-1.26-0.76-2.2,0.21-3.13,0.86c-5.79,4.08-12.86,5.24-19.07,8.39
				c-1.55,0.79-3.51,0.06-4.42-1.44c-1.15-1.89,0.93-2.5,1.98-3.38c2.56-2.15,5.79-2.46,8.9-2.87c3.67-0.48,7.11-1.7,10.58-2.82
				c1.35-0.44,2.3-1.61,2.06-3.08c-0.3-1.88-1.91-1.47-3.2-1.34c-4.5,0.45-8.81,1.65-13.01,3.28c-4.92,1.9-9.74,3.76-10.56,10.1
				c-0.25,1.91-2.97,3.53-0.61,5.72c2.16,2,5.27,1.84,7.01,0.64C1025.53,1029.52,1027.66,1029.61,1029.76,1030.31z M1019.24,929.04
				c-4.36-0.64-9.22,0.29-14,1.92c-1.48,0.5-2.27,1.46-1.84,3.02c0.38,1.38,1.5,1.67,2.78,1.39c7.96-1.75,15.69-2.62,23.93-0.23
				c7.19,2.09,15.14-0.48,22.59,2.01c1.95,0.65,4.3,0.29,6.44,0.12c1.41-0.11,3.49-0.19,3.37-2.14c-0.12-2.06-2.24-1.71-3.6-1.56
				c-5.69,0.62-11.26-0.71-16.75-1.51C1034.76,930.99,1027.45,929.38,1019.24,929.04z M1015.19,1009.24
				c-0.15,1.12-0.28,1.78-0.32,2.44c-0.09,1.48-0.41,3.41,1.33,3.85c1.75,0.44,3.07-1.07,3.9-2.53c0.46-0.81,0.67-1.94,0.54-2.85
				c-0.4-2.64,1.02-3.84,3.1-5.01c7.35-4.13,15.5-2.54,23.3-3.42c1.24-0.14,2.96,0.77,3.39-0.94c0.48-1.88-1.42-1.75-2.6-2.17
				c-9-3.19-17.5-0.95-26.03,2.12C1017.39,1002.31,1013.54,1003.87,1015.19,1009.24z M1083.1,837.76c-0.06,0.66-0.11,1.33-0.18,1.99
				c-0.14,1.29-0.74,2.77,0.87,3.52c1.62,0.76,2.3-0.69,3.24-1.6c2.04-1.97,4.12-3.88,5.6-6.34c3.5-5.8,2.15-12.43-3.32-16.3
				c-1.47-1.04-3.85-1.93-3.66,0.59C1086.14,825.95,1083.55,831.67,1083.1,837.76z M938.99,211.21c-0.38-2.32-0.74-4.42-1.08-6.53
				c-0.49-2.98-2.83-3.64-5.15-3.47c-2.89,0.2-1.29,2.79-1.71,4.3c-0.8,2.85,2.76,3.97,2.68,6.61c-0.06,1.84,1.16,2.75,2.88,2.57
				C938.77,214.48,938.87,212.67,938.99,211.21z M1074.43,1079.3c-1.76-3.74-3.65-4.76-6.84-2.63c-2.96,1.98-6.1,3.93-8.83-0.56
				c-0.52-0.85-1.74-1.14-2.59-0.24c-0.36,0.38-0.55,1.27-0.38,1.76c1.06,2.97,8.36,5.89,10.34,3.81
				C1068.47,1078.99,1070.96,1078.47,1074.43,1079.3z M1044.04,1006.35c-0.22-1.3-1.04-1.76-2.11-1.82
				c-4.95-0.28-9.24,2.07-13.75,3.5c-0.61,0.19-1.06,0.84-0.82,1.58c0.32,0.98,1.25,1.16,2.01,0.92c3.97-1.25,8.07-1.45,12.17-1.76
				C1042.89,1008.67,1044.03,1007.9,1044.04,1006.35z M1010.77,860.2c2.2-0.16,4.98-0.07,5.42-2.97c0.26-1.68-2.08-3.33-3.3-3.08
				c-2.27,0.47-4.66,2.05-5.2,4.49C1007.3,860.45,1009.36,860.16,1010.77,860.2z M1054.95,1052.79c3.87,3.77,5.92-0.19,8.46-0.72
				c1.18-0.25,2.09-1.41,1.15-2.66c-0.84-1.11-2.49-0.94-3.05,0.02C1060.19,1051.71,1057.86,1051.9,1054.95,1052.79z
				 M1008.19,882.67c-0.41-1.7-1.63-2.35-2.97-2.15c-2.07,0.31-3.59,1.65-3.98,3.77c-0.16,0.86,0.81,1.68,1.62,1.17
				C1004.57,884.39,1007.16,884.89,1008.19,882.67z M1025.22,1085.5c-2.67-1.14-5.42-1.2-8.16-0.15c-0.6,0.23-0.5,1.3,0.21,1.55
				c2.65,0.95,5.32,1.35,7.8-0.54C1025.15,1086.3,1025.12,1086.08,1025.22,1085.5z M1017.9,1064.46c-0.37-1.6-1.25-2.75-3.03-2.64
				c-1.41,0.09-2.74,0.79-2.5,2.43c0.23,1.57,1.45,2.68,3.08,2.76C1017.01,1067.08,1017.76,1065.98,1017.9,1064.46z M930.9,183.07
				c-0.2-1.2-0.22-2.85-1.78-3.03c-1.57-0.18-2.09,1.45-2.39,2.66c-0.4,1.63,0.79,2.47,2.17,2.67
				C930.39,185.58,930.78,184.41,930.9,183.07z M1016.58,1034.16c-1.23,0.48-1.84,1.55-1.67,2.99c0.14,1.2,0.65,2.37,2.14,2.09
				c1.33-0.25,2.58-1,2.37-2.62C1019.25,1035.22,1018.37,1034.26,1016.58,1034.16z"/>
			<path class="st0" d="M975.75,752.32c-0.67-0.73-1.43-1.4-2.01-2.2c-3.83-5.28-3.93-5.43-8.93-1.37
				c-5.53,4.49-10.46,9-11.16,17.25c-0.45,5.32-3.07,10.77-5.25,15.87c-1.99,4.66-1.44,9.34-2.15,13.97
				c-0.47,3.06-2.84,6.56,1.04,9.54c1.18,0.9-0.78,2.59-1.39,3.9c-0.9,1.92-3.69,3.23-2.92,5.54c2.23,6.67-0.92,12.64-2.9,18.3
				c-3.14,8.99-4.99,18.5-9.59,26.96c-6.29,11.58-9.41,24.53-16.43,35.93c-3.65,5.93-6.74,12.8-8.55,19.84
				c-0.89,3.46-3.18,5.04-6.22,5.67c-5.68,1.17-11.34,2.68-17.28,1.55c-1.48-0.28-4.27-1.46-4.3,1.36c-0.02,2.17,2.6,1.88,4.41,2.08
				c3.91,0.44,7.41,3.5,11.73,1.53c1.8-0.82,3.87-1.04,5.25-2.67c0.83-0.97,1.48-2.53,3.11-1.13c1.08,0.93,1.77,2.19,0.9,3.53
				c-1.58,2.44-0.17,3.39,1.72,4.66c2.74,1.84,4.93,4.38,7.56,6.44c3.72,2.9,3.79,7.37,2.57,11.49c-1.1,3.73-1.9,7.4-1.71,11.28
				c0.16,3.39-1.5,6.08-3.41,8.65c-2.11,2.84-1.85,4.84,2.07,4.74c10.49-0.27,19.84,3.71,29.18,7.66c3.44,1.45,5.4,4.84,7.94,7.44
				c0.71,0.73,0.83,1.97,0.24,2.83c-2.91,4.26,0.02,5.75,3.23,7.39c12.14,6.19,24.76,11.21,37.43,16.17
				c5.04,1.97,9.49,5.43,14.19,8.25c0.75,0.45,1.34,1.19,0.78,2.06c-0.54,0.83-1.49,0.63-2.26,0.28c-1.06-0.49-2.1-1.03-3.08-1.65
				c-6.81-4.34-14.4-6.71-21.94-9.42c-9.34-3.36-18.43-7.55-27.29-12.05c-3.01-1.53-6.39-4.03-4.54-9.19
				c1.44-4.02-2.15-7.92-8.87-10.27c-8.46-2.97-17.08-5.39-26.12-6.04c-2.72-0.19-4.76,0.39-6.73,2.29
				c-5.01,4.83-11.16,7.82-17.69,9.94c-4.34,1.41-8.54-0.47-12.69-1.49c-4.7-1.16-9.32-2.46-14.25-1.59
				c-5.02,0.89-5.42,1.98-2.3,6.25c5.2,7.13,11.98,11.77,20.57,14.03c7.06,1.86,11.87,7.72,18.18,11.03
				c2.23,1.17,1.89,4.24-0.63,5.2c-3.66,1.4-7.17,3.42-11.43,3.11c-7.95-0.58-15.93-0.65-23.88-1.27c-3.87-0.3-7.27,0.75-10.55,2.39
				c-4.84,2.42-5.32,4.55-2.43,9.18c2.59,4.14,1.3,7.95-3.52,9.29c-8.66,2.42-17.69,2.73-26.53,4.16c-3.11,0.5-6.29,0.52-9.43,0.9
				c-5.89,0.72-12.23,8.52-10.07,13.93c1.5,3.76,5.65,6.54,9.68,8.66c10.71,5.63,22.21,6.24,33.95,5.96
				c8.1-0.19,15.44,3.6,23.29,4.94c12.02,2.06,23.62,6.71,36.13,5.39c3.47-0.36,6.94-0.06,10.43-0.73c4.3-0.83,7.02,1.6,9.63,8.86
				c-7.11-7.41-14.44-3.99-21.46-3.63c-11.31,0.59-22.14-1.68-32.52-5.84c-4.07-1.63-8.2-0.65-12.26-1.76
				c-10.91-2.98-22.07-4.19-33.39-5.07c-10.94-0.85-20.86-5.66-27.47-15.21c-3.93-5.67-1.91-12.51,4.23-15.41
				c2.1-0.99,4.16-2.38,6.38-2.77c9.91-1.73,19.32-5.98,29.66-5.59c6.97,0.26,8.78-1.97,7.68-8.65c-0.18-1.07,0.1-1.93,0.48-2.87
				c2.5-6.12,15.39-12.37,21.38-9.85c3.2,1.35,6.35,1.5,9.63,1.97c5.25,0.75,10.27-0.63,15.41-0.71c1.78-0.03,3.51-0.4,3.87-2.39
				c0.4-2.18-1.78-1.99-2.97-2.67c-6.61-3.81-13.98-6.21-20.5-10c-7-4.07-15.16-8-18.18-16.12c-3.97-10.68-3.78-21.76,1.16-32.38
				c0.7-1.51,1.64-2.91,1.66-4.65c0.1-9.04,4.01-17.11,6.64-25.49c1.78-5.7,3.73-11.34,4.83-17.22c0.45-2.39,0.2-5.01,3.55-5.84
				c1.8-0.44,1.35-2.4,0.54-3.31c-2.16-2.44-1.99-5.31-1.71-8.06c1.14-10.92,0.36-21.89,1.45-32.87
				c1.05-10.56,1.46-21.35,0.52-32.21c-0.66-7.63-0.86-15.89,1.95-23.68c1.91-5.29,3.83-10.68,4.31-16.38
				c0.21-2.47,1.89-4.21,2.78-6.32c4.13-9.77,10.64-18.25,14.95-27.9c2.03-4.55,1.55-9.71,3.52-14.42c1.02-2.43-2.03-4.76-4.29-6.13
				c-2.19-1.32-5.01-2.26-4.05-5.37c0.99-3.17,2.96-5.91,6.73-6.53c1.29-0.21,2.85-0.19,3.8-0.91c10.04-7.62,20.4-3.26,30.55-0.7
				c4.91,1.23,9.26,4.12,14.49,4.97c5.54,0.9,9.75,4.87,13.64,8.81c1.35,1.38,2.51,2.81,4.63,1.56c2.34-1.38,1.65-3.16,0.81-5.17
				c-2.36-5.68-4.31-11.57-10-15.07c-0.91-0.56-2.04-1.59-0.99-2.85c0.73-0.87,1.81-0.36,2.76,0.04c5.58,2.34,7.96,7.35,10.1,12.41
				c1.14,2.7,1.66,5.68,2.32,8.56c0.23,1.01,0.27,2.14,1.52,2.2c1.37,0.06,2.22-0.93,2.22-2.21c0.04-6.12,2.02-11.94-3.81-17.72
				c-3.8-3.77-5.78-10.34-7.2-16.34c-1.47-6.24-3.02-12.59-7.38-17.75c-1.57-1.86-3.3-3.09-5.56-3.96
				c-9.17-3.51-18.2-7.81-25.99-13.49c-6.48-4.73-9.96-12.95-12.39-20.73c-3.06-9.79-8-18.57-13.02-27.32
				c-4.22-7.34-8.38-14.75-13.89-21.27c-0.61-0.72-1.07-1.79-1.11-2.72c-0.08-1.99-2.23-4.9,0.39-5.77c2.9-0.97,1.99,2.68,2.87,4.18
				c2.59,4.44,5.79,8.46,8.46,12.88c7.93,13.11,14.41,26.91,20.56,40.86c4.81,10.91,12.11,18.82,23.11,23.56
				c15.51,6.68,30.91,13.63,44.99,23.13c0.65,0.44,1.65,0.85,2.32,0.67c6.63-1.74,4.53,2.48,3.6,5.44
				c-2.88,9.21-7.25,17.78-11.52,26.39c-1.6,3.22-2.98,6.39-0.48,9.81c0.27,0.37,0.56,1.07,0.39,1.37
				c-2.6,4.64-0.62,9.03,0.57,13.49c0.2,0.76-0.06,1.65-0.12,2.49C975.67,752.43,975.75,752.32,975.75,752.32z M915.96,803.04
				l-0.13-0.14c0.87,1.94,2.91,2.02,4.49,2.82c4.87,2.44,6.55,1.95,8.61-2.94c0.89-2.11,2.34-2.49,4.26-2.63
				c1.13-0.08,2.83,0.54,2.9-1.61c-15.29-2.66-21.71-1.85-24.41,3.19C913.13,802.18,914.55,802.61,915.96,803.04z M944.16,761.3
				c0.15-0.35,0.21-0.82,0.42-0.91c6.69-2.73,12.61-5.92,9.62-14.91c-0.13-0.4,0.07-1.04,0.33-1.41c2.31-3.24,1.83-4.86-2.46-4.56
				c-1.44,0.1-2.73-0.26-2.45-2.22c0.56-3.91-2.4-4.74-5.11-5.54c-2.06-0.61-4.11-1.13-6.15-1.9c-9.76-3.66-19.29-8.19-30.3-6.92
				c-7.18,0.82-10.53,4.17-9.07,11.09c1.75,8.3-0.15,16.12-2.83,23.74c-1.23,3.48-0.79,4.16,2.66,3.73
				c1.83-0.23,3.75,0.09,4.75,1.98c0.23,0.43,0.05,1.45-0.32,1.76c-1.57,1.34-3.63,1.45-5.12,0.33c-4.52-3.37-6.71-0.16-8.69,2.97
				c-2.12,3.35-3.36,6.67,0.78,9.97c4.6,3.66,10.14,5.7,14.73,9.29c3.04,2.37,6.57,3.09,10.3,2.96c3.32-0.12,6.65-0.26,9.95-0.65
				c7.56-0.9,14.98-2.62,19.66-9.21c2.62-3.69,4.62-7.9,3.97-13.01c-0.27-2.08,3.83-3.82,2.27-6.57
				C949.12,757.79,946.53,763.04,944.16,761.3z M896.02,862.07c-6.16,0.5-12.32,2.28-17.85-1.84c-0.89-0.67-2.36-1.19-3.15,0.01
				c-0.96,1.46,0.23,2.41,1.4,3.19c2.49,1.67,4.99,3.27,8.01,3.92c1.07,0.23,2.43,0.87,1.71,2.41c-0.48,1.03-1.71,1.07-2.65,0.73
				c-1.56-0.55-3.02-1.4-4.57-1.98c-1.07-0.4-2.41-0.84-3.07,0.55c-0.64,1.35,0.48,2.17,1.46,2.8c3.24,2.09,6.67,2.84,10.47,1.55
				c1.43-0.48,3.34-0.56,3.47,1.54c0.11,1.84-1.75,1.53-3,1.76c-4.79,0.89-9.42,1.28-13.55-2.27c-1.13-0.97-3.16-2.01-4.25,0.21
				c-1.03,2.11,0.27,3.13,2.23,4.11c4.11,2.05,8.05,4.46,11.99,6.83c1.13,0.68,2.26,1.88,1.63,3.28c-0.7,1.56-2.36,1.14-3.51,0.59
				c-2.39-1.15-4.61-2.66-7-3.81c-1.39-0.67-3.2-2.26-4.48-0.55c-1.32,1.75,0.08,3.94,1.55,4.69c6.82,3.47,13.81,6.63,21.79,5.91
				c0.83-0.07,1.73-0.23,1.74-1.31c0.01-0.81-0.78-0.93-1.37-1.23c-4.21-2.1-4.21-2.1-5.44-3.91c5.15,0.68,10.23,2.73,16.42,0.26
				c-6.11-4.1-13.25-3.5-18.08-8.11c5.38,1.63,10.82,1.7,16.56,1.69c-1.5-4.73-6.64-2.75-9.37-5.95c5.67,0,10.7,0.07,15.73-0.04
				c1.72-0.04,4.36,0.22,4.23-2.24c-0.11-2.11-2.68-1.37-4.18-1.49c-5.82-0.46-11.7-0.53-17-3.89c5.89-0.82,12.16,1.59,17.97-1.92
				c-2.41-2.16-6.1-0.52-7.95-4.19c3.53-0.33,6.79-0.38,9.94-1.02c2.27-0.46,5.96-0.52,5.84-3.34c-0.09-2.14-3.63-1.25-5.65-1.65
				c-0.49-0.1-1-0.1-1.48-0.21c-0.95-0.22-2.28-0.21-2.36-1.41c-0.12-1.64,1.41-1.69,2.5-1.68c2.49,0.04,4.98,0.41,7.47,0.41
				c1.63,0,3.89-0.11,3.88-2.19c-0.01-1.97-2.26-1.46-3.64-1.59c-3.23-0.31-6.58-0.07-9.73-2.31c3.36-2.78,8.1-0.09,11.17-3.18
				c-1.47-1.38-2.89-0.97-4.16-1.24c-1.26-0.26-3.04-0.16-3.22-1.68c-0.1-0.84,1.16-1.87,1.85-2.78c1.03-1.35,2.39-1.67,4.01-1.24
				c1.8,0.48,3.63,0.47,5.44,0c0.78-0.21,1.75-0.36,1.71-1.46c-0.03-1.02-0.92-1.25-1.72-1.49c-1.54-0.47-3.64,0.57-5.06-2.01
				c3.78-0.77,6.88-0.11,10.08,0.82c2.27,0.66,4.74-0.03,4.94-2.73c0.21-2.82-2.57-2.64-4.42-2.75c-1.78-0.1-3.57,0.88-5.4,0.11
				c-0.88-0.37-2.17-0.44-2.11-1.72c0.06-1.27,1.46-1.63,2.25-1.47c5.18,1.05,8.68-2.12,12.67-4.76c-3.98-4.37-9.15-4.87-14.44-5.03
				c-1.32-0.04-2.71,0.25-3.8-0.72c-0.21-0.19-0.19-1.03,0.04-1.26c1.21-1.2,2.45-0.39,3.68,0.08c2.12,0.82,3.83,0.29,5.46-1.84
				c-7.23-3.7-15.04-4.74-22.67-5.3c-2.69-0.2-5.11,0.43-7.4-1.5c-0.75-0.63-1.91-0.6-2.76,0.19c-0.9,0.84-0.67,1.72-0.12,2.69
				c0.43,0.76,1.79,1.24,0.69,2.75c-1.54-0.47-3.55,0.11-4.07-2.53c-0.59-3.02-1.99-1.04-3.13-0.37c-2,1.18-0.15,3.02-0.76,4.82
				c-4.75-2.23-8.65-5.08-10.97-9.77c-0.51-1.04-0.82-2.4-2.39-1.83c-1.34,0.48-1.29,1.82-1.27,2.98c0.03,2.02,1.21,3.31,2.73,4.5
				c2.34,1.83,4.79,3.57,6.45,6.34c-3.42,0.71-4.46,2.28-1.38,4.57c2.76,2.05,4.96,4.98,8.72,5.56c3.01,0.46,2.83,3.53,3.64,5.45
				c0.61,1.45-2.06,1.05-2.92,1.84c-2.26,2.08-7.53,2.64-7.18,4.7c0.52,3.05,4.9,4.43,7.9,6.13c0.83,0.47,1.93,0.45,2.91,0.66
				c3.05,0.66,5.75,2.04,8.55,3.69c-1.73,1.78-3.09,0.6-4.45,0.34c-2.78-0.53-5.55-1.08-8.34-1.54c-0.94-0.16-2.2-0.54-2.65,0.61
				c-0.57,1.46,0.77,2,1.78,2.54c2.25,1.21,4.53,2.35,6.79,3.52c-6.73,0.42-12.44-2.03-17.77-5.35c-1.78-1.11-3.7-3.57-5.37-2.66
				c-1.86,1.01-0.57,3.96-0.56,6.06c0,0.98,0.28,1.98,0.57,2.93c0.29,0.95,0.65,2.01,1.86,2.06c1.26,0.05,1.63-0.98,1.83-1.98
				c0.47-2.38,1.92-3.46,3.83-1.82C886.13,856.11,891.42,858.46,896.02,862.07z M974.11,718.71c1.18-0.03,1.74-0.82,2.14-1.79
				c2.4-5.82,4.79-11.64,7.19-17.46c0.78-1.88-0.25-2.68-1.83-3.36c-4.57-1.95-9.04-4.15-13.67-5.92c-2.49-0.95-4.75-5.08-7.09-2.89
				c-2.18,2.05,0.76,5.53,1.51,8.31c1.92,7.15,3.11,14.67,8.28,20.53C971.61,717.25,972.39,718.6,974.11,718.71z M872.62,981.51
				c-1.66-0.1-3.31-0.24-4.97-0.28c-0.97-0.03-2.26-0.13-2.45,1.1c-0.25,1.66,1.22,1.78,2.34,1.8c4.38,0.08,8.35,1.96,12.55,2.81
				c1.53,0.31,3.04,0.89,3.91-0.86c1-2.02,2.77-1.86,4.57-2.28c7.61-1.78,14.25-5.09,17.96-12.54c0.53-1.06,1.3-2.24,0.08-3.1
				c-0.95-0.67-1.82,0.38-2.57,0.97c-0.64,0.5-1.18,1.15-1.74,1.76c-3.61,3.91-4.86,3.97-8.35-0.2c-1.48-1.77-2.94-1.09-4.44-0.54
				c-1.15,0.42-1.28,1.27-0.59,2.36c2.45,3.89,1.12,7.06-3.43,7.9C881.25,981.2,876.96,981.7,872.62,981.51z M891.51,905.19
				c5.71-0.19,10.3-1.35,14.64-3.56c1.08-0.55,3.18-0.01,2.97-1.84c-0.23-1.99-2.21-1.51-3.64-1.5c-7.14,0.07-14.22,1.73-21.44,0.09
				c-2.65-0.6-5.01-1.55-7.41-2.65c-0.92-0.42-1.94-0.55-2.79,0.24c-0.54,0.5-0.77,1.52-0.23,1.71c2.68,0.91,2.99,4.37,5.55,5.16
				C883.46,904.15,888.24,902.96,891.51,905.19z M879.23,937.08c5.26,1.29,9.7-1.46,14.48-1.7c1.78-0.09,4.27-0.29,3.79-2.75
				c-0.43-2.21-2.66-1.27-4.21-0.86c-4.05,1.09-8.21,0.23-12.49,1.69c-3.4,1.16-7.62-2.34-10.73-5.18
				c-0.89-0.81-1.73-1.91-2.91-0.92c-1.24,1.04-0.88,2.38,0.14,3.5C870.61,934.46,873.34,939.18,879.23,937.08z M889.89,800.71
				c1.95,0.39,2.08,2.88,4.12,2.79c1.5-0.06,2.77-0.18,2.42-2.14c-0.15-0.87-7.68-4.45-8.52-3.98c-4.67,2.58-6.71,1.51-6.07-4.02
				c0.18-1.6-0.86-3.06-2.58-3.09c-1.57-0.03-1.32,1.56-1.52,2.68c-1.1,6.29,3.95,8.16,7.86,10.71c1.37,0.89,2.69,3.16,4.73,1.59
				C892.3,803.72,888.45,802.67,889.89,800.71z M904.62,941.58c-1.25-1.48-1.79-4.77-4.38-4.36c-4.14,0.65-8.18,2.21-12.12,3.74
				c-2.21,0.86-2.22,2.76-0.61,4.39c1.33,1.35,2.9,1.87,4-0.29c0.82-1.61,1.97-2,3.65-1.71c2.76,0.48,5.45-2.87,8.36-0.12
				C903.91,943.61,904.51,942.65,904.62,941.58z M892.39,918.41c-0.07-0.74-0.51-1.14-1.18-1.41c-5.56-2.22-11.64-3.22-16.45-7.26
				c-0.82-0.69-2.63-1.34-3.39,0.45c-0.55,1.31,0.67,1.97,1.52,2.79c5.07,4.88,11.98,4.61,18.1,6.53
				C891.61,919.71,892.25,919.19,892.39,918.41z M889.26,829.07c-0.16-0.34-0.26-0.93-0.6-1.18c-2.95-2.11-5.92-4.19-8.96-6.17
				c-0.38-0.25-1.41-0.04-1.73,0.32c-0.32,0.36-0.41,1.35-0.13,1.76c2.29,3.48,6.08,4.9,9.6,6.63
				C888.18,830.81,888.99,830.16,889.26,829.07z M906.04,797.77c1.57-0.52,4.56,0.56,4.2-1.95c-0.36-2.45-3.45-2.69-5.74-2.76
				c-1.53-0.04-4.03-0.13-3.9,1.92C900.82,798.22,903.97,797.24,906.04,797.77z M876.52,945.67c-0.07-1.78-7.53-6.3-9.33-5.63
				c-1.67,0.62-1.31,1.73-0.44,2.7c2.06,2.32,4.87,3.42,7.72,4.33C875.42,947.37,876.5,947.1,876.52,945.67z M893.94,913.13
				c2.02-0.46,5.19-0.02,5.08-2.71c-0.11-2.74-3.15-1.35-4.86-1.41c-1.74-0.06-4.69-1.03-4.82,1.7
				C889.21,913.28,892.13,912.76,893.94,913.13z M882.6,834.83c-1.67-4.03-4.05-6.31-6.61-8.43c-0.72-0.59-1.57-1.56-2.52-0.45
				c-0.62,0.73-0.1,1.58,0.41,2.25C875.99,830.96,878.23,833.55,882.6,834.83z M893.24,960.15c-1.54,0.43-3.91,0.01-3.79,2.64
				c0.08,1.64,1.78,1.74,3.04,1.76c1.88,0.03,3.13-1.02,3.23-2.92C895.83,959.94,894.5,960.04,893.24,960.15z M860.74,982.51
				c-0.48-1.94-2.18-2.34-3.76-2.7c-1.27-0.29-3.1-0.47-3.28,1.21c-0.27,2.41,1.92,2.78,3.71,3.07
				C858.74,984.3,860.08,984.07,860.74,982.51z M869.2,977.52c1.69-0.18,2.96-0.87,3.04-2.7c0.06-1.46-0.95-2.13-2.26-2.02
				c-1.78,0.14-3.33,0.96-3.32,2.97C866.66,977.24,868.04,977.41,869.2,977.52z M868.55,969.74c1.1-0.14,2.01-0.65,1.88-1.86
				c-0.17-1.51-0.65-3.12-2.48-3.24c-1.53-0.11-1.84,1.21-1.8,2.44C866.19,968.58,866.91,969.58,868.55,969.74z M879.46,963.81
				c-1.26,0.39-3.26-0.04-3.39,2c-0.09,1.4,1.41,1.71,2.55,1.82c1.42,0.14,2.75-0.35,3.08-1.88
				C882.05,964.13,880.79,963.88,879.46,963.81z"/>
			<path class="st0" d="M1104.17,157.08c-2.39,2.03-4.7,4.14-7.17,6.05c-2.72,2.1-4.51,4.84-6.11,7.79
				c-4.64,8.57-8.38,17.62-12.43,26.43c-1.81,3.93-5.28,8.76-3.42,14.31c0.47,1.4-1.67,2.63-3.09,3.58
				c-3.24,2.16-7.14,3.59-7.66,8.48c-0.19,1.8-2.69,1.53-4.28,1.78c-0.65,0.1-1.43-0.09-1.55-0.9c-0.25-1.62,1.17-2.25,2.06-3.17
				c2.2-2.26,4.24-4.74,6.7-6.67c4.74-3.72,4.8-9.62,7.06-14.46c5.24-11.18,9.79-22.68,15.62-33.59c0.63-1.18,1.71-2.34,1.04-3.67
				c-4.3-8.53-1.43-17.68-2.4-26.5c-0.94-8.59,0.93-16.9,3.29-25.05c0.59-2.02-0.68-2.66-1.16-3.91c-0.39-1.01-0.41-2.12,0.51-2.72
				c1.33-0.86,2.2,0.21,2.8,1.21c1.51,2.54,0.92,5.25,0.07,7.75c-3.74,11.13-3.34,22.39-1.62,33.78c0.33,2.19-0.24,4.63-0.83,6.83
				c-0.6,2.23-0.48,4.03,1.6,5.18c2.08,1.16,4.17,1.04,5.94-0.76c1.15-1.17,2.18-2.49,3.85-2.96
				C1103.39,156.29,1103.78,156.68,1104.17,157.08z"/>
			<path class="st0" d="M1070.49,566.19c2.07,1.58,1.38,3.67,1.06,5.52c-1.39,7.97-4.12,15.37-7.54,22.81
				c-5.13,11.15-12.74,20.86-17.38,32.24c-1.67,4.09-4.47,7.78-7.09,11.4c-6.59,9.11-10.8,19.72-18.43,28.21
				c-5.28,5.87-11.49,10.57-17.45,15.61c-1.04,0.88-2.74,2.33-3.87,0.68c-1.07-1.56,0.84-2.59,1.94-3.51
				c8.43-7.06,16.79-14.19,22.95-23.44c6.06-9.11,12.43-18.06,17.83-27.56c7.61-13.38,15.5-26.63,22.09-40.57
				c2.23-4.73,2.53-9.95,3.57-14.98C1068.62,570.4,1068.4,567.91,1070.49,566.19z"/>
			<path class="st0" d="M972.72,1114.51c-12.26-0.15-24.47-1.02-36.35-4.46c-3.25-0.94-5.57-3.53-8.25-5.44
				c-0.92-0.66-1.59-1.95-0.42-3.01c0.98-0.9,1.91-0.07,2.57,0.63c3.68,3.92,7.71,6.85,13.52,5.2c11.71,6.86,24.56,1.61,36.79,3.33
				c4.6,0.65,9.51-0.9,14.28-1.44c1.3-0.15,3.14-0.57,3.37,1.1c0.28,1.97-1.7,2.26-3.16,2.28
				C987.58,1112.83,980.33,1115.7,972.72,1114.51z"/>
			<path class="st0" d="M996.15,343.23c-9.61,1.42-18.01,0.04-26.56,1.33c-9.54,1.45-17.46,6.12-26.16,9.18
				c-1.38,0.49-3.27,2.5-4.17,0.15c-0.79-2.06,1.81-2.3,3.2-2.99c1.64-0.82,3.43-1.38,4.96-2.35c12.73-8.15,26.81-8.99,41.34-8.08
				c5.62,0.35,11.3-0.24,16.95-0.33c1.38-0.02,3.49-0.54,3.45,1.64c-0.03,1.7-2,1.4-3.25,1.43
				C1002.25,343.28,998.59,343.23,996.15,343.23z"/>
			<path class="st0" d="M948.56,333.62c7.39-1.29,14.63-3.86,22.21-3.58c18.57,0.68,36.54-1.17,53.12-10.42
				c1.04-0.58,2.47-1.17,3.17-0.03c0.93,1.52-0.84,1.82-1.74,2.34c-10.81,6.22-22.31,9.99-34.89,10.77
				c-9.94,0.62-19.96-0.54-29.84,2.01c-3.7,0.95-7.86,0.15-11.81,0.15C948.71,334.45,948.63,334.03,948.56,333.62z"/>
			<path class="st0" d="M1121.15,196.56c0.36-1.57-0.03-2.96-1-4.22c-0.84-1.09-1.6-2.42-1.13-3.7c1.98-5.42,1.68-11.05,1.79-16.65
				c0.02-0.99-0.37-2.26,1.01-2.36c1.51-0.11,1.79,1.21,1.83,2.44c0.04,1.38-1.03,3.11,1.13,3.8c2.08,0.66,3.31-0.78,4.8-1.91
				c2.26-1.72,2.3-4.8,4.44-6.53c1.38-1.11,1.27-5.01,4.75-2.21c0.83,0.67,1.46-0.93,1.11-1.98c-1.06-3.21,1.85-4.71,2.98-6.96
				c0.35-0.69,1.1-1.36,2.06-0.91c0.92,0.43,0.94,1.39,0.77,2.17c-0.28,1.28-0.58,2.63-1.23,3.75c-3.63,6.2-7.9,11.79-14.08,15.83
				c-3.94,2.58-7.09,5.93-6.67,11.37c0.24,3.14-0.07,6.32-0.15,9.48c-0.03,1.11,0.37,2.76-1.22,2.79c-1.55,0.04-1.31-1.6-1.35-2.72
				C1120.95,197.56,1121.08,197.06,1121.15,196.56z"/>
			<path class="st0" d="M1129.85,83.91c0.21,2.8-1.86,4.55-3.14,6.62c-6.19,9.97-9.21,21.62-16.52,30.99
				c-0.3,0.39-0.35,0.99-0.69,1.32c-1.56,1.55-2.3,4.67-5.18,3.88c-2.81-0.77-1.67-3.59-1.87-5.61c-0.38-3.81-0.33-7.69-1.07-11.42
				c-0.85-4.28-2.13-8.67-8.1-8.07c-1.23,0.12-1.95-0.4-1.78-1.69c0.17-1.35,1.16-1.91,2.39-2.19c3.21-0.73,8.22,2.71,9.34,6.8
				c1.05,3.83,2.12,7.71,1.56,11.8c-0.15,1.11-0.3,2.47,1.03,3.07c1.37,0.62,2.15-0.51,2.9-1.35c4.12-4.64,6.91-10.05,9.57-15.63
				c2.83-5.94,6.26-11.6,9.54-17.32c0.34-0.58,1.42-0.74,2.16-1.09C1129.98,84.04,1129.85,83.91,1129.85,83.91z"/>
			<path class="st0" d="M1129.98,84.04c1.39-3.64,3.98-4.27,7.19-2.6c3.78,1.96,3.45,5.15,2.36,8.61
				c-1.88,5.92-4.26,11.69-5.19,17.9c-0.43,2.86,0.52,4.51,3.24,5.19c3.16,0.79,4.98,3.15,6.65,5.64c0.68,1.01,1.02,2.33-0.22,3.11
				c-1.56,0.98-2.07-0.58-2.47-1.53c-1.49-3.55-3.38-4.31-6.19-1.27c-0.65,0.7-1.5,1.51-2.57,0.73c-0.79-0.58-0.56-1.51-0.4-2.31
				c0.59-2.89-0.39-5.44-1.13-8.2c-1.68-6.28,0.75-11.94,4.13-17.13c0.72-1.1,1.6-1.98,1.89-3.37c1.04-4.92,0.11-5.94-4.93-5.13
				c-0.82,0.13-1.65,0.17-2.48,0.26C1129.85,83.91,1129.98,84.04,1129.98,84.04z"/>
			<path class="st0" d="M909.63,694.45c0.31,0.22,1,0.48,1.35,0.98c3.3,4.7,8.31,5.52,13.48,6.39c7.75,1.32,14.97,4.29,21.84,8.06
				c1.1,0.6,2.88,1.24,2.15,2.82c-0.77,1.66-2.34,0.29-3.53,0.1c-2.31-0.36-4.49-0.99-6.55-2.24c-6.07-3.68-12.96-4.77-19.8-5.92
				c-4.24-0.71-7.95-2.31-10.85-5.54c-0.95-1.06-1.35-2.31-0.49-3.65C907.71,694.72,908.4,694.32,909.63,694.45z"/>
			<path class="st0" d="M1042.76,574.62c-0.65-4.36,1.49-6.66,2.93-8.7c9.01-12.79,11.43-27.36,12.3-42.44
				c0.09-1.52-0.7-3.99,1.69-3.92c2.21,0.06,1.71,2.48,1.65,4.05c-0.56,14.09-3.09,27.55-11.4,39.49
				C1047.62,566.43,1045.81,570.16,1042.76,574.62z"/>
			<path class="st0" d="M1069.78,740.69c6.36,5.76,12.71,11.46,19.01,17.22c4.77,4.37,8.27,9.44,8.66,16.2
				c0.08,1.33,0.49,2.66-0.27,3.86c-0.32,0.5-0.9,1.03-1.45,1.15c-0.77,0.16-1.22-0.61-1.2-1.25c0.42-13.03-10.78-18.62-17.36-27.16
				C1074.62,747.41,1071.1,744.76,1069.78,740.69z"/>
			<path class="st0" d="M931.47,691.36c3.58,1.82,7.19,3.22,10.31,5.35c5.49,3.74,10.7,7.89,15.99,11.92
				c0.88,0.67,2.16,1.54,1.16,2.82c-0.86,1.09-2.07,0.5-3.15-0.11c-8.4-4.76-15.53-11.44-24.17-15.85
				c-1.09-0.56-2.37-1.58-1.68-3.19C930.12,691.84,930.95,691.65,931.47,691.36z"/>
			<path class="st0" d="M1023.63,363.46c-0.48,3.57-3.13,5.77-5.83,7.05c-9.85,4.66-20.1,8.39-30.49,11.71
				c-1.45,0.46-3.64,1.85-4.24-0.41c-0.68-2.56,2.05-2.36,3.68-2.86c10.67-3.28,21.31-6.67,31.47-11.33
				C1020.23,366.69,1021.83,364.87,1023.63,363.46z"/>
			<path class="st0" d="M1015.89,752.34c-1.32-4.79,1.08-7.71,2.43-10.48c3.42-7.01,7.43-13.71,8-21.76
				c0.07-0.95,0.51-1.94,0.99-2.79c0.63-1.12,1.69-1.63,2.96-1.08c1.13,0.48,1.21,1.48,0.94,2.52
				C1028.15,730.5,1022.47,741.02,1015.89,752.34z"/>
			<path class="st0" d="M1039.16,200.94c-0.18-6.8-1.39-12.21,0.79-17.62c0.68-1.68,1.47-3.37,1.77-5.14
				c0.45-2.68,0.1-5.11-3.61-4.98c-1.43,0.05-2.7-0.3-2.87-2.03c-0.12-1.22,0.33-2.31,1.2-3.15c1.28-1.26,2.39-0.21,3.59,0.31
				c5.4,2.35,4.51,7.55,3.6,11.16c-1.59,6.32-1,12.86-2.92,19.04C1040.58,198.93,1040.24,199.27,1039.16,200.94z"/>
			<path class="st0" d="M1039.9,208.01c-0.35,3.95-0.48,6.93-0.9,9.86c-0.45,3.15-2.59,4.87-5.55,5.65
				c-1.58,0.42-3.36-0.03-4.81,1.02c-1.53,1.11-2.42,0.64-2.82-1.1c-0.33-1.43-0.24-2.73,1.47-3.12c1.12-0.26,2.29-0.22,3.42-0.43
				c4.3-0.8,6.98-2.65,5.41-7.71c-0.35-1.14,0.18-2.61,0.5-3.88c0.33-1.32-0.2-3.7,1.83-3.46
				C1040.57,205.1,1039.82,207.46,1039.9,208.01z"/>
			<path class="st0" d="M1146.54,150.8c-2.1-4.13-0.15-8.66-0.85-12.97c-0.34-2.1,0.2-4.04-1.93-5.6c-0.89-0.65-1.14-2.3-1.45-3.56
				c-0.2-0.79,0.12-1.79,1.1-1.9c0.48-0.05,1.25,0.45,1.52,0.91c1.27,2.12,3.22,4.25,3.43,6.51c0.5,5.47,0.16,11.03,0.16,16.55
				C1147.87,150.76,1147.2,150.78,1146.54,150.8z"/>
			<path class="st0" d="M995.01,761.78c-2.8-2.4-2.33-4.2-1.89-5.6c1.59-5.08,2.61-10.19,2.25-15.53c-0.07-0.99,0.18-2.17,1.43-2.25
				c1.72-0.1,1.52,1.33,1.63,2.46C999.11,747.97,994.16,753.77,995.01,761.78z"/>
			<path class="st0" d="M1065.13,237.57c6.82-1.91,12.19,1.15,17.45,4.54c0.74,0.48,1.17,1.34,0.46,2.09
				c-0.35,0.37-1.4,0.65-1.72,0.42C1076.5,241.02,1070.87,239.29,1065.13,237.57z"/>
			<path class="st0" d="M1104.19,226.17c-2.05-1.59-4.04-2.72-5.46-4.36c-1.05-1.21,0.72-1.89,1.48-2.64
				c2.01-1.96,3.59-0.69,5.13,0.73c0.12,0.11,0.26,0.21,0.39,0.31c1.41,1.12,3.51,2.19,2.8,4.22
				C1107.9,226.21,1105.24,223.35,1104.19,226.17z"/>
			<path class="st0" d="M1018.08,1110.16c-5.86,3.19-9.58-0.53-13.72-0.8c-0.81-0.05-1.4-0.96-0.98-1.89
				c0.55-1.22,1.75-1.7,2.9-1.34C1009.95,1107.27,1013.57,1108.6,1018.08,1110.16z"/>
			<path class="st0" d="M922.99,356.38c-1.16,3.9-2.28,7.81-3.51,11.68c-0.29,0.91-0.89,1.92-2.15,1.53
				c-0.96-0.29-1.21-1.32-0.93-2.05C917.95,363.51,918.15,358.77,922.99,356.38z"/>
			<path class="st0" d="M1013.25,754.5c2.11,8.02-2.08,12.66-5.54,17.56C1007.14,765.75,1012.3,761.44,1013.25,754.5z"/>
			<path class="st0" d="M1036.26,160.4c-2.06-5.78-2.85-11.77-2.31-17.93C1038.06,147.96,1035.24,154.43,1036.26,160.4z"/>
			<path class="st0" d="M1070.72,231.04c-5.04,0-10.08,0-15.11,0c-1.08,0-2.67,0.59-2.62-1.19c0.05-1.65,1.83-3.26,2.99-2.47
				c4.63,3.17,9.97,0.57,14.73,2.05C1070.71,229.97,1070.71,230.5,1070.72,231.04z"/>
			<path class="st0" d="M1005.5,1091.91c0.93,2.94,1.18,5.89,3.38,8.17c0.69,0.71,2.35,1.19,1.47,2.63c-0.33,0.55-1.4,0.8-2.16,0.89
				c-1.52,0.19-2.63-0.63-2.87-2.08C1004.8,1098.32,1004.61,1095.09,1005.5,1091.91z"/>
			<path class="st0" d="M1059.23,889.82c-3.4,0.33-6.93-0.27-10.05,1.96c-1.09,0.78-2.85,0.17-3.17-1.37
				c-0.34-1.65,1.34-1.71,2.38-1.77c3.64-0.23,7.51-2.03,10.72,1.32C1059.11,889.94,1059.23,889.82,1059.23,889.82z"/>
			<path class="st0" d="M1061.98,1096.45c-3.85,0.96-6.71,1.71-9.59,2.34c-0.55,0.12-1.44-0.05-1.76-0.43
				c-0.43-0.51-0.14-1.46,0.52-1.65C1054.36,1095.8,1057.47,1092.79,1061.98,1096.45z"/>
			<path class="st0" d="M1096.99,144.1c-1.19-0.06-2.42-0.44-2.12-1.58c0.5-1.9,2.39-2.56,4.1-2.99c0.9-0.22,1.42,0.73,1.32,1.64
				C1100.06,143.16,1098.55,143.75,1096.99,144.1z"/>
			<path class="st0" d="M1010.51,134.47c2.56,3.64,0.88,6.47,0.42,9.28C1010.05,141.08,1009.26,138.4,1010.51,134.47z"/>
			<path class="st0" d="M1038.22,483.95c5.3-0.97,10.53-0.81,15.67,0.91C1048.62,485.44,1043.35,486.48,1038.22,483.95z"/>
			<path class="st0" d="M1058.13,482.08c-3.34-3.23-8.08-1.38-12.24-3.37C1051.83,476.38,1055.64,477.43,1058.13,482.08z"/>
			<path class="st0" d="M934.64,494.92c-2.49,1.87-5.12,2.1-8.41,0.65C929.22,493.21,931.93,494.25,934.64,494.92z"/>
			<path class="st0" d="M889.93,818.89c3.8,0.45,7.17,1.27,10.41,2.64c0.93,0.39,2.02,1.07,1.85,2.05
				c-0.26,1.55-1.79,1.23-2.83,1.04C895.61,823.94,892.16,822.66,889.93,818.89z"/>
			<path class="st0" d="M916.79,817.89c-4.24,1.45-8.63,1.49-13.05,1.21c-0.67-0.04-1.33-0.7-1.05-1.38c0.52-1.24,2-1.68,2.94-1.3
				C909.24,817.91,912.96,817.4,916.79,817.89z"/>
			<path class="st0" d="M920.09,826.7c-5,0.87-8.76,0.56-12.78-0.49C910.44,824.48,915.51,824.54,920.09,826.7z"/>
			<path class="st0" d="M915.96,803.04c2.33-3.27,5.4-3.35,9.89-2.2c-3.74,2.34-6.99,1.68-10.02,2.06
				C915.83,802.91,915.96,803.04,915.96,803.04z"/>
		</g>
	</g>
</g>
</svg>
