<?xml version="1.0" encoding="utf-8"?>
<!-- Generator: Adobe Illustrator 28.0.0, SVG Export Plug-In . SVG Version: 6.00 Build 0)  -->
<svg version="1.1" id="Layer_1" xmlns="http://www.w3.org/2000/svg" xmlns:xlink="http://www.w3.org/1999/xlink" x="0px" y="0px"
	 viewBox="0 0 1920 1080" style="enable-background:new 0 0 1920 1080;" xml:space="preserve">
<style type="text/css">
	.st0{fill:none;stroke:#231F20;}
</style>
<g>
	<g>
		<g>
			<path d="M1035.16,889.19c-1.39,6.15,0.15,12.28,0.2,18.41c0.03,3.52,2.5,3.29,4.48,1.86c9.91-7.17,21.23-8.55,33.04-10.1
				c11.86-1.55,23.4-5.65,33.57-12.9c8.21-5.85,16.65-11.48,25.83-15.82c3.56-1.68,6.48-4.16,8.98-7.01c2.06-2.37,2.51-5.4,0.6-8.28
				c-8.25-12.47-12.46-26.54-16.18-40.79c-0.76-2.91-1.23-5.9-2.87-8.47c-3.5-5.47-2.51-12.13-5.14-17.98
				c-4.06-8.99-9.55-17.13-14.02-25.85c-1.23-2.39-2.93-4.71-2.64-7.42c1.1-10.27-4.49-18.55-8.07-27.35
				c-3.45-8.46-7.8-16.55-11.7-24.83c-0.63-1.34-1.11-2.77-1.45-4.21c-0.18-0.77,0.02-1.82,1.07-1.9c0.51-0.04,1.13,0.49,1.59,0.89
				c0.36,0.32,0.58,0.81,0.79,1.27c6.39,14.27,14.31,27.85,19.23,42.77c0.61,1.85,0.66,3.94,0.64,5.92
				c-0.05,9.62,5.02,16.96,10.53,24.13c0.79,1.02,1.13,2.48,2.97,0.96c1.32-1.09,1.48,0.57,1.7,1.4c3.65,14.14,6.9,28.39,11,42.39
				c3.63,12.4,7.56,24.79,14.62,35.83c3.65,5.7,3.55,9.92-1.73,13.97c-3.62,2.77-6.9,6.25-11.51,7.63
				c-3.47,1.04-3.34,4.18-3.73,6.93c-0.78,5.48,1.35,10.74,0.91,16.33c-0.63,8.14-4.01,14.56-10.27,19.14
				c-7.64,5.59-12.22,13.25-16.99,21.06c-10.18,16.64-19.73,33.77-33.61,47.83c-3.74,3.79-5.41,9.23-9.68,12.6
				c-6.74,5.32-10.04,13.56-16.21,19.23c-9.69,8.91-15.49,21.01-25.25,29.84c-3.55,3.21-3.06,6.47-0.09,10.47
				c8.7,11.77,20.57,16.02,34.54,15.88c8.06-0.08,14.92,3.01,20.93,7.96c4.14,3.41,3.81,7.44,0.63,11.74
				c-5.23,7.06-13,9.54-20.73,11.52c-11.08,2.84-22.58,3.41-33.9,4.94c-17.88,2.42-35.49-0.68-53.23-0.48
				c-5.89,0.06-11.73-1.49-17.78-0.18c-3.6,0.78-7.19-1.11-10.41-2.93c-3.48-1.97-3.64-5.14-2.05-8.23
				c2.69-5.22,4.28-10.31,2.91-16.4c-1.88-8.4,2.02-15.72,5.24-23.23c3.12-7.29,3.8-14.92,0.61-22.69c-1.7-4.13-2.13-8.6-0.88-13.19
				c2.35-8.62,4.67-17.26,6.38-26.02c0.74-3.81,0.36-7.98-0.21-11.89c-1.9-12.96-1.62-26.24-5.57-38.9
				c-3.11-9.97-6.14-19.97-10.32-29.57c-5.65-12.96-10.37-26.14-9.47-40.65c0.22-3.57,2.66-6.31,3.04-9.93
				c0.88-8.54,0.13-10.15-8.2-12.37c-1.93-0.51-2.9-1.4-3-3.34c-0.58-11.24-2.19-22.32-4.15-33.41
				c-1.77-10.03-1.35-20.22,4.44-29.38c1.07-1.69,0.77-3.68-0.44-5.19c-3.12-3.91-2.6-8.25-1.13-12.34
				c3.24-9.01-0.41-16.57-5.48-23.1c-6.91-8.9-15.1-16.8-20.26-27.01c-0.52-1.02-1.19-2.1-1.27-3.19
				c-1.29-17.1-7.17-33.07-11.92-49.34c-2.42-8.29-2.43-16.71-0.63-25.2c0.96-4.53,1.28-9.2,1.91-13.8
				c0.34-2.45-1.31-5.96,3.75-5.71c1.67,0.08,1-2.12,0.31-3.22c-1.28-2.03-1.78-4.05,0-5.94c6.91-7.38,3.94-15.98,2.54-24.08
				c-0.76-4.36-1.5-8.5-0.38-12.77c2.52-9.64,3.7-19.65,7.92-28.83c0.21-0.45,0.57-1.03,0.45-1.41c-2.29-6.93,1.37-13.8,0.23-20.64
				c-2.05-12.29-1.77-23.98,4.85-35.23c5.15-8.74,6.39-18.36,2.95-28.36c-2.81-8.18-2.48-16.1,1.71-24.13
				c2.31-4.44,3-9.86,3.75-14.94c1.33-8.95,4.41-17.4,6.73-26.07c2.56-9.56,8.45-17.18,15.01-24.26
				c8.7-9.39,18.41-17.52,29.15-24.61c6.47-4.27,12.64-9.08,18.95-13.65c4.46-3.22,12.36-17.12,9.45-22.89
				c-3-5.94-4.1-12.67-8.06-18.18c-3.39-4.72-3.99-10.5-5.25-15.94c-0.71-3.06-0.12-6.21,3.06-8.36c1.76-1.19,3.49-3.39,2.24-5.58
				c-2.98-5.24-0.74-10.19,0.68-14.95c2.46-8.28,3.46-16.97,6.94-24.95c3.22-7.41,8.11-13.28,16.14-16.18
				c-2.36,2.59-4.42,5.58-7.16,7.67c-5.59,4.26-7.96,9.96-8.76,16.61c-0.52,4.28-1.88,8.45-2.96,12.54
				c-2.57,9.71-2.97,19.3-1.46,29.03c-2.2,0.97-4.06-3.93-5.98-0.11c-1.26,2.5,0.57,8.23,2.64,8.88c4.36,1.36,1.58-3.53,4.05-4.42
				c0.15,8.04,5.69,13.95,7.61,21.46c1.97,7.69,0.22,14.23-2.23,20.83c-1.11,2.99-1.71,6.36-3.98,9.02
				c-2.28,2.67-0.58,3.67,2.22,3.94c1.79,0.17,3.58-0.97,5.37,0c-0.07,0.35-0.12,0.88-0.18,0.88c-12.68,0.37-21.96,8.14-31.28,15.14
				c-11.1,8.34-21.95,17.1-30.79,28.06c-6.47,8.03-10.98,16.81-13.75,26.78c-3.08,11.07-4.17,22.61-7.78,33.45
				c-2.08,6.25-4.4,12.13-3.26,18.8c0.25,1.47,0.3,3.01,0.8,4.39c4.11,11.23,2.47,21.89-3.17,32.12
				c-5.67,10.28-5.85,21.11-3.49,32.25c0.9,4.24,1.81,8.43,4.12,12.2c0.62,1.01,0.88,2.48-0.33,3.14c-1.68,0.92-1.74-0.9-2.23-1.81
				c-0.57-1.05-1.1-2.19-2.58-1.73c-0.96,0.3-1.15,1.34-0.87,2.08c3.47,9.15-3.67,16.55-4.09,25.04c-0.37,7.47-3.9,14.49-3.14,22.14
				c0.16,1.65-0.21,3.49,1.59,4.41c1.95,1,2.98-0.63,4.22-1.72c7.04-6.16,15.03-10.37,24.48-11.01c2.94-0.2,5.79-2.69,10.1-0.08
				c-5.4,1.35-9.71,2.94-14.14,3.38c-4.23,0.42-7.44,2.29-10.82,4.48c-3.44,2.23-6.01,5.67-10.24,6.86
				c-1.98,0.56-3.81,8.01-2.51,9.42c1.24,1.35,2.68,0.76,4.04-0.13c1.94-1.28,3.28-3.59,6.53-3.93c-1.63,4.07-5,5.36-7.83,7
				c-3.16,1.83-5.16,4.68-7.38,7.3c-1.11,1.31-2.05,3.56-0.51,5.02c1.7,1.6,2.77-0.74,4.13-1.45c14.22-7.41,27.75-16.33,44.1-18.9
				c5.02-0.79,9.87-2.65,15.13-2.12c-0.05,2.27-1.6,2.55-2.79,2.55c-4.92,0.01-9.46,1.9-14.21,2.61c-8.51,1.27-10.27,5.32-9.28,13.6
				c1.14,9.62,4.9,18.54,8.84,27.34c1.99,4.46,3.74,9.03,6.14,14.85c-3.71-2.21-4.86-4.61-5.78-6.93
				c-4.97-12.53-13.09-24.06-12.42-38.44c0.14-3-1.69-3.85-4.29-2.77c-9.88,4.1-19.99,7.81-28.2,15.04
				c-2.93,2.58-5.07,5.78-5.95,9.58c-3.41,14.89-3.12,29.69,2.39,44.04c4.15,10.81,5.78,22.09,7.59,33.39
				c0.74,4.61,2.2,8.79,4.89,12.84c8.65,12.97,18.92,24.42,30.53,34.76c1.5,1.34,3.35,2.86,2.71,5.82
				c-3.01-0.66-3.72-4.87-8.04-4.52c3.76,11.9,11.71,18.32,23.7,20.64c-4.06,2.55-10.57,1.26-15.06-2.78
				c-2.35-2.11-4.57-4.39-6.73-6.69c-2.08-2.21-3.32-1.63-4.24,0.97c-1.14,3.22-0.31,6.22,0.83,9.23c2.46,6.49,5.45,12.72,8.9,18.74
				c0.49,0.86,1.1,1.73,0.19,2.82c-2.9-1.84-3.92-5.2-6.18-7.52c-0.78-0.8-1.43-2.1-2.84-1.44c-1.19,0.55-1.58,1.84-1.43,2.99
				c1.82,13.51,3.07,27.07,15.21,36.56c4.31,3.37,9.44,7.18,9.12,14.06c-0.03,0.62,0.78,1.56,1.43,1.89c7.16,3.65,14.37,7.3,22.8,5
				c6.17-1.68,12.86-0.62,18.73-4.27c5.17-3.21,7.63-9.93,6.2-15.76c-1.46-5.94-5.19-11.2-4.92-17.68c0.07-1.58,0.65-4.43-2.89-4.73
				c-1.44-0.12-0.45-1.95,0.07-2.9c1.6-2.91,3.26-5.79,4.93-8.67c0.68-1.18,1.4-2.31-0.06-4c-4.37,5.42-9.36,10.2-14.69,14.47
				c-5.2,4.17-10.8,8.02-18,9.8c1.92-3.25,4.98-3.84,7.42-5.39c10.48-6.67,19.73-14.55,25.44-25.99c3.58-7.17,2.22-11.1-5.42-12.71
				c-8.72-1.83-17.28-4.33-26.36-4.59c-7.54-0.22-14.52-3.41-21.18-6.93c-1.62-0.86-3.69-2.08-2.43-4.16
				c1.25-2.07,3.01-0.1,4.31,0.58c9.59,5,19.73,7.29,30.52,8.54c8.38,0.97,16.94,3.14,24.69,7.18c1.5,0.78,2.68,1.97,1.9,3.54
				c-1.89,3.79,0.89,6.4,2.7,8.41c7.78,8.65,13.13,19.15,20.91,27.59c4.03,4.37,5.93,8.41,5.93,13.87c0,1.06,0.4,2.38-1.68,3.3
				c-1.33-7.47-5.2-13.7-10.15-18.92c-5.76-6.07-10.34-12.85-14.84-19.79c-1.44-2.22-3.18-2.44-4.63,0
				c-5.14,8.65-3.65,17.98-1.98,27.02c0.59,3.19,2.84,6.32,3.65,9.7c1.59,6.62,0.16,12.55-4.85,17.35c-2.12,2.03-2.21,3.71-0.84,6.5
				c7.59,15.46,6.57,31.68,2.8,47.77c-1.47,6.25-1.6,12.5-2.23,18.73c-0.87,8.63-2.61,17.05-4.23,25.54
				c-2.4,12.56-0.69,25.16,0.14,37.79c0.45,6.9,4.19,12.83,4.36,19.65c0.02,0.84,0.19,1.79,1.22,1.88c1.42,0.12,1.94-1.1,2.53-2.08
				c5.31-8.93,8.26-18.75,10.68-28.74c2.39-9.82,5-19.55,9.06-28.84c0.26-0.59,0.61-1.44,1.1-1.58c7.11-2.14,8.22-9.52,12.5-14.1
				c2.89-3.1,6.23-5.8,9.41-8.63c1.11-0.99,2.43-1.74,3.49-2.78c0.78-0.76,2.09-1.51,1.55-2.86c-0.56-1.41-1.93-0.96-3.07-0.85
				c-3.26,0.3-4.12-1.8-4.03-4.38c0.35-10.07-3.93-18.94-6.77-28.25c-1.86-6.11-1.95-12.78-2.6-19.22
				c-0.86-8.43-1.47-16.89-2.23-25.33c-0.13-1.43-0.35-2.85,1.72-2.73c1.71,0.1,1.91,1.15,1.87,2.78
				c-0.23,9.78,0.81,19.49,2.01,29.17c0.57,4.61,1.68,9.12,1.51,13.86c-0.19,5.19,3.11,9.11,7.52,9.74L1035.16,889.19z
				 M966.12,999.93c-2.48-4.14-4.18-3.77-8.07,2.23c3.04-0.88,5.62-1.62,8.21-2.37c0.43,3.48,3.95,4.6,5.61,7.17
				c0.53,0.81,2.16,0.87,3.22,0.05c0.61-0.47,0.65-1.32,0.1-1.74c-3.34-2.52-1.75-4.79,0.22-7.1c1.05-1.23,0.99-2.43-0.33-3.44
				c-1.92-1.46-3.93-1.7-6.03-0.37c-0.86,0.54-1.92,1.17-0.85,2.26C972.39,1000.83,967.31,999.13,966.12,999.93z M1106.22,897.06
				c-7.16,1.51-13.97-0.13-20.25,2.58c-6.05,2.61-12.52,2.82-19.02,3.29c-6.58,0.48-13.21,1.72-19.07,5.24
				c-1.41,0.85-3.27,1.68-3.09,3.55c0.2,2.09,2.36,2.09,3.92,2.37c10.18,1.84,20.16,4.35,29.06,9.82
				c5.61,3.45,11.01,7.26,16.35,11.12c2.04,1.47,2.68,1.09,4.12-0.91c5.66-7.89,10.34-16.66,19.04-21.99c1.77-1.08,2.87-3.04,4-4.95
				c4.27-7.17,2.96-14.8,2.41-22.39c-0.31-4.23-2.3-5.02-5.91-2.56c-4.24,2.89-8.51,5.73-12.72,8.66c-1.29,0.9-3.62,0.9-3.64,2.96
				C1101.42,896.45,1104.25,895.5,1106.22,897.06z M1035.6,969.59c-1.83,0.93-3.17,0.02-4.6-0.28c-6.32-1.33-12.65-2.69-19.15-2.56
				c-1.59,0.03-3.67,0.28-3.88,2.37c-0.19,1.85,1.63,1.88,2.9,1.83c13.63-0.52,25.41,5.68,37.63,10.27
				c0.93,0.35,2.25,0.52,1.66,1.82c-0.5,1.11-1.68,0.32-2.63,0.26c-4.77-0.27-8.27-3.79-12.67-4.85c-5.8-1.39-11.69-2.42-17.51-3.7
				c-1.42-0.31-3.49-1.51-3.9,0.21c-0.48,2.07,1.69,3.9,3.62,3.83c6.61-0.23,12.1,3.39,18.21,4.8c1.11,0.26,2.79,0.26,2.73,2.43
				c-2.31,0.54-6.1-0.11-3.59,4.57c0.62,1.16-1.54,0.91-2.59,0.45c-4.86-2.13-10.07-2.76-15.7-4.09c3.35,4.76,9.07,4.94,12.1,9.15
				c-8.6-2.24-17.07-4.66-25.78-6.42c-0.16,1.82,0.73,2.03,1.5,2.24c9.18,2.52,18.33,5.08,26.08,11.01
				c1.15,0.88,3.15,0.52,3.58-0.63c1.09-2.94,6.41-5.11,5.19-6.34c-3.91-3.97,0.25-5.65,1.18-8.19c1.05-2.89,3.11-3.19,5.6-1.83
				c3.04,1.66,6.08,3.34,9.09,5.05c1.06,0.6,2.08,1.12,3.2,0.2c0.57-0.47,0.9-1.48,0.43-1.73c-3.82-2.04-4.38-5.86-5.48-9.43
				c-0.17-0.54-0.89-1.19-1.43-1.28c-3.52-0.57-5.82-3.88-9.54-4.05c-1.51-0.07-3.27-1.04-2.72-2.82c0.55-1.78,2.23-0.66,3.4-0.28
				c1.63,0.53,3.18,0.5,3.66-1.34c0.47-1.78-1.23-2.07-2.47-2.48c-4.72-1.57-9.41-3.23-14.18-4.62c-2.05-0.6-4.33-0.96-7.27,1.3
				C1027.67,965.23,1032.06,965.97,1035.6,969.59z M957.53,1045.62c-0.36-3.82-1.98-5.58-5.63-4.9c-3.77,0.7-4.67,2.79-3.95,6.46
				c0.95,4.8,4.61,8.79,3.8,14.17c-0.23,1.51,1.87,1.03,2.71,0.34c2.43-2,5.22-3.81,6.56-6.73c3.27-7.09,8.57-12.77,12.82-19.17
				c5.65-8.53,5.19-14.38-2.87-19.71c-3.14-2.08-6.1-0.05-8.93,0.45c-1.94,0.34-1.37,3.41-1.28,5.37c0.08,1.65,0.41,3.28,0.57,4.93
				c0.28,2.87,3.54,6.33-1.57,8.21c-0.26,0.09-0.51,1.14-0.33,1.34C962.9,1040.23,958.19,1042.28,957.53,1045.62z M1061.54,1098.64
				c-0.25-1.97-1.43-2-2.23-2.51c-1.2-0.76-3.25-1.41-2.43-3.11c0.75-1.55,2.76-1.09,3.94-0.13c2.53,2.06,3.86-0.45,5.66-1.2
				c1.24-0.51,2.61-0.89,2.52-2.63c-0.04-0.68-0.34-1.32-1.12-1.43c-1.42-0.2-2.05,0.87-2.72,1.8c-1.06,1.49-2.5,2.79-4.05,1.27
				c-1.55-1.53,1.01-2.42,1.28-3.71c0.49-2.28,3.87-3.05,3.04-5.89c-0.71-2.42-8.35-5.97-10.94-5.21
				c-5.97,1.75-11.32,5.39-17.95,5.29c-2.96-0.05-3.55,3.25-3.32,5.32c0.29,2.58,2.74,1.37,4.44,1.18
				c6.12-0.68,11.17-4.6,17.17-5.71c1.05-0.19,2.3-1.62,3.05-0.36c1.07,1.81-1.18,1.9-2.06,2.63c-0.62,0.51-1.46,1.06-2.21,1.08
				c-6.94,0.15-10.87,7.17-18.03,7.51c2.65,0.65,4.01,2.33,5.48,3.89c3.54,3.75,7.33,6.84,13.01,4.68
				C1056.54,1100.49,1059,1099.59,1061.54,1098.64z M915.19,817.59c3.41,8.67,0.69,17.72,2.89,26.28c0.56,2.17,0.72,4.31,3.11,5.22
				c2.72,1.04,4.04-1.06,5.27-2.73c1.93-2.63,4.11-3.78,7.28-2.38c1.54,0.68,3.43,1.55,4.47-0.28c1.06-1.87-0.89-2.9-2.08-3.99
				C928.7,832.94,920.16,827.21,915.19,817.59z M1031.96,1082.62c-1.81-1.88-3.02-1.69-4.12-1.43c-14.85,3.59-29.73,1.43-44.5-0.21
				c-8-0.89-15.85-1.27-23.78-0.26c-1.25,0.16-3.14-0.26-3.44,2.94c14.63-1.75,28.57,3.55,43.03,2.68c0.99-0.06,2.08-0.25,2.97,0.06
				C1012.57,1090.09,1021.87,1086,1031.96,1082.62z M945.62,1031.69c0.04,3.83,0.64,7.36,1.47,7.58c2.46,0.66,3.97-1.03,5.57-2.47
				c0.2-0.18,0.63-0.13,0.95-0.12c5.01,0.08,5.71-2.86,4.85-6.9c-0.38-1.78-1.05-3.54-1.13-5.34c-0.17-3.88-0.99-5.59-4.33-1.86
				c-0.6,0.67-1.4,1-2.16,0.28c-0.56-0.53-0.48-1.41,0.1-1.74c5.65-3.17,9.66-9.36,17.08-9.27c1.19,0.02,2.95,1.14,3.33-0.78
				c0.28-1.43-1.46-2.03-2.51-2.75c-1.44-0.99-3.02-1.01-4.76-0.74C955.02,1008.96,945.51,1021.29,945.62,1031.69z M947.51,1052.8
				c-2.28,2.6-1.37,6.51-3.69,9c-4.79,5.16-2.89,11.59-3.31,17.57c-0.07,0.95,0.26,2.11,1.45,2.33c1.49,0.28,2.07-0.96,2.45-2.01
				c1.27-3.5,3.51-6.39,5.71-9.3c1.17-1.55,2.03-3.52,0.99-5.1c-1.63-2.47-1.21-5.05-1.44-7.65
				C949.52,1055.93,949.74,1053.93,947.51,1052.8z M1021.03,1018.7c-3.15,1.89-4.84,1.9-6.41,0.48c-1.63-1.47-3.63-1.54-5.64-1.47
				c-0.61,0.02-1.42,0.2-1.4,1.06c0.01,0.4,0.4,1.12,0.66,1.14c3.88,0.27,7.01,2.61,10.57,3.71c1.7,0.52,2.67-0.67,3.07-2.43
				c0.46-2.04,2.51-2.42,3.37-1.17c2.54,3.69,4.67,2.59,7.47,0.43c1.11-0.86,2.85-0.89,2.99-2.79c0.08-1.13-0.43-1.94-1.47-2.34
				c-1.94-0.75-3.58-0.48-4.68,1.5c-0.76,1.37-1.92,2.05-3.26,0.93c-3.35-2.82-7.67-3.06-11.54-4.44c-4.03-1.44-8.27-2.3-12.41-3.42
				c-0.17,0.5-0.34,1-0.5,1.5C1008.45,1012.48,1013.13,1017.6,1021.03,1018.7z M991.84,1025.7c-1.86-0.15-3.51-0.39-5.17-0.4
				c-1.56,0-3.86-0.46-3.79,1.91c0.06,1.95,2.16,1.6,3.61,1.54c3.15-0.13,6.32-0.35,9.38,0.54c7.86,2.29,15.65,4.83,23.96,5.01
				c1.5,0.03,3.07,0.35,4.14-1.02c0.72-0.92,0.39-1.92-0.41-2.66c-1.24-1.14-2.73-1.35-4.12-0.45c-2.25,1.44-4.21,0.61-6.55,0.02
				C1005.87,1028.42,999.17,1025.01,991.84,1025.7z M933.73,847.43c-4.66-0.21-7.2,2.34-5.97,6.01c1.15,3.42,3.43,5.74,7.06,4.39
				c3.22-1.2,8.2-1.92,8.34-5.76c0.12-3.06-4.52-3.5-7.47-4.33C935.06,847.56,934.39,847.52,933.73,847.43z M983.54,996.63
				c-0.66-2.73-2.37-5.27-4.11-7.61c-1.91-2.55-5.14-3.58-8.06-4.66c-2.45-0.91-3.38,1.22-4.54,2.86c-0.38,0.54-1.53,0.5-2.29,0.8
				c-1.26,0.49-2.74,1.1-2.23,2.74c0.46,1.49,2.04,1.61,3.38,1.42c5.77-0.81,11.26-1,14.56,5.2c0.29,0.54,1.39,0.83,2.15,0.89
				C983.11,998.34,983.43,997.61,983.54,996.63z M947.44,1085.67c-1.59,0.35-4.73-0.11-4.3,1.94c0.65,3.05-1.9,3.46-2.6,5.17
				c-1.15,2.81-2.49,5.93-2.27,8.8c0.18,2.37,3.38,2.75,5.77,2.89c1.53,0.09,3.84,1.39,4.22-0.93c0.4-2.39-2.16-1.81-3.66-2.1
				c-1.45-0.28-4.01,0.17-2.38-2.54c1.96-3.28,4.31-6.33,6.64-9.37c0.7-0.91,2.96-0.72,2.2-2.63
				C950.48,1085.42,948.82,1085.82,947.44,1085.67z M973.46,1045.57c10.09,2.89,19.95,5.74,29.84,8.52c0.72,0.2,1.77,0.14,2.01-0.91
				c0.24-1.07-0.82-1.21-1.43-1.71c-7.51-6.15-17.32-4.72-25.79-7.73C976.92,1043.32,974.8,1043.53,973.46,1045.57z M962.07,891.95
				c-0.49,0.06-1,0.07-1.48,0.17c-7.47,1.57-13.57,6.42-20.78,8.69c-2.03,0.64-0.71,3.1-0.36,4.45c0.49,1.87,1.87,0.35,2.77-0.02
				c1.52-0.64,3.11-1.29,4.42-2.28c5.06-3.8,10.33-7.09,16.67-8.29c0.81-0.15,1.81-0.59,1.64-1.52
				C964.64,891.54,963.12,892.16,962.07,891.95z M1032.01,1011.03c0.43,0.67,0.59,1.26,0.96,1.45c2.79,1.39,5.55,4.12,8.42-0.05
				c1.49-2.16,3.27-4.13,5.09-6.03c1.09-1.14,2.37-2.18,1.06-3.73c-1.29-1.52-3.02-2.62-5.08-2.76c-0.92-0.06-1.68,0.81-1.05,1.65
				c3.72,4.98-0.25,5.22-3.57,6.19C1035.72,1008.37,1033.63,1009.32,1032.01,1011.03z M1051.64,973.03
				c-1.4-0.02-2.42,0.03-2.87,1.16c-0.29,0.71,0.12,1.21,0.68,1.65c3.89,3.03,8,5.72,12.49,7.73c1.3,0.58,3.65,0.66,3.26-1.34
				c-0.61-3.08-4.48-4.51-5.01-7.92C1056.82,976.64,1054.13,974.18,1051.64,973.03z M1050.6,965.69c-0.22-0.45-0.4-0.91-0.66-1.33
				c-1.39-2.28-13.45-7.55-16.05-6.95c-0.55,0.13-1.31,0.62-1.42,1.08c-0.23,0.92,0.55,1.42,1.35,1.77c4.8,2.13,9.86,3.7,14.18,6.85
				C1049.46,968.18,1050.46,967.55,1050.6,965.69z M979.81,1014.47c-2.14-0.23-2.06-2.91-3.98-2.36c-0.51,0.14-1.24,0.91-1.21,1.33
				c0.22,2.81,2.18,5.12,3.99,6.51c2.31,1.77,1.91-1.41,2.48-2.65c0.59-1.29,1.74-0.43,2.6-0.67c2.31-0.62,2.15-2.65,2.28-4.42
				c0.07-1.01-0.23-2.14-1.3-2.45c-1.99-0.57-2.99,0.95-3.91,2.31C980.32,1012.73,980.15,1013.57,979.81,1014.47z M987.57,1038.32
				c-0.15,0.02-1.12-0.14-1.75,0.25c-1.83,1.14-5.66-0.7-5.58,1.58c0.11,3.19,3.64-0.29,5.29,1.16c0.11,0.1,0.31,0.15,0.47,0.14
				c4.76-0.26,8.96,1.79,13.33,3.16c1.27,0.4,2.93,0.47,3.24-1.23c0.26-1.42-1.23-1.74-2.35-2.01
				C996.22,1040.39,992.21,1039.44,987.57,1038.32z M1072.24,973.42c0.06-1.72-0.85-2.58-2.13-3.23c-3.39-1.73-6.73-3.56-10.16-5.22
				c-0.95-0.46-2.39-1.36-3.12-0.01c-0.72,1.34,0.25,2.53,1.5,3.27c3.56,2.12,7.14,4.21,10.69,6.35
				C1070.75,975.61,1071.81,975.25,1072.24,973.42z M1006.09,1005.91c2.67,1.2,5.1,2.52,7.6,3.77c2.79,1.39,5.9,2.2,8.91,3.11
				c0.96,0.29,2.04-0.09,2.48-1.17c0.13-0.33-0.1-1.12-0.37-1.25C1018.81,1007.62,1012.85,1005.08,1006.09,1005.91z M939.86,866.48
				c-0.2-2.09-1.43-2.13-2.82-1.44c-2.31,1.14-4.6,2.76-4.86,5.34c-0.28,2.77-6.35,4.01-2.84,6.5c2.87,2.04,4.03-3.34,6.35-4.98
				C937.48,870.63,939.06,868.7,939.86,866.48z M971.85,928.05c-3.6-0.48-6.31,1.49-9.12,3.17c-0.72,0.43-1.54,0.82-1.21,1.84
				c0.32,0.99,1.45,1.22,2.03,0.85c3.57-2.22,7.59-1.99,11.51-2.35c0.84-0.08,1.65-0.43,1.74-1.42c0.09-1.03-0.73-1.46-1.53-1.64
				C974.15,928.24,972.99,928.18,971.85,928.05z M984.49,1054.13c-5.23-3.61-12.53-3.53-17.06,0.07
				C973.14,1054.61,978.25,1055.05,984.49,1054.13z M950.62,957.42c1.46-4.25,2.38-8.42,6.69-10.38c0.85-0.39,1.43-1.61,0.32-2.46
				c-0.88-0.68-2.03-0.44-2.73,0.33c-2,2.18-4.09,4.33-5.71,6.77C948.08,953.34,947.84,955.46,950.62,957.42z M984.16,1059.34
				c-1.53,0.04-3.61-0.63-3.78,1.36c-0.19,2.28,2.24,1.85,3.68,2.35c1.08,0.38,2.17,0.76,3.25,1.14c2.23,0.79,4.13,0.13,3.25-2.31
				C989.58,1059.17,986.33,1059.99,984.16,1059.34z M1049.59,940.14c3.3,3.39,7.91,3.55,10.76,6.62c0.24,0.26,1.28,0.05,1.78-0.24
				c0.7-0.39,0.46-1.07,0.1-1.69C1060.83,942.41,1053.34,939.39,1049.59,940.14z M1016.28,1040.35c-1.56-2.85-4.68-1.54-6.99-2.36
				c-0.97-0.34-2.46,0.24-2.1,1.32c0.86,2.58,3.31,4.17,5.57,4.91C1014.2,1044.7,1015.72,1042.51,1016.28,1040.35z M1016.52,1089.75
				c4.91,2.28,8.7,1.39,12.43,0.71c0.95-0.17,1.81-0.94,1.47-2.15c-0.28-0.98-1.21-1.07-2.01-0.92
				C1024.84,1088.06,1021.29,1088.79,1016.52,1089.75z M969.23,882.14c1.56-0.75,5.3,1.18,5.24-2.05c-0.05-2.63-3.53-1.11-5.47-1.48
				c-0.48-0.09-1-0.06-1.49,0c-1.56,0.18-4-0.43-4.08,1.69c-0.08,2.25,2.4,1.6,3.92,1.83C967.84,882.2,968.35,882.14,969.23,882.14z
				 M1073.7,969.34c0.6-0.38,1.13-0.53,1.34-0.88c0.83-1.41,3.46-2.51,1.76-4.45c-1.43-1.63-3.55-2.81-5.57-3.72
				c-1.1-0.49-1.99,1.17-1.1,1.71C1072.88,963.7,1072.21,966.96,1073.7,969.34z M1033.86,945.77c3.82,1.64,6.75,2.96,9.74,4.13
				c0.88,0.34,2.09,0.41,2.62-0.66c0.2-0.41-0.28-1.66-0.48-1.67C1042,947.41,1039.1,942.86,1033.86,945.77z M962.04,869.98
				c4.4,1.71,7.1-1.55,10.33-1.19c1.07,0.12,2.53-0.5,2.15-2.04c-0.36-1.46-1.92-1.37-2.9-1
				C968.66,866.9,965.79,868.3,962.04,869.98z M1045.84,990.57c2.25,1.88,4.47,3.79,6.75,5.62c0.67,0.54,1.55,0.69,2.25,0.01
				c0.78-0.75,0.29-1.54-0.16-2.22C1052.64,990.86,1049.36,990.36,1045.84,990.57z M975.45,919.61c-3.12-2.42-6.27-1.53-9.28-1.29
				c-0.46,0.04-1.18,0.86-1.18,1.32c0,0.46,0.74,1.3,1.18,1.32C969.18,921.08,972.32,921.74,975.45,919.61z M1086.72,950.55
				c1.99-0.86,2.99-2.75,3.55-4.79c0.22-0.78-0.93-1.77-1.63-1.28c-1.7,1.18-4.33,1.55-4.92,3.71
				C1083.34,949.58,1085.13,950.18,1086.72,950.55z M1051.33,998.01c-1.96-1.66-3.83-3.65-6.5-4.6c-0.94-0.33-1.87,0.07-1.75,1
				c0.46,3.34,3.64,3.84,5.93,5.18C1049.91,1000.12,1050.91,999.54,1051.33,998.01z M967.96,899.98c1.68-0.29,4.63,0.98,4.7-1.05
				c0.09-2.5-3-1.53-4.72-1.67c-1.59-0.13-4.36-0.75-4.17,1.77C963.93,901,966.53,899.57,967.96,899.98z M949.92,939.73
				c-1.88,1.33-3.4,3.19-3.83,5.78c-0.14,0.88,0.56,2.08,1.24,1.8c2.39-1,3.8-3.09,4.51-5.52
				C952.14,940.75,951.57,939.83,949.92,939.73z M1042.25,953.46c1.68,2.08,3.07,4.32,5.68,4.77c1.08,0.19,2.61,0.98,3.13-0.33
				c0.63-1.59-1-2.34-2.2-2.74C1046.71,954.45,1044.46,954.01,1042.25,953.46z M991.39,1035.07c4.26,0.97,7.64,1.75,11.03,2.52
				C999.64,1033.8,996.38,1032.49,991.39,1035.07z M996.64,1005.21c1.57,0.03,2.62-0.62,2.6-2.23c-0.01-1.45-0.12-3.25-1.99-3.37
				c-1.72-0.11-2.43,1.43-2.68,2.95C994.32,1004.12,995.08,1005.03,996.64,1005.21z M1027.8,948.37c-2.8-0.26-5.11-1.92-7.74-0.61
				c-0.21,0.11-0.31,1.12-0.12,1.26c2.35,1.75,4.91,1.03,7.44,0.51C1027.46,949.52,1027.49,949.26,1027.8,948.37z M957.63,954.78
				c1.3-0.93,2.24-1.57,3.15-2.25c0.91-0.68,3.24-0.68,1.98-2.53c-0.95-1.4-2.49-0.31-3.41,0.64
				C958.43,951.59,956.61,952.18,957.63,954.78z M1067.07,929.76c2.48,1.63,4.24,2.88,6.11,3.95c0.4,0.23,1.32,0.01,1.73-0.34
				c0.6-0.5,0.34-1.39-0.35-1.51C1072.28,931.46,1070.61,929.08,1067.07,929.76z"/>
			<path d="M1116.11,768.19c-3.27-5-3.41-9.78-4.86-14c-3.17-9.25-4.46-19.01-6.02-28.71c-1.42-8.85-5.58-17.05-8.52-25.54
				c-3.69-10.68-8.55-20.87-12.4-31.47c-1.39-3.82-3.12-7.12-5.98-10.13c-3.98-4.19-7.57-8.82-10.84-13.59
				c-11.29-16.45-26.59-26.79-46.22-30.2c-10.13-1.76-20.43-2.37-30.42-5.11c-2.37-0.65-5.54-1.76-7.09,1.56
				c-1.4,3,1.94,3.78,3.16,5.55c3.34,4.82,8.57,7.7,12.41,12.03c0.92,1.04,2.03,2.19,0.69,3.39c-1.3,1.16-1.92-0.43-2.72-1.18
				c-5.58-5.23-11.24-10.41-15.91-16.49c-3.62-4.73-8.9-5.02-13.88-5.15c-9.54-0.26-18.69-2.95-28.15-3.7
				c-4.93-0.39-9.87-0.71-15.44-0.79c1.65-2.69,3.84-2.76,5.87-2.67c8.96,0.38,17.94,0.7,26.6,3.47c1.55,0.5,3.29,0.63,4.93,0.58
				c10.76-0.27,21.51,0.95,32.16,1.7c13.82,0.98,27.84,2.34,41.32,6.46c9.91,3.03,17.48,10.22,26.68,14.49
				c1.91,0.88,1.99,3.38,3.07,5.03c0.55,0.84,1.23,1.72,2.4,1.36c1.26-0.38,1.08-1.53,0.98-2.51c-0.35-3.4-1.38-6.51-4.01-8.9
				c-3.93-3.59-8.05-6.93-12.7-9.56c-1.48-0.84-2.85-1.69-3.41-3.82c4.71-0.17,6.96,5.37,11.96,4.51c0.14-2.17-1.04-3.93-2.89-5.05
				c-5.26-3.2-10.48-6.6-16.45-8.27c-1.44-0.4-4.32-3.48-5.23,0.99c-0.02,0.11-1.28,0.2-1.78-0.06
				c-14.19-7.27-29.82-9.38-45.13-12.69c-5.76-1.24-11.46-1.19-17.34-1.05c-7.07,0.17-14.18-1.23-22.02-2.03
				c2.3-2.12,4.51-1.88,6.51-1.84c17.93,0.41,35.9,0.6,53.24,6.18c2.37,0.76,4.37,2.49,7,2.54c0.98,0.02,2.12,0.35,2.52-0.92
				c0.31-1-0.54-1.41-1.29-1.81c-5.81-3.04-11.62-6.1-17.45-9.17c0.57-1.93,1.72-1.1,2.71-0.62c7.07,3.45,14.17,6.83,21.16,10.42
				c6.75,3.47,13.75,6.39,20.94,8.71c4.68,1.51,8.82,3.76,12.84,6.4c1.37,0.9,2.73,2.15,4.54,1.25c1.29-0.64,1.38-1.89,0.8-3.01
				c-0.87-1.67-1.02-4.61-3.53-4.19c-3.83,0.63-6.4-1.52-9.19-3.15c-6.19-3.64-13.56-4.06-19.75-8.03
				c-9.76-6.26-19.94-11.98-31.22-15.16c-16.83-4.75-33.84-6.78-51.14-2.6c-1.29,0.31-2.62,0.51-4.76-0.56
				c5.14-1.44,9.54-3.31,14.09-3.81c7.27-0.8,15-1.86,21.85,0.4c9.84,3.24,18.64,0.44,27.77-1.82c1.58-0.39,3.06-1.4,5.34-0.34
				c-2.9,1.95-5.75,3.16-8.75,4.1c-0.77,0.24-1.77,0.51-1.67,1.53c0.05,0.5,0.67,1.23,1.16,1.35c12.47,3.11,22.13,11.7,33.54,17.66
				c0.25-7.14-7.77-7.42-9.59-12.9c3.11-0.5,4.81,1.58,6.15,3.08c6.64,7.46,15.62,11.66,23.46,17.44c1.73,1.27,3.44,1.46,4.66-0.63
				c10.59-18.04,20.69-36.26,18.18-58.36c-0.58-5.13,2.17-9.38,3.61-13.85c3.17-9.86,5.58-20.32,3.37-29.92
				c-2.15-9.38,1.66-15.51,6.02-21.8c4.59-6.62,5.05-14.12,6.8-21.4c1.72-7.15,2.47-14.33,1.85-21.69
				c-0.32-3.84,3.59-4.31,5.78-5.22c8.89-3.69,17.26-8.15,25.01-15.13c-1.2,4.53-5.11,8.79-10.31,11.33
				c-4.63,2.26-8.78,5.41-13.74,7.09c-3.49,1.19-4.01,4.39-3.63,7.45c1.19,9.48-0.74,18.49-3.27,27.54
				c-1.62,5.8-5.63,10.13-8.41,15.19c-2.27,4.14-2.52,8.17-2.26,12.46c0.86,14.5-0.87,28.57-6.53,42.05
				c-0.73,1.74-0.92,3.6-0.62,5.41c2.87,17.21-4.49,31.91-11.71,46.52c-3.23,6.53-6.49,12.76-4.22,20.32c0.61,2.04,0.15,4-1.12,5.69
				c-2.39,3.17-1.87,6.25,0.27,9.21c4.12,5.7,7.19,11.58,4.64,18.92c-0.82,2.37,0.68,4.12,2,5.87c1.81,2.38,3.32,5.03,5.35,7.2
				c11.34,12.11,14.68,27.88,20.1,42.76c2.38,6.52,5.26,12.88,7.76,19.39c3.41,8.88,3.27,18.33,5.22,27.43
				c1.22,5.71,2.39,11.34,4.71,16.73C1116.93,761.11,1116.83,764.02,1116.11,768.19z"/>
			<path d="M1063.69,264.5c0.33,0.04,0.67,0.03,0.99,0.12c2.71,0.8,1.92,6.24,3.05,5.09c2.68-2.72,6.11-5.53,6.72-9.9
				c0.49-3.46,1.03-6.91,1.52-10.37c0.25-1.76,0.29-3.59,1.9-5.49c2.08,5.28,1.39,10.14,0.55,15.01c-0.54,3.15-0.98,5.81,2.68,8.06
				c2.71,1.67,3.18,4.68,2.16,8.7c-1.89,7.49-5.71,14.67-3.62,23.18c1.18,4.79,1.12,10.8-4.5,14.21c-0.27,0.17-0.68,0.51-0.65,0.72
				c0.68,4.48-3.01,7.31-4.55,11.28c-6.34-4.85-1.73-14.52-8.33-19.34c2.05,5.5,2.18,11.15,1.98,16.85
				c-0.03,0.97,0.59,2.25-0.33,2.82c-2.03,1.26-2.87,2.67-1.51,4.87c1.79,2.89,3.66-0.25,5.36-0.23c0.68,1.51-0.33,2.08-0.91,2.83
				c-0.86,1.11-1.51,2.33-0.55,3.62c0.85,1.13,2.09,0.72,3.23,0.42c1.96-0.51,3.9-0.88,7.06,1.55
				c-15.51,2.1-22.21,13.33-29.25,24.41c0.07-4.3,2.2-7.69,4.59-10.82c1.54-2.01,2.8-4.09,3.83-6.36c0.46-1.01,1.89-2.05,0.9-3.05
				c-1.05-1.06-3.12-1.32-4.23-0.52c-7.71,5.5-15.74,2.49-23.92,1.75c-4.93-0.45-8.61-2.33-12.42-4.81
				c-0.81-0.53-2.2-0.72-1.67-1.96c0.61-1.45,2.23-1.07,2.96-0.34c4.05,4.01,9.6,3.34,14.45,4.74c2.28,0.66,5.69,1.51,5.48-3.13
				c-0.04-0.93,0.63-1.52,1.63-1.42c1.25,0.13,1.62,1.09,1.63,2.13c0.04,3.3,2.14,3.97,4.72,3.43c1.95-0.41,4.26-1.2,1.98-3.97
				c-0.93-1.13-0.84-2.48-0.92-3.8c-0.05-0.81-0.29-1.73,0.66-2.19c0.92-0.45,1.55,0.28,2.19,0.78c1.31,1.02,2.68,1.99,3.89,3.12
				c1.16,1.09,2.23,2.26,3.7,0.57c0.79-0.91,3.04-1.28,2.08-2.86c-0.95-1.56-0.81-4.11-3.36-4.51c-3.61-0.57-5.25-3.4-3.67-7.16
				c1.54-3.65,2.87-6.79,1.98-11.24c-0.48-2.42,3.71-5.7,5.65-8.68c2.72-4.2,5.88-8.28,5.2-13.76c-0.18-1.44,0.32-2.3,1.75-2.42
				c3.56-0.3,3.69-2.82,3.49-5.43c-0.11-1.39,0.46-3.58-1.35-3.86c-2.35-0.37-1.44,2.04-1.84,3.28c-0.28,0.85-0.72,1.75-1.58,1.66
				c-1.4-0.14-1.19-1.35-0.98-2.33c1.08-5.1,0.33-10.23,0.24-15.34L1063.69,264.5z"/>
			<path d="M1184.57,162.5c4.02,0,5.15,3.76,7.54,5.86c1.22,1.07,1.99,3.21,3.8,2.91c5.74-0.94,9.2,2.54,12.13,6.34
				c3.39,4.4,4.88,9.86,5.41,15.31c1.15,11.89,6.21,22.26,12.33,32.11c1.55,2.5,2.21,5.09,3.31,7.61
				c4.68,10.77,9.25,21.59,13.95,32.34c2.06,4.7,2.1,9.7,2.28,14.78c-4.71-7.33-4.53-16.79-10.16-24.14
				c-1.53,2.35-0.92,5.53-3.99,6.81c-1.5,0.63-0.25,1.85,0.79,2.56c2.6,1.79,3.43,4.37,3.02,7.39c-0.24,1.75,0.37,3.11,1.21,4.65
				c2.88,5.26,3.7,10.65-0.75,15.54c-3.25,3.57-3.38,7.27-0.83,11.39c-1.76,0.39-3.17,0.7-4.57,1.01l0.14,0.15
				c1.32-4,1.14-7.5-2.92-9.98c-1.94-1.19-0.84-2.96-0.46-4.51c1.2-4.88,2.69-9.68-1.58-14.07c-1.33-1.37-0.93-3.46,0.26-5.11
				c2.16-2.99,1.51-5.7-0.18-8.79c-2.54-4.66-4.54-9.62-6.74-14.46c-0.48-1.06-0.91-2.19,0.43-3.27c3.77,1.79,2.94,6.7,6.06,9.49
				c1.24-2.42,1.22-4.71,0.19-6.44c-1.39-2.32-2.39-4.64-3.04-7.26c-0.39-1.54-1.35-3.4-3.36-0.89c-2.14,2.67-2.59,0.42-2.74-1.25
				c-0.31-3.64-0.52-7.31-0.56-10.96c-0.18-14.98-4.31-29.25-7.81-43.63c-0.89-3.63-3.8-5.98-6.87-7.54
				c-5.75-2.92-10.54-6.98-15.23-11.26c-0.8-0.73-0.96-1.72-0.97-2.74L1184.57,162.5z M1230.7,293.15c1.52-1.39,2.04-3.37,3.63-4.52
				c1.01-0.73,0.47-2.17-0.22-3.16c-0.23-0.34-0.84-0.73-1.16-0.64c-1.23,0.34-1.18,1.55-1.15,2.44
				C1231.86,289.24,1229.39,290.6,1230.7,293.15z M1230.84,250.25c-1.54,2.11-2.86,3.89-2.59,6.31c0.02,0.22,1.01,0.6,1.09,0.51
				c1.5-1.69,2.91-3.46,2.3-5.98C1231.6,250.95,1231.42,250.86,1230.84,250.25z M1221.76,226.78c-1.01,3.23-1.61,5.32,0.57,6.9
				c0.39,0.28,1.66,0.16,1.76-0.09C1225.11,231.09,1223.39,229.51,1221.76,226.78z"/>
			<path d="M1173.96,359.15c3.31-1.5,3.94,1.41,5.59,3.09c1.94,1.99,3.57,6.86,6.06,5.19c2.47-1.66-2.03-4.26-2.92-6.7
				c-0.74-2.02-1.75-3.94-2.5-5.95c-0.48-1.28-0.71-2.82,1.06-3.27c1.57-0.39,2.63,0.69,2.76,2.16c0.33,3.82,3.17,6.11,5.18,8.9
				c0.68,0.94,1.64,2.09,2.85,1.3c1.2-0.79,0.55-2.02-0.09-3.08c-1.65-2.72-1.62-2.73,0.97-4.97c1.23,6.11,12.22,10.76,17.61,7.44
				c0.71-0.43,1.43-0.86,2.08-1.38c1.21-0.96,2.46-1.81,4.07-1.24c0.3,0.11,0.68,0.94,0.55,1.14c-0.87,1.41-1.79,3.14-3.5,3.32
				c-4.62,0.49-6.67,4.3-10.22,6.82c6.5,1.16,15.43-3.45,19.04-7.65c3.12-3.63,8.23-5.24,12.9-6.34c4.84-1.13,9.57-5.02,9.47-9.97
				c-0.19-8.72,0.92-17.19,2.65-25.73c0.87-4.26-0.05-8.91-0.31-13.38c-0.16-2.71,0.31-5.27,1.12-8.61
				c1.28,2.89,1.52,5.22,1.42,7.63c-0.32,8.11-0.42,16.23-1.89,24.27c-0.57,3.13-0.12,6.3,0.46,9.43
				c2.04,11.15-0.85,15.17-11.43,18.86c-3.82,1.33-7.78,3.44-10.99,6.38c-6.39,5.83-14.04,8.85-22.26,11.43
				c-4.07,1.28-8.72,2.13-12.46,5.02c-8.71,6.73-19.66,9.48-28.69,15.71c-0.39,0.27-0.96,0.52-1.4,0.46
				c-2.84-0.38-7.89,1.65-8.05-0.58c-0.25-3.29,4.49-1.18,6.87-2.14c0.45-0.18,1.05-0.01,1.47-0.23
				c8.22-4.29,16.45-8.57,24.62-12.97c1.79-0.97,0.74-2.47,0.34-3.94c-1.81-6.51-8.06-10.03-10.65-16.05
				c-0.64-1.49-1.72-2.76-1.64-4.51L1173.96,359.15z"/>
			<path d="M1194.93,270.4c-2.5-2.81-2.27-5.8-2.48-8.51c-0.7-9.13-1.69-18.16-4.69-26.89c-1.14-3.31-1.02-6.84-0.71-10.38
				c0.7-8.12-2.27-11.41-10.28-11.87c-2.94-0.17-5.69-1.52-7.67-3.27c-3.56-3.14-6.65-2.1-10.03-0.28
				c-6.99,3.76-9.62,2.66-11.34-4.96c-0.46-2.03-1.98-3-3.24-4.27c-1.93-1.95-2.76-3.99-0.99-6.9c1.96,3.02,3.64,5.76,5.5,8.38
				c0.63,0.89,1.54,2,2.84,1.7c1.44-0.34,1.28-1.74,1.35-2.89c0.19-3.06,1.45-5.1,4.86-5.03c1.05,0.02,1.94-0.2,2.69-1
				c2.75-2.94,4-1.08,4.64,1.64c0.51,2.15,0.71,4.35,3.71,4.82c0-1.14-0.13-2.26,0.06-3.33c0.09-0.52,0.69-1.2,1.2-1.36
				c0.99-0.3,1.65,0.44,1.62,1.34c-0.07,2.4,2.32,3.56,2.33,5.8c2.05-0.33,1.25-1.55,1.21-2.38c-0.06-1.18,0.35-1.99,1.51-2.18
				c1.35-0.21,2.15,0.46,2.51,1.81c1.26,4.64,3.95,6.68,8.81,4.8c0.92-0.36,2-0.56,2.8,0.3c0.96,1.03,0.48,2.18,0.05,3.27
				c-3.37,8.44-2.18,17.09-0.1,25.37c2.86,11.37,3.94,22.88,4.65,34.48C1195.74,269.03,1195.36,269.46,1194.93,270.4z"/>
			<path d="M1071.06,259.07c-2.46-3.46-4.37-6.68-3.18-10.79c0.52-1.81,0.17-3.76-2.27-4.25c-1.75-0.35-3.23-1.25-1.67-2.9
				c1.19-1.25,1.74-4.64,4.81-2.68c1.49,0.95,3.05,3,4.71,1.37c1.62-1.59-0.43-3.26-1.18-4.85c-4.41-9.3-9.65-18.09-17.17-25.2
				c-8.56-8.1-18.72-11.75-30.61-9.82c-1.76,0.29-3.62,0.69-5.34-0.29c-0.29-1.49,0.82-1.7,1.76-1.92
				c18.81-4.43,33.53,2.87,43.7,18.05c3.89,5.8,7.01,12.01,10.63,17.89c2.96,4.8,0.49,8.3-0.6,12.05
				C1073.4,250.09,1068.62,253.39,1071.06,259.07z"/>
			<path d="M905.52,715.06c2.15,0.42,2.75,2.26,3.57,3.84c6.23,12.01,15.16,20.84,27.61,26.79c9.7,4.63,19.85,7.31,29.93,10.56
				c6.45,2.08,12.37,5.84,19.75,9.44c-5.69,1.03-9.48-0.82-13-2.57c-7.51-3.74-15.5-5.94-23.45-8.35
				c-12.02-3.65-23.61-8.28-32.73-17.28c-5.08-5.01-9.44-10.72-11.57-17.75C905.18,718.25,904.09,716.7,905.52,715.06z"/>
			<path d="M997.08,761.64c-0.46-2.73-1.26-5.42-1.3-8.11c-0.15-10.66-1.54-21.2-2.38-31.79c-0.47-5.88-2.14-11.4-3.06-17.12
				c-1.45-9.07-2.01-18.19-2.42-27.34c-0.06-1.3-0.56-3.03,1.23-3.28c1.56-0.22,2.12,1.51,2.52,2.7c1.64,4.83,0.66,9.89,0.95,14.83
				c0.31,5.33,1.18,10.48,2,15.73c2.69,17.41,3.76,35.01,3.96,52.65C998.59,760.54,998.43,761.24,997.08,761.64z"/>
			<path d="M1136.08,324.74c5.24-4.33,5.32-4.37,8.23,0.93c2.52,4.61,6.7,3.47,10.56,3.16c1.79-0.15,3.59-1.2,5.22,0.22
				c0.91,0.79,2.69,1.39,1.86,3.05c-0.76,1.52-1.91,0.54-2.96,0.03c-2.7-1.33-4.64,1.26-7.08,1.46c-7.68,0.65-15.57,0.38-22.47,4.8
				c-0.45,0.29-1.48,0.27-1.89-0.05c-8.17-6.5-18.03-5.74-27.54-6.54c-0.27-0.02-0.52-0.32-0.8-0.5c4.1-1.28,8.9-2.08,11.62-0.89
				c5.05,2.21,9,0.87,12.7-2.67c0.95-0.91,2.12-1.6,3.19-2.4c0.92-0.69,1.85-0.89,2.48,0.29c0.58,1.09,0.11,1.91-0.97,2.38
				c-0.91,0.4-1.91,0.65-2.74,1.17c-1.02,0.64-1.73,1.66-1.54,2.93c0.18,1.24,1.41,1.23,2.3,1.55c5.46,1.98,10.23,0.92,13.96-3.35
				c1.55-1.78,2.2-3.65-1.31-3.97C1137.9,326.25,1136.91,326.06,1136.08,324.74z"/>
			<path d="M936.29,566.99c-10.38-2.83-21.22-5.17-28.59-14.44c-0.92-1.16-2.32-2.51-0.9-3.87c1.29-1.23,2.35,0.34,3.3,1.19
				c6.75,6.06,14.13,10.94,23.07,13.24c5.51,1.42,10.92,0.69,15.37-2.23c5.92-3.88,13.1-3.5,19.08-6.78
				c0.41-0.23,1.51,0.05,1.76,0.44c0.55,0.86-0.1,1.53-0.9,1.93c-0.89,0.44-1.78,1-2.73,1.21c-9.25,2.01-17.72,6.33-26.73,9.01
				C938.22,566.93,937.35,566.88,936.29,566.99z"/>
			<path d="M1004.94,765.44c-1.88-3.38-1.41-6.91-0.66-10.2c3.88-17.09,5.04-34.26,2.3-51.64c-0.33-2.12-1.73-5.65,1.03-6.07
				c2.91-0.44,2.72,3.43,2.7,5.46c-0.12,10.71,0.82,21.33-0.65,32.17C1008.29,745.26,1005.25,755.11,1004.94,765.44z"/>
			<path d="M1088.74,465.06c-7.68,12.54-19.13,20.75-31.09,28.6c-5.76,3.78-11.44,7.26-18.14,8.9c-1.4,0.34-3.4,1.12-3.83-0.82
				c-0.44-1.98,1.79-1.93,3.12-2.37c15.85-5.2,29.55-13.8,41.1-25.86C1082.71,470.56,1085.78,467.86,1088.74,465.06z"/>
			<path d="M1028.16,828.49c3.17-7.09,7.05-13.14,8.57-19.73c2.64-11.5,11.09-21.49,8.92-34.2c-0.17-1.01,0.19-2.18,1.48-2.11
				c1.84,0.11,1.83,1.65,1.77,2.99c-0.25,6.46-1.3,12.78-3.75,18.8c-4.11,10.08-8.31,20.13-12.44,30.2
				C1032,826.2,1031.07,827.67,1028.16,828.49z"/>
			<path d="M980.35,782.06c-3.9,4.95-8.14,8.17-12.73,9.81c-5.51,1.98-10.35,5.14-15.75,7.2c-4.69,1.79-9.43,3.22-14.53,2.2
				c-1.12-0.23-2.43-0.67-2.49-2.05c-0.06-1.6,1.36-1.66,2.51-1.75c14.83-1.2,28.33-5.95,40.27-14.94
				C977.96,782.28,978.55,782.35,980.35,782.06z"/>
			<path d="M1035.29,889.32c-1.5-4.09,1.96-6.68,3.6-9.29c8.73-13.91,17.23-27.92,24.29-42.77c0.34-0.73,0.73-1.51,1.94-1.61
				c1.35,1.26,0.46,2.49-0.17,3.81c-7.29,15.52-16.31,30.03-25.9,44.19c-1.25,1.85-1.21,4.67-3.89,5.52
				C1035.16,889.19,1035.29,889.32,1035.29,889.32z"/>
			<path d="M952.69,579.06c-9.32,2.49-18.69,5.33-28.39,6.19c-9.56,0.85-18.13,4.94-27.16,7.47
				C914.12,581.97,933.43,580.73,952.69,579.06z"/>
			<path d="M969.73,777.43c-2.75,4.54-7.03,5.66-10.53,6.5c-8.3,1.99-16.55,5.22-25.39,3.97c-1.55-0.22-4.01,0.11-3.85-2.08
				c0.16-2.2,2.56-1.65,4.1-1.45c8.75,1.15,16.98-2.65,25.67-2.68C962.73,781.68,965.6,778.46,969.73,777.43z"/>
			<path d="M1089.75,444.53c-5.11,6.19-10.6,12.16-17.08,16.88c-5.29,3.86-10.56,8.05-17.07,9.97c-1.1,0.32-2.39,1.33-3.12,0.09
				c-0.88-1.5,0.77-1.85,1.77-2.29c12.95-5.68,24.09-13.77,33.09-24.74c0.36-0.44,1.03-0.61,1.56-0.9
				C1089.18,443.87,1089.46,444.2,1089.75,444.53z"/>
			<path d="M1154.28,345.67c5.8,11.82,6.34,25.52,19.49,31.51C1162.24,374.94,1153.01,360.23,1154.28,345.67z"/>
			<path d="M979.38,826.19c-3.62,10.24-15.2,17.44-24.59,15.85c-1.51-0.25-3.34-0.45-3.15-2.39c0.17-1.77,1.91-1.61,3.2-1.22
				c8.13,2.45,13.68-1.95,18.84-7.16C975.35,829.57,976.75,827.64,979.38,826.19z"/>
			<path d="M1206.9,342.21c4.87,3.52,10.2,5.77,15.67,7.75c1.21,0.44,2.01,1.19,1.78,2.57c-0.22,1.34-1.3,1.83-2.46,2.12
				c-2.46,0.62-4.7-0.11-6.42-1.76C1212.21,349.75,1208.96,346.57,1206.9,342.21z"/>
			<path d="M1194.76,277.11c0,10.5,0,21,0,32.16C1191.62,304.49,1191.49,288.59,1194.76,277.11z"/>
			<path d="M1020.55,808.01c-1.43-9.21-4.16-17.91-2.76-27.03c0.2-1.29-0.09-2.95,1.67-3.18c1.56-0.2,2.01,1.28,1.81,2.39
				c-1.49,8.28,0.33,16.54,0.02,24.8C1021.26,805.9,1020.86,806.8,1020.55,808.01z"/>
			<path d="M1125.58,340.05c-7.71,7.23-12.58,16.63-18.9,24.92C1110.06,354.5,1115.99,345.92,1125.58,340.05z"/>
			<path d="M1044.09,291.5c-3.6,4.52-1.88,7.86,1.59,10.96c1.01,0.9,2.19,2.38-0.02,2.9c-1.61,0.38-2.75,4.09-4.84,1.11
				c-1.45-2.07-3.42-4.17-1.87-7.22c0.57-1.12,0.99-2.72,0.63-3.83C1038.22,291.17,1041.28,291.76,1044.09,291.5z"/>
			<path d="M1174.1,359.02c-6.58-4.01-10-16.58-4.75-23.1c-0.98,9.16,4.08,15.59,4.61,23.23
				C1173.96,359.15,1174.1,359.02,1174.1,359.02z"/>
			<path d="M1080.71,490.2c-8.39,6.33-16.5,13.07-26.54,18.29C1055.89,504.63,1070.98,494.25,1080.71,490.2z"/>
			<path d="M1049.9,277.96c-0.77,3.35-8.6,7.26-11.58,5.79c-0.67-0.33-1.26-1.19-0.83-1.51c3.77-2.8-1.56-6.53,1-9.19
				c0.67-0.7,1.82,0.67,2.17,1.51c1.9,4.54,5.21,5.08,9.36,3.52L1049.9,277.96z"/>
			<path d="M1063.76,264.37c-1.34-1.62-3.96-1.49-4.87-3.91c-0.56-1.49-1.93-0.91-2.77,0.11c-1.72,2.08-4.53,1.68-6.66,2.97
				c-1.25,0.76-3.04-0.09-3.62-1.7c-0.45-1.25,0.85-2.03,1.68-1.92c5.69,0.73,9.32-4.49,15.17-4.97c-2.27,2.58-2.66,4.81,0.45,6.71
				c0.55,0.34,0.39,1.84,0.55,2.83C1063.69,264.5,1063.76,264.37,1063.76,264.37z"/>
			<path d="M977.36,372.94c-9.07-1-18.19,1.32-27.24-1.9c9.11,0,18.23,0,27.34,0C977.42,371.68,977.39,372.31,977.36,372.94z"/>
			<path d="M1066.81,781.02c-0.2-8.09,3.69-15.58,2.35-25.05C1072.75,761.52,1071.08,776.26,1066.81,781.02z"/>
			<path d="M1222.06,326.27c3.14-6.66,7.96-10.2,15.44-7.94c-0.54,2.55-2.05,3.95-5.64,3.24
				C1227.69,320.75,1225.27,324.46,1222.06,326.27z"/>
			<path d="M1058.27,812.78c-1.39,6.61-5.87,11.71-8.56,17.69c-0.52-0.24-1.03-0.49-1.55-0.73c2.85-5.9,5.7-11.8,8.54-17.7
				C1057.23,812.28,1057.75,812.53,1058.27,812.78z"/>
			<path d="M1085.74,437.9c-1.45,3.57-4.21,5.4-7.86,6.01c-0.66,0.11-1.35,0.28-1.98,0.18c-2.1-0.34-4.6,3.92-5.77,0.53
				c-0.68-1.98,3.68-2.01,5.53-2.52C1079.25,441.12,1082.36,439.47,1085.74,437.9z"/>
			<path d="M1091.76,359.15c4.38-4.89,7.54-11.07,14.13-13.6C1101.32,350.24,1097.64,355.83,1091.76,359.15z"/>
			<path d="M985.76,543.98c-3.67,4.52-8.54,7.25-13.72,9.51C975.62,548.85,980.23,545.72,985.76,543.98z"/>
			<path d="M1223.05,267.11c-0.16,0.69-0.16,1.43-0.49,1.95c-1.1,1.7-1.43,5.24-3.41,4.73c-2.83-0.73-1.08-3.46-0.42-5.42
				c0.2-0.61,0.12-1.31,0.22-1.96c0.2-1.33-0.67-3.57,1.52-3.48C1222.68,263.02,1222.83,265.3,1223.05,267.11z"/>
			<path d="M1021.54,282.05c-3.78,3.75-0.56,4.43,1.5,5.46c-0.98,1.94-2.92,0.71-4.03,1.79c-0.97,0.96-2.15,2.68-3.58,0.83
				c-1.13-1.47-0.55-3.26,0.71-4.48C1017.38,284.44,1018.04,282.49,1021.54,282.05z"/>
			<path d="M1060.33,377.44c5.44-3.17,6.68-10.11,11.96-13.39C1071.03,370.89,1065.18,373.77,1060.33,377.44z"/>
			<path d="M1139.44,347.86c-1.24,5.59-2.47,11.19-3.71,16.78c-2.02-6.25,0.75-11.52,2.35-17.02
				C1138.54,347.71,1138.99,347.78,1139.44,347.86z"/>
			<path d="M994.8,331.86c5.3-0.64,9.66,2.95,14.79,3.08C1003.72,338.17,999.49,333.97,994.8,331.86z"/>
			<path d="M1047.39,320.4c-2.1-2.49-3.64-4.87-6.24-7.02c3.29-0.49,6.57-1.51,8.15,0.46
				C1050.81,315.73,1047.23,317.71,1047.39,320.4z"/>
			<path d="M1125.5,386.31c4.61,4.22,5.68,10.82,10.97,14.19C1130.09,398.58,1127.22,394.82,1125.5,386.31z"/>
			<path d="M1059.41,277.7c1.58,3.85,1.29,6.8-1.72,8.39c-1.62,0.86-2.26-1.47-2.74-2.73
				C1053.11,278.55,1058.36,280.41,1059.41,277.7z"/>
			<path d="M1017.87,561.35c3.05-3.78,5.92-7.85,11.34-8.65C1026.38,556.73,1021.96,558.84,1017.87,561.35z"/>
			<path d="M1184.64,162.44c-4.52,2.77-7.77-1.07-11.52-2.25c-0.61-0.19-1.23-0.85-0.83-1.54c0.26-0.45,1.02-0.82,1.57-0.86
				c2.1-0.14,3.72,0.88,5.38,2.13c1.54,1.16,3.51,1.76,5.31,2.59C1184.57,162.5,1184.64,162.44,1184.64,162.44z"/>
			<path d="M1230.02,304.98c0.23,2.71-1.21,5.06-1.71,7.61c-0.15,0.77-0.22,1.77-1.34,1.68c-1.07-0.09-1.25-1.06-1.1-1.85
				c0.53-2.75,0.32-5.45-0.92-8.01c2.33-0.86,3.59,0.87,5.21,0.72C1230.17,305.13,1230.02,304.98,1230.02,304.98z"/>
			<path d="M1050.02,278.09c1.28-3.03,2.83-5.92,4.98-8.42c0.61-0.71,1.48-1.54,2.53-0.7c0.75,0.6,0.76,1.85,0.21,2.23
				c-2.88,1.97-3.53,6.52-7.84,6.77C1049.9,277.96,1050.02,278.09,1050.02,278.09z"/>
			<path d="M1088.88,435.31c2.47-2.75,5.19-5.19,8.81-7.18C1098.71,436.07,1091.57,432.85,1088.88,435.31z"/>
			<path d="M1154.51,179.43c0.58,4.96-4.41,5.02-6.37,8.47C1145.81,180.96,1153.96,183.32,1154.51,179.43z"/>
			<path d="M1196.23,331.54c-1.53-3.78-0.25-7.36-3.62-9.27c-1.1-0.62-0.12-2.14,1.02-2.67c1.4-0.64,2.45,0.24,2.5,1.46
				C1196.25,324.13,1197.57,327.16,1196.23,331.54z"/>
			<path d="M1062.27,799.09c1.19-4.62,1.55-9.34,2.69-13.9C1068.67,790.74,1063.69,794.62,1062.27,799.09z"/>
			<path d="M1218.6,303.21c4.3,3.45,2.24,7.16,0.61,10.88C1219,310.46,1218.8,306.83,1218.6,303.21z"/>
			<path d="M1166.32,325.62c-4.41-0.69-4.47-4.87-6.12-7.77c4.02,1.06,5.61,4.02,6.01,7.89L1166.32,325.62z"/>
			<path d="M1042.32,265.46c1.7,0,5.11,5.88,4.38,7.25c-0.19,0.36-0.73,0.71-1.13,0.74c-1.23,0.09-4.85-6.2-4.2-7.31
				C1041.57,265.79,1042.09,265.62,1042.32,265.46z"/>
			<path d="M1235.64,337.39c1.5,1.47,1.34,2.83,0.8,3.66c-1.04,1.59-2.51,3.89-4.21,3.65c-3.25-0.44-0.54-1.86,0.04-2.84
				c0.34-0.56,0.72-1.1,1.11-1.62C1234.07,339.36,1234.77,338.49,1235.64,337.39z"/>
			<path d="M1032.99,365.81c1.03-3.66,2.98-6.67,6.4-8.56C1037.81,360.49,1036.29,363.76,1032.99,365.81z"/>
			<path d="M1030.36,326.33c-0.49,1.32-0.06,3.41-2.11,3.4c-1.6,0-2.91-1.47-2.55-2.99c0.34-1.45,1.52-3.56,2.63-3.76
				C1029.65,322.74,1030.32,324.76,1030.36,326.33z"/>
			<path d="M1166.21,325.75c0.7,0.39,1.37,0.85,2.11,1.16c1.69,0.71,2.87,1.65,1.94,3.69c-0.64,1.4-1.64,1.96-3.14,1.2
				c-1.64-0.83-2.65-1.86-1.56-3.84c0.38-0.7,0.5-1.54,0.75-2.32C1166.32,325.62,1166.21,325.75,1166.21,325.75z"/>
			<path d="M967.17,824.19c1.62-3.44,4.69-4.45,6.91-6.36C973.15,821.1,971.92,824.06,967.17,824.19z"/>
			<path d="M928.28,574.08c3.73-1.92,6.63-1.8,9.63-0.6C935.18,575.17,932.3,575.18,928.28,574.08z"/>
			<path d="M1065.61,248.95c-0.53,1.64-1.95,2-3.43,1.97c-1.17-0.02-2.56-0.61-2.47-1.84c0.16-2.07,2.21-2.12,3.7-2.32
				C1064.64,246.59,1065.44,247.56,1065.61,248.95z"/>
			<path d="M1062.51,520.47c-0.72,3.97-3.53,5.72-6.73,7c-0.15,0.06-0.49-0.36-0.74-0.56
				C1057.53,524.76,1060.02,522.62,1062.51,520.47z"/>
			<path d="M1056.19,549.51c-2.24,2.72-4.1,5.01-7.01,6.71C1049.88,552.31,1051.53,550.71,1056.19,549.51z"/>
			<path d="M1156.12,322.98c-2.49-0.72-4.94-1.35-5.17-4.16c-0.08-1.03,1.08-1.2,1.89-1.1
				C1156.05,318.11,1155.4,320.98,1156.12,322.98z"/>
			<path d="M1176.89,344.67c0.18-1.05-0.31-2.89,1.21-2.69c1.82,0.25,1.99,2.36,2.3,3.92c0.22,1.14,0.09,2.69-1.38,2.58
				C1176.76,348.32,1177.23,346.16,1176.89,344.67z"/>
			<path d="M1142.88,397.91c-3.23-1.08-5.7-2.84-6.16-7.05C1140.56,392.04,1140.77,395.82,1142.88,397.91z"/>
			<path d="M1036.27,312.39c-1.07-0.11-1.94-0.54-1.88-1.75c0.08-1.59,1.1-2.24,2.61-2.14c1.06,0.07,1.94,0.51,1.88,1.73
				C1038.81,311.82,1037.78,312.44,1036.27,312.39z"/>
			<path d="M1080.32,334.79c3.01-1.32,5.72-3.6,10.29-2.4c-3.7,1.38-6.74,2.51-9.77,3.65
				C1080.67,335.62,1080.5,335.2,1080.32,334.79z"/>
			<path d="M1012.33,307.66c1,0.14,2.62-0.25,2.45,1.03c-0.3,2.25-2.61,2.15-4.29,2.54c-0.93,0.21-2.37,0-2.29-1.22
				C1008.38,307.33,1010.82,308.14,1012.33,307.66z"/>
			<path d="M1139.7,405.64c-1.6,1.59-2.62,4.2-5.42,3.05c-0.73-0.3-0.92-1.41-0.4-2.16C1135.41,404.33,1137.59,405.24,1139.7,405.64
				z"/>
			<path d="M1054.23,1090.6c-3.22,0.25-5.85,3.92-10.18,1.55C1047.7,1090.58,1050.44,1087.99,1054.23,1090.6z"/>
		</g>
	</g>
	<g>
		<g>
			<path class="st0" d="M1035.16,889.19c-1.39,6.15,0.15,12.28,0.2,18.41c0.03,3.52,2.5,3.29,4.48,1.86
				c9.91-7.17,21.23-8.55,33.04-10.1c11.86-1.55,23.4-5.65,33.57-12.9c8.21-5.85,16.65-11.48,25.83-15.82
				c3.56-1.68,6.48-4.16,8.98-7.01c2.06-2.37,2.51-5.4,0.6-8.28c-8.25-12.47-12.46-26.54-16.18-40.79c-0.76-2.91-1.23-5.9-2.87-8.47
				c-3.5-5.47-2.51-12.13-5.14-17.98c-4.06-8.99-9.55-17.13-14.02-25.85c-1.23-2.39-2.93-4.71-2.64-7.42
				c1.1-10.27-4.49-18.55-8.07-27.35c-3.45-8.46-7.8-16.55-11.7-24.83c-0.63-1.34-1.11-2.77-1.45-4.21
				c-0.18-0.77,0.02-1.82,1.07-1.9c0.51-0.04,1.13,0.49,1.59,0.89c0.36,0.32,0.58,0.81,0.79,1.27
				c6.39,14.27,14.31,27.85,19.23,42.77c0.61,1.85,0.66,3.94,0.64,5.92c-0.05,9.62,5.02,16.96,10.53,24.13
				c0.79,1.02,1.13,2.48,2.97,0.96c1.32-1.09,1.48,0.57,1.7,1.4c3.65,14.14,6.9,28.39,11,42.39c3.63,12.4,7.56,24.79,14.62,35.83
				c3.65,5.7,3.55,9.92-1.73,13.97c-3.62,2.77-6.9,6.25-11.51,7.63c-3.47,1.04-3.34,4.18-3.73,6.93
				c-0.78,5.48,1.35,10.74,0.91,16.33c-0.63,8.14-4.01,14.56-10.27,19.14c-7.64,5.59-12.22,13.25-16.99,21.06
				c-10.18,16.64-19.73,33.77-33.61,47.83c-3.74,3.79-5.41,9.23-9.68,12.6c-6.74,5.32-10.04,13.56-16.21,19.23
				c-9.69,8.91-15.49,21.01-25.25,29.84c-3.55,3.21-3.06,6.47-0.09,10.47c8.7,11.77,20.57,16.02,34.54,15.88
				c8.06-0.08,14.92,3.01,20.93,7.96c4.14,3.41,3.81,7.44,0.63,11.74c-5.23,7.06-13,9.54-20.73,11.52
				c-11.08,2.84-22.58,3.41-33.9,4.94c-17.88,2.42-35.49-0.68-53.23-0.48c-5.89,0.06-11.73-1.49-17.78-0.18
				c-3.6,0.78-7.19-1.11-10.41-2.93c-3.48-1.97-3.64-5.14-2.05-8.23c2.69-5.22,4.28-10.31,2.91-16.4
				c-1.88-8.4,2.02-15.72,5.24-23.23c3.12-7.29,3.8-14.92,0.61-22.69c-1.7-4.13-2.13-8.6-0.88-13.19
				c2.35-8.62,4.67-17.26,6.38-26.02c0.74-3.81,0.36-7.98-0.21-11.89c-1.9-12.96-1.62-26.24-5.57-38.9
				c-3.11-9.97-6.14-19.97-10.32-29.57c-5.65-12.96-10.37-26.14-9.47-40.65c0.22-3.57,2.66-6.31,3.04-9.93
				c0.88-8.54,0.13-10.15-8.2-12.37c-1.93-0.51-2.9-1.4-3-3.34c-0.58-11.24-2.19-22.32-4.15-33.41
				c-1.77-10.03-1.35-20.22,4.44-29.38c1.07-1.69,0.77-3.68-0.44-5.19c-3.12-3.91-2.6-8.25-1.13-12.34
				c3.24-9.01-0.41-16.57-5.48-23.1c-6.91-8.9-15.1-16.8-20.26-27.01c-0.52-1.02-1.19-2.1-1.27-3.19
				c-1.29-17.1-7.17-33.07-11.92-49.34c-2.42-8.29-2.43-16.71-0.63-25.2c0.96-4.53,1.28-9.2,1.91-13.8
				c0.34-2.45-1.31-5.96,3.75-5.71c1.67,0.08,1-2.12,0.31-3.22c-1.28-2.03-1.78-4.05,0-5.94c6.91-7.38,3.94-15.98,2.54-24.08
				c-0.76-4.36-1.5-8.5-0.38-12.77c2.52-9.64,3.7-19.65,7.92-28.83c0.21-0.45,0.57-1.03,0.45-1.41c-2.29-6.93,1.37-13.8,0.23-20.64
				c-2.05-12.29-1.77-23.98,4.85-35.23c5.15-8.74,6.39-18.36,2.95-28.36c-2.81-8.18-2.48-16.1,1.71-24.13
				c2.31-4.44,3-9.86,3.75-14.94c1.33-8.95,4.41-17.4,6.73-26.07c2.56-9.56,8.45-17.18,15.01-24.26
				c8.7-9.39,18.41-17.52,29.15-24.61c6.47-4.27,12.64-9.08,18.95-13.65c4.46-3.22,12.36-17.12,9.45-22.89
				c-3-5.94-4.1-12.67-8.06-18.18c-3.39-4.72-3.99-10.5-5.25-15.94c-0.71-3.06-0.12-6.21,3.06-8.36c1.76-1.19,3.49-3.39,2.24-5.58
				c-2.98-5.24-0.74-10.19,0.68-14.95c2.46-8.28,3.46-16.97,6.94-24.95c3.22-7.41,8.11-13.28,16.14-16.18
				c-2.36,2.59-4.42,5.58-7.16,7.67c-5.59,4.26-7.96,9.96-8.76,16.61c-0.52,4.28-1.88,8.45-2.96,12.54
				c-2.57,9.71-2.97,19.3-1.46,29.03c-2.2,0.97-4.06-3.93-5.98-0.11c-1.26,2.5,0.57,8.23,2.64,8.88c4.36,1.36,1.58-3.53,4.05-4.42
				c0.15,8.04,5.69,13.95,7.61,21.46c1.97,7.69,0.22,14.23-2.23,20.83c-1.11,2.99-1.71,6.36-3.98,9.02
				c-2.28,2.67-0.58,3.67,2.22,3.94c1.79,0.17,3.58-0.97,5.37,0c-0.07,0.35-0.12,0.88-0.18,0.88c-12.68,0.37-21.96,8.14-31.28,15.14
				c-11.1,8.34-21.95,17.1-30.79,28.06c-6.47,8.03-10.98,16.81-13.75,26.78c-3.08,11.07-4.17,22.61-7.78,33.45
				c-2.08,6.25-4.4,12.13-3.26,18.8c0.25,1.47,0.3,3.01,0.8,4.39c4.11,11.23,2.47,21.89-3.17,32.12
				c-5.67,10.28-5.85,21.11-3.49,32.25c0.9,4.24,1.81,8.43,4.12,12.2c0.62,1.01,0.88,2.48-0.33,3.14c-1.68,0.92-1.74-0.9-2.23-1.81
				c-0.57-1.05-1.1-2.19-2.58-1.73c-0.96,0.3-1.15,1.34-0.87,2.08c3.47,9.15-3.67,16.55-4.09,25.04c-0.37,7.47-3.9,14.49-3.14,22.14
				c0.16,1.65-0.21,3.49,1.59,4.41c1.95,1,2.98-0.63,4.22-1.72c7.04-6.16,15.03-10.37,24.48-11.01c2.94-0.2,5.79-2.69,10.1-0.08
				c-5.4,1.35-9.71,2.94-14.14,3.38c-4.23,0.42-7.44,2.29-10.82,4.48c-3.44,2.23-6.01,5.67-10.24,6.86
				c-1.98,0.56-3.81,8.01-2.51,9.42c1.24,1.35,2.68,0.76,4.04-0.13c1.94-1.28,3.28-3.59,6.53-3.93c-1.63,4.07-5,5.36-7.83,7
				c-3.16,1.83-5.16,4.68-7.38,7.3c-1.11,1.31-2.05,3.56-0.51,5.02c1.7,1.6,2.77-0.74,4.13-1.45c14.22-7.41,27.75-16.33,44.1-18.9
				c5.02-0.79,9.87-2.65,15.13-2.12c-0.05,2.27-1.6,2.55-2.79,2.55c-4.92,0.01-9.46,1.9-14.21,2.61c-8.51,1.27-10.27,5.32-9.28,13.6
				c1.14,9.62,4.9,18.54,8.84,27.34c1.99,4.46,3.74,9.03,6.14,14.85c-3.71-2.21-4.86-4.61-5.78-6.93
				c-4.97-12.53-13.09-24.06-12.42-38.44c0.14-3-1.69-3.85-4.29-2.77c-9.88,4.1-19.99,7.81-28.2,15.04
				c-2.93,2.58-5.07,5.78-5.95,9.58c-3.41,14.89-3.12,29.69,2.39,44.04c4.15,10.81,5.78,22.09,7.59,33.39
				c0.74,4.61,2.2,8.79,4.89,12.84c8.65,12.97,18.92,24.42,30.53,34.76c1.5,1.34,3.35,2.86,2.71,5.82
				c-3.01-0.66-3.72-4.87-8.04-4.52c3.76,11.9,11.71,18.32,23.7,20.64c-4.06,2.55-10.57,1.26-15.06-2.78
				c-2.35-2.11-4.57-4.39-6.73-6.69c-2.08-2.21-3.32-1.63-4.24,0.97c-1.14,3.22-0.31,6.22,0.83,9.23c2.46,6.49,5.45,12.72,8.9,18.74
				c0.49,0.86,1.1,1.73,0.19,2.82c-2.9-1.84-3.92-5.2-6.18-7.52c-0.78-0.8-1.43-2.1-2.84-1.44c-1.19,0.55-1.58,1.84-1.43,2.99
				c1.82,13.51,3.07,27.07,15.21,36.56c4.31,3.37,9.44,7.18,9.12,14.06c-0.03,0.62,0.78,1.56,1.43,1.89c7.16,3.65,14.37,7.3,22.8,5
				c6.17-1.68,12.86-0.62,18.73-4.27c5.17-3.21,7.63-9.93,6.2-15.76c-1.46-5.94-5.19-11.2-4.92-17.68c0.07-1.58,0.65-4.43-2.89-4.73
				c-1.44-0.12-0.45-1.95,0.07-2.9c1.6-2.91,3.26-5.79,4.93-8.67c0.68-1.18,1.4-2.31-0.06-4c-4.37,5.42-9.36,10.2-14.69,14.47
				c-5.2,4.17-10.8,8.02-18,9.8c1.92-3.25,4.98-3.84,7.42-5.39c10.48-6.67,19.73-14.55,25.44-25.99c3.58-7.17,2.22-11.1-5.42-12.71
				c-8.72-1.83-17.28-4.33-26.36-4.59c-7.54-0.22-14.52-3.41-21.18-6.93c-1.62-0.86-3.69-2.08-2.43-4.16
				c1.25-2.07,3.01-0.1,4.31,0.58c9.59,5,19.73,7.29,30.52,8.54c8.38,0.97,16.94,3.14,24.69,7.18c1.5,0.78,2.68,1.97,1.9,3.54
				c-1.89,3.79,0.89,6.4,2.7,8.41c7.78,8.65,13.13,19.15,20.91,27.59c4.03,4.37,5.93,8.41,5.93,13.87c0,1.06,0.4,2.38-1.68,3.3
				c-1.33-7.47-5.2-13.7-10.15-18.92c-5.76-6.07-10.34-12.85-14.84-19.79c-1.44-2.22-3.18-2.44-4.63,0
				c-5.14,8.65-3.65,17.98-1.98,27.02c0.59,3.19,2.84,6.32,3.65,9.7c1.59,6.62,0.16,12.55-4.85,17.35c-2.12,2.03-2.21,3.71-0.84,6.5
				c7.59,15.46,6.57,31.68,2.8,47.77c-1.47,6.25-1.6,12.5-2.23,18.73c-0.87,8.63-2.61,17.05-4.23,25.54
				c-2.4,12.56-0.69,25.16,0.14,37.79c0.45,6.9,4.19,12.83,4.36,19.65c0.02,0.84,0.19,1.79,1.22,1.88c1.42,0.12,1.94-1.1,2.53-2.08
				c5.31-8.93,8.26-18.75,10.68-28.74c2.39-9.82,5-19.55,9.06-28.84c0.26-0.59,0.61-1.44,1.1-1.58c7.11-2.14,8.22-9.52,12.5-14.1
				c2.89-3.1,6.23-5.8,9.41-8.63c1.11-0.99,2.43-1.74,3.49-2.78c0.78-0.76,2.09-1.51,1.55-2.86c-0.56-1.41-1.93-0.96-3.07-0.85
				c-3.26,0.3-4.12-1.8-4.03-4.38c0.35-10.07-3.93-18.94-6.77-28.25c-1.86-6.11-1.95-12.78-2.6-19.22
				c-0.86-8.43-1.47-16.89-2.23-25.33c-0.13-1.43-0.35-2.85,1.72-2.73c1.71,0.1,1.91,1.15,1.87,2.78
				c-0.23,9.78,0.81,19.49,2.01,29.17c0.57,4.61,1.68,9.12,1.51,13.86c-0.19,5.19,3.11,9.11,7.52,9.74L1035.16,889.19z
				 M966.12,999.93c-2.48-4.14-4.18-3.77-8.07,2.23c3.04-0.88,5.62-1.62,8.21-2.37c0.43,3.48,3.95,4.6,5.61,7.17
				c0.53,0.81,2.16,0.87,3.22,0.05c0.61-0.47,0.65-1.32,0.1-1.74c-3.34-2.52-1.75-4.79,0.22-7.1c1.05-1.23,0.99-2.43-0.33-3.44
				c-1.92-1.46-3.93-1.7-6.03-0.37c-0.86,0.54-1.92,1.17-0.85,2.26C972.39,1000.83,967.31,999.13,966.12,999.93z M1106.22,897.06
				c-7.16,1.51-13.97-0.13-20.25,2.58c-6.05,2.61-12.52,2.82-19.02,3.29c-6.58,0.48-13.21,1.72-19.07,5.24
				c-1.41,0.85-3.27,1.68-3.09,3.55c0.2,2.09,2.36,2.09,3.92,2.37c10.18,1.84,20.16,4.35,29.06,9.82
				c5.61,3.45,11.01,7.26,16.35,11.12c2.04,1.47,2.68,1.09,4.12-0.91c5.66-7.89,10.34-16.66,19.04-21.99c1.77-1.08,2.87-3.04,4-4.95
				c4.27-7.17,2.96-14.8,2.41-22.39c-0.31-4.23-2.3-5.02-5.91-2.56c-4.24,2.89-8.51,5.73-12.72,8.66c-1.29,0.9-3.62,0.9-3.64,2.96
				C1101.42,896.45,1104.25,895.5,1106.22,897.06z M1035.6,969.59c-1.83,0.93-3.17,0.02-4.6-0.28c-6.32-1.33-12.65-2.69-19.15-2.56
				c-1.59,0.03-3.67,0.28-3.88,2.37c-0.19,1.85,1.63,1.88,2.9,1.83c13.63-0.52,25.41,5.68,37.63,10.27
				c0.93,0.35,2.25,0.52,1.66,1.82c-0.5,1.11-1.68,0.32-2.63,0.26c-4.77-0.27-8.27-3.79-12.67-4.85c-5.8-1.39-11.69-2.42-17.51-3.7
				c-1.42-0.31-3.49-1.51-3.9,0.21c-0.48,2.07,1.69,3.9,3.62,3.83c6.61-0.23,12.1,3.39,18.21,4.8c1.11,0.26,2.79,0.26,2.73,2.43
				c-2.31,0.54-6.1-0.11-3.59,4.57c0.62,1.16-1.54,0.91-2.59,0.45c-4.86-2.13-10.07-2.76-15.7-4.09c3.35,4.76,9.07,4.94,12.1,9.15
				c-8.6-2.24-17.07-4.66-25.78-6.42c-0.16,1.82,0.73,2.03,1.5,2.24c9.18,2.52,18.33,5.08,26.08,11.01
				c1.15,0.88,3.15,0.52,3.58-0.63c1.09-2.94,6.41-5.11,5.19-6.34c-3.91-3.97,0.25-5.65,1.18-8.19c1.05-2.89,3.11-3.19,5.6-1.83
				c3.04,1.66,6.08,3.34,9.09,5.05c1.06,0.6,2.08,1.12,3.2,0.2c0.57-0.47,0.9-1.48,0.43-1.73c-3.82-2.04-4.38-5.86-5.48-9.43
				c-0.17-0.54-0.89-1.19-1.43-1.28c-3.52-0.57-5.82-3.88-9.54-4.05c-1.51-0.07-3.27-1.04-2.72-2.82c0.55-1.78,2.23-0.66,3.4-0.28
				c1.63,0.53,3.18,0.5,3.66-1.34c0.47-1.78-1.23-2.07-2.47-2.48c-4.72-1.57-9.41-3.23-14.18-4.62c-2.05-0.6-4.33-0.96-7.27,1.3
				C1027.67,965.23,1032.06,965.97,1035.6,969.59z M957.53,1045.62c-0.36-3.82-1.98-5.58-5.63-4.9c-3.77,0.7-4.67,2.79-3.95,6.46
				c0.95,4.8,4.61,8.79,3.8,14.17c-0.23,1.51,1.87,1.03,2.71,0.34c2.43-2,5.22-3.81,6.56-6.73c3.27-7.09,8.57-12.77,12.82-19.17
				c5.65-8.53,5.19-14.38-2.87-19.71c-3.14-2.08-6.1-0.05-8.93,0.45c-1.94,0.34-1.37,3.41-1.28,5.37c0.08,1.65,0.41,3.28,0.57,4.93
				c0.28,2.87,3.54,6.33-1.57,8.21c-0.26,0.09-0.51,1.14-0.33,1.34C962.9,1040.23,958.19,1042.28,957.53,1045.62z M1061.54,1098.64
				c-0.25-1.97-1.43-2-2.23-2.51c-1.2-0.76-3.25-1.41-2.43-3.11c0.75-1.55,2.76-1.09,3.94-0.13c2.53,2.06,3.86-0.45,5.66-1.2
				c1.24-0.51,2.61-0.89,2.52-2.63c-0.04-0.68-0.34-1.32-1.12-1.43c-1.42-0.2-2.05,0.87-2.72,1.8c-1.06,1.49-2.5,2.79-4.05,1.27
				c-1.55-1.53,1.01-2.42,1.28-3.71c0.49-2.28,3.87-3.05,3.04-5.89c-0.71-2.42-8.35-5.97-10.94-5.21
				c-5.97,1.75-11.32,5.39-17.95,5.29c-2.96-0.05-3.55,3.25-3.32,5.32c0.29,2.58,2.74,1.37,4.44,1.18
				c6.12-0.68,11.17-4.6,17.17-5.71c1.05-0.19,2.3-1.62,3.05-0.36c1.07,1.81-1.18,1.9-2.06,2.63c-0.62,0.51-1.46,1.06-2.21,1.08
				c-6.94,0.15-10.87,7.17-18.03,7.51c2.65,0.65,4.01,2.33,5.48,3.89c3.54,3.75,7.33,6.84,13.01,4.68
				C1056.54,1100.49,1059,1099.59,1061.54,1098.64z M915.19,817.59c3.41,8.67,0.69,17.72,2.89,26.28c0.56,2.17,0.72,4.31,3.11,5.22
				c2.72,1.04,4.04-1.06,5.27-2.73c1.93-2.63,4.11-3.78,7.28-2.38c1.54,0.68,3.43,1.55,4.47-0.28c1.06-1.87-0.89-2.9-2.08-3.99
				C928.7,832.94,920.16,827.21,915.19,817.59z M1031.96,1082.62c-1.81-1.88-3.02-1.69-4.12-1.43c-14.85,3.59-29.73,1.43-44.5-0.21
				c-8-0.89-15.85-1.27-23.78-0.26c-1.25,0.16-3.14-0.26-3.44,2.94c14.63-1.75,28.57,3.55,43.03,2.68c0.99-0.06,2.08-0.25,2.97,0.06
				C1012.57,1090.09,1021.87,1086,1031.96,1082.62z M945.62,1031.69c0.04,3.83,0.64,7.36,1.47,7.58c2.46,0.66,3.97-1.03,5.57-2.47
				c0.2-0.18,0.63-0.13,0.95-0.12c5.01,0.08,5.71-2.86,4.85-6.9c-0.38-1.78-1.05-3.54-1.13-5.34c-0.17-3.88-0.99-5.59-4.33-1.86
				c-0.6,0.67-1.4,1-2.16,0.28c-0.56-0.53-0.48-1.41,0.1-1.74c5.65-3.17,9.66-9.36,17.08-9.27c1.19,0.02,2.95,1.14,3.33-0.78
				c0.28-1.43-1.46-2.03-2.51-2.75c-1.44-0.99-3.02-1.01-4.76-0.74C955.02,1008.96,945.51,1021.29,945.62,1031.69z M947.51,1052.8
				c-2.28,2.6-1.37,6.51-3.69,9c-4.79,5.16-2.89,11.59-3.31,17.57c-0.07,0.95,0.26,2.11,1.45,2.33c1.49,0.28,2.07-0.96,2.45-2.01
				c1.27-3.5,3.51-6.39,5.71-9.3c1.17-1.55,2.03-3.52,0.99-5.1c-1.63-2.47-1.21-5.05-1.44-7.65
				C949.52,1055.93,949.74,1053.93,947.51,1052.8z M1021.03,1018.7c-3.15,1.89-4.84,1.9-6.41,0.48c-1.63-1.47-3.63-1.54-5.64-1.47
				c-0.61,0.02-1.42,0.2-1.4,1.06c0.01,0.4,0.4,1.12,0.66,1.14c3.88,0.27,7.01,2.61,10.57,3.71c1.7,0.52,2.67-0.67,3.07-2.43
				c0.46-2.04,2.51-2.42,3.37-1.17c2.54,3.69,4.67,2.59,7.47,0.43c1.11-0.86,2.85-0.89,2.99-2.79c0.08-1.13-0.43-1.94-1.47-2.34
				c-1.94-0.75-3.58-0.48-4.68,1.5c-0.76,1.37-1.92,2.05-3.26,0.93c-3.35-2.82-7.67-3.06-11.54-4.44c-4.03-1.44-8.27-2.3-12.41-3.42
				c-0.17,0.5-0.34,1-0.5,1.5C1008.45,1012.48,1013.13,1017.6,1021.03,1018.7z M991.84,1025.7c-1.86-0.15-3.51-0.39-5.17-0.4
				c-1.56,0-3.86-0.46-3.79,1.91c0.06,1.95,2.16,1.6,3.61,1.54c3.15-0.13,6.32-0.35,9.38,0.54c7.86,2.29,15.65,4.83,23.96,5.01
				c1.5,0.03,3.07,0.35,4.14-1.02c0.72-0.92,0.39-1.92-0.41-2.66c-1.24-1.14-2.73-1.35-4.12-0.45c-2.25,1.44-4.21,0.61-6.55,0.02
				C1005.87,1028.42,999.17,1025.01,991.84,1025.7z M933.73,847.43c-4.66-0.21-7.2,2.34-5.97,6.01c1.15,3.42,3.43,5.74,7.06,4.39
				c3.22-1.2,8.2-1.92,8.34-5.76c0.12-3.06-4.52-3.5-7.47-4.33C935.06,847.56,934.39,847.52,933.73,847.43z M983.54,996.63
				c-0.66-2.73-2.37-5.27-4.11-7.61c-1.91-2.55-5.14-3.58-8.06-4.66c-2.45-0.91-3.38,1.22-4.54,2.86c-0.38,0.54-1.53,0.5-2.29,0.8
				c-1.26,0.49-2.74,1.1-2.23,2.74c0.46,1.49,2.04,1.61,3.38,1.42c5.77-0.81,11.26-1,14.56,5.2c0.29,0.54,1.39,0.83,2.15,0.89
				C983.11,998.34,983.43,997.61,983.54,996.63z M947.44,1085.67c-1.59,0.35-4.73-0.11-4.3,1.94c0.65,3.05-1.9,3.46-2.6,5.17
				c-1.15,2.81-2.49,5.93-2.27,8.8c0.18,2.37,3.38,2.75,5.77,2.89c1.53,0.09,3.84,1.39,4.22-0.93c0.4-2.39-2.16-1.81-3.66-2.1
				c-1.45-0.28-4.01,0.17-2.38-2.54c1.96-3.28,4.31-6.33,6.64-9.37c0.7-0.91,2.96-0.72,2.2-2.63
				C950.48,1085.42,948.82,1085.82,947.44,1085.67z M973.46,1045.57c10.09,2.89,19.95,5.74,29.84,8.52c0.72,0.2,1.77,0.14,2.01-0.91
				c0.24-1.07-0.82-1.21-1.43-1.71c-7.51-6.15-17.32-4.72-25.79-7.73C976.92,1043.32,974.8,1043.53,973.46,1045.57z M962.07,891.95
				c-0.49,0.06-1,0.07-1.48,0.17c-7.47,1.57-13.57,6.42-20.78,8.69c-2.03,0.64-0.71,3.1-0.36,4.45c0.49,1.87,1.87,0.35,2.77-0.02
				c1.52-0.64,3.11-1.29,4.42-2.28c5.06-3.8,10.33-7.09,16.67-8.29c0.81-0.15,1.81-0.59,1.64-1.52
				C964.64,891.54,963.12,892.16,962.07,891.95z M1032.01,1011.03c0.43,0.67,0.59,1.26,0.96,1.45c2.79,1.39,5.55,4.12,8.42-0.05
				c1.49-2.16,3.27-4.13,5.09-6.03c1.09-1.14,2.37-2.18,1.06-3.73c-1.29-1.52-3.02-2.62-5.08-2.76c-0.92-0.06-1.68,0.81-1.05,1.65
				c3.72,4.98-0.25,5.22-3.57,6.19C1035.72,1008.37,1033.63,1009.32,1032.01,1011.03z M1051.64,973.03
				c-1.4-0.02-2.42,0.03-2.87,1.16c-0.29,0.71,0.12,1.21,0.68,1.65c3.89,3.03,8,5.72,12.49,7.73c1.3,0.58,3.65,0.66,3.26-1.34
				c-0.61-3.08-4.48-4.51-5.01-7.92C1056.82,976.64,1054.13,974.18,1051.64,973.03z M1050.6,965.69c-0.22-0.45-0.4-0.91-0.66-1.33
				c-1.39-2.28-13.45-7.55-16.05-6.95c-0.55,0.13-1.31,0.62-1.42,1.08c-0.23,0.92,0.55,1.42,1.35,1.77c4.8,2.13,9.86,3.7,14.18,6.85
				C1049.46,968.18,1050.46,967.55,1050.6,965.69z M979.81,1014.47c-2.14-0.23-2.06-2.91-3.98-2.36c-0.51,0.14-1.24,0.91-1.21,1.33
				c0.22,2.81,2.18,5.12,3.99,6.51c2.31,1.77,1.91-1.41,2.48-2.65c0.59-1.29,1.74-0.43,2.6-0.67c2.31-0.62,2.15-2.65,2.28-4.42
				c0.07-1.01-0.23-2.14-1.3-2.45c-1.99-0.57-2.99,0.95-3.91,2.31C980.32,1012.73,980.15,1013.57,979.81,1014.47z M987.57,1038.32
				c-0.15,0.02-1.12-0.14-1.75,0.25c-1.83,1.14-5.66-0.7-5.58,1.58c0.11,3.19,3.64-0.29,5.29,1.16c0.11,0.1,0.31,0.15,0.47,0.14
				c4.76-0.26,8.96,1.79,13.33,3.16c1.27,0.4,2.93,0.47,3.24-1.23c0.26-1.42-1.23-1.74-2.35-2.01
				C996.22,1040.39,992.21,1039.44,987.57,1038.32z M1072.24,973.42c0.06-1.72-0.85-2.58-2.13-3.23c-3.39-1.73-6.73-3.56-10.16-5.22
				c-0.95-0.46-2.39-1.36-3.12-0.01c-0.72,1.34,0.25,2.53,1.5,3.27c3.56,2.12,7.14,4.21,10.69,6.35
				C1070.75,975.61,1071.81,975.25,1072.24,973.42z M1006.09,1005.91c2.67,1.2,5.1,2.52,7.6,3.77c2.79,1.39,5.9,2.2,8.91,3.11
				c0.96,0.29,2.04-0.09,2.48-1.17c0.13-0.33-0.1-1.12-0.37-1.25C1018.81,1007.62,1012.85,1005.08,1006.09,1005.91z M939.86,866.48
				c-0.2-2.09-1.43-2.13-2.82-1.44c-2.31,1.14-4.6,2.76-4.86,5.34c-0.28,2.77-6.35,4.01-2.84,6.5c2.87,2.04,4.03-3.34,6.35-4.98
				C937.48,870.63,939.06,868.7,939.86,866.48z M971.85,928.05c-3.6-0.48-6.31,1.49-9.12,3.17c-0.72,0.43-1.54,0.82-1.21,1.84
				c0.32,0.99,1.45,1.22,2.03,0.85c3.57-2.22,7.59-1.99,11.51-2.35c0.84-0.08,1.65-0.43,1.74-1.42c0.09-1.03-0.73-1.46-1.53-1.64
				C974.15,928.24,972.99,928.18,971.85,928.05z M984.49,1054.13c-5.23-3.61-12.53-3.53-17.06,0.07
				C973.14,1054.61,978.25,1055.05,984.49,1054.13z M950.62,957.42c1.46-4.25,2.38-8.42,6.69-10.38c0.85-0.39,1.43-1.61,0.32-2.46
				c-0.88-0.68-2.03-0.44-2.73,0.33c-2,2.18-4.09,4.33-5.71,6.77C948.08,953.34,947.84,955.46,950.62,957.42z M984.16,1059.34
				c-1.53,0.04-3.61-0.63-3.78,1.36c-0.19,2.28,2.24,1.85,3.68,2.35c1.08,0.38,2.17,0.76,3.25,1.14c2.23,0.79,4.13,0.13,3.25-2.31
				C989.58,1059.17,986.33,1059.99,984.16,1059.34z M1049.59,940.14c3.3,3.39,7.91,3.55,10.76,6.62c0.24,0.26,1.28,0.05,1.78-0.24
				c0.7-0.39,0.46-1.07,0.1-1.69C1060.83,942.41,1053.34,939.39,1049.59,940.14z M1016.28,1040.35c-1.56-2.85-4.68-1.54-6.99-2.36
				c-0.97-0.34-2.46,0.24-2.1,1.32c0.86,2.58,3.31,4.17,5.57,4.91C1014.2,1044.7,1015.72,1042.51,1016.28,1040.35z M1016.52,1089.75
				c4.91,2.28,8.7,1.39,12.43,0.71c0.95-0.17,1.81-0.94,1.47-2.15c-0.28-0.98-1.21-1.07-2.01-0.92
				C1024.84,1088.06,1021.29,1088.79,1016.52,1089.75z M969.23,882.14c1.56-0.75,5.3,1.18,5.24-2.05c-0.05-2.63-3.53-1.11-5.47-1.48
				c-0.48-0.09-1-0.06-1.49,0c-1.56,0.18-4-0.43-4.08,1.69c-0.08,2.25,2.4,1.6,3.92,1.83C967.84,882.2,968.35,882.14,969.23,882.14z
				 M1073.7,969.34c0.6-0.38,1.13-0.53,1.34-0.88c0.83-1.41,3.46-2.51,1.76-4.45c-1.43-1.63-3.55-2.81-5.57-3.72
				c-1.1-0.49-1.99,1.17-1.1,1.71C1072.88,963.7,1072.21,966.96,1073.7,969.34z M1033.86,945.77c3.82,1.64,6.75,2.96,9.74,4.13
				c0.88,0.34,2.09,0.41,2.62-0.66c0.2-0.41-0.28-1.66-0.48-1.67C1042,947.41,1039.1,942.86,1033.86,945.77z M962.04,869.98
				c4.4,1.71,7.1-1.55,10.33-1.19c1.07,0.12,2.53-0.5,2.15-2.04c-0.36-1.46-1.92-1.37-2.9-1
				C968.66,866.9,965.79,868.3,962.04,869.98z M1045.84,990.57c2.25,1.88,4.47,3.79,6.75,5.62c0.67,0.54,1.55,0.69,2.25,0.01
				c0.78-0.75,0.29-1.54-0.16-2.22C1052.64,990.86,1049.36,990.36,1045.84,990.57z M975.45,919.61c-3.12-2.42-6.27-1.53-9.28-1.29
				c-0.46,0.04-1.18,0.86-1.18,1.32c0,0.46,0.74,1.3,1.18,1.32C969.18,921.08,972.32,921.74,975.45,919.61z M1086.72,950.55
				c1.99-0.86,2.99-2.75,3.55-4.79c0.22-0.78-0.93-1.77-1.63-1.28c-1.7,1.18-4.33,1.55-4.92,3.71
				C1083.34,949.58,1085.13,950.18,1086.72,950.55z M1051.33,998.01c-1.96-1.66-3.83-3.65-6.5-4.6c-0.94-0.33-1.87,0.07-1.75,1
				c0.46,3.34,3.64,3.84,5.93,5.18C1049.91,1000.12,1050.91,999.54,1051.33,998.01z M967.96,899.98c1.68-0.29,4.63,0.98,4.7-1.05
				c0.09-2.5-3-1.53-4.72-1.67c-1.59-0.13-4.36-0.75-4.17,1.77C963.93,901,966.53,899.57,967.96,899.98z M949.92,939.73
				c-1.88,1.33-3.4,3.19-3.83,5.78c-0.14,0.88,0.56,2.08,1.24,1.8c2.39-1,3.8-3.09,4.51-5.52
				C952.14,940.75,951.57,939.83,949.92,939.73z M1042.25,953.46c1.68,2.08,3.07,4.32,5.68,4.77c1.08,0.19,2.61,0.98,3.13-0.33
				c0.63-1.59-1-2.34-2.2-2.74C1046.71,954.45,1044.46,954.01,1042.25,953.46z M991.39,1035.07c4.26,0.97,7.64,1.75,11.03,2.52
				C999.64,1033.8,996.38,1032.49,991.39,1035.07z M996.64,1005.21c1.57,0.03,2.62-0.62,2.6-2.23c-0.01-1.45-0.12-3.25-1.99-3.37
				c-1.72-0.11-2.43,1.43-2.68,2.95C994.32,1004.12,995.08,1005.03,996.64,1005.21z M1027.8,948.37c-2.8-0.26-5.11-1.92-7.74-0.61
				c-0.21,0.11-0.31,1.12-0.12,1.26c2.35,1.75,4.91,1.03,7.44,0.51C1027.46,949.52,1027.49,949.26,1027.8,948.37z M957.63,954.78
				c1.3-0.93,2.24-1.57,3.15-2.25c0.91-0.68,3.24-0.68,1.98-2.53c-0.95-1.4-2.49-0.31-3.41,0.64
				C958.43,951.59,956.61,952.18,957.63,954.78z M1067.07,929.76c2.48,1.63,4.24,2.88,6.11,3.95c0.4,0.23,1.32,0.01,1.73-0.34
				c0.6-0.5,0.34-1.39-0.35-1.51C1072.28,931.46,1070.61,929.08,1067.07,929.76z"/>
			<path class="st0" d="M1116.11,768.19c-3.27-5-3.41-9.78-4.86-14c-3.17-9.25-4.46-19.01-6.02-28.71
				c-1.42-8.85-5.58-17.05-8.52-25.54c-3.69-10.68-8.55-20.87-12.4-31.47c-1.39-3.82-3.12-7.12-5.98-10.13
				c-3.98-4.19-7.57-8.82-10.84-13.59c-11.29-16.45-26.59-26.79-46.22-30.2c-10.13-1.76-20.43-2.37-30.42-5.11
				c-2.37-0.65-5.54-1.76-7.09,1.56c-1.4,3,1.94,3.78,3.16,5.55c3.34,4.82,8.57,7.7,12.41,12.03c0.92,1.04,2.03,2.19,0.69,3.39
				c-1.3,1.16-1.92-0.43-2.72-1.18c-5.58-5.23-11.24-10.41-15.91-16.49c-3.62-4.73-8.9-5.02-13.88-5.15
				c-9.54-0.26-18.69-2.95-28.15-3.7c-4.93-0.39-9.87-0.71-15.44-0.79c1.65-2.69,3.84-2.76,5.87-2.67c8.96,0.38,17.94,0.7,26.6,3.47
				c1.55,0.5,3.29,0.63,4.93,0.58c10.76-0.27,21.51,0.95,32.16,1.7c13.82,0.98,27.84,2.34,41.32,6.46
				c9.91,3.03,17.48,10.22,26.68,14.49c1.91,0.88,1.99,3.38,3.07,5.03c0.55,0.84,1.23,1.72,2.4,1.36c1.26-0.38,1.08-1.53,0.98-2.51
				c-0.35-3.4-1.38-6.51-4.01-8.9c-3.93-3.59-8.05-6.93-12.7-9.56c-1.48-0.84-2.85-1.69-3.41-3.82c4.71-0.17,6.96,5.37,11.96,4.51
				c0.14-2.17-1.04-3.93-2.89-5.05c-5.26-3.2-10.48-6.6-16.45-8.27c-1.44-0.4-4.32-3.48-5.23,0.99c-0.02,0.11-1.28,0.2-1.78-0.06
				c-14.19-7.27-29.82-9.38-45.13-12.69c-5.76-1.24-11.46-1.19-17.34-1.05c-7.07,0.17-14.18-1.23-22.02-2.03
				c2.3-2.12,4.51-1.88,6.51-1.84c17.93,0.41,35.9,0.6,53.24,6.18c2.37,0.76,4.37,2.49,7,2.54c0.98,0.02,2.12,0.35,2.52-0.92
				c0.31-1-0.54-1.41-1.29-1.81c-5.81-3.04-11.62-6.1-17.45-9.17c0.57-1.93,1.72-1.1,2.71-0.62c7.07,3.45,14.17,6.83,21.16,10.42
				c6.75,3.47,13.75,6.39,20.94,8.71c4.68,1.51,8.82,3.76,12.84,6.4c1.37,0.9,2.73,2.15,4.54,1.25c1.29-0.64,1.38-1.89,0.8-3.01
				c-0.87-1.67-1.02-4.61-3.53-4.19c-3.83,0.63-6.4-1.52-9.19-3.15c-6.19-3.64-13.56-4.06-19.75-8.03
				c-9.76-6.26-19.94-11.98-31.22-15.16c-16.83-4.75-33.84-6.78-51.14-2.6c-1.29,0.31-2.62,0.51-4.76-0.56
				c5.14-1.44,9.54-3.31,14.09-3.81c7.27-0.8,15-1.86,21.85,0.4c9.84,3.24,18.64,0.44,27.77-1.82c1.58-0.39,3.06-1.4,5.34-0.34
				c-2.9,1.95-5.75,3.16-8.75,4.1c-0.77,0.24-1.77,0.51-1.67,1.53c0.05,0.5,0.67,1.23,1.16,1.35c12.47,3.11,22.13,11.7,33.54,17.66
				c0.25-7.14-7.77-7.42-9.59-12.9c3.11-0.5,4.81,1.58,6.15,3.08c6.64,7.46,15.62,11.66,23.46,17.44c1.73,1.27,3.44,1.46,4.66-0.63
				c10.59-18.04,20.69-36.26,18.18-58.36c-0.58-5.13,2.17-9.38,3.61-13.85c3.17-9.86,5.58-20.32,3.37-29.92
				c-2.15-9.38,1.66-15.51,6.02-21.8c4.59-6.62,5.05-14.12,6.8-21.4c1.72-7.15,2.47-14.33,1.85-21.69
				c-0.32-3.84,3.59-4.31,5.78-5.22c8.89-3.69,17.26-8.15,25.01-15.13c-1.2,4.53-5.11,8.79-10.31,11.33
				c-4.63,2.26-8.78,5.41-13.74,7.09c-3.49,1.19-4.01,4.39-3.63,7.45c1.19,9.48-0.74,18.49-3.27,27.54
				c-1.62,5.8-5.63,10.13-8.41,15.19c-2.27,4.14-2.52,8.17-2.26,12.46c0.86,14.5-0.87,28.57-6.53,42.05
				c-0.73,1.74-0.92,3.6-0.62,5.41c2.87,17.21-4.49,31.91-11.71,46.52c-3.23,6.53-6.49,12.76-4.22,20.32c0.61,2.04,0.15,4-1.12,5.69
				c-2.39,3.17-1.87,6.25,0.27,9.21c4.12,5.7,7.19,11.58,4.64,18.92c-0.82,2.37,0.68,4.12,2,5.87c1.81,2.38,3.32,5.03,5.35,7.2
				c11.34,12.11,14.68,27.88,20.1,42.76c2.38,6.52,5.26,12.88,7.76,19.39c3.41,8.88,3.27,18.33,5.22,27.43
				c1.22,5.71,2.39,11.34,4.71,16.73C1116.93,761.11,1116.83,764.02,1116.11,768.19z"/>
			<path class="st0" d="M1063.69,264.5c0.33,0.04,0.67,0.03,0.99,0.12c2.71,0.8,1.92,6.24,3.05,5.09c2.68-2.72,6.11-5.53,6.72-9.9
				c0.49-3.46,1.03-6.91,1.52-10.37c0.25-1.76,0.29-3.59,1.9-5.49c2.08,5.28,1.39,10.14,0.55,15.01c-0.54,3.15-0.98,5.81,2.68,8.06
				c2.71,1.67,3.18,4.68,2.16,8.7c-1.89,7.49-5.71,14.67-3.62,23.18c1.18,4.79,1.12,10.8-4.5,14.21c-0.27,0.17-0.68,0.51-0.65,0.72
				c0.68,4.48-3.01,7.31-4.55,11.28c-6.34-4.85-1.73-14.52-8.33-19.34c2.05,5.5,2.18,11.15,1.98,16.85
				c-0.03,0.97,0.59,2.25-0.33,2.82c-2.03,1.26-2.87,2.67-1.51,4.87c1.79,2.89,3.66-0.25,5.36-0.23c0.68,1.51-0.33,2.08-0.91,2.83
				c-0.86,1.11-1.51,2.33-0.55,3.62c0.85,1.13,2.09,0.72,3.23,0.42c1.96-0.51,3.9-0.88,7.06,1.55
				c-15.51,2.1-22.21,13.33-29.25,24.41c0.07-4.3,2.2-7.69,4.59-10.82c1.54-2.01,2.8-4.09,3.83-6.36c0.46-1.01,1.89-2.05,0.9-3.05
				c-1.05-1.06-3.12-1.32-4.23-0.52c-7.71,5.5-15.74,2.49-23.92,1.75c-4.93-0.45-8.61-2.33-12.42-4.81
				c-0.81-0.53-2.2-0.72-1.67-1.96c0.61-1.45,2.23-1.07,2.96-0.34c4.05,4.01,9.6,3.34,14.45,4.74c2.28,0.66,5.69,1.51,5.48-3.13
				c-0.04-0.93,0.63-1.52,1.63-1.42c1.25,0.13,1.62,1.09,1.63,2.13c0.04,3.3,2.14,3.97,4.72,3.43c1.95-0.41,4.26-1.2,1.98-3.97
				c-0.93-1.13-0.84-2.48-0.92-3.8c-0.05-0.81-0.29-1.73,0.66-2.19c0.92-0.45,1.55,0.28,2.19,0.78c1.31,1.02,2.68,1.99,3.89,3.12
				c1.16,1.09,2.23,2.26,3.7,0.57c0.79-0.91,3.04-1.28,2.08-2.86c-0.95-1.56-0.81-4.11-3.36-4.51c-3.61-0.57-5.25-3.4-3.67-7.16
				c1.54-3.65,2.87-6.79,1.98-11.24c-0.48-2.42,3.71-5.7,5.65-8.68c2.72-4.2,5.88-8.28,5.2-13.76c-0.18-1.44,0.32-2.3,1.75-2.42
				c3.56-0.3,3.69-2.82,3.49-5.43c-0.11-1.39,0.46-3.58-1.35-3.86c-2.35-0.37-1.44,2.04-1.84,3.28c-0.28,0.85-0.72,1.75-1.58,1.66
				c-1.4-0.14-1.19-1.35-0.98-2.33c1.08-5.1,0.33-10.23,0.24-15.34L1063.69,264.5z"/>
			<path class="st0" d="M1184.57,162.5c4.02,0,5.15,3.76,7.54,5.86c1.22,1.07,1.99,3.21,3.8,2.91c5.74-0.94,9.2,2.54,12.13,6.34
				c3.39,4.4,4.88,9.86,5.41,15.31c1.15,11.89,6.21,22.26,12.33,32.11c1.55,2.5,2.21,5.09,3.31,7.61
				c4.68,10.77,9.25,21.59,13.95,32.34c2.06,4.7,2.1,9.7,2.28,14.78c-4.71-7.33-4.53-16.79-10.16-24.14
				c-1.53,2.35-0.92,5.53-3.99,6.81c-1.5,0.63-0.25,1.85,0.79,2.56c2.6,1.79,3.43,4.37,3.02,7.39c-0.24,1.75,0.37,3.11,1.21,4.65
				c2.88,5.26,3.7,10.65-0.75,15.54c-3.25,3.57-3.38,7.27-0.83,11.39c-1.76,0.39-3.17,0.7-4.57,1.01l0.14,0.15
				c1.32-4,1.14-7.5-2.92-9.98c-1.94-1.19-0.84-2.96-0.46-4.51c1.2-4.88,2.69-9.68-1.58-14.07c-1.33-1.37-0.93-3.46,0.26-5.11
				c2.16-2.99,1.51-5.7-0.18-8.79c-2.54-4.66-4.54-9.62-6.74-14.46c-0.48-1.06-0.91-2.19,0.43-3.27c3.77,1.79,2.94,6.7,6.06,9.49
				c1.24-2.42,1.22-4.71,0.19-6.44c-1.39-2.32-2.39-4.64-3.04-7.26c-0.39-1.54-1.35-3.4-3.36-0.89c-2.14,2.67-2.59,0.42-2.74-1.25
				c-0.31-3.64-0.52-7.31-0.56-10.96c-0.18-14.98-4.31-29.25-7.81-43.63c-0.89-3.63-3.8-5.98-6.87-7.54
				c-5.75-2.92-10.54-6.98-15.23-11.26c-0.8-0.73-0.96-1.72-0.97-2.74L1184.57,162.5z M1230.7,293.15c1.52-1.39,2.04-3.37,3.63-4.52
				c1.01-0.73,0.47-2.17-0.22-3.16c-0.23-0.34-0.84-0.73-1.16-0.64c-1.23,0.34-1.18,1.55-1.15,2.44
				C1231.86,289.24,1229.39,290.6,1230.7,293.15z M1230.84,250.25c-1.54,2.11-2.86,3.89-2.59,6.31c0.02,0.22,1.01,0.6,1.09,0.51
				c1.5-1.69,2.91-3.46,2.3-5.98C1231.6,250.95,1231.42,250.86,1230.84,250.25z M1221.76,226.78c-1.01,3.23-1.61,5.32,0.57,6.9
				c0.39,0.28,1.66,0.16,1.76-0.09C1225.11,231.09,1223.39,229.51,1221.76,226.78z"/>
			<path class="st0" d="M1173.96,359.15c3.31-1.5,3.94,1.41,5.59,3.09c1.94,1.99,3.57,6.86,6.06,5.19c2.47-1.66-2.03-4.26-2.92-6.7
				c-0.74-2.02-1.75-3.94-2.5-5.95c-0.48-1.28-0.71-2.82,1.06-3.27c1.57-0.39,2.63,0.69,2.76,2.16c0.33,3.82,3.17,6.11,5.18,8.9
				c0.68,0.94,1.64,2.09,2.85,1.3c1.2-0.79,0.55-2.02-0.09-3.08c-1.65-2.72-1.62-2.73,0.97-4.97c1.23,6.11,12.22,10.76,17.61,7.44
				c0.71-0.43,1.43-0.86,2.08-1.38c1.21-0.96,2.46-1.81,4.07-1.24c0.3,0.11,0.68,0.94,0.55,1.14c-0.87,1.41-1.79,3.14-3.5,3.32
				c-4.62,0.49-6.67,4.3-10.22,6.82c6.5,1.16,15.43-3.45,19.04-7.65c3.12-3.63,8.23-5.24,12.9-6.34c4.84-1.13,9.57-5.02,9.47-9.97
				c-0.19-8.72,0.92-17.19,2.65-25.73c0.87-4.26-0.05-8.91-0.31-13.38c-0.16-2.71,0.31-5.27,1.12-8.61
				c1.28,2.89,1.52,5.22,1.42,7.63c-0.32,8.11-0.42,16.23-1.89,24.27c-0.57,3.13-0.12,6.3,0.46,9.43
				c2.04,11.15-0.85,15.17-11.43,18.86c-3.82,1.33-7.78,3.44-10.99,6.38c-6.39,5.83-14.04,8.85-22.26,11.43
				c-4.07,1.28-8.72,2.13-12.46,5.02c-8.71,6.73-19.66,9.48-28.69,15.71c-0.39,0.27-0.96,0.52-1.4,0.46
				c-2.84-0.38-7.89,1.65-8.05-0.58c-0.25-3.29,4.49-1.18,6.87-2.14c0.45-0.18,1.05-0.01,1.47-0.23
				c8.22-4.29,16.45-8.57,24.62-12.97c1.79-0.97,0.74-2.47,0.34-3.94c-1.81-6.51-8.06-10.03-10.65-16.05
				c-0.64-1.49-1.72-2.76-1.64-4.51L1173.96,359.15z"/>
			<path class="st0" d="M1194.93,270.4c-2.5-2.81-2.27-5.8-2.48-8.51c-0.7-9.13-1.69-18.16-4.69-26.89
				c-1.14-3.31-1.02-6.84-0.71-10.38c0.7-8.12-2.27-11.41-10.28-11.87c-2.94-0.17-5.69-1.52-7.67-3.27
				c-3.56-3.14-6.65-2.1-10.03-0.28c-6.99,3.76-9.62,2.66-11.34-4.96c-0.46-2.03-1.98-3-3.24-4.27c-1.93-1.95-2.76-3.99-0.99-6.9
				c1.96,3.02,3.64,5.76,5.5,8.38c0.63,0.89,1.54,2,2.84,1.7c1.44-0.34,1.28-1.74,1.35-2.89c0.19-3.06,1.45-5.1,4.86-5.03
				c1.05,0.02,1.94-0.2,2.69-1c2.75-2.94,4-1.08,4.64,1.64c0.51,2.15,0.71,4.35,3.71,4.82c0-1.14-0.13-2.26,0.06-3.33
				c0.09-0.52,0.69-1.2,1.2-1.36c0.99-0.3,1.65,0.44,1.62,1.34c-0.07,2.4,2.32,3.56,2.33,5.8c2.05-0.33,1.25-1.55,1.21-2.38
				c-0.06-1.18,0.35-1.99,1.51-2.18c1.35-0.21,2.15,0.46,2.51,1.81c1.26,4.64,3.95,6.68,8.81,4.8c0.92-0.36,2-0.56,2.8,0.3
				c0.96,1.03,0.48,2.18,0.05,3.27c-3.37,8.44-2.18,17.09-0.1,25.37c2.86,11.37,3.94,22.88,4.65,34.48
				C1195.74,269.03,1195.36,269.46,1194.93,270.4z"/>
			<path class="st0" d="M1071.06,259.07c-2.46-3.46-4.37-6.68-3.18-10.79c0.52-1.81,0.17-3.76-2.27-4.25
				c-1.75-0.35-3.23-1.25-1.67-2.9c1.19-1.25,1.74-4.64,4.81-2.68c1.49,0.95,3.05,3,4.71,1.37c1.62-1.59-0.43-3.26-1.18-4.85
				c-4.41-9.3-9.65-18.09-17.17-25.2c-8.56-8.1-18.72-11.75-30.61-9.82c-1.76,0.29-3.62,0.69-5.34-0.29
				c-0.29-1.49,0.82-1.7,1.76-1.92c18.81-4.43,33.53,2.87,43.7,18.05c3.89,5.8,7.01,12.01,10.63,17.89c2.96,4.8,0.49,8.3-0.6,12.05
				C1073.4,250.09,1068.62,253.39,1071.06,259.07z"/>
			<path class="st0" d="M905.52,715.06c2.15,0.42,2.75,2.26,3.57,3.84c6.23,12.01,15.16,20.84,27.61,26.79
				c9.7,4.63,19.85,7.31,29.93,10.56c6.45,2.08,12.37,5.84,19.75,9.44c-5.69,1.03-9.48-0.82-13-2.57
				c-7.51-3.74-15.5-5.94-23.45-8.35c-12.02-3.65-23.61-8.28-32.73-17.28c-5.08-5.01-9.44-10.72-11.57-17.75
				C905.18,718.25,904.09,716.7,905.52,715.06z"/>
			<path class="st0" d="M997.08,761.64c-0.46-2.73-1.26-5.42-1.3-8.11c-0.15-10.66-1.54-21.2-2.38-31.79
				c-0.47-5.88-2.14-11.4-3.06-17.12c-1.45-9.07-2.01-18.19-2.42-27.34c-0.06-1.3-0.56-3.03,1.23-3.28c1.56-0.22,2.12,1.51,2.52,2.7
				c1.64,4.83,0.66,9.89,0.95,14.83c0.31,5.33,1.18,10.48,2,15.73c2.69,17.41,3.76,35.01,3.96,52.65
				C998.59,760.54,998.43,761.24,997.08,761.64z"/>
			<path class="st0" d="M1136.08,324.74c5.24-4.33,5.32-4.37,8.23,0.93c2.52,4.61,6.7,3.47,10.56,3.16c1.79-0.15,3.59-1.2,5.22,0.22
				c0.91,0.79,2.69,1.39,1.86,3.05c-0.76,1.52-1.91,0.54-2.96,0.03c-2.7-1.33-4.64,1.26-7.08,1.46c-7.68,0.65-15.57,0.38-22.47,4.8
				c-0.45,0.29-1.48,0.27-1.89-0.05c-8.17-6.5-18.03-5.74-27.54-6.54c-0.27-0.02-0.52-0.32-0.8-0.5c4.1-1.28,8.9-2.08,11.62-0.89
				c5.05,2.21,9,0.87,12.7-2.67c0.95-0.91,2.12-1.6,3.19-2.4c0.92-0.69,1.85-0.89,2.48,0.29c0.58,1.09,0.11,1.91-0.97,2.38
				c-0.91,0.4-1.91,0.65-2.74,1.17c-1.02,0.64-1.73,1.66-1.54,2.93c0.18,1.24,1.41,1.23,2.3,1.55c5.46,1.98,10.23,0.92,13.96-3.35
				c1.55-1.78,2.2-3.65-1.31-3.97C1137.9,326.25,1136.91,326.06,1136.08,324.74z"/>
			<path class="st0" d="M936.29,566.99c-10.38-2.83-21.22-5.17-28.59-14.44c-0.92-1.16-2.32-2.51-0.9-3.87
				c1.29-1.23,2.35,0.34,3.3,1.19c6.75,6.06,14.13,10.94,23.07,13.24c5.51,1.42,10.92,0.69,15.37-2.23
				c5.92-3.88,13.1-3.5,19.08-6.78c0.41-0.23,1.51,0.05,1.76,0.44c0.55,0.86-0.1,1.53-0.9,1.93c-0.89,0.44-1.78,1-2.73,1.21
				c-9.25,2.01-17.72,6.33-26.73,9.01C938.22,566.93,937.35,566.88,936.29,566.99z"/>
			<path class="st0" d="M1004.94,765.44c-1.88-3.38-1.41-6.91-0.66-10.2c3.88-17.09,5.04-34.26,2.3-51.64
				c-0.33-2.12-1.73-5.65,1.03-6.07c2.91-0.44,2.72,3.43,2.7,5.46c-0.12,10.71,0.82,21.33-0.65,32.17
				C1008.29,745.26,1005.25,755.11,1004.94,765.44z"/>
			<path class="st0" d="M1088.74,465.06c-7.68,12.54-19.13,20.75-31.09,28.6c-5.76,3.78-11.44,7.26-18.14,8.9
				c-1.4,0.34-3.4,1.12-3.83-0.82c-0.44-1.98,1.79-1.93,3.12-2.37c15.85-5.2,29.55-13.8,41.1-25.86
				C1082.71,470.56,1085.78,467.86,1088.74,465.06z"/>
			<path class="st0" d="M1028.16,828.49c3.17-7.09,7.05-13.14,8.57-19.73c2.64-11.5,11.09-21.49,8.92-34.2
				c-0.17-1.01,0.19-2.18,1.48-2.11c1.84,0.11,1.83,1.65,1.77,2.99c-0.25,6.46-1.3,12.78-3.75,18.8
				c-4.11,10.08-8.31,20.13-12.44,30.2C1032,826.2,1031.07,827.67,1028.16,828.49z"/>
			<path class="st0" d="M980.35,782.06c-3.9,4.95-8.14,8.17-12.73,9.81c-5.51,1.98-10.35,5.14-15.75,7.2
				c-4.69,1.79-9.43,3.22-14.53,2.2c-1.12-0.23-2.43-0.67-2.49-2.05c-0.06-1.6,1.36-1.66,2.51-1.75
				c14.83-1.2,28.33-5.95,40.27-14.94C977.96,782.28,978.55,782.35,980.35,782.06z"/>
			<path class="st0" d="M1035.29,889.32c-1.5-4.09,1.96-6.68,3.6-9.29c8.73-13.91,17.23-27.92,24.29-42.77
				c0.34-0.73,0.73-1.51,1.94-1.61c1.35,1.26,0.46,2.49-0.17,3.81c-7.29,15.52-16.31,30.03-25.9,44.19
				c-1.25,1.85-1.21,4.67-3.89,5.52C1035.16,889.19,1035.29,889.32,1035.29,889.32z"/>
			<path class="st0" d="M952.69,579.06c-9.32,2.49-18.69,5.33-28.39,6.19c-9.56,0.85-18.13,4.94-27.16,7.47
				C914.12,581.97,933.43,580.73,952.69,579.06z"/>
			<path class="st0" d="M969.73,777.43c-2.75,4.54-7.03,5.66-10.53,6.5c-8.3,1.99-16.55,5.22-25.39,3.97
				c-1.55-0.22-4.01,0.11-3.85-2.08c0.16-2.2,2.56-1.65,4.1-1.45c8.75,1.15,16.98-2.65,25.67-2.68
				C962.73,781.68,965.6,778.46,969.73,777.43z"/>
			<path class="st0" d="M1089.75,444.53c-5.11,6.19-10.6,12.16-17.08,16.88c-5.29,3.86-10.56,8.05-17.07,9.97
				c-1.1,0.32-2.39,1.33-3.12,0.09c-0.88-1.5,0.77-1.85,1.77-2.29c12.95-5.68,24.09-13.77,33.09-24.74c0.36-0.44,1.03-0.61,1.56-0.9
				C1089.18,443.87,1089.46,444.2,1089.75,444.53z"/>
			<path class="st0" d="M1154.28,345.67c5.8,11.82,6.34,25.52,19.49,31.51C1162.24,374.94,1153.01,360.23,1154.28,345.67z"/>
			<path class="st0" d="M979.38,826.19c-3.62,10.24-15.2,17.44-24.59,15.85c-1.51-0.25-3.34-0.45-3.15-2.39
				c0.17-1.77,1.91-1.61,3.2-1.22c8.13,2.45,13.68-1.95,18.84-7.16C975.35,829.57,976.75,827.64,979.38,826.19z"/>
			<path class="st0" d="M1206.9,342.21c4.87,3.52,10.2,5.77,15.67,7.75c1.21,0.44,2.01,1.19,1.78,2.57
				c-0.22,1.34-1.3,1.83-2.46,2.12c-2.46,0.62-4.7-0.11-6.42-1.76C1212.21,349.75,1208.96,346.57,1206.9,342.21z"/>
			<path class="st0" d="M1194.76,277.11c0,10.5,0,21,0,32.16C1191.62,304.49,1191.49,288.59,1194.76,277.11z"/>
			<path class="st0" d="M1020.55,808.01c-1.43-9.21-4.16-17.91-2.76-27.03c0.2-1.29-0.09-2.95,1.67-3.18
				c1.56-0.2,2.01,1.28,1.81,2.39c-1.49,8.28,0.33,16.54,0.02,24.8C1021.26,805.9,1020.86,806.8,1020.55,808.01z"/>
			<path class="st0" d="M1125.58,340.05c-7.71,7.23-12.58,16.63-18.9,24.92C1110.06,354.5,1115.99,345.92,1125.58,340.05z"/>
			<path class="st0" d="M1044.09,291.5c-3.6,4.52-1.88,7.86,1.59,10.96c1.01,0.9,2.19,2.38-0.02,2.9c-1.61,0.38-2.75,4.09-4.84,1.11
				c-1.45-2.07-3.42-4.17-1.87-7.22c0.57-1.12,0.99-2.72,0.63-3.83C1038.22,291.17,1041.28,291.76,1044.09,291.5z"/>
			<path class="st0" d="M1174.1,359.02c-6.58-4.01-10-16.58-4.75-23.1c-0.98,9.16,4.08,15.59,4.61,23.23
				C1173.96,359.15,1174.1,359.02,1174.1,359.02z"/>
			<path class="st0" d="M1080.71,490.2c-8.39,6.33-16.5,13.07-26.54,18.29C1055.89,504.63,1070.98,494.25,1080.71,490.2z"/>
			<path class="st0" d="M1049.9,277.96c-0.77,3.35-8.6,7.26-11.58,5.79c-0.67-0.33-1.26-1.19-0.83-1.51c3.77-2.8-1.56-6.53,1-9.19
				c0.67-0.7,1.82,0.67,2.17,1.51c1.9,4.54,5.21,5.08,9.36,3.52L1049.9,277.96z"/>
			<path class="st0" d="M1063.76,264.37c-1.34-1.62-3.96-1.49-4.87-3.91c-0.56-1.49-1.93-0.91-2.77,0.11
				c-1.72,2.08-4.53,1.68-6.66,2.97c-1.25,0.76-3.04-0.09-3.62-1.7c-0.45-1.25,0.85-2.03,1.68-1.92c5.69,0.73,9.32-4.49,15.17-4.97
				c-2.27,2.58-2.66,4.81,0.45,6.71c0.55,0.34,0.39,1.84,0.55,2.83C1063.69,264.5,1063.76,264.37,1063.76,264.37z"/>
			<path class="st0" d="M977.36,372.94c-9.07-1-18.19,1.32-27.24-1.9c9.11,0,18.23,0,27.34,0
				C977.42,371.68,977.39,372.31,977.36,372.94z"/>
			<path class="st0" d="M1066.81,781.02c-0.2-8.09,3.69-15.58,2.35-25.05C1072.75,761.52,1071.08,776.26,1066.81,781.02z"/>
			<path class="st0" d="M1222.06,326.27c3.14-6.66,7.96-10.2,15.44-7.94c-0.54,2.55-2.05,3.95-5.64,3.24
				C1227.69,320.75,1225.27,324.46,1222.06,326.27z"/>
			<path class="st0" d="M1058.27,812.78c-1.39,6.61-5.87,11.71-8.56,17.69c-0.52-0.24-1.03-0.49-1.55-0.73
				c2.85-5.9,5.7-11.8,8.54-17.7C1057.23,812.28,1057.75,812.53,1058.27,812.78z"/>
			<path class="st0" d="M1085.74,437.9c-1.45,3.57-4.21,5.4-7.86,6.01c-0.66,0.11-1.35,0.28-1.98,0.18c-2.1-0.34-4.6,3.92-5.77,0.53
				c-0.68-1.98,3.68-2.01,5.53-2.52C1079.25,441.12,1082.36,439.47,1085.74,437.9z"/>
			<path class="st0" d="M1091.76,359.15c4.38-4.89,7.54-11.07,14.13-13.6C1101.32,350.24,1097.64,355.83,1091.76,359.15z"/>
			<path class="st0" d="M985.76,543.98c-3.67,4.52-8.54,7.25-13.72,9.51C975.62,548.85,980.23,545.72,985.76,543.98z"/>
			<path class="st0" d="M1223.05,267.11c-0.16,0.69-0.16,1.43-0.49,1.95c-1.1,1.7-1.43,5.24-3.41,4.73
				c-2.83-0.73-1.08-3.46-0.42-5.42c0.2-0.61,0.12-1.31,0.22-1.96c0.2-1.33-0.67-3.57,1.52-3.48
				C1222.68,263.02,1222.83,265.3,1223.05,267.11z"/>
			<path class="st0" d="M1021.54,282.05c-3.78,3.75-0.56,4.43,1.5,5.46c-0.98,1.94-2.92,0.71-4.03,1.79
				c-0.97,0.96-2.15,2.68-3.58,0.83c-1.13-1.47-0.55-3.26,0.71-4.48C1017.38,284.44,1018.04,282.49,1021.54,282.05z"/>
			<path class="st0" d="M1060.33,377.44c5.44-3.17,6.68-10.11,11.96-13.39C1071.03,370.89,1065.18,373.77,1060.33,377.44z"/>
			<path class="st0" d="M1139.44,347.86c-1.24,5.59-2.47,11.19-3.71,16.78c-2.02-6.25,0.75-11.52,2.35-17.02
				C1138.54,347.71,1138.99,347.78,1139.44,347.86z"/>
			<path class="st0" d="M994.8,331.86c5.3-0.64,9.66,2.95,14.79,3.08C1003.72,338.17,999.49,333.97,994.8,331.86z"/>
			<path class="st0" d="M1047.39,320.4c-2.1-2.49-3.64-4.87-6.24-7.02c3.29-0.49,6.57-1.51,8.15,0.46
				C1050.81,315.73,1047.23,317.71,1047.39,320.4z"/>
			<path class="st0" d="M1125.5,386.31c4.61,4.22,5.68,10.82,10.97,14.19C1130.09,398.58,1127.22,394.82,1125.5,386.31z"/>
			<path class="st0" d="M1059.41,277.7c1.58,3.85,1.29,6.8-1.72,8.39c-1.62,0.86-2.26-1.47-2.74-2.73
				C1053.11,278.55,1058.36,280.41,1059.41,277.7z"/>
			<path class="st0" d="M1017.87,561.35c3.05-3.78,5.92-7.85,11.34-8.65C1026.38,556.73,1021.96,558.84,1017.87,561.35z"/>
			<path class="st0" d="M1184.64,162.44c-4.52,2.77-7.77-1.07-11.52-2.25c-0.61-0.19-1.23-0.85-0.83-1.54
				c0.26-0.45,1.02-0.82,1.57-0.86c2.1-0.14,3.72,0.88,5.38,2.13c1.54,1.16,3.51,1.76,5.31,2.59
				C1184.57,162.5,1184.64,162.44,1184.64,162.44z"/>
			<path class="st0" d="M1230.02,304.98c0.23,2.71-1.21,5.06-1.71,7.61c-0.15,0.77-0.22,1.77-1.34,1.68
				c-1.07-0.09-1.25-1.06-1.1-1.85c0.53-2.75,0.32-5.45-0.92-8.01c2.33-0.86,3.59,0.87,5.21,0.72
				C1230.17,305.13,1230.02,304.98,1230.02,304.98z"/>
			<path class="st0" d="M1050.02,278.09c1.28-3.03,2.83-5.92,4.98-8.42c0.61-0.71,1.48-1.54,2.53-0.7c0.75,0.6,0.76,1.85,0.21,2.23
				c-2.88,1.97-3.53,6.52-7.84,6.77C1049.9,277.96,1050.02,278.09,1050.02,278.09z"/>
			<path class="st0" d="M1088.88,435.31c2.47-2.75,5.19-5.19,8.81-7.18C1098.71,436.07,1091.57,432.85,1088.88,435.31z"/>
			<path class="st0" d="M1154.51,179.43c0.58,4.96-4.41,5.02-6.37,8.47C1145.81,180.96,1153.96,183.32,1154.51,179.43z"/>
			<path class="st0" d="M1196.23,331.54c-1.53-3.78-0.25-7.36-3.62-9.27c-1.1-0.62-0.12-2.14,1.02-2.67c1.4-0.64,2.45,0.24,2.5,1.46
				C1196.25,324.13,1197.57,327.16,1196.23,331.54z"/>
			<path class="st0" d="M1062.27,799.09c1.19-4.62,1.55-9.34,2.69-13.9C1068.67,790.74,1063.69,794.62,1062.27,799.09z"/>
			<path class="st0" d="M1218.6,303.21c4.3,3.45,2.24,7.16,0.61,10.88C1219,310.46,1218.8,306.83,1218.6,303.21z"/>
			<path class="st0" d="M1166.32,325.62c-4.41-0.69-4.47-4.87-6.12-7.77c4.02,1.06,5.61,4.02,6.01,7.89L1166.32,325.62z"/>
			<path class="st0" d="M1042.32,265.46c1.7,0,5.11,5.88,4.38,7.25c-0.19,0.36-0.73,0.71-1.13,0.74c-1.23,0.09-4.85-6.2-4.2-7.31
				C1041.57,265.79,1042.09,265.62,1042.32,265.46z"/>
			<path class="st0" d="M1235.64,337.39c1.5,1.47,1.34,2.83,0.8,3.66c-1.04,1.59-2.51,3.89-4.21,3.65
				c-3.25-0.44-0.54-1.86,0.04-2.84c0.34-0.56,0.72-1.1,1.11-1.62C1234.07,339.36,1234.77,338.49,1235.64,337.39z"/>
			<path class="st0" d="M1032.99,365.81c1.03-3.66,2.98-6.67,6.4-8.56C1037.81,360.49,1036.29,363.76,1032.99,365.81z"/>
			<path class="st0" d="M1030.36,326.33c-0.49,1.32-0.06,3.41-2.11,3.4c-1.6,0-2.91-1.47-2.55-2.99c0.34-1.45,1.52-3.56,2.63-3.76
				C1029.65,322.74,1030.32,324.76,1030.36,326.33z"/>
			<path class="st0" d="M1166.21,325.75c0.7,0.39,1.37,0.85,2.11,1.16c1.69,0.71,2.87,1.65,1.94,3.69c-0.64,1.4-1.64,1.96-3.14,1.2
				c-1.64-0.83-2.65-1.86-1.56-3.84c0.38-0.7,0.5-1.54,0.75-2.32C1166.32,325.62,1166.21,325.75,1166.21,325.75z"/>
			<path class="st0" d="M967.17,824.19c1.62-3.44,4.69-4.45,6.91-6.36C973.15,821.1,971.92,824.06,967.17,824.19z"/>
			<path class="st0" d="M928.28,574.08c3.73-1.92,6.63-1.8,9.63-0.6C935.18,575.17,932.3,575.18,928.28,574.08z"/>
			<path class="st0" d="M1065.61,248.95c-0.53,1.64-1.95,2-3.43,1.97c-1.17-0.02-2.56-0.61-2.47-1.84c0.16-2.07,2.21-2.12,3.7-2.32
				C1064.64,246.59,1065.44,247.56,1065.61,248.95z"/>
			<path class="st0" d="M1062.51,520.47c-0.72,3.97-3.53,5.72-6.73,7c-0.15,0.06-0.49-0.36-0.74-0.56
				C1057.53,524.76,1060.02,522.62,1062.51,520.47z"/>
			<path class="st0" d="M1056.19,549.51c-2.24,2.72-4.1,5.01-7.01,6.71C1049.88,552.31,1051.53,550.71,1056.19,549.51z"/>
			<path class="st0" d="M1156.12,322.98c-2.49-0.72-4.94-1.35-5.17-4.16c-0.08-1.03,1.08-1.2,1.89-1.1
				C1156.05,318.11,1155.4,320.98,1156.12,322.98z"/>
			<path class="st0" d="M1176.89,344.67c0.18-1.05-0.31-2.89,1.21-2.69c1.82,0.25,1.99,2.36,2.3,3.92c0.22,1.14,0.09,2.69-1.38,2.58
				C1176.76,348.32,1177.23,346.16,1176.89,344.67z"/>
			<path class="st0" d="M1142.88,397.91c-3.23-1.08-5.7-2.84-6.16-7.05C1140.56,392.04,1140.77,395.82,1142.88,397.91z"/>
			<path class="st0" d="M1036.27,312.39c-1.07-0.11-1.94-0.54-1.88-1.75c0.08-1.59,1.1-2.24,2.61-2.14
				c1.06,0.07,1.94,0.51,1.88,1.73C1038.81,311.82,1037.78,312.44,1036.27,312.39z"/>
			<path class="st0" d="M1080.32,334.79c3.01-1.32,5.72-3.6,10.29-2.4c-3.7,1.38-6.74,2.51-9.77,3.65
				C1080.67,335.62,1080.5,335.2,1080.32,334.79z"/>
			<path class="st0" d="M1012.33,307.66c1,0.14,2.62-0.25,2.45,1.03c-0.3,2.25-2.61,2.15-4.29,2.54c-0.93,0.21-2.37,0-2.29-1.22
				C1008.38,307.33,1010.82,308.14,1012.33,307.66z"/>
			<path class="st0" d="M1139.7,405.64c-1.6,1.59-2.62,4.2-5.42,3.05c-0.73-0.3-0.92-1.41-0.4-2.16
				C1135.41,404.33,1137.59,405.24,1139.7,405.64z"/>
			<path class="st0" d="M1054.23,1090.6c-3.22,0.25-5.85,3.92-10.18,1.55C1047.7,1090.58,1050.44,1087.99,1054.23,1090.6z"/>
		</g>
	</g>
</g>
</svg>
