<?xml version="1.0" encoding="utf-8"?>
<!-- Generator: Adobe Illustrator 28.0.0, SVG Export Plug-In . SVG Version: 6.00 Build 0)  -->
<svg version="1.1" id="Layer_1" xmlns="http://www.w3.org/2000/svg" xmlns:xlink="http://www.w3.org/1999/xlink" x="0px" y="0px"
	 viewBox="0 0 1920 1080" style="enable-background:new 0 0 1920 1080;" xml:space="preserve">
<style type="text/css">
	.st0{fill:none;stroke:#231F20;}
</style>
<g>
	<g>
		<g>
			<path d="M1150.35,880.56c-2.56,19.54-10.81,36.75-21.42,53.08c-6.24,9.61-11.99,19.44-14.79,30.82
				c-1.68,6.84-5.41,13.05-8.12,19.57c-3.44,8.27-1.45,15.93-0.18,23.88c0.84,5.29,3.65,9.54,7.32,13.28
				c3.72,3.8,4.47,9.67,9.29,12.8c3.25,2.11,7.45,3.26,7.61,8.83c0.06,2.1,3.64,4.57,6.12,6.03c8.87,5.23,11.53,14.08,14,23.05
				c0.65,2.35,2.58,4.22,2.02,7.05c-1.01,5.2-4.15,8.85-9.81,9.86c-9.48,1.68-19.02,3.03-28.54,4.49c-0.47,0.07-1.04,0.08-1.45-0.12
				c-10.34-5.04-19.9-11.2-27.89-19.57c-5.62-5.89-11.06-11.96-16.86-17.67c-7.63-7.51-17.75-8.15-27.61-9.15
				c-5.13-0.52-10.23-0.9-15.3-2.13c-4.49-1.08-8.95-0.84-13.54,1.36c-5.62,2.69-11.89,2.13-18.14,1.68
				c-15.7-1.13-31.3-4.32-47.15-2.58c-1.36,0.15-2.71,0.44-3.58-0.95c-0.56-0.9-0.51-1.94-0.03-2.87c0.81-1.58,2.15-1.07,3.48-0.86
				c7.89,1.26,15.94,0.69,23.81,2.42c3.56,0.78,7.12,0.3,10.72-1.16c3.78-1.53,7.82-0.51,11.71,0.82c4.67,1.6,9.29,2.7,12.93-2.49
				c1.52-2.16,4.19-1.28,6.52-0.81c9.39,1.91,18.65,4.7,28.41,4.12c0.82-0.05,1.72-0.09,2.47,0.18c4.02,1.47,8.27,3.42,5.23-4.12
				c-0.24-0.6,0.25-1.62,0.64-2.32c4.36-7.78,8.66-15.56,9.47-24.74c0.15-1.73,1.05-3.58,2.09-5.02
				c7.56-10.44,10.76-22.16,12.72-34.86c1.75-11.37-0.4-21.72-3.01-32.36c-0.81-3.29-2.14-3.89-5.31-2.42
				c-18.03,8.39-35.14,18.53-52.82,27.58c-6.86,3.51-13.99,6.5-20.64,10.46c-2.8,1.67-6.09,2.51-9.17,3.7
				c-16.34,6.32-30.89,15.68-44.74,26.24c-3.34,2.55-5.64,5.74-5.05,10.19c0.58,4.29-1.32,8.19-1.61,12.29
				c-0.82,11.46,4.86,20.85,12.31,28.25c7.09,7.04,14.34,14.23,22.92,19.8c5.97,3.88,7.76,14.23,4.31,19.83
				c-1.37,2.23-3.3,3.14-5.75,3.39c-5.74,0.57-11.77,0.81-17.24,0.51c-6.15-0.34-12.76,0.46-19.13-2.2c-4-1.67-7.88-4.05-12.4-4.9
				c-3.96-0.74-6.34-6.26-5.47-10.47c0.83-4.03-0.44-5.27-4.4-4.04c-1.29,0.4-2.29,0.39-3.14-0.61
				c-6.69-7.88-16.01-13.57-19.63-24.03c-1.02-2.96-3.29-4.4-6.82-4.84c-5.45-0.68-8.29-5.84-12.19-9.06
				c-3.81-3.14-6.98-7.14-9.64-11.41c-4.73-7.59-4.46-12.94,2.42-18.79c7.89-6.7,15.21-14.46,26.16-16.71
				c3.07-0.63,6.24-2.66,8.52-4.9c6.69-6.58,14.53-11.67,21.75-17.55c5.55-4.52,10.07-9.89,14.99-14.96
				c3.55-3.67,7.36-7.26,11.29-10.49c11.25-9.26,18.19-22.41,29.56-31.6c6.3-5.09,12.29-9.87,20.5-11.65
				c3.88-0.84,7.44-3.48,10.94-5.65c6.97-4.33,14.56-7.15,22.26-9.77c3.49-1.19,6.05-3.61,7.94-6.57c3.08-4.83,0.62-9.93-4.71-11.64
				c-8.07-2.59-10.44-4.2-5.36-12.47c2.44-3.98,5.01-7.83,7.82-11.55c3.78-4.99,3.36-9.09-1.56-12.84c-4.32-3.3-5.18-8.5-7.19-12.88
				c-6.32-13.79-14.61-26.51-21.03-40.21c-1.9-4.06-5.8-5.88-9.24-8.13c-3.98-2.59-7.54-5.53-9.78-9.77c-2-3.78-5.24-6.45-8.14-9.4
				c-12.07-12.28-20.85-26.92-29.9-41.36c-1.9-3.04-2.61-6.71-1.88-10.15c1.33-6.31,0-12.64,0.68-18.91
				c0.87-8.03-2.09-15.35-5.63-21.96c-3.35-6.28-2.79-12.23-1.67-18.37c1.75-9.64,4.94-19,5.15-28.96c0.09-4.19,3.27-6.82,6.53-8.94
				c6.29-4.1,6.28-11.03,7.61-17.18c0.66-3.04-2.67-4.38-5.13-5.26c-6.18-2.24-12.5-4.09-18.7-6.31
				c-9.83-3.52-18.19-9.27-25.8-16.45c-6.98-6.58-14.71-12.36-21.9-18.73c-2.33-2.06-4.44-4.64-5.88-7.39
				c-4.88-9.34-12.93-15.95-19.8-23.56c-3.83-4.24-7.03-8.85-10.24-13.49c-2-2.89-2.68-6.16-0.88-9.45
				c6.33-11.57,12.14-23.48,19.28-34.53c6.39-9.89,14.82-18.34,23.93-25.9c3.36-2.79,5.65-6.32,8.37-9.55
				c5.27-6.26,7.9-13.67,11.89-20.35c7.32-12.26,15.94-24.19,28.09-32.7c4.56-3.2,9.48-5.92,14.88-6.66
				c5.33-0.73,9.45-2.93,12.99-6.62c2.14-2.23,4.81-3.28,7.53-4.6c9.39-4.55,19.65-7.76,27.69-14.5c5.89-4.93,13.5-8.74,15.42-17.42
				c1.21-5.45,2.82-10.62,0.18-16.34c-1.74-3.78,0.12-8.65-2.38-12.55l0,0.03c4.28,2.87,8.23,14.17,7.6,19.18
				c-1.12,8.88-4.29,16.65-10.33,23.25c-1.24,1.36-1.26,2.9,0.21,3.9c9.77,6.65,14.75,18.39,25.52,23.91
				c5.89,3.02,11.12,7.2,17.29,9.72c1.23,0.5,2.44,0.76,3.04-0.48c0.72-1.5-0.29-2.62-1.71-3c-1.42-0.38-3.07-0.08-4.37-0.65
				c-4.32-1.9-5.11-5.93-2.14-10.95c1.16-1.97,2.91-3.59,4.09-5.55c2.21-3.67,5.37-1.79,8.43-1.26c0.02-2.17-4.27-2.85-1.64-4.91
				c2.96-2.32,5.01,1.01,7.99,2.29c-0.58-1.36-1.16-2.33-1.39-3.39c-0.12-0.52,0.23-1.36,0.64-1.74c0.55-0.51,1.33-0.18,1.66,0.44
				c1.38,2.57,4.68,3.19,5.91,5.89c0.41,0.9,1.4,2.27,1.11,2.63c-3.22,4.08-0.17,4.6,2.8,5.66c1.06,0.38,1.84,1.5,2.95,0.39
				c0.96-0.96,0.76-2.25,0.16-3.26c-1.09-1.83-2.18-3.63-3.2-5.5c-1.18-2.18-1.31-3.51,0.47-5.14c0.79-0.73,1.65-1.5,2.57-0.74
				c1.7,1.43,2.2,3.26,0.96,5.33c-0.36,0.59-0.54,1.22,0.1,1.79c5.86-1.6,3.6-5.97,3.26-9.67c-0.13-1.41-0.91-1.02-1.69-0.5
				c-0.58,0.38-1.14,0.59-1.78,0.02c-2.92-2.6-2.87-2.55-5.18,1.18c-0.63,1.02-0.69,3.24-2.34,2.7c-1.96-0.64-0.97-2.49-0.46-3.84
				c0.77-2.08,0.68-4.76,3.74-5.33c0.85-0.16,1.63-1.47,1.22-1.89c-3.24-3.31-0.99-6.51-0.1-9.8c0.22-0.8-0.45-1.62-1.26-1.97
				c-0.97-0.43-1.54,0.18-1.92,1c-0.73,1.57-1.75,2.13-2.96,0.57c-1.25-1.61-0.15-2.37,1.34-2.81c0.9-0.26,1.31-0.87,1.51-1.77
				c0.26-1.22-0.08-3.25,1.65-3.12c1.69,0.13,2.63,2.04,3.13,3.57c0.89,2.74,0.74,5.63-0.06,8.38c-0.75,2.58-0.45,4.28,2.6,4.56
				c2.71,0.25,4.85,1.18,5.34,4.26c0.13,0.85,0.62,1.66,1.64,1.43c0.95-0.21,1.02-1.17,1.22-1.98c0.82-3.43-0.03-7.05-1.48-9.69
				c-1.89-3.43-0.9-6.8-1.62-10.11c-0.25-1.16-0.21-2.64,1.3-2.77c1.9-0.17,2.17,1.59,1.82,2.8c-1.13,3.94,1.18,7.11,2.03,10.59
				c0.32,1.31,0.68,2.85,2.54,2.22c1.65-0.56,1.66-2.02,1-3.31c-0.93-1.83-1.61-3.61-1-5.72c0.31-1.08,0.08-2.73,1.59-2.69
				c1.55,0.04,2.05,1.54,2.04,2.95c-0.01,1.31-1.34,3.55,1.34,3.08c2.38-0.42,0.56-2.42,0.41-3.7c-0.13-1.13-0.3-2.34-0.82-3.32
				c-1.25-2.36,0.11-3.79,1.93-4.17c2.29-0.49,1.27,1.62,1.41,2.73c0.13,1.06,0.44,2.1,1.64,2.16c1.59,0.08,2.01-1.27,1.85-2.41
				c-0.63-4.47,2.1-7.16,4.98-9.72c1.62-1.44,2.13-3.04,2.37-5.19c0.32-2.87,1.69-5.13,4.76-1.89c0.6,0.63,1.04,1.47,1.89,0.47
				c0.62-0.73,0.38-1.56-0.15-2.29c-2.01-2.75-4.44-5.23-5.49-8.79c5.72,1.16,8.12,4.28,8.26,9.17c0.08,2.73-1.26,5.37,0.05,8.26
				c0.88,1.94-5.25,8.42-7.46,8.29c-0.57-0.03-1.32-0.41-1.61-0.87c-0.62-1.01-0.09-1.85,0.76-2.56c1.79-1.51,5.43-3.44,3.12-5.46
				c-2.1-1.83-3.5,2.32-5.05,3.99c-3.62,3.89-3.7,9.89-7.93,13.45c-0.28,0.24-0.39,1.04-0.22,1.41c2.33,4.93,2.22,9.51-0.22,14.64
				c-1.46,3.07,2.44,4.13,4.82,5.1c3.42,1.39,6.39,0.36,8.23-2.71c3.43-5.73-0.2-12.35-6.82-12.71c-0.69-0.04-1.47,0.08-1.59-0.67
				c-0.09-0.55,0.24-1.62,0.59-1.72c4.43-1.31,5.66-8.12,11.98-6.61c1.7,0.41,4.46-4.8,4.6,1.85c0.06,2.82,2.32-2.01,3.99-0.83
				c-1.15,8.78-7.2,14.82-12.08,21.48c-3.06,4.17-7.09,6.86-12.67,6.56c-7.55-0.4-12.09,5.31-17.44,9.15
				c-7.91,5.69-7.17,3.1-1.39,11.16c4.05,5.65,10.22,8.94,14.99,13.77c4.01,4.07,7.22,8.48,5.51,14.88
				c-2.06-6.84-6.68-11.65-11.93-15.96c-3.71-3.05-7.8-5.62-10.64-9.69c-1.16-1.67-3.11-1.65-3.78,0.63
				c-0.83,2.83-3.05,4.71-4.29,7.07c-2.02,3.84,1.08,7.56,2.32,11.23c0.45,1.35,1.51,2.66,2.62,3.6c5.03,4.26,7.72,9.64,8.29,16.17
				c0.08,0.97,0.74,2.07-0.49,2.57c-1.2,0.48-1.94-0.68-2.23-1.49c-3.55-9.97-14.16-16.68-13.25-28.74c0.15-2-1.61-2.09-3.15-2.37
				c-6.79-1.22-13.83-1.42-20.28-4.15c-11.12-4.71-21.28-10.95-29.06-20.38c-4.28-5.2-9.85-8.92-14.51-13.65
				c-1.41-1.43-2.59-0.64-3.92,0.33c-9.53,6.99-20.16,11.86-31.13,16.07c-1.22,0.47-2.35,1.23-3.46,1.96
				c-1.25,0.82-2.75,1.74-2.26,3.49c0.42,1.5,2.09,1.37,3.34,1.76c2.41,0.74,6.76,0.85,6.03,3.62c-0.73,2.8-4.19,0.2-6.38-0.38
				c-12.3-3.28-32.98,4.07-40.59,14.2c-4.29,5.71-8.89,11.19-13.55,16.6c-3.79,4.41-5.19,9.59-5.51,15.16
				c-0.1,1.75,0.02,3.48-1.8,4.25c-6.14,2.58-8.12,8.48-10.97,13.64c-1.11,2.01-2.27,3.16-4.67,3.86c-3.87,1.12-6.91,3.95-9.27,7.23
				c-3.03,4.22-6.41,8.16-10.26,11.56c-3.54,3.13-4.8,7.53-7.34,11.19c-1.51,2.18-0.03,4.29,1.86,6.08
				c7.46,7.09,16.67,11.49,25.3,16.77c5.95,3.63,12.64,5.58,19.24,7.67c1.71,0.54,3.3,0.26,4.84-0.47c1.12-0.53,1.93-1.49,1.9-2.73
				c-0.03-1.44-1.24-1.81-2.45-2c-0.33-0.05-0.67-0.07-0.99-0.17c-1.93-0.59-5.41-0.5-4.45-3.23c0.92-2.61,3.34,0,5.05,0.57
				c2.49,0.84,4.89,1.42,6.7-1.24c1.84-2.72,4.6-3.14,7.52-2.85c1.57,0.16,2.91,0.21,4.13-1.02c6.91-6.99,15.98-11.4,22.56-18.83
				c5.16-5.83,11-11.11,14.49-18.27c0.53-1.09,0.79-3.25,2.41-2.47c1.75,0.84,0.61,2.64-0.14,3.88
				c-4.13,6.85-8.97,13.17-14.41,19.04c-1.32,1.42-2.97,2.25-0.97,4.86c1.83,2.39-1.18,2.25-2.51,2.35c-2.56,0.19-5.16-0.71-7.26,2
				c-1.49,1.92-1.75,2.92-0.21,5.04c4.94,6.83,12.13,10.73,18.95,15.04c5.85,3.69,11.48,7.59,17.04,11.78
				c-1.45,1.66-2.43,0.81-3.35,0.18c-8.4-5.68-17.84-9.69-25.74-16.18c-3.77-3.1-4.36-0.38-4.42,3.11
				c-3.21-2.85-4.73-5.61-4.06-9.54c0.31-1.84,0.25-4.24-1.97-5.23c-2.63-1.18-3.36,1.42-4.62,2.78c-3.21,3.46-6.4,6.76-11.79,6.06
				c-2.6-0.34-4.49,0.82-5.4,3.42c-0.44,1.25-0.74,2.85-1.67,3.59c-5.35,4.26-1.78,7.15,1.84,8.73
				c8.79,3.84,13.43,11.36,18.41,18.78c3.34,4.98,6.69,9.88,8.24,15.79c0.82,3.13,3.97,4.33,5.97,6.48
				c1.26,1.35,2.93,0.33,3.35-1.42c0.3-1.24,0.3-2.69-0.02-3.93c-2.96-11.44-2.49-23.51-6.46-34.78c-0.68-1.91-0.69-4.19,0.14-6.99
				c9.32,11.13,21.2,18.99,30.73,29.89c-2.57,1.05-3.62-0.86-4.8-1.86c-6.2-5.28-12.31-10.68-18.44-16.05
				c-0.74-0.65-1.41-1.64-2.52-1.02c-0.8,0.45-0.91,1.48-0.55,2.23c3.87,8.03,1.1,17.27,4.67,25.36c2.18,4.94,2.45,10.69,6.31,14.94
				c0.73,0.8,1.95,1.88-0.03,2.65c-3.65,1.43-1.88,3.39-0.31,4.85c9.47,8.84,19.74,15.76,33.71,13.51c2.22-0.36,4.21-1.03,5.95-2.36
				c4.57-3.48,9.37-3.17,13.99-0.45c5.43,3.2,10.99,6.35,15.84,10.31c3.64,2.97,6.41,7.1,8.15,11.65c1.71,4.48,4.51,7.66,9.37,8.83
				c2.78,0.67,5.18,2.23,7.52,3.86c0.99,0.69,2.21,1.33,3.11,0.12c1.04-1.4-0.44-1.93-1.27-2.68c-3.03-2.76-7.02-4.61-8.53-8.82
				c-0.2-0.57-0.17-1.22-0.45-3.46c4.03,4.01,6.44,7.78,10.24,9.94c4.64,2.64,8.02,7.28,13.56,8.5c1.63,0.36,3.83,1.04,4.6-0.41
				c0.91-1.74-1.23-2.77-2.54-3.71c-3.28-2.34-6.86-4.35-9.89-9.04c6.13,2.91,10.21,6.5,14.47,9.69c4.27,3.2,9.45,3.73,14.06,5.85
				c1.46,0.67,3.6,0.86,4.43-0.99c0.87-1.93-2.22-1.61-2.44-3.42c1.29-1.1,2.66-0.4,4,0.06c5.75,1.95,11.62-1.47,17.44,0.4
				c1.3,0.42,2.62-0.98,3.73-2.12c10.21-10.49,14.28-23.37,14.76-37.64c0.64-19.01-3.38-37.45-7.37-55.83
				c-1.25-5.75-3.99-11.25-6.5-16.64c-3.81-8.16-5.78-16.66-5.53-25.62c0.19-6.67-2.24-12.88-4.28-18.85
				c-3.49-10.18-6.5-20.55-10.35-30.66c-3.01-7.88-4.81-16.3-8.67-23.98c-0.67-1.33-1.42-3.78,0.57-4.3
				c1.91-0.5,1.72,1.94,1.99,3.29c0.84,4.14,3.42,7.51,4.88,11.39c5.39,14.26,11.29,28.42,14.55,43.31
				c1.75,7.99,5.92,15.47,4.83,24.25c-0.91,7.33,3.16,13.83,6.08,20.29c4.31,9.55,7.87,19.29,9.74,29.61
				c2.1,11.59,3.51,23.26,4.24,35.03c0.64,10.29-1.1,20.02-4.89,29.7c-2.67,6.83-6.2,12.78-10.97,18.16
				c-1.48,1.66-1.71,3.35,0.46,4.55c6.5,3.58,8.16,10.69,11.78,16.31c2.12,3.28,4.35,5.66,7.97,7.01
				c8.19,3.06,10.96,7.8,10.87,16.42c-0.11,11.13,2.86,21.65,7.44,31.74c0.21,0.45,0.42,0.91,0.7,1.32
				c6.5,9.44-0.11,16.27-9.47,18.11c-4.18,0.82-4.82,1.54-3.71,6.01c2.65,10.64,5,21.35,8.13,31.89c1.12,3.78,2.76,7.11,4.82,10.32
				c1.19,1.85,1.94,3.98,0.59,5.6c-5.72,6.87-8.01,16.49-16.79,20.92c-1.22,0.62-2.4,2.58-0.95,3.12c4.65,1.75,4.79,6.26,6.28,9.66
				c5.34,12.17,12.9,23.35,16.89,36.05c4.86,15.46,2.53,29.81-8.85,42.11c-4.16,4.5-4.54,10.98-7.92,15.92
				c-1.89,2.76-2.14,6.73-5.94,8.12c-1.64-2.71,1.38-8-4.94-7.66c2.05-2.58,4.9-1.05,7.15-2.95c-3.53-2.44-3.99-4.1,1.04-3.76
				c0.72,0.05,1.46-0.55,1.3-1.2c-0.76-3.16,1.05-4.5,3.52-5.64c1.29-0.59,2-1.93,1.61-3.35c-0.54-2-2.01-0.99-3.27-0.81
				c-1.8,0.25-1.81,0.18-4.74-1.27c5.92,1.34,8.83-4.07,13.42-5.74c1.17-0.42,1.37-1.66,0.41-2.39c-2.85-2.16-1.12-4.63,0.16-6.05
				c3.1-3.44,4.44-7.16,4.23-11.73c-0.08-1.69,1.61-3.66-0.48-4.95c-1.83-1.13-4.04-0.61-5.74,0.4
				c-8.32,4.91-14.7,12.48-23.26,17.08c-0.83,0.45-1.04,1.33-0.56,2.15c0.38,0.65,1.1,0.6,1.78,0.41c1.06-0.3,2.66-2,2.92,0.42
				c0.21,1.9-1.74,2.07-3.28,2.21c-2.26,0.21-4.65-0.69-6.74,1.01c-3.59,2.93-7.68,5.37-10.78,8.74c-3.02,3.28-6.2,1.74-10.44,2.63
				c3.45-3.31,6.21-5.3,9.22-7.02c7.38-4.21,13.03-10.68,19.97-15.45c6.93-4.76,11.69-12.11,19.68-15.73
				c3.66-1.66,6.1-4.14,3.84-9.86c-4.83-12.24-11.34-23.65-16.33-35.78c-0.61-1.5-1.39-2.59-3.17-2.73
				c-3.61-0.29-4.49-1.78-2.06-4.77c0.85-1.05,0.46-2.25-0.25-3.25c-6.18-8.75-9.56-19.51-18.67-26.17
				c-1.07-0.78-2.06-1.56-2.2-3.13c-0.64-7.29-5.97-12.16-13.38-12.43c-1.33-0.05-3.61,0.77-3.49-1.44
				c0.09-1.76,2.31-1.43,3.76-1.51c0.66-0.04,1.33,0.08,2,0.08c1.11-0.01,2.47,0.47,3.03-0.98c0.42-1.08-0.43-1.84-1.04-2.62
				c-0.82-1.06-3.05-2.06-1.39-3.49c1.54-1.32,2.96,0.52,4.18,1.62c2.39,2.18,3.14,5.76,5.98,7.56c1.5-1.09,0.82-3.39,2.69-3.68
				c1.15-0.18,1.7,0.91,2.18,1.76c1.2,2.09-0.27,2.98-1.79,3.87c-1.33,0.78-0.98,1.78-0.49,2.99c2.2,5.41,3.86,11.09,9.76,14.02
				c1.18,0.59,1.79,2.34,2.64,3.56c3.15,4.5,5.53,9.42,7.95,14.33c1.25,2.54,3.21,4.16,5.89,1.68c4.71-4.35,7.72-10,10.68-15.52
				c1.89-3.53-2.61-6.18-2.98-9.63c-0.03-0.32-0.21-0.63-0.3-0.95c-3.34-12.01-6.8-23.97-9.54-36.14c-0.47-2.09,0.13-6.08-3.48-5.47
				c-3.55,0.61-1.41,4.09-1.6,6.34c-0.41,4.76,2.63,8.78,2.75,13.54c0.1,4.17-2.36,5.18-5.35,5.88c-3.29,0.77-4-1.7-4.26-4.13
				c-0.65-6.05-3.1-11.98-1.36-18.22c0.25-0.9,0.74-2.11-0.62-2.52c-1.18-0.36-1.91,0.73-2.24,1.57c-1.45,3.64-3.52,7.1-2.59,11.37
				c0.67,3.07,0.87,6.24,1.43,10.47c-3.6-4.19-3.6-4.2-10.14-4.65c-1.03-0.07-2.11-0.09-2.38-1.29c-0.21-0.92,0.48-1.58,1.24-1.96
				c5.41-2.69,6.5-8.22,8.2-13.11c1.9-5.48,3.88-7.31,9.73-6.67c6.2,0.68,12.33-0.15,18.41-0.96c5.81-0.77,8.76-5.85,6.14-10.9
				c-3.69-7.1-4.5-14.9-6.43-22.43c-1.37-5.31-2.23-10.67-2.67-16.19c-0.46-5.82-3.39-10.37-9.67-12.65
				c-8.76-3.17-11.95-11.97-16.71-18.94c-2.45-3.59-4.69-5.15-8.93-4.27c-3.06,0.63-5.59,2.09-8.04,3.81
				c-1.96,1.38-2.75,3.3-1.94,5.68c1.7,4.99,0.97,9.7-1.48,14.27c-1.75,3.26-2.13,6.79-2.7,10.45c-0.98,6.25,0.73,12.43-0.46,18.56
				c-1.13,5.78-0.48,11.63-0.36,17.41c0.08,3.72,1.42,7.11-1.78,10.44c-1.24,1.29-0.96,4.08,1.09,5.83c1.28,1.09,3.09,2.23,1.8,4.75
				c-3.33-1.68-5.49-4.46-7.04-7.51c-1.58-3.11-3.75-5.46-6.58-7.31c-15.39-10.01-31.72-15.19-50.15-9.82
				c-2.69,0.78-5.45,1.73-8.34,1.03c-1.34-0.33-2.56-1.01-2.42-2.69c0.1-1.19,1.09-1.93,2.08-1.66c6.15,1.67,11.76-1.39,17.64-1.85
				c11.52-0.89,22.7,0.74,33.36,5.52c1.15,0.52,2.59,1.55,4.2,0.5c-2.22-6.75-7.76-11.18-11.42-16.88
				c-5.2-8.09-10.69-16.12-19.72-20.68c-1.62-0.82-3.71-2.64-4.84-1.03c-1.4,1.99,1.19,3.3,2.6,4.58c0.36,0.33,0.88,0.49,1.26,0.81
				c5.29,4.35,9.99,9.26,14.28,14.6c2,2.49,0.66,4.62-1.01,6.13c-1.55,1.39-3.44,1.04-4.02-1.51l-0.11,0.09
				c2.23-0.14,4.63-0.54,2.34-3.38c-5.23-6.5-11.21-12.27-18.19-16.91c-2.02-1.34-4.12-1.14-5.74,0.95
				c-5.43,7.02-7.94,7.38-15.7,3.39c-6.57-3.37-13.19-6.73-20.56-8.51c1.48,4.18,6.11,6.44,5.92,11.3
				c-0.08,2.01,0.26,4.19-1.94,5.24c-1.81,0.87-3.51,0.18-5.12-0.97c-2.57-1.84-5.11-3.77-7.89-5.25
				c-4.36-2.33-6.44-5.77-7.19-10.65c-0.73-4.76-2.42-9.33-5.83-13.04c-1.57-1.7-3.66-3.46-4.15-5.52
				c-1.27-5.34-5.54-5.81-9.47-7.87c-5.13-2.69-11.81-3.75-14.61-10c-0.42-0.94-0.71-1.96-2-1.76c-1.18,0.18-1.55,1.11-1.7,2.16
				c-0.64,4.58-3.45,7.79-6.75,10.69c-3.66,3.22-5.52,7.15-5.99,12.13c-0.79,8.42-1.91,16.81-4.65,24.94
				c-1.1,3.27-0.52,7.16,1.12,10.16c7.16,13.08,5.82,27.48,6.92,41.51c0.02,0.32-0.07,0.68-0.21,0.97
				c-2.29,5.04-0.25,9.46,2.16,13.68c1.55,2.71,3.68,5.07,5.48,7.64c4.65,6.64,8.82,13.67,14,19.86c7.2,8.6,15.53,16.27,20.51,26.58
				c0.73,1.52,2.4,3.02,4.01,2.13c1.69-0.93,0.41-2.77-0.36-3.92c-5.37-8.01-9.69-16.61-14.3-25.05c-4.28-7.84-6.03-16.55-8.8-24.91
				c-0.45-1.35-0.21-2.81,1.44-3.2c1.54-0.36,1.87,0.97,2.21,2.12c0.94,3.18,1.88,6.35,2.86,9.52c3.42,11.03,8.98,20.98,14.52,31.08
				c6.2,11.29,15.82,20.54,19.3,33.44c2.52,9.35,9.85,16.4,13.04,25.59c1.78,5.12,4.12,10.26,8.08,14.25
				c6.26,6.31,11.35,13.48,15.01,21.5c3.5,7.68,5.93,15.81,7.32,24.18c0.23,1.41-1.84,3.36,0.79,4.15c2.06,0.62,3.91-0.18,5.34-1.86
				c3.36-3.93,7.87-5.33,12.81-5.75c1.49-0.13,2.91-0.28,4.33-0.95c6.23-2.92,12.8-3.16,19.4-1.75c1.38,0.29,2.44,0.83,3.6-0.25
				c3.34-3.11,8.33-2.05,11.9-4.72c0.93-0.7,2.37-0.66,2.44,1.19c0.06,1.58-6.45,7.5-7.95,7.17c-1.25-0.27-2.64-1.32-3.5,0.38
				c-0.76,1.51,0.78,2.37,1.46,3.44c0.83,1.3,2.05,2.13,3.45,2.78c7.19,3.34,14.16,7.06,21.99,8.97
				C1134.78,884.74,1142.77,885.57,1150.35,880.56z M1061.36,931.73c3.54-1.11,2.81-2.92,0.95-5.13c-2.79-3.31-5.84-6.53-6.25-11.2
				c2.54,2.8,4.81,5.78,6.99,8.83c1.02,1.42,1.75,4,3.93,2c1.69-1.55-0.5-2.76-1.43-4.04c-1.36-1.89-4.31-3.09-3.35-6.29
				c1.38,0.09,1.48,1.06,1.94,1.7c0.96,1.34,1.88,2.88,3.83,2.7c0.45-0.04,1.06-0.83,1.18-1.38c0.47-2.05-0.39-3.7-2.22-4.54
				c-2.71-1.24-3.06-3.94-4.91-6.6c3.33,0.99,5.88,1.74,8.81,2.61c-0.74-3.74-1.17-6.29-5.45-7.04c-2.8-0.49-5.77-2.93-6.73-7.05
				c2.77,0.76,3.85,2.66,5.23,4.2c1.56,1.74,3.94,2.15,5.22,0.64c1.14-1.34-0.65-3.11-2.09-3.91c-2.11-1.17-5.16-3.38-4.3-4.75
				c1.78-2.83-0.98-4.43-0.82-6.64c3.32,0.52,6.58-1.84,9.58,0.97c0.56,0.53,1.27-1,0.77-2.11c-0.43-0.97-2.32-0.91-1.71-2.81
				c1.9,0.06,3.38,0.74,5.52-1.59c2.41-2.61,2.72-6.7,6.24-8.3c0.89-0.4,1.7-1.33,1.33-2.43c-0.48-1.41-1.82-1.3-2.97-1.09
				c-5.53,1-11.06,2.06-16.21,4.4c-2.54,1.15-5.3,2.14-7.4,3.88c-5.49,4.56-8.93,3.76-10.66-3.13c-1.17-4.67-5.11-2.61-7.78-3.35
				c-2.39-0.66-2.79,1.54-2.99,3.52c-0.64,6.34-3.15,11.67-9.18,14.48c-2.83,1.32-6.06,1.76-9.05,2.78
				c-4.8,1.63-7.89,7.4-6.25,11.53c5.02,12.66,12.22,23.87,22.27,33.15c0.8,0.74,1.52,1.88,3.31,0.86
				c-1.72-4.09-5.39-7.56-4.97-12.49c3.44,4.3,5.1,9.88,11.09,13.22c-2.32-4.61-4.14-8.43-4.95-12.61
				c-0.14-0.72-1.05-2.08-0.08-1.97c4.2,0.48,4.84-3.73,7.58-5.76c2.76,5.91,5.08,11.58,9.99,15.66c2.71,2.25,4.57,2.48,6.11-0.99
				L1061.36,931.73z M885.48,491.43c-0.67-0.99-1.11-1.35-1.16-1.76c-1.17-8.95-5.45-15.75-13.44-20.25
				c-2.13-1.2-4.04-2.99-5.65-4.86c-2.01-2.32-2.99-2.65-5.12,0.22c-4.33,5.83-7.5,12.48-12.84,17.61c-1.86,1.79-1.82,4.6-0.95,7.08
				c2.39,6.77,8,11.19,12.28,16.58c0.7,0.88,1.64,1.25,2.53,0.26c3.44-3.8,3.9-0.91,4.94,1.95c4.33,11.81,10.02,22.64,20.99,29.89
				c11.24,7.44,22.14,15.31,30.48,26.22c2.96,3.86,7.26,5.76,12.29,5.52c4.96-0.24,9.16,1.51,13.65,3.71
				c7.58,3.72,14.67,8.24,22.12,12.14c3.59,1.88,7.46,4.66,7.56,8.39c0.07,2.7,0.25,4.26,2.31,5.55
				c9.1,5.67,13.65,14.71,16.96,24.23c2.28,6.55,3.03,13.48,10.81,16.38c2.03,0.76,3.51,4.92,5.93,2.12
				c1.86-2.15-1.21-4.35-2.65-6.25c-0.6-0.79-1.34-1.5-2.13-2.1c-1.61-1.21-3.53-2.31-3.48-4.57c0.06-3.13-0.78-5.86-2.47-8.46
				c-0.76-1.16-0.97-2.63,0.31-3.63c1.31-1.01,2.91-0.37,3.54,0.68c1.76,2.94,5.7,4.23,6.08,8.18c0.14,1.52,1.2,2.53,2.65,2.53
				c3.56,0,6.27,2.02,9.21,3.53c1.32,0.68,3.22,2.05,4.12,1.03c2.99-3.4,4.03,0.06,5.58,1.32c0.99,0.8,1.49,2.19,2.44,3.07
				c1.65,1.54,3.74,1.87,5.38,0.25c1.66-1.64,0.84-3.3-0.86-4.63c-4.19-3.27-8.27-6.79-13.67-7.9c-4.25-0.87-6.57-4.35-9.66-6.78
				c-0.64-0.5-0.95-1.47-0.47-2.26c0.52-0.84,1.67-0.97,2.14-0.29c3.45,4.88,9.11,6.32,14.06,8.32c5.86,2.37,10.99,8.45,18.52,5.06
				c0.71-0.32,1.71-0.09,2.01-1.1c0.32-1.12-0.26-1.93-1.1-2.56c-4.61-3.47-9.26-6.9-15.09-8.05c-2.41-0.48-4.31-1.69-5.96-3.42
				c-4.42-4.63-7.09-10.93-13.32-13.85c-0.67-0.31-1.28-1.3-0.51-2.07c0.34-0.34,1.35-0.45,1.78-0.2c4.41,2.52,9.37,4.01,12.66,8.5
				c2.12,2.89,4.82,5.85,9.05,6.07c3.76,0.2,7.63-0.49,11.12,1.77c1.41,0.92,2.52-0.07,3.2-1.39c0.44-0.86,0.98-2.66,0.18-2.56
				c-4.73,0.56-5.93-4.12-9.16-5.74c-11.01-5.55-18.01-15.38-25.55-24.6c-2.16-2.64-0.22-3.61,2.02-3.9
				c4.3-0.55,6.85,2.34,8.71,5.48c2.3,3.88,5.44,5.5,9.75,5.3c1.27-0.06,2.87,0.46,3.55-1.09c0.75-1.72,0.07-3.63-1.21-4.54
				c-5.49-3.9-7.69-11.13-14.55-13.73c-4.99-1.89-8.79-7.75-14.73-6.01c-5.23,1.53-10.86,2.4-15.46,6.03
				c-1.79,1.41-6.46,2.49-6.6,2.18c-2.17-4.52-7.42-3.83-10.52-6.71c-7.53-7.01-16.48-12.51-22.97-20.6
				c-4.71-5.88-9.54-11.6-12.91-18.64c-4.54-9.46-9.68-18.84-19.6-24.41c-3.26-1.83-7.21-3.31-9.5-6.26
				c-6.37-8.21-16.96-7.59-24.88-12.52c-2.19-1.36-3.78,0.28-2.77,3.13C886.24,486.23,886.74,488.47,885.48,491.43z M1095.05,643.67
				c9.42-1.49,6.89-7.92,6.52-13.41c-0.06-0.93-0.87-2.22,0.35-2.67c6.18-2.28,4.31-7.46,4.4-11.9c0.03-1.55-0.4-3.13-2.31-3.31
				c-1.56-0.14-2.44,0.76-2.58,2.38c-0.17,2.12-1.36,2.21-2.6,0.95c-1.47-1.5-5.28-0.85-4.78-3.49c0.58-3.1,3.87-1.38,6.01-1.67
				c0.66-0.09,1.33-0.18,1.99-0.17c2.61,0.03,4.82-0.75,5.02-3.67c0.24-3.37-2.57-3.53-4.85-3.64c-7.79-0.39-15.59-0.58-23.39-0.89
				c-5.53-0.22-10.96-1.32-15.89-3.75c-8.77-4.32-17.58-8.19-27.6-8.19c-1.14,0-2.6-0.59-3.29,0.48c-0.91,1.43,0.49,2.49,1.36,3.39
				c5.36,5.65,12.02,9.03,19.36,11.47c4.42,1.47,9.21-0.58,13.4,1.96c0.97,0.59,2.5,0.73,2.14,2.24c-0.38,1.59-1.96,1.27-2.92,0.86
				c-3.98-1.72-6.46-0.11-8.58,3.2c-0.91,1.41-2.31,2.62-1.7,4.41c0.67,1.97,2.51,1.64,4.19,1.82c3.38,0.35,7.53,0,9.89,1.83
				c3.02,2.34,5.91,3.13,9.42,3.61c4.87,0.66,9.66,1.89,15.04,2.99c-2.39,1.55-4.52,1.39-6.59,1c-9.25-1.76-18.65-2.72-27.79-5.15
				c-2.46-0.65-6.33-3.41-7.36-0.36c-1.07,3.17,3.58,4.02,6.15,5.34c0.86,0.44,1.89,0.74,2.85,0.78c5.44,0.25,10.39,2.25,15.26,4.35
				c2.02,0.87,3.37,0.7,5.47,0.02c5.01-1.63,10.31-2.14,16.2-0.16c-2.74,2.2-4.92,0.83-6.96,1.03c-2.27,0.22-4.73-0.65-6.68,1.19
				c-0.89,0.84-2.92,0.84-2.49,2.63c0.33,1.37,1.93,0.95,2.99,1.27c1.9,0.57,4.19,0.31,6.13,2.64c-3,0-5.28,0.11-7.54-0.03
				c-2.82-0.17-5.51-1.27-6.4-4c-1.08-3.29-3.61-2.94-5.98-3.3c-0.81-0.12-1.73-0.15-2.16,0.76c-0.41,0.88,0.03,1.75,0.66,2.24
				c4.11,3.13,6.72,8.99,13.67,7.04c1.35-0.38,4.91-1.55,4.94,1.05c0.02,2.23-3.25,1.22-5.13,1.33c-1.16,0.07-2.51-0.16-3.04,1.16
				c-0.51,1.29,0.63,2.09,1.33,3.01c2.51,3.31,5,6.65,7.48,9.99c0.82,1.11,1.11,3.29,3.1,2.35c1.7-0.81,0.84-2.62,0.66-4.06
				c-0.43-3.3-0.88-6.59-1.24-9.9c-0.09-0.87,0.34-1.73,1.29-1.87c1.05-0.15,1.51,0.71,1.46,1.57c-0.43,7.53,3.68,14.6,2.19,22.24
				c-0.16,0.8-0.14,1.69,0.05,2.48c0.44,1.92,1.5,3.68,3.65,3.34c2.02-0.32,1.29-2.31,1.32-3.75c0.16-7.65-0.61-15.32,0.38-22.96
				C1102.41,644.79,1102.35,644.78,1095.05,643.67z M1075.03,1026.12c6.56,5.02,7.35,6.87,6.33,13.33
				c-0.09,0.56,0.26,1.56,0.68,1.77c3.33,1.59,3.48,8.99,9.72,5.36c0.35-0.2,1.22,0.35,1.78,0.67c8.18,4.66,16.49,8.5,26.14,4.31
				c0.52-0.23,1.33-0.03,1.93,0.18c1.53,0.53,3.03,0.82,3.85-0.96c0.78-1.7-0.57-2.75-1.55-3.86c-1.81-2.05-3.62-2.84-5.78-0.37
				c-0.99,1.14-2.35,1.76-3.94,1.92c-10.64,1.11-20.73-4.63-25.04-14.37c1.73-0.19,4.29,2.03,4.95-1.16
				c0.52-2.51-1.98-2.69-3.62-3.24c-4.6-1.53-8.6-4.13-12.66-6.68c-1.27-0.79-2.19-3.13-4.15-1.91c-1.8,1.12-2.16,3.38-2.39,5.28
				c-0.35,2.86,5.31,8.79,8.45,9.27C1080.33,1031.63,1075.61,1030.29,1075.03,1026.12z M896.95,1031.09
				c-1.94-3.77-3.63-7.48-5.69-10.98c-2.69-4.57-5.57-9.03-8.57-13.4c-1.06-1.55-2.88-2.64-4.75-1.26c-1.9,1.4-0.56,2.93,0.35,4.32
				c1.18,1.81,2.36,3.62,3.52,5.45c2.27,3.57,0.93,7.31-0.8,10.18c-1.65,2.73-11.9,1.23-14.01-1.51c-0.5-0.66-0.82-1.46-1.35-2.09
				c-0.76-0.87-1.76-1.97-2.91-1.09c-1.28,0.97-0.33,2.29,0.48,2.98c2.3,1.95,3.79,4.67,5.84,6.61c2.02,1.9,6.56,3.89,8.23,2.89
				c5.57-3.32,8.58,0.21,12.4,2.77c3.83,2.57,6.65,6.23,11.2,10c-2.42-4.94-6.16-7.27-7.68-11.17c-0.57-1.47-2.56-2.78-1.26-4.41
				C893.68,1028.23,894.43,1032.04,896.95,1031.09z M1031.52,869.48c2.25-2.89,4.07-2.83,6.08-2.87c4.93-0.1,6.98-3.02,5.33-7.59
				c-1.86-5.13-4.08-10.12-6.24-15.13c-0.91-2.1-2.15-3.02-3.83-0.48c-2.66,3.99-5.21,8.08-8.18,11.84c-2.75,3.48-2,5.31,1.79,7.22
				C1028.75,863.62,1032.82,863.51,1031.52,869.48z M886.34,1003.25c0.97,5.34,4.49,8.6,6.66,12.54c5.14,9.3,11.63,17.7,17.73,26.36
				c0.87,1.23,1.93,2.66,3.62,1.41c1.33-0.98,0.76-2.29-0.04-3.52c-6.96-10.62-13.91-21.24-20.8-31.91
				C891.89,1005.64,889.61,1004.36,886.34,1003.25z M925.26,1068.26c2.45,0.8,5.32,0.69,4.91,4.5c-0.14,1.29,1.98,1.76,3.27,1.2
				c2.96-1.31,4.11,0.5,5.51,2.57c2.12,3.13,3.58,6.81,6.81,9.06c1.6,1.12,3.88,2.54,5.43,0.94c2.03-2.1-0.83-3.28-1.86-4.76
				c-2.39-3.43-6.35-6.4-7.48-9.85c-1.47-4.49-4.34-6.43-7.7-7.9C930.55,1062.43,927.47,1064.33,925.26,1068.26z M1118.1,1088.79
				c7.09-1.66,16.02-2.74,24.06-7.01c0.95-0.5,1.65-1.25,1.32-2.38c-0.32-1.1-1.34-1.58-2.35-1.45c-1.63,0.21-3.25,0.61-4.82,1.1
				c-10.06,3.12-19.99,7.08-30.85,3.65c-1.33-0.42-2.75-0.06-3.06,1.67c-0.27,1.49,0.82,1.93,2.02,2.32
				C1108.34,1087.99,1112.35,1088.74,1118.1,1088.79z M1100.78,965.26c2.27,0.49,4.39,0.08,6.53-0.23c1.89-0.28,4.51,0.26,4.13-2.83
				c-0.33-2.67-2.73-1.87-4.42-1.81c-9.11,0.32-18.12,0.24-26.06-5.28c-0.87-0.6-2.06-0.84-2.65,0.18
				c-0.85,1.44,0.04,2.54,1.33,3.24C1086.29,962.13,1092.66,966.62,1100.78,965.26z M1101.23,886.27c-1.91-2.42-4.46-2.48-6.59-3.48
				c-1.97-0.92-3.48-0.74-4.85,0.86c-0.94,1.09-0.7,2.22,0.26,3.07c1.43,1.26,2.96,3.58,5,2.16c3.26-2.27,6.31-1.03,9.11,0.12
				c2.41,0.99,5.72,0.46,5.59-0.69c-0.32-2.96,3.2-5.78,0.81-8.09c-1.44-1.39-4.62-4.94-5.68-2.83
				C1103.58,879.99,1098.94,881.54,1101.23,886.27z M1079.53,894.8c6.2,6.05,12.79,11.66,20.61,15.57c1.96,0.98,5.15,2.18,6.31-0.32
				c1.44-3.11,3.42-6.7,1.06-10.41c-0.63-1-1.75-1.48-2.39-0.38c-2.28,3.91-4.39,2.21-6.69,0.09c-0.82-0.75-1.98-0.83-2.55,0.23
				c-0.47,0.89,0.5,1.32,1.17,1.85c2.77,2.18,5.46,4.46,8.18,6.7c-0.24,0.39-0.49,0.77-0.73,1.16
				C1095.34,906.02,1088.43,898.73,1079.53,894.8z M1108.55,970.82c-0.21-1.13-0.66-1.99-1.93-1.8c-2.64,0.39-5.16-0.77-7.91-0.22
				c-4.32,0.86-8.56-0.13-12.53-2.07c-1.79-0.87-4.05-3.73-5.39-1.12c-1.19,2.32,2.34,3.34,4.15,4.57c0.38,0.26,1.04,0.11,1.43,0.37
				c5.14,3.4,11.65,1.22,17.05,4.44C1105.96,976.5,1107.42,973.08,1108.55,970.82z M1142.45,898.76c-2.48-2.4-4.95-4.8-7.48-7.13
				c-0.06-0.05-1.3,0.74-1.32,1.18c-0.24,3.96-3.06,3.13-5.49,3.09c-3.48-0.05-6.96,0.08-10.3-1.25c-1.08-0.43-2.44-0.75-2.9,0.81
				c-0.41,1.37,0.66,2.25,1.76,2.62c1.55,0.52,3.32,0.46,4.82,1.08c6.08,2.5,12.75-1.6,18.79,1.83
				C1141.45,901.62,1142.09,899.88,1142.45,898.76z M1100.45,917.53c1.21-0.18,2.71,0,2.99-1.37c0.3-1.5-1.24-1.71-2.27-2.13
				c-7.86-3.23-15.12-7.43-21.38-13.24c-0.88-0.82-1.78-2.64-3.17-1.31c-1.45,1.38-0.13,2.91,1,3.77c5.27,3.98,10.65,7.82,16,11.71
				C1095.67,916.46,1098.05,917.12,1100.45,917.53z M1119.26,908.61c-2.66,0-4.31-0.09-5.95,0.04c-0.84,0.06-1.48,0.69-1.65,1.61
				c-0.17,0.93,0.2,1.8,1.01,2.04c6.04,1.77,12.3,1.86,18.51,1.92c1.5,0.02,2.49-1.72,2.2-3.38c-0.25-1.44-1.64-1.58-2.8-1.38
				C1126.39,910.2,1122.41,908.05,1119.26,908.61z M964.73,930.34c-0.54,0.4-1.08,0.8-1.62,1.19c5.82,8.88,11.09,18.21,19.49,25.03
				c0.55-0.43,1.1-0.87,1.65-1.3C977.75,946.95,971.24,938.64,964.73,930.34z M1141.25,1074.19c6.02,0.03,6.5-0.66,4.53-5.1
				c-1.08-2.43-2.3-4.79-3.36-7.23c-0.66-1.52-1.55-2.87-3.32-2.13c-2.01,0.83-1.93,2.54-0.79,4.13c1.35,1.9,2.1,3.86,0.76,6.01
				C1136.36,1074.24,1139.45,1074.11,1141.25,1074.19z M1112.87,933.32c3.56,1.33,7.32-1.26,11.08,0.25
				c0.97,0.39,1.97-0.31,2.04-1.53c0.07-1.2-0.74-1.77-1.85-1.87c-5.41-0.46-10.83-0.92-16.24-1.32c-1.4-0.1-2.72,0.2-2.85,1.97
				c-0.14,1.91,1.1,2.72,2.73,2.79C1109.42,933.69,1111.07,933.44,1112.87,933.32z M989.02,911.82c-0.46,0.33-1,0.52-1.17,0.89
				c-0.39,0.84,0.1,1.52,0.58,2.24c2.89,4.38,6.11,8.53,8.6,13.2c1.47,2.74,3.62,5.12,5.47,7.66c0.62,0.85,1.45,1.56,2.51,1
				c1.19-0.64,0.78-1.65,0.17-2.53c-5.01-7.16-10.02-14.31-15.05-21.45C989.87,912.45,989.45,912.19,989.02,911.82z
				 M1071.08,1049.93c-3.52-3.83-6.95-7.75-10.62-11.43c-1.24-1.24-3.16-1.24-4.5,0.14c-1.39,1.43-0.39,3.04,0.69,3.9
				C1060.83,1045.85,1064.97,1049.32,1071.08,1049.93z M1099.6,942.08c0.24,2.65,1.11,5,3.21,5.43c4.19,0.86,8.52,1.13,12.81,1.25
				c1.62,0.05,3.42-1.21,3.14-3.18c-0.29-2.06-2.06-0.72-3.23-0.87C1110.3,944.03,1104.79,945.3,1099.6,942.08z M951.7,965.52
				c0.38,4.39,6.61,12.1,10.2,12.84c1.35,0.28,2.79-0.09,2.49-1.46c-0.52-2.44,2.42-4.77,0.15-7.04c-0.81-0.81-1.57-0.01-1.72,0.91
				c-0.76,4.88-3.09,2.1-4.69,0.82C955.86,969.78,953.88,967.62,951.7,965.52z M1107.34,1021.62c-0.14,2.56,2.78,3.93,1.11,5.65
				c-1.64,1.7-3.7,0.17-5.53-0.39c-0.93-0.29-1.82-0.79-2.77-0.91c-0.49-0.06-1.28,0.37-1.55,0.81c-0.43,0.7,0.26,1.22,0.8,1.56
				c3.94,2.43,8.26,3.17,12.81,2.73c1.14-0.11,1.97-1.01,1.58-2.04C1112.62,1025.94,1111.68,1022.52,1107.34,1021.62z
				 M986.77,940.21c-2.04-7-7.72-10.67-10.86-16.09c-0.56-0.97-1.23-2.49-2.55-1.64c-1.48,0.95-0.59,2.42,0.22,3.46
				C977.43,930.87,980.28,936.71,986.77,940.21z M1092.87,942.91c1.33-0.14,2.86-0.23,3.32-1.69c0.53-1.71-1.11-2.18-2.2-2.82
				c-3.14-1.84-7.13-1.45-10.12-3.79c-0.29-0.23-1.4,0.11-1.69,0.51c-0.27,0.37-0.19,1.39,0.14,1.75
				C1085.18,939.99,1088.55,942.29,1092.87,942.91z M992.58,955.09c-3.47-6.17-8.69-10.73-14.17-15.04
				C982.04,946.07,985.38,952.37,992.58,955.09z M1052.89,349.75c0.06,0.98,0.13,1.77,0.16,2.56c0.06,1.55,0.16,3.45,2.21,3.08
				c2.01-0.37,1.53-2.3,1.09-3.72c-0.58-1.9-1.28-3.76-2.06-5.59c-0.43-1.02-0.7-2.46-2.14-2.44c-1.53,0.02-1.51,1.52-1.89,2.57
				c-0.28,0.78-0.54,1.57-0.77,2.37c-0.38,1.35-2.22,3.03-0.64,3.99C1051.16,353.96,1050.58,350.35,1052.89,349.75z M1120.84,920.46
				c0.06-0.54,0.13-1.07,0.19-1.61c-4.38-1.88-8.83-3.48-13.86-2.27c-0.56,0.13-1.23,0.63-1.47,1.14c-0.29,0.63,0.14,1.45,0.84,1.52
				C1111.3,919.69,1116.07,920.06,1120.84,920.46z M1090.08,988.63c0.4-0.35,2.95,2.49,3.59-0.45c0.61-2.78-1.92-2.8-3.79-3.44
				c-1.36-0.46-2.45-1.67-3.78-2.27c-1.27-0.58-3.5,0.59-2.82,1.06C1085.6,985.12,1082.98,991.83,1090.08,988.63z M1080.61,910.97
				c3.68,5.22,9.2,8.17,14.41,11.5c1.03,0.66,2.69,1.32,3.47-0.31c0.66-1.38-0.66-2.1-1.79-2.44
				C1090.73,917.92,1086.12,913.77,1080.61,910.97z M943.27,966.06c1.29,6.64,7.56,10.03,9.25,16.32c0.3,1.14,1.94,1.23,2.98,0.3
				c1.17-1.03,0.57-2.13-0.23-3.04C951.29,975.09,947.28,970.58,943.27,966.06z M1108.63,952.1c-1.02,0-1.85-0.01-2.67,0
				c-1.79,0.03-4.06-0.33-3.83,2.44c0.2,2.47,2.17,2.51,4.12,2.17c0.65-0.11,1.3-0.23,1.96-0.25c2.28-0.08,5.55,0.24,5.48-2.62
				C1113.62,950.75,1110.25,952.75,1108.63,952.1z M1007.83,921.72c-2.43-4.26-4.86-8.52-7.3-12.78c-0.59-1.02-1.27-2.26-2.64-1.47
				c-1.05,0.6-0.57,1.83-0.18,2.72C999.85,915.04,1003.41,918.76,1007.83,921.72z M914.01,1010.35c-0.6,0.25-1.16,0.32-1.43,0.64
				c-0.46,0.56-0.39,1.31,0.19,1.75c2.5,1.86,4.92,3.89,7.62,5.41c1.5,0.84,2.83-0.46,3.44-1.96c0.62-1.52-0.07-2.69-1.54-3.08
				C919.46,1012.34,916.37,1012.46,914.01,1010.35z M1125.1,316.15c-1.08-2.46-3.08-4.16-5.75-4.66c-1.62-0.31-2.3,1.15-1.96,2.64
				c0.54,2.33,0.59,5.25,3.96,5.37C1123.33,319.57,1124.79,318.52,1125.1,316.15z M1126.6,892.59c-2.34-3.61-4.93-5.24-8.43-5.58
				c-1.24-0.12-2.6-1.33-3.28,0.61c-0.69,1.97,0.88,2.53,2.27,3.16C1119.92,892.03,1122.91,891.89,1126.6,892.59z M1122.82,1069.26
				c-1.27-0.51-2.9-0.67-2.29,0.59c1.19,2.49,3.45,4.27,6.34,4.8c1.21,0.22,2.76-0.24,2.47-1.58
				C1128.57,1069.46,1125.55,1069.12,1122.82,1069.26z M917.38,1006.43c1.74-0.02,4.22,0.22,3.97-1.9
				c-0.44-3.73-4.34-2.79-6.77-3.81c-0.99-0.42-2.55-0.21-2.22,0.91C913.06,1004.04,914.66,1005.99,917.38,1006.43z M1100.47,325.24
				c-0.66-1.2,1.44-4.74-1.62-4.25c-2.55,0.41-1.67,4.16-2.08,6.46c-0.21,1.2,0.45,2.44,1.96,2.23
				C1101.32,329.32,1101.28,327.56,1100.47,325.24z M927.93,1055.99c1.62,0.09,2.59-0.54,2.54-1.94c-0.08-2.37-1.57-3.57-3.85-3.74
				c-1.31-0.1-3.27-0.23-3.28,1.35C923.32,1054.5,926.42,1054.64,927.93,1055.99z M958.61,949.63c-1.48,0.14-1.63,1.26-1.1,2.13
				c1.72,2.83,3.6,5.56,5.49,8.28c0.38,0.55,1.12,0.76,1.73,0.19c0.56-0.52,0.59-1.31,0.12-1.79c-2.38-2.38-4.08-5.19-5.44-8.23
				C959.29,949.96,958.89,949.83,958.61,949.63z M1102.64,1075.28c-1.4-1.83-2.89-3.82-5.57-4.18c-1.1-0.15-2.34,0.58-1.73,1.62
				c1.3,2.2,3.01,4.31,5.7,4.85C1102.08,1077.77,1102.65,1076.62,1102.64,1075.28z M988.36,932.86c1.14,3.21,2.87,5.61,4.55,8.02
				c0.5,0.72,1.17,1.38,2.04,0.85c1.13-0.68,0.84-1.75,0.13-2.54C993.12,937.04,992.18,933.89,988.36,932.86z M1090.8,1015.75
				c-1.57-0.05-2.63,0.01-2.84,0.87c-0.33,1.4,0.87,1.53,1.89,1.57c1.16,0.05,2.37-0.16,3.25,0.85c0.44,0.5,0.69,1.24,1.21,1.56
				c1.16,0.7,2.97,2.23,3.13-0.58c0.11-1.94-2.28-2.11-3.69-2.88C1092.61,1016.5,1091.39,1016.02,1090.8,1015.75z M1062.32,354.58
				c-0.53-1.39-0.45-3.62-2.55-3.57c-1.32,0.03-1.8,1.8-1.85,3.15c-0.07,1.59,0.42,3.13,2.27,3.25
				C1061.95,357.52,1062.21,356.06,1062.32,354.58z M1068.82,1021.2c-0.23-1.45-0.94-2.58-2.38-2.75c-1.74-0.2-2.74,0.87-2.92,2.55
				c-0.16,1.49,0.54,2.7,2.12,2.61C1067.08,1023.53,1068.51,1022.96,1068.82,1021.2z M1049.67,620.6c-1.73-3.21-4.89-3.41-6.83-5.14
				c-0.22-0.19-1.31,0.22-1.66,0.63c-0.63,0.77-0.25,1.79,0.57,1.99C1044.2,618.69,1046.22,620.71,1049.67,620.6z M1088.69,953.27
				c2.56,1.32,5.01,2.54,7.4,3.9c0.88,0.5,1.93,0.44,2.66-0.46c0.49-0.61,0.21-1.69-0.22-1.63
				C1094.99,955.63,1092.4,951.8,1088.69,953.27z M1087.81,946.51c2.27,1.17,4.49,2.44,6.83,3.46c0.85,0.37,2.13,0.19,2.38-1.07
				c0.25-1.28-0.9-1.93-1.81-1.77C1092.64,947.58,1090.69,945.3,1087.81,946.51z M919.84,1085.67c0.79,2.27,1.76,3.5,3.47,4
				c1.44,0.42,3.24,0.84,3.83-0.9c0.76-2.26-1.43-1.96-2.7-2.26C923.06,1086.18,921.65,1085.99,919.84,1085.67z M1082.66,975.91
				c-1.91,1.08-4.18,2.15-4.93,4.67c-0.24,0.81,1.04,1.58,1.68,1.1c1.93-1.42,3.78-3.01,5.36-4.8
				C1085.13,976.47,1083.75,975.94,1082.66,975.91z M1061.59,343.71c1.55,3.59,3.03,6.18,3.39,10.27
				C1067.03,346.7,1066.81,346.04,1061.59,343.71z M1077.52,938.35c-1.27-1.53-2.97-2.68-5.06-3.08c-0.77-0.14-1.07,0.76-0.9,1.39
				c0.55,2.07,1.89,3.41,4.1,3.56C1076.7,940.3,1077.59,939.89,1077.52,938.35z M947.18,1096.22c0.97-0.09,2.14-0.39,1.83-1.25
				c-0.66-1.84-2.27-3.03-4.06-3.75c-0.82-0.33-1.78,0.39-1.67,1.26C943.58,1094.73,945.47,1095.5,947.18,1096.22z M974.6,973.72
				c-0.64-1.03-1.45-2.34-3.1-2.48c-1.21-0.1-1.79,0.93-1.68,1.96c0.22,2.07,1.86,2.55,3.58,2.58
				C974.35,975.79,974.76,975.01,974.6,973.72z"/>
			<path d="M990.63,1076.82c9.78,0.82,19.49,2.08,29.05,4.43c1.44,0.35,2.98,0.26,4.46,0.47c3.94,0.56,5.17-0.79,4.02-4.78
				c-1.39-4.85,0.18-6.59,5.06-6.12c12.73,1.23,25.11,4.1,37.28,8.01c1.7,0.55,3.77,1.06,5.38,0.6c5.48-1.58,9.23,1.82,13.38,4.1
				c2.31,1.28,2.82,3.44,1.45,5.53c-1.48,2.25-3.1,0.49-4.7-0.32c-4.72-2.38-9.72-3.45-14.95-4.49c-8.44-1.68-16.91-3.51-25.3-5.55
				c-2.43-0.59-4.83-1.33-7.28-1.75c-2.18-0.38-3.76,0.13-4.2,2.89c-1.24,7.66-2.8,8.75-10.53,7.35c-7.69-1.4-15.36-2.93-22.99-4.64
				c-5.1-1.14-10.23-1.25-15.4-1.39c-1.87-0.05-4.08-0.21-3.75-2.8c0.29-2.24,2.4-1.82,4.04-1.76
				C987.3,1076.65,988.96,1076.74,990.63,1076.82z"/>
			<path d="M845.87,1074.32c-7-2.03-14.39,3.32-22.07-0.23c-4.62-2.14-6.48-6.08-3.39-10.14c1.57-2.06,3.56-3.59,6.11-4.07
				c6.05-1.14,12.1-2.71,18.21-3.04c7.56-0.4,14.84-1.75,22.06-3.78c1.56-0.44,3.66-1.38,4.31,0.77c0.74,2.43-1.88,2.21-3.25,2.76
				c-10.09,4.09-20.76,4.6-31.41,4.47c-4.03-0.05-6.88,2.06-10.18,3.37c-1.52,0.6-2.07,2.13-1.54,3.8c0.69,2.18,2.24,3.27,4.51,3.21
				c6.98-0.19,13.98-0.21,20.94-0.71c5.39-0.38,10.65,0.43,15.91,1.1c4.68,0.6,6.21,4.1,3.92,8.37c-0.65,1.21-1.64,2.29-0.55,3.57
				c1.05,1.24,2.49,0.71,3.72,0.24c9.53-3.62,19.38-1.63,29.11-1.62c1.15,0,2.6,0.28,2.61,1.74c0.01,1.61-1.59,1.51-2.65,1.56
				c-6.48,0.34-12.96,0.62-19.44,0.83c-3.48,0.11-6.89-0.05-10.29,1.36c-2.78,1.15-5.64-0.2-8.03-1.75
				c-2.51-1.63-1.46-3.81-0.07-5.61c2.46-3.18,0.92-4.23-2.22-4.98C856.95,1074.31,851.72,1073.5,845.87,1074.32z"/>
			<path d="M1028.87,212.64c0.44-3.27,2.76-4.62,5-5.96c15.68-9.36,32.24-13.04,50.53-9.34c13.86,2.81,26.07,8.8,34.41,19.74
				c6.34,8.32,12.07,18.06,10.61,29.72c-0.15,1.24,0.43,3.18-1.24,3.35c-2.1,0.21-0.92-1.93-1.41-2.92
				c-1.64-3.32-3.9-6.18-7.55-7.47c-3.38-1.19-1.71-3.89-1.69-5.89c0.03-2.69,1.5-1.29,2.98-0.88c3.01,0.82,2.33-1.43,1.88-3
				c-2.31-8.14-7.22-14.53-13.91-19.46c-10.76-7.94-23.69-11.41-36.34-12.06c-8.64-0.44-18.64-0.51-26.9,5.15
				C1040.14,207.12,1034.15,209.15,1028.87,212.64z"/>
			<path d="M1119.29,268.73c-2.63-0.29-4.91,3.84-6.36,0.72c-0.86-1.85,3.07-2.12,4.63-3.45c1.8-1.53,4.9-1.76,4.73-5.07
				c-0.08-1.45-0.9-2.79-2.31-2.88c-2.95-0.17-4.81,1.84-6.17,4.12c-1.1,1.84-2.85,3.18-3.58,5.34c-0.41,1.22-1.77,1.4-2.98,0.76
				c-0.77-0.4-1.66-1.37-1.05-1.91c3.89-3.38,4.81-8.91,9.51-11.92c3.33-2.12,6.43-0.74,9.57-1.31c1.27-0.23,1.5,1.08,1.19,2.13
				c-3.1,10.4,2.44,18.02,8.22,25.53c2.19,2.85,3.34,6.17,1.9,9.31c-1.82,3.97-4.8,7.18-10.13,6.52c0.42-2.64,1.25-4.56,4.51-4.72
				c3.04-0.16,4.06-2.17,2.81-4.9c-1.86-4.07-3.9-8.07-5.97-12.04c-0.65-1.25-1.43-3.23-3.22-2.27c-1.54,0.83-0.69,2.67-0.29,4.09
				c0.33,1.2,1.91,1.99,1.2,3.55C1120.51,278.11,1117.6,272.93,1119.29,268.73z"/>
			<path d="M1058.32,257.28c3.79,3.29,6.75-3.02,10.81-5.07c2.54-1.28,3.69-0.98,4.3,1.6c0.34,1.48,0.81,2.78,1.78,4.01
				c1.36,1.72,1.05,3.09-1.42,3.37c-0.16,0.02-0.39-0.04-0.49,0.05c-4.33,4.13-8.06,1.21-12.33-0.52
				c-8.75-3.55-11.44-2.17-15.34,6.51c-0.59,1.32-1.24,2.66-2.84,1.74c-1.3-0.75-1.62-2.62-0.57-3.47
				C1046.57,262,1047.73,253.67,1058.32,257.28z"/>
			<path d="M1041.06,276.05c-0.13-1.78,0.02-3.71,2.27-3.58c2.42,0.15,3.96,1.9,3.82,4.4c-0.31,5.64,3,9.19,6.74,12.65
				c1.96,1.82,4.68,1.59,6.79,2.93c1.41,0.9,3.19,1.66,2.88,3.64c-0.36,2.28-2.61,3.32-4.12,4.75c-0.74,0.7-2.2-0.56-2.04-1.41
				c0.99-5.27-3.53-3.53-5.75-4.5c-0.69-0.3-2.27,0.54-2.18-0.89c0.27-3.87-2.07-5.9-4.65-8.16c-1.68-1.47-2.85-3.77-2.19-6.3
				c0.46-1.79-0.25-2.86-1.72-3.66L1041.06,276.05z"/>
			<path d="M1107.97,291.48c-2.42,4.2-3.77,7.59-7.96,2.78c-1.82-2.09-5.22-2.8-8.26-2.61c-1.42,0.09-2.63-0.12-3.82-0.75
				c-1.39-0.73-3.63-1.06-2.67-3.37c0.95-2.3,2.56-1.08,4.41-0.9c2.44,0.24,5.98,3.98,7.95-1.48c0.85-2.35,2.21,0.47,3.33,0.97
				C1103.72,287.36,1102.31,292.96,1107.97,291.48z"/>
			<path d="M1069.63,301.05c0.1-2.41-3.36-2.62-1.85-4.63c0.87-1.16,2.54-0.12,3.69,0.36c1.98,0.83,3.08,3.33,1.92,4.41
				c-2.37,2.21-1.42,7.36-6.59,7.16c-1.44-0.06-2.74,1.77-2.65,3.72c0.11,2.23,1.28,2.16,3.06,1.68c1.32-0.36,1.39,1.08,1.63,1.99
				c0.23,0.89,0.19,1.74-1,1.76c-1.4,0.02-2.58,1.69-4.19,0.38c-2.36-1.93-3.51-4.96-2.14-7.05c1.66-2.53,2.67-5.06,3.5-7.86
				C1065.65,300.8,1068.29,302.04,1069.63,301.05z"/>
			<path d="M983.52,432.25c-1.9,7.26-8,11.33-11.99,16.85c-2.7,3.74-6.08,7-9.2,10.43c-0.67,0.73-1.57,1.43-2.57,0.55
				c-0.58-0.51-0.34-1.25,0.16-1.75c8.1-8.07,14.84-17.32,22.47-25.8C982.54,432.36,982.94,432.39,983.52,432.25z"/>
			<path d="M1011.46,282.7c0.85-7.09-3.15-13.13-4.36-19.79c-0.98-5.35,2.72-9.57,0.72-15.63c2.93,1.89,2.89,3.45,2.59,4.56
				c-1.86,6.9,0.01,13.22,2.33,19.65c1.35,3.74-0.61,7.5-1.28,11.23C1011.46,282.73,1011.46,282.7,1011.46,282.7z"/>
			<path d="M1056.05,273.58c2.18-5.45,0.65-7.9-4.5-7.58c0.53-3.08,2.36-3.4,4.5-2.79c4.77,1.35,7.6,8.15,6.99,16.68
				c-2.15-0.97-1.79-2.99-2.02-4.67C1060.51,271.4,1060.55,271.4,1056.05,273.58z"/>
			<path d="M1097.52,445.02c1.48,1.65,1.45,3.42,1.28,4.97c-0.4,3.49,0.11,6.23,3.93,7.49c1.14,0.38,2.01,1.44,1.29,2.75
				c-0.68,1.24-1.96,0.9-3.12,0.72C1095.02,460.08,1092.43,451.28,1097.52,445.02z"/>
			<path d="M1027.62,289.78c-0.26,1.43-0.45,2.4-0.62,3.37c-0.24,1.38,0.17,3.45-1.81,3.5c-1.94,0.05-2.08-1.99-1.97-3.38
				c0.19-2.41-1.38-3.96-2.28-5.85c-0.52-1.08-0.74-2.28,0.52-3.06c0.98-0.61,1.77-0.15,2.65,0.51
				C1027.16,287.18,1027.75,288,1027.62,289.78z"/>
			<path d="M1038.68,262.32c-1.47-0.27-3.07-1.85-2.3-2.5c3.3-2.84,0.43-6.41,1.61-9.38c0.35-0.9,0.47-2.13,1.75-1.96
				c0.93,0.13,1.08,1.14,1.08,1.99c-0.01,2.22,0.87,4.12,1.85,6.07C1043.86,258.96,1041.38,262.36,1038.68,262.32z"/>
			<path d="M1059.35,330.99c-4.31,0.13-5.34-3.47-7.04-6.16c-0.56-0.89,0.03-1.96,1.06-2.45c1.3-0.63,2.1,0.03,2.9,1.08
				c1.53,2.01,1.07,7.41,6.14,3.8c0.08-0.05,0.87,0.54,0.91,0.87c0.07,0.62,0,1.4-0.34,1.88
				C1062.07,331.32,1060.54,330.68,1059.35,330.99z"/>
			<path d="M1080.39,259.58c-4.81-4.2-4.62-5.3,2.05-13.38c1.39,2.44,0.66,4.37-0.69,6.27
				C1080.3,254.5,1081.54,257.03,1080.39,259.58z"/>
			<path d="M1013.88,233.8c-0.06-5.26,2.28-9.48,5.89-13.17C1020.87,226.34,1016.01,229.48,1013.88,233.8z"/>
			<path d="M1047.14,331.79c2.42,2.49,2.46,4.79,0.95,7.12c-0.74,1.15-1.65,3.03-3.33,1.37c-1.02-1-2.68-2.69-0.62-4.16
				C1045.59,335.09,1045.69,333.29,1047.14,331.79z"/>
			<path d="M1079.82,275.28c3.11,2.3,3.27,4.97,2.95,7.81c-0.14,1.25-0.65,2.4-2.07,2.29c-1.59-0.12-1.77-1.4-1.26-2.58
				C1080.42,280.52,1079.16,278.02,1079.82,275.28z"/>
			<path d="M1007.52,469.65c-3.67,3.8-7.62,7.12-12.96,8.06C998.86,474.99,1002.99,471.98,1007.52,469.65z"/>
			<path d="M968.87,544.79c4.8,1.87,7.21,4.58,9.99,6.75c0.63,0.49,1.39,1.14,0.7,2c-0.66,0.83-1.53,0.42-2.12-0.2
				C975.01,550.79,971.53,549.29,968.87,544.79z"/>
			<path d="M1055.16,313.55c0.02-1.31-0.11-2.76,1.49-2.72c1.29,0.03,1.08,1.34,1.11,2.32c0.02,0.97,0.16,1.94,0.24,2.91
				c0.1,1.37,2.83,3.21,0.15,3.92c-1.93,0.51-1.66-2.31-2.17-3.76C1055.65,315.31,1055.4,314.35,1055.16,313.55z"/>
			<path d="M1052.39,249.8c-0.3-2.12,1.36-4.17-0.7-6.03c-0.61-0.55-0.75-1.62,0.17-2.09c1.05-0.54,1.65,0.19,2.34,1.06
				C1056.67,245.9,1053.8,247.68,1052.39,249.8z"/>
			<path d="M1031.41,260.61c-0.86-3.38,0.66-6,0.96-9.88C1035.25,254.99,1035.09,257.78,1031.41,260.61z"/>
			<path d="M1090.19,413.16c0.7,3.11,1.03,6.29,2.91,9.02C1090.38,419.75,1088.4,417.07,1090.19,413.16z"/>
			<path d="M1032.12,289.48c0.44-1.04-0.65-3.02,1.55-2.98c1.41,0.03,1.86,1.31,1.7,2.57c-0.17,1.34-0.63,2.91-2.14,3
				C1031.23,292.2,1032.23,290.51,1032.12,289.48z"/>
			<path d="M1040.93,275.91c0.05,1.13,0.25,2.28,0.1,3.39c-0.15,1.14-1.14,1.55-2.19,1.44c-1.23-0.13-2.12-0.81-2.38-2.09
				c-0.22-1.09,0.14-2.04,1.23-2.3c1.08-0.26,2.24-0.21,3.37-0.29C1041.06,276.05,1040.93,275.91,1040.93,275.91z"/>
			<path d="M1047.43,249.54c-0.49,1.66-0.25,3.9-2.25,4.12c-1.83,0.2-1.64-1.71-1.5-2.97c0.18-1.63,0.45-3.62,2.51-3.71
				C1047.84,246.92,1047.31,248.6,1047.43,249.54z"/>
			<path d="M1128.13,299.41c1.7,1.94,3.79,3.04,3.23,5.74c-0.05,0.22-1.01,0.55-1.17,0.4
				C1128.55,304.09,1126.67,302.65,1128.13,299.41z"/>
			<path d="M1095.12,717.94c3.58-2.42,7.05-4.78,10.54-7.11c5.51-3.68,5.48-7.03-0.17-10.44c-5.99-3.61-12.43-6.32-18.82-9.13
				c-1.21-0.53-2.45-1.08-3.5-1.87c-1.55-1.17-5.15-1.91-3.19-4.45c2.13-2.77,3.23,1.12,4.89,1.94c6.52,3.22,13.15,6.22,19.77,9.24
				c1.36,0.62,2.97,0.78,4.19,1.57c2.48,1.62,4.97,3.48,5.18,6.79c0.21,3.21-1.78,5.16-4.35,6.69c-3.7,2.21-7.38,4.47-11.04,6.74
				C1097.63,718.55,1096.75,719.47,1095.12,717.94z"/>
			<path d="M1118.63,684.1c-0.22-6.98-1.38-13.78-3.44-20.48c-1.31-4.27-2.49-8.67-2.96-13.09c-0.59-5.62-1.05-11.22-2.76-16.64
				c-0.34-1.08-0.83-2.53,0.72-2.96c1.71-0.47,1.68,1.15,1.9,2.22c1.26,6.35,2.48,12.72,3.71,19.08c0.85,4.4,1.56,8.81,3.17,13.06
				c2.98,7.9,2.61,16.27,2.87,24.52c0.03,1.09,0.43,2.68-1.18,2.81c-1.54,0.13-1.59-1.42-1.68-2.55
				C1118.8,688.09,1118.74,686.1,1118.63,684.1z"/>
			<path d="M1111.48,827.58c0.13,1.42-0.66,2.22-1.93,2.47c-12.36,2.38-24.29,1.98-34.98-5.94c6.41-0.4,11.85,4.02,18.09,4.12
				c6.3,0.11,12.61-0.37,18.91-0.59L1111.48,827.58z"/>
			<path d="M1111.58,827.64c2.54-1.36,5.24-1.9,8.13-1.93c5.98-0.06,11.94-0.14,17.69-2.28c1.5-0.56,3.27-0.44,4.93-0.5
				c0.82-0.03,1.76,0.22,1.89,1.23c0.13,1.07-0.76,1.39-1.59,1.46c-10.36,0.87-20.56,4.17-31.12,1.98
				C1111.48,827.58,1111.58,827.64,1111.58,827.64z"/>
			<path d="M1046.07,808.46c7.4,4.14,14.8,8.27,22.18,12.44c0.76,0.43,1.34,1.29,0.72,2.04c-0.89,1.08-2.29,0.66-3.22,0.12
				c-4.7-2.72-9.37-5.51-13.94-8.46c-2.29-1.48-4.33-3.34-6.48-5.03C1045.58,809.21,1045.83,808.83,1046.07,808.46z"/>
			<path d="M1073.36,838.48c12.17,1.11,23.7-1.03,35.2,0.73c1.25,0.19,2.78-0.04,3.46,1.44c0.14,0.31-0.14,1.02-0.45,1.29
				c-1.52,1.36-2.68,0.12-4-0.56c-2.1-1.09-4.36-1.43-6.77-1.18c-7.94,0.83-15.93-0.75-23.88,0.4
				C1075.77,840.76,1074.57,840.65,1073.36,838.48z"/>
			<path d="M1065.37,655.7c-7.14,0.38-14.25,0.38-21.2-1.7c7.05,0.3,14.37-2.82,21.07,1.81
				C1065.26,655.8,1065.37,655.7,1065.37,655.7z"/>
			<path d="M1057.48,836.43c-4.59,0.17-8.17-3.43-12.72-3.47c-0.31,0-0.81-0.58-0.89-0.96c-0.2-0.91,0.64-1.01,1.24-1.18
				c2.63-0.71,10.39,2.88,12.29,5.66L1057.48,836.43z"/>
			<path d="M1032.96,646.51c1.68,2.07,4.42,3.55,6.87,5.42c0.84,0.63,0.01,1.38-0.88,1.65c-2.46,0.74-8.27-3.46-8.09-5.91
				C1030.92,646.78,1031.35,646.09,1032.96,646.51z"/>
			<path d="M1057.4,836.49c4.01-0.54,8.05-1.55,12.68,0.95c-4.92,1.7-8.77,0.63-12.58-1.02
				C1057.48,836.43,1057.4,836.49,1057.4,836.49z"/>
			<path d="M895.66,495.47c4.29,10.62,14.57,16.23,20.98,24.99C906.26,515.97,895.05,502.66,895.66,495.47z"/>
			<path d="M984.72,585.09c5,0.54,8.71,3.31,14.08,2.62C993.54,591.18,990.39,590.5,984.72,585.09z"/>
			<path d="M928.01,539.04c2.78,2.85,5.22,5.77,5.95,9.66C931.75,545.56,928.22,543.25,928.01,539.04z"/>
			<path d="M1004.43,609.54c-0.18-1.28,0.57-1.82,1.39-1.68c2.06,0.37,3.39,1.89,4.4,3.58c0.3,0.51-0.43,1.35-1.14,1.22
				C1007.07,612.26,1005.63,610.93,1004.43,609.54z"/>
			<path d="M1061.47,931.65c-2.34,0.47-4.32-0.12-5.69-2.15c-2.33-3.43-4.65-6.86-6.91-10.34c-0.56-0.86-0.82-2,0.29-2.6
				c1.02-0.55,1.39,0.53,1.8,1.2c3.04,4.97,6.57,9.57,10.38,13.97C1061.36,931.73,1061.47,931.65,1061.47,931.65z"/>
			<path d="M1078.77,622.07c1.53-2.67,5.58,0.49,5.71-2.68c0.1-2.65-3.76-2.55-5.75-3.84c-1.92-1.24-4.18-1.97-6.25-2.99
				c-0.74-0.36-1.52-0.91-1.1-1.91c0.39-0.93,1.34-0.97,2.12-0.73c5.47,1.68,10.86,3.75,16.68,2.25c0.45,3.12-4.19,2.85-2.41,5.28
				c1.3,1.77,3.6,2.81,6.08,2.98c2.05,0.13,4.08,0.5,6.53,0.82C1092.83,626.77,1085.84,619.12,1078.77,622.07z"/>
		</g>
	</g>
	<g>
		<g>
			<path class="st0" d="M1150.35,880.56c-2.56,19.54-10.81,36.75-21.42,53.08c-6.24,9.61-11.99,19.44-14.79,30.82
				c-1.68,6.84-5.41,13.05-8.12,19.57c-3.44,8.27-1.45,15.93-0.18,23.88c0.84,5.29,3.65,9.54,7.32,13.28
				c3.72,3.8,4.47,9.67,9.29,12.8c3.25,2.11,7.45,3.26,7.61,8.83c0.06,2.1,3.64,4.57,6.12,6.03c8.87,5.23,11.53,14.08,14,23.05
				c0.65,2.35,2.58,4.22,2.02,7.05c-1.01,5.2-4.15,8.85-9.81,9.86c-9.48,1.68-19.02,3.03-28.54,4.49c-0.47,0.07-1.04,0.08-1.45-0.12
				c-10.34-5.04-19.9-11.2-27.89-19.57c-5.62-5.89-11.06-11.96-16.86-17.67c-7.63-7.51-17.75-8.15-27.61-9.15
				c-5.13-0.52-10.23-0.9-15.3-2.13c-4.49-1.08-8.95-0.84-13.54,1.36c-5.62,2.69-11.89,2.13-18.14,1.68
				c-15.7-1.13-31.3-4.32-47.15-2.58c-1.36,0.15-2.71,0.44-3.58-0.95c-0.56-0.9-0.51-1.94-0.03-2.87c0.81-1.58,2.15-1.07,3.48-0.86
				c7.89,1.26,15.94,0.69,23.81,2.42c3.56,0.78,7.12,0.3,10.72-1.16c3.78-1.53,7.82-0.51,11.71,0.82c4.67,1.6,9.29,2.7,12.93-2.49
				c1.52-2.16,4.19-1.28,6.52-0.81c9.39,1.91,18.65,4.7,28.41,4.12c0.82-0.05,1.72-0.09,2.47,0.18c4.02,1.47,8.27,3.42,5.23-4.12
				c-0.24-0.6,0.25-1.62,0.64-2.32c4.36-7.78,8.66-15.56,9.47-24.74c0.15-1.73,1.05-3.58,2.09-5.02
				c7.56-10.44,10.76-22.16,12.72-34.86c1.75-11.37-0.4-21.72-3.01-32.36c-0.81-3.29-2.14-3.89-5.31-2.42
				c-18.03,8.39-35.14,18.53-52.82,27.58c-6.86,3.51-13.99,6.5-20.64,10.46c-2.8,1.67-6.09,2.51-9.17,3.7
				c-16.34,6.32-30.89,15.68-44.74,26.24c-3.34,2.55-5.64,5.74-5.05,10.19c0.58,4.29-1.32,8.19-1.61,12.29
				c-0.82,11.46,4.86,20.85,12.31,28.25c7.09,7.04,14.34,14.23,22.92,19.8c5.97,3.88,7.76,14.23,4.31,19.83
				c-1.37,2.23-3.3,3.14-5.75,3.39c-5.74,0.57-11.77,0.81-17.24,0.51c-6.15-0.34-12.76,0.46-19.13-2.2c-4-1.67-7.88-4.05-12.4-4.9
				c-3.96-0.74-6.34-6.26-5.47-10.47c0.83-4.03-0.44-5.27-4.4-4.04c-1.29,0.4-2.29,0.39-3.14-0.61
				c-6.69-7.88-16.01-13.57-19.63-24.03c-1.02-2.96-3.29-4.4-6.82-4.84c-5.45-0.68-8.29-5.84-12.19-9.06
				c-3.81-3.14-6.98-7.14-9.64-11.41c-4.73-7.59-4.46-12.94,2.42-18.79c7.89-6.7,15.21-14.46,26.16-16.71
				c3.07-0.63,6.24-2.66,8.52-4.9c6.69-6.58,14.53-11.67,21.75-17.55c5.55-4.52,10.07-9.89,14.99-14.96
				c3.55-3.67,7.36-7.26,11.29-10.49c11.25-9.26,18.19-22.41,29.56-31.6c6.3-5.09,12.29-9.87,20.5-11.65
				c3.88-0.84,7.44-3.48,10.94-5.65c6.97-4.33,14.56-7.15,22.26-9.77c3.49-1.19,6.05-3.61,7.94-6.57c3.08-4.83,0.62-9.93-4.71-11.64
				c-8.07-2.59-10.44-4.2-5.36-12.47c2.44-3.98,5.01-7.83,7.82-11.55c3.78-4.99,3.36-9.09-1.56-12.84c-4.32-3.3-5.18-8.5-7.19-12.88
				c-6.32-13.79-14.61-26.51-21.03-40.21c-1.9-4.06-5.8-5.88-9.24-8.13c-3.98-2.59-7.54-5.53-9.78-9.77c-2-3.78-5.24-6.45-8.14-9.4
				c-12.07-12.28-20.85-26.92-29.9-41.36c-1.9-3.04-2.61-6.71-1.88-10.15c1.33-6.31,0-12.64,0.68-18.91
				c0.87-8.03-2.09-15.35-5.63-21.96c-3.35-6.28-2.79-12.23-1.67-18.37c1.75-9.64,4.94-19,5.15-28.96c0.09-4.19,3.27-6.82,6.53-8.94
				c6.29-4.1,6.28-11.03,7.61-17.18c0.66-3.04-2.67-4.38-5.13-5.26c-6.18-2.24-12.5-4.09-18.7-6.31
				c-9.83-3.52-18.19-9.27-25.8-16.45c-6.98-6.58-14.71-12.36-21.9-18.73c-2.33-2.06-4.44-4.64-5.88-7.39
				c-4.88-9.34-12.93-15.95-19.8-23.56c-3.83-4.24-7.03-8.85-10.24-13.49c-2-2.89-2.68-6.16-0.88-9.45
				c6.33-11.57,12.14-23.48,19.28-34.53c6.39-9.89,14.82-18.34,23.93-25.9c3.36-2.79,5.65-6.32,8.37-9.55
				c5.27-6.26,7.9-13.67,11.89-20.35c7.32-12.26,15.94-24.19,28.09-32.7c4.56-3.2,9.48-5.92,14.88-6.66
				c5.33-0.73,9.45-2.93,12.99-6.62c2.14-2.23,4.81-3.28,7.53-4.6c9.39-4.55,19.65-7.76,27.69-14.5c5.89-4.93,13.5-8.74,15.42-17.42
				c1.21-5.45,2.82-10.62,0.18-16.34c-1.74-3.78,0.12-8.65-2.38-12.55l0,0.03c4.28,2.87,8.23,14.17,7.6,19.18
				c-1.12,8.88-4.29,16.65-10.33,23.25c-1.24,1.36-1.26,2.9,0.21,3.9c9.77,6.65,14.75,18.39,25.52,23.91
				c5.89,3.02,11.12,7.2,17.29,9.72c1.23,0.5,2.44,0.76,3.04-0.48c0.72-1.5-0.29-2.62-1.71-3c-1.42-0.38-3.07-0.08-4.37-0.65
				c-4.32-1.9-5.11-5.93-2.14-10.95c1.16-1.97,2.91-3.59,4.09-5.55c2.21-3.67,5.37-1.79,8.43-1.26c0.02-2.17-4.27-2.85-1.64-4.91
				c2.96-2.32,5.01,1.01,7.99,2.29c-0.58-1.36-1.16-2.33-1.39-3.39c-0.12-0.52,0.23-1.36,0.64-1.74c0.55-0.51,1.33-0.18,1.66,0.44
				c1.38,2.57,4.68,3.19,5.91,5.89c0.41,0.9,1.4,2.27,1.11,2.63c-3.22,4.08-0.17,4.6,2.8,5.66c1.06,0.38,1.84,1.5,2.95,0.39
				c0.96-0.96,0.76-2.25,0.16-3.26c-1.09-1.83-2.18-3.63-3.2-5.5c-1.18-2.18-1.31-3.51,0.47-5.14c0.79-0.73,1.65-1.5,2.57-0.74
				c1.7,1.43,2.2,3.26,0.96,5.33c-0.36,0.59-0.54,1.22,0.1,1.79c5.86-1.6,3.6-5.97,3.26-9.67c-0.13-1.41-0.91-1.02-1.69-0.5
				c-0.58,0.38-1.14,0.59-1.78,0.02c-2.92-2.6-2.87-2.55-5.18,1.18c-0.63,1.02-0.69,3.24-2.34,2.7c-1.96-0.64-0.97-2.49-0.46-3.84
				c0.77-2.08,0.68-4.76,3.74-5.33c0.85-0.16,1.63-1.47,1.22-1.89c-3.24-3.31-0.99-6.51-0.1-9.8c0.22-0.8-0.45-1.62-1.26-1.97
				c-0.97-0.43-1.54,0.18-1.92,1c-0.73,1.57-1.75,2.13-2.96,0.57c-1.25-1.61-0.15-2.37,1.34-2.81c0.9-0.26,1.31-0.87,1.51-1.77
				c0.26-1.22-0.08-3.25,1.65-3.12c1.69,0.13,2.63,2.04,3.13,3.57c0.89,2.74,0.74,5.63-0.06,8.38c-0.75,2.58-0.45,4.28,2.6,4.56
				c2.71,0.25,4.85,1.18,5.34,4.26c0.13,0.85,0.62,1.66,1.64,1.43c0.95-0.21,1.02-1.17,1.22-1.98c0.82-3.43-0.03-7.05-1.48-9.69
				c-1.89-3.43-0.9-6.8-1.62-10.11c-0.25-1.16-0.21-2.64,1.3-2.77c1.9-0.17,2.17,1.59,1.82,2.8c-1.13,3.94,1.18,7.11,2.03,10.59
				c0.32,1.31,0.68,2.85,2.54,2.22c1.65-0.56,1.66-2.02,1-3.31c-0.93-1.83-1.61-3.61-1-5.72c0.31-1.08,0.08-2.73,1.59-2.69
				c1.55,0.04,2.05,1.54,2.04,2.95c-0.01,1.31-1.34,3.55,1.34,3.08c2.38-0.42,0.56-2.42,0.41-3.7c-0.13-1.13-0.3-2.34-0.82-3.32
				c-1.25-2.36,0.11-3.79,1.93-4.17c2.29-0.49,1.27,1.62,1.41,2.73c0.13,1.06,0.44,2.1,1.64,2.16c1.59,0.08,2.01-1.27,1.85-2.41
				c-0.63-4.47,2.1-7.16,4.98-9.72c1.62-1.44,2.13-3.04,2.37-5.19c0.32-2.87,1.69-5.13,4.76-1.89c0.6,0.63,1.04,1.47,1.89,0.47
				c0.62-0.73,0.38-1.56-0.15-2.29c-2.01-2.75-4.44-5.23-5.49-8.79c5.72,1.16,8.12,4.28,8.26,9.17c0.08,2.73-1.26,5.37,0.05,8.26
				c0.88,1.94-5.25,8.42-7.46,8.29c-0.57-0.03-1.32-0.41-1.61-0.87c-0.62-1.01-0.09-1.85,0.76-2.56c1.79-1.51,5.43-3.44,3.12-5.46
				c-2.1-1.83-3.5,2.32-5.05,3.99c-3.62,3.89-3.7,9.89-7.93,13.45c-0.28,0.24-0.39,1.04-0.22,1.41c2.33,4.93,2.22,9.51-0.22,14.64
				c-1.46,3.07,2.44,4.13,4.82,5.1c3.42,1.39,6.39,0.36,8.23-2.71c3.43-5.73-0.2-12.35-6.82-12.71c-0.69-0.04-1.47,0.08-1.59-0.67
				c-0.09-0.55,0.24-1.62,0.59-1.72c4.43-1.31,5.66-8.12,11.98-6.61c1.7,0.41,4.46-4.8,4.6,1.85c0.06,2.82,2.32-2.01,3.99-0.83
				c-1.15,8.78-7.2,14.82-12.08,21.48c-3.06,4.17-7.09,6.86-12.67,6.56c-7.55-0.4-12.09,5.31-17.44,9.15
				c-7.91,5.69-7.17,3.1-1.39,11.16c4.05,5.65,10.22,8.94,14.99,13.77c4.01,4.07,7.22,8.48,5.51,14.88
				c-2.06-6.84-6.68-11.65-11.93-15.96c-3.71-3.05-7.8-5.62-10.64-9.69c-1.16-1.67-3.11-1.65-3.78,0.63
				c-0.83,2.83-3.05,4.71-4.29,7.07c-2.02,3.84,1.08,7.56,2.32,11.23c0.45,1.35,1.51,2.66,2.62,3.6c5.03,4.26,7.72,9.64,8.29,16.17
				c0.08,0.97,0.74,2.07-0.49,2.57c-1.2,0.48-1.94-0.68-2.23-1.49c-3.55-9.97-14.16-16.68-13.25-28.74c0.15-2-1.61-2.09-3.15-2.37
				c-6.79-1.22-13.83-1.42-20.28-4.15c-11.12-4.71-21.28-10.95-29.06-20.38c-4.28-5.2-9.85-8.92-14.51-13.65
				c-1.41-1.43-2.59-0.64-3.92,0.33c-9.53,6.99-20.16,11.86-31.13,16.07c-1.22,0.47-2.35,1.23-3.46,1.96
				c-1.25,0.82-2.75,1.74-2.26,3.49c0.42,1.5,2.09,1.37,3.34,1.76c2.41,0.74,6.76,0.85,6.03,3.62c-0.73,2.8-4.19,0.2-6.38-0.38
				c-12.3-3.28-32.98,4.07-40.59,14.2c-4.29,5.71-8.89,11.19-13.55,16.6c-3.79,4.41-5.19,9.59-5.51,15.16
				c-0.1,1.75,0.02,3.48-1.8,4.25c-6.14,2.58-8.12,8.48-10.97,13.64c-1.11,2.01-2.27,3.16-4.67,3.86c-3.87,1.12-6.91,3.95-9.27,7.23
				c-3.03,4.22-6.41,8.16-10.26,11.56c-3.54,3.13-4.8,7.53-7.34,11.19c-1.51,2.18-0.03,4.29,1.86,6.08
				c7.46,7.09,16.67,11.49,25.3,16.77c5.95,3.63,12.64,5.58,19.24,7.67c1.71,0.54,3.3,0.26,4.84-0.47c1.12-0.53,1.93-1.49,1.9-2.73
				c-0.03-1.44-1.24-1.81-2.45-2c-0.33-0.05-0.67-0.07-0.99-0.17c-1.93-0.59-5.41-0.5-4.45-3.23c0.92-2.61,3.34,0,5.05,0.57
				c2.49,0.84,4.89,1.42,6.7-1.24c1.84-2.72,4.6-3.14,7.52-2.85c1.57,0.16,2.91,0.21,4.13-1.02c6.91-6.99,15.98-11.4,22.56-18.83
				c5.16-5.83,11-11.11,14.49-18.27c0.53-1.09,0.79-3.25,2.41-2.47c1.75,0.84,0.61,2.64-0.14,3.88
				c-4.13,6.85-8.97,13.17-14.41,19.04c-1.32,1.42-2.97,2.25-0.97,4.86c1.83,2.39-1.18,2.25-2.51,2.35c-2.56,0.19-5.16-0.71-7.26,2
				c-1.49,1.92-1.75,2.92-0.21,5.04c4.94,6.83,12.13,10.73,18.95,15.04c5.85,3.69,11.48,7.59,17.04,11.78
				c-1.45,1.66-2.43,0.81-3.35,0.18c-8.4-5.68-17.84-9.69-25.74-16.18c-3.77-3.1-4.36-0.38-4.42,3.11
				c-3.21-2.85-4.73-5.61-4.06-9.54c0.31-1.84,0.25-4.24-1.97-5.23c-2.63-1.18-3.36,1.42-4.62,2.78c-3.21,3.46-6.4,6.76-11.79,6.06
				c-2.6-0.34-4.49,0.82-5.4,3.42c-0.44,1.25-0.74,2.85-1.67,3.59c-5.35,4.26-1.78,7.15,1.84,8.73
				c8.79,3.84,13.43,11.36,18.41,18.78c3.34,4.98,6.69,9.88,8.24,15.79c0.82,3.13,3.97,4.33,5.97,6.48
				c1.26,1.35,2.93,0.33,3.35-1.42c0.3-1.24,0.3-2.69-0.02-3.93c-2.96-11.44-2.49-23.51-6.46-34.78c-0.68-1.91-0.69-4.19,0.14-6.99
				c9.32,11.13,21.2,18.99,30.73,29.89c-2.57,1.05-3.62-0.86-4.8-1.86c-6.2-5.28-12.31-10.68-18.44-16.05
				c-0.74-0.65-1.41-1.64-2.52-1.02c-0.8,0.45-0.91,1.48-0.55,2.23c3.87,8.03,1.1,17.27,4.67,25.36c2.18,4.94,2.45,10.69,6.31,14.94
				c0.73,0.8,1.95,1.88-0.03,2.65c-3.65,1.43-1.88,3.39-0.31,4.85c9.47,8.84,19.74,15.76,33.71,13.51c2.22-0.36,4.21-1.03,5.95-2.36
				c4.57-3.48,9.37-3.17,13.99-0.45c5.43,3.2,10.99,6.35,15.84,10.31c3.64,2.97,6.41,7.1,8.15,11.65c1.71,4.48,4.51,7.66,9.37,8.83
				c2.78,0.67,5.18,2.23,7.52,3.86c0.99,0.69,2.21,1.33,3.11,0.12c1.04-1.4-0.44-1.93-1.27-2.68c-3.03-2.76-7.02-4.61-8.53-8.82
				c-0.2-0.57-0.17-1.22-0.45-3.46c4.03,4.01,6.44,7.78,10.24,9.94c4.64,2.64,8.02,7.28,13.56,8.5c1.63,0.36,3.83,1.04,4.6-0.41
				c0.91-1.74-1.23-2.77-2.54-3.71c-3.28-2.34-6.86-4.35-9.89-9.04c6.13,2.91,10.21,6.5,14.47,9.69c4.27,3.2,9.45,3.73,14.06,5.85
				c1.46,0.67,3.6,0.86,4.43-0.99c0.87-1.93-2.22-1.61-2.44-3.42c1.29-1.1,2.66-0.4,4,0.06c5.75,1.95,11.62-1.47,17.44,0.4
				c1.3,0.42,2.62-0.98,3.73-2.12c10.21-10.49,14.28-23.37,14.76-37.64c0.64-19.01-3.38-37.45-7.37-55.83
				c-1.25-5.75-3.99-11.25-6.5-16.64c-3.81-8.16-5.78-16.66-5.53-25.62c0.19-6.67-2.24-12.88-4.28-18.85
				c-3.49-10.18-6.5-20.55-10.35-30.66c-3.01-7.88-4.81-16.3-8.67-23.98c-0.67-1.33-1.42-3.78,0.57-4.3
				c1.91-0.5,1.72,1.94,1.99,3.29c0.84,4.14,3.42,7.51,4.88,11.39c5.39,14.26,11.29,28.42,14.55,43.31
				c1.75,7.99,5.92,15.47,4.83,24.25c-0.91,7.33,3.16,13.83,6.08,20.29c4.31,9.55,7.87,19.29,9.74,29.61
				c2.1,11.59,3.51,23.26,4.24,35.03c0.64,10.29-1.1,20.02-4.89,29.7c-2.67,6.83-6.2,12.78-10.97,18.16
				c-1.48,1.66-1.71,3.35,0.46,4.55c6.5,3.58,8.16,10.69,11.78,16.31c2.12,3.28,4.35,5.66,7.97,7.01
				c8.19,3.06,10.96,7.8,10.87,16.42c-0.11,11.13,2.86,21.65,7.44,31.74c0.21,0.45,0.42,0.91,0.7,1.32
				c6.5,9.44-0.11,16.27-9.47,18.11c-4.18,0.82-4.82,1.54-3.71,6.01c2.65,10.64,5,21.35,8.13,31.89c1.12,3.78,2.76,7.11,4.82,10.32
				c1.19,1.85,1.94,3.98,0.59,5.6c-5.72,6.87-8.01,16.49-16.79,20.92c-1.22,0.62-2.4,2.58-0.95,3.12c4.65,1.75,4.79,6.26,6.28,9.66
				c5.34,12.17,12.9,23.35,16.89,36.05c4.86,15.46,2.53,29.81-8.85,42.11c-4.16,4.5-4.54,10.98-7.92,15.92
				c-1.89,2.76-2.14,6.73-5.94,8.12c-1.64-2.71,1.38-8-4.94-7.66c2.05-2.58,4.9-1.05,7.15-2.95c-3.53-2.44-3.99-4.1,1.04-3.76
				c0.72,0.05,1.46-0.55,1.3-1.2c-0.76-3.16,1.05-4.5,3.52-5.64c1.29-0.59,2-1.93,1.61-3.35c-0.54-2-2.01-0.99-3.27-0.81
				c-1.8,0.25-1.81,0.18-4.74-1.27c5.92,1.34,8.83-4.07,13.42-5.74c1.17-0.42,1.37-1.66,0.41-2.39c-2.85-2.16-1.12-4.63,0.16-6.05
				c3.1-3.44,4.44-7.16,4.23-11.73c-0.08-1.69,1.61-3.66-0.48-4.95c-1.83-1.13-4.04-0.61-5.74,0.4
				c-8.32,4.91-14.7,12.48-23.26,17.08c-0.83,0.45-1.04,1.33-0.56,2.15c0.38,0.65,1.1,0.6,1.78,0.41c1.06-0.3,2.66-2,2.92,0.42
				c0.21,1.9-1.74,2.07-3.28,2.21c-2.26,0.21-4.65-0.69-6.74,1.01c-3.59,2.93-7.68,5.37-10.78,8.74c-3.02,3.28-6.2,1.74-10.44,2.63
				c3.45-3.31,6.21-5.3,9.22-7.02c7.38-4.21,13.03-10.68,19.97-15.45c6.93-4.76,11.69-12.11,19.68-15.73
				c3.66-1.66,6.1-4.14,3.84-9.86c-4.83-12.24-11.34-23.65-16.33-35.78c-0.61-1.5-1.39-2.59-3.17-2.73
				c-3.61-0.29-4.49-1.78-2.06-4.77c0.85-1.05,0.46-2.25-0.25-3.25c-6.18-8.75-9.56-19.51-18.67-26.17
				c-1.07-0.78-2.06-1.56-2.2-3.13c-0.64-7.29-5.97-12.16-13.38-12.43c-1.33-0.05-3.61,0.77-3.49-1.44
				c0.09-1.76,2.31-1.43,3.76-1.51c0.66-0.04,1.33,0.08,2,0.08c1.11-0.01,2.47,0.47,3.03-0.98c0.42-1.08-0.43-1.84-1.04-2.62
				c-0.82-1.06-3.05-2.06-1.39-3.49c1.54-1.32,2.96,0.52,4.18,1.62c2.39,2.18,3.14,5.76,5.98,7.56c1.5-1.09,0.82-3.39,2.69-3.68
				c1.15-0.18,1.7,0.91,2.18,1.76c1.2,2.09-0.27,2.98-1.79,3.87c-1.33,0.78-0.98,1.78-0.49,2.99c2.2,5.41,3.86,11.09,9.76,14.02
				c1.18,0.59,1.79,2.34,2.64,3.56c3.15,4.5,5.53,9.42,7.95,14.33c1.25,2.54,3.21,4.16,5.89,1.68c4.71-4.35,7.72-10,10.68-15.52
				c1.89-3.53-2.61-6.18-2.98-9.63c-0.03-0.32-0.21-0.63-0.3-0.95c-3.34-12.01-6.8-23.97-9.54-36.14c-0.47-2.09,0.13-6.08-3.48-5.47
				c-3.55,0.61-1.41,4.09-1.6,6.34c-0.41,4.76,2.63,8.78,2.75,13.54c0.1,4.17-2.36,5.18-5.35,5.88c-3.29,0.77-4-1.7-4.26-4.13
				c-0.65-6.05-3.1-11.98-1.36-18.22c0.25-0.9,0.74-2.11-0.62-2.52c-1.18-0.36-1.91,0.73-2.24,1.57c-1.45,3.64-3.52,7.1-2.59,11.37
				c0.67,3.07,0.87,6.24,1.43,10.47c-3.6-4.19-3.6-4.2-10.14-4.65c-1.03-0.07-2.11-0.09-2.38-1.29c-0.21-0.92,0.48-1.58,1.24-1.96
				c5.41-2.69,6.5-8.22,8.2-13.11c1.9-5.48,3.88-7.31,9.73-6.67c6.2,0.68,12.33-0.15,18.41-0.96c5.81-0.77,8.76-5.85,6.14-10.9
				c-3.69-7.1-4.5-14.9-6.43-22.43c-1.37-5.31-2.23-10.67-2.67-16.19c-0.46-5.82-3.39-10.37-9.67-12.65
				c-8.76-3.17-11.95-11.97-16.71-18.94c-2.45-3.59-4.69-5.15-8.93-4.27c-3.06,0.63-5.59,2.09-8.04,3.81
				c-1.96,1.38-2.75,3.3-1.94,5.68c1.7,4.99,0.97,9.7-1.48,14.27c-1.75,3.26-2.13,6.79-2.7,10.45c-0.98,6.25,0.73,12.43-0.46,18.56
				c-1.13,5.78-0.48,11.63-0.36,17.41c0.08,3.72,1.42,7.11-1.78,10.44c-1.24,1.29-0.96,4.08,1.09,5.83c1.28,1.09,3.09,2.23,1.8,4.75
				c-3.33-1.68-5.49-4.46-7.04-7.51c-1.58-3.11-3.75-5.46-6.58-7.31c-15.39-10.01-31.72-15.19-50.15-9.82
				c-2.69,0.78-5.45,1.73-8.34,1.03c-1.34-0.33-2.56-1.01-2.42-2.69c0.1-1.19,1.09-1.93,2.08-1.66c6.15,1.67,11.76-1.39,17.64-1.85
				c11.52-0.89,22.7,0.74,33.36,5.52c1.15,0.52,2.59,1.55,4.2,0.5c-2.22-6.75-7.76-11.18-11.42-16.88
				c-5.2-8.09-10.69-16.12-19.72-20.68c-1.62-0.82-3.71-2.64-4.84-1.03c-1.4,1.99,1.19,3.3,2.6,4.58c0.36,0.33,0.88,0.49,1.26,0.81
				c5.29,4.35,9.99,9.26,14.28,14.6c2,2.49,0.66,4.62-1.01,6.13c-1.55,1.39-3.44,1.04-4.02-1.51l-0.11,0.09
				c2.23-0.14,4.63-0.54,2.34-3.38c-5.23-6.5-11.21-12.27-18.19-16.91c-2.02-1.34-4.12-1.14-5.74,0.95
				c-5.43,7.02-7.94,7.38-15.7,3.39c-6.57-3.37-13.19-6.73-20.56-8.51c1.48,4.18,6.11,6.44,5.92,11.3
				c-0.08,2.01,0.26,4.19-1.94,5.24c-1.81,0.87-3.51,0.18-5.12-0.97c-2.57-1.84-5.11-3.77-7.89-5.25
				c-4.36-2.33-6.44-5.77-7.19-10.65c-0.73-4.76-2.42-9.33-5.83-13.04c-1.57-1.7-3.66-3.46-4.15-5.52
				c-1.27-5.34-5.54-5.81-9.47-7.87c-5.13-2.69-11.81-3.75-14.61-10c-0.42-0.94-0.71-1.96-2-1.76c-1.18,0.18-1.55,1.11-1.7,2.16
				c-0.64,4.58-3.45,7.79-6.75,10.69c-3.66,3.22-5.52,7.15-5.99,12.13c-0.79,8.42-1.91,16.81-4.65,24.94
				c-1.1,3.27-0.52,7.16,1.12,10.16c7.16,13.08,5.82,27.48,6.92,41.51c0.02,0.32-0.07,0.68-0.21,0.97
				c-2.29,5.04-0.25,9.46,2.16,13.68c1.55,2.71,3.68,5.07,5.48,7.64c4.65,6.64,8.82,13.67,14,19.86c7.2,8.6,15.53,16.27,20.51,26.58
				c0.73,1.52,2.4,3.02,4.01,2.13c1.69-0.93,0.41-2.77-0.36-3.92c-5.37-8.01-9.69-16.61-14.3-25.05c-4.28-7.84-6.03-16.55-8.8-24.91
				c-0.45-1.35-0.21-2.81,1.44-3.2c1.54-0.36,1.87,0.97,2.21,2.12c0.94,3.18,1.88,6.35,2.86,9.52c3.42,11.03,8.98,20.98,14.52,31.08
				c6.2,11.29,15.82,20.54,19.3,33.44c2.52,9.35,9.85,16.4,13.04,25.59c1.78,5.12,4.12,10.26,8.08,14.25
				c6.26,6.31,11.35,13.48,15.01,21.5c3.5,7.68,5.93,15.81,7.32,24.18c0.23,1.41-1.84,3.36,0.79,4.15c2.06,0.62,3.91-0.18,5.34-1.86
				c3.36-3.93,7.87-5.33,12.81-5.75c1.49-0.13,2.91-0.28,4.33-0.95c6.23-2.92,12.8-3.16,19.4-1.75c1.38,0.29,2.44,0.83,3.6-0.25
				c3.34-3.11,8.33-2.05,11.9-4.72c0.93-0.7,2.37-0.66,2.44,1.19c0.06,1.58-6.45,7.5-7.95,7.17c-1.25-0.27-2.64-1.32-3.5,0.38
				c-0.76,1.51,0.78,2.37,1.46,3.44c0.83,1.3,2.05,2.13,3.45,2.78c7.19,3.34,14.16,7.06,21.99,8.97
				C1134.78,884.74,1142.77,885.57,1150.35,880.56z M1061.36,931.73c3.54-1.11,2.81-2.92,0.95-5.13c-2.79-3.31-5.84-6.53-6.25-11.2
				c2.54,2.8,4.81,5.78,6.99,8.83c1.02,1.42,1.75,4,3.93,2c1.69-1.55-0.5-2.76-1.43-4.04c-1.36-1.89-4.31-3.09-3.35-6.29
				c1.38,0.09,1.48,1.06,1.94,1.7c0.96,1.34,1.88,2.88,3.83,2.7c0.45-0.04,1.06-0.83,1.18-1.38c0.47-2.05-0.39-3.7-2.22-4.54
				c-2.71-1.24-3.06-3.94-4.91-6.6c3.33,0.99,5.88,1.74,8.81,2.61c-0.74-3.74-1.17-6.29-5.45-7.04c-2.8-0.49-5.77-2.93-6.73-7.05
				c2.77,0.76,3.85,2.66,5.23,4.2c1.56,1.74,3.94,2.15,5.22,0.64c1.14-1.34-0.65-3.11-2.09-3.91c-2.11-1.17-5.16-3.38-4.3-4.75
				c1.78-2.83-0.98-4.43-0.82-6.64c3.32,0.52,6.58-1.84,9.58,0.97c0.56,0.53,1.27-1,0.77-2.11c-0.43-0.97-2.32-0.91-1.71-2.81
				c1.9,0.06,3.38,0.74,5.52-1.59c2.41-2.61,2.72-6.7,6.24-8.3c0.89-0.4,1.7-1.33,1.33-2.43c-0.48-1.41-1.82-1.3-2.97-1.09
				c-5.53,1-11.06,2.06-16.21,4.4c-2.54,1.15-5.3,2.14-7.4,3.88c-5.49,4.56-8.93,3.76-10.66-3.13c-1.17-4.67-5.11-2.61-7.78-3.35
				c-2.39-0.66-2.79,1.54-2.99,3.52c-0.64,6.34-3.15,11.67-9.18,14.48c-2.83,1.32-6.06,1.76-9.05,2.78
				c-4.8,1.63-7.89,7.4-6.25,11.53c5.02,12.66,12.22,23.87,22.27,33.15c0.8,0.74,1.52,1.88,3.31,0.86
				c-1.72-4.09-5.39-7.56-4.97-12.49c3.44,4.3,5.1,9.88,11.09,13.22c-2.32-4.61-4.14-8.43-4.95-12.61
				c-0.14-0.72-1.05-2.08-0.08-1.97c4.2,0.48,4.84-3.73,7.58-5.76c2.76,5.91,5.08,11.58,9.99,15.66c2.71,2.25,4.57,2.48,6.11-0.99
				L1061.36,931.73z M885.48,491.43c-0.67-0.99-1.11-1.35-1.16-1.76c-1.17-8.95-5.45-15.75-13.44-20.25
				c-2.13-1.2-4.04-2.99-5.65-4.86c-2.01-2.32-2.99-2.65-5.12,0.22c-4.33,5.83-7.5,12.48-12.84,17.61c-1.86,1.79-1.82,4.6-0.95,7.08
				c2.39,6.77,8,11.19,12.28,16.58c0.7,0.88,1.64,1.25,2.53,0.26c3.44-3.8,3.9-0.91,4.94,1.95c4.33,11.81,10.02,22.64,20.99,29.89
				c11.24,7.44,22.14,15.31,30.48,26.22c2.96,3.86,7.26,5.76,12.29,5.52c4.96-0.24,9.16,1.51,13.65,3.71
				c7.58,3.72,14.67,8.24,22.12,12.14c3.59,1.88,7.46,4.66,7.56,8.39c0.07,2.7,0.25,4.26,2.31,5.55
				c9.1,5.67,13.65,14.71,16.96,24.23c2.28,6.55,3.03,13.48,10.81,16.38c2.03,0.76,3.51,4.92,5.93,2.12
				c1.86-2.15-1.21-4.35-2.65-6.25c-0.6-0.79-1.34-1.5-2.13-2.1c-1.61-1.21-3.53-2.31-3.48-4.57c0.06-3.13-0.78-5.86-2.47-8.46
				c-0.76-1.16-0.97-2.63,0.31-3.63c1.31-1.01,2.91-0.37,3.54,0.68c1.76,2.94,5.7,4.23,6.08,8.18c0.14,1.52,1.2,2.53,2.65,2.53
				c3.56,0,6.27,2.02,9.21,3.53c1.32,0.68,3.22,2.05,4.12,1.03c2.99-3.4,4.03,0.06,5.58,1.32c0.99,0.8,1.49,2.19,2.44,3.07
				c1.65,1.54,3.74,1.87,5.38,0.25c1.66-1.64,0.84-3.3-0.86-4.63c-4.19-3.27-8.27-6.79-13.67-7.9c-4.25-0.87-6.57-4.35-9.66-6.78
				c-0.64-0.5-0.95-1.47-0.47-2.26c0.52-0.84,1.67-0.97,2.14-0.29c3.45,4.88,9.11,6.32,14.06,8.32c5.86,2.37,10.99,8.45,18.52,5.06
				c0.71-0.32,1.71-0.09,2.01-1.1c0.32-1.12-0.26-1.93-1.1-2.56c-4.61-3.47-9.26-6.9-15.09-8.05c-2.41-0.48-4.31-1.69-5.96-3.42
				c-4.42-4.63-7.09-10.93-13.32-13.85c-0.67-0.31-1.28-1.3-0.51-2.07c0.34-0.34,1.35-0.45,1.78-0.2c4.41,2.52,9.37,4.01,12.66,8.5
				c2.12,2.89,4.82,5.85,9.05,6.07c3.76,0.2,7.63-0.49,11.12,1.77c1.41,0.92,2.52-0.07,3.2-1.39c0.44-0.86,0.98-2.66,0.18-2.56
				c-4.73,0.56-5.93-4.12-9.16-5.74c-11.01-5.55-18.01-15.38-25.55-24.6c-2.16-2.64-0.22-3.61,2.02-3.9
				c4.3-0.55,6.85,2.34,8.71,5.48c2.3,3.88,5.44,5.5,9.75,5.3c1.27-0.06,2.87,0.46,3.55-1.09c0.75-1.72,0.07-3.63-1.21-4.54
				c-5.49-3.9-7.69-11.13-14.55-13.73c-4.99-1.89-8.79-7.75-14.73-6.01c-5.23,1.53-10.86,2.4-15.46,6.03
				c-1.79,1.41-6.46,2.49-6.6,2.18c-2.17-4.52-7.42-3.83-10.52-6.71c-7.53-7.01-16.48-12.51-22.97-20.6
				c-4.71-5.88-9.54-11.6-12.91-18.64c-4.54-9.46-9.68-18.84-19.6-24.41c-3.26-1.83-7.21-3.31-9.5-6.26
				c-6.37-8.21-16.96-7.59-24.88-12.52c-2.19-1.36-3.78,0.28-2.77,3.13C886.24,486.23,886.74,488.47,885.48,491.43z M1095.05,643.67
				c9.42-1.49,6.89-7.92,6.52-13.41c-0.06-0.93-0.87-2.22,0.35-2.67c6.18-2.28,4.31-7.46,4.4-11.9c0.03-1.55-0.4-3.13-2.31-3.31
				c-1.56-0.14-2.44,0.76-2.58,2.38c-0.17,2.12-1.36,2.21-2.6,0.95c-1.47-1.5-5.28-0.85-4.78-3.49c0.58-3.1,3.87-1.38,6.01-1.67
				c0.66-0.09,1.33-0.18,1.99-0.17c2.61,0.03,4.82-0.75,5.02-3.67c0.24-3.37-2.57-3.53-4.85-3.64c-7.79-0.39-15.59-0.58-23.39-0.89
				c-5.53-0.22-10.96-1.32-15.89-3.75c-8.77-4.32-17.58-8.19-27.6-8.19c-1.14,0-2.6-0.59-3.29,0.48c-0.91,1.43,0.49,2.49,1.36,3.39
				c5.36,5.65,12.02,9.03,19.36,11.47c4.42,1.47,9.21-0.58,13.4,1.96c0.97,0.59,2.5,0.73,2.14,2.24c-0.38,1.59-1.96,1.27-2.92,0.86
				c-3.98-1.72-6.46-0.11-8.58,3.2c-0.91,1.41-2.31,2.62-1.7,4.41c0.67,1.97,2.51,1.64,4.19,1.82c3.38,0.35,7.53,0,9.89,1.83
				c3.02,2.34,5.91,3.13,9.42,3.61c4.87,0.66,9.66,1.89,15.04,2.99c-2.39,1.55-4.52,1.39-6.59,1c-9.25-1.76-18.65-2.72-27.79-5.15
				c-2.46-0.65-6.33-3.41-7.36-0.36c-1.07,3.17,3.58,4.02,6.15,5.34c0.86,0.44,1.89,0.74,2.85,0.78c5.44,0.25,10.39,2.25,15.26,4.35
				c2.02,0.87,3.37,0.7,5.47,0.02c5.01-1.63,10.31-2.14,16.2-0.16c-2.74,2.2-4.92,0.83-6.96,1.03c-2.27,0.22-4.73-0.65-6.68,1.19
				c-0.89,0.84-2.92,0.84-2.49,2.63c0.33,1.37,1.93,0.95,2.99,1.27c1.9,0.57,4.19,0.31,6.13,2.64c-3,0-5.28,0.11-7.54-0.03
				c-2.82-0.17-5.51-1.27-6.4-4c-1.08-3.29-3.61-2.94-5.98-3.3c-0.81-0.12-1.73-0.15-2.16,0.76c-0.41,0.88,0.03,1.75,0.66,2.24
				c4.11,3.13,6.72,8.99,13.67,7.04c1.35-0.38,4.91-1.55,4.94,1.05c0.02,2.23-3.25,1.22-5.13,1.33c-1.16,0.07-2.51-0.16-3.04,1.16
				c-0.51,1.29,0.63,2.09,1.33,3.01c2.51,3.31,5,6.65,7.48,9.99c0.82,1.11,1.11,3.29,3.1,2.35c1.7-0.81,0.84-2.62,0.66-4.06
				c-0.43-3.3-0.88-6.59-1.24-9.9c-0.09-0.87,0.34-1.73,1.29-1.87c1.05-0.15,1.51,0.71,1.46,1.57c-0.43,7.53,3.68,14.6,2.19,22.24
				c-0.16,0.8-0.14,1.69,0.05,2.48c0.44,1.92,1.5,3.68,3.65,3.34c2.02-0.32,1.29-2.31,1.32-3.75c0.16-7.65-0.61-15.32,0.38-22.96
				C1102.41,644.79,1102.35,644.78,1095.05,643.67z M1075.03,1026.12c6.56,5.02,7.35,6.87,6.33,13.33
				c-0.09,0.56,0.26,1.56,0.68,1.77c3.33,1.59,3.48,8.99,9.72,5.36c0.35-0.2,1.22,0.35,1.78,0.67c8.18,4.66,16.49,8.5,26.14,4.31
				c0.52-0.23,1.33-0.03,1.93,0.18c1.53,0.53,3.03,0.82,3.85-0.96c0.78-1.7-0.57-2.75-1.55-3.86c-1.81-2.05-3.62-2.84-5.78-0.37
				c-0.99,1.14-2.35,1.76-3.94,1.92c-10.64,1.11-20.73-4.63-25.04-14.37c1.73-0.19,4.29,2.03,4.95-1.16
				c0.52-2.51-1.98-2.69-3.62-3.24c-4.6-1.53-8.6-4.13-12.66-6.68c-1.27-0.79-2.19-3.13-4.15-1.91c-1.8,1.12-2.16,3.38-2.39,5.28
				c-0.35,2.86,5.31,8.79,8.45,9.27C1080.33,1031.63,1075.61,1030.29,1075.03,1026.12z M896.95,1031.09
				c-1.94-3.77-3.63-7.48-5.69-10.98c-2.69-4.57-5.57-9.03-8.57-13.4c-1.06-1.55-2.88-2.64-4.75-1.26c-1.9,1.4-0.56,2.93,0.35,4.32
				c1.18,1.81,2.36,3.62,3.52,5.45c2.27,3.57,0.93,7.31-0.8,10.18c-1.65,2.73-11.9,1.23-14.01-1.51c-0.5-0.66-0.82-1.46-1.35-2.09
				c-0.76-0.87-1.76-1.97-2.91-1.09c-1.28,0.97-0.33,2.29,0.48,2.98c2.3,1.95,3.79,4.67,5.84,6.61c2.02,1.9,6.56,3.89,8.23,2.89
				c5.57-3.32,8.58,0.21,12.4,2.77c3.83,2.57,6.65,6.23,11.2,10c-2.42-4.94-6.16-7.27-7.68-11.17c-0.57-1.47-2.56-2.78-1.26-4.41
				C893.68,1028.23,894.43,1032.04,896.95,1031.09z M1031.52,869.48c2.25-2.89,4.07-2.83,6.08-2.87c4.93-0.1,6.98-3.02,5.33-7.59
				c-1.86-5.13-4.08-10.12-6.24-15.13c-0.91-2.1-2.15-3.02-3.83-0.48c-2.66,3.99-5.21,8.08-8.18,11.84c-2.75,3.48-2,5.31,1.79,7.22
				C1028.75,863.62,1032.82,863.51,1031.52,869.48z M886.34,1003.25c0.97,5.34,4.49,8.6,6.66,12.54c5.14,9.3,11.63,17.7,17.73,26.36
				c0.87,1.23,1.93,2.66,3.62,1.41c1.33-0.98,0.76-2.29-0.04-3.52c-6.96-10.62-13.91-21.24-20.8-31.91
				C891.89,1005.64,889.61,1004.36,886.34,1003.25z M925.26,1068.26c2.45,0.8,5.32,0.69,4.91,4.5c-0.14,1.29,1.98,1.76,3.27,1.2
				c2.96-1.31,4.11,0.5,5.51,2.57c2.12,3.13,3.58,6.81,6.81,9.06c1.6,1.12,3.88,2.54,5.43,0.94c2.03-2.1-0.83-3.28-1.86-4.76
				c-2.39-3.43-6.35-6.4-7.48-9.85c-1.47-4.49-4.34-6.43-7.7-7.9C930.55,1062.43,927.47,1064.33,925.26,1068.26z M1118.1,1088.79
				c7.09-1.66,16.02-2.74,24.06-7.01c0.95-0.5,1.65-1.25,1.32-2.38c-0.32-1.1-1.34-1.58-2.35-1.45c-1.63,0.21-3.25,0.61-4.82,1.1
				c-10.06,3.12-19.99,7.08-30.85,3.65c-1.33-0.42-2.75-0.06-3.06,1.67c-0.27,1.49,0.82,1.93,2.02,2.32
				C1108.34,1087.99,1112.35,1088.74,1118.1,1088.79z M1100.78,965.26c2.27,0.49,4.39,0.08,6.53-0.23c1.89-0.28,4.51,0.26,4.13-2.83
				c-0.33-2.67-2.73-1.87-4.42-1.81c-9.11,0.32-18.12,0.24-26.06-5.28c-0.87-0.6-2.06-0.84-2.65,0.18
				c-0.85,1.44,0.04,2.54,1.33,3.24C1086.29,962.13,1092.66,966.62,1100.78,965.26z M1101.23,886.27c-1.91-2.42-4.46-2.48-6.59-3.48
				c-1.97-0.92-3.48-0.74-4.85,0.86c-0.94,1.09-0.7,2.22,0.26,3.07c1.43,1.26,2.96,3.58,5,2.16c3.26-2.27,6.31-1.03,9.11,0.12
				c2.41,0.99,5.72,0.46,5.59-0.69c-0.32-2.96,3.2-5.78,0.81-8.09c-1.44-1.39-4.62-4.94-5.68-2.83
				C1103.58,879.99,1098.94,881.54,1101.23,886.27z M1079.53,894.8c6.2,6.05,12.79,11.66,20.61,15.57c1.96,0.98,5.15,2.18,6.31-0.32
				c1.44-3.11,3.42-6.7,1.06-10.41c-0.63-1-1.75-1.48-2.39-0.38c-2.28,3.91-4.39,2.21-6.69,0.09c-0.82-0.75-1.98-0.83-2.55,0.23
				c-0.47,0.89,0.5,1.32,1.17,1.85c2.77,2.18,5.46,4.46,8.18,6.7c-0.24,0.39-0.49,0.77-0.73,1.16
				C1095.34,906.02,1088.43,898.73,1079.53,894.8z M1108.55,970.82c-0.21-1.13-0.66-1.99-1.93-1.8c-2.64,0.39-5.16-0.77-7.91-0.22
				c-4.32,0.86-8.56-0.13-12.53-2.07c-1.79-0.87-4.05-3.73-5.39-1.12c-1.19,2.32,2.34,3.34,4.15,4.57c0.38,0.26,1.04,0.11,1.43,0.37
				c5.14,3.4,11.65,1.22,17.05,4.44C1105.96,976.5,1107.42,973.08,1108.55,970.82z M1142.45,898.76c-2.48-2.4-4.95-4.8-7.48-7.13
				c-0.06-0.05-1.3,0.74-1.32,1.18c-0.24,3.96-3.06,3.13-5.49,3.09c-3.48-0.05-6.96,0.08-10.3-1.25c-1.08-0.43-2.44-0.75-2.9,0.81
				c-0.41,1.37,0.66,2.25,1.76,2.62c1.55,0.52,3.32,0.46,4.82,1.08c6.08,2.5,12.75-1.6,18.79,1.83
				C1141.45,901.62,1142.09,899.88,1142.45,898.76z M1100.45,917.53c1.21-0.18,2.71,0,2.99-1.37c0.3-1.5-1.24-1.71-2.27-2.13
				c-7.86-3.23-15.12-7.43-21.38-13.24c-0.88-0.82-1.78-2.64-3.17-1.31c-1.45,1.38-0.13,2.91,1,3.77c5.27,3.98,10.65,7.82,16,11.71
				C1095.67,916.46,1098.05,917.12,1100.45,917.53z M1119.26,908.61c-2.66,0-4.31-0.09-5.95,0.04c-0.84,0.06-1.48,0.69-1.65,1.61
				c-0.17,0.93,0.2,1.8,1.01,2.04c6.04,1.77,12.3,1.86,18.51,1.92c1.5,0.02,2.49-1.72,2.2-3.38c-0.25-1.44-1.64-1.58-2.8-1.38
				C1126.39,910.2,1122.41,908.05,1119.26,908.61z M964.73,930.34c-0.54,0.4-1.08,0.8-1.62,1.19c5.82,8.88,11.09,18.21,19.49,25.03
				c0.55-0.43,1.1-0.87,1.65-1.3C977.75,946.95,971.24,938.64,964.73,930.34z M1141.25,1074.19c6.02,0.03,6.5-0.66,4.53-5.1
				c-1.08-2.43-2.3-4.79-3.36-7.23c-0.66-1.52-1.55-2.87-3.32-2.13c-2.01,0.83-1.93,2.54-0.79,4.13c1.35,1.9,2.1,3.86,0.76,6.01
				C1136.36,1074.24,1139.45,1074.11,1141.25,1074.19z M1112.87,933.32c3.56,1.33,7.32-1.26,11.08,0.25
				c0.97,0.39,1.97-0.31,2.04-1.53c0.07-1.2-0.74-1.77-1.85-1.87c-5.41-0.46-10.83-0.92-16.24-1.32c-1.4-0.1-2.72,0.2-2.85,1.97
				c-0.14,1.91,1.1,2.72,2.73,2.79C1109.42,933.69,1111.07,933.44,1112.87,933.32z M989.02,911.82c-0.46,0.33-1,0.52-1.17,0.89
				c-0.39,0.84,0.1,1.52,0.58,2.24c2.89,4.38,6.11,8.53,8.6,13.2c1.47,2.74,3.62,5.12,5.47,7.66c0.62,0.85,1.45,1.56,2.51,1
				c1.19-0.64,0.78-1.65,0.17-2.53c-5.01-7.16-10.02-14.31-15.05-21.45C989.87,912.45,989.45,912.19,989.02,911.82z
				 M1071.08,1049.93c-3.52-3.83-6.95-7.75-10.62-11.43c-1.24-1.24-3.16-1.24-4.5,0.14c-1.39,1.43-0.39,3.04,0.69,3.9
				C1060.83,1045.85,1064.97,1049.32,1071.08,1049.93z M1099.6,942.08c0.24,2.65,1.11,5,3.21,5.43c4.19,0.86,8.52,1.13,12.81,1.25
				c1.62,0.05,3.42-1.21,3.14-3.18c-0.29-2.06-2.06-0.72-3.23-0.87C1110.3,944.03,1104.79,945.3,1099.6,942.08z M951.7,965.52
				c0.38,4.39,6.61,12.1,10.2,12.84c1.35,0.28,2.79-0.09,2.49-1.46c-0.52-2.44,2.42-4.77,0.15-7.04c-0.81-0.81-1.57-0.01-1.72,0.91
				c-0.76,4.88-3.09,2.1-4.69,0.82C955.86,969.78,953.88,967.62,951.7,965.52z M1107.34,1021.62c-0.14,2.56,2.78,3.93,1.11,5.65
				c-1.64,1.7-3.7,0.17-5.53-0.39c-0.93-0.29-1.82-0.79-2.77-0.91c-0.49-0.06-1.28,0.37-1.55,0.81c-0.43,0.7,0.26,1.22,0.8,1.56
				c3.94,2.43,8.26,3.17,12.81,2.73c1.14-0.11,1.97-1.01,1.58-2.04C1112.62,1025.94,1111.68,1022.52,1107.34,1021.62z
				 M986.77,940.21c-2.04-7-7.72-10.67-10.86-16.09c-0.56-0.97-1.23-2.49-2.55-1.64c-1.48,0.95-0.59,2.42,0.22,3.46
				C977.43,930.87,980.28,936.71,986.77,940.21z M1092.87,942.91c1.33-0.14,2.86-0.23,3.32-1.69c0.53-1.71-1.11-2.18-2.2-2.82
				c-3.14-1.84-7.13-1.45-10.12-3.79c-0.29-0.23-1.4,0.11-1.69,0.51c-0.27,0.37-0.19,1.39,0.14,1.75
				C1085.18,939.99,1088.55,942.29,1092.87,942.91z M992.58,955.09c-3.47-6.17-8.69-10.73-14.17-15.04
				C982.04,946.07,985.38,952.37,992.58,955.09z M1052.89,349.75c0.06,0.98,0.13,1.77,0.16,2.56c0.06,1.55,0.16,3.45,2.21,3.08
				c2.01-0.37,1.53-2.3,1.09-3.72c-0.58-1.9-1.28-3.76-2.06-5.59c-0.43-1.02-0.7-2.46-2.14-2.44c-1.53,0.02-1.51,1.52-1.89,2.57
				c-0.28,0.78-0.54,1.57-0.77,2.37c-0.38,1.35-2.22,3.03-0.64,3.99C1051.16,353.96,1050.58,350.35,1052.89,349.75z M1120.84,920.46
				c0.06-0.54,0.13-1.07,0.19-1.61c-4.38-1.88-8.83-3.48-13.86-2.27c-0.56,0.13-1.23,0.63-1.47,1.14c-0.29,0.63,0.14,1.45,0.84,1.52
				C1111.3,919.69,1116.07,920.06,1120.84,920.46z M1090.08,988.63c0.4-0.35,2.95,2.49,3.59-0.45c0.61-2.78-1.92-2.8-3.79-3.44
				c-1.36-0.46-2.45-1.67-3.78-2.27c-1.27-0.58-3.5,0.59-2.82,1.06C1085.6,985.12,1082.98,991.83,1090.08,988.63z M1080.61,910.97
				c3.68,5.22,9.2,8.17,14.41,11.5c1.03,0.66,2.69,1.32,3.47-0.31c0.66-1.38-0.66-2.1-1.79-2.44
				C1090.73,917.92,1086.12,913.77,1080.61,910.97z M943.27,966.06c1.29,6.64,7.56,10.03,9.25,16.32c0.3,1.14,1.94,1.23,2.98,0.3
				c1.17-1.03,0.57-2.13-0.23-3.04C951.29,975.09,947.28,970.58,943.27,966.06z M1108.63,952.1c-1.02,0-1.85-0.01-2.67,0
				c-1.79,0.03-4.06-0.33-3.83,2.44c0.2,2.47,2.17,2.51,4.12,2.17c0.65-0.11,1.3-0.23,1.96-0.25c2.28-0.08,5.55,0.24,5.48-2.62
				C1113.62,950.75,1110.25,952.75,1108.63,952.1z M1007.83,921.72c-2.43-4.26-4.86-8.52-7.3-12.78c-0.59-1.02-1.27-2.26-2.64-1.47
				c-1.05,0.6-0.57,1.83-0.18,2.72C999.85,915.04,1003.41,918.76,1007.83,921.72z M914.01,1010.35c-0.6,0.25-1.16,0.32-1.43,0.64
				c-0.46,0.56-0.39,1.31,0.19,1.75c2.5,1.86,4.92,3.89,7.62,5.41c1.5,0.84,2.83-0.46,3.44-1.96c0.62-1.52-0.07-2.69-1.54-3.08
				C919.46,1012.34,916.37,1012.46,914.01,1010.35z M1125.1,316.15c-1.08-2.46-3.08-4.16-5.75-4.66c-1.62-0.31-2.3,1.15-1.96,2.64
				c0.54,2.33,0.59,5.25,3.96,5.37C1123.33,319.57,1124.79,318.52,1125.1,316.15z M1126.6,892.59c-2.34-3.61-4.93-5.24-8.43-5.58
				c-1.24-0.12-2.6-1.33-3.28,0.61c-0.69,1.97,0.88,2.53,2.27,3.16C1119.92,892.03,1122.91,891.89,1126.6,892.59z M1122.82,1069.26
				c-1.27-0.51-2.9-0.67-2.29,0.59c1.19,2.49,3.45,4.27,6.34,4.8c1.21,0.22,2.76-0.24,2.47-1.58
				C1128.57,1069.46,1125.55,1069.12,1122.82,1069.26z M917.38,1006.43c1.74-0.02,4.22,0.22,3.97-1.9
				c-0.44-3.73-4.34-2.79-6.77-3.81c-0.99-0.42-2.55-0.21-2.22,0.91C913.06,1004.04,914.66,1005.99,917.38,1006.43z M1100.47,325.24
				c-0.66-1.2,1.44-4.74-1.62-4.25c-2.55,0.41-1.67,4.16-2.08,6.46c-0.21,1.2,0.45,2.44,1.96,2.23
				C1101.32,329.32,1101.28,327.56,1100.47,325.24z M927.93,1055.99c1.62,0.09,2.59-0.54,2.54-1.94c-0.08-2.37-1.57-3.57-3.85-3.74
				c-1.31-0.1-3.27-0.23-3.28,1.35C923.32,1054.5,926.42,1054.64,927.93,1055.99z M958.61,949.63c-1.48,0.14-1.63,1.26-1.1,2.13
				c1.72,2.83,3.6,5.56,5.49,8.28c0.38,0.55,1.12,0.76,1.73,0.19c0.56-0.52,0.59-1.31,0.12-1.79c-2.38-2.38-4.08-5.19-5.44-8.23
				C959.29,949.96,958.89,949.83,958.61,949.63z M1102.64,1075.28c-1.4-1.83-2.89-3.82-5.57-4.18c-1.1-0.15-2.34,0.58-1.73,1.62
				c1.3,2.2,3.01,4.31,5.7,4.85C1102.08,1077.77,1102.65,1076.62,1102.64,1075.28z M988.36,932.86c1.14,3.21,2.87,5.61,4.55,8.02
				c0.5,0.72,1.17,1.38,2.04,0.85c1.13-0.68,0.84-1.75,0.13-2.54C993.12,937.04,992.18,933.89,988.36,932.86z M1090.8,1015.75
				c-1.57-0.05-2.63,0.01-2.84,0.87c-0.33,1.4,0.87,1.53,1.89,1.57c1.16,0.05,2.37-0.16,3.25,0.85c0.44,0.5,0.69,1.24,1.21,1.56
				c1.16,0.7,2.97,2.23,3.13-0.58c0.11-1.94-2.28-2.11-3.69-2.88C1092.61,1016.5,1091.39,1016.02,1090.8,1015.75z M1062.32,354.58
				c-0.53-1.39-0.45-3.62-2.55-3.57c-1.32,0.03-1.8,1.8-1.85,3.15c-0.07,1.59,0.42,3.13,2.27,3.25
				C1061.95,357.52,1062.21,356.06,1062.32,354.58z M1068.82,1021.2c-0.23-1.45-0.94-2.58-2.38-2.75c-1.74-0.2-2.74,0.87-2.92,2.55
				c-0.16,1.49,0.54,2.7,2.12,2.61C1067.08,1023.53,1068.51,1022.96,1068.82,1021.2z M1049.67,620.6c-1.73-3.21-4.89-3.41-6.83-5.14
				c-0.22-0.19-1.31,0.22-1.66,0.63c-0.63,0.77-0.25,1.79,0.57,1.99C1044.2,618.69,1046.22,620.71,1049.67,620.6z M1088.69,953.27
				c2.56,1.32,5.01,2.54,7.4,3.9c0.88,0.5,1.93,0.44,2.66-0.46c0.49-0.61,0.21-1.69-0.22-1.63
				C1094.99,955.63,1092.4,951.8,1088.69,953.27z M1087.81,946.51c2.27,1.17,4.49,2.44,6.83,3.46c0.85,0.37,2.13,0.19,2.38-1.07
				c0.25-1.28-0.9-1.93-1.81-1.77C1092.64,947.58,1090.69,945.3,1087.81,946.51z M919.84,1085.67c0.79,2.27,1.76,3.5,3.47,4
				c1.44,0.42,3.24,0.84,3.83-0.9c0.76-2.26-1.43-1.96-2.7-2.26C923.06,1086.18,921.65,1085.99,919.84,1085.67z M1082.66,975.91
				c-1.91,1.08-4.18,2.15-4.93,4.67c-0.24,0.81,1.04,1.58,1.68,1.1c1.93-1.42,3.78-3.01,5.36-4.8
				C1085.13,976.47,1083.75,975.94,1082.66,975.91z M1061.59,343.71c1.55,3.59,3.03,6.18,3.39,10.27
				C1067.03,346.7,1066.81,346.04,1061.59,343.71z M1077.52,938.35c-1.27-1.53-2.97-2.68-5.06-3.08c-0.77-0.14-1.07,0.76-0.9,1.39
				c0.55,2.07,1.89,3.41,4.1,3.56C1076.7,940.3,1077.59,939.89,1077.52,938.35z M947.18,1096.22c0.97-0.09,2.14-0.39,1.83-1.25
				c-0.66-1.84-2.27-3.03-4.06-3.75c-0.82-0.33-1.78,0.39-1.67,1.26C943.58,1094.73,945.47,1095.5,947.18,1096.22z M974.6,973.72
				c-0.64-1.03-1.45-2.34-3.1-2.48c-1.21-0.1-1.79,0.93-1.68,1.96c0.22,2.07,1.86,2.55,3.58,2.58
				C974.35,975.79,974.76,975.01,974.6,973.72z"/>
			<path class="st0" d="M990.63,1076.82c9.78,0.82,19.49,2.08,29.05,4.43c1.44,0.35,2.98,0.26,4.46,0.47
				c3.94,0.56,5.17-0.79,4.02-4.78c-1.39-4.85,0.18-6.59,5.06-6.12c12.73,1.23,25.11,4.1,37.28,8.01c1.7,0.55,3.77,1.06,5.38,0.6
				c5.48-1.58,9.23,1.82,13.38,4.1c2.31,1.28,2.82,3.44,1.45,5.53c-1.48,2.25-3.1,0.49-4.7-0.32c-4.72-2.38-9.72-3.45-14.95-4.49
				c-8.44-1.68-16.91-3.51-25.3-5.55c-2.43-0.59-4.83-1.33-7.28-1.75c-2.18-0.38-3.76,0.13-4.2,2.89c-1.24,7.66-2.8,8.75-10.53,7.35
				c-7.69-1.4-15.36-2.93-22.99-4.64c-5.1-1.14-10.23-1.25-15.4-1.39c-1.87-0.05-4.08-0.21-3.75-2.8c0.29-2.24,2.4-1.82,4.04-1.76
				C987.3,1076.65,988.96,1076.74,990.63,1076.82z"/>
			<path class="st0" d="M845.87,1074.32c-7-2.03-14.39,3.32-22.07-0.23c-4.62-2.14-6.48-6.08-3.39-10.14
				c1.57-2.06,3.56-3.59,6.11-4.07c6.05-1.14,12.1-2.71,18.21-3.04c7.56-0.4,14.84-1.75,22.06-3.78c1.56-0.44,3.66-1.38,4.31,0.77
				c0.74,2.43-1.88,2.21-3.25,2.76c-10.09,4.09-20.76,4.6-31.41,4.47c-4.03-0.05-6.88,2.06-10.18,3.37c-1.52,0.6-2.07,2.13-1.54,3.8
				c0.69,2.18,2.24,3.27,4.51,3.21c6.98-0.19,13.98-0.21,20.94-0.71c5.39-0.38,10.65,0.43,15.91,1.1c4.68,0.6,6.21,4.1,3.92,8.37
				c-0.65,1.21-1.64,2.29-0.55,3.57c1.05,1.24,2.49,0.71,3.72,0.24c9.53-3.62,19.38-1.63,29.11-1.62c1.15,0,2.6,0.28,2.61,1.74
				c0.01,1.61-1.59,1.51-2.65,1.56c-6.48,0.34-12.96,0.62-19.44,0.83c-3.48,0.11-6.89-0.05-10.29,1.36
				c-2.78,1.15-5.64-0.2-8.03-1.75c-2.51-1.63-1.46-3.81-0.07-5.61c2.46-3.18,0.92-4.23-2.22-4.98
				C856.95,1074.31,851.72,1073.5,845.87,1074.32z"/>
			<path class="st0" d="M1028.87,212.64c0.44-3.27,2.76-4.62,5-5.96c15.68-9.36,32.24-13.04,50.53-9.34
				c13.86,2.81,26.07,8.8,34.41,19.74c6.34,8.32,12.07,18.06,10.61,29.72c-0.15,1.24,0.43,3.18-1.24,3.35
				c-2.1,0.21-0.92-1.93-1.41-2.92c-1.64-3.32-3.9-6.18-7.55-7.47c-3.38-1.19-1.71-3.89-1.69-5.89c0.03-2.69,1.5-1.29,2.98-0.88
				c3.01,0.82,2.33-1.43,1.88-3c-2.31-8.14-7.22-14.53-13.91-19.46c-10.76-7.94-23.69-11.41-36.34-12.06
				c-8.64-0.44-18.64-0.51-26.9,5.15C1040.14,207.12,1034.15,209.15,1028.87,212.64z"/>
			<path class="st0" d="M1119.29,268.73c-2.63-0.29-4.91,3.84-6.36,0.72c-0.86-1.85,3.07-2.12,4.63-3.45
				c1.8-1.53,4.9-1.76,4.73-5.07c-0.08-1.45-0.9-2.79-2.31-2.88c-2.95-0.17-4.81,1.84-6.17,4.12c-1.1,1.84-2.85,3.18-3.58,5.34
				c-0.41,1.22-1.77,1.4-2.98,0.76c-0.77-0.4-1.66-1.37-1.05-1.91c3.89-3.38,4.81-8.91,9.51-11.92c3.33-2.12,6.43-0.74,9.57-1.31
				c1.27-0.23,1.5,1.08,1.19,2.13c-3.1,10.4,2.44,18.02,8.22,25.53c2.19,2.85,3.34,6.17,1.9,9.31c-1.82,3.97-4.8,7.18-10.13,6.52
				c0.42-2.64,1.25-4.56,4.51-4.72c3.04-0.16,4.06-2.17,2.81-4.9c-1.86-4.07-3.9-8.07-5.97-12.04c-0.65-1.25-1.43-3.23-3.22-2.27
				c-1.54,0.83-0.69,2.67-0.29,4.09c0.33,1.2,1.91,1.99,1.2,3.55C1120.51,278.11,1117.6,272.93,1119.29,268.73z"/>
			<path class="st0" d="M1058.32,257.28c3.79,3.29,6.75-3.02,10.81-5.07c2.54-1.28,3.69-0.98,4.3,1.6c0.34,1.48,0.81,2.78,1.78,4.01
				c1.36,1.72,1.05,3.09-1.42,3.37c-0.16,0.02-0.39-0.04-0.49,0.05c-4.33,4.13-8.06,1.21-12.33-0.52
				c-8.75-3.55-11.44-2.17-15.34,6.51c-0.59,1.32-1.24,2.66-2.84,1.74c-1.3-0.75-1.62-2.62-0.57-3.47
				C1046.57,262,1047.73,253.67,1058.32,257.28z"/>
			<path class="st0" d="M1041.06,276.05c-0.13-1.78,0.02-3.71,2.27-3.58c2.42,0.15,3.96,1.9,3.82,4.4c-0.31,5.64,3,9.19,6.74,12.65
				c1.96,1.82,4.68,1.59,6.79,2.93c1.41,0.9,3.19,1.66,2.88,3.64c-0.36,2.28-2.61,3.32-4.12,4.75c-0.74,0.7-2.2-0.56-2.04-1.41
				c0.99-5.27-3.53-3.53-5.75-4.5c-0.69-0.3-2.27,0.54-2.18-0.89c0.27-3.87-2.07-5.9-4.65-8.16c-1.68-1.47-2.85-3.77-2.19-6.3
				c0.46-1.79-0.25-2.86-1.72-3.66L1041.06,276.05z"/>
			<path class="st0" d="M1107.97,291.48c-2.42,4.2-3.77,7.59-7.96,2.78c-1.82-2.09-5.22-2.8-8.26-2.61
				c-1.42,0.09-2.63-0.12-3.82-0.75c-1.39-0.73-3.63-1.06-2.67-3.37c0.95-2.3,2.56-1.08,4.41-0.9c2.44,0.24,5.98,3.98,7.95-1.48
				c0.85-2.35,2.21,0.47,3.33,0.97C1103.72,287.36,1102.31,292.96,1107.97,291.48z"/>
			<path class="st0" d="M1069.63,301.05c0.1-2.41-3.36-2.62-1.85-4.63c0.87-1.16,2.54-0.12,3.69,0.36c1.98,0.83,3.08,3.33,1.92,4.41
				c-2.37,2.21-1.42,7.36-6.59,7.16c-1.44-0.06-2.74,1.77-2.65,3.72c0.11,2.23,1.28,2.16,3.06,1.68c1.32-0.36,1.39,1.08,1.63,1.99
				c0.23,0.89,0.19,1.74-1,1.76c-1.4,0.02-2.58,1.69-4.19,0.38c-2.36-1.93-3.51-4.96-2.14-7.05c1.66-2.53,2.67-5.06,3.5-7.86
				C1065.65,300.8,1068.29,302.04,1069.63,301.05z"/>
			<path class="st0" d="M983.52,432.25c-1.9,7.26-8,11.33-11.99,16.85c-2.7,3.74-6.08,7-9.2,10.43c-0.67,0.73-1.57,1.43-2.57,0.55
				c-0.58-0.51-0.34-1.25,0.16-1.75c8.1-8.07,14.84-17.32,22.47-25.8C982.54,432.36,982.94,432.39,983.52,432.25z"/>
			<path class="st0" d="M1011.46,282.7c0.85-7.09-3.15-13.13-4.36-19.79c-0.98-5.35,2.72-9.57,0.72-15.63
				c2.93,1.89,2.89,3.45,2.59,4.56c-1.86,6.9,0.01,13.22,2.33,19.65c1.35,3.74-0.61,7.5-1.28,11.23
				C1011.46,282.73,1011.46,282.7,1011.46,282.7z"/>
			<path class="st0" d="M1056.05,273.58c2.18-5.45,0.65-7.9-4.5-7.58c0.53-3.08,2.36-3.4,4.5-2.79c4.77,1.35,7.6,8.15,6.99,16.68
				c-2.15-0.97-1.79-2.99-2.02-4.67C1060.51,271.4,1060.55,271.4,1056.05,273.58z"/>
			<path class="st0" d="M1097.52,445.02c1.48,1.65,1.45,3.42,1.28,4.97c-0.4,3.49,0.11,6.23,3.93,7.49
				c1.14,0.38,2.01,1.44,1.29,2.75c-0.68,1.24-1.96,0.9-3.12,0.72C1095.02,460.08,1092.43,451.28,1097.52,445.02z"/>
			<path class="st0" d="M1027.62,289.78c-0.26,1.43-0.45,2.4-0.62,3.37c-0.24,1.38,0.17,3.45-1.81,3.5
				c-1.94,0.05-2.08-1.99-1.97-3.38c0.19-2.41-1.38-3.96-2.28-5.85c-0.52-1.08-0.74-2.28,0.52-3.06c0.98-0.61,1.77-0.15,2.65,0.51
				C1027.16,287.18,1027.75,288,1027.62,289.78z"/>
			<path class="st0" d="M1038.68,262.32c-1.47-0.27-3.07-1.85-2.3-2.5c3.3-2.84,0.43-6.41,1.61-9.38c0.35-0.9,0.47-2.13,1.75-1.96
				c0.93,0.13,1.08,1.14,1.08,1.99c-0.01,2.22,0.87,4.12,1.85,6.07C1043.86,258.96,1041.38,262.36,1038.68,262.32z"/>
			<path class="st0" d="M1059.35,330.99c-4.31,0.13-5.34-3.47-7.04-6.16c-0.56-0.89,0.03-1.96,1.06-2.45c1.3-0.63,2.1,0.03,2.9,1.08
				c1.53,2.01,1.07,7.41,6.14,3.8c0.08-0.05,0.87,0.54,0.91,0.87c0.07,0.62,0,1.4-0.34,1.88
				C1062.07,331.32,1060.54,330.68,1059.35,330.99z"/>
			<path class="st0" d="M1080.39,259.58c-4.81-4.2-4.62-5.3,2.05-13.38c1.39,2.44,0.66,4.37-0.69,6.27
				C1080.3,254.5,1081.54,257.03,1080.39,259.58z"/>
			<path class="st0" d="M1013.88,233.8c-0.06-5.26,2.28-9.48,5.89-13.17C1020.87,226.34,1016.01,229.48,1013.88,233.8z"/>
			<path class="st0" d="M1047.14,331.79c2.42,2.49,2.46,4.79,0.95,7.12c-0.74,1.15-1.65,3.03-3.33,1.37c-1.02-1-2.68-2.69-0.62-4.16
				C1045.59,335.09,1045.69,333.29,1047.14,331.79z"/>
			<path class="st0" d="M1079.82,275.28c3.11,2.3,3.27,4.97,2.95,7.81c-0.14,1.25-0.65,2.4-2.07,2.29c-1.59-0.12-1.77-1.4-1.26-2.58
				C1080.42,280.52,1079.16,278.02,1079.82,275.28z"/>
			<path class="st0" d="M1007.52,469.65c-3.67,3.8-7.62,7.12-12.96,8.06C998.86,474.99,1002.99,471.98,1007.52,469.65z"/>
			<path class="st0" d="M968.87,544.79c4.8,1.87,7.21,4.58,9.99,6.75c0.63,0.49,1.39,1.14,0.7,2c-0.66,0.83-1.53,0.42-2.12-0.2
				C975.01,550.79,971.53,549.29,968.87,544.79z"/>
			<path class="st0" d="M1055.16,313.55c0.02-1.31-0.11-2.76,1.49-2.72c1.29,0.03,1.08,1.34,1.11,2.32
				c0.02,0.97,0.16,1.94,0.24,2.91c0.1,1.37,2.83,3.21,0.15,3.92c-1.93,0.51-1.66-2.31-2.17-3.76
				C1055.65,315.31,1055.4,314.35,1055.16,313.55z"/>
			<path class="st0" d="M1052.39,249.8c-0.3-2.12,1.36-4.17-0.7-6.03c-0.61-0.55-0.75-1.62,0.17-2.09c1.05-0.54,1.65,0.19,2.34,1.06
				C1056.67,245.9,1053.8,247.68,1052.39,249.8z"/>
			<path class="st0" d="M1031.41,260.61c-0.86-3.38,0.66-6,0.96-9.88C1035.25,254.99,1035.09,257.78,1031.41,260.61z"/>
			<path class="st0" d="M1090.19,413.16c0.7,3.11,1.03,6.29,2.91,9.02C1090.38,419.75,1088.4,417.07,1090.19,413.16z"/>
			<path class="st0" d="M1032.12,289.48c0.44-1.04-0.65-3.02,1.55-2.98c1.41,0.03,1.86,1.31,1.7,2.57c-0.17,1.34-0.63,2.91-2.14,3
				C1031.23,292.2,1032.23,290.51,1032.12,289.48z"/>
			<path class="st0" d="M1040.93,275.91c0.05,1.13,0.25,2.28,0.1,3.39c-0.15,1.14-1.14,1.55-2.19,1.44
				c-1.23-0.13-2.12-0.81-2.38-2.09c-0.22-1.09,0.14-2.04,1.23-2.3c1.08-0.26,2.24-0.21,3.37-0.29
				C1041.06,276.05,1040.93,275.91,1040.93,275.91z"/>
			<path class="st0" d="M1047.43,249.54c-0.49,1.66-0.25,3.9-2.25,4.12c-1.83,0.2-1.64-1.71-1.5-2.97c0.18-1.63,0.45-3.62,2.51-3.71
				C1047.84,246.92,1047.31,248.6,1047.43,249.54z"/>
			<path class="st0" d="M1128.13,299.41c1.7,1.94,3.79,3.04,3.23,5.74c-0.05,0.22-1.01,0.55-1.17,0.4
				C1128.55,304.09,1126.67,302.65,1128.13,299.41z"/>
			<path class="st0" d="M1095.12,717.94c3.58-2.42,7.05-4.78,10.54-7.11c5.51-3.68,5.48-7.03-0.17-10.44
				c-5.99-3.61-12.43-6.32-18.82-9.13c-1.21-0.53-2.45-1.08-3.5-1.87c-1.55-1.17-5.15-1.91-3.19-4.45c2.13-2.77,3.23,1.12,4.89,1.94
				c6.52,3.22,13.15,6.22,19.77,9.24c1.36,0.62,2.97,0.78,4.19,1.57c2.48,1.62,4.97,3.48,5.18,6.79c0.21,3.21-1.78,5.16-4.35,6.69
				c-3.7,2.21-7.38,4.47-11.04,6.74C1097.63,718.55,1096.75,719.47,1095.12,717.94z"/>
			<path class="st0" d="M1118.63,684.1c-0.22-6.98-1.38-13.78-3.44-20.48c-1.31-4.27-2.49-8.67-2.96-13.09
				c-0.59-5.62-1.05-11.22-2.76-16.64c-0.34-1.08-0.83-2.53,0.72-2.96c1.71-0.47,1.68,1.15,1.9,2.22
				c1.26,6.35,2.48,12.72,3.71,19.08c0.85,4.4,1.56,8.81,3.17,13.06c2.98,7.9,2.61,16.27,2.87,24.52c0.03,1.09,0.43,2.68-1.18,2.81
				c-1.54,0.13-1.59-1.42-1.68-2.55C1118.8,688.09,1118.74,686.1,1118.63,684.1z"/>
			<path class="st0" d="M1111.48,827.58c0.13,1.42-0.66,2.22-1.93,2.47c-12.36,2.38-24.29,1.98-34.98-5.94
				c6.41-0.4,11.85,4.02,18.09,4.12c6.3,0.11,12.61-0.37,18.91-0.59L1111.48,827.58z"/>
			<path class="st0" d="M1111.58,827.64c2.54-1.36,5.24-1.9,8.13-1.93c5.98-0.06,11.94-0.14,17.69-2.28c1.5-0.56,3.27-0.44,4.93-0.5
				c0.82-0.03,1.76,0.22,1.89,1.23c0.13,1.07-0.76,1.39-1.59,1.46c-10.36,0.87-20.56,4.17-31.12,1.98
				C1111.48,827.58,1111.58,827.64,1111.58,827.64z"/>
			<path class="st0" d="M1046.07,808.46c7.4,4.14,14.8,8.27,22.18,12.44c0.76,0.43,1.34,1.29,0.72,2.04
				c-0.89,1.08-2.29,0.66-3.22,0.12c-4.7-2.72-9.37-5.51-13.94-8.46c-2.29-1.48-4.33-3.34-6.48-5.03
				C1045.58,809.21,1045.83,808.83,1046.07,808.46z"/>
			<path class="st0" d="M1073.36,838.48c12.17,1.11,23.7-1.03,35.2,0.73c1.25,0.19,2.78-0.04,3.46,1.44
				c0.14,0.31-0.14,1.02-0.45,1.29c-1.52,1.36-2.68,0.12-4-0.56c-2.1-1.09-4.36-1.43-6.77-1.18c-7.94,0.83-15.93-0.75-23.88,0.4
				C1075.77,840.76,1074.57,840.65,1073.36,838.48z"/>
			<path class="st0" d="M1065.37,655.7c-7.14,0.38-14.25,0.38-21.2-1.7c7.05,0.3,14.37-2.82,21.07,1.81
				C1065.26,655.8,1065.37,655.7,1065.37,655.7z"/>
			<path class="st0" d="M1057.48,836.43c-4.59,0.17-8.17-3.43-12.72-3.47c-0.31,0-0.81-0.58-0.89-0.96
				c-0.2-0.91,0.64-1.01,1.24-1.18c2.63-0.71,10.39,2.88,12.29,5.66L1057.48,836.43z"/>
			<path class="st0" d="M1032.96,646.51c1.68,2.07,4.42,3.55,6.87,5.42c0.84,0.63,0.01,1.38-0.88,1.65
				c-2.46,0.74-8.27-3.46-8.09-5.91C1030.92,646.78,1031.35,646.09,1032.96,646.51z"/>
			<path class="st0" d="M1057.4,836.49c4.01-0.54,8.05-1.55,12.68,0.95c-4.92,1.7-8.77,0.63-12.58-1.02
				C1057.48,836.43,1057.4,836.49,1057.4,836.49z"/>
			<path class="st0" d="M895.66,495.47c4.29,10.62,14.57,16.23,20.98,24.99C906.26,515.97,895.05,502.66,895.66,495.47z"/>
			<path class="st0" d="M984.72,585.09c5,0.54,8.71,3.31,14.08,2.62C993.54,591.18,990.39,590.5,984.72,585.09z"/>
			<path class="st0" d="M928.01,539.04c2.78,2.85,5.22,5.77,5.95,9.66C931.75,545.56,928.22,543.25,928.01,539.04z"/>
			<path class="st0" d="M1004.43,609.54c-0.18-1.28,0.57-1.82,1.39-1.68c2.06,0.37,3.39,1.89,4.4,3.58c0.3,0.51-0.43,1.35-1.14,1.22
				C1007.07,612.26,1005.63,610.93,1004.43,609.54z"/>
			<path class="st0" d="M1061.47,931.65c-2.34,0.47-4.32-0.12-5.69-2.15c-2.33-3.43-4.65-6.86-6.91-10.34
				c-0.56-0.86-0.82-2,0.29-2.6c1.02-0.55,1.39,0.53,1.8,1.2c3.04,4.97,6.57,9.57,10.38,13.97
				C1061.36,931.73,1061.47,931.65,1061.47,931.65z"/>
			<path class="st0" d="M1078.77,622.07c1.53-2.67,5.58,0.49,5.71-2.68c0.1-2.65-3.76-2.55-5.75-3.84
				c-1.92-1.24-4.18-1.97-6.25-2.99c-0.74-0.36-1.52-0.91-1.1-1.91c0.39-0.93,1.34-0.97,2.12-0.73c5.47,1.68,10.86,3.75,16.68,2.25
				c0.45,3.12-4.19,2.85-2.41,5.28c1.3,1.77,3.6,2.81,6.08,2.98c2.05,0.13,4.08,0.5,6.53,0.82
				C1092.83,626.77,1085.84,619.12,1078.77,622.07z"/>
		</g>
	</g>
</g>
</svg>
